<svg viewBox="0 0 1180 720" xmlns="http://www.w3.org/2000/svg" font-family="Arial, Helvetica, sans-serif">
<rect width="1180" height="720" fill="#FBF9F4"/>
<text x="56" y="54" font-size="27" font-weight="700" fill="#0F1828">The prize, sized</text>
<text x="56" y="84" font-size="16" fill="#4A5567">India&#8217;s addressable enterprise-software + cloud market, and the share a sovereign stack could capture by 2035.</text>
<text x="1124" y="40" font-size="13" fill="#4A5567" text-anchor="end">Figure 21.1 &#183; Techadyant Labs &#183; 2026</text>
<line x1="90" y1="560" x2="720" y2="560" stroke="#E8E5DD" stroke-width="1"/>
<text x="80" y="564" font-size="12" fill="#4A5567" text-anchor="end">$0</text>
<line x1="90" y1="462" x2="720" y2="462" stroke="#E8E5DD" stroke-width="1"/>
<text x="80" y="466" font-size="12" fill="#4A5567" text-anchor="end">$45</text>
<line x1="90" y1="365" x2="720" y2="365" stroke="#E8E5DD" stroke-width="1"/>
<text x="80" y="369" font-size="12" fill="#4A5567" text-anchor="end">$90</text>
<line x1="90" y1="268" x2="720" y2="268" stroke="#E8E5DD" stroke-width="1"/>
<text x="80" y="272" font-size="12" fill="#4A5567" text-anchor="end">$135</text>
<line x1="90" y1="170" x2="720" y2="170" stroke="#E8E5DD" stroke-width="1"/>
<text x="80" y="174" font-size="12" fill="#4A5567" text-anchor="end">$180</text>
<text x="44" y="365" font-size="13" font-weight="700" fill="#0F1828" text-anchor="middle" transform="rotate(-90 44 365)">USD bn</text>
<rect x="69" y="471" width="42" height="89" rx="3" fill="#C9A84C" fill-opacity="0.28"/>
<rect x="69" y="556" width="42" height="4" rx="3" fill="#2BC5B4" fill-opacity="0.85"/>
<text x="90" y="580" font-size="11.5" fill="#4A5567" text-anchor="middle">2026</text>
<rect x="139" y="455" width="42" height="105" rx="3" fill="#C9A84C" fill-opacity="0.28"/>
<rect x="139" y="552" width="42" height="8" rx="3" fill="#2BC5B4" fill-opacity="0.85"/>
<text x="160" y="580" font-size="11.5" fill="#4A5567" text-anchor="middle">2027</text>
<rect x="209" y="436" width="42" height="124" rx="3" fill="#C9A84C" fill-opacity="0.28"/>
<rect x="209" y="547" width="42" height="13" rx="3" fill="#2BC5B4" fill-opacity="0.85"/>
<text x="230" y="580" font-size="11.5" fill="#4A5567" text-anchor="middle">2028</text>
<rect x="279" y="413" width="42" height="147" rx="3" fill="#C9A84C" fill-opacity="0.28"/>
<rect x="279" y="540" width="42" height="20" rx="3" fill="#2BC5B4" fill-opacity="0.85"/>
<text x="300" y="580" font-size="11.5" fill="#4A5567" text-anchor="middle">2029</text>
<rect x="349" y="389" width="42" height="171" rx="3" fill="#C9A84C" fill-opacity="0.28"/>
<rect x="349" y="532" width="42" height="28" rx="3" fill="#2BC5B4" fill-opacity="0.85"/>
<text x="370" y="580" font-size="11.5" fill="#4A5567" text-anchor="middle">2030</text>
<rect x="419" y="361" width="42" height="199" rx="3" fill="#C9A84C" fill-opacity="0.28"/>
<rect x="419" y="522" width="42" height="38" rx="3" fill="#2BC5B4" fill-opacity="0.85"/>
<text x="440" y="580" font-size="11.5" fill="#4A5567" text-anchor="middle">2031</text>
<rect x="489" y="329" width="42" height="231" rx="3" fill="#C9A84C" fill-opacity="0.28"/>
<rect x="489" y="510" width="42" height="50" rx="3" fill="#2BC5B4" fill-opacity="0.85"/>
<text x="510" y="580" font-size="11.5" fill="#4A5567" text-anchor="middle">2032</text>
<rect x="559" y="291" width="42" height="269" rx="3" fill="#C9A84C" fill-opacity="0.28"/>
<rect x="559" y="494" width="42" height="66" rx="3" fill="#2BC5B4" fill-opacity="0.85"/>
<text x="580" y="580" font-size="11.5" fill="#4A5567" text-anchor="middle">2033</text>
<rect x="629" y="247" width="42" height="313" rx="3" fill="#C9A84C" fill-opacity="0.28"/>
<rect x="629" y="475" width="42" height="85" rx="3" fill="#2BC5B4" fill-opacity="0.85"/>
<text x="650" y="580" font-size="11.5" fill="#4A5567" text-anchor="middle">2034</text>
<rect x="699" y="195" width="42" height="365" rx="3" fill="#C9A84C" fill-opacity="0.28"/>
<rect x="699" y="451" width="42" height="109" rx="3" fill="#2BC5B4" fill-opacity="0.85"/>
<text x="720" y="580" font-size="11.5" fill="#4A5567" text-anchor="middle">2035</text>
<text x="90" y="463" font-size="12" font-weight="700" fill="#9c7e1f" text-anchor="middle">$41</text>
<text x="720" y="169" font-size="14" font-weight="700" fill="#9c7e1f" text-anchor="middle">$168bn</text>
<text x="720" y="185" font-size="10.5" fill="#9c7e1f" text-anchor="middle">addressable</text>
<text x="720" y="443" font-size="13" font-weight="700" fill="#1a8a7d" text-anchor="middle">$51bn</text>
<rect x="90" y="600" width="16" height="16" fill="#C9A84C" fill-opacity="0.28"/><text x="114" y="613" font-size="13" fill="#0F1828">Total addressable (enterprise software + public cloud)</text>
<rect x="90" y="624" width="16" height="16" fill="#2BC5B4" fill-opacity="0.85"/><text x="114" y="637" font-size="13" fill="#0F1828">Sovereign-capturable (central, 5%&#8594;30% ramp; range $34&#8211;68bn)</text>
<rect x="770" y="168" width="334" height="92" rx="10" fill="#ffffff" stroke="#1a8a7d" stroke-width="1.5"/>
<text x="788" y="202" font-size="26" font-weight="700" fill="#1a8a7d" font-family="monospace">~$51bn</text>
<text x="788" y="226" font-size="13" fill="#0F1828">Sovereign-software TAM by 2035 (central)</text>
<text x="788" y="246" font-size="12.5" fill="#4A5567">range $34&#8211;68bn &#183; modelled</text>
<rect x="770" y="272" width="334" height="92" rx="10" fill="#ffffff" stroke="#C8443B" stroke-width="1.5"/>
<text x="788" y="306" font-size="26" font-weight="700" fill="#C8443B" font-family="monospace">$4.6&#8211;10.2bn/yr</text>
<text x="788" y="330" font-size="13" fill="#0F1828">Replaceable foreign-software spend</text>
<text x="788" y="350" font-size="12.5" fill="#4A5567">central ~$7.4bn &#183; +40&#8211;60% saving</text>
<rect x="770" y="376" width="334" height="92" rx="10" fill="#ffffff" stroke="#9c7e1f" stroke-width="1.5"/>
<text x="788" y="410" font-size="26" font-weight="700" fill="#9c7e1f" font-family="monospace">$224bn vs $78bn</text>
<text x="788" y="434" font-size="13" fill="#0F1828">India software exports = SERVICES;</text>
<text x="788" y="454" font-size="12.5" fill="#4A5567">Israel = PRODUCTS. India must export products + the DPI stack.</text>
<text x="770" y="500" font-size="12.5" fill="#4A5567" width="334">Two export models: Israel-style deep-tech</text>
<text x="770" y="518" font-size="12.5" fill="#4A5567">products (cyber) + DPI/MOSIP sovereign-stack</text>
<text x="770" y="536" font-size="12.5" fill="#4A5567">export to the Global South.</text>
<text x="56" y="676" font-size="12.5" fill="#4A5567">Source: Gartner, IDC, RBI, NASSCOM, Israel Innovation Authority. TAM &amp; capture modelled by Techadyant Labs; ranges, not forecasts.</text>
</svg>
