<svg viewBox="0 0 1180 660" xmlns="http://www.w3.org/2000/svg" font-family="Arial, Helvetica, sans-serif">
<rect width="1180" height="660" fill="#FBF9F4"/>
<text x="56" y="54" font-size="27" font-weight="700" fill="#0F1828">Where the enterprise-software spend goes</text>
<text x="56" y="84" font-size="16" fill="#4A5567">India's ~$41bn addressable enterprise-software + cloud market by sector (2026, modelled). Colour = SAP/foreign-dependency intensity.</text>
<text x="1124" y="40" font-size="13" fill="#4A5567" text-anchor="end">Figure 3.1 · Techadyant Labs · 2026</text>
<rect x="56.0" y="150.0" width="231.4" height="437.0" rx="4" fill="#C9A84C" fill-opacity="0.85"/>
<text x="68" y="176" font-size="16" font-weight="700" fill="#0F1828">BFSI</text>
<text x="68" y="196" font-size="13" fill="#0F1828" opacity="0.92">$9.0bn · 22%</text>
<rect x="290.4" y="150.0" width="333.0" height="218.7" rx="4" fill="#C8443B" fill-opacity="0.85"/>
<text x="302" y="176" font-size="16" font-weight="700" fill="#FBF9F4">Manufacturing</text>
<text x="302" y="196" font-size="13" fill="#FBF9F4" opacity="0.92">$6.5bn · 16%</text>
<rect x="290.4" y="371.7" width="333.0" height="215.3" rx="4" fill="#4A5567" fill-opacity="0.85"/>
<text x="302" y="398" font-size="16" font-weight="700" fill="#FBF9F4">Other</text>
<text x="302" y="418" font-size="13" fill="#FBF9F4" opacity="0.92">$6.4bn · 16%</text>
<rect x="626.5" y="150.0" width="270.5" height="227.5" rx="4" fill="#C9A84C" fill-opacity="0.85"/>
<text x="638" y="176" font-size="16" font-weight="700" fill="#0F1828">IT / Telecom</text>
<text x="638" y="196" font-size="13" fill="#0F1828" opacity="0.92">$5.5bn · 13%</text>
<rect x="626.5" y="380.5" width="270.5" height="206.5" rx="4" fill="#C9A84C" fill-opacity="0.85"/>
<text x="638" y="406" font-size="16" font-weight="700" fill="#0F1828">Government / PSU</text>
<text x="638" y="426" font-size="13" fill="#0F1828" opacity="0.92">$5.0bn · 12%</text>
<rect x="900.0" y="150.0" width="221.0" height="165.8" rx="4" fill="#C8443B" fill-opacity="0.85"/>
<text x="912" y="176" font-size="16" font-weight="700" fill="#FBF9F4">Energy / Utilities</text>
<text x="912" y="196" font-size="13" fill="#FBF9F4" opacity="0.92">$3.3bn · 8%</text>
<rect x="900.0" y="318.8" width="221.0" height="165.8" rx="4" fill="#4A5567" fill-opacity="0.85"/>
<text x="912" y="345" font-size="16" font-weight="700" fill="#FBF9F4">Retail / Consumer</text>
<text x="912" y="365" font-size="13" fill="#FBF9F4" opacity="0.92">$3.3bn · 8%</text>
<rect x="900.0" y="487.7" width="221.0" height="99.3" rx="4" fill="#4A5567" fill-opacity="0.85"/>
<text x="912" y="514" font-size="16" font-weight="700" fill="#FBF9F4">Healthcare</text>
<text x="912" y="534" font-size="13" fill="#FBF9F4" opacity="0.92">$2.0bn · 5%</text>
<rect x="56" y="612" width="14" height="14" fill="#C8443B" fill-opacity="0.85"/><text x="76" y="624" font-size="13" fill="#0F1828">High (SAP monoculture)</text>
<rect x="300" y="612" width="14" height="14" fill="#C9A84C" fill-opacity="0.85"/><text x="320" y="624" font-size="13" fill="#0F1828">Mixed</text>
<rect x="430" y="612" width="14" height="14" fill="#4A5567" fill-opacity="0.85"/><text x="450" y="624" font-size="13" fill="#0F1828">Fragmented / lower</text>
<text x="1124" y="624" font-size="12" fill="#4A5567" text-anchor="end">Source: Gartner, IDC; sector shares modelled by Techadyant Labs. Indicative.</text>
</svg>