<svg xmlns="http://www.w3.org/2000/svg" viewBox="0 0 1600 900" font-family="Arial, Helvetica, sans-serif"><defs><marker id="ar" markerWidth="10" markerHeight="10" refX="7" refY="3" orient="auto" markerUnits="strokeWidth"><path d="M0,0 L7,3 L0,6 Z" fill="#4A5567"/></marker><marker id="arb" markerWidth="10" markerHeight="10" refX="7" refY="3" orient="auto" markerUnits="strokeWidth"><path d="M0,0 L7,3 L0,6 Z" fill="#C9A84C"/></marker></defs><rect x="0.0" y="0.0" width="1600.0" height="900.0" rx="0" fill="#FBF9F4"/><rect x="56.0" y="46.0" width="90.0" height="5.0" rx="0" fill="#C9A84C"/><text x="56.0" y="86.0" font-family="Arial, Helvetica, sans-serif" font-size="38" font-weight="700" fill="#0F1828" text-anchor="start">Risk and reward, segment by segment</text><text x="56.0" y="120.0" font-family="Arial, Helvetica, sans-serif" font-size="20" font-weight="400" fill="#4A5567" text-anchor="start">Heat map of risk drivers — crimson = high risk; reward column on a teal (good) scale</text><text x="1544.0" y="60.0" font-family="Arial, Helvetica, sans-serif" font-size="15" font-weight="600" fill="#4A5567" text-anchor="end" letter-spacing="1.5">TECHADYANT LABS</text><line x1="56.0" y1="144.0" x2="1544.0" y2="144.0" stroke="#4A5567" stroke-width="1" opacity="0.25"/><text x="413.0" y="178.0" font-family="Arial, Helvetica, sans-serif" font-size="14.5" font-weight="700" fill="#4A5567" text-anchor="middle">Regulatory</text><text x="587.0" y="178.0" font-family="Arial, Helvetica, sans-serif" font-size="14.5" font-weight="700" fill="#4A5567" text-anchor="middle">Technology</text><text x="761.0" y="178.0" font-family="Arial, Helvetica, sans-serif" font-size="14.5" font-weight="700" fill="#4A5567" text-anchor="middle">Market</text><text x="935.0" y="178.0" font-family="Arial, Helvetica, sans-serif" font-size="14.5" font-weight="700" fill="#4A5567" text-anchor="middle"></text><text x="935.0" y="194.0" font-family="Arial, Helvetica, sans-serif" font-size="14.5" font-weight="700" fill="#4A5567" text-anchor="middle">Competition</text><text x="1109.0" y="178.0" font-family="Arial, Helvetica, sans-serif" font-size="14.5" font-weight="700" fill="#4A5567" text-anchor="middle">Capital</text><text x="1283.0" y="178.0" font-family="Arial, Helvetica, sans-serif" font-size="14.5" font-weight="700" fill="#4A5567" text-anchor="middle">Overall</text><text x="1283.0" y="194.0" font-family="Arial, Helvetica, sans-serif" font-size="14.5" font-weight="700" fill="#4A5567" text-anchor="middle">risk</text><text x="1457.0" y="178.0" font-family="Arial, Helvetica, sans-serif" font-size="14.5" font-weight="700" fill="#4A5567" text-anchor="middle">Reward</text><text x="56.0" y="251.9" font-family="Arial, Helvetica, sans-serif" font-size="18" font-weight="600" fill="#0F1828" text-anchor="start">Manufacturing</text><rect x="329.0" y="211.0" width="168.0" height="71.8" rx="4" fill="rgba(200,68,59,0.62)"/><text x="413.0" y="251.9" font-family="Arial, Helvetica, sans-serif" font-size="13.5" font-weight="600" fill="#FBF9F4" text-anchor="middle">High</text><rect x="503.0" y="211.0" width="168.0" height="71.8" rx="4" fill="rgba(200,68,59,0.62)"/><text x="587.0" y="251.9" font-family="Arial, Helvetica, sans-serif" font-size="13.5" font-weight="600" fill="#FBF9F4" text-anchor="middle">High</text><rect x="677.0" y="211.0" width="168.0" height="71.8" rx="4" fill="rgba(201,168,76,0.55)"/><text x="761.0" y="251.9" font-family="Arial, Helvetica, sans-serif" font-size="13.5" font-weight="600" fill="#0F1828" text-anchor="middle">Moderate</text><rect x="851.0" y="211.0" width="168.0" height="71.8" rx="4" fill="rgba(200,68,59,0.62)"/><text x="935.0" y="251.9" font-family="Arial, Helvetica, sans-serif" font-size="13.5" font-weight="600" fill="#FBF9F4" text-anchor="middle">High</text><rect x="1025.0" y="211.0" width="168.0" height="71.8" rx="4" fill="rgba(200,68,59,0.62)"/><text x="1109.0" y="251.9" font-family="Arial, Helvetica, sans-serif" font-size="13.5" font-weight="600" fill="#FBF9F4" text-anchor="middle">High</text><rect x="1199.0" y="211.0" width="168.0" height="71.8" rx="4" fill="rgba(200,68,59,0.62)"/><text x="1283.0" y="251.9" font-family="Arial, Helvetica, sans-serif" font-size="13.5" font-weight="600" fill="#FBF9F4" text-anchor="middle">High</text><rect x="1373.0" y="211.0" width="168.0" height="71.8" rx="4" fill="rgba(43,197,180,0.6)"/><text x="1457.0" y="251.9" font-family="Arial, Helvetica, sans-serif" font-size="13.5" font-weight="600" fill="#0F1828" text-anchor="middle">High</text><text x="56.0" y="329.6" font-family="Arial, Helvetica, sans-serif" font-size="18" font-weight="600" fill="#0F1828" text-anchor="start">MRO</text><rect x="329.0" y="288.8" width="168.0" height="71.8" rx="4" fill="rgba(201,168,76,0.55)"/><text x="413.0" y="329.6" font-family="Arial, Helvetica, sans-serif" font-size="13.5" font-weight="600" fill="#0F1828" text-anchor="middle">Moderate</text><rect x="503.0" y="288.8" width="168.0" height="71.8" rx="4" fill="rgba(43,197,180,0.75)"/><text x="587.0" y="329.6" font-family="Arial, Helvetica, sans-serif" font-size="13.5" font-weight="600" fill="#0F1828" text-anchor="middle">Low</text><rect x="677.0" y="288.8" width="168.0" height="71.8" rx="4" fill="rgba(43,197,180,0.75)"/><text x="761.0" y="329.6" font-family="Arial, Helvetica, sans-serif" font-size="13.5" font-weight="600" fill="#0F1828" text-anchor="middle">Low</text><rect x="851.0" y="288.8" width="168.0" height="71.8" rx="4" fill="rgba(201,168,76,0.55)"/><text x="935.0" y="329.6" font-family="Arial, Helvetica, sans-serif" font-size="13.5" font-weight="600" fill="#0F1828" text-anchor="middle">Moderate</text><rect x="1025.0" y="288.8" width="168.0" height="71.8" rx="4" fill="rgba(43,197,180,0.75)"/><text x="1109.0" y="329.6" font-family="Arial, Helvetica, sans-serif" font-size="13.5" font-weight="600" fill="#0F1828" text-anchor="middle">Low</text><rect x="1199.0" y="288.8" width="168.0" height="71.8" rx="4" fill="rgba(43,197,180,0.75)"/><text x="1283.0" y="329.6" font-family="Arial, Helvetica, sans-serif" font-size="13.5" font-weight="600" fill="#0F1828" text-anchor="middle">Low</text><rect x="1373.0" y="288.8" width="168.0" height="71.8" rx="4" fill="rgba(43,197,180,0.45)"/><text x="1457.0" y="329.6" font-family="Arial, Helvetica, sans-serif" font-size="13.5" font-weight="600" fill="#0F1828" text-anchor="middle">Moderate-High</text><text x="56.0" y="407.4" font-family="Arial, Helvetica, sans-serif" font-size="18" font-weight="600" fill="#0F1828" text-anchor="start">Fleet Operations</text><rect x="329.0" y="366.5" width="168.0" height="71.8" rx="4" fill="rgba(201,168,76,0.55)"/><text x="413.0" y="407.4" font-family="Arial, Helvetica, sans-serif" font-size="13.5" font-weight="600" fill="#0F1828" text-anchor="middle">Moderate</text><rect x="503.0" y="366.5" width="168.0" height="71.8" rx="4" fill="rgba(201,168,76,0.55)"/><text x="587.0" y="407.4" font-family="Arial, Helvetica, sans-serif" font-size="13.5" font-weight="600" fill="#0F1828" text-anchor="middle">Moderate</text><rect x="677.0" y="366.5" width="168.0" height="71.8" rx="4" fill="rgba(201,168,76,0.55)"/><text x="761.0" y="407.4" font-family="Arial, Helvetica, sans-serif" font-size="13.5" font-weight="600" fill="#0F1828" text-anchor="middle">Moderate</text><rect x="851.0" y="366.5" width="168.0" height="71.8" rx="4" fill="rgba(200,68,59,0.62)"/><text x="935.0" y="407.4" font-family="Arial, Helvetica, sans-serif" font-size="13.5" font-weight="600" fill="#FBF9F4" text-anchor="middle">High</text><rect x="1025.0" y="366.5" width="168.0" height="71.8" rx="4" fill="rgba(201,168,76,0.55)"/><text x="1109.0" y="407.4" font-family="Arial, Helvetica, sans-serif" font-size="13.5" font-weight="600" fill="#0F1828" text-anchor="middle">Moderate</text><rect x="1199.0" y="366.5" width="168.0" height="71.8" rx="4" fill="rgba(201,168,76,0.55)"/><text x="1283.0" y="407.4" font-family="Arial, Helvetica, sans-serif" font-size="13.5" font-weight="600" fill="#0F1828" text-anchor="middle">Moderate</text><rect x="1373.0" y="366.5" width="168.0" height="71.8" rx="4" fill="rgba(43,197,180,0.6)"/><text x="1457.0" y="407.4" font-family="Arial, Helvetica, sans-serif" font-size="13.5" font-weight="600" fill="#0F1828" text-anchor="middle">High</text><text x="56.0" y="485.1" font-family="Arial, Helvetica, sans-serif" font-size="18" font-weight="600" fill="#0F1828" text-anchor="start">Training</text><rect x="329.0" y="444.2" width="168.0" height="71.8" rx="4" fill="rgba(43,197,180,0.75)"/><text x="413.0" y="485.1" font-family="Arial, Helvetica, sans-serif" font-size="13.5" font-weight="600" fill="#0F1828" text-anchor="middle">Low</text><rect x="503.0" y="444.2" width="168.0" height="71.8" rx="4" fill="rgba(43,197,180,0.75)"/><text x="587.0" y="485.1" font-family="Arial, Helvetica, sans-serif" font-size="13.5" font-weight="600" fill="#0F1828" text-anchor="middle">Low</text><rect x="677.0" y="444.2" width="168.0" height="71.8" rx="4" fill="rgba(43,197,180,0.75)"/><text x="761.0" y="485.1" font-family="Arial, Helvetica, sans-serif" font-size="13.5" font-weight="600" fill="#0F1828" text-anchor="middle">Low</text><rect x="851.0" y="444.2" width="168.0" height="71.8" rx="4" fill="rgba(201,168,76,0.55)"/><text x="935.0" y="485.1" font-family="Arial, Helvetica, sans-serif" font-size="13.5" font-weight="600" fill="#0F1828" text-anchor="middle">Moderate</text><rect x="1025.0" y="444.2" width="168.0" height="71.8" rx="4" fill="rgba(43,197,180,0.75)"/><text x="1109.0" y="485.1" font-family="Arial, Helvetica, sans-serif" font-size="13.5" font-weight="600" fill="#0F1828" text-anchor="middle">Low</text><rect x="1199.0" y="444.2" width="168.0" height="71.8" rx="4" fill="rgba(43,197,180,0.75)"/><text x="1283.0" y="485.1" font-family="Arial, Helvetica, sans-serif" font-size="13.5" font-weight="600" fill="#0F1828" text-anchor="middle">Low</text><rect x="1373.0" y="444.2" width="168.0" height="71.8" rx="4" fill="rgba(201,168,76,0.6)"/><text x="1457.0" y="485.1" font-family="Arial, Helvetica, sans-serif" font-size="13.5" font-weight="600" fill="#0F1828" text-anchor="middle">Moderate</text><text x="56.0" y="562.9" font-family="Arial, Helvetica, sans-serif" font-size="18" font-weight="600" fill="#0F1828" text-anchor="start">Payload Systems</text><rect x="329.0" y="522.0" width="168.0" height="71.8" rx="4" fill="rgba(200,68,59,0.62)"/><text x="413.0" y="562.9" font-family="Arial, Helvetica, sans-serif" font-size="13.5" font-weight="600" fill="#FBF9F4" text-anchor="middle">High</text><rect x="503.0" y="522.0" width="168.0" height="71.8" rx="4" fill="#C8443B"/><text x="587.0" y="562.9" font-family="Arial, Helvetica, sans-serif" font-size="13.5" font-weight="600" fill="#FBF9F4" text-anchor="middle">Very High</text><rect x="677.0" y="522.0" width="168.0" height="71.8" rx="4" fill="rgba(201,168,76,0.55)"/><text x="761.0" y="562.9" font-family="Arial, Helvetica, sans-serif" font-size="13.5" font-weight="600" fill="#0F1828" text-anchor="middle">Moderate</text><rect x="851.0" y="522.0" width="168.0" height="71.8" rx="4" fill="rgba(201,168,76,0.55)"/><text x="935.0" y="562.9" font-family="Arial, Helvetica, sans-serif" font-size="13.5" font-weight="600" fill="#0F1828" text-anchor="middle">Moderate</text><rect x="1025.0" y="522.0" width="168.0" height="71.8" rx="4" fill="rgba(200,68,59,0.62)"/><text x="1109.0" y="562.9" font-family="Arial, Helvetica, sans-serif" font-size="13.5" font-weight="600" fill="#FBF9F4" text-anchor="middle">High</text><rect x="1199.0" y="522.0" width="168.0" height="71.8" rx="4" fill="rgba(200,68,59,0.62)"/><text x="1283.0" y="562.9" font-family="Arial, Helvetica, sans-serif" font-size="13.5" font-weight="600" fill="#FBF9F4" text-anchor="middle">High</text><rect x="1373.0" y="522.0" width="168.0" height="71.8" rx="4" fill="#2BC5B4"/><text x="1457.0" y="562.9" font-family="Arial, Helvetica, sans-serif" font-size="13.5" font-weight="600" fill="#FBF9F4" text-anchor="middle">Very High</text><text x="56.0" y="640.6" font-family="Arial, Helvetica, sans-serif" font-size="18" font-weight="600" fill="#0F1828" text-anchor="start">Software</text><rect x="329.0" y="599.8" width="168.0" height="71.8" rx="4" fill="rgba(43,197,180,0.75)"/><text x="413.0" y="640.6" font-family="Arial, Helvetica, sans-serif" font-size="13.5" font-weight="600" fill="#0F1828" text-anchor="middle">Low</text><rect x="503.0" y="599.8" width="168.0" height="71.8" rx="4" fill="rgba(201,168,76,0.55)"/><text x="587.0" y="640.6" font-family="Arial, Helvetica, sans-serif" font-size="13.5" font-weight="600" fill="#0F1828" text-anchor="middle">Moderate</text><rect x="677.0" y="599.8" width="168.0" height="71.8" rx="4" fill="rgba(201,168,76,0.55)"/><text x="761.0" y="640.6" font-family="Arial, Helvetica, sans-serif" font-size="13.5" font-weight="600" fill="#0F1828" text-anchor="middle">Moderate</text><rect x="851.0" y="599.8" width="168.0" height="71.8" rx="4" fill="rgba(201,168,76,0.55)"/><text x="935.0" y="640.6" font-family="Arial, Helvetica, sans-serif" font-size="13.5" font-weight="600" fill="#0F1828" text-anchor="middle">Moderate</text><rect x="1025.0" y="599.8" width="168.0" height="71.8" rx="4" fill="rgba(43,197,180,0.75)"/><text x="1109.0" y="640.6" font-family="Arial, Helvetica, sans-serif" font-size="13.5" font-weight="600" fill="#0F1828" text-anchor="middle">Low</text><rect x="1199.0" y="599.8" width="168.0" height="71.8" rx="4" fill="rgba(201,168,76,0.55)"/><text x="1283.0" y="640.6" font-family="Arial, Helvetica, sans-serif" font-size="13.5" font-weight="600" fill="#0F1828" text-anchor="middle">Moderate</text><rect x="1373.0" y="599.8" width="168.0" height="71.8" rx="4" fill="#2BC5B4"/><text x="1457.0" y="640.6" font-family="Arial, Helvetica, sans-serif" font-size="13.5" font-weight="600" fill="#FBF9F4" text-anchor="middle">Very High</text><text x="56.0" y="718.4" font-family="Arial, Helvetica, sans-serif" font-size="18" font-weight="600" fill="#0F1828" text-anchor="start">Infrastructure</text><rect x="329.0" y="677.5" width="168.0" height="71.8" rx="4" fill="rgba(201,168,76,0.55)"/><text x="413.0" y="718.4" font-family="Arial, Helvetica, sans-serif" font-size="13.5" font-weight="600" fill="#0F1828" text-anchor="middle">Moderate</text><rect x="503.0" y="677.5" width="168.0" height="71.8" rx="4" fill="rgba(201,168,76,0.55)"/><text x="587.0" y="718.4" font-family="Arial, Helvetica, sans-serif" font-size="13.5" font-weight="600" fill="#0F1828" text-anchor="middle">Moderate</text><rect x="677.0" y="677.5" width="168.0" height="71.8" rx="4" fill="rgba(200,68,59,0.62)"/><text x="761.0" y="718.4" font-family="Arial, Helvetica, sans-serif" font-size="13.5" font-weight="600" fill="#FBF9F4" text-anchor="middle">High</text><rect x="851.0" y="677.5" width="168.0" height="71.8" rx="4" fill="rgba(43,197,180,0.75)"/><text x="935.0" y="718.4" font-family="Arial, Helvetica, sans-serif" font-size="13.5" font-weight="600" fill="#0F1828" text-anchor="middle">Low</text><rect x="1025.0" y="677.5" width="168.0" height="71.8" rx="4" fill="rgba(200,68,59,0.62)"/><text x="1109.0" y="718.4" font-family="Arial, Helvetica, sans-serif" font-size="13.5" font-weight="600" fill="#FBF9F4" text-anchor="middle">High</text><rect x="1199.0" y="677.5" width="168.0" height="71.8" rx="4" fill="rgba(201,168,76,0.85)"/><text x="1283.0" y="718.4" font-family="Arial, Helvetica, sans-serif" font-size="13.5" font-weight="600" fill="#0F1828" text-anchor="middle">Moderate-High</text><rect x="1373.0" y="677.5" width="168.0" height="71.8" rx="4" fill="rgba(201,168,76,0.6)"/><text x="1457.0" y="718.4" font-family="Arial, Helvetica, sans-serif" font-size="13.5" font-weight="600" fill="#0F1828" text-anchor="middle">Moderate</text><text x="56.0" y="796.1" font-family="Arial, Helvetica, sans-serif" font-size="18" font-weight="600" fill="#0F1828" text-anchor="start">Inspection Services</text><rect x="329.0" y="755.2" width="168.0" height="71.8" rx="4" fill="rgba(201,168,76,0.55)"/><text x="413.0" y="796.1" font-family="Arial, Helvetica, sans-serif" font-size="13.5" font-weight="600" fill="#0F1828" text-anchor="middle">Moderate</text><rect x="503.0" y="755.2" width="168.0" height="71.8" rx="4" fill="rgba(43,197,180,0.75)"/><text x="587.0" y="796.1" font-family="Arial, Helvetica, sans-serif" font-size="13.5" font-weight="600" fill="#0F1828" text-anchor="middle">Low</text><rect x="677.0" y="755.2" width="168.0" height="71.8" rx="4" fill="rgba(43,197,180,0.75)"/><text x="761.0" y="796.1" font-family="Arial, Helvetica, sans-serif" font-size="13.5" font-weight="600" fill="#0F1828" text-anchor="middle">Low</text><rect x="851.0" y="755.2" width="168.0" height="71.8" rx="4" fill="rgba(201,168,76,0.55)"/><text x="935.0" y="796.1" font-family="Arial, Helvetica, sans-serif" font-size="13.5" font-weight="600" fill="#0F1828" text-anchor="middle">Moderate</text><rect x="1025.0" y="755.2" width="168.0" height="71.8" rx="4" fill="rgba(43,197,180,0.75)"/><text x="1109.0" y="796.1" font-family="Arial, Helvetica, sans-serif" font-size="13.5" font-weight="600" fill="#0F1828" text-anchor="middle">Low</text><rect x="1199.0" y="755.2" width="168.0" height="71.8" rx="4" fill="rgba(43,197,180,0.75)"/><text x="1283.0" y="796.1" font-family="Arial, Helvetica, sans-serif" font-size="13.5" font-weight="600" fill="#0F1828" text-anchor="middle">Low</text><rect x="1373.0" y="755.2" width="168.0" height="71.8" rx="4" fill="rgba(43,197,180,0.45)"/><text x="1457.0" y="796.1" font-family="Arial, Helvetica, sans-serif" font-size="13.5" font-weight="600" fill="#0F1828" text-anchor="middle">Moderate-High</text><line x1="56.0" y1="834.0" x2="1544.0" y2="834.0" stroke="#4A5567" stroke-width="1" opacity="0.25"/><text x="56.0" y="862.0" font-family="Arial, Helvetica, sans-serif" font-size="15.5" font-weight="400" fill="#4A5567" text-anchor="start">Source: Techadyant Labs risk-reward matrix.</text></svg>