<svg xmlns="http://www.w3.org/2000/svg" viewBox="0 0 1600 900" font-family="Arial, Helvetica, sans-serif"><defs><marker id="ar" markerWidth="10" markerHeight="10" refX="7" refY="3" orient="auto" markerUnits="strokeWidth"><path d="M0,0 L7,3 L0,6 Z" fill="#4A5567"/></marker><marker id="arb" markerWidth="10" markerHeight="10" refX="7" refY="3" orient="auto" markerUnits="strokeWidth"><path d="M0,0 L7,3 L0,6 Z" fill="#C9A84C"/></marker></defs><rect x="0.0" y="0.0" width="1600.0" height="900.0" rx="0" fill="#FBF9F4"/><rect x="56.0" y="46.0" width="90.0" height="5.0" rx="0" fill="#C9A84C"/><text x="56.0" y="86.0" font-family="Arial, Helvetica, sans-serif" font-size="38" font-weight="700" fill="#0F1828" text-anchor="start">The full comparison</text><text x="56.0" y="120.0" font-family="Arial, Helvetica, sans-serif" font-size="20" font-weight="400" fill="#4A5567" text-anchor="start">Eight segments across the qualitative decision dimensions — risk rows in crimson, opportunity rows in teal</text><text x="1544.0" y="60.0" font-family="Arial, Helvetica, sans-serif" font-size="15" font-weight="600" fill="#4A5567" text-anchor="end" letter-spacing="1.5">TECHADYANT LABS</text><line x1="56.0" y1="144.0" x2="1544.0" y2="144.0" stroke="#4A5567" stroke-width="1" opacity="0.25"/><text x="374.0" y="180.0" font-family="Arial, Helvetica, sans-serif" font-size="16" font-weight="700" fill="#4A5567" text-anchor="middle">Mfg</text><text x="530.0" y="180.0" font-family="Arial, Helvetica, sans-serif" font-size="16" font-weight="700" fill="#4A5567" text-anchor="middle">MRO</text><text x="686.0" y="180.0" font-family="Arial, Helvetica, sans-serif" font-size="16" font-weight="700" fill="#4A5567" text-anchor="middle">Fleet</text><text x="842.0" y="180.0" font-family="Arial, Helvetica, sans-serif" font-size="16" font-weight="700" fill="#4A5567" text-anchor="middle">Training</text><text x="998.0" y="180.0" font-family="Arial, Helvetica, sans-serif" font-size="16" font-weight="700" fill="#4A5567" text-anchor="middle">Payload</text><text x="1154.0" y="180.0" font-family="Arial, Helvetica, sans-serif" font-size="16" font-weight="700" fill="#4A5567" text-anchor="middle">Software</text><text x="1310.0" y="180.0" font-family="Arial, Helvetica, sans-serif" font-size="16" font-weight="700" fill="#4A5567" text-anchor="middle">Infra</text><text x="1466.0" y="180.0" font-family="Arial, Helvetica, sans-serif" font-size="16" font-weight="700" fill="#4A5567" text-anchor="middle">Inspection</text><line x1="56.0" y1="192.0" x2="1544.0" y2="192.0" stroke="#4A5567" stroke-width="1" opacity="0.4"/><text x="56.0" y="253.3" font-family="Arial, Helvetica, sans-serif" font-size="17.5" font-weight="600" fill="#0F1828" text-anchor="start">Capital intensity</text><rect x="299.0" y="207.0" width="150.0" height="82.6" rx="4" fill="rgba(200,68,59,0.62)"/><text x="374.0" y="253.3" font-family="Arial, Helvetica, sans-serif" font-size="13.5" font-weight="600" fill="#FBF9F4" text-anchor="middle">High</text><rect x="455.0" y="207.0" width="150.0" height="82.6" rx="4" fill="rgba(43,197,180,0.75)"/><text x="530.0" y="253.3" font-family="Arial, Helvetica, sans-serif" font-size="13.5" font-weight="600" fill="#0F1828" text-anchor="middle">Low</text><rect x="611.0" y="207.0" width="150.0" height="82.6" rx="4" fill="rgba(201,168,76,0.85)"/><text x="686.0" y="253.3" font-family="Arial, Helvetica, sans-serif" font-size="13.5" font-weight="600" fill="#0F1828" text-anchor="middle">Mod-High</text><rect x="767.0" y="207.0" width="150.0" height="82.6" rx="4" fill="rgba(43,197,180,0.75)"/><text x="842.0" y="253.3" font-family="Arial, Helvetica, sans-serif" font-size="13.5" font-weight="600" fill="#0F1828" text-anchor="middle">Low</text><rect x="923.0" y="207.0" width="150.0" height="82.6" rx="4" fill="rgba(200,68,59,0.62)"/><text x="998.0" y="253.3" font-family="Arial, Helvetica, sans-serif" font-size="13.5" font-weight="600" fill="#FBF9F4" text-anchor="middle">High</text><rect x="1079.0" y="207.0" width="150.0" height="82.6" rx="4" fill="rgba(43,197,180,0.75)"/><text x="1154.0" y="253.3" font-family="Arial, Helvetica, sans-serif" font-size="13.5" font-weight="600" fill="#0F1828" text-anchor="middle">Low</text><rect x="1235.0" y="207.0" width="150.0" height="82.6" rx="4" fill="rgba(74,85,103,0.35)"/><text x="1310.0" y="253.3" font-family="Arial, Helvetica, sans-serif" font-size="13.5" font-weight="600" fill="#0F1828" text-anchor="middle">Variable</text><rect x="1391.0" y="207.0" width="150.0" height="82.6" rx="4" fill="rgba(43,197,180,0.5)"/><text x="1466.0" y="253.3" font-family="Arial, Helvetica, sans-serif" font-size="13.5" font-weight="600" fill="#0F1828" text-anchor="middle">Low-Mod</text><text x="56.0" y="341.9" font-family="Arial, Helvetica, sans-serif" font-size="17.5" font-weight="600" fill="#0F1828" text-anchor="start">Regulatory barrier</text><rect x="299.0" y="295.6" width="150.0" height="82.6" rx="4" fill="rgba(200,68,59,0.62)"/><text x="374.0" y="341.9" font-family="Arial, Helvetica, sans-serif" font-size="13.5" font-weight="600" fill="#FBF9F4" text-anchor="middle">High</text><rect x="455.0" y="295.6" width="150.0" height="82.6" rx="4" fill="rgba(201,168,76,0.55)"/><text x="530.0" y="341.9" font-family="Arial, Helvetica, sans-serif" font-size="13.5" font-weight="600" fill="#0F1828" text-anchor="middle">Mod</text><rect x="611.0" y="295.6" width="150.0" height="82.6" rx="4" fill="rgba(201,168,76,0.55)"/><text x="686.0" y="341.9" font-family="Arial, Helvetica, sans-serif" font-size="13.5" font-weight="600" fill="#0F1828" text-anchor="middle">Mod</text><rect x="767.0" y="295.6" width="150.0" height="82.6" rx="4" fill="rgba(43,197,180,0.75)"/><text x="842.0" y="341.9" font-family="Arial, Helvetica, sans-serif" font-size="13.5" font-weight="600" fill="#0F1828" text-anchor="middle">Low</text><rect x="923.0" y="295.6" width="150.0" height="82.6" rx="4" fill="rgba(200,68,59,0.62)"/><text x="998.0" y="341.9" font-family="Arial, Helvetica, sans-serif" font-size="13.5" font-weight="600" fill="#FBF9F4" text-anchor="middle">High</text><rect x="1079.0" y="295.6" width="150.0" height="82.6" rx="4" fill="rgba(43,197,180,0.75)"/><text x="1154.0" y="341.9" font-family="Arial, Helvetica, sans-serif" font-size="13.5" font-weight="600" fill="#0F1828" text-anchor="middle">Low</text><rect x="1235.0" y="295.6" width="150.0" height="82.6" rx="4" fill="rgba(201,168,76,0.55)"/><text x="1310.0" y="341.9" font-family="Arial, Helvetica, sans-serif" font-size="13.5" font-weight="600" fill="#0F1828" text-anchor="middle">Mod</text><rect x="1391.0" y="295.6" width="150.0" height="82.6" rx="4" fill="rgba(201,168,76,0.55)"/><text x="1466.0" y="341.9" font-family="Arial, Helvetica, sans-serif" font-size="13.5" font-weight="600" fill="#0F1828" text-anchor="middle">Mod</text><text x="56.0" y="430.4" font-family="Arial, Helvetica, sans-serif" font-size="17.5" font-weight="600" fill="#0F1828" text-anchor="start">Technical barrier</text><rect x="299.0" y="384.1" width="150.0" height="82.6" rx="4" fill="rgba(200,68,59,0.62)"/><text x="374.0" y="430.4" font-family="Arial, Helvetica, sans-serif" font-size="13.5" font-weight="600" fill="#FBF9F4" text-anchor="middle">High</text><rect x="455.0" y="384.1" width="150.0" height="82.6" rx="4" fill="rgba(201,168,76,0.55)"/><text x="530.0" y="430.4" font-family="Arial, Helvetica, sans-serif" font-size="13.5" font-weight="600" fill="#0F1828" text-anchor="middle">Mod</text><rect x="611.0" y="384.1" width="150.0" height="82.6" rx="4" fill="rgba(201,168,76,0.55)"/><text x="686.0" y="430.4" font-family="Arial, Helvetica, sans-serif" font-size="13.5" font-weight="600" fill="#0F1828" text-anchor="middle">Mod</text><rect x="767.0" y="384.1" width="150.0" height="82.6" rx="4" fill="rgba(43,197,180,0.75)"/><text x="842.0" y="430.4" font-family="Arial, Helvetica, sans-serif" font-size="13.5" font-weight="600" fill="#0F1828" text-anchor="middle">Low</text><rect x="923.0" y="384.1" width="150.0" height="82.6" rx="4" fill="#C8443B"/><text x="998.0" y="430.4" font-family="Arial, Helvetica, sans-serif" font-size="13.5" font-weight="600" fill="#FBF9F4" text-anchor="middle">V.High</text><rect x="1079.0" y="384.1" width="150.0" height="82.6" rx="4" fill="rgba(201,168,76,0.55)"/><text x="1154.0" y="430.4" font-family="Arial, Helvetica, sans-serif" font-size="13.5" font-weight="600" fill="#0F1828" text-anchor="middle">Mod</text><rect x="1235.0" y="384.1" width="150.0" height="82.6" rx="4" fill="rgba(201,168,76,0.55)"/><text x="1310.0" y="430.4" font-family="Arial, Helvetica, sans-serif" font-size="13.5" font-weight="600" fill="#0F1828" text-anchor="middle">Mod</text><rect x="1391.0" y="384.1" width="150.0" height="82.6" rx="4" fill="rgba(43,197,180,0.5)"/><text x="1466.0" y="430.4" font-family="Arial, Helvetica, sans-serif" font-size="13.5" font-weight="600" fill="#0F1828" text-anchor="middle">Low-Mod</text><text x="56.0" y="519.0" font-family="Arial, Helvetica, sans-serif" font-size="17.5" font-weight="600" fill="#0F1828" text-anchor="start">Scalability</text><rect x="299.0" y="472.7" width="150.0" height="82.6" rx="4" fill="rgba(201,168,76,0.6)"/><text x="374.0" y="519.0" font-family="Arial, Helvetica, sans-serif" font-size="13.5" font-weight="600" fill="#0F1828" text-anchor="middle">Mod</text><rect x="455.0" y="472.7" width="150.0" height="82.6" rx="4" fill="rgba(201,168,76,0.6)"/><text x="530.0" y="519.0" font-family="Arial, Helvetica, sans-serif" font-size="13.5" font-weight="600" fill="#0F1828" text-anchor="middle">Mod</text><rect x="611.0" y="472.7" width="150.0" height="82.6" rx="4" fill="rgba(43,197,180,0.6)"/><text x="686.0" y="519.0" font-family="Arial, Helvetica, sans-serif" font-size="13.5" font-weight="600" fill="#0F1828" text-anchor="middle">High</text><rect x="767.0" y="472.7" width="150.0" height="82.6" rx="4" fill="rgba(201,168,76,0.6)"/><text x="842.0" y="519.0" font-family="Arial, Helvetica, sans-serif" font-size="13.5" font-weight="600" fill="#0F1828" text-anchor="middle">Mod</text><rect x="923.0" y="472.7" width="150.0" height="82.6" rx="4" fill="rgba(201,168,76,0.6)"/><text x="998.0" y="519.0" font-family="Arial, Helvetica, sans-serif" font-size="13.5" font-weight="600" fill="#0F1828" text-anchor="middle">Mod</text><rect x="1079.0" y="472.7" width="150.0" height="82.6" rx="4" fill="#2BC5B4"/><text x="1154.0" y="519.0" font-family="Arial, Helvetica, sans-serif" font-size="13.5" font-weight="600" fill="#FBF9F4" text-anchor="middle">V.High</text><rect x="1235.0" y="472.7" width="150.0" height="82.6" rx="4" fill="rgba(201,168,76,0.6)"/><text x="1310.0" y="519.0" font-family="Arial, Helvetica, sans-serif" font-size="13.5" font-weight="600" fill="#0F1828" text-anchor="middle">Mod</text><rect x="1391.0" y="472.7" width="150.0" height="82.6" rx="4" fill="rgba(201,168,76,0.6)"/><text x="1466.0" y="519.0" font-family="Arial, Helvetica, sans-serif" font-size="13.5" font-weight="600" fill="#0F1828" text-anchor="middle">Mod</text><text x="56.0" y="607.6" font-family="Arial, Helvetica, sans-serif" font-size="17.5" font-weight="600" fill="#0F1828" text-anchor="start">Recurring revenue</text><rect x="299.0" y="561.3" width="150.0" height="82.6" rx="4" fill="rgba(74,85,103,0.3)"/><text x="374.0" y="607.6" font-family="Arial, Helvetica, sans-serif" font-size="13.5" font-weight="600" fill="#0F1828" text-anchor="middle">Low</text><rect x="455.0" y="561.3" width="150.0" height="82.6" rx="4" fill="rgba(43,197,180,0.6)"/><text x="530.0" y="607.6" font-family="Arial, Helvetica, sans-serif" font-size="13.5" font-weight="600" fill="#0F1828" text-anchor="middle">High</text><rect x="611.0" y="561.3" width="150.0" height="82.6" rx="4" fill="rgba(201,168,76,0.6)"/><text x="686.0" y="607.6" font-family="Arial, Helvetica, sans-serif" font-size="13.5" font-weight="600" fill="#0F1828" text-anchor="middle">Mod</text><rect x="767.0" y="561.3" width="150.0" height="82.6" rx="4" fill="rgba(201,168,76,0.6)"/><text x="842.0" y="607.6" font-family="Arial, Helvetica, sans-serif" font-size="13.5" font-weight="600" fill="#0F1828" text-anchor="middle">Mod</text><rect x="923.0" y="561.3" width="150.0" height="82.6" rx="4" fill="rgba(74,85,103,0.3)"/><text x="998.0" y="607.6" font-family="Arial, Helvetica, sans-serif" font-size="13.5" font-weight="600" fill="#0F1828" text-anchor="middle">Low</text><rect x="1079.0" y="561.3" width="150.0" height="82.6" rx="4" fill="#2BC5B4"/><text x="1154.0" y="607.6" font-family="Arial, Helvetica, sans-serif" font-size="13.5" font-weight="600" fill="#FBF9F4" text-anchor="middle">V.High</text><rect x="1235.0" y="561.3" width="150.0" height="82.6" rx="4" fill="rgba(43,197,180,0.6)"/><text x="1310.0" y="607.6" font-family="Arial, Helvetica, sans-serif" font-size="13.5" font-weight="600" fill="#0F1828" text-anchor="middle">High</text><rect x="1391.0" y="561.3" width="150.0" height="82.6" rx="4" fill="rgba(43,197,180,0.45)"/><text x="1466.0" y="607.6" font-family="Arial, Helvetica, sans-serif" font-size="13.5" font-weight="600" fill="#0F1828" text-anchor="middle">Mod-High</text><text x="56.0" y="696.1" font-family="Arial, Helvetica, sans-serif" font-size="17.5" font-weight="600" fill="#0F1828" text-anchor="start">Competitive moat</text><rect x="299.0" y="649.9" width="150.0" height="82.6" rx="4" fill="rgba(43,197,180,0.6)"/><text x="374.0" y="696.1" font-family="Arial, Helvetica, sans-serif" font-size="13.5" font-weight="600" fill="#0F1828" text-anchor="middle">High</text><rect x="455.0" y="649.9" width="150.0" height="82.6" rx="4" fill="rgba(201,168,76,0.6)"/><text x="530.0" y="696.1" font-family="Arial, Helvetica, sans-serif" font-size="13.5" font-weight="600" fill="#0F1828" text-anchor="middle">Mod</text><rect x="611.0" y="649.9" width="150.0" height="82.6" rx="4" fill="rgba(201,168,76,0.32)"/><text x="686.0" y="696.1" font-family="Arial, Helvetica, sans-serif" font-size="13.5" font-weight="600" fill="#0F1828" text-anchor="middle">Low-Mod</text><rect x="767.0" y="649.9" width="150.0" height="82.6" rx="4" fill="rgba(74,85,103,0.3)"/><text x="842.0" y="696.1" font-family="Arial, Helvetica, sans-serif" font-size="13.5" font-weight="600" fill="#0F1828" text-anchor="middle">Low</text><rect x="923.0" y="649.9" width="150.0" height="82.6" rx="4" fill="#2BC5B4"/><text x="998.0" y="696.1" font-family="Arial, Helvetica, sans-serif" font-size="13.5" font-weight="600" fill="#FBF9F4" text-anchor="middle">V.High</text><rect x="1079.0" y="649.9" width="150.0" height="82.6" rx="4" fill="rgba(43,197,180,0.6)"/><text x="1154.0" y="696.1" font-family="Arial, Helvetica, sans-serif" font-size="13.5" font-weight="600" fill="#0F1828" text-anchor="middle">High</text><rect x="1235.0" y="649.9" width="150.0" height="82.6" rx="4" fill="rgba(201,168,76,0.6)"/><text x="1310.0" y="696.1" font-family="Arial, Helvetica, sans-serif" font-size="13.5" font-weight="600" fill="#0F1828" text-anchor="middle">Mod</text><rect x="1391.0" y="649.9" width="150.0" height="82.6" rx="4" fill="rgba(201,168,76,0.6)"/><text x="1466.0" y="696.1" font-family="Arial, Helvetica, sans-serif" font-size="13.5" font-weight="600" fill="#0F1828" text-anchor="middle">Mod</text><text x="56.0" y="784.7" font-family="Arial, Helvetica, sans-serif" font-size="17.5" font-weight="600" fill="#0F1828" text-anchor="start">SME suitability</text><rect x="299.0" y="738.4" width="150.0" height="82.6" rx="4" fill="rgba(201,168,76,0.6)"/><text x="374.0" y="784.7" font-family="Arial, Helvetica, sans-serif" font-size="13.5" font-weight="600" fill="#0F1828" text-anchor="middle">Mod</text><rect x="455.0" y="738.4" width="150.0" height="82.6" rx="4" fill="#2BC5B4"/><text x="530.0" y="784.7" font-family="Arial, Helvetica, sans-serif" font-size="13.5" font-weight="600" fill="#FBF9F4" text-anchor="middle">V.High</text><rect x="611.0" y="738.4" width="150.0" height="82.6" rx="4" fill="rgba(43,197,180,0.6)"/><text x="686.0" y="784.7" font-family="Arial, Helvetica, sans-serif" font-size="13.5" font-weight="600" fill="#0F1828" text-anchor="middle">High</text><rect x="767.0" y="738.4" width="150.0" height="82.6" rx="4" fill="#2BC5B4"/><text x="842.0" y="784.7" font-family="Arial, Helvetica, sans-serif" font-size="13.5" font-weight="600" fill="#FBF9F4" text-anchor="middle">V.High</text><rect x="923.0" y="738.4" width="150.0" height="82.6" rx="4" fill="rgba(201,168,76,0.32)"/><text x="998.0" y="784.7" font-family="Arial, Helvetica, sans-serif" font-size="13.5" font-weight="600" fill="#0F1828" text-anchor="middle">Low-Mod</text><rect x="1079.0" y="738.4" width="150.0" height="82.6" rx="4" fill="rgba(43,197,180,0.6)"/><text x="1154.0" y="784.7" font-family="Arial, Helvetica, sans-serif" font-size="13.5" font-weight="600" fill="#0F1828" text-anchor="middle">High</text><rect x="1235.0" y="738.4" width="150.0" height="82.6" rx="4" fill="rgba(201,168,76,0.6)"/><text x="1310.0" y="784.7" font-family="Arial, Helvetica, sans-serif" font-size="13.5" font-weight="600" fill="#0F1828" text-anchor="middle">Mod</text><rect x="1391.0" y="738.4" width="150.0" height="82.6" rx="4" fill="#2BC5B4"/><text x="1466.0" y="784.7" font-family="Arial, Helvetica, sans-serif" font-size="13.5" font-weight="600" fill="#FBF9F4" text-anchor="middle">V.High</text><line x1="56.0" y1="834.0" x2="1544.0" y2="834.0" stroke="#4A5567" stroke-width="1" opacity="0.25"/><text x="56.0" y="862.0" font-family="Arial, Helvetica, sans-serif" font-size="15.5" font-weight="400" fill="#4A5567" text-anchor="start">Source: Techadyant Labs comprehensive segment comparison (Chapter 12).</text></svg>