<svg xmlns="http://www.w3.org/2000/svg" viewBox="0 0 1600 760" font-family="Arial, Helvetica, sans-serif"><defs><marker id="ar" markerWidth="10" markerHeight="10" refX="7" refY="3" orient="auto" markerUnits="strokeWidth"><path d="M0,0 L7,3 L0,6 Z" fill="#4A5567"/></marker><marker id="arb" markerWidth="10" markerHeight="10" refX="7" refY="3" orient="auto" markerUnits="strokeWidth"><path d="M0,0 L7,3 L0,6 Z" fill="#C9A84C"/></marker></defs><rect x="0.0" y="0.0" width="1600.0" height="760.0" rx="0" fill="#FBF9F4"/><rect x="56.0" y="46.0" width="90.0" height="5.0" rx="0" fill="#C9A84C"/><text x="56.0" y="86.0" font-family="Arial, Helvetica, sans-serif" font-size="38" font-weight="700" fill="#0F1828" text-anchor="start">Where INR 3 crore goes in component manufacturing</text><text x="56.0" y="120.0" font-family="Arial, Helvetica, sans-serif" font-size="20" font-weight="400" fill="#4A5567" text-anchor="start">Indicative capital allocation for a PLI-eligible component venture</text><text x="1544.0" y="60.0" font-family="Arial, Helvetica, sans-serif" font-size="15" font-weight="600" fill="#4A5567" text-anchor="end" letter-spacing="1.5">TECHADYANT LABS</text><line x1="56.0" y1="144.0" x2="1544.0" y2="144.0" stroke="#4A5567" stroke-width="1" opacity="0.25"/><path d="M386.0,226.0 A200,200 0 0 1 559.2,526.0 L481.3,481.0 A110.00000000000001,110.00000000000001 0 0 0 386.0,316.0 Z" fill="#C9A84C"/><path d="M559.2,526.0 A200,200 0 0 1 386.0,626.0 L386.0,536.0 A110.00000000000001,110.00000000000001 0 0 0 481.3,481.0 Z" fill="rgba(201,168,76,0.7)"/><path d="M386.0,626.0 A200,200 0 0 1 212.8,526.0 L290.7,481.0 A110.00000000000001,110.00000000000001 0 0 0 386.0,536.0 Z" fill="#2BC5B4"/><path d="M212.8,526.0 A200,200 0 0 1 212.8,326.0 L290.7,371.0 A110.00000000000001,110.00000000000001 0 0 0 290.7,481.0 Z" fill="rgba(43,197,180,0.6)"/><path d="M212.8,326.0 A200,200 0 0 1 304.7,243.3 L341.3,325.5 A110.00000000000001,110.00000000000001 0 0 0 290.7,371.0 Z" fill="rgba(15,24,40,0.5)"/><path d="M304.7,243.3 A200,200 0 0 1 386.0,226.0 L386.0,316.0 A110.00000000000001,110.00000000000001 0 0 0 341.3,325.5 Z" fill="rgba(15,24,40,0.35)"/><text x="386.0" y="418.0" font-family="Arial, Helvetica, sans-serif" font-size="36" font-weight="700" fill="#0F1828" text-anchor="middle">INR 3 Cr</text><text x="386.0" y="450.0" font-family="Arial, Helvetica, sans-serif" font-size="17" font-weight="400" fill="#4A5567" text-anchor="middle">total outlay</text><rect x="984.0" y="192.0" width="26.0" height="26.0" rx="4" fill="#C9A84C"/><text x="1022.0" y="212.0" font-family="Arial, Helvetica, sans-serif" font-size="20" font-weight="600" fill="#0F1828" text-anchor="start">Machinery &amp; equipment</text><text x="1524.0" y="212.0" font-family="Arial, Helvetica, sans-serif" font-size="19" font-weight="700" fill="#4A5567" text-anchor="end">INR 1.0 Cr  ·  33%</text><rect x="984.0" y="250.0" width="26.0" height="26.0" rx="4" fill="rgba(201,168,76,0.7)"/><text x="1022.0" y="270.0" font-family="Arial, Helvetica, sans-serif" font-size="20" font-weight="600" fill="#0F1828" text-anchor="start">Facility setup</text><text x="1524.0" y="270.0" font-family="Arial, Helvetica, sans-serif" font-size="19" font-weight="700" fill="#4A5567" text-anchor="end">INR 0.5 Cr  ·  17%</text><rect x="984.0" y="308.0" width="26.0" height="26.0" rx="4" fill="#2BC5B4"/><text x="1022.0" y="328.0" font-family="Arial, Helvetica, sans-serif" font-size="20" font-weight="600" fill="#0F1828" text-anchor="start">Raw-material inventory</text><text x="1524.0" y="328.0" font-family="Arial, Helvetica, sans-serif" font-size="19" font-weight="700" fill="#4A5567" text-anchor="end">INR 0.5 Cr  ·  17%</text><rect x="984.0" y="366.0" width="26.0" height="26.0" rx="4" fill="rgba(43,197,180,0.6)"/><text x="1022.0" y="386.0" font-family="Arial, Helvetica, sans-serif" font-size="20" font-weight="600" fill="#0F1828" text-anchor="start">Working capital</text><text x="1524.0" y="386.0" font-family="Arial, Helvetica, sans-serif" font-size="19" font-weight="700" fill="#4A5567" text-anchor="end">INR 0.5 Cr  ·  17%</text><rect x="984.0" y="424.0" width="26.0" height="26.0" rx="4" fill="rgba(15,24,40,0.5)"/><text x="1022.0" y="444.0" font-family="Arial, Helvetica, sans-serif" font-size="20" font-weight="600" fill="#0F1828" text-anchor="start">Certification &amp; compliance</text><text x="1524.0" y="444.0" font-family="Arial, Helvetica, sans-serif" font-size="19" font-weight="700" fill="#4A5567" text-anchor="end">INR 0.3 Cr  ·  10%</text><rect x="984.0" y="482.0" width="26.0" height="26.0" rx="4" fill="rgba(15,24,40,0.35)"/><text x="1022.0" y="502.0" font-family="Arial, Helvetica, sans-serif" font-size="20" font-weight="600" fill="#0F1828" text-anchor="start">R&amp;D &amp; prototyping</text><text x="1524.0" y="502.0" font-family="Arial, Helvetica, sans-serif" font-size="19" font-weight="700" fill="#4A5567" text-anchor="end">INR 0.2 Cr  ·  7%</text><line x1="56.0" y1="694.0" x2="1544.0" y2="694.0" stroke="#4A5567" stroke-width="1" opacity="0.25"/><text x="56.0" y="722.0" font-family="Arial, Helvetica, sans-serif" font-size="15.5" font-weight="400" fill="#4A5567" text-anchor="start">Source: Techadyant Labs capital-allocation model (Chapter 4).</text><text x="1544.0" y="722.0" font-family="Arial, Helvetica, sans-serif" font-size="15.5" font-weight="600" fill="#C9A84C" text-anchor="end" font-style="italic">Indicative</text></svg>