<svg xmlns="http://www.w3.org/2000/svg" viewBox="0 0 1600 900" font-family="Arial, Helvetica, sans-serif"><defs><marker id="ar" markerWidth="10" markerHeight="10" refX="7" refY="3" orient="auto" markerUnits="strokeWidth"><path d="M0,0 L7,3 L0,6 Z" fill="#4A5567"/></marker><marker id="arb" markerWidth="10" markerHeight="10" refX="7" refY="3" orient="auto" markerUnits="strokeWidth"><path d="M0,0 L7,3 L0,6 Z" fill="#C9A84C"/></marker></defs><rect x="0.0" y="0.0" width="1600.0" height="900.0" rx="0" fill="#FBF9F4"/><rect x="56.0" y="46.0" width="90.0" height="5.0" rx="0" fill="#C9A84C"/><text x="56.0" y="86.0" font-family="Arial, Helvetica, sans-serif" font-size="38" font-weight="700" fill="#0F1828" text-anchor="start">Matching segment to investor</text><text x="56.0" y="120.0" font-family="Arial, Helvetica, sans-serif" font-size="20" font-weight="400" fill="#4A5567" text-anchor="start">Recommended first three segments by investor profile</text><text x="1544.0" y="60.0" font-family="Arial, Helvetica, sans-serif" font-size="15" font-weight="600" fill="#4A5567" text-anchor="end" letter-spacing="1.5">TECHADYANT LABS</text><line x1="56.0" y1="144.0" x2="1544.0" y2="144.0" stroke="#4A5567" stroke-width="1" opacity="0.25"/><text x="604.0" y="178.0" font-family="Arial, Helvetica, sans-serif" font-size="16" font-weight="700" fill="#4A5567" text-anchor="middle">Rank 1</text><text x="980.0" y="178.0" font-family="Arial, Helvetica, sans-serif" font-size="16" font-weight="700" fill="#4A5567" text-anchor="middle">Rank 2</text><text x="1356.0" y="178.0" font-family="Arial, Helvetica, sans-serif" font-size="16" font-weight="700" fill="#4A5567" text-anchor="middle">Rank 3</text><line x1="56.0" y1="190.0" x2="1544.0" y2="190.0" stroke="#4A5567" stroke-width="1" opacity="0.4"/><rect x="50.0" y="206.0" width="1500.0" height="116.4" rx="0" fill="#0F1828" opacity="0.03"/><text x="56.0" y="273.2" font-family="Arial, Helvetica, sans-serif" font-size="19" font-weight="600" fill="#0F1828" text-anchor="start">Defence-aligned SME</text><rect x="426.0" y="251.2" width="354.0" height="40.0" rx="8" fill="#C9A84C"/><text x="603.0" y="275.2" font-family="Arial, Helvetica, sans-serif" font-size="15.5" font-weight="700" fill="#0F1828" text-anchor="middle">Manufacturing</text><rect x="802.0" y="251.2" width="354.0" height="40.0" rx="8" fill="rgba(201,168,76,0.55)"/><text x="979.0" y="275.2" font-family="Arial, Helvetica, sans-serif" font-size="15.5" font-weight="700" fill="#0F1828" text-anchor="middle">Payload Systems</text><rect x="1178.0" y="251.2" width="354.0" height="40.0" rx="8" fill="rgba(74,85,103,0.35)"/><text x="1355.0" y="275.2" font-family="Arial, Helvetica, sans-serif" font-size="15.5" font-weight="700" fill="#0F1828" text-anchor="middle">MRO</text><text x="56.0" y="395.6" font-family="Arial, Helvetica, sans-serif" font-size="19" font-weight="600" fill="#0F1828" text-anchor="start">Agri-tech entrepreneur</text><rect x="426.0" y="373.6" width="354.0" height="40.0" rx="8" fill="#C9A84C"/><text x="603.0" y="397.6" font-family="Arial, Helvetica, sans-serif" font-size="15.5" font-weight="700" fill="#0F1828" text-anchor="middle">Fleet Operations</text><rect x="802.0" y="373.6" width="354.0" height="40.0" rx="8" fill="rgba(201,168,76,0.55)"/><text x="979.0" y="397.6" font-family="Arial, Helvetica, sans-serif" font-size="15.5" font-weight="700" fill="#0F1828" text-anchor="middle">Training</text><rect x="1178.0" y="373.6" width="354.0" height="40.0" rx="8" fill="rgba(74,85,103,0.35)"/><text x="1355.0" y="391.6" font-family="Arial, Helvetica, sans-serif" font-size="15.5" font-weight="700" fill="#0F1828" text-anchor="middle">Inspection</text><text x="1355.0" y="407.6" font-family="Arial, Helvetica, sans-serif" font-size="15.5" font-weight="700" fill="#0F1828" text-anchor="middle">Services</text><rect x="50.0" y="450.8" width="1500.0" height="116.4" rx="0" fill="#0F1828" opacity="0.03"/><text x="56.0" y="518.0" font-family="Arial, Helvetica, sans-serif" font-size="19" font-weight="600" fill="#0F1828" text-anchor="start">Technology-first founder</text><rect x="426.0" y="496.0" width="354.0" height="40.0" rx="8" fill="#C9A84C"/><text x="603.0" y="520.0" font-family="Arial, Helvetica, sans-serif" font-size="15.5" font-weight="700" fill="#0F1828" text-anchor="middle">Software</text><rect x="802.0" y="496.0" width="354.0" height="40.0" rx="8" fill="rgba(201,168,76,0.55)"/><text x="979.0" y="520.0" font-family="Arial, Helvetica, sans-serif" font-size="15.5" font-weight="700" fill="#0F1828" text-anchor="middle">Payload Systems</text><rect x="1178.0" y="496.0" width="354.0" height="40.0" rx="8" fill="rgba(74,85,103,0.35)"/><text x="1355.0" y="520.0" font-family="Arial, Helvetica, sans-serif" font-size="15.5" font-weight="700" fill="#0F1828" text-anchor="middle">Infrastructure</text><text x="56.0" y="640.4" font-family="Arial, Helvetica, sans-serif" font-size="19" font-weight="600" fill="#0F1828" text-anchor="start">Services-led operator</text><rect x="426.0" y="618.4" width="354.0" height="40.0" rx="8" fill="#C9A84C"/><text x="603.0" y="636.4" font-family="Arial, Helvetica, sans-serif" font-size="15.5" font-weight="700" fill="#0F1828" text-anchor="middle">Inspection</text><text x="603.0" y="652.4" font-family="Arial, Helvetica, sans-serif" font-size="15.5" font-weight="700" fill="#0F1828" text-anchor="middle">Services</text><rect x="802.0" y="618.4" width="354.0" height="40.0" rx="8" fill="rgba(201,168,76,0.55)"/><text x="979.0" y="642.4" font-family="Arial, Helvetica, sans-serif" font-size="15.5" font-weight="700" fill="#0F1828" text-anchor="middle">MRO</text><rect x="1178.0" y="618.4" width="354.0" height="40.0" rx="8" fill="rgba(74,85,103,0.35)"/><text x="1355.0" y="642.4" font-family="Arial, Helvetica, sans-serif" font-size="15.5" font-weight="700" fill="#0F1828" text-anchor="middle">Training</text><rect x="50.0" y="695.6" width="1500.0" height="116.4" rx="0" fill="#0F1828" opacity="0.03"/><text x="56.0" y="762.8" font-family="Arial, Helvetica, sans-serif" font-size="19" font-weight="600" fill="#0F1828" text-anchor="start">Component manufacturer</text><rect x="426.0" y="740.8" width="354.0" height="40.0" rx="8" fill="#C9A84C"/><text x="603.0" y="764.8" font-family="Arial, Helvetica, sans-serif" font-size="15.5" font-weight="700" fill="#0F1828" text-anchor="middle">Manufacturing</text><rect x="802.0" y="740.8" width="354.0" height="40.0" rx="8" fill="rgba(201,168,76,0.55)"/><text x="979.0" y="764.8" font-family="Arial, Helvetica, sans-serif" font-size="15.5" font-weight="700" fill="#0F1828" text-anchor="middle">MRO</text><rect x="1178.0" y="740.8" width="354.0" height="40.0" rx="8" fill="rgba(74,85,103,0.35)"/><text x="1355.0" y="758.8" font-family="Arial, Helvetica, sans-serif" font-size="15.5" font-weight="700" fill="#0F1828" text-anchor="middle">Inspection</text><text x="1355.0" y="774.8" font-family="Arial, Helvetica, sans-serif" font-size="15.5" font-weight="700" fill="#0F1828" text-anchor="middle">Services</text><line x1="56.0" y1="834.0" x2="1544.0" y2="834.0" stroke="#4A5567" stroke-width="1" opacity="0.25"/><text x="56.0" y="862.0" font-family="Arial, Helvetica, sans-serif" font-size="15.5" font-weight="400" fill="#4A5567" text-anchor="start">Source: Techadyant Labs investor-profile mapping.</text></svg>