<?xml version="1.0" encoding="UTF-8"?>
<svg xmlns="http://www.w3.org/2000/svg" version="1.1" viewBox="0 0 970 400">
  <!-- Generator: Adobe Illustrator 30.4.0, SVG Export Plug-In . SVG Version: 2.1.4 Build 226)  -->
  <defs>
    <style>
      .st0, .st1, .st2 {
        fill: #4a5567;
      }

      .st3, .st4 {
        fill: #fff;
      }

      .st3, .st4, .st5, .st6, .st1, .st7, .st2 {
        isolation: isolate;
      }

      .st3, .st6, .st7 {
        font-family: Arial-BoldMT, Arial;
        font-weight: 700;
      }

      .st3, .st1 {
        font-size: 14px;
      }

      .st8, .st9 {
        fill: none;
      }

      .st8, .st10 {
        stroke: #d8d3c7;
      }

      .st4, .st5, .st6, .st2 {
        font-size: 11px;
      }

      .st4, .st5, .st1, .st2 {
        font-family: ArialMT, Arial;
      }

      .st5 {
        fill: #8a8576;
      }

      .st11 {
        fill: #c9a84c;
      }

      .st12 {
        fill: #1fa89a;
      }

      .st6, .st13, .st7 {
        fill: #0f1828;
      }

      .st9 {
        stroke: #c9a84c;
        stroke-width: 2px;
      }

      .st10 {
        fill: #f7f5ef;
        stroke-width: .67px;
      }

      .st7 {
        font-size: 26px;
      }
    </style>
  </defs>
  <g id="Layer_1">
    <rect class="st13" y="1" width="970" height="7.48"/>
    <rect class="st11" y="8.48" width="970" height="2.81"/>
    <line class="st8" x1="25" y1="97.5" x2="945" y2="97.5"/>
    <rect class="st10" x="35" y="113" width="212" height="181.49" rx="5.32" ry="5.32"/>
    <rect class="st0" x="35" y="113" width="212" height="50" rx="8" ry="8"/>
    <rect class="st0" x="35" y="153" width="212" height="10"/>
    <rect class="st10" x="265" y="113" width="212" height="181.49" rx="5.32" ry="5.32"/>
    <rect class="st0" x="265" y="113" width="212" height="50" rx="8" ry="8"/>
    <rect class="st0" x="265" y="153" width="212" height="10"/>
    <rect class="st10" x="494" y="113" width="212" height="181.49" rx="5.32" ry="5.32"/>
    <rect class="st12" x="494" y="113" width="212" height="50" rx="8" ry="8"/>
    <rect class="st12" x="494" y="153" width="212" height="10"/>
    <rect class="st10" x="723" y="113" width="212" height="181.49" rx="5.32" ry="5.32"/>
    <rect class="st13" x="723" y="113" width="212" height="50" rx="8" ry="8"/>
    <rect class="st13" x="723" y="153" width="212" height="10"/>
    <line class="st9" x1="36.33" y1="338" x2="922.33" y2="338"/>
    <path class="st11" d="M922.33,332l14,6-14,6v-12Z"/>
    <line class="st8" x1="26.33" y1="346" x2="946.33" y2="346"/>
  </g>
  <g id="Layer_2">
    <text class="st7" transform="translate(22.34 56.3)"><tspan x="0" y="0">From Industrial to Autonomous Warfare</tspan></text>
    <text class="st1" transform="translate(22.34 82.3)"><tspan x="0" y="0">Four eras and the capability shifts that defined each</tspan></text>
    <text class="st3" transform="translate(48.34 134.3)"><tspan x="0" y="0">Industrial</tspan></text>
    <text class="st4" transform="translate(48.34 152.3)"><tspan x="0" y="0">1900s</tspan></text>
    <text class="st1" transform="translate(48.34 188.3)"><tspan x="0" y="0">• Mass production</tspan></text>
    <text class="st1" transform="translate(48.34 211.3)"><tspan x="0" y="0">• Firepower</tspan></text>
    <text class="st1" transform="translate(48.34 234.3)"><tspan x="0" y="0">• Rail logistics</tspan></text>
    <text class="st3" transform="translate(278.34 134.3)"><tspan x="0" y="0">Mechanized</tspan></text>
    <text class="st4" transform="translate(278.34 152.3)"><tspan x="0" y="0">1940s</tspan></text>
    <text class="st1" transform="translate(278.34 188.3)"><tspan x="0" y="0">• Mobility</tspan></text>
    <text class="st1" transform="translate(278.34 211.3)"><tspan x="0" y="0">• Combined arms</tspan></text>
    <text class="st1" transform="translate(278.34 234.3)"><tspan x="0" y="0">• Radio</tspan></text>
    <text class="st3" transform="translate(507.34 134.3)"><tspan x="0" y="0">Information</tspan></text>
    <text class="st4" transform="translate(507.34 152.3)"><tspan x="0" y="0">1990s</tspan></text>
    <text class="st1" transform="translate(507.34 188.3)"><tspan x="0" y="0">• Sensors</tspan></text>
    <text class="st1" transform="translate(507.34 211.3)"><tspan x="0" y="0">• Networks</tspan></text>
    <text class="st1" transform="translate(507.34 234.3)"><tspan x="0" y="0">• Precision</tspan></text>
    <text class="st3" transform="translate(736.34 134.3)"><tspan x="0" y="0">Autonomous</tspan></text>
    <text class="st4" transform="translate(736.34 152.3)"><tspan x="0" y="0">2020s+</tspan></text>
    <text class="st1" transform="translate(736.34 188.3)"><tspan x="0" y="0">• AI &amp; robotics</tspan></text>
    <text class="st1" transform="translate(736.34 211.3)"><tspan x="0" y="0">• Edge computing</tspan></text>
    <text class="st1" transform="translate(736.34 234.3)"><tspan x="0" y="0">• Human-machine teaming</tspan></text>
    <text class="st2" transform="translate(371 319.97)"><tspan x="0" y="0">Increasing decision speed &amp; system complexity</tspan></text>
    <text class="st5" transform="translate(23.67 365.3)"><tspan x="0" y="0">Techadyant Labs framing. Eras are analytical, not strict chronology.</tspan></text>
    <text class="st6" transform="translate(835.9 365.3)"><tspan x="0" y="0">TECHADYANT LABS</tspan></text>
  </g>
</svg>