<svg viewBox="0 0 1000 620" xmlns="http://www.w3.org/2000/svg">
<rect width="1000" height="620" fill="#FFFFFF"/>
<rect x="0" y="0" width="1000" height="8" fill="#0F1828"/>
<rect x="0" y="8" width="1000" height="3" fill="#C9A84C"/>
<text x="40" y="56" font-family="Inter, Arial, sans-serif" font-size="26" font-weight="700" fill="#0F1828">China’s Battlefield Automation Ecosystem</text>
<text x="40" y="82" font-family="Inter, Arial, sans-serif" font-size="14" fill="#4A5567">The named institutions behind an industrially-distributed automation edge</text>
<line x1="40" y1="96" x2="960" y2="96" stroke="#D8D3C7" stroke-width="1"/>
<rect x="70" y="130" width="860" height="72" rx="8" fill="#F7F5EF" stroke="#D8D3C7"/>
<rect x="70" y="130" width="8" height="72" rx="0" fill="#2BC5B4"/>
<text x="96" y="160" font-family="Inter, Arial, sans-serif" font-size="12" font-weight="700" fill="#2BC5B4">COMMERCIAL SCALE</text>
<text x="96" y="184" font-family="Inter, Arial, sans-serif" font-size="17" font-weight="700" fill="#0F1828">DJI</text>
<text x="904" y="175" text-anchor="end" font-family="Inter, Arial, sans-serif" font-size="13" fill="#4A5567">~70% global commercial drones</text>
<rect x="70" y="216" width="860" height="72" rx="8" fill="#F7F5EF" stroke="#D8D3C7"/>
<rect x="70" y="216" width="8" height="72" rx="0" fill="#C9A84C"/>
<text x="96" y="246" font-family="Inter, Arial, sans-serif" font-size="12" font-weight="700" fill="#C9A84C">STATE ELECTRONICS</text>
<text x="96" y="270" font-family="Inter, Arial, sans-serif" font-size="17" font-weight="700" fill="#0F1828">CETC</text>
<text x="904" y="261" text-anchor="end" font-family="Inter, Arial, sans-serif" font-size="13" fill="#4A5567">200-drone swarm record (2018)</text>
<rect x="70" y="302" width="860" height="72" rx="8" fill="#F7F5EF" stroke="#D8D3C7"/>
<rect x="70" y="302" width="8" height="72" rx="0" fill="#E0A23B"/>
<text x="96" y="332" font-family="Inter, Arial, sans-serif" font-size="12" font-weight="700" fill="#E0A23B">GROUND ROBOTICS</text>
<text x="96" y="356" font-family="Inter, Arial, sans-serif" font-size="17" font-weight="700" fill="#0F1828">Norinco</text>
<text x="904" y="347" text-anchor="end" font-family="Inter, Arial, sans-serif" font-size="13" fill="#4A5567">Sharp Claw / Mule-200 UGVs (reported)</text>
<rect x="70" y="388" width="860" height="72" rx="8" fill="#F7F5EF" stroke="#D8D3C7"/>
<rect x="70" y="388" width="8" height="72" rx="0" fill="#C9A84C"/>
<text x="96" y="418" font-family="Inter, Arial, sans-serif" font-size="12" font-weight="700" fill="#C9A84C">AVIATION / UAV</text>
<text x="96" y="442" font-family="Inter, Arial, sans-serif" font-size="17" font-weight="700" fill="#0F1828">AVIC</text>
<text x="904" y="433" text-anchor="end" font-family="Inter, Arial, sans-serif" font-size="13" fill="#4A5567">Wing Loong-class UAV families</text>
<rect x="70" y="474" width="860" height="72" rx="8" fill="#F7F5EF" stroke="#D8D3C7"/>
<rect x="70" y="474" width="8" height="72" rx="0" fill="#0F1828"/>
<text x="96" y="504" font-family="Inter, Arial, sans-serif" font-size="12" font-weight="700" fill="#0F1828">COMMAND ENABLERS</text>
<text x="96" y="528" font-family="Inter, Arial, sans-serif" font-size="17" font-weight="700" fill="#0F1828">ISF · Aerospace · Cyberspace Force</text>
<text x="904" y="519" text-anchor="end" font-family="Inter, Arial, sans-serif" font-size="13" fill="#4A5567">2024 PLA reorganisation</text>
<line x1="40" y1="576" x2="960" y2="576" stroke="#D8D3C7" stroke-width="1"/>
<text x="40" y="598" font-family="Inter, Arial, sans-serif" font-size="11" fill="#8A8576">Sources: Berg Insight; Yicai Global; Janes (reported); US DoD CMPR; Jamestown (2024 PLA reorg).</text>
<text x="960" y="598" text-anchor="end" font-family="Inter, Arial, sans-serif" font-size="11" font-weight="700" fill="#0F1828">TECHADYANT LABS</text>
</svg>