<?xml version="1.0" encoding="UTF-8"?>
<svg id="Layer_1" xmlns="http://www.w3.org/2000/svg" version="1.1" viewBox="0 0 750 520">
  <!-- Generator: Adobe Illustrator 30.4.0, SVG Export Plug-In . SVG Version: 2.1.4 Build 226)  -->
  <defs>
    <style>
      .st0, .st1, .st2, .st3, .st4, .st5, .st6, .st7, .st8 {
        isolation: isolate;
      }

      .st0, .st9, .st8 {
        fill: #c9a84c;
      }

      .st0, .st2, .st3, .st5, .st6, .st7, .st8 {
        font-weight: 700;
      }

      .st0, .st7 {
        font-family: Consolas-Bold, Consolas;
        font-size: 13px;
      }

      .st1 {
        fill: #8a8576;
      }

      .st1, .st3 {
        font-size: 11px;
      }

      .st1, .st4 {
        font-family: ArialMT, Arial;
      }

      .st2, .st3, .st10, .st5 {
        fill: #0f1828;
      }

      .st2, .st3, .st5, .st6, .st8 {
        font-family: Arial-BoldMT, Arial;
      }

      .st2, .st4 {
        font-size: 14px;
      }

      .st11, .st6, .st7 {
        fill: #1fa89a;
      }

      .st4 {
        fill: #4a5567;
      }

      .st12 {
        fill: none;
        stroke-width: .89px;
      }

      .st12, .st13 {
        stroke: #d8d3c7;
      }

      .st5 {
        font-size: 26px;
      }

      .st6, .st8 {
        font-size: 12px;
      }

      .st13 {
        fill: #f7f5ef;
      }
    </style>
  </defs>
  <rect class="st10" y="1.14" width="750" height="5.95"/>
  <rect class="st9" y="7.09" width="750" height="2.23"/>
  <text class="st5" transform="translate(29.99 58.52)"><tspan x="0" y="0">The Quantified India–China Gap</tspan></text>
  <text class="st4" transform="translate(29.99 84.52)"><tspan x="0" y="0">Hard industrial indicators underlying the readiness index</tspan></text>
  <line class="st12" x1="14.21" y1="98.52" x2="738.67" y2="98.52"/>
  <text class="st8" transform="translate(130.99 130.52)"><tspan x="0" y="0">CHINA</tspan></text>
  <text class="st6" transform="translate(670.32 130.52)"><tspan x="0" y="0">INDIA</tspan></text>
  <text class="st2" transform="translate(243.61 136.52)"><tspan x="0" y="0">Commercial-drone market share</tspan></text>
  <rect class="st13" x="130.99" y="150.52" width="440" height="26" rx="5" ry="5"/>
  <rect class="st9" x="130.99" y="150.52" width="308" height="26" rx="5" ry="5"/>
  <text class="st0" transform="translate(61.81 168.52)"><tspan x="0" y="0">DJI ~70%</tspan></text>
  <rect class="st13" x="590.99" y="150.52" width="120" height="26" rx="5" ry="5"/>
  <path class="st11" d="M593.99,150.52h0c1.66,0,3,2.24,3,5v16c0,2.76-1.34,5-3,5h0c-1.66,0-3-2.24-3-5v-16c0-2.76,1.34-5,3-5Z"/>
  <text class="st7" transform="translate(681.54 168.52)"><tspan x="0" y="0">~5%</tspan></text>
  <text class="st2" transform="translate(248.71 228.52)"><tspan x="0" y="0">Lithium-ion cell manufacturing</tspan></text>
  <rect class="st13" x="130.99" y="242.52" width="440" height="26" rx="5" ry="5"/>
  <rect class="st9" x="130.99" y="242.52" width="374" height="26" rx="5" ry="5"/>
  <text class="st0" transform="translate(90.4 260.52)"><tspan x="0" y="0">~85%</tspan></text>
  <rect class="st13" x="590.99" y="242.52" width="120" height="26" rx="5" ry="5"/>
  <path class="st11" d="M593.49,242.52h0c1.38,0,2.5,2.24,2.5,5v16c0,2.76-1.12,5-2.5,5h0c-1.38,0-2.5-2.24-2.5-5v-16c0-2.76,1.12-5,2.5-5Z"/>
  <text class="st7" transform="translate(681.54 260.52)"><tspan x="0" y="0">&lt;5%</tspan></text>
  <text class="st2" transform="translate(276.68 320.52)"><tspan x="0" y="0">Rare-earth processing</tspan></text>
  <rect class="st13" x="130.99" y="334.52" width="440" height="26" rx="5" ry="5"/>
  <rect class="st9" x="130.99" y="334.52" width="396" height="26" rx="5" ry="5"/>
  <text class="st0" transform="translate(90.4 352.52)"><tspan x="0" y="0">~90%</tspan></text>
  <rect class="st13" x="590.99" y="334.52" width="120" height="26" rx="5" ry="5"/>
  <path class="st11" d="M591.99,334.52h0c.55,0,1,2.24,1,5v16c0,2.76-.45,5-1,5h0c-.55,0-1-2.24-1-5v-16c0-2.76.45-5,1-5Z"/>
  <text class="st7" transform="translate(681.54 352.52)"><tspan x="0" y="0">~2%</tspan></text>
  <text class="st2" transform="translate(241.69 412.52)"><tspan x="0" y="0">Largest fixed-wing swarm (units)</tspan></text>
  <rect class="st13" x="130.99" y="426.52" width="440" height="26" rx="5" ry="5"/>
  <rect class="st9" x="130.99" y="426.52" width="440" height="26" rx="5" ry="5"/>
  <text class="st0" transform="translate(47.51 444.52)"><tspan x="0" y="0">200 (2018)</tspan></text>
  <rect class="st13" x="590.99" y="426.52" width="120" height="26" rx="5" ry="5"/>
  <rect class="st11" x="590.99" y="426.52" width="14" height="26" rx="5" ry="5"/>
  <text class="st7" transform="translate(674.4 444.52)"><tspan x="0" y="0">tens</tspan></text>
  <line class="st12" x1="14.21" y1="481.52" x2="738.67" y2="481.52"/>
  <text class="st1" transform="translate(17.3 503.52)"><tspan x="0" y="0">Sources: Berg Insight, IEA, Yicai Global. Analyst estimates where noted; bars indexed for comparison.</tspan></text>
  <text class="st3" transform="translate(631.43 502.83)"><tspan x="0" y="0">TECHADYANT LABS</tspan></text>
</svg>