<?xml version="1.0" encoding="UTF-8"?>
<svg id="Layer_1" xmlns="http://www.w3.org/2000/svg" version="1.1" viewBox="0 0 950 450">
  <!-- Generator: Adobe Illustrator 30.4.0, SVG Export Plug-In . SVG Version: 2.1.4 Build 226)  -->
  <defs>
    <style>
      .st0, .st1 {
        fill: #4a5567;
      }

      .st2, .st3, .st4, .st5, .st6, .st7 {
        fill: #fff;
      }

      .st2, .st8, .st9, .st1, .st10, .st6 {
        isolation: isolate;
      }

      .st2, .st9, .st10, .st6 {
        font-family: Arial-BoldMT, Arial;
        font-weight: 700;
      }

      .st2, .st1 {
        font-size: 14px;
      }

      .st3 {
        stroke: #c9a84c;
      }

      .st3, .st4, .st5, .st7 {
        stroke-width: 1.5px;
      }

      .st11 {
        fill: #f7f5ef;
        stroke-width: .89px;
      }

      .st11, .st12 {
        stroke: #d8d3c7;
      }

      .st4 {
        stroke: #0f1828;
      }

      .st12 {
        fill: none;
      }

      .st5 {
        stroke: #4a5567;
      }

      .st8 {
        fill: #8a8576;
      }

      .st8, .st9 {
        font-size: 11px;
      }

      .st8, .st1 {
        font-family: ArialMT, Arial;
      }

      .st13 {
        fill: #c9a84c;
      }

      .st14 {
        fill: #1fa89a;
      }

      .st9, .st15, .st10 {
        fill: #0f1828;
      }

      .st10 {
        font-size: 26px;
      }

      .st6 {
        font-size: 13px;
      }

      .st7 {
        stroke: #1fa89a;
      }
    </style>
  </defs>
  <rect class="st15" width="950" height="8.76"/>
  <rect class="st13" y="8.76" width="950" height="3.29"/>
  <text class="st10" transform="translate(15 52)"><tspan x="0" y="0">PLA Automation Capability Map</tspan></text>
  <text class="st1" transform="translate(15 78)"><tspan x="0" y="0">Automation categories by domain, over a shared enabling stack</tspan></text>
  <line class="st12" x1="15" y1="92" x2="935" y2="92"/>
  <rect class="st11" x="25" y="108" width="213" height="236.91" rx="7.11" ry="7.11"/>
  <rect class="st14" x="25" y="108" width="213" height="44" rx="8" ry="8"/>
  <rect class="st14" x="25" y="142" width="213" height="10"/>
  <text class="st2" transform="translate(121.28 136)"><tspan x="0" y="0">Air</tspan></text>
  <rect class="st7" x="37" y="178" width="189" height="40" rx="6" ry="6"/>
  <text class="st9" transform="translate(109.1 196)"><tspan x="0" y="0">UAV ISR</tspan></text>
  <rect class="st7" x="37" y="228" width="189" height="40" rx="6" ry="6"/>
  <text class="st9" transform="translate(105.42 246)"><tspan x="0" y="0">UAV relay</tspan></text>
  <rect class="st7" x="37" y="278" width="189" height="40" rx="6" ry="6"/>
  <text class="st9" transform="translate(96.16 296)"><tspan x="0" y="0">Collaborative</tspan></text>
  <text class="st9" transform="translate(112.66 309)"><tspan x="0" y="0">drones</tspan></text>
  <rect class="st11" x="254" y="108" width="213" height="236.91" rx="7.11" ry="7.11"/>
  <rect class="st13" x="254" y="108" width="213" height="44" rx="8" ry="8"/>
  <rect class="st13" x="254" y="142" width="213" height="10"/>
  <text class="st2" transform="translate(335.73 136)"><tspan x="0" y="0">Ground</tspan></text>
  <rect class="st3" x="266" y="178" width="189" height="40" rx="6" ry="6"/>
  <text class="st9" transform="translate(305.98 196)"><tspan x="0" y="0">UGV reconnaissance</tspan></text>
  <rect class="st3" x="266" y="228" width="189" height="40" rx="6" ry="6"/>
  <text class="st9" transform="translate(316.69 246)"><tspan x="0" y="0">Robotic logistics</tspan></text>
  <rect class="st3" x="266" y="278" width="189" height="40" rx="6" ry="6"/>
  <text class="st9" transform="translate(331.97 296)"><tspan x="0" y="0">Mule UGVs</tspan></text>
  <rect class="st11" x="483" y="108" width="213" height="236.91" rx="7.11" ry="7.11"/>
  <rect class="st0" x="483" y="108" width="213" height="44" rx="8" ry="8"/>
  <rect class="st0" x="483" y="142" width="213" height="10"/>
  <text class="st2" transform="translate(560.21 136)"><tspan x="0" y="0">Maritime</tspan></text>
  <rect class="st5" x="495" y="178" width="189" height="40" rx="6" ry="6"/>
  <text class="st9" transform="translate(539.49 196)"><tspan x="0" y="0">Unmanned surface</tspan></text>
  <rect class="st5" x="495" y="228" width="189" height="40" rx="6" ry="6"/>
  <text class="st9" transform="translate(540.39 246)"><tspan x="0" y="0">Undersea systems</tspan></text>
  <rect class="st11" x="712" y="108" width="213" height="236.91" rx="7.11" ry="7.11"/>
  <rect class="st15" x="712" y="108" width="213" height="44" rx="8" ry="8"/>
  <rect class="st15" x="712" y="142" width="213" height="10"/>
  <text class="st2" transform="translate(786.33 136)"><tspan x="0" y="0">Cyber-EM</tspan></text>
  <rect class="st4" x="724" y="178" width="189" height="40" rx="6" ry="6"/>
  <text class="st9" transform="translate(788.14 196)"><tspan x="0" y="0">EW support</tspan></text>
  <rect class="st4" x="724" y="228" width="189" height="40" rx="6" ry="6"/>
  <text class="st9" transform="translate(789.66 246)"><tspan x="0" y="0">AI decision</tspan></text>
  <text class="st9" transform="translate(798.53 259)"><tspan x="0" y="0">support</tspan></text>
  <rect class="st15" x="25" y="360.22" width="900" height="46" rx="8" ry="8"/>
  <text class="st6" transform="translate(43 388.22)"><tspan x="0" y="0">Enabling layers: AI · Sensors · Communications · Power · Manufacturing</tspan></text>
  <line class="st12" x1="15" y1="421" x2="935" y2="421"/>
  <text class="st8" transform="translate(18 439)"><tspan x="0" y="0">Capability categories from open-source reporting; not an order of battle.</tspan></text>
  <text class="st9" transform="translate(821.23 439)"><tspan x="0" y="0">TECHADYANT LABS</tspan></text>
</svg>