<?xml version="1.0" encoding="UTF-8"?>
<svg id="Layer_1" xmlns="http://www.w3.org/2000/svg" version="1.1" viewBox="0 0 770 580">
  <!-- Generator: Adobe Illustrator 30.4.0, SVG Export Plug-In . SVG Version: 2.1.4 Build 226)  -->
  <defs>
    <style>
      .st0 {
        fill: #fff;
      }

      .st0, .st1, .st2, .st3, .st4, .st5, .st6, .st7 {
        isolation: isolate;
      }

      .st0, .st1, .st3, .st4, .st7 {
        font-weight: 700;
      }

      .st0, .st1, .st3, .st5 {
        font-size: 14px;
      }

      .st0, .st3, .st4, .st7 {
        font-family: Arial-BoldMT, Arial;
      }

      .st1 {
        font-family: Consolas-Bold, Consolas;
      }

      .st1, .st3, .st4, .st8, .st7 {
        fill: #0f1828;
      }

      .st2 {
        fill: #8a8576;
      }

      .st2, .st4 {
        font-size: 11px;
      }

      .st2, .st5, .st6 {
        font-family: ArialMT, Arial;
      }

      .st9 {
        fill: #c9a84c;
      }

      .st5, .st6 {
        fill: #4a5567;
      }

      .st6 {
        font-size: 12px;
      }

      .st7 {
        font-size: 26px;
      }

      .st10 {
        fill: none;
        stroke-width: .94px;
      }

      .st10, .st11 {
        stroke: #d8d3c7;
      }

      .st11 {
        fill: #f7f5ef;
      }

      .st12 {
        fill: #7fcbae;
      }
    </style>
  </defs>
  <rect class="st8" x="-.71" width="770.71" height="7.01"/>
  <rect class="st9" x="-.71" y="7.01" width="770.71" height="2.63"/>
  <text class="st7" transform="translate(19.78 51.12)"><tspan x="0" y="0">India BARI Readiness Dashboard</tspan></text>
  <text class="st5" transform="translate(19.78 72.12)"><tspan x="0" y="0">Eight dimensions, scored 1 (nascent) to 5 (leading)</tspan></text>
  <line class="st10" y1="81.94" x2="773.29" y2="81.94"/>
  <text class="st3" transform="translate(133.11 115)"><tspan x="0" y="0">Robotics</tspan></text>
  <rect class="st11" x="213" y="98" width="420" height="22" rx="5" ry="5"/>
  <rect class="st12" x="213" y="98" width="210" height="22" rx="5" ry="5"/>
  <text class="st1" transform="translate(599 115)"><tspan x="0" y="0">2.5</tspan></text>
  <text class="st6" transform="translate(646 115)"><tspan x="0" y="0">Moderate gap</tspan></text>
  <text class="st3" transform="translate(137.75 163)"><tspan x="0" y="0">Sensors</tspan></text>
  <rect class="st11" x="213" y="146" width="420" height="22" rx="5" ry="5"/>
  <rect class="st12" x="213" y="146" width="168" height="22" rx="5" ry="5"/>
  <text class="st1" transform="translate(599 163)"><tspan x="0" y="0">2.0</tspan></text>
  <text class="st6" transform="translate(646 163)"><tspan x="0" y="0">High gap</tspan></text>
  <text class="st3" transform="translate(42.07 211)"><tspan x="0" y="0">Embedded Electronics</tspan></text>
  <rect class="st11" x="213" y="194" width="420" height="22" rx="5" ry="5"/>
  <rect class="st12" x="213" y="194" width="210" height="22" rx="5" ry="5"/>
  <text class="st1" transform="translate(599 211)"><tspan x="0" y="0">2.5</tspan></text>
  <text class="st6" transform="translate(646 211)"><tspan x="0" y="0">Moderate gap</tspan></text>
  <text class="st3" transform="translate(79.43 259)"><tspan x="0" y="0">Communications</tspan></text>
  <rect class="st11" x="213" y="242" width="420" height="22" rx="5" ry="5"/>
  <rect class="st12" x="213" y="242" width="210" height="22" rx="5" ry="5"/>
  <text class="st1" transform="translate(599 259)"><tspan x="0" y="0">2.5</tspan></text>
  <text class="st6" transform="translate(646 259)"><tspan x="0" y="0">Moderate gap</tspan></text>
  <text class="st3" transform="translate(89.5 307)"><tspan x="0" y="0">Power Systems</tspan></text>
  <rect class="st11" x="213" y="290" width="420" height="22" rx="5" ry="5"/>
  <rect class="st12" x="213" y="290" width="168" height="22" rx="5" ry="5"/>
  <text class="st1" transform="translate(599 307)"><tspan x="0" y="0">2.0</tspan></text>
  <text class="st6" transform="translate(646 307)"><tspan x="0" y="0">High gap</tspan></text>
  <text class="st3" transform="translate(115.99 355)"><tspan x="0" y="0">AI Software</tspan></text>
  <rect class="st11" x="213" y="338" width="420" height="22" rx="5" ry="5"/>
  <rect class="st9" x="213" y="338" width="294" height="22" rx="5" ry="5"/>
  <text class="st1" transform="translate(599 355)"><tspan x="0" y="0">3.5</tspan></text>
  <text class="st6" transform="translate(646 355)"><tspan x="0" y="0">Relative strength</tspan></text>
  <text class="st3" transform="translate(49.35 403)"><tspan x="0" y="0">Testing Infrastructure</tspan></text>
  <rect class="st11" x="213" y="386" width="420" height="22" rx="5" ry="5"/>
  <rect class="st12" x="213" y="386" width="168" height="22" rx="5" ry="5"/>
  <text class="st1" transform="translate(599 403)"><tspan x="0" y="0">2.0</tspan></text>
  <text class="st6" transform="translate(646 403)"><tspan x="0" y="0">High gap</tspan></text>
  <text class="st3" transform="translate(22.63 451)"><tspan x="0" y="0">Manufacturing Readiness</tspan></text>
  <rect class="st11" x="213" y="434" width="420" height="22" rx="5" ry="5"/>
  <rect class="st9" x="213" y="434" width="252" height="22" rx="5" ry="5"/>
  <text class="st1" transform="translate(599 451)"><tspan x="0" y="0">3.0</tspan></text>
  <text class="st6" transform="translate(646 451)"><tspan x="0" y="0">Relative strength</tspan></text>
  <rect class="st8" x="34.17" y="482" width="680" height="40" rx="6" ry="6"/>
  <text class="st0" transform="translate(176.43 507)"><tspan x="0" y="0">India’s gap is concentrated below the visible platform layer.</tspan></text>
  <line class="st10" y1="541.34" x2="770" y2="541.34"/>
  <text class="st2" transform="translate(6.54 564.98)"><tspan x="0" y="0">Techadyant Labs analysis on open-source evidence. Colour: teal = relative strength, amber/brass = moderate, crimson = high gap.</tspan></text>
  <text class="st4" transform="translate(649.74 567.29)"><tspan x="0" y="0">TECHADYANT LABS</tspan></text>
</svg>