<?xml version="1.0" encoding="UTF-8"?>
<svg id="Layer_1" xmlns="http://www.w3.org/2000/svg" version="1.1" viewBox="0 0 800 580">
  <!-- Generator: Adobe Illustrator 30.4.0, SVG Export Plug-In . SVG Version: 2.1.4 Build 226)  -->
  <defs>
    <style>
      .st0 {
        fill: #fff;
      }

      .st0, .st1 {
        font-family: Consolas-Bold, Consolas;
      }

      .st0, .st1, .st2, .st3, .st4, .st5, .st6, .st7 {
        isolation: isolate;
      }

      .st0, .st1, .st3, .st6, .st7 {
        font-weight: 700;
      }

      .st0, .st1, .st4 {
        font-size: 14px;
      }

      .st1, .st3, .st8, .st6, .st7 {
        fill: #0f1828;
      }

      .st2 {
        fill: #8a8576;
      }

      .st2, .st3 {
        font-size: 11px;
      }

      .st2, .st4, .st5 {
        font-family: ArialMT, Arial;
      }

      .st9 {
        fill: #c9a84c;
      }

      .st3, .st6, .st7 {
        font-family: Arial-BoldMT, Arial;
      }

      .st4, .st5 {
        fill: #4a5567;
      }

      .st5 {
        font-size: 12px;
      }

      .st10 {
        fill: #2bc5b4;
      }

      .st11 {
        fill: #e0a23b;
      }

      .st12 {
        fill: none;
        stroke: #d8d3c7;
        stroke-width: .92px;
      }

      .st6 {
        font-size: 26px;
      }

      .st7 {
        font-size: 13px;
      }

      .st13 {
        fill: #c8443b;
      }

      .st14 {
        fill: #7fcbae;
      }
    </style>
  </defs>
  <rect class="st8" width="799.57" height="7.33"/>
  <rect class="st9" y="7.33" width="799.57" height="2.75"/>
  <text class="st6" transform="translate(28.13 51.44)"><tspan x="0" y="0">India’s Battlefield Automation Capability Gap Matrix</tspan></text>
  <text class="st4" transform="translate(28.13 77.44)"><tspan x="0" y="0">Eight critical inputs scored across five strategic axes (1–5)</tspan></text>
  <line class="st12" x1="5.97" y1="89" x2="790.39" y2="89"/>
  <text class="st3" transform="translate(211.46 117)"><tspan x="0" y="0">Strategic</tspan></text>
  <text class="st3" transform="translate(205.35 130)"><tspan x="0" y="0">Importance</tspan></text>
  <text class="st3" transform="translate(330.24 117)"><tspan x="0" y="0">Domestic</tspan></text>
  <text class="st3" transform="translate(333.61 130)"><tspan x="0" y="0">Maturity</tspan></text>
  <text class="st3" transform="translate(457.89 117)"><tspan x="0" y="0">Import</tspan></text>
  <text class="st3" transform="translate(449.94 130)"><tspan x="0" y="0">Exposure</tspan></text>
  <text class="st3" transform="translate(575.75 117)"><tspan x="0" y="0">Startup</tspan></text>
  <text class="st3" transform="translate(563.53 130)"><tspan x="0" y="0">Opportunity</tspan></text>
  <text class="st3" transform="translate(703.08 117)"><tspan x="0" y="0">SME</tspan></text>
  <text class="st3" transform="translate(683.53 130)"><tspan x="0" y="0">Opportunity</tspan></text>
  <text class="st7" transform="translate(48.29 170)"><tspan x="0" y="0">Sensors / Thermal</tspan></text>
  <rect class="st13" x="178" y="146" width="114" height="40" rx="4" ry="4"/>
  <text class="st0" transform="translate(231.15 171)"><tspan x="0" y="0">5</tspan></text>
  <rect class="st10" x="298" y="146" width="114" height="40" rx="4" ry="4"/>
  <text class="st1" transform="translate(351.15 171)"><tspan x="0" y="0">1</tspan></text>
  <rect class="st13" x="418" y="146" width="114" height="40" rx="4" ry="4"/>
  <text class="st0" transform="translate(471.15 171)"><tspan x="0" y="0">5</tspan></text>
  <rect class="st11" x="538" y="146" width="114" height="40" rx="4" ry="4"/>
  <text class="st0" transform="translate(591.15 171)"><tspan x="0" y="0">4</tspan></text>
  <rect class="st9" x="658" y="146" width="114" height="40" rx="4" ry="4"/>
  <text class="st0" transform="translate(711.15 171)"><tspan x="0" y="0">3</tspan></text>
  <text class="st7" transform="translate(38.92 216)"><tspan x="0" y="0">Rugged Electronics</tspan></text>
  <rect class="st11" x="178" y="192" width="114" height="40" rx="4" ry="4"/>
  <text class="st0" transform="translate(231.15 217)"><tspan x="0" y="0">4</tspan></text>
  <rect class="st14" x="298" y="192" width="114" height="40" rx="4" ry="4"/>
  <text class="st1" transform="translate(351.15 217)"><tspan x="0" y="0">2</tspan></text>
  <rect class="st11" x="418" y="192" width="114" height="40" rx="4" ry="4"/>
  <text class="st0" transform="translate(471.15 217)"><tspan x="0" y="0">4</tspan></text>
  <rect class="st11" x="538" y="192" width="114" height="40" rx="4" ry="4"/>
  <text class="st0" transform="translate(591.15 217)"><tspan x="0" y="0">4</tspan></text>
  <rect class="st11" x="658" y="192" width="114" height="40" rx="4" ry="4"/>
  <text class="st0" transform="translate(711.15 217)"><tspan x="0" y="0">4</tspan></text>
  <text class="st7" transform="translate(28.13 262)"><tspan x="0" y="0">Autonomous Mobility</tspan></text>
  <rect class="st11" x="178" y="238" width="114" height="40" rx="4" ry="4"/>
  <text class="st0" transform="translate(231.15 263)"><tspan x="0" y="0">4</tspan></text>
  <rect class="st14" x="298" y="238" width="114" height="40" rx="4" ry="4"/>
  <text class="st1" transform="translate(351.15 263)"><tspan x="0" y="0">2</tspan></text>
  <rect class="st9" x="418" y="238" width="114" height="40" rx="4" ry="4"/>
  <text class="st0" transform="translate(471.15 263)"><tspan x="0" y="0">3</tspan></text>
  <rect class="st9" x="538" y="238" width="114" height="40" rx="4" ry="4"/>
  <text class="st0" transform="translate(591.15 263)"><tspan x="0" y="0">3</tspan></text>
  <rect class="st9" x="658" y="238" width="114" height="40" rx="4" ry="4"/>
  <text class="st0" transform="translate(711.15 263)"><tspan x="0" y="0">3</tspan></text>
  <text class="st7" transform="translate(56.24 308)"><tspan x="0" y="0">Military Batteries</tspan></text>
  <rect class="st13" x="178" y="284" width="114" height="40" rx="4" ry="4"/>
  <text class="st0" transform="translate(231.15 309)"><tspan x="0" y="0">5</tspan></text>
  <rect class="st14" x="298" y="284" width="114" height="40" rx="4" ry="4"/>
  <text class="st1" transform="translate(351.15 309)"><tspan x="0" y="0">2</tspan></text>
  <rect class="st11" x="418" y="284" width="114" height="40" rx="4" ry="4"/>
  <text class="st0" transform="translate(471.15 309)"><tspan x="0" y="0">4</tspan></text>
  <rect class="st11" x="538" y="284" width="114" height="40" rx="4" ry="4"/>
  <text class="st0" transform="translate(591.15 309)"><tspan x="0" y="0">4</tspan></text>
  <rect class="st11" x="658" y="284" width="114" height="40" rx="4" ry="4"/>
  <text class="st0" transform="translate(711.15 309)"><tspan x="0" y="0">4</tspan></text>
  <text class="st7" transform="translate(57.01 354)"><tspan x="0" y="0">Edge Computing</tspan></text>
  <rect class="st11" x="178" y="330" width="114" height="40" rx="4" ry="4"/>
  <text class="st0" transform="translate(231.15 355)"><tspan x="0" y="0">4</tspan></text>
  <rect class="st9" x="298" y="330" width="114" height="40" rx="4" ry="4"/>
  <text class="st0" transform="translate(351.15 355)"><tspan x="0" y="0">3</tspan></text>
  <rect class="st9" x="418" y="330" width="114" height="40" rx="4" ry="4"/>
  <text class="st0" transform="translate(471.15 355)"><tspan x="0" y="0">3</tspan></text>
  <rect class="st13" x="538" y="330" width="114" height="40" rx="4" ry="4"/>
  <text class="st0" transform="translate(591.15 355)"><tspan x="0" y="0">5</tspan></text>
  <rect class="st9" x="658" y="330" width="114" height="40" rx="4" ry="4"/>
  <text class="st0" transform="translate(711.15 355)"><tspan x="0" y="0">3</tspan></text>
  <text class="st7" transform="translate(62.26 400)"><tspan x="0" y="0">Tactical Comms</tspan></text>
  <rect class="st11" x="178" y="376" width="114" height="40" rx="4" ry="4"/>
  <text class="st0" transform="translate(231.15 401)"><tspan x="0" y="0">4</tspan></text>
  <rect class="st14" x="298" y="376" width="114" height="40" rx="4" ry="4"/>
  <text class="st1" transform="translate(351.15 401)"><tspan x="0" y="0">2</tspan></text>
  <rect class="st11" x="418" y="376" width="114" height="40" rx="4" ry="4"/>
  <text class="st0" transform="translate(471.15 401)"><tspan x="0" y="0">4</tspan></text>
  <rect class="st9" x="538" y="376" width="114" height="40" rx="4" ry="4"/>
  <text class="st0" transform="translate(591.15 401)"><tspan x="0" y="0">3</tspan></text>
  <rect class="st9" x="658" y="376" width="114" height="40" rx="4" ry="4"/>
  <text class="st0" transform="translate(711.15 401)"><tspan x="0" y="0">3</tspan></text>
  <text class="st7" transform="translate(32.68 446)"><tspan x="0" y="0">Simulation &amp; Testing</tspan></text>
  <rect class="st13" x="178" y="422" width="114" height="40" rx="4" ry="4"/>
  <text class="st0" transform="translate(231.15 447)"><tspan x="0" y="0">5</tspan></text>
  <rect class="st10" x="298" y="422" width="114" height="40" rx="4" ry="4"/>
  <text class="st1" transform="translate(351.15 447)"><tspan x="0" y="0">1</tspan></text>
  <rect class="st9" x="418" y="422" width="114" height="40" rx="4" ry="4"/>
  <text class="st0" transform="translate(471.15 447)"><tspan x="0" y="0">3</tspan></text>
  <rect class="st11" x="538" y="422" width="114" height="40" rx="4" ry="4"/>
  <text class="st0" transform="translate(591.15 447)"><tspan x="0" y="0">4</tspan></text>
  <rect class="st13" x="658" y="422" width="114" height="40" rx="4" ry="4"/>
  <text class="st0" transform="translate(711.15 447)"><tspan x="0" y="0">5</tspan></text>
  <text class="st7" transform="translate(33.86 492)"><tspan x="0" y="0">Manufacturing Scale</tspan></text>
  <rect class="st9" x="178" y="468" width="114" height="40" rx="4" ry="4"/>
  <text class="st0" transform="translate(231.15 493)"><tspan x="0" y="0">3</tspan></text>
  <rect class="st9" x="298" y="468" width="114" height="40" rx="4" ry="4"/>
  <text class="st0" transform="translate(351.15 493)"><tspan x="0" y="0">3</tspan></text>
  <rect class="st9" x="418" y="468" width="114" height="40" rx="4" ry="4"/>
  <text class="st0" transform="translate(471.15 493)"><tspan x="0" y="0">3</tspan></text>
  <rect class="st9" x="538" y="468" width="114" height="40" rx="4" ry="4"/>
  <text class="st0" transform="translate(591.15 493)"><tspan x="0" y="0">3</tspan></text>
  <rect class="st11" x="658" y="468" width="114" height="40" rx="4" ry="4"/>
  <text class="st0" transform="translate(711.15 493)"><tspan x="0" y="0">4</tspan></text>
  <rect class="st10" x="175" y="513" width="18" height="18" rx="3" ry="3"/>
  <text class="st5" transform="translate(197 527)"><tspan x="0" y="0">1 low</tspan></text>
  <rect class="st9" x="325" y="513" width="18" height="18" rx="3" ry="3"/>
  <text class="st5" transform="translate(347 527)"><tspan x="0" y="0">3 mid</tspan></text>
  <rect class="st13" x="475" y="513" width="18" height="18" rx="3" ry="3"/>
  <text class="st5" transform="translate(497 527)"><tspan x="0" y="0">5 high</tspan></text>
  <line class="st12" x1="5.97" y1="545" x2="790.39" y2="545"/>
  <text class="st2" transform="translate(11.24 567.14)"><tspan x="0" y="0">Techadyant Labs analysis. Higher = greater importance / exposure / opportunity; for Domestic Maturity, higher = stronger.</tspan></text>
  <text class="st3" transform="translate(684.01 567.14)"><tspan x="0" y="0">TECHADYANT LABS</tspan></text>
</svg>