<?xml version="1.0" encoding="UTF-8"?>
<svg id="Layer_1" xmlns="http://www.w3.org/2000/svg" version="1.1" viewBox="0 0 760 550">
  <!-- Generator: Adobe Illustrator 30.4.0, SVG Export Plug-In . SVG Version: 2.1.4 Build 226)  -->
  <defs>
    <style>
      .st0 {
        fill: #fff;
      }

      .st0, .st1, .st2, .st3, .st4, .st5, .st6, .st7, .st8 {
        isolation: isolate;
      }

      .st0, .st1, .st3, .st4, .st6, .st7 {
        font-family: Arial-BoldMT, Arial;
        font-weight: 700;
      }

      .st0, .st3, .st5 {
        font-size: 14px;
      }

      .st9 {
        stroke: #2bc5b4;
      }

      .st9, .st10, .st11 {
        fill: #f7f5ef;
        stroke-width: 2px;
      }

      .st1, .st2, .st4, .st6, .st8 {
        font-size: 11px;
      }

      .st1, .st12 {
        fill: #e0a23b;
      }

      .st13 {
        fill: none;
        stroke: #d8d3c7;
        stroke-width: .89px;
      }

      .st2 {
        fill: #8a8576;
      }

      .st2, .st5, .st8 {
        font-family: ArialMT, Arial;
      }

      .st14 {
        fill: #c9a84c;
      }

      .st3, .st4, .st15, .st7 {
        fill: #0f1828;
      }

      .st5, .st8 {
        fill: #4a5567;
      }

      .st16 {
        fill: #2bc5b4;
      }

      .st10 {
        stroke: #c8443b;
      }

      .st6, .st17 {
        fill: #c8443b;
      }

      .st7 {
        font-size: 26px;
      }

      .st11 {
        stroke: #e0a23b;
      }
    </style>
  </defs>
  <rect class="st15" x="-.16" y=".54" width="760.16" height="6.3"/>
  <rect class="st14" x="-.16" y="6.85" width="760.16" height="2.36"/>
  <text class="st7" transform="translate(27 59.46)"><tspan x="0" y="0">The Battlefield Automation Stack</tspan></text>
  <text class="st5" transform="translate(27 85.46)"><tspan x="0" y="0">Seven industrial layers; India’s gaps cluster in sensors, electronics, power and test</tspan></text>
  <line class="st13" x1="14.32" y1="99.46" x2="739.25" y2="99.46"/>
  <rect class="st9" x="48.34" y="123.46" width="560" height="44" rx="5" ry="5"/>
  <rect class="st16" x="48.34" y="123.46" width="6" height="44"/>
  <text class="st3" transform="translate(66.34 143.46)"><tspan x="0" y="0">Robotic Platforms &amp; Mission Systems</tspan></text>
  <text class="st8" transform="translate(66.34 160.46)"><tspan x="0" y="0">UAV / UGV / USV, logistics, fixed sensors</tspan></text>
  <rect class="st9" x="70.34" y="175.46" width="516" height="44" rx="5" ry="5"/>
  <rect class="st16" x="70.34" y="175.46" width="6" height="44"/>
  <text class="st3" transform="translate(88.34 195.46)"><tspan x="0" y="0">Autonomy Software</tspan></text>
  <text class="st8" transform="translate(88.34 212.46)"><tspan x="0" y="0">Perception, navigation, fleet control, decision support</tspan></text>
  <rect class="st11" x="92.34" y="227.46" width="472" height="44" rx="5" ry="5"/>
  <rect class="st12" x="92.34" y="227.46" width="6" height="44"/>
  <text class="st3" transform="translate(110.34 247.46)"><tspan x="0" y="0">Communications</tspan></text>
  <text class="st8" transform="translate(110.34 264.46)"><tspan x="0" y="0">Radios, mesh, datalinks, anti-jam</tspan></text>
  <text class="st1" transform="translate(578.34 254.46)"><tspan x="0" y="0">India gap</tspan></text>
  <rect class="st10" x="114.34" y="279.46" width="428" height="44" rx="5" ry="5"/>
  <rect class="st17" x="114.34" y="279.46" width="6" height="44"/>
  <text class="st3" transform="translate(132.34 299.46)"><tspan x="0" y="0">Sensors</tspan></text>
  <text class="st8" transform="translate(132.34 316.46)"><tspan x="0" y="0">EO/IR, thermal cores, radar, RF, inertial</tspan></text>
  <text class="st6" transform="translate(556.34 306.46)"><tspan x="0" y="0">India gap</tspan></text>
  <rect class="st11" x="136.34" y="331.46" width="384" height="44" rx="5" ry="5"/>
  <rect class="st12" x="136.34" y="331.46" width="6" height="44"/>
  <text class="st3" transform="translate(154.34 351.46)"><tspan x="0" y="0">Embedded Electronics</tspan></text>
  <text class="st8" transform="translate(154.34 368.46)"><tspan x="0" y="0">Rugged compute, firmware, connectors</tspan></text>
  <text class="st1" transform="translate(534.34 358.46)"><tspan x="0" y="0">India gap</tspan></text>
  <rect class="st10" x="158.34" y="383.46" width="340" height="44" rx="5" ry="5"/>
  <rect class="st17" x="158.34" y="383.46" width="6" height="44"/>
  <text class="st3" transform="translate(176.34 403.46)"><tspan x="0" y="0">Power Systems</tspan></text>
  <text class="st8" transform="translate(176.34 420.46)"><tspan x="0" y="0">Cells, packs, BMS, field charging</tspan></text>
  <text class="st6" transform="translate(512.34 410.46)"><tspan x="0" y="0">India gap</tspan></text>
  <rect class="st11" x="180.34" y="435.46" width="296" height="44" rx="5" ry="5"/>
  <rect class="st12" x="180.34" y="435.46" width="6" height="44"/>
  <text class="st3" transform="translate(198.34 455.46)"><tspan x="0" y="0">Manufacturing Base</tspan></text>
  <text class="st8" transform="translate(198.34 472.46)"><tspan x="0" y="0">Supplier depth, quality systems, scale</tspan></text>
  <text class="st1" transform="translate(490.34 462.46)"><tspan x="0" y="0">India gap</tspan></text>
  <rect class="st15" x="671.61" y="121.64" width="54.89" height="356" rx="5.41" ry="5.41"/>
  <text class="st0" transform="translate(693.62 189.82) rotate(90)"><tspan x="0" y="0">Testing, Simulation &amp; Certification</tspan></text>
  <line class="st13" x1="17.45" y1="506.79" x2="742.39" y2="506.79"/>
  <text class="st2" transform="translate(14 537.17)"><tspan x="0" y="0">Techadyant Labs framework. Crimson = high India gap; amber/brass = moderate; teal = relative strength.</tspan></text>
  <text class="st4" transform="translate(613.21 537.17)"><tspan x="0" y="0">TECHADYANT LABS</tspan></text>
</svg>