<?xml version="1.0" encoding="UTF-8"?>
<svg id="Layer_1" xmlns="http://www.w3.org/2000/svg" version="1.1" viewBox="0 0 970 520">
  <!-- Generator: Adobe Illustrator 30.4.0, SVG Export Plug-In . SVG Version: 2.1.4 Build 226)  -->
  <defs>
    <style>
      .st0, .st1, .st2, .st3, .st4, .st5, .st6, .st7, .st8, .st9 {
        isolation: isolate;
      }

      .st0, .st1, .st2, .st4, .st6, .st8, .st9 {
        font-family: Arial-BoldMT, Arial;
        font-weight: 700;
      }

      .st0, .st10 {
        fill: #1fa89a;
      }

      .st0, .st6, .st9 {
        font-size: 10px;
      }

      .st1, .st2 {
        fill: #fff;
      }

      .st1, .st5 {
        font-size: 14px;
      }

      .st2 {
        font-size: 12.5px;
      }

      .st11 {
        stroke: #c8443b;
      }

      .st11, .st12, .st13, .st14, .st15 {
        stroke-width: 1.5px;
      }

      .st11, .st12, .st14, .st15 {
        fill: #f7f5ef;
      }

      .st12 {
        stroke: #1fa89a;
      }

      .st13, .st16 {
        stroke: #d8d3c7;
      }

      .st16 {
        fill: none;
      }

      .st14 {
        stroke: #c9a84c;
      }

      .st3 {
        fill: #8a8576;
      }

      .st3, .st4 {
        font-size: 11px;
      }

      .st3, .st5, .st7 {
        font-family: ArialMT, Arial;
      }

      .st17, .st6 {
        fill: #c9a84c;
      }

      .st4, .st18, .st8 {
        fill: #0f1828;
      }

      .st5, .st7 {
        fill: #4a5567;
      }

      .st19 {
        fill: #e0a23b;
      }

      .st15 {
        stroke: #e0a23b;
      }

      .st7 {
        font-size: 10.5px;
      }

      .st8 {
        font-size: 26px;
      }

      .st20, .st9 {
        fill: #c8443b;
      }
    </style>
  </defs>
  <rect class="st18" x=".2" width="970.09" height="8.46"/>
  <rect class="st17" x=".2" y="8.46" width="970.09" height="3.17"/>
  <text class="st8" transform="translate(25 55.62)"><tspan x="0" y="0">Technology Dependency Tree</tspan></text>
  <text class="st5" transform="translate(25 81.62)"><tspan x="0" y="0">From platform to components: where exposure and opportunity sit</tspan></text>
  <line class="st16" x1="25" y1="95.62" x2="945" y2="95.62"/>
  <rect class="st18" x="305" y="129.62" width="360" height="46" rx="8" ry="8"/>
  <text class="st1" transform="translate(346.91 158.62)"><tspan x="0" y="0">Autonomous Border Surveillance System</tspan></text>
  <path class="st13" d="M485,175.62L85.57,239.62"/>
  <rect class="st10" x="25" y="239.62" width="121" height="46" rx="7" ry="7"/>
  <text class="st2" transform="translate(60.65 267.62)"><tspan x="0" y="0">Platform</tspan></text>
  <rect class="st12" x="25" y="293.62" width="121" height="150" rx="7" ry="7"/>
  <text class="st7" transform="translate(33 317.62)"><tspan x="0" y="0">UAV/UGV airframe</tspan></text>
  <text class="st0" transform="translate(57.39 429.62)"><tspan x="0" y="0">Opportunity</tspan></text>
  <path class="st13" d="M485,175.62l-266.29,64"/>
  <rect class="st20" x="158" y="239.62" width="121" height="46" rx="7" ry="7"/>
  <text class="st2" transform="translate(194.34 267.62)"><tspan x="0" y="0">Sensors</tspan></text>
  <rect class="st11" x="158" y="293.62" width="121" height="150" rx="7" ry="7"/>
  <text class="st7" transform="translate(166 317.62)"><tspan x="0" y="0">EO/IR, thermal,</tspan></text>
  <text class="st7" transform="translate(166 332.62)"><tspan x="0" y="0">radar</tspan></text>
  <text class="st9" transform="translate(181.5 429.62)"><tspan x="0" y="0">Import-exposed</tspan></text>
  <path class="st13" d="M485,175.62l-133.14,64"/>
  <rect class="st19" x="291" y="239.62" width="121" height="46" rx="7" ry="7"/>
  <text class="st2" transform="translate(329.08 267.62)"><tspan x="0" y="0">Comms</tspan></text>
  <rect class="st15" x="291" y="293.62" width="121" height="150" rx="7" ry="7"/>
  <text class="st7" transform="translate(299 317.62)"><tspan x="0" y="0">Radios, mesh,</tspan></text>
  <text class="st7" transform="translate(299 332.62)"><tspan x="0" y="0">anti-jam</tspan></text>
  <text class="st9" transform="translate(314.5 429.62)"><tspan x="0" y="0">Import-exposed</tspan></text>
  <path class="st13" d="M485,175.62v64"/>
  <rect class="st20" x="424" y="239.62" width="121" height="46" rx="7" ry="7"/>
  <text class="st2" transform="translate(466.24 267.62)"><tspan x="0" y="0">Power</tspan></text>
  <rect class="st11" x="424" y="293.62" width="121" height="150" rx="7" ry="7"/>
  <text class="st7" transform="translate(432 317.62)"><tspan x="0" y="0">Cells, packs,</tspan></text>
  <text class="st7" transform="translate(432 332.62)"><tspan x="0" y="0">BMS</tspan></text>
  <text class="st9" transform="translate(447.5 429.62)"><tspan x="0" y="0">Import-exposed</tspan></text>
  <path class="st13" d="M485,175.62l133.14,64"/>
  <rect class="st19" x="558" y="239.62" width="121" height="46" rx="7" ry="7"/>
  <text class="st2" transform="translate(586.05 267.62)"><tspan x="0" y="0">Embedded</tspan></text>
  <rect class="st15" x="558" y="293.62" width="121" height="150" rx="7" ry="7"/>
  <text class="st7" transform="translate(566 317.62)"><tspan x="0" y="0">Rugged compute,</tspan></text>
  <text class="st7" transform="translate(566 332.62)"><tspan x="0" y="0">firmware</tspan></text>
  <text class="st9" transform="translate(580.5 429.62)"><tspan x="0" y="0">Import-exposed</tspan></text>
  <path class="st13" d="M485,175.62l266.29,64"/>
  <rect class="st10" x="691" y="239.62" width="121" height="46" rx="7" ry="7"/>
  <text class="st2" transform="translate(724.61 267.62)"><tspan x="0" y="0">Software</tspan></text>
  <rect class="st12" x="691" y="293.62" width="121" height="150" rx="7" ry="7"/>
  <text class="st7" transform="translate(699 317.62)"><tspan x="0" y="0">Perception,</tspan></text>
  <text class="st7" transform="translate(699 332.62)"><tspan x="0" y="0">autonomy</tspan></text>
  <text class="st0" transform="translate(722.39 429.62)"><tspan x="0" y="0">Opportunity</tspan></text>
  <path class="st13" d="M485,175.62l399.43,64"/>
  <rect class="st17" x="824" y="239.62" width="121" height="46" rx="7" ry="7"/>
  <text class="st2" transform="translate(862.24 267.62)"><tspan x="0" y="0">Testing</tspan></text>
  <rect class="st14" x="824" y="293.62" width="121" height="150" rx="7" ry="7"/>
  <text class="st7" transform="translate(832 317.62)"><tspan x="0" y="0">HIL/SIL, EW,</tspan></text>
  <text class="st7" transform="translate(832 332.62)"><tspan x="0" y="0">environ.</tspan></text>
  <text class="st6" transform="translate(869.83 429.62)"><tspan x="0" y="0">Mixed</tspan></text>
  <line class="st16" x1="25" y1="485.78" x2="945" y2="485.78"/>
  <text class="st3" transform="translate(25 507.78)"><tspan x="0" y="0">Techadyant Labs framework. Crimson branches are the highest import-exposure layers.</tspan></text>
  <text class="st4" transform="translate(837.23 507.78)"><tspan x="0" y="0">TECHADYANT LABS</tspan></text>
</svg>