<?xml version="1.0" encoding="UTF-8"?>
<svg xmlns="http://www.w3.org/2000/svg" version="1.1" viewBox="0 0 800 470">
  <!-- Generator: Adobe Illustrator 30.4.0, SVG Export Plug-In . SVG Version: 2.1.4 Build 226)  -->
  <defs>
    <style>
      .st0 {
        font-size: 12.15px;
      }

      .st0, .st1, .st2, .st3, .st4, .st5, .st6 {
        isolation: isolate;
      }

      .st0, .st1, .st3, .st4 {
        font-family: ArialMT, Arial;
      }

      .st0, .st5 {
        fill: #fff;
      }

      .st1 {
        fill: #8a8576;
      }

      .st1, .st2 {
        font-size: 11px;
      }

      .st7 {
        fill: #c9a84c;
      }

      .st8 {
        fill: #1fa89a;
      }

      .st2, .st9, .st6 {
        fill: #0f1828;
      }

      .st2, .st5, .st6 {
        font-family: Arial-BoldMT, Arial;
        font-weight: 700;
      }

      .st3 {
        font-size: 14px;
      }

      .st3, .st4 {
        fill: #4a5567;
      }

      .st4 {
        font-size: 12.7px;
      }

      .st5 {
        font-size: 15.46px;
      }

      .st6 {
        font-size: 26px;
      }

      .st10 {
        fill: none;
        stroke-width: .9px;
      }

      .st10, .st11 {
        stroke: #d8d3c7;
      }

      .st11 {
        fill: #f7f5ef;
        stroke-width: .71px;
      }
    </style>
  </defs>
  <g id="Layer_1">
    <rect class="st9" x=".56" width="799.44" height="7.55"/>
    <rect class="st7" x=".56" y="7.55" width="799.44" height="2.83"/>
    <line class="st10" x1="33.4" y1="114.54" x2="786.15" y2="114.54"/>
    <rect class="st11" x="40.98" y="135.68" width="232.89" height="258.93" rx="5.72" ry="5.72"/>
    <rect class="st8" x="40.98" y="135.68" width="232.89" height="50" rx="7.19" ry="7.19"/>
    <rect class="st8" x="40.98" y="175.68" width="232.89" height="10"/>
    <rect class="st11" x="288.42" y="135.68" width="232.89" height="258.93" rx="5.72" ry="5.72"/>
    <rect class="st7" x="288.42" y="135.68" width="232.89" height="50" rx="7.19" ry="7.19"/>
    <rect class="st7" x="288.42" y="175.68" width="232.89" height="10"/>
    <rect class="st11" x="535.86" y="135.68" width="232.89" height="258.93" rx="5.72" ry="5.72"/>
    <rect class="st9" x="535.86" y="135.68" width="232.89" height="50" rx="7.19" ry="7.19"/>
    <rect class="st9" x="535.86" y="175.68" width="232.89" height="10"/>
    <line class="st10" x1="32.07" y1="426.17" x2="784.82" y2="426.17"/>
  </g>
  <g id="Layer_2">
    <text class="st6" transform="translate(30.74 63.83)"><tspan x="0" y="0">Trusted-Source Roadmap</tspan></text>
    <text class="st3" transform="translate(30.74 89.83)"><tspan x="0" y="0">Sequencing component localisation by difficulty, 0–10 years</tspan></text>
    <text class="st5" transform="translate(64.32 158.22)"><tspan x="0" y="0">0–2 years</tspan></text>
    <text class="st0" transform="translate(64.32 178.1)"><tspan x="0" y="0">Map &amp; localise basics</tspan></text>
    <text class="st4" transform="translate(64.32 217.86)"><tspan x="0" y="0">• Supplier mapping &amp;</tspan></text>
    <text class="st4" transform="translate(64.32 236.63)"><tspan x="0" y="0">trusted-source lists</tspan></text>
    <text class="st4" transform="translate(64.32 262.03)"><tspan x="0" y="0">• Firmware review</tspan></text>
    <text class="st4" transform="translate(64.32 287.43)"><tspan x="0" y="0">• Strategic stockpiles</tspan></text>
    <text class="st4" transform="translate(64.32 312.83)"><tspan x="0" y="0">• Battery-pack localisation</tspan></text>
    <text class="st4" transform="translate(64.32 338.23)"><tspan x="0" y="0">• Rugged enclosures</tspan></text>
    <text class="st5" transform="translate(312.64 157.02)"><tspan x="0" y="0">2–5 years</tspan></text>
    <text class="st0" transform="translate(312.64 176.89)"><tspan x="0" y="0">Build the mid-stack</tspan></text>
    <text class="st4" transform="translate(312.64 216.65)"><tspan x="0" y="0">• Tactical radios</tspan></text>
    <text class="st4" transform="translate(312.64 242.05)"><tspan x="0" y="0">• Rugged compute</tspan></text>
    <text class="st4" transform="translate(312.64 267.45)"><tspan x="0" y="0">• RF modules</tspan></text>
    <text class="st4" transform="translate(312.64 292.85)"><tspan x="0" y="0">• Motor controllers</tspan></text>
    <text class="st4" transform="translate(312.64 318.25)"><tspan x="0" y="0">• Test labs</tspan></text>
    <text class="st5" transform="translate(558.87 158.12)"><tspan x="0" y="0">5–10 years</tspan></text>
    <text class="st0" transform="translate(558.87 178)"><tspan x="0" y="0">Hardest cores</tspan></text>
    <text class="st4" transform="translate(558.87 217.76)"><tspan x="0" y="0">• Thermal cores</tspan></text>
    <text class="st4" transform="translate(558.87 243.16)"><tspan x="0" y="0">• Advanced optics</tspan></text>
    <text class="st4" transform="translate(558.87 268.56)"><tspan x="0" y="0">• Inertial navigation</tspan></text>
    <text class="st4" transform="translate(558.87 293.96)"><tspan x="0" y="0">• Selected semiconductors</tspan></text>
    <text class="st1" transform="translate(29.65 445.46)"><tspan x="0" y="0">Techadyant Labs analysis. Order reflects technical difficulty and import exposure.</tspan></text>
    <text class="st2" transform="translate(657.64 445.46)"><tspan x="0" y="0">TECHADYANT LABS</tspan></text>
  </g>
</svg>