<?xml version="1.0" encoding="UTF-8"?>
<svg xmlns="http://www.w3.org/2000/svg" version="1.1" viewBox="0 0 700 620">
  <!-- Generator: Adobe Illustrator 30.4.0, SVG Export Plug-In . SVG Version: 2.1.4 Build 226)  -->
  <defs>
    <style>
      .st0 {
        stroke-width: .83px;
      }

      .st0, .st1, .st2 {
        fill: none;
      }

      .st0, .st2, .st3 {
        stroke: #d8d3c7;
      }

      .st4, .st5, .st6, .st7, .st8, .st9, .st10, .st11, .st12, .st13 {
        isolation: isolate;
      }

      .st4, .st7, .st13 {
        opacity: .78;
      }

      .st4, .st14 {
        fill: #c9a84c;
      }

      .st15 {
        fill: #846334;
      }

      .st15, .st5, .st6, .st9, .st10, .st16 {
        font-family: ArialMT, Arial;
      }

      .st15, .st5, .st16 {
        font-size: 10.5px;
      }

      .st5, .st7, .st8, .st17, .st11, .st12 {
        fill: #0f1828;
      }

      .st6 {
        fill: #8a8576;
      }

      .st6, .st8 {
        font-size: 11px;
      }

      .st18, .st13 {
        fill: #1fa89a;
      }

      .st8, .st11, .st12 {
        font-family: Arial-BoldMT, Arial;
        font-weight: 700;
      }

      .st9 {
        font-size: 14px;
      }

      .st9, .st10 {
        fill: #4a5567;
      }

      .st10 {
        font-size: 12px;
      }

      .st16 {
        fill: #2b6862;
      }

      .st11 {
        font-size: 26px;
      }

      .st12 {
        font-size: 13px;
      }

      .st3 {
        fill: #f7f5ef;
      }
    </style>
  </defs>
  <g id="Layer_1">
    <rect class="st17" x="1" width="699" height="8.95"/>
    <rect class="st14" x="1" y="8.95" width="699" height="3.35"/>
    <line class="st0" x1="39.91" y1="96" x2="675.16" y2="96"/>
    <rect class="st3" x="104" y="130" width="560" height="360"/>
    <line class="st2" x1="216" y1="130" x2="216" y2="490"/>
    <line class="st2" x1="104" y1="202" x2="664" y2="202"/>
    <line class="st2" x1="328" y1="130" x2="328" y2="490"/>
    <line class="st2" x1="104" y1="274" x2="664" y2="274"/>
    <line class="st2" x1="440" y1="130" x2="440" y2="490"/>
    <line class="st2" x1="104" y1="346" x2="664" y2="346"/>
    <line class="st2" x1="552" y1="130" x2="552" y2="490"/>
    <line class="st2" x1="104" y1="418" x2="664" y2="418"/>
    <circle class="st13" cx="216" cy="188" r="13"/>
    <circle class="st4" cx="182" cy="195" r="11"/>
    <circle class="st4" cx="339" cy="260" r="15"/>
    <circle class="st13" cx="272" cy="224" r="12"/>
    <circle class="st13" cx="451" cy="281" r="15"/>
    <circle class="st13" cx="474" cy="303" r="14"/>
    <circle class="st7" cx="518" cy="339" r="14"/>
    <circle class="st7" cx="541" cy="368" r="13"/>
    <circle class="st4" cx="362" cy="238" r="14"/>
    <circle class="st7" cx="586" cy="411" r="16"/>
    <rect class="st1" x="514"/>
    <circle class="st18" cx="57.46" cy="556" r="8"/>
    <rect class="st1" x="515"/>
    <circle class="st14" cx="207.46" cy="556" r="8"/>
    <rect class="st1" x="516"/>
    <circle class="st17" cx="357.46" cy="556" r="8"/>
    <line class="st0" x1="39.91" y1="576" x2="675.16" y2="576"/>
  </g>
  <g id="Layer_2">
    <text class="st11" transform="translate(30.14 54.27)"><tspan x="0" y="0">Startup &amp; SME Opportunity Map</tspan></text>
    <text class="st9" transform="translate(30.14 80.27)"><tspan x="0" y="0">Opportunities by technical difficulty, time to revenue and best-fit entrant</tspan></text>
    <text class="st12" transform="translate(325.88 519.9)"><tspan x="0" y="0">Technical difficulty →</tspan></text>
    <text class="st12" transform="translate(64.88 369.3) rotate(-90)"><tspan x="0" y="0">Time to revenue →</tspan></text>
    <text class="st16" transform="translate(189.94 153.73)"><tspan x="0" y="0">Maintenance</tspan><tspan x="9.64" y="12.6">analytics</tspan></text>
    <text class="st15" transform="translate(163.61 216.76)"><tspan x="0" y="0">Rugged</tspan><tspan x="-24.51" y="12.6">mounts/harnesses</tspan></text>
    <text class="st16" transform="translate(320.31 286)"><tspan x="0" y="0">Battery </tspan><tspan x="-11.38" y="12.6">packs / BMS</tspan></text>
    <text class="st16" transform="translate(255.37 195)"><tspan x="0" y="0">Sensor</tspan><tspan x="-10.8" y="12.6">dashboards</tspan></text>
    <text class="st16" transform="translate(416.07 248.5)"><tspan x="0" y="0">Counter-UAS</tspan><tspan x="10.79" y="12.6">analytics</tspan></text>
    <text class="st16" transform="translate(448.07 326.65)"><tspan x="0" y="0">Thermal</tspan><tspan x="-13.44" y="12.6">payload integ.</tspan></text>
    <text class="st5" transform="translate(499.91 307.67)"><tspan x="0" y="0">Tactical</tspan><tspan x="5.25" y="12.6">mesh</tspan></text>
    <text class="st5" transform="translate(528.2 393.13)"><tspan x="0" y="0">UGV</tspan><tspan x="-6.42" y="12.6">mobility</tspan></text>
    <text class="st15" transform="translate(337.49 207.6)"><tspan x="0" y="0">Simulation</tspan><tspan x="1.17" y="12.6">/ test svcs</tspan></text>
    <text class="st5" transform="translate(566.75 438.14)"><tspan x="0" y="0">Thermal</tspan><tspan x="6.42" y="12.6">cores</tspan></text>
    <text class="st10" transform="translate(74.43 561.41)"><tspan x="0" y="0">Startup</tspan></text>
    <text class="st10" transform="translate(221.44 561.27)"><tspan x="0" y="0">SME</tspan></text>
    <text class="st10" transform="translate(376 561.41)"><tspan x="0" y="0">Mid-sized</tspan></text>
    <text class="st6" transform="translate(505.85 560.8)"><tspan x="0" y="0">Bubble size = market potential</tspan></text>
    <text class="st6" transform="translate(35.5 599.41)"><tspan x="0" y="0">Techadyant Labs analysis. Indicative positioning for strategy, not investment advice.</tspan></text>
    <text class="st8" transform="translate(556.88 599.41)"><tspan x="0" y="0">TECHADYANT LABS</tspan></text>
  </g>
</svg>