<?xml version="1.0" encoding="UTF-8"?>
<svg xmlns="http://www.w3.org/2000/svg" version="1.1" viewBox="0 0 700 520">
  <!-- Generator: Adobe Illustrator 30.4.0, SVG Export Plug-In . SVG Version: 2.1.4 Build 226)  -->
  <defs>
    <style>
      .st0 {
        stroke-width: .83px;
      }

      .st0, .st1, .st2 {
        fill: #f7f5ef;
      }

      .st0, .st1, .st2, .st3 {
        stroke: #d8d3c7;
      }

      .st1 {
        stroke-width: .81px;
      }

      .st4 {
        fill: #8a8576;
      }

      .st4, .st5, .st6, .st7, .st8, .st9, .st10 {
        isolation: isolate;
      }

      .st4, .st6 {
        font-size: 11px;
      }

      .st4, .st7, .st8 {
        font-family: ArialMT, Arial;
      }

      .st11 {
        fill: #c9a84c;
      }

      .st12 {
        fill: #1fa89a;
      }

      .st5 {
        fill: #fff;
        font-size: 11.5px;
      }

      .st5, .st6, .st9, .st10 {
        font-family: Arial-BoldMT, Arial;
        font-weight: 700;
      }

      .st6, .st13, .st9, .st10 {
        fill: #0f1828;
      }

      .st7 {
        font-size: 14px;
      }

      .st7, .st8 {
        fill: #4a5567;
      }

      .st8, .st10 {
        font-size: 12px;
      }

      .st14 {
        fill: #2bc5b4;
      }

      .st2 {
        stroke-width: .83px;
      }

      .st9 {
        font-size: 26px;
      }

      .st3 {
        fill: none;
        stroke-width: .85px;
      }
    </style>
  </defs>
  <g id="Layer_1">
    <rect class="st13" width="700" height="6.84"/>
    <rect class="st11" y="6.84" width="700" height="2.56"/>
    <line class="st3" x1="5.09" y1="86" x2="676.76" y2="86"/>
    <rect class="st13" x="29.1" y="118.38" width="129.5" height="54" rx="5.12" ry="5.12"/>
    <rect class="st1" x="173.98" y="118.38" width="153.78" height="54" rx="4.85" ry="4.85"/>
    <rect class="st14" x="173.98" y="118.38" width="5" height="54"/>
    <rect class="st2" x="335.03" y="118.38" width="163.41" height="54" rx="5" ry="5"/>
    <rect class="st12" x="335.03" y="117.38" width="5" height="54"/>
    <rect class="st0" x="504.86" y="117.38" width="160.77" height="54" rx="4.96" ry="4.96"/>
    <rect class="st13" x="504.86" y="117.38" width="5" height="54"/>
    <rect class="st13" x="29.1" y="178.38" width="129.5" height="54" rx="5.12" ry="5.12"/>
    <rect class="st1" x="173.98" y="178.38" width="153.78" height="54" rx="4.85" ry="4.85"/>
    <rect class="st14" x="173.98" y="178.38" width="5" height="54"/>
    <rect class="st2" x="335.03" y="178.38" width="163.41" height="54" rx="5" ry="5"/>
    <rect class="st12" x="335.03" y="177.38" width="5" height="54"/>
    <rect class="st0" x="504.86" y="177.38" width="160.77" height="54" rx="4.96" ry="4.96"/>
    <rect class="st13" x="504.86" y="177.38" width="5" height="54"/>
    <rect class="st13" x="29.1" y="238.38" width="129.5" height="54" rx="5.12" ry="5.12"/>
    <rect class="st1" x="173.98" y="238.38" width="153.78" height="54" rx="4.85" ry="4.85"/>
    <rect class="st14" x="173.98" y="238.38" width="5" height="54"/>
    <rect class="st2" x="335.03" y="238.38" width="163.41" height="54" rx="5" ry="5"/>
    <rect class="st12" x="335.03" y="237.38" width="5" height="54"/>
    <rect class="st0" x="504.86" y="237.38" width="160.77" height="54" rx="4.96" ry="4.96"/>
    <rect class="st13" x="504.86" y="237.38" width="5" height="54"/>
    <rect class="st13" x="29.1" y="298.38" width="129.5" height="54" rx="5.12" ry="5.12"/>
    <rect class="st1" x="173.98" y="298.38" width="153.78" height="54" rx="4.85" ry="4.85"/>
    <rect class="st14" x="173.98" y="298.38" width="5" height="54"/>
    <rect class="st2" x="335.03" y="298.38" width="163.41" height="54" rx="5" ry="5"/>
    <rect class="st12" x="335.03" y="297.38" width="5" height="54"/>
    <rect class="st0" x="504.86" y="297.38" width="160.77" height="54" rx="4.96" ry="4.96"/>
    <rect class="st13" x="504.86" y="297.38" width="5" height="54"/>
    <rect class="st13" x="29.1" y="358.38" width="129.5" height="54" rx="5.12" ry="5.12"/>
    <rect class="st1" x="173.98" y="358.38" width="153.78" height="54" rx="4.85" ry="4.85"/>
    <rect class="st14" x="173.98" y="358.38" width="5" height="54"/>
    <rect class="st2" x="335.03" y="358.38" width="163.41" height="54" rx="5" ry="5"/>
    <rect class="st12" x="335.03" y="357.38" width="5" height="54"/>
    <rect class="st0" x="504.86" y="357.38" width="160.77" height="54" rx="4.96" ry="4.96"/>
    <rect class="st13" x="504.86" y="357.38" width="5" height="54"/>
    <rect class="st13" x="29.1" y="418.38" width="129.5" height="54" rx="5.12" ry="5.12"/>
    <rect class="st1" x="173.98" y="418.38" width="153.78" height="54" rx="4.85" ry="4.85"/>
    <rect class="st14" x="173.98" y="418.38" width="5" height="54"/>
    <rect class="st2" x="335.03" y="418.38" width="163.41" height="54" rx="5" ry="5"/>
    <rect class="st12" x="335.03" y="417.38" width="5" height="54"/>
    <rect class="st0" x="504.86" y="417.38" width="160.77" height="54" rx="4.96" ry="4.96"/>
    <rect class="st13" x="504.86" y="417.38" width="5" height="54"/>
    <line class="st3" x1="5.09" y1="493.76" x2="676.76" y2="493.76"/>
  </g>
  <g id="Layer_2">
    <text class="st9" transform="translate(13.71 49.19)"><tspan x="0" y="0">Capability Development Pathways for SMEs</tspan></text>
    <text class="st7" transform="translate(13.71 75.19)"><tspan x="0" y="0">Where six common firm types can be in 12 / 24 / 36 months</tspan></text>
    <text class="st10" transform="translate(226.2 112.95)"><tspan x="0" y="0">12 months</tspan></text>
    <text class="st10" transform="translate(388.87 112.8)"><tspan x="0" y="0">24 months</tspan></text>
    <text class="st10" transform="translate(557.31 112.8)"><tspan x="0" y="0">36 months</tspan></text>
    <text class="st5" transform="translate(43.44 147.8)"><tspan x="0" y="0">Machining shop</tspan></text>
    <text class="st8" transform="translate(188.33 147.8)"><tspan x="0" y="0">Drawings + QA</tspan></text>
    <text class="st8" transform="translate(349.37 147.8)"><tspan x="0" y="0">Rugged parts</tspan></text>
    <text class="st8" transform="translate(519.2 146.8)"><tspan x="0" y="0">Subsystem assembly</tspan></text>
    <text class="st5" transform="translate(43.44 207.8)"><tspan x="0" y="0">Cable / harness</tspan></text>
    <text class="st8" transform="translate(188.33 207.8)"><tspan x="0" y="0">Traceable harnesses</tspan></text>
    <text class="st8" transform="translate(349.37 207.8)"><tspan x="0" y="0">Rugged interconnect</tspan></text>
    <text class="st8" transform="translate(519.2 206.8)"><tspan x="0" y="0">Power distribution</tspan></text>
    <text class="st8" transform="translate(519.2 220.8)"><tspan x="0" y="0">units</tspan></text>
    <text class="st5" transform="translate(43.44 263.8)"><tspan x="0" y="0">Battery</tspan></text>
    <text class="st5" transform="translate(43.44 277.8)"><tspan x="0" y="0">assembler</tspan></text>
    <text class="st8" transform="translate(188.33 267.8)"><tspan x="0" y="0">Packs + BMS</tspan></text>
    <text class="st8" transform="translate(349.37 267.8)"><tspan x="0" y="0">Safety-tested packs</tspan></text>
    <text class="st8" transform="translate(519.2 266.8)"><tspan x="0" y="0">Field-charging</tspan></text>
    <text class="st8" transform="translate(519.2 280.8)"><tspan x="0" y="0">systems</tspan></text>
    <text class="st5" transform="translate(43.44 323.8)"><tspan x="0" y="0">Electronics</tspan></text>
    <text class="st5" transform="translate(43.44 337.8)"><tspan x="0" y="0">assembler</tspan></text>
    <text class="st8" transform="translate(188.33 327.8)"><tspan x="0" y="0">PCB assembly</tspan></text>
    <text class="st8" transform="translate(349.37 327.8)"><tspan x="0" y="0">Rugged boards</tspan></text>
    <text class="st8" transform="translate(519.2 326.8)"><tspan x="0" y="0">Embedded subsystems</tspan></text>
    <text class="st5" transform="translate(43.44 382.8)"><tspan x="0" y="0">Industrial</tspan></text>
    <text class="st5" transform="translate(43.44 396.8)"><tspan x="0" y="0">service</tspan></text>
    <text class="st8" transform="translate(188.33 387.8)"><tspan x="0" y="0">Calibration</tspan></text>
    <text class="st8" transform="translate(349.37 387.8)"><tspan x="0" y="0">Environmental test</tspan></text>
    <text class="st8" transform="translate(519.2 386.8)"><tspan x="0" y="0">Autonomy test</tspan></text>
    <text class="st8" transform="translate(519.2 400.8)"><tspan x="0" y="0">services</tspan></text>
    <text class="st5" transform="translate(43.44 447.8)"><tspan x="0" y="0">Software service</tspan></text>
    <text class="st8" transform="translate(188.33 447.8)"><tspan x="0" y="0">Dashboards</tspan></text>
    <text class="st8" transform="translate(349.37 447.8)"><tspan x="0" y="0">Sensor fusion</tspan></text>
    <text class="st8" transform="translate(519.2 446.8)"><tspan x="0" y="0">Edge AI / MLOps</tspan></text>
    <text class="st4" transform="translate(5.14 514.18)"><tspan x="0" y="0">Techadyant Labs framework.</tspan></text>
    <text class="st6" transform="translate(554.27 514.18)"><tspan x="0" y="0">TECHADYANT LABS</tspan></text>
  </g>
</svg>