<?xml version="1.0" encoding="UTF-8"?>
<svg id="Layer_1" xmlns="http://www.w3.org/2000/svg" version="1.1" viewBox="0 0 700 620">
  <!-- Generator: Adobe Illustrator 30.4.0, SVG Export Plug-In . SVG Version: 2.1.4 Build 226)  -->
  <defs>
    <style>
      .st0 {
        stroke-width: 1.68px;
      }

      .st0, .st1, .st2, .st3 {
        stroke: #4a5567;
      }

      .st0, .st2, .st4, .st5, .st6, .st7, .st8, .st9, .st10, .st3 {
        fill: #fff;
      }

      .st11 {
        font-size: 12.5px;
      }

      .st11, .st1, .st12, .st13, .st14, .st15, .st16, .st17, .st18, .st9 {
        isolation: isolate;
      }

      .st11, .st15, .st19, .st18 {
        fill: #0f1828;
      }

      .st11, .st15, .st18, .st9 {
        font-family: Arial-BoldMT, Arial;
        font-weight: 700;
      }

      .st20, .st16, .st17 {
        fill: #4a5567;
      }

      .st1, .st12, .st13 {
        opacity: .6;
        stroke-width: 2px;
      }

      .st1, .st12, .st13, .st21 {
        fill: none;
      }

      .st12, .st5, .st6, .st7 {
        stroke: #1fa89a;
      }

      .st13, .st4, .st8, .st10 {
        stroke: #c9a84c;
      }

      .st2 {
        stroke-width: 1.75px;
      }

      .st14 {
        fill: #8a8576;
      }

      .st14, .st15 {
        font-size: 11px;
      }

      .st14, .st16, .st17 {
        font-family: ArialMT, Arial;
      }

      .st22 {
        fill: #c9a84c;
      }

      .st21 {
        stroke: #d8d3c7;
        stroke-width: .86px;
      }

      .st23 {
        fill: #1fa89a;
      }

      .st4, .st5 {
        stroke-width: 1.71px;
      }

      .st16 {
        font-size: 14px;
      }

      .st6 {
        stroke-width: 1.71px;
      }

      .st7 {
        stroke-width: 1.75px;
      }

      .st17 {
        font-size: 10.5px;
      }

      .st8 {
        stroke-width: 1.71px;
      }

      .st18 {
        font-size: 26px;
      }

      .st9 {
        font-size: 13px;
      }

      .st10 {
        stroke-width: 1.68px;
      }

      .st3 {
        stroke-width: 1.73px;
      }
    </style>
  </defs>
  <line class="st13" x1="383.33" y1="411" x2="448.67" y2="496"/>
  <rect class="st19" y="0" width="701.51" height="7.27"/>
  <rect class="st22" y="7.27" width="701.51" height="2.73"/>
  <text class="st18" transform="translate(34.55 50.17)"><tspan x="0" y="0">Dual-Use Technology Wheel</tspan></text>
  <text class="st16" transform="translate(34.55 76.17)"><tspan x="0" y="0">The same automation stack serves nine civilian sectors</tspan></text>
  <line class="st21" x1="24.69" y1="88" x2="701.51" y2="88"/>
  <circle class="st19" cx="350" cy="332" r="92"/>
  <text class="st9" transform="translate(318.58 312)"><tspan x="0" y="0">Battlefield</tspan></text>
  <text class="st9" transform="translate(313.89 328)"><tspan x="0" y="0">Automation</tspan></text>
  <text class="st9" transform="translate(308.59 344)"><tspan x="0" y="0">Technologies</tspan></text>
  <line class="st12" x1="350" y1="240" x2="350" y2="122"/>
  <rect class="st6" x="294.76" y="96" width="110.24" height="52" rx="6.86" ry="6.86"/>
  <rect class="st23" x="294.76" y="96" width="6" height="52"/>
  <text class="st11" transform="translate(325.87 122)"><tspan x="0" y="0">Mining</tspan></text>
  <line class="st13" x1="409" y1="262" x2="485" y2="171"/>
  <rect class="st8" x="426.29" y="151.73" width="109.42" height="52" rx="6.83" ry="6.83"/>
  <rect class="st22" x="426.29" y="151.73" width="6" height="52"/>
  <text class="st11" transform="translate(453.56 180.84)"><tspan x="0" y="0">Logistics</tspan></text>
  <line class="st1" x1="441" y1="316" x2="557" y2="296"/>
  <rect class="st3" x="482" y="270" width="112.24" height="52" rx="6.92" ry="6.92"/>
  <rect class="st20" x="482" y="270" width="6" height="52"/>
  <text class="st11" transform="translate(498 292)"><tspan x="0" y="0">Agriculture</tspan></text>
  <line class="st12" x1="430" y1="378" x2="532" y2="437"/>
  <rect class="st7" x="494" y="389.76" width="114.22" height="52" rx="6.98" ry="6.98"/>
  <rect class="st23" x="494" y="389.76" width="6" height="52"/>
  <text class="st11" transform="translate(522 420.52)"><tspan x="0" y="0">Inspection</tspan></text>
  <rect class="st4" x="402" y="494.16" width="110" height="52" rx="6.85" ry="6.85"/>
  <rect class="st22" x="402" y="494.16" width="6" height="52"/>
  <text class="st11" transform="translate(417.07 523.16)"><tspan x="0" y="0">Manufacturing</tspan></text>
  <line class="st1" x1="319" y1="418" x2="253" y2="515.89"/>
  <rect class="st2" x="195.37" y="494.16" width="115.25" height="52" rx="7.01" ry="7.01"/>
  <rect class="st20" x="195.37" y="494.05" width="6" height="52"/>
  <text class="st11" transform="translate(237.28 515.16)"><tspan x="0" y="0">Smart</tspan><tspan x="-22.92" y="15">Infrastructure</tspan></text>
  <line class="st12" x1="270" y1="378" x2="168" y2="437"/>
  <rect class="st5" x="96" y="389.76" width="110" height="52" rx="6.85" ry="6.85"/>
  <rect class="st23" x="96" y="389.76" width="6" height="52"/>
  <text class="st11" transform="translate(112 411.76)"><tspan x="0" y="0">Disaster</tspan><tspan x="0" y="15">Response</tspan></text>
  <line class="st13" x1="259" y1="316" x2="143" y2="296"/>
  <rect class="st10" x="85.77" y="276.52" width="105.38" height="52" rx="6.71" ry="6.71"/>
  <rect class="st22" x="85.77" y="276.52" width="6" height="52"/>
  <text class="st11" transform="translate(101.77 298.52)"><tspan x="0" y="0">Energy</tspan><tspan x="0" y="15">/ Utilities</tspan></text>
  <line class="st1" x1="291" y1="262" x2="215" y2="171"/>
  <rect class="st0" x="161.5" y="158.05" width="105.45" height="52" rx="6.71" ry="6.71"/>
  <rect class="st20" x="161.5" y="158.05" width="6" height="52"/>
  <text class="st11" transform="translate(177.5 180.05)"><tspan x="0" y="0">Ports</tspan><tspan x="0" y="15">/ Railways</tspan></text>
  <text class="st17" transform="translate(74 578.44)"><tspan x="0" y="0">Shared tech: edge AI · drones · UGVs · thermal imaging · tactical mesh · batteries · simulation · maintenance analytics</tspan></text>
  <line class="st21" x1="24.69" y1="590.58" x2="701.51" y2="590.58"/>
  <text class="st14" transform="translate(6.25 606)"><tspan x="0" y="0">Techadyant Labs framework. Dual-use revenue can precede defence scale.</tspan></text>
  <text class="st15" transform="translate(580.27 606)"><tspan x="0" y="0">TECHADYANT LABS</tspan></text>
</svg>