<?xml version="1.0" encoding="UTF-8"?>
<svg id="Layer_1" xmlns="http://www.w3.org/2000/svg" version="1.1" viewBox="0 0 1000 620">
  <!-- Generator: Adobe Illustrator 30.4.0, SVG Export Plug-In . SVG Version: 2.1.4 Build 226)  -->
  <defs>
    <style>
      .st0, .st1 {
        fill: none;
      }

      .st0, .st1, .st2 {
        stroke: #d8d3c7;
      }

      .st3, .st4 {
        font-size: 11px;
      }

      .st3, .st4, .st5, .st6, .st7, .st8, .st9, .st10 {
        isolation: isolate;
      }

      .st3, .st5, .st10 {
        font-family: ArialMT, Arial;
      }

      .st3, .st10 {
        fill: #8a8576;
      }

      .st11, .st12 {
        fill: #c9a84c;
      }

      .st13, .st14 {
        fill: #1fa89a;
      }

      .st4, .st15, .st8 {
        fill: #0f1828;
      }

      .st4, .st6, .st7, .st8, .st9 {
        font-family: Arial-BoldMT, Arial;
        font-weight: 700;
      }

      .st5 {
        fill: #4a5567;
        font-size: 14px;
      }

      .st6 {
        font-size: 14.84px;
      }

      .st6, .st2 {
        fill: #fff;
      }

      .st14 {
        stroke: #1fa89a;
      }

      .st14, .st12, .st16, .st2 {
        stroke-width: 2.5px;
      }

      .st1 {
        stroke-width: 3px;
      }

      .st7, .st16, .st9, .st17 {
        fill: #c8443b;
      }

      .st7, .st10 {
        font-size: 13px;
      }

      .st12 {
        stroke: #c9a84c;
      }

      .st8 {
        font-size: 26px;
      }

      .st16 {
        stroke: #c8443b;
      }

      .st9 {
        font-size: 10.5px;
      }
    </style>
  </defs>
  <rect class="st15" y="0" width="1000" height="8"/>
  <rect class="st11" y="8" width="1000" height="3"/>
  <text class="st8" transform="translate(40 56)"><tspan x="0" y="0">Readiness Pathways to 2035</tspan></text>
  <text class="st5" transform="translate(40 82)"><tspan x="0" y="0">How far each scenario carries a system from prototype to export</tspan></text>
  <line class="st0" x1="40" y1="96" x2="960" y2="96"/>
  <text class="st10" transform="translate(246.46 146)"><tspan x="0" y="0">Prototype</tspan></text>
  <text class="st10" transform="translate(417.91 146)"><tspan x="0" y="0">Test</tspan></text>
  <text class="st10" transform="translate(540.06 146)"><tspan x="0" y="0">Limited production</tspan></text>
  <text class="st10" transform="translate(700.12 146)"><tspan x="0" y="0">Field deployment</tspan></text>
  <text class="st10" transform="translate(884.1 146)"><tspan x="0" y="0">Export</tspan></text>
  <rect class="st17" x="40" y="160" width="160" height="98" rx="8" ry="8"/>
  <text class="st6" transform="translate(74.48 201.73)"><tspan x="0" y="0">Slow</tspan></text>
  <text class="st6" transform="translate(74.48 220)"><tspan x="0" y="0">Adaptation</tspan></text>
  <line class="st1" x1="270" y1="209" x2="900" y2="209"/>
  <circle class="st16" cx="270" cy="209" r="11"/>
  <circle class="st16" cx="427.5" cy="209" r="11"/>
  <circle class="st2" cx="585" cy="209" r="11"/>
  <circle class="st2" cx="742.5" cy="209" r="11"/>
  <circle class="st2" cx="900" cy="209" r="11"/>
  <text class="st7" transform="translate(396.03 191)"><tspan x="0" y="0">stalls here</tspan></text>
  <rect class="st11" x="40" y="280" width="160" height="98" rx="8" ry="8"/>
  <text class="st6" transform="translate(74.47 322)"><tspan x="0" y="0">Managed</tspan></text>
  <text class="st6" transform="translate(74.47 340.27)"><tspan x="0" y="0">Transition</tspan></text>
  <line class="st1" x1="270" y1="329" x2="900" y2="329"/>
  <circle class="st12" cx="270" cy="329" r="11"/>
  <circle class="st12" cx="427.5" cy="329" r="11"/>
  <circle class="st12" cx="585" cy="329" r="11"/>
  <circle class="st12" cx="742.5" cy="329" r="11"/>
  <circle class="st2" cx="900" cy="329" r="11"/>
  <text class="st9" transform="translate(716.03 311)"><tspan x="0" y="0">stalls here</tspan></text>
  <rect class="st13" x="40" y="400" width="160" height="98" rx="8" ry="8"/>
  <text class="st6" transform="translate(71.16 449)"><tspan x="0" y="0">Autonomous</tspan></text>
  <text class="st6" transform="translate(71.16 467.27)"><tspan x="0" y="0">Leader</tspan></text>
  <line class="st1" x1="270" y1="449" x2="900" y2="449"/>
  <circle class="st14" cx="270" cy="449" r="11"/>
  <circle class="st14" cx="427.5" cy="449" r="11"/>
  <circle class="st14" cx="585" cy="449" r="11"/>
  <circle class="st14" cx="742.5" cy="449" r="11"/>
  <circle class="st14" cx="900" cy="449" r="11"/>
  <line class="st0" x1="40" y1="576" x2="960" y2="576"/>
  <text class="st3" transform="translate(40 598)"><tspan x="0" y="0">Techadyant Labs scenario model. The gap between lanes is execution, not ambition.</tspan></text>
  <text class="st4" transform="translate(852.23 598)"><tspan x="0" y="0">TECHADYANT LABS</tspan></text>
</svg>