<?xml version="1.0" encoding="UTF-8"?>
<svg xmlns="http://www.w3.org/2000/svg" version="1.1" viewBox="0 0 700 420">
  <!-- Generator: Adobe Illustrator 30.4.0, SVG Export Plug-In . SVG Version: 2.1.4 Build 226)  -->
  <defs>
    <style>
      .st0 {
        font-size: 12.77px;
      }

      .st0, .st1, .st2, .st3, .st4, .st5, .st6 {
        isolation: isolate;
      }

      .st0, .st1, .st3, .st5 {
        font-family: ArialMT, Arial;
      }

      .st0, .st3, .st5 {
        fill: #4a5567;
      }

      .st1 {
        fill: #8a8576;
      }

      .st1, .st2, .st5 {
        font-size: 11px;
      }

      .st7 {
        fill: #c9a84c;
      }

      .st8 {
        fill: #1fa89a;
      }

      .st2, .st9, .st4 {
        fill: #0f1828;
      }

      .st2, .st4, .st10, .st6 {
        font-family: Arial-BoldMT, Arial;
        font-weight: 700;
      }

      .st3 {
        font-size: 14px;
      }

      .st11 {
        stroke: #c9a84c;
        stroke-width: 2px;
      }

      .st11, .st12 {
        fill: none;
      }

      .st13 {
        fill: #f7f5ef;
        stroke-width: .63px;
      }

      .st13, .st12 {
        stroke: #d8d3c7;
      }

      .st4 {
        font-size: 26px;
      }

      .st10, .st6 {
        fill: #fff;
        font-size: 15.54px;
      }

      .st12 {
        stroke-width: .86px;
      }
    </style>
  </defs>
  <g id="Layer_1">
    <rect class="st9" width="700" height="7.13"/>
    <rect class="st7" y="7.13" width="700" height="2.67"/>
    <line class="st12" x1="16.3" y1="89.83" x2="694" y2="89.83"/>
    <rect class="st13" x="49.03" y="105.37" width="200.06" height="234.03" rx="5.04" ry="5.04"/>
    <rect class="st8" x="49.03" y="105.37" width="200.06" height="28.54" rx="5.04" ry="5.04"/>
    <rect class="st8" x="49.03" y="128.2" width="200.06" height="5.71"/>
    <rect class="st13" x="261.59" y="105.37" width="200.06" height="234.03" rx="5.04" ry="5.04"/>
    <rect class="st7" x="261.59" y="105.37" width="200.06" height="28.54" rx="5.04" ry="5.04"/>
    <rect class="st7" x="261.59" y="128.2" width="200.06" height="5.71"/>
    <rect class="st13" x="474.15" y="105.37" width="200.06" height="234.03" rx="5.04" ry="5.04"/>
    <rect class="st9" x="474.15" y="105.37" width="200.06" height="28.54" rx="5.04" ry="5.04"/>
    <rect class="st9" x="474.15" y="128.2" width="200.06" height="5.71"/>
    <g>
      <line class="st11" x1="178.06" y1="370.12" x2="515.63" y2="370.12"/>
      <path class="st7" d="M527.7,370.12c-5.68,2.11-12.73,5.7-17.09,9.51l3.44-9.51-3.44-9.51c4.37,3.81,11.42,7.4,17.09,9.51Z"/>
    </g>
    <line class="st12" x1="10.03" y1="387.05" x2="687.72" y2="387.05"/>
  </g>
  <g id="Layer_2">
    <text class="st4" transform="translate(12.72 44.29)"><tspan x="0" y="0">Startup Roadmap for Battlefield Automation</tspan></text>
    <text class="st3" transform="translate(12.72 70.29)"><tspan x="0" y="0">From narrow wedge to lifecycle contracts</tspan></text>
    <text class="st6" transform="translate(88.98 127.06)"><tspan x="0" y="0">0–24 months</tspan></text>
    <text class="st0" transform="translate(61.59 189.62)"><tspan x="0" y="0">• Pick a narrow wedge</tspan></text>
    <text class="st0" transform="translate(61.59 215.15)"><tspan x="0" y="0">• Field validation</tspan></text>
    <text class="st0" transform="translate(61.59 240.68)"><tspan x="0" y="0">• Early dual-use revenue</tspan></text>
    <text class="st10" transform="translate(325.75 125.12)"><tspan x="0" y="0">2–5 years</tspan></text>
    <text class="st0" transform="translate(278.95 184.92)"><tspan x="0" y="0">• Ruggedisation</tspan></text>
    <text class="st0" transform="translate(278.95 210.45)"><tspan x="0" y="0">• Limited production</tspan></text>
    <text class="st0" transform="translate(278.95 235.98)"><tspan x="0" y="0">• Repeatable procurement</tspan></text>
    <text class="st10" transform="translate(531.08 125.12)"><tspan x="0" y="0">5–10 years</tspan></text>
    <text class="st0" transform="translate(497.36 184.92)"><tspan x="0" y="0">• Export readiness</tspan></text>
    <text class="st0" transform="translate(497.36 210.45)"><tspan x="0" y="0">• Lifecycle contracts</tspan></text>
    <text class="st0" transform="translate(497.36 235.98)"><tspan x="0" y="0">• Subsystem scale</tspan></text>
    <text class="st5" transform="translate(337.58 356.69)"><tspan x="0" y="0">Time</tspan></text>
    <text class="st1" transform="translate(10.03 410.71)"><tspan x="0" y="0">Techadyant Labs analysis. Indicative; not investment advice.</tspan></text>
    <text class="st2" transform="translate(577.39 410.71)"><tspan x="0" y="0">TECHADYANT LABS</tspan></text>
  </g>
</svg>