<?xml version="1.0" encoding="UTF-8"?>
<svg xmlns="http://www.w3.org/2000/svg" version="1.1" viewBox="0 0 640 420">
  <!-- Generator: Adobe Illustrator 30.4.0, SVG Export Plug-In . SVG Version: 2.1.4 Build 226)  -->
  <defs>
    <style>
      .st0 {
        fill: #fff;
      }

      .st0, .st1, .st2, .st3, .st4, .st5, .st6 {
        isolation: isolate;
      }

      .st0, .st3, .st5 {
        font-family: Arial-BoldMT, Arial;
        font-weight: 700;
      }

      .st0, .st4 {
        font-size: 14px;
      }

      .st1 {
        font-size: 12.86px;
      }

      .st1, .st2, .st4, .st6 {
        font-family: ArialMT, Arial;
      }

      .st1, .st4, .st6 {
        fill: #4a5567;
      }

      .st7 {
        stroke-width: .81px;
      }

      .st7, .st8 {
        fill: none;
      }

      .st7, .st9 {
        stroke: #d8d3c7;
      }

      .st2 {
        fill: #8a8576;
      }

      .st2, .st3, .st6 {
        font-size: 11px;
      }

      .st10 {
        fill: #c9a84c;
      }

      .st11 {
        fill: #1fa89a;
      }

      .st3, .st12, .st5 {
        fill: #0f1828;
      }

      .st8 {
        stroke: #c9a84c;
        stroke-width: 2px;
      }

      .st5 {
        font-size: 26px;
      }

      .st9 {
        fill: #f7f5ef;
        stroke-width: .54px;
      }
    </style>
  </defs>
  <g id="Layer_1">
    <rect class="st12" y=".22" width="640" height="8.24"/>
    <rect class="st10" y="8.46" width="640" height="3.09"/>
    <line class="st7" x1="23.49" y1="96.22" x2="632.21" y2="96.22"/>
    <rect class="st9" x="51.95" y="145.4" width="181.4" height="190.51" rx="4.33" ry="4.33"/>
    <rect class="st11" x="51.95" y="145.4" width="181.4" height="23.23" rx="4.33" ry="4.33"/>
    <rect class="st11" x="51.95" y="163.99" width="181.4" height="4.65"/>
    <rect class="st9" x="244.69" y="145.4" width="181.4" height="190.51" rx="4.33" ry="4.33"/>
    <rect class="st10" x="244.69" y="145.4" width="181.4" height="23.23" rx="4.33" ry="4.33"/>
    <rect class="st10" x="244.69" y="163.99" width="181.4" height="4.65"/>
    <rect class="st9" x="437.42" y="145.4" width="181.4" height="190.51" rx="4.33" ry="4.33"/>
    <rect class="st12" x="437.42" y="145.4" width="181.4" height="23.23" rx="4.33" ry="4.33"/>
    <rect class="st12" x="437.42" y="163.99" width="181.4" height="4.65"/>
    <g>
      <line class="st8" x1="116.62" y1="362.09" x2="527.8" y2="362.09"/>
      <path class="st10" d="M539.87,362.09c-5.68,2.11-12.73,5.7-17.09,9.51l3.44-9.51-3.44-9.51c4.37,3.81,11.42,7.4,17.09,9.51Z"/>
    </g>
    <line class="st7" x1="31.03" y1="387.95" x2="639.75" y2="387.95"/>
  </g>
  <g id="Layer_2">
    <text class="st5" transform="translate(17.14 53.6)"><tspan x="0" y="0">SME Roadmap: Generic Supplier to Stack Partner</tspan></text>
    <text class="st4" transform="translate(17.14 79.6)"><tspan x="0" y="0">Staged progression up the autonomy supply chain</tspan></text>
    <text class="st0" transform="translate(84.06 162.28)"><tspan x="0" y="0">0–24 months</tspan></text>
    <text class="st1" transform="translate(66.93 202.17)"><tspan x="0" y="0">• Quality documentation</tspan></text>
    <text class="st1" transform="translate(66.93 227.9)"><tspan x="0" y="0">• Rugged components</tspan></text>
    <text class="st1" transform="translate(66.93 253.63)"><tspan x="0" y="0">• Test partnerships</tspan></text>
    <text class="st0" transform="translate(308.15 161.25)"><tspan x="0" y="0">2–5 years</tspan></text>
    <text class="st1" transform="translate(263.28 201.02)"><tspan x="0" y="0">• Subsystem supply</tspan></text>
    <text class="st1" transform="translate(263.28 226.75)"><tspan x="0" y="0">• Qualified-supplier status</tspan></text>
    <text class="st1" transform="translate(263.28 252.47)"><tspan x="0" y="0">• Co-development</tspan></text>
    <text class="st0" transform="translate(488.32 161.25)"><tspan x="0" y="0">5–10 years</tspan></text>
    <text class="st1" transform="translate(453.13 201.02)"><tspan x="0" y="0">• Lifecycle support</tspan></text>
    <text class="st1" transform="translate(453.13 226.75)"><tspan x="0" y="0">• Export-ready supplier</tspan></text>
    <text class="st6" transform="translate(311.35 378.59)"><tspan x="0" y="0">Time</tspan></text>
    <text class="st2" transform="translate(31.03 405.68)"><tspan x="0" y="0">Techadyant Labs analysis.</tspan></text>
    <text class="st3" transform="translate(528.12 405.68)"><tspan x="0" y="0">TECHADYANT LABS</tspan></text>
  </g>
</svg>