<?xml version="1.0" encoding="UTF-8"?>
<svg xmlns="http://www.w3.org/2000/svg" version="1.1" viewBox="0 0 750 580">
  <!-- Generator: Adobe Illustrator 30.4.0, SVG Export Plug-In . SVG Version: 2.1.4 Build 226)  -->
  <defs>
    <style>
      .st0 {
        font-size: 13px;
      }

      .st0, .st1, .st2, .st3, .st4, .st5 {
        isolation: isolate;
      }

      .st0, .st1, .st3 {
        font-family: ArialMT, Arial;
      }

      .st0, .st3 {
        fill: #4a5567;
      }

      .st6 {
        fill: none;
        stroke-width: .87px;
      }

      .st6, .st7 {
        stroke: #d8d3c7;
      }

      .st1 {
        fill: #8a8576;
      }

      .st1, .st2 {
        font-size: 11px;
      }

      .st8 {
        fill: #c9a84c;
      }

      .st9 {
        fill: #1fa89a;
      }

      .st2, .st10, .st4, .st5 {
        fill: #0f1828;
      }

      .st2, .st4, .st5 {
        font-family: Arial-BoldMT, Arial;
        font-weight: 700;
      }

      .st3 {
        font-size: 14px;
      }

      .st11 {
        fill: #e0a23b;
      }

      .st7 {
        fill: #f7f5ef;
        stroke-width: .85px;
      }

      .st4 {
        font-size: 26px;
      }

      .st5 {
        font-size: 12px;
      }
    </style>
  </defs>
  <g id="Layer_1">
    <rect class="st10" x="-.3" y=".47" width="750.3" height="7.35"/>
    <rect class="st8" x="-.3" y="7.83" width="750.3" height="2.76"/>
    <line class="st6" x1="25.99" y1="88" x2="724.52" y2="88"/>
    <rect class="st7" x="146.82" y="131.47" width="182.48" height="52" rx="4.26" ry="4.26"/>
    <rect class="st11" x="146.82" y="131.47" width="5" height="52"/>
    <rect class="st7" x="333.66" y="131.47" width="182.48" height="52" rx="4.26" ry="4.26"/>
    <rect class="st8" x="333.82" y="131.47" width="5" height="52"/>
    <rect class="st7" x="519.78" y="131.47" width="182.48" height="52" rx="4.26" ry="4.26"/>
    <rect class="st9" x="520.82" y="131.47" width="5" height="52"/>
    <rect class="st7" x="146.82" y="189.47" width="182.48" height="52" rx="4.26" ry="4.26"/>
    <rect class="st11" x="146.82" y="189.47" width="5" height="52"/>
    <rect class="st7" x="333.66" y="189.47" width="182.48" height="52" rx="4.26" ry="4.26"/>
    <rect class="st8" x="333.82" y="189.47" width="5" height="52"/>
    <rect class="st7" x="519.78" y="189.47" width="182.48" height="52" rx="4.26" ry="4.26"/>
    <rect class="st9" x="520.82" y="189.47" width="5" height="52"/>
    <rect class="st7" x="146.82" y="247.47" width="182.48" height="52" rx="4.26" ry="4.26"/>
    <rect class="st11" x="146.82" y="247.47" width="5" height="52"/>
    <rect class="st7" x="333.66" y="247.47" width="182.48" height="52" rx="4.26" ry="4.26"/>
    <rect class="st8" x="333.82" y="247.47" width="5" height="52"/>
    <rect class="st7" x="519.78" y="247.47" width="182.48" height="52" rx="4.26" ry="4.26"/>
    <rect class="st9" x="520.82" y="247.47" width="5" height="52"/>
    <rect class="st7" x="146.82" y="305.47" width="182.48" height="52" rx="4.26" ry="4.26"/>
    <rect class="st11" x="146.82" y="305.47" width="5" height="52"/>
    <rect class="st7" x="333.66" y="305.47" width="182.48" height="52" rx="4.26" ry="4.26"/>
    <rect class="st8" x="333.82" y="305.47" width="5" height="52"/>
    <rect class="st7" x="519.78" y="305.47" width="182.48" height="52" rx="4.26" ry="4.26"/>
    <rect class="st9" x="520.82" y="305.47" width="5" height="52"/>
    <rect class="st7" x="146.82" y="363.47" width="182.48" height="52" rx="4.26" ry="4.26"/>
    <rect class="st11" x="146.82" y="363.47" width="5" height="52"/>
    <rect class="st7" x="333.66" y="363.47" width="182.48" height="52" rx="4.26" ry="4.26"/>
    <rect class="st8" x="333.82" y="363.47" width="5" height="52"/>
    <rect class="st7" x="519.78" y="363.47" width="182.48" height="52" rx="4.26" ry="4.26"/>
    <rect class="st9" x="520.82" y="363.47" width="5" height="52"/>
    <rect class="st7" x="146.82" y="421.47" width="182.48" height="52" rx="4.26" ry="4.26"/>
    <rect class="st11" x="146.82" y="421.47" width="5" height="52"/>
    <rect class="st7" x="333.66" y="421.47" width="182.48" height="52" rx="4.26" ry="4.26"/>
    <rect class="st8" x="333.82" y="421.47" width="5" height="52"/>
    <rect class="st7" x="519.78" y="421.47" width="182.48" height="52" rx="4.26" ry="4.26"/>
    <rect class="st9" x="520.82" y="421.47" width="5" height="52"/>
    <rect class="st7" x="146.82" y="479.47" width="182.48" height="52" rx="4.26" ry="4.26"/>
    <rect class="st11" x="146.82" y="479.47" width="5" height="52"/>
    <rect class="st7" x="333.66" y="479.47" width="182.48" height="52" rx="4.26" ry="4.26"/>
    <rect class="st8" x="333.82" y="479.47" width="5" height="52"/>
    <rect class="st7" x="519.78" y="479.47" width="182.48" height="52" rx="4.26" ry="4.26"/>
    <rect class="st9" x="520.82" y="479.47" width="5" height="52"/>
    <line class="st6" x1="25.99" y1="546.34" x2="724.52" y2="546.34"/>
  </g>
  <g id="Layer_2">
    <text class="st4" transform="translate(26.06 51.44)"><tspan x="0" y="0">Ecosystem Action Matrix</tspan></text>
    <text class="st3" transform="translate(26.06 77.44)"><tspan x="0" y="0">What each actor does across three horizons</tspan></text>
    <text class="st5" transform="translate(200.43 120.63)"><tspan x="0" y="0">0–24 Months</tspan></text>
    <text class="st5" transform="translate(395.95 120.47)"><tspan x="0" y="0">2–5 Years</tspan></text>
    <text class="st5" transform="translate(580.57 120.47)"><tspan x="0" y="0">5–10 Years</tspan></text>
    <text class="st5" transform="translate(83.49 162.77)"><tspan x="0" y="0">Startups</tspan></text>
    <text class="st0" transform="translate(156.16 153.77)"><tspan x="0" y="0">Pick wedge;</tspan></text>
    <text class="st0" transform="translate(156.16 168.77)"><tspan x="0" y="0">field-validate</tspan></text>
    <text class="st0" transform="translate(345.16 153.77)"><tspan x="0" y="0">Ruggedise; limited</tspan></text>
    <text class="st0" transform="translate(345.16 168.77)"><tspan x="0" y="0">production</tspan></text>
    <text class="st0" transform="translate(536.16 153.77)"><tspan x="0" y="0">Export; lifecycle</tspan></text>
    <text class="st0" transform="translate(536.16 168.77)"><tspan x="0" y="0">contracts</tspan></text>
    <text class="st5" transform="translate(99.48 220.77)"><tspan x="0" y="0">SMEs</tspan></text>
    <text class="st0" transform="translate(156.16 211.77)"><tspan x="0" y="0">Quality docs; rugged</tspan></text>
    <text class="st0" transform="translate(156.16 226.77)"><tspan x="0" y="0">parts</tspan></text>
    <text class="st0" transform="translate(345.16 211.77)"><tspan x="0" y="0">Subsystem supply;</tspan></text>
    <text class="st0" transform="translate(345.16 226.77)"><tspan x="0" y="0">qualify</tspan></text>
    <text class="st0" transform="translate(536.16 211.77)"><tspan x="0" y="0">Lifecycle support;</tspan></text>
    <text class="st0" transform="translate(536.16 226.77)"><tspan x="0" y="0">export</tspan></text>
    <text class="st5" transform="translate(76.16 278.77)"><tspan x="0" y="0">Mid-Sized</tspan></text>
    <text class="st0" transform="translate(156.16 269.77)"><tspan x="0" y="0">Mission-integrator</tspan></text>
    <text class="st0" transform="translate(156.16 284.77)"><tspan x="0" y="0">pilots</tspan></text>
    <text class="st0" transform="translate(345.16 269.77)"><tspan x="0" y="0">Product families; test</tspan></text>
    <text class="st0" transform="translate(345.16 284.77)"><tspan x="0" y="0">infra</tspan></text>
    <text class="st0" transform="translate(536.16 269.77)"><tspan x="0" y="0">Export channels</tspan></text>
    <text class="st5" transform="translate(56.12 336.77)"><tspan x="0" y="0">Large Primes</tspan></text>
    <text class="st0" transform="translate(156.16 327.77)"><tspan x="0" y="0">Open subsystem demand</tspan></text>
    <text class="st0" transform="translate(345.16 327.77)"><tspan x="0" y="0">Co-develop; absorb</tspan></text>
    <text class="st0" transform="translate(345.16 342.77)"><tspan x="0" y="0">SMEs</tspan></text>
    <text class="st0" transform="translate(536.16 327.77)"><tspan x="0" y="0">Anchor exports</tspan></text>
    <text class="st5" transform="translate(25.48 394.77)"><tspan x="0" y="0">Government / MoD</tspan></text>
    <text class="st0" transform="translate(156.16 385.77)"><tspan x="0" y="0">Demand signals; test</tspan></text>
    <text class="st0" transform="translate(156.16 400.77)"><tspan x="0" y="0">ranges</tspan></text>
    <text class="st0" transform="translate(345.16 385.77)"><tspan x="0" y="0">Procurement reform;</tspan></text>
    <text class="st0" transform="translate(345.16 400.77)"><tspan x="0" y="0">roadmap</tspan></text>
    <text class="st0" transform="translate(536.16 385.77)"><tspan x="0" y="0">Data infra;</tspan></text>
    <text class="st0" transform="translate(536.16 400.77)"><tspan x="0" y="0">sovereignty</tspan></text>
    <text class="st5" transform="translate(37.45 452.77)"><tspan x="0" y="0">Academia / Labs</tspan></text>
    <text class="st0" transform="translate(156.16 443.77)"><tspan x="0" y="0">Datasets; talent</tspan></text>
    <text class="st0" transform="translate(156.16 458.77)"><tspan x="0" y="0">pipeline</tspan></text>
    <text class="st0" transform="translate(345.16 443.77)"><tspan x="0" y="0">EW &amp; test capability</tspan></text>
    <text class="st0" transform="translate(536.16 443.77)"><tspan x="0" y="0">Advanced-core R&amp;D</tspan></text>
    <text class="st5" transform="translate(78.8 506.77)"><tspan x="0" y="0">Investors</tspan></text>
    <text class="st0" transform="translate(156.16 501.77)"><tspan x="0" y="0">Back dual-use wedges</tspan></text>
    <text class="st0" transform="translate(345.16 501.77)"><tspan x="0" y="0">Fund scale-up &amp;</tspan></text>
    <text class="st0" transform="translate(345.16 516.77)"><tspan x="0" y="0">qualification</tspan></text>
    <text class="st0" transform="translate(536.16 501.77)"><tspan x="0" y="0">Patient capital for</tspan></text>
    <text class="st0" transform="translate(536.16 516.77)"><tspan x="0" y="0">cores</tspan></text>
    <text class="st1" transform="translate(27.96 568.28)"><tspan x="0" y="0">Techadyant Labs synthesis. Amber = near-term urgent; teal = strategic.</tspan></text>
    <text class="st2" transform="translate(605.74 568.28)"><tspan x="0" y="0">TECHADYANT LABS</tspan></text>
  </g>
</svg>