<?xml version="1.0" encoding="UTF-8"?>
<svg id="Layer_1" xmlns="http://www.w3.org/2000/svg" version="1.1" xmlns:xlink="http://www.w3.org/1999/xlink" viewBox="0 0 758.46 428.22">
  <!-- Generator: Adobe Illustrator 30.4.0, SVG Export Plug-In . SVG Version: 2.1.4 Build 226)  -->
  <defs>
    <style>
      .st0 {
        stroke: #0f1828;
      }

      .st0, .st1, .st2, .st3, .st4 {
        fill: none;
      }

      .st0, .st1, .st3 {
        stroke-linecap: square;
      }

      .st0, .st5, .st4 {
        stroke-width: .8px;
      }

      .st6 {
        clip-path: url(#clippath-6);
      }

      .st7 {
        clip-path: url(#clippath-7);
      }

      .st8 {
        clip-path: url(#clippath-15);
      }

      .st9 {
        clip-path: url(#clippath-4);
      }

      .st1, .st5, .st10, .st11, .st3, .st12, .st4 {
        stroke-linejoin: round;
      }

      .st1, .st10 {
        stroke: #2bc5b4;
      }

      .st1, .st3 {
        stroke-width: 2.5px;
      }

      .st13 {
        clip-path: url(#clippath-9);
      }

      .st14 {
        clip-path: url(#clippath-10);
      }

      .st15 {
        font-size: 11px;
      }

      .st15, .st16, .st17, .st18, .st19, .st20, .st21, .st22, .st23, .st24, .st25 {
        isolation: isolate;
      }

      .st15, .st17, .st19, .st20, .st22, .st24, .st25 {
        font-family: ArialMT, Arial;
      }

      .st15, .st20, .st22 {
        fill: #0f1828;
      }

      .st26 {
        fill: #fbf9f4;
      }

      .st27 {
        fill: #fff;
      }

      .st16, .st5, .st21, .st23, .st24 {
        fill: #4a5567;
      }

      .st16, .st17, .st18 {
        font-size: 8px;
      }

      .st16, .st18, .st21, .st23 {
        font-family: Arial-ItalicMT, Arial;
        font-style: italic;
      }

      .st5 {
        stroke: #4a5567;
      }

      .st28, .st12 {
        fill: #c8443b;
        fill-opacity: .15;
        stroke: #c8443b;
        stroke-opacity: .15;
      }

      .st29 {
        clip-path: url(#clippath-11);
      }

      .st17 {
        fill: #c0c5cc;
      }

      .st18, .st11, .st19 {
        fill: #c9a84c;
      }

      .st10, .st25 {
        fill: #2bc5b4;
      }

      .st11, .st3 {
        stroke: #c9a84c;
      }

      .st30 {
        clip-path: url(#clippath-1);
      }

      .st19, .st25 {
        font-size: 8.5px;
      }

      .st31 {
        clip-path: url(#clippath-5);
      }

      .st32 {
        clip-path: url(#clippath-8);
      }

      .st20 {
        font-size: 15px;
      }

      .st33 {
        clip-path: url(#clippath-3);
      }

      .st34 {
        clip-path: url(#clippath-12);
      }

      .st21 {
        font-size: 9px;
      }

      .st35 {
        clip-path: url(#clippath-14);
      }

      .st22, .st24 {
        font-size: 10px;
      }

      .st4 {
        stroke: #c0c5cc;
        stroke-dasharray: 2.96 1.28;
        stroke-opacity: .4;
      }

      .st36 {
        clip-path: url(#clippath-16);
      }

      .st37 {
        clip-path: url(#clippath-2);
      }

      .st38 {
        clip-path: url(#clippath-13);
      }

      .st23 {
        font-size: 10.5px;
      }

      .st39 {
        clip-path: url(#clippath);
      }
    </style>
    <clipPath id="clippath">
      <rect class="st2" x="54.3" y="60.8" width="696.96" height="315.36"/>
    </clipPath>
    <clipPath id="clippath-1">
      <rect class="st2" x="54.3" y="60.8" width="696.96" height="315.36"/>
    </clipPath>
    <clipPath id="clippath-2">
      <rect class="st2" x="54.3" y="60.8" width="696.96" height="315.36"/>
    </clipPath>
    <clipPath id="clippath-3">
      <rect class="st2" x="54.3" y="60.8" width="696.96" height="315.36"/>
    </clipPath>
    <clipPath id="clippath-4">
      <rect class="st2" x="54.3" y="60.8" width="696.96" height="315.36"/>
    </clipPath>
    <clipPath id="clippath-5">
      <rect class="st2" x="54.3" y="60.8" width="696.96" height="315.36"/>
    </clipPath>
    <clipPath id="clippath-6">
      <rect class="st2" x="54.3" y="60.8" width="696.96" height="315.36"/>
    </clipPath>
    <clipPath id="clippath-7">
      <rect class="st2" x="54.3" y="60.8" width="696.96" height="315.36"/>
    </clipPath>
    <clipPath id="clippath-8">
      <rect class="st2" x="54.3" y="60.8" width="696.96" height="315.36"/>
    </clipPath>
    <clipPath id="clippath-9">
      <rect class="st2" x="54.3" y="60.8" width="696.96" height="315.36"/>
    </clipPath>
    <clipPath id="clippath-10">
      <rect class="st2" x="54.3" y="60.8" width="696.96" height="315.36"/>
    </clipPath>
    <clipPath id="clippath-11">
      <rect class="st2" x="54.3" y="60.8" width="696.96" height="315.36"/>
    </clipPath>
    <clipPath id="clippath-12">
      <rect class="st2" x="54.3" y="60.8" width="696.96" height="315.36"/>
    </clipPath>
    <clipPath id="clippath-13">
      <rect class="st2" x="54.3" y="60.8" width="696.96" height="315.36"/>
    </clipPath>
    <clipPath id="clippath-14">
      <rect class="st2" x="54.3" y="60.8" width="696.96" height="315.36"/>
    </clipPath>
    <clipPath id="clippath-15">
      <rect class="st2" x="54.3" y="60.8" width="696.96" height="315.36"/>
    </clipPath>
    <clipPath id="clippath-16">
      <rect class="st2" x="54.3" y="60.8" width="696.96" height="315.36"/>
    </clipPath>
  </defs>
  <path class="st26" d="M0,428.22h758.46V0H0v428.22Z"/>
  <path class="st27" d="M54.3,376.16h696.96V60.8H54.3v315.36Z"/>
  <g class="st39">
    <path id="m1d578262d0" class="st12" d="M85.98,280.18v38.39l105.6-12.34,105.6-16.45,105.6-19.2,105.6-23.31,105.6-27.42,105.6-31.54v-93.24h0l-105.6,41.13-105.6,34.28-105.6,34.28-105.6,27.42-105.6,27.42-105.6,20.57Z"/>
  </g>
  <g class="st30">
    <path class="st4" d="M85.98,376.16V60.8"/>
  </g>
  <path id="m710e572554" class="st5" d="M85.98,376.16v3.5"/>
  <text class="st24" transform="translate(73.25 390.76)"><tspan x="0" y="0">2024</tspan></text>
  <g class="st37">
    <path class="st4" d="M191.58,376.16V60.8"/>
  </g>
  <path id="m710e5725541" data-name="m710e572554" class="st5" d="M191.58,376.16v3.5"/>
  <text class="st24" transform="translate(178.85 390.76)"><tspan x="0" y="0">2025</tspan></text>
  <g class="st33">
    <path class="st4" d="M297.18,376.16V60.8"/>
  </g>
  <path id="m710e5725542" data-name="m710e572554" class="st5" d="M297.18,376.16v3.5"/>
  <text class="st24" transform="translate(284.45 390.76)"><tspan x="0" y="0">2026</tspan></text>
  <g class="st9">
    <path class="st4" d="M402.78,376.16V60.8"/>
  </g>
  <path id="m710e5725543" data-name="m710e572554" class="st5" d="M402.78,376.16v3.5"/>
  <text class="st24" transform="translate(390.05 390.76)"><tspan x="0" y="0">2027</tspan></text>
  <g class="st31">
    <path class="st4" d="M508.38,376.16V60.8"/>
  </g>
  <path id="m710e5725544" data-name="m710e572554" class="st5" d="M508.38,376.16v3.5"/>
  <text class="st24" transform="translate(495.65 390.76)"><tspan x="0" y="0">2028</tspan></text>
  <g class="st6">
    <path class="st4" d="M613.98,376.16V60.8"/>
  </g>
  <path id="m710e5725545" data-name="m710e572554" class="st5" d="M613.98,376.16v3.5"/>
  <text class="st24" transform="translate(601.25 390.76)"><tspan x="0" y="0">2029</tspan></text>
  <g class="st7">
    <path class="st4" d="M719.58,376.16V60.8"/>
  </g>
  <path id="m710e5725546" data-name="m710e572554" class="st5" d="M719.58,376.16v3.5"/>
  <text class="st24" transform="translate(706.85 390.76)"><tspan x="0" y="0">2030</tspan></text>
  <text class="st15" transform="translate(391.13 405.2)"><tspan x="0" y="0">Year</tspan></text>
  <g class="st32">
    <path class="st4" d="M54.3,376.16h696.96"/>
  </g>
  <path id="mbaadeb7e2b" class="st5" d="M54.3,376.16h-3.5"/>
  <text class="st24" transform="translate(40.93 379.96)"><tspan x="0" y="0">0</tspan></text>
  <g class="st13">
    <path class="st4" d="M54.3,307.6h696.96"/>
  </g>
  <path id="mbaadeb7e2b1" data-name="mbaadeb7e2b" class="st5" d="M54.3,307.6h-3.5"/>
  <text class="st24" transform="translate(28.21 311.4)"><tspan x="0" y="0">500</tspan></text>
  <g class="st14">
    <path class="st4" d="M54.3,239.05h696.96"/>
  </g>
  <path id="mbaadeb7e2b2" data-name="mbaadeb7e2b" class="st5" d="M54.3,239.05h-3.5"/>
  <text class="st24" transform="translate(21.85 242.84)"><tspan x="0" y="0">1000</tspan></text>
  <g class="st29">
    <path class="st4" d="M54.3,170.49h696.96"/>
  </g>
  <path id="mbaadeb7e2b3" data-name="mbaadeb7e2b" class="st5" d="M54.3,170.49h-3.5"/>
  <text class="st24" transform="translate(21.85 174.29)"><tspan x="0" y="0">1500</tspan></text>
  <g class="st34">
    <path class="st4" d="M54.3,101.93h696.96"/>
  </g>
  <path id="mbaadeb7e2b4" data-name="mbaadeb7e2b" class="st5" d="M54.3,101.93h-3.5"/>
  <text class="st24" transform="translate(21.85 105.73)"><tspan x="0" y="0">2000</tspan></text>
  <text class="st15" transform="translate(15.56 308.96) rotate(-90)"><tspan x="0" y="0">AI-skilled headcount (thousands)</tspan></text>
  <g class="st38">
    <path class="st3" d="M85.98,280.18l105.6-20.57,105.6-27.42,105.6-27.42,105.6-34.28,105.6-34.28,105.6-41.13"/>
  </g>
  <g class="st35">
    <path id="mcdd7c1b2ff" class="st11" d="M85.98,283.18c.8,0,1.56-.32,2.12-.88.56-.56.88-1.33.88-2.12s-.32-1.56-.88-2.12c-.56-.56-1.33-.88-2.12-.88s-1.56.32-2.12.88c-.56.56-.88,1.33-.88,2.12s.32,1.56.88,2.12c.56.56,1.33.88,2.12.88Z"/>
    <path id="mcdd7c1b2ff1" data-name="mcdd7c1b2ff" class="st11" d="M191.58,262.61c.8,0,1.56-.32,2.12-.88.56-.56.88-1.33.88-2.12s-.32-1.56-.88-2.12c-.56-.56-1.33-.88-2.12-.88s-1.56.32-2.12.88c-.56.56-.88,1.33-.88,2.12s.32,1.56.88,2.12c.56.56,1.33.88,2.12.88Z"/>
    <path id="mcdd7c1b2ff2" data-name="mcdd7c1b2ff" class="st11" d="M297.18,235.19c.8,0,1.56-.32,2.12-.88.56-.56.88-1.33.88-2.12s-.32-1.56-.88-2.12c-.56-.56-1.33-.88-2.12-.88s-1.56.32-2.12.88c-.56.56-.88,1.33-.88,2.12s.32,1.56.88,2.12c.56.56,1.33.88,2.12.88Z"/>
    <path id="mcdd7c1b2ff3" data-name="mcdd7c1b2ff" class="st11" d="M402.78,207.77c.8,0,1.56-.32,2.12-.88.56-.56.88-1.33.88-2.12s-.32-1.56-.88-2.12c-.56-.56-1.33-.88-2.12-.88s-1.56.32-2.12.88c-.56.56-.88,1.33-.88,2.12s.32,1.56.88,2.12c.56.56,1.33.88,2.12.88Z"/>
    <path id="mcdd7c1b2ff4" data-name="mcdd7c1b2ff" class="st11" d="M508.38,173.49c.8,0,1.56-.32,2.12-.88.56-.56.88-1.33.88-2.12s-.32-1.56-.88-2.12c-.56-.56-1.33-.88-2.12-.88s-1.56.32-2.12.88c-.56.56-.88,1.33-.88,2.12s.32,1.56.88,2.12c.56.56,1.33.88,2.12.88Z"/>
    <path id="mcdd7c1b2ff5" data-name="mcdd7c1b2ff" class="st11" d="M613.98,139.21c.8,0,1.56-.32,2.12-.88.56-.56.88-1.33.88-2.12s-.32-1.56-.88-2.12c-.56-.56-1.33-.88-2.12-.88s-1.56.32-2.12.88c-.56.56-.88,1.33-.88,2.12s.32,1.56.88,2.12c.56.56,1.33.88,2.12.88Z"/>
    <path id="mcdd7c1b2ff6" data-name="mcdd7c1b2ff" class="st11" d="M719.58,98.08c.8,0,1.56-.32,2.12-.88.56-.56.88-1.33.88-2.12s-.32-1.56-.88-2.12c-.56-.56-1.33-.88-2.12-.88s-1.56.32-2.12.88c-.56.56-.88,1.33-.88,2.12s.32,1.56.88,2.12c.56.56,1.33.88,2.12.88Z"/>
  </g>
  <g class="st8">
    <path class="st1" d="M85.98,318.57l105.6-12.34,105.6-16.45,105.6-19.2,105.6-23.31,105.6-27.42,105.6-31.54"/>
  </g>
  <g class="st36">
    <path id="ma4a5c14cd1" class="st10" d="M85.98,321.57c.8,0,1.56-.32,2.12-.88.56-.56.88-1.33.88-2.12s-.32-1.56-.88-2.12c-.56-.56-1.33-.88-2.12-.88s-1.56.32-2.12.88c-.56.56-.88,1.33-.88,2.12s.32,1.56.88,2.12c.56.56,1.33.88,2.12.88Z"/>
    <path id="ma4a5c14cd11" data-name="ma4a5c14cd1" class="st10" d="M191.58,309.23c.8,0,1.56-.32,2.12-.88.56-.56.88-1.33.88-2.12s-.32-1.56-.88-2.12c-.56-.56-1.33-.88-2.12-.88s-1.56.32-2.12.88c-.56.56-.88,1.33-.88,2.12s.32,1.56.88,2.12c.56.56,1.33.88,2.12.88Z"/>
    <path id="ma4a5c14cd12" data-name="ma4a5c14cd1" class="st10" d="M297.18,292.78c.8,0,1.56-.32,2.12-.88.56-.56.88-1.33.88-2.12s-.32-1.56-.88-2.12c-.56-.56-1.33-.88-2.12-.88s-1.56.32-2.12.88c-.56.56-.88,1.33-.88,2.12s.32,1.56.88,2.12c.56.56,1.33.88,2.12.88Z"/>
    <path id="ma4a5c14cd13" data-name="ma4a5c14cd1" class="st10" d="M402.78,273.58c.8,0,1.56-.32,2.12-.88.56-.56.88-1.33.88-2.12s-.32-1.56-.88-2.12c-.56-.56-1.33-.88-2.12-.88s-1.56.32-2.12.88c-.56.56-.88,1.33-.88,2.12s.32,1.56.88,2.12c.56.56,1.33.88,2.12.88Z"/>
    <path id="ma4a5c14cd14" data-name="ma4a5c14cd1" class="st10" d="M508.38,250.27c.8,0,1.56-.32,2.12-.88.56-.56.88-1.33.88-2.12s-.32-1.56-.88-2.12c-.56-.56-1.33-.88-2.12-.88s-1.56.32-2.12.88c-.56.56-.88,1.33-.88,2.12s.32,1.56.88,2.12c.56.56,1.33.88,2.12.88Z"/>
    <path id="ma4a5c14cd15" data-name="ma4a5c14cd1" class="st10" d="M613.98,222.85c.8,0,1.56-.32,2.12-.88.56-.56.88-1.33.88-2.12s-.32-1.56-.88-2.12c-.56-.56-1.33-.88-2.12-.88s-1.56.32-2.12.88c-.56.56-.88,1.33-.88,2.12s.32,1.56.88,2.12c.56.56,1.33.88,2.12.88Z"/>
    <path id="ma4a5c14cd16" data-name="ma4a5c14cd1" class="st10" d="M719.58,191.31c.8,0,1.56-.32,2.12-.88.56-.56.88-1.33.88-2.12s-.32-1.56-.88-2.12c-.56-.56-1.33-.88-2.12-.88s-1.56.32-2.12.88c-.56.56-.88,1.33-.88,2.12s.32,1.56.88,2.12c.56.56,1.33.88,2.12.88Z"/>
  </g>
  <path class="st0" d="M54.3,376.16V60.8"/>
  <path class="st0" d="M54.3,376.16h696.96"/>
  <text class="st19" transform="translate(77.1 276.07)"><tspan x="0" y="0">700</tspan></text>
  <text class="st25" transform="translate(77.1 325.43)"><tspan x="0" y="0">420</tspan></text>
  <text class="st19" transform="translate(182.7 255.5)"><tspan x="0" y="0">850</tspan></text>
  <text class="st25" transform="translate(182.7 313.09)"><tspan x="0" y="0">510</tspan></text>
  <text class="st19" transform="translate(283.73 228.08)"><tspan x="0" y="0">1,050</tspan></text>
  <text class="st25" transform="translate(288.3 296.63)"><tspan x="0" y="0">630</tspan></text>
  <text class="st19" transform="translate(389.33 200.65)"><tspan x="0" y="0">1,250</tspan></text>
  <text class="st25" transform="translate(393.9 277.44)"><tspan x="0" y="0">770</tspan></text>
  <text class="st19" transform="translate(494.93 166.38)"><tspan x="0" y="0">1,500</tspan></text>
  <text class="st25" transform="translate(499.5 254.13)"><tspan x="0" y="0">940</tspan></text>
  <text class="st19" transform="translate(600.53 132.1)"><tspan x="0" y="0">1,750</tspan></text>
  <text class="st25" transform="translate(600.53 226.71)"><tspan x="0" y="0">1,140</tspan></text>
  <text class="st19" transform="translate(706.13 90.96)"><tspan x="0" y="0">2,050</tspan></text>
  <text class="st25" transform="translate(706.13 195.17)"><tspan x="0" y="0">1,370</tspan></text>
  <text class="st21" transform="translate(228.8 79.5)"><tspan x="0" y="0">Demand: NASSCOM-Deloitte 1.25M by 2027 baseline · CAGR ~15%</tspan></text>
  <text class="st21" transform="translate(227.2 91.26)"><tspan x="0" y="0">Supply: AICTE + IIT/IISc graduations + FutureSkills PRIME re-skilling + GCC internal training</tspan></text>
  <path class="st28" d="M63.3,77.4h20v-7h-20v7Z"/>
  <text class="st22" transform="translate(91.3 77.4)"><tspan x="0" y="0">Gap (demand minus supply)</tspan></text>
  <path class="st3" d="M63.3,88.58h20"/>
  <path id="mcdd7c1b2ff7" data-name="mcdd7c1b2ff" class="st11" d="M73.3,91.58c.8,0,1.56-.32,2.12-.88.56-.56.88-1.33.88-2.12s-.32-1.56-.88-2.12c-.56-.56-1.33-.88-2.12-.88s-1.56.32-2.12.88c-.56.56-.88,1.33-.88,2.12s.32,1.56.88,2.12c.56.56,1.33.88,2.12.88Z"/>
  <text class="st22" transform="translate(91.3 92.08)"><tspan x="0" y="0">AI talent demand (&apos;000)</tspan></text>
  <path class="st1" d="M63.3,103.25h20"/>
  <path id="ma4a5c14cd17" data-name="ma4a5c14cd1" class="st10" d="M73.3,106.25c.8,0,1.56-.32,2.12-.88.56-.56.88-1.33.88-2.12s-.32-1.56-.88-2.12c-.56-.56-1.33-.88-2.12-.88s-1.56.32-2.12.88c-.56.56-.88,1.33-.88,2.12s.32,1.56.88,2.12c.56.56,1.33.88,2.12.88Z"/>
  <text class="st22" transform="translate(91.3 106.75)"><tspan x="0" y="0">AI talent supply (&apos;000)</tspan></text>
  <text class="st20" transform="translate(38.46 24.68)"><tspan x="0" y="0">India AI talent — demand vs supply through 2030</tspan></text>
  <text class="st23" transform="translate(38.46 39.56)"><tspan x="0" y="0">Supply growth is on rough track for the application &amp; infrastructure layers; design layer remains tight</tspan></text>
  <text class="st17" transform="translate(595.76 13.28)"><tspan x="0" y="0">Figure 20 · Techadyant Labs · 2026</tspan></text>
  <text class="st16" transform="translate(38.46 419.36)"><tspan x="0" y="0">Source: NASSCOM-Deloitte 2024 baseline; NASSCOM-BCG 2024; PIB FutureSkills PRIME; Techadyant Labs trajectory.</tspan></text>
  <text class="st18" transform="translate(701.1 419.36)"><tspan x="0" y="0">Forecast</tspan></text>
</svg>