<?xml version="1.0" encoding="UTF-8"?>
<svg xmlns="http://www.w3.org/2000/svg" version="1.1" viewBox="0 0 711.36 495.9">
  <!-- Generator: Adobe Illustrator 30.4.0, SVG Export Plug-In . SVG Version: 2.1.4 Build 226)  -->
  <defs>
    <style>
      .st0, .st1, .st2, .st3 {
        fill: #e8e5dd;
      }

      .st0, .st1, .st3 {
        stroke-width: 1.5px;
      }

      .st0, .st4, .st5 {
        stroke: #c9a84c;
      }

      .st1, .st6, .st7, .st8 {
        stroke: #e4d3a6;
      }

      .st6, .st7 {
        fill: #e4d3a6;
      }

      .st2 {
        stroke: #e8e5dd;
      }

      .st2, .st7, .st4, .st9, .st8 {
        stroke-width: .4px;
      }

      .st10 {
        font-size: 11px;
      }

      .st10, .st11, .st12, .st13, .st14, .st15, .st16, .st17, .st18 {
        isolation: isolate;
      }

      .st10, .st12, .st13, .st14 {
        font-family: ArialMT, Arial;
      }

      .st10, .st13 {
        fill: #0f1828;
      }

      .st19 {
        fill: #fbf9f4;
      }

      .st20, .st8 {
        fill: #fff;
      }

      .st11, .st12 {
        font-size: 8px;
      }

      .st11, .st14, .st15, .st16, .st17, .st18 {
        fill: #4a5567;
      }

      .st11, .st15, .st16, .st17, .st18 {
        font-family: Arial-ItalicMT, Arial;
        font-style: italic;
      }

      .st21, .st9 {
        fill: #c8443b;
      }

      .st21, .st9, .st3 {
        stroke: #c8443b;
      }

      .st12 {
        fill: #c0c5cc;
      }

      .st22 {
        fill: none;
      }

      .st4, .st5 {
        fill: #c9a84c;
      }

      .st13 {
        font-size: 15px;
      }

      .st14 {
        font-size: 7.5px;
      }

      .st15 {
        font-size: 9px;
      }

      .st16 {
        font-size: 8.5px;
      }

      .st17 {
        font-size: 7px;
      }

      .st18 {
        font-size: 10.5px;
      }
    </style>
  </defs>
  <g id="Layer_2">
    <path class="st19" d="M0,494.41h711.36V-1.49H0v495.9Z"/>
  </g>
  <g id="Layer_1">
    <rect class="st20" x="60.26" y="84.25" width="613.8" height="363"/>
    <path class="st8" d="M581.99,412.2h24.55v-16.63h-24.55v16.63Z"/>
    <rect class="st22" x="60.26" y="98.96" width="613.8" height="388.08"/>
    <path class="st3" d="M78.68,164.93h398.97c1.64,0,2.46-.74,2.46-2.22v-49.9c0-1.48-.82-2.22-2.46-2.22H78.68c-1.64,0-2.46.74-2.46,2.22v49.9c0,1.48.82,2.22,2.46,2.22Z"/>
    <rect class="st22" x="60.26" y="98.96" width="613.8" height="388.08"/>
    <path class="st21" d="M78.68,162.72h9.21v-49.9h-9.21v49.9Z"/>
    <rect class="st22" x="60.26" y="98.96" width="613.8" height="388.08"/>
    <path class="st9" d="M489.92,146.08h24.55v-16.63h-24.55v16.63Z"/>
    <rect class="st22" x="60.26" y="98.96" width="613.8" height="388.08"/>
    <path class="st9" d="M520.61,146.08h24.55v-16.63h-24.55v16.63Z"/>
    <rect class="st22" x="60.26" y="98.96" width="613.8" height="388.08"/>
    <path class="st9" d="M551.3,146.08h24.55v-16.63h-24.55v16.63Z"/>
    <rect class="st22" x="60.26" y="98.96" width="613.8" height="388.08"/>
    <path class="st9" d="M581.99,146.08h24.55v-16.63h-24.55v16.63Z"/>
    <rect class="st22" x="60.26" y="98.96" width="613.8" height="388.08"/>
    <path class="st9" d="M612.68,146.08h24.55v-16.63h-24.55v16.63Z"/>
    <rect class="st22" x="60.26" y="98.96" width="613.8" height="388.08"/>
    <path class="st3" d="M78.68,231.46h398.97c1.64,0,2.46-.74,2.46-2.22v-49.9c0-1.48-.82-2.22-2.46-2.22H78.68c-1.64,0-2.46.74-2.46,2.22v49.9c0,1.48.82,2.22,2.46,2.22Z"/>
    <rect class="st22" x="60.26" y="98.96" width="613.8" height="388.08"/>
    <path class="st21" d="M78.68,229.24h9.21v-49.9h-9.21v49.9Z"/>
    <rect class="st22" x="60.26" y="98.96" width="613.8" height="388.08"/>
    <path class="st9" d="M489.92,212.61h24.55v-16.63h-24.55v16.63Z"/>
    <rect class="st22" x="60.26" y="98.96" width="613.8" height="388.08"/>
    <path class="st9" d="M520.61,212.61h24.55v-16.63h-24.55v16.63Z"/>
    <rect class="st22" x="60.26" y="98.96" width="613.8" height="388.08"/>
    <path class="st9" d="M551.3,212.61h24.55v-16.63h-24.55v16.63Z"/>
    <rect class="st22" x="60.26" y="98.96" width="613.8" height="388.08"/>
    <path class="st9" d="M581.99,212.61h24.55v-16.63h-24.55v16.63Z"/>
    <rect class="st22" x="60.26" y="98.96" width="613.8" height="388.08"/>
    <path class="st2" d="M612.68,212.61h24.55v-16.63h-24.55v16.63Z"/>
    <rect class="st22" x="60.26" y="98.96" width="613.8" height="388.08"/>
    <path class="st0" d="M78.68,297.99h398.97c1.64,0,2.46-.74,2.46-2.22v-49.9c0-1.48-.82-2.22-2.46-2.22H78.68c-1.64,0-2.46.74-2.46,2.22v49.9c0,1.48.82,2.22,2.46,2.22Z"/>
    <rect class="st22" x="60.26" y="98.96" width="613.8" height="388.08"/>
    <path class="st5" d="M78.68,295.77h9.21v-49.9h-9.21v49.9Z"/>
    <rect class="st22" x="60.26" y="98.96" width="613.8" height="388.08"/>
    <path class="st4" d="M489.92,279.14h24.55v-16.63h-24.55v16.63Z"/>
    <rect class="st22" x="60.26" y="98.96" width="613.8" height="388.08"/>
    <path class="st4" d="M520.61,279.14h24.55v-16.63h-24.55v16.63Z"/>
    <rect class="st22" x="60.26" y="98.96" width="613.8" height="388.08"/>
    <path class="st4" d="M551.3,279.14h24.55v-16.63h-24.55v16.63Z"/>
    <rect class="st22" x="60.26" y="98.96" width="613.8" height="388.08"/>
    <path class="st4" d="M581.99,279.14h24.55v-16.63h-24.55v16.63Z"/>
    <rect class="st22" x="60.26" y="98.96" width="613.8" height="388.08"/>
    <path class="st2" d="M612.68,279.14h24.55v-16.63h-24.55v16.63Z"/>
    <rect class="st22" x="60.26" y="98.96" width="613.8" height="388.08"/>
    <path class="st0" d="M78.68,364.52h398.97c1.64,0,2.46-.74,2.46-2.22v-49.9c0-1.48-.82-2.22-2.46-2.22H78.68c-1.64,0-2.46.74-2.46,2.22v49.9c0,1.48.82,2.22,2.46,2.22Z"/>
    <rect class="st22" x="60.26" y="98.96" width="613.8" height="388.08"/>
    <path class="st5" d="M78.68,362.3h9.21v-49.9h-9.21v49.9Z"/>
    <rect class="st22" x="60.26" y="98.96" width="613.8" height="388.08"/>
    <path class="st4" d="M489.92,345.67h24.55v-16.63h-24.55v16.63Z"/>
    <rect class="st22" x="60.26" y="98.96" width="613.8" height="388.08"/>
    <path class="st4" d="M520.61,345.67h24.55v-16.63h-24.55v16.63Z"/>
    <rect class="st22" x="60.26" y="98.96" width="613.8" height="388.08"/>
    <path class="st4" d="M551.3,345.67h24.55v-16.63h-24.55v16.63Z"/>
    <rect class="st22" x="60.26" y="98.96" width="613.8" height="388.08"/>
    <path class="st2" d="M581.99,345.67h24.55v-16.63h-24.55v16.63Z"/>
    <rect class="st22" x="60.26" y="98.96" width="613.8" height="388.08"/>
    <path class="st2" d="M612.68,345.67h24.55v-16.63h-24.55v16.63Z"/>
    <rect class="st22" x="60.26" y="98.96" width="613.8" height="388.08"/>
    <path class="st1" d="M78.68,431.05h398.97c1.64,0,2.46-.74,2.46-2.22v-49.9c0-1.48-.82-2.22-2.46-2.22H78.68c-1.64,0-2.46.74-2.46,2.22v49.9c0,1.48.82,2.22,2.46,2.22Z"/>
    <rect class="st22" x="60.26" y="98.96" width="613.8" height="388.08"/>
    <path class="st6" d="M78.68,428.83h9.21v-49.9h-9.21v49.9Z"/>
    <rect class="st22" x="60.26" y="98.96" width="613.8" height="388.08"/>
    <path class="st7" d="M489.92,412.2h24.55v-16.63h-24.55v16.63Z"/>
    <rect class="st22" x="60.26" y="98.96" width="613.8" height="388.08"/>
    <path class="st7" d="M520.61,412.2h24.55v-16.63h-24.55v16.63Z"/>
    <rect class="st22" x="60.26" y="98.96" width="613.8" height="378.29"/>
    <path class="st7" d="M551.3,412.2h24.55v-16.63h-24.55v16.63Z"/>
    <path class="st2" d="M612.68,412.2h24.55v-16.63h-24.55v16.63Z"/>
    <text class="st10" transform="translate(97.09 126.68)"><tspan x="0" y="0">#1 · Advanced packaging</tspan></text>
    <text class="st16" transform="translate(97.09 140.54)"><tspan x="0" y="0">CoWoS, HBM stacking — no India presence</tspan></text>
    <text class="st14" transform="translate(97.09 154.4)"><tspan x="0" y="0">Single most binding gap; 10–15 yr horizon to close</tspan></text>
    <text class="st17" transform="translate(548.91 159.94)"><tspan x="0" y="0">severity 5/5</tspan></text>
    <text class="st10" transform="translate(97.09 193.21)"><tspan x="0" y="0">#2 · Power-and-water at corridor level</tspan></text>
    <text class="st16" transform="translate(97.09 207.07)"><tspan x="0" y="0">Bengaluru/Hyderabad water; DISCOM transmission</tspan></text>
    <text class="st14" transform="translate(97.09 220.93)"><tspan x="0" y="0">Water in Bengaluru/Hyderabad most acute</tspan></text>
    <text class="st17" transform="translate(548.91 226.47)"><tspan x="0" y="0">severity 4/5</tspan></text>
    <text class="st10" transform="translate(97.09 259.73)"><tspan x="0" y="0">#3 · Local transmission &amp; DISCOM execution</tspan></text>
    <text class="st16" transform="translate(97.09 273.59)"><tspan x="0" y="0">Substation, feeder, interconnection queue</tspan></text>
    <text class="st14" transform="translate(97.09 287.45)"><tspan x="0" y="0">BESCOM, MSEDCL, TSDISCOM, TANGEDCO key actors</tspan></text>
    <text class="st17" transform="translate(548.91 293)"><tspan x="0" y="0">severity 4/5</tspan></text>
    <text class="st10" transform="translate(97.09 326.26)"><tspan x="0" y="0">#4 · Design &amp; governance talent</tspan></text>
    <text class="st16" transform="translate(97.09 340.12)"><tspan x="0" y="0">Chip designers, AI policy, safety, ethics</tspan></text>
    <text class="st14" transform="translate(97.09 353.98)"><tspan x="0" y="0">Governance layer most under-developed</tspan></text>
    <text class="st17" transform="translate(548.91 359.53)"><tspan x="0" y="0">severity 3/5</tspan></text>
    <text class="st10" transform="translate(97.09 392.79)"><tspan x="0" y="0">#5 · Geopolitical supply-chain risk</tspan></text>
    <text class="st16" transform="translate(97.09 406.65)"><tspan x="0" y="0">TSMC dependency, BIS rules, China inputs</tspan></text>
    <text class="st14" transform="translate(97.09 420.51)"><tspan x="0" y="0">Taiwan Strait scenario is severe-low-probability</tspan></text>
    <text class="st17" transform="translate(548.91 426.05)"><tspan x="0" y="0">severity 4/5</tspan></text>
    <text class="st15" transform="translate(489.92 107.27)"><tspan x="0" y="0">Severity</tspan></text>
    <text class="st15" transform="translate(78.67 107.27)"><tspan x="0" y="0">Bottleneck</tspan></text>
    <text class="st13" transform="translate(14.46 36.15)"><tspan x="0" y="0">AI Infrastructure Bottleneck Framework — five binding constraints</tspan></text>
    <text class="st18" transform="translate(21.49 62.74)"><tspan x="0" y="0">Severity reflects impact on the 2026–2030 base-case trajectory; rank-ordered</tspan></text>
    <text class="st12" transform="translate(564.51 13.28)"><tspan x="0" y="0">Figure 22 · Techadyant Labs · 2026</tspan></text>
    <text class="st11" transform="translate(7.2 487.04)"><tspan x="0" y="0">Source: Techadyant Labs framework integrating all primary research from Parts II–V.</tspan></text>
  </g>
</svg>