<?xml version="1.0" encoding="UTF-8"?>
<svg xmlns="http://www.w3.org/2000/svg" version="1.1" xmlns:xlink="http://www.w3.org/1999/xlink" viewBox="0 0 600 529.74">
  <!-- Generator: Adobe Illustrator 30.4.0, SVG Export Plug-In . SVG Version: 2.1.4 Build 226)  -->
  <defs>
    <style>
      .st0, .st1, .st2, .st3, .st4, .st5, .st6 {
        stroke-linecap: square;
      }

      .st0, .st7, .st8, .st2, .st3, .st4, .st5, .st6 {
        fill: none;
      }

      .st0, .st9 {
        stroke: #c9a84c;
      }

      .st0, .st8, .st2, .st3, .st4, .st5, .st6 {
        stroke-linejoin: round;
      }

      .st0, .st3, .st4, .st5, .st6 {
        stroke-opacity: .7;
        stroke-width: 1.4px;
      }

      .st10 {
        clip-path: url(#clippath-21);
      }

      .st11 {
        clip-path: url(#clippath-6);
      }

      .st12 {
        clip-path: url(#clippath-7);
      }

      .st13 {
        clip-path: url(#clippath-17);
      }

      .st14 {
        clip-path: url(#clippath-15);
      }

      .st15 {
        clip-path: url(#clippath-18);
      }

      .st16 {
        clip-path: url(#clippath-4);
      }

      .st17 {
        clip-path: url(#clippath-22);
      }

      .st18 {
        fill: #e4d3a6;
      }

      .st18, .st19, .st20, .st21, .st22, .st23, .st24, .st9, .st25, .st26, .st27, .st28, .st29, .st30 {
        isolation: isolate;
      }

      .st18, .st19, .st21, .st9, .st28 {
        opacity: .04;
      }

      .st18, .st4 {
        stroke: #e4d3a6;
      }

      .st1 {
        fill: #fff;
      }

      .st1, .st8 {
        stroke-width: .8px;
      }

      .st1, .st2, .st25 {
        stroke: #0f1828;
      }

      .st19 {
        fill: #2bc5b4;
      }

      .st19, .st6 {
        stroke: #2bc5b4;
      }

      .st31 {
        clip-path: url(#clippath-9);
      }

      .st32 {
        clip-path: url(#clippath-10);
      }

      .st33 {
        fill: #fbf9f4;
      }

      .st20, .st21, .st27, .st29, .st30 {
        fill: #4a5567;
      }

      .st20, .st22, .st24, .st27 {
        font-size: 8px;
      }

      .st20, .st24, .st29 {
        font-family: Arial-ItalicMT, Arial;
        font-style: italic;
      }

      .st21, .st5 {
        stroke: #4a5567;
      }

      .st34 {
        clip-path: url(#clippath-11);
      }

      .st22 {
        fill: #c0c5cc;
      }

      .st22, .st23, .st26, .st27, .st30 {
        font-family: ArialMT, Arial;
      }

      .st23 {
        font-size: 9px;
      }

      .st23, .st25, .st26 {
        fill: #0f1828;
      }

      .st24, .st9 {
        fill: #c9a84c;
      }

      .st35 {
        clip-path: url(#clippath-1);
      }

      .st8 {
        stroke: #c0c5cc;
        stroke-dasharray: 2.96 1.28;
        stroke-opacity: .5;
      }

      .st2 {
        stroke-width: 2px;
      }

      .st36 {
        clip-path: url(#clippath-5);
      }

      .st25 {
        opacity: .1;
      }

      .st37 {
        clip-path: url(#clippath-20);
      }

      .st38 {
        clip-path: url(#clippath-8);
      }

      .st26 {
        font-size: 15px;
      }

      .st39 {
        clip-path: url(#clippath-3);
      }

      .st40 {
        clip-path: url(#clippath-12);
      }

      .st41 {
        clip-path: url(#clippath-14);
      }

      .st3, .st28 {
        stroke: #c8443b;
      }

      .st42 {
        clip-path: url(#clippath-19);
      }

      .st43 {
        clip-path: url(#clippath-16);
      }

      .st44 {
        clip-path: url(#clippath-2);
      }

      .st28 {
        fill: #c8443b;
      }

      .st45 {
        clip-path: url(#clippath-13);
      }

      .st29 {
        font-size: 10.5px;
      }

      .st46 {
        clip-path: url(#clippath);
      }

      .st30 {
        font-size: 9.5px;
      }
    </style>
    <clipPath id="clippath">
      <path class="st7" d="M496.88,271.48c0-26.95-5.31-53.63-15.62-78.53-10.31-24.9-25.43-47.52-44.48-66.57s-41.68-34.17-66.57-44.48c-24.9-10.31-51.58-15.62-78.53-15.62s-53.63,5.31-78.53,15.62-47.52,25.43-66.57,44.48-34.17,41.68-44.48,66.57c-10.31,24.9-15.62,51.58-15.62,78.53s5.31,53.63,15.62,78.53c10.31,24.9,25.43,47.52,44.48,66.57s41.68,34.17,66.57,44.48c24.9,10.31,51.58,15.62,78.53,15.62s53.63-5.31,78.53-15.62c24.9-10.31,47.52-25.43,66.57-44.48s34.17-41.68,44.48-66.57c10.31-24.9,15.62-51.58,15.62-78.53M291.68,271.48h0Z"/>
    </clipPath>
    <clipPath id="clippath-1">
      <path class="st7" d="M496.88,271.48c0-26.95-5.31-53.63-15.62-78.53-10.31-24.9-25.43-47.52-44.48-66.57s-41.68-34.17-66.57-44.48c-24.9-10.31-51.58-15.62-78.53-15.62s-53.63,5.31-78.53,15.62-47.52,25.43-66.57,44.48-34.17,41.68-44.48,66.57c-10.31,24.9-15.62,51.58-15.62,78.53s5.31,53.63,15.62,78.53c10.31,24.9,25.43,47.52,44.48,66.57s41.68,34.17,66.57,44.48c24.9,10.31,51.58,15.62,78.53,15.62s53.63-5.31,78.53-15.62c24.9-10.31,47.52-25.43,66.57-44.48s34.17-41.68,44.48-66.57c10.31-24.9,15.62-51.58,15.62-78.53M291.68,271.48h0Z"/>
    </clipPath>
    <clipPath id="clippath-2">
      <path class="st7" d="M496.88,271.48c0-26.95-5.31-53.63-15.62-78.53-10.31-24.9-25.43-47.52-44.48-66.57s-41.68-34.17-66.57-44.48c-24.9-10.31-51.58-15.62-78.53-15.62s-53.63,5.31-78.53,15.62-47.52,25.43-66.57,44.48-34.17,41.68-44.48,66.57c-10.31,24.9-15.62,51.58-15.62,78.53s5.31,53.63,15.62,78.53c10.31,24.9,25.43,47.52,44.48,66.57s41.68,34.17,66.57,44.48c24.9,10.31,51.58,15.62,78.53,15.62s53.63-5.31,78.53-15.62c24.9-10.31,47.52-25.43,66.57-44.48s34.17-41.68,44.48-66.57c10.31-24.9,15.62-51.58,15.62-78.53M291.68,271.48h0Z"/>
    </clipPath>
    <clipPath id="clippath-3">
      <path class="st7" d="M496.88,271.48c0-26.95-5.31-53.63-15.62-78.53-10.31-24.9-25.43-47.52-44.48-66.57s-41.68-34.17-66.57-44.48c-24.9-10.31-51.58-15.62-78.53-15.62s-53.63,5.31-78.53,15.62-47.52,25.43-66.57,44.48-34.17,41.68-44.48,66.57c-10.31,24.9-15.62,51.58-15.62,78.53s5.31,53.63,15.62,78.53c10.31,24.9,25.43,47.52,44.48,66.57s41.68,34.17,66.57,44.48c24.9,10.31,51.58,15.62,78.53,15.62s53.63-5.31,78.53-15.62c24.9-10.31,47.52-25.43,66.57-44.48s34.17-41.68,44.48-66.57c10.31-24.9,15.62-51.58,15.62-78.53M291.68,271.48h0Z"/>
    </clipPath>
    <clipPath id="clippath-4">
      <path class="st7" d="M496.88,271.48c0-26.95-5.31-53.63-15.62-78.53-10.31-24.9-25.43-47.52-44.48-66.57s-41.68-34.17-66.57-44.48c-24.9-10.31-51.58-15.62-78.53-15.62s-53.63,5.31-78.53,15.62-47.52,25.43-66.57,44.48-34.17,41.68-44.48,66.57c-10.31,24.9-15.62,51.58-15.62,78.53s5.31,53.63,15.62,78.53c10.31,24.9,25.43,47.52,44.48,66.57s41.68,34.17,66.57,44.48c24.9,10.31,51.58,15.62,78.53,15.62s53.63-5.31,78.53-15.62c24.9-10.31,47.52-25.43,66.57-44.48s34.17-41.68,44.48-66.57c10.31-24.9,15.62-51.58,15.62-78.53M291.68,271.48h0Z"/>
    </clipPath>
    <clipPath id="clippath-5">
      <path class="st7" d="M496.88,271.48c0-26.95-5.31-53.63-15.62-78.53-10.31-24.9-25.43-47.52-44.48-66.57s-41.68-34.17-66.57-44.48c-24.9-10.31-51.58-15.62-78.53-15.62s-53.63,5.31-78.53,15.62-47.52,25.43-66.57,44.48-34.17,41.68-44.48,66.57c-10.31,24.9-15.62,51.58-15.62,78.53s5.31,53.63,15.62,78.53c10.31,24.9,25.43,47.52,44.48,66.57s41.68,34.17,66.57,44.48c24.9,10.31,51.58,15.62,78.53,15.62s53.63-5.31,78.53-15.62c24.9-10.31,47.52-25.43,66.57-44.48s34.17-41.68,44.48-66.57c10.31-24.9,15.62-51.58,15.62-78.53M291.68,271.48h0Z"/>
    </clipPath>
    <clipPath id="clippath-6">
      <path class="st7" d="M496.88,271.48c0-26.95-5.31-53.63-15.62-78.53-10.31-24.9-25.43-47.52-44.48-66.57s-41.68-34.17-66.57-44.48c-24.9-10.31-51.58-15.62-78.53-15.62s-53.63,5.31-78.53,15.62-47.52,25.43-66.57,44.48-34.17,41.68-44.48,66.57c-10.31,24.9-15.62,51.58-15.62,78.53s5.31,53.63,15.62,78.53c10.31,24.9,25.43,47.52,44.48,66.57s41.68,34.17,66.57,44.48c24.9,10.31,51.58,15.62,78.53,15.62s53.63-5.31,78.53-15.62c24.9-10.31,47.52-25.43,66.57-44.48s34.17-41.68,44.48-66.57c10.31-24.9,15.62-51.58,15.62-78.53M291.68,271.48h0Z"/>
    </clipPath>
    <clipPath id="clippath-7">
      <path class="st7" d="M496.88,271.48c0-26.95-5.31-53.63-15.62-78.53-10.31-24.9-25.43-47.52-44.48-66.57s-41.68-34.17-66.57-44.48c-24.9-10.31-51.58-15.62-78.53-15.62s-53.63,5.31-78.53,15.62-47.52,25.43-66.57,44.48-34.17,41.68-44.48,66.57c-10.31,24.9-15.62,51.58-15.62,78.53s5.31,53.63,15.62,78.53c10.31,24.9,25.43,47.52,44.48,66.57s41.68,34.17,66.57,44.48c24.9,10.31,51.58,15.62,78.53,15.62s53.63-5.31,78.53-15.62c24.9-10.31,47.52-25.43,66.57-44.48s34.17-41.68,44.48-66.57c10.31-24.9,15.62-51.58,15.62-78.53M291.68,271.48h0Z"/>
    </clipPath>
    <clipPath id="clippath-8">
      <path class="st7" d="M496.88,271.48c0-26.95-5.31-53.63-15.62-78.53-10.31-24.9-25.43-47.52-44.48-66.57s-41.68-34.17-66.57-44.48c-24.9-10.31-51.58-15.62-78.53-15.62s-53.63,5.31-78.53,15.62-47.52,25.43-66.57,44.48-34.17,41.68-44.48,66.57c-10.31,24.9-15.62,51.58-15.62,78.53s5.31,53.63,15.62,78.53c10.31,24.9,25.43,47.52,44.48,66.57s41.68,34.17,66.57,44.48c24.9,10.31,51.58,15.62,78.53,15.62s53.63-5.31,78.53-15.62c24.9-10.31,47.52-25.43,66.57-44.48s34.17-41.68,44.48-66.57c10.31-24.9,15.62-51.58,15.62-78.53M291.68,271.48h0Z"/>
    </clipPath>
    <clipPath id="clippath-9">
      <path class="st7" d="M496.88,271.48c0-26.95-5.31-53.63-15.62-78.53-10.31-24.9-25.43-47.52-44.48-66.57s-41.68-34.17-66.57-44.48c-24.9-10.31-51.58-15.62-78.53-15.62s-53.63,5.31-78.53,15.62-47.52,25.43-66.57,44.48-34.17,41.68-44.48,66.57c-10.31,24.9-15.62,51.58-15.62,78.53s5.31,53.63,15.62,78.53c10.31,24.9,25.43,47.52,44.48,66.57s41.68,34.17,66.57,44.48c24.9,10.31,51.58,15.62,78.53,15.62s53.63-5.31,78.53-15.62c24.9-10.31,47.52-25.43,66.57-44.48s34.17-41.68,44.48-66.57c10.31-24.9,15.62-51.58,15.62-78.53M291.68,271.48h0Z"/>
    </clipPath>
    <clipPath id="clippath-10">
      <path class="st7" d="M496.88,271.48c0-26.95-5.31-53.63-15.62-78.53-10.31-24.9-25.43-47.52-44.48-66.57s-41.68-34.17-66.57-44.48c-24.9-10.31-51.58-15.62-78.53-15.62s-53.63,5.31-78.53,15.62-47.52,25.43-66.57,44.48-34.17,41.68-44.48,66.57c-10.31,24.9-15.62,51.58-15.62,78.53s5.31,53.63,15.62,78.53c10.31,24.9,25.43,47.52,44.48,66.57s41.68,34.17,66.57,44.48c24.9,10.31,51.58,15.62,78.53,15.62s53.63-5.31,78.53-15.62c24.9-10.31,47.52-25.43,66.57-44.48s34.17-41.68,44.48-66.57c10.31-24.9,15.62-51.58,15.62-78.53M291.68,271.48h0Z"/>
    </clipPath>
    <clipPath id="clippath-11">
      <path class="st7" d="M496.88,271.48c0-26.95-5.31-53.63-15.62-78.53-10.31-24.9-25.43-47.52-44.48-66.57s-41.68-34.17-66.57-44.48c-24.9-10.31-51.58-15.62-78.53-15.62s-53.63,5.31-78.53,15.62-47.52,25.43-66.57,44.48-34.17,41.68-44.48,66.57c-10.31,24.9-15.62,51.58-15.62,78.53s5.31,53.63,15.62,78.53c10.31,24.9,25.43,47.52,44.48,66.57s41.68,34.17,66.57,44.48c24.9,10.31,51.58,15.62,78.53,15.62s53.63-5.31,78.53-15.62c24.9-10.31,47.52-25.43,66.57-44.48s34.17-41.68,44.48-66.57c10.31-24.9,15.62-51.58,15.62-78.53M291.68,271.48h0Z"/>
    </clipPath>
    <clipPath id="clippath-12">
      <path class="st7" d="M496.88,271.48c0-26.95-5.31-53.63-15.62-78.53-10.31-24.9-25.43-47.52-44.48-66.57s-41.68-34.17-66.57-44.48c-24.9-10.31-51.58-15.62-78.53-15.62s-53.63,5.31-78.53,15.62-47.52,25.43-66.57,44.48-34.17,41.68-44.48,66.57c-10.31,24.9-15.62,51.58-15.62,78.53s5.31,53.63,15.62,78.53c10.31,24.9,25.43,47.52,44.48,66.57s41.68,34.17,66.57,44.48c24.9,10.31,51.58,15.62,78.53,15.62s53.63-5.31,78.53-15.62c24.9-10.31,47.52-25.43,66.57-44.48s34.17-41.68,44.48-66.57c10.31-24.9,15.62-51.58,15.62-78.53M291.68,271.48h0Z"/>
    </clipPath>
    <clipPath id="clippath-13">
      <path class="st7" d="M496.88,271.48c0-26.95-5.31-53.63-15.62-78.53-10.31-24.9-25.43-47.52-44.48-66.57s-41.68-34.17-66.57-44.48c-24.9-10.31-51.58-15.62-78.53-15.62s-53.63,5.31-78.53,15.62-47.52,25.43-66.57,44.48-34.17,41.68-44.48,66.57c-10.31,24.9-15.62,51.58-15.62,78.53s5.31,53.63,15.62,78.53c10.31,24.9,25.43,47.52,44.48,66.57s41.68,34.17,66.57,44.48c24.9,10.31,51.58,15.62,78.53,15.62s53.63-5.31,78.53-15.62c24.9-10.31,47.52-25.43,66.57-44.48s34.17-41.68,44.48-66.57c10.31-24.9,15.62-51.58,15.62-78.53M291.68,271.48h0Z"/>
    </clipPath>
    <clipPath id="clippath-14">
      <path class="st7" d="M496.88,271.48c0-26.95-5.31-53.63-15.62-78.53-10.31-24.9-25.43-47.52-44.48-66.57s-41.68-34.17-66.57-44.48c-24.9-10.31-51.58-15.62-78.53-15.62s-53.63,5.31-78.53,15.62-47.52,25.43-66.57,44.48-34.17,41.68-44.48,66.57c-10.31,24.9-15.62,51.58-15.62,78.53s5.31,53.63,15.62,78.53c10.31,24.9,25.43,47.52,44.48,66.57s41.68,34.17,66.57,44.48c24.9,10.31,51.58,15.62,78.53,15.62s53.63-5.31,78.53-15.62c24.9-10.31,47.52-25.43,66.57-44.48s34.17-41.68,44.48-66.57c10.31-24.9,15.62-51.58,15.62-78.53M291.68,271.48h0Z"/>
    </clipPath>
    <clipPath id="clippath-15">
      <path class="st7" d="M496.88,271.48c0-26.95-5.31-53.63-15.62-78.53-10.31-24.9-25.43-47.52-44.48-66.57s-41.68-34.17-66.57-44.48c-24.9-10.31-51.58-15.62-78.53-15.62s-53.63,5.31-78.53,15.62-47.52,25.43-66.57,44.48-34.17,41.68-44.48,66.57c-10.31,24.9-15.62,51.58-15.62,78.53s5.31,53.63,15.62,78.53c10.31,24.9,25.43,47.52,44.48,66.57s41.68,34.17,66.57,44.48c24.9,10.31,51.58,15.62,78.53,15.62s53.63-5.31,78.53-15.62c24.9-10.31,47.52-25.43,66.57-44.48s34.17-41.68,44.48-66.57c10.31-24.9,15.62-51.58,15.62-78.53M291.68,271.48h0Z"/>
    </clipPath>
    <clipPath id="clippath-16">
      <path class="st7" d="M496.88,271.48c0-26.95-5.31-53.63-15.62-78.53-10.31-24.9-25.43-47.52-44.48-66.57s-41.68-34.17-66.57-44.48c-24.9-10.31-51.58-15.62-78.53-15.62s-53.63,5.31-78.53,15.62-47.52,25.43-66.57,44.48-34.17,41.68-44.48,66.57c-10.31,24.9-15.62,51.58-15.62,78.53s5.31,53.63,15.62,78.53c10.31,24.9,25.43,47.52,44.48,66.57s41.68,34.17,66.57,44.48c24.9,10.31,51.58,15.62,78.53,15.62s53.63-5.31,78.53-15.62c24.9-10.31,47.52-25.43,66.57-44.48s34.17-41.68,44.48-66.57c10.31-24.9,15.62-51.58,15.62-78.53M291.68,271.48h0Z"/>
    </clipPath>
    <clipPath id="clippath-17">
      <path class="st7" d="M496.88,271.48c0-26.95-5.31-53.63-15.62-78.53-10.31-24.9-25.43-47.52-44.48-66.57s-41.68-34.17-66.57-44.48c-24.9-10.31-51.58-15.62-78.53-15.62s-53.63,5.31-78.53,15.62-47.52,25.43-66.57,44.48-34.17,41.68-44.48,66.57c-10.31,24.9-15.62,51.58-15.62,78.53s5.31,53.63,15.62,78.53c10.31,24.9,25.43,47.52,44.48,66.57s41.68,34.17,66.57,44.48c24.9,10.31,51.58,15.62,78.53,15.62s53.63-5.31,78.53-15.62c24.9-10.31,47.52-25.43,66.57-44.48s34.17-41.68,44.48-66.57c10.31-24.9,15.62-51.58,15.62-78.53M291.68,271.48h0Z"/>
    </clipPath>
    <clipPath id="clippath-18">
      <path class="st7" d="M496.88,271.48c0-26.95-5.31-53.63-15.62-78.53-10.31-24.9-25.43-47.52-44.48-66.57s-41.68-34.17-66.57-44.48c-24.9-10.31-51.58-15.62-78.53-15.62s-53.63,5.31-78.53,15.62-47.52,25.43-66.57,44.48-34.17,41.68-44.48,66.57c-10.31,24.9-15.62,51.58-15.62,78.53s5.31,53.63,15.62,78.53c10.31,24.9,25.43,47.52,44.48,66.57s41.68,34.17,66.57,44.48c24.9,10.31,51.58,15.62,78.53,15.62s53.63-5.31,78.53-15.62c24.9-10.31,47.52-25.43,66.57-44.48s34.17-41.68,44.48-66.57c10.31-24.9,15.62-51.58,15.62-78.53M291.68,271.48h0Z"/>
    </clipPath>
    <clipPath id="clippath-19">
      <path class="st7" d="M496.88,271.48c0-26.95-5.31-53.63-15.62-78.53-10.31-24.9-25.43-47.52-44.48-66.57s-41.68-34.17-66.57-44.48c-24.9-10.31-51.58-15.62-78.53-15.62s-53.63,5.31-78.53,15.62-47.52,25.43-66.57,44.48-34.17,41.68-44.48,66.57c-10.31,24.9-15.62,51.58-15.62,78.53s5.31,53.63,15.62,78.53c10.31,24.9,25.43,47.52,44.48,66.57s41.68,34.17,66.57,44.48c24.9,10.31,51.58,15.62,78.53,15.62s53.63-5.31,78.53-15.62c24.9-10.31,47.52-25.43,66.57-44.48s34.17-41.68,44.48-66.57c10.31-24.9,15.62-51.58,15.62-78.53M291.68,271.48h0Z"/>
    </clipPath>
    <clipPath id="clippath-20">
      <path class="st7" d="M496.88,271.48c0-26.95-5.31-53.63-15.62-78.53-10.31-24.9-25.43-47.52-44.48-66.57s-41.68-34.17-66.57-44.48c-24.9-10.31-51.58-15.62-78.53-15.62s-53.63,5.31-78.53,15.62-47.52,25.43-66.57,44.48-34.17,41.68-44.48,66.57c-10.31,24.9-15.62,51.58-15.62,78.53s5.31,53.63,15.62,78.53c10.31,24.9,25.43,47.52,44.48,66.57s41.68,34.17,66.57,44.48c24.9,10.31,51.58,15.62,78.53,15.62s53.63-5.31,78.53-15.62c24.9-10.31,47.52-25.43,66.57-44.48s34.17-41.68,44.48-66.57c10.31-24.9,15.62-51.58,15.62-78.53M291.68,271.48h0Z"/>
    </clipPath>
    <clipPath id="clippath-21">
      <path class="st7" d="M496.88,271.48c0-26.95-5.31-53.63-15.62-78.53-10.31-24.9-25.43-47.52-44.48-66.57s-41.68-34.17-66.57-44.48c-24.9-10.31-51.58-15.62-78.53-15.62s-53.63,5.31-78.53,15.62-47.52,25.43-66.57,44.48-34.17,41.68-44.48,66.57c-10.31,24.9-15.62,51.58-15.62,78.53s5.31,53.63,15.62,78.53c10.31,24.9,25.43,47.52,44.48,66.57s41.68,34.17,66.57,44.48c24.9,10.31,51.58,15.62,78.53,15.62s53.63-5.31,78.53-15.62c24.9-10.31,47.52-25.43,66.57-44.48s34.17-41.68,44.48-66.57c10.31-24.9,15.62-51.58,15.62-78.53M291.68,271.48h0Z"/>
    </clipPath>
    <clipPath id="clippath-22">
      <path class="st7" d="M496.88,271.48c0-26.95-5.31-53.63-15.62-78.53-10.31-24.9-25.43-47.52-44.48-66.57s-41.68-34.17-66.57-44.48c-24.9-10.31-51.58-15.62-78.53-15.62s-53.63,5.31-78.53,15.62-47.52,25.43-66.57,44.48-34.17,41.68-44.48,66.57c-10.31,24.9-15.62,51.58-15.62,78.53s5.31,53.63,15.62,78.53c10.31,24.9,25.43,47.52,44.48,66.57s41.68,34.17,66.57,44.48c24.9,10.31,51.58,15.62,78.53,15.62s53.63-5.31,78.53-15.62c24.9-10.31,47.52-25.43,66.57-44.48s34.17-41.68,44.48-66.57c10.31-24.9,15.62-51.58,15.62-78.53M291.68,271.48h0Z"/>
    </clipPath>
  </defs>
  <g id="Layer_2">
    <path class="st33" d="M0,529.74h600V0H0v529.74Z"/>
  </g>
  <g id="Layer_1">
    <path class="st1" d="M496.88,271.48c0-26.95-5.31-53.63-15.62-78.53-10.31-24.9-25.43-47.52-44.48-66.57-19.05-19.05-41.68-34.17-66.57-44.48-24.9-10.31-51.58-15.62-78.53-15.62s-53.63,5.31-78.53,15.62c-24.9,10.31-47.52,25.43-66.57,44.48-19.05,19.05-34.17,41.68-44.48,66.57-10.31,24.9-15.62,51.58-15.62,78.53s5.31,53.63,15.62,78.53c10.31,24.9,25.43,47.52,44.48,66.57s41.68,34.17,66.57,44.48c24.9,10.31,51.58,15.62,78.53,15.62s53.63-5.31,78.53-15.62c24.9-10.31,47.52-25.43,66.57-44.48s34.17-41.68,44.48-66.57c10.31-24.9,15.62-51.58,15.62-78.53"/>
    <g class="st46">
      <path class="st25" d="M435.32,271.48l-102.6-71.08-112.86-53.31-10.26,124.4-20.52,177.71,143.64-106.63,102.6-71.08Z"/>
    </g>
    <g class="st35">
      <path class="st9" d="M373.76,271.48l20.52-177.71-164.16,71.08-41.04,106.63,41.04,106.63,153.9,53.31-10.26-159.94Z"/>
    </g>
    <g class="st44">
      <path class="st19" d="M435.32,271.48l-41.04-177.71-164.16,71.08-123.12,106.63,112.86,124.4,164.16,35.54,51.3-159.94Z"/>
    </g>
    <g class="st39">
      <path class="st21" d="M414.8,271.48l-61.56-106.63-112.86,17.77-133.38,88.85,133.38,88.85,153.9,88.85,20.52-177.71Z"/>
    </g>
    <g class="st16">
      <path class="st18" d="M414.8,271.48l-51.3-124.4h-143.64l-51.3,124.4,71.82,88.85,123.12,35.54,51.3-124.4Z"/>
    </g>
    <g class="st36">
      <path class="st28" d="M435.32,271.48l-102.6-71.08-133.38-88.85-112.86,159.94,164.16,71.08,133.38,88.85,51.3-159.94Z"/>
    </g>
    <g class="st11">
      <path class="st8" d="M291.68,271.48h205.2"/>
    </g>
    <text class="st30" transform="translate(482.65 268.78)"><tspan x="0" y="0">Data-centre</tspan></text>
    <text class="st30" transform="translate(490.83 279.42)"><tspan x="0" y="0">capacity</tspan></text>
    <g class="st12">
      <path class="st8" d="M291.68,271.48l102.6-177.71"/>
    </g>
    <text class="st30" transform="translate(365.51 78.95)"><tspan x="0" y="0">Semiconductor</tspan></text>
    <text class="st30" transform="translate(375.67 89.59)"><tspan x="0" y="0">ecosystem</tspan></text>
    <g class="st38">
      <path class="st8" d="M291.68,271.48l-102.6-177.71"/>
    </g>
    <text class="st30" transform="translate(160.24 78.95)"><tspan x="0" y="0">Energy &amp;</tspan></text>
    <text class="st30" transform="translate(153.63 89.59)"><tspan x="0" y="0">cooling cost</tspan></text>
    <g class="st31">
      <path class="st8" d="M291.68,271.48H86.48"/>
    </g>
    <text class="st30" transform="translate(42.55 268.78)"><tspan x="0" y="0">Sovereign AI</tspan></text>
    <text class="st30" transform="translate(42.1 279.42)"><tspan x="0" y="0">commitment</tspan></text>
    <g class="st32">
      <path class="st8" d="M291.68,271.48l-102.6,177.71"/>
    </g>
    <text class="st30" transform="translate(158.09 458.61)"><tspan x="0" y="0">Workforce</tspan></text>
    <text class="st30" transform="translate(149.29 469.25)"><tspan x="0" y="0">scale &amp; depth</tspan></text>
    <g class="st34">
      <path class="st8" d="M291.68,271.48l102.6,177.71"/>
    </g>
    <text class="st30" transform="translate(377.67 458.61)"><tspan x="0" y="0">Per-capita</tspan></text>
    <text class="st30" transform="translate(380.69 469.25)"><tspan x="0" y="0">intensity</tspan></text>
    <g class="st40">
      <path class="st8" d="M332.72,271.48c0-5.39-1.06-10.73-3.12-15.71-2.06-4.98-5.09-9.5-8.9-13.31-3.81-3.81-8.34-6.83-13.31-8.9-4.98-2.06-10.32-3.12-15.71-3.12s-10.73,1.06-15.71,3.12c-4.98,2.06-9.5,5.09-13.31,8.9-3.81,3.81-6.83,8.34-8.9,13.31-2.06,4.98-3.12,10.32-3.12,15.71s1.06,10.73,3.12,15.71,5.09,9.5,8.9,13.31,8.34,6.83,13.31,8.9c4.98,2.06,10.32,3.12,15.71,3.12s10.73-1.06,15.71-3.12c4.98-2.06,9.5-5.09,13.31-8.9s6.83-8.34,8.9-13.31c2.06-4.98,3.12-10.32,3.12-15.71"/>
    </g>
    <text class="st27" transform="translate(329.6 254.11)"><tspan x="0" y="0">2</tspan></text>
    <g class="st45">
      <path class="st8" d="M373.76,271.48c0-10.78-2.12-21.45-6.25-31.41-4.12-9.96-10.17-19.01-17.79-26.63s-16.67-13.67-26.63-17.79c-9.96-4.12-20.63-6.25-31.41-6.25s-21.45,2.12-31.41,6.25c-9.96,4.12-19.01,10.17-26.63,17.79s-13.67,16.67-17.79,26.63c-4.12,9.96-6.25,20.63-6.25,31.41s2.12,21.45,6.25,31.41c4.12,9.96,10.17,19.01,17.79,26.63,7.62,7.62,16.67,13.67,26.63,17.79,9.96,4.12,20.63,6.25,31.41,6.25s21.45-2.12,31.41-6.25c9.96-4.12,19.01-10.17,26.63-17.79,7.62-7.62,13.67-16.67,17.79-26.63,4.12-9.96,6.25-20.63,6.25-31.41"/>
    </g>
    <text class="st27" transform="translate(367.51 238.4)"><tspan x="0" y="0">4</tspan></text>
    <g class="st41">
      <path class="st8" d="M414.8,271.48c0-16.17-3.18-32.18-9.37-47.12-6.19-14.94-15.26-28.51-26.69-39.94-11.43-11.43-25.01-20.5-39.94-26.69-14.94-6.19-30.95-9.37-47.12-9.37s-32.18,3.18-47.12,9.37c-14.94,6.19-28.51,15.26-39.94,26.69s-20.5,25.01-26.69,39.94-9.37,30.95-9.37,47.12,3.18,32.18,9.37,47.12,15.26,28.51,26.69,39.94c11.43,11.43,25.01,20.5,39.94,26.69,14.94,6.19,30.95,9.37,47.12,9.37s32.18-3.18,47.12-9.37c14.94-6.19,28.51-15.26,39.94-26.69s20.5-25.01,26.69-39.94c6.19-14.94,9.37-30.95,9.37-47.12"/>
    </g>
    <text class="st27" transform="translate(405.43 222.7)"><tspan x="0" y="0">6</tspan></text>
    <g class="st14">
      <path class="st8" d="M455.84,271.48c0-21.56-4.25-42.9-12.5-62.82-8.25-19.92-20.34-38.01-35.59-53.26-15.24-15.24-33.34-27.34-53.26-35.59-19.92-8.25-41.26-12.5-62.82-12.5s-42.9,4.25-62.82,12.5c-19.92,8.25-38.01,20.34-53.26,35.59-15.24,15.24-27.34,33.34-35.59,53.26-8.25,19.92-12.5,41.26-12.5,62.82s4.25,42.9,12.5,62.82c8.25,19.92,20.34,38.01,35.59,53.26,15.24,15.24,33.34,27.34,53.26,35.59,19.92,8.25,41.26,12.5,62.82,12.5s42.9-4.25,62.82-12.5c19.92-8.25,38.01-20.34,53.26-35.59,15.24-15.24,27.34-33.34,35.59-53.26,8.25-19.92,12.5-41.26,12.5-62.82"/>
    </g>
    <text class="st27" transform="translate(443.34 206.99)"><tspan x="0" y="0">8</tspan></text>
    <g class="st43">
      <path class="st8" d="M496.88,271.48c0-26.95-5.31-53.63-15.62-78.53-10.31-24.9-25.43-47.52-44.48-66.57-19.05-19.05-41.68-34.17-66.57-44.48-24.9-10.31-51.58-15.62-78.53-15.62s-53.63,5.31-78.53,15.62c-24.9,10.31-47.52,25.43-66.57,44.48-19.05,19.05-34.17,41.68-44.48,66.57-10.31,24.9-15.62,51.58-15.62,78.53s5.31,53.63,15.62,78.53c10.31,24.9,25.43,47.52,44.48,66.57s41.68,34.17,66.57,44.48c24.9,10.31,51.58,15.62,78.53,15.62s53.63-5.31,78.53-15.62c24.9-10.31,47.52-25.43,66.57-44.48s34.17-41.68,44.48-66.57c10.31-24.9,15.62-51.58,15.62-78.53"/>
    </g>
    <text class="st27" transform="translate(481.26 191.29)"><tspan x="0" y="0">10</tspan></text>
    <g class="st13">
      <path class="st2" d="M435.32,271.48l-102.6-71.08-112.86-53.31-10.26,124.4-20.52,177.71,143.64-106.63,102.6-71.08"/>
    </g>
    <g class="st15">
      <path class="st0" d="M373.76,271.48l20.52-177.71-164.16,71.08-41.04,106.63,41.04,106.63,153.9,53.31-10.26-159.94"/>
    </g>
    <g class="st42">
      <path class="st6" d="M435.32,271.48l-41.04-177.71-164.16,71.08-123.12,106.63,112.86,124.4,164.16,35.54,51.3-159.94"/>
    </g>
    <g class="st37">
      <path class="st5" d="M414.8,271.48l-61.56-106.63-112.86,17.77-133.38,88.85,133.38,88.85,153.9,88.85,20.52-177.71"/>
    </g>
    <g class="st10">
      <path class="st4" d="M414.8,271.48l-51.3-124.4h-143.64l-51.3,124.4,71.82,88.85,123.12,35.54,51.3-124.4"/>
    </g>
    <g class="st17">
      <path class="st3" d="M435.32,271.48l-102.6-71.08-133.38-88.85-112.86,159.94,164.16,71.08,133.38,88.85,51.3-159.94"/>
    </g>
    <path class="st2" d="M506.69,382.61h18"/>
    <text class="st23" transform="translate(531.88 385.76)"><tspan x="0" y="0">India</tspan></text>
    <path class="st0" d="M506.69,395.82h18"/>
    <text class="st23" transform="translate(531.88 398.97)"><tspan x="0" y="0">Taiwan</tspan></text>
    <path class="st6" d="M506.69,409.03h18"/>
    <text class="st23" transform="translate(531.88 412.18)"><tspan x="0" y="0">South Korea</tspan></text>
    <path class="st5" d="M506.69,422.24h18"/>
    <text class="st23" transform="translate(531.88 425.39)"><tspan x="0" y="0">Singapore</tspan></text>
    <path class="st4" d="M506.69,435.45h18"/>
    <text class="st23" transform="translate(531.88 438.6)"><tspan x="0" y="0">Malaysia</tspan></text>
    <path class="st3" d="M506.69,448.66h18"/>
    <text class="st23" transform="translate(531.88 451.81)"><tspan x="0" y="0">UAE</tspan></text>
    <text class="st26" transform="translate(10.52 23.68)"><tspan x="0" y="0">India in global context — six-axis benchmark</tspan></text>
    <text class="st29" transform="translate(10.52 41.88)"><tspan x="0" y="0">Indicative scoring (0–10) vs six comparable AI-infrastructure economies</tspan></text>
    <text class="st22" transform="translate(443.67 26.83)"><tspan x="0" y="0">Figure 24 · Techadyant Labs · 2026</tspan></text>
    <text class="st20" transform="translate(10.52 519.88)"><tspan x="0" y="0">Source: Techadyant Labs synthesis from CEEW, IEA, TrendForce, SemiAnalysis, government investment programs.</tspan></text>
    <text class="st24" transform="translate(532.3 519.88)"><tspan x="0" y="0">Indicative</tspan></text>
  </g>
</svg>