<?xml version="1.0" encoding="UTF-8"?>
<svg id="Layer_1" xmlns="http://www.w3.org/2000/svg" version="1.1" xmlns:xlink="http://www.w3.org/1999/xlink" viewBox="0 0 711.36 495.9">
  <!-- Generator: Adobe Illustrator 30.4.0, SVG Export Plug-In . SVG Version: 2.1.4 Build 226)  -->
  <defs>
    <style>
      .st0 {
        clip-path: url(#clippath-34);
      }

      .st1 {
        clip-path: url(#clippath-38);
      }

      .st2 {
        clip-path: url(#clippath-21);
      }

      .st3 {
        clip-path: url(#clippath-6);
      }

      .st4 {
        clip-path: url(#clippath-7);
      }

      .st5 {
        clip-path: url(#clippath-17);
      }

      .st6 {
        clip-path: url(#clippath-31);
      }

      .st7 {
        clip-path: url(#clippath-15);
      }

      .st8 {
        clip-path: url(#clippath-33);
      }

      .st9 {
        clip-path: url(#clippath-18);
      }

      .st10 {
        clip-path: url(#clippath-4);
      }

      .st11 {
        clip-path: url(#clippath-22);
      }

      .st12 {
        clip-path: url(#clippath-23);
      }

      .st13 {
        fill: #c9a84c;
      }

      .st13, .st14, .st15 {
        stroke-width: .5px;
      }

      .st13, .st16 {
        stroke: #0f1828;
      }

      .st17 {
        clip-path: url(#clippath-9);
      }

      .st18 {
        clip-path: url(#clippath-10);
      }

      .st19 {
        fill: #fbf9f4;
      }

      .st20, .st15 {
        fill: #fff;
      }

      .st21 {
        clip-path: url(#clippath-25);
      }

      .st22, .st23, .st24, .st25, .st26, .st27, .st28 {
        isolation: isolate;
      }

      .st22, .st23, .st27, .st28 {
        fill: #4a5567;
        font-family: Arial-ItalicMT, Arial;
        font-style: italic;
      }

      .st22, .st24 {
        font-size: 8px;
      }

      .st29 {
        clip-path: url(#clippath-27);
      }

      .st23 {
        font-size: 10px;
      }

      .st14, .st16 {
        fill: #e8e5dd;
      }

      .st14, .st15 {
        stroke: #c0c5cc;
      }

      .st30 {
        clip-path: url(#clippath-11);
      }

      .st24 {
        fill: #c0c5cc;
      }

      .st24, .st25, .st26 {
        font-family: ArialMT, Arial;
      }

      .st31 {
        fill: none;
      }

      .st25, .st26 {
        fill: #0f1828;
      }

      .st25, .st28 {
        font-size: 10.5px;
      }

      .st32 {
        clip-path: url(#clippath-36);
      }

      .st33 {
        clip-path: url(#clippath-35);
      }

      .st34 {
        clip-path: url(#clippath-28);
      }

      .st35 {
        clip-path: url(#clippath-1);
      }

      .st16 {
        stroke-width: .8px;
      }

      .st36 {
        clip-path: url(#clippath-40);
      }

      .st37 {
        clip-path: url(#clippath-5);
      }

      .st38 {
        clip-path: url(#clippath-20);
      }

      .st39 {
        clip-path: url(#clippath-8);
      }

      .st40 {
        clip-path: url(#clippath-41);
      }

      .st26 {
        font-size: 15px;
      }

      .st41 {
        clip-path: url(#clippath-3);
      }

      .st42 {
        clip-path: url(#clippath-26);
      }

      .st43 {
        clip-path: url(#clippath-12);
      }

      .st44 {
        clip-path: url(#clippath-14);
      }

      .st45 {
        clip-path: url(#clippath-30);
      }

      .st46 {
        clip-path: url(#clippath-19);
      }

      .st47 {
        clip-path: url(#clippath-32);
      }

      .st27 {
        font-size: 8.5px;
      }

      .st48 {
        clip-path: url(#clippath-39);
      }

      .st49 {
        clip-path: url(#clippath-16);
      }

      .st50 {
        clip-path: url(#clippath-2);
      }

      .st51 {
        clip-path: url(#clippath-29);
      }

      .st52 {
        clip-path: url(#clippath-37);
      }

      .st53 {
        clip-path: url(#clippath-13);
      }

      .st54 {
        clip-path: url(#clippath-24);
      }

      .st55 {
        clip-path: url(#clippath);
      }
    </style>
    <clipPath id="clippath">
      <rect class="st20" x="58.68" y="68.6" width="613.8" height="388.08"/>
    </clipPath>
    <clipPath id="clippath-1">
      <rect class="st31" x="58.68" y="68.6" width="613.8" height="388.08"/>
    </clipPath>
    <clipPath id="clippath-2">
      <rect class="st31" x="58.68" y="68.6" width="613.8" height="388.08"/>
    </clipPath>
    <clipPath id="clippath-3">
      <rect class="st31" x="58.68" y="68.6" width="613.8" height="388.08"/>
    </clipPath>
    <clipPath id="clippath-4">
      <rect class="st31" x="58.68" y="68.6" width="613.8" height="388.08"/>
    </clipPath>
    <clipPath id="clippath-5">
      <rect class="st31" x="58.68" y="68.6" width="613.8" height="388.08"/>
    </clipPath>
    <clipPath id="clippath-6">
      <rect class="st31" x="58.68" y="68.6" width="613.8" height="388.08"/>
    </clipPath>
    <clipPath id="clippath-7">
      <rect class="st31" x="58.68" y="68.6" width="613.8" height="388.08"/>
    </clipPath>
    <clipPath id="clippath-8">
      <rect class="st31" x="58.68" y="68.6" width="613.8" height="388.08"/>
    </clipPath>
    <clipPath id="clippath-9">
      <rect class="st31" x="58.68" y="68.6" width="613.8" height="388.08"/>
    </clipPath>
    <clipPath id="clippath-10">
      <rect class="st31" x="58.68" y="68.6" width="613.8" height="388.08"/>
    </clipPath>
    <clipPath id="clippath-11">
      <rect class="st31" x="58.68" y="68.6" width="613.8" height="388.08"/>
    </clipPath>
    <clipPath id="clippath-12">
      <rect class="st31" x="58.68" y="68.6" width="613.8" height="388.08"/>
    </clipPath>
    <clipPath id="clippath-13">
      <rect class="st31" x="58.68" y="68.6" width="613.8" height="388.08"/>
    </clipPath>
    <clipPath id="clippath-14">
      <rect class="st31" x="58.68" y="68.6" width="613.8" height="388.08"/>
    </clipPath>
    <clipPath id="clippath-15">
      <rect class="st31" x="58.68" y="68.6" width="613.8" height="388.08"/>
    </clipPath>
    <clipPath id="clippath-16">
      <rect class="st31" x="58.68" y="68.6" width="613.8" height="388.08"/>
    </clipPath>
    <clipPath id="clippath-17">
      <rect class="st31" x="58.68" y="68.6" width="613.8" height="388.08"/>
    </clipPath>
    <clipPath id="clippath-18">
      <rect class="st31" x="58.68" y="68.6" width="613.8" height="388.08"/>
    </clipPath>
    <clipPath id="clippath-19">
      <rect class="st31" x="58.68" y="68.6" width="613.8" height="388.08"/>
    </clipPath>
    <clipPath id="clippath-20">
      <rect class="st31" x="58.68" y="68.6" width="613.8" height="388.08"/>
    </clipPath>
    <clipPath id="clippath-21">
      <rect class="st31" x="58.68" y="68.6" width="613.8" height="388.08"/>
    </clipPath>
    <clipPath id="clippath-22">
      <rect class="st31" x="58.68" y="68.6" width="613.8" height="388.08"/>
    </clipPath>
    <clipPath id="clippath-23">
      <rect class="st31" x="58.68" y="68.6" width="613.8" height="388.08"/>
    </clipPath>
    <clipPath id="clippath-24">
      <rect class="st31" x="58.68" y="68.6" width="613.8" height="388.08"/>
    </clipPath>
    <clipPath id="clippath-25">
      <rect class="st31" x="58.68" y="68.6" width="613.8" height="388.08"/>
    </clipPath>
    <clipPath id="clippath-26">
      <rect class="st31" x="58.68" y="68.6" width="613.8" height="388.08"/>
    </clipPath>
    <clipPath id="clippath-27">
      <rect class="st31" x="58.68" y="68.6" width="613.8" height="388.08"/>
    </clipPath>
    <clipPath id="clippath-28">
      <rect class="st31" x="58.68" y="68.6" width="613.8" height="388.08"/>
    </clipPath>
    <clipPath id="clippath-29">
      <rect class="st31" x="58.68" y="68.6" width="613.8" height="388.08"/>
    </clipPath>
    <clipPath id="clippath-30">
      <rect class="st31" x="58.68" y="68.6" width="613.8" height="388.08"/>
    </clipPath>
    <clipPath id="clippath-31">
      <rect class="st31" x="58.68" y="68.6" width="613.8" height="388.08"/>
    </clipPath>
    <clipPath id="clippath-32">
      <rect class="st31" x="58.68" y="68.6" width="613.8" height="388.08"/>
    </clipPath>
    <clipPath id="clippath-33">
      <rect class="st31" x="58.68" y="68.6" width="613.8" height="388.08"/>
    </clipPath>
    <clipPath id="clippath-34">
      <rect class="st31" x="58.68" y="68.6" width="613.8" height="388.08"/>
    </clipPath>
    <clipPath id="clippath-35">
      <rect class="st31" x="58.68" y="68.6" width="613.8" height="388.08"/>
    </clipPath>
    <clipPath id="clippath-36">
      <rect class="st31" x="58.68" y="68.6" width="613.8" height="388.08"/>
    </clipPath>
    <clipPath id="clippath-37">
      <rect class="st31" x="58.68" y="68.6" width="613.8" height="388.08"/>
    </clipPath>
    <clipPath id="clippath-38">
      <rect class="st31" x="58.68" y="68.6" width="613.8" height="388.08"/>
    </clipPath>
    <clipPath id="clippath-39">
      <rect class="st31" x="58.68" y="68.6" width="613.8" height="388.08"/>
    </clipPath>
    <clipPath id="clippath-40">
      <rect class="st31" x="58.68" y="68.6" width="613.8" height="388.08"/>
    </clipPath>
    <clipPath id="clippath-41">
      <rect class="st31" x="58.68" y="68.6" width="613.8" height="388.08"/>
    </clipPath>
  </defs>
  <path class="st19" d="M0,495.9h711.36V0H0v495.9Z"/>
  <g>
    <rect class="st20" x="58.68" y="68.6" width="613.8" height="388.08"/>
    <g class="st55">
      <path class="st15" d="M629.51,440.6h18.41c.41,0,.61-.18.61-.55v-19.4c0-.37-.2-.55-.61-.55h-18.41c-.41,0-.61.18-.61.55v19.4c0,.37.2.55.61.55Z"/>
    </g>
  </g>
  <g class="st35">
    <path class="st16" d="M89.37,122.38h429.66c.82,0,1.23-.37,1.23-1.11v-47.12c0-.74-.41-1.11-1.23-1.11H89.37c-.82,0-1.23.37-1.23,1.11v47.12c0,.74.41,1.11,1.23,1.11Z"/>
  </g>
  <g class="st50">
    <path class="st13" d="M531.31,107.96h18.41c.41,0,.61-.18.61-.55v-19.4c0-.37-.2-.55-.61-.55h-18.41c-.41,0-.61.18-.61.55v19.4c0,.37.2.55.61.55Z"/>
  </g>
  <g class="st41">
    <path class="st13" d="M555.86,107.96h18.41c.41,0,.61-.18.61-.55v-19.4c0-.37-.2-.55-.61-.55h-18.41c-.41,0-.61.18-.61.55v19.4c0,.37.2.55.61.55Z"/>
  </g>
  <g class="st10">
    <path class="st13" d="M580.41,107.96h18.41c.41,0,.61-.18.61-.55v-19.4c0-.37-.2-.55-.61-.55h-18.41c-.41,0-.61.18-.61.55v19.4c0,.37.2.55.61.55Z"/>
  </g>
  <g class="st37">
    <path class="st13" d="M604.96,107.96h18.41c.41,0,.61-.18.61-.55v-19.4c0-.37-.2-.55-.61-.55h-18.41c-.41,0-.61.18-.61.55v19.4c0,.37.2.55.61.55Z"/>
  </g>
  <g class="st3">
    <path class="st13" d="M629.51,107.96h18.41c.41,0,.61-.18.61-.55v-19.4c0-.37-.2-.55-.61-.55h-18.41c-.41,0-.61.18-.61.55v19.4c0,.37.2.55.61.55Z"/>
  </g>
  <g class="st4">
    <path class="st16" d="M89.37,177.82h429.66c.82,0,1.23-.37,1.23-1.11v-47.12c0-.74-.41-1.11-1.23-1.11H89.37c-.82,0-1.23.37-1.23,1.11v47.12c0,.74.41,1.11,1.23,1.11Z"/>
  </g>
  <g class="st39">
    <path class="st14" d="M531.31,163.4h18.41c.41,0,.61-.18.61-.55v-19.4c0-.37-.2-.55-.61-.55h-18.41c-.41,0-.61.18-.61.55v19.4c0,.37.2.55.61.55Z"/>
  </g>
  <g class="st17">
    <path class="st14" d="M555.86,163.4h18.41c.41,0,.61-.18.61-.55v-19.4c0-.37-.2-.55-.61-.55h-18.41c-.41,0-.61.18-.61.55v19.4c0,.37.2.55.61.55Z"/>
  </g>
  <g class="st18">
    <path class="st14" d="M580.41,163.4h18.41c.41,0,.61-.18.61-.55v-19.4c0-.37-.2-.55-.61-.55h-18.41c-.41,0-.61.18-.61.55v19.4c0,.37.2.55.61.55Z"/>
  </g>
  <g class="st30">
    <path class="st14" d="M604.96,163.4h18.41c.41,0,.61-.18.61-.55v-19.4c0-.37-.2-.55-.61-.55h-18.41c-.41,0-.61.18-.61.55v19.4c0,.37.2.55.61.55Z"/>
  </g>
  <g class="st43">
    <path class="st14" d="M629.51,163.4h18.41c.41,0,.61-.18.61-.55v-19.4c0-.37-.2-.55-.61-.55h-18.41c-.41,0-.61.18-.61.55v19.4c0,.37.2.55.61.55Z"/>
  </g>
  <g class="st53">
    <path class="st16" d="M89.37,233.26h429.66c.82,0,1.23-.37,1.23-1.11v-47.12c0-.74-.41-1.11-1.23-1.11H89.37c-.82,0-1.23.37-1.23,1.11v47.12c0,.74.41,1.11,1.23,1.11Z"/>
  </g>
  <g class="st44">
    <path class="st13" d="M531.31,218.84h18.41c.41,0,.61-.18.61-.55v-19.4c0-.37-.2-.55-.61-.55h-18.41c-.41,0-.61.18-.61.55v19.4c0,.37.2.55.61.55Z"/>
  </g>
  <g class="st7">
    <path class="st13" d="M555.86,218.84h18.41c.41,0,.61-.18.61-.55v-19.4c0-.37-.2-.55-.61-.55h-18.41c-.41,0-.61.18-.61.55v19.4c0,.37.2.55.61.55Z"/>
  </g>
  <g class="st49">
    <path class="st13" d="M580.41,218.84h18.41c.41,0,.61-.18.61-.55v-19.4c0-.37-.2-.55-.61-.55h-18.41c-.41,0-.61.18-.61.55v19.4c0,.37.2.55.61.55Z"/>
  </g>
  <g class="st5">
    <path class="st14" d="M604.96,218.84h18.41c.41,0,.61-.18.61-.55v-19.4c0-.37-.2-.55-.61-.55h-18.41c-.41,0-.61.18-.61.55v19.4c0,.37.2.55.61.55Z"/>
  </g>
  <g class="st9">
    <path class="st14" d="M629.51,218.84h18.41c.41,0,.61-.18.61-.55v-19.4c0-.37-.2-.55-.61-.55h-18.41c-.41,0-.61.18-.61.55v19.4c0,.37.2.55.61.55Z"/>
  </g>
  <g class="st46">
    <path class="st16" d="M89.37,288.7h429.66c.82,0,1.23-.37,1.23-1.11v-47.12c0-.74-.41-1.11-1.23-1.11H89.37c-.82,0-1.23.37-1.23,1.11v47.12c0,.74.41,1.11,1.23,1.11Z"/>
  </g>
  <g class="st38">
    <path class="st14" d="M531.31,274.28h18.41c.41,0,.61-.18.61-.55v-19.4c0-.37-.2-.55-.61-.55h-18.41c-.41,0-.61.18-.61.55v19.4c0,.37.2.55.61.55Z"/>
  </g>
  <g class="st2">
    <path class="st14" d="M555.86,274.28h18.41c.41,0,.61-.18.61-.55v-19.4c0-.37-.2-.55-.61-.55h-18.41c-.41,0-.61.18-.61.55v19.4c0,.37.2.55.61.55Z"/>
  </g>
  <g class="st11">
    <path class="st14" d="M580.41,274.28h18.41c.41,0,.61-.18.61-.55v-19.4c0-.37-.2-.55-.61-.55h-18.41c-.41,0-.61.18-.61.55v19.4c0,.37.2.55.61.55Z"/>
  </g>
  <g class="st12">
    <path class="st14" d="M604.96,274.28h18.41c.41,0,.61-.18.61-.55v-19.4c0-.37-.2-.55-.61-.55h-18.41c-.41,0-.61.18-.61.55v19.4c0,.37.2.55.61.55Z"/>
  </g>
  <g class="st54">
    <path class="st14" d="M629.51,274.28h18.41c.41,0,.61-.18.61-.55v-19.4c0-.37-.2-.55-.61-.55h-18.41c-.41,0-.61.18-.61.55v19.4c0,.37.2.55.61.55Z"/>
  </g>
  <g class="st21">
    <path class="st16" d="M89.37,344.14h429.66c.82,0,1.23-.37,1.23-1.11v-47.12c0-.74-.41-1.11-1.23-1.11H89.37c-.82,0-1.23.37-1.23,1.11v47.12c0,.74.41,1.11,1.23,1.11Z"/>
  </g>
  <g class="st42">
    <path class="st13" d="M531.31,329.72h18.41c.41,0,.61-.18.61-.55v-19.4c0-.37-.2-.55-.61-.55h-18.41c-.41,0-.61.18-.61.55v19.4c0,.37.2.55.61.55Z"/>
  </g>
  <g class="st29">
    <path class="st13" d="M555.86,329.72h18.41c.41,0,.61-.18.61-.55v-19.4c0-.37-.2-.55-.61-.55h-18.41c-.41,0-.61.18-.61.55v19.4c0,.37.2.55.61.55Z"/>
  </g>
  <g class="st34">
    <path class="st13" d="M580.41,329.72h18.41c.41,0,.61-.18.61-.55v-19.4c0-.37-.2-.55-.61-.55h-18.41c-.41,0-.61.18-.61.55v19.4c0,.37.2.55.61.55Z"/>
  </g>
  <g class="st51">
    <path class="st13" d="M604.96,329.72h18.41c.41,0,.61-.18.61-.55v-19.4c0-.37-.2-.55-.61-.55h-18.41c-.41,0-.61.18-.61.55v19.4c0,.37.2.55.61.55Z"/>
  </g>
  <g class="st45">
    <path class="st14" d="M629.51,329.72h18.41c.41,0,.61-.18.61-.55v-19.4c0-.37-.2-.55-.61-.55h-18.41c-.41,0-.61.18-.61.55v19.4c0,.37.2.55.61.55Z"/>
  </g>
  <g class="st6">
    <path class="st16" d="M89.37,399.58h429.66c.82,0,1.23-.37,1.23-1.11v-47.12c0-.74-.41-1.11-1.23-1.11H89.37c-.82,0-1.23.37-1.23,1.11v47.12c0,.74.41,1.11,1.23,1.11Z"/>
  </g>
  <g class="st47">
    <path class="st13" d="M531.31,385.16h18.41c.41,0,.61-.18.61-.55v-19.4c0-.37-.2-.55-.61-.55h-18.41c-.41,0-.61.18-.61.55v19.4c0,.37.2.55.61.55Z"/>
  </g>
  <g class="st8">
    <path class="st13" d="M555.86,385.16h18.41c.41,0,.61-.18.61-.55v-19.4c0-.37-.2-.55-.61-.55h-18.41c-.41,0-.61.18-.61.55v19.4c0,.37.2.55.61.55Z"/>
  </g>
  <g class="st0">
    <path class="st13" d="M580.41,385.16h18.41c.41,0,.61-.18.61-.55v-19.4c0-.37-.2-.55-.61-.55h-18.41c-.41,0-.61.18-.61.55v19.4c0,.37.2.55.61.55Z"/>
  </g>
  <g class="st33">
    <path class="st14" d="M604.96,385.16h18.41c.41,0,.61-.18.61-.55v-19.4c0-.37-.2-.55-.61-.55h-18.41c-.41,0-.61.18-.61.55v19.4c0,.37.2.55.61.55Z"/>
  </g>
  <g class="st32">
    <path class="st14" d="M629.51,385.16h18.41c.41,0,.61-.18.61-.55v-19.4c0-.37-.2-.55-.61-.55h-18.41c-.41,0-.61.18-.61.55v19.4c0,.37.2.55.61.55Z"/>
  </g>
  <g class="st52">
    <path class="st16" d="M89.37,455.02h429.66c.82,0,1.23-.37,1.23-1.11v-47.12c0-.74-.41-1.11-1.23-1.11H89.37c-.82,0-1.23.37-1.23,1.11v47.12c0,.74.41,1.11,1.23,1.11Z"/>
  </g>
  <g class="st1">
    <path class="st14" d="M531.31,440.6h18.41c.41,0,.61-.18.61-.55v-19.4c0-.37-.2-.55-.61-.55h-18.41c-.41,0-.61.18-.61.55v19.4c0,.37.2.55.61.55Z"/>
  </g>
  <g class="st48">
    <path class="st14" d="M555.86,440.6h18.41c.41,0,.61-.18.61-.55v-19.4c0-.37-.2-.55-.61-.55h-18.41c-.41,0-.61.18-.61.55v19.4c0,.37.2.55.61.55Z"/>
  </g>
  <g class="st36">
    <path class="st14" d="M580.41,440.6h18.41c.41,0,.61-.18.61-.55v-19.4c0-.37-.2-.55-.61-.55h-18.41c-.41,0-.61.18-.61.55v19.4c0,.37.2.55.61.55Z"/>
  </g>
  <g class="st40">
    <path class="st14" d="M604.96,440.6h18.41c.41,0,.61-.18.61-.55v-19.4c0-.37-.2-.55-.61-.55h-18.41c-.41,0-.61.18-.61.55v19.4c0,.37.2.55.61.55Z"/>
  </g>
  <text class="st25" transform="translate(101.65 93.55)"><tspan x="0" y="0">Design</tspan></text>
  <text class="st27" transform="translate(101.65 109.07)"><tspan x="0" y="0">Bengaluru/Hyderabad captives + emerging fabless · ~60k engineers; 20% global design talent</tspan></text>
  <text class="st25" transform="translate(101.65 148.99)"><tspan x="0" y="0">Leading-edge fab (3–7nm)</tspan></text>
  <text class="st27" transform="translate(101.65 164.51)"><tspan x="0" y="0">Not present in India · TSMC, Samsung global</tspan></text>
  <text class="st25" transform="translate(101.65 204.43)"><tspan x="0" y="0">Mature-node fab (28–110nm)</tspan></text>
  <text class="st27" transform="translate(101.65 219.95)"><tspan x="0" y="0">Tata-PSMC Dholera (under construction) · 50k WSPM by 2027–28</tspan></text>
  <text class="st25" transform="translate(101.65 259.87)"><tspan x="0" y="0">Advanced packaging (CoWoS/HBM)</tspan></text>
  <text class="st27" transform="translate(101.65 275.39)"><tspan x="0" y="0">Not present in India · TSMC, ASE, Amkor — binding constraint</tspan></text>
  <text class="st25" transform="translate(101.65 315.31)"><tspan x="0" y="0">OSAT / ATMP (commodity)</tspan></text>
  <text class="st27" transform="translate(101.65 330.83)"><tspan x="0" y="0">Tata-TSAT, Micron, CG Semi, Kaynes, HCL-Foxconn, Suchi · Multiple Sanand + Jagiroad + Jewar</tspan></text>
  <text class="st25" transform="translate(101.65 370.75)"><tspan x="0" y="0">Materials &amp; gases</tspan></text>
  <text class="st27" transform="translate(101.65 386.27)"><tspan x="0" y="0">Linde · Inox · partial imports · INOX Dholera ESG hub Rs 500 cr</tspan></text>
  <text class="st25" transform="translate(101.65 426.19)"><tspan x="0" y="0">Equipment (WFE)</tspan></text>
  <text class="st27" transform="translate(101.65 441.71)"><tspan x="0" y="0">Not present in India · ASML, AMAT, Lam, TEL, KLA</tspan></text>
  <text class="st23" transform="translate(89.37 65.83)"><tspan x="0" y="0">Layer</tspan></text>
  <text class="st23" transform="translate(529.21 65.83)"><tspan x="0" y="0">India presence (0–5)</tspan></text>
  <text class="st26" transform="translate(17.2 24.68)"><tspan x="0" y="0">Semiconductor capability stack — India&apos;s position layer-by-layer</tspan></text>
  <text class="st28" transform="translate(17.71 43.3)"><tspan x="0" y="0">May 2026 status. Binding gaps: leading-edge fab, advanced packaging, equipment</tspan></text>
  <text class="st24" transform="translate(564.51 13.28)"><tspan x="0" y="0">Figure 10 · Techadyant Labs · 2026</tspan></text>
  <text class="st22" transform="translate(7.2 487.04)"><tspan x="0" y="0">Source: PIB / ISM project filings; Tata Electronics; Micron 10-K; ASML; Yole; Carnegie India.</tspan></text>
</svg>