<?xml version="1.0" encoding="UTF-8"?>
<svg id="Layer_1" xmlns="http://www.w3.org/2000/svg" version="1.1" xmlns:xlink="http://www.w3.org/1999/xlink" viewBox="0 0 711.36 563.58">
  <!-- Generator: Adobe Illustrator 30.4.0, SVG Export Plug-In . SVG Version: 2.1.4 Build 226)  -->
  <defs>
    <style>
      .st0 {
        clip-path: url(#clippath-6);
      }

      .st1 {
        clip-path: url(#clippath-7);
      }

      .st2 {
        clip-path: url(#clippath-4);
      }

      .st3, .st4, .st5, .st6, .st7 {
        stroke: #0f1828;
        stroke-linejoin: round;
      }

      .st3, .st6, .st7 {
        fill-opacity: .9;
        stroke-opacity: .9;
        stroke-width: 1.2px;
      }

      .st3, .st8, .st9 {
        fill: #c8443b;
      }

      .st4 {
        stroke-linecap: round;
      }

      .st4, .st10, .st5 {
        fill: none;
      }

      .st11 {
        clip-path: url(#clippath-9);
      }

      .st12 {
        clip-path: url(#clippath-10);
      }

      .st13 {
        fill: #fbf9f4;
      }

      .st14, .st15 {
        font-size: 8px;
      }

      .st14, .st15, .st16, .st17, .st18, .st19, .st20, .st8, .st9, .st21, .st22, .st23, .st24 {
        isolation: isolate;
      }

      .st14, .st22 {
        font-family: Arial-ItalicMT, Arial;
        font-style: italic;
      }

      .st14, .st22, .st23 {
        fill: #4a5567;
      }

      .st25 {
        clip-path: url(#clippath-11);
      }

      .st15 {
        fill: #c0c5cc;
      }

      .st15, .st16, .st17, .st18, .st20, .st9, .st23 {
        font-family: ArialMT, Arial;
      }

      .st16 {
        font-size: 9px;
      }

      .st16, .st18, .st20 {
        fill: #0f1828;
      }

      .st26 {
        clip-path: url(#clippath-1);
      }

      .st17, .st6 {
        fill: #c9a84c;
      }

      .st17, .st20, .st9, .st23 {
        font-size: 10px;
      }

      .st27 {
        clip-path: url(#clippath-5);
      }

      .st28 {
        clip-path: url(#clippath-8);
      }

      .st18 {
        font-size: 15px;
      }

      .st29 {
        clip-path: url(#clippath-3);
      }

      .st30 {
        clip-path: url(#clippath-12);
      }

      .st5 {
        stroke-dasharray: 2.96 1.28;
        stroke-width: .8px;
      }

      .st19 {
        opacity: .2;
      }

      .st19, .st21 {
        fill: #e4d3a6;
      }

      .st8, .st21 {
        opacity: .3;
      }

      .st31 {
        clip-path: url(#clippath-2);
      }

      .st32 {
        clip-path: url(#clippath-13);
      }

      .st7 {
        fill: #2bc5b4;
      }

      .st22 {
        font-size: 10.5px;
      }

      .st33 {
        clip-path: url(#clippath);
      }

      .st24 {
        fill: #e8e5dd;
        opacity: .4;
      }
    </style>
    <clipPath id="clippath">
      <rect class="st10" x="58.68" y="59.36" width="613.8" height="443.52"/>
    </clipPath>
    <clipPath id="clippath-1">
      <rect class="st10" x="58.68" y="59.36" width="613.8" height="443.52"/>
    </clipPath>
    <clipPath id="clippath-2">
      <rect class="st10" x="58.68" y="59.36" width="613.8" height="443.52"/>
    </clipPath>
    <clipPath id="clippath-3">
      <rect class="st10" x="58.68" y="59.36" width="613.8" height="443.52"/>
    </clipPath>
    <clipPath id="clippath-4">
      <rect class="st10" x="58.68" y="59.36" width="613.8" height="443.52"/>
    </clipPath>
    <clipPath id="clippath-5">
      <rect class="st10" x="58.68" y="59.36" width="613.8" height="443.52"/>
    </clipPath>
    <clipPath id="clippath-6">
      <rect class="st10" x="58.68" y="59.36" width="613.8" height="443.52"/>
    </clipPath>
    <clipPath id="clippath-7">
      <rect class="st10" x="58.68" y="59.36" width="613.8" height="443.52"/>
    </clipPath>
    <clipPath id="clippath-8">
      <rect class="st10" x="58.68" y="59.36" width="613.8" height="443.52"/>
    </clipPath>
    <clipPath id="clippath-9">
      <rect class="st10" x="58.68" y="59.36" width="613.8" height="443.52"/>
    </clipPath>
    <clipPath id="clippath-10">
      <rect class="st10" x="58.68" y="59.36" width="613.8" height="443.52"/>
    </clipPath>
    <clipPath id="clippath-11">
      <rect class="st10" x="58.68" y="59.36" width="613.8" height="443.52"/>
    </clipPath>
    <clipPath id="clippath-12">
      <rect class="st10" x="58.68" y="59.36" width="613.8" height="443.52"/>
    </clipPath>
    <clipPath id="clippath-13">
      <rect class="st10" x="58.68" y="59.36" width="613.8" height="443.52"/>
    </clipPath>
  </defs>
  <path class="st13" d="M0,563.58h711.36V0H0v563.58Z"/>
  <g class="st33">
    <path class="st21" d="M121.63,262.64h262.31V77.84H121.63v184.8Z"/>
  </g>
  <g class="st26">
    <path class="st8" d="M383.94,262.64h262.31V77.84h-262.31v184.8Z"/>
  </g>
  <g class="st31">
    <path class="st24" d="M121.63,447.44h262.31v-184.8H121.63v184.8Z"/>
  </g>
  <g class="st29">
    <path class="st19" d="M383.94,447.44h262.31v-184.8h-262.31v184.8Z"/>
  </g>
  <g class="st2">
    <path class="st5" d="M121.63,262.64h524.62"/>
  </g>
  <g class="st27">
    <path class="st5" d="M383.94,447.44V77.84"/>
  </g>
  <path class="st4" d="M123.63,462.22h519.5"/>
  <path class="st4" d="M639.13,460.22l4,2-4,2"/>
  <text class="st20" transform="translate(264.3 484.4)"><tspan x="0" y="0">Likelihood (probability over 2026-2030) →</tspan></text>
  <path class="st4" d="M100.65,445.44V80.96"/>
  <path class="st4" d="M98.65,84.96l2-4,2,4"/>
  <text class="st20" transform="translate(77.14 264.8) rotate(-90)"><tspan x="0" y="0">Severity (impact on base case) →</tspan></text>
  <text class="st17" transform="translate(163.44 74.74)"><tspan x="0" y="0">HIGH SEVERITY · LOW LIKELIHOOD</tspan></text>
  <text class="st9" transform="translate(434.21 74.74)"><tspan x="0" y="0">HIGH SEVERITY · HIGH LIKELIHOOD</tspan></text>
  <text class="st23" transform="translate(157.12 428.96)"><tspan x="0" y="0">LOW SEVERITY · LOW LIKELIHOOD</tspan></text>
  <text class="st17" transform="translate(417.87 428.96)"><tspan x="0" y="0">LOW SEVERITY · HIGH LIKELIHOOD</tspan></text>
  <g class="st0">
    <path id="mc8c21a098d" class="st3" d="M174.1,106.32c2.65,0,5.2-1.05,7.07-2.93s2.93-4.42,2.93-7.07-1.05-5.2-2.93-7.07-4.42-2.93-7.07-2.93-5.2,1.05-7.07,2.93-2.93,4.42-2.93,7.07,1.05,5.2,2.93,7.07,4.42,2.93,7.07,2.93Z"/>
  </g>
  <text class="st16" transform="translate(187.21 98.8)"><tspan x="0" y="0">Taiwan Strait</tspan></text>
  <g class="st1">
    <path id="mc8c21a098d1" data-name="mc8c21a098d" class="st3" d="M252.79,180.24c2.65,0,5.2-1.05,7.07-2.93s2.93-4.42,2.93-7.07-1.05-5.2-2.93-7.07-4.42-2.93-7.07-2.93-5.2,1.05-7.07,2.93-2.93,4.42-2.93,7.07,1.05,5.2,2.93,7.07,4.42,2.93,7.07,2.93Z"/>
  </g>
  <text class="st16" transform="translate(265.9 172.72)"><tspan x="0" y="0">US AI Diffusion re-impose</tspan></text>
  <g class="st28">
    <path id="mc8c21a098d2" data-name="mc8c21a098d" class="st3" d="M226.56,198.72c2.65,0,5.2-1.05,7.07-2.93s2.93-4.42,2.93-7.07-1.05-5.2-2.93-7.07-4.42-2.93-7.07-2.93-5.2,1.05-7.07,2.93-2.93,4.42-2.93,7.07,1.05,5.2,2.93,7.07,4.42,2.93,7.07,2.93Z"/>
  </g>
  <text class="st16" transform="translate(239.67 191.17)"><tspan x="0" y="0">Hyperscaler capex retrench</tspan></text>
  <g class="st11">
    <path id="mc8c21a098d3" data-name="mc8c21a098d" class="st3" d="M279.02,161.76c2.65,0,5.2-1.05,7.07-2.93s2.93-4.42,2.93-7.07-1.05-5.2-2.93-7.07-4.42-2.93-7.07-2.93-5.2,1.05-7.07,2.93-2.93,4.42-2.93,7.07,1.05,5.2,2.93,7.07,4.42,2.93,7.07,2.93Z"/>
  </g>
  <text class="st16" transform="translate(292.13 154.24)"><tspan x="0" y="0">Water-stress shutdown</tspan></text>
  <g class="st12">
    <path id="mccb6d733d8" class="st6" d="M279.02,235.68c2.65,0,5.2-1.05,7.07-2.93s2.93-4.42,2.93-7.07-1.05-5.2-2.93-7.07-4.42-2.93-7.07-2.93-5.2,1.05-7.07,2.93-2.93,4.42-2.93,7.07,1.05,5.2,2.93,7.07,4.42,2.93,7.07,2.93Z"/>
  </g>
  <text class="st16" transform="translate(292.13 228.16)"><tspan x="0" y="0">Chinese input retaliation</tspan></text>
  <g class="st25">
    <path id="mccb6d733d81" data-name="mccb6d733d8" class="st6" d="M331.48,254.16c2.65,0,5.2-1.05,7.07-2.93s2.93-4.42,2.93-7.07-1.05-5.2-2.93-7.07-4.42-2.93-7.07-2.93-5.2,1.05-7.07,2.93-2.93,4.42-2.93,7.07,1.05,5.2,2.93,7.07,4.42,2.93,7.07,2.93Z"/>
  </g>
  <text class="st16" transform="translate(344.6 246.61)"><tspan x="0" y="0">Hyperscaler oversupply</tspan></text>
  <g class="st30">
    <path id="mccb6d733d82" data-name="mccb6d733d8" class="st6" d="M383.94,291.12c2.65,0,5.2-1.05,7.07-2.93s2.93-4.42,2.93-7.07-1.05-5.2-2.93-7.07-4.42-2.93-7.07-2.93-5.2,1.05-7.07,2.93-2.93,4.42-2.93,7.07,1.05,5.2,2.93,7.07,4.42,2.93,7.07,2.93Z"/>
  </g>
  <text class="st16" transform="translate(397.06 283.6)"><tspan x="0" y="0">Grid curtailment</tspan></text>
  <g class="st32">
    <path id="mc881070fbe" class="st7" d="M436.4,328.08c2.65,0,5.2-1.05,7.07-2.93s2.93-4.42,2.93-7.07-1.05-5.2-2.93-7.07-4.42-2.93-7.07-2.93-5.2,1.05-7.07,2.93-2.93,4.42-2.93,7.07,1.05,5.2,2.93,7.07,4.42,2.93,7.07,2.93Z"/>
  </g>
  <text class="st16" transform="translate(449.52 320.53)"><tspan x="0" y="0">Data-localisation tighten</tspan></text>
  <text class="st18" transform="translate(7.2 24.68)"><tspan x="0" y="0">Failure-mode severity-likelihood matrix — eight stress tests</tspan></text>
  <text class="st22" transform="translate(7.2 46.32)"><tspan x="0" y="0">Each test corresponds to Section 38A; position reflects probability-weighted impact on base case</tspan></text>
  <text class="st15" transform="translate(564.51 13.28)"><tspan x="0" y="0">Figure 27 · Techadyant Labs · 2026</tspan></text>
  <text class="st14" transform="translate(7.2 554.72)"><tspan x="0" y="0">Source: Techadyant Labs strategic-risk framework, Section 38A.</tspan></text>
</svg>