<?xml version="1.0" encoding="UTF-8"?>
<svg id="Layer_1" xmlns="http://www.w3.org/2000/svg" version="1.1" xmlns:xlink="http://www.w3.org/1999/xlink" viewBox="0 0 761.15 428.22">
  <!-- Generator: Adobe Illustrator 30.4.0, SVG Export Plug-In . SVG Version: 2.1.4 Build 226)  -->
  <defs>
    <style>
      .st0, .st1, .st2 {
        stroke-width: .8px;
      }

      .st0, .st3, .st4, .st2, .st5 {
        fill: none;
      }

      .st0, .st4 {
        stroke: #0f1828;
        stroke-linecap: square;
      }

      .st6 {
        clip-path: url(#clippath-6);
      }

      .st7 {
        clip-path: url(#clippath-7);
      }

      .st8 {
        clip-path: url(#clippath-17);
      }

      .st9 {
        clip-path: url(#clippath-15);
      }

      .st10 {
        clip-path: url(#clippath-4);
      }

      .st11 {
        clip-path: url(#clippath-9);
      }

      .st12 {
        clip-path: url(#clippath-10);
      }

      .st13, .st14, .st15, .st16, .st17, .st18, .st19, .st20, .st21, .st22, .st23, .st24 {
        isolation: isolate;
      }

      .st13, .st15, .st17, .st18, .st19, .st21, .st23, .st24 {
        font-family: ArialMT, Arial;
      }

      .st13, .st17, .st19, .st21 {
        fill: #0f1828;
      }

      .st13, .st24 {
        font-size: 11px;
      }

      .st25 {
        fill: #fbf9f4;
      }

      .st26 {
        fill: #fff;
      }

      .st14, .st1, .st20, .st22, .st23 {
        fill: #4a5567;
      }

      .st14, .st15, .st16 {
        font-size: 8px;
      }

      .st14, .st16, .st20, .st22 {
        font-family: Arial-ItalicMT, Arial;
        font-style: italic;
      }

      .st1 {
        stroke: #4a5567;
      }

      .st1, .st27, .st4, .st2, .st5 {
        stroke-linejoin: round;
      }

      .st28 {
        clip-path: url(#clippath-11);
      }

      .st15 {
        fill: #c0c5cc;
      }

      .st16, .st29, .st27 {
        fill: #c9a84c;
      }

      .st29, .st27 {
        fill-opacity: .85;
        stroke: #c9a84c;
        stroke-opacity: .85;
      }

      .st30 {
        clip-path: url(#clippath-1);
      }

      .st17 {
        font-size: 9.5px;
      }

      .st4 {
        stroke-width: 2px;
      }

      .st31 {
        clip-path: url(#clippath-5);
      }

      .st32 {
        clip-path: url(#clippath-8);
      }

      .st18, .st21, .st23 {
        font-size: 10px;
      }

      .st18, .st24 {
        fill: #2bc5b4;
      }

      .st19 {
        font-size: 15px;
      }

      .st33 {
        clip-path: url(#clippath-3);
      }

      .st34 {
        clip-path: url(#clippath-12);
      }

      .st20 {
        font-size: 9px;
      }

      .st35 {
        clip-path: url(#clippath-14);
      }

      .st2 {
        stroke: #c0c5cc;
        stroke-dasharray: 2.96 1.28;
        stroke-opacity: .4;
      }

      .st36 {
        clip-path: url(#clippath-16);
      }

      .st37 {
        clip-path: url(#clippath-2);
      }

      .st5 {
        stroke: #2bc5b4;
        stroke-dasharray: 5.55 2.4;
        stroke-width: 1.5px;
      }

      .st38 {
        clip-path: url(#clippath-13);
      }

      .st22 {
        font-size: 10.5px;
      }

      .st39 {
        clip-path: url(#clippath);
      }
    </style>
    <clipPath id="clippath">
      <rect class="st3" x="41.57" y="60.8" width="665.28" height="315.36"/>
    </clipPath>
    <clipPath id="clippath-1">
      <rect class="st3" x="41.57" y="60.8" width="665.28" height="315.36"/>
    </clipPath>
    <clipPath id="clippath-2">
      <rect class="st3" x="41.57" y="60.8" width="665.28" height="315.36"/>
    </clipPath>
    <clipPath id="clippath-3">
      <rect class="st3" x="41.57" y="60.8" width="665.28" height="315.36"/>
    </clipPath>
    <clipPath id="clippath-4">
      <rect class="st3" x="41.57" y="60.8" width="665.28" height="315.36"/>
    </clipPath>
    <clipPath id="clippath-5">
      <rect class="st3" x="41.57" y="60.8" width="665.28" height="315.36"/>
    </clipPath>
    <clipPath id="clippath-6">
      <rect class="st3" x="41.57" y="60.8" width="665.28" height="315.36"/>
    </clipPath>
    <clipPath id="clippath-7">
      <rect class="st3" x="41.57" y="60.8" width="665.28" height="315.36"/>
    </clipPath>
    <clipPath id="clippath-8">
      <rect class="st3" x="41.57" y="60.8" width="665.28" height="315.36"/>
    </clipPath>
    <clipPath id="clippath-9">
      <rect class="st3" x="41.57" y="60.8" width="665.28" height="315.36"/>
    </clipPath>
    <clipPath id="clippath-10">
      <rect class="st3" x="41.57" y="60.8" width="665.28" height="315.36"/>
    </clipPath>
    <clipPath id="clippath-11">
      <rect class="st3" x="41.57" y="60.8" width="665.28" height="315.36"/>
    </clipPath>
    <clipPath id="clippath-12">
      <rect class="st3" x="41.57" y="60.8" width="665.28" height="315.36"/>
    </clipPath>
    <clipPath id="clippath-13">
      <rect class="st3" x="41.57" y="60.8" width="665.28" height="315.36"/>
    </clipPath>
    <clipPath id="clippath-14">
      <rect class="st3" x="41.57" y="60.8" width="665.28" height="315.36"/>
    </clipPath>
    <clipPath id="clippath-15">
      <rect class="st3" x="41.57" y="60.8" width="665.28" height="315.36"/>
    </clipPath>
    <clipPath id="clippath-16">
      <rect class="st3" x="41.57" y="60.8" width="665.28" height="315.36"/>
    </clipPath>
    <clipPath id="clippath-17">
      <rect class="st3" x="41.57" y="60.8" width="665.28" height="315.36"/>
    </clipPath>
  </defs>
  <path class="st25" d="M0,428.22h761.15V0H0v428.22Z"/>
  <path class="st26" d="M41.57,376.16h665.28V60.8H41.57v315.36Z"/>
  <g class="st39">
    <path id="m0350cdfc96" class="st27" d="M71.81,321.5v54.66h604.8v-239.67h0l-100.8,46.25-100.8,42.05-100.8,29.43-100.8,29.43-100.8,21.02-100.8,16.82Z"/>
  </g>
  <g class="st30">
    <path class="st2" d="M71.81,376.16V60.8"/>
  </g>
  <path id="m619dd953c3" class="st1" d="M71.81,376.16v3.5"/>
  <text class="st23" transform="translate(59.09 390.76)"><tspan x="0" y="0">2024</tspan></text>
  <g class="st37">
    <path class="st2" d="M172.61,376.16V60.8"/>
  </g>
  <path id="m619dd953c31" data-name="m619dd953c3" class="st1" d="M172.61,376.16v3.5"/>
  <text class="st23" transform="translate(159.89 390.76)"><tspan x="0" y="0">2025</tspan></text>
  <g class="st33">
    <path class="st2" d="M273.41,376.16V60.8"/>
  </g>
  <path id="m619dd953c32" data-name="m619dd953c3" class="st1" d="M273.41,376.16v3.5"/>
  <text class="st23" transform="translate(260.69 390.76)"><tspan x="0" y="0">2026</tspan></text>
  <g class="st10">
    <path class="st2" d="M374.21,376.16V60.8"/>
  </g>
  <path id="m619dd953c33" data-name="m619dd953c3" class="st1" d="M374.21,376.16v3.5"/>
  <text class="st23" transform="translate(361.49 390.76)"><tspan x="0" y="0">2027</tspan></text>
  <g class="st31">
    <path class="st2" d="M475.01,376.16V60.8"/>
  </g>
  <path id="m619dd953c34" data-name="m619dd953c3" class="st1" d="M475.01,376.16v3.5"/>
  <text class="st23" transform="translate(462.29 390.76)"><tspan x="0" y="0">2028</tspan></text>
  <g class="st6">
    <path class="st2" d="M575.81,376.16V60.8"/>
  </g>
  <path id="m619dd953c35" data-name="m619dd953c3" class="st1" d="M575.81,376.16v3.5"/>
  <text class="st23" transform="translate(563.09 390.76)"><tspan x="0" y="0">2029</tspan></text>
  <g class="st7">
    <path class="st2" d="M676.61,376.16V60.8"/>
  </g>
  <path id="m619dd953c36" data-name="m619dd953c3" class="st1" d="M676.61,376.16v3.5"/>
  <text class="st23" transform="translate(663.89 390.76)"><tspan x="0" y="0">2030</tspan></text>
  <text class="st13" transform="translate(362.56 405.2)"><tspan x="0" y="0">Year</tspan></text>
  <g class="st32">
    <path class="st2" d="M41.57,376.16h665.28"/>
  </g>
  <path id="m2d772e94c4" class="st1" d="M41.57,376.16h-3.5"/>
  <text class="st23" transform="translate(28.21 379.96)"><tspan x="0" y="0">0</tspan></text>
  <g class="st11">
    <path class="st2" d="M41.57,334.11h665.28"/>
  </g>
  <path id="m2d772e94c41" data-name="m2d772e94c4" class="st1" d="M41.57,334.11h-3.5"/>
  <text class="st23" transform="translate(21.85 337.91)"><tspan x="0" y="0">10</tspan></text>
  <g class="st12">
    <path class="st2" d="M41.57,292.06h665.28"/>
  </g>
  <path id="m2d772e94c42" data-name="m2d772e94c4" class="st1" d="M41.57,292.06h-3.5"/>
  <text class="st23" transform="translate(21.85 295.86)"><tspan x="0" y="0">20</tspan></text>
  <g class="st28">
    <path class="st2" d="M41.57,250.01h665.28"/>
  </g>
  <path id="m2d772e94c43" data-name="m2d772e94c4" class="st1" d="M41.57,250.01h-3.5"/>
  <text class="st23" transform="translate(21.85 253.81)"><tspan x="0" y="0">30</tspan></text>
  <g class="st34">
    <path class="st2" d="M41.57,207.97h665.28"/>
  </g>
  <path id="m2d772e94c44" data-name="m2d772e94c4" class="st1" d="M41.57,207.97h-3.5"/>
  <text class="st23" transform="translate(21.85 211.77)"><tspan x="0" y="0">40</tspan></text>
  <g class="st38">
    <path class="st2" d="M41.57,165.92h665.28"/>
  </g>
  <path id="m2d772e94c45" data-name="m2d772e94c4" class="st1" d="M41.57,165.92h-3.5"/>
  <text class="st23" transform="translate(21.85 169.72)"><tspan x="0" y="0">50</tspan></text>
  <g class="st35">
    <path class="st2" d="M41.57,123.87h665.28"/>
  </g>
  <path id="m2d772e94c46" data-name="m2d772e94c4" class="st1" d="M41.57,123.87h-3.5"/>
  <text class="st23" transform="translate(21.85 127.67)"><tspan x="0" y="0">60</tspan></text>
  <g class="st9">
    <path class="st2" d="M41.57,81.82h665.28"/>
  </g>
  <path id="m2d772e94c47" data-name="m2d772e94c4" class="st1" d="M41.57,81.82h-3.5"/>
  <text class="st23" transform="translate(21.85 85.62)"><tspan x="0" y="0">70</tspan></text>
  <text class="st13" transform="translate(15.56 298.18) rotate(-90)"><tspan x="0" y="0">DC electricity demand (TWh)</tspan></text>
  <g class="st36">
    <path class="st4" d="M71.81,321.5l100.8-16.82,100.8-21.02,100.8-29.43,100.8-29.43,100.8-42.05,100.8-46.25"/>
  </g>
  <path class="st0" d="M41.57,376.16V60.8"/>
  <path class="st0" d="M41.57,376.16h665.28"/>
  <text class="st17" transform="translate(65.2 316.45)"><tspan x="0" y="0">13</tspan></text>
  <text class="st17" transform="translate(166 299.63)"><tspan x="0" y="0">17</tspan></text>
  <text class="st17" transform="translate(266.8 278.61)"><tspan x="0" y="0">22</tspan></text>
  <text class="st17" transform="translate(367.6 249.17)"><tspan x="0" y="0">29</tspan></text>
  <text class="st17" transform="translate(468.4 219.74)"><tspan x="0" y="0">36</tspan></text>
  <text class="st17" transform="translate(569.2 177.69)"><tspan x="0" y="0">46</tspan></text>
  <text class="st17" transform="translate(670 131.44)"><tspan x="0" y="0">57</tspan></text>
  <text class="st20" transform="translate(122.21 103.44)"><tspan x="0" y="0">DC share of national consumption:</tspan></text>
  <text class="st21" transform="translate(122.21 118.26)"><tspan x="0" y="0">2024 = 0.8% → 2030 = 2.6%</tspan></text>
  <path class="st29" d="M50.57,77.4h20v-7h-20v7Z"/>
  <text class="st21" transform="translate(78.57 77.4)"><tspan x="0" y="0">Data-centre electricity demand (TWh)</tspan></text>
  <path class="st5" d="M50.57,88.58h20"/>
  <text class="st21" transform="translate(78.57 92.08)"><tspan x="0" y="0">All-India consumption (TWh, right)</tspan></text>
  <path id="me88b0fb065" class="st1" d="M706.85,376.16h3.5"/>
  <text class="st18" transform="translate(713.85 379.96)"><tspan x="0" y="0">0</tspan></text>
  <path id="me88b0fb0651" data-name="me88b0fb065" class="st1" d="M706.85,340.32h3.5"/>
  <text class="st18" transform="translate(713.85 344.12)"><tspan x="0" y="0">250</tspan></text>
  <path id="me88b0fb0652" data-name="me88b0fb065" class="st1" d="M706.85,304.49h3.5"/>
  <text class="st18" transform="translate(713.85 308.29)"><tspan x="0" y="0">500</tspan></text>
  <path id="me88b0fb0653" data-name="me88b0fb065" class="st1" d="M706.85,268.65h3.5"/>
  <text class="st18" transform="translate(713.85 272.45)"><tspan x="0" y="0">750</tspan></text>
  <path id="me88b0fb0654" data-name="me88b0fb065" class="st1" d="M706.85,232.81h3.5"/>
  <text class="st18" transform="translate(713.85 236.61)"><tspan x="0" y="0">1000</tspan></text>
  <path id="me88b0fb0655" data-name="me88b0fb065" class="st1" d="M706.85,196.98h3.5"/>
  <text class="st18" transform="translate(713.85 200.78)"><tspan x="0" y="0">1250</tspan></text>
  <path id="me88b0fb0656" data-name="me88b0fb065" class="st1" d="M706.85,161.14h3.5"/>
  <text class="st18" transform="translate(713.85 164.94)"><tspan x="0" y="0">1500</tspan></text>
  <path id="me88b0fb0657" data-name="me88b0fb065" class="st1" d="M706.85,125.3h3.5"/>
  <text class="st18" transform="translate(713.85 129.1)"><tspan x="0" y="0">1750</tspan></text>
  <path id="me88b0fb0658" data-name="me88b0fb065" class="st1" d="M706.85,89.47h3.5"/>
  <text class="st18" transform="translate(713.85 93.27)"><tspan x="0" y="0">2000</tspan></text>
  <text class="st24" transform="translate(751.66 325.44) rotate(-90)"><tspan x="0" y="0">All-India electricity consumption (TWh)</tspan></text>
  <g class="st8">
    <path class="st5" d="M71.81,141.07l100.8-8.6,100.8-10.03,100.8-10.03,100.8-10.03,100.8-8.6,100.8-8.6"/>
  </g>
  <path class="st0" d="M41.57,376.16V60.8"/>
  <path class="st0" d="M41.57,376.16h665.28"/>
  <text class="st19" transform="translate(25.73 24.68)"><tspan x="0" y="0">India data-centre electricity demand 2024–2030</tspan></text>
  <text class="st22" transform="translate(25.73 43.56)"><tspan x="0" y="0">TWh per year; aggregate share rises from 0.8% to 2.6% of national consumption</tspan></text>
  <text class="st15" transform="translate(583.04 13.28)"><tspan x="0" y="0">Figure 12 · Techadyant Labs · 2026</tspan></text>
  <text class="st14" transform="translate(25.73 419.36)"><tspan x="0" y="0">Source: CEEW DC infrastructure publication; S&amp;P Global Commodity Insights; CEA 20th EPS.</tspan></text>
  <text class="st16" transform="translate(688.38 419.36)"><tspan x="0" y="0">Forecast</tspan></text>
</svg>