<?xml version="1.0" encoding="UTF-8"?>
<svg id="Layer_1" xmlns="http://www.w3.org/2000/svg" version="1.1" xmlns:xlink="http://www.w3.org/1999/xlink" viewBox="0 0 774.72 563.58">
  <!-- Generator: Adobe Illustrator 30.4.0, SVG Export Plug-In . SVG Version: 2.1.4 Build 226)  -->
  <defs>
    <style>
      .st0 {
        clip-path: url(#clippath-21);
      }

      .st1 {
        clip-path: url(#clippath-6);
      }

      .st2 {
        clip-path: url(#clippath-7);
      }

      .st3 {
        clip-path: url(#clippath-17);
      }

      .st4 {
        clip-path: url(#clippath-15);
      }

      .st5, .st6, .st7, .st8, .st9, .st10, .st11, .st12 {
        fill: #0f1828;
      }

      .st5, .st13, .st14, .st15 {
        font-size: 8px;
      }

      .st5, .st13, .st14, .st15, .st16, .st7, .st17, .st18, .st8, .st19, .st9, .st10, .st11, .st20, .st21, .st12 {
        isolation: isolate;
      }

      .st5, .st14, .st7, .st18, .st8, .st19, .st9, .st10 {
        font-family: ArialMT, Arial;
      }

      .st22 {
        clip-path: url(#clippath-18);
      }

      .st23 {
        clip-path: url(#clippath-4);
      }

      .st24 {
        clip-path: url(#clippath-22);
      }

      .st25 {
        clip-path: url(#clippath-23);
      }

      .st26, .st6, .st27, .st20 {
        stroke-width: .5px;
      }

      .st26, .st6, .st17, .st20 {
        stroke: #0f1828;
      }

      .st26, .st17 {
        fill: #c9a84c;
      }

      .st28 {
        clip-path: url(#clippath-9);
      }

      .st29 {
        clip-path: url(#clippath-10);
      }

      .st30, .st15, .st19 {
        fill: #fbf9f4;
      }

      .st31 {
        fill: #fff;
      }

      .st32 {
        clip-path: url(#clippath-25);
      }

      .st13, .st15, .st16, .st11, .st21, .st12 {
        font-family: Arial-ItalicMT, Arial;
        font-style: italic;
      }

      .st13, .st16, .st18, .st21 {
        fill: #4a5567;
      }

      .st33 {
        clip-path: url(#clippath-27);
      }

      .st27 {
        fill: #e8e5dd;
      }

      .st27, .st34, .st35 {
        stroke: #c0c5cc;
      }

      .st36 {
        clip-path: url(#clippath-11);
      }

      .st14 {
        fill: #c0c5cc;
      }

      .st37, .st34, .st35 {
        fill: none;
      }

      .st34 {
        stroke-dasharray: 2.22 .96;
        stroke-width: .6px;
      }

      .st34, .st35 {
        stroke-linejoin: round;
      }

      .st38 {
        clip-path: url(#clippath-1);
      }

      .st35 {
        stroke-linecap: square;
        stroke-width: .7px;
      }

      .st16 {
        font-size: 6px;
      }

      .st7 {
        font-size: 7px;
      }

      .st39 {
        clip-path: url(#clippath-5);
      }

      .st40 {
        clip-path: url(#clippath-20);
      }

      .st41 {
        clip-path: url(#clippath-8);
      }

      .st17 {
        opacity: .7;
        stroke-width: .57px;
      }

      .st18 {
        font-size: 9px;
      }

      .st8 {
        font-size: 15px;
      }

      .st42 {
        clip-path: url(#clippath-3);
      }

      .st19 {
        font-size: 11px;
      }

      .st43 {
        clip-path: url(#clippath-26);
      }

      .st44 {
        clip-path: url(#clippath-12);
      }

      .st45 {
        clip-path: url(#clippath-14);
      }

      .st9 {
        font-size: 8.5px;
      }

      .st10 {
        font-size: 10px;
      }

      .st46 {
        clip-path: url(#clippath-19);
      }

      .st11 {
        font-size: 7.5px;
      }

      .st47 {
        clip-path: url(#clippath-16);
      }

      .st48 {
        clip-path: url(#clippath-2);
      }

      .st49 {
        clip-path: url(#clippath-13);
      }

      .st20 {
        fill: #2bc5b4;
        opacity: .85;
      }

      .st50 {
        clip-path: url(#clippath-24);
      }

      .st21 {
        font-size: 10.5px;
      }

      .st51 {
        clip-path: url(#clippath);
      }

      .st12 {
        font-size: 6.5px;
      }
    </style>
    <clipPath id="clippath">
      <rect class="st37" x="63.36" y="59.36" width="669.6" height="443.52"/>
    </clipPath>
    <clipPath id="clippath-1">
      <rect class="st37" x="63.36" y="59.36" width="669.6" height="443.52"/>
    </clipPath>
    <clipPath id="clippath-2">
      <rect class="st37" x="63.36" y="59.36" width="669.6" height="443.52"/>
    </clipPath>
    <clipPath id="clippath-3">
      <rect class="st37" x="63.36" y="59.36" width="669.6" height="443.52"/>
    </clipPath>
    <clipPath id="clippath-4">
      <rect class="st37" x="63.36" y="59.36" width="669.6" height="443.52"/>
    </clipPath>
    <clipPath id="clippath-5">
      <rect class="st37" x="63.36" y="59.36" width="669.6" height="443.52"/>
    </clipPath>
    <clipPath id="clippath-6">
      <rect class="st37" x="63.36" y="59.36" width="669.6" height="443.52"/>
    </clipPath>
    <clipPath id="clippath-7">
      <rect class="st37" x="63.36" y="59.36" width="669.6" height="443.52"/>
    </clipPath>
    <clipPath id="clippath-8">
      <rect class="st37" x="63.36" y="59.36" width="669.6" height="443.52"/>
    </clipPath>
    <clipPath id="clippath-9">
      <rect class="st37" x="63.36" y="59.36" width="669.6" height="443.52"/>
    </clipPath>
    <clipPath id="clippath-10">
      <rect class="st37" x="63.36" y="59.36" width="669.6" height="443.52"/>
    </clipPath>
    <clipPath id="clippath-11">
      <rect class="st37" x="63.36" y="59.36" width="669.6" height="443.52"/>
    </clipPath>
    <clipPath id="clippath-12">
      <rect class="st37" x="63.36" y="59.36" width="669.6" height="443.52"/>
    </clipPath>
    <clipPath id="clippath-13">
      <rect class="st37" x="63.36" y="59.36" width="669.6" height="443.52"/>
    </clipPath>
    <clipPath id="clippath-14">
      <rect class="st37" x="63.36" y="59.36" width="669.6" height="443.52"/>
    </clipPath>
    <clipPath id="clippath-15">
      <rect class="st37" x="63.36" y="59.36" width="669.6" height="443.52"/>
    </clipPath>
    <clipPath id="clippath-16">
      <rect class="st37" x="63.36" y="59.36" width="669.6" height="443.52"/>
    </clipPath>
    <clipPath id="clippath-17">
      <rect class="st37" x="63.36" y="59.36" width="669.6" height="443.52"/>
    </clipPath>
    <clipPath id="clippath-18">
      <rect class="st37" x="92.51" y="59.36" width="669.6" height="443.52"/>
    </clipPath>
    <clipPath id="clippath-19">
      <rect class="st37" x="63.36" y="59.36" width="669.6" height="443.52"/>
    </clipPath>
    <clipPath id="clippath-20">
      <rect class="st37" x="63.36" y="59.36" width="669.6" height="443.52"/>
    </clipPath>
    <clipPath id="clippath-21">
      <rect class="st37" x="63.36" y="59.36" width="669.6" height="443.52"/>
    </clipPath>
    <clipPath id="clippath-22">
      <rect class="st37" x="63.36" y="59.36" width="669.6" height="443.52"/>
    </clipPath>
    <clipPath id="clippath-23">
      <rect class="st37" x="63.36" y="59.36" width="669.6" height="443.52"/>
    </clipPath>
    <clipPath id="clippath-24">
      <rect class="st37" x="63.36" y="59.36" width="669.6" height="443.52"/>
    </clipPath>
    <clipPath id="clippath-25">
      <rect class="st37" x="63.36" y="59.36" width="669.6" height="443.52"/>
    </clipPath>
    <clipPath id="clippath-26">
      <rect class="st37" x="63.36" y="59.36" width="669.6" height="443.52"/>
    </clipPath>
    <clipPath id="clippath-27">
      <rect class="st37" x="63.36" y="59.36" width="669.6" height="443.52"/>
    </clipPath>
  </defs>
  <path class="st30" d="M0,563.58h774.72V0H0v563.58Z"/>
  <rect class="st31" x="63.36" y="59.36" width="690.57" height="443.52"/>
  <g class="st51">
    <path class="st6" d="M147.06,135.25h502.2c1.49,0,2.23-.66,2.23-1.97v-49.28c0-1.31-.74-1.97-2.23-1.97H147.06c-1.49,0-2.23.66-2.23,1.97v49.28c0,1.31.74,1.97,2.23,1.97Z"/>
  </g>
  <g class="st38">
    <path class="st26" d="M119.16,243.17h111.6c1.12,0,1.67-.49,1.67-1.48v-49.28c0-.99-.56-1.48-1.67-1.48h-111.6c-1.12,0-1.67.49-1.67,1.48v49.28c0,.99.56,1.48,1.67,1.48Z"/>
  </g>
  <g class="st48">
    <path class="st26" d="M253.08,243.17h111.6c1.12,0,1.67-.49,1.67-1.48v-49.28c0-.99-.56-1.48-1.67-1.48h-111.6c-1.12,0-1.67.49-1.67,1.48v49.28c0,.99.56,1.48,1.67,1.48Z"/>
  </g>
  <g class="st42">
    <path class="st26" d="M387,243.17h111.6c1.12,0,1.67-.49,1.67-1.48v-49.28c0-.99-.56-1.48-1.67-1.48h-111.6c-1.12,0-1.67.49-1.67,1.48v49.28c0,.99.56,1.48,1.67,1.48Z"/>
  </g>
  <g class="st23">
    <path class="st26" d="M520.92,243.17h111.6c1.12,0,1.67-.49,1.67-1.48v-49.28c0-.99-.56-1.48-1.67-1.48h-111.6c-1.12,0-1.67.49-1.67,1.48v49.28c0,.99.56,1.48,1.67,1.48Z"/>
  </g>
  <g class="st39">
    <path class="st20" d="M71.73,338.78h94.86c.74,0,1.12-.33,1.12-.99v-44.35c0-.66-.37-.99-1.12-.99h-94.86c-.74,0-1.12.33-1.12.99v44.35c0,.66.37.99,1.12.99Z"/>
  </g>
  <g class="st1">
    <path class="st20" d="M183.33,338.78h94.86c.74,0,1.12-.33,1.12-.99v-44.35c0-.66-.37-.99-1.12-.99h-94.86c-.74,0-1.12.33-1.12.99v44.35c0,.66.37.99,1.12.99Z"/>
  </g>
  <g class="st2">
    <path class="st20" d="M294.93,338.78h94.86c.74,0,1.12-.33,1.12-.99v-44.35c0-.66-.37-.99-1.12-.99h-94.86c-.74,0-1.12.33-1.12.99v44.35c0,.66.37.99,1.12.99Z"/>
  </g>
  <g class="st41">
    <path class="st20" d="M406.53,338.78h94.86c.74,0,1.12-.33,1.12-.99v-44.35c0-.66-.37-.99-1.12-.99h-94.86c-.74,0-1.12.33-1.12.99v44.35c0,.66.37.99,1.12.99Z"/>
  </g>
  <g class="st28">
    <path class="st20" d="M518.13,338.78h94.86c.74,0,1.12-.33,1.12-.99v-44.35c0-.66-.37-.99-1.12-.99h-94.86c-.74,0-1.12.33-1.12.99v44.35c0,.66.37.99,1.12.99Z"/>
  </g>
  <g class="st29">
    <path class="st20" d="M629.73,338.78h94.86c.74,0,1.12-.33,1.12-.99v-44.35c0-.66-.37-.99-1.12-.99h-94.86c-.74,0-1.12.33-1.12.99v44.35c0,.66.37.99,1.12.99Z"/>
  </g>
  <g class="st36">
    <path class="st27" d="M80.1,447.19h78.12c.74,0,1.12-.33,1.12-.99v-49.28c0-.66-.37-.99-1.12-.99h-78.12c-.74,0-1.12.33-1.12.99v49.28c0,.66.37.99,1.12.99Z"/>
  </g>
  <g class="st44">
    <path class="st27" d="M163.8,447.19h78.12c.74,0,1.12-.33,1.12-.99v-49.28c0-.66-.37-.99-1.12-.99h-78.12c-.74,0-1.12.33-1.12.99v49.28c0,.66.37.99,1.12.99Z"/>
  </g>
  <g class="st49">
    <path class="st27" d="M247.5,447.19h78.12c.74,0,1.12-.33,1.12-.99v-49.28c0-.66-.37-.99-1.12-.99h-78.12c-.74,0-1.12.33-1.12.99v49.28c0,.66.37.99,1.12.99Z"/>
  </g>
  <g class="st45">
    <path class="st27" d="M331.2,447.19h78.12c.74,0,1.12-.33,1.12-.99v-49.28c0-.66-.37-.99-1.12-.99h-78.12c-.74,0-1.12.33-1.12.99v49.28c0,.66.37.99,1.12.99Z"/>
  </g>
  <g class="st4">
    <path class="st27" d="M414.9,447.19h78.12c.74,0,1.12-.33,1.12-.99v-49.28c0-.66-.37-.99-1.12-.99h-78.12c-.74,0-1.12.33-1.12.99v49.28c0,.66.37.99,1.12.99Z"/>
  </g>
  <g class="st47">
    <path class="st27" d="M498.6,447.19h78.12c.74,0,1.12-.33,1.12-.99v-49.28c0-.66-.37-.99-1.12-.99h-78.12c-.74,0-1.12.33-1.12.99v49.28c0,.66.37.99,1.12.99Z"/>
  </g>
  <g class="st3">
    <path class="st27" d="M582.3,447.19h78.12c.74,0,1.12-.33,1.12-.99v-49.28c0-.66-.37-.99-1.12-.99h-78.12c-.74,0-1.12.33-1.12.99v49.28c0,.66.37.99,1.12.99Z"/>
  </g>
  <g class="st22">
    <path class="st27" d="M667.25,447.19h78.12c.74,0,1.12-.33,1.12-.99v-49.28c0-.66-.37-.99-1.12-.99h-78.12c-.74,0-1.12.33-1.12.99v49.28c0,.66.37.99,1.12.99Z"/>
  </g>
  <rect class="st37" x="63.36" y="59.36" width="669.6" height="443.52"/>
  <path class="st17" d="M78.24,495.24h663.01c1.47,0,2.21-.49,2.21-1.48v-24.64c0-.99-.74-1.48-2.21-1.48H78.24c-1.47,0-2.21.49-2.21,1.48v24.64c0,.99.74,1.48,2.21,1.48Z"/>
  <g class="st46">
    <path class="st35" d="M174.96,192.41v-59.14"/>
  </g>
  <g class="st40">
    <path class="st35" d="M308.88,192.41v-59.14"/>
  </g>
  <g class="st0">
    <path class="st35" d="M442.8,192.41v-59.14"/>
  </g>
  <g class="st24">
    <path class="st35" d="M576.72,192.41v-59.14"/>
  </g>
  <g class="st25">
    <path class="st34" d="M119.16,293.44l55.8-51.74"/>
  </g>
  <g class="st50">
    <path class="st34" d="M230.76,293.44l-55.8-51.74"/>
  </g>
  <g class="st32">
    <path class="st34" d="M342.36,293.44l-167.4-51.74"/>
  </g>
  <g class="st43">
    <path class="st34" d="M453.96,293.44l-145.08-51.74"/>
  </g>
  <g class="st33">
    <path class="st34" d="M565.56,293.44l-122.76-51.74"/>
  </g>
  <path class="st34" d="M677.16,293.44l-100.44-51.74"/>
  <text class="st19" transform="translate(299.89 109.21)"><tspan x="0" y="0">CABINET / UNION GOVERNMENT</tspan></text>
  <text class="st15" transform="translate(195.01 123.17)"><tspan x="0" y="0">IndiaAI Mission (Mar 2024) · ISM 1.0 (Dec 2021) · ISM 2.0 (Feb 2026) · NDC (RE) · Atmanirbhar Bharat</tspan></text>
  <text class="st10" transform="translate(158.87 210.65)"><tspan x="0" y="0">MeitY</tspan></text>
  <text class="st11" transform="translate(155.27 218.51)"><tspan x="0" y="0">Ministry of</tspan></text>
  <text class="st11" transform="translate(145.73 226.91)"><tspan x="0" y="0">Electronics &amp; IT</tspan></text>
  <text class="st10" transform="translate(294.94 210.65)"><tspan x="0" y="0">MoCI</tspan></text>
  <text class="st11" transform="translate(289.19 218.51)"><tspan x="0" y="0">Ministry of</tspan></text>
  <text class="st11" transform="translate(267.71 226.91)"><tspan x="0" y="0">Commerce &amp; Industry</tspan></text>
  <text class="st10" transform="translate(408.99 210.65)"><tspan x="0" y="0">MoP / MNRE</tspan></text>
  <text class="st11" transform="translate(426.99 218.51)"><tspan x="0" y="0">Power +</tspan></text>
  <text class="st11" transform="translate(394.23 226.91)"><tspan x="0" y="0">New &amp; Renewable Energy</tspan></text>
  <text class="st10" transform="translate(548.15 210.65)"><tspan x="0" y="0">MoF / DEA</tspan></text>
  <text class="st11" transform="translate(559.65 218.51)"><tspan x="0" y="0">Finance /</tspan></text>
  <text class="st11" transform="translate(516.64 226.91)"><tspan x="0" y="0">Department of Economic Affairs</tspan></text>
  <text class="st9" transform="translate(104.32 304.69)"><tspan x="0" y="0">IndiaAI</tspan></text>
  <text class="st9" transform="translate(103.01 314.21)"><tspan x="0" y="0">Mission</tspan></text>
  <text class="st12" transform="translate(95.58 325.73)"><tspan x="0" y="0">Rs 10,372 cr · </tspan><tspan x="-6.32" y="7.8">GPU empanelment</tspan></text>
  <text class="st9" transform="translate(221.89 309.21)"><tspan x="0" y="0">ISM</tspan></text>
  <text class="st12" transform="translate(206.49 319.18)"><tspan x="0" y="0">Rs 76,000 cr +</tspan></text>
  <text class="st12" transform="translate(212.55 326.46)"><tspan x="0" y="0">12 projects</tspan></text>
  <text class="st9" transform="translate(311.15 306.69)"><tspan x="0" y="0">C-DAC ChipIN /</tspan></text>
  <text class="st9" transform="translate(334.97 317.51)"><tspan x="0" y="0">DLI</tspan></text>
  <text class="st12" transform="translate(304.09 329.46)"><tspan x="0" y="0">270 universities · 23+ proj</tspan></text>
  <text class="st9" transform="translate(423.56 309.21)"><tspan x="0" y="0">STPI / NIELIT</tspan></text>
  <text class="st12" transform="translate(421.61 326.46)"><tspan x="0" y="0">IT exports + skilling</tspan></text>
  <text class="st9" transform="translate(532.08 311.21)"><tspan x="0" y="0">CEA / DISCOMs</tspan></text>
  <text class="st12" transform="translate(536.71 328.46)"><tspan x="0" y="0">Grid + tariff orders</tspan></text>
  <text class="st9" transform="translate(658.45 303.69)"><tspan x="0" y="0">NaBFID /</tspan></text>
  <text class="st9" transform="translate(665.34 313.21)"><tspan x="0" y="0">InvITs</tspan></text>
  <text class="st12" transform="translate(643.87 330.46)"><tspan x="0" y="0">Infrastructure finance</tspan></text>
  <text class="st7" transform="translate(102.5 407.87)"><tspan x="0" y="0">Compute</tspan></text>
  <text class="st7" transform="translate(93 415.71)"><tspan x="0" y="0">Empanelment</tspan></text>
  <text class="st16" transform="translate(82.39 432.41)"><tspan x="0" y="0">38k+ GPUs · 7 providers</tspan></text>
  <text class="st7" transform="translate(183.31 407.87)"><tspan x="0" y="0">PLI Semi /</tspan></text>
  <text class="st7" transform="translate(178.82 415.71)"><tspan x="0" y="0">Capex grant</tspan></text>
  <text class="st16" transform="translate(167.11 432.41)"><tspan x="0" y="0">50% pari-passu support</tspan></text>
  <text class="st7" transform="translate(259.16 407.82)"><tspan x="0" y="0">DLI 50% subsidy</tspan></text>
  <text class="st7" transform="translate(274.88 415.71)"><tspan x="0" y="0">+ C2S</tspan></text>
  <text class="st16" transform="translate(256.03 432.41)"><tspan x="0" y="0">Cap Rs 15 cr/project</tspan></text>
  <text class="st7" transform="translate(347.49 407.82)"><tspan x="0" y="0">GCC Payroll</tspan></text>
  <text class="st7" transform="translate(351.74 415.71)"><tspan x="0" y="0">subsidies</tspan></text>
  <text class="st16" transform="translate(336.68 432.41)"><tspan x="0" y="0">TN, KA, MH state-level</tspan></text>
  <text class="st7" transform="translate(422.81 407.87)"><tspan x="0" y="0">Open-access RE</tspan></text>
  <text class="st7" transform="translate(444.36 415.71)"><tspan x="0" y="0">PPAs</tspan></text>
  <text class="st16" transform="translate(413.72 432.41)"><tspan x="0" y="0">CSS waivers state-by-state</tspan></text>
  <text class="st7" transform="translate(521.8 408.87)"><tspan x="0" y="0">EMC 2.0</tspan></text>
  <text class="st7" transform="translate(524.82 416.71)"><tspan x="0" y="0">grants</tspan></text>
  <text class="st16" transform="translate(507.91 432.41)"><tspan x="0" y="0">Land + cluster infra</tspan></text>
  <text class="st7" transform="translate(599.1 407.87)"><tspan x="0" y="0">InvIT / REIT</tspan></text>
  <text class="st7" transform="translate(606.92 415.71)"><tspan x="0" y="0">listings</tspan></text>
  <text class="st16" transform="translate(586.88 432.41)"><tspan x="0" y="0">DC asset securitisation</tspan></text>
  <text class="st7" transform="translate(686.91 407.79)"><tspan x="0" y="0">FutureSkills /</tspan></text>
  <text class="st7" transform="translate(699.91 415.63)"><tspan x="0" y="0">ChipIN</tspan></text>
  <text class="st16" transform="translate(673.31 433.67)"><tspan x="0" y="0">18.56 lakh + 67k trained</tspan></text>
  <text class="st5" transform="translate(102.85 484.63)"><tspan x="0" y="0">BENEFICIARIES: Tata Electronics · Foxconn · Micron · Reliance · Adani · AWS · MSFT · Google · 1,700+ GCCs · 60,000+ Indian fabless designers · 7.83 cr MSMEs</tspan></text>
  <text class="st18" transform="translate(52.78 128.23) rotate(-90)"><tspan x="0" y="0">CABINET</tspan></text>
  <text class="st18" transform="translate(52.78 242.72) rotate(-90)"><tspan x="0" y="0">MINISTRIES</tspan></text>
  <text class="st18" transform="translate(52.78 338.48) rotate(-90)"><tspan x="0" y="0">AGENCIES</tspan></text>
  <text class="st18" transform="translate(52.78 451.52) rotate(-90)"><tspan x="0" y="0">INSTRUMENTS</tspan></text>
  <text class="st18" transform="translate(52.78 524.32) rotate(-90)"><tspan x="0" y="0">BENEFICIARIES</tspan></text>
  <text class="st8" transform="translate(7.2 24.68)"><tspan x="0" y="0">India AI Policy Architecture — institutional flow</tspan></text>
  <text class="st21" transform="translate(7.2 41.32)"><tspan x="0" y="0">From Cabinet approvals through ministries and agencies down to instruments and corporate beneficiaries</tspan></text>
  <text class="st14" transform="translate(627.87 13.28)"><tspan x="0" y="0">Figure 29 · Techadyant Labs · 2026</tspan></text>
  <text class="st13" transform="translate(7.2 554.72)"><tspan x="0" y="0">Source: PIB releases (PRIDs 2012375, 2108602, 2128604, 2155456, 2221522, 2258119); state government policy PDFs; Techadyant Labs synthesis.</tspan></text>
</svg>