<?xml version="1.0" encoding="UTF-8"?>
<svg id="Layer_1" xmlns="http://www.w3.org/2000/svg" version="1.1" xmlns:xlink="http://www.w3.org/1999/xlink" viewBox="0 0 759.27 462.06">
  <!-- Generator: Adobe Illustrator 30.4.0, SVG Export Plug-In . SVG Version: 2.1.4 Build 226)  -->
  <defs>
    <style>
      .st0 {
        stroke-linecap: square;
      }

      .st0, .st1, .st2, .st3, .st4, .st5 {
        stroke: #0f1828;
      }

      .st0, .st6, .st7 {
        stroke-width: .8px;
      }

      .st0, .st8, .st7 {
        fill: none;
      }

      .st9 {
        clip-path: url(#clippath-21);
      }

      .st10 {
        clip-path: url(#clippath-6);
      }

      .st11 {
        clip-path: url(#clippath-7);
      }

      .st12 {
        clip-path: url(#clippath-17);
      }

      .st13 {
        clip-path: url(#clippath-15);
      }

      .st14 {
        clip-path: url(#clippath-18);
      }

      .st15 {
        clip-path: url(#clippath-4);
      }

      .st16 {
        clip-path: url(#clippath-22);
      }

      .st17 {
        clip-path: url(#clippath-23);
      }

      .st1, .st2, .st4, .st5 {
        stroke-width: .4px;
      }

      .st1, .st18 {
        fill: #2bc5b4;
      }

      .st19 {
        clip-path: url(#clippath-9);
      }

      .st20 {
        clip-path: url(#clippath-10);
      }

      .st21 {
        font-size: 11px;
      }

      .st21, .st22, .st23, .st24, .st25, .st26, .st27, .st28, .st29, .st30 {
        isolation: isolate;
      }

      .st21, .st23, .st24, .st25, .st27, .st29, .st30 {
        font-family: ArialMT, Arial;
      }

      .st21, .st25, .st2, .st27, .st3 {
        fill: #0f1828;
      }

      .st31 {
        fill: #fbf9f4;
      }

      .st32 {
        fill: #fff;
      }

      .st22, .st6, .st24, .st33, .st26, .st5, .st28, .st29, .st30 {
        fill: #4a5567;
      }

      .st22, .st23 {
        font-size: 8px;
      }

      .st22, .st26, .st28 {
        font-family: Arial-ItalicMT, Arial;
        font-style: italic;
      }

      .st6, .st33 {
        stroke: #4a5567;
      }

      .st6, .st7 {
        stroke-linejoin: round;
      }

      .st34 {
        clip-path: url(#clippath-11);
      }

      .st23 {
        fill: #c0c5cc;
      }

      .st35 {
        clip-path: url(#clippath-1);
      }

      .st36 {
        clip-path: url(#clippath-5);
      }

      .st37 {
        clip-path: url(#clippath-20);
      }

      .st38 {
        clip-path: url(#clippath-8);
      }

      .st24, .st26 {
        font-size: 9px;
      }

      .st25 {
        font-size: 15px;
      }

      .st39 {
        clip-path: url(#clippath-3);
      }

      .st40 {
        clip-path: url(#clippath-12);
      }

      .st41 {
        clip-path: url(#clippath-14);
      }

      .st18 {
        stroke: #2bc5b4;
      }

      .st27, .st29 {
        font-size: 10px;
      }

      .st42 {
        clip-path: url(#clippath-19);
      }

      .st43 {
        stroke: #c9a84c;
      }

      .st43, .st4 {
        fill: #c9a84c;
      }

      .st7 {
        stroke: #c0c5cc;
        stroke-dasharray: 2.96 1.28;
        stroke-opacity: .4;
      }

      .st44 {
        clip-path: url(#clippath-16);
      }

      .st45 {
        clip-path: url(#clippath-2);
      }

      .st46 {
        clip-path: url(#clippath-13);
      }

      .st28 {
        font-size: 10.5px;
      }

      .st47 {
        clip-path: url(#clippath);
      }

      .st30 {
        font-size: 9.5px;
      }
    </style>
    <clipPath id="clippath">
      <rect class="st8" x="102.63" y="64.76" width="649.44" height="351"/>
    </clipPath>
    <clipPath id="clippath-1">
      <rect class="st8" x="102.63" y="64.76" width="649.44" height="351"/>
    </clipPath>
    <clipPath id="clippath-2">
      <rect class="st8" x="102.63" y="64.76" width="649.44" height="351"/>
    </clipPath>
    <clipPath id="clippath-3">
      <rect class="st8" x="102.63" y="64.76" width="649.44" height="351"/>
    </clipPath>
    <clipPath id="clippath-4">
      <rect class="st8" x="102.63" y="64.76" width="649.44" height="351"/>
    </clipPath>
    <clipPath id="clippath-5">
      <rect class="st8" x="102.63" y="64.76" width="649.44" height="351"/>
    </clipPath>
    <clipPath id="clippath-6">
      <rect class="st8" x="102.63" y="64.76" width="649.44" height="351"/>
    </clipPath>
    <clipPath id="clippath-7">
      <rect class="st8" x="102.63" y="64.76" width="649.44" height="351"/>
    </clipPath>
    <clipPath id="clippath-8">
      <rect class="st8" x="102.63" y="64.76" width="649.44" height="351"/>
    </clipPath>
    <clipPath id="clippath-9">
      <rect class="st8" x="102.63" y="64.76" width="649.44" height="351"/>
    </clipPath>
    <clipPath id="clippath-10">
      <rect class="st8" x="102.63" y="64.76" width="649.44" height="351"/>
    </clipPath>
    <clipPath id="clippath-11">
      <rect class="st8" x="102.63" y="64.76" width="649.44" height="351"/>
    </clipPath>
    <clipPath id="clippath-12">
      <rect class="st8" x="102.63" y="64.76" width="649.44" height="351"/>
    </clipPath>
    <clipPath id="clippath-13">
      <rect class="st8" x="102.63" y="64.76" width="649.44" height="351"/>
    </clipPath>
    <clipPath id="clippath-14">
      <rect class="st8" x="102.63" y="64.76" width="649.44" height="351"/>
    </clipPath>
    <clipPath id="clippath-15">
      <rect class="st8" x="102.63" y="64.76" width="649.44" height="351"/>
    </clipPath>
    <clipPath id="clippath-16">
      <rect class="st8" x="102.63" y="64.76" width="649.44" height="351"/>
    </clipPath>
    <clipPath id="clippath-17">
      <rect class="st8" x="102.63" y="64.76" width="649.44" height="351"/>
    </clipPath>
    <clipPath id="clippath-18">
      <rect class="st8" x="102.63" y="64.76" width="649.44" height="351"/>
    </clipPath>
    <clipPath id="clippath-19">
      <rect class="st8" x="102.63" y="64.76" width="649.44" height="351"/>
    </clipPath>
    <clipPath id="clippath-20">
      <rect class="st8" x="102.63" y="64.76" width="649.44" height="351"/>
    </clipPath>
    <clipPath id="clippath-21">
      <rect class="st8" x="102.63" y="64.76" width="649.44" height="351"/>
    </clipPath>
    <clipPath id="clippath-22">
      <rect class="st8" x="102.63" y="64.76" width="649.44" height="351"/>
    </clipPath>
    <clipPath id="clippath-23">
      <rect class="st8" x="102.63" y="64.76" width="649.44" height="351"/>
    </clipPath>
  </defs>
  <path class="st31" d="M0,462.06h759.27V0H0v462.06Z"/>
  <path class="st32" d="M102.63,415.76h649.44V64.76H102.63v351Z"/>
  <g class="st47">
    <path class="st2" d="M102.63,80.71h537.26v25.67H102.63v-25.67Z"/>
  </g>
  <g class="st35">
    <path class="st4" d="M102.63,117.39h160.12v25.67H102.63v-25.67Z"/>
  </g>
  <g class="st45">
    <path class="st4" d="M102.63,154.07h132.93v25.67H102.63v-25.67Z"/>
  </g>
  <g class="st39">
    <path class="st4" d="M102.63,190.74h44.87v25.67h-44.87v-25.67Z"/>
  </g>
  <g class="st15">
    <path class="st4" d="M102.63,227.42h21.88v25.67h-21.88v-25.67Z"/>
  </g>
  <g class="st36">
    <path class="st4" d="M102.63,264.1h19.52v25.67h-19.52v-25.67Z"/>
  </g>
  <g class="st10">
    <path class="st1" d="M102.63,300.78h26.57v25.67h-26.57v-25.67Z"/>
  </g>
  <g class="st11">
    <path class="st4" d="M102.63,337.45h5.12v25.67h-5.12v-25.67Z"/>
  </g>
  <g class="st38">
    <path class="st5" d="M102.63,374.13h27.16v25.67h-27.16v-25.67Z"/>
  </g>
  <g class="st19">
    <path class="st7" d="M102.63,415.76V64.76"/>
  </g>
  <path id="m29c0ca8b79" class="st6" d="M102.63,415.76v3.5"/>
  <text class="st29" transform="translate(99.45 430.36)"><tspan x="0" y="0">0</tspan></text>
  <g class="st20">
    <path class="st7" d="M220.71,415.76V64.76"/>
  </g>
  <path id="m29c0ca8b791" data-name="m29c0ca8b79" class="st6" d="M220.71,415.76v3.5"/>
  <text class="st29" transform="translate(204.8 430.36)"><tspan x="0" y="0">20000</tspan></text>
  <g class="st34">
    <path class="st7" d="M338.79,415.76V64.76"/>
  </g>
  <path id="m29c0ca8b792" data-name="m29c0ca8b79" class="st6" d="M338.79,415.76v3.5"/>
  <text class="st29" transform="translate(322.88 430.36)"><tspan x="0" y="0">40000</tspan></text>
  <g class="st40">
    <path class="st7" d="M456.87,415.76V64.76"/>
  </g>
  <path id="m29c0ca8b793" data-name="m29c0ca8b79" class="st6" d="M456.87,415.76v3.5"/>
  <text class="st29" transform="translate(440.96 430.36)"><tspan x="0" y="0">60000</tspan></text>
  <g class="st46">
    <path class="st7" d="M574.95,415.76V64.76"/>
  </g>
  <path id="m29c0ca8b794" data-name="m29c0ca8b79" class="st6" d="M574.95,415.76v3.5"/>
  <text class="st29" transform="translate(559.04 430.36)"><tspan x="0" y="0">80000</tspan></text>
  <g class="st41">
    <path class="st7" d="M693.03,415.76V64.76"/>
  </g>
  <path id="m29c0ca8b795" data-name="m29c0ca8b79" class="st6" d="M693.03,415.76v3.5"/>
  <text class="st29" transform="translate(673.94 430.36)"><tspan x="0" y="0">100000</tspan></text>
  <text class="st21" transform="translate(346.81 444.8)"><tspan x="0" y="0">Announced capex (INR crore)</tspan></text>
  <g class="st13">
    <path class="st7" d="M102.63,93.55h649.44"/>
  </g>
  <path id="mdfdc8d6ba4" class="st6" d="M102.63,93.55h-3.5"/>
  <text class="st30" transform="translate(44.69 92.56)"><tspan x="0" y="0">Tata–PSMC</tspan></text>
  <text class="st30" transform="translate(40.05 103.2)"><tspan x="0" y="0">Dholera fab</tspan></text>
  <g class="st44">
    <path class="st7" d="M102.63,130.23h649.44"/>
  </g>
  <path id="mdfdc8d6ba41" data-name="mdfdc8d6ba4" class="st6" d="M102.63,130.23h-3.5"/>
  <text class="st30" transform="translate(49.89 129.24)"><tspan x="0" y="0">Tata-TSAT</tspan></text>
  <text class="st30" transform="translate(56.98 139.88)"><tspan x="0" y="0">Jagiroad</tspan></text>
  <g class="st12">
    <path class="st7" d="M102.63,166.9h649.44"/>
  </g>
  <path id="mdfdc8d6ba42" data-name="mdfdc8d6ba4" class="st6" d="M102.63,166.9h-3.5"/>
  <text class="st30" transform="translate(64.05 165.92)"><tspan x="0" y="0">Micron</tspan></text>
  <text class="st30" transform="translate(59.88 176.55)"><tspan x="0" y="0">Sanand</tspan></text>
  <g class="st14">
    <path class="st7" d="M102.63,203.58h649.44"/>
  </g>
  <path id="mdfdc8d6ba43" data-name="mdfdc8d6ba4" class="st6" d="M102.63,203.58h-3.5"/>
  <text class="st30" transform="translate(54.85 202.59)"><tspan x="0" y="0">CG Semi</tspan></text>
  <text class="st30" transform="translate(59.88 213.23)"><tspan x="0" y="0">Sanand</tspan></text>
  <g class="st42">
    <path class="st7" d="M102.63,240.26h649.44"/>
  </g>
  <path id="mdfdc8d6ba44" data-name="mdfdc8d6ba4" class="st6" d="M102.63,240.26h-3.5"/>
  <text class="st30" transform="translate(34.13 239.27)"><tspan x="0" y="0">HCL-Foxconn</tspan></text>
  <text class="st30" transform="translate(38.03 249.91)"><tspan x="0" y="0">Jewar/YEIDA</tspan></text>
  <g class="st37">
    <path class="st7" d="M102.63,276.94h649.44"/>
  </g>
  <path id="mdfdc8d6ba45" data-name="mdfdc8d6ba4" class="st6" d="M102.63,276.94h-3.5"/>
  <text class="st30" transform="translate(61.31 275.95)"><tspan x="0" y="0">Kaynes</tspan></text>
  <text class="st30" transform="translate(59.88 286.59)"><tspan x="0" y="0">Sanand</tspan></text>
  <g class="st9">
    <path class="st7" d="M102.63,313.61h649.44"/>
  </g>
  <path id="mdfdc8d6ba46" data-name="mdfdc8d6ba4" class="st6" d="M102.63,313.61h-3.5"/>
  <text class="st30" transform="translate(43.52 312.63)"><tspan x="0" y="0">SCL Mohali</tspan></text>
  <text class="st30" transform="translate(7.2 323.26)"><tspan x="0" y="0">(non-ISM upgrade)</tspan></text>
  <g class="st16">
    <path class="st7" d="M102.63,350.29h649.44"/>
  </g>
  <path id="mdfdc8d6ba47" data-name="mdfdc8d6ba4" class="st6" d="M102.63,350.29h-3.5"/>
  <text class="st30" transform="translate(25.85 349.3)"><tspan x="0" y="0">Suchi Semicon</tspan></text>
  <text class="st30" transform="translate(70.13 359.94)"><tspan x="0" y="0">Surat</tspan></text>
  <g class="st17">
    <path class="st7" d="M102.63,386.97h649.44"/>
  </g>
  <path id="mdfdc8d6ba48" data-name="mdfdc8d6ba4" class="st6" d="M102.63,386.97h-3.5"/>
  <text class="st30" transform="translate(35.07 385.98)"><tspan x="0" y="0">ASIP / others</tspan></text>
  <text class="st30" transform="translate(21.31 396.62)"><tspan x="0" y="0">Tranche Aug-25</tspan></text>
  <path class="st0" d="M102.63,415.76V64.76"/>
  <path class="st0" d="M102.63,415.76h649.44"/>
  <text class="st24" transform="translate(648.75 96.03)"><tspan x="0" y="0">Rs 91,000 cr · Fab</tspan></text>
  <text class="st24" transform="translate(271.6 132.71)"><tspan x="0" y="0">Rs 27,120 cr · OSAT</tspan></text>
  <text class="st24" transform="translate(244.42 169.39)"><tspan x="0" y="0">Rs 22,516 cr · OSAT</tspan></text>
  <text class="st24" transform="translate(156.36 206.07)"><tspan x="0" y="0">Rs 7,600 cr · OSAT</tspan></text>
  <text class="st24" transform="translate(133.37 242.74)"><tspan x="0" y="0">Rs 3,706 cr · OSAT</tspan></text>
  <text class="st24" transform="translate(131.01 279.42)"><tspan x="0" y="0">Rs 3,307 cr · OSAT</tspan></text>
  <text class="st24" transform="translate(138.05 316.1)"><tspan x="0" y="0">Rs 4,500 cr · Fab (legacy)</tspan></text>
  <text class="st24" transform="translate(116.61 352.77)"><tspan x="0" y="0">Rs 868 cr · OSAT</tspan></text>
  <text class="st24" transform="translate(138.64 389.45)"><tspan x="0" y="0">Rs 4,600 cr · Mixed</tspan></text>
  <text class="st26" transform="translate(102.63 412.64)"><tspan x="0" y="0">Cumulative announced: ~Rs 1.65 lakh crore · ISM 2.0 added Rs 1,000 cr line for FY26-27</tspan></text>
  <path class="st3" d="M582.42,360.64h20v-7h-20v7Z"/>
  <text class="st27" transform="translate(610.42 360.64)"><tspan x="0" y="0">Fab (leading mature node)</tspan></text>
  <path class="st43" d="M582.42,375.32h20v-7h-20v7Z"/>
  <text class="st27" transform="translate(610.42 375.32)"><tspan x="0" y="0">OSAT / ATMP</tspan></text>
  <path class="st18" d="M582.42,390h20v-7h-20v7Z"/>
  <text class="st27" transform="translate(610.42 390)"><tspan x="0" y="0">Legacy fab upgrade</tspan></text>
  <path class="st33" d="M582.42,404.68h20v-7h-20v7Z"/>
  <text class="st27" transform="translate(610.42 404.68)"><tspan x="0" y="0">Mixed tranche</tspan></text>
  <text class="st25" transform="translate(31.35 24.68)"><tspan x="0" y="0">India Semiconductor Mission: 12 approved projects</tspan></text>
  <text class="st28" transform="translate(31.35 45)"><tspan x="0" y="0">Capex by project, May 2026 status. Tata-PSMC Dholera dominates aggregate; OSATs dominate count</tspan></text>
  <text class="st23" transform="translate(593.75 13.28)"><tspan x="0" y="0">Figure 7 · Techadyant Labs · 2026</tspan></text>
  <text class="st22" transform="translate(31.35 453.2)"><tspan x="0" y="0">Source: PIB PRID 2258119, 2128604, 2050859, 2161666, 2093860, 2198056, 2196011, 2155456; Micron 8-K; Tata Electronics releases.</tspan></text>
</svg>