<?xml version="1.0" encoding="UTF-8"?>
<svg id="Layer_1" xmlns="http://www.w3.org/2000/svg" version="1.1" xmlns:xlink="http://www.w3.org/1999/xlink" viewBox="0 0 1100 700">
  <!-- Generator: Adobe Illustrator 30.4.0, SVG Export Plug-In . SVG Version: 2.1.4 Build 226)  -->
  <defs>
    <style>
      .st0, .st1, .st2, .st3, .st4, .st5, .st6, .st7, .st8, .st9, .st10, .st11, .st12, .st13, .st14, .st15 {
        isolation: isolate;
      }

      .st0, .st1, .st2, .st3, .st7, .st8, .st10, .st13, .st14 {
        font-family: Arial-BoldMT, Arial;
        font-weight: 700;
      }

      .st0, .st7 {
        font-size: 20px;
      }

      .st0, .st16, .st14 {
        fill: #0b1b3b;
      }

      .st1, .st17, .st5, .st7, .st8, .st9, .st10 {
        fill: #fff;
      }

      .st1, .st14 {
        font-size: 14px;
      }

      .st18 {
        filter: url(#soft3);
      }

      .st19 {
        filter: url(#soft1);
      }

      .st20 {
        filter: url(#soft2);
      }

      .st2 {
        letter-spacing: .05em;
      }

      .st2, .st3, .st21, .st13 {
        fill: #c9a84c;
      }

      .st2, .st4, .st5 {
        font-size: 11px;
      }

      .st22, .st23 {
        fill: none;
      }

      .st24 {
        filter: url(#soft6);
      }

      .st25 {
        filter: url(#soft7);
      }

      .st3 {
        letter-spacing: .05em;
      }

      .st3, .st13 {
        font-size: 10px;
      }

      .st4 {
        fill: #e5e7eb;
      }

      .st4, .st5, .st6, .st9, .st11, .st12, .st15 {
        font-family: ArialMT, Arial;
      }

      .st6 {
        letter-spacing: .04em;
      }

      .st6, .st11, .st12 {
        fill: #6b7280;
      }

      .st6, .st15 {
        font-size: 13px;
      }

      .st26 {
        filter: url(#soft5);
      }

      .st27 {
        filter: url(#soft);
      }

      .st8 {
        letter-spacing: .05em;
      }

      .st8, .st10 {
        font-size: 9.5px;
      }

      .st23 {
        stroke: #e5e7eb;
      }

      .st28 {
        fill: #b91c1c;
      }

      .st29 {
        fill: #14b8a6;
      }

      .st9 {
        font-size: 12px;
      }

      .st10 {
        letter-spacing: .05em;
      }

      .st11, .st12 {
        font-size: 9px;
      }

      .st12 {
        letter-spacing: .06em;
      }

      .st13 {
        letter-spacing: .15em;
      }

      .st15 {
        fill: #111827;
      }

      .st30 {
        filter: url(#soft4);
      }
    </style>
    <filter id="soft" x="-10%" y="-10%" width="120%" height="120%">
      <feGaussianBlur in="SourceAlpha" stdDeviation="2"/>
      <feOffset dx="0" dy="1"/>
      <feComponentTransfer>
        <feFuncA slope="0.25" type="linear"/>
      </feComponentTransfer>
      <feMerge>
        <feMergeNode/>
        <feMergeNode in="SourceGraphic"/>
      </feMerge>
    </filter>
    <filter id="soft1" data-name="soft" x="-10%" y="-10%" width="120%" height="120%">
      <feGaussianBlur in="SourceAlpha" stdDeviation="2"/>
      <feOffset dx="0" dy="1"/>
      <feComponentTransfer>
        <feFuncA slope="0.25" type="linear"/>
      </feComponentTransfer>
      <feMerge>
        <feMergeNode/>
        <feMergeNode in="SourceGraphic"/>
      </feMerge>
    </filter>
    <filter id="soft2" data-name="soft" x="-10%" y="-10%" width="120%" height="120%">
      <feGaussianBlur in="SourceAlpha" stdDeviation="2"/>
      <feOffset dx="0" dy="1"/>
      <feComponentTransfer>
        <feFuncA slope="0.25" type="linear"/>
      </feComponentTransfer>
      <feMerge>
        <feMergeNode/>
        <feMergeNode in="SourceGraphic"/>
      </feMerge>
    </filter>
    <filter id="soft3" data-name="soft" x="-10%" y="-10%" width="120%" height="120%">
      <feGaussianBlur in="SourceAlpha" stdDeviation="2"/>
      <feOffset dx="0" dy="1"/>
      <feComponentTransfer>
        <feFuncA slope="0.25" type="linear"/>
      </feComponentTransfer>
      <feMerge>
        <feMergeNode/>
        <feMergeNode in="SourceGraphic"/>
      </feMerge>
    </filter>
    <filter id="soft4" data-name="soft" x="-10%" y="-10%" width="120%" height="120%">
      <feGaussianBlur in="SourceAlpha" stdDeviation="2"/>
      <feOffset dx="0" dy="1"/>
      <feComponentTransfer>
        <feFuncA slope="0.25" type="linear"/>
      </feComponentTransfer>
      <feMerge>
        <feMergeNode/>
        <feMergeNode in="SourceGraphic"/>
      </feMerge>
    </filter>
    <filter id="soft5" data-name="soft" x="-10%" y="-10%" width="120%" height="120%">
      <feGaussianBlur in="SourceAlpha" stdDeviation="2"/>
      <feOffset dx="0" dy="1"/>
      <feComponentTransfer>
        <feFuncA slope="0.25" type="linear"/>
      </feComponentTransfer>
      <feMerge>
        <feMergeNode/>
        <feMergeNode in="SourceGraphic"/>
      </feMerge>
    </filter>
    <filter id="soft6" data-name="soft" x="-10%" y="-10%" width="120%" height="120%">
      <feGaussianBlur in="SourceAlpha" stdDeviation="2"/>
      <feOffset dx="0" dy="1"/>
      <feComponentTransfer>
        <feFuncA slope="0.25" type="linear"/>
      </feComponentTransfer>
      <feMerge>
        <feMergeNode/>
        <feMergeNode in="SourceGraphic"/>
      </feMerge>
    </filter>
    <filter id="soft7" data-name="soft" x="-10%" y="-10%" width="120%" height="120%">
      <feGaussianBlur in="SourceAlpha" stdDeviation="2"/>
      <feOffset dx="0" dy="1"/>
      <feComponentTransfer>
        <feFuncA slope="0.25" type="linear"/>
      </feComponentTransfer>
      <feMerge>
        <feMergeNode/>
        <feMergeNode in="SourceGraphic"/>
      </feMerge>
    </filter>
  </defs>
  <rect class="st16" y="-1.08" width="1100" height="60"/>
  <text class="st7" transform="translate(23.95 33.21)"><tspan x="0" y="0">Semiconductor + AI Convergence Stack</tspan></text>
  <text class="st13" transform="translate(1018.4696 18.9229)"><tspan x="0" y="0">FIGURE 36</tspan></text>
  <text class="st4" transform="translate(797.52 38.92)"><tspan x="0" y="0">India position by layer · imports vs domestic share by 2030</tspan></text>
  <text class="st12" transform="translate(13.98 684.92)"><tspan x="0" y="0">INDIA SEMICONDUCTOR INTELLIGENCE 2026 · WHO REALLY BENEFITS FROM INDIA&apos;S FAB ECOSYSTEM?</tspan></text>
  <text class="st12" transform="translate(1029.2092 687.4318)"><tspan x="0" y="0">FIG 36 / 38</tspan></text>
  <g class="st27">
    <rect class="st17" x="26.88" y="66.92" width="760" height="70" rx="8" ry="8"/>
    <rect class="st23" x="26.88" y="66.92" width="760" height="70" rx="8" ry="8"/>
  </g>
  <rect class="st29" x="26.88" y="66.92" width="10" height="70"/>
  <text class="st14" transform="translate(48.88 88.92)"><tspan x="0" y="0">Sovereign AI applications</tspan></text>
  <text class="st15" transform="translate(48.88 108.92)"><tspan x="0" y="0">LLM training · defence AI · sovereign cloud workloads</tspan></text>
  <text class="st6" transform="translate(48.88 126.92)"><tspan x="0" y="0">DESIGN + INTEGRATION</tspan></text>
  <text class="st0" transform="translate(656.87 90.92)"><tspan x="0" y="0">30%</tspan></text>
  <text class="st11" transform="translate(643.36 106.92)"><tspan x="0" y="0">India share 2030</tspan></text>
  <path class="st29" d="M615.88,114.92h122c4.97,0,9,4.03,9,9h0c0,4.97-4.03,9-9,9h-122c-4.97,0-9-4.03-9-9h0c0-4.97,4.03-9,9-9Z"/>
  <text class="st10" transform="translate(638.54 127.92)"><tspan x="0" y="0">domestic share</tspan></text>
  <g class="st19">
    <rect class="st17" x="26.88" y="140.92" width="760" height="70" rx="8" ry="8"/>
    <rect class="st23" x="26.88" y="140.92" width="760" height="70" rx="8" ry="8"/>
  </g>
  <rect class="st28" x="26.88" y="140.92" width="10" height="70"/>
  <text class="st14" transform="translate(48.88 162.92)"><tspan x="0" y="0">AI accelerators (GPU / TPU)</tspan></text>
  <text class="st15" transform="translate(48.88 182.92)"><tspan x="0" y="0">Nvidia H/B series · AMD MI · Google TPU · Groq</tspan></text>
  <text class="st6" transform="translate(48.88 200.92)"><tspan x="0" y="0">STRUCTURAL IMPORT</tspan></text>
  <text class="st0" transform="translate(662.43 164.92)"><tspan x="0" y="0">0%</tspan></text>
  <text class="st11" transform="translate(643.36 180.92)"><tspan x="0" y="0">India share 2030</tspan></text>
  <path class="st28" d="M615.88,188.92h122c4.97,0,9,4.03,9,9h0c0,4.97-4.03,9-9,9h-122c-4.97,0-9-4.03-9-9h0c0-4.97,4.03-9,9-9Z"/>
  <text class="st8" transform="translate(642.2 201.92)"><tspan x="0" y="0">IMPORT 100%</tspan></text>
  <g class="st20">
    <rect class="st17" x="26.88" y="214.92" width="760" height="70" rx="8" ry="8"/>
    <rect class="st23" x="26.88" y="214.92" width="760" height="70" rx="8" ry="8"/>
  </g>
  <rect class="st28" x="26.88" y="214.92" width="10" height="70"/>
  <text class="st14" transform="translate(48.88 236.92)"><tspan x="0" y="0">Memory (HBM / DRAM / NAND)</tspan></text>
  <text class="st15" transform="translate(48.88 256.92)"><tspan x="0" y="0">SK hynix HBM3e · Micron HBM · Samsung HBM</tspan></text>
  <text class="st6" transform="translate(48.88 274.92)"><tspan x="0" y="0">STRUCTURAL IMPORT</tspan></text>
  <text class="st0" transform="translate(662.43 238.92)"><tspan x="0" y="0">0%</tspan></text>
  <text class="st11" transform="translate(643.36 254.92)"><tspan x="0" y="0">India share 2030</tspan></text>
  <path class="st28" d="M615.88,262.92h122c4.97,0,9,4.03,9,9h0c0,4.97-4.03,9-9,9h-122c-4.97,0-9-4.03-9-9h0c0-4.97,4.03-9,9-9Z"/>
  <text class="st8" transform="translate(642.2 275.92)"><tspan x="0" y="0">IMPORT 100%</tspan></text>
  <g class="st18">
    <rect class="st17" x="26.88" y="288.92" width="760" height="70" rx="8" ry="8"/>
    <rect class="st23" x="26.88" y="288.92" width="760" height="70" rx="8" ry="8"/>
  </g>
  <rect class="st21" x="26.88" y="288.92" width="10" height="70"/>
  <text class="st14" transform="translate(48.88 310.92)"><tspan x="0" y="0">Networking / Interconnect</tspan></text>
  <text class="st15" transform="translate(48.88 330.92)"><tspan x="0" y="0">PCIe gen5 · NVLink · optical I/O · switch ASICs</tspan></text>
  <text class="st6" transform="translate(48.88 348.92)"><tspan x="0" y="0">MATURE-NODE PACKAGING</tspan></text>
  <text class="st0" transform="translate(656.87 312.92)"><tspan x="0" y="0">30%</tspan></text>
  <text class="st11" transform="translate(643.36 328.92)"><tspan x="0" y="0">India share 2030</tspan></text>
  <path class="st21" d="M615.88,336.92h122c4.97,0,9,4.03,9,9h0c0,4.97-4.03,9-9,9h-122c-4.97,0-9-4.03-9-9h0c0-4.97,4.03-9,9-9Z"/>
  <text class="st8" transform="translate(643.11 349.92)"><tspan x="0" y="0">OSAT-eligible</tspan></text>
  <g class="st30">
    <rect class="st17" x="26.88" y="362.92" width="760" height="70" rx="8" ry="8"/>
    <rect class="st23" x="26.88" y="362.92" width="760" height="70" rx="8" ry="8"/>
  </g>
  <rect class="st29" x="26.88" y="362.92" width="10" height="70"/>
  <text class="st14" transform="translate(48.88 384.92)"><tspan x="0" y="0">Power management ICs</tspan></text>
  <text class="st15" transform="translate(48.88 404.92)"><tspan x="0" y="0">Server PSU · rack PDU · GaN/SiC drivers</tspan></text>
  <text class="st6" transform="translate(48.88 422.92)"><tspan x="0" y="0">HIGH DOMESTIC SHARE</tspan></text>
  <text class="st0" transform="translate(656.87 386.92)"><tspan x="0" y="0">60%</tspan></text>
  <text class="st11" transform="translate(643.36 402.92)"><tspan x="0" y="0">India share 2030</tspan></text>
  <path class="st29" d="M615.88,410.92h122c4.97,0,9,4.03,9,9h0c0,4.97-4.03,9-9,9h-122c-4.97,0-9-4.03-9-9h0c0-4.97,4.03-9,9-9Z"/>
  <text class="st8" transform="translate(649 423.92)"><tspan x="0" y="0">OSAT + fab</tspan></text>
  <g class="st26">
    <rect class="st17" x="26.88" y="436.92" width="760" height="70" rx="8" ry="8"/>
    <rect class="st23" x="26.88" y="436.92" width="760" height="70" rx="8" ry="8"/>
  </g>
  <rect class="st29" x="26.88" y="436.92" width="10" height="70"/>
  <text class="st14" transform="translate(48.88 458.92)"><tspan x="0" y="0">Sensors / Edge ICs</tspan></text>
  <text class="st15" transform="translate(48.88 478.92)"><tspan x="0" y="0">CMOS image · MEMS · industrial sensors · RF</tspan></text>
  <text class="st6" transform="translate(48.88 496.92)"><tspan x="0" y="0">DESIGN + MATURE FAB</tspan></text>
  <text class="st0" transform="translate(656.87 460.92)"><tspan x="0" y="0">40%</tspan></text>
  <text class="st11" transform="translate(643.36 476.92)"><tspan x="0" y="0">India share 2030</tspan></text>
  <path class="st29" d="M615.88,484.92h122c4.97,0,9,4.03,9,9h0c0,4.97-4.03,9-9,9h-122c-4.97,0-9-4.03-9-9h0c0-4.97,4.03-9,9-9Z"/>
  <text class="st10" transform="translate(646.04 497.92)"><tspan x="0" y="0">fab + design</tspan></text>
  <g class="st24">
    <rect class="st17" x="26.88" y="510.92" width="760" height="70" rx="8" ry="8"/>
    <rect class="st23" x="26.88" y="510.92" width="760" height="70" rx="8" ry="8"/>
  </g>
  <rect class="st21" x="26.88" y="510.92" width="10" height="70"/>
  <text class="st14" transform="translate(48.88 532.92)"><tspan x="0" y="0">Advanced packaging</tspan></text>
  <text class="st15" transform="translate(48.88 552.92)"><tspan x="0" y="0">CoWoS · chiplet · 2.5D / 3D interposer</tspan></text>
  <text class="st6" transform="translate(48.88 570.92)"><tspan x="0" y="0">INFANT CAPABILITY</tspan></text>
  <text class="st0" transform="translate(656.87 534.92)"><tspan x="0" y="0">20%</tspan></text>
  <text class="st11" transform="translate(643.36 550.92)"><tspan x="0" y="0">India share 2030</tspan></text>
  <path class="st21" d="M615.88,558.92h122c4.97,0,9,4.03,9,9h0c0,4.97-4.03,9-9,9h-122c-4.97,0-9-4.03-9-9h0c0-4.97,4.03-9,9-9Z"/>
  <text class="st10" transform="translate(640.9 571.92)"><tspan x="0" y="0">Jagiroad ramp</tspan></text>
  <g class="st25">
    <rect class="st17" x="26.88" y="584.92" width="760" height="70" rx="8" ry="8"/>
    <rect class="st23" x="26.88" y="584.92" width="760" height="70" rx="8" ry="8"/>
  </g>
  <rect class="st29" x="26.88" y="584.92" width="10" height="70"/>
  <text class="st14" transform="translate(48.88 606.92)"><tspan x="0" y="0">Data centre infrastructure</tspan></text>
  <text class="st15" transform="translate(48.88 626.92)"><tspan x="0" y="0">Yotta · Reliance · Google · Microsoft · AWS</tspan></text>
  <text class="st6" transform="translate(48.88 644.92)"><tspan x="0" y="0">DEPLOYMENT LAYER</tspan></text>
  <text class="st0" transform="translate(656.87 608.92)"><tspan x="0" y="0">30%</tspan></text>
  <text class="st11" transform="translate(643.36 624.92)"><tspan x="0" y="0">India share 2030</tspan></text>
  <path class="st29" d="M615.88,632.92h122c4.97,0,9,4.03,9,9h0c0,4.97-4.03,9-9,9h-122c-4.97,0-9-4.03-9-9h0c0-4.97,4.03-9,9-9Z"/>
  <text class="st10" transform="translate(626.2 645.92)"><tspan x="0" y="0">domestic chip share</tspan></text>
  <line class="st22" x1="406.88" y1="136.92" x2="406.88" y2="584.92"/>
  <rect class="st16" x="816.88" y="66.92" width="270" height="600" rx="8" ry="8"/>
  <text class="st2" transform="translate(834.88 96.92)"><tspan x="0" y="0">INDIA POSITION · 2030</tspan></text>
  <text class="st1" transform="translate(834.88 124.92)"><tspan x="0" y="0">CAN SERVE</tspan></text>
  <circle class="st29" cx="838.88" cy="146.92" r="3"/>
  <text class="st9" transform="translate(848.88 150.92)"><tspan x="0" y="0">Sensors + edge ICs (design + fab)</tspan></text>
  <circle class="st29" cx="838.88" cy="168.92" r="3"/>
  <text class="st9" transform="translate(848.88 172.92)"><tspan x="0" y="0">Power management (mature fab)</tspan></text>
  <circle class="st29" cx="838.88" cy="190.92" r="3"/>
  <text class="st9" transform="translate(848.88 194.92)"><tspan x="0" y="0">Mature-node packaging + OSAT</tspan></text>
  <circle class="st29" cx="838.88" cy="212.92" r="3"/>
  <text class="st9" transform="translate(848.88 216.92)"><tspan x="0" y="0">Domestic data-centre chip share</tspan></text>
  <circle class="st29" cx="838.88" cy="234.92" r="3"/>
  <text class="st9" transform="translate(848.88 238.92)"><tspan x="0" y="0">Sovereign AI deployment layer</tspan></text>
  <text class="st1" transform="translate(834.88 286.92)"><tspan x="0" y="0">STRUCTURALLY IMPORTS</tspan></text>
  <circle class="st28" cx="838.88" cy="310.92" r="3"/>
  <text class="st9" transform="translate(848.88 314.92)"><tspan x="0" y="0">AI accelerators (Nvidia/AMD/Google)</tspan></text>
  <circle class="st28" cx="838.88" cy="332.92" r="3"/>
  <text class="st9" transform="translate(848.88 336.92)"><tspan x="0" y="0">HBM + advanced DRAM</tspan></text>
  <circle class="st28" cx="838.88" cy="354.92" r="3"/>
  <text class="st9" transform="translate(848.88 358.92)"><tspan x="0" y="0">EUV photoresist / mask blanks</tspan></text>
  <circle class="st28" cx="838.88" cy="376.92" r="3"/>
  <text class="st9" transform="translate(848.88 380.92)"><tspan x="0" y="0">Advanced node lithography</tspan></text>
  <circle class="st28" cx="838.88" cy="398.92" r="3"/>
  <text class="st9" transform="translate(848.88 402.92)"><tspan x="0" y="0">EDA + leading-edge IP</tspan></text>
  <text class="st1" transform="translate(834.88 446.92)"><tspan x="0" y="0">DEPENDENT ON PARTNERS</tspan></text>
  <circle class="st21" cx="838.88" cy="470.92" r="3"/>
  <text class="st9" transform="translate(848.88 474.92)"><tspan x="0" y="0">CoWoS / chiplet packaging IP</tspan></text>
  <circle class="st21" cx="838.88" cy="492.92" r="3"/>
  <text class="st9" transform="translate(848.88 496.92)"><tspan x="0" y="0">Advanced networking ASICs</tspan></text>
  <circle class="st21" cx="838.88" cy="514.92" r="3"/>
  <text class="st9" transform="translate(848.88 518.92)"><tspan x="0" y="0">Sovereign LLM training cycles</tspan></text>
  <circle class="st21" cx="838.88" cy="536.92" r="3"/>
  <text class="st9" transform="translate(848.88 540.92)"><tspan x="0" y="0">Equipment service + spares</tspan></text>
  <text class="st3" transform="translate(834.88 591.92)"><tspan x="0" y="0">STRATEGIC READING</tspan></text>
  <text class="st5" transform="translate(834.88 611.92)"><tspan x="0" y="0">India serves the periphery</tspan></text>
  <text class="st5" transform="translate(834.88 626.92)"><tspan x="0" y="0">of the AI-semicon stack;</tspan></text>
  <text class="st5" transform="translate(834.88 641.92)"><tspan x="0" y="0">core compute stays imported.</tspan></text>
</svg>