<?xml version="1.0" encoding="UTF-8"?>
<svg id="Layer_1" xmlns="http://www.w3.org/2000/svg" version="1.1" viewBox="0 0 900 800">
  <!-- Generator: Adobe Illustrator 30.4.0, SVG Export Plug-In . SVG Version: 2.1.4 Build 226)  -->
  <defs>
    <style>
      .st0 {
        letter-spacing: .05em;
      }

      .st0, .st1, .st2, .st3, .st4, .st5, .st6, .st7, .st8, .st9, .st10, .st11, .st12, .st13, .st14 {
        isolation: isolate;
      }

      .st0, .st7 {
        fill: #111827;
      }

      .st0, .st7, .st11, .st12, .st14 {
        font-family: Arial-BoldMT, Arial;
        font-weight: 700;
      }

      .st0, .st9, .st10 {
        font-size: 11px;
      }

      .st1 {
        stroke: #2e6497;
      }

      .st1, .st2, .st3, .st4, .st5, .st6, .st8 {
        fill: none;
      }

      .st1, .st2, .st3, .st4, .st6, .st8 {
        opacity: .35;
        stroke-width: .8px;
      }

      .st15, .st16 {
        fill: #2e6497;
      }

      .st2, .st5 {
        stroke: #c9a84c;
      }

      .st3 {
        stroke: #6d28d9;
      }

      .st17, .st18, .st19, .st16, .st20, .st21 {
        stroke: #fff;
        stroke-width: 1.5px;
      }

      .st17, .st22 {
        fill: #6d28d9;
      }

      .st4 {
        stroke: #0b1b3b;
      }

      .st23, .st21 {
        fill: #3b7ebf;
      }

      .st18, .st24 {
        fill: #14b8a6;
      }

      .st5 {
        opacity: .45;
      }

      .st6 {
        stroke: #14b8a6;
      }

      .st7, .st12 {
        font-size: 12px;
      }

      .st8 {
        stroke: #3b7ebf;
      }

      .st9, .st10, .st13 {
        font-family: ArialMT, Arial;
      }

      .st9, .st13 {
        fill: #6b7280;
      }

      .st10 {
        fill: #e5e7eb;
      }

      .st25, .st19, .st14 {
        fill: #c9a84c;
      }

      .st11 {
        font-size: 20px;
      }

      .st11, .st12 {
        fill: #fff;
      }

      .st26, .st20 {
        fill: #0b1b3b;
      }

      .st27 {
        fill: #f8fafc;
        stroke: #e5e7eb;
        stroke-width: .85px;
      }

      .st12 {
        letter-spacing: .05em;
      }

      .st13 {
        font-size: 9px;
        letter-spacing: .06em;
      }

      .st14 {
        font-size: 10px;
        letter-spacing: .15em;
      }
    </style>
  </defs>
  <rect class="st26" y="0" width="903.81" height="60"/>
  <text class="st11" transform="translate(21.04 38.29)"><tspan x="0" y="0">Beneficiary Network Map</tspan></text>
  <text class="st14" transform="translate(812.04 25.61)"><tspan x="0" y="0">FIGURE 20</tspan></text>
  <text class="st10" transform="translate(526.04 46.3)"><tspan x="0" y="0">Fifty Indian companies clustered by tier and connected by capability links</tspan></text>
  <text class="st13" transform="translate(21.04 782.73)"><tspan x="0" y="0">INDIA SEMICONDUCTOR INTELLIGENCE 2026 · WHO REALLY BENEFITS FROM INDIA&apos;S FAB ECOSYSTEM?</tspan></text>
  <text class="st13" transform="translate(817.43 782.84)"><tspan x="0" y="0">FIG 20 / 30</tspan></text>
  <line class="st4" x1="86.04" y1="270" x2="116.04" y2="300"/>
  <line class="st4" x1="86.04" y1="270" x2="146.04" y2="270"/>
  <line class="st4" x1="116.04" y1="300" x2="146.04" y2="270"/>
  <line class="st4" x1="116.04" y1="300" x2="86.04" y2="330"/>
  <line class="st4" x1="146.04" y1="270" x2="86.04" y2="330"/>
  <line class="st4" x1="146.04" y1="270" x2="116.04" y2="360"/>
  <line class="st4" x1="86.04" y1="330" x2="116.04" y2="360"/>
  <line class="st4" x1="86.04" y1="330" x2="146.04" y2="330"/>
  <line class="st4" x1="116.04" y1="360" x2="146.04" y2="330"/>
  <line class="st1" x1="396.04" y1="220" x2="431.04" y2="255"/>
  <line class="st1" x1="396.04" y1="220" x2="466.04" y2="220"/>
  <line class="st1" x1="431.04" y1="255" x2="466.04" y2="220"/>
  <line class="st1" x1="431.04" y1="255" x2="396.04" y2="290"/>
  <line class="st1" x1="466.04" y1="220" x2="396.04" y2="290"/>
  <line class="st1" x1="466.04" y1="220" x2="431.04" y2="325"/>
  <line class="st1" x1="396.04" y1="290" x2="431.04" y2="325"/>
  <line class="st1" x1="396.04" y1="290" x2="466.04" y2="290"/>
  <line class="st1" x1="431.04" y1="325" x2="466.04" y2="290"/>
  <line class="st1" x1="431.04" y1="325" x2="431.04" y2="185"/>
  <line class="st1" x1="466.04" y1="290" x2="431.04" y2="185"/>
  <line class="st8" x1="726.04" y1="200" x2="761.04" y2="235"/>
  <line class="st8" x1="726.04" y1="200" x2="796.04" y2="200"/>
  <line class="st8" x1="761.04" y1="235" x2="796.04" y2="200"/>
  <line class="st8" x1="761.04" y1="235" x2="726.04" y2="270"/>
  <line class="st8" x1="796.04" y1="200" x2="726.04" y2="270"/>
  <line class="st8" x1="796.04" y1="200" x2="761.04" y2="305"/>
  <line class="st8" x1="726.04" y1="270" x2="761.04" y2="305"/>
  <line class="st8" x1="726.04" y1="270" x2="796.04" y2="270"/>
  <line class="st8" x1="761.04" y1="305" x2="796.04" y2="270"/>
  <line class="st8" x1="761.04" y1="305" x2="761.04" y2="165"/>
  <line class="st8" x1="796.04" y1="270" x2="761.04" y2="165"/>
  <line class="st8" x1="796.04" y1="270" x2="726.04" y2="165"/>
  <line class="st8" x1="761.04" y1="165" x2="726.04" y2="165"/>
  <line class="st6" x1="196.04" y1="550" x2="226.04" y2="580"/>
  <line class="st6" x1="196.04" y1="550" x2="256.04" y2="550"/>
  <line class="st6" x1="226.04" y1="580" x2="256.04" y2="550"/>
  <line class="st6" x1="226.04" y1="580" x2="196.04" y2="610"/>
  <line class="st6" x1="256.04" y1="550" x2="196.04" y2="610"/>
  <line class="st6" x1="256.04" y1="550" x2="226.04" y2="640"/>
  <line class="st6" x1="196.04" y1="610" x2="226.04" y2="640"/>
  <line class="st6" x1="196.04" y1="610" x2="256.04" y2="610"/>
  <line class="st6" x1="226.04" y1="640" x2="256.04" y2="610"/>
  <line class="st6" x1="226.04" y1="640" x2="226.04" y2="525"/>
  <line class="st6" x1="256.04" y1="610" x2="226.04" y2="525"/>
  <line class="st2" x1="496.04" y1="580" x2="526.04" y2="610"/>
  <line class="st2" x1="496.04" y1="580" x2="556.04" y2="580"/>
  <line class="st2" x1="526.04" y1="610" x2="556.04" y2="580"/>
  <line class="st2" x1="526.04" y1="610" x2="496.04" y2="640"/>
  <line class="st2" x1="556.04" y1="580" x2="496.04" y2="640"/>
  <line class="st2" x1="556.04" y1="580" x2="556.04" y2="640"/>
  <line class="st2" x1="496.04" y1="640" x2="556.04" y2="640"/>
  <line class="st3" x1="776.04" y1="560" x2="806.04" y2="590"/>
  <line class="st3" x1="776.04" y1="560" x2="836.04" y2="560"/>
  <line class="st3" x1="806.04" y1="590" x2="836.04" y2="560"/>
  <line class="st3" x1="806.04" y1="590" x2="776.04" y2="620"/>
  <line class="st3" x1="836.04" y1="560" x2="776.04" y2="620"/>
  <line class="st3" x1="836.04" y1="560" x2="806.04" y2="650"/>
  <line class="st3" x1="776.04" y1="620" x2="806.04" y2="650"/>
  <line class="st3" x1="776.04" y1="620" x2="836.04" y2="620"/>
  <line class="st3" x1="806.04" y1="650" x2="836.04" y2="620"/>
  <line class="st3" x1="806.04" y1="650" x2="806.04" y2="535"/>
  <line class="st3" x1="836.04" y1="620" x2="806.04" y2="535"/>
  <line class="st3" x1="836.04" y1="620" x2="776.04" y2="535"/>
  <line class="st3" x1="806.04" y1="535" x2="776.04" y2="535"/>
  <line class="st5" x1="86.04" y1="270" x2="726.04" y2="200"/>
  <line class="st5" x1="86.04" y1="270" x2="761.04" y2="235"/>
  <line class="st5" x1="86.04" y1="270" x2="396.04" y2="220"/>
  <line class="st5" x1="116.04" y1="300" x2="761.04" y2="305"/>
  <line class="st5" x1="116.04" y1="300" x2="796.04" y2="270"/>
  <line class="st5" x1="116.04" y1="300" x2="796.04" y2="200"/>
  <line class="st5" x1="146.04" y1="270" x2="431.04" y2="255"/>
  <line class="st5" x1="146.04" y1="270" x2="466.04" y2="220"/>
  <line class="st5" x1="86.04" y1="270" x2="836.04" y2="560"/>
  <line class="st5" x1="86.04" y1="270" x2="776.04" y2="620"/>
  <line class="st5" x1="86.04" y1="330" x2="226.04" y2="580"/>
  <line class="st5" x1="86.04" y1="330" x2="496.04" y2="580"/>
  <line class="st5" x1="496.04" y1="580" x2="196.04" y2="550"/>
  <line class="st5" x1="496.04" y1="580" x2="256.04" y2="550"/>
  <line class="st5" x1="726.04" y1="200" x2="776.04" y2="560"/>
  <line class="st5" x1="761.04" y1="235" x2="806.04" y2="590"/>
  <line class="st5" x1="396.04" y1="220" x2="726.04" y2="165"/>
  <line class="st5" x1="396.04" y1="290" x2="496.04" y2="580"/>
  <line class="st5" x1="86.04" y1="270" x2="526.04" y2="610"/>
  <line class="st5" x1="116.04" y1="360" x2="836.04" y2="620"/>
  <circle class="st20" cx="86.04" cy="270" r="10"/>
  <text class="st7" transform="translate(68.04 255)"><tspan x="0" y="0">Tata Elx</tspan></text>
  <circle class="st20" cx="116.04" cy="300" r="10"/>
  <text class="st7" transform="translate(129.04 304)"><tspan x="0" y="0">Micron</tspan></text>
  <circle class="st20" cx="146.04" cy="270" r="10"/>
  <text class="st7" transform="translate(159.04 274)"><tspan x="0" y="0">Kaynes</tspan></text>
  <circle class="st20" cx="86.04" cy="330" r="6"/>
  <circle class="st20" cx="116.04" cy="360" r="6"/>
  <circle class="st20" cx="146.04" cy="330" r="6"/>
  <circle class="st16" cx="396.04" cy="220" r="10"/>
  <text class="st7" transform="translate(380.8 210)"><tspan x="0" y="0">Dixon</tspan></text>
  <circle class="st16" cx="431.04" cy="255" r="6"/>
  <circle class="st16" cx="466.04" cy="220" r="6"/>
  <circle class="st16" cx="396.04" cy="290" r="6"/>
  <circle class="st16" cx="431.04" cy="325" r="6"/>
  <circle class="st16" cx="466.04" cy="290" r="6"/>
  <circle class="st16" cx="431.04" cy="185" r="6"/>
  <circle class="st21" cx="726.04" cy="200" r="10"/>
  <text class="st7" transform="translate(699.1 190)"><tspan x="0" y="0">Tata Proj</tspan></text>
  <circle class="st21" cx="761.04" cy="235" r="10"/>
  <text class="st7" transform="translate(774.04 239)"><tspan x="0" y="0">L&amp;T</tspan></text>
  <circle class="st21" cx="796.04" cy="200" r="6"/>
  <circle class="st21" cx="726.04" cy="270" r="6"/>
  <circle class="st21" cx="761.04" cy="305" r="6"/>
  <circle class="st21" cx="796.04" cy="270" r="10"/>
  <text class="st7" transform="translate(809.04 274)"><tspan x="0" y="0">Wabag</tspan></text>
  <circle class="st21" cx="761.04" cy="165" r="6"/>
  <circle class="st21" cx="726.04" cy="165" r="6"/>
  <circle class="st18" cx="196.04" cy="550" r="6"/>
  <circle class="st18" cx="226.04" cy="580" r="6"/>
  <circle class="st18" cx="256.04" cy="550" r="6"/>
  <circle class="st18" cx="196.04" cy="610" r="6"/>
  <circle class="st18" cx="226.04" cy="640" r="6"/>
  <circle class="st18" cx="256.04" cy="610" r="6"/>
  <circle class="st18" cx="226.04" cy="525" r="6"/>
  <circle class="st19" cx="496.04" cy="580" r="10"/>
  <text class="st7" transform="translate(509.04 584)"><tspan x="0" y="0">BEL</tspan></text>
  <circle class="st19" cx="526.04" cy="610" r="6"/>
  <circle class="st19" cx="556.04" cy="580" r="10"/>
  <text class="st7" transform="translate(569.04 584)"><tspan x="0" y="0">HAL</tspan></text>
  <circle class="st19" cx="496.04" cy="640" r="6"/>
  <circle class="st19" cx="556.04" cy="640" r="6"/>
  <circle class="st17" cx="776.04" cy="560" r="10"/>
  <text class="st7" transform="translate(727.91 550)"><tspan x="0" y="0">ReNew</tspan></text>
  <circle class="st17" cx="806.04" cy="590" r="6"/>
  <circle class="st17" cx="836.04" cy="560" r="6"/>
  <circle class="st17" cx="776.04" cy="620" r="6"/>
  <circle class="st17" cx="806.04" cy="650" r="6"/>
  <circle class="st17" cx="836.04" cy="620" r="6"/>
  <circle class="st17" cx="806.04" cy="535" r="6"/>
  <circle class="st17" cx="776.04" cy="535" r="6"/>
  <path class="st26" d="M33.04,185h106c6.63,0,12,5.37,12,12h0c0,6.63-5.37,12-12,12H33.04c-6.63,0-12-5.37-12-12h0c0-6.63,5.37-12,12-12Z"/>
  <text class="st12" transform="translate(45.22 202)"><tspan x="0" y="0">T1 ANCHORS</tspan></text>
  <path class="st15" d="M343.04,140h106c6.63,0,12,5.37,12,12h0c0,6.63-5.37,12-12,12h-106c-6.63,0-12-5.37-12-12h0c0-6.63,5.37-12,12-12Z"/>
  <text class="st12" transform="translate(370.48 157)"><tspan x="0" y="0">T2 EMS</tspan></text>
  <path class="st23" d="M673.04,115h106c6.63,0,12,5.37,12,12h0c0,6.63-5.37,12-12,12h-106c-6.63,0-12-5.37-12-12h0c0-6.63,5.37-12,12-12Z"/>
  <text class="st12" transform="translate(683.05 132)"><tspan x="0" y="0">T3 INFRA EPC</tspan></text>
  <path class="st24" d="M143.04,475h106c6.63,0,12,5.37,12,12h0c0,6.63-5.37,12-12,12h-106c-6.63,0-12-5.37-12-12h0c0-6.63,5.37-12,12-12Z"/>
  <text class="st12" transform="translate(161.39 492)"><tspan x="0" y="0">T4 DESIGN</tspan></text>
  <path class="st25" d="M443.04,515h106c6.63,0,12,5.37,12,12h0c0,6.63-5.37,12-12,12h-106c-6.63,0-12-5.37-12-12h0c0-6.63,5.37-12,12-12Z"/>
  <text class="st12" transform="translate(456.42 532)"><tspan x="0" y="0">T5 DEFENCE</tspan></text>
  <path class="st22" d="M723.04,475h106c6.63,0,12,5.37,12,12h0c0,6.63-5.37,12-12,12h-106c-6.63,0-12-5.37-12-12h0c0-6.63,5.37-12,12-12Z"/>
  <text class="st12" transform="translate(727.65 492)"><tspan x="0" y="0">T6 SKILLING/RE</tspan></text>
  <rect class="st27" x="21.04" y="700" width="854.89" height="64.47" rx="8" ry="8"/>
  <text class="st0" transform="translate(45.36 722.5)"><tspan x="0" y="0">N = 50 Indian companies · 6 functional clusters · gold lines = cross-cluster supply/capability link</tspan></text>
  <text class="st9" transform="translate(45.36 747.5)"><tspan x="0" y="0">Larger dots and labels highlight the top 10 by ecosystem centrality. Cluster colour mirrors tier coding used throughout this report.</tspan></text>
</svg>