<?xml version="1.0" encoding="UTF-8"?>
<svg id="Layer_1" xmlns="http://www.w3.org/2000/svg" version="1.1" viewBox="0 0 900 700">
  <!-- Generator: Adobe Illustrator 30.4.0, SVG Export Plug-In . SVG Version: 2.1.4 Build 226)  -->
  <defs>
    <style>
      .st0, .st1, .st2, .st3, .st4, .st5, .st6, .st7, .st8, .st9, .st10 {
        stroke: #e5e7eb;
      }

      .st0, .st2, .st11 {
        fill: #14b8a6;
      }

      .st12, .st13, .st14, .st15, .st16, .st17, .st18, .st19, .st20 {
        isolation: isolate;
      }

      .st12, .st13, .st14, .st17, .st18, .st20 {
        font-size: 10px;
      }

      .st12, .st13, .st15, .st19 {
        font-family: ArialMT, Arial;
      }

      .st12, .st19 {
        fill: #6b7280;
      }

      .st21, .st4, .st7 {
        fill: #2e6497;
      }

      .st1, .st2, .st4, .st5, .st6 {
        stroke-width: .5px;
      }

      .st1, .st16, .st17, .st8 {
        fill: #fff;
      }

      .st3, .st22, .st6 {
        fill: #0b1b3b;
      }

      .st13, .st14, .st18 {
        fill: #111827;
      }

      .st14, .st16, .st17, .st18, .st20 {
        font-family: Arial-BoldMT, Arial;
        font-weight: 700;
      }

      .st5, .st23, .st9, .st20 {
        fill: #c9a84c;
      }

      .st15 {
        fill: #e5e7eb;
        font-size: 11px;
      }

      .st16 {
        font-size: 20px;
      }

      .st24 {
        fill: #b91c1c;
      }

      .st18 {
        letter-spacing: .05em;
      }

      .st10 {
        fill: #f1f5f9;
      }

      .st19 {
        font-size: 9px;
        letter-spacing: .06em;
      }

      .st20 {
        letter-spacing: .15em;
      }
    </style>
  </defs>
  <rect class="st22" x=".51" y=".12" width="899.49" height="60"/>
  <text class="st16" transform="translate(22 39.3)"><tspan x="0" y="0">Supply Chain Dependency Heatmap</tspan></text>
  <text class="st20" transform="translate(800.12 25.83)"><tspan x="0" y="0">FIGURE 31</tspan></text>
  <text class="st15" transform="translate(428.09 47.21)"><tspan x="0" y="0">India semiconductor import share by capability and supplier geography · 2025-26 baseline</tspan></text>
  <text class="st19" transform="translate(46.35 689.12)"><tspan x="0" y="0">INDIA SEMICONDUCTOR INTELLIGENCE 2026 · WHO REALLY BENEFITS FROM INDIA&apos;S FAB ECOSYSTEM?</tspan></text>
  <text class="st19" transform="translate(772.09 685.7)"><tspan x="0" y="0">FIG 31 / 38</tspan></text>
  <rect class="st22" x="152.09" y="71.12" width="56" height="28" rx="4" ry="4"/>
  <text class="st17" transform="translate(173.14 90.12)"><tspan x="0" y="0">US</tspan></text>
  <rect class="st22" x="210.09" y="71.12" width="56" height="28" rx="4" ry="4"/>
  <text class="st17" transform="translate(223.64 90.12)"><tspan x="0" y="0">Japan</tspan></text>
  <rect class="st22" x="268.09" y="71.12" width="56" height="28" rx="4" ry="4"/>
  <text class="st17" transform="translate(279.51 90.12)"><tspan x="0" y="0">Taiwan</tspan></text>
  <rect class="st22" x="326.09" y="71.12" width="56" height="28" rx="4" ry="4"/>
  <text class="st17" transform="translate(333.8 90.12)"><tspan x="0" y="0">S. Korea</tspan></text>
  <rect class="st22" x="384.09" y="71.12" width="56" height="28" rx="4" ry="4"/>
  <text class="st17" transform="translate(405.14 90.12)"><tspan x="0" y="0">EU</tspan></text>
  <rect class="st22" x="442.09" y="71.12" width="56" height="28" rx="4" ry="4"/>
  <text class="st17" transform="translate(456.2 90.12)"><tspan x="0" y="0">China</tspan></text>
  <rect class="st22" x="500.09" y="71.12" width="56" height="28" rx="4" ry="4"/>
  <text class="st17" transform="translate(516.42 90.12)"><tspan x="0" y="0">India</tspan></text>
  <rect class="st22" x="572.09" y="71.12" width="120" height="28" rx="4" ry="4"/>
  <text class="st17" transform="translate(602.26 90.12)"><tspan x="0" y="0">Vulnerability</tspan></text>
  <rect class="st22" x="702.09" y="71.12" width="140" height="28" rx="4" ry="4"/>
  <text class="st17" transform="translate(723.49 90.12)"><tspan x="0" y="0">Substitution horizon</tspan></text>
  <text class="st14" transform="translate(60.97 123.12)"><tspan x="0" y="0">EUV Lithography</tspan></text>
  <rect class="st1" x="152.09" y="101.12" width="56" height="34"/>
  <rect class="st1" x="210.09" y="101.12" width="56" height="34"/>
  <rect class="st1" x="268.09" y="101.12" width="56" height="34"/>
  <rect class="st1" x="326.09" y="101.12" width="56" height="34"/>
  <rect class="st6" x="384.09" y="101.12" width="56" height="34"/>
  <text class="st17" transform="translate(399.3 123.12)"><tspan x="0" y="0">100%</tspan></text>
  <rect class="st1" x="442.09" y="101.12" width="56" height="34"/>
  <rect class="st1" x="500.09" y="101.12" width="56" height="34"/>
  <path class="st24" d="M595.09,106.12h74c7.18,0,13,5.37,13,12h0c0,6.63-5.82,12-13,12h-74c-7.18,0-13-5.37-13-12h0c0-6.63,5.82-12,13-12Z"/>
  <text class="st17" transform="translate(615.14 123.12)"><tspan x="0" y="0">Critical</tspan></text>
  <path class="st24" d="M725.09,106.12h94c7.18,0,13,5.37,13,12h0c0,6.63-5.82,12-13,12h-94c-7.18,0-13-5.37-13-12h0c0-6.63,5.82-12,13-12Z"/>
  <text class="st17" transform="translate(749.02 123.12)"><tspan x="0" y="0">structural</tspan></text>
  <text class="st14" transform="translate(60.42 159.12)"><tspan x="0" y="0">DUV Lithography</tspan></text>
  <rect class="st1" x="152.09" y="137.12" width="56" height="34"/>
  <rect class="st5" x="210.09" y="137.12" width="56" height="34"/>
  <text class="st14" transform="translate(228.08 159.12)"><tspan x="0" y="0">15%</tspan></text>
  <rect class="st1" x="268.09" y="137.12" width="56" height="34"/>
  <rect class="st1" x="326.09" y="137.12" width="56" height="34"/>
  <rect class="st6" x="384.09" y="137.12" width="56" height="34"/>
  <text class="st17" transform="translate(402.08 159.12)"><tspan x="0" y="0">80%</tspan></text>
  <rect class="st5" x="442.09" y="137.12" width="56" height="34"/>
  <text class="st14" transform="translate(462.86 159.12)"><tspan x="0" y="0">5%</tspan></text>
  <rect class="st1" x="500.09" y="137.12" width="56" height="34"/>
  <path class="st24" d="M595.09,142.12h74c7.18,0,13,5.37,13,12h0c0,6.63-5.82,12-13,12h-74c-7.18,0-13-5.37-13-12h0c0-6.63,5.82-12,13-12Z"/>
  <text class="st17" transform="translate(615.14 159.12)"><tspan x="0" y="0">Critical</tspan></text>
  <path class="st23" d="M725.09,142.12h94c7.18,0,13,5.37,13,12h0c0,6.63-5.82,12-13,12h-94c-7.18,0-13-5.37-13-12h0c0-6.63,5.82-12,13-12Z"/>
  <text class="st17" transform="translate(758.04 159.12)"><tspan x="0" y="0">2040+</tspan></text>
  <text class="st14" transform="translate(66.71 195.12)"><tspan x="0" y="0">CMP equipment</tspan></text>
  <rect class="st4" x="152.09" y="173.12" width="56" height="34"/>
  <text class="st17" transform="translate(170.08 195.12)"><tspan x="0" y="0">55%</tspan></text>
  <rect class="st2" x="210.09" y="173.12" width="56" height="34"/>
  <text class="st17" transform="translate(228.08 195.12)"><tspan x="0" y="0">30%</tspan></text>
  <rect class="st5" x="268.09" y="173.12" width="56" height="34"/>
  <text class="st14" transform="translate(288.86 195.12)"><tspan x="0" y="0">5%</tspan></text>
  <rect class="st5" x="326.09" y="173.12" width="56" height="34"/>
  <text class="st14" transform="translate(346.86 195.12)"><tspan x="0" y="0">5%</tspan></text>
  <rect class="st5" x="384.09" y="173.12" width="56" height="34"/>
  <text class="st14" transform="translate(404.86 195.12)"><tspan x="0" y="0">5%</tspan></text>
  <rect class="st1" x="442.09" y="173.12" width="56" height="34"/>
  <rect class="st1" x="500.09" y="173.12" width="56" height="34"/>
  <path class="st23" d="M595.09,178.12h74c7.18,0,13,5.37,13,12h0c0,6.63-5.82,12-13,12h-74c-7.18,0-13-5.37-13-12h0c0-6.63,5.82-12,13-12Z"/>
  <text class="st17" transform="translate(620.98 195.12)"><tspan x="0" y="0">High</tspan></text>
  <path class="st23" d="M725.09,178.12h94c7.18,0,13,5.37,13,12h0c0,6.63-5.82,12-13,12h-94c-7.18,0-13-5.37-13-12h0c0-6.63,5.82-12,13-12Z"/>
  <text class="st17" transform="translate(758.04 195.12)"><tspan x="0" y="0">2040+</tspan></text>
  <text class="st14" transform="translate(60.42 231.12)"><tspan x="0" y="0">Etch / Deposition</tspan></text>
  <rect class="st4" x="152.09" y="209.12" width="56" height="34"/>
  <text class="st17" transform="translate(170.08 231.12)"><tspan x="0" y="0">60%</tspan></text>
  <rect class="st2" x="210.09" y="209.12" width="56" height="34"/>
  <text class="st17" transform="translate(228.08 231.12)"><tspan x="0" y="0">25%</tspan></text>
  <rect class="st5" x="268.09" y="209.12" width="56" height="34"/>
  <text class="st14" transform="translate(288.86 231.12)"><tspan x="0" y="0">5%</tspan></text>
  <rect class="st5" x="326.09" y="209.12" width="56" height="34"/>
  <text class="st14" transform="translate(346.86 231.12)"><tspan x="0" y="0">5%</tspan></text>
  <rect class="st5" x="384.09" y="209.12" width="56" height="34"/>
  <text class="st14" transform="translate(404.86 231.12)"><tspan x="0" y="0">5%</tspan></text>
  <rect class="st1" x="442.09" y="209.12" width="56" height="34"/>
  <rect class="st1" x="500.09" y="209.12" width="56" height="34"/>
  <path class="st23" d="M595.09,214.12h74c7.18,0,13,5.37,13,12h0c0,6.63-5.82,12-13,12h-74c-7.18,0-13-5.37-13-12h0c0-6.63,5.82-12,13-12Z"/>
  <text class="st17" transform="translate(620.98 231.12)"><tspan x="0" y="0">High</tspan></text>
  <path class="st23" d="M725.09,214.12h94c7.18,0,13,5.37,13,12h0c0,6.63-5.82,12-13,12h-94c-7.18,0-13-5.37-13-12h0c0-6.63,5.82-12,13-12Z"/>
  <text class="st17" transform="translate(758.04 231.12)"><tspan x="0" y="0">2040+</tspan></text>
  <text class="st14" transform="translate(35.97 267.12)"><tspan x="0" y="0">Metrology / Inspection</tspan></text>
  <rect class="st4" x="152.09" y="245.12" width="56" height="34"/>
  <text class="st17" transform="translate(170.08 267.12)"><tspan x="0" y="0">70%</tspan></text>
  <rect class="st5" x="210.09" y="245.12" width="56" height="34"/>
  <text class="st14" transform="translate(228.08 267.12)"><tspan x="0" y="0">15%</tspan></text>
  <rect class="st5" x="268.09" y="245.12" width="56" height="34"/>
  <text class="st14" transform="translate(288.86 267.12)"><tspan x="0" y="0">5%</tspan></text>
  <rect class="st5" x="326.09" y="245.12" width="56" height="34"/>
  <text class="st14" transform="translate(346.86 267.12)"><tspan x="0" y="0">5%</tspan></text>
  <rect class="st5" x="384.09" y="245.12" width="56" height="34"/>
  <text class="st14" transform="translate(404.86 267.12)"><tspan x="0" y="0">5%</tspan></text>
  <rect class="st1" x="442.09" y="245.12" width="56" height="34"/>
  <rect class="st1" x="500.09" y="245.12" width="56" height="34"/>
  <path class="st24" d="M595.09,250.12h74c7.18,0,13,5.37,13,12h0c0,6.63-5.82,12-13,12h-74c-7.18,0-13-5.37-13-12h0c0-6.63,5.82-12,13-12Z"/>
  <text class="st17" transform="translate(615.14 267.12)"><tspan x="0" y="0">Critical</tspan></text>
  <path class="st23" d="M725.09,250.12h94c7.18,0,13,5.37,13,12h0c0,6.63-5.82,12-13,12h-94c-7.18,0-13-5.37-13-12h0c0-6.63,5.82-12,13-12Z"/>
  <text class="st17" transform="translate(758.04 267.12)"><tspan x="0" y="0">2040+</tspan></text>
  <text class="st14" transform="translate(73.55 303.12)"><tspan x="0" y="0">Silicon Wafers</tspan></text>
  <rect class="st5" x="152.09" y="281.12" width="56" height="34"/>
  <text class="st14" transform="translate(172.86 303.12)"><tspan x="0" y="0">5%</tspan></text>
  <rect class="st4" x="210.09" y="281.12" width="56" height="34"/>
  <text class="st17" transform="translate(228.08 303.12)"><tspan x="0" y="0">60%</tspan></text>
  <rect class="st5" x="268.09" y="281.12" width="56" height="34"/>
  <text class="st14" transform="translate(286.08 303.12)"><tspan x="0" y="0">15%</tspan></text>
  <rect class="st5" x="326.09" y="281.12" width="56" height="34"/>
  <text class="st14" transform="translate(344.08 303.12)"><tspan x="0" y="0">15%</tspan></text>
  <rect class="st5" x="384.09" y="281.12" width="56" height="34"/>
  <text class="st14" transform="translate(404.86 303.12)"><tspan x="0" y="0">5%</tspan></text>
  <rect class="st1" x="442.09" y="281.12" width="56" height="34"/>
  <rect class="st1" x="500.09" y="281.12" width="56" height="34"/>
  <path class="st23" d="M595.09,286.12h74c7.18,0,13,5.37,13,12h0c0,6.63-5.82,12-13,12h-74c-7.18,0-13-5.37-13-12h0c0-6.63,5.82-12,13-12Z"/>
  <text class="st17" transform="translate(620.98 303.12)"><tspan x="0" y="0">High</tspan></text>
  <path class="st21" d="M725.09,286.12h94c7.18,0,13,5.37,13,12h0c0,6.63-5.82,12-13,12h-94c-7.18,0-13-5.37-13-12h0c0-6.63,5.82-12,13-12Z"/>
  <text class="st17" transform="translate(760.96 303.12)"><tspan x="0" y="0">2035</tspan></text>
  <text class="st14" transform="translate(57.08 339.12)"><tspan x="0" y="0">Photoresist (EUV)</tspan></text>
  <rect class="st1" x="152.09" y="317.12" width="56" height="34"/>
  <rect class="st6" x="210.09" y="317.12" width="56" height="34"/>
  <text class="st17" transform="translate(228.08 339.12)"><tspan x="0" y="0">95%</tspan></text>
  <rect class="st1" x="268.09" y="317.12" width="56" height="34"/>
  <rect class="st1" x="326.09" y="317.12" width="56" height="34"/>
  <rect class="st5" x="384.09" y="317.12" width="56" height="34"/>
  <text class="st14" transform="translate(404.86 339.12)"><tspan x="0" y="0">5%</tspan></text>
  <rect class="st1" x="442.09" y="317.12" width="56" height="34"/>
  <rect class="st1" x="500.09" y="317.12" width="56" height="34"/>
  <path class="st24" d="M595.09,322.12h74c7.18,0,13,5.37,13,12h0c0,6.63-5.82,12-13,12h-74c-7.18,0-13-5.37-13-12h0c0-6.63,5.82-12,13-12Z"/>
  <text class="st17" transform="translate(615.14 339.12)"><tspan x="0" y="0">Critical</tspan></text>
  <path class="st24" d="M725.09,322.12h94c7.18,0,13,5.37,13,12h0c0,6.63-5.82,12-13,12h-94c-7.18,0-13-5.37-13-12h0c0-6.63,5.82-12,13-12Z"/>
  <text class="st17" transform="translate(749.02 339.12)"><tspan x="0" y="0">structural</tspan></text>
  <text class="st14" transform="translate(56.52 375.12)"><tspan x="0" y="0">Photoresist (DUV)</tspan></text>
  <rect class="st5" x="152.09" y="353.12" width="56" height="34"/>
  <text class="st14" transform="translate(172.86 375.12)"><tspan x="0" y="0">5%</tspan></text>
  <rect class="st4" x="210.09" y="353.12" width="56" height="34"/>
  <text class="st17" transform="translate(228.08 375.12)"><tspan x="0" y="0">75%</tspan></text>
  <rect class="st5" x="268.09" y="353.12" width="56" height="34"/>
  <text class="st14" transform="translate(288.86 375.12)"><tspan x="0" y="0">5%</tspan></text>
  <rect class="st5" x="326.09" y="353.12" width="56" height="34"/>
  <text class="st14" transform="translate(344.08 375.12)"><tspan x="0" y="0">10%</tspan></text>
  <rect class="st5" x="384.09" y="353.12" width="56" height="34"/>
  <text class="st14" transform="translate(404.86 375.12)"><tspan x="0" y="0">5%</tspan></text>
  <rect class="st1" x="442.09" y="353.12" width="56" height="34"/>
  <rect class="st1" x="500.09" y="353.12" width="56" height="34"/>
  <path class="st24" d="M595.09,358.12h74c7.18,0,13,5.37,13,12h0c0,6.63-5.82,12-13,12h-74c-7.18,0-13-5.37-13-12h0c0-6.63,5.82-12,13-12Z"/>
  <text class="st17" transform="translate(615.14 375.12)"><tspan x="0" y="0">Critical</tspan></text>
  <path class="st23" d="M725.09,358.12h94c7.18,0,13,5.37,13,12h0c0,6.63-5.82,12-13,12h-94c-7.18,0-13-5.37-13-12h0c0-6.63,5.82-12,13-12Z"/>
  <text class="st17" transform="translate(758.04 375.12)"><tspan x="0" y="0">2040+</tspan></text>
  <text class="st14" transform="translate(80.03 411.12)"><tspan x="0" y="0">CMP Slurries</tspan></text>
  <rect class="st4" x="152.09" y="389.12" width="56" height="34"/>
  <text class="st17" transform="translate(170.08 411.12)"><tspan x="0" y="0">55%</tspan></text>
  <rect class="st2" x="210.09" y="389.12" width="56" height="34"/>
  <text class="st17" transform="translate(228.08 411.12)"><tspan x="0" y="0">25%</tspan></text>
  <rect class="st5" x="268.09" y="389.12" width="56" height="34"/>
  <text class="st14" transform="translate(288.86 411.12)"><tspan x="0" y="0">5%</tspan></text>
  <rect class="st5" x="326.09" y="389.12" width="56" height="34"/>
  <text class="st14" transform="translate(346.86 411.12)"><tspan x="0" y="0">5%</tspan></text>
  <rect class="st5" x="384.09" y="389.12" width="56" height="34"/>
  <text class="st14" transform="translate(404.86 411.12)"><tspan x="0" y="0">5%</tspan></text>
  <rect class="st5" x="442.09" y="389.12" width="56" height="34"/>
  <text class="st14" transform="translate(462.86 411.12)"><tspan x="0" y="0">5%</tspan></text>
  <rect class="st1" x="500.09" y="389.12" width="56" height="34"/>
  <path class="st11" d="M595.09,394.12h74c7.18,0,13,5.37,13,12h0c0,6.63-5.82,12-13,12h-74c-7.18,0-13-5.37-13-12h0c0-6.63,5.82-12,13-12Z"/>
  <text class="st17" transform="translate(609.86 411.12)"><tspan x="0" y="0">Moderate</tspan></text>
  <path class="st21" d="M725.09,394.12h94c7.18,0,13,5.37,13,12h0c0,6.63-5.82,12-13,12h-94c-7.18,0-13-5.37-13-12h0c0-6.63,5.82-12,13-12Z"/>
  <text class="st17" transform="translate(760.96 411.12)"><tspan x="0" y="0">2035</tspan></text>
  <text class="st14" transform="translate(65.37 447.12)"><tspan x="0" y="0">Specialty Gases</tspan></text>
  <rect class="st2" x="152.09" y="425.12" width="56" height="34"/>
  <text class="st17" transform="translate(170.08 447.12)"><tspan x="0" y="0">25%</tspan></text>
  <rect class="st2" x="210.09" y="425.12" width="56" height="34"/>
  <text class="st17" transform="translate(228.08 447.12)"><tspan x="0" y="0">30%</tspan></text>
  <rect class="st5" x="268.09" y="425.12" width="56" height="34"/>
  <text class="st14" transform="translate(288.86 447.12)"><tspan x="0" y="0">5%</tspan></text>
  <rect class="st5" x="326.09" y="425.12" width="56" height="34"/>
  <text class="st14" transform="translate(344.08 447.12)"><tspan x="0" y="0">10%</tspan></text>
  <rect class="st5" x="384.09" y="425.12" width="56" height="34"/>
  <text class="st14" transform="translate(402.08 447.12)"><tspan x="0" y="0">15%</tspan></text>
  <rect class="st5" x="442.09" y="425.12" width="56" height="34"/>
  <text class="st14" transform="translate(460.08 447.12)"><tspan x="0" y="0">10%</tspan></text>
  <rect class="st5" x="500.09" y="425.12" width="56" height="34"/>
  <text class="st14" transform="translate(520.86 447.12)"><tspan x="0" y="0">5%</tspan></text>
  <path class="st11" d="M595.09,430.12h74c7.18,0,13,5.37,13,12h0c0,6.63-5.82,12-13,12h-74c-7.18,0-13-5.37-13-12h0c0-6.63,5.82-12,13-12Z"/>
  <text class="st17" transform="translate(609.86 447.12)"><tspan x="0" y="0">Moderate</tspan></text>
  <path class="st11" d="M725.09,430.12h94c7.18,0,13,5.37,13,12h0c0,6.63-5.82,12-13,12h-94c-7.18,0-13-5.37-13-12h0c0-6.63,5.82-12,13-12Z"/>
  <text class="st17" transform="translate(760.96 447.12)"><tspan x="0" y="0">2030</tspan></text>
  <text class="st14" transform="translate(76.33 483.12)"><tspan x="0" y="0">EDA Software</tspan></text>
  <rect class="st6" x="152.09" y="461.12" width="56" height="34"/>
  <text class="st17" transform="translate(170.08 483.12)"><tspan x="0" y="0">95%</tspan></text>
  <rect class="st1" x="210.09" y="461.12" width="56" height="34"/>
  <rect class="st1" x="268.09" y="461.12" width="56" height="34"/>
  <rect class="st1" x="326.09" y="461.12" width="56" height="34"/>
  <rect class="st5" x="384.09" y="461.12" width="56" height="34"/>
  <text class="st14" transform="translate(404.86 483.12)"><tspan x="0" y="0">5%</tspan></text>
  <rect class="st1" x="442.09" y="461.12" width="56" height="34"/>
  <rect class="st1" x="500.09" y="461.12" width="56" height="34"/>
  <path class="st24" d="M595.09,466.12h74c7.18,0,13,5.37,13,12h0c0,6.63-5.82,12-13,12h-74c-7.18,0-13-5.37-13-12h0c0-6.63,5.82-12,13-12Z"/>
  <text class="st17" transform="translate(615.14 483.12)"><tspan x="0" y="0">Critical</tspan></text>
  <path class="st23" d="M725.09,466.12h94c7.18,0,13,5.37,13,12h0c0,6.63-5.82,12-13,12h-94c-7.18,0-13-5.37-13-12h0c0-6.63,5.82-12,13-12Z"/>
  <text class="st17" transform="translate(758.04 483.12)"><tspan x="0" y="0">2040+</tspan></text>
  <text class="st14" transform="translate(101.7 519.12)"><tspan x="0" y="0">IP Cores</tspan></text>
  <rect class="st4" x="152.09" y="497.12" width="56" height="34"/>
  <text class="st17" transform="translate(170.08 519.12)"><tspan x="0" y="0">70%</tspan></text>
  <rect class="st5" x="210.09" y="497.12" width="56" height="34"/>
  <text class="st14" transform="translate(230.86 519.12)"><tspan x="0" y="0">5%</tspan></text>
  <rect class="st5" x="268.09" y="497.12" width="56" height="34"/>
  <text class="st14" transform="translate(288.86 519.12)"><tspan x="0" y="0">5%</tspan></text>
  <rect class="st5" x="326.09" y="497.12" width="56" height="34"/>
  <text class="st14" transform="translate(346.86 519.12)"><tspan x="0" y="0">5%</tspan></text>
  <rect class="st5" x="384.09" y="497.12" width="56" height="34"/>
  <text class="st14" transform="translate(402.08 519.12)"><tspan x="0" y="0">10%</tspan></text>
  <rect class="st1" x="442.09" y="497.12" width="56" height="34"/>
  <rect class="st5" x="500.09" y="497.12" width="56" height="34"/>
  <text class="st14" transform="translate(520.86 519.12)"><tspan x="0" y="0">5%</tspan></text>
  <path class="st23" d="M595.09,502.12h74c7.18,0,13,5.37,13,12h0c0,6.63-5.82,12-13,12h-74c-7.18,0-13-5.37-13-12h0c0-6.63,5.82-12,13-12Z"/>
  <text class="st17" transform="translate(620.98 519.12)"><tspan x="0" y="0">High</tspan></text>
  <path class="st21" d="M725.09,502.12h94c7.18,0,13,5.37,13,12h0c0,6.63-5.82,12-13,12h-94c-7.18,0-13-5.37-13-12h0c0-6.63,5.82-12,13-12Z"/>
  <text class="st17" transform="translate(760.96 519.12)"><tspan x="0" y="0">2035</tspan></text>
  <text class="st14" transform="translate(81.5 555.12)"><tspan x="0" y="0">Mask Blanks</tspan></text>
  <rect class="st5" x="152.09" y="533.12" width="56" height="34"/>
  <text class="st14" transform="translate(170.08 555.12)"><tspan x="0" y="0">10%</tspan></text>
  <rect class="st6" x="210.09" y="533.12" width="56" height="34"/>
  <text class="st17" transform="translate(228.08 555.12)"><tspan x="0" y="0">80%</tspan></text>
  <rect class="st1" x="268.09" y="533.12" width="56" height="34"/>
  <rect class="st5" x="326.09" y="533.12" width="56" height="34"/>
  <text class="st14" transform="translate(346.86 555.12)"><tspan x="0" y="0">5%</tspan></text>
  <rect class="st5" x="384.09" y="533.12" width="56" height="34"/>
  <text class="st14" transform="translate(404.86 555.12)"><tspan x="0" y="0">5%</tspan></text>
  <rect class="st1" x="442.09" y="533.12" width="56" height="34"/>
  <rect class="st1" x="500.09" y="533.12" width="56" height="34"/>
  <path class="st24" d="M595.09,538.12h74c7.18,0,13,5.37,13,12h0c0,6.63-5.82,12-13,12h-74c-7.18,0-13-5.37-13-12h0c0-6.63,5.82-12,13-12Z"/>
  <text class="st17" transform="translate(615.14 555.12)"><tspan x="0" y="0">Critical</tspan></text>
  <path class="st23" d="M725.09,538.12h94c7.18,0,13,5.37,13,12h0c0,6.63-5.82,12-13,12h-94c-7.18,0-13-5.37-13-12h0c0-6.63,5.82-12,13-12Z"/>
  <text class="st17" transform="translate(758.04 555.12)"><tspan x="0" y="0">2040+</tspan></text>
  <text class="st14" transform="translate(67.82 591.12)"><tspan x="0" y="0">Test Equipment</tspan></text>
  <rect class="st4" x="152.09" y="569.12" width="56" height="34"/>
  <text class="st17" transform="translate(170.08 591.12)"><tspan x="0" y="0">55%</tspan></text>
  <rect class="st2" x="210.09" y="569.12" width="56" height="34"/>
  <text class="st17" transform="translate(228.08 591.12)"><tspan x="0" y="0">25%</tspan></text>
  <rect class="st5" x="268.09" y="569.12" width="56" height="34"/>
  <text class="st14" transform="translate(288.86 591.12)"><tspan x="0" y="0">5%</tspan></text>
  <rect class="st5" x="326.09" y="569.12" width="56" height="34"/>
  <text class="st14" transform="translate(346.86 591.12)"><tspan x="0" y="0">5%</tspan></text>
  <rect class="st5" x="384.09" y="569.12" width="56" height="34"/>
  <text class="st14" transform="translate(404.86 591.12)"><tspan x="0" y="0">5%</tspan></text>
  <rect class="st5" x="442.09" y="569.12" width="56" height="34"/>
  <text class="st14" transform="translate(462.86 591.12)"><tspan x="0" y="0">5%</tspan></text>
  <rect class="st1" x="500.09" y="569.12" width="56" height="34"/>
  <path class="st23" d="M595.09,574.12h74c7.18,0,13,5.37,13,12h0c0,6.63-5.82,12-13,12h-74c-7.18,0-13-5.37-13-12h0c0-6.63,5.82-12,13-12Z"/>
  <text class="st17" transform="translate(620.98 591.12)"><tspan x="0" y="0">High</tspan></text>
  <path class="st21" d="M725.09,574.12h94c7.18,0,13,5.37,13,12h0c0,6.63-5.82,12-13,12h-94c-7.18,0-13-5.37-13-12h0c0-6.63,5.82-12,13-12Z"/>
  <text class="st17" transform="translate(760.96 591.12)"><tspan x="0" y="0">2035</tspan></text>
  <text class="st18" transform="translate(152.09 623.12)"><tspan x="0" y="0">SHARE OF INDIA IMPORTS</tspan></text>
  <rect class="st8" x="152.09" y="633.12" width="22" height="18"/>
  <text class="st13" transform="translate(180.09 647.12)"><tspan x="0" y="0">0%</tspan></text>
  <rect class="st10" x="244.09" y="633.12" width="22" height="18"/>
  <text class="st13" transform="translate(272.09 647.12)"><tspan x="0" y="0">&lt;5%</tspan></text>
  <rect class="st9" x="336.09" y="633.12" width="22" height="18"/>
  <text class="st13" transform="translate(364.09 647.12)"><tspan x="0" y="0">5-20%</tspan></text>
  <rect class="st0" x="428.09" y="633.12" width="22" height="18"/>
  <text class="st13" transform="translate(456.09 647.12)"><tspan x="0" y="0">20-50%</tspan></text>
  <rect class="st7" x="520.09" y="633.12" width="22" height="18"/>
  <text class="st13" transform="translate(548.09 647.12)"><tspan x="0" y="0">50-80%</tspan></text>
  <rect class="st3" x="612.09" y="633.12" width="22" height="18"/>
  <text class="st13" transform="translate(640.09 647.12)"><tspan x="0" y="0">&gt;80%</tspan></text>
  <text class="st12" transform="translate(193.92 667.28)"><tspan x="0" y="0">Heatmap reads: India is structurally captive on EUV optics, photoresist and EDA · CMP/etch/metrology a 15-year substitution arc</tspan></text>
</svg>