<?xml version="1.0" encoding="UTF-8"?>
<svg xmlns="http://www.w3.org/2000/svg" version="1.1" xmlns:xlink="http://www.w3.org/1999/xlink" viewBox="0 0 1200 700">
  <!-- Generator: Adobe Illustrator 30.4.0, SVG Export Plug-In . SVG Version: 2.1.4 Build 226)  -->
  <defs>
    <style>
      .st0 {
        letter-spacing: .05em;
      }

      .st0, .st1, .st2, .st3, .st4, .st5, .st6, .st7, .st8, .st9 {
        isolation: isolate;
      }

      .st0, .st4, .st5, .st7, .st8 {
        font-family: ArialMT, Arial;
      }

      .st0, .st4, .st8 {
        fill: #6b7280;
      }

      .st0, .st9 {
        font-size: 10px;
      }

      .st10 {
        fill: #2e6497;
      }

      .st1, .st2, .st3 {
        font-size: 14px;
      }

      .st1, .st2, .st3, .st6, .st9 {
        font-family: Arial-BoldMT, Arial;
        font-weight: 700;
      }

      .st1, .st3, .st6 {
        fill: #fff;
      }

      .st2 {
        fill: #111827;
      }

      .st3 {
        letter-spacing: .04em;
      }

      .st11, .st12, .st13, .st14 {
        stroke: #0b1b3b;
      }

      .st11, .st12, .st14 {
        stroke-width: .5px;
      }

      .st11, .st5 {
        fill: #e5e7eb;
      }

      .st15 {
        stroke: #e5e7eb;
        stroke-dasharray: 3 3;
      }

      .st15, .st13 {
        fill: none;
        stroke-width: 2px;
      }

      .st12, .st7, .st9 {
        fill: #c9a84c;
      }

      .st4, .st5, .st7 {
        font-size: 11px;
      }

      .st6 {
        font-size: 20px;
      }

      .st16 {
        filter: url(#soft);
      }

      .st17 {
        fill: #0b1b3b;
      }

      .st14 {
        fill: #14b8a6;
      }

      .st8 {
        font-size: 9px;
        letter-spacing: .06em;
      }

      .st9 {
        letter-spacing: .15em;
      }
    </style>
    <filter id="soft" x="-10%" y="-10%" width="120%" height="120%">
      <feGaussianBlur in="SourceAlpha" stdDeviation="2"/>
      <feOffset dx="0" dy="1"/>
      <feComponentTransfer>
        <feFuncA slope="0.25" type="linear"/>
      </feComponentTransfer>
      <feMerge>
        <feMergeNode/>
        <feMergeNode in="SourceGraphic"/>
      </feMerge>
    </filter>
  </defs>
  <g id="Layer_1">
    <rect class="st17" y="1" width="1200" height="60"/>
    <g class="st16">
      <rect class="st17" x="540" y="71" width="120" height="50" rx="8" ry="8"/>
    </g>
    <rect class="st10" x="40" y="157" width="120" height="50" rx="8" ry="8"/>
    <line class="st13" x1="600" y1="121" x2="600" y2="161"/>
    <rect class="st14" x="180" y="162" width="113.75" height="40" rx="6" ry="6"/>
    <rect class="st14" x="303.75" y="162" width="113.75" height="40" rx="6" ry="6"/>
    <rect class="st14" x="427.5" y="162" width="113.75" height="40" rx="6" ry="6"/>
    <rect class="st14" x="551.25" y="162" width="113.75" height="40" rx="6" ry="6"/>
    <rect class="st14" x="675" y="162" width="113.75" height="40" rx="6" ry="6"/>
    <rect class="st14" x="798.75" y="162" width="113.75" height="40" rx="6" ry="6"/>
    <rect class="st14" x="922.5" y="162" width="113.75" height="40" rx="6" ry="6"/>
    <rect class="st14" x="1046.25" y="162" width="113.75" height="40" rx="6" ry="6"/>
    <line class="st15" x1="600" y1="207" x2="600" y2="247"/>
    <rect class="st10" x="40" y="247" width="120" height="50" rx="8" ry="8"/>
    <rect class="st11" x="180" y="252" width="155" height="40" rx="6" ry="6"/>
    <rect class="st11" x="345" y="252" width="155" height="40" rx="6" ry="6"/>
    <rect class="st11" x="510" y="252" width="155" height="40" rx="6" ry="6"/>
    <rect class="st11" x="675" y="252" width="155" height="40" rx="6" ry="6"/>
    <rect class="st11" x="840" y="252" width="155" height="40" rx="6" ry="6"/>
    <rect class="st11" x="1005" y="252" width="155" height="40" rx="6" ry="6"/>
    <line class="st15" x1="600" y1="297" x2="600" y2="337"/>
    <rect class="st10" x="40" y="337" width="120" height="50" rx="8" ry="8"/>
    <rect class="st11" x="180" y="342" width="155" height="40" rx="6" ry="6"/>
    <rect class="st11" x="345" y="342" width="155" height="40" rx="6" ry="6"/>
    <rect class="st11" x="510" y="342" width="155" height="40" rx="6" ry="6"/>
    <rect class="st11" x="675" y="342" width="155" height="40" rx="6" ry="6"/>
    <rect class="st11" x="840" y="342" width="155" height="40" rx="6" ry="6"/>
    <rect class="st11" x="1005" y="342" width="155" height="40" rx="6" ry="6"/>
    <line class="st15" x1="600" y1="387" x2="600" y2="427"/>
    <rect class="st10" x="40" y="427" width="120" height="50" rx="8" ry="8"/>
    <rect class="st11" x="180" y="432" width="155" height="40" rx="6" ry="6"/>
    <rect class="st11" x="345" y="432" width="155" height="40" rx="6" ry="6"/>
    <rect class="st11" x="510" y="432" width="155" height="40" rx="6" ry="6"/>
    <rect class="st11" x="675" y="432" width="155" height="40" rx="6" ry="6"/>
    <rect class="st11" x="840" y="432" width="155" height="40" rx="6" ry="6"/>
    <rect class="st11" x="1005" y="432" width="155" height="40" rx="6" ry="6"/>
    <line class="st15" x1="600" y1="477" x2="600" y2="517"/>
    <rect class="st10" x="40" y="517" width="120" height="50" rx="8" ry="8"/>
    <rect class="st11" x="180" y="522" width="113.75" height="40" rx="6" ry="6"/>
    <rect class="st11" x="303.75" y="522" width="113.75" height="40" rx="6" ry="6"/>
    <rect class="st11" x="427.5" y="522" width="113.75" height="40" rx="6" ry="6"/>
    <rect class="st11" x="551.25" y="522" width="113.75" height="40" rx="6" ry="6"/>
    <rect class="st11" x="675" y="522" width="113.75" height="40" rx="6" ry="6"/>
    <rect class="st11" x="798.75" y="522" width="113.75" height="40" rx="6" ry="6"/>
    <rect class="st11" x="922.5" y="522" width="113.75" height="40" rx="6" ry="6"/>
    <rect class="st11" x="1046.25" y="522" width="113.75" height="40" rx="6" ry="6"/>
    <line class="st15" x1="600" y1="567" x2="600" y2="607"/>
    <rect class="st10" x="40" y="607" width="120" height="50" rx="8" ry="8"/>
    <rect class="st12" x="180" y="612" width="113.75" height="40" rx="6" ry="6"/>
    <rect class="st12" x="303.75" y="612" width="113.75" height="40" rx="6" ry="6"/>
    <rect class="st12" x="427.5" y="612" width="113.75" height="40" rx="6" ry="6"/>
    <rect class="st12" x="551.25" y="612" width="113.75" height="40" rx="6" ry="6"/>
    <rect class="st12" x="675" y="612" width="113.75" height="40" rx="6" ry="6"/>
    <rect class="st12" x="798.75" y="612" width="113.75" height="40" rx="6" ry="6"/>
    <rect class="st12" x="922.5" y="612" width="113.75" height="40" rx="6" ry="6"/>
    <rect class="st12" x="1046.25" y="612" width="113.75" height="40" rx="6" ry="6"/>
  </g>
  <g id="Layer_2">
    <text class="st6" transform="translate(40.93 39)"><tspan x="0" y="0">Semiconductor Ecosystem Dependency Tree</tspan></text>
    <text class="st9" transform="translate(1103.8632 17.9473)"><tspan x="0" y="0">FIGURE 02</tspan></text>
    <text class="st5" transform="translate(902.67 39)"><tspan x="0" y="0">Six tiers of inputs and pull required for one operating fab</tspan></text>
    <text class="st0" transform="translate(40 692.31)"><tspan x="0" y="0">INDIA SEMICONDUCTOR INTELLIGENCE 2026 · WHO REALLY BENEFITS FROM INDIA&apos;S FAB ECOSYSTEM?</tspan></text>
    <text class="st8" transform="translate(1103.1249 678.7803)"><tspan x="0" y="0">FIG 02 / 30</tspan></text>
    <text class="st1" transform="translate(583.84 94.37)"><tspan x="0" y="0">FAB</tspan></text>
    <text class="st7" transform="translate(553.31 109.37)"><tspan x="0" y="0">28nm / 14nm node</tspan></text>
    <text class="st3" transform="translate(60.47 186.37)"><tspan x="0" y="0">T1 INPUTS</tspan></text>
    <text class="st1" transform="translate(190.09 186.37)"><tspan x="0" y="0">Silicon wafers</tspan></text>
    <text class="st1" transform="translate(319.96 186.37)"><tspan x="0" y="0">Photoresist</tspan></text>
    <text class="st1" transform="translate(447.05 186.37)"><tspan x="0" y="0">Litho eqpt</tspan></text>
    <text class="st1" transform="translate(572.18 186.37)"><tspan x="0" y="0">Etch eqpt</tspan></text>
    <text class="st1" transform="translate(692.4 186.37)"><tspan x="0" y="0">CMP slurry</tspan></text>
    <text class="st1" transform="translate(814.94 186.37)"><tspan x="0" y="0">Spec gases</tspan></text>
    <text class="st1" transform="translate(931.56 186.37)"><tspan x="0" y="0">Wet chemicals</tspan></text>
    <text class="st1" transform="translate(1054.3989 186.3721)"><tspan x="0" y="0">Sputter targets</tspan></text>
    <text class="st3" transform="translate(53.92 276.37)"><tspan x="0" y="0">T2 UTILITIES</tspan></text>
    <text class="st2" transform="translate(209.99 276.37)"><tspan x="0" y="0">Ultra-pure water</tspan></text>
    <text class="st2" transform="translate(377.2 276.37)"><tspan x="0" y="0">Power 99.999%</tspan></text>
    <text class="st2" transform="translate(545.09 276.37)"><tspan x="0" y="0">HVAC pm0.5C</tspan></text>
    <text class="st2" transform="translate(704.44 276.37)"><tspan x="0" y="0">Cleanroom ISO5</tspan></text>
    <text class="st2" transform="translate(881.66 276.37)"><tspan x="0" y="0">Bulk N2/O2</tspan></text>
    <text class="st2" transform="translate(1041.3774 276.3721)"><tspan x="0" y="0">Vacuum lines</tspan></text>
    <text class="st3" transform="translate(49.89 366.37)"><tspan x="0" y="0">T3 ENABLERS</tspan></text>
    <text class="st2" transform="translate(209.16 366.37)"><tspan x="0" y="0">EPC contractors</tspan></text>
    <text class="st2" transform="translate(382.49 366.37)"><tspan x="0" y="0">Site logistics</tspan></text>
    <text class="st2" transform="translate(541.11 366.37)"><tspan x="0" y="0">Fab automation</tspan></text>
    <text class="st2" transform="translate(698.59 366.37)"><tspan x="0" y="0">Skilling academies</tspan></text>
    <text class="st2" transform="translate(870.83 366.37)"><tspan x="0" y="0">Calibration labs</tspan></text>
    <text class="st2" transform="translate(1049.7221 366.3721)"><tspan x="0" y="0">EHS audit</tspan></text>
    <text class="st3" transform="translate(57.41 456.37)"><tspan x="0" y="0">T4 ENERGY</tspan></text>
    <text class="st2" transform="translate(206.2 456.37)"><tspan x="0" y="0">Industrial RE PPA</tspan></text>
    <text class="st2" transform="translate(387.21 456.37)"><tspan x="0" y="0">Grid 220kV</tspan></text>
    <text class="st2" transform="translate(546.93 456.37)"><tspan x="0" y="0">Captive solar</tspan></text>
    <text class="st2" transform="translate(706.66 456.37)"><tspan x="0" y="0">Battery storage</tspan></text>
    <text class="st2" transform="translate(879.91 456.37)"><tspan x="0" y="0">Water utility</tspan></text>
    <text class="st2" transform="translate(1042.5004 456.3721)"><tspan x="0" y="0">Effluent treat</tspan></text>
    <text class="st3" transform="translate(50.81 546.37)"><tspan x="0" y="0">T5 BACK-END</tspan></text>
    <text class="st2" transform="translate(214.19 546.37)"><tspan x="0" y="0">OSAT</tspan></text>
    <text class="st2" transform="translate(337.67 546.37)"><tspan x="0" y="0">ATMP</tspan></text>
    <text class="st2" transform="translate(452.15 546.37)"><tspan x="0" y="0">Substrate</tspan></text>
    <text class="st2" transform="translate(575.26 546.37)"><tspan x="0" y="0">EDA tools</tspan></text>
    <text class="st2" transform="translate(703.35 546.37)"><tspan x="0" y="0">IP cores</tspan></text>
    <text class="st2" transform="translate(817.84 546.37)"><tspan x="0" y="0">Mask shops</tspan></text>
    <text class="st2" transform="translate(947.8 546.37)"><tspan x="0" y="0">Test prog</tspan></text>
    <text class="st2" transform="translate(1075.2519 546.3721)"><tspan x="0" y="0">QA labs</tspan></text>
    <text class="st3" transform="translate(56.5 636.37)"><tspan x="0" y="0">T6 DEMAND</tspan></text>
    <text class="st1" transform="translate(191.86 636.37)"><tspan x="0" y="0">Consumer elec</tspan></text>
    <text class="st1" transform="translate(328.69 636.37)"><tspan x="0" y="0">Auto (EV)</tspan></text>
    <text class="st1" transform="translate(455.76 636.37)"><tspan x="0" y="0">Defence</tspan></text>
    <text class="st1" transform="translate(568.95 636.37)"><tspan x="0" y="0">Data centres</tspan></text>
    <text class="st1" transform="translate(694.74 636.37)"><tspan x="0" y="0">Telecom 5G</tspan></text>
    <text class="st1" transform="translate(815.07 636.37)"><tspan x="0" y="0">Industrial IoT</tspan></text>
    <text class="st1" transform="translate(951.87 636.37)"><tspan x="0" y="0">Medical</tspan></text>
    <text class="st1" transform="translate(1068.3915 636.3721)"><tspan x="0" y="0">Aerospace</tspan></text>
    <text class="st4" transform="translate(408.95 673)"><tspan x="0" y="0">A 50K wafer/month fab activates ~2,500 supplier line items across these six tiers</tspan></text>
  </g>
</svg>