<?xml version="1.0" encoding="UTF-8"?>
<svg id="Layer_1" xmlns="http://www.w3.org/2000/svg" version="1.1" viewBox="0 0 1100 700">
  <!-- Generator: Adobe Illustrator 30.4.0, SVG Export Plug-In . SVG Version: 2.1.4 Build 226)  -->
  <defs>
    <style>
      .st0, .st1, .st2, .st3 {
        stroke: #fff;
        stroke-width: 2px;
      }

      .st0, .st4, .st5, .st6 {
        fill: #0b1b3b;
      }

      .st1 {
        fill: #2e6497;
      }

      .st7, .st8, .st9, .st10, .st11, .st12, .st4, .st13, .st14, .st15, .st16, .st17, .st18, .st19, .st20, .st21, .st6 {
        isolation: isolate;
      }

      .st7, .st8, .st9, .st10, .st14, .st17, .st19 {
        font-family: ArialMT, Arial;
      }

      .st7, .st8, .st10, .st17 {
        fill: #6b7280;
      }

      .st7, .st19 {
        font-size: 12px;
      }

      .st2 {
        fill: #14b8a6;
      }

      .st8, .st16, .st6 {
        font-size: 14px;
      }

      .st9, .st13, .st20 {
        fill: #111827;
      }

      .st9, .st14, .st18 {
        font-size: 10px;
      }

      .st3, .st16, .st18, .st21 {
        fill: #c9a84c;
      }

      .st10, .st12, .st4, .st20, .st21 {
        font-size: 13px;
      }

      .st11 {
        font-size: 20px;
      }

      .st11, .st12, .st4, .st13, .st15, .st16, .st18, .st20, .st21, .st6 {
        font-family: Arial-BoldMT, Arial;
        font-weight: 700;
      }

      .st11, .st12, .st14, .st15 {
        fill: #fff;
      }

      .st12, .st20 {
        letter-spacing: .04em;
      }

      .st13, .st15 {
        font-size: 11px;
      }

      .st17 {
        font-size: 9px;
        letter-spacing: .06em;
      }

      .st18 {
        letter-spacing: .15em;
      }

      .st19 {
        fill: #e5e7eb;
      }
    </style>
  </defs>
  <rect class="st5" x="-3.88" width="1103.88" height="60"/>
  <text class="st11" transform="translate(26.47 37.77)"><tspan x="0" y="0">First-Wave Beneficiary Pyramid</tspan></text>
  <text class="st18" transform="translate(1009.244 27.772)"><tspan x="0" y="0">FIGURE 07</tspan></text>
  <text class="st19" transform="translate(797.85 47.77)"><tspan x="0" y="0">Where the rupees flow first when a fab comes online</tspan></text>
  <text class="st17" transform="translate(22.39 671.45)"><tspan x="0" y="0">INDIA SEMICONDUCTOR INTELLIGENCE 2026 · WHO REALLY BENEFITS FROM INDIA&apos;S FAB ECOSYSTEM?</tspan></text>
  <text class="st17" transform="translate(1017.4481 671.4519)"><tspan x="0" y="0">FIG 07 / 30</tspan></text>
  <polygon class="st0" points="553.85 72.69 553.85 72.69 650.77 192.69 456.92 192.69 553.85 72.69"/>
  <text class="st12" transform="translate(530.33 118.77)"><tspan x="0" y="0">TIER 1 </tspan><tspan x="-10.83" y="15.6">ANCHORS</tspan></text>
  <text class="st14" transform="translate(497.16 152.93)"><tspan x="0" y="0">Tata Electronics · Micron </tspan><tspan x="-5" y="12">· Kaynes · CG Power · HCL</tspan></text>
  <text class="st15" transform="translate(480.77 183.61)"><tspan x="0" y="0">Opportunity: Rs 1.5 lakh cr</tspan></text>
  <polygon class="st1" points="456.92 192.69 650.77 192.69 771.92 342.69 335.77 342.69 456.92 192.69"/>
  <text class="st12" transform="translate(515.23 255.69)"><tspan x="0" y="0">TIER 2 EMS</tspan></text>
  <text class="st14" transform="translate(441.4 275.69)"><tspan x="0" y="0">Dixon · Syrma SGS · Avalon · Cyient DLM · Amber</tspan></text>
  <text class="st15" transform="translate(486.91 295.69)"><tspan x="0" y="0">Opportunity: Rs 80,000 cr</tspan></text>
  <polygon class="st2" points="335.77 342.69 771.92 342.69 876.92 472.69 230.77 472.69 335.77 342.69"/>
  <text class="st12" transform="translate(480.48 395.69)"><tspan x="0" y="0">TIER 3 HIDDEN INFRA</tspan></text>
  <text class="st14" transform="translate(380.72 415.69)"><tspan x="0" y="0">Tata Projects · L&amp;T · INOX Air · Linde · Wabag · Voltas · Blue Star · Schneider</tspan></text>
  <text class="st15" transform="translate(483.55 435.69)"><tspan x="0" y="0">Opportunity: Rs 1.2 lakh cr</tspan></text>
  <polygon class="st3" points="230.77 472.69 876.92 472.69 973.85 592.69 133.85 592.69 230.77 472.69"/>
  <text class="st20" transform="translate(451.5 520.69)"><tspan x="0" y="0">TIER 4 MSMEs / SKILLING / RE</tspan></text>
  <text class="st9" transform="translate(347.2 540.69)"><tspan x="0" y="0">Embassy · Mindspace · NIELIT · IISc · ESSCI · ReNew · Adani Green · thousands of MSMEs</tspan></text>
  <text class="st13" transform="translate(486.91 560.69)"><tspan x="0" y="0">Opportunity: Rs 60,000 cr</tspan></text>
  <text class="st4" transform="translate(21.85 132.69)"><tspan x="0" y="0">CONCENTRATED →</tspan></text>
  <text class="st10" transform="translate(21.85 152.69)"><tspan x="0" y="0">~10 listed names</tspan></text>
  <text class="st21" transform="translate(28.85 572.69)"><tspan x="0" y="0">BROAD →</tspan></text>
  <text class="st10" transform="translate(28.85 592.69)"><tspan x="0" y="0">~2,500 enterprises</tspan></text>
  <text class="st6" transform="translate(974.42 135.77)"><tspan x="0" y="0">HIGH MARGIN</tspan></text>
  <text class="st8" transform="translate(974.42 155.77)"><tspan x="0" y="0">25-40% EBITDA</tspan></text>
  <text class="st16" transform="translate(973.85 575.28)"><tspan x="0" y="0">VOLUME PLAY</tspan></text>
  <text class="st8" transform="translate(973.85 595.28)"><tspan x="0" y="0">8-15% EBITDA</tspan></text>
  <text class="st7" transform="translate(306.97 622.69)"><tspan x="0" y="0">Aggregate first-wave addressable opportunity ~ Rs 4.1 lakh cr (USD 50B) cumulative 2026-2032</tspan></text>
</svg>