<?xml version="1.0" encoding="UTF-8"?>
<svg id="Layer_1" xmlns="http://www.w3.org/2000/svg" version="1.1" xmlns:xlink="http://www.w3.org/1999/xlink" viewBox="0 0 1000 800">
  <!-- Generator: Adobe Illustrator 30.4.0, SVG Export Plug-In . SVG Version: 2.1.4 Build 226)  -->
  <defs>
    <style>
      .st0, .st1, .st2, .st3, .st4, .st5, .st6, .st7, .st8, .st9, .st10, .st11, .st12, .st13, .st14, .st15, .st16, .st17, .st18, .st19, .st20, .st21, .st22 {
        isolation: isolate;
      }

      .st0, .st3, .st7, .st8, .st18, .st20 {
        font-family: ArialMT, Arial;
      }

      .st0, .st6, .st10, .st21 {
        font-size: 10px;
      }

      .st0, .st20 {
        fill: #6b7280;
      }

      .st23 {
        fill: #2e6497;
      }

      .st1 {
        filter: url(#soft6);
      }

      .st1, .st2, .st4, .st11, .st12, .st13, .st15, .st16, .st17, .st22 {
        opacity: .92;
      }

      .st2 {
        filter: url(#soft8);
      }

      .st3, .st6, .st19 {
        fill: #111827;
      }

      .st3, .st19, .st20 {
        font-size: 9px;
      }

      .st4 {
        filter: url(#soft7);
      }

      .st5 {
        letter-spacing: .03em;
      }

      .st5, .st6, .st9, .st10, .st14, .st19, .st21 {
        font-family: Arial-BoldMT, Arial;
        font-weight: 700;
      }

      .st5, .st8, .st9, .st10, .st14, .st18 {
        fill: #fff;
      }

      .st5, .st18 {
        font-size: 9.5px;
      }

      .st7, .st8 {
        font-size: 11px;
      }

      .st7, .st24 {
        fill: #e5e7eb;
      }

      .st25, .st21 {
        fill: #c9a84c;
      }

      .st9 {
        font-size: 20px;
      }

      .st11 {
        filter: url(#soft1);
      }

      .st12 {
        filter: url(#soft2);
      }

      .st26 {
        fill: #f8fafc;
        stroke: #e5e7eb;
      }

      .st13 {
        filter: url(#soft9);
      }

      .st27 {
        fill: #0b1b3b;
      }

      .st14 {
        font-size: 12px;
      }

      .st28 {
        fill: #b91c1c;
      }

      .st29 {
        fill: #14b8a6;
      }

      .st15 {
        filter: url(#soft4);
      }

      .st16 {
        filter: url(#soft3);
      }

      .st17 {
        filter: url(#soft5);
      }

      .st19 {
        letter-spacing: .03em;
      }

      .st20 {
        letter-spacing: .06em;
      }

      .st21 {
        letter-spacing: .15em;
      }

      .st22 {
        filter: url(#soft);
      }
    </style>
    <filter id="soft" x="-10%" y="-10%" width="120%" height="120%">
      <feGaussianBlur in="SourceAlpha" stdDeviation="2"/>
      <feOffset dx="0" dy="1"/>
      <feComponentTransfer>
        <feFuncA slope="0.25" type="linear"/>
      </feComponentTransfer>
      <feMerge>
        <feMergeNode/>
        <feMergeNode in="SourceGraphic"/>
      </feMerge>
    </filter>
    <filter id="soft1" data-name="soft" x="-10%" y="-10%" width="120%" height="120%">
      <feGaussianBlur in="SourceAlpha" stdDeviation="2"/>
      <feOffset dx="0" dy="1"/>
      <feComponentTransfer>
        <feFuncA slope="0.25" type="linear"/>
      </feComponentTransfer>
      <feMerge>
        <feMergeNode/>
        <feMergeNode in="SourceGraphic"/>
      </feMerge>
    </filter>
    <filter id="soft2" data-name="soft" x="-10%" y="-10%" width="120%" height="120%">
      <feGaussianBlur in="SourceAlpha" stdDeviation="2"/>
      <feOffset dx="0" dy="1"/>
      <feComponentTransfer>
        <feFuncA slope="0.25" type="linear"/>
      </feComponentTransfer>
      <feMerge>
        <feMergeNode/>
        <feMergeNode in="SourceGraphic"/>
      </feMerge>
    </filter>
    <filter id="soft3" data-name="soft" x="-10%" y="-10%" width="120%" height="120%">
      <feGaussianBlur in="SourceAlpha" stdDeviation="2"/>
      <feOffset dx="0" dy="1"/>
      <feComponentTransfer>
        <feFuncA slope="0.25" type="linear"/>
      </feComponentTransfer>
      <feMerge>
        <feMergeNode/>
        <feMergeNode in="SourceGraphic"/>
      </feMerge>
    </filter>
    <filter id="soft4" data-name="soft" x="-10%" y="-10%" width="120%" height="120%">
      <feGaussianBlur in="SourceAlpha" stdDeviation="2"/>
      <feOffset dx="0" dy="1"/>
      <feComponentTransfer>
        <feFuncA slope="0.25" type="linear"/>
      </feComponentTransfer>
      <feMerge>
        <feMergeNode/>
        <feMergeNode in="SourceGraphic"/>
      </feMerge>
    </filter>
    <filter id="soft5" data-name="soft" x="-10%" y="-10%" width="120%" height="120%">
      <feGaussianBlur in="SourceAlpha" stdDeviation="2"/>
      <feOffset dx="0" dy="1"/>
      <feComponentTransfer>
        <feFuncA slope="0.25" type="linear"/>
      </feComponentTransfer>
      <feMerge>
        <feMergeNode/>
        <feMergeNode in="SourceGraphic"/>
      </feMerge>
    </filter>
    <filter id="soft6" data-name="soft" x="-10%" y="-10%" width="120%" height="120%">
      <feGaussianBlur in="SourceAlpha" stdDeviation="2"/>
      <feOffset dx="0" dy="1"/>
      <feComponentTransfer>
        <feFuncA slope="0.25" type="linear"/>
      </feComponentTransfer>
      <feMerge>
        <feMergeNode/>
        <feMergeNode in="SourceGraphic"/>
      </feMerge>
    </filter>
    <filter id="soft7" data-name="soft" x="-10%" y="-10%" width="120%" height="120%">
      <feGaussianBlur in="SourceAlpha" stdDeviation="2"/>
      <feOffset dx="0" dy="1"/>
      <feComponentTransfer>
        <feFuncA slope="0.25" type="linear"/>
      </feComponentTransfer>
      <feMerge>
        <feMergeNode/>
        <feMergeNode in="SourceGraphic"/>
      </feMerge>
    </filter>
    <filter id="soft8" data-name="soft" x="-10%" y="-10%" width="120%" height="120%">
      <feGaussianBlur in="SourceAlpha" stdDeviation="2"/>
      <feOffset dx="0" dy="1"/>
      <feComponentTransfer>
        <feFuncA slope="0.25" type="linear"/>
      </feComponentTransfer>
      <feMerge>
        <feMergeNode/>
        <feMergeNode in="SourceGraphic"/>
      </feMerge>
    </filter>
    <filter id="soft9" data-name="soft" x="-10%" y="-10%" width="120%" height="120%">
      <feGaussianBlur in="SourceAlpha" stdDeviation="2"/>
      <feOffset dx="0" dy="1"/>
      <feComponentTransfer>
        <feFuncA slope="0.25" type="linear"/>
      </feComponentTransfer>
      <feMerge>
        <feMergeNode/>
        <feMergeNode in="SourceGraphic"/>
      </feMerge>
    </filter>
  </defs>
  <rect class="st27" y="0" width="1000" height="60"/>
  <text class="st9" transform="translate(33.84 39.42)"><tspan x="0" y="0">Workforce Segmentation Funnel — Roles, Pools, Gaps</tspan></text>
  <text class="st21" transform="translate(896.2 23.42)"><tspan x="0" y="0">FIGURE 35</tspan></text>
  <text class="st7" transform="translate(691.08 45.13)"><tspan x="0" y="0">Current 2026 · needed 2027 · training lead times by role</tspan></text>
  <text class="st20" transform="translate(77.95 750.9)"><tspan x="0" y="0">INDIA SEMICONDUCTOR INTELLIGENCE 2026 · WHO REALLY BENEFITS FROM INDIA&apos;S FAB ECOSYSTEM?</tspan></text>
  <text class="st20" transform="translate(1009.478 785)"><tspan x="0" y="0">FIG 35 / 38</tspan></text>
  <g class="st22">
    <polygon class="st23" points="193 83.45 733 83.45 618.49 137.45 307.51 137.45 193 83.45"/>
  </g>
  <text class="st14" transform="translate(386.17 96.45)"><tspan x="0" y="0">ESDM-adjacent technicians</tspan></text>
  <text class="st18" transform="translate(362.65 119.45)"><tspan x="0" y="0">cur 180,000 · need 240,000 · gap 60,000 (25%)</tspan></text>
  <text class="st19" transform="translate(63 95.45)"><tspan x="0" y="0">GAP 25%</tspan></text>
  <rect class="st24" x="63" y="101.45" width="174.71" height="14" rx="3" ry="3"/>
  <rect class="st29" x="63" y="101.45" width="50" height="14" rx="3" ry="3"/>
  <path class="st23" d="M763,95.45h152c7.73,0,14,6.27,14,14h0c0,7.73-6.27,14-14,14h-152c-7.73,0-14-6.27-14-14h0c0-7.73,6.27-14,14-14Z"/>
  <text class="st5" transform="translate(799.84 105.45)"><tspan x="0" y="0">TRAINING LEAD</tspan></text>
  <text class="st10" transform="translate(827.33 117.45)"><tspan x="0" y="0">6 mo</tspan></text>
  <g class="st11">
    <polygon class="st23" points="307.51 139.45 618.49 139.45 647.41 193.45 278.58 193.45 307.51 139.45"/>
  </g>
  <text class="st14" transform="translate(402.38 152.45)"><tspan x="0" y="0">Cleanroom operators</tspan></text>
  <text class="st8" transform="translate(367.93 175.45)"><tspan x="0" y="0">cur 42,000 · need 88,000 · gap 46,000 (52%)</tspan></text>
  <text class="st19" transform="translate(63 151.45)"><tspan x="0" y="0">GAP 52%</tspan></text>
  <rect class="st24" x="63" y="157.45" width="174.71" height="14" rx="3" ry="3"/>
  <rect class="st25" x="63" y="157.45" width="104" height="14" rx="3" ry="3"/>
  <path class="st23" d="M763,151.45h152c7.73,0,14,6.27,14,14h0c0,7.73-6.27,14-14,14h-152c-7.73,0-14-6.27-14-14h0c0-7.73,6.27-14,14-14Z"/>
  <text class="st5" transform="translate(799.84 161.45)"><tspan x="0" y="0">TRAINING LEAD</tspan></text>
  <text class="st10" transform="translate(827.33 173.45)"><tspan x="0" y="0">6 mo</tspan></text>
  <g class="st12">
    <polygon class="st23" points="278.58 195.45 647.41 195.45 545.83 249.45 380.17 249.45 278.58 195.45"/>
  </g>
  <text class="st14" transform="translate(393.81 208.45)"><tspan x="0" y="0">Assembly-line operators</tspan></text>
  <text class="st8" transform="translate(392.6 229.45)"><tspan x="0" y="0">cur 65,000 · need 120,000 </tspan><tspan x="18.96" y="13.2">· gap 55,000 (45%)</tspan></text>
  <text class="st19" transform="translate(63 207.45)"><tspan x="0" y="0">GAP 45%</tspan></text>
  <rect class="st24" x="63" y="213.45" width="174.71" height="14" rx="3" ry="3"/>
  <rect class="st29" x="63" y="213.45" width="90" height="14" rx="3" ry="3"/>
  <path class="st23" d="M763,207.45h152c7.73,0,14,6.27,14,14h0c0,7.73-6.27,14-14,14h-152c-7.73,0-14-6.27-14-14h0c0-7.73,6.27-14,14-14Z"/>
  <text class="st5" transform="translate(799.84 217.45)"><tspan x="0" y="0">TRAINING LEAD</tspan></text>
  <text class="st10" transform="translate(827.33 229.45)"><tspan x="0" y="0">6 mo</tspan></text>
  <g class="st16">
    <polygon class="st29" points="380.17 251.45 545.83 251.45 543 305.45 383 305.45 380.17 251.45"/>
  </g>
  <text class="st14" transform="translate(410.01 264.45)"><tspan x="0" y="0">Quality inspectors</tspan></text>
  <text class="st8" transform="translate(392.86 285.45)"><tspan x="0" y="0">cur 12,000 · need 28,000</tspan><tspan x="12.85" y="13.2" xml:space="preserve"> · gap 16,000 (57%)</tspan></text>
  <text class="st19" transform="translate(63 263.45)"><tspan x="0" y="0">GAP 57%</tspan></text>
  <rect class="st24" x="63" y="269.45" width="174.71" height="14" rx="3" ry="3"/>
  <rect class="st25" x="63" y="269.45" width="114" height="14" rx="3" ry="3"/>
  <path class="st29" d="M763,263.45h152c7.73,0,14,6.27,14,14h0c0,7.73-6.27,14-14,14h-152c-7.73,0-14-6.27-14-14h0c0-7.73,6.27-14,14-14Z"/>
  <text class="st5" transform="translate(799.84 273.45)"><tspan x="0" y="0">TRAINING LEAD</tspan></text>
  <text class="st10" transform="translate(830.1 285.45)"><tspan x="0" y="0">1 yr</tspan></text>
  <g class="st15">
    <rect class="st29" x="383" y="307.45" width="160" height="54"/>
  </g>
  <text class="st14" transform="translate(409.08 320.45)"><tspan x="0" y="0">Process engineers</tspan></text>
  <text class="st8" transform="translate(396.32 341.45)"><tspan x="0" y="0">cur 8,500 · need 22,000 </tspan><tspan x="12.85" y="13.2">· gap 13,500 (61%)</tspan></text>
  <text class="st19" transform="translate(63 319.45)"><tspan x="0" y="0">GAP 61%</tspan></text>
  <rect class="st24" x="63" y="325.45" width="174.71" height="14" rx="3" ry="3"/>
  <rect class="st25" x="63" y="325.45" width="122" height="14" rx="3" ry="3"/>
  <path class="st29" d="M763,319.45h152c7.73,0,14,6.27,14,14h0c0,7.73-6.27,14-14,14h-152c-7.73,0-14-6.27-14-14h0c0-7.73,6.27-14,14-14Z"/>
  <text class="st5" transform="translate(799.84 329.45)"><tspan x="0" y="0">TRAINING LEAD</tspan></text>
  <text class="st10" transform="translate(830.1 341.45)"><tspan x="0" y="0">2 yr</tspan></text>
  <g class="st17">
    <rect class="st25" x="383" y="363.45" width="160" height="54"/>
  </g>
  <text class="st14" transform="translate(417.55 376.45)"><tspan x="0" y="0">Yield engineers</tspan></text>
  <text class="st8" transform="translate(398.85 397.45)"><tspan x="0" y="0">cur 1,800 · need 6,500 </tspan><tspan x="12.85" y="13.2">· gap 4,700 (72%)</tspan></text>
  <text class="st19" transform="translate(63 375.45)"><tspan x="0" y="0">GAP 72%</tspan></text>
  <rect class="st24" x="63" y="381.45" width="174.71" height="14" rx="3" ry="3"/>
  <rect class="st28" x="63" y="381.45" width="144" height="14" rx="3" ry="3"/>
  <path class="st25" d="M763,375.45h152c7.73,0,14,6.27,14,14h0c0,7.73-6.27,14-14,14h-152c-7.73,0-14-6.27-14-14h0c0-7.73,6.27-14,14-14Z"/>
  <text class="st5" transform="translate(799.84 385.45)"><tspan x="0" y="0">TRAINING LEAD</tspan></text>
  <text class="st10" transform="translate(825.66 397.45)"><tspan x="0" y="0">3-5 yr</tspan></text>
  <g class="st1">
    <rect class="st25" x="383" y="419.45" width="160" height="54"/>
  </g>
  <text class="st14" transform="translate(402.07 432.45)"><tspan x="0" y="0">Equipment engineers</tspan></text>
  <text class="st8" transform="translate(399.7 453.45)"><tspan x="0" y="0">cur 2,200 · need 7,200 </tspan><tspan x="12.85" y="13.2">· gap 5,000 (69%)</tspan></text>
  <text class="st19" transform="translate(63 431.45)"><tspan x="0" y="0">GAP 69%</tspan></text>
  <rect class="st24" x="63" y="437.45" width="174.71" height="14" rx="3" ry="3"/>
  <rect class="st25" x="63" y="437.45" width="138" height="14" rx="3" ry="3"/>
  <path class="st25" d="M763,431.45h152c7.73,0,14,6.27,14,14h0c0,7.73-6.27,14-14,14h-152c-7.73,0-14-6.27-14-14h0c0-7.73,6.27-14,14-14Z"/>
  <text class="st5" transform="translate(799.84 441.45)"><tspan x="0" y="0">TRAINING LEAD</tspan></text>
  <text class="st10" transform="translate(825.66 453.45)"><tspan x="0" y="0">3-5 yr</tspan></text>
  <g class="st4">
    <rect class="st28" x="383" y="475.45" width="160" height="54"/>
  </g>
  <text class="st14" transform="translate(396.57 488.45)"><tspan x="0" y="0">Lithography specialists</tspan></text>
  <text class="st8" transform="translate(415.87 509.45)"><tspan x="0" y="0">cur 320 · need 1,400</tspan><tspan x="0" y="13.2" xml:space="preserve"> · gap 1,080 (77%)</tspan></text>
  <text class="st19" transform="translate(63 487.45)"><tspan x="0" y="0">GAP 77%</tspan></text>
  <rect class="st24" x="63" y="493.45" width="174.71" height="14" rx="3" ry="3"/>
  <rect class="st28" x="63" y="493.45" width="154" height="14" rx="3" ry="3"/>
  <path class="st28" d="M763,487.45h152c7.73,0,14,6.27,14,14h0c0,7.73-6.27,14-14,14h-152c-7.73,0-14-6.27-14-14h0c0-7.73,6.27-14,14-14Z"/>
  <text class="st5" transform="translate(799.84 497.45)"><tspan x="0" y="0">TRAINING LEAD</tspan></text>
  <text class="st10" transform="translate(825.66 509.45)"><tspan x="0" y="0">5-7 yr</tspan></text>
  <g class="st2">
    <rect class="st25" x="383" y="531.45" width="160" height="54"/>
  </g>
  <text class="st14" transform="translate(390.25 544.45)"><tspan x="0" y="0">Adv. packaging engineers</tspan></text>
  <text class="st8" transform="translate(402.85 563.45)"><tspan x="0" y="0">cur 480 · need 2,100 </tspan><tspan x="8.26" y="13.2">· gap 1,620 (77%)</tspan></text>
  <text class="st19" transform="translate(63 543.45)"><tspan x="0" y="0">GAP 77%</tspan></text>
  <rect class="st24" x="63" y="549.45" width="174.71" height="14" rx="3" ry="3"/>
  <rect class="st28" x="63" y="549.45" width="154" height="14" rx="3" ry="3"/>
  <path class="st25" d="M763,543.45h152c7.73,0,14,6.27,14,14h0c0,7.73-6.27,14-14,14h-152c-7.73,0-14-6.27-14-14h0c0-7.73,6.27-14,14-14Z"/>
  <text class="st5" transform="translate(799.84 553.45)"><tspan x="0" y="0">TRAINING LEAD</tspan></text>
  <text class="st10" transform="translate(825.66 565.45)"><tspan x="0" y="0">3-5 yr</tspan></text>
  <g class="st13">
    <polygon class="st28" points="383 587.45 543 587.45 531 641.45 395 641.45 383 587.45"/>
  </g>
  <text class="st14" transform="translate(390.75 600.45)"><tspan x="0" y="0">Senior process architects</tspan></text>
  <text class="st8" transform="translate(419.65 619.45)"><tspan x="0" y="0">cur 140 · need 620 </tspan><tspan x="0" y="13.2">· gap 480 (77%)</tspan></text>
  <text class="st19" transform="translate(63 599.45)"><tspan x="0" y="0">GAP 77%</tspan></text>
  <rect class="st24" x="63" y="605.45" width="174.71" height="14" rx="3" ry="3"/>
  <rect class="st28" x="63" y="605.45" width="154" height="14" rx="3" ry="3"/>
  <path class="st28" d="M763,599.45h152c7.73,0,14,6.27,14,14h0c0,7.73-6.27,14-14,14h-152c-7.73,0-14-6.27-14-14h0c0-7.73,6.27-14,14-14Z"/>
  <text class="st5" transform="translate(799.84 609.45)"><tspan x="0" y="0">TRAINING LEAD</tspan></text>
  <text class="st10" transform="translate(822.88 621.45)"><tspan x="0" y="0">7-10 yr</tspan></text>
  <rect class="st26" x="62.04" y="655.45" width="200" height="60" rx="6" ry="6"/>
  <text class="st6" transform="translate(72.04 675.45)"><tspan x="0" y="0">GAP SEVERITY</tspan></text>
  <rect class="st28" x="72.04" y="685.45" width="16" height="10"/>
  <text class="st3" transform="translate(94.04 694.45)"><tspan x="0" y="0">&gt;=70%</tspan></text>
  <rect class="st25" x="132.04" y="685.45" width="16" height="10"/>
  <text class="st3" transform="translate(154.04 694.45)"><tspan x="0" y="0">50-70%</tspan></text>
  <rect class="st29" x="192.04" y="685.45" width="16" height="10"/>
  <text class="st3" transform="translate(214.04 694.45)"><tspan x="0" y="0">&lt;50%</tspan></text>
  <text class="st0" transform="translate(384.62 720.9)"><tspan x="0" y="0">Funnel reads: India scales operators in months, engineers in years, yield + lithography specialists across a decade</tspan></text>
</svg>