<?xml version="1.0" encoding="UTF-8"?>
<svg xmlns="http://www.w3.org/2000/svg" version="1.1" viewBox="0 0 1200 800">
  <!-- Generator: Adobe Illustrator 30.4.0, SVG Export Plug-In . SVG Version: 2.1.4 Build 226)  -->
  <defs>
    <style>
      .st0, .st1, .st2, .st3, .st4, .st5, .st6, .st7, .st8, .st9, .st10, .st11, .st12, .st13, .st14, .st15, .st16, .st17, .st18, .st19 {
        isolation: isolate;
      }

      .st0, .st5, .st11, .st14, .st15, .st19 {
        font-family: ArialMT, Arial;
      }

      .st0, .st15 {
        fill: #6b7280;
      }

      .st0, .st16 {
        font-size: 10px;
      }

      .st1, .st6, .st7, .st10, .st20, .st17 {
        stroke-width: .5px;
      }

      .st1, .st6, .st7, .st10, .st17 {
        stroke: #0b1b3b;
      }

      .st1, .st6, .st10, .st17 {
        opacity: .92;
      }

      .st1, .st21 {
        fill: #0b1b3b;
      }

      .st22, .st17 {
        fill: #2e6497;
      }

      .st2, .st3, .st4, .st8, .st9, .st12, .st13, .st16, .st18 {
        font-family: Arial-BoldMT, Arial;
        font-weight: 700;
      }

      .st2, .st3, .st14 {
        font-size: 14px;
      }

      .st2, .st5, .st8, .st12, .st13, .st23, .st18 {
        fill: #fff;
      }

      .st24 {
        stroke: #fff;
        stroke-width: 2px;
      }

      .st24, .st6, .st25 {
        fill: #14b8a6;
      }

      .st3, .st4, .st9, .st14, .st19 {
        fill: #111827;
      }

      .st4 {
        font-size: 12px;
        letter-spacing: .05em;
      }

      .st5, .st9, .st12, .st19 {
        font-size: 13px;
      }

      .st7 {
        opacity: .4;
      }

      .st7, .st11, .st26 {
        fill: #e5e7eb;
      }

      .st8 {
        letter-spacing: .05em;
      }

      .st8, .st11 {
        font-size: 11px;
      }

      .st9, .st12 {
        letter-spacing: .04em;
      }

      .st10, .st27, .st16 {
        fill: #c9a84c;
      }

      .st20 {
        fill: none;
      }

      .st20, .st28, .st23 {
        stroke: #e5e7eb;
      }

      .st28 {
        fill: #f8fafc;
      }

      .st13, .st15 {
        font-size: 9px;
      }

      .st15 {
        letter-spacing: .06em;
      }

      .st16 {
        letter-spacing: .15em;
      }

      .st18 {
        font-size: 21px;
      }
    </style>
  </defs>
  <g id="Layer_5">
    <rect class="st28" x="60.44" y="103.04" width="1080" height="560"/>
    <rect class="st23" x="60" y="685.43" width="1080" height="80"/>
  </g>
  <g id="Layer_4">
    <line class="st20" x1="120.44" y1="103.04" x2="120.44" y2="663.04"/>
    <line class="st20" x1="240.44" y1="103.04" x2="240.44" y2="663.04"/>
    <line class="st20" x1="360.44" y1="103.04" x2="360.44" y2="663.04"/>
    <line class="st20" x1="480.44" y1="103.04" x2="480.44" y2="663.04"/>
    <line class="st20" x1="600.44" y1="103.04" x2="600.44" y2="663.04"/>
    <line class="st20" x1="720.44" y1="103.04" x2="720.44" y2="663.04"/>
    <line class="st20" x1="840.44" y1="103.04" x2="840.44" y2="663.04"/>
    <line class="st20" x1="960.44" y1="103.04" x2="960.44" y2="663.04"/>
    <line class="st20" x1="1080.44" y1="103.04" x2="1080.44" y2="663.04"/>
    <line class="st20" x1="60.44" y1="163.04" x2="1140.44" y2="163.04"/>
    <line class="st20" x1="60.44" y1="263.04" x2="1140.44" y2="263.04"/>
    <line class="st20" x1="60.44" y1="363.04" x2="1140.44" y2="363.04"/>
    <line class="st20" x1="60.44" y1="463.04" x2="1140.44" y2="463.04"/>
    <line class="st20" x1="60.44" y1="563.04" x2="1140.44" y2="563.04"/>
  </g>
  <g id="Layer_2">
    <rect class="st17" x="110.44" y="173.04" width="200" height="130" rx="8" ry="8"/>
    <rect class="st17" x="370.44" y="183.04" width="200" height="120" rx="8" ry="8"/>
    <rect class="st17" x="640.44" y="153.04" width="130" height="100" rx="8" ry="8"/>
    <rect class="st10" x="790.44" y="173.04" width="110" height="100" rx="8" ry="8"/>
    <rect class="st1" x="940.44" y="233.04" width="180" height="140" rx="8" ry="8"/>
    <rect class="st17" x="680.44" y="293.04" width="250" height="130" rx="8" ry="8"/>
    <rect class="st6" x="110.44" y="383.04" width="240" height="130" rx="8" ry="8"/>
    <rect class="st17" x="390.44" y="413.04" width="200" height="130" rx="8" ry="8"/>
    <rect class="st7" x="600.44" y="473.04" width="180" height="120" rx="8" ry="8"/>
    <rect class="st7" x="110.44" y="543.04" width="200" height="90" rx="8" ry="8"/>
    <rect class="st7" x="820.44" y="473.04" width="200" height="120" rx="8" ry="8"/>
  </g>
  <g id="Layer_1">
    <rect class="st21" y="0" width="1200" height="60"/>
    <text class="st18" transform="translate(40 38)"><tspan x="0" y="0">Global Semiconductor Power Map</tspan></text>
    <text class="st16" transform="translate(1094.8203 24)"><tspan x="0" y="0">FIGURE 01</tspan></text>
    <text class="st11" transform="translate(935.78 44)"><tspan x="0" y="0">Concentration of capacity and capability, 2025</tspan></text>
    <text class="st15" transform="translate(60.44 785.11)"><tspan x="0" y="0">INDIA SEMICONDUCTOR INTELLIGENCE 2026 · WHO REALLY BENEFITS FROM INDIA&apos;S FAB ECOSYSTEM?</tspan></text>
    <text class="st15" transform="translate(1109.478 785)"><tspan x="0" y="0">FIG 01 / 30</tspan></text>
    <text class="st12" transform="translate(122 192)"><tspan x="0" y="0">NORTH AMERICA</tspan></text>
    <text class="st5" transform="translate(120.44 234.54)"><tspan x="0" y="0">USA Intel, Micron, GF</tspan></text>
    <text class="st5" transform="translate(120.44 251.54)"><tspan x="0" y="0">Design + Equipment</tspan></text>
    <text class="st2" transform="translate(269.98 290)"><tspan x="0" y="0">12%</tspan></text>
    <text class="st8" transform="translate(382 202)"><tspan x="0" y="0">EUROPE</tspan></text>
    <text class="st5" transform="translate(382.8 236.04)"><tspan x="0" y="0">ASML (NL), ESMC (DE)</tspan></text>
    <text class="st5" transform="translate(382.8 253.04)"><tspan x="0" y="0">Infineon, STMicro</tspan></text>
    <text class="st2" transform="translate(537.77 290)"><tspan x="0" y="0">9%</tspan></text>
    <text class="st12" transform="translate(652 172)"><tspan x="0" y="0">JAPAN</tspan></text>
    <text class="st5" transform="translate(650.44 201.47)"><tspan x="0" y="0">TEL, Shin-Etsu</tspan></text>
    <text class="st5" transform="translate(650.44 218.47)"><tspan x="0" y="0">Kioxia, Renesas</tspan></text>
    <text class="st2" transform="translate(729.98 240)"><tspan x="0" y="0">15%</tspan></text>
    <text class="st12" transform="translate(802 192)"><tspan x="0" y="0">S. KOREA</tspan></text>
    <text class="st5" transform="translate(802 217)"><tspan x="0" y="0">Samsung</tspan></text>
    <text class="st5" transform="translate(802 234)"><tspan x="0" y="0">SK Hynix</tspan></text>
    <text class="st2" transform="translate(859.98 260)"><tspan x="0" y="0">18%</tspan></text>
    <text class="st12" transform="translate(952 252)"><tspan x="0" y="0">TAIWAN</tspan></text>
    <text class="st5" transform="translate(952 293)"><tspan x="0" y="0">TSMC pure-play</tspan></text>
    <text class="st5" transform="translate(952 311)"><tspan x="0" y="0">&gt;60% global foundry</tspan></text>
    <text class="st2" transform="translate(1079.9795 360)"><tspan x="0" y="0">63%</tspan></text>
    <text class="st12" transform="translate(692 312)"><tspan x="0" y="0">CHINA</tspan></text>
    <text class="st5" transform="translate(692 352)"><tspan x="0" y="0">SMIC, YMTC, CXMT</tspan></text>
    <text class="st5" transform="translate(692 369)"><tspan x="0" y="0">Sanctioned &gt;7nm</tspan></text>
    <text class="st2" transform="translate(897.77 410)"><tspan x="0" y="0">7%</tspan></text>
    <text class="st12" transform="translate(122 402)"><tspan x="0" y="0">SOUTH ASIA</tspan></text>
    <text class="st5" transform="translate(120.44 441.5)"><tspan x="0" y="0">INDIA - emerging</tspan></text>
    <text class="st5" transform="translate(120.44 458.5)"><tspan x="0" y="0">Dholera, Sanand, Jagiroad</tspan></text>
    <text class="st2" transform="translate(309.59 500)"><tspan x="0" y="0">&lt;1%</tspan></text>
    <text class="st12" transform="translate(402 432)"><tspan x="0" y="0">SE ASIA</tspan></text>
    <text class="st5" transform="translate(402 468)"><tspan x="0" y="0">Malaysia, Singapore</tspan></text>
    <text class="st5" transform="translate(402 485)"><tspan x="0" y="0">Vietnam OSAT hubs</tspan></text>
    <text class="st2" transform="translate(549.98 530)"><tspan x="0" y="0">10%</tspan></text>
    <text class="st9" transform="translate(612 492)"><tspan x="0" y="0">MIDEAST</tspan></text>
    <text class="st19" transform="translate(612 526)"><tspan x="0" y="0">UAE, Saudi (G42)</tspan></text>
    <text class="st19" transform="translate(612 542)"><tspan x="0" y="0">emerging</tspan></text>
    <text class="st3" transform="translate(747.77 580)"><tspan x="0" y="0">0%</tspan></text>
    <text class="st9" transform="translate(122 562)"><tspan x="0" y="0">AFRICA</tspan></text>
    <text class="st19" transform="translate(121.47 593.04)"><tspan x="0" y="0">Minerals upstream</tspan></text>
    <text class="st3" transform="translate(277.77 620)"><tspan x="0" y="0">0%</tspan></text>
    <text class="st9" transform="translate(832 492)"><tspan x="0" y="0">OCEANIA</tspan></text>
    <text class="st19" transform="translate(832.56 528.73)"><tspan x="0" y="0">Australia rare earths</tspan></text>
    <text class="st3" transform="translate(987.77 580)"><tspan x="0" y="0">0%</tspan></text>
    <circle class="st24" cx="230.44" cy="474.24" r="10"/>
    <text class="st13" transform="translate(226.11 478.24)"><tspan x="0" y="0">IN</tspan></text>
    <text class="st4" transform="translate(80 710)"><tspan x="0" y="0">SHARE OF GLOBAL WAFER FABRICATION CAPACITY (300mm-equivalent)</tspan></text>
    <rect class="st21" x="80" y="730" width="18" height="14" rx="3" ry="3"/>
    <text class="st14" transform="translate(104 742)"><tspan x="0" y="0">&gt;40%</tspan></text>
    <rect class="st27" x="220" y="730" width="18" height="14" rx="3" ry="3"/>
    <text class="st14" transform="translate(244 742)"><tspan x="0" y="0">15-30%</tspan></text>
    <rect class="st22" x="360" y="730" width="18" height="14" rx="3" ry="3"/>
    <text class="st14" transform="translate(384 742)"><tspan x="0" y="0">5-15%</tspan></text>
    <rect class="st25" x="500" y="730" width="18" height="14" rx="3" ry="3"/>
    <text class="st14" transform="translate(524 742)"><tspan x="0" y="0">&lt;5%, rising</tspan></text>
    <rect class="st26" x="680" y="730" width="18" height="14" rx="3" ry="3"/>
    <text class="st14" transform="translate(704 742)"><tspan x="0" y="0">Negligible</tspan></text>
    <text class="st0" transform="translate(982.35 744.94)"><tspan x="0" y="0">Source: SEMI, TrendForce, IBEF</tspan></text>
  </g>
</svg>