<svg xmlns="http://www.w3.org/2000/svg" viewBox="0 0 1200 800" font-family="Arial, Helvetica, sans-serif">
<defs>
  <filter id="soft" x="-10%" y="-10%" width="120%" height="120%">
    <feGaussianBlur in="SourceAlpha" stdDeviation="2"/>
    <feOffset dx="0" dy="1"/>
    <feComponentTransfer><feFuncA type="linear" slope="0.25"/></feComponentTransfer>
    <feMerge><feMergeNode/><feMergeNode in="SourceGraphic"/></feMerge>
  </filter>
  <linearGradient id="navyteal" x1="0" y1="0" x2="1" y2="0">
    <stop offset="0" stop-color="#0B1B3B"/><stop offset="1" stop-color="#14B8A6"/>
  </linearGradient>
  <linearGradient id="navygold" x1="0" y1="0" x2="1" y2="0">
    <stop offset="0" stop-color="#0B1B3B"/><stop offset="1" stop-color="#C9A84C"/>
  </linearGradient>
  <linearGradient id="lightnavy" x1="0" y1="0" x2="0" y2="1">
    <stop offset="0" stop-color="#E5E7EB"/><stop offset="1" stop-color="#0B1B3B"/>
  </linearGradient>
  <marker id="arrow" viewBox="0 0 10 10" refX="9" refY="5" markerWidth="6" markerHeight="6" orient="auto-start-reverse">
    <path d="M0,0 L10,5 L0,10 Z" fill="#0B1B3B"/>
  </marker>
  <marker id="arrowT" viewBox="0 0 10 10" refX="9" refY="5" markerWidth="6" markerHeight="6" orient="auto-start-reverse">
    <path d="M0,0 L10,5 L0,10 Z" fill="#14B8A6"/>
  </marker>
  <marker id="arrowG" viewBox="0 0 10 10" refX="9" refY="5" markerWidth="6" markerHeight="6" orient="auto-start-reverse">
    <path d="M0,0 L10,5 L0,10 Z" fill="#C9A84C"/>
  </marker>
</defs>
<rect width="1200" height="800" fill="#FFFFFF"/>
<rect x="0" y="0" width="1200" height="60" fill="#0B1B3B"/>
<text x="40" y="38" fill="#FFFFFF" font-size="20" font-weight="700">India Semiconductor Corridor Map</text>
<text x="1160" y="24" text-anchor="end" fill="#C9A84C" font-size="10" font-weight="700" letter-spacing="1.5">FIGURE 12</text>
<text x="1160" y="44" text-anchor="end" fill="#E5E7EB" font-size="11" font-weight="400">Fab and OSAT clusters along the industrial corridors</text>
<text x="40" y="785" fill="#6B7280" font-size="9" letter-spacing="0.5">INDIA SEMICONDUCTOR INTELLIGENCE 2026  ·  WHO REALLY BENEFITS FROM INDIA'S FAB ECOSYSTEM?</text>
<text x="1160" y="785" text-anchor="end" fill="#6B7280" font-size="9" letter-spacing="0.5">FIG 12 / 30</text>
<polygon points="350,140 480,130 580,170 660,150 720,190 760,260 720,300 680,360 700,440 660,520 600,600 540,660 470,690 410,640 360,560 320,490 290,400 270,330 290,250 320,180" fill="#F8FAFC" stroke="#0B1B3B" stroke-width="1.5"/><path d="M380,180 L430,260 L520,340 L610,440" stroke="#0B1B3B" stroke-width="3" fill="none" opacity="0.85"/><path d="M610,440 L560,520 L490,580" stroke="#14B8A6" stroke-width="3" fill="none" opacity="0.85"/><path d="M450,500 L490,580 L430,640" stroke="#C9A84C" stroke-width="3" fill="none" opacity="0.85"/><path d="M610,440 L660,510 L640,570" stroke="#2E6497" stroke-width="3" fill="none" opacity="0.85"/><path d="M490,580 L540,610" stroke="#6D28D9" stroke-width="3" fill="none" opacity="0.85"/><circle cx="410" cy="280" r="7" fill="#14B8A6" stroke="#FFFFFF" stroke-width="2"/><text x="422" y="283" fill="#111827" font-size="10" font-weight="700">Dholera</text><text x="422" y="295" fill="#6B7280" font-size="8">Fab anchor</text><circle cx="420" cy="305" r="7" fill="#14B8A6" stroke="#FFFFFF" stroke-width="2"/><text x="432" y="308" fill="#111827" font-size="10" font-weight="700">Sanand</text><text x="432" y="320" fill="#6B7280" font-size="8">Micron OSAT</text><circle cx="400" cy="350" r="7" fill="#2E6497" stroke="#FFFFFF" stroke-width="2"/><text x="412" y="353" fill="#111827" font-size="10" font-weight="700">Surat</text><text x="412" y="365" fill="#6B7280" font-size="8">Polymer/EMS</text><circle cx="700" cy="220" r="7" fill="#14B8A6" stroke="#FFFFFF" stroke-width="2"/><text x="712" y="223" fill="#111827" font-size="10" font-weight="700">Jagiroad</text><text x="712" y="235" fill="#6B7280" font-size="8">Tata OSAT</text><circle cx="530" cy="220" r="7" fill="#2E6497" stroke="#FFFFFF" stroke-width="2"/><text x="542" y="223" fill="#111827" font-size="10" font-weight="700">Jewar</text><text x="542" y="235" fill="#6B7280" font-size="8">Apple cluster</text><circle cx="510" cy="600" r="7" fill="#C9A84C" stroke="#FFFFFF" stroke-width="2"/><text x="522" y="603" fill="#111827" font-size="10" font-weight="700">Mysuru</text><text x="522" y="615" fill="#6B7280" font-size="8">K-RIDE OSAT</text><circle cx="530" cy="580" r="7" fill="#0B1B3B" stroke="#FFFFFF" stroke-width="2"/><text x="542" y="583" fill="#111827" font-size="10" font-weight="700">Bengaluru</text><text x="542" y="595" fill="#6B7280" font-size="8">Design hub</text><circle cx="560" cy="510" r="7" fill="#0B1B3B" stroke="#FFFFFF" stroke-width="2"/><text x="572" y="513" fill="#111827" font-size="10" font-weight="700">Hyderabad</text><text x="572" y="525" fill="#6B7280" font-size="8">Design+DC</text><circle cx="580" cy="640" r="7" fill="#2E6497" stroke="#FFFFFF" stroke-width="2"/><text x="592" y="643" fill="#111827" font-size="10" font-weight="700">Sriperumbudur</text><text x="592" y="655" fill="#6B7280" font-size="8">EMS hub</text><circle cx="545" cy="615" r="7" fill="#2E6497" stroke="#FFFFFF" stroke-width="2"/><text x="557" y="618" fill="#111827" font-size="10" font-weight="700">Hosur</text><text x="557" y="630" fill="#6B7280" font-size="8">EMS</text><circle cx="600" cy="410" r="7" fill="#C9A84C" stroke="#FFFFFF" stroke-width="2"/><text x="612" y="413" fill="#111827" font-size="10" font-weight="700">Nava Raipur</text><text x="612" y="425" fill="#6B7280" font-size="8">Display</text><circle cx="580" cy="580" r="7" fill="#C9A84C" stroke="#FFFFFF" stroke-width="2"/><text x="592" y="583" fill="#111827" font-size="10" font-weight="700">Chittoor</text><text x="592" y="595" fill="#6B7280" font-size="8">Battery</text><rect x="820" y="100" width="320" height="280" rx="8" fill="#F8FAFC" stroke="#E5E7EB"/><text x="840" y="125" fill="#111827" font-size="12" font-weight="700" letter-spacing="0.5">INDUSTRIAL CORRIDORS</text><rect x="840" y="150" width="36" height="4" fill="#0B1B3B"/><text x="885" y="158" fill="#111827" font-size="11" font-weight="700">DMIC</text><text x="885" y="170" fill="#6B7280" font-size="9">Delhi-Mumbai (1,504 km)</text><rect x="840" y="180" width="36" height="4" fill="#14B8A6"/><text x="885" y="188" fill="#111827" font-size="11" font-weight="700">CBIC</text><text x="885" y="200" fill="#6B7280" font-size="9">Chennai-Bengaluru (560 km)</text><rect x="840" y="210" width="36" height="4" fill="#C9A84C"/><text x="885" y="218" fill="#111827" font-size="11" font-weight="700">AKIC</text><text x="885" y="230" fill="#6B7280" font-size="9">Amritsar-Kolkata (1,839 km)</text><rect x="840" y="240" width="36" height="4" fill="#2E6497"/><text x="885" y="248" fill="#111827" font-size="11" font-weight="700">VCIC</text><text x="885" y="260" fill="#6B7280" font-size="9">Vizag-Chennai (800 km)</text><rect x="840" y="270" width="36" height="4" fill="#6D28D9"/><text x="885" y="278" fill="#111827" font-size="11" font-weight="700">BMIC</text><text x="885" y="290" fill="#6B7280" font-size="9">Bengaluru-Mumbai (1,000 km)</text><text x="840" y="320" fill="#111827" font-size="11" font-weight="700" letter-spacing="0.5">CLUSTER TYPES</text><circle cx="846" cy="342" r="6" fill="#14B8A6"/><text x="858" y="345" fill="#111827" font-size="10">Fab / OSAT</text><circle cx="996" cy="342" r="6" fill="#0B1B3B"/><text x="1008" y="345" fill="#111827" font-size="10">Design / Strategic</text><circle cx="846" cy="364" r="6" fill="#2E6497"/><text x="858" y="367" fill="#111827" font-size="10">EMS hub</text><circle cx="996" cy="364" r="6" fill="#C9A84C"/><text x="1008" y="367" fill="#111827" font-size="10">Adjacent</text><rect x="60" y="720" width="1080" height="60" rx="8" fill="#0B1B3B"/><text x="100" y="745" fill="#C9A84C" font-size="16" font-weight="700">12</text><text x="100" y="765" fill="#FFFFFF" font-size="9">Active clusters</text><text x="310" y="745" fill="#C9A84C" font-size="16" font-weight="700">5</text><text x="310" y="765" fill="#FFFFFF" font-size="9">Industrial corridors</text><text x="520" y="745" fill="#C9A84C" font-size="16" font-weight="700">Rs 2.3 lakh cr</text><text x="520" y="765" fill="#FFFFFF" font-size="9">Sanctioned capex</text><text x="730" y="745" fill="#C9A84C" font-size="16" font-weight="700">8.5 lakh</text><text x="730" y="765" fill="#FFFFFF" font-size="9">Direct + indirect jobs</text><text x="940" y="745" fill="#C9A84C" font-size="16" font-weight="700">2026-30</text><text x="940" y="765" fill="#FFFFFF" font-size="9">Ramp window</text></svg>