<?xml version="1.0" encoding="UTF-8"?>
<svg id="Layer_1" xmlns="http://www.w3.org/2000/svg" version="1.1" viewBox="0 0 900 740">
  <!-- Generator: Adobe Illustrator 30.4.0, SVG Export Plug-In . SVG Version: 2.1.4 Build 226)  -->
  <defs>
    <style>
      .st0 {
        font-size: 15px;
      }

      .st0, .st1, .st2, .st3, .st4, .st5, .st6, .st7, .st8, .st9, .st10, .st11, .st12 {
        fill: #fff;
      }

      .st0, .st13, .st14, .st15, .st16, .st17, .st18, .st19, .st4, .st20, .st5, .st21, .st22, .st23, .st24, .st25, .st8, .st9, .st26, .st27 {
        isolation: isolate;
      }

      .st0, .st18, .st19, .st4, .st8 {
        font-family: ArialMT, Arial;
      }

      .st1 {
        stroke: #6b7280;
      }

      .st1, .st2, .st3, .st6, .st7, .st10, .st11, .st12 {
        stroke-width: 2px;
      }

      .st13, .st14, .st15, .st16, .st17, .st5, .st21, .st22, .st23, .st24, .st25, .st9, .st26, .st27 {
        font-family: Arial-BoldMT, Arial;
        font-weight: 700;
      }

      .st13, .st14, .st16, .st17, .st21, .st22, .st23, .st9, .st27 {
        font-size: 13px;
      }

      .st13, .st28 {
        fill: #024b65;
      }

      .st29, .st17 {
        fill: #00789e;
      }

      .st14, .st30 {
        fill: #14b8a6;
      }

      .st15 {
        letter-spacing: .11em;
      }

      .st15, .st19, .st4, .st24 {
        font-size: 11px;
      }

      .st15, .st31, .st26, .st27 {
        fill: #c9a84c;
      }

      .st16, .st32 {
        fill: #414042;
      }

      .st2 {
        stroke: #00789e;
      }

      .st18, .st33 {
        fill: #6b7280;
      }

      .st18, .st25 {
        font-size: 9px;
        letter-spacing: .06em;
      }

      .st3 {
        stroke: #c9a84c;
      }

      .st19 {
        fill: #e5e7eb;
      }

      .st34 {
        fill: #f8fafc;
        stroke: #e5e7eb;
        stroke-width: .88px;
      }

      .st5 {
        font-size: 20px;
      }

      .st6 {
        stroke: #14b8a6;
      }

      .st21, .st24, .st25 {
        fill: #111827;
      }

      .st22, .st35 {
        fill: #1c75bc;
      }

      .st36 {
        fill: #0b1b3b;
      }

      .st23, .st37 {
        fill: #262262;
      }

      .st7 {
        stroke: #262262;
      }

      .st8, .st26 {
        font-size: 10px;
      }

      .st10 {
        stroke: #1c75bc;
      }

      .st11 {
        stroke: #414042;
      }

      .st26 {
        letter-spacing: .15em;
      }

      .st12 {
        stroke: #024b65;
      }
    </style>
  </defs>
  <rect class="st36" y="-.23" width="900" height="60"/>
  <g class="st20">
    <text class="st5" transform="translate(16.92 37.77)"><tspan x="0" y="0">Sovereignty Stack: Where India Will Hold the Stack by 2030 / 2035</tspan></text>
  </g>
  <g class="st20">
    <text class="st26" transform="translate(824.25 23.19)"><tspan x="0" y="0">FIGURE 05</tspan></text>
  </g>
  <g class="st20">
    <text class="st19" transform="translate(668.9 47.21)"><tspan x="0" y="0">Layer-by-layer capability ownership trajectory</tspan></text>
  </g>
  <g class="st20">
    <text class="st18" transform="translate(9.49 727.96)"><tspan x="0" y="0">INDIA SEMICONDUCTOR INTELLIGENCE 2026 · WHO REALLY BENEFITS FROM INDIA&apos;S FAB ECOSYSTEM?</tspan></text>
  </g>
  <g class="st20">
    <text class="st18" transform="translate(821.05 728.07)"><tspan x="0" y="0">FIG 05 / 30</tspan></text>
  </g>
  <rect class="st37" x="108.79" y="77" width="762.85" height="65" rx="8" ry="8"/>
  <g class="st20">
    <text class="st9" transform="translate(128.79 102)"><tspan x="0" y="0">Strategic applications</tspan></text>
  </g>
  <g class="st20">
    <text class="st0" transform="translate(128.79 125)"><tspan x="0" y="0">Defence · AI compute · Telecom · Aerospace</tspan></text>
  </g>
  <rect class="st36" x="8.79" y="89" width="90" height="40" rx="6" ry="6"/>
  <g class="st20">
    <text class="st15" transform="translate(26.7 107)"><tspan x="0" y="0">LAYER 8</tspan></text>
  </g>
  <g class="st20">
    <text class="st4" transform="translate(38.29 122)"><tspan x="0" y="0">stack</tspan></text>
  </g>
  <rect class="st7" x="766.25" y="90.5" width="90" height="40" rx="6" ry="6"/>
  <g class="st20">
    <text class="st25" transform="translate(782.25 108.5)"><tspan x="0" y="0">SOVEREIGN</tspan></text>
  </g>
  <g class="st20">
    <text class="st23" transform="translate(796.79 123.5)"><tspan x="0" y="0">2030</tspan></text>
  </g>
  <rect class="st28" x="108.79" y="148" width="762.85" height="65" rx="8" ry="8"/>
  <g class="st20">
    <text class="st9" transform="translate(128.79 173)"><tspan x="0" y="0">End-product manufacturing</tspan></text>
  </g>
  <g class="st20">
    <text class="st0" transform="translate(128.79 196)"><tspan x="0" y="0">Smartphones · EVs · Servers · Industrial</tspan></text>
  </g>
  <rect class="st36" x="8.79" y="160" width="90" height="40" rx="6" ry="6"/>
  <g class="st20">
    <text class="st15" transform="translate(26.7 178)"><tspan x="0" y="0">LAYER 7</tspan></text>
  </g>
  <g class="st20">
    <text class="st4" transform="translate(38.29 193)"><tspan x="0" y="0">stack</tspan></text>
  </g>
  <rect class="st12" x="766.25" y="161.5" width="90" height="40" rx="6" ry="6"/>
  <g class="st20">
    <text class="st25" transform="translate(782.25 179.5)"><tspan x="0" y="0">SOVEREIGN</tspan></text>
  </g>
  <g class="st20">
    <text class="st13" transform="translate(796.79 194.5)"><tspan x="0" y="0">2030</tspan></text>
  </g>
  <rect class="st32" x="108.79" y="219" width="762.85" height="65" rx="8" ry="8"/>
  <g class="st20">
    <text class="st9" transform="translate(128.79 244)"><tspan x="0" y="0">Design &amp; IP</tspan></text>
  </g>
  <g class="st20">
    <text class="st8" transform="translate(128.79 267)"><tspan x="0" y="0">Fabless startups · RISC-V cores · EDA-lite</tspan></text>
  </g>
  <rect class="st36" x="8.79" y="231" width="90" height="40" rx="6" ry="6"/>
  <g class="st20">
    <text class="st15" transform="translate(26.7 249)"><tspan x="0" y="0">LAYER 6</tspan></text>
  </g>
  <g class="st20">
    <text class="st4" transform="translate(38.29 264)"><tspan x="0" y="0">stack</tspan></text>
  </g>
  <rect class="st11" x="766.25" y="232.5" width="90" height="40" rx="6" ry="6"/>
  <g class="st20">
    <text class="st25" transform="translate(782.25 250.5)"><tspan x="0" y="0">SOVEREIGN</tspan></text>
  </g>
  <g class="st20">
    <text class="st16" transform="translate(796.79 265.5)"><tspan x="0" y="0">2035</tspan></text>
  </g>
  <rect class="st35" x="108.79" y="290" width="762.85" height="65" rx="8" ry="8"/>
  <g class="st20">
    <text class="st9" transform="translate(128.79 315)"><tspan x="0" y="0">Packaging &amp; test (OSAT)</tspan></text>
  </g>
  <g class="st20">
    <text class="st0" transform="translate(128.79 338)"><tspan x="0" y="0">ATMP units · Substrates · Burn-in</tspan></text>
  </g>
  <rect class="st36" x="8.79" y="302" width="90" height="40" rx="6" ry="6"/>
  <g class="st20">
    <text class="st15" transform="translate(26.7 320)"><tspan x="0" y="0">LAYER 5</tspan></text>
  </g>
  <g class="st20">
    <text class="st4" transform="translate(38.29 335)"><tspan x="0" y="0">stack</tspan></text>
  </g>
  <rect class="st10" x="766.25" y="303.5" width="90" height="40" rx="6" ry="6"/>
  <g class="st20">
    <text class="st25" transform="translate(782.25 321.5)"><tspan x="0" y="0">SOVEREIGN</tspan></text>
  </g>
  <g class="st20">
    <text class="st22" transform="translate(796.79 336.5)"><tspan x="0" y="0">2030</tspan></text>
  </g>
  <rect class="st29" x="108.79" y="361" width="762.85" height="65" rx="8" ry="8"/>
  <g class="st20">
    <text class="st9" transform="translate(128.79 386)"><tspan x="0" y="0">Fabrication</tspan></text>
  </g>
  <g class="st20">
    <text class="st0" transform="translate(128.79 409)"><tspan x="0" y="0">28nm Tata-Dholera · Micron OSAT · CG-Renesas</tspan></text>
  </g>
  <rect class="st36" x="8.79" y="373" width="90" height="40" rx="6" ry="6"/>
  <g class="st20">
    <text class="st15" transform="translate(26.7 391)"><tspan x="0" y="0">LAYER 4</tspan></text>
  </g>
  <g class="st20">
    <text class="st4" transform="translate(38.29 406)"><tspan x="0" y="0">stack</tspan></text>
  </g>
  <rect class="st2" x="766.25" y="374.5" width="90" height="40" rx="6" ry="6"/>
  <g class="st20">
    <text class="st25" transform="translate(782.25 392.5)"><tspan x="0" y="0">SOVEREIGN</tspan></text>
  </g>
  <g class="st20">
    <text class="st17" transform="translate(796.79 407.5)"><tspan x="0" y="0">2035</tspan></text>
  </g>
  <rect class="st33" x="108.79" y="432" width="762.85" height="65" rx="8" ry="8"/>
  <g class="st20">
    <text class="st9" transform="translate(128.79 457)"><tspan x="0" y="0">Equipment</tspan></text>
  </g>
  <g class="st20">
    <text class="st0" transform="translate(128.79 480)"><tspan x="0" y="0">Lithography · Etch · CMP · Metrology</tspan></text>
  </g>
  <rect class="st36" x="8.79" y="444" width="90" height="40" rx="6" ry="6"/>
  <g class="st20">
    <text class="st15" transform="translate(26.7 462)"><tspan x="0" y="0">LAYER 3</tspan></text>
  </g>
  <g class="st20">
    <text class="st4" transform="translate(38.29 477)"><tspan x="0" y="0">stack</tspan></text>
  </g>
  <rect class="st1" x="766.25" y="445.5" width="90" height="40" rx="6" ry="6"/>
  <g class="st20">
    <text class="st25" transform="translate(782.25 463.5)"><tspan x="0" y="0">SOVEREIGN</tspan></text>
  </g>
  <g class="st20">
    <text class="st21" transform="translate(777.67 478.5)"><tspan x="0" y="0">Dependent</tspan></text>
  </g>
  <rect class="st31" x="108.79" y="503" width="762.85" height="65" rx="8" ry="8"/>
  <g class="st20">
    <text class="st9" transform="translate(128.79 528)"><tspan x="0" y="0">Wafers, chemicals, gases</tspan></text>
  </g>
  <g class="st20">
    <text class="st0" transform="translate(128.79 551)"><tspan x="0" y="0">300mm wafer · resist · CMP slurry · HF</tspan></text>
  </g>
  <rect class="st36" x="8.79" y="515" width="90" height="40" rx="6" ry="6"/>
  <g class="st20">
    <text class="st15" transform="translate(26.7 533)"><tspan x="0" y="0">LAYER 2</tspan></text>
  </g>
  <g class="st20">
    <text class="st4" transform="translate(38.29 548)"><tspan x="0" y="0">stack</tspan></text>
  </g>
  <rect class="st3" x="766.25" y="516.5" width="90" height="40" rx="6" ry="6"/>
  <g class="st20">
    <text class="st25" transform="translate(782.25 534.5)"><tspan x="0" y="0">SOVEREIGN</tspan></text>
  </g>
  <g class="st20">
    <text class="st27" transform="translate(796.79 549.5)"><tspan x="0" y="0">2035</tspan></text>
  </g>
  <rect class="st30" x="108.79" y="574" width="762.85" height="65" rx="8" ry="8"/>
  <g class="st20">
    <text class="st9" transform="translate(128.79 599)"><tspan x="0" y="0">Raw materials &amp; minerals</tspan></text>
  </g>
  <g class="st20">
    <text class="st0" transform="translate(128.79 622)"><tspan x="0" y="0">Silicon · rare earths · copper · tin · gold</tspan></text>
  </g>
  <rect class="st36" x="8.79" y="586" width="90" height="40" rx="6" ry="6"/>
  <g class="st20">
    <text class="st15" transform="translate(26.7 604)"><tspan x="0" y="0">LAYER 1</tspan></text>
  </g>
  <g class="st20">
    <text class="st4" transform="translate(38.29 619)"><tspan x="0" y="0">stack</tspan></text>
  </g>
  <rect class="st6" x="766.25" y="587.5" width="90" height="40" rx="6" ry="6"/>
  <g class="st20">
    <text class="st25" transform="translate(782.25 605.5)"><tspan x="0" y="0">SOVEREIGN</tspan></text>
  </g>
  <g class="st20">
    <text class="st14" transform="translate(796.79 620.5)"><tspan x="0" y="0">2030</tspan></text>
  </g>
  <rect class="st34" x="9.49" y="662.96" width="862.85" height="50" rx="8" ry="8"/>
  <rect class="st30" x="29.49" y="682.96" width="18" height="14" rx="3" ry="3"/>
  <g class="st20">
    <text class="st24" transform="translate(53.49 694.96)"><tspan x="0" y="0">Sovereign by 2030</tspan></text>
  </g>
  <rect class="st31" x="289.49" y="682.96" width="18" height="14" rx="3" ry="3"/>
  <g class="st20">
    <text class="st24" transform="translate(313.49 694.96)"><tspan x="0" y="0">Sovereign by 2035</tspan></text>
  </g>
  <rect class="st33" x="549.49" y="682.96" width="18" height="14" rx="3" ry="3"/>
  <g class="st20">
    <text class="st24" transform="translate(573.49 694.96)"><tspan x="0" y="0">Dependent beyond 2035 (equipment monopoly)</tspan></text>
  </g>
</svg>