<?xml version="1.0" encoding="UTF-8"?>
<svg id="Layer_1" xmlns="http://www.w3.org/2000/svg" version="1.1" viewBox="0 0 1000 800">
  <!-- Generator: Adobe Illustrator 30.4.0, SVG Export Plug-In . SVG Version: 2.1.4 Build 226)  -->
  <defs>
    <style>
      .st0 {
        letter-spacing: .05em;
      }

      .st0, .st1, .st2, .st3, .st4, .st5, .st6, .st7, .st8 {
        isolation: isolate;
      }

      .st0, .st2, .st5 {
        fill: #111827;
      }

      .st0, .st3, .st5 {
        font-size: 11px;
      }

      .st0, .st4, .st5, .st8 {
        font-family: Arial-BoldMT, Arial;
        font-weight: 700;
      }

      .st1, .st2, .st3, .st6, .st7 {
        font-family: ArialMT, Arial;
      }

      .st1, .st2, .st8 {
        font-size: 10px;
      }

      .st1, .st9, .st7 {
        fill: #6b7280;
      }

      .st10 {
        fill: #2e6497;
      }

      .st11 {
        fill: #f8fafc;
        stroke-width: .88px;
      }

      .st11, .st12 {
        stroke: #e5e7eb;
      }

      .st3 {
        fill: #e5e7eb;
      }

      .st13, .st8 {
        fill: #c9a84c;
      }

      .st4 {
        font-size: 20px;
      }

      .st4, .st6 {
        fill: #fff;
      }

      .st12 {
        fill: none;
        stroke-width: .5px;
      }

      .st14 {
        fill: #0b1b3b;
      }

      .st15 {
        fill: #14b8a6;
      }

      .st6, .st7 {
        font-size: 9px;
      }

      .st7 {
        letter-spacing: .06em;
      }

      .st8 {
        letter-spacing: .15em;
      }
    </style>
  </defs>
  <rect class="st14" y="0" width="1000.69" height="60"/>
  <text class="st4" transform="translate(62.31 41.37)"><tspan x="0" y="0">Time-to-Revenue — 15 MSME Opportunities</tspan></text>
  <text class="st8" transform="translate(906.76 26.79)"><tspan x="0" y="0">FIGURE 18</tspan></text>
  <text class="st3" transform="translate(687.77 49.26)"><tspan x="0" y="0">Months from start-of-engagement to first qualifying invoice</tspan></text>
  <text class="st7" transform="translate(29.29 781.02)"><tspan x="0" y="0">INDIA SEMICONDUCTOR INTELLIGENCE 2026 · WHO REALLY BENEFITS FROM INDIA&apos;S FAB ECOSYSTEM?</tspan></text>
  <text class="st7" transform="translate(920.73 780.92)"><tspan x="0" y="0">FIG 18 / 30</tspan></text>
  <line class="st12" x1="175.86" y1="110.04" x2="175.86" y2="690.04"/>
  <text class="st1" transform="translate(168.92 105.04)"><tspan x="0" y="0">0m</tspan></text>
  <line class="st12" x1="307.53" y1="110.04" x2="307.53" y2="690.04"/>
  <text class="st1" transform="translate(300.58 105.04)"><tspan x="0" y="0">6m</tspan></text>
  <line class="st12" x1="439.2" y1="110.04" x2="439.2" y2="690.04"/>
  <text class="st1" transform="translate(429.47 105.04)"><tspan x="0" y="0">12m</tspan></text>
  <line class="st12" x1="570.86" y1="110.04" x2="570.86" y2="690.04"/>
  <text class="st1" transform="translate(561.14 105.04)"><tspan x="0" y="0">18m</tspan></text>
  <line class="st12" x1="702.53" y1="110.04" x2="702.53" y2="690.04"/>
  <text class="st1" transform="translate(692.8 105.04)"><tspan x="0" y="0">24m</tspan></text>
  <line class="st12" x1="834.2" y1="110.04" x2="834.2" y2="690.04"/>
  <text class="st1" transform="translate(824.47 105.04)"><tspan x="0" y="0">30m</tspan></text>
  <line class="st12" x1="965.86" y1="110.04" x2="965.86" y2="690.04"/>
  <text class="st1" transform="translate(956.14 105.04)"><tspan x="0" y="0">36m</tspan></text>
  <text class="st0" transform="translate(472.13 83)"><tspan x="0" y="0">MONTHS FROM ENGAGEMENT TO FIRST INVOICE</tspan></text>
  <text class="st5" transform="translate(65.62 138.04)"><tspan x="0" y="0">Cleanroom laundry</tspan></text>
  <rect class="st9" x="175.86" y="128.04" width="21.94" height="22"/>
  <rect class="st13" x="197.81" y="128.04" width="21.94" height="22"/>
  <rect class="st10" x="219.75" y="128.04" width="43.89" height="22"/>
  <text class="st6" transform="translate(239.19 142.04)"><tspan x="0" y="0">2</tspan></text>
  <rect class="st15" x="263.64" y="128.04" width="21.94" height="22"/>
  <text class="st5" transform="translate(293.58 142.04)"><tspan x="0" y="0">5m</tspan></text>
  <text class="st5" transform="translate(82.12 176.04)"><tspan x="0" y="0">Stencil cleaning</tspan></text>
  <rect class="st9" x="175.86" y="166.04" width="21.94" height="22"/>
  <rect class="st13" x="197.81" y="166.04" width="21.94" height="22"/>
  <rect class="st10" x="219.75" y="166.04" width="43.89" height="22"/>
  <text class="st6" transform="translate(239.19 180.04)"><tspan x="0" y="0">2</tspan></text>
  <rect class="st15" x="263.64" y="166.04" width="21.94" height="22"/>
  <text class="st5" transform="translate(293.58 180.04)"><tspan x="0" y="0">5m</tspan></text>
  <text class="st5" transform="translate(89.47 214.04)"><tspan x="0" y="0">Anti-static pkg</tspan></text>
  <rect class="st9" x="175.86" y="204.04" width="21.94" height="22"/>
  <rect class="st13" x="197.81" y="204.04" width="43.89" height="22"/>
  <text class="st6" transform="translate(217.25 218.04)"><tspan x="0" y="0">2</tspan></text>
  <rect class="st10" x="241.7" y="204.04" width="65.83" height="22"/>
  <text class="st6" transform="translate(272.11 218.04)"><tspan x="0" y="0">3</tspan></text>
  <rect class="st15" x="307.53" y="204.04" width="21.94" height="22"/>
  <text class="st5" transform="translate(337.47 218.04)"><tspan x="0" y="0">7m</tspan></text>
  <text class="st5" transform="translate(82.12 252.04)"><tspan x="0" y="0">Garment supply</tspan></text>
  <rect class="st9" x="175.86" y="242.04" width="21.94" height="22"/>
  <rect class="st13" x="197.81" y="242.04" width="21.94" height="22"/>
  <rect class="st10" x="219.75" y="242.04" width="65.83" height="22"/>
  <text class="st6" transform="translate(250.16 256.04)"><tspan x="0" y="0">3</tspan></text>
  <rect class="st15" x="285.58" y="242.04" width="43.89" height="22"/>
  <text class="st6" transform="translate(305.03 256.04)"><tspan x="0" y="0">2</tspan></text>
  <text class="st5" transform="translate(337.47 256.04)"><tspan x="0" y="0">7m</tspan></text>
  <text class="st5" transform="translate(77.24 290.04)"><tspan x="0" y="0">Custom labelling</tspan></text>
  <rect class="st9" x="175.86" y="280.04" width="21.94" height="22"/>
  <rect class="st13" x="197.81" y="280.04" width="43.89" height="22"/>
  <text class="st6" transform="translate(217.25 294.04)"><tspan x="0" y="0">2</tspan></text>
  <rect class="st10" x="241.7" y="280.04" width="65.83" height="22"/>
  <text class="st6" transform="translate(272.11 294.04)"><tspan x="0" y="0">3</tspan></text>
  <rect class="st15" x="307.53" y="280.04" width="43.89" height="22"/>
  <text class="st6" transform="translate(326.97 294.04)"><tspan x="0" y="0">2</tspan></text>
  <text class="st5" transform="translate(359.42 294.04)"><tspan x="0" y="0">8m</tspan></text>
  <text class="st5" transform="translate(90.66 328.04)"><tspan x="0" y="0">Cable harness</tspan></text>
  <rect class="st9" x="175.86" y="318.04" width="43.89" height="22"/>
  <text class="st6" transform="translate(195.3 332.04)"><tspan x="0" y="0">2</tspan></text>
  <rect class="st13" x="219.75" y="318.04" width="43.89" height="22"/>
  <text class="st6" transform="translate(239.19 332.04)"><tspan x="0" y="0">2</tspan></text>
  <rect class="st10" x="263.64" y="318.04" width="87.78" height="22"/>
  <text class="st6" transform="translate(305.03 332.04)"><tspan x="0" y="0">4</tspan></text>
  <rect class="st15" x="351.42" y="318.04" width="43.89" height="22"/>
  <text class="st6" transform="translate(370.86 332.04)"><tspan x="0" y="0">2</tspan></text>
  <text class="st5" transform="translate(403.31 332.04)"><tspan x="0" y="0">10m</tspan></text>
  <text class="st5" transform="translate(76.83 366.04)"><tspan x="0" y="0">NABL calibration</tspan></text>
  <rect class="st9" x="175.86" y="356.04" width="43.89" height="22"/>
  <text class="st6" transform="translate(195.3 370.04)"><tspan x="0" y="0">2</tspan></text>
  <rect class="st13" x="219.75" y="356.04" width="65.83" height="22"/>
  <text class="st6" transform="translate(250.16 370.04)"><tspan x="0" y="0">3</tspan></text>
  <rect class="st10" x="285.58" y="356.04" width="87.78" height="22"/>
  <text class="st6" transform="translate(326.97 370.04)"><tspan x="0" y="0">4</tspan></text>
  <rect class="st15" x="373.36" y="356.04" width="43.89" height="22"/>
  <text class="st6" transform="translate(392.8 370.04)"><tspan x="0" y="0">2</tspan></text>
  <text class="st5" transform="translate(425.25 370.04)"><tspan x="0" y="0">11m</tspan></text>
  <text class="st5" transform="translate(84.76 404.04)"><tspan x="0" y="0">Tape &amp; reel pkg</tspan></text>
  <rect class="st9" x="175.86" y="394.04" width="43.89" height="22"/>
  <text class="st6" transform="translate(195.3 408.04)"><tspan x="0" y="0">2</tspan></text>
  <rect class="st13" x="219.75" y="394.04" width="65.83" height="22"/>
  <text class="st6" transform="translate(250.16 408.04)"><tspan x="0" y="0">3</tspan></text>
  <rect class="st10" x="285.58" y="394.04" width="109.72" height="22"/>
  <text class="st6" transform="translate(337.94 408.04)"><tspan x="0" y="0">5</tspan></text>
  <rect class="st15" x="395.31" y="394.04" width="43.89" height="22"/>
  <text class="st6" transform="translate(414.75 408.04)"><tspan x="0" y="0">2</tspan></text>
  <text class="st5" transform="translate(447.2 408.04)"><tspan x="0" y="0">12m</tspan></text>
  <text class="st5" transform="translate(61.52 442.04)"><tspan x="0" y="0">Test sockets (basic)</tspan></text>
  <rect class="st9" x="175.86" y="432.04" width="65.83" height="22"/>
  <text class="st6" transform="translate(206.28 446.04)"><tspan x="0" y="0">3</tspan></text>
  <rect class="st13" x="241.7" y="432.04" width="65.83" height="22"/>
  <text class="st6" transform="translate(272.11 446.04)"><tspan x="0" y="0">3</tspan></text>
  <rect class="st10" x="307.53" y="432.04" width="131.67" height="22"/>
  <text class="st6" transform="translate(370.86 446.04)"><tspan x="0" y="0">6</tspan></text>
  <rect class="st15" x="439.2" y="432.04" width="43.89" height="22"/>
  <text class="st6" transform="translate(458.64 446.04)"><tspan x="0" y="0">2</tspan></text>
  <text class="st5" transform="translate(491.08 446.04)"><tspan x="0" y="0">14m</tspan></text>
  <text class="st5" transform="translate(56.45 480.04)"><tspan x="0" y="0">Hazardous waste hdl</tspan></text>
  <rect class="st9" x="175.86" y="470.04" width="65.83" height="22"/>
  <text class="st6" transform="translate(206.28 484.04)"><tspan x="0" y="0">3</tspan></text>
  <rect class="st13" x="241.7" y="470.04" width="87.78" height="22"/>
  <text class="st6" transform="translate(283.08 484.04)"><tspan x="0" y="0">4</tspan></text>
  <rect class="st10" x="329.47" y="470.04" width="131.67" height="22"/>
  <text class="st6" transform="translate(392.8 484.04)"><tspan x="0" y="0">6</tspan></text>
  <rect class="st15" x="461.14" y="470.04" width="43.89" height="22"/>
  <text class="st6" transform="translate(480.58 484.04)"><tspan x="0" y="0">2</tspan></text>
  <text class="st5" transform="translate(513.03 484.04)"><tspan x="0" y="0">15m</tspan></text>
  <text class="st5" transform="translate(60.74 518.04)"><tspan x="0" y="0">PCB stencil printing</tspan></text>
  <rect class="st9" x="175.86" y="508.04" width="65.83" height="22"/>
  <text class="st6" transform="translate(206.28 522.04)"><tspan x="0" y="0">3</tspan></text>
  <rect class="st13" x="241.7" y="508.04" width="87.78" height="22"/>
  <text class="st6" transform="translate(283.08 522.04)"><tspan x="0" y="0">4</tspan></text>
  <rect class="st10" x="329.47" y="508.04" width="131.67" height="22"/>
  <text class="st6" transform="translate(392.8 522.04)"><tspan x="0" y="0">6</tspan></text>
  <rect class="st15" x="461.14" y="508.04" width="65.83" height="22"/>
  <text class="st6" transform="translate(491.55 522.04)"><tspan x="0" y="0">3</tspan></text>
  <text class="st5" transform="translate(534.97 522.04)"><tspan x="0" y="0">16m</tspan></text>
  <text class="st5" transform="translate(68.08 556.04)"><tspan x="0" y="0">Burn-in board asm</tspan></text>
  <rect class="st9" x="175.86" y="546.04" width="87.78" height="22"/>
  <text class="st6" transform="translate(217.25 560.04)"><tspan x="0" y="0">4</tspan></text>
  <rect class="st13" x="263.64" y="546.04" width="87.78" height="22"/>
  <text class="st6" transform="translate(305.03 560.04)"><tspan x="0" y="0">4</tspan></text>
  <rect class="st10" x="351.42" y="546.04" width="175.56" height="22"/>
  <text class="st6" transform="translate(436.69 560.04)"><tspan x="0" y="0">8</tspan></text>
  <rect class="st15" x="526.97" y="546.04" width="65.83" height="22"/>
  <text class="st6" transform="translate(557.39 560.04)"><tspan x="0" y="0">3</tspan></text>
  <text class="st5" transform="translate(600.81 560.04)"><tspan x="0" y="0">19m</tspan></text>
  <text class="st5" transform="translate(41.78 594.04)"><tspan x="0" y="0">CNC precision sub-asm</tspan></text>
  <rect class="st9" x="175.86" y="584.04" width="87.78" height="22"/>
  <text class="st6" transform="translate(217.25 598.04)"><tspan x="0" y="0">4</tspan></text>
  <rect class="st13" x="263.64" y="584.04" width="109.72" height="22"/>
  <text class="st6" transform="translate(316 598.04)"><tspan x="0" y="0">5</tspan></text>
  <rect class="st10" x="373.36" y="584.04" width="197.5" height="22"/>
  <text class="st6" transform="translate(469.61 598.04)"><tspan x="0" y="0">9</tspan></text>
  <rect class="st15" x="570.86" y="584.04" width="65.83" height="22"/>
  <text class="st6" transform="translate(601.28 598.04)"><tspan x="0" y="0">3</tspan></text>
  <text class="st5" transform="translate(644.7 598.04)"><tspan x="0" y="0">21m</tspan></text>
  <text class="st5" transform="translate(83.35 632.04)"><tspan x="0" y="0">Lead-frame mfg</tspan></text>
  <rect class="st9" x="175.86" y="622.04" width="109.72" height="22"/>
  <text class="st6" transform="translate(228.22 636.04)"><tspan x="0" y="0">5</tspan></text>
  <rect class="st13" x="285.58" y="622.04" width="131.67" height="22"/>
  <text class="st6" transform="translate(348.91 636.04)"><tspan x="0" y="0">6</tspan></text>
  <rect class="st10" x="417.25" y="622.04" width="263.33" height="22"/>
  <text class="st6" transform="translate(543.91 636.04)"><tspan x="0" y="0">12</tspan></text>
  <rect class="st15" x="680.58" y="622.04" width="87.78" height="22"/>
  <text class="st6" transform="translate(721.97 636.04)"><tspan x="0" y="0">4</tspan></text>
  <text class="st5" transform="translate(776.36 636.04)"><tspan x="0" y="0">27m</tspan></text>
  <text class="st5" transform="translate(68.08 670.04)"><tspan x="0" y="0">Substrate (BT/HDI)</tspan></text>
  <rect class="st9" x="175.86" y="660.04" width="131.67" height="22"/>
  <text class="st6" transform="translate(239.19 674.04)"><tspan x="0" y="0">6</tspan></text>
  <rect class="st13" x="307.53" y="660.04" width="175.56" height="22"/>
  <text class="st6" transform="translate(392.8 674.04)"><tspan x="0" y="0">8</tspan></text>
  <rect class="st10" x="483.08" y="660.04" width="329.17" height="22"/>
  <text class="st6" transform="translate(642.66 674.04)"><tspan x="0" y="0">15</tspan></text>
  <rect class="st15" x="812.25" y="660.04" width="131.67" height="22"/>
  <text class="st6" transform="translate(875.58 674.04)"><tspan x="0" y="0">6</tspan></text>
  <text class="st5" transform="translate(951.92 674.04)"><tspan x="0" y="0">35m</tspan></text>
  <rect class="st11" x="126.98" y="707.92" width="845.19" height="55" rx="8" ry="8"/>
  <rect class="st9" x="184.83" y="728.42" width="24" height="14" rx="3" ry="3"/>
  <text class="st2" transform="translate(214.83 740.42)"><tspan x="0" y="0">Setup (infrastructure, MSME compliance)</tspan></text>
  <rect class="st13" x="433.06" y="725.92" width="24" height="14" rx="3" ry="3"/>
  <text class="st2" transform="translate(463.06 737.92)"><tspan x="0" y="0">AVL listing &amp; dossier</tspan></text>
  <rect class="st10" x="601.68" y="725.73" width="24" height="14" rx="3" ry="3"/>
  <text class="st2" transform="translate(631.68 737.73)"><tspan x="0" y="0">Qualification (PPAP, samples, audit)</tspan></text>
  <rect class="st15" x="825.86" y="725.92" width="24" height="14" rx="3" ry="3"/>
  <text class="st2" transform="translate(855.86 737.92)"><tspan x="0" y="0">First revenue ramp</tspan></text>
</svg>