<?xml version="1.0" encoding="UTF-8"?>
<svg id="Layer_1" xmlns="http://www.w3.org/2000/svg" version="1.1" xmlns:xlink="http://www.w3.org/1999/xlink" viewBox="0 0 1200 800">
  <!-- Generator: Adobe Illustrator 30.4.0, SVG Export Plug-In . SVG Version: 2.1.4 Build 226)  -->
  <defs>
    <style>
      .st0, .st1, .st2, .st3, .st4, .st5, .st6, .st7, .st8, .st9, .st10, .st11 {
        isolation: isolate;
      }

      .st0, .st4, .st7, .st9, .st10 {
        font-family: ArialMT, Arial;
      }

      .st0, .st6, .st9, .st11 {
        font-size: 10px;
      }

      .st0, .st10 {
        fill: #6b7280;
      }

      .st1 {
        font-size: 34px;
      }

      .st1, .st2, .st3, .st5, .st6, .st8, .st11 {
        font-family: Arial-BoldMT, Arial;
        font-weight: 700;
      }

      .st1, .st5, .st6, .st8 {
        fill: #fff;
      }

      .st12 {
        filter: url(#soft3);
      }

      .st2 {
        letter-spacing: .09em;
      }

      .st2, .st3, .st13, .st11 {
        fill: #c9a84c;
      }

      .st2, .st10 {
        font-size: 9px;
      }

      .st14 {
        filter: url(#soft1);
      }

      .st15 {
        filter: url(#soft2);
      }

      .st16 {
        fill: #1f2a4a;
      }

      .st3 {
        font-size: 15px;
      }

      .st17 {
        filter: url(#soft9);
      }

      .st18 {
        fill: #ef4444;
      }

      .st19 {
        filter: url(#soft6);
      }

      .st20 {
        filter: url(#soft7);
      }

      .st4 {
        font-size: 11px;
      }

      .st4, .st7, .st9 {
        fill: #e5e7eb;
      }

      .st21 {
        filter: url(#soft5);
      }

      .st5 {
        font-size: 20px;
      }

      .st22 {
        filter: url(#soft);
      }

      .st7 {
        font-size: 9.5px;
        letter-spacing: .05em;
      }

      .st23 {
        filter: url(#soft11);
      }

      .st24 {
        filter: url(#soft10);
      }

      .st25 {
        fill: #0b1b3b;
      }

      .st26 {
        fill: none;
        stroke: #2e6497;
        stroke-width: .5px;
      }

      .st27 {
        fill: #14b8a6;
      }

      .st8 {
        font-size: 13px;
      }

      .st28 {
        filter: url(#soft8);
      }

      .st10 {
        letter-spacing: .06em;
      }

      .st11 {
        letter-spacing: .15em;
      }

      .st29 {
        filter: url(#soft4);
      }
    </style>
    <filter id="soft" x="-10%" y="-10%" width="120%" height="120%">
      <feGaussianBlur in="SourceAlpha" stdDeviation="2"/>
      <feOffset dx="0" dy="1"/>
      <feComponentTransfer>
        <feFuncA slope="0.25" type="linear"/>
      </feComponentTransfer>
      <feMerge>
        <feMergeNode/>
        <feMergeNode in="SourceGraphic"/>
      </feMerge>
    </filter>
    <filter id="soft1" data-name="soft" x="-10%" y="-10%" width="120%" height="120%">
      <feGaussianBlur in="SourceAlpha" stdDeviation="2"/>
      <feOffset dx="0" dy="1"/>
      <feComponentTransfer>
        <feFuncA slope="0.25" type="linear"/>
      </feComponentTransfer>
      <feMerge>
        <feMergeNode/>
        <feMergeNode in="SourceGraphic"/>
      </feMerge>
    </filter>
    <filter id="soft2" data-name="soft" x="-10%" y="-10%" width="120%" height="120%">
      <feGaussianBlur in="SourceAlpha" stdDeviation="2"/>
      <feOffset dx="0" dy="1"/>
      <feComponentTransfer>
        <feFuncA slope="0.25" type="linear"/>
      </feComponentTransfer>
      <feMerge>
        <feMergeNode/>
        <feMergeNode in="SourceGraphic"/>
      </feMerge>
    </filter>
    <filter id="soft3" data-name="soft" x="-10%" y="-10%" width="120%" height="120%">
      <feGaussianBlur in="SourceAlpha" stdDeviation="2"/>
      <feOffset dx="0" dy="1"/>
      <feComponentTransfer>
        <feFuncA slope="0.25" type="linear"/>
      </feComponentTransfer>
      <feMerge>
        <feMergeNode/>
        <feMergeNode in="SourceGraphic"/>
      </feMerge>
    </filter>
    <filter id="soft4" data-name="soft" x="-10%" y="-10%" width="120%" height="120%">
      <feGaussianBlur in="SourceAlpha" stdDeviation="2"/>
      <feOffset dx="0" dy="1"/>
      <feComponentTransfer>
        <feFuncA slope="0.25" type="linear"/>
      </feComponentTransfer>
      <feMerge>
        <feMergeNode/>
        <feMergeNode in="SourceGraphic"/>
      </feMerge>
    </filter>
    <filter id="soft5" data-name="soft" x="-10%" y="-10%" width="120%" height="120%">
      <feGaussianBlur in="SourceAlpha" stdDeviation="2"/>
      <feOffset dx="0" dy="1"/>
      <feComponentTransfer>
        <feFuncA slope="0.25" type="linear"/>
      </feComponentTransfer>
      <feMerge>
        <feMergeNode/>
        <feMergeNode in="SourceGraphic"/>
      </feMerge>
    </filter>
    <filter id="soft6" data-name="soft" x="-10%" y="-10%" width="120%" height="120%">
      <feGaussianBlur in="SourceAlpha" stdDeviation="2"/>
      <feOffset dx="0" dy="1"/>
      <feComponentTransfer>
        <feFuncA slope="0.25" type="linear"/>
      </feComponentTransfer>
      <feMerge>
        <feMergeNode/>
        <feMergeNode in="SourceGraphic"/>
      </feMerge>
    </filter>
    <filter id="soft7" data-name="soft" x="-10%" y="-10%" width="120%" height="120%">
      <feGaussianBlur in="SourceAlpha" stdDeviation="2"/>
      <feOffset dx="0" dy="1"/>
      <feComponentTransfer>
        <feFuncA slope="0.25" type="linear"/>
      </feComponentTransfer>
      <feMerge>
        <feMergeNode/>
        <feMergeNode in="SourceGraphic"/>
      </feMerge>
    </filter>
    <filter id="soft8" data-name="soft" x="-10%" y="-10%" width="120%" height="120%">
      <feGaussianBlur in="SourceAlpha" stdDeviation="2"/>
      <feOffset dx="0" dy="1"/>
      <feComponentTransfer>
        <feFuncA slope="0.25" type="linear"/>
      </feComponentTransfer>
      <feMerge>
        <feMergeNode/>
        <feMergeNode in="SourceGraphic"/>
      </feMerge>
    </filter>
    <filter id="soft9" data-name="soft" x="-10%" y="-10%" width="120%" height="120%">
      <feGaussianBlur in="SourceAlpha" stdDeviation="2"/>
      <feOffset dx="0" dy="1"/>
      <feComponentTransfer>
        <feFuncA slope="0.25" type="linear"/>
      </feComponentTransfer>
      <feMerge>
        <feMergeNode/>
        <feMergeNode in="SourceGraphic"/>
      </feMerge>
    </filter>
    <filter id="soft10" data-name="soft" x="-10%" y="-10%" width="120%" height="120%">
      <feGaussianBlur in="SourceAlpha" stdDeviation="2"/>
      <feOffset dx="0" dy="1"/>
      <feComponentTransfer>
        <feFuncA slope="0.25" type="linear"/>
      </feComponentTransfer>
      <feMerge>
        <feMergeNode/>
        <feMergeNode in="SourceGraphic"/>
      </feMerge>
    </filter>
    <filter id="soft11" data-name="soft" x="-10%" y="-10%" width="120%" height="120%">
      <feGaussianBlur in="SourceAlpha" stdDeviation="2"/>
      <feOffset dx="0" dy="1"/>
      <feComponentTransfer>
        <feFuncA slope="0.25" type="linear"/>
      </feComponentTransfer>
      <feMerge>
        <feMergeNode/>
        <feMergeNode in="SourceGraphic"/>
      </feMerge>
    </filter>
  </defs>
  <rect class="st25" y="0" width="1200" height="60"/>
  <text class="st5" transform="translate(40 38)"><tspan x="0" y="0">Leading Indicators Dashboard — India Fab Ecosystem KPIs</tspan></text>
  <text class="st11" transform="translate(1094.8203 24)"><tspan x="0" y="0">FIGURE 38</tspan></text>
  <text class="st4" transform="translate(877.53 44)"><tspan x="0" y="0">Twelve operating metrics · May 2026 current · 2027 target</tspan></text>
  <text class="st10" transform="translate(40 785)"><tspan x="0" y="0">INDIA SEMICONDUCTOR INTELLIGENCE 2026 · WHO REALLY BENEFITS FROM INDIA&apos;S FAB ECOSYSTEM?</tspan></text>
  <text class="st10" transform="translate(1109.478 785)"><tspan x="0" y="0">FIG 38 / 38</tspan></text>
  <g class="st22">
    <rect class="st25" x="39" y="90" width="270" height="200" rx="10" ry="10"/>
  </g>
  <path class="st13" d="M269,104h16c5.52,0,10,4.48,10,10h0c0,5.52-4.48,10-10,10h-16c-5.52,0-10-4.48-10-10h0c0-5.52,4.48-10,10-10Z"/>
  <text class="st6" transform="translate(265.61 118)"><tspan x="0" y="0">AMB</tspan></text>
  <text class="st2" transform="translate(57 120)"><tspan x="0" y="0">KPI 01</tspan></text>
  <text class="st8" transform="translate(57 144)"><tspan x="0" y="0">Dholera wafer yield</tspan></text>
  <text class="st1" transform="translate(57 198)"><tspan x="0" y="0">62%</tspan></text>
  <text class="st9" transform="translate(57 218)"><tspan x="0" y="0">%</tspan></text>
  <polygon class="st27" points="259 190 289 190 274 168 259 190"/>
  <line class="st26" x1="57" y1="240" x2="291" y2="240"/>
  <text class="st7" transform="translate(57 260)"><tspan x="0" y="0">2027 TARGET</tspan></text>
  <text class="st3" transform="translate(260.98 260)"><tspan x="0" y="0">78%</tspan></text>
  <path class="st16" d="M60,270h228c1.66,0,3,1.34,3,3h0c0,1.66-1.34,3-3,3H60c-1.66,0-3-1.34-3-3h0c0-1.66,1.34-3,3-3Z"/>
  <path class="st27" d="M60,270h99.3c1.66,0,3,1.34,3,3h0c0,1.66-1.34,3-3,3H60c-1.66,0-3-1.34-3-3h0c0-1.66,1.34-3,3-3Z"/>
  <g class="st14">
    <rect class="st25" x="325" y="90" width="270" height="200" rx="10" ry="10"/>
  </g>
  <path class="st27" d="M555,104h16c5.52,0,10,4.48,10,10h0c0,5.52-4.48,10-10,10h-16c-5.52,0-10-4.48-10-10h0c0-5.52,4.48-10,10-10Z"/>
  <text class="st6" transform="translate(552.17 118)"><tspan x="0" y="0">GRE</tspan></text>
  <text class="st2" transform="translate(343 120)"><tspan x="0" y="0">KPI 02</tspan></text>
  <text class="st8" transform="translate(343 144)"><tspan x="0" y="0">Micron Sanand output</tspan></text>
  <text class="st1" transform="translate(343 198)"><tspan x="0" y="0">8.4</tspan></text>
  <text class="st9" transform="translate(343 218)"><tspan x="0" y="0">M chips / mo</tspan></text>
  <polygon class="st27" points="545 190 575 190 560 168 545 190"/>
  <line class="st26" x1="343" y1="240" x2="577" y2="240"/>
  <text class="st7" transform="translate(343 260)"><tspan x="0" y="0">2027 TARGET</tspan></text>
  <text class="st3" transform="translate(560.32 260)"><tspan x="0" y="0">18</tspan></text>
  <path class="st16" d="M346,270h228c1.66,0,3,1.34,3,3h0c0,1.66-1.34,3-3,3h-228c-1.66,0-3-1.34-3-3h0c0-1.66,1.34-3,3-3Z"/>
  <path class="st27" d="M346,270h122.7c1.66,0,3,1.34,3,3h0c0,1.66-1.34,3-3,3h-122.7c-1.66,0-3-1.34-3-3h0c0-1.66,1.34-3,3-3Z"/>
  <g class="st15">
    <rect class="st25" x="611" y="90" width="270" height="200" rx="10" ry="10"/>
  </g>
  <path class="st13" d="M841,104h16c5.52,0,10,4.48,10,10h0c0,5.52-4.48,10-10,10h-16c-5.52,0-10-4.48-10-10h0c0-5.52,4.48-10,10-10Z"/>
  <text class="st6" transform="translate(837.61 118)"><tspan x="0" y="0">AMB</tspan></text>
  <text class="st2" transform="translate(629 120)"><tspan x="0" y="0">KPI 03</tspan></text>
  <text class="st8" transform="translate(629 144)"><tspan x="0" y="0">UPW uptime</tspan></text>
  <text class="st1" transform="translate(629 198)"><tspan x="0" y="0">98.1%</tspan></text>
  <rect class="st13" x="831" y="178" width="30" height="6"/>
  <line class="st26" x1="629" y1="240" x2="863" y2="240"/>
  <text class="st7" transform="translate(629 260)"><tspan x="0" y="0">2027 TARGET</tspan></text>
  <text class="st3" transform="translate(820.47 260)"><tspan x="0" y="0">99.7%</tspan></text>
  <path class="st16" d="M632,270h228c1.66,0,3,1.34,3,3h0c0,1.66-1.34,3-3,3h-228c-1.66,0-3-1.34-3-3h0c0-1.66,1.34-3,3-3Z"/>
  <path class="st27" d="M632,270h99.3c1.66,0,3,1.34,3,3h0c0,1.66-1.34,3-3,3h-99.3c-1.66,0-3-1.34-3-3h0c0-1.66,1.34-3,3-3Z"/>
  <g class="st12">
    <rect class="st25" x="897" y="90" width="270" height="200" rx="10" ry="10"/>
  </g>
  <path class="st13" d="M1127,104h16c5.52,0,10,4.48,10,10h0c0,5.52-4.48,10-10,10h-16c-5.52,0-10-4.48-10-10h0c0-5.52,4.48-10,10-10Z"/>
  <text class="st6" transform="translate(1123.6133 118)"><tspan x="0" y="0">AMB</tspan></text>
  <text class="st2" transform="translate(915 120)"><tspan x="0" y="0">KPI 04</tspan></text>
  <text class="st8" transform="translate(915 144)"><tspan x="0" y="0">Power-quality SAIDI</tspan></text>
  <text class="st1" transform="translate(915 198)"><tspan x="0" y="0">4.1</tspan></text>
  <text class="st9" transform="translate(915 218)"><tspan x="0" y="0">events / mo</tspan></text>
  <polygon class="st18" points="1117 168 1147 168 1132 190 1117 168"/>
  <line class="st26" x1="915" y1="240" x2="1149" y2="240"/>
  <text class="st7" transform="translate(915 260)"><tspan x="0" y="0">2027 TARGET</tspan></text>
  <text class="st3" transform="translate(1128.1479 260)"><tspan x="0" y="0">1.5</tspan></text>
  <path class="st16" d="M918,270h228c1.66,0,3,1.34,3,3h0c0,1.66-1.34,3-3,3h-228c-1.66,0-3-1.34-3-3h0c0-1.66,1.34-3,3-3Z"/>
  <path class="st27" d="M918,270h99.3c1.66,0,3,1.34,3,3h0c0,1.66-1.34,3-3,3h-99.3c-1.66,0-3-1.34-3-3h0c0-1.66,1.34-3,3-3Z"/>
  <g class="st29">
    <rect class="st25" x="39" y="306" width="270" height="200" rx="10" ry="10"/>
  </g>
  <path class="st18" d="M269,320h16c5.52,0,10,4.48,10,10h0c0,5.52-4.48,10-10,10h-16c-5.52,0-10-4.48-10-10h0c0-5.52,4.48-10,10-10Z"/>
  <text class="st6" transform="translate(266.44 334)"><tspan x="0" y="0">RED</tspan></text>
  <text class="st2" transform="translate(57 336)"><tspan x="0" y="0">KPI 05</tspan></text>
  <text class="st8" transform="translate(57 360)"><tspan x="0" y="0">Engineer attrition</tspan></text>
  <text class="st1" transform="translate(57 414)"><tspan x="0" y="0">17.5%</tspan></text>
  <polygon class="st27" points="259 406 289 406 274 384 259 406"/>
  <line class="st26" x1="57" y1="456" x2="291" y2="456"/>
  <text class="st7" transform="translate(57 476)"><tspan x="0" y="0">2027 TARGET</tspan></text>
  <text class="st3" transform="translate(252.22 476)"><tspan x="0" y="0">&lt;10%</tspan></text>
  <path class="st16" d="M60,486h228c1.66,0,3,1.34,3,3h0c0,1.66-1.34,3-3,3H60c-1.66,0-3-1.34-3-3h0c0-1.66,1.34-3,3-3Z"/>
  <path class="st27" d="M60,486h87.6c1.66,0,3,1.34,3,3h0c0,1.66-1.34,3-3,3H60c-1.66,0-3-1.34-3-3h0c0-1.66,1.34-3,3-3Z"/>
  <g class="st21">
    <rect class="st25" x="325" y="306" width="270" height="200" rx="10" ry="10"/>
  </g>
  <path class="st27" d="M555,320h16c5.52,0,10,4.48,10,10h0c0,5.52-4.48,10-10,10h-16c-5.52,0-10-4.48-10-10h0c0-5.52,4.48-10,10-10Z"/>
  <text class="st6" transform="translate(552.17 334)"><tspan x="0" y="0">GRE</tspan></text>
  <text class="st2" transform="translate(343 336)"><tspan x="0" y="0">KPI 06</tspan></text>
  <text class="st8" transform="translate(343 360)"><tspan x="0" y="0">MSME AVL count</tspan></text>
  <text class="st1" transform="translate(343 414)"><tspan x="0" y="0">186</tspan></text>
  <text class="st9" transform="translate(343 434)"><tspan x="0" y="0">vendors</tspan></text>
  <polygon class="st27" points="545 406 575 406 560 384 545 406"/>
  <line class="st26" x1="343" y1="456" x2="577" y2="456"/>
  <text class="st7" transform="translate(343 476)"><tspan x="0" y="0">2027 TARGET</tspan></text>
  <text class="st3" transform="translate(551.97 476)"><tspan x="0" y="0">420</tspan></text>
  <path class="st16" d="M346,486h228c1.66,0,3,1.34,3,3h0c0,1.66-1.34,3-3,3h-228c-1.66,0-3-1.34-3-3h0c0-1.66,1.34-3,3-3Z"/>
  <path class="st27" d="M346,486h122.7c1.66,0,3,1.34,3,3h0c0,1.66-1.34,3-3,3h-122.7c-1.66,0-3-1.34-3-3h0c0-1.66,1.34-3,3-3Z"/>
  <g class="st19">
    <rect class="st25" x="611" y="306" width="270" height="200" rx="10" ry="10"/>
  </g>
  <path class="st13" d="M841,320h16c5.52,0,10,4.48,10,10h0c0,5.52-4.48,10-10,10h-16c-5.52,0-10-4.48-10-10h0c0-5.52,4.48-10,10-10Z"/>
  <text class="st6" transform="translate(837.61 334)"><tspan x="0" y="0">AMB</tspan></text>
  <text class="st2" transform="translate(629 336)"><tspan x="0" y="0">KPI 07</tspan></text>
  <text class="st8" transform="translate(629 360)"><tspan x="0" y="0">Local content at fabs</tspan></text>
  <text class="st1" transform="translate(629 414)"><tspan x="0" y="0">12%</tspan></text>
  <polygon class="st27" points="831 406 861 406 846 384 831 406"/>
  <line class="st26" x1="629" y1="456" x2="863" y2="456"/>
  <text class="st7" transform="translate(629 476)"><tspan x="0" y="0">2027 TARGET</tspan></text>
  <text class="st3" transform="translate(832.98 476)"><tspan x="0" y="0">28%</tspan></text>
  <path class="st16" d="M632,486h228c1.66,0,3,1.34,3,3h0c0,1.66-1.34,3-3,3h-228c-1.66,0-3-1.34-3-3h0c0-1.66,1.34-3,3-3Z"/>
  <path class="st27" d="M632,486h99.3c1.66,0,3,1.34,3,3h0c0,1.66-1.34,3-3,3h-99.3c-1.66,0-3-1.34-3-3h0c0-1.66,1.34-3,3-3Z"/>
  <g class="st20">
    <rect class="st25" x="897" y="306" width="270" height="200" rx="10" ry="10"/>
  </g>
  <path class="st27" d="M1127,320h16c5.52,0,10,4.48,10,10h0c0,5.52-4.48,10-10,10h-16c-5.52,0-10-4.48-10-10h0c0-5.52,4.48-10,10-10Z"/>
  <text class="st6" transform="translate(1124.165 334)"><tspan x="0" y="0">GRE</tspan></text>
  <text class="st2" transform="translate(915 336)"><tspan x="0" y="0">KPI 08</tspan></text>
  <text class="st8" transform="translate(915 360)"><tspan x="0" y="0">Specialty-gas pipeline</tspan></text>
  <text class="st1" transform="translate(915 414)"><tspan x="0" y="0">62</tspan></text>
  <text class="st9" transform="translate(915 434)"><tspan x="0" y="0">km laid</tspan></text>
  <polygon class="st27" points="1117 406 1147 406 1132 384 1117 406"/>
  <line class="st26" x1="915" y1="456" x2="1149" y2="456"/>
  <text class="st7" transform="translate(915 476)"><tspan x="0" y="0">2027 TARGET</tspan></text>
  <text class="st3" transform="translate(1123.9731 476)"><tspan x="0" y="0">140</tspan></text>
  <path class="st16" d="M918,486h228c1.66,0,3,1.34,3,3h0c0,1.66-1.34,3-3,3h-228c-1.66,0-3-1.34-3-3h0c0-1.66,1.34-3,3-3Z"/>
  <path class="st27" d="M918,486h122.7c1.66,0,3,1.34,3,3h0c0,1.66-1.34,3-3,3h-122.7c-1.66,0-3-1.34-3-3h0c0-1.66,1.34-3,3-3Z"/>
  <g class="st28">
    <rect class="st25" x="39" y="522" width="270" height="200" rx="10" ry="10"/>
  </g>
  <path class="st13" d="M269,536h16c5.52,0,10,4.48,10,10h0c0,5.52-4.48,10-10,10h-16c-5.52,0-10-4.48-10-10h0c0-5.52,4.48-10,10-10Z"/>
  <text class="st6" transform="translate(265.61 550)"><tspan x="0" y="0">AMB</tspan></text>
  <text class="st2" transform="translate(57 552)"><tspan x="0" y="0">KPI 09</tspan></text>
  <text class="st8" transform="translate(57 576)"><tspan x="0" y="0">Skilling throughput</tspan></text>
  <text class="st1" transform="translate(57 630)"><tspan x="0" y="0">7,200</tspan></text>
  <text class="st9" transform="translate(57 650)"><tspan x="0" y="0">/ quarter</tspan></text>
  <polygon class="st27" points="259 622 289 622 274 600 259 622"/>
  <line class="st26" x1="57" y1="672" x2="291" y2="672"/>
  <text class="st7" transform="translate(57 692)"><tspan x="0" y="0">2027 TARGET</tspan></text>
  <text class="st3" transform="translate(245.12 692)"><tspan x="0" y="0">18,000</tspan></text>
  <path class="st16" d="M60,702h228c1.66,0,3,1.34,3,3h0c0,1.66-1.34,3-3,3H60c-1.66,0-3-1.34-3-3h0c0-1.66,1.34-3,3-3Z"/>
  <path class="st27" d="M60,702h99.3c1.66,0,3,1.34,3,3h0c0,1.66-1.34,3-3,3H60c-1.66,0-3-1.34-3-3h0c0-1.66,1.34-3,3-3Z"/>
  <g class="st17">
    <rect class="st25" x="325" y="522" width="270" height="200" rx="10" ry="10"/>
  </g>
  <path class="st18" d="M555,536h16c5.52,0,10,4.48,10,10h0c0,5.52-4.48,10-10,10h-16c-5.52,0-10-4.48-10-10h0c0-5.52,4.48-10,10-10Z"/>
  <text class="st6" transform="translate(552.44 550)"><tspan x="0" y="0">RED</tspan></text>
  <text class="st2" transform="translate(343 552)"><tspan x="0" y="0">KPI 10</tspan></text>
  <text class="st8" transform="translate(343 576)"><tspan x="0" y="0">Imported wafer arbitrage</tspan></text>
  <text class="st1" transform="translate(343 630)"><tspan x="0" y="0">-4%</tspan></text>
  <polygon class="st27" points="545 622 575 622 560 600 545 622"/>
  <line class="st26" x1="343" y1="672" x2="577" y2="672"/>
  <text class="st7" transform="translate(343 692)"><tspan x="0" y="0">2027 TARGET</tspan></text>
  <text class="st3" transform="translate(546.56 692)"><tspan x="0" y="0">+6%</tspan></text>
  <path class="st16" d="M346,702h228c1.66,0,3,1.34,3,3h0c0,1.66-1.34,3-3,3h-228c-1.66,0-3-1.34-3-3h0c0-1.66,1.34-3,3-3Z"/>
  <path class="st27" d="M346,702h87.6c1.66,0,3,1.34,3,3h0c0,1.66-1.34,3-3,3h-87.6c-1.66,0-3-1.34-3-3h0c0-1.66,1.34-3,3-3Z"/>
  <g class="st24">
    <rect class="st25" x="611" y="522" width="270" height="200" rx="10" ry="10"/>
  </g>
  <path class="st18" d="M841,536h16c5.52,0,10,4.48,10,10h0c0,5.52-4.48,10-10,10h-16c-5.52,0-10-4.48-10-10h0c0-5.52,4.48-10,10-10Z"/>
  <text class="st6" transform="translate(838.44 550)"><tspan x="0" y="0">RED</tspan></text>
  <text class="st2" transform="translate(629 552)"><tspan x="0" y="0">KPI 11</tspan></text>
  <text class="st8" transform="translate(629 576)"><tspan x="0" y="0">China mature-node price idx</tspan></text>
  <text class="st1" transform="translate(629 630)"><tspan x="0" y="0">68</tspan></text>
  <text class="st9" transform="translate(629 650)"><tspan x="0" y="0">rebased 100</tspan></text>
  <polygon class="st18" points="831 600 861 600 846 622 831 600"/>
  <line class="st26" x1="629" y1="672" x2="863" y2="672"/>
  <text class="st7" transform="translate(629 692)"><tspan x="0" y="0">2027 TARGET</tspan></text>
  <text class="st3" transform="translate(837.56 692)"><tspan x="0" y="0">&gt;85</tspan></text>
  <path class="st16" d="M632,702h228c1.66,0,3,1.34,3,3h0c0,1.66-1.34,3-3,3h-228c-1.66,0-3-1.34-3-3h0c0-1.66,1.34-3,3-3Z"/>
  <path class="st27" d="M632,702h87.6c1.66,0,3,1.34,3,3h0c0,1.66-1.34,3-3,3h-87.6c-1.66,0-3-1.34-3-3h0c0-1.66,1.34-3,3-3Z"/>
  <g class="st23">
    <rect class="st25" x="897" y="522" width="270" height="200" rx="10" ry="10"/>
  </g>
  <path class="st13" d="M1127,536h16c5.52,0,10,4.48,10,10h0c0,5.52-4.48,10-10,10h-16c-5.52,0-10-4.48-10-10h0c0-5.52,4.48-10,10-10Z"/>
  <text class="st6" transform="translate(1123.6133 550)"><tspan x="0" y="0">AMB</tspan></text>
  <text class="st2" transform="translate(915 552)"><tspan x="0" y="0">KPI 12</tspan></text>
  <text class="st8" transform="translate(915 576)"><tspan x="0" y="0">Export-control updates</tspan></text>
  <text class="st1" transform="translate(915 630)"><tspan x="0" y="0">11</tspan></text>
  <text class="st9" transform="translate(915 650)"><tspan x="0" y="0">/ year</tspan></text>
  <polygon class="st27" points="1117 622 1147 622 1132 600 1117 622"/>
  <line class="st26" x1="915" y1="672" x2="1149" y2="672"/>
  <text class="st7" transform="translate(915 692)"><tspan x="0" y="0">2027 TARGET</tspan></text>
  <text class="st3" transform="translate(1131.8979 692)"><tspan x="0" y="0">&lt;6</tspan></text>
  <path class="st16" d="M918,702h228c1.66,0,3,1.34,3,3h0c0,1.66-1.34,3-3,3h-228c-1.66,0-3-1.34-3-3h0c0-1.66,1.34-3,3-3Z"/>
  <path class="st27" d="M918,702h99.3c1.66,0,3,1.34,3,3h0c0,1.66-1.34,3-3,3h-99.3c-1.66,0-3-1.34-3-3h0c0-1.66,1.34-3,3-3Z"/>
  <text class="st0" transform="translate(373.25 755)"><tspan x="0" y="0">GRN: on track · AMB: drift but recoverable · RED: target at risk · arrows indicate 90-day trend direction</tspan></text>
</svg>