<svg xmlns="http://www.w3.org/2000/svg" viewBox="0 0 1200 800" font-family="Arial, Helvetica, sans-serif">
<defs>
  <filter id="soft" x="-10%" y="-10%" width="120%" height="120%">
    <feGaussianBlur in="SourceAlpha" stdDeviation="2"/>
    <feOffset dx="0" dy="1"/>
    <feComponentTransfer><feFuncA type="linear" slope="0.25"/></feComponentTransfer>
    <feMerge><feMergeNode/><feMergeNode in="SourceGraphic"/></feMerge>
  </filter>
  <linearGradient id="navyteal" x1="0" y1="0" x2="1" y2="0">
    <stop offset="0" stop-color="#0B1B3B"/><stop offset="1" stop-color="#14B8A6"/>
  </linearGradient>
  <linearGradient id="navygold" x1="0" y1="0" x2="1" y2="0">
    <stop offset="0" stop-color="#0B1B3B"/><stop offset="1" stop-color="#C9A84C"/>
  </linearGradient>
  <linearGradient id="lightnavy" x1="0" y1="0" x2="0" y2="1">
    <stop offset="0" stop-color="#E5E7EB"/><stop offset="1" stop-color="#0B1B3B"/>
  </linearGradient>
  <marker id="arrow" viewBox="0 0 10 10" refX="9" refY="5" markerWidth="6" markerHeight="6" orient="auto-start-reverse">
    <path d="M0,0 L10,5 L0,10 Z" fill="#0B1B3B"/>
  </marker>
  <marker id="arrowT" viewBox="0 0 10 10" refX="9" refY="5" markerWidth="6" markerHeight="6" orient="auto-start-reverse">
    <path d="M0,0 L10,5 L0,10 Z" fill="#14B8A6"/>
  </marker>
  <marker id="arrowG" viewBox="0 0 10 10" refX="9" refY="5" markerWidth="6" markerHeight="6" orient="auto-start-reverse">
    <path d="M0,0 L10,5 L0,10 Z" fill="#C9A84C"/>
  </marker>
</defs>
<rect width="1200" height="800" fill="#FFFFFF"/>
<rect x="0" y="0" width="1200" height="60" fill="#0B1B3B"/>
<text x="40" y="38" fill="#FFFFFF" font-size="20" font-weight="700">Failure Modes Matrix — Sixteen Stress-Test Scenarios</text>
<text x="1160" y="24" text-anchor="end" fill="#C9A84C" font-size="10" font-weight="700" letter-spacing="1.5">FIGURE 32</text>
<text x="1160" y="44" text-anchor="end" fill="#E5E7EB" font-size="11" font-weight="400">Probability  ·  impact  ·  mitigation readiness for India's fab build-out  ·  2026-30</text>
<text x="40" y="785" fill="#6B7280" font-size="9" letter-spacing="0.5">INDIA SEMICONDUCTOR INTELLIGENCE 2026  ·  WHO REALLY BENEFITS FROM INDIA'S FAB ECOSYSTEM?</text>
<text x="1160" y="785" text-anchor="end" fill="#6B7280" font-size="9" letter-spacing="0.5">FIG 32 / 38</text>
<rect x="70" y="90" width="270" height="158" rx="8" fill="#FFFFFF" stroke="#E5E7EB" stroke-width="1" filter="url(#soft)"/><rect x="70" y="90" width="6" height="158" fill="#C9A84C" rx="0"/><text x="86" y="112" fill="#0B1B3B" font-size="11.5" font-weight="700">1. Mature-node oversupply</text><text x="86" y="134" fill="#111827" font-size="9" font-weight="700" letter-spacing="0.3">PROBABILITY</text><text x="326" y="134" text-anchor="end" fill="#111827" font-size="9" font-weight="700">75</text><rect x="86" y="138" width="240" height="6" rx="3" fill="#E5E7EB"/><rect x="86" y="138" width="180.0" height="6" rx="3" fill="#2E6497"/><text x="86" y="160" fill="#111827" font-size="9" font-weight="700" letter-spacing="0.3">IMPACT</text><text x="326" y="160" text-anchor="end" fill="#111827" font-size="9" font-weight="700">70</text><rect x="86" y="164" width="240" height="6" rx="3" fill="#E5E7EB"/><rect x="86" y="164" width="168.0" height="6" rx="3" fill="#0B1B3B"/><text x="86" y="186" fill="#111827" font-size="9" font-weight="700" letter-spacing="0.3">MITIGATION</text><polygon points="180,180 183,186 190,187 185,191 186.5,198 180,194 173.5,198 175,191 170,187 177,186" fill="#C9A84C"/><polygon points="194,180 197,186 204,187 199,191 200.5,198 194,194 187.5,198 189,191 184,187 191,186" fill="#C9A84C"/><polygon points="208,180 211,186 218,187 213,191 214.5,198 208,194 201.5,198 203,191 198,187 205,186" fill="#E5E7EB"/><polygon points="222,180 225,186 232,187 227,191 228.5,198 222,194 215.5,198 217,191 212,187 219,186" fill="#E5E7EB"/><polygon points="236,180 239,186 246,187 241,191 242.5,198 236,194 229.5,198 231,191 226,187 233,186" fill="#E5E7EB"/><text x="86" y="218" fill="#111827" font-size="9">Global 28-40nm capacity outpaces</text><text x="86" y="231" fill="#111827" font-size="9">demand; ASP collapse hits all OSAT/fab</text><rect x="350" y="90" width="270" height="158" rx="8" fill="#FFFFFF" stroke="#E5E7EB" stroke-width="1" filter="url(#soft)"/><rect x="350" y="90" width="6" height="158" fill="#B91C1C" rx="0"/><text x="366" y="112" fill="#0B1B3B" font-size="11.5" font-weight="700">2. Chinese dumping at 28nm</text><text x="366" y="134" fill="#111827" font-size="9" font-weight="700" letter-spacing="0.3">PROBABILITY</text><text x="606" y="134" text-anchor="end" fill="#111827" font-size="9" font-weight="700">70</text><rect x="366" y="138" width="240" height="6" rx="3" fill="#E5E7EB"/><rect x="366" y="138" width="168.0" height="6" rx="3" fill="#2E6497"/><text x="366" y="160" fill="#111827" font-size="9" font-weight="700" letter-spacing="0.3">IMPACT</text><text x="606" y="160" text-anchor="end" fill="#111827" font-size="9" font-weight="700">80</text><rect x="366" y="164" width="240" height="6" rx="3" fill="#E5E7EB"/><rect x="366" y="164" width="192.0" height="6" rx="3" fill="#0B1B3B"/><text x="366" y="186" fill="#111827" font-size="9" font-weight="700" letter-spacing="0.3">MITIGATION</text><polygon points="460,180 463,186 470,187 465,191 466.5,198 460,194 453.5,198 455,191 450,187 457,186" fill="#C9A84C"/><polygon points="474,180 477,186 484,187 479,191 480.5,198 474,194 467.5,198 469,191 464,187 471,186" fill="#E5E7EB"/><polygon points="488,180 491,186 498,187 493,191 494.5,198 488,194 481.5,198 483,191 478,187 485,186" fill="#E5E7EB"/><polygon points="502,180 505,186 512,187 507,191 508.5,198 502,194 495.5,198 497,191 492,187 499,186" fill="#E5E7EB"/><polygon points="516,180 519,186 526,187 521,191 522.5,198 516,194 509.5,198 511,191 506,187 513,186" fill="#E5E7EB"/><text x="366" y="218" fill="#111827" font-size="9">SMIC + Hua Hong subsidised exports;</text><text x="366" y="231" fill="#111827" font-size="9">India tariff escalation likely but</text><rect x="630" y="90" width="270" height="158" rx="8" fill="#FFFFFF" stroke="#E5E7EB" stroke-width="1" filter="url(#soft)"/><rect x="630" y="90" width="6" height="158" fill="#14B8A6" rx="0"/><text x="646" y="112" fill="#0B1B3B" font-size="11.5" font-weight="700">3. US subsidy war escalates</text><text x="646" y="134" fill="#111827" font-size="9" font-weight="700" letter-spacing="0.3">PROBABILITY</text><text x="886" y="134" text-anchor="end" fill="#111827" font-size="9" font-weight="700">55</text><rect x="646" y="138" width="240" height="6" rx="3" fill="#E5E7EB"/><rect x="646" y="138" width="132.0" height="6" rx="3" fill="#2E6497"/><text x="646" y="160" fill="#111827" font-size="9" font-weight="700" letter-spacing="0.3">IMPACT</text><text x="886" y="160" text-anchor="end" fill="#111827" font-size="9" font-weight="700">60</text><rect x="646" y="164" width="240" height="6" rx="3" fill="#E5E7EB"/><rect x="646" y="164" width="144.0" height="6" rx="3" fill="#0B1B3B"/><text x="646" y="186" fill="#111827" font-size="9" font-weight="700" letter-spacing="0.3">MITIGATION</text><polygon points="740,180 743,186 750,187 745,191 746.5,198 740,194 733.5,198 735,191 730,187 737,186" fill="#C9A84C"/><polygon points="754,180 757,186 764,187 759,191 760.5,198 754,194 747.5,198 749,191 744,187 751,186" fill="#C9A84C"/><polygon points="768,180 771,186 778,187 773,191 774.5,198 768,194 761.5,198 763,191 758,187 765,186" fill="#E5E7EB"/><polygon points="782,180 785,186 792,187 787,191 788.5,198 782,194 775.5,198 777,191 772,187 779,186" fill="#E5E7EB"/><polygon points="796,180 799,186 806,187 801,191 802.5,198 796,194 789.5,198 791,191 786,187 793,186" fill="#E5E7EB"/><text x="646" y="218" fill="#111827" font-size="9">CHIPS-II + EU Chips Act 2 widen</text><text x="646" y="231" fill="#111827" font-size="9">subsidy gap; India loses FDI marginal</text><rect x="910" y="90" width="270" height="158" rx="8" fill="#FFFFFF" stroke="#E5E7EB" stroke-width="1" filter="url(#soft)"/><rect x="910" y="90" width="6" height="158" fill="#14B8A6" rx="0"/><text x="926" y="112" fill="#0B1B3B" font-size="11.5" font-weight="700">4. AI demand slowdown</text><text x="926" y="134" fill="#111827" font-size="9" font-weight="700" letter-spacing="0.3">PROBABILITY</text><text x="1166" y="134" text-anchor="end" fill="#111827" font-size="9" font-weight="700">35</text><rect x="926" y="138" width="240" height="6" rx="3" fill="#E5E7EB"/><rect x="926" y="138" width="84.0" height="6" rx="3" fill="#2E6497"/><text x="926" y="160" fill="#111827" font-size="9" font-weight="700" letter-spacing="0.3">IMPACT</text><text x="1166" y="160" text-anchor="end" fill="#111827" font-size="9" font-weight="700">55</text><rect x="926" y="164" width="240" height="6" rx="3" fill="#E5E7EB"/><rect x="926" y="164" width="132.0" height="6" rx="3" fill="#0B1B3B"/><text x="926" y="186" fill="#111827" font-size="9" font-weight="700" letter-spacing="0.3">MITIGATION</text><polygon points="1020,180 1023,186 1030,187 1025,191 1026.5,198 1020,194 1013.5,198 1015,191 1010,187 1017,186" fill="#C9A84C"/><polygon points="1034,180 1037,186 1044,187 1039,191 1040.5,198 1034,194 1027.5,198 1029,191 1024,187 1031,186" fill="#C9A84C"/><polygon points="1048,180 1051,186 1058,187 1053,191 1054.5,198 1048,194 1041.5,198 1043,191 1038,187 1045,186" fill="#C9A84C"/><polygon points="1062,180 1065,186 1072,187 1067,191 1068.5,198 1062,194 1055.5,198 1057,191 1052,187 1059,186" fill="#E5E7EB"/><polygon points="1076,180 1079,186 1086,187 1081,191 1082.5,198 1076,194 1069.5,198 1071,191 1066,187 1073,186" fill="#E5E7EB"/><text x="926" y="218" fill="#111827" font-size="9">Hyperscaler capex pause; HBM and</text><text x="926" y="231" fill="#111827" font-size="9">accelerator demand drops 25-40%.</text><rect x="70" y="260" width="270" height="158" rx="8" fill="#FFFFFF" stroke="#E5E7EB" stroke-width="1" filter="url(#soft)"/><rect x="70" y="260" width="6" height="158" fill="#14B8A6" rx="0"/><text x="86" y="282" fill="#0B1B3B" font-size="11.5" font-weight="700">5. Taiwan crisis (tail risk)</text><text x="86" y="304" fill="#111827" font-size="9" font-weight="700" letter-spacing="0.3">PROBABILITY</text><text x="326" y="304" text-anchor="end" fill="#111827" font-size="9" font-weight="700">15</text><rect x="86" y="308" width="240" height="6" rx="3" fill="#E5E7EB"/><rect x="86" y="308" width="36.0" height="6" rx="3" fill="#2E6497"/><text x="86" y="330" fill="#111827" font-size="9" font-weight="700" letter-spacing="0.3">IMPACT</text><text x="326" y="330" text-anchor="end" fill="#111827" font-size="9" font-weight="700">95</text><rect x="86" y="334" width="240" height="6" rx="3" fill="#E5E7EB"/><rect x="86" y="334" width="228.0" height="6" rx="3" fill="#0B1B3B"/><text x="86" y="356" fill="#111827" font-size="9" font-weight="700" letter-spacing="0.3">MITIGATION</text><polygon points="180,350 183,356 190,357 185,361 186.5,368 180,364 173.5,368 175,361 170,357 177,356" fill="#C9A84C"/><polygon points="194,350 197,356 204,357 199,361 200.5,368 194,364 187.5,368 189,361 184,357 191,356" fill="#E5E7EB"/><polygon points="208,350 211,356 218,357 213,361 214.5,368 208,364 201.5,368 203,361 198,357 205,356" fill="#E5E7EB"/><polygon points="222,350 225,356 232,357 227,361 228.5,368 222,364 215.5,368 217,361 212,357 219,356" fill="#E5E7EB"/><polygon points="236,350 239,356 246,357 241,361 242.5,368 236,364 229.5,368 231,361 226,357 233,356" fill="#E5E7EB"/><text x="86" y="388" fill="#111827" font-size="9">Binary geopolitical event; global</text><text x="86" y="401" fill="#111827" font-size="9">wafer supply halved overnight.</text><rect x="350" y="260" width="270" height="158" rx="8" fill="#FFFFFF" stroke="#E5E7EB" stroke-width="1" filter="url(#soft)"/><rect x="350" y="260" width="6" height="158" fill="#14B8A6" rx="0"/><text x="366" y="282" fill="#0B1B3B" font-size="11.5" font-weight="700">6. Power-quality wafer scrap</text><text x="366" y="304" fill="#111827" font-size="9" font-weight="700" letter-spacing="0.3">PROBABILITY</text><text x="606" y="304" text-anchor="end" fill="#111827" font-size="9" font-weight="700">45</text><rect x="366" y="308" width="240" height="6" rx="3" fill="#E5E7EB"/><rect x="366" y="308" width="108.0" height="6" rx="3" fill="#2E6497"/><text x="366" y="330" fill="#111827" font-size="9" font-weight="700" letter-spacing="0.3">IMPACT</text><text x="606" y="330" text-anchor="end" fill="#111827" font-size="9" font-weight="700">45</text><rect x="366" y="334" width="240" height="6" rx="3" fill="#E5E7EB"/><rect x="366" y="334" width="108.0" height="6" rx="3" fill="#0B1B3B"/><text x="366" y="356" fill="#111827" font-size="9" font-weight="700" letter-spacing="0.3">MITIGATION</text><polygon points="460,350 463,356 470,357 465,361 466.5,368 460,364 453.5,368 455,361 450,357 457,356" fill="#C9A84C"/><polygon points="474,350 477,356 484,357 479,361 480.5,368 474,364 467.5,368 469,361 464,357 471,356" fill="#C9A84C"/><polygon points="488,350 491,356 498,357 493,361 494.5,368 488,364 481.5,368 483,361 478,357 485,356" fill="#C9A84C"/><polygon points="502,350 505,356 512,357 507,361 508.5,368 502,364 495.5,368 497,361 492,357 499,356" fill="#E5E7EB"/><polygon points="516,350 519,356 526,357 521,361 522.5,368 516,364 509.5,368 511,361 506,357 513,356" fill="#E5E7EB"/><text x="366" y="388" fill="#111827" font-size="9">Grid voltage sag at Dholera/Sanand</text><text x="366" y="401" fill="#111827" font-size="9">causes line-stop; one-off yield event.</text><rect x="630" y="260" width="270" height="158" rx="8" fill="#FFFFFF" stroke="#E5E7EB" stroke-width="1" filter="url(#soft)"/><rect x="630" y="260" width="6" height="158" fill="#14B8A6" rx="0"/><text x="646" y="282" fill="#0B1B3B" font-size="11.5" font-weight="700">7. Water curtailment monsoon</text><text x="646" y="304" fill="#111827" font-size="9" font-weight="700" letter-spacing="0.3">PROBABILITY</text><text x="886" y="304" text-anchor="end" fill="#111827" font-size="9" font-weight="700">40</text><rect x="646" y="308" width="240" height="6" rx="3" fill="#E5E7EB"/><rect x="646" y="308" width="96.0" height="6" rx="3" fill="#2E6497"/><text x="646" y="330" fill="#111827" font-size="9" font-weight="700" letter-spacing="0.3">IMPACT</text><text x="886" y="330" text-anchor="end" fill="#111827" font-size="9" font-weight="700">55</text><rect x="646" y="334" width="240" height="6" rx="3" fill="#E5E7EB"/><rect x="646" y="334" width="132.0" height="6" rx="3" fill="#0B1B3B"/><text x="646" y="356" fill="#111827" font-size="9" font-weight="700" letter-spacing="0.3">MITIGATION</text><polygon points="740,350 743,356 750,357 745,361 746.5,368 740,364 733.5,368 735,361 730,357 737,356" fill="#C9A84C"/><polygon points="754,350 757,356 764,357 759,361 760.5,368 754,364 747.5,368 749,361 744,357 751,356" fill="#C9A84C"/><polygon points="768,350 771,356 778,357 773,361 774.5,368 768,364 761.5,368 763,361 758,357 765,356" fill="#E5E7EB"/><polygon points="782,350 785,356 792,357 787,361 788.5,368 782,364 775.5,368 777,361 772,357 779,356" fill="#E5E7EB"/><polygon points="796,350 799,356 806,357 801,361 802.5,368 796,364 789.5,368 791,361 786,357 793,356" fill="#E5E7EB"/><text x="646" y="388" fill="#111827" font-size="9">Sub-normal monsoon year; Narmada</text><text x="646" y="401" fill="#111827" font-size="9">allocation cut by state govt.</text><rect x="910" y="260" width="270" height="158" rx="8" fill="#FFFFFF" stroke="#E5E7EB" stroke-width="1" filter="url(#soft)"/><rect x="910" y="260" width="6" height="158" fill="#C9A84C" rx="0"/><text x="926" y="282" fill="#0B1B3B" font-size="11.5" font-weight="700">8. Talent attrition >20%/yr</text><text x="926" y="304" fill="#111827" font-size="9" font-weight="700" letter-spacing="0.3">PROBABILITY</text><text x="1166" y="304" text-anchor="end" fill="#111827" font-size="9" font-weight="700">55</text><rect x="926" y="308" width="240" height="6" rx="3" fill="#E5E7EB"/><rect x="926" y="308" width="132.0" height="6" rx="3" fill="#2E6497"/><text x="926" y="330" fill="#111827" font-size="9" font-weight="700" letter-spacing="0.3">IMPACT</text><text x="1166" y="330" text-anchor="end" fill="#111827" font-size="9" font-weight="700">70</text><rect x="926" y="334" width="240" height="6" rx="3" fill="#E5E7EB"/><rect x="926" y="334" width="168.0" height="6" rx="3" fill="#0B1B3B"/><text x="926" y="356" fill="#111827" font-size="9" font-weight="700" letter-spacing="0.3">MITIGATION</text><polygon points="1020,350 1023,356 1030,357 1025,361 1026.5,368 1020,364 1013.5,368 1015,361 1010,357 1017,356" fill="#C9A84C"/><polygon points="1034,350 1037,356 1044,357 1039,361 1040.5,368 1034,364 1027.5,368 1029,361 1024,357 1031,356" fill="#C9A84C"/><polygon points="1048,350 1051,356 1058,357 1053,361 1054.5,368 1048,364 1041.5,368 1043,361 1038,357 1045,356" fill="#E5E7EB"/><polygon points="1062,350 1065,356 1072,357 1067,361 1068.5,368 1062,364 1055.5,368 1057,361 1052,357 1059,356" fill="#E5E7EB"/><polygon points="1076,350 1079,356 1086,357 1081,361 1082.5,368 1076,364 1069.5,368 1071,361 1066,357 1073,356" fill="#E5E7EB"/><text x="926" y="388" fill="#111827" font-size="9">Engineers poached by TSMC AZ / Intel</text><text x="926" y="401" fill="#111827" font-size="9">Ohio / Samsung Texas at 2-3x premium.</text><rect x="70" y="430" width="270" height="158" rx="8" fill="#FFFFFF" stroke="#E5E7EB" stroke-width="1" filter="url(#soft)"/><rect x="70" y="430" width="6" height="158" fill="#C9A84C" rx="0"/><text x="86" y="452" fill="#0B1B3B" font-size="11.5" font-weight="700">9. Dholera yield ramp fails</text><text x="86" y="474" fill="#111827" font-size="9" font-weight="700" letter-spacing="0.3">PROBABILITY</text><text x="326" y="474" text-anchor="end" fill="#111827" font-size="9" font-weight="700">50</text><rect x="86" y="478" width="240" height="6" rx="3" fill="#E5E7EB"/><rect x="86" y="478" width="120.0" height="6" rx="3" fill="#2E6497"/><text x="86" y="500" fill="#111827" font-size="9" font-weight="700" letter-spacing="0.3">IMPACT</text><text x="326" y="500" text-anchor="end" fill="#111827" font-size="9" font-weight="700">85</text><rect x="86" y="504" width="240" height="6" rx="3" fill="#E5E7EB"/><rect x="86" y="504" width="204.0" height="6" rx="3" fill="#0B1B3B"/><text x="86" y="526" fill="#111827" font-size="9" font-weight="700" letter-spacing="0.3">MITIGATION</text><polygon points="180,520 183,526 190,527 185,531 186.5,538 180,534 173.5,538 175,531 170,527 177,526" fill="#C9A84C"/><polygon points="194,520 197,526 204,527 199,531 200.5,538 194,534 187.5,538 189,531 184,527 191,526" fill="#C9A84C"/><polygon points="208,520 211,526 218,527 213,531 214.5,538 208,534 201.5,538 203,531 198,527 205,526" fill="#E5E7EB"/><polygon points="222,520 225,526 232,527 227,531 228.5,538 222,534 215.5,538 217,531 212,527 219,526" fill="#E5E7EB"/><polygon points="236,520 239,526 246,527 241,531 242.5,538 236,534 229.5,538 231,531 226,527 233,526" fill="#E5E7EB"/><text x="86" y="558" fill="#111827" font-size="9">TEL fab achieves &lt;60% yield by</text><text x="86" y="571" fill="#111827" font-size="9">2028; PSMC partnership strained.</text><rect x="350" y="430" width="270" height="158" rx="8" fill="#FFFFFF" stroke="#E5E7EB" stroke-width="1" filter="url(#soft)"/><rect x="350" y="430" width="6" height="158" fill="#14B8A6" rx="0"/><text x="366" y="452" fill="#0B1B3B" font-size="11.5" font-weight="700">10. IP / tech-transfer dispute</text><text x="366" y="474" fill="#111827" font-size="9" font-weight="700" letter-spacing="0.3">PROBABILITY</text><text x="606" y="474" text-anchor="end" fill="#111827" font-size="9" font-weight="700">30</text><rect x="366" y="478" width="240" height="6" rx="3" fill="#E5E7EB"/><rect x="366" y="478" width="72.0" height="6" rx="3" fill="#2E6497"/><text x="366" y="500" fill="#111827" font-size="9" font-weight="700" letter-spacing="0.3">IMPACT</text><text x="606" y="500" text-anchor="end" fill="#111827" font-size="9" font-weight="700">75</text><rect x="366" y="504" width="240" height="6" rx="3" fill="#E5E7EB"/><rect x="366" y="504" width="180.0" height="6" rx="3" fill="#0B1B3B"/><text x="366" y="526" fill="#111827" font-size="9" font-weight="700" letter-spacing="0.3">MITIGATION</text><polygon points="460,520 463,526 470,527 465,531 466.5,538 460,534 453.5,538 455,531 450,527 457,526" fill="#C9A84C"/><polygon points="474,520 477,526 484,527 479,531 480.5,538 474,534 467.5,538 469,531 464,527 471,526" fill="#E5E7EB"/><polygon points="488,520 491,526 498,527 493,531 494.5,538 488,534 481.5,538 483,531 478,527 485,526" fill="#E5E7EB"/><polygon points="502,520 505,526 512,527 507,531 508.5,538 502,534 495.5,538 497,531 492,527 499,526" fill="#E5E7EB"/><polygon points="516,520 519,526 526,527 521,531 522.5,538 516,534 509.5,538 511,531 506,527 513,526" fill="#E5E7EB"/><text x="366" y="558" fill="#111827" font-size="9">Foreign partner withdraws process node</text><text x="366" y="571" fill="#111827" font-size="9">licence; legal arbitration drags.</text><rect x="630" y="430" width="270" height="158" rx="8" fill="#FFFFFF" stroke="#E5E7EB" stroke-width="1" filter="url(#soft)"/><rect x="630" y="430" width="6" height="158" fill="#14B8A6" rx="0"/><text x="646" y="452" fill="#0B1B3B" font-size="11.5" font-weight="700">11. ESG financing pullback</text><text x="646" y="474" fill="#111827" font-size="9" font-weight="700" letter-spacing="0.3">PROBABILITY</text><text x="886" y="474" text-anchor="end" fill="#111827" font-size="9" font-weight="700">35</text><rect x="646" y="478" width="240" height="6" rx="3" fill="#E5E7EB"/><rect x="646" y="478" width="84.0" height="6" rx="3" fill="#2E6497"/><text x="646" y="500" fill="#111827" font-size="9" font-weight="700" letter-spacing="0.3">IMPACT</text><text x="886" y="500" text-anchor="end" fill="#111827" font-size="9" font-weight="700">50</text><rect x="646" y="504" width="240" height="6" rx="3" fill="#E5E7EB"/><rect x="646" y="504" width="120.0" height="6" rx="3" fill="#0B1B3B"/><text x="646" y="526" fill="#111827" font-size="9" font-weight="700" letter-spacing="0.3">MITIGATION</text><polygon points="740,520 743,526 750,527 745,531 746.5,538 740,534 733.5,538 735,531 730,527 737,526" fill="#C9A84C"/><polygon points="754,520 757,526 764,527 759,531 760.5,538 754,534 747.5,538 749,531 744,527 751,526" fill="#C9A84C"/><polygon points="768,520 771,526 778,527 773,531 774.5,538 768,534 761.5,538 763,531 758,527 765,526" fill="#C9A84C"/><polygon points="782,520 785,526 792,527 787,531 788.5,538 782,534 775.5,538 777,531 772,527 779,526" fill="#E5E7EB"/><polygon points="796,520 799,526 806,527 801,531 802.5,538 796,534 789.5,538 791,531 786,527 793,526" fill="#E5E7EB"/><text x="646" y="558" fill="#111827" font-size="9">Coal-grid carbon intensity blocks</text><text x="646" y="571" fill="#111827" font-size="9">European bank syndication.</text><rect x="910" y="430" width="270" height="158" rx="8" fill="#FFFFFF" stroke="#E5E7EB" stroke-width="1" filter="url(#soft)"/><rect x="910" y="430" width="6" height="158" fill="#14B8A6" rx="0"/><text x="926" y="452" fill="#0B1B3B" font-size="11.5" font-weight="700">12. ISM policy budget cut</text><text x="926" y="474" fill="#111827" font-size="9" font-weight="700" letter-spacing="0.3">PROBABILITY</text><text x="1166" y="474" text-anchor="end" fill="#111827" font-size="9" font-weight="700">25</text><rect x="926" y="478" width="240" height="6" rx="3" fill="#E5E7EB"/><rect x="926" y="478" width="60.0" height="6" rx="3" fill="#2E6497"/><text x="926" y="500" fill="#111827" font-size="9" font-weight="700" letter-spacing="0.3">IMPACT</text><text x="1166" y="500" text-anchor="end" fill="#111827" font-size="9" font-weight="700">65</text><rect x="926" y="504" width="240" height="6" rx="3" fill="#E5E7EB"/><rect x="926" y="504" width="156.0" height="6" rx="3" fill="#0B1B3B"/><text x="926" y="526" fill="#111827" font-size="9" font-weight="700" letter-spacing="0.3">MITIGATION</text><polygon points="1020,520 1023,526 1030,527 1025,531 1026.5,538 1020,534 1013.5,538 1015,531 1010,527 1017,526" fill="#C9A84C"/><polygon points="1034,520 1037,526 1044,527 1039,531 1040.5,538 1034,534 1027.5,538 1029,531 1024,527 1031,526" fill="#C9A84C"/><polygon points="1048,520 1051,526 1058,527 1053,531 1054.5,538 1048,534 1041.5,538 1043,531 1038,527 1045,526" fill="#E5E7EB"/><polygon points="1062,520 1065,526 1072,527 1067,531 1068.5,538 1062,534 1055.5,538 1057,531 1052,527 1059,526" fill="#E5E7EB"/><polygon points="1076,520 1079,526 1086,527 1081,531 1082.5,538 1076,534 1069.5,538 1071,531 1066,527 1073,526" fill="#E5E7EB"/><text x="926" y="558" fill="#111827" font-size="9">Fiscal consolidation under new govt;</text><text x="926" y="571" fill="#111827" font-size="9">ISM 3.0 allocation halved.</text><rect x="70" y="600" width="270" height="158" rx="8" fill="#FFFFFF" stroke="#E5E7EB" stroke-width="1" filter="url(#soft)"/><rect x="70" y="600" width="6" height="158" fill="#14B8A6" rx="0"/><text x="86" y="622" fill="#0B1B3B" font-size="11.5" font-weight="700">13. Currency / tariff shock</text><text x="86" y="644" fill="#111827" font-size="9" font-weight="700" letter-spacing="0.3">PROBABILITY</text><text x="326" y="644" text-anchor="end" fill="#111827" font-size="9" font-weight="700">45</text><rect x="86" y="648" width="240" height="6" rx="3" fill="#E5E7EB"/><rect x="86" y="648" width="108.0" height="6" rx="3" fill="#2E6497"/><text x="86" y="670" fill="#111827" font-size="9" font-weight="700" letter-spacing="0.3">IMPACT</text><text x="326" y="670" text-anchor="end" fill="#111827" font-size="9" font-weight="700">55</text><rect x="86" y="674" width="240" height="6" rx="3" fill="#E5E7EB"/><rect x="86" y="674" width="132.0" height="6" rx="3" fill="#0B1B3B"/><text x="86" y="696" fill="#111827" font-size="9" font-weight="700" letter-spacing="0.3">MITIGATION</text><polygon points="180,690 183,696 190,697 185,701 186.5,708 180,704 173.5,708 175,701 170,697 177,696" fill="#C9A84C"/><polygon points="194,690 197,696 204,697 199,701 200.5,708 194,704 187.5,708 189,701 184,697 191,696" fill="#C9A84C"/><polygon points="208,690 211,696 218,697 213,701 214.5,708 208,704 201.5,708 203,701 198,697 205,696" fill="#C9A84C"/><polygon points="222,690 225,696 232,697 227,701 228.5,708 222,704 215.5,708 217,701 212,697 219,696" fill="#E5E7EB"/><polygon points="236,690 239,696 246,697 241,701 242.5,708 236,704 229.5,708 231,701 226,697 233,696" fill="#E5E7EB"/><text x="86" y="728" fill="#111827" font-size="9">INR weakens; imported equipment +</text><text x="86" y="741" fill="#111827" font-size="9">materials costs spike 15-20%.</text><rect x="350" y="600" width="270" height="158" rx="8" fill="#FFFFFF" stroke="#E5E7EB" stroke-width="1" filter="url(#soft)"/><rect x="350" y="600" width="6" height="158" fill="#14B8A6" rx="0"/><text x="366" y="622" fill="#0B1B3B" font-size="11.5" font-weight="700">14. Equipment service embargo</text><text x="366" y="644" fill="#111827" font-size="9" font-weight="700" letter-spacing="0.3">PROBABILITY</text><text x="606" y="644" text-anchor="end" fill="#111827" font-size="9" font-weight="700">25</text><rect x="366" y="648" width="240" height="6" rx="3" fill="#E5E7EB"/><rect x="366" y="648" width="60.0" height="6" rx="3" fill="#2E6497"/><text x="366" y="670" fill="#111827" font-size="9" font-weight="700" letter-spacing="0.3">IMPACT</text><text x="606" y="670" text-anchor="end" fill="#111827" font-size="9" font-weight="700">80</text><rect x="366" y="674" width="240" height="6" rx="3" fill="#E5E7EB"/><rect x="366" y="674" width="192.0" height="6" rx="3" fill="#0B1B3B"/><text x="366" y="696" fill="#111827" font-size="9" font-weight="700" letter-spacing="0.3">MITIGATION</text><polygon points="460,690 463,696 470,697 465,701 466.5,708 460,704 453.5,708 455,701 450,697 457,696" fill="#C9A84C"/><polygon points="474,690 477,696 484,697 479,701 480.5,708 474,704 467.5,708 469,701 464,697 471,696" fill="#E5E7EB"/><polygon points="488,690 491,696 498,697 493,701 494.5,708 488,704 481.5,708 483,701 478,697 485,696" fill="#E5E7EB"/><polygon points="502,690 505,696 512,697 507,701 508.5,708 502,704 495.5,708 497,701 492,697 499,696" fill="#E5E7EB"/><polygon points="516,690 519,696 526,697 521,701 522.5,708 516,704 509.5,708 511,701 506,697 513,696" fill="#E5E7EB"/><text x="366" y="728" fill="#111827" font-size="9">US BIS restricts service tools to</text><text x="366" y="741" fill="#111827" font-size="9">India lines on dual-use grounds.</text><rect x="630" y="600" width="270" height="158" rx="8" fill="#FFFFFF" stroke="#E5E7EB" stroke-width="1" filter="url(#soft)"/><rect x="630" y="600" width="6" height="158" fill="#14B8A6" rx="0"/><text x="646" y="622" fill="#0B1B3B" font-size="11.5" font-weight="700">15. Cyber / supply-chain hack</text><text x="646" y="644" fill="#111827" font-size="9" font-weight="700" letter-spacing="0.3">PROBABILITY</text><text x="886" y="644" text-anchor="end" fill="#111827" font-size="9" font-weight="700">40</text><rect x="646" y="648" width="240" height="6" rx="3" fill="#E5E7EB"/><rect x="646" y="648" width="96.0" height="6" rx="3" fill="#2E6497"/><text x="646" y="670" fill="#111827" font-size="9" font-weight="700" letter-spacing="0.3">IMPACT</text><text x="886" y="670" text-anchor="end" fill="#111827" font-size="9" font-weight="700">65</text><rect x="646" y="674" width="240" height="6" rx="3" fill="#E5E7EB"/><rect x="646" y="674" width="156.0" height="6" rx="3" fill="#0B1B3B"/><text x="646" y="696" fill="#111827" font-size="9" font-weight="700" letter-spacing="0.3">MITIGATION</text><polygon points="740,690 743,696 750,697 745,701 746.5,708 740,704 733.5,708 735,701 730,697 737,696" fill="#C9A84C"/><polygon points="754,690 757,696 764,697 759,701 760.5,708 754,704 747.5,708 749,701 744,697 751,696" fill="#C9A84C"/><polygon points="768,690 771,696 778,697 773,701 774.5,708 768,704 761.5,708 763,701 758,697 765,696" fill="#E5E7EB"/><polygon points="782,690 785,696 792,697 787,701 788.5,708 782,704 775.5,708 777,701 772,697 779,696" fill="#E5E7EB"/><polygon points="796,690 799,696 806,697 801,701 802.5,708 796,704 789.5,708 791,701 786,697 793,696" fill="#E5E7EB"/><text x="646" y="728" fill="#111827" font-size="9">Compromised firmware or design IDE at</text><text x="646" y="741" fill="#111827" font-size="9">fab tool layer.</text><rect x="910" y="600" width="270" height="158" rx="8" fill="#FFFFFF" stroke="#E5E7EB" stroke-width="1" filter="url(#soft)"/><rect x="910" y="600" width="6" height="158" fill="#14B8A6" rx="0"/><text x="926" y="622" fill="#0B1B3B" font-size="11.5" font-weight="700">16. Subsidy clawback dispute</text><text x="926" y="644" fill="#111827" font-size="9" font-weight="700" letter-spacing="0.3">PROBABILITY</text><text x="1166" y="644" text-anchor="end" fill="#111827" font-size="9" font-weight="700">30</text><rect x="926" y="648" width="240" height="6" rx="3" fill="#E5E7EB"/><rect x="926" y="648" width="72.0" height="6" rx="3" fill="#2E6497"/><text x="926" y="670" fill="#111827" font-size="9" font-weight="700" letter-spacing="0.3">IMPACT</text><text x="1166" y="670" text-anchor="end" fill="#111827" font-size="9" font-weight="700">50</text><rect x="926" y="674" width="240" height="6" rx="3" fill="#E5E7EB"/><rect x="926" y="674" width="120.0" height="6" rx="3" fill="#0B1B3B"/><text x="926" y="696" fill="#111827" font-size="9" font-weight="700" letter-spacing="0.3">MITIGATION</text><polygon points="1020,690 1023,696 1030,697 1025,701 1026.5,708 1020,704 1013.5,708 1015,701 1010,697 1017,696" fill="#C9A84C"/><polygon points="1034,690 1037,696 1044,697 1039,701 1040.5,708 1034,704 1027.5,708 1029,701 1024,697 1031,696" fill="#C9A84C"/><polygon points="1048,690 1051,696 1058,697 1053,701 1054.5,708 1048,704 1041.5,708 1043,701 1038,697 1045,696" fill="#C9A84C"/><polygon points="1062,690 1065,696 1072,697 1067,701 1068.5,708 1062,704 1055.5,708 1057,701 1052,697 1059,696" fill="#E5E7EB"/><polygon points="1076,690 1079,696 1086,697 1081,701 1082.5,708 1076,704 1069.5,708 1071,701 1066,697 1073,696" fill="#E5E7EB"/><text x="926" y="728" fill="#111827" font-size="9">State-vs-Centre dispute on PLI</text><text x="926" y="741" fill="#111827" font-size="9">metrics; project delays 6-12 months.</text><text x="600" y="755" text-anchor="middle" fill="#6B7280" font-size="10">Card-edge accent indicates severity (prob x impact)  ·  red = critical  ·  gold = elevated  ·  teal = manageable  ·  stars = preparedness</text></svg>