<?xml version="1.0" encoding="UTF-8"?>
<svg id="Layer_1" xmlns="http://www.w3.org/2000/svg" version="1.1" viewBox="0 0 1000 750">
  <!-- Generator: Adobe Illustrator 30.4.0, SVG Export Plug-In . SVG Version: 2.1.4 Build 226)  -->
  <defs>
    <style>
      .st0 {
        letter-spacing: .05em;
      }

      .st0, .st1, .st2, .st3, .st4, .st5, .st6, .st7 {
        isolation: isolate;
      }

      .st0, .st1, .st4 {
        font-size: 11px;
      }

      .st0, .st2, .st3, .st4, .st5, .st7 {
        font-family: Arial-BoldMT, Arial;
        font-weight: 700;
      }

      .st0, .st3, .st4, .st5 {
        fill: #111827;
      }

      .st8 {
        fill: #2e6497;
      }

      .st1 {
        fill: #e5e7eb;
      }

      .st1, .st6 {
        font-family: ArialMT, Arial;
      }

      .st9, .st7 {
        fill: #c9a84c;
      }

      .st2 {
        fill: #fff;
        font-size: 20px;
      }

      .st3, .st6 {
        font-size: 9px;
      }

      .st10 {
        fill: #0b1b3b;
      }

      .st11 {
        fill: #14b8a6;
      }

      .st12 {
        fill: #f8fafc;
        stroke: #e5e7eb;
        stroke-width: .92px;
      }

      .st5 {
        font-size: 10.5px;
      }

      .st6 {
        fill: #6b7280;
        letter-spacing: .06em;
      }

      .st7 {
        font-size: 10px;
        letter-spacing: .15em;
      }
    </style>
  </defs>
  <rect class="st10" y=".35" width="1000" height="60"/>
  <text class="st2" transform="translate(20.77 39.29)"><tspan x="0" y="0">India vs Taiwan — Capability Comparison</tspan></text>
  <text class="st7" transform="translate(894.86 23.24)"><tspan x="0" y="0">FIGURE 29</tspan></text>
  <text class="st1" transform="translate(655.24 43.49)"><tspan x="0" y="0">Ten attributes · Taiwan 2025 vs India 2026 vs India 2035-target</tspan></text>
  <text class="st6" transform="translate(33.41 730.51)"><tspan x="0" y="0">INDIA SEMICONDUCTOR INTELLIGENCE 2026 · WHO REALLY BENEFITS FROM INDIA&apos;S FAB ECOSYSTEM?</tspan></text>
  <text class="st6" transform="translate(900.52 730.51)"><tspan x="0" y="0">FIG 29 / 30</tspan></text>
  <text class="st5" transform="translate(93.38 109.35)"><tspan x="0" y="0">Foundry capacity (M wafers/yr)</tspan></text>
  <rect class="st8" x="260" y="91.35" width="666.7" height="12"/>
  <text class="st3" transform="translate(932.7 101.35)"><tspan x="0" y="0">28</tspan></text>
  <rect class="st9" x="260" y="104.35" width="11.9" height="12"/>
  <text class="st3" transform="translate(277.9 114.35)"><tspan x="0" y="0">0.5</tspan></text>
  <rect class="st11" x="260" y="117.35" width="142.9" height="12"/>
  <text class="st3" transform="translate(408.9 127.35)"><tspan x="0" y="0">6</tspan></text>
  <text class="st5" transform="translate(73.53 165.35)"><tspan x="0" y="0">Process node leadership (nm best)</tspan></text>
  <rect class="st8" x="260" y="147.35" width="666.7" height="12"/>
  <text class="st3" transform="translate(932.7 157.35)"><tspan x="0" y="0">3 nm</tspan></text>
  <rect class="st9" x="260" y="160.35" width="71.4" height="12"/>
  <text class="st3" transform="translate(337.4 170.35)"><tspan x="0" y="0">28 nm</tspan></text>
  <rect class="st11" x="260" y="173.35" width="142.9" height="12"/>
  <text class="st3" transform="translate(408.9 183.35)"><tspan x="0" y="0">14 nm</tspan></text>
  <text class="st5" transform="translate(121.59 221.35)"><tspan x="0" y="0">Talent depth (10K skilled)</tspan></text>
  <rect class="st8" x="260" y="203.35" width="277.8" height="12"/>
  <text class="st3" transform="translate(543.8 213.35)"><tspan x="0" y="0">25</tspan></text>
  <rect class="st9" x="260" y="216.35" width="244.4" height="12"/>
  <text class="st3" transform="translate(510.4 226.35)"><tspan x="0" y="0">22</tspan></text>
  <rect class="st11" x="260" y="229.35" width="666.7" height="12"/>
  <text class="st3" transform="translate(932.7 239.35)"><tspan x="0" y="0">60</tspan></text>
  <text class="st5" transform="translate(136.91 277.35)"><tspan x="0" y="0">Water resilience score</tspan></text>
  <rect class="st8" x="260" y="259.35" width="666.7" height="12"/>
  <text class="st3" transform="translate(932.7 269.35)"><tspan x="0" y="0">8</tspan></text>
  <rect class="st9" x="260" y="272.35" width="416.7" height="12"/>
  <text class="st3" transform="translate(682.7 282.35)"><tspan x="0" y="0">5</tspan></text>
  <rect class="st11" x="260" y="285.35" width="666.7" height="12"/>
  <text class="st3" transform="translate(932.7 295.35)"><tspan x="0" y="0">8</tspan></text>
  <text class="st5" transform="translate(134.19 333.35)"><tspan x="0" y="0">Power resilience score</tspan></text>
  <rect class="st8" x="260" y="315.35" width="666.7" height="12"/>
  <text class="st3" transform="translate(932.7 325.35)"><tspan x="0" y="0">9</tspan></text>
  <rect class="st9" x="260" y="328.35" width="444.4" height="12"/>
  <text class="st3" transform="translate(710.4 338.35)"><tspan x="0" y="0">6</tspan></text>
  <rect class="st11" x="260" y="341.35" width="666.7" height="12"/>
  <text class="st3" transform="translate(932.7 351.35)"><tspan x="0" y="0">9</tspan></text>
  <text class="st5" transform="translate(102.14 389.35)"><tspan x="0" y="0">Equipment self-sufficiency %</tspan></text>
  <rect class="st8" x="260" y="371.35" width="666.7" height="12"/>
  <text class="st3" transform="translate(932.7 381.35)"><tspan x="0" y="0">35</tspan></text>
  <rect class="st9" x="260" y="384.35" width="38.1" height="12"/>
  <text class="st3" transform="translate(304.1 394.35)"><tspan x="0" y="0">2</tspan></text>
  <rect class="st11" x="260" y="397.35" width="476.2" height="12"/>
  <text class="st3" transform="translate(742.2 407.35)"><tspan x="0" y="0">25</tspan></text>
  <text class="st5" transform="translate(116.7 445.35)"><tspan x="0" y="0">Material self-sufficiency %</tspan></text>
  <rect class="st8" x="260" y="427.35" width="666.7" height="12"/>
  <text class="st3" transform="translate(932.7 437.35)"><tspan x="0" y="0">60</tspan></text>
  <rect class="st9" x="260" y="440.35" width="55.6" height="12"/>
  <text class="st3" transform="translate(321.6 450.35)"><tspan x="0" y="0">5</tspan></text>
  <rect class="st11" x="260" y="453.35" width="388.9" height="12"/>
  <text class="st3" transform="translate(654.9 463.35)"><tspan x="0" y="0">35</tspan></text>
  <text class="st5" transform="translate(125.45 501.35)"><tspan x="0" y="0">IP / EDA capability score</tspan></text>
  <rect class="st8" x="260" y="483.35" width="666.7" height="12"/>
  <text class="st3" transform="translate(932.7 493.35)"><tspan x="0" y="0">9</tspan></text>
  <rect class="st9" x="260" y="496.35" width="222.2" height="12"/>
  <text class="st3" transform="translate(488.2 506.35)"><tspan x="0" y="0">3</tspan></text>
  <rect class="st11" x="260" y="509.35" width="518.5" height="12"/>
  <text class="st3" transform="translate(784.5 519.35)"><tspan x="0" y="0">7</tspan></text>
  <text class="st5" transform="translate(112.65 557.35)"><tspan x="0" y="0">Domestic demand pull ($B)</tspan></text>
  <rect class="st8" x="260" y="539.35" width="488.9" height="12"/>
  <text class="st3" transform="translate(754.9 549.35)"><tspan x="0" y="0">110</tspan></text>
  <rect class="st9" x="260" y="552.35" width="155.6" height="12"/>
  <text class="st3" transform="translate(421.6 562.35)"><tspan x="0" y="0">35</tspan></text>
  <rect class="st11" x="260" y="565.35" width="666.7" height="12"/>
  <text class="st3" transform="translate(932.7 575.35)"><tspan x="0" y="0">150</tspan></text>
  <text class="st5" transform="translate(128.39 613.35)"><tspan x="0" y="0">Govt policy depth score</tspan></text>
  <rect class="st8" x="260" y="595.35" width="666.7" height="12"/>
  <text class="st3" transform="translate(932.7 605.35)"><tspan x="0" y="0">9</tspan></text>
  <rect class="st9" x="260" y="608.35" width="592.6" height="12"/>
  <text class="st3" transform="translate(858.6 618.35)"><tspan x="0" y="0">8</tspan></text>
  <rect class="st11" x="260" y="621.35" width="666.7" height="12"/>
  <text class="st3" transform="translate(932.7 631.35)"><tspan x="0" y="0">9</tspan></text>
  <rect class="st12" x="33.41" y="651.35" width="918.81" height="60" rx="8" ry="8"/>
  <rect class="st8" x="53.41" y="676.35" width="22" height="12" rx="3" ry="3"/>
  <text class="st4" transform="translate(83.41 686.35)"><tspan x="0" y="0">Taiwan 2025</tspan></text>
  <rect class="st9" x="353.41" y="676.35" width="22" height="12" rx="3" ry="3"/>
  <text class="st4" transform="translate(383.41 686.35)"><tspan x="0" y="0">India 2026</tspan></text>
  <rect class="st11" x="653.41" y="676.35" width="22" height="12" rx="3" ry="3"/>
  <text class="st4" transform="translate(683.41 686.35)"><tspan x="0" y="0">India 2035 target</tspan></text>
  <text class="st0" transform="translate(260 83.35)"><tspan x="0" y="0">COMPARATIVE SCORES / BAR LENGTH NORMALISED PER ATTRIBUTE</tspan></text>
</svg>