<?xml version="1.0" encoding="UTF-8"?>
<svg id="Layer_1" xmlns="http://www.w3.org/2000/svg" version="1.1" xmlns:xlink="http://www.w3.org/1999/xlink" viewBox="0 0 1200 800">
  <!-- Generator: Adobe Illustrator 30.4.0, SVG Export Plug-In . SVG Version: 2.1.4 Build 226)  -->
  <defs>
    <style>
      .st0 {
        fill: #334155;
      }

      .st0, .st1, .st2, .st3, .st4, .st5, .st6, .st7, .st8, .st9, .st10, .st11, .st12, .st13, .st14, .st15, .st16, .st17, .st18, .st19, .st20, .st21, .st22, .st23, .st24, .st25, .st26, .st27 {
        isolation: isolate;
      }

      .st0, .st12, .st26 {
        font-size: 11px;
      }

      .st28 {
        fill: url(#linear-gradient2);
      }

      .st1, .st2, .st5, .st8, .st9, .st10, .st11, .st16, .st17, .st18, .st19, .st21, .st22, .st23, .st26 {
        font-family: SegoeUI-Bold, 'Segoe UI';
        font-weight: 700;
      }

      .st1, .st6, .st7, .st9, .st13, .st29, .st30, .st19, .st20, .st23 {
        fill: #fff;
      }

      .st1, .st16 {
        font-size: 15px;
      }

      .st2 {
        letter-spacing: .04em;
      }

      .st2, .st3, .st4, .st10, .st14 {
        fill: #0f172a;
      }

      .st2, .st5, .st21, .st22, .st23 {
        font-size: 14px;
      }

      .st31, .st32, .st33 {
        stroke: #e2e8f0;
      }

      .st31, .st34 {
        fill: #f8fafc;
      }

      .st3, .st6, .st15 {
        opacity: .85;
      }

      .st32, .st35 {
        fill: none;
      }

      .st4 {
        opacity: .6;
      }

      .st36 {
        fill: #0a1628;
      }

      .st5 {
        fill: #991b1b;
      }

      .st37 {
        fill: url(#linear-gradient1);
      }

      .st7 {
        opacity: .15;
      }

      .st38, .st33 {
        fill: #f1f5f9;
      }

      .st8, .st11, .st17, .st18, .st19 {
        font-size: 12px;
      }

      .st8, .st21 {
        fill: #0d9488;
      }

      .st35 {
        stroke-dasharray: 4 4;
        stroke-width: 1.5px;
      }

      .st35, .st30 {
        stroke: #cbd5e1;
      }

      .st9 {
        font-size: 24px;
        letter-spacing: .02em;
      }

      .st39 {
        font-family: ArialMT, Arial;
      }

      .st10 {
        font-size: 16px;
        letter-spacing: .05em;
      }

      .st40 {
        fill: #3b5d8a;
      }

      .st11 {
        fill: #2dd4bf;
      }

      .st12, .st41, .st27 {
        font-family: SegoeUI, 'Segoe UI';
      }

      .st12, .st18 {
        fill: #94a3b8;
      }

      .st42 {
        fill: #2563eb;
      }

      .st13 {
        opacity: .25;
      }

      .st14, .st20 {
        font-family: SegoeUI-Semibold, 'Segoe UI';
        font-size: 13px;
        font-weight: 600;
      }

      .st43 {
        fill: #2e5a8a;
      }

      .st44 {
        fill: #475569;
      }

      .st15 {
        fill: #ef4444;
      }

      .st45, .st27 {
        fill: #64748b;
      }

      .st46 {
        fill: url(#linear-gradient3);
      }

      .st16 {
        letter-spacing: .07em;
      }

      .st16, .st22, .st26 {
        fill: #d4af37;
      }

      .st29 {
        stroke: #d4af37;
        stroke-width: 2px;
      }

      .st17 {
        fill: #fca5a5;
      }

      .st47 {
        fill: #1e3a5f;
      }

      .st24 {
        fill: #14b8a6;
      }

      .st24, .st25 {
        opacity: .9;
      }

      .st25 {
        fill: #3b82f6;
      }

      .st48 {
        fill: url(#linear-gradient);
      }

      .st26 {
        letter-spacing: .14em;
      }

      .st27 {
        font-size: 10px;
        letter-spacing: .05em;
      }
    </style>
    <linearGradient id="linear-gradient" x1="301.75" y1="820.1" x2="302.75" y2="820.1" gradientTransform="translate(-362098 59083.0679) scale(1200 -72)" gradientUnits="userSpaceOnUse">
      <stop offset="0" stop-color="#0a1628"/>
      <stop offset="1" stop-color="#1b3a5c"/>
    </linearGradient>
    <linearGradient id="linear-gradient1" x1="301.4" y1="820.41" x2="302.4" y2="819.41" gradientTransform="translate(-151266 36366.1526) scale(504 -44)" gradientUnits="userSpaceOnUse">
      <stop offset="0" stop-color="#b8860b"/>
      <stop offset="1" stop-color="#d4af37"/>
    </linearGradient>
    <linearGradient id="linear-gradient2" x1="301.4" y1="820.41" x2="302.4" y2="819.41" gradientTransform="translate(-151266 36534.1526) scale(504 -44)" gradientUnits="userSpaceOnUse">
      <stop offset="0" stop-color="#0d9488"/>
      <stop offset="1" stop-color="#14b8a6"/>
    </linearGradient>
    <linearGradient id="linear-gradient3" x1="301.4" y1="820.41" x2="302.4" y2="819.41" gradientTransform="translate(-151266 36646.1526) scale(504 -44)" gradientUnits="userSpaceOnUse">
      <stop offset="0" stop-color="#991b1b"/>
      <stop offset="1" stop-color="#ef4444"/>
    </linearGradient>
  </defs>
  <rect class="st48" y="0" width="1200" height="72"/>
  <text class="st9" transform="translate(32 44)"><tspan x="0" y="0">China+1 Supply Chain Realignment</tspan></text>
  <text class="st26" transform="translate(1100.7944 30)"><tspan x="0" y="0">FIGURE 03</tspan></text>
  <text class="st12" transform="translate(905.12 52)"><tspan x="0" y="0">Capacity-share shifts driving 2026–2035 diversification</tspan></text>
  <rect class="st33" x="40" y="96" width="540" height="40" rx="6" ry="6"/>
  <text class="st10" transform="translate(193.11 122)"><tspan x="0" y="0">CONCENTRATION RISK 2020</tspan></text>
  <rect class="st33" x="620" y="96" width="540" height="40" rx="6" ry="6"/>
  <text class="st10" transform="translate(740.91 122)"><tspan x="0" y="0">DIVERSIFIED FOOTPRINT 2026–2035</tspan></text>
  <rect class="st36" x="56" y="156" width="504" height="44" rx="6" ry="6"/>
  <text class="st20" transform="translate(80 184)"><tspan x="0" y="0">Taiwan (TSMC)</tspan></text>
  <rect class="st24" x="440" y="164" width="104" height="28" rx="4" ry="4"/>
  <text class="st1" transform="translate(476.87 184)"><tspan x="0" y="0">63%</tspan></text>
  <rect class="st47" x="56" y="212" width="504" height="44" rx="6" ry="6"/>
  <text class="st20" transform="translate(80 240)"><tspan x="0" y="0">S. Korea (Samsung / SK Hynix)</tspan></text>
  <rect class="st25" x="440" y="220" width="104" height="28" rx="4" ry="4"/>
  <text class="st1" transform="translate(476.87 240)"><tspan x="0" y="0">18%</tspan></text>
  <rect class="st42" x="56" y="268" width="504" height="44" rx="6" ry="6"/>
  <text class="st20" transform="translate(80 296)"><tspan x="0" y="0">China (SMIC)</tspan></text>
  <rect class="st13" x="440" y="276" width="104" height="28" rx="4" ry="4"/>
  <text class="st1" transform="translate(481.18 296)"><tspan x="0" y="0">7%</tspan></text>
  <rect class="st44" x="56" y="324" width="504" height="44" rx="6" ry="6"/>
  <text class="st20" transform="translate(80 352)"><tspan x="0" y="0">Japan</tspan></text>
  <rect class="st13" x="440" y="332" width="104" height="28" rx="4" ry="4"/>
  <text class="st1" transform="translate(481.18 352)"><tspan x="0" y="0">6%</tspan></text>
  <rect class="st45" x="56" y="380" width="504" height="44" rx="6" ry="6"/>
  <text class="st20" transform="translate(80 408)"><tspan x="0" y="0">United States + European Union + Rest of World</tspan></text>
  <rect class="st13" x="440" y="388" width="104" height="28" rx="4" ry="4"/>
  <text class="st1" transform="translate(481.18 408)"><tspan x="0" y="0">6%</tspan></text>
  <line class="st35" x1="570" y1="178" x2="630" y2="178"/>
  <line class="st35" x1="570" y1="234" x2="630" y2="234"/>
  <line class="st35" x1="570" y1="290" x2="630" y2="290"/>
  <line class="st35" x1="570" y1="346" x2="630" y2="346"/>
  <line class="st35" x1="570" y1="402" x2="630" y2="402"/>
  <path class="st29" d="M548,437.5h64c11.05,0,20,8.95,20,20h0c0,11.05-8.95,20-20,20h-64c-11.05,0-20-8.95-20-20h0c0-11.05,8.95-20,20-20Z"/>
  <text class="st16" transform="translate(542.88 463.5)"><tspan x="0" y="0">CHINA+1</tspan></text>
  <rect class="st36" x="640" y="156" width="504" height="44" rx="6" ry="6"/>
  <text class="st20" transform="translate(664 184)"><tspan x="0" y="0">Taiwan (TSMC) — declining</tspan></text>
  <rect class="st15" x="970" y="164" width="90" height="28" rx="4" ry="4"/>
  <text class="st23" transform="translate(1000.877 184)"><tspan x="0" y="0">45%</tspan></text>
  <rect class="st7" x="1068" y="164" width="70" height="28" rx="4" ry="4"/>
  <text class="st17" transform="translate(1084.4141 184)"><tspan x="0" y="0">−18pp</tspan></text>
  <rect class="st47" x="640" y="212" width="504" height="44" rx="6" ry="6"/>
  <text class="st20" transform="translate(664 240)"><tspan x="0" y="0">S. Korea (Samsung / SK Hynix) — steady</tspan></text>
  <rect class="st25" x="970" y="220" width="90" height="28" rx="4" ry="4"/>
  <text class="st23" transform="translate(1000.877 240)"><tspan x="0" y="0">18%</tspan></text>
  <rect class="st7" x="1067.68" y="220" width="70" height="28" rx="4" ry="4"/>
  <text class="st18" transform="translate(1092.1074 240)"><tspan x="0" y="0">0pp</tspan></text>
  <rect class="st37" x="640" y="268" width="504" height="44" rx="6" ry="6"/>
  <text class="st14" transform="translate(664 296)"><tspan x="0" y="0">United States + reshoring (AZ / OH / TX)</tspan></text>
  <rect class="st3" x="970" y="276" width="90" height="28" rx="4" ry="4"/>
  <text class="st22" transform="translate(1000.877 296)"><tspan x="0" y="0">18%</tspan></text>
  <rect class="st4" x="1068" y="276" width="70" height="28" rx="4" ry="4"/>
  <text class="st8" transform="translate(1084.4141 296)"><tspan x="0" y="0">+12pp</tspan></text>
  <rect class="st44" x="640" y="324" width="504" height="44" rx="6" ry="6"/>
  <text class="st20" transform="translate(664 352)"><tspan x="0" y="0">Japan (Kumamoto / Rapidus / Kioxia)</tspan></text>
  <rect class="st13" x="970" y="332" width="90" height="28" rx="4" ry="4"/>
  <text class="st23" transform="translate(1000.877 352)"><tspan x="0" y="0">10%</tspan></text>
  <rect class="st7" x="1068" y="332" width="70" height="28" rx="4" ry="4"/>
  <text class="st11" transform="translate(1087.8652 352)"><tspan x="0" y="0">+4pp</tspan></text>
  <rect class="st40" x="640" y="380" width="504" height="44" rx="6" ry="6"/>
  <text class="st20" transform="translate(664 408)"><tspan x="0" y="0">European Union (Dresden / Magdeburg / Crolles)</tspan></text>
  <rect class="st13" x="970" y="388" width="90" height="28" rx="4" ry="4"/>
  <text class="st23" transform="translate(1000.877 408)"><tspan x="0" y="0">11%</tspan></text>
  <rect class="st7" x="1068" y="388" width="70" height="28" rx="4" ry="4"/>
  <text class="st11" transform="translate(1087.8652 408)"><tspan x="0" y="0">+5pp</tspan></text>
  <rect class="st28" x="640" y="436" width="504" height="44" rx="6" ry="6"/>
  <text class="st20" transform="translate(664 464)"><tspan x="0" y="0">India (Dholera / Sanand / Gujarat)</tspan></text>
  <rect class="st6" x="970" y="444" width="90" height="28" rx="4" ry="4"/>
  <text class="st21" transform="translate(1004.9033 464)"><tspan x="0" y="0">3%</tspan></text>
  <rect class="st13" x="1068" y="444" width="70" height="28" rx="4" ry="4"/>
  <text class="st19" transform="translate(1087.8652 464)"><tspan x="0" y="0">+3pp</tspan></text>
  <rect class="st43" x="640" y="492" width="504" height="44" rx="6" ry="6"/>
  <text class="st20" transform="translate(664 520)"><tspan x="0" y="0">Southeast Asia (Malaysia / Vietnam / Singapore)</tspan></text>
  <rect class="st13" x="970" y="500" width="90" height="28" rx="4" ry="4"/>
  <text class="st23" transform="translate(1000.877 520)"><tspan x="0" y="0">14%</tspan></text>
  <rect class="st7" x="1068" y="500" width="70" height="28" rx="4" ry="4"/>
  <text class="st11" transform="translate(1087.8652 520)"><tspan x="0" y="0">+4pp</tspan></text>
  <rect class="st46" x="640" y="548" width="504" height="44" rx="6" ry="6"/>
  <text class="st20" transform="translate(664 576)"><tspan x="0" y="0">China (sanctioned / restricted access)</tspan></text>
  <rect class="st6" x="970" y="556" width="90" height="28" rx="4" ry="4"/>
  <text class="st5" transform="translate(1004.9033 576)"><tspan x="0" y="0">6%</tspan></text>
  <rect class="st13" x="1068" y="556" width="70" height="28" rx="4" ry="4"/>
  <text class="st17" transform="translate(1087.8652 576)"><tspan x="0" y="0">−1pp</tspan></text>
  <rect class="st31" x="40" y="620" width="1120" height="110" rx="10" ry="10"/>
  <rect class="st38" x="40" y="620" width="1120" height="34" rx="10" ry="10"/>
  <rect class="st38" x="40" y="640" width="1120" height="14"/>
  <text class="st2" transform="translate(64 644)"><tspan x="0" y="0">KEY DRIVERS OF REALIGNMENT</tspan></text>
  <g>
    <path class="st30" d="M70,657h152c7.73,0,14,6.27,14,14h0c0,7.73-6.27,14-14,14H70c-7.73,0-14-6.27-14-14h0c0-7.73,6.27-14,14-14Z"/>
    <text class="st0" transform="translate(74.09 676)"><tspan class="st39" x="0" y="0">🇺🇸</tspan><tspan class="st41" x="16.5" y="0" xml:space="preserve"> US-China tech decoupli</tspan></text>
    <path class="st30" d="M264,657h172c7.73,0,14,6.27,14,14h0c0,7.73-6.27,14-14,14h-172c-7.73,0-14-6.27-14-14h0c0-7.73,6.27-14,14-14Z"/>
    <text class="st0" transform="translate(261.16 676)"><tspan class="st39" x="0" y="0">🦠</tspan><tspan class="st41" x="8.25" y="0" xml:space="preserve"> Pandemic-era concentration shoc</tspan></text>
    <path class="st30" d="M478,657h152c7.73,0,14,6.27,14,14h0c0,7.73-6.27,14-14,14h-152c-7.73,0-14-6.27-14-14h0c0-7.73,6.27-14,14-14Z"/>
    <text class="st0" transform="translate(499.99 676)"><tspan class="st39" x="0" y="0">🌊</tspan><tspan class="st41" x="8.25" y="0" xml:space="preserve"> Taiwan Strait tail ris</tspan></text>
    <path class="st30" d="M672,657h162c7.73,0,14,6.27,14,14h0c0,7.73-6.27,14-14,14h-162c-7.73,0-14-6.27-14-14h0c0-7.73,6.27-14,14-14Z"/>
    <text class="st0" transform="translate(680.59 676)"><tspan class="st39" x="0" y="0">💰</tspan><tspan class="st41" x="8.25" y="0" xml:space="preserve"> Subsidy arms race ($500B+</tspan></text>
    <path class="st30" d="M876,657h142c7.73,0,14,6.27,14,14h0c0,7.73-6.27,14-14,14h-142c-7.73,0-14-6.27-14-14h0c0-7.73,6.27-14,14-14Z"/>
    <text class="st0" transform="translate(882.24 676)"><tspan class="st39" x="0" y="0">🏛️</tspan><tspan class="st41" x="8.25" y="0" xml:space="preserve"> Sovereign demand pul</tspan></text>
    <path class="st30" d="M70,693h167c7.73,0,14,6.27,14,14h0c0,7.73-6.27,14-14,14H70c-7.73,0-14-6.27-14-14h0c0-7.73,6.27-14,14-14Z"/>
    <text class="st0" transform="translate(83.8 712)"><tspan class="st39" x="0" y="0">📦</tspan><tspan class="st41" x="8.25" y="0" xml:space="preserve"> Export controls (US/NL/JP</tspan></text>
    <path class="st30" d="M279,693h182c7.73,0,14,6.27,14,14h0c0,7.73-6.27,14-14,14h-182c-7.73,0-14-6.27-14-14h0c0-7.73,6.27-14,14-14Z"/>
    <text class="st0" transform="translate(282.16 712)"><tspan class="st39" x="0" y="0">📊</tspan><tspan class="st41" x="8.25" y="0" xml:space="preserve"> Customer inventory diversificatio</tspan></text>
    <path class="st30" d="M503,693h167c7.73,0,14,6.27,14,14h0c0,7.73-6.27,14-14,14h-167c-7.73,0-14-6.27-14-14h0c0-7.73,6.27-14,14-14Z"/>
    <text class="st0" transform="translate(507.93 712)"><tspan class="st39" x="0" y="0">🔒</tspan><tspan class="st41" x="8.25" y="0" xml:space="preserve"> National security designation</tspan></text>
    <path class="st30" d="M712,693h167c7.73,0,14,6.27,14,14h0c0,7.73-6.27,14-14,14h-167c-7.73,0-14-6.27-14-14h0c0-7.73,6.27-14,14-14Z"/>
    <text class="st0" transform="translate(710.33 712)"><tspan class="st39" x="0" y="0">💧</tspan><tspan class="st41" x="8.25" y="0" xml:space="preserve"> Water / power access constraint</tspan></text>
    <path class="st30" d="M921,693h157c7.73,0,14,6.27,14,14h0c0,7.73-6.27,14-14,14h-157c-7.73,0-14-6.27-14-14h0c0-7.73,6.27-14,14-14Z"/>
    <text class="st0" transform="translate(933.99 712)"><tspan class="st39" x="0" y="0">🧠</tspan><tspan class="st41" x="8.25" y="0" xml:space="preserve"> Talent pool redistributio</tspan></text>
  </g>
  <rect class="st34" y="755" width="1200" height="45"/>
  <line class="st32" y1="755" x2="1200" y2="755"/>
  <text class="st27" transform="translate(32 783)"><tspan x="0" y="0">INDIA SEMICONDUCTOR INTELLIGENCE 2026 · WHO REALLY BENEFITS FROM INDIA&apos;S FAB ECOSYSTEM?</tspan></text>
  <text class="st27" transform="translate(1114.4189 783)"><tspan x="0" y="0">FIG 03 / 30</tspan></text>
</svg>