<?xml version="1.0" encoding="UTF-8"?>
<svg id="Layer_1" xmlns="http://www.w3.org/2000/svg" version="1.1" viewBox="0 0 1100 600">
  <!-- Generator: Adobe Illustrator 30.4.0, SVG Export Plug-In . SVG Version: 2.1.4 Build 226)  -->
  <defs>
    <style>
      .st0, .st1, .st2, .st3, .st4, .st5, .st6, .st7, .st8 {
        isolation: isolate;
      }

      .st0, .st1, .st5, .st6, .st7 {
        font-family: ArialMT, Arial;
      }

      .st0, .st3, .st8 {
        font-size: 10px;
      }

      .st0, .st5, .st6, .st7 {
        fill: #6b7280;
      }

      .st9 {
        fill: #2e6497;
      }

      .st10 {
        fill: none;
        stroke: #e5e7eb;
        stroke-width: .49px;
      }

      .st1, .st4 {
        font-size: 11px;
      }

      .st1, .st11 {
        fill: #e5e7eb;
      }

      .st12, .st8 {
        fill: #c9a84c;
      }

      .st2 {
        font-size: 20px;
      }

      .st2, .st3 {
        fill: #fff;
      }

      .st2, .st3, .st4, .st8 {
        font-family: Arial-BoldMT, Arial;
        font-weight: 700;
      }

      .st13 {
        fill: #0b1b3b;
      }

      .st4 {
        fill: #111827;
      }

      .st5 {
        font-size: 9.5px;
      }

      .st6, .st7 {
        font-size: 9px;
      }

      .st7 {
        letter-spacing: .06em;
      }

      .st8 {
        letter-spacing: .15em;
      }
    </style>
  </defs>
  <rect class="st13" y=".23" width="1100" height="60"/>
  <text class="st2" transform="translate(41.49 27.36)"><tspan x="0" y="0">International Benchmark Matrix</tspan><tspan x="0" y="24">India Against Asian Foundry Peers</tspan></text>
  <text class="st8" transform="translate(1014.7747 26.2334)"><tspan x="0" y="0">FIGURE 33</tspan></text>
  <text class="st1" transform="translate(595.47 48.36)"><tspan x="0" y="0">Seven economies · eleven structural metrics · bar lengths show relative position within each column</tspan></text>
  <text class="st7" transform="translate(42.26 583.61)"><tspan x="0" y="0">INDIA SEMICONDUCTOR INTELLIGENCE 2026 · WHO REALLY BENEFITS FROM INDIA&apos;S FAB ECOSYSTEM?</tspan></text>
  <text class="st7" transform="translate(1028.7915 583.7206)"><tspan x="0" y="0">FIG 33 / 38</tspan></text>
  <rect class="st13" x="186.8" y="78.23" width="77.82" height="62" rx="6" ry="6"/>
  <text class="st3" transform="translate(191.35 95.04)"><tspan x="0" y="0">Foundry </tspan><tspan x="0" y="12">capacity</tspan></text>
  <text class="st3" transform="translate(192.08 128.51)"><tspan x="0" y="0">(M wpm)</tspan></text>
  <rect class="st13" x="268.62" y="78.23" width="77.82" height="62" rx="6" ry="6"/>
  <text class="st3" transform="translate(275.49 95.04)"><tspan x="0" y="0">Mature-node</tspan></text>
  <text class="st3" transform="translate(278.24 118.51)"><tspan x="0" y="0">share </tspan><tspan x="0" y="12">of global %</tspan></text>
  <rect class="st13" x="350.43" y="78.23" width="77.82" height="62" rx="6" ry="6"/>
  <text class="st3" transform="translate(353.56 95.17)"><tspan x="0" y="0">Industrial elec.</tspan></text>
  <text class="st3" transform="translate(358.45 128.51)"><tspan x="0" y="0">(US¢/kWh)</tspan></text>
  <rect class="st13" x="432.25" y="78.23" width="77.82" height="62" rx="6" ry="6"/>
  <text class="st3" transform="translate(434.67 95.04)"><tspan x="0" y="0">Industrial water</tspan></text>
  <text class="st3" transform="translate(441.55 128.51)"><tspan x="0" y="0">($/m³)</tspan></text>
  <rect class="st13" x="514.07" y="78.23" width="77.82" height="62" rx="6" ry="6"/>
  <text class="st3" transform="translate(520.07 95.04)"><tspan x="0" y="0">Engineer </tspan><tspan x="0" y="12">density</tspan></text>
  <text class="st3" transform="translate(518.39 128.51)"><tspan x="0" y="0">(per million)</tspan></text>
  <rect class="st13" x="595.89" y="78.23" width="77.82" height="62" rx="6" ry="6"/>
  <text class="st3" transform="translate(602.76 95.04)"><tspan x="0" y="0">Process</tspan><tspan x="0" y="12">engineer</tspan></text>
  <text class="st3" transform="translate(601.89 128.51)"><tspan x="0" y="0">pool (&apos;000)</tspan></text>
  <rect class="st13" x="677.71" y="78.23" width="77.82" height="62" rx="6" ry="6"/>
  <text class="st3" transform="translate(683.71 95.17)"><tspan x="0" y="0">Subsidy</tspan><tspan x="0" y="12">intensity</tspan></text>
  <text class="st3" transform="translate(683.71 128.51)"><tspan x="0" y="0">(% capex)</tspan></text>
  <rect class="st13" x="759.53" y="78.23" width="77.82" height="62" rx="6" ry="6"/>
  <text class="st3" transform="translate(765.53 95.17)"><tspan x="0" y="0">Fab build time</tspan></text>
  <text class="st3" transform="translate(765.8 128.51)"><tspan x="0" y="0">(months)</tspan></text>
  <rect class="st13" x="841.34" y="78.23" width="77.82" height="62" rx="6" ry="6"/>
  <text class="st3" transform="translate(843.55 95.3)"><tspan x="0" y="0">Logistics index</tspan></text>
  <text class="st3" transform="translate(847.34 128.51)"><tspan x="0" y="0">(LPI)</tspan></text>
  <rect class="st13" x="923.16" y="78.23" width="77.82" height="62" rx="6" ry="6"/>
  <text class="st3" transform="translate(930.03 95.3)"><tspan x="0" y="0">Power SAIDI</tspan></text>
  <text class="st3" transform="translate(930.03 128.51)"><tspan x="0" y="0">(hours/yr)</tspan></text>
  <rect class="st13" x="1004.98" y="78.23" width="77.82" height="62" rx="6" ry="6"/>
  <text class="st3" transform="translate(1004.9801 95.1728)"><tspan x="0" y="0">Supplier density</tspan></text>
  <text class="st3" transform="translate(1008.5883 128.5121)"><tspan x="0" y="0">(firms/cluster)</tspan></text>
  <rect class="st13" x="48.8" y="148.23" width="6" height="44"/>
  <text class="st4" transform="translate(64.8 168.23)"><tspan x="0" y="0">India</tspan></text>
  <text class="st5" transform="translate(64.8 184.23)"><tspan x="0" y="0">(2026)</tspan></text>
  <text class="st4" transform="translate(192.8 162.23)"><tspan x="0" y="0">0.1</tspan></text>
  <path class="st11" d="M195.8,178.23h59.82c1.66,0,3,1.34,3,3h0c0,1.66-1.34,3-3,3h-59.82c-1.66,0-3-1.34-3-3h0c0-1.66,1.34-3,3-3Z"/>
  <path class="st13" d="M193.55,178.23h0c.41,0,.75,1.34.75,3h0c0,1.66-.34,3-.75,3h0c-.41,0-.75-1.34-.75-3h0c0-1.66.34-3,.75-3Z"/>
  <text class="st4" transform="translate(274.62 162.23)"><tspan x="0" y="0">5%</tspan></text>
  <path class="st11" d="M277.62,178.23h59.82c1.66,0,3,1.34,3,3h0c0,1.66-1.34,3-3,3h-59.82c-1.66,0-3-1.34-3-3h0c0-1.66,1.34-3,3-3Z"/>
  <path class="st13" d="M277.62,178.23h3.4c1.66,0,3,1.34,3,3h0c0,1.66-1.34,3-3,3h-3.4c-1.66,0-3-1.34-3-3h0c0-1.66,1.34-3,3-3Z"/>
  <text class="st4" transform="translate(356.43 162.23)"><tspan x="0" y="0">7.2¢</tspan></text>
  <path class="st11" d="M359.43,178.23h59.82c1.66,0,3,1.34,3,3h0c0,1.66-1.34,3-3,3h-59.82c-1.66,0-3-1.34-3-3h0c0-1.66,1.34-3,3-3Z"/>
  <path class="st13" d="M359.43,178.23h20.3c1.66,0,3,1.34,3,3h0c0,1.66-1.34,3-3,3h-20.3c-1.66,0-3-1.34-3-3h0c0-1.66,1.34-3,3-3Z"/>
  <text class="st4" transform="translate(438.25 162.23)"><tspan x="0" y="0">$0.55</tspan></text>
  <path class="st11" d="M441.25,178.23h59.82c1.66,0,3,1.34,3,3h0c0,1.66-1.34,3-3,3h-59.82c-1.66,0-3-1.34-3-3h0c0-1.66,1.34-3,3-3Z"/>
  <path class="st13" d="M441.25,178.23h23.6c1.66,0,3,1.34,3,3h0c0,1.66-1.34,3-3,3h-23.6c-1.66,0-3-1.34-3-3h0c0-1.66,1.34-3,3-3Z"/>
  <text class="st4" transform="translate(520.07 162.23)"><tspan x="0" y="0">65</tspan></text>
  <path class="st11" d="M523.07,178.23h59.82c1.66,0,3,1.34,3,3h0c0,1.66-1.34,3-3,3h-59.82c-1.66,0-3-1.34-3-3h0c0-1.66,1.34-3,3-3Z"/>
  <path class="st13" d="M521.27,178.23h0c.66,0,1.2,1.34,1.2,3h0c0,1.66-.54,3-1.2,3h0c-.66,0-1.2-1.34-1.2-3h0c0-1.66.54-3,1.2-3Z"/>
  <text class="st4" transform="translate(601.89 162.23)"><tspan x="0" y="0">35</tspan></text>
  <path class="st11" d="M604.89,178.23h59.82c1.66,0,3,1.34,3,3h0c0,1.66-1.34,3-3,3h-59.82c-1.66,0-3-1.34-3-3h0c0-1.66,1.34-3,3-3Z"/>
  <path class="st13" d="M603.04,178.23h0c.64,0,1.15,1.34,1.15,3h0c0,1.66-.51,3-1.15,3h0c-.64,0-1.15-1.34-1.15-3h0c0-1.66.51-3,1.15-3Z"/>
  <text class="st4" transform="translate(683.71 162.23)"><tspan x="0" y="0">50%</tspan></text>
  <path class="st11" d="M686.71,178.23h59.82c1.66,0,3,1.34,3,3h0c0,1.66-1.34,3-3,3h-59.82c-1.66,0-3-1.34-3-3h0c0-1.66,1.34-3,3-3Z"/>
  <path class="st13" d="M686.71,178.23h53.8c1.66,0,3,1.34,3,3h0c0,1.66-1.34,3-3,3h-53.8c-1.66,0-3-1.34-3-3h0c0-1.66,1.34-3,3-3Z"/>
  <text class="st4" transform="translate(765.53 162.23)"><tspan x="0" y="0">36</tspan></text>
  <path class="st11" d="M768.53,178.23h59.82c1.66,0,3,1.34,3,3h0c0,1.66-1.34,3-3,3h-59.82c-1.66,0-3-1.34-3-3h0c0-1.66,1.34-3,3-3Z"/>
  <path class="st13" d="M768.53,178.23h.6c1.66,0,3,1.34,3,3h0c0,1.66-1.34,3-3,3h-.6c-1.66,0-3-1.34-3-3h0c0-1.66,1.34-3,3-3Z"/>
  <text class="st4" transform="translate(847.34 162.23)"><tspan x="0" y="0">3.4</tspan></text>
  <path class="st11" d="M850.34,178.23h59.82c1.66,0,3,1.34,3,3h0c0,1.66-1.34,3-3,3h-59.82c-1.66,0-3-1.34-3-3h0c0-1.66,1.34-3,3-3Z"/>
  <path class="st13" d="M850.34,178.23h42.6c1.66,0,3,1.34,3,3h0c0,1.66-1.34,3-3,3h-42.6c-1.66,0-3-1.34-3-3h0c0-1.66,1.34-3,3-3Z"/>
  <text class="st4" transform="translate(929.16 162.23)"><tspan x="0" y="0">18</tspan></text>
  <path class="st11" d="M932.16,178.23h59.82c1.66,0,3,1.34,3,3h0c0,1.66-1.34,3-3,3h-59.82c-1.66,0-3-1.34-3-3h0c0-1.66,1.34-3,3-3Z"/>
  <path class="st13" d="M932.16,178.23h.6c1.66,0,3,1.34,3,3h0c0,1.66-1.34,3-3,3h-.6c-1.66,0-3-1.34-3-3h0c0-1.66,1.34-3,3-3Z"/>
  <text class="st4" transform="translate(1010.9797 162.2333)"><tspan x="0" y="0">120</tspan></text>
  <path class="st11" d="M1013.98,178.23h59.82c1.66,0,3,1.34,3,3h0c0,1.66-1.34,3-3,3h-59.82c-1.66,0-3-1.34-3-3h0c0-1.66,1.34-3,3-3Z"/>
  <path class="st13" d="M1011.88,178.23h0c.5,0,.9,1.34.9,3h0c0,1.66-.4,3-.9,3h0c-.5,0-.9-1.34-.9-3h0c0-1.66.4-3,.9-3Z"/>
  <rect class="st12" x="48.8" y="200.23" width="6" height="44"/>
  <text class="st4" transform="translate(64.8 220.23)"><tspan x="0" y="0">India</tspan></text>
  <text class="st5" transform="translate(64.8 236.23)"><tspan x="0" y="0">(2035 target)</tspan></text>
  <text class="st4" transform="translate(192.8 214.23)"><tspan x="0" y="0">1.2</tspan></text>
  <path class="st11" d="M195.8,230.23h59.82c1.66,0,3,1.34,3,3h0c0,1.66-1.34,3-3,3h-59.82c-1.66,0-3-1.34-3-3h0c0-1.66,1.34-3,3-3Z"/>
  <path class="st12" d="M195.8,230.23h11.6c1.66,0,3,1.34,3,3h0c0,1.66-1.34,3-3,3h-11.6c-1.66,0-3-1.34-3-3h0c0-1.66,1.34-3,3-3Z"/>
  <text class="st4" transform="translate(274.62 214.23)"><tspan x="0" y="0">18%</tspan></text>
  <path class="st11" d="M277.62,230.23h59.82c1.66,0,3,1.34,3,3h0c0,1.66-1.34,3-3,3h-59.82c-1.66,0-3-1.34-3-3h0c0-1.66,1.34-3,3-3Z"/>
  <path class="st12" d="M277.62,230.23h27.8c1.66,0,3,1.34,3,3h0c0,1.66-1.34,3-3,3h-27.8c-1.66,0-3-1.34-3-3h0c0-1.66,1.34-3,3-3Z"/>
  <text class="st4" transform="translate(356.43 214.23)"><tspan x="0" y="0">5.0¢</tspan></text>
  <path class="st11" d="M359.43,230.23h59.82c1.66,0,3,1.34,3,3h0c0,1.66-1.34,3-3,3h-59.82c-1.66,0-3-1.34-3-3h0c0-1.66,1.34-3,3-3Z"/>
  <path class="st12" d="M359.43,230.23h32.4c1.66,0,3,1.34,3,3h0c0,1.66-1.34,3-3,3h-32.4c-1.66,0-3-1.34-3-3h0c0-1.66,1.34-3,3-3Z"/>
  <text class="st4" transform="translate(438.25 214.23)"><tspan x="0" y="0">$0.40</tspan></text>
  <path class="st11" d="M441.25,230.23h59.82c1.66,0,3,1.34,3,3h0c0,1.66-1.34,3-3,3h-59.82c-1.66,0-3-1.34-3-3h0c0-1.66,1.34-3,3-3Z"/>
  <path class="st12" d="M441.25,230.23h33.5c1.66,0,3,1.34,3,3h0c0,1.66-1.34,3-3,3h-33.5c-1.66,0-3-1.34-3-3h0c0-1.66,1.34-3,3-3Z"/>
  <text class="st4" transform="translate(520.07 214.23)"><tspan x="0" y="0">220</tspan></text>
  <path class="st11" d="M523.07,230.23h59.82c1.66,0,3,1.34,3,3h0c0,1.66-1.34,3-3,3h-59.82c-1.66,0-3-1.34-3-3h0c0-1.66,1.34-3,3-3Z"/>
  <path class="st12" d="M523.07,230.23h2c1.66,0,3,1.34,3,3h0c0,1.66-1.34,3-3,3h-2c-1.66,0-3-1.34-3-3h0c0-1.66,1.34-3,3-3Z"/>
  <text class="st4" transform="translate(601.89 214.23)"><tspan x="0" y="0">140</tspan></text>
  <path class="st11" d="M604.89,230.23h59.82c1.66,0,3,1.34,3,3h0c0,1.66-1.34,3-3,3h-59.82c-1.66,0-3-1.34-3-3h0c0-1.66,1.34-3,3-3Z"/>
  <path class="st12" d="M604.89,230.23h3.2c1.66,0,3,1.34,3,3h0c0,1.66-1.34,3-3,3h-3.2c-1.66,0-3-1.34-3-3h0c0-1.66,1.34-3,3-3Z"/>
  <text class="st4" transform="translate(683.71 214.23)"><tspan x="0" y="0">35%</tspan></text>
  <path class="st11" d="M686.71,230.23h59.82c1.66,0,3,1.34,3,3h0c0,1.66-1.34,3-3,3h-59.82c-1.66,0-3-1.34-3-3h0c0-1.66,1.34-3,3-3Z"/>
  <path class="st12" d="M686.71,230.23h35.9c1.66,0,3,1.34,3,3h0c0,1.66-1.34,3-3,3h-35.9c-1.66,0-3-1.34-3-3h0c0-1.66,1.34-3,3-3Z"/>
  <text class="st4" transform="translate(765.53 214.23)"><tspan x="0" y="0">22</tspan></text>
  <path class="st11" d="M768.53,230.23h59.82c1.66,0,3,1.34,3,3h0c0,1.66-1.34,3-3,3h-59.82c-1.66,0-3-1.34-3-3h0c0-1.66,1.34-3,3-3Z"/>
  <path class="st12" d="M768.53,230.23h23.6c1.66,0,3,1.34,3,3h0c0,1.66-1.34,3-3,3h-23.6c-1.66,0-3-1.34-3-3h0c0-1.66,1.34-3,3-3Z"/>
  <text class="st4" transform="translate(847.34 214.23)"><tspan x="0" y="0">4.1</tspan></text>
  <path class="st11" d="M850.34,230.23h59.82c1.66,0,3,1.34,3,3h0c0,1.66-1.34,3-3,3h-59.82c-1.66,0-3-1.34-3-3h0c0-1.66,1.34-3,3-3Z"/>
  <path class="st12" d="M850.34,230.23h52.7c1.66,0,3,1.34,3,3h0c0,1.66-1.34,3-3,3h-52.7c-1.66,0-3-1.34-3-3h0c0-1.66,1.34-3,3-3Z"/>
  <text class="st4" transform="translate(929.16 214.23)"><tspan x="0" y="0">6.0</tspan></text>
  <path class="st11" d="M932.16,230.23h59.82c1.66,0,3,1.34,3,3h0c0,1.66-1.34,3-3,3h-59.82c-1.66,0-3-1.34-3-3h0c0-1.66,1.34-3,3-3Z"/>
  <path class="st12" d="M932.16,230.23h40.1c1.66,0,3,1.34,3,3h0c0,1.66-1.34,3-3,3h-40.1c-1.66,0-3-1.34-3-3h0c0-1.66,1.34-3,3-3Z"/>
  <text class="st4" transform="translate(1010.9797 214.2334)"><tspan x="0" y="0">480</tspan></text>
  <path class="st11" d="M1013.98,230.23h59.82c1.66,0,3,1.34,3,3h0c0,1.66-1.34,3-3,3h-59.82c-1.66,0-3-1.34-3-3h0c0-1.66,1.34-3,3-3Z"/>
  <path class="st12" d="M1013.98,230.23h1c1.66,0,3,1.34,3,3h0c0,1.66-1.34,3-3,3h-1c-1.66,0-3-1.34-3-3h0c0-1.66,1.34-3,3-3Z"/>
  <rect class="st9" x="48.8" y="252.23" width="6" height="44"/>
  <text class="st4" transform="translate(64.8 272.23)"><tspan x="0" y="0">Taiwan</tspan></text>
  <text class="st5" transform="translate(64.8 288.23)"><tspan x="0" y="0">(2025)</tspan></text>
  <text class="st4" transform="translate(192.8 266.23)"><tspan x="0" y="0">4.3</tspan></text>
  <path class="st11" d="M195.8,282.23h59.82c1.66,0,3,1.34,3,3h0c0,1.66-1.34,3-3,3h-59.82c-1.66,0-3-1.34-3-3h0c0-1.66,1.34-3,3-3Z"/>
  <path class="st9" d="M195.8,282.23h56.9c1.66,0,3,1.34,3,3h0c0,1.66-1.34,3-3,3h-56.9c-1.66,0-3-1.34-3-3h0c0-1.66,1.34-3,3-3Z"/>
  <text class="st4" transform="translate(274.62 266.23)"><tspan x="0" y="0">22%</tspan></text>
  <path class="st11" d="M277.62,282.23h59.82c1.66,0,3,1.34,3,3h0c0,1.66-1.34,3-3,3h-59.82c-1.66,0-3-1.34-3-3h0c0-1.66,1.34-3,3-3Z"/>
  <path class="st9" d="M277.62,282.23h35.4c1.66,0,3,1.34,3,3h0c0,1.66-1.34,3-3,3h-35.4c-1.66,0-3-1.34-3-3h0c0-1.66,1.34-3,3-3Z"/>
  <text class="st4" transform="translate(356.43 266.23)"><tspan x="0" y="0">8.8¢</tspan></text>
  <path class="st11" d="M359.43,282.23h59.82c1.66,0,3,1.34,3,3h0c0,1.66-1.34,3-3,3h-59.82c-1.66,0-3-1.34-3-3h0c0-1.66,1.34-3,3-3Z"/>
  <path class="st9" d="M359.43,282.23h11.6c1.66,0,3,1.34,3,3h0c0,1.66-1.34,3-3,3h-11.6c-1.66,0-3-1.34-3-3h0c0-1.66,1.34-3,3-3Z"/>
  <text class="st4" transform="translate(438.25 266.23)"><tspan x="0" y="0">$0.90</tspan></text>
  <path class="st11" d="M441.25,282.23h59.82c1.66,0,3,1.34,3,3h0c0,1.66-1.34,3-3,3h-59.82c-1.66,0-3-1.34-3-3h0c0-1.66,1.34-3,3-3Z"/>
  <path class="st9" d="M441.25,282.23h.6c1.66,0,3,1.34,3,3h0c0,1.66-1.34,3-3,3h-.6c-1.66,0-3-1.34-3-3h0c0-1.66,1.34-3,3-3Z"/>
  <text class="st4" transform="translate(520.07 266.23)"><tspan x="0" y="0">1450</tspan></text>
  <path class="st11" d="M523.07,282.23h59.82c1.66,0,3,1.34,3,3h0c0,1.66-1.34,3-3,3h-59.82c-1.66,0-3-1.34-3-3h0c0-1.66,1.34-3,3-3Z"/>
  <path class="st9" d="M523.07,282.23h47c1.66,0,3,1.34,3,3h0c0,1.66-1.34,3-3,3h-47c-1.66,0-3-1.34-3-3h0c0-1.66,1.34-3,3-3Z"/>
  <text class="st4" transform="translate(601.89 266.23)"><tspan x="0" y="0">720</tspan></text>
  <path class="st11" d="M604.89,282.23h59.82c1.66,0,3,1.34,3,3h0c0,1.66-1.34,3-3,3h-59.82c-1.66,0-3-1.34-3-3h0c0-1.66,1.34-3,3-3Z"/>
  <path class="st9" d="M604.89,282.23h41.4c1.66,0,3,1.34,3,3h0c0,1.66-1.34,3-3,3h-41.4c-1.66,0-3-1.34-3-3h0c0-1.66,1.34-3,3-3Z"/>
  <text class="st4" transform="translate(683.71 266.23)"><tspan x="0" y="0">25%</tspan></text>
  <path class="st11" d="M686.71,282.23h59.82c1.66,0,3,1.34,3,3h0c0,1.66-1.34,3-3,3h-59.82c-1.66,0-3-1.34-3-3h0c0-1.66,1.34-3,3-3Z"/>
  <path class="st9" d="M686.71,282.23h23.9c1.66,0,3,1.34,3,3h0c0,1.66-1.34,3-3,3h-23.9c-1.66,0-3-1.34-3-3h0c0-1.66,1.34-3,3-3Z"/>
  <text class="st4" transform="translate(765.53 266.23)"><tspan x="0" y="0">18</tspan></text>
  <path class="st11" d="M768.53,282.23h59.82c1.66,0,3,1.34,3,3h0c0,1.66-1.34,3-3,3h-59.82c-1.66,0-3-1.34-3-3h0c0-1.66,1.34-3,3-3Z"/>
  <path class="st9" d="M768.53,282.23h30.2c1.66,0,3,1.34,3,3h0c0,1.66-1.34,3-3,3h-30.2c-1.66,0-3-1.34-3-3h0c0-1.66,1.34-3,3-3Z"/>
  <text class="st4" transform="translate(847.34 266.23)"><tspan x="0" y="0">4.4</tspan></text>
  <path class="st11" d="M850.34,282.23h59.82c1.66,0,3,1.34,3,3h0c0,1.66-1.34,3-3,3h-59.82c-1.66,0-3-1.34-3-3h0c0-1.66,1.34-3,3-3Z"/>
  <path class="st9" d="M850.34,282.23h57c1.66,0,3,1.34,3,3h0c0,1.66-1.34,3-3,3h-57c-1.66,0-3-1.34-3-3h0c0-1.66,1.34-3,3-3Z"/>
  <text class="st4" transform="translate(929.16 266.23)"><tspan x="0" y="0">1.5</tspan></text>
  <path class="st11" d="M932.16,282.23h59.82c1.66,0,3,1.34,3,3h0c0,1.66-1.34,3-3,3h-59.82c-1.66,0-3-1.34-3-3h0c0-1.66,1.34-3,3-3Z"/>
  <path class="st9" d="M932.16,282.23h54.9c1.66,0,3,1.34,3,3h0c0,1.66-1.34,3-3,3h-54.9c-1.66,0-3-1.34-3-3h0c0-1.66,1.34-3,3-3Z"/>
  <text class="st4" transform="translate(1010.9797 266.2334)"><tspan x="0" y="0">1850</tspan></text>
  <path class="st11" d="M1013.98,282.23h59.82c1.66,0,3,1.34,3,3h0c0,1.66-1.34,3-3,3h-59.82c-1.66,0-3-1.34-3-3h0c0-1.66,1.34-3,3-3Z"/>
  <path class="st9" d="M1013.98,282.23h21.1c1.66,0,3,1.34,3,3h0c0,1.66-1.34,3-3,3h-21.1c-1.66,0-3-1.34-3-3h0c0-1.66,1.34-3,3-3Z"/>
  <rect class="st9" x="48.8" y="304.23" width="6" height="44"/>
  <text class="st4" transform="translate(64.8 324.23)"><tspan x="0" y="0">South Korea</tspan></text>
  <text class="st5" transform="translate(64.8 340.23)"><tspan x="0" y="0">(2025)</tspan></text>
  <text class="st4" transform="translate(192.8 318.23)"><tspan x="0" y="0">3.1</tspan></text>
  <path class="st11" d="M195.8,334.23h59.82c1.66,0,3,1.34,3,3h0c0,1.66-1.34,3-3,3h-59.82c-1.66,0-3-1.34-3-3h0c0-1.66,1.34-3,3-3Z"/>
  <path class="st9" d="M195.8,334.23h39.3c1.66,0,3,1.34,3,3h0c0,1.66-1.34,3-3,3h-39.3c-1.66,0-3-1.34-3-3h0c0-1.66,1.34-3,3-3Z"/>
  <text class="st4" transform="translate(274.62 318.23)"><tspan x="0" y="0">14%</tspan></text>
  <path class="st11" d="M277.62,334.23h59.82c1.66,0,3,1.34,3,3h0c0,1.66-1.34,3-3,3h-59.82c-1.66,0-3-1.34-3-3h0c0-1.66,1.34-3,3-3Z"/>
  <path class="st9" d="M277.62,334.23h20.3c1.66,0,3,1.34,3,3h0c0,1.66-1.34,3-3,3h-20.3c-1.66,0-3-1.34-3-3h0c0-1.66,1.34-3,3-3Z"/>
  <text class="st4" transform="translate(356.43 318.23)"><tspan x="0" y="0">9.5¢</tspan></text>
  <path class="st11" d="M359.43,334.23h59.82c1.66,0,3,1.34,3,3h0c0,1.66-1.34,3-3,3h-59.82c-1.66,0-3-1.34-3-3h0c0-1.66,1.34-3,3-3Z"/>
  <path class="st9" d="M359.43,334.23h7.7c1.66,0,3,1.34,3,3h0c0,1.66-1.34,3-3,3h-7.7c-1.66,0-3-1.34-3-3h0c0-1.66,1.34-3,3-3Z"/>
  <text class="st4" transform="translate(438.25 318.23)"><tspan x="0" y="0">$0.65</tspan></text>
  <path class="st11" d="M441.25,334.23h59.82c1.66,0,3,1.34,3,3h0c0,1.66-1.34,3-3,3h-59.82c-1.66,0-3-1.34-3-3h0c0-1.66,1.34-3,3-3Z"/>
  <path class="st9" d="M441.25,334.23h17c1.66,0,3,1.34,3,3h0c0,1.66-1.34,3-3,3h-17c-1.66,0-3-1.34-3-3h0c0-1.66,1.34-3,3-3Z"/>
  <text class="st4" transform="translate(520.07 318.23)"><tspan x="0" y="0">980</tspan></text>
  <path class="st11" d="M523.07,334.23h59.82c1.66,0,3,1.34,3,3h0c0,1.66-1.34,3-3,3h-59.82c-1.66,0-3-1.34-3-3h0c0-1.66,1.34-3,3-3Z"/>
  <path class="st9" d="M523.07,334.23h29.8c1.66,0,3,1.34,3,3h0c0,1.66-1.34,3-3,3h-29.8c-1.66,0-3-1.34-3-3h0c0-1.66,1.34-3,3-3Z"/>
  <text class="st4" transform="translate(601.89 318.23)"><tspan x="0" y="0">540</tspan></text>
  <path class="st11" d="M604.89,334.23h59.82c1.66,0,3,1.34,3,3h0c0,1.66-1.34,3-3,3h-59.82c-1.66,0-3-1.34-3-3h0c0-1.66,1.34-3,3-3Z"/>
  <path class="st9" d="M604.89,334.23h29.5c1.66,0,3,1.34,3,3h0c0,1.66-1.34,3-3,3h-29.5c-1.66,0-3-1.34-3-3h0c0-1.66,1.34-3,3-3Z"/>
  <text class="st4" transform="translate(683.71 318.23)"><tspan x="0" y="0">28%</tspan></text>
  <path class="st11" d="M686.71,334.23h59.82c1.66,0,3,1.34,3,3h0c0,1.66-1.34,3-3,3h-59.82c-1.66,0-3-1.34-3-3h0c0-1.66,1.34-3,3-3Z"/>
  <path class="st9" d="M686.71,334.23h27.5c1.66,0,3,1.34,3,3h0c0,1.66-1.34,3-3,3h-27.5c-1.66,0-3-1.34-3-3h0c0-1.66,1.34-3,3-3Z"/>
  <text class="st4" transform="translate(765.53 318.23)"><tspan x="0" y="0">22</tspan></text>
  <path class="st11" d="M768.53,334.23h59.82c1.66,0,3,1.34,3,3h0c0,1.66-1.34,3-3,3h-59.82c-1.66,0-3-1.34-3-3h0c0-1.66,1.34-3,3-3Z"/>
  <path class="st9" d="M768.53,334.23h23.6c1.66,0,3,1.34,3,3h0c0,1.66-1.34,3-3,3h-23.6c-1.66,0-3-1.34-3-3h0c0-1.66,1.34-3,3-3Z"/>
  <text class="st4" transform="translate(847.34 318.23)"><tspan x="0" y="0">3.9</tspan></text>
  <path class="st11" d="M850.34,334.23h59.82c1.66,0,3,1.34,3,3h0c0,1.66-1.34,3-3,3h-59.82c-1.66,0-3-1.34-3-3h0c0-1.66,1.34-3,3-3Z"/>
  <path class="st9" d="M850.34,334.23h49.8c1.66,0,3,1.34,3,3h0c0,1.66-1.34,3-3,3h-49.8c-1.66,0-3-1.34-3-3h0c0-1.66,1.34-3,3-3Z"/>
  <text class="st4" transform="translate(929.16 318.23)"><tspan x="0" y="0">1.9</tspan></text>
  <path class="st11" d="M932.16,334.23h59.82c1.66,0,3,1.34,3,3h0c0,1.66-1.34,3-3,3h-59.82c-1.66,0-3-1.34-3-3h0c0-1.66,1.34-3,3-3Z"/>
  <path class="st9" d="M932.16,334.23h53.6c1.66,0,3,1.34,3,3h0c0,1.66-1.34,3-3,3h-53.6c-1.66,0-3-1.34-3-3h0c0-1.66,1.34-3,3-3Z"/>
  <text class="st4" transform="translate(1010.9797 318.2333)"><tspan x="0" y="0">1420</tspan></text>
  <path class="st11" d="M1013.98,334.23h59.82c1.66,0,3,1.34,3,3h0c0,1.66-1.34,3-3,3h-59.82c-1.66,0-3-1.34-3-3h0c0-1.66,1.34-3,3-3Z"/>
  <path class="st9" d="M1013.98,334.23h14.8c1.66,0,3,1.34,3,3h0c0,1.66-1.34,3-3,3h-14.8c-1.66,0-3-1.34-3-3h0c0-1.66,1.34-3,3-3Z"/>
  <rect class="st9" x="48.8" y="356.23" width="6" height="44"/>
  <text class="st4" transform="translate(64.8 376.23)"><tspan x="0" y="0">Vietnam</tspan></text>
  <text class="st5" transform="translate(64.8 392.23)"><tspan x="0" y="0">(2025)</tspan></text>
  <text class="st4" transform="translate(192.8 370.23)"><tspan x="0" y="0">0.3</tspan></text>
  <path class="st11" d="M195.8,386.23h59.82c1.66,0,3,1.34,3,3h0c0,1.66-1.34,3-3,3h-59.82c-1.66,0-3-1.34-3-3h0c0-1.66,1.34-3,3-3Z"/>
  <path class="st9" d="M195,386.23h0c1.22,0,2.2,1.34,2.2,3h0c0,1.66-.98,3-2.2,3h0c-1.22,0-2.2-1.34-2.2-3h0c0-1.66.98-3,2.2-3Z"/>
  <text class="st4" transform="translate(274.62 370.23)"><tspan x="0" y="0">3%</tspan></text>
  <path class="st11" d="M277.62,386.23h59.82c1.66,0,3,1.34,3,3h0c0,1.66-1.34,3-3,3h-59.82c-1.66,0-3-1.34-3-3h0c0-1.66,1.34-3,3-3Z"/>
  <path class="st9" d="M277.42,386.23h0c1.55,0,2.8,1.34,2.8,3h0c0,1.66-1.25,3-2.8,3h0c-1.55,0-2.8-1.34-2.8-3h0c0-1.66,1.25-3,2.8-3Z"/>
  <text class="st4" transform="translate(356.43 370.23)"><tspan x="0" y="0">7.5¢</tspan></text>
  <path class="st11" d="M359.43,386.23h59.82c1.66,0,3,1.34,3,3h0c0,1.66-1.34,3-3,3h-59.82c-1.66,0-3-1.34-3-3h0c0-1.66,1.34-3,3-3Z"/>
  <path class="st9" d="M359.43,386.23h18.7c1.66,0,3,1.34,3,3h0c0,1.66-1.34,3-3,3h-18.7c-1.66,0-3-1.34-3-3h0c0-1.66,1.34-3,3-3Z"/>
  <text class="st4" transform="translate(438.25 370.23)"><tspan x="0" y="0">$0.45</tspan></text>
  <path class="st11" d="M441.25,386.23h59.82c1.66,0,3,1.34,3,3h0c0,1.66-1.34,3-3,3h-59.82c-1.66,0-3-1.34-3-3h0c0-1.66,1.34-3,3-3Z"/>
  <path class="st9" d="M441.25,386.23h30.2c1.66,0,3,1.34,3,3h0c0,1.66-1.34,3-3,3h-30.2c-1.66,0-3-1.34-3-3h0c0-1.66,1.34-3,3-3Z"/>
  <text class="st4" transform="translate(520.07 370.23)"><tspan x="0" y="0">95</tspan></text>
  <path class="st11" d="M523.07,386.23h59.82c1.66,0,3,1.34,3,3h0c0,1.66-1.34,3-3,3h-59.82c-1.66,0-3-1.34-3-3h0c0-1.66,1.34-3,3-3Z"/>
  <path class="st9" d="M521.82,386.23h0c.97,0,1.75,1.34,1.75,3h0c0,1.66-.78,3-1.75,3h0c-.97,0-1.75-1.34-1.75-3h0c0-1.66.78-3,1.75-3Z"/>
  <text class="st4" transform="translate(601.89 370.23)"><tspan x="0" y="0">40</tspan></text>
  <path class="st11" d="M604.89,386.23h59.82c1.66,0,3,1.34,3,3h0c0,1.66-1.34,3-3,3h-59.82c-1.66,0-3-1.34-3-3h0c0-1.66,1.34-3,3-3Z"/>
  <path class="st9" d="M603.19,386.23h0c.72,0,1.3,1.34,1.3,3h0c0,1.66-.58,3-1.3,3h0c-.72,0-1.3-1.34-1.3-3h0c0-1.66.58-3,1.3-3Z"/>
  <text class="st4" transform="translate(683.71 370.23)"><tspan x="0" y="0">30%</tspan></text>
  <path class="st11" d="M686.71,386.23h59.82c1.66,0,3,1.34,3,3h0c0,1.66-1.34,3-3,3h-59.82c-1.66,0-3-1.34-3-3h0c0-1.66,1.34-3,3-3Z"/>
  <path class="st9" d="M686.71,386.23h29.9c1.66,0,3,1.34,3,3h0c0,1.66-1.34,3-3,3h-29.9c-1.66,0-3-1.34-3-3h0c0-1.66,1.34-3,3-3Z"/>
  <text class="st4" transform="translate(765.53 370.23)"><tspan x="0" y="0">30</tspan></text>
  <path class="st11" d="M768.53,386.23h59.82c1.66,0,3,1.34,3,3h0c0,1.66-1.34,3-3,3h-59.82c-1.66,0-3-1.34-3-3h0c0-1.66,1.34-3,3-3Z"/>
  <path class="st9" d="M768.53,386.23h10.5c1.66,0,3,1.34,3,3h0c0,1.66-1.34,3-3,3h-10.5c-1.66,0-3-1.34-3-3h0c0-1.66,1.34-3,3-3Z"/>
  <text class="st4" transform="translate(847.34 370.23)"><tspan x="0" y="0">3.2</tspan></text>
  <path class="st11" d="M850.34,386.23h59.82c1.66,0,3,1.34,3,3h0c0,1.66-1.34,3-3,3h-59.82c-1.66,0-3-1.34-3-3h0c0-1.66,1.34-3,3-3Z"/>
  <path class="st9" d="M850.34,386.23h39.8c1.66,0,3,1.34,3,3h0c0,1.66-1.34,3-3,3h-39.8c-1.66,0-3-1.34-3-3h0c0-1.66,1.34-3,3-3Z"/>
  <text class="st4" transform="translate(929.16 370.23)"><tspan x="0" y="0">12</tspan></text>
  <path class="st11" d="M932.16,386.23h59.82c1.66,0,3,1.34,3,3h0c0,1.66-1.34,3-3,3h-59.82c-1.66,0-3-1.34-3-3h0c0-1.66,1.34-3,3-3Z"/>
  <path class="st9" d="M932.16,386.23h20.3c1.66,0,3,1.34,3,3h0c0,1.66-1.34,3-3,3h-20.3c-1.66,0-3-1.34-3-3h0c0-1.66,1.34-3,3-3Z"/>
  <text class="st4" transform="translate(1010.9797 370.2333)"><tspan x="0" y="0">80</tspan></text>
  <path class="st11" d="M1013.98,386.23h59.82c1.66,0,3,1.34,3,3h0c0,1.66-1.34,3-3,3h-59.82c-1.66,0-3-1.34-3-3h0c0-1.66,1.34-3,3-3Z"/>
  <path class="st9" d="M1011.58,386.23h0c.33,0,.6,1.34.6,3h0c0,1.66-.27,3-.6,3h0c-.33,0-.6-1.34-.6-3h0c0-1.66.27-3,.6-3Z"/>
  <rect class="st9" x="48.8" y="408.23" width="6" height="44"/>
  <text class="st4" transform="translate(64.8 428.23)"><tspan x="0" y="0">Malaysia</tspan></text>
  <text class="st5" transform="translate(64.8 444.23)"><tspan x="0" y="0">(2025)</tspan></text>
  <text class="st4" transform="translate(192.8 422.23)"><tspan x="0" y="0">0.5</tspan></text>
  <path class="st11" d="M195.8,438.23h59.82c1.66,0,3,1.34,3,3h0c0,1.66-1.34,3-3,3h-59.82c-1.66,0-3-1.34-3-3h0c0-1.66,1.34-3,3-3Z"/>
  <path class="st9" d="M195.8,438.23h.6c1.66,0,3,1.34,3,3h0c0,1.66-1.34,3-3,3h-.6c-1.66,0-3-1.34-3-3h0c0-1.66,1.34-3,3-3Z"/>
  <text class="st4" transform="translate(274.62 422.23)"><tspan x="0" y="0">4%</tspan></text>
  <path class="st11" d="M277.62,438.23h59.82c1.66,0,3,1.34,3,3h0c0,1.66-1.34,3-3,3h-59.82c-1.66,0-3-1.34-3-3h0c0-1.66,1.34-3,3-3Z"/>
  <path class="st9" d="M277.62,438.23h1.5c1.66,0,3,1.34,3,3h0c0,1.66-1.34,3-3,3h-1.5c-1.66,0-3-1.34-3-3h0c0-1.66,1.34-3,3-3Z"/>
  <text class="st4" transform="translate(356.43 422.23)"><tspan x="0" y="0">6.4¢</tspan></text>
  <path class="st11" d="M359.43,438.23h59.82c1.66,0,3,1.34,3,3h0c0,1.66-1.34,3-3,3h-59.82c-1.66,0-3-1.34-3-3h0c0-1.66,1.34-3,3-3Z"/>
  <path class="st9" d="M359.43,438.23h24.7c1.66,0,3,1.34,3,3h0c0,1.66-1.34,3-3,3h-24.7c-1.66,0-3-1.34-3-3h0c0-1.66,1.34-3,3-3Z"/>
  <text class="st4" transform="translate(438.25 422.23)"><tspan x="0" y="0">$0.55</tspan></text>
  <path class="st11" d="M441.25,438.23h59.82c1.66,0,3,1.34,3,3h0c0,1.66-1.34,3-3,3h-59.82c-1.66,0-3-1.34-3-3h0c0-1.66,1.34-3,3-3Z"/>
  <path class="st9" d="M441.25,438.23h23.6c1.66,0,3,1.34,3,3h0c0,1.66-1.34,3-3,3h-23.6c-1.66,0-3-1.34-3-3h0c0-1.66,1.34-3,3-3Z"/>
  <text class="st4" transform="translate(520.07 422.23)"><tspan x="0" y="0">130</tspan></text>
  <path class="st11" d="M523.07,438.23h59.82c1.66,0,3,1.34,3,3h0c0,1.66-1.34,3-3,3h-59.82c-1.66,0-3-1.34-3-3h0c0-1.66,1.34-3,3-3Z"/>
  <path class="st9" d="M522.47,438.23h0c1.33,0,2.4,1.34,2.4,3h0c0,1.66-1.07,3-2.4,3h0c-1.33,0-2.4-1.34-2.4-3h0c0-1.66,1.07-3,2.4-3Z"/>
  <text class="st4" transform="translate(601.89 422.23)"><tspan x="0" y="0">65</tspan></text>
  <path class="st11" d="M604.89,438.23h59.82c1.66,0,3,1.34,3,3h0c0,1.66-1.34,3-3,3h-59.82c-1.66,0-3-1.34-3-3h0c0-1.66,1.34-3,3-3Z"/>
  <path class="st9" d="M604.04,438.23h0c1.19,0,2.15,1.34,2.15,3h0c0,1.66-.96,3-2.15,3h0c-1.19,0-2.15-1.34-2.15-3h0c0-1.66.96-3,2.15-3Z"/>
  <text class="st4" transform="translate(683.71 422.23)"><tspan x="0" y="0">22%</tspan></text>
  <path class="st11" d="M686.71,438.23h59.82c1.66,0,3,1.34,3,3h0c0,1.66-1.34,3-3,3h-59.82c-1.66,0-3-1.34-3-3h0c0-1.66,1.34-3,3-3Z"/>
  <path class="st9" d="M686.71,438.23h20.3c1.66,0,3,1.34,3,3h0c0,1.66-1.34,3-3,3h-20.3c-1.66,0-3-1.34-3-3h0c0-1.66,1.34-3,3-3Z"/>
  <text class="st4" transform="translate(765.53 422.23)"><tspan x="0" y="0">26</tspan></text>
  <path class="st11" d="M768.53,438.23h59.82c1.66,0,3,1.34,3,3h0c0,1.66-1.34,3-3,3h-59.82c-1.66,0-3-1.34-3-3h0c0-1.66,1.34-3,3-3Z"/>
  <path class="st9" d="M768.53,438.23h17c1.66,0,3,1.34,3,3h0c0,1.66-1.34,3-3,3h-17c-1.66,0-3-1.34-3-3h0c0-1.66,1.34-3,3-3Z"/>
  <text class="st4" transform="translate(847.34 422.23)"><tspan x="0" y="0">3.6</tspan></text>
  <path class="st11" d="M850.34,438.23h59.82c1.66,0,3,1.34,3,3h0c0,1.66-1.34,3-3,3h-59.82c-1.66,0-3-1.34-3-3h0c0-1.66,1.34-3,3-3Z"/>
  <path class="st9" d="M850.34,438.23h45.5c1.66,0,3,1.34,3,3h0c0,1.66-1.34,3-3,3h-45.5c-1.66,0-3-1.34-3-3h0c0-1.66,1.34-3,3-3Z"/>
  <text class="st4" transform="translate(929.16 422.23)"><tspan x="0" y="0">7.0</tspan></text>
  <path class="st11" d="M932.16,438.23h59.82c1.66,0,3,1.34,3,3h0c0,1.66-1.34,3-3,3h-59.82c-1.66,0-3-1.34-3-3h0c0-1.66,1.34-3,3-3Z"/>
  <path class="st9" d="M932.16,438.23h36.8c1.66,0,3,1.34,3,3h0c0,1.66-1.34,3-3,3h-36.8c-1.66,0-3-1.34-3-3h0c0-1.66,1.34-3,3-3Z"/>
  <text class="st4" transform="translate(1010.9797 422.2333)"><tspan x="0" y="0">220</tspan></text>
  <path class="st11" d="M1013.98,438.23h59.82c1.66,0,3,1.34,3,3h0c0,1.66-1.34,3-3,3h-59.82c-1.66,0-3-1.34-3-3h0c0-1.66,1.34-3,3-3Z"/>
  <path class="st9" d="M1012.58,438.23h0c.88,0,1.6,1.34,1.6,3h0c0,1.66-.72,3-1.6,3h0c-.88,0-1.6-1.34-1.6-3h0c0-1.66.72-3,1.6-3Z"/>
  <rect class="st9" x="48.8" y="460.23" width="6" height="44"/>
  <text class="st4" transform="translate(64.8 480.23)"><tspan x="0" y="0">Mainland China</tspan></text>
  <text class="st5" transform="translate(64.8 496.23)"><tspan x="0" y="0">(2025)</tspan></text>
  <text class="st4" transform="translate(192.8 474.23)"><tspan x="0" y="0">7.8</tspan></text>
  <path class="st11" d="M195.8,490.23h59.82c1.66,0,3,1.34,3,3h0c0,1.66-1.34,3-3,3h-59.82c-1.66,0-3-1.34-3-3h0c0-1.66,1.34-3,3-3Z"/>
  <path class="st9" d="M195.8,490.23h59.8c1.66,0,3,1.34,3,3h0c0,1.66-1.34,3-3,3h-59.8c-1.66,0-3-1.34-3-3h0c0-1.66,1.34-3,3-3Z"/>
  <text class="st4" transform="translate(274.62 474.23)"><tspan x="0" y="0">32%</tspan></text>
  <path class="st11" d="M277.62,490.23h59.82c1.66,0,3,1.34,3,3h0c0,1.66-1.34,3-3,3h-59.82c-1.66,0-3-1.34-3-3h0c0-1.66,1.34-3,3-3Z"/>
  <path class="st9" d="M277.62,490.23h54.2c1.66,0,3,1.34,3,3h0c0,1.66-1.34,3-3,3h-54.2c-1.66,0-3-1.34-3-3h0c0-1.66,1.34-3,3-3Z"/>
  <text class="st4" transform="translate(356.43 474.23)"><tspan x="0" y="0">8.2¢</tspan></text>
  <path class="st11" d="M359.43,490.23h59.82c1.66,0,3,1.34,3,3h0c0,1.66-1.34,3-3,3h-59.82c-1.66,0-3-1.34-3-3h0c0-1.66,1.34-3,3-3Z"/>
  <path class="st9" d="M359.43,490.23h14.8c1.66,0,3,1.34,3,3h0c0,1.66-1.34,3-3,3h-14.8c-1.66,0-3-1.34-3-3h0c0-1.66,1.34-3,3-3Z"/>
  <text class="st4" transform="translate(438.25 474.23)"><tspan x="0" y="0">$0.70</tspan></text>
  <path class="st11" d="M441.25,490.23h59.82c1.66,0,3,1.34,3,3h0c0,1.66-1.34,3-3,3h-59.82c-1.66,0-3-1.34-3-3h0c0-1.66,1.34-3,3-3Z"/>
  <path class="st9" d="M441.25,490.23h13.7c1.66,0,3,1.34,3,3h0c0,1.66-1.34,3-3,3h-13.7c-1.66,0-3-1.34-3-3h0c0-1.66,1.34-3,3-3Z"/>
  <text class="st4" transform="translate(520.07 474.23)"><tspan x="0" y="0">1820</tspan></text>
  <path class="st11" d="M523.07,490.23h59.82c1.66,0,3,1.34,3,3h0c0,1.66-1.34,3-3,3h-59.82c-1.66,0-3-1.34-3-3h0c0-1.66,1.34-3,3-3Z"/>
  <path class="st9" d="M523.07,490.23h59.8c1.66,0,3,1.34,3,3h0c0,1.66-1.34,3-3,3h-59.8c-1.66,0-3-1.34-3-3h0c0-1.66,1.34-3,3-3Z"/>
  <text class="st4" transform="translate(601.89 474.23)"><tspan x="0" y="0">960</tspan></text>
  <path class="st11" d="M604.89,490.23h59.82c1.66,0,3,1.34,3,3h0c0,1.66-1.34,3-3,3h-59.82c-1.66,0-3-1.34-3-3h0c0-1.66,1.34-3,3-3Z"/>
  <path class="st9" d="M604.89,490.23h57.2c1.66,0,3,1.34,3,3h0c0,1.66-1.34,3-3,3h-57.2c-1.66,0-3-1.34-3-3h0c0-1.66,1.34-3,3-3Z"/>
  <text class="st4" transform="translate(683.71 474.23)"><tspan x="0" y="0">45%</tspan></text>
  <path class="st11" d="M686.71,490.23h59.82c1.66,0,3,1.34,3,3h0c0,1.66-1.34,3-3,3h-59.82c-1.66,0-3-1.34-3-3h0c0-1.66,1.34-3,3-3Z"/>
  <path class="st9" d="M686.71,490.23h47.9c1.66,0,3,1.34,3,3h0c0,1.66-1.34,3-3,3h-47.9c-1.66,0-3-1.34-3-3h0c0-1.66,1.34-3,3-3Z"/>
  <text class="st4" transform="translate(765.53 474.23)"><tspan x="0" y="0">20</tspan></text>
  <path class="st11" d="M768.53,490.23h59.82c1.66,0,3,1.34,3,3h0c0,1.66-1.34,3-3,3h-59.82c-1.66,0-3-1.34-3-3h0c0-1.66,1.34-3,3-3Z"/>
  <path class="st9" d="M768.53,490.23h26.9c1.66,0,3,1.34,3,3h0c0,1.66-1.34,3-3,3h-26.9c-1.66,0-3-1.34-3-3h0c0-1.66,1.34-3,3-3Z"/>
  <text class="st4" transform="translate(847.34 474.23)"><tspan x="0" y="0">3.7</tspan></text>
  <path class="st11" d="M850.34,490.23h59.82c1.66,0,3,1.34,3,3h0c0,1.66-1.34,3-3,3h-59.82c-1.66,0-3-1.34-3-3h0c0-1.66,1.34-3,3-3Z"/>
  <path class="st9" d="M850.34,490.23h46.9c1.66,0,3,1.34,3,3h0c0,1.66-1.34,3-3,3h-46.9c-1.66,0-3-1.34-3-3h0c0-1.66,1.34-3,3-3Z"/>
  <text class="st4" transform="translate(929.16 474.23)"><tspan x="0" y="0">4.0</tspan></text>
  <path class="st11" d="M932.16,490.23h59.82c1.66,0,3,1.34,3,3h0c0,1.66-1.34,3-3,3h-59.82c-1.66,0-3-1.34-3-3h0c0-1.66,1.34-3,3-3Z"/>
  <path class="st9" d="M932.16,490.23h46.7c1.66,0,3,1.34,3,3h0c0,1.66-1.34,3-3,3h-46.7c-1.66,0-3-1.34-3-3h0c0-1.66,1.34-3,3-3Z"/>
  <text class="st4" transform="translate(1010.9797 474.2333)"><tspan x="0" y="0">4200</tspan></text>
  <path class="st11" d="M1013.98,490.23h59.82c1.66,0,3,1.34,3,3h0c0,1.66-1.34,3-3,3h-59.82c-1.66,0-3-1.34-3-3h0c0-1.66,1.34-3,3-3Z"/>
  <path class="st9" d="M1013.98,490.23h55.4c1.66,0,3,1.34,3,3h0c0,1.66-1.34,3-3,3h-55.4c-1.66,0-3-1.34-3-3h0c0-1.66,1.34-3,3-3Z"/>
  <line class="st10" x1="48.8" y1="144.23" x2="1084.8" y2="144.23"/>
  <line class="st10" x1="48.8" y1="196.23" x2="1084.8" y2="196.23"/>
  <line class="st10" x1="48.8" y1="248.23" x2="1084.8" y2="248.23"/>
  <line class="st10" x1="48.8" y1="300.23" x2="1084.8" y2="300.23"/>
  <line class="st10" x1="48.8" y1="352.23" x2="1084.8" y2="352.23"/>
  <line class="st10" x1="48.8" y1="404.23" x2="1084.8" y2="404.23"/>
  <line class="st10" x1="48.8" y1="456.23" x2="1084.8" y2="456.23"/>
  <line class="st10" x1="48.8" y1="508.23" x2="1084.8" y2="508.23"/>
  <text class="st0" transform="translate(267.59 542.23)"><tspan x="0" y="0">India 2026 vs Taiwan 2025: capacity 1/43rd · engineer density 1/22nd · bridging requires 35-pp shift across all columns by 2035</tspan></text>
  <text class="st6" transform="translate(381.73 559.23)"><tspan x="0" y="0">For inverse metrics (electricity, water, build-time, SAIDI) longer bars = better position</tspan></text>
</svg>