<?xml version="1.0" encoding="UTF-8"?>
<svg id="Layer_1" xmlns="http://www.w3.org/2000/svg" version="1.1" xmlns:xlink="http://www.w3.org/1999/xlink" viewBox="0 0 1200 800">
  <!-- Generator: Adobe Illustrator 30.4.0, SVG Export Plug-In . SVG Version: 2.1.4 Build 226)  -->
  <defs>
    <style>
      .st0, .st1, .st2, .st3, .st4, .st5, .st6, .st7, .st8, .st9, .st10, .st11, .st12, .st13, .st14, .st15, .st16, .st17 {
        isolation: isolate;
      }

      .st0, .st2, .st4, .st7, .st13, .st15, .st16 {
        font-family: ArialMT, Arial;
      }

      .st0, .st6, .st17 {
        font-size: 10px;
      }

      .st0, .st15, .st16 {
        fill: #6b7280;
      }

      .st18 {
        fill: #2e6497;
      }

      .st19, .st20, .st21, .st22 {
        stroke: #0b1b3b;
        stroke-width: .5px;
      }

      .st19, .st14 {
        fill: #fef3c7;
      }

      .st23 {
        filter: url(#soft3);
      }

      .st1 {
        opacity: .45;
      }

      .st1, .st22 {
        fill: #fde68a;
      }

      .st20, .st3 {
        fill: #fcd34d;
      }

      .st24 {
        filter: url(#soft1);
      }

      .st2, .st4, .st6, .st8 {
        fill: #111827;
      }

      .st2, .st15, .st16 {
        font-size: 9px;
      }

      .st25 {
        filter: url(#soft2);
      }

      .st3 {
        opacity: .55;
      }

      .st4, .st5, .st7, .st10 {
        font-size: 11px;
      }

      .st26 {
        fill: #f1f5f9;
        stroke: #9b9c9e;
      }

      .st5 {
        letter-spacing: .05em;
      }

      .st5, .st21, .st27, .st11, .st17 {
        fill: #c9a84c;
      }

      .st5, .st6, .st8, .st9, .st10, .st17 {
        font-family: Arial-BoldMT, Arial;
        font-weight: 700;
      }

      .st28, .st29 {
        fill: none;
      }

      .st7 {
        fill: #e5e7eb;
      }

      .st30 {
        filter: url(#soft5);
      }

      .st8 {
        font-size: 12px;
        letter-spacing: .04em;
      }

      .st9 {
        font-size: 20px;
      }

      .st9, .st13 {
        fill: #fff;
      }

      .st31 {
        filter: url(#soft);
      }

      .st32 {
        fill: #f8fafc;
        stroke: #e5e7eb;
      }

      .st10, .st33 {
        fill: #0b1b3b;
      }

      .st11, .st12 {
        opacity: .85;
      }

      .st12, .st34 {
        fill: #14b8a6;
      }

      .st13 {
        font-size: 9.5px;
      }

      .st14 {
        opacity: .35;
      }

      .st16 {
        letter-spacing: .06em;
      }

      .st17 {
        letter-spacing: .15em;
      }

      .st29 {
        stroke: #fff;
        stroke-width: 2px;
      }

      .st35 {
        filter: url(#soft4);
      }
    </style>
    <filter id="soft" x="-10%" y="-10%" width="120%" height="120%">
      <feGaussianBlur in="SourceAlpha" stdDeviation="2"/>
      <feOffset dx="0" dy="1"/>
      <feComponentTransfer>
        <feFuncA slope="0.25" type="linear"/>
      </feComponentTransfer>
      <feMerge>
        <feMergeNode/>
        <feMergeNode in="SourceGraphic"/>
      </feMerge>
    </filter>
    <filter id="soft1" data-name="soft" x="-10%" y="-10%" width="120%" height="120%">
      <feGaussianBlur in="SourceAlpha" stdDeviation="2"/>
      <feOffset dx="0" dy="1"/>
      <feComponentTransfer>
        <feFuncA slope="0.25" type="linear"/>
      </feComponentTransfer>
      <feMerge>
        <feMergeNode/>
        <feMergeNode in="SourceGraphic"/>
      </feMerge>
    </filter>
    <filter id="soft2" data-name="soft" x="-10%" y="-10%" width="120%" height="120%">
      <feGaussianBlur in="SourceAlpha" stdDeviation="2"/>
      <feOffset dx="0" dy="1"/>
      <feComponentTransfer>
        <feFuncA slope="0.25" type="linear"/>
      </feComponentTransfer>
      <feMerge>
        <feMergeNode/>
        <feMergeNode in="SourceGraphic"/>
      </feMerge>
    </filter>
    <filter id="soft3" data-name="soft" x="-10%" y="-10%" width="120%" height="120%">
      <feGaussianBlur in="SourceAlpha" stdDeviation="2"/>
      <feOffset dx="0" dy="1"/>
      <feComponentTransfer>
        <feFuncA slope="0.25" type="linear"/>
      </feComponentTransfer>
      <feMerge>
        <feMergeNode/>
        <feMergeNode in="SourceGraphic"/>
      </feMerge>
    </filter>
    <filter id="soft4" data-name="soft" x="-10%" y="-10%" width="120%" height="120%">
      <feGaussianBlur in="SourceAlpha" stdDeviation="2"/>
      <feOffset dx="0" dy="1"/>
      <feComponentTransfer>
        <feFuncA slope="0.25" type="linear"/>
      </feComponentTransfer>
      <feMerge>
        <feMergeNode/>
        <feMergeNode in="SourceGraphic"/>
      </feMerge>
    </filter>
    <filter id="soft5" data-name="soft" x="-10%" y="-10%" width="120%" height="120%">
      <feGaussianBlur in="SourceAlpha" stdDeviation="2"/>
      <feOffset dx="0" dy="1"/>
      <feComponentTransfer>
        <feFuncA slope="0.25" type="linear"/>
      </feComponentTransfer>
      <feMerge>
        <feMergeNode/>
        <feMergeNode in="SourceGraphic"/>
      </feMerge>
    </filter>
  </defs>
  <rect class="st33" y="0" width="1200" height="60"/>
  <text class="st9" transform="translate(40 38)"><tspan x="0" y="0">Economic Geography of India&apos;s Fab Cluster Build-Out</tspan></text>
  <text class="st17" transform="translate(1094.8203 24)"><tspan x="0" y="0">FIGURE 34</tspan></text>
  <text class="st7" transform="translate(738.73 44)"><tspan x="0" y="0">Land-value uplift bands · inter-state labour migration vectors · corridor-led urbanisation</tspan></text>
  <text class="st16" transform="translate(40 785)"><tspan x="0" y="0">INDIA SEMICONDUCTOR INTELLIGENCE 2026 · WHO REALLY BENEFITS FROM INDIA&apos;S FAB ECOSYSTEM?</tspan></text>
  <text class="st16" transform="translate(1109.478 785)"><tspan x="0" y="0">FIG 34 / 38</tspan></text>
  <path class="st26" d="M379.9,112.37c41.32,1.15,85.73,5.41,123.19,25.49,41.93,22.48,63.89,64.95,85.35,105.44,17.22,32.51,31.38,66.65,42.17,101.82,11.43,37.25,10.47,68.78-3.35,105.45-9.02,23.92-22.19,46.12-37.02,66.86-18.41,25.73-58.3,40.09-87.84,48.12-22.42,6.09-45.71,9.02-68.94,8.54-24.91-.51-44.54-6.8-67.75-14.71-17.95-6.12-37.75-13.19-52.18-25.93-11.44-10.11-22.42-21.2-29.32-34.81-14.71-29.01-5.44-60.92,9.85-87.66,12.94-22.64,30.28-42.42,45.2-63.82,10.74-15.41,16.41-30.28,14.54-49.21-1.32-13.43-7.36-26.32-15.54-36.93-12.61-16.37-29.96-28.29-46.69-40.41-10.83-7.85-21.64-15.96-30.89-25.68-7.23-7.59-21.84-21-23.61-31.71-1.1-6.63,3.08-10.02,7.76-15.36,8.5-9.71,17.9-17.08,30.18-21.43,28.73-10.18,59.38-14.36,89.78-14.28,4.91.01,9.96.08,15.11.23Z"/>
  <circle class="st14" cx="270" cy="330" r="70"/>
  <circle class="st1" cx="270" cy="330" r="50"/>
  <circle class="st3" cx="270" cy="330" r="32"/>
  <circle class="st11" cx="270" cy="330" r="18"/>
  <g class="st31">
    <circle class="st27" cx="270" cy="330" r="7"/>
    <circle class="st29" cx="270" cy="330" r="7"/>
  </g>
  <text class="st10" transform="translate(282 326)"><tspan x="0" y="0">Sanand</tspan></text>
  <text class="st2" transform="translate(282 340)"><tspan x="0" y="0">8x land uplift</tspan></text>
  <text class="st2" transform="translate(282 352)"><tspan x="0" y="0">35K in-migration</tspan></text>
  <circle class="st14" cx="280" cy="360" r="70"/>
  <circle class="st1" cx="280" cy="360" r="50"/>
  <circle class="st3" cx="280" cy="360" r="32"/>
  <circle class="st11" cx="280" cy="360" r="18"/>
  <g class="st24">
    <circle class="st33" cx="280" cy="360" r="7"/>
    <circle class="st29" cx="280" cy="360" r="7"/>
  </g>
  <text class="st10" transform="translate(292 356)"><tspan x="0" y="0">Dholera</tspan></text>
  <text class="st2" transform="translate(292 370)"><tspan x="0" y="0">12x SIR land lockup</tspan></text>
  <text class="st2" transform="translate(292 382)"><tspan x="0" y="0">Greenfield SIR</tspan></text>
  <circle class="st14" cx="570" cy="280" r="70"/>
  <circle class="st1" cx="570" cy="280" r="50"/>
  <circle class="st3" cx="570" cy="280" r="32"/>
  <circle class="st11" cx="570" cy="280" r="18"/>
  <g class="st25">
    <circle class="st34" cx="570" cy="280" r="7"/>
    <circle class="st29" cx="570" cy="280" r="7"/>
  </g>
  <text class="st10" transform="translate(512.15 276)"><tspan x="0" y="0">Jagiroad</tspan></text>
  <text class="st2" transform="translate(495.49 290)"><tspan x="0" y="0">Assam first true</tspan></text>
  <text class="st2" transform="translate(488.98 302)"><tspan x="0" y="0">industrial corridor</tspan></text>
  <circle class="st14" cx="395" cy="245" r="70"/>
  <circle class="st1" cx="395" cy="245" r="50"/>
  <circle class="st3" cx="395" cy="245" r="32"/>
  <circle class="st11" cx="395" cy="245" r="18"/>
  <g class="st23">
    <circle class="st18" cx="395" cy="245" r="7"/>
    <circle class="st29" cx="395" cy="245" r="7"/>
  </g>
  <text class="st10" transform="translate(407 241)"><tspan x="0" y="0">Jewar</tspan></text>
  <text class="st2" transform="translate(407 255)"><tspan x="0" y="0">Airport-led urbanisation</tspan></text>
  <text class="st2" transform="translate(407 267)"><tspan x="0" y="0">+ NCR uplift</tspan></text>
  <circle class="st14" cx="355" cy="495" r="70"/>
  <circle class="st1" cx="355" cy="495" r="50"/>
  <circle class="st3" cx="355" cy="495" r="32"/>
  <circle class="st11" cx="355" cy="495" r="18"/>
  <g class="st35">
    <circle class="st18" cx="355" cy="495" r="7"/>
    <circle class="st29" cx="355" cy="495" r="7"/>
  </g>
  <text class="st10" transform="translate(367 491)"><tspan x="0" y="0">Mysuru</tspan></text>
  <text class="st2" transform="translate(367 505)"><tspan x="0" y="0">Tier-2 service economy</tspan></text>
  <text class="st2" transform="translate(367 517)"><tspan x="0" y="0">compounding</tspan></text>
  <circle class="st14" cx="425" cy="505" r="70"/>
  <circle class="st1" cx="425" cy="505" r="50"/>
  <circle class="st3" cx="425" cy="505" r="32"/>
  <circle class="st11" cx="425" cy="505" r="18"/>
  <g class="st30">
    <circle class="st18" cx="425" cy="505" r="7"/>
    <circle class="st29" cx="425" cy="505" r="7"/>
  </g>
  <text class="st10" transform="translate(437 501)"><tspan x="0" y="0">Chennai/Hosur</tspan></text>
  <text class="st2" transform="translate(437 515)"><tspan x="0" y="0">Established corridor</tspan></text>
  <text class="st2" transform="translate(437 527)"><tspan x="0" y="0">incremental gain</tspan></text>
  <path class="st28" d=""/>
  <path class="st34" d="M271.36,325.2l9.6,4.8-9.6,4.8v-9.6Z"/>
  <path class="st12" d="M340,591.89" marker-end="url(#arrowT)"/>
  <path class="st28" d=""/>
  <path class="st34" d="M271.36,360.2l9.6,4.8-9.6,4.8v-9.6Z"/>
  <path class="st12" d="M340,556.89" marker-end="url(#arrowT)"/>
  <path class="st28" d=""/>
  <path class="st34" d="M561.36,270.2l9.6,4.8-9.6,4.8v-9.6Z"/>
  <path class="st12" d="M630,646.89" marker-end="url(#arrowT)"/>
  <path class="st28" d=""/>
  <path class="st34" d="M386.36,240.2l9.6,4.8-9.6,4.8v-9.6Z"/>
  <path class="st12" d="M455,676.89" marker-end="url(#arrowT)"/>
  <path class="st28" d=""/>
  <path class="st34" d="M346.36,490.2l9.6,4.8-9.6,4.8v-9.6Z"/>
  <path class="st12" d="M415,426.89" marker-end="url(#arrowT)"/>
  <path class="st28" d=""/>
  <path class="st34" d="M271.36,355.2l9.6,4.8-9.6,4.8v-9.6Z"/>
  <path class="st12" d="M340,561.89" marker-end="url(#arrowT)"/>
  <rect class="st32" x="720" y="90" width="420" height="200" rx="8" ry="8"/>
  <text class="st8" transform="translate(738 114)"><tspan x="0" y="0">LAND-VALUE UPLIFT BANDS</tspan></text>
  <rect class="st21" x="738" y="134" width="22" height="22"/>
  <text class="st4" transform="translate(770 150)"><tspan x="0" y="0">Inner ring (≤5 km): 5-12x</tspan></text>
  <rect class="st20" x="738" y="164" width="22" height="22"/>
  <text class="st4" transform="translate(770 180)"><tspan x="0" y="0">Mid ring (5-15 km): 2-3x</tspan></text>
  <rect class="st22" x="738" y="194" width="22" height="22"/>
  <text class="st4" transform="translate(770 210)"><tspan x="0" y="0">Outer ring (15-30 km): 1.5x</tspan></text>
  <rect class="st19" x="738" y="224" width="22" height="22"/>
  <text class="st4" transform="translate(770 240)"><tspan x="0" y="0">Spill-over (30-60 km): 1.2x</tspan></text>
  <text class="st15" transform="translate(738 280)"><tspan x="0" y="0">Source: cluster registry data + state notification estimates</tspan></text>
  <rect class="st32" x="720" y="310" width="420" height="280" rx="8" ry="8"/>
  <text class="st8" transform="translate(738 334)"><tspan x="0" y="0">CHANGE IN RESIDENTIAL SUPPLY (2023-&gt;2026)</tspan></text>
  <text class="st0" transform="translate(738 350)"><tspan x="0" y="0">Housing units in cluster catchment, %</tspan></text>
  <text class="st6" transform="translate(783.88 385)"><tspan x="0" y="0">Sanand</tspan></text>
  <rect class="st27" x="830" y="370" width="95" height="22" rx="3" ry="3"/>
  <text class="st6" transform="translate(931 385)"><tspan x="0" y="0">+95%</tspan></text>
  <text class="st6" transform="translate(782.77 417)"><tspan x="0" y="0">Dholera</tspan></text>
  <rect class="st33" x="830" y="402" width="280" height="22" rx="3" ry="3"/>
  <text class="st6" transform="translate(1116 417)"><tspan x="0" y="0">+280%</tspan></text>
  <text class="st6" transform="translate(778.32 449)"><tspan x="0" y="0">Jagiroad</tspan></text>
  <rect class="st34" x="830" y="434" width="75" height="22" rx="3" ry="3"/>
  <text class="st6" transform="translate(911 449)"><tspan x="0" y="0">+75%</tspan></text>
  <text class="st6" transform="translate(791.65 481)"><tspan x="0" y="0">Jewar</tspan></text>
  <rect class="st18" x="830" y="466" width="145" height="22" rx="3" ry="3"/>
  <text class="st6" transform="translate(981 481)"><tspan x="0" y="0">+145%</tspan></text>
  <text class="st6" transform="translate(784.44 513)"><tspan x="0" y="0">Mysuru</tspan></text>
  <rect class="st18" x="830" y="498" width="55" height="22" rx="3" ry="3"/>
  <text class="st6" transform="translate(891 513)"><tspan x="0" y="0">+55%</tspan></text>
  <text class="st6" transform="translate(780.55 545)"><tspan x="0" y="0">Chennai</tspan></text>
  <rect class="st18" x="830" y="530" width="35" height="22" rx="3" ry="3"/>
  <text class="st6" transform="translate(871 545)"><tspan x="0" y="0">+35%</tspan></text>
  <rect class="st33" x="60" y="660" width="1080" height="80" rx="8" ry="8"/>
  <text class="st5" transform="translate(80 685)"><tspan x="0" y="0">CORRIDOR EFFECTS</tspan></text>
  <text class="st13" transform="translate(80 705)"><tspan x="0" y="0">Sanand: 8x land uplift · ~35K in-migration in 18 months</tspan></text>
  <text class="st13" transform="translate(420 705)"><tspan x="0" y="0">Dholera SIR: 12x notified land lockup · greenfield city</tspan></text>
  <text class="st13" transform="translate(760 705)"><tspan x="0" y="0">Jagiroad: Assam&apos;s first true industrial corridor · Brahmaputra economic axis</tspan></text>
  <text class="st13" transform="translate(80 721)"><tspan x="0" y="0">Jewar: airport-led urbanisation · semicon + logistics overlap</tspan></text>
  <text class="st13" transform="translate(420 721)"><tspan x="0" y="0">Mysuru: Tier-2 service-economy compounding · IT + chip design talent</tspan></text>
</svg>