<?xml version="1.0" encoding="UTF-8"?>
<svg id="Layer_1" xmlns="http://www.w3.org/2000/svg" version="1.1" viewBox="0 0 900 800">
  <!-- Generator: Adobe Illustrator 30.4.0, SVG Export Plug-In . SVG Version: 2.1.4 Build 226)  -->
  <defs>
    <style>
      .st0 {
        opacity: .4;
      }

      .st0, .st1, .st2, .st3, .st4, .st5, .st6, .st7, .st8, .st9, .st10, .st11, .st12, .st13, .st14, .st15, .st16, .st17 {
        isolation: isolate;
      }

      .st0, .st8 {
        fill: #e5e7eb;
      }

      .st1 {
        letter-spacing: .05em;
      }

      .st1, .st2, .st3, .st5, .st7, .st9, .st10, .st11, .st12, .st16, .st17 {
        font-family: Arial-BoldMT, Arial;
        font-weight: 700;
      }

      .st1, .st6, .st9 {
        fill: #111827;
      }

      .st1, .st8 {
        font-size: 11px;
      }

      .st2, .st11, .st15 {
        font-size: 9px;
      }

      .st2, .st17 {
        fill: #231f20;
      }

      .st3, .st18, .st14, .st16 {
        fill: #c9a84c;
      }

      .st3, .st7 {
        font-size: 13px;
        letter-spacing: .06em;
      }

      .st19 {
        stroke: #b91c1c;
      }

      .st19, .st18, .st20 {
        fill-opacity: .55;
        stroke-width: 2px;
      }

      .st19, .st7 {
        fill: #b91c1c;
      }

      .st4 {
        opacity: .13;
      }

      .st4, .st5, .st20 {
        fill: #2e6497;
      }

      .st21 {
        stroke-width: 1.5px;
      }

      .st21, .st22 {
        fill: none;
        stroke: #111827;
      }

      .st18 {
        stroke: #c9a84c;
      }

      .st5, .st9, .st12 {
        font-size: 12px;
      }

      .st5, .st12 {
        letter-spacing: .07em;
      }

      .st6, .st8, .st15 {
        font-family: ArialMT, Arial;
      }

      .st6, .st16 {
        font-size: 10px;
      }

      .st9 {
        letter-spacing: .04em;
      }

      .st10 {
        font-size: 20px;
      }

      .st10, .st11 {
        fill: #fff;
      }

      .st23 {
        fill: #0b1b3b;
      }

      .st12, .st15 {
        fill: #6b7280;
      }

      .st13 {
        fill: #fca5a5;
        opacity: .22;
      }

      .st14 {
        opacity: .1;
      }

      .st22 {
        stroke-dasharray: 3 3;
        stroke-width: .5px;
      }

      .st15 {
        letter-spacing: .06em;
      }

      .st16 {
        letter-spacing: .15em;
      }

      .st17 {
        font-size: 7.39px;
      }

      .st20 {
        stroke: #2e6497;
      }
    </style>
  </defs>
  <rect class="st23" x="-3.88" y="0" width="907.69" height="60"/>
  <text class="st10" transform="translate(45.83 39.2)"><tspan x="0" y="0">Fab Failure Risk Matrix</tspan></text>
  <text class="st16" transform="translate(783.07 23.68)"><tspan x="0" y="0">FIGURE 25</tspan></text>
  <text class="st8" transform="translate(442 44.91)"><tspan x="0" y="0">Twelve named risks plotted by likelihood and severity · bubble size = capex-at-stake</tspan></text>
  <text class="st15" transform="translate(23.31 791.2)"><tspan x="0" y="0">INDIA SEMICONDUCTOR INTELLIGENCE 2026 · WHO REALLY BENEFITS FROM INDIA&apos;S FAB ECOSYSTEM?</tspan></text>
  <text class="st15" transform="translate(797.79 784.65)"><tspan x="0" y="0">FIG 25 / 30</tspan></text>
  <rect class="st14" x="50" y="130" width="400" height="270"/>
  <rect class="st13" x="450" y="130" width="400" height="270"/>
  <rect class="st0" x="50" y="400" width="400" height="270"/>
  <rect class="st4" x="450" y="400" width="400" height="270"/>
  <line class="st21" x1="50" y1="670" x2="850" y2="670"/>
  <line class="st21" x1="50" y1="670" x2="50" y2="130"/>
  <line class="st22" x1="450" y1="670" x2="450" y2="130"/>
  <line class="st22" x1="50" y1="400" x2="850" y2="400"/>
  <text class="st9" transform="translate(408 696.56)"><tspan x="0" y="0">LIKELIHOOD -&gt;</tspan></text>
  <text class="st9" transform="translate(28 439.49) rotate(-90)"><tspan x="0" y="0">SEVERITY -&gt;</tspan></text>
  <text class="st3" transform="translate(216.63 152)"><tspan x="0" y="0">MONITOR</tspan></text>
  <text class="st7" transform="translate(596.94 152)"><tspan x="0" y="0">MITIGATE NOW</tspan></text>
  <text class="st12" transform="translate(201.2 658)"><tspan x="0" y="0">LOW PRIORITY</tspan></text>
  <text class="st5" transform="translate(587.37 658)"><tspan x="0" y="0">PREPARE / INSURE</tspan></text>
  <circle class="st19" cx="610" cy="211" r="35"/>
  <text class="st11" transform="translate(596.25 208.26)"><tspan x="0" y="0">Water </tspan><tspan x="-10.5" y="10.8">curtailment</tspan></text>
  <circle class="st19" cx="490" cy="211" r="32"/>
  <text class="st11" transform="translate(476.5 220.8)"><tspan x="0" y="0">Power</tspan><tspan x="-8" y="10.8">freq event</tspan></text>
  <circle class="st19" cx="674" cy="319" r="22"/>
  <text class="st11" transform="translate(659.75 316)"><tspan x="0" y="0">Talent</tspan><tspan x="-4.75" y="10.8" xml:space="preserve"> attrition</tspan></text>
  <circle class="st19" cx="570" cy="292" r="28"/>
  <text class="st11" transform="translate(545.5 292)"><tspan x="0" y="0">Equipment </tspan><tspan x="12.99" y="10.8">delay</tspan></text>
  <circle class="st19" cx="490" cy="173.2" r="40"/>
  <text class="st11" transform="translate(462.25 158)"><tspan x="0" y="0">Geopolitical</tspan><tspan x="3.75" y="10.8">export ctrl</tspan></text>
  <circle class="st18" cx="370" cy="248.8" r="28"/>
  <text class="st2" transform="translate(354 238.87)"><tspan x="0" y="0">Demand </tspan><tspan x="0" y="10.8">shortfall</tspan></text>
  <circle class="st18" cx="290" cy="227.2" r="26"/>
  <text class="st2" transform="translate(275.67 224.2)"><tspan x="0" y="0">IP loss</tspan><tspan x="0" y="10.8" xml:space="preserve"> / theft</tspan></text>
  <circle class="st19" cx="546" cy="248.8" r="30"/>
  <text class="st11" transform="translate(527.24 246)"><tspan x="0" y="0">Process </tspan><tspan x="-3" y="10.8">yield miss</tspan></text>
  <circle class="st18" cx="354" cy="281.2" r="22"/>
  <text class="st2" transform="translate(269.4 278.8)"><tspan x="0" y="0">Tech-transfer</tspan><tspan x="0" y="10.8">dispute</tspan></text>
  <circle class="st18" cx="410" cy="373" r="14"/>
  <text class="st17" transform="translate(316 373) scale(1.22 1)"><tspan x="0" y="0">ESG / community</tspan><tspan x="0" y="8.87">protest</tspan></text>
  <circle class="st20" cx="490" cy="427" r="18"/>
  <text class="st2" transform="translate(513.95 427)"><tspan x="0" y="0">Currency </tspan><tspan x="0" y="10.8">shock</tspan></text>
  <circle class="st18" cx="386" cy="335.2" r="22"/>
  <text class="st2" transform="translate(305.27 338)"><tspan x="0" y="0">Tariff shock</tspan></text>
  <text class="st1" transform="translate(70.54 744.17)"><tspan x="0" y="0">BUBBLE SIZE = CAPEX-AT-STAKE</tspan></text>
  <circle class="st20" cx="314.46" cy="741.43" r="15"/>
  <text class="st6" transform="translate(306.96 736.29)"><tspan x="0" y="0">Rs </tspan><tspan x="-6.4" y="12">500 cr</tspan></text>
  <circle class="st20" cx="514.46" cy="741.43" r="25"/>
  <text class="st6" transform="translate(506.96 739.36)"><tspan x="0" y="0">Rs </tspan><tspan x="-10.57" y="12">2,500 cr</tspan></text>
  <circle class="st20" cx="714.46" cy="741.43" r="35"/>
  <text class="st6" transform="translate(706.96 739.47)"><tspan x="0" y="0">Rs </tspan><tspan x="-16.27" y="12">10,000 cr+</tspan></text>
</svg>