<?xml version="1.0" encoding="UTF-8"?>
<svg id="Layer_1" xmlns="http://www.w3.org/2000/svg" version="1.1" viewBox="0 0 900 800">
  <!-- Generator: Adobe Illustrator 30.4.0, SVG Export Plug-In . SVG Version: 2.1.4 Build 226)  -->
  <defs>
    <style>
      .st0 {
        fill: #9ca3b0;
      }

      .st1 {
        letter-spacing: .05em;
      }

      .st1, .st2, .st3, .st4, .st5, .st6, .st7, .st8, .st9, .st10, .st11 {
        isolation: isolate;
      }

      .st1, .st2, .st3, .st6, .st7, .st8, .st9, .st11 {
        font-family: Arial-BoldMT, Arial;
        font-weight: 700;
      }

      .st1, .st3, .st8 {
        fill: #111827;
      }

      .st1, .st4, .st5, .st8, .st9 {
        font-size: 11px;
      }

      .st2, .st3 {
        font-size: 14px;
      }

      .st2, .st6, .st9 {
        fill: #fff;
      }

      .st12 {
        fill: #848c9c;
      }

      .st13 {
        fill: #ccd0d7;
      }

      .st14 {
        fill: #3b4862;
      }

      .st15 {
        fill: #b4b9c3;
      }

      .st4, .st5, .st10 {
        font-family: ArialMT, Arial;
      }

      .st4, .st10 {
        fill: #6b7280;
      }

      .st16 {
        fill: #23314e;
      }

      .st5, .st17 {
        fill: #e5e7eb;
      }

      .st6 {
        font-size: 20px;
      }

      .st7 {
        font-size: 13px;
      }

      .st7, .st18 {
        fill: #0b1b3b;
      }

      .st19 {
        fill: #6b7589;
      }

      .st20 {
        fill: #535f75;
      }

      .st10 {
        font-size: 9px;
        letter-spacing: .06em;
      }

      .st11 {
        fill: #c9a84c;
        font-size: 10px;
        letter-spacing: .15em;
      }
    </style>
  </defs>
  <rect class="st18" x="-.23" y="0" width="900.23" height="60"/>
  <text class="st6" transform="translate(42.91 37.98)"><tspan x="0" y="0">State Cluster Heatmap</tspan></text>
  <text class="st11" transform="translate(824.91 25.99)"><tspan x="0" y="0">FIGURE 14</tspan></text>
  <text class="st5" transform="translate(662.32 45.99)"><tspan x="0" y="0">Seven states × eight capabilities · 1-10 scoring</tspan></text>
  <text class="st10" transform="translate(95.19 753.22)"><tspan x="0" y="0">INDIA SEMICONDUCTOR INTELLIGENCE 2026 · WHO REALLY BENEFITS FROM INDIA&apos;S FAB ECOSYSTEM?</tspan></text>
  <text class="st10" transform="translate(815.05 753.11)"><tspan x="0" y="0">FIG 14 / 30</tspan></text>
  <text class="st8" transform="translate(132.22 120)"><tspan x="0" y="0">Fab</tspan></text>
  <text class="st8" transform="translate(227.13 120)"><tspan x="0" y="0">OSAT</tspan></text>
  <text class="st8" transform="translate(330.08 120)"><tspan x="0" y="0">EMS</tspan></text>
  <text class="st8" transform="translate(423.66 120)"><tspan x="0" y="0">Design</tspan></text>
  <text class="st8" transform="translate(522.44 120)"><tspan x="0" y="0">Skilling</tspan></text>
  <text class="st8" transform="translate(630.08 120)"><tspan x="0" y="0">Infra</tspan></text>
  <text class="st8" transform="translate(717.86 120)"><tspan x="0" y="0">Logistics</tspan></text>
  <text class="st8" transform="translate(825.8 120)"><tspan x="0" y="0">Policy</tspan></text>
  <text class="st8" transform="translate(41.49 162)"><tspan x="0" y="0">Gujarat</tspan></text>
  <rect class="st16" x="92" y="130" width="97" height="53" rx="4" ry="4"/>
  <text class="st2" transform="translate(136.61 161.5)"><tspan x="0" y="0">9</tspan></text>
  <rect class="st20" x="192" y="130" width="97" height="53" rx="4" ry="4"/>
  <text class="st2" transform="translate(236.61 161.5)"><tspan x="0" y="0">7</tspan></text>
  <rect class="st12" x="292" y="130" width="97" height="53" rx="4" ry="4"/>
  <text class="st3" transform="translate(336.61 161.5)"><tspan x="0" y="0">5</tspan></text>
  <rect class="st15" x="392" y="130" width="97" height="53" rx="4" ry="4"/>
  <text class="st3" transform="translate(436.61 161.5)"><tspan x="0" y="0">3</tspan></text>
  <rect class="st0" x="492" y="130" width="97" height="53" rx="4" ry="4"/>
  <text class="st3" transform="translate(536.61 161.5)"><tspan x="0" y="0">4</tspan></text>
  <rect class="st16" x="592" y="130" width="97" height="53" rx="4" ry="4"/>
  <text class="st2" transform="translate(636.61 161.5)"><tspan x="0" y="0">9</tspan></text>
  <rect class="st16" x="692" y="130" width="97" height="53" rx="4" ry="4"/>
  <text class="st2" transform="translate(736.61 161.5)"><tspan x="0" y="0">9</tspan></text>
  <rect class="st16" x="792" y="130" width="97" height="53" rx="4" ry="4"/>
  <text class="st2" transform="translate(836.61 161.5)"><tspan x="0" y="0">9</tspan></text>
  <text class="st8" transform="translate(26.8 218)"><tspan x="0" y="0">Karnataka</tspan></text>
  <rect class="st0" x="92" y="186" width="97" height="53" rx="4" ry="4"/>
  <text class="st3" transform="translate(136.61 217.5)"><tspan x="0" y="0">4</tspan></text>
  <rect class="st19" x="192" y="186" width="97" height="53" rx="4" ry="4"/>
  <text class="st2" transform="translate(236.61 217.5)"><tspan x="0" y="0">6</tspan></text>
  <rect class="st20" x="292" y="186" width="97" height="53" rx="4" ry="4"/>
  <text class="st2" transform="translate(336.61 217.5)"><tspan x="0" y="0">7</tspan></text>
  <rect class="st18" x="392" y="186" width="97" height="53" rx="4" ry="4"/>
  <text class="st2" transform="translate(432.71 217.5)"><tspan x="0" y="0">10</tspan></text>
  <rect class="st16" x="492" y="186" width="97" height="53" rx="4" ry="4"/>
  <text class="st2" transform="translate(536.61 217.5)"><tspan x="0" y="0">9</tspan></text>
  <rect class="st20" x="592" y="186" width="97" height="53" rx="4" ry="4"/>
  <text class="st2" transform="translate(636.61 217.5)"><tspan x="0" y="0">7</tspan></text>
  <rect class="st14" x="692" y="186" width="97" height="53" rx="4" ry="4"/>
  <text class="st2" transform="translate(736.61 217.5)"><tspan x="0" y="0">8</tspan></text>
  <rect class="st20" x="792" y="186" width="97" height="53" rx="4" ry="4"/>
  <text class="st2" transform="translate(836.61 217.5)"><tspan x="0" y="0">7</tspan></text>
  <text class="st8" transform="translate(21.53 274)"><tspan x="0" y="0">Tamil Nadu</tspan></text>
  <rect class="st12" x="92" y="242" width="97" height="53" rx="4" ry="4"/>
  <text class="st3" transform="translate(136.61 273.5)"><tspan x="0" y="0">5</tspan></text>
  <rect class="st14" x="192" y="242" width="97" height="53" rx="4" ry="4"/>
  <text class="st2" transform="translate(236.61 273.5)"><tspan x="0" y="0">8</tspan></text>
  <rect class="st16" x="292" y="242" width="97" height="53" rx="4" ry="4"/>
  <text class="st2" transform="translate(336.61 273.5)"><tspan x="0" y="0">9</tspan></text>
  <rect class="st20" x="392" y="242" width="97" height="53" rx="4" ry="4"/>
  <text class="st2" transform="translate(436.61 273.5)"><tspan x="0" y="0">7</tspan></text>
  <rect class="st14" x="492" y="242" width="97" height="53" rx="4" ry="4"/>
  <text class="st2" transform="translate(536.61 273.5)"><tspan x="0" y="0">8</tspan></text>
  <rect class="st14" x="592" y="242" width="97" height="53" rx="4" ry="4"/>
  <text class="st2" transform="translate(636.61 273.5)"><tspan x="0" y="0">8</tspan></text>
  <rect class="st16" x="692" y="242" width="97" height="53" rx="4" ry="4"/>
  <text class="st2" transform="translate(736.61 273.5)"><tspan x="0" y="0">9</tspan></text>
  <rect class="st14" x="792" y="242" width="97" height="53" rx="4" ry="4"/>
  <text class="st2" transform="translate(836.61 273.5)"><tspan x="0" y="0">8</tspan></text>
  <text class="st8" transform="translate(26.41 330)"><tspan x="0" y="0">Telangana</tspan></text>
  <rect class="st0" x="92" y="298" width="97" height="53" rx="4" ry="4"/>
  <text class="st3" transform="translate(136.61 329.5)"><tspan x="0" y="0">4</tspan></text>
  <rect class="st20" x="192" y="298" width="97" height="53" rx="4" ry="4"/>
  <text class="st2" transform="translate(236.61 329.5)"><tspan x="0" y="0">7</tspan></text>
  <rect class="st19" x="292" y="298" width="97" height="53" rx="4" ry="4"/>
  <text class="st2" transform="translate(336.61 329.5)"><tspan x="0" y="0">6</tspan></text>
  <rect class="st16" x="392" y="298" width="97" height="53" rx="4" ry="4"/>
  <text class="st2" transform="translate(436.61 329.5)"><tspan x="0" y="0">9</tspan></text>
  <rect class="st14" x="492" y="298" width="97" height="53" rx="4" ry="4"/>
  <text class="st2" transform="translate(536.61 329.5)"><tspan x="0" y="0">8</tspan></text>
  <rect class="st20" x="592" y="298" width="97" height="53" rx="4" ry="4"/>
  <text class="st2" transform="translate(636.61 329.5)"><tspan x="0" y="0">7</tspan></text>
  <rect class="st20" x="692" y="298" width="97" height="53" rx="4" ry="4"/>
  <text class="st2" transform="translate(736.61 329.5)"><tspan x="0" y="0">7</tspan></text>
  <rect class="st14" x="792" y="298" width="97" height="53" rx="4" ry="4"/>
  <text class="st2" transform="translate(836.61 329.5)"><tspan x="0" y="0">8</tspan></text>
  <text class="st8" transform="translate(7.87 386)"><tspan x="0" y="0">Uttar Pradesh</tspan></text>
  <rect class="st15" x="92" y="354" width="97" height="53" rx="4" ry="4"/>
  <text class="st3" transform="translate(136.61 385.5)"><tspan x="0" y="0">3</tspan></text>
  <rect class="st12" x="192" y="354" width="97" height="53" rx="4" ry="4"/>
  <text class="st3" transform="translate(236.61 385.5)"><tspan x="0" y="0">5</tspan></text>
  <rect class="st20" x="292" y="354" width="97" height="53" rx="4" ry="4"/>
  <text class="st2" transform="translate(336.61 385.5)"><tspan x="0" y="0">7</tspan></text>
  <rect class="st0" x="392" y="354" width="97" height="53" rx="4" ry="4"/>
  <text class="st3" transform="translate(436.61 385.5)"><tspan x="0" y="0">4</tspan></text>
  <rect class="st12" x="492" y="354" width="97" height="53" rx="4" ry="4"/>
  <text class="st3" transform="translate(536.61 385.5)"><tspan x="0" y="0">5</tspan></text>
  <rect class="st19" x="592" y="354" width="97" height="53" rx="4" ry="4"/>
  <text class="st2" transform="translate(636.61 385.5)"><tspan x="0" y="0">6</tspan></text>
  <rect class="st20" x="692" y="354" width="97" height="53" rx="4" ry="4"/>
  <text class="st2" transform="translate(736.61 385.5)"><tspan x="0" y="0">7</tspan></text>
  <rect class="st20" x="792" y="354" width="97" height="53" rx="4" ry="4"/>
  <text class="st2" transform="translate(836.61 385.5)"><tspan x="0" y="0">7</tspan></text>
  <text class="st8" transform="translate(43.92 442)"><tspan x="0" y="0">Assam</tspan></text>
  <rect class="st12" x="92" y="410" width="97" height="53" rx="4" ry="4"/>
  <text class="st3" transform="translate(136.61 441.5)"><tspan x="0" y="0">5</tspan></text>
  <rect class="st14" x="192" y="410" width="97" height="53" rx="4" ry="4"/>
  <text class="st2" transform="translate(236.61 441.5)"><tspan x="0" y="0">8</tspan></text>
  <rect class="st15" x="292" y="410" width="97" height="53" rx="4" ry="4"/>
  <text class="st3" transform="translate(336.61 441.5)"><tspan x="0" y="0">3</tspan></text>
  <rect class="st13" x="392" y="410" width="97" height="53" rx="4" ry="4"/>
  <text class="st3" transform="translate(436.61 441.5)"><tspan x="0" y="0">2</tspan></text>
  <rect class="st0" x="492" y="410" width="97" height="53" rx="4" ry="4"/>
  <text class="st3" transform="translate(536.61 441.5)"><tspan x="0" y="0">4</tspan></text>
  <rect class="st12" x="592" y="410" width="97" height="53" rx="4" ry="4"/>
  <text class="st3" transform="translate(636.61 441.5)"><tspan x="0" y="0">5</tspan></text>
  <rect class="st0" x="692" y="410" width="97" height="53" rx="4" ry="4"/>
  <text class="st3" transform="translate(736.61 441.5)"><tspan x="0" y="0">4</tspan></text>
  <rect class="st14" x="792" y="410" width="97" height="53" rx="4" ry="4"/>
  <text class="st2" transform="translate(836.61 441.5)"><tspan x="0" y="0">8</tspan></text>
  <text class="st8" transform="translate(14.59 498)"><tspan x="0" y="0">Maharashtra</tspan></text>
  <rect class="st15" x="92" y="466" width="97" height="53" rx="4" ry="4"/>
  <text class="st3" transform="translate(136.61 497.5)"><tspan x="0" y="0">3</tspan></text>
  <rect class="st12" x="192" y="466" width="97" height="53" rx="4" ry="4"/>
  <text class="st3" transform="translate(236.61 497.5)"><tspan x="0" y="0">5</tspan></text>
  <rect class="st14" x="292" y="466" width="97" height="53" rx="4" ry="4"/>
  <text class="st2" transform="translate(336.61 497.5)"><tspan x="0" y="0">8</tspan></text>
  <rect class="st20" x="392" y="466" width="97" height="53" rx="4" ry="4"/>
  <text class="st2" transform="translate(436.61 497.5)"><tspan x="0" y="0">7</tspan></text>
  <rect class="st20" x="492" y="466" width="97" height="53" rx="4" ry="4"/>
  <text class="st2" transform="translate(536.61 497.5)"><tspan x="0" y="0">7</tspan></text>
  <rect class="st20" x="592" y="466" width="97" height="53" rx="4" ry="4"/>
  <text class="st2" transform="translate(636.61 497.5)"><tspan x="0" y="0">7</tspan></text>
  <rect class="st14" x="692" y="466" width="97" height="53" rx="4" ry="4"/>
  <text class="st2" transform="translate(736.61 497.5)"><tspan x="0" y="0">8</tspan></text>
  <rect class="st19" x="792" y="466" width="97" height="53" rx="4" ry="4"/>
  <text class="st2" transform="translate(836.61 497.5)"><tspan x="0" y="0">6</tspan></text>
  <text class="st8" transform="translate(42.71 554)"><tspan x="0" y="0">Odisha</tspan></text>
  <rect class="st15" x="92" y="522" width="97" height="53" rx="4" ry="4"/>
  <text class="st3" transform="translate(136.61 553.5)"><tspan x="0" y="0">3</tspan></text>
  <rect class="st0" x="192" y="522" width="97" height="53" rx="4" ry="4"/>
  <text class="st3" transform="translate(236.61 553.5)"><tspan x="0" y="0">4</tspan></text>
  <rect class="st0" x="292" y="522" width="97" height="53" rx="4" ry="4"/>
  <text class="st3" transform="translate(336.61 553.5)"><tspan x="0" y="0">4</tspan></text>
  <rect class="st15" x="392" y="522" width="97" height="53" rx="4" ry="4"/>
  <text class="st3" transform="translate(436.61 553.5)"><tspan x="0" y="0">3</tspan></text>
  <rect class="st0" x="492" y="522" width="97" height="53" rx="4" ry="4"/>
  <text class="st3" transform="translate(536.61 553.5)"><tspan x="0" y="0">4</tspan></text>
  <rect class="st12" x="592" y="522" width="97" height="53" rx="4" ry="4"/>
  <text class="st3" transform="translate(636.61 553.5)"><tspan x="0" y="0">5</tspan></text>
  <rect class="st12" x="692" y="522" width="97" height="53" rx="4" ry="4"/>
  <text class="st3" transform="translate(736.61 553.5)"><tspan x="0" y="0">5</tspan></text>
  <rect class="st19" x="792" y="522" width="97" height="53" rx="4" ry="4"/>
  <text class="st2" transform="translate(836.61 553.5)"><tspan x="0" y="0">6</tspan></text>
  <text class="st1" transform="translate(92 603.18)"><tspan x="0" y="0">CAPABILITY SCORE</tspan></text>
  <rect class="st17" x="92" y="613.18" width="46" height="26" rx="4" ry="4"/>
  <text class="st8" transform="translate(111.94 631.18)"><tspan x="0" y="0">1</tspan></text>
  <rect class="st13" x="142" y="613.18" width="46" height="26" rx="4" ry="4"/>
  <text class="st8" transform="translate(161.94 631.18)"><tspan x="0" y="0">2</tspan></text>
  <rect class="st15" x="192" y="613.18" width="46" height="26" rx="4" ry="4"/>
  <text class="st8" transform="translate(211.94 631.18)"><tspan x="0" y="0">3</tspan></text>
  <rect class="st0" x="242" y="613.18" width="46" height="26" rx="4" ry="4"/>
  <text class="st8" transform="translate(261.94 631.18)"><tspan x="0" y="0">4</tspan></text>
  <rect class="st12" x="292" y="613.18" width="46" height="26" rx="4" ry="4"/>
  <text class="st8" transform="translate(311 631.18)"><tspan x="0" y="0">5</tspan></text>
  <rect class="st19" x="342" y="613.22" width="46" height="26" rx="4" ry="4"/>
  <text class="st9" transform="translate(361.27 631.37)"><tspan x="0" y="0">6</tspan></text>
  <rect class="st20" x="392" y="613.22" width="46" height="26" rx="4" ry="4"/>
  <text class="st9" transform="translate(411.94 631.22)"><tspan x="0" y="0">7</tspan></text>
  <rect class="st14" x="442" y="613.22" width="46" height="26" rx="4" ry="4"/>
  <text class="st9" transform="translate(461.94 631.22)"><tspan x="0" y="0">8</tspan></text>
  <rect class="st16" x="492" y="613.22" width="46" height="26" rx="4" ry="4"/>
  <text class="st9" transform="translate(511.94 631.22)"><tspan x="0" y="0">9</tspan></text>
  <rect class="st18" x="542" y="613.22" width="46" height="26" rx="4" ry="4"/>
  <text class="st9" transform="translate(558.88 631.22)"><tspan x="0" y="0">10</tspan></text>
  <text class="st4" transform="translate(92 663.18)"><tspan x="0" y="0">1 = nascent · 4 = emerging · 7 = competitive · 10 = world-class</tspan></text>
  <text class="st1" transform="translate(94.67 707.18)"><tspan x="0" y="0">CAPABILITY AVERAGE</tspan></text>
  <text class="st7" transform="translate(249.58 707.89)"><tspan x="0" y="0">4.5</tspan></text>
  <text class="st7" transform="translate(294.05 707.89)"><tspan x="0" y="0">6.2</tspan></text>
  <text class="st7" transform="translate(345.78 708.23)"><tspan x="0" y="0">6.1</tspan></text>
  <text class="st7" transform="translate(394.05 708.06)"><tspan x="0" y="0">5.6</tspan></text>
  <text class="st7" transform="translate(439.55 707.89)"><tspan x="0" y="0">6.1</tspan></text>
  <text class="st7" transform="translate(493.55 707.89)"><tspan x="0" y="0">6.8</tspan></text>
  <text class="st7" transform="translate(545.95 707.89)"><tspan x="0" y="0">7.1</tspan></text>
  <text class="st7" transform="translate(597.72 708.4)"><tspan x="0" y="0">7.4</tspan></text>
</svg>