<?xml version="1.0" encoding="UTF-8"?>
<svg xmlns="http://www.w3.org/2000/svg" version="1.1" xmlns:xlink="http://www.w3.org/1999/xlink" viewBox="0 0 900 900">
  <!-- Generator: Adobe Illustrator 30.4.0, SVG Export Plug-In . SVG Version: 2.1.4 Build 226)  -->
  <defs>
    <style>
      .st0, .st1, .st2, .st3, .st4, .st5, .st6, .st7, .st8, .st9, .st10, .st11, .st12, .st13, .st14 {
        isolation: isolate;
      }

      .st0, .st1, .st3, .st4, .st8, .st9, .st12, .st14 {
        font-family: ArialMT, Arial;
      }

      .st0, .st8, .st12 {
        fill: #6b7280;
      }

      .st0, .st13 {
        font-size: 10px;
      }

      .st15 {
        fill: #2e6497;
      }

      .st16 {
        fill: #f5ebc8;
      }

      .st17 {
        filter: url(#soft3);
      }

      .st18 {
        filter: url(#soft1);
      }

      .st19 {
        filter: url(#soft2);
      }

      .st1, .st5, .st9, .st10, .st11 {
        fill: #fff;
      }

      .st1, .st14 {
        font-size: 13px;
      }

      .st2, .st3, .st6, .st7, .st14 {
        fill: #111827;
      }

      .st2, .st5, .st6, .st7, .st10, .st11, .st13 {
        font-family: Arial-BoldMT, Arial;
        font-weight: 700;
      }

      .st2, .st11 {
        font-size: 22px;
      }

      .st3, .st9 {
        font-size: 12px;
      }

      .st4 {
        fill: #e5e7eb;
      }

      .st4, .st6 {
        font-size: 11px;
      }

      .st20, .st13 {
        fill: #c9a84c;
      }

      .st5 {
        font-size: 20px;
      }

      .st21 {
        filter: url(#soft);
      }

      .st22 {
        fill: #0b1b3b;
      }

      .st23 {
        fill: #14b8a6;
      }

      .st7, .st10 {
        font-size: 14px;
        letter-spacing: .06em;
      }

      .st8 {
        font-size: 9.28px;
        letter-spacing: .06em;
      }

      .st12 {
        font-size: 9px;
        letter-spacing: .06em;
      }

      .st13 {
        letter-spacing: .15em;
      }

      .st24 {
        fill: none;
        stroke: #0b1b3b;
        stroke-width: 3px;
      }

      .st25 {
        filter: url(#soft4);
      }
    </style>
    <filter id="soft" x="-10%" y="-10%" width="120%" height="120%">
      <feGaussianBlur in="SourceAlpha" stdDeviation="2"/>
      <feOffset dx="0" dy="1"/>
      <feComponentTransfer>
        <feFuncA slope="0.25" type="linear"/>
      </feComponentTransfer>
      <feMerge>
        <feMergeNode/>
        <feMergeNode in="SourceGraphic"/>
      </feMerge>
    </filter>
    <filter id="soft1" data-name="soft" x="-10%" y="-10%" width="120%" height="120%">
      <feGaussianBlur in="SourceAlpha" stdDeviation="2"/>
      <feOffset dx="0" dy="1"/>
      <feComponentTransfer>
        <feFuncA slope="0.25" type="linear"/>
      </feComponentTransfer>
      <feMerge>
        <feMergeNode/>
        <feMergeNode in="SourceGraphic"/>
      </feMerge>
    </filter>
    <filter id="soft2" data-name="soft" x="-10%" y="-10%" width="120%" height="120%">
      <feGaussianBlur in="SourceAlpha" stdDeviation="2"/>
      <feOffset dx="0" dy="1"/>
      <feComponentTransfer>
        <feFuncA slope="0.25" type="linear"/>
      </feComponentTransfer>
      <feMerge>
        <feMergeNode/>
        <feMergeNode in="SourceGraphic"/>
      </feMerge>
    </filter>
    <filter id="soft3" data-name="soft" x="-10%" y="-10%" width="120%" height="120%">
      <feGaussianBlur in="SourceAlpha" stdDeviation="2"/>
      <feOffset dx="0" dy="1"/>
      <feComponentTransfer>
        <feFuncA slope="0.25" type="linear"/>
      </feComponentTransfer>
      <feMerge>
        <feMergeNode/>
        <feMergeNode in="SourceGraphic"/>
      </feMerge>
    </filter>
    <filter id="soft4" data-name="soft" x="-10%" y="-10%" width="120%" height="120%">
      <feGaussianBlur in="SourceAlpha" stdDeviation="2"/>
      <feOffset dx="0" dy="1"/>
      <feComponentTransfer>
        <feFuncA slope="0.25" type="linear"/>
      </feComponentTransfer>
      <feMerge>
        <feMergeNode/>
        <feMergeNode in="SourceGraphic"/>
      </feMerge>
    </filter>
  </defs>
  <g id="Layer_1">
    <rect class="st22" width="900" height="60"/>
    <line class="st24" x1="60" y1="73" x2="90" y2="73"/>
    <line class="st24" x1="60" y1="228" x2="90" y2="228"/>
    <line class="st24" x1="60" y1="383" x2="90" y2="383"/>
    <line class="st24" x1="60" y1="538" x2="90" y2="538"/>
    <line class="st24" x1="60" y1="693" x2="90" y2="693"/>
    <line class="st24" x1="60" y1="848" x2="90" y2="848"/>
    <line class="st24" x1="60" y1="73" x2="60" y2="848"/>
    <line class="st24" x1="90" y1="73" x2="90" y2="848"/>
    <g class="st21">
      <rect class="st22" x="120" y="77" width="740" height="140" rx="10" ry="10"/>
    </g>
    <g class="st18">
      <rect class="st15" x="120" y="232" width="740" height="140" rx="10" ry="10"/>
    </g>
    <g class="st19">
      <rect class="st23" x="120" y="387" width="740" height="140" rx="10" ry="10"/>
    </g>
    <g class="st17">
      <rect class="st20" x="120" y="542" width="740" height="140" rx="10" ry="10"/>
    </g>
    <g class="st25">
      <rect class="st16" x="120" y="697" width="740" height="140" rx="10" ry="10"/>
    </g>
  </g>
  <g id="Layer_2">
    <text class="st5" transform="translate(33.27 37)"><tspan x="0" y="0">MSME Opportunity Ladder — Five Rungs of Entry</tspan></text>
    <text class="st13" transform="translate(788.09 30)"><tspan x="0" y="0">FIGURE 16</tspan></text>
    <text class="st4" transform="translate(561.14 50)"><tspan x="0" y="0">From sub-Rs 10L niches to Rs 25cr+ strategic supplier roles</tspan></text>
    <text class="st8" transform="translate(22.35 891.37) scale(.97 1)"><tspan x="0" y="0">INDIA SEMICONDUCTOR INTELLIGENCE 2026 · WHO REALLY BENEFITS FROM INDIA&apos;S FAB ECOSYSTEM?</tspan></text>
    <text class="st12" transform="translate(816.6 891.37)"><tspan x="0" y="0">FIG 16 / 30</tspan></text>
    <text class="st10" transform="translate(133.27 113)"><tspan x="0" y="0">RUNG 5</tspan></text>
    <text class="st11" transform="translate(133.27 141)"><tspan x="0" y="0">Rs 25 cr+</tspan></text>
    <text class="st9" transform="translate(133.27 163)"><tspan x="0" y="0">Strategic supplier</tspan></text>
    <text class="st1" transform="translate(305.04 117.72)"><tspan x="0" y="0">· Substrate manufacturing (BT/HDI)</tspan></text>
    <text class="st1" transform="translate(575.04 117.72)"><tspan x="0" y="0">· Advanced consumables (CMP pad, slurry)</tspan></text>
    <text class="st1" transform="translate(305.04 139.72)"><tspan x="0" y="0">· PCB high-multilayer</tspan></text>
    <text class="st1" transform="translate(575.04 139.72)"><tspan x="0" y="0">· Lead-frame manufacturing</tspan></text>
    <text class="st1" transform="translate(305.04 161.72)"><tspan x="0" y="0">· Precision optics modules</tspan></text>
    <text class="st1" transform="translate(575.04 161.72)"><tspan x="0" y="0">· Wafer carriers (FOUP)</tspan></text>
    <text class="st10" transform="translate(133.27 268)"><tspan x="0" y="0">RUNG 4</tspan></text>
    <text class="st11" transform="translate(133.27 296)"><tspan x="0" y="0">Rs 5-25 cr</tspan></text>
    <text class="st9" transform="translate(133.27 318)"><tspan x="0" y="0">Sub-assemblies &amp; precision</tspan></text>
    <text class="st1" transform="translate(305.04 272.72)"><tspan x="0" y="0">· CNC precision machining (±5 µm)</tspan></text>
    <text class="st1" transform="translate(575.04 272.72)"><tspan x="0" y="0">· Sub-assemblies for OSAT</tspan></text>
    <text class="st1" transform="translate(305.04 294.72)"><tspan x="0" y="0">· Test fixtures</tspan></text>
    <text class="st1" transform="translate(575.04 294.72)"><tspan x="0" y="0">· Custom EMS for fab tools</tspan></text>
    <text class="st1" transform="translate(305.04 316.72)"><tspan x="0" y="0">· Specialised tooling</tspan></text>
    <text class="st1" transform="translate(575.04 316.72)"><tspan x="0" y="0">· Burn-in board assembly</tspan></text>
    <text class="st10" transform="translate(133.27 423)"><tspan x="0" y="0">RUNG 3</tspan></text>
    <text class="st11" transform="translate(133.27 451)"><tspan x="0" y="0">Rs 1-5 cr</tspan></text>
    <text class="st9" transform="translate(133.27 473)"><tspan x="0" y="0">Sockets, harness, waste</tspan></text>
    <text class="st1" transform="translate(305.04 427.72)"><tspan x="0" y="0">· Test sockets (sample volumes)</tspan></text>
    <text class="st1" transform="translate(575.04 427.72)"><tspan x="0" y="0">· Cable harness assemblies</tspan></text>
    <text class="st1" transform="translate(305.04 449.72)"><tspan x="0" y="0">· Hazardous waste handling</tspan></text>
    <text class="st1" transform="translate(575.04 449.72)"><tspan x="0" y="0">· Wafer reclaim / recovery</tspan></text>
    <text class="st1" transform="translate(305.04 471.72)"><tspan x="0" y="0">· Custom labelling</tspan></text>
    <text class="st1" transform="translate(575.04 471.72)"><tspan x="0" y="0">· PCB stencil printing</tspan></text>
    <text class="st10" transform="translate(133.27 578)"><tspan x="0" y="0">RUNG 2</tspan></text>
    <text class="st11" transform="translate(133.27 606)"><tspan x="0" y="0">Rs 10L-1 cr</tspan></text>
    <text class="st9" transform="translate(133.27 628)"><tspan x="0" y="0">T&amp;R packaging, garments</tspan></text>
    <text class="st1" transform="translate(305.04 582.72)"><tspan x="0" y="0">· Tape &amp; reel packaging</tspan></text>
    <text class="st1" transform="translate(575.04 582.72)"><tspan x="0" y="0">· Stencil cleaning</tspan></text>
    <text class="st1" transform="translate(305.04 604.72)"><tspan x="0" y="0">· Cleanroom garment laundry</tspan></text>
    <text class="st1" transform="translate(575.04 604.72)"><tspan x="0" y="0">· Anti-static packaging</tspan></text>
    <text class="st1" transform="translate(305.04 626.72)"><tspan x="0" y="0">· Custom signage / labels</tspan></text>
    <text class="st1" transform="translate(575.04 626.72)"><tspan x="0" y="0">· Specialty fastener supply</tspan></text>
    <text class="st7" transform="translate(133.27 733)"><tspan x="0" y="0">RUNG 1</tspan></text>
    <text class="st2" transform="translate(133.27 761)"><tspan x="0" y="0">Sub Rs 10L</tspan></text>
    <text class="st3" transform="translate(133.27 783)"><tspan x="0" y="0">Cleaning, calibration</tspan></text>
    <text class="st14" transform="translate(305.04 737.72)"><tspan x="0" y="0">· Cleanroom cleaning crews</tspan></text>
    <text class="st14" transform="translate(575.04 737.72)"><tspan x="0" y="0">· Tool calibration (NABL)</tspan></text>
    <text class="st14" transform="translate(305.04 759.72)"><tspan x="0" y="0">· Glassware cleaning</tspan></text>
    <text class="st14" transform="translate(575.04 759.72)"><tspan x="0" y="0">· Records &amp; document mgmt</tspan></text>
    <text class="st14" transform="translate(305.04 781.72)"><tspan x="0" y="0">· Plant-floor housekeeping</tspan></text>
    <text class="st14" transform="translate(575.04 781.72)"><tspan x="0" y="0">· Wipe / consumable supply</tspan></text>
    <text class="st6" transform="translate(250.02 854.26)"><tspan x="0" y="0">~30 distinct MSME entry points · ascending capex, capability and stickiness</tspan></text>
    <text class="st0" transform="translate(204.36 872.26)"><tspan x="0" y="0">Start at Rung 1 or 2; reinvest cash-flow to climb. Most successful MSMEs operate at 2-3 rungs simultaneously.</tspan></text>
  </g>
</svg>