<?xml version="1.0" encoding="UTF-8"?>
<svg xmlns="http://www.w3.org/2000/svg" version="1.1" xmlns:xlink="http://www.w3.org/1999/xlink" viewBox="0 0 900 700">
  <!-- Generator: Adobe Illustrator 30.4.0, SVG Export Plug-In . SVG Version: 2.1.4 Build 226)  -->
  <defs>
    <style>
      .st0 {
        font-size: 12px;
      }

      .st0, .st1, .st2, .st3, .st4, .st5, .st6, .st7, .st8, .st9, .st10, .st11, .st12 {
        isolation: isolate;
      }

      .st0, .st1, .st2, .st5, .st8, .st10, .st11 {
        font-family: ArialMT, Arial;
      }

      .st0, .st11 {
        fill: #6b7280;
      }

      .st13 {
        fill: #2e6497;
      }

      .st1, .st2, .st3, .st6, .st9, .st10 {
        fill: #fff;
      }

      .st1, .st3, .st4, .st8 {
        font-size: 15px;
      }

      .st14 {
        filter: url(#soft3);
      }

      .st15 {
        fill: #3b7ebf;
      }

      .st2 {
        font-size: 8px;
        letter-spacing: .06em;
      }

      .st16 {
        filter: url(#soft1);
      }

      .st17 {
        filter: url(#soft2);
      }

      .st3, .st4, .st6, .st7, .st9, .st12 {
        font-family: Arial-BoldMT, Arial;
        font-weight: 700;
      }

      .st4, .st8 {
        fill: #111827;
      }

      .st18 {
        fill: #ef4444;
      }

      .st19 {
        filter: url(#soft6);
      }

      .st20 {
        filter: url(#soft7);
      }

      .st5 {
        font-size: 11px;
      }

      .st5, .st21 {
        fill: #e5e7eb;
      }

      .st22, .st7, .st12 {
        fill: #c9a84c;
      }

      .st23 {
        filter: url(#soft5);
      }

      .st6 {
        font-size: 20px;
      }

      .st24 {
        filter: url(#soft);
      }

      .st7 {
        letter-spacing: .11em;
      }

      .st7, .st10, .st11 {
        font-size: 9px;
      }

      .st25 {
        fill: #008382;
      }

      .st26 {
        fill: #0b1b3b;
      }

      .st27 {
        fill: #14b8a6;
      }

      .st9 {
        font-size: 13px;
      }

      .st11 {
        letter-spacing: .06em;
      }

      .st12 {
        font-size: 10px;
        letter-spacing: .15em;
      }

      .st28 {
        filter: url(#soft4);
      }
    </style>
    <filter id="soft" x="-10%" y="-10%" width="120%" height="120%">
      <feGaussianBlur in="SourceAlpha" stdDeviation="2"/>
      <feOffset dx="0" dy="1"/>
      <feComponentTransfer>
        <feFuncA slope="0.25" type="linear"/>
      </feComponentTransfer>
      <feMerge>
        <feMergeNode/>
        <feMergeNode in="SourceGraphic"/>
      </feMerge>
    </filter>
    <filter id="soft1" data-name="soft" x="-10%" y="-10%" width="120%" height="120%">
      <feGaussianBlur in="SourceAlpha" stdDeviation="2"/>
      <feOffset dx="0" dy="1"/>
      <feComponentTransfer>
        <feFuncA slope="0.25" type="linear"/>
      </feComponentTransfer>
      <feMerge>
        <feMergeNode/>
        <feMergeNode in="SourceGraphic"/>
      </feMerge>
    </filter>
    <filter id="soft2" data-name="soft" x="-10%" y="-10%" width="120%" height="120%">
      <feGaussianBlur in="SourceAlpha" stdDeviation="2"/>
      <feOffset dx="0" dy="1"/>
      <feComponentTransfer>
        <feFuncA slope="0.25" type="linear"/>
      </feComponentTransfer>
      <feMerge>
        <feMergeNode/>
        <feMergeNode in="SourceGraphic"/>
      </feMerge>
    </filter>
    <filter id="soft3" data-name="soft" x="-10%" y="-10%" width="120%" height="120%">
      <feGaussianBlur in="SourceAlpha" stdDeviation="2"/>
      <feOffset dx="0" dy="1"/>
      <feComponentTransfer>
        <feFuncA slope="0.25" type="linear"/>
      </feComponentTransfer>
      <feMerge>
        <feMergeNode/>
        <feMergeNode in="SourceGraphic"/>
      </feMerge>
    </filter>
    <filter id="soft4" data-name="soft" x="-10%" y="-10%" width="120%" height="120%">
      <feGaussianBlur in="SourceAlpha" stdDeviation="2"/>
      <feOffset dx="0" dy="1"/>
      <feComponentTransfer>
        <feFuncA slope="0.25" type="linear"/>
      </feComponentTransfer>
      <feMerge>
        <feMergeNode/>
        <feMergeNode in="SourceGraphic"/>
      </feMerge>
    </filter>
    <filter id="soft5" data-name="soft" x="-10%" y="-10%" width="120%" height="120%">
      <feGaussianBlur in="SourceAlpha" stdDeviation="2"/>
      <feOffset dx="0" dy="1"/>
      <feComponentTransfer>
        <feFuncA slope="0.25" type="linear"/>
      </feComponentTransfer>
      <feMerge>
        <feMergeNode/>
        <feMergeNode in="SourceGraphic"/>
      </feMerge>
    </filter>
    <filter id="soft6" data-name="soft" x="-10%" y="-10%" width="120%" height="120%">
      <feGaussianBlur in="SourceAlpha" stdDeviation="2"/>
      <feOffset dx="0" dy="1"/>
      <feComponentTransfer>
        <feFuncA slope="0.25" type="linear"/>
      </feComponentTransfer>
      <feMerge>
        <feMergeNode/>
        <feMergeNode in="SourceGraphic"/>
      </feMerge>
    </filter>
    <filter id="soft7" data-name="soft" x="-10%" y="-10%" width="120%" height="120%">
      <feGaussianBlur in="SourceAlpha" stdDeviation="2"/>
      <feOffset dx="0" dy="1"/>
      <feComponentTransfer>
        <feFuncA slope="0.25" type="linear"/>
      </feComponentTransfer>
      <feMerge>
        <feMergeNode/>
        <feMergeNode in="SourceGraphic"/>
      </feMerge>
    </filter>
  </defs>
  <g id="Layer_2">
    <g class="st24">
      <rect class="st22" x="176.9" y="68.77" width="700" height="65" rx="8" ry="8"/>
    </g>
    <g class="st16">
      <rect class="st13" x="176.9" y="141.77" width="700" height="65" rx="8" ry="8"/>
    </g>
    <g class="st17">
      <rect class="st27" x="176.9" y="214.77" width="700" height="65" rx="8" ry="8"/>
    </g>
    <g class="st14">
      <rect class="st15" x="176.9" y="287.77" width="700" height="65" rx="8" ry="8"/>
    </g>
    <g class="st28">
      <rect class="st13" x="176.9" y="360.77" width="700" height="65" rx="8" ry="8"/>
    </g>
    <g class="st23">
      <rect class="st13" x="176.9" y="433.77" width="700" height="65" rx="8" ry="8"/>
    </g>
    <g class="st19">
      <rect class="st26" x="176.9" y="506.77" width="700" height="65" rx="8" ry="8"/>
    </g>
    <g class="st20">
      <rect class="st22" x="176.9" y="579.77" width="700" height="65" rx="8" ry="8"/>
    </g>
  </g>
  <g id="Layer_1">
    <rect class="st26" x="-1" width="901" height="60"/>
    <text class="st6" transform="translate(14.54 38)"><tspan x="0" y="0">Semiconductor Infrastructure Stack</tspan></text>
    <text class="st12" transform="translate(806.32 23.42)"><tspan x="0" y="0">FIGURE 10</tspan></text>
    <text class="st5" transform="translate(491.12 49.99)"><tspan x="0" y="0">Eight infrastructure layers required, with India&apos;s 2025 readiness benchmarked</tspan></text>
    <text class="st11" transform="translate(15.24 688.4)"><tspan x="0" y="0">INDIA SEMICONDUCTOR INTELLIGENCE 2026 · WHO REALLY BENEFITS FROM INDIA&apos;S FAB ECOSYSTEM?</tspan></text>
    <text class="st11" transform="translate(829.04 688.51)"><tspan x="0" y="0">FIG 10 / 30</tspan></text>
    <text class="st4" transform="translate(185.88 92.31)"><tspan x="0" y="0">Logistics corridors</tspan></text>
    <text class="st8" transform="translate(185.88 115.31)"><tspan x="0" y="0">Expressways, dedicated freight, air-cargo, customs</tspan></text>
    <rect class="st26" x="25.88" y="79.31" width="120" height="40" rx="6" ry="6"/>
    <text class="st7" transform="translate(63.79 97.31)"><tspan x="0" y="0">LAYER 8</tspan></text>
    <text class="st10" transform="translate(59.63 112.31)"><tspan x="0" y="0">infrastructure</tspan></text>
    <path class="st21" d="M624.77,88.31h198c6.08,0,11,4.92,11,11h0c0,6.08-4.92,11-11,11h-198c-6.08,0-11-4.92-11-11h0c0-6.08,4.92-11,11-11Z"/>
    <path class="st27" d="M624.77,88.31h143c6.08,0,11,4.92,11,11h0c0,6.08-4.92,11-11,11h-143c-6.08,0-11-4.92-11-11h0c0-6.08,4.92-11,11-11Z"/>
    <text class="st9" transform="translate(839.17 103.81)"><tspan x="0" y="0">75%</tspan></text>
    <text class="st2" transform="translate(613.77 81.31)"><tspan x="0" y="0">READINESS 2025</tspan></text>
    <text class="st3" transform="translate(185.88 165.31)"><tspan x="0" y="0">Housing + townships</tspan></text>
    <text class="st1" transform="translate(185.88 188.31)"><tspan x="0" y="0">Workforce 50K+ per cluster; talent retention</tspan></text>
    <rect class="st26" x="25.88" y="152.31" width="120" height="40" rx="6" ry="6"/>
    <text class="st7" transform="translate(63.79 170.31)"><tspan x="0" y="0">LAYER 7</tspan></text>
    <text class="st10" transform="translate(59.63 185.31)"><tspan x="0" y="0">infrastructure</tspan></text>
    <path class="st21" d="M624.77,161.31h198c6.08,0,11,4.92,11,11h0c0,6.08-4.92,11-11,11h-198c-6.08,0-11-4.92-11-11h0c0-6.08,4.92-11,11-11Z"/>
    <path class="st22" d="M624.77,161.31h99c6.08,0,11,4.92,11,11h0c0,6.08-4.92,11-11,11h-99c-6.08,0-11-4.92-11-11h0c0-6.08,4.92-11,11-11Z"/>
    <text class="st9" transform="translate(839.17 176.81)"><tspan x="0" y="0">55%</tspan></text>
    <text class="st2" transform="translate(613.77 154.31)"><tspan x="0" y="0">READINESS 2025</tspan></text>
    <text class="st3" transform="translate(185.88 238.31)"><tspan x="0" y="0">IT + automation networks</tspan></text>
    <text class="st1" transform="translate(185.88 261.31)"><tspan x="0" y="0">ERP, MES, SCADA, Industry 4.0 backbone</tspan></text>
    <rect class="st26" x="25.88" y="225.31" width="120" height="40" rx="6" ry="6"/>
    <text class="st7" transform="translate(63.79 243.31)"><tspan x="0" y="0">LAYER 6</tspan></text>
    <text class="st10" transform="translate(59.63 258.31)"><tspan x="0" y="0">infrastructure</tspan></text>
    <path class="st21" d="M624.77,234.31h198c6.08,0,11,4.92,11,11h0c0,6.08-4.92,11-11,11h-198c-6.08,0-11-4.92-11-11h0c0-6.08,4.92-11,11-11Z"/>
    <path class="st25" d="M624.77,234.31h132c6.08,0,11,4.92,11,11h0c0,6.08-4.92,11-11,11h-132c-6.08,0-11-4.92-11-11h0c0-6.08,4.92-11,11-11Z"/>
    <text class="st9" transform="translate(839.17 249.81)"><tspan x="0" y="0">70%</tspan></text>
    <text class="st2" transform="translate(613.77 227.31)"><tspan x="0" y="0">READINESS 2025</tspan></text>
    <text class="st4" transform="translate(185.88 311.31)"><tspan x="0" y="0">Gas + chemical distribution</tspan></text>
    <text class="st8" transform="translate(185.88 334.31)"><tspan x="0" y="0">Bulk N2, O2, H2, HF, NH3 pipelines + ISO tanks</tspan></text>
    <rect class="st26" x="25.88" y="298.31" width="120" height="40" rx="6" ry="6"/>
    <text class="st7" transform="translate(63.79 316.31)"><tspan x="0" y="0">LAYER 5</tspan></text>
    <text class="st10" transform="translate(59.63 331.31)"><tspan x="0" y="0">infrastructure</tspan></text>
    <path class="st21" d="M624.77,307.31h198c6.08,0,11,4.92,11,11h0c0,6.08-4.92,11-11,11h-198c-6.08,0-11-4.92-11-11h0c0-6.08,4.92-11,11-11Z"/>
    <path class="st18" d="M624.77,307.31h55c6.08,0,11,4.92,11,11h0c0,6.08-4.92,11-11,11h-55c-6.08,0-11-4.92-11-11h0c0-6.08,4.92-11,11-11Z"/>
    <text class="st9" transform="translate(839.17 322.81)"><tspan x="0" y="0">35%</tspan></text>
    <text class="st2" transform="translate(613.77 300.31)"><tspan x="0" y="0">READINESS 2025</tspan></text>
    <text class="st3" transform="translate(185.88 384.31)"><tspan x="0" y="0">HVAC + cleanroom</tspan></text>
    <text class="st1" transform="translate(185.88 407.31)"><tspan x="0" y="0">ISO Class 5 spec · ±0.5°C · ±5% RH</tspan></text>
    <rect class="st26" x="25.88" y="371.31" width="120" height="40" rx="6" ry="6"/>
    <text class="st7" transform="translate(63.79 389.31)"><tspan x="0" y="0">LAYER 4</tspan></text>
    <text class="st10" transform="translate(59.63 404.31)"><tspan x="0" y="0">infrastructure</tspan></text>
    <path class="st21" d="M624.77,380.31h198c6.08,0,11,4.92,11,11h0c0,6.08-4.92,11-11,11h-198c-6.08,0-11-4.92-11-11h0c0-6.08,4.92-11,11-11Z"/>
    <path class="st22" d="M624.77,380.31h88c6.08,0,11,4.92,11,11h0c0,6.08-4.92,11-11,11h-88c-6.08,0-11-4.92-11-11h0c0-6.08,4.92-11,11-11Z"/>
    <text class="st9" transform="translate(839.17 395.81)"><tspan x="0" y="0">50%</tspan></text>
    <text class="st2" transform="translate(613.77 373.31)"><tspan x="0" y="0">READINESS 2025</tspan></text>
    <text class="st3" transform="translate(185.88 457.31)"><tspan x="0" y="0">Power generation + conditioning</tspan></text>
    <text class="st1" transform="translate(185.88 480.31)"><tspan x="0" y="0">220kV grid + 99.999% PQ + captive RE PPA</tspan></text>
    <rect class="st26" x="25.88" y="444.31" width="120" height="40" rx="6" ry="6"/>
    <text class="st7" transform="translate(63.79 462.31)"><tspan x="0" y="0">LAYER 3</tspan></text>
    <text class="st10" transform="translate(59.63 477.31)"><tspan x="0" y="0">infrastructure</tspan></text>
    <path class="st21" d="M624.77,453.31h198c6.08,0,11,4.92,11,11h0c0,6.08-4.92,11-11,11h-198c-6.08,0-11-4.92-11-11h0c0-6.08,4.92-11,11-11Z"/>
    <path class="st22" d="M624.77,453.31h110c6.08,0,11,4.92,11,11h0c0,6.08-4.92,11-11,11h-110c-6.08,0-11-4.92-11-11h0c0-6.08,4.92-11,11-11Z"/>
    <text class="st9" transform="translate(839.17 468.81)"><tspan x="0" y="0">60%</tspan></text>
    <text class="st2" transform="translate(613.77 446.31)"><tspan x="0" y="0">READINESS 2025</tspan></text>
    <text class="st3" transform="translate(185.88 530.31)"><tspan x="0" y="0">Water (raw + ultra-pure)</tspan></text>
    <text class="st1" transform="translate(185.88 553.31)"><tspan x="0" y="0">Bulk source allocation + UPW (18.2 MΩ)</tspan></text>
    <rect class="st26" x="25.88" y="517.31" width="120" height="40" rx="6" ry="6"/>
    <text class="st7" transform="translate(63.79 535.31)"><tspan x="0" y="0">LAYER 2</tspan></text>
    <text class="st10" transform="translate(59.63 550.31)"><tspan x="0" y="0">infrastructure</tspan></text>
    <path class="st21" d="M624.77,526.31h198c6.08,0,11,4.92,11,11h0c0,6.08-4.92,11-11,11h-198c-6.08,0-11-4.92-11-11h0c0-6.08,4.92-11,11-11Z"/>
    <path class="st18" d="M624.77,526.31h44c6.08,0,11,4.92,11,11h0c0,6.08-4.92,11-11,11h-44c-6.08,0-11-4.92-11-11h0c0-6.08,4.92-11,11-11Z"/>
    <text class="st9" transform="translate(839.17 541.81)"><tspan x="0" y="0">30%</tspan></text>
    <text class="st2" transform="translate(613.77 519.31)"><tspan x="0" y="0">READINESS 2025</tspan></text>
    <text class="st4" transform="translate(185.88 603.31)"><tspan x="0" y="0">Land + RE zoning</tspan></text>
    <text class="st8" transform="translate(185.88 626.31)"><tspan x="0" y="0">Notified industrial parks + single-window clearance</tspan></text>
    <rect class="st26" x="25.88" y="590.31" width="120" height="40" rx="6" ry="6"/>
    <text class="st7" transform="translate(63.79 608.31)"><tspan x="0" y="0">LAYER 1</tspan></text>
    <text class="st10" transform="translate(59.63 623.31)"><tspan x="0" y="0">infrastructure</tspan></text>
    <path class="st21" d="M624.77,599.31h198c6.08,0,11,4.92,11,11h0c0,6.08-4.92,11-11,11h-198c-6.08,0-11-4.92-11-11h0c0-6.08,4.92-11,11-11Z"/>
    <path class="st27" d="M624.77,599.31h154c6.08,0,11,4.92,11,11h0c0,6.08-4.92,11-11,11h-154c-6.08,0-11-4.92-11-11h0c0-6.08,4.92-11,11-11Z"/>
    <text class="st9" transform="translate(839.17 614.81)"><tspan x="0" y="0">80%</tspan></text>
    <text class="st2" transform="translate(613.77 592.31)"><tspan x="0" y="0">READINESS 2025</tspan></text>
    <text class="st0" transform="translate(409.91 663.31)"><tspan x="0" y="0">Composite readiness 57% · water and gas-distribution remain the binding constraints</tspan></text>
  </g>
</svg>