<?xml version="1.0" encoding="UTF-8"?>
<svg id="Layer_1" xmlns="http://www.w3.org/2000/svg" version="1.1" viewBox="0 0 1200 800">
  <!-- Generator: Adobe Illustrator 30.4.0, SVG Export Plug-In . SVG Version: 2.1.4 Build 226)  -->
  <defs>
    <style>
      .st0, .st1, .st2, .st3, .st4, .st5, .st6, .st7, .st8, .st9, .st10, .st11, .st12, .st13, .st14, .st15 {
        isolation: isolate;
      }

      .st0, .st2, .st3, .st5, .st16, .st9, .st10, .st13 {
        font-size: 12px;
      }

      .st0, .st3, .st4, .st9, .st11, .st13 {
        font-family: ArialMT, Arial;
      }

      .st0, .st11 {
        fill: #6b7280;
      }

      .st17, .st18 {
        fill: #2e6497;
      }

      .st1 {
        font-size: 14px;
      }

      .st1, .st2, .st5, .st6, .st7, .st8, .st10, .st12, .st14, .st15 {
        font-family: Arial-BoldMT, Arial;
        font-weight: 700;
      }

      .st1, .st4, .st9, .st10, .st15 {
        fill: #fff;
      }

      .st19, .st18, .st20, .st21, .st22, .st23 {
        stroke: #0b1b3b;
        stroke-width: .39px;
      }

      .st19, .st24 {
        fill: #14b8a6;
      }

      .st25, .st23 {
        fill: #3b7ebf;
      }

      .st2, .st3, .st5, .st6, .st7, .st8 {
        fill: #111827;
      }

      .st26, .st22 {
        fill: #5eead4;
      }

      .st20 {
        fill: #f5ebc8;
      }

      .st21, .st27 {
        fill: #0b1b3b;
      }

      .st4, .st7 {
        font-size: 11px;
      }

      .st28, .st12, .st14 {
        fill: #c9a84c;
      }

      .st5 {
        letter-spacing: .04em;
      }

      .st6, .st14 {
        font-size: 13px;
      }

      .st29 {
        fill: #f8fafc;
        stroke: #e5e7eb;
      }

      .st16 {
        font-family: MyriadPro-Regular, 'Myriad Pro';
      }

      .st8 {
        letter-spacing: .05em;
      }

      .st8, .st12 {
        font-size: 10px;
      }

      .st10 {
        letter-spacing: .05em;
      }

      .st11 {
        font-size: 9px;
        letter-spacing: .06em;
      }

      .st12 {
        letter-spacing: .15em;
      }

      .st13 {
        fill: #e5e7eb;
      }

      .st15 {
        font-size: 21px;
      }
    </style>
  </defs>
  <rect class="st27" y="0" width="1200" height="60"/>
  <text class="st15" transform="translate(40 38)"><tspan x="0" y="0">Industrial Multiplier Cascade</tspan></text>
  <text class="st12" transform="translate(1094.8203 24)"><tspan x="0" y="0">FIGURE 04</tspan></text>
  <text class="st13" transform="translate(920.76 49.71)"><tspan x="0" y="0">How one fab radiates into ~2,750 enterprises</tspan></text>
  <text class="st11" transform="translate(40 789)"><tspan x="0" y="0">INDIA SEMICONDUCTOR INTELLIGENCE 2026 · WHO REALLY BENEFITS FROM INDIA&apos;S FAB ECOSYSTEM?</tspan></text>
  <text class="st11" transform="translate(1109.478 785)"><tspan x="0" y="0">FIG 04 / 30</tspan></text>
  <circle class="st20" cx="450" cy="420.58" r="351"/>
  <circle class="st22" cx="450" cy="420.58" r="288.6"/>
  <circle class="st19" cx="450" cy="420.58" r="226.2"/>
  <circle class="st23" cx="450" cy="420.58" r="163.8"/>
  <circle class="st18" cx="450" cy="420.58" r="101.4"/>
  <circle class="st21" cx="450" cy="420.58" r="46.8"/>
  <text class="st1" transform="translate(436 417.58)"><tspan x="0" y="0">FAB</tspan></text>
  <text class="st9" transform="translate(427.74 434.58)"><tspan x="0" y="0">1 facility</tspan></text>
  <text class="st10" transform="translate(426.72 345.39)"><tspan x="0" y="0">DIRECT</tspan></text>
  <text class="st4" transform="translate(378 365.17)"><tspan x="0" y="0">+10 OSAT · EMS · equipment</tspan></text>
  <text class="st10" transform="translate(421.45 286)"><tspan x="0" y="0">INDIRECT</tspan></text>
  <text class="st9" transform="translate(360.9 307)"><tspan x="0" y="0">+50 chemicals · gases · logistics</tspan></text>
  <text class="st10" transform="translate(400.9 224)"><tspan x="0" y="0">SUPPLIER MSMEs</tspan></text>
  <text class="st9" transform="translate(356.33 245)"><tspan x="0" y="0">+200 precision · consumables · test</tspan></text>
  <text class="st8" transform="translate(920 58)"><tspan x="0" y="0">HIDDEN INDUSTRIES</tspan></text>
  <text class="st3" transform="translate(345.71 180.75)"><tspan x="0" y="0">+500 HVAC · training · RE · calibration</tspan></text>
  <text class="st8" transform="translate(1000 -22)"><tspan x="0" y="0">SECOND-ORDER</tspan></text>
  <text class="st3" transform="translate(345.32 117.22)"><tspan x="0" y="0">+2,000 housing · retail · services · F&amp;B</tspan></text>
  <rect class="st29" x="860.58" y="142.12" width="260" height="540" rx="8" ry="8"/>
  <text class="st5" transform="translate(880.58 167.12)"><tspan x="0" y="0">CUMULATIVE COUNT</tspan></text>
  <rect class="st27" x="880.58" y="202.12" width="14" height="22" rx="3" ry="3"/>
  <text class="st7" transform="translate(905.58 218.12)"><tspan x="0" y="0">FAB</tspan></text>
  <text class="st6" transform="translate(1093.3469 218.1154)"><tspan x="0" y="0">1</tspan></text>
  <rect class="st17" x="880.58" y="244.12" width="14" height="22" rx="3" ry="3"/>
  <text class="st7" transform="translate(905.58 260.12)"><tspan x="0" y="0">+ Direct</tspan></text>
  <text class="st6" transform="translate(1086.8342 260.1154)"><tspan x="0" y="0">11</tspan></text>
  <rect class="st25" x="880.58" y="286.12" width="14" height="22" rx="3" ry="3"/>
  <text class="st7" transform="translate(905.58 302.12)"><tspan x="0" y="0">+ Indirect</tspan></text>
  <text class="st6" transform="translate(1086.1169 302.1154)"><tspan x="0" y="0">61</tspan></text>
  <rect class="st24" x="880.58" y="328.12" width="14" height="22" rx="3" ry="3"/>
  <text class="st7" transform="translate(905.58 344.12)"><tspan x="0" y="0">+ MSMEs</tspan></text>
  <text class="st6" transform="translate(1078.887 344.1154)"><tspan x="0" y="0">261</tspan></text>
  <rect class="st26" x="880.58" y="370.12" width="14" height="22" rx="3" ry="3"/>
  <text class="st7" transform="translate(905.58 386.12)"><tspan x="0" y="0">+ Hidden</tspan></text>
  <text class="st6" transform="translate(1078.887 386.1154)"><tspan x="0" y="0">761</tspan></text>
  <rect class="st28" x="880.58" y="412.12" width="14" height="22" rx="3" ry="3"/>
  <text class="st7" transform="translate(905.58 428.12)"><tspan x="0" y="0">+ Second-order</tspan></text>
  <text class="st6" transform="translate(1068.0452 428.1154)"><tspan x="0" y="0">2,761</tspan></text>
  <text class="st0" transform="translate(880.58 562.12)"><tspan x="0" y="0">Tier of indirection · enterprise count</tspan></text>
  <text class="st2" transform="translate(880.58 607.12)"><tspan x="0" y="0">Job multiplier:</tspan></text>
  <text class="st3" transform="translate(880.58 622.12)"><tspan x="0" y="0">1 fab job to 4 indirect to</tspan></text>
  <text class="st3" transform="translate(880.58 636.12)"><tspan x="0" y="0">12 induced employment</tspan></text>
  <text class="st14" transform="translate(880.58 660.12)"><tspan x="0" y="0">~ 17x employment multiplier</tspan></text>
  <text class="st16" transform="translate(429.04 94.19)"><tspan x="0" y="0">HIDDEN</tspan></text>
  <text class="st16" transform="translate(409.85 156.16)"><tspan x="0" y="0">SECOND ORDER</tspan></text>
</svg>