<?xml version="1.0" encoding="UTF-8"?>
<svg xmlns="http://www.w3.org/2000/svg" version="1.1" xmlns:xlink="http://www.w3.org/1999/xlink" viewBox="0 0 1100 560">
  <!-- Generator: Adobe Illustrator 30.4.0, SVG Export Plug-In . SVG Version: 2.1.4 Build 226)  -->
  <defs>
    <style>
      .st0 {
        fill: #2e6497;
      }

      .st1 {
        filter: url(#soft3);
      }

      .st2 {
        filter: url(#soft1);
      }

      .st3 {
        filter: url(#soft2);
      }

      .st4, .st5, .st6, .st7 {
        fill: #fff;
      }

      .st8 {
        fill: #f8fafc;
        stroke: #e5e7eb;
        stroke-width: .95px;
      }

      .st9 {
        fill: none;
      }

      .st10 {
        letter-spacing: .04em;
      }

      .st10, .st11, .st12, .st5, .st13, .st14, .st15, .st16, .st6, .st7, .st17, .st18, .st19, .st20 {
        isolation: isolate;
      }

      .st10, .st11, .st5, .st13, .st14, .st16, .st7, .st18 {
        font-family: Arial-BoldMT, Arial;
        font-weight: 700;
      }

      .st10, .st13, .st7, .st20 {
        font-size: 13px;
      }

      .st10, .st13, .st20 {
        fill: #111827;
      }

      .st21 {
        filter: url(#soft6);
      }

      .st11 {
        font-size: 14px;
        letter-spacing: .04em;
      }

      .st11, .st22, .st18, .st19 {
        fill: #c9a84c;
      }

      .st12, .st14, .st15, .st16 {
        font-size: 11px;
      }

      .st12, .st15, .st6, .st17, .st20 {
        font-family: ArialMT, Arial;
      }

      .st12, .st23 {
        fill: #e5e7eb;
      }

      .st24 {
        filter: url(#soft5);
      }

      .st5 {
        font-size: 20px;
      }

      .st25 {
        filter: url(#soft);
      }

      .st14, .st26, .st16 {
        fill: #0b1b3b;
      }

      .st15 {
        letter-spacing: .05em;
      }

      .st15, .st17 {
        fill: #6b7280;
      }

      .st16 {
        letter-spacing: .05em;
      }

      .st6 {
        font-size: 12px;
      }

      .st17 {
        font-size: 9px;
        letter-spacing: .06em;
      }

      .st18 {
        font-size: 10px;
        letter-spacing: .15em;
      }

      .st19 {
        opacity: .6;
      }

      .st27 {
        filter: url(#soft4);
      }
    </style>
    <filter id="soft" x="-10%" y="-10%" width="120%" height="120%">
      <feGaussianBlur in="SourceAlpha" stdDeviation="2"/>
      <feOffset dx="0" dy="1"/>
      <feComponentTransfer>
        <feFuncA slope="0.25" type="linear"/>
      </feComponentTransfer>
      <feMerge>
        <feMergeNode/>
        <feMergeNode in="SourceGraphic"/>
      </feMerge>
    </filter>
    <filter id="soft1" data-name="soft" x="-10%" y="-10%" width="120%" height="120%">
      <feGaussianBlur in="SourceAlpha" stdDeviation="2"/>
      <feOffset dx="0" dy="1"/>
      <feComponentTransfer>
        <feFuncA slope="0.25" type="linear"/>
      </feComponentTransfer>
      <feMerge>
        <feMergeNode/>
        <feMergeNode in="SourceGraphic"/>
      </feMerge>
    </filter>
    <filter id="soft2" data-name="soft" x="-10%" y="-10%" width="120%" height="120%">
      <feGaussianBlur in="SourceAlpha" stdDeviation="2"/>
      <feOffset dx="0" dy="1"/>
      <feComponentTransfer>
        <feFuncA slope="0.25" type="linear"/>
      </feComponentTransfer>
      <feMerge>
        <feMergeNode/>
        <feMergeNode in="SourceGraphic"/>
      </feMerge>
    </filter>
    <filter id="soft3" data-name="soft" x="-10%" y="-10%" width="120%" height="120%">
      <feGaussianBlur in="SourceAlpha" stdDeviation="2"/>
      <feOffset dx="0" dy="1"/>
      <feComponentTransfer>
        <feFuncA slope="0.25" type="linear"/>
      </feComponentTransfer>
      <feMerge>
        <feMergeNode/>
        <feMergeNode in="SourceGraphic"/>
      </feMerge>
    </filter>
    <filter id="soft4" data-name="soft" x="-10%" y="-10%" width="120%" height="120%">
      <feGaussianBlur in="SourceAlpha" stdDeviation="2"/>
      <feOffset dx="0" dy="1"/>
      <feComponentTransfer>
        <feFuncA slope="0.25" type="linear"/>
      </feComponentTransfer>
      <feMerge>
        <feMergeNode/>
        <feMergeNode in="SourceGraphic"/>
      </feMerge>
    </filter>
    <filter id="soft5" data-name="soft" x="-10%" y="-10%" width="120%" height="120%">
      <feGaussianBlur in="SourceAlpha" stdDeviation="2"/>
      <feOffset dx="0" dy="1"/>
      <feComponentTransfer>
        <feFuncA slope="0.25" type="linear"/>
      </feComponentTransfer>
      <feMerge>
        <feMergeNode/>
        <feMergeNode in="SourceGraphic"/>
      </feMerge>
    </filter>
    <filter id="soft6" data-name="soft" x="-10%" y="-10%" width="120%" height="120%">
      <feGaussianBlur in="SourceAlpha" stdDeviation="2"/>
      <feOffset dx="0" dy="1"/>
      <feComponentTransfer>
        <feFuncA slope="0.25" type="linear"/>
      </feComponentTransfer>
      <feMerge>
        <feMergeNode/>
        <feMergeNode in="SourceGraphic"/>
      </feMerge>
    </filter>
  </defs>
  <g id="Layer_1">
    <rect class="st26" width="1100" height="60"/>
    <g class="st25">
      <rect class="st26" x="9.23" y="86.54" width="145" height="130" rx="10" ry="10"/>
    </g>
    <circle class="st4" cx="140.23" cy="100.54" r="11"/>
    <path class="st9" d=""/>
    <path class="st26" d="M155.43,145.54l12,6-12,6v-12Z"/>
    <path class="st26" d="M166.23,151.54" marker-end="url(#arrow)"/>
    <g class="st2">
      <rect class="st0" x="166.23" y="86.54" width="145" height="130" rx="10" ry="10"/>
    </g>
    <circle class="st4" cx="297.23" cy="100.54" r="11"/>
    <path class="st9" d=""/>
    <path class="st26" d="M312.43,145.54l12,6-12,6v-12Z"/>
    <path class="st26" d="M323.23,151.54" marker-end="url(#arrow)"/>
    <g class="st3">
      <rect class="st0" x="323.23" y="86.54" width="145" height="130" rx="10" ry="10"/>
    </g>
    <circle class="st4" cx="454.23" cy="100.54" r="11"/>
    <path class="st9" d=""/>
    <path class="st26" d="M469.43,145.54l12,6-12,6v-12Z"/>
    <path class="st26" d="M480.23,151.54" marker-end="url(#arrow)"/>
    <g class="st1">
      <rect class="st0" x="480.23" y="86.54" width="145" height="130" rx="10" ry="10"/>
    </g>
    <circle class="st4" cx="611.23" cy="100.54" r="11"/>
    <path class="st9" d=""/>
    <path class="st26" d="M626.43,145.54l12,6-12,6v-12Z"/>
    <path class="st26" d="M637.23,151.54" marker-end="url(#arrow)"/>
    <g class="st27">
      <rect class="st0" x="637.23" y="86.54" width="145" height="130" rx="10" ry="10"/>
    </g>
    <circle class="st4" cx="768.23" cy="100.54" r="11"/>
    <path class="st9" d=""/>
    <path class="st26" d="M783.43,145.54l12,6-12,6v-12Z"/>
    <path class="st26" d="M794.23,151.54" marker-end="url(#arrow)"/>
    <g class="st24">
      <rect class="st0" x="794.23" y="86.54" width="145" height="130" rx="10" ry="10"/>
    </g>
    <circle class="st4" cx="925.23" cy="100.54" r="11"/>
    <path class="st9" d=""/>
    <path class="st26" d="M940.43,145.54l12,6-12,6v-12Z"/>
    <path class="st26" d="M951.23,151.54" marker-end="url(#arrow)"/>
    <g class="st21">
      <rect class="st22" x="951.23" y="86.54" width="145" height="130" rx="10" ry="10"/>
    </g>
    <circle class="st4" cx="1082.23" cy="100.54" r="11"/>
    <rect class="st23" x="4.65" y="248.08" width="1087" height="30" rx="6" ry="6"/>
    <path class="st9" d=""/>
    <path class="st19" d="M308.23,151.54" marker-end="url(#arrowG)"/>
    <path class="st9" d=""/>
    <path class="st19" d="M465.23,151.54" marker-end="url(#arrowG)"/>
    <path class="st9" d=""/>
    <path class="st19" d="M622.23,151.54" marker-end="url(#arrowG)"/>
    <rect class="st8" x="18.15" y="359.23" width="1060" height="162.93" rx="8" ry="8"/>
  </g>
  <g id="Layer_3">
    <text class="st5" transform="translate(18.15 39.16)"><tspan x="0" y="0">Vendor Qualification Flowchart</tspan></text>
    <text class="st18" transform="translate(1018.7305 29.7826)"><tspan x="0" y="0">FIGURE 08</tspan></text>
    <text class="st12" transform="translate(675.93 47.17)"><tspan x="0" y="0">From MSME registration to Approved Vendor status — typical 18-24 month gauntlet</tspan></text>
    <text class="st17" transform="translate(4.91 551.11)"><tspan x="0" y="0">INDIA SEMICONDUCTOR INTELLIGENCE 2026 · WHO REALLY BENEFITS FROM INDIA&apos;S FAB ECOSYSTEM?</tspan></text>
    <text class="st17" transform="translate(1036.7058 551.0047)"><tspan x="0" y="0">FIG 08 / 30</tspan></text>
    <text class="st7" transform="translate(62.29 110.54)"><tspan x="0" y="0">MSME</tspan></text>
    <text class="st6" transform="translate(36.27 156.54)"><tspan x="0" y="0">Udyam registered</tspan></text>
    <text class="st6" transform="translate(52.78 170.54)"><tspan x="0" y="0">ISO 9001</tspan></text>
    <text class="st14" transform="translate(137.23 104.54)"><tspan x="0" y="0">1</tspan></text>
    <text class="st7" transform="translate(226.27 110.54)"><tspan x="0" y="0">AVL</tspan></text>
    <text class="st7" transform="translate(213.15 126.54)"><tspan x="0" y="0">LISTING</tspan></text>
    <text class="st6" transform="translate(193.27 156.54)"><tspan x="0" y="0">Capability dossier</tspan></text>
    <text class="st6" transform="translate(196.27 170.54)"><tspan x="0" y="0">Financial vetting</tspan></text>
    <text class="st6" transform="translate(208.28 184.54)"><tspan x="0" y="0">3-4 weeks</tspan></text>
    <text class="st14" transform="translate(294.23 104.54)"><tspan x="0" y="0">2</tspan></text>
    <text class="st7" transform="translate(378.57 110.54)"><tspan x="0" y="0">PPAP</tspan></text>
    <text class="st7" transform="translate(370.87 126.54)"><tspan x="0" y="0">SUBMIT</tspan></text>
    <text class="st6" transform="translate(358.78 156.54)"><tspan x="0" y="0">Process docs</tspan></text>
    <text class="st6" transform="translate(362.03 170.54)"><tspan x="0" y="0">Quality plan</tspan></text>
    <text class="st6" transform="translate(359.61 184.54)"><tspan x="0" y="0">CAPA history</tspan></text>
    <text class="st6" transform="translate(362.78 198.54)"><tspan x="0" y="0">8-10 weeks</tspan></text>
    <text class="st14" transform="translate(451.23 104.54)"><tspan x="0" y="0">3</tspan></text>
    <text class="st7" transform="translate(525.7 110.54)"><tspan x="0" y="0">SAMPLE</tspan></text>
    <text class="st7" transform="translate(530.52 126.54)"><tspan x="0" y="0">BATCH</tspan></text>
    <text class="st6" transform="translate(520.52 156.54)"><tspan x="0" y="0">20-100 pcs</tspan></text>
    <text class="st6" transform="translate(495.14 170.54)"><tspan x="0" y="0">Dimensional + electrical</tspan></text>
    <text class="st6" transform="translate(522.28 184.54)"><tspan x="0" y="0">4-6 weeks</tspan></text>
    <text class="st14" transform="translate(608.23 104.54)"><tspan x="0" y="0">4</tspan></text>
    <text class="st7" transform="translate(680.18 110.54)"><tspan x="0" y="0">3-MONTH</tspan></text>
    <text class="st7" transform="translate(689.93 126.54)"><tspan x="0" y="0">AUDIT</tspan></text>
    <text class="st6" transform="translate(672.15 156.54)"><tspan x="0" y="0">Cp/Cpk &gt;1.67</tspan></text>
    <text class="st6" transform="translate(670.52 170.54)"><tspan x="0" y="0">Incoming audit</tspan></text>
    <text class="st6" transform="translate(666.52 184.54)"><tspan x="0" y="0">ESH compliance</tspan></text>
    <text class="st14" transform="translate(765.23 104.54)"><tspan x="0" y="0">5</tspan></text>
    <text class="st7" transform="translate(837.18 110.54)"><tspan x="0" y="0">6-MONTH</tspan></text>
    <text class="st7" transform="translate(816.84 126.54)"><tspan x="0" y="0">PARALLEL RUN</tspan></text>
    <text class="st6" transform="translate(831.78 156.54)"><tspan x="0" y="0">Side-by-side</tspan></text>
    <text class="st6" transform="translate(821.02 170.54)"><tspan x="0" y="0">incumbent vendor</tspan></text>
    <text class="st6" transform="translate(824.95 184.54)"><tspan x="0" y="0">Yield/PPM track</tspan></text>
    <text class="st14" transform="translate(922.23 104.54)"><tspan x="0" y="0">6</tspan></text>
    <text class="st7" transform="translate(987.31 110.54)"><tspan x="0" y="0">APPROVED</tspan></text>
    <text class="st7" transform="translate(995.98 126.54)"><tspan x="0" y="0">VENDOR</tspan></text>
    <text class="st6" transform="translate(985.52 156.54)"><tspan x="0" y="0">Annual review</tspan></text>
    <text class="st6" transform="translate(987.28 170.54)"><tspan x="0" y="0">Volume ramp</tspan></text>
    <text class="st6" transform="translate(979.03 184.54)"><tspan x="0" y="0">Rs 5-50 cr orders</tspan></text>
    <text class="st14" transform="translate(1079.2303 104.5383)"><tspan x="0" y="0">7</tspan></text>
    <text class="st13" transform="translate(220.37 268.08)"><tspan x="0" y="0">1 mo</tspan></text>
    <text class="st13" transform="translate(377.37 268.08)"><tspan x="0" y="0">3 mo</tspan></text>
    <text class="st13" transform="translate(529.78 268.08)"><tspan x="0" y="0">1.5 mo</tspan></text>
    <text class="st13" transform="translate(691.37 268.08)"><tspan x="0" y="0">3 mo</tspan></text>
    <text class="st13" transform="translate(848.37 268.08)"><tspan x="0" y="0">6 mo</tspan></text>
    <text class="st15" transform="translate(4.71 243.08)"><tspan x="0" y="0">TYPICAL DURATION PER GATE</tspan></text>
    <text class="st11" transform="translate(501.11 304.81)"><tspan x="0" y="0">FAIL LOOPS</tspan></text>
    <text class="st20" transform="translate(260.38 337.5)"><tspan x="0" y="0">~40% of vendors fail PPAP or sample batch on first pass; ~70% achieve approval within 24 months</tspan></text>
    <text class="st10" transform="translate(38.21 384.23)"><tspan x="0" y="0">CRITICAL SUCCESS CRITERIA</tspan></text>
    <text class="st16" transform="translate(48.21 409.23)"><tspan x="0" y="0">QUALITY</tspan></text>
    <text class="st20" transform="translate(48.21 427.23)"><tspan x="0" y="0">Cp/Cpk gte 1.67 · PPM lte 50 · FMEA · CAPA</tspan></text>
    <text class="st16" transform="translate(388.21 409.23)"><tspan x="0" y="0">DELIVERY</tspan></text>
    <text class="st20" transform="translate(388.21 427.23)"><tspan x="0" y="0">OTD gte 98% · vendor-managed inventory · EDI</tspan></text>
    <text class="st16" transform="translate(728.21 409.23)"><tspan x="0" y="0">COST</tspan></text>
    <text class="st20" transform="translate(728.21 427.23)"><tspan x="0" y="0">annual 3-5% price-down committed · open-book</tspan></text>
    <text class="st16" transform="translate(48.21 469.23)"><tspan x="0" y="0">TECH</tspan></text>
    <text class="st20" transform="translate(48.21 487.23)"><tspan x="0" y="0">DfM input · drawing-level co-engineering</tspan></text>
    <text class="st16" transform="translate(388.21 469.23)"><tspan x="0" y="0">ESH</tspan></text>
    <text class="st20" transform="translate(388.21 487.23)"><tspan x="0" y="0">ISO 14001 · 45001 · RoHS · REACH</tspan></text>
    <text class="st16" transform="translate(728.21 469.23)"><tspan x="0" y="0">FINANCIAL</tspan></text>
    <text class="st20" transform="translate(728.21 487.23)"><tspan x="0" y="0">EBITDA stable · no related-party risk · audited</tspan></text>
  </g>
</svg>