<?xml version="1.0" encoding="UTF-8"?>
<svg id="Layer_1" xmlns="http://www.w3.org/2000/svg" version="1.1" xmlns:xlink="http://www.w3.org/1999/xlink" viewBox="0 0 1200 800">
  <!-- Generator: Adobe Illustrator 30.4.0, SVG Export Plug-In . SVG Version: 2.1.4 Build 226)  -->
  <defs>
    <style>
      .st0, .st1 {
        fill: #6b7280;
      }

      .st0, .st1, .st2, .st3, .st4, .st5, .st6, .st7, .st8, .st9, .st10, .st11, .st12, .st13, .st14, .st15, .st16, .st17 {
        isolation: isolate;
      }

      .st0, .st1, .st5, .st8, .st9, .st14 {
        font-family: ArialMT, Arial;
      }

      .st0, .st1, .st17 {
        font-size: 10px;
      }

      .st1 {
        letter-spacing: .05em;
      }

      .st2 {
        letter-spacing: .05em;
      }

      .st2, .st3, .st4, .st6, .st10, .st11, .st12, .st13, .st15, .st17 {
        font-family: Arial-BoldMT, Arial;
        font-weight: 700;
      }

      .st2, .st5, .st12 {
        font-size: 12px;
      }

      .st2, .st6, .st17 {
        fill: #c9a84c;
      }

      .st3 {
        fill: #2e6497;
      }

      .st3, .st4, .st11 {
        font-size: 13px;
      }

      .st18, .st9, .st10, .st12, .st15 {
        fill: #fff;
      }

      .st4 {
        letter-spacing: .04em;
      }

      .st4, .st5, .st13 {
        fill: #111827;
      }

      .st6, .st8, .st9, .st13 {
        font-size: 11px;
      }

      .st7 {
        stroke: #0b1b3b;
      }

      .st7, .st16 {
        fill: none;
        opacity: .92;
        stroke-linecap: round;
        stroke-width: 16px;
      }

      .st8, .st14 {
        fill: #e5e7eb;
      }

      .st10 {
        font-size: 20px;
      }

      .st19 {
        filter: url(#soft);
      }

      .st20 {
        fill: #f8fafc;
        stroke: #e5e7eb;
      }

      .st11, .st21 {
        fill: #0b1b3b;
      }

      .st14 {
        font-size: 9px;
      }

      .st15 {
        font-size: 26px;
      }

      .st16 {
        stroke: #2e6497;
      }

      .st17 {
        letter-spacing: .15em;
      }
    </style>
    <filter id="soft" x="-10%" y="-10%" width="120%" height="120%">
      <feGaussianBlur in="SourceAlpha" stdDeviation="2"/>
      <feOffset dx="0" dy="1"/>
      <feComponentTransfer>
        <feFuncA slope="0.25" type="linear"/>
      </feComponentTransfer>
      <feMerge>
        <feMergeNode/>
        <feMergeNode in="SourceGraphic"/>
      </feMerge>
    </filter>
  </defs>
  <rect class="st21" y="0" width="1200" height="60"/>
  <text class="st10" transform="translate(40 38)"><tspan x="0" y="0">Semiconductor Import Dependency Web</tspan></text>
  <text class="st17" transform="translate(1094.8203 24)"><tspan x="0" y="0">FIGURE 26</tspan></text>
  <text class="st8" transform="translate(854.85 44)"><tspan x="0" y="0">Indian dependency intensity by input category · 2025 snapshot</tspan></text>
  <text class="st1" transform="translate(40 785)"><tspan x="0" y="0">INDIA SEMICONDUCTOR INTELLIGENCE 2026 · WHO REALLY BENEFITS FROM INDIA&apos;S FAB ECOSYSTEM?</tspan></text>
  <text class="st1" transform="translate(1109.478 785)"><tspan x="0" y="0">FIG 26 / 30</tspan></text>
  <line class="st7" x1="480" y1="360" x2="480" y2="160"/>
  <circle class="st18" cx="480" cy="310" r="2"/>
  <circle class="st18" cx="480" cy="260" r="2"/>
  <circle class="st18" cx="480" cy="210" r="2"/>
  <circle class="st18" cx="480" cy="160" r="2"/>
  <text class="st13" transform="translate(439.36 110)"><tspan x="0" y="0">EUV equipment</tspan></text>
  <text class="st0" transform="translate(431.69 124)"><tspan x="0" y="0">ASML (NL) — sole supplier</tspan></text>
  <text class="st11" transform="translate(463.38 98)"><tspan x="0" y="0">100%</tspan></text>
  <line class="st7" x1="510" y1="368" x2="610" y2="194.8"/>
  <circle class="st18" cx="535" cy="324.7" r="2"/>
  <circle class="st18" cx="560" cy="281.4" r="2"/>
  <circle class="st18" cx="585" cy="238.1" r="2"/>
  <circle class="st18" cx="610" cy="194.8" r="2"/>
  <text class="st13" transform="translate(635 151.5)"><tspan x="0" y="0">DUV equipment</tspan></text>
  <text class="st0" transform="translate(635 165.5)"><tspan x="0" y="0">ASML · Nikon · Canon</tspan></text>
  <text class="st11" transform="translate(635 139.5)"><tspan x="0" y="0">100%</tspan></text>
  <line class="st7" x1="532" y1="390" x2="705.2" y2="290"/>
  <circle class="st18" cx="575.3" cy="365" r="2"/>
  <circle class="st18" cx="618.6" cy="340" r="2"/>
  <circle class="st18" cx="661.9" cy="315" r="2"/>
  <circle class="st18" cx="705.2" cy="290" r="2"/>
  <text class="st13" transform="translate(748.5 265)"><tspan x="0" y="0">CMP equipment</tspan></text>
  <text class="st0" transform="translate(748.5 279)"><tspan x="0" y="0">AMAT · Lam · TEL</tspan></text>
  <text class="st11" transform="translate(748.5 253)"><tspan x="0" y="0">100%</tspan></text>
  <line class="st7" x1="540" y1="420" x2="740" y2="420"/>
  <circle class="st18" cx="590" cy="420" r="2"/>
  <circle class="st18" cx="640" cy="420" r="2"/>
  <circle class="st18" cx="690" cy="420" r="2"/>
  <circle class="st18" cx="740" cy="420" r="2"/>
  <text class="st13" transform="translate(790 420)"><tspan x="0" y="0">300mm wafers</tspan></text>
  <text class="st0" transform="translate(790 434)"><tspan x="0" y="0">Shin-Etsu · SUMCO</tspan></text>
  <text class="st11" transform="translate(790 408)"><tspan x="0" y="0">100%</tspan></text>
  <line class="st7" x1="532" y1="450" x2="705.2" y2="550"/>
  <circle class="st18" cx="575.3" cy="475" r="2"/>
  <circle class="st18" cx="618.6" cy="500" r="2"/>
  <circle class="st18" cx="661.9" cy="525" r="2"/>
  <circle class="st18" cx="705.2" cy="550" r="2"/>
  <text class="st13" transform="translate(748.5 575)"><tspan x="0" y="0">Photoresist</tspan></text>
  <text class="st0" transform="translate(748.5 589)"><tspan x="0" y="0">TOK · JSR · Shin-Etsu</tspan></text>
  <text class="st11" transform="translate(748.5 563)"><tspan x="0" y="0">100%</tspan></text>
  <line class="st7" x1="510" y1="472" x2="610" y2="645.2"/>
  <circle class="st18" cx="535" cy="515.3" r="2"/>
  <circle class="st18" cx="560" cy="558.6" r="2"/>
  <circle class="st18" cx="585" cy="601.9" r="2"/>
  <circle class="st18" cx="610" cy="645.2" r="2"/>
  <text class="st13" transform="translate(635 688.5)"><tspan x="0" y="0">EDA tools</tspan></text>
  <text class="st0" transform="translate(635 702.5)"><tspan x="0" y="0">Synopsys · Cadence · Siemens</tspan></text>
  <text class="st11" transform="translate(635 676.5)"><tspan x="0" y="0">100%</tspan></text>
  <line class="st16" x1="480" y1="480" x2="480" y2="640"/>
  <circle class="st18" cx="480" cy="530" r="2"/>
  <circle class="st18" cx="480" cy="580" r="2"/>
  <circle class="st18" cx="480" cy="630" r="2"/>
  <circle class="st18" cx="480" cy="680" r="2"/>
  <text class="st13" transform="translate(435.21 730)"><tspan x="0" y="0">Spec gases (10+)</tspan></text>
  <text class="st0" transform="translate(422.86 744)"><tspan x="0" y="0">Linde · Air Liquide · Air Products</tspan></text>
  <text class="st3" transform="translate(466.99 718)"><tspan x="0" y="0">80%</tspan></text>
  <line class="st7" x1="450" y1="472" x2="350" y2="645.2"/>
  <circle class="st18" cx="425" cy="515.3" r="2"/>
  <circle class="st18" cx="400" cy="558.6" r="2"/>
  <circle class="st18" cx="375" cy="601.9" r="2"/>
  <circle class="st18" cx="350" cy="645.2" r="2"/>
  <text class="st13" transform="translate(257.95 688.5)"><tspan x="0" y="0">CMP slurries</tspan></text>
  <text class="st0" transform="translate(238.3 702.5)"><tspan x="0" y="0">Cabot · DuPont · Hitachi</tspan></text>
  <text class="st11" transform="translate(291.75 676.5)"><tspan x="0" y="0">100%</tspan></text>
  <line class="st7" x1="428" y1="450" x2="263.5" y2="545"/>
  <circle class="st18" cx="384.7" cy="475" r="2"/>
  <circle class="st18" cx="341.4" cy="500" r="2"/>
  <circle class="st18" cx="298.1" cy="525" r="2"/>
  <circle class="st18" cx="254.8" cy="550" r="2" transform="translate(-328.91 713.41) rotate(-80.78)"/>
  <text class="st13" transform="translate(168.9 575)"><tspan x="0" y="0">IP cores</tspan></text>
  <text class="st0" transform="translate(111.03 589)"><tspan x="0" y="0">ARM · RISC-V · Imagination</tspan></text>
  <text class="st11" transform="translate(185.48 563)"><tspan x="0" y="0">95%</tspan></text>
  <line class="st16" x1="420" y1="420" x2="260" y2="420"/>
  <circle class="st18" cx="370" cy="420" r="2"/>
  <circle class="st18" cx="320" cy="420" r="2"/>
  <circle class="st18" cx="270" cy="420" r="2"/>
  <circle class="st18" cx="220" cy="420" r="2"/>
  <text class="st13" transform="translate(63.61 420)"><tspan x="0" y="0">Packaging materials</tspan></text>
  <text class="st0" transform="translate(59.3 434)"><tspan x="0" y="0">Mitsubishi · Sumitomo · Henkel</tspan></text>
  <text class="st3" transform="translate(143.98 408)"><tspan x="0" y="0">80%</tspan></text>
  <line class="st7" x1="428" y1="390" x2="272.2" y2="300"/>
  <circle class="st18" cx="384.7" cy="365" r="2"/>
  <circle class="st18" cx="341.4" cy="340" r="2"/>
  <circle class="st18" cx="298.1" cy="315" r="2"/>
  <circle class="st18" cx="254.8" cy="290" r="2" transform="translate(-72.27 495.06) rotate(-80.78)"/>
  <text class="st13" transform="translate(131.03 265)"><tspan x="0" y="0">Test equipment</tspan></text>
  <text class="st0" transform="translate(110.11 279)"><tspan x="0" y="0">Teradyne · Advantest · Cohu</tspan></text>
  <text class="st11" transform="translate(185.48 253)"><tspan x="0" y="0">90%</tspan></text>
  <line class="st16" x1="450" y1="368" x2="365" y2="220.8"/>
  <circle class="st18" cx="425" cy="324.7" r="2"/>
  <circle class="st18" cx="400" cy="281.4" r="2"/>
  <circle class="st18" cx="375" cy="238.1" r="2"/>
  <circle class="st18" cx="350" cy="194.8" r="2"/>
  <text class="st13" transform="translate(259.59 151.5)"><tspan x="0" y="0">Photomasks</tspan></text>
  <text class="st0" transform="translate(230.14 165.5)"><tspan x="0" y="0">DNP · Toppan · Photronics</tspan></text>
  <text class="st3" transform="translate(298.98 139.5)"><tspan x="0" y="0">85%</tspan></text>
  <g class="st19">
    <circle class="st21" cx="480" cy="420" r="60"/>
  </g>
  <text class="st12" transform="translate(463.67 412)"><tspan x="0" y="0">INDIA</tspan></text>
  <text class="st6" transform="translate(467.76 428)"><tspan x="0" y="0">2025</tspan></text>
  <text class="st14" transform="translate(449.74 444)"><tspan x="0" y="0">import intensity</tspan></text>
  <rect class="st20" x="880" y="100" width="280" height="260" rx="8" ry="8"/>
  <text class="st4" transform="translate(900 125)"><tspan x="0" y="0">KEY INSIGHTS</tspan></text>
  <text class="st5" transform="translate(900 150)"><tspan x="0" y="0">Equipment monopoly: ASML is the sole</tspan></text>
  <text class="st5" transform="translate(900 168)"><tspan x="0" y="0">EUV vendor; DUV is duopoly.</tspan></text>
  <text class="st5" transform="translate(900 204)"><tspan x="0" y="0">Wafers and photoresist concentrated in</tspan></text>
  <text class="st5" transform="translate(900 222)"><tspan x="0" y="0">Japan (3-firm club). Single shock = halt.</tspan></text>
  <text class="st5" transform="translate(900 258)"><tspan x="0" y="0">EDA is a 3-firm oligopoly (US-led);</tspan></text>
  <text class="st5" transform="translate(900 276)"><tspan x="0" y="0">no Indian alternative below 5nm.</tspan></text>
  <text class="st5" transform="translate(900 312)"><tspan x="0" y="0">India&apos;s only sub-100% dependency lies in</tspan></text>
  <text class="st5" transform="translate(900 330)"><tspan x="0" y="0">spec gases and packaging materials.</tspan></text>
  <rect class="st21" x="880" y="640.5" width="280" height="96.01" rx="8" ry="8"/>
  <text class="st2" transform="translate(900 666.5)"><tspan x="0" y="0">COMPOSITE DEPENDENCY</tspan></text>
  <text class="st15" transform="translate(900 701.5)"><tspan x="0" y="0">92%</tspan></text>
  <text class="st9" transform="translate(900 721.5)"><tspan x="0" y="0">import-intensity of fab inputs by value</tspan></text>
</svg>