<?xml version="1.0" encoding="UTF-8"?>
<svg xmlns="http://www.w3.org/2000/svg" version="1.1" viewBox="0 0 1180 580">
  <!-- Generator: Adobe Illustrator 30.4.0, SVG Export Plug-In . SVG Version: 2.1.4 Build 226)  -->
  <defs>
    <style>
      .st0, .st1, .st2, .st3, .st4, .st5, .st6, .st7, .st8, .st9, .st10 {
        isolation: isolate;
      }

      .st0, .st2, .st3 {
        fill: #c8443b;
      }

      .st0, .st2, .st7, .st10 {
        font-size: 12px;
      }

      .st0, .st3, .st4, .st9 {
        font-family: Arial-BoldMT, Arial;
        font-weight: 700;
      }

      .st1 {
        font-size: 13px;
        letter-spacing: .04em;
      }

      .st1, .st2, .st5, .st6, .st7, .st10 {
        font-family: ArialMT, Arial;
      }

      .st1, .st5, .st6, .st7 {
        fill: #4a5567;
      }

      .st11, .st12 {
        stroke: #e8e5dd;
      }

      .st11, .st12, .st13, .st14, .st15 {
        fill: none;
      }

      .st11, .st14 {
        stroke-width: 30px;
      }

      .st11, .st14, .st15 {
        stroke-linecap: round;
      }

      .st3 {
        font-size: 15px;
      }

      .st16 {
        fill: #fbf9f4;
      }

      .st17 {
        fill: #fff;
      }

      .st4 {
        font-size: 62px;
      }

      .st4, .st9 {
        fill: #0f1828;
      }

      .st5, .st8 {
        font-size: 11.5px;
      }

      .st12 {
        stroke-width: 1.5px;
      }

      .st18, .st8 {
        fill: #c9a84c;
      }

      .st13 {
        stroke: #4a5567;
        stroke-width: 2px;
      }

      .st6 {
        font-size: 14px;
      }

      .st14 {
        stroke: #0f1828;
      }

      .st15 {
        stroke: #c8443b;
        stroke-width: 8px;
      }

      .st8 {
        font-family: Arial-ItalicMT, Arial;
        font-style: italic;
      }

      .st9 {
        font-size: 26px;
      }

      .st10 {
        fill: #1a8a7d;
      }
    </style>
  </defs>
  <g id="Layer_2">
    <rect class="st16" x="-.43" y="-.5" width="1180" height="580"/>
  </g>
  <g id="Layer_3">
    <path class="st17" d="M282.99,449.8h611.63c.04-1.92.05-3.84.05-5.77,0-168.91-136.93-305.84-305.84-305.84s-305.84,136.93-305.84,305.84"/>
  </g>
  <g id="Layer_1">
    <rect class="st18" x="40" y="34" width="80" height="5"/>
    <text class="st9" transform="translate(40 72)"><tspan x="0" y="0">India&apos;s national software exposure</tspan></text>
    <text class="st6" transform="translate(40 96)"><tspan x="0" y="0">The Digital Infrastructure Exposure Matrix (DIEM) — a single modelled national figure.</tspan></text>
    <text class="st1" transform="translate(903.27 46)"><tspan x="0" y="0">Figure ES.2 · Techadyant Labs · 2026</tspan></text>
    <path class="st11" d="M290,440c0-165.69,134.31-300,300-300s300,134.31,300,300"/>
    <path class="st14" d="M290,440c0-165.69,134.3-300.01,299.99-300.01,28.33,0,56.51,4.01,83.71,11.91"/>
    <path class="st15" d="M590,116c51.13,0,101.54,12.09,147.1,35.3"/>
    <text class="st0" transform="translate(632.29 105.5)"><tspan x="0" y="0">50–65% band</tspan></text>
    <line class="st13" x1="308" y1="440" x2="288" y2="440"/>
    <text class="st7" transform="translate(320.66 444)"><tspan x="0" y="0">0</tspan></text>
    <line class="st13" x1="390.6" y1="240.6" x2="376.5" y2="226.5"/>
    <text class="st7" transform="translate(395.24 255.91)"><tspan x="0" y="0">25</tspan></text>
    <line class="st13" x1="590" y1="158" x2="590" y2="138"/>
    <text class="st7" transform="translate(583.33 178)"><tspan x="0" y="0">50</tspan></text>
    <line class="st13" x1="789.4" y1="240.6" x2="803.5" y2="226.5"/>
    <text class="st7" transform="translate(771.42 255.91)"><tspan x="0" y="0">75</tspan></text>
    <line class="st13" x1="872" y1="440" x2="892" y2="440"/>
    <text class="st7" transform="translate(845.99 444)"><tspan x="0" y="0">100</tspan></text>
    <text class="st4" transform="translate(533.52 338.05)"><tspan x="0" y="0">59%</tspan></text>
    <text class="st3" transform="translate(531.72 391.97)"><tspan x="0" y="0">central estimate</tspan></text>
    <text class="st6" transform="translate(427.1 470)"><tspan x="0" y="0">of formal-sector software-operating GVA depends on</tspan></text>
    <text class="st6" transform="translate(474.44 490)"><tspan x="0" y="0">foreign-controlled enterprise software</tspan></text>
    <text class="st10" transform="translate(290 470)"><tspan x="0" y="0">Sovereign</tspan></text>
    <text class="st2" transform="translate(840.63 470)"><tspan x="0" y="0">Captured</tspan></text>
    <line class="st12" x1="40" y1="536" x2="1140" y2="536"/>
    <text class="st5" transform="translate(40 556)"><tspan x="0" y="0">Source: Techadyant Labs DIEM model on NSO 2023–24 GVA weights.</tspan></text>
    <text class="st8" transform="translate(1008.3003 556)"><tspan x="0" y="0">Modelled · range 50–65%</tspan></text>
  </g>
</svg>