<?xml version="1.0" encoding="UTF-8"?>
<svg xmlns="http://www.w3.org/2000/svg" version="1.1" viewBox="0 0 1180 760">
  <!-- Generator: Adobe Illustrator 30.4.0, SVG Export Plug-In . SVG Version: 2.1.4 Build 226)  -->
  <defs>
    <style>
      .st0, .st1, .st2, .st3, .st4, .st5, .st6, .st7 {
        fill: #4a5567;
      }

      .st8, .st9, .st10, .st1, .st2, .st3, .st4, .st11, .st5, .st12, .st13, .st14, .st6, .st15, .st16, .st17 {
        isolation: isolate;
      }

      .st8, .st18, .st13 {
        fill: #fbf9f4;
      }

      .st8, .st11, .st12, .st13, .st14, .st15, .st16, .st17 {
        font-family: Arial-BoldMT, Arial;
        font-weight: 700;
      }

      .st8, .st15 {
        font-size: 15px;
      }

      .st9 {
        fill: #1a8a7d;
      }

      .st9, .st6 {
        font-family: Arial-ItalicMT, Arial;
        font-size: 11px;
        font-style: italic;
      }

      .st19 {
        stroke: #e8e5dd;
        stroke-dasharray: 5 5;
      }

      .st19, .st20 {
        stroke-width: 1.5px;
      }

      .st19, .st20, .st21, .st22 {
        fill: none;
      }

      .st23 {
        fill: #c9a84c;
      }

      .st23, .st24 {
        fill-opacity: .9;
      }

      .st25 {
        fill: #fff;
      }

      .st10, .st1, .st2, .st3, .st4, .st5 {
        font-family: ArialMT, Arial;
      }

      .st10, .st4 {
        font-size: 11.5px;
      }

      .st10, .st26, .st27, .st12 {
        fill: #c8443b;
      }

      .st10, .st12 {
        opacity: .8;
      }

      .st1 {
        font-size: 12.5px;
      }

      .st2, .st12 {
        font-size: 13px;
      }

      .st3, .st13, .st17 {
        font-size: 16px;
      }

      .st26 {
        fill-opacity: .85;
      }

      .st20 {
        stroke: #0f1828;
      }

      .st11 {
        font-size: 14px;
      }

      .st11, .st14, .st15, .st16, .st17 {
        fill: #0f1828;
      }

      .st24, .st28 {
        fill: #2bc5b4;
      }

      .st5 {
        font-size: 12px;
      }

      .st27 {
        fill-opacity: .08;
      }

      .st21 {
        stroke: #2bc5b4;
        stroke-width: 1.6px;
      }

      .st21, .st22 {
        stroke-dasharray: 4 4;
      }

      .st14 {
        font-size: 13.5px;
      }

      .st16 {
        font-size: 27px;
      }

      .st7 {
        fill-opacity: .8;
      }

      .st22 {
        stroke: #4a5567;
        stroke-width: 1.4px;
      }
    </style>
  </defs>
  <g id="Layer_2">
    <rect class="st18" x=".41" y="-.28" width="1180" height="760"/>
    <rect class="st25" x="126.02" y="121.93" width="927.95" height="544.95"/>
  </g>
  <g id="Layer_1">
    <text class="st16" transform="translate(56 54)"><tspan x="0" y="0">Six ways the dependency could be triggered</tspan></text>
    <text class="st3" transform="translate(56 84)"><tspan x="0" y="0">Strategic-software risk scenarios, scored on economic impact against expected recovery time. Indicative, calibrated to real precedents.</tspan></text>
    <text class="st2" transform="translate(908.15 40)"><tspan x="0" y="0">Figure 12.1 · Techadyant Labs · 2026</tspan></text>
    <rect class="st27" x="625.56" y="149.08" width="395" height="230"/>
    <text class="st12" transform="translate(642.56 171.08)"><tspan x="0" y="0">DANGER ZONE</tspan></text>
    <text class="st10" transform="translate(642.56 189.08)"><tspan x="0" y="0">high impact · slow recovery</tspan></text>
    <line class="st20" x1="230.56" y1="609.08" x2="1020.56" y2="609.08"/>
    <line class="st20" x1="230.56" y1="149.08" x2="230.56" y2="609.08"/>
    <line class="st19" x1="625.56" y1="149.08" x2="625.56" y2="609.08"/>
    <line class="st19" x1="230.56" y1="379.08" x2="1020.56" y2="379.08"/>
    <text class="st15" transform="translate(554.3 649.08)"><tspan x="0" y="0">RECOVERY TIME →</tspan></text>
    <text class="st5" transform="translate(250.56 635.08)"><tspan x="0" y="0">days–weeks</tspan></text>
    <text class="st5" transform="translate(989.22 635.08)"><tspan x="0" y="0">years</tspan></text>
    <text class="st15" transform="translate(192.56 460.19) rotate(-90)"><tspan x="0" y="0">ECONOMIC IMPACT →</tspan></text>
    <text class="st5" transform="translate(202.56 605.08)"><tspan x="0" y="0">low</tspan></text>
    <text class="st5" transform="translate(184.55 165.08)"><tspan x="0" y="0">severe</tspan></text>
    <circle class="st26" cx="960.56" cy="204.08" r="20"/>
    <text class="st13" transform="translate(955.68 210.08)"><tspan x="0" y="0">F</tspan></text>
    <text class="st14" transform="translate(854.78 251.08)"><tspan x="0" y="0">Broad export restriction</tspan></text>
    <circle class="st26" cx="810.56" cy="224.08" r="22"/>
    <text class="st13" transform="translate(804.79 230.08)"><tspan x="0" y="0">A</tspan></text>
    <text class="st14" transform="translate(675.92 287.08)"><tspan x="0" y="0">Licence / support withdrawal</tspan></text>
    <text class="st4" transform="translate(709.44 305.08)"><tspan x="0" y="0">(the Russia 2022 case)</tspan></text>
    <circle class="st23" cx="630.56" cy="269.08" r="20"/>
    <text class="st17" transform="translate(624.79 275.08)"><tspan x="0" y="0">D</tspan></text>
    <text class="st14" transform="translate(542.79 311.08)"><tspan x="0" y="0">Cyber / supply-chain attack</tspan></text>
    <text class="st4" transform="translate(532.47 329.08)"><tspan x="0" y="0">(SolarWinds — near-certain over time)</tspan></text>
    <circle class="st23" cx="385.56" cy="224.08" r="21"/>
    <text class="st17" transform="translate(379.79 230.08)"><tspan x="0" y="0">B</tspan></text>
    <text class="st14" transform="translate(303.82 269.08)"><tspan x="0" y="0">Cloud disruption / outage</tspan></text>
    <text class="st4" transform="translate(336.03 287.08)"><tspan x="0" y="0">(CrowdStrike 2024)</tspan></text>
    <path class="st22" d="M408.56,221.08c122-22,242-17,402,0"/>
    <path class="st0" d="M810.56,221.08l-13-5,3,11,10-6Z"/>
    <text class="st6" transform="translate(522.26 195.08)"><tspan x="0" y="0">sanctions variant →</tspan></text>
    <circle class="st24" cx="470.56" cy="454.08" r="19"/>
    <text class="st17" transform="translate(464.79 460.08)"><tspan x="0" y="0">C</tspan></text>
    <text class="st14" transform="translate(404.93 495.08)"><tspan x="0" y="0">AI-model withdrawal</tspan></text>
    <text class="st4" transform="translate(415.07 513.08)"><tspan x="0" y="0">(low today, rising fast)</tspan></text>
    <path class="st21" d="M488.56,439.08c82-40,162-90,242-140"/>
    <path class="st28" d="M730.56,299.08l-2,14,12-7-10-7Z"/>
    <text class="st9" transform="translate(575.44 429.08)"><tspan x="0" y="0">rising as AI embeds →</tspan></text>
    <circle class="st7" cx="630.56" cy="469.08" r="18"/>
    <text class="st8" transform="translate(625.56 475.08)"><tspan x="0" y="0">E</tspan></text>
    <text class="st14" transform="translate(544.3 504.08)"><tspan x="0" y="0">Vendor failure / acquisition</tspan></text>
    <text class="st11" transform="translate(56 706)"><tspan x="0" y="0">The geopolitical scenarios (A, F) sit alone in the danger zone — high impact, slow recovery — striking exactly the Captured ERP and cloud layers.</tspan></text>
    <text class="st1" transform="translate(56 732)"><tspan x="0" y="0">Source: Techadyant Labs scenario model; calibrated to Russia 2022, CrowdStrike 2024, SolarWinds 2020. Impact &amp; recovery indicative, not measured.</tspan></text>
  </g>
</svg>