<?xml version="1.0" encoding="UTF-8"?>
<svg xmlns="http://www.w3.org/2000/svg" version="1.1" viewBox="0 0 1180 620">
  <!-- Generator: Adobe Illustrator 30.4.0, SVG Export Plug-In . SVG Version: 2.1.4 Build 226)  -->
  <defs>
    <style>
      .st0, .st1, .st2, .st3, .st4, .st5 {
        fill: #4a5567;
      }

      .st6, .st7, .st8, .st1, .st2, .st3, .st4, .st9, .st5, .st10, .st11 {
        isolation: isolate;
      }

      .st6, .st7, .st8, .st1, .st2, .st3, .st4, .st5, .st10 {
        font-family: ArialMT, Arial;
      }

      .st6, .st8, .st4, .st10 {
        font-size: 11.5px;
      }

      .st6, .st12 {
        fill: #c8443b;
      }

      .st13 {
        stroke: #0f1828;
        stroke-width: 2.5px;
      }

      .st13, .st14, .st15, .st16, .st17 {
        fill: none;
      }

      .st7, .st2 {
        font-size: 13px;
      }

      .st7, .st9, .st11 {
        fill: #0f1828;
      }

      .st18 {
        fill: #fbf9f4;
      }

      .st19 {
        fill: #fff;
      }

      .st8 {
        fill: #1a8a7d;
      }

      .st1 {
        font-size: 12.5px;
      }

      .st3 {
        font-size: 16px;
      }

      .st20 {
        fill: #c9a84c;
      }

      .st14 {
        stroke: #4a5567;
      }

      .st14, .st15, .st16, .st17 {
        stroke-width: 1.2px;
      }

      .st9 {
        font-size: 14px;
      }

      .st9, .st11 {
        font-family: Arial-BoldMT, Arial;
        font-weight: 700;
      }

      .st15 {
        stroke: #c9a84c;
      }

      .st5 {
        font-size: 12px;
      }

      .st21 {
        fill: #2bc5b4;
      }

      .st16 {
        stroke: #c8443b;
      }

      .st17 {
        stroke: #2bc5b4;
      }

      .st10 {
        fill: #9c7e1f;
      }

      .st11 {
        font-size: 27px;
      }
    </style>
  </defs>
  <g id="Layer_2">
    <rect class="st18" x="-.43" y="-.5" width="1180" height="620"/>
  </g>
  <g id="Layer_3">
    <rect class="st19" x="32.49" y="147.55" width="1120.35" height="388.51"/>
  </g>
  <g id="Layer_1">
    <text class="st11" transform="translate(56 54)"><tspan x="0" y="0">The making of a dependency, 1990–2026</tspan></text>
    <text class="st3" transform="translate(56 84)"><tspan x="0" y="0">Each wave layered new foreign-controlled infrastructure onto the economy — and made the next harder to reverse.</tspan></text>
    <text class="st2" transform="translate(915.38 40)"><tspan x="0" y="0">Figure 2.1 · Techadyant Labs · 2026</tspan></text>
    <line class="st13" x1="63" y1="330" x2="1083" y2="330"/>
    <text class="st5" transform="translate(63 362)"><tspan x="0" y="0">1990</tspan></text>
    <text class="st5" transform="translate(1056.3047 362)"><tspan x="0" y="0">2026</tspan></text>
    <circle class="st0" cx="123" cy="330" r="9"/>
    <line class="st14" x1="123" y1="330" x2="123" y2="250"/>
    <text class="st9" transform="translate(107.43 240)"><tspan x="0" y="0">1991</tspan></text>
    <text class="st2" transform="translate(84.7 222)"><tspan x="0" y="0">Liberalisation</tspan></text>
    <text class="st4" transform="translate(57.8 206)"><tspan x="0" y="0">global competition arrives</tspan></text>
    <circle class="st12" cx="263" cy="330" r="9"/>
    <line class="st16" x1="263" y1="330" x2="263" y2="410"/>
    <text class="st9" transform="translate(243.53 430)"><tspan x="0" y="0">1990s</tspan></text>
    <text class="st2" transform="translate(223.97 448)"><tspan x="0" y="0">Database era</tspan></text>
    <text class="st6" transform="translate(207.07 464)"><tspan x="0" y="0">Oracle takes the layer</tspan></text>
    <circle class="st12" cx="423" cy="330" r="11"/>
    <line class="st16" x1="423" y1="330" x2="423" y2="234"/>
    <text class="st9" transform="translate(387.96 224)"><tspan x="0" y="0">1999–2005</tspan></text>
    <text class="st2" transform="translate(369.65 206)"><tspan x="0" y="0">ERP wave — SAP</tspan></text>
    <text class="st6" transform="translate(312.14 190)"><tspan x="0" y="0">PSUs go wall-to-wall (IOCL, ONGC, NTPC)</tspan></text>
    <circle class="st12" cx="573" cy="330" r="9"/>
    <line class="st16" x1="573" y1="330" x2="573" y2="410"/>
    <text class="st9" transform="translate(553.53 430)"><tspan x="0" y="0">2000s</tspan></text>
    <text class="st2" transform="translate(524.6 448)"><tspan x="0" y="0">Productivity / OS</tspan></text>
    <text class="st6" transform="translate(500.14 464)"><tspan x="0" y="0">Microsoft becomes universal</tspan></text>
    <circle class="st12" cx="733" cy="330" r="11"/>
    <line class="st16" x1="733" y1="330" x2="733" y2="250"/>
    <text class="st9" transform="translate(713.53 240)"><tspan x="0" y="0">2010s</tspan></text>
    <text class="st2" transform="translate(687.48 222)"><tspan x="0" y="0">Cloud migration</tspan></text>
    <text class="st6" transform="translate(622.32 206)"><tspan x="0" y="0">AWS · Azure · Google — the new substrate</tspan></text>
    <circle class="st21" cx="883" cy="330" r="9"/>
    <line class="st17" x1="883" y1="330" x2="883" y2="410"/>
    <text class="st9" transform="translate(855.75 430)"><tspan x="0" y="0">2015–24</tspan></text>
    <text class="st2" transform="translate(855.9 448)"><tspan x="0" y="0">SaaS era</tspan></text>
    <text class="st8" transform="translate(766.69 464)"><tspan x="0" y="0">India starts to PRODUCE (Zoho, Freshworks)</tspan></text>
    <circle class="st20" cx="1033" cy="330" r="11"/>
    <line class="st15" x1="1033" y1="330" x2="1033" y2="250"/>
    <text class="st9" transform="translate(1013.3398 240)"><tspan x="0" y="0">2025+</tspan></text>
    <text class="st2" transform="translate(1009.8787 222)"><tspan x="0" y="0">AI wave</tspan></text>
    <text class="st10" transform="translate(929.11 206)"><tspan x="0" y="0">deepens — and could loosen — the hold</tspan></text>
    <circle class="st12" cx="90" cy="507" r="7"/>
    <text class="st7" transform="translate(104 512)"><tspan x="0" y="0">Foreign-controlled wave</tspan></text>
    <circle class="st21" cx="320" cy="507" r="7"/>
    <text class="st7" transform="translate(334 512)"><tspan x="0" y="0">India produces</tspan></text>
    <circle class="st20" cx="500" cy="507" r="7"/>
    <text class="st7" transform="translate(514 512)"><tspan x="0" y="0">Could cut either way</tspan></text>
    <text class="st9" transform="translate(56 578)"><tspan x="0" y="0">No one chose the dependency. It was assembled one locally rational decision at a time — which is why no single actor can undo it.</tspan></text>
    <text class="st1" transform="translate(56 604)"><tspan x="0" y="0">Source: Techadyant Labs synthesis of industry histories and company disclosures.</tspan></text>
  </g>
</svg>