<svg xmlns="http://www.w3.org/2000/svg" viewBox="0 0 1180 540" width="1180" height="540"><rect width="1180" height="540" fill="#FBF9F4"/><rect x="40" y="34" width="80" height="5" fill="#C9A84C"/><text x="40" y="72" font-family="Arial, Helvetica, sans-serif" font-size="25" fill="#0F1828" font-weight="700" text-anchor="start">Where SAP sits inside NTPC</text><text x="40" y="95" font-family="Arial, Helvetica, sans-serif" font-size="13.5" fill="#4A5567" text-anchor="start">Project Lakshya — SAP for Utilities across India's largest power generator.</text><text x="1140" y="46" font-family="Arial, Helvetica, sans-serif" font-size="13" fill="#4A5567" letter-spacing="0.5" text-anchor="end">Figure 7.2 · Techadyant Labs · 2026</text><line x1="40" y1="498" x2="1140" y2="498" stroke="#E8E5DD" stroke-width="1.5"/><text x="40" y="518" font-family="Arial, Helvetica, sans-serif" font-size="11.5" fill="#4A5567" text-anchor="start">Source: NTPC, SAP, Siemens disclosures. Techadyant Labs analysis.</text><rect x="40" y="120" width="1100" height="40" rx="6" fill="#0F1828"/><text x="58" y="146" font-family="Arial, Helvetica, sans-serif" font-size="15" fill="#FFFFFF" font-weight="700" text-anchor="start">PROJECT LAKSHYA  ·  SAP for Utilities (ERP · IS-U · SEM · SRM · Portal)</text><text x="1122" y="146" font-family="Arial, Helvetica, sans-serif" font-size="12.5" fill="#C9A84C" text-anchor="end">Partner: Siemens Information Systems</text><rect x="60" y="230" width="198" height="110" rx="8" fill="#FFFFFF" stroke="#1A8A7D" stroke-width="2"/><rect x="60" y="230" width="198" height="6" rx="3" fill="#1A8A7D"/><text x="158.8" y="264" font-family="Arial, Helvetica, sans-serif" font-size="13.5" fill="#0F1828" font-weight="700" text-anchor="middle">Procurement</text><text x="158.8" y="326" font-family="Arial, Helvetica, sans-serif" font-size="11.5" fill="#4A5567" text-anchor="middle">SRM</text><path d="M 258 285.0 L 276 285.0" stroke="#4A5567" stroke-width="2"/><path d="M 270 280.0 L 276 285.0 L 270 290.0" fill="#4A5567"/><rect x="276" y="230" width="198" height="110" rx="8" fill="#FFFFFF" stroke="#1A8A7D" stroke-width="2"/><rect x="276" y="230" width="198" height="6" rx="3" fill="#1A8A7D"/><text x="374.40000000000003" y="264" font-family="Arial, Helvetica, sans-serif" font-size="13.5" fill="#0F1828" font-weight="700" text-anchor="middle">Plant</text><text x="374.40000000000003" y="282" font-family="Arial, Helvetica, sans-serif" font-size="13.5" fill="#0F1828" font-weight="700" text-anchor="middle">maintenance</text><text x="374.40000000000003" y="326" font-family="Arial, Helvetica, sans-serif" font-size="11.5" fill="#4A5567" text-anchor="middle">ERP / PM</text><path d="M 473 285.0 L 491 285.0" stroke="#4A5567" stroke-width="2"/><path d="M 485 280.0 L 491 285.0 L 485 290.0" fill="#4A5567"/><rect x="491" y="230" width="198" height="110" rx="8" fill="#FFFFFF" stroke="#1A8A7D" stroke-width="2"/><rect x="491" y="230" width="198" height="6" rx="3" fill="#1A8A7D"/><text x="590.0" y="264" font-family="Arial, Helvetica, sans-serif" font-size="13.5" fill="#0F1828" font-weight="700" text-anchor="middle">Fuel management</text><text x="590.0" y="326" font-family="Arial, Helvetica, sans-serif" font-size="11.5" fill="#4A5567" text-anchor="middle">IS-U</text><path d="M 689 285.0 L 707 285.0" stroke="#4A5567" stroke-width="2"/><path d="M 701 280.0 L 707 285.0 L 701 290.0" fill="#4A5567"/><rect x="707" y="230" width="198" height="110" rx="8" fill="#FFFFFF" stroke="#1A8A7D" stroke-width="2"/><rect x="707" y="230" width="198" height="6" rx="3" fill="#1A8A7D"/><text x="805.5999999999999" y="264" font-family="Arial, Helvetica, sans-serif" font-size="13.5" fill="#0F1828" font-weight="700" text-anchor="middle">Generation</text><text x="805.5999999999999" y="282" font-family="Arial, Helvetica, sans-serif" font-size="13.5" fill="#0F1828" font-weight="700" text-anchor="middle">scheduling</text><text x="805.5999999999999" y="326" font-family="Arial, Helvetica, sans-serif" font-size="11.5" fill="#4A5567" text-anchor="middle">ERP</text><path d="M 904 285.0 L 922 285.0" stroke="#4A5567" stroke-width="2"/><path d="M 916 280.0 L 922 285.0 L 916 290.0" fill="#4A5567"/><rect x="922" y="230" width="198" height="110" rx="8" fill="#FFFFFF" stroke="#1A8A7D" stroke-width="2"/><rect x="922" y="230" width="198" height="6" rx="3" fill="#1A8A7D"/><text x="1021.1999999999999" y="264" font-family="Arial, Helvetica, sans-serif" font-size="13.5" fill="#0F1828" font-weight="700" text-anchor="middle">Enterprise</text><text x="1021.1999999999999" y="282" font-family="Arial, Helvetica, sans-serif" font-size="13.5" fill="#0F1828" font-weight="700" text-anchor="middle">reporting</text><text x="1021.1999999999999" y="326" font-family="Arial, Helvetica, sans-serif" font-size="11.5" fill="#4A5567" text-anchor="middle">SEM / Portal</text><rect x="60" y="380" width="1060" height="46" rx="8" fill="#C9A84C" fill-opacity="0.16" stroke="#C9A84C" stroke-width="1.5"/><text x="590.0" y="409" font-family="Arial, Helvetica, sans-serif" font-size="13.5" fill="#0F1828" font-weight="700" text-anchor="middle">All planning, procurement, plant-maintenance and fuel records are SAP records — no domestic equivalent of comparable depth</text></svg>