<?xml version="1.0" encoding="UTF-8"?>
<svg xmlns="http://www.w3.org/2000/svg" version="1.1" viewBox="0 0 1180 720">
  <!-- Generator: Adobe Illustrator 30.4.0, SVG Export Plug-In . SVG Version: 2.1.4 Build 226)  -->
  <defs>
    <style>
      .st0, .st1, .st2, .st3, .st4, .st5, .st6, .st7, .st8, .st9, .st10, .st11, .st12, .st13, .st14, .st15, .st16 {
        isolation: isolate;
      }

      .st0, .st2, .st3, .st4, .st9, .st10, .st14 {
        font-family: ArialMT, Arial;
      }

      .st0, .st2, .st3, .st4, .st16 {
        fill: #4a5567;
      }

      .st0, .st10 {
        font-size: 13.5px;
      }

      .st17, .st1, .st12 {
        fill: #fbf9f4;
      }

      .st18 {
        fill: #fff;
      }

      .st19 {
        fill-opacity: .16;
      }

      .st19, .st14 {
        fill: #c9a84c;
      }

      .st1 {
        font-size: 19px;
      }

      .st1, .st5, .st7, .st8, .st11, .st12, .st13, .st15 {
        font-family: Arial-BoldMT, Arial;
        font-weight: 700;
      }

      .st2, .st9 {
        font-size: 12.5px;
      }

      .st3, .st16 {
        font-size: 13px;
      }

      .st4, .st12, .st15 {
        font-size: 16px;
      }

      .st20 {
        fill-opacity: .12;
      }

      .st20, .st21, .st11, .st22 {
        fill: #c8443b;
      }

      .st20, .st23 {
        stroke-width: 1.66px;
      }

      .st20, .st24 {
        stroke: #c8443b;
      }

      .st5 {
        fill: #1a8a7d;
      }

      .st5, .st11 {
        font-size: 17px;
      }

      .st21 {
        fill-opacity: .85;
      }

      .st7, .st25, .st10, .st13, .st15 {
        fill: #0f1828;
      }

      .st7, .st14 {
        font-size: 14px;
      }

      .st26 {
        fill-opacity: .9;
      }

      .st26, .st23, .st27 {
        fill: #2bc5b4;
      }

      .st23 {
        fill-opacity: .14;
      }

      .st23, .st28 {
        stroke: #2bc5b4;
      }

      .st8 {
        fill: #9c7e1f;
        font-size: 15px;
      }

      .st9 {
        fill: #e8e5dd;
      }

      .st28, .st24 {
        fill: none;
        stroke-width: 3px;
      }

      .st13 {
        font-size: 27px;
      }

      .st16 {
        font-family: Arial-ItalicMT, Arial;
        font-style: italic;
      }
    </style>
  </defs>
  <g id="Layer_2">
    <rect class="st17" x="-.53" y=".25" width="1180" height="719.75"/>
  </g>
  <g id="Layer_3">
    <rect class="st18" x="16.56" y="109.06" width="1138.94" height="511.5"/>
  </g>
  <g id="Layer_1">
    <g class="st6">
      <text class="st13" transform="translate(56 54)"><tspan x="0" y="0">The AI reset is a fork, not a trend</tspan></text>
    </g>
    <g class="st6">
      <text class="st4" transform="translate(56 84)"><tspan x="0" y="0">The same technology can deepen the dependency for a generation — or open the first sovereign window in two decades.</tspan></text>
    </g>
    <g class="st6">
      <text class="st3" transform="translate(908.15 40)"><tspan x="0" y="0">Figure 18.1 · Techadyant Labs · 2026</tspan></text>
    </g>
    <rect class="st25" x="28.83" y="308" width="230" height="110" rx="12" ry="12"/>
    <g class="st6">
      <text class="st1" transform="translate(78.73 350)"><tspan x="0" y="0">THE AI RESET</tspan></text>
    </g>
    <g class="st6">
      <text class="st14" transform="translate(71.05 376)"><tspan x="0" y="0">Agentic AI · 2025–2028</tspan></text>
    </g>
    <g class="st6">
      <text class="st9" transform="translate(74.71 400)"><tspan x="0" y="0">re-prices the whole stack</tspan></text>
    </g>
    <g>
      <path class="st24" d="M258.83,338c93.81-28.14,134.82-109.09,222.1-127.26"/>
      <path class="st22" d="M498.83,208c-7.91,4.47-17.5,11.46-23.07,18.13l2.85-14.9-7.35-13.27c7.37,4.61,18.66,8.27,27.57,10.04Z"/>
    </g>
    <g>
      <path class="st28" d="M258.83,388c93.81,28.14,134.82,109.09,222.1,127.26"/>
      <path class="st27" d="M498.83,518c-8.91,1.78-20.2,5.44-27.57,10.05l7.35-13.28-2.85-14.9c5.57,6.67,15.16,13.67,23.07,18.13h0Z"/>
    </g>
    <rect class="st20" x="498.83" y="158" width="366.17" height="120" rx="13.26" ry="13.26"/>
    <g class="st6">
      <text class="st11" transform="translate(518.83 190)"><tspan x="0" y="0">FORCE 1 · Incumbents embed AI</tspan></text>
    </g>
    <g class="st6">
      <text class="st10" transform="translate(518.83 216)"><tspan x="0" y="0">SAP Joule: 200+ agents. Copilot. Gartner:</tspan></text>
    </g>
    <g class="st6">
      <text class="st10" transform="translate(518.83 236)"><tspan x="0" y="0">40% of enterprise apps embed agents by end-2026.</tspan></text>
    </g>
    <g class="st6">
      <text class="st16" transform="translate(518.83 260)"><tspan x="0" y="0">AI trained on your SAP data, inside your SAP processes.</tspan></text>
    </g>
    <g>
      <line class="st24" x1="865" y1="214" x2="926.89" y2="214"/>
      <path class="st22" d="M945,214c-8.52,3.16-19.09,8.55-25.64,14.27l5.16-14.27-5.16-14.26c6.55,5.71,17.12,11.11,25.64,14.26Z"/>
    </g>
    <rect class="st21" x="945" y="162" width="200" height="104" rx="12" ry="12"/>
    <g class="st6">
      <text class="st12" transform="translate(997.43 197)"><tspan x="0" y="0">Dependency</tspan></text>
    </g>
    <g class="st6">
      <text class="st12" transform="translate(999.66 219)"><tspan x="0" y="0">deepens for</tspan></text>
    </g>
    <g class="st6">
      <text class="st12" transform="translate(997.43 241)"><tspan x="0" y="0">a generation</tspan></text>
    </g>
    <rect class="st23" x="498.83" y="458" width="366.17" height="120" rx="13.26" ry="13.26"/>
    <g class="st6">
      <text class="st5" transform="translate(518.83 490)"><tspan x="0" y="0">FORCE 2 · Build-cost collapses</tspan></text>
    </g>
    <g class="st6">
      <text class="st10" transform="translate(518.83 516)"><tspan x="0" y="0">AI re-implements the custom-code estate — SAP&apos;s</tspan></text>
    </g>
    <g class="st6">
      <text class="st10" transform="translate(518.83 536)"><tspan x="0" y="0">deepest moat. A greenfield stack needs a small team.</tspan></text>
    </g>
    <g class="st6">
      <text class="st16" transform="translate(518.83 560)"><tspan x="0" y="0">The switching cost that froze the dependency thaws.</tspan></text>
    </g>
    <g>
      <line class="st28" x1="865" y1="516" x2="926.89" y2="516"/>
      <path class="st27" d="M945,516c-8.52,3.16-19.09,8.55-25.64,14.27l5.16-14.27-5.16-14.26c6.55,5.71,17.12,11.11,25.64,14.26Z"/>
    </g>
    <rect class="st26" x="945" y="464" width="200" height="104" rx="12" ry="12"/>
    <g class="st6">
      <text class="st15" transform="translate(1006.3203 501)"><tspan x="0" y="0">Sovereign</tspan></text>
    </g>
    <g class="st6">
      <text class="st15" transform="translate(988.53 523)"><tspan x="0" y="0">AI-native stack</tspan></text>
    </g>
    <g class="st6">
      <text class="st15" transform="translate(972.98 545)"><tspan x="0" y="0">becomes buildable</tspan></text>
    </g>
    <rect class="st19" x="29.41" y="452.01" width="245.56" height="104.7" rx="8.06" ry="8.06"/>
    <g class="st6">
      <text class="st8" transform="translate(48.83 474.47)"><tspan x="0" y="0">The two forces race in time.</tspan></text>
    </g>
    <g class="st6">
      <text class="st7" transform="translate(28.83 641.11)"><tspan x="0" y="0">Which force wins decides India&apos;s 2035 outcome. The window is real, and it is narrow.</tspan></text>
    </g>
    <g class="st6">
      <text class="st2" transform="translate(28.83 669.11)"><tspan x="0" y="0">Source: SAP; Gartner; market commentary. Techadyant Labs analysis. Scenario framing, not forecast.</tspan></text>
    </g>
    <g class="st6">
      <text class="st0" transform="translate(49.16 498.01)"><tspan x="0" y="0">The window stays open only until </tspan></text>
      <text class="st0" transform="translate(49.16 514.21)"><tspan x="0" y="0">incumbents finish re-cementing </tspan></text>
      <text class="st0" transform="translate(49.16 530.41)"><tspan x="0" y="0">lock-in — and the 2027 SAP </tspan></text>
      <text class="st0" transform="translate(49.16 546.61)"><tspan x="0" y="0">deadline forces the choice.</tspan></text>
    </g>
  </g>
</svg>