<svg xmlns="http://www.w3.org/2000/svg" viewBox="0 0 1180 720" width="1180" height="720"><rect width="1180" height="720" fill="#FBF9F4"/><rect x="40" y="34" width="80" height="5" fill="#C9A84C"/><text x="40" y="72" font-family="Arial, Helvetica, sans-serif" font-size="25" fill="#0F1828" font-weight="700" text-anchor="start">India's Enterprise Dependency Index, layer by variable</text><text x="40" y="95" font-family="Arial, Helvetica, sans-serif" font-size="13.5" fill="#4A5567" text-anchor="start">Every layer scored 0–10 on seven variables; the weighted sum is the EDI. Higher = deeper dependency.</text><text x="1140" y="46" font-family="Arial, Helvetica, sans-serif" font-size="13" fill="#4A5567" letter-spacing="0.5" text-anchor="end">Figure 9.1 · Techadyant Labs · 2026</text><line x1="40" y1="678" x2="1140" y2="678" stroke="#E8E5DD" stroke-width="1.5"/><text x="40" y="698" font-family="Arial, Helvetica, sans-serif" font-size="11.5" fill="#4A5567" text-anchor="start">Source: Techadyant Labs EDI model (see Appendix A). Inputs hardened from primary sources.</text><text x="1140" y="698" font-family="Arial, Helvetica, sans-serif" font-size="11.5" fill="#C9A84C" font-style="italic" text-anchor="end">Scores 0–10 · 10 = maximum dependency</text><text x="389.0" y="138" font-family="Arial, Helvetica, sans-serif" font-size="13" fill="#0F1828" font-weight="700" text-anchor="middle">SC</text><text x="447.0" y="138" font-family="Arial, Helvetica, sans-serif" font-size="13" fill="#0F1828" font-weight="700" text-anchor="middle">SD</text><text x="505.0" y="138" font-family="Arial, Helvetica, sans-serif" font-size="13" fill="#0F1828" font-weight="700" text-anchor="middle">FO</text><text x="563.0" y="138" font-family="Arial, Helvetica, sans-serif" font-size="13" fill="#0F1828" font-weight="700" text-anchor="middle">DC</text><text x="621.0" y="138" font-family="Arial, Helvetica, sans-serif" font-size="13" fill="#0F1828" font-weight="700" text-anchor="middle">GE</text><text x="679.0" y="138" font-family="Arial, Helvetica, sans-serif" font-size="13" fill="#0F1828" font-weight="700" text-anchor="middle">SE</text><text x="737.0" y="138" font-family="Arial, Helvetica, sans-serif" font-size="13" fill="#0F1828" font-weight="700" text-anchor="middle">VC</text><text x="800" y="138" font-family="Arial, Helvetica, sans-serif" font-size="13" fill="#0F1828" font-weight="700" text-anchor="middle">EDI</text><text x="916" y="138" font-family="Arial, Helvetica, sans-serif" font-size="13" fill="#0F1828" font-weight="700" text-anchor="middle">Band</text><text x="48" y="178.0" font-family="Arial, Helvetica, sans-serif" font-size="13" fill="#0F1828" font-weight="600" text-anchor="start">Public Cloud (AWS/Azure/GCP)</text><rect x="360" y="154" width="52" height="38" rx="4" fill="#C8443B" fill-opacity="0.9300000000000002"/><text x="386.0" y="178.0" font-family="Arial, Helvetica, sans-serif" font-size="12.5" fill="#0F1828" font-weight="700" text-anchor="middle">9</text><rect x="418" y="154" width="52" height="38" rx="4" fill="#C8443B" fill-opacity="0.8600000000000001"/><text x="444.0" y="178.0" font-family="Arial, Helvetica, sans-serif" font-size="12.5" fill="#0F1828" font-weight="700" text-anchor="middle">8</text><rect x="476" y="154" width="52" height="38" rx="4" fill="#C8443B" fill-opacity="0.9300000000000002"/><text x="502.0" y="178.0" font-family="Arial, Helvetica, sans-serif" font-size="12.5" fill="#0F1828" font-weight="700" text-anchor="middle">9</text><rect x="534" y="154" width="52" height="38" rx="4" fill="#C9A84C" fill-opacity="0.72"/><text x="560.0" y="178.0" font-family="Arial, Helvetica, sans-serif" font-size="12.5" fill="#0F1828" font-weight="700" text-anchor="middle">6</text><rect x="592" y="154" width="52" height="38" rx="4" fill="#C8443B" fill-opacity="0.9300000000000002"/><text x="618.0" y="178.0" font-family="Arial, Helvetica, sans-serif" font-size="12.5" fill="#0F1828" font-weight="700" text-anchor="middle">9</text><rect x="650" y="154" width="52" height="38" rx="4" fill="#C8443B" fill-opacity="0.8600000000000001"/><text x="676.0" y="178.0" font-family="Arial, Helvetica, sans-serif" font-size="12.5" fill="#0F1828" font-weight="700" text-anchor="middle">8</text><rect x="708" y="154" width="52" height="38" rx="4" fill="#C8443B" fill-opacity="0.8600000000000001"/><text x="734.0" y="178.0" font-family="Arial, Helvetica, sans-serif" font-size="12.5" fill="#0F1828" font-weight="700" text-anchor="middle">8</text><text x="800" y="179.0" font-family="Arial, Helvetica, sans-serif" font-size="16" fill="#C8443B" font-weight="700" text-anchor="middle">81.7</text><rect x="870" y="160" width="92" height="26" rx="9" fill="#C8443B" fill-opacity="0.18" stroke="#C8443B" stroke-width="1.3"/><text x="916" y="178.0" font-family="Arial, Helvetica, sans-serif" font-size="12" fill="#C8443B" font-weight="700" text-anchor="middle">Captured</text><text x="48" y="224.0" font-family="Arial, Helvetica, sans-serif" font-size="13" fill="#0F1828" font-weight="600" text-anchor="start">ERP (SAP / Oracle core)</text><rect x="360" y="200" width="52" height="38" rx="4" fill="#C8443B" fill-opacity="0.9300000000000002"/><text x="386.0" y="224.0" font-family="Arial, Helvetica, sans-serif" font-size="12.5" fill="#0F1828" font-weight="700" text-anchor="middle">9</text><rect x="418" y="200" width="52" height="38" rx="4" fill="#C8443B" fill-opacity="0.9300000000000002"/><text x="444.0" y="224.0" font-family="Arial, Helvetica, sans-serif" font-size="12.5" fill="#0F1828" font-weight="700" text-anchor="middle">9</text><rect x="476" y="200" width="52" height="38" rx="4" fill="#C8443B" fill-opacity="0.8600000000000001"/><text x="502.0" y="224.0" font-family="Arial, Helvetica, sans-serif" font-size="12.5" fill="#0F1828" font-weight="700" text-anchor="middle">8</text><rect x="534" y="200" width="52" height="38" rx="4" fill="#C8443B" fill-opacity="0.79"/><text x="560.0" y="224.0" font-family="Arial, Helvetica, sans-serif" font-size="12.5" fill="#0F1828" font-weight="700" text-anchor="middle">7</text><rect x="592" y="200" width="52" height="38" rx="4" fill="#C8443B" fill-opacity="0.79"/><text x="618.0" y="224.0" font-family="Arial, Helvetica, sans-serif" font-size="12.5" fill="#0F1828" font-weight="700" text-anchor="middle">7</text><rect x="650" y="200" width="52" height="38" rx="4" fill="#C9A84C" fill-opacity="0.72"/><text x="676.0" y="224.0" font-family="Arial, Helvetica, sans-serif" font-size="12.5" fill="#0F1828" font-weight="700" text-anchor="middle">6</text><rect x="708" y="200" width="52" height="38" rx="4" fill="#C8443B" fill-opacity="0.79"/><text x="734.0" y="224.0" font-family="Arial, Helvetica, sans-serif" font-size="12.5" fill="#0F1828" font-weight="700" text-anchor="middle">7</text><text x="800" y="225.0" font-family="Arial, Helvetica, sans-serif" font-size="16" fill="#C8443B" font-weight="700" text-anchor="middle">78.5</text><rect x="870" y="206" width="92" height="26" rx="9" fill="#C8443B" fill-opacity="0.18" stroke="#C8443B" stroke-width="1.3"/><text x="916" y="224.0" font-family="Arial, Helvetica, sans-serif" font-size="12" fill="#C8443B" font-weight="700" text-anchor="middle">Captured</text><text x="48" y="270.0" font-family="Arial, Helvetica, sans-serif" font-size="13" fill="#0F1828" text-anchor="start">Productivity (M365 / Workspace)</text><rect x="360" y="246" width="52" height="38" rx="4" fill="#C8443B" fill-opacity="0.79"/><text x="386.0" y="270.0" font-family="Arial, Helvetica, sans-serif" font-size="12.5" fill="#0F1828" font-weight="700" text-anchor="middle">7</text><rect x="418" y="246" width="52" height="38" rx="4" fill="#C8443B" fill-opacity="0.79"/><text x="444.0" y="270.0" font-family="Arial, Helvetica, sans-serif" font-size="12.5" fill="#0F1828" font-weight="700" text-anchor="middle">7</text><rect x="476" y="246" width="52" height="38" rx="4" fill="#C8443B" fill-opacity="0.9300000000000002"/><text x="502.0" y="270.0" font-family="Arial, Helvetica, sans-serif" font-size="12.5" fill="#0F1828" font-weight="700" text-anchor="middle">9</text><rect x="534" y="246" width="52" height="38" rx="4" fill="#C9A84C" fill-opacity="0.72"/><text x="560.0" y="270.0" font-family="Arial, Helvetica, sans-serif" font-size="12.5" fill="#0F1828" font-weight="700" text-anchor="middle">6</text><rect x="592" y="246" width="52" height="38" rx="4" fill="#C8443B" fill-opacity="0.8600000000000001"/><text x="618.0" y="270.0" font-family="Arial, Helvetica, sans-serif" font-size="12.5" fill="#0F1828" font-weight="700" text-anchor="middle">8</text><rect x="650" y="246" width="52" height="38" rx="4" fill="#C9A84C" fill-opacity="0.72"/><text x="676.0" y="270.0" font-family="Arial, Helvetica, sans-serif" font-size="12.5" fill="#0F1828" font-weight="700" text-anchor="middle">6</text><rect x="708" y="246" width="52" height="38" rx="4" fill="#C8443B" fill-opacity="0.8600000000000001"/><text x="734.0" y="270.0" font-family="Arial, Helvetica, sans-serif" font-size="12.5" fill="#0F1828" font-weight="700" text-anchor="middle">8</text><text x="800" y="271.0" font-family="Arial, Helvetica, sans-serif" font-size="16" fill="#C9A84C" font-weight="700" text-anchor="middle">72.5</text><rect x="870" y="252" width="92" height="26" rx="9" fill="#C9A84C" fill-opacity="0.18" stroke="#C9A84C" stroke-width="1.3"/><text x="916" y="270.0" font-family="Arial, Helvetica, sans-serif" font-size="12" fill="#C9A84C" font-weight="700" text-anchor="middle">Exposed</text><text x="48" y="316.0" font-family="Arial, Helvetica, sans-serif" font-size="13" fill="#0F1828" text-anchor="start">Desktop OS (Windows)</text><rect x="360" y="292" width="52" height="38" rx="4" fill="#C9A84C" fill-opacity="0.72"/><text x="386.0" y="316.0" font-family="Arial, Helvetica, sans-serif" font-size="12.5" fill="#0F1828" font-weight="700" text-anchor="middle">6</text><rect x="418" y="292" width="52" height="38" rx="4" fill="#C9A84C" fill-opacity="0.72"/><text x="444.0" y="316.0" font-family="Arial, Helvetica, sans-serif" font-size="12.5" fill="#0F1828" font-weight="700" text-anchor="middle">6</text><rect x="476" y="292" width="52" height="38" rx="4" fill="#C8443B" fill-opacity="0.9300000000000002"/><text x="502.0" y="316.0" font-family="Arial, Helvetica, sans-serif" font-size="12.5" fill="#0F1828" font-weight="700" text-anchor="middle">9</text><rect x="534" y="292" width="52" height="38" rx="4" fill="#C8443B" fill-opacity="0.79"/><text x="560.0" y="316.0" font-family="Arial, Helvetica, sans-serif" font-size="12.5" fill="#0F1828" font-weight="700" text-anchor="middle">7</text><rect x="592" y="292" width="52" height="38" rx="4" fill="#C8443B" fill-opacity="0.8600000000000001"/><text x="618.0" y="316.0" font-family="Arial, Helvetica, sans-serif" font-size="12.5" fill="#0F1828" font-weight="700" text-anchor="middle">8</text><rect x="650" y="292" width="52" height="38" rx="4" fill="#C9A84C" fill-opacity="0.72"/><text x="676.0" y="316.0" font-family="Arial, Helvetica, sans-serif" font-size="12.5" fill="#0F1828" font-weight="700" text-anchor="middle">6</text><rect x="708" y="292" width="52" height="38" rx="4" fill="#C8443B" fill-opacity="0.9300000000000002"/><text x="734.0" y="316.0" font-family="Arial, Helvetica, sans-serif" font-size="12.5" fill="#0F1828" font-weight="700" text-anchor="middle">9</text><text x="800" y="317.0" font-family="Arial, Helvetica, sans-serif" font-size="16" fill="#C9A84C" font-weight="700" text-anchor="middle">70.8</text><rect x="870" y="298" width="92" height="26" rx="9" fill="#C9A84C" fill-opacity="0.18" stroke="#C9A84C" stroke-width="1.3"/><text x="916" y="316.0" font-family="Arial, Helvetica, sans-serif" font-size="12" fill="#C9A84C" font-weight="700" text-anchor="middle">Exposed</text><text x="48" y="362.0" font-family="Arial, Helvetica, sans-serif" font-size="13" fill="#0F1828" text-anchor="start">Databases (Oracle / SQL Server)</text><rect x="360" y="338" width="52" height="38" rx="4" fill="#C8443B" fill-opacity="0.9300000000000002"/><text x="386.0" y="362.0" font-family="Arial, Helvetica, sans-serif" font-size="12.5" fill="#0F1828" font-weight="700" text-anchor="middle">9</text><rect x="418" y="338" width="52" height="38" rx="4" fill="#C8443B" fill-opacity="0.8600000000000001"/><text x="444.0" y="362.0" font-family="Arial, Helvetica, sans-serif" font-size="12.5" fill="#0F1828" font-weight="700" text-anchor="middle">8</text><rect x="476" y="338" width="52" height="38" rx="4" fill="#C8443B" fill-opacity="0.79"/><text x="502.0" y="362.0" font-family="Arial, Helvetica, sans-serif" font-size="12.5" fill="#0F1828" font-weight="700" text-anchor="middle">7</text><rect x="534" y="338" width="52" height="38" rx="4" fill="#C9A84C" fill-opacity="0.65"/><text x="560.0" y="362.0" font-family="Arial, Helvetica, sans-serif" font-size="12.5" fill="#0F1828" font-weight="700" text-anchor="middle">5</text><rect x="592" y="338" width="52" height="38" rx="4" fill="#C9A84C" fill-opacity="0.72"/><text x="618.0" y="362.0" font-family="Arial, Helvetica, sans-serif" font-size="12.5" fill="#0F1828" font-weight="700" text-anchor="middle">6</text><rect x="650" y="338" width="52" height="38" rx="4" fill="#C9A84C" fill-opacity="0.72"/><text x="676.0" y="362.0" font-family="Arial, Helvetica, sans-serif" font-size="12.5" fill="#0F1828" font-weight="700" text-anchor="middle">6</text><rect x="708" y="338" width="52" height="38" rx="4" fill="#C9A84C" fill-opacity="0.72"/><text x="734.0" y="362.0" font-family="Arial, Helvetica, sans-serif" font-size="12.5" fill="#0F1828" font-weight="700" text-anchor="middle">6</text><text x="800" y="363.0" font-family="Arial, Helvetica, sans-serif" font-size="16" fill="#C9A84C" font-weight="700" text-anchor="middle">70.0</text><rect x="870" y="344" width="92" height="26" rx="9" fill="#C9A84C" fill-opacity="0.18" stroke="#C9A84C" stroke-width="1.3"/><text x="916" y="362.0" font-family="Arial, Helvetica, sans-serif" font-size="12" fill="#C9A84C" font-weight="700" text-anchor="middle">Exposed</text><text x="48" y="408.0" font-family="Arial, Helvetica, sans-serif" font-size="13" fill="#0F1828" text-anchor="start">AI Platforms (frontier models)</text><rect x="360" y="384" width="52" height="38" rx="4" fill="#C8443B" fill-opacity="0.8600000000000001"/><text x="386.0" y="408.0" font-family="Arial, Helvetica, sans-serif" font-size="12.5" fill="#0F1828" font-weight="700" text-anchor="middle">8</text><rect x="418" y="384" width="52" height="38" rx="4" fill="#C9A84C" fill-opacity="0.65"/><text x="444.0" y="408.0" font-family="Arial, Helvetica, sans-serif" font-size="12.5" fill="#0F1828" font-weight="700" text-anchor="middle">5</text><rect x="476" y="384" width="52" height="38" rx="4" fill="#C8443B" fill-opacity="0.8600000000000001"/><text x="502.0" y="408.0" font-family="Arial, Helvetica, sans-serif" font-size="12.5" fill="#0F1828" font-weight="700" text-anchor="middle">8</text><rect x="534" y="384" width="52" height="38" rx="4" fill="#C9A84C" fill-opacity="0.72"/><text x="560.0" y="408.0" font-family="Arial, Helvetica, sans-serif" font-size="12.5" fill="#0F1828" font-weight="700" text-anchor="middle">6</text><rect x="592" y="384" width="52" height="38" rx="4" fill="#C8443B" fill-opacity="0.8600000000000001"/><text x="618.0" y="408.0" font-family="Arial, Helvetica, sans-serif" font-size="12.5" fill="#0F1828" font-weight="700" text-anchor="middle">8</text><rect x="650" y="384" width="52" height="38" rx="4" fill="#C8443B" fill-opacity="0.79"/><text x="676.0" y="408.0" font-family="Arial, Helvetica, sans-serif" font-size="12.5" fill="#0F1828" font-weight="700" text-anchor="middle">7</text><rect x="708" y="384" width="52" height="38" rx="4" fill="#C8443B" fill-opacity="0.79"/><text x="734.0" y="408.0" font-family="Arial, Helvetica, sans-serif" font-size="12.5" fill="#0F1828" font-weight="700" text-anchor="middle">7</text><text x="800" y="409.0" font-family="Arial, Helvetica, sans-serif" font-size="16" fill="#C9A84C" font-weight="700" text-anchor="middle">69.2</text><rect x="870" y="390" width="92" height="26" rx="9" fill="#C9A84C" fill-opacity="0.18" stroke="#C9A84C" stroke-width="1.3"/><text x="916" y="408.0" font-family="Arial, Helvetica, sans-serif" font-size="12" fill="#C9A84C" font-weight="700" text-anchor="middle">Exposed</text><text x="48" y="454.0" font-family="Arial, Helvetica, sans-serif" font-size="13" fill="#0F1828" text-anchor="start">Cybersecurity</text><rect x="360" y="430" width="52" height="38" rx="4" fill="#C8443B" fill-opacity="0.8600000000000001"/><text x="386.0" y="454.0" font-family="Arial, Helvetica, sans-serif" font-size="12.5" fill="#0F1828" font-weight="700" text-anchor="middle">8</text><rect x="418" y="430" width="52" height="38" rx="4" fill="#C9A84C" fill-opacity="0.65"/><text x="444.0" y="454.0" font-family="Arial, Helvetica, sans-serif" font-size="12.5" fill="#0F1828" font-weight="700" text-anchor="middle">5</text><rect x="476" y="430" width="52" height="38" rx="4" fill="#C8443B" fill-opacity="0.79"/><text x="502.0" y="454.0" font-family="Arial, Helvetica, sans-serif" font-size="12.5" fill="#0F1828" font-weight="700" text-anchor="middle">7</text><rect x="534" y="430" width="52" height="38" rx="4" fill="#C9A84C" fill-opacity="0.65"/><text x="560.0" y="454.0" font-family="Arial, Helvetica, sans-serif" font-size="12.5" fill="#0F1828" font-weight="700" text-anchor="middle">5</text><rect x="592" y="430" width="52" height="38" rx="4" fill="#C9A84C" fill-opacity="0.72"/><text x="618.0" y="454.0" font-family="Arial, Helvetica, sans-serif" font-size="12.5" fill="#0F1828" font-weight="700" text-anchor="middle">6</text><rect x="650" y="430" width="52" height="38" rx="4" fill="#C8443B" fill-opacity="0.8600000000000001"/><text x="676.0" y="454.0" font-family="Arial, Helvetica, sans-serif" font-size="12.5" fill="#0F1828" font-weight="700" text-anchor="middle">8</text><rect x="708" y="430" width="52" height="38" rx="4" fill="#C9A84C" fill-opacity="0.65"/><text x="734.0" y="454.0" font-family="Arial, Helvetica, sans-serif" font-size="12.5" fill="#0F1828" font-weight="700" text-anchor="middle">5</text><text x="800" y="455.0" font-family="Arial, Helvetica, sans-serif" font-size="16" fill="#C9A84C" font-weight="700" text-anchor="middle">63.2</text><rect x="870" y="436" width="92" height="26" rx="9" fill="#C9A84C" fill-opacity="0.18" stroke="#C9A84C" stroke-width="1.3"/><text x="916" y="454.0" font-family="Arial, Helvetica, sans-serif" font-size="12" fill="#C9A84C" font-weight="700" text-anchor="middle">Exposed</text><text x="48" y="500.0" font-family="Arial, Helvetica, sans-serif" font-size="13" fill="#0F1828" text-anchor="start">CRM (Salesforce vs Zoho)</text><rect x="360" y="476" width="52" height="38" rx="4" fill="#C9A84C" fill-opacity="0.72"/><text x="386.0" y="500.0" font-family="Arial, Helvetica, sans-serif" font-size="12.5" fill="#0F1828" font-weight="700" text-anchor="middle">6</text><rect x="418" y="476" width="52" height="38" rx="4" fill="#C9A84C" fill-opacity="0.72"/><text x="444.0" y="500.0" font-family="Arial, Helvetica, sans-serif" font-size="12.5" fill="#0F1828" font-weight="700" text-anchor="middle">6</text><rect x="476" y="476" width="52" height="38" rx="4" fill="#C9A84C" fill-opacity="0.72"/><text x="502.0" y="500.0" font-family="Arial, Helvetica, sans-serif" font-size="12.5" fill="#0F1828" font-weight="700" text-anchor="middle">6</text><rect x="534" y="476" width="52" height="38" rx="4" fill="#C9A84C" fill-opacity="0.5800000000000001"/><text x="560.0" y="500.0" font-family="Arial, Helvetica, sans-serif" font-size="12.5" fill="#0F1828" font-weight="700" text-anchor="middle">4</text><rect x="592" y="476" width="52" height="38" rx="4" fill="#C9A84C" fill-opacity="0.72"/><text x="618.0" y="500.0" font-family="Arial, Helvetica, sans-serif" font-size="12.5" fill="#0F1828" font-weight="700" text-anchor="middle">6</text><rect x="650" y="476" width="52" height="38" rx="4" fill="#C9A84C" fill-opacity="0.65"/><text x="676.0" y="500.0" font-family="Arial, Helvetica, sans-serif" font-size="12.5" fill="#0F1828" font-weight="700" text-anchor="middle">5</text><rect x="708" y="476" width="52" height="38" rx="4" fill="#C9A84C" fill-opacity="0.72"/><text x="734.0" y="500.0" font-family="Arial, Helvetica, sans-serif" font-size="12.5" fill="#0F1828" font-weight="700" text-anchor="middle">6</text><text x="800" y="501.0" font-family="Arial, Helvetica, sans-serif" font-size="16" fill="#C9A84C" font-weight="700" text-anchor="middle">56.0</text><rect x="870" y="482" width="92" height="26" rx="9" fill="#C9A84C" fill-opacity="0.18" stroke="#C9A84C" stroke-width="1.3"/><text x="916" y="500.0" font-family="Arial, Helvetica, sans-serif" font-size="12" fill="#C9A84C" font-weight="700" text-anchor="middle">Exposed</text><text x="48" y="546.0" font-family="Arial, Helvetica, sans-serif" font-size="13" fill="#0F1828" text-anchor="start">Server OS (Linux)</text><rect x="360" y="522" width="52" height="38" rx="4" fill="#C8443B" fill-opacity="0.8600000000000001"/><text x="386.0" y="546.0" font-family="Arial, Helvetica, sans-serif" font-size="12.5" fill="#0F1828" font-weight="700" text-anchor="middle">8</text><rect x="418" y="522" width="52" height="38" rx="4" fill="#C9A84C" fill-opacity="0.5800000000000001"/><text x="444.0" y="546.0" font-family="Arial, Helvetica, sans-serif" font-size="12.5" fill="#0F1828" font-weight="700" text-anchor="middle">4</text><rect x="476" y="522" width="52" height="38" rx="4" fill="#C9A84C" fill-opacity="0.5800000000000001"/><text x="502.0" y="546.0" font-family="Arial, Helvetica, sans-serif" font-size="12.5" fill="#0F1828" font-weight="700" text-anchor="middle">4</text><rect x="534" y="522" width="52" height="38" rx="4" fill="#2BC5B4" fill-opacity="0.51"/><text x="560.0" y="546.0" font-family="Arial, Helvetica, sans-serif" font-size="12.5" fill="#0F1828" font-weight="700" text-anchor="middle">3</text><rect x="592" y="522" width="52" height="38" rx="4" fill="#2BC5B4" fill-opacity="0.51"/><text x="618.0" y="546.0" font-family="Arial, Helvetica, sans-serif" font-size="12.5" fill="#0F1828" font-weight="700" text-anchor="middle">3</text><rect x="650" y="522" width="52" height="38" rx="4" fill="#C9A84C" fill-opacity="0.65"/><text x="676.0" y="546.0" font-family="Arial, Helvetica, sans-serif" font-size="12.5" fill="#0F1828" font-weight="700" text-anchor="middle">5</text><rect x="708" y="522" width="52" height="38" rx="4" fill="#2BC5B4" fill-opacity="0.51"/><text x="734.0" y="546.0" font-family="Arial, Helvetica, sans-serif" font-size="12.5" fill="#0F1828" font-weight="700" text-anchor="middle">3</text><text x="800" y="547.0" font-family="Arial, Helvetica, sans-serif" font-size="16" fill="#1A8A7D" font-weight="700" text-anchor="middle">45.5</text><rect x="870" y="528" width="92" height="26" rx="9" fill="#1A8A7D" fill-opacity="0.18" stroke="#1A8A7D" stroke-width="1.3"/><text x="916" y="546.0" font-family="Arial, Helvetica, sans-serif" font-size="12" fill="#1A8A7D" font-weight="700" text-anchor="middle">Managed</text><text x="48" y="592.0" font-family="Arial, Helvetica, sans-serif" font-size="13" fill="#0F1828" text-anchor="start">Identity (Aadhaar)</text><rect x="360" y="568" width="52" height="38" rx="4" fill="#C8443B" fill-opacity="0.9300000000000002"/><text x="386.0" y="592.0" font-family="Arial, Helvetica, sans-serif" font-size="12.5" fill="#0F1828" font-weight="700" text-anchor="middle">9</text><rect x="418" y="568" width="52" height="38" rx="4" fill="#C9A84C" fill-opacity="0.5800000000000001"/><text x="444.0" y="592.0" font-family="Arial, Helvetica, sans-serif" font-size="12.5" fill="#0F1828" font-weight="700" text-anchor="middle">4</text><rect x="476" y="568" width="52" height="38" rx="4" fill="#2BC5B4" fill-opacity="0.44"/><text x="502.0" y="592.0" font-family="Arial, Helvetica, sans-serif" font-size="12.5" fill="#0F1828" font-weight="700" text-anchor="middle">2</text><rect x="534" y="568" width="52" height="38" rx="4" fill="#2BC5B4" fill-opacity="0.44"/><text x="560.0" y="592.0" font-family="Arial, Helvetica, sans-serif" font-size="12.5" fill="#0F1828" font-weight="700" text-anchor="middle">2</text><rect x="592" y="568" width="52" height="38" rx="4" fill="#2BC5B4" fill-opacity="0.37"/><text x="618.0" y="592.0" font-family="Arial, Helvetica, sans-serif" font-size="12.5" fill="#0F1828" font-weight="700" text-anchor="middle">1</text><rect x="650" y="568" width="52" height="38" rx="4" fill="#C8443B" fill-opacity="0.79"/><text x="676.0" y="592.0" font-family="Arial, Helvetica, sans-serif" font-size="12.5" fill="#0F1828" font-weight="700" text-anchor="middle">7</text><rect x="708" y="568" width="52" height="38" rx="4" fill="#2BC5B4" fill-opacity="0.51"/><text x="734.0" y="592.0" font-family="Arial, Helvetica, sans-serif" font-size="12.5" fill="#0F1828" font-weight="700" text-anchor="middle">3</text><text x="800" y="593.0" font-family="Arial, Helvetica, sans-serif" font-size="16" fill="#1A8A7D" font-weight="700" text-anchor="middle">42.6</text><rect x="870" y="574" width="92" height="26" rx="9" fill="#1A8A7D" fill-opacity="0.18" stroke="#1A8A7D" stroke-width="1.3"/><text x="916" y="592.0" font-family="Arial, Helvetica, sans-serif" font-size="12" fill="#1A8A7D" font-weight="700" text-anchor="middle">Managed</text><text x="48" y="638.0" font-family="Arial, Helvetica, sans-serif" font-size="13" fill="#0F1828" text-anchor="start">Payment Rails (UPI)</text><rect x="360" y="614" width="52" height="38" rx="4" fill="#C8443B" fill-opacity="0.9300000000000002"/><text x="386.0" y="638.0" font-family="Arial, Helvetica, sans-serif" font-size="12.5" fill="#0F1828" font-weight="700" text-anchor="middle">9</text><rect x="418" y="614" width="52" height="38" rx="4" fill="#2BC5B4" fill-opacity="0.51"/><text x="444.0" y="638.0" font-family="Arial, Helvetica, sans-serif" font-size="12.5" fill="#0F1828" font-weight="700" text-anchor="middle">3</text><rect x="476" y="614" width="52" height="38" rx="4" fill="#2BC5B4" fill-opacity="0.37"/><text x="502.0" y="638.0" font-family="Arial, Helvetica, sans-serif" font-size="12.5" fill="#0F1828" font-weight="700" text-anchor="middle">1</text><rect x="534" y="614" width="52" height="38" rx="4" fill="#2BC5B4" fill-opacity="0.37"/><text x="560.0" y="638.0" font-family="Arial, Helvetica, sans-serif" font-size="12.5" fill="#0F1828" font-weight="700" text-anchor="middle">1</text><rect x="592" y="614" width="52" height="38" rx="4" fill="#2BC5B4" fill-opacity="0.37"/><text x="618.0" y="638.0" font-family="Arial, Helvetica, sans-serif" font-size="12.5" fill="#0F1828" font-weight="700" text-anchor="middle">1</text><rect x="650" y="614" width="52" height="38" rx="4" fill="#C9A84C" fill-opacity="0.72"/><text x="676.0" y="638.0" font-family="Arial, Helvetica, sans-serif" font-size="12.5" fill="#0F1828" font-weight="700" text-anchor="middle">6</text><rect x="708" y="614" width="52" height="38" rx="4" fill="#C9A84C" fill-opacity="0.5800000000000001"/><text x="734.0" y="638.0" font-family="Arial, Helvetica, sans-serif" font-size="12.5" fill="#0F1828" font-weight="700" text-anchor="middle">4</text><text x="800" y="639.0" font-family="Arial, Helvetica, sans-serif" font-size="16" fill="#1A8A7D" font-weight="700" text-anchor="middle">37.4</text><rect x="870" y="620" width="92" height="26" rx="9" fill="#1A8A7D" fill-opacity="0.18" stroke="#1A8A7D" stroke-width="1.3"/><text x="916" y="638.0" font-family="Arial, Helvetica, sans-serif" font-size="12" fill="#1A8A7D" font-weight="700" text-anchor="middle">Managed</text><text x="48" y="680" font-family="Arial, Helvetica, sans-serif" font-size="0" fill="#0F1828" text-anchor="start">·</text><text x="48" y="680" font-family="Arial, Helvetica, sans-serif" font-size="11.5" fill="#4A5567" text-anchor="start">Variables:  SC Strategic Criticality · SD Switching Difficulty · FO Foreign Ownership · DC Domestic-Capability Deficit · GE Geopolitical Exposure · SE Security Exposure · VC Vendor Concentration</text></svg>