<?xml version="1.0" encoding="UTF-8"?>
<svg xmlns="http://www.w3.org/2000/svg" version="1.1" viewBox="0 0 1180 720">
  <!-- Generator: Adobe Illustrator 30.4.0, SVG Export Plug-In . SVG Version: 2.1.4 Build 226)  -->
  <defs>
    <style>
      .st0 {
        font-size: 10.5px;
      }

      .st0, .st1, .st2, .st3, .st4, .st5, .st6, .st7, .st8, .st9, .st10, .st11, .st12, .st13, .st14 {
        isolation: isolate;
      }

      .st0, .st1, .st2, .st3, .st4, .st5, .st10 {
        font-family: ArialMT, Arial;
      }

      .st0, .st7, .st8, .st11 {
        fill: #9c7e1f;
      }

      .st1, .st3, .st12, .st14 {
        font-size: 13px;
      }

      .st1, .st12, .st13 {
        fill: #0f1828;
      }

      .st15 {
        fill: #fbf9f4;
      }

      .st16, .st17, .st18, .st19 {
        fill: #fff;
      }

      .st2 {
        font-size: 12.5px;
      }

      .st2, .st3, .st4, .st5, .st10 {
        fill: #4a5567;
      }

      .st4 {
        font-size: 16px;
      }

      .st5 {
        font-size: 11.5px;
      }

      .st6, .st7, .st8, .st9, .st11, .st12, .st13, .st14 {
        font-weight: 700;
      }

      .st6, .st9, .st11 {
        font-family: CourierNewPS-BoldMT, 'Courier New';
        font-size: 26px;
      }

      .st6, .st14 {
        fill: #1a8a7d;
      }

      .st7, .st8, .st12, .st13, .st14 {
        font-family: Arial-BoldMT, Arial;
      }

      .st7, .st10 {
        font-size: 12px;
      }

      .st20 {
        fill: none;
        stroke: #e8e5dd;
      }

      .st8 {
        font-size: 14px;
      }

      .st9 {
        fill: #c8443b;
      }

      .st21 {
        fill: #2bc5b4;
        fill-opacity: .85;
      }

      .st17 {
        stroke: #9c7e1f;
      }

      .st17, .st18, .st19 {
        stroke-width: 1.61px;
      }

      .st22 {
        fill: #c9a84c;
        fill-opacity: .28;
      }

      .st18 {
        stroke: #c8443b;
      }

      .st13 {
        font-size: 27px;
      }

      .st19 {
        stroke: #1a8a7d;
      }
    </style>
  </defs>
  <g id="Layer_2">
    <rect class="st15" x="-.43" y="-.5" width="1180" height="720"/>
  </g>
  <g id="Layer_3">
    <rect class="st16" x="30.72" y="132.95" width="727.43" height="456.64"/>
  </g>
  <g id="Layer_1">
    <text class="st13" transform="translate(56 54)"><tspan x="0" y="0">The prize, sized</tspan></text>
    <text class="st4" transform="translate(56 84)"><tspan x="0" y="0">India’s addressable enterprise-software + cloud market, and the share a sovereign stack could capture by 2035.</tspan></text>
    <text class="st3" transform="translate(908.15 40)"><tspan x="0" y="0">Figure 21.1 · Techadyant Labs · 2026</tspan></text>
    <line class="st20" x1="90" y1="560" x2="720" y2="560"/>
    <text class="st10" transform="translate(55.65 564)"><tspan x="0" y="0">$0</tspan></text>
    <line class="st20" x1="90" y1="462" x2="720" y2="462"/>
    <text class="st10" transform="translate(48.98 466)"><tspan x="0" y="0">$45</tspan></text>
    <line class="st20" x1="90" y1="365" x2="720" y2="365"/>
    <text class="st10" transform="translate(48.98 369)"><tspan x="0" y="0">$90</tspan></text>
    <line class="st20" x1="90" y1="268" x2="720" y2="268"/>
    <text class="st10" transform="translate(42.3 272)"><tspan x="0" y="0">$135</tspan></text>
    <line class="st20" x1="90" y1="170" x2="720" y2="170"/>
    <text class="st10" transform="translate(42.3 174)"><tspan x="0" y="0">$180</tspan></text>
    <text class="st12" transform="translate(44 388.47) rotate(-90)"><tspan x="0" y="0">USD bn</tspan></text>
    <rect class="st22" x="69" y="471" width="42" height="89" rx="3" ry="3"/>
    <path class="st21" d="M72,556h36c1.66,0,3,.9,3,2h0c0,1.1-1.34,2-3,2h-36c-1.66,0-3-.9-3-2h0c0-1.1,1.34-2,3-2Z"/>
    <text class="st5" transform="translate(77.21 580)"><tspan x="0" y="0">2026</tspan></text>
    <rect class="st22" x="139" y="455" width="42" height="105" rx="3" ry="3"/>
    <rect class="st21" x="139" y="552" width="42" height="8" rx="3" ry="3"/>
    <text class="st5" transform="translate(147.21 580)"><tspan x="0" y="0">2027</tspan></text>
    <rect class="st22" x="209" y="436" width="42" height="124" rx="3" ry="3"/>
    <rect class="st21" x="209" y="547" width="42" height="13" rx="3" ry="3"/>
    <text class="st5" transform="translate(217.21 580)"><tspan x="0" y="0">2028</tspan></text>
    <rect class="st22" x="279" y="413" width="42" height="147" rx="3" ry="3"/>
    <rect class="st21" x="279" y="540" width="42" height="20" rx="3" ry="3"/>
    <text class="st5" transform="translate(287.21 580)"><tspan x="0" y="0">2029</tspan></text>
    <rect class="st22" x="349" y="389" width="42" height="171" rx="3" ry="3"/>
    <rect class="st21" x="349" y="532" width="42" height="28" rx="3" ry="3"/>
    <text class="st5" transform="translate(357.21 580)"><tspan x="0" y="0">2030</tspan></text>
    <rect class="st22" x="419" y="361" width="42" height="199" rx="3" ry="3"/>
    <rect class="st21" x="419" y="522" width="42" height="38" rx="3" ry="3"/>
    <text class="st5" transform="translate(427.21 580)"><tspan x="0" y="0">2031</tspan></text>
    <rect class="st22" x="489" y="329" width="42" height="231" rx="3" ry="3"/>
    <rect class="st21" x="489" y="510" width="42" height="50" rx="3" ry="3"/>
    <text class="st5" transform="translate(497.21 580)"><tspan x="0" y="0">2032</tspan></text>
    <rect class="st22" x="559" y="291" width="42" height="269" rx="3" ry="3"/>
    <rect class="st21" x="559" y="494" width="42" height="66" rx="3" ry="3"/>
    <text class="st5" transform="translate(567.21 580)"><tspan x="0" y="0">2033</tspan></text>
    <rect class="st22" x="629" y="247" width="42" height="313" rx="3" ry="3"/>
    <rect class="st21" x="629" y="475" width="42" height="85" rx="3" ry="3"/>
    <text class="st5" transform="translate(637.21 580)"><tspan x="0" y="0">2034</tspan></text>
    <rect class="st22" x="699" y="195" width="42" height="365" rx="3" ry="3"/>
    <rect class="st21" x="699" y="451" width="42" height="109" rx="3" ry="3"/>
    <text class="st5" transform="translate(707.21 580)"><tspan x="0" y="0">2035</tspan></text>
    <text class="st7" transform="translate(79.99 463)"><tspan x="0" y="0">$41</tspan></text>
    <text class="st8" transform="translate(695.88 169)"><tspan x="0" y="0">$168bn</tspan></text>
    <text class="st0" transform="translate(691.4 185)"><tspan x="0" y="0">addressable</tspan></text>
    <text class="st14" transform="translate(701.21 443)"><tspan x="0" y="0">$51bn</tspan></text>
    <rect class="st22" x="90" y="600" width="16" height="16"/>
    <text class="st1" transform="translate(114 613)"><tspan x="0" y="0">Total addressable (enterprise software + public cloud)</tspan></text>
    <rect class="st21" x="90" y="624" width="16" height="16"/>
    <text class="st1" transform="translate(114 637)"><tspan x="0" y="0">Sovereign-capturable (central, 5%→30% ramp; range $34–68bn)</tspan></text>
    <rect class="st19" x="770" y="168" width="384.61" height="92" rx="10.73" ry="10.73"/>
    <text class="st6" transform="translate(788 202)"><tspan x="0" y="0">~$51bn</tspan></text>
    <text class="st1" transform="translate(788 226)"><tspan x="0" y="0">Sovereign-software TAM by 2035 (central)</tspan></text>
    <text class="st2" transform="translate(788 246)"><tspan x="0" y="0">range $34–68bn · modelled</tspan></text>
    <rect class="st18" x="770" y="272" width="384.61" height="92" rx="10.73" ry="10.73"/>
    <text class="st9" transform="translate(788 306)"><tspan x="0" y="0">$4.6–10.2bn/yr</tspan></text>
    <text class="st1" transform="translate(788 330)"><tspan x="0" y="0">Replaceable foreign-software spend</tspan></text>
    <text class="st2" transform="translate(788 350)"><tspan x="0" y="0">central ~$7.4bn · +40–60% saving</tspan></text>
    <rect class="st17" x="770" y="376" width="384.61" height="92" rx="10.73" ry="10.73"/>
    <text class="st11" transform="translate(788 410)"><tspan x="0" y="0">$224bn vs $78bn</tspan></text>
    <text class="st1" transform="translate(788 434)"><tspan x="0" y="0">India software exports = SERVICES;</tspan></text>
    <text class="st2" transform="translate(788 454)"><tspan x="0" y="0">Israel = PRODUCTS. India must export products + the DPI stack.</tspan></text>
    <text class="st2" transform="translate(770 500)"><tspan x="0" y="0">Two export models: Israel-style deep-tech</tspan></text>
    <text class="st2" transform="translate(770 518)"><tspan x="0" y="0">products (cyber) + DPI/MOSIP sovereign-stack</tspan></text>
    <text class="st2" transform="translate(770 536)"><tspan x="0" y="0">export to the Global South.</tspan></text>
    <text class="st2" transform="translate(56.08 686.93)"><tspan x="0" y="0">Source: Gartner, IDC, RBI, NASSCOM, Israel Innovation Authority. TAM &amp; capture modelled by Techadyant Labs; ranges, not forecasts.</tspan></text>
  </g>
</svg>