<svg viewBox="0 0 1100 1000" xmlns="http://www.w3.org/2000/svg" font-family="Arial, Helvetica, sans-serif">
<rect width="1100" height="1000" fill="#FBF9F4"/>
<text x="70" y="52" font-size="32" font-weight="700" fill="#0F1828">The strategic-technologies wheel</text>
<text x="70" y="82" font-size="16" fill="#4A5567">Six domains, one capability: technology sovereignty.</text>
<text x="1030" y="40" font-size="14" fill="#4A5567" text-anchor="end" font-family="monospace">Figure 1.3 - Techadyant Labs - 2026</text>
<circle cx="550.0" cy="540.0" r="120" fill="#0F1828"/>
<text x="550.0" y="534.0" font-size="22" fill="#ffffff" text-anchor="middle" font-weight="700">Technology</text>
<text x="550.0" y="562.0" font-size="22" fill="#C9A84C" text-anchor="middle" font-weight="700">Sovereignty</text>
<line x1="550" y1="420" x2="550" y2="285" stroke="#E8E5DD" stroke-width="3"/>
<circle cx="550" cy="240" r="68" fill="#2BC5B4" fill-opacity="0.9"/>
<text x="550" y="246" font-size="19" fill="#ffffff" text-anchor="middle" font-weight="600">Chips</text>
<line x1="654" y1="480" x2="749" y2="412" stroke="#E8E5DD" stroke-width="3"/>
<circle cx="810" cy="390" r="68" fill="#2BC5B4" fill-opacity="0.9"/>
<text x="810" y="396" font-size="19" fill="#ffffff" text-anchor="middle" font-weight="600">AI</text>
<line x1="654" y1="600" x2="749" y2="668" stroke="#E8E5DD" stroke-width="3"/>
<circle cx="810" cy="690" r="68" fill="#2BC5B4" fill-opacity="0.9"/>
<text x="810" y="696" font-size="19" fill="#ffffff" text-anchor="middle" font-weight="600">Cloud</text>
<line x1="550" y1="660" x2="550" y2="795" stroke="#E8E5DD" stroke-width="3"/>
<circle cx="550" cy="840" r="68" fill="#2BC5B4" fill-opacity="0.9"/>
<text x="550" y="846" font-size="19" fill="#ffffff" text-anchor="middle" font-weight="600">Defence</text>
<line x1="446" y1="600" x2="351" y2="668" stroke="#E8E5DD" stroke-width="3"/>
<circle cx="290" cy="690" r="68" fill="#2BC5B4" fill-opacity="0.9"/>
<text x="290" y="696" font-size="19" fill="#ffffff" text-anchor="middle" font-weight="600">Telecom</text>
<line x1="446" y1="480" x2="351" y2="412" stroke="#E8E5DD" stroke-width="3"/>
<circle cx="290" cy="390" r="68" fill="#2BC5B4" fill-opacity="0.9"/>
<text x="290" y="396" font-size="19" fill="#ffffff" text-anchor="middle" font-weight="600">Cybersecurity</text>
<text x="70" y="972" font-size="13" fill="#4A5567">Source: Techadyant Labs analysis.</text>
</svg>