<svg viewBox="0 0 1200 820" xmlns="http://www.w3.org/2000/svg" font-family="Arial, Helvetica, sans-serif">
<rect width="1200" height="820" fill="#FBF9F4"/>
<text x="70" y="52" font-size="32" font-weight="700" fill="#0F1828">The engineering-software sovereignty stack</text>
<text x="70" y="82" font-size="16" fill="#4A5567">Where India can build versus rent, layer by layer.</text>
<text x="1130" y="40" font-size="14" fill="#4A5567" text-anchor="end" font-family="monospace">Figure 5.2 - Techadyant Labs - 2026</text>
<rect x="110" y="170" width="980" height="76" rx="8" fill="#ffffff" stroke="#E8E5DD" stroke-width="1.5"/>
<rect x="110" y="170" width="14" height="76" rx="3" fill="#C8443B"/>
<text x="144" y="214" font-size="19" font-weight="700" fill="#0F1828">EDA tools</text>
<rect x="470" y="193" width="120" height="30" rx="15" fill="#C8443B"/>
<text x="530" y="213" font-size="12" fill="#fff" text-anchor="middle" font-weight="700" font-family="monospace">MISSING</text>
<text x="610" y="214" font-size="14" fill="#4A5567">Synopsys/Cadence/Siemens &gt;70%</text>
<rect x="110" y="258" width="980" height="76" rx="8" fill="#ffffff" stroke="#E8E5DD" stroke-width="1.5"/>
<rect x="110" y="258" width="14" height="76" rx="3" fill="#C9A84C"/>
<text x="144" y="302" font-size="19" font-weight="700" fill="#0F1828">IP cores / ISA</text>
<rect x="470" y="282" width="120" height="30" rx="15" fill="#C9A84C"/>
<text x="530" y="302" font-size="12" fill="#0F1828" text-anchor="middle" font-weight="700" font-family="monospace">EMERGING</text>
<text x="610" y="302" font-size="14" fill="#4A5567">Arm licensed vs RISC-V open</text>
<rect x="110" y="347" width="980" height="76" rx="8" fill="#ffffff" stroke="#E8E5DD" stroke-width="1.5"/>
<rect x="110" y="347" width="14" height="76" rx="3" fill="#C8443B"/>
<text x="144" y="391" font-size="19" font-weight="700" fill="#0F1828">CAE / simulation</text>
<rect x="470" y="370" width="120" height="30" rx="15" fill="#C8443B"/>
<text x="530" y="390" font-size="12" fill="#fff" text-anchor="middle" font-weight="700" font-family="monospace">MISSING</text>
<text x="610" y="391" font-size="14" fill="#4A5567">Ansys/Dassault entrenched</text>
<rect x="110" y="435" width="980" height="76" rx="8" fill="#ffffff" stroke="#E8E5DD" stroke-width="1.5"/>
<rect x="110" y="435" width="14" height="76" rx="3" fill="#C9A84C"/>
<text x="144" y="479" font-size="19" font-weight="700" fill="#0F1828">PCB / CAD</text>
<rect x="470" y="458" width="120" height="30" rx="15" fill="#C9A84C"/>
<text x="530" y="478" font-size="12" fill="#0F1828" text-anchor="middle" font-weight="700" font-family="monospace">EMERGING</text>
<text x="610" y="479" font-size="14" fill="#4A5567">some domestic adoption</text>
<rect x="110" y="523" width="980" height="76" rx="8" fill="#ffffff" stroke="#E8E5DD" stroke-width="1.5"/>
<rect x="110" y="523" width="14" height="76" rx="3" fill="#C9A84C"/>
<text x="144" y="567" font-size="19" font-weight="700" fill="#0F1828">Verification services</text>
<rect x="470" y="546" width="120" height="30" rx="15" fill="#C9A84C"/>
<text x="530" y="566" font-size="12" fill="#0F1828" text-anchor="middle" font-weight="700" font-family="monospace">EMERGING</text>
<text x="610" y="567" font-size="14" fill="#4A5567">India design-services strength</text>
<rect x="110" y="612" width="980" height="76" rx="8" fill="#ffffff" stroke="#E8E5DD" stroke-width="1.5"/>
<rect x="110" y="612" width="14" height="76" rx="3" fill="#C9A84C"/>
<text x="144" y="656" font-size="19" font-weight="700" fill="#0F1828">Open-source flows</text>
<rect x="470" y="635" width="120" height="30" rx="15" fill="#C9A84C"/>
<text x="530" y="655" font-size="12" fill="#0F1828" text-anchor="middle" font-weight="700" font-family="monospace">EMERGING</text>
<text x="610" y="656" font-size="14" fill="#4A5567">SHAKTI tape-out proof</text>
<text x="70" y="792" font-size="13" fill="#4A5567">Source: Techadyant Labs analysis; NITI Aayog 2026.</text>
<text x="1130" y="792" font-size="12" fill="#C9A84C" text-anchor="end" font-style="italic">Position indicative</text>
</svg>