<svg viewBox="0 0 1400 760" xmlns="http://www.w3.org/2000/svg" font-family="Arial, Helvetica, sans-serif">
<rect width="1400" height="760" fill="#FBF9F4"/>
<text x="70" y="52" font-size="32" font-weight="700" fill="#0F1828">Industrial-AI adoption, 2026-2035</text>
<text x="70" y="82" font-size="16" fill="#4A5567">Modelled adoption across Indian manufacturing (% of eligible lines).</text>
<text x="1330" y="40" font-size="14" fill="#4A5567" text-anchor="end" font-family="monospace">Figure 4.2 - Techadyant Labs - 2026</text>
<rect x="140" y="160" width="1160" height="480" fill="#ffffff" stroke="#E8E5DD"/>
<text x="140" y="664" font-size="12" fill="#4A5567" text-anchor="middle" font-family="monospace">2026</text>
<text x="269" y="664" font-size="12" fill="#4A5567" text-anchor="middle" font-family="monospace">2027</text>
<text x="398" y="664" font-size="12" fill="#4A5567" text-anchor="middle" font-family="monospace">2028</text>
<text x="527" y="664" font-size="12" fill="#4A5567" text-anchor="middle" font-family="monospace">2029</text>
<text x="656" y="664" font-size="12" fill="#4A5567" text-anchor="middle" font-family="monospace">2030</text>
<text x="784" y="664" font-size="12" fill="#4A5567" text-anchor="middle" font-family="monospace">2031</text>
<text x="913" y="664" font-size="12" fill="#4A5567" text-anchor="middle" font-family="monospace">2032</text>
<text x="1042" y="664" font-size="12" fill="#4A5567" text-anchor="middle" font-family="monospace">2033</text>
<text x="1171" y="664" font-size="12" fill="#4A5567" text-anchor="middle" font-family="monospace">2034</text>
<text x="1300" y="664" font-size="12" fill="#4A5567" text-anchor="middle" font-family="monospace">2035</text>
<polyline points="140,626 269,612 398,588 527,545 656,481 784,400 913,319 1042,255 1171,212 1300,188" fill="none" stroke="#2BC5B4" stroke-width="4"/>
<circle cx="140" cy="626" r="4" fill="#2BC5B4"/>
<circle cx="269" cy="612" r="4" fill="#2BC5B4"/>
<circle cx="398" cy="588" r="4" fill="#2BC5B4"/>
<circle cx="527" cy="545" r="4" fill="#2BC5B4"/>
<circle cx="656" cy="481" r="4" fill="#2BC5B4"/>
<circle cx="784" cy="400" r="4" fill="#2BC5B4"/>
<circle cx="913" cy="319" r="4" fill="#2BC5B4"/>
<circle cx="1042" cy="255" r="4" fill="#2BC5B4"/>
<circle cx="1171" cy="212" r="4" fill="#2BC5B4"/>
<circle cx="1300" cy="188" r="4" fill="#2BC5B4"/>
<text x="1300" y="174" font-size="15" fill="#2BC5B4" text-anchor="end" font-weight="700">~75% by 2035</text>
<text x="70" y="732" font-size="13" fill="#4A5567">Source: Techadyant Labs modelling.</text>
<text x="1330" y="732" font-size="12" fill="#C9A84C" text-anchor="end" font-style="italic">Forecast / modelled</text>
</svg>