<svg viewBox="0 0 1340 860" xmlns="http://www.w3.org/2000/svg" font-family="Arial, Helvetica, sans-serif">
<rect width="1340" height="860" fill="#FBF9F4"/>
<text x="70" y="52" font-size="32" font-weight="700" fill="#0F1828">The cybersecurity opportunity matrix</text>
<text x="70" y="82" font-size="16" fill="#4A5567">Market size versus strategic urgency, for the twelve security opportunities.</text>
<text x="1270" y="40" font-size="14" fill="#4A5567" text-anchor="end" font-family="monospace">Figure 6.2 - Techadyant Labs - 2026</text>
<rect x="180" y="160" width="1010" height="550" fill="#ffffff" stroke="#E8E5DD"/>
<line x1="685.0" y1="160" x2="685.0" y2="710" stroke="#4A5567" stroke-dasharray="6 5"/>
<line x1="180" y1="435.0" x2="1190" y2="435.0" stroke="#4A5567" stroke-dasharray="6 5"/>
<circle cx="1036" cy="406" r="9" fill="#2BC5B4" fill-opacity="0.65"/>
<text x="1022" y="410" font-size="12.5" fill="#0F1828" text-anchor="end">OT/ICS platform</text>
<circle cx="1002" cy="503" r="9" fill="#2BC5B4" fill-opacity="0.65"/>
<text x="988" y="507" font-size="12.5" fill="#0F1828" text-anchor="end">Sovereign SOC</text>
<circle cx="865" cy="423" r="9" fill="#2BC5B4" fill-opacity="0.65"/>
<text x="851" y="427" font-size="12.5" fill="#0F1828" text-anchor="end">Data sovereignty</text>
<circle cx="904" cy="308" r="9" fill="#2BC5B4" fill-opacity="0.65"/>
<text x="890" y="312" font-size="12.5" fill="#0F1828" text-anchor="end">Hardware security</text>
<circle cx="879" cy="406" r="9" fill="#2BC5B4" fill-opacity="0.65"/>
<text x="865" y="410" font-size="12.5" fill="#0F1828" text-anchor="end">Supply-chain security</text>
<circle cx="828" cy="438" r="9" fill="#2BC5B4" fill-opacity="0.65"/>
<text x="814" y="442" font-size="12.5" fill="#0F1828" text-anchor="end">Critical-infra security</text>
<circle cx="865" cy="362" r="9" fill="#2BC5B4" fill-opacity="0.65"/>
<text x="851" y="366" font-size="12.5" fill="#0F1828" text-anchor="end">Post-quantum crypto</text>
<circle cx="901" cy="554" r="9" fill="#2BC5B4" fill-opacity="0.65"/>
<text x="887" y="558" font-size="12.5" fill="#0F1828" text-anchor="end">Zero-trust</text>
<circle cx="800" cy="459" r="9" fill="#2BC5B4" fill-opacity="0.65"/>
<text x="786" y="463" font-size="12.5" fill="#0F1828" text-anchor="end">Secure-by-design fw</text>
<circle cx="851" cy="519" r="9" fill="#2BC5B4" fill-opacity="0.65"/>
<text x="837" y="523" font-size="12.5" fill="#0F1828" text-anchor="end">IoT device security</text>
<circle cx="744" cy="631" r="9" fill="#2BC5B4" fill-opacity="0.65"/>
<text x="730" y="635" font-size="12.5" fill="#0F1828" text-anchor="end">Security testing</text>
<circle cx="682" cy="511" r="9" fill="#2BC5B4" fill-opacity="0.65"/>
<text x="696" y="515" font-size="12.5" fill="#0F1828">Threat intelligence</text>
<text x="685" y="752" font-size="15" fill="#0F1828" text-anchor="middle">Market attractiveness &#8594;</text>
<text x="125" y="435" font-size="15" fill="#0F1828" text-anchor="middle" transform="rotate(-90 125 435)">Strategic urgency (TSVI) &#8594;</text>
<text x="70" y="832" font-size="13" fill="#4A5567">Source: Techadyant Labs scoring.</text>
<text x="1270" y="832" font-size="12" fill="#C9A84C" text-anchor="end" font-style="italic">Indicative</text>
</svg>