<svg viewBox="0 0 1200 820" xmlns="http://www.w3.org/2000/svg" font-family="Arial, Helvetica, sans-serif">
<rect width="1200" height="820" fill="#FBF9F4"/>
<text x="70" y="52" font-size="32" font-weight="700" fill="#0F1828">The cybersecurity stack</text>
<text x="70" y="82" font-size="16" fill="#4A5567">Security is now the precondition for operating every layer below it.</text>
<text x="1130" y="40" font-size="14" fill="#4A5567" text-anchor="end" font-family="monospace">Figure 6.1 - Techadyant Labs - 2026</text>
<rect x="110" y="170" width="980" height="94" rx="8" fill="#ffffff" stroke="#E8E5DD" stroke-width="1.5"/>
<rect x="110" y="170" width="14" height="94" rx="3" fill="#C9A84C"/>
<text x="144" y="223" font-size="19" font-weight="700" fill="#0F1828">Data / sovereignty</text>
<rect x="470" y="202" width="120" height="30" rx="15" fill="#C9A84C"/>
<text x="530" y="222" font-size="12" fill="#0F1828" text-anchor="middle" font-weight="700" font-family="monospace">EMERGING</text>
<text x="610" y="223" font-size="14" fill="#4A5567">encryption, key management</text>
<rect x="110" y="276" width="980" height="94" rx="8" fill="#ffffff" stroke="#E8E5DD" stroke-width="1.5"/>
<rect x="110" y="276" width="14" height="94" rx="3" fill="#C9A84C"/>
<text x="144" y="329" font-size="19" font-weight="700" fill="#0F1828">Cloud / identity</text>
<rect x="470" y="308" width="120" height="30" rx="15" fill="#C9A84C"/>
<text x="530" y="328" font-size="12" fill="#0F1828" text-anchor="middle" font-weight="700" font-family="monospace">EMERGING</text>
<text x="610" y="329" font-size="14" fill="#4A5567">zero-trust, IAM</text>
<rect x="110" y="382" width="980" height="94" rx="8" fill="#ffffff" stroke="#E8E5DD" stroke-width="1.5"/>
<rect x="110" y="382" width="14" height="94" rx="3" fill="#2BC5B4"/>
<text x="144" y="435" font-size="19" font-weight="700" fill="#0F1828">Software / app</text>
<rect x="470" y="414" width="120" height="30" rx="15" fill="#2BC5B4"/>
<text x="530" y="434" font-size="12" fill="#fff" text-anchor="middle" font-weight="700" font-family="monospace">STRONG</text>
<text x="610" y="435" font-size="14" fill="#4A5567">India IT-security base</text>
<rect x="110" y="488" width="980" height="94" rx="8" fill="#ffffff" stroke="#E8E5DD" stroke-width="1.5"/>
<rect x="110" y="488" width="14" height="94" rx="3" fill="#C8443B"/>
<text x="144" y="541" font-size="19" font-weight="700" fill="#0F1828">OT / ICS</text>
<rect x="470" y="520" width="120" height="30" rx="15" fill="#C8443B"/>
<text x="530" y="540" font-size="12" fill="#fff" text-anchor="middle" font-weight="700" font-family="monospace">MISSING</text>
<text x="610" y="541" font-size="14" fill="#4A5567">industrial-control gap</text>
<rect x="110" y="594" width="980" height="94" rx="8" fill="#ffffff" stroke="#E8E5DD" stroke-width="1.5"/>
<rect x="110" y="594" width="14" height="94" rx="3" fill="#C8443B"/>
<text x="144" y="647" font-size="19" font-weight="700" fill="#0F1828">Hardware / root-of-trust</text>
<rect x="470" y="626" width="120" height="30" rx="15" fill="#C8443B"/>
<text x="530" y="646" font-size="12" fill="#fff" text-anchor="middle" font-weight="700" font-family="monospace">MISSING</text>
<text x="610" y="647" font-size="14" fill="#4A5567">secure elements imported</text>
<text x="70" y="792" font-size="13" fill="#4A5567">Source: Techadyant Labs analysis; NITI Aayog 2026.</text>
<text x="1130" y="792" font-size="12" fill="#C9A84C" text-anchor="end" font-style="italic">Position indicative</text>
</svg>