<svg viewBox="0 0 1500 820" xmlns="http://www.w3.org/2000/svg" font-family="Arial, Helvetica, sans-serif">
<rect width="1500" height="820" fill="#FBF9F4"/>
<text x="70" y="52" font-size="32" font-weight="700" fill="#0F1828">The technology-sovereignty economy, 2026-2035</text>
<text x="70" y="82" font-size="16" fill="#4A5567">Domestic value chain (USD bn) and chip self-sufficiency (%). Modelled to roadmap targets.</text>
<text x="1430" y="40" font-size="14" fill="#4A5567" text-anchor="end" font-family="monospace">Figure 11.1 - Techadyant Labs - 2026</text>
<rect x="140" y="150" width="1200" height="550" fill="#ffffff" stroke="#E8E5DD"/>
<text x="140" y="724" font-size="12" fill="#4A5567" text-anchor="middle" font-family="monospace">2026</text>
<text x="273" y="724" font-size="12" fill="#4A5567" text-anchor="middle" font-family="monospace">2027</text>
<text x="407" y="724" font-size="12" fill="#4A5567" text-anchor="middle" font-family="monospace">2028</text>
<text x="540" y="724" font-size="12" fill="#4A5567" text-anchor="middle" font-family="monospace">2029</text>
<text x="673" y="724" font-size="12" fill="#4A5567" text-anchor="middle" font-family="monospace">2030</text>
<text x="807" y="724" font-size="12" fill="#4A5567" text-anchor="middle" font-family="monospace">2031</text>
<text x="940" y="724" font-size="12" fill="#4A5567" text-anchor="middle" font-family="monospace">2032</text>
<text x="1073" y="724" font-size="12" fill="#4A5567" text-anchor="middle" font-family="monospace">2033</text>
<text x="1207" y="724" font-size="12" fill="#4A5567" text-anchor="middle" font-family="monospace">2034</text>
<text x="1340" y="724" font-size="12" fill="#4A5567" text-anchor="middle" font-family="monospace">2035</text>
<polyline points="140,645 273,608 407,561 540,509 673,451 807,388 940,333 1073,278 1207,223 1340,187" fill="none" stroke="#C9A84C" stroke-width="4"/>
<circle cx="140" cy="645" r="4" fill="#C9A84C"/>
<circle cx="273" cy="608" r="4" fill="#C9A84C"/>
<circle cx="407" cy="561" r="4" fill="#C9A84C"/>
<circle cx="540" cy="509" r="4" fill="#C9A84C"/>
<circle cx="673" cy="451" r="4" fill="#C9A84C"/>
<circle cx="807" cy="388" r="4" fill="#C9A84C"/>
<circle cx="940" cy="333" r="4" fill="#C9A84C"/>
<circle cx="1073" cy="278" r="4" fill="#C9A84C"/>
<circle cx="1207" cy="223" r="4" fill="#C9A84C"/>
<circle cx="1340" cy="187" r="4" fill="#C9A84C"/>
<polyline points="140,627 273,608 407,581 540,553 673,526 807,498 940,452 1073,398 1207,324 1340,260" fill="none" stroke="#2BC5B4" stroke-width="4" stroke-dasharray="2 0"/>
<circle cx="140" cy="627" r="4" fill="#2BC5B4"/>
<circle cx="273" cy="608" r="4" fill="#2BC5B4"/>
<circle cx="407" cy="581" r="4" fill="#2BC5B4"/>
<circle cx="540" cy="553" r="4" fill="#2BC5B4"/>
<circle cx="673" cy="526" r="4" fill="#2BC5B4"/>
<circle cx="807" cy="498" r="4" fill="#2BC5B4"/>
<circle cx="940" cy="452" r="4" fill="#2BC5B4"/>
<circle cx="1073" cy="398" r="4" fill="#2BC5B4"/>
<circle cx="1207" cy="324" r="4" fill="#2BC5B4"/>
<circle cx="1340" cy="260" r="4" fill="#2BC5B4"/>
<text x="1340" y="173" font-size="15" fill="#C9A84C" text-anchor="end" font-weight="700">$140bn value chain</text>
<text x="1340" y="246" font-size="15" fill="#2BC5B4" text-anchor="end" font-weight="700">48% self-sufficiency</text>
<text x="70" y="792" font-size="13" fill="#4A5567">Source: NITI Aayog roadmap targets (2026); Techadyant Labs modelling.</text>
<text x="1430" y="792" font-size="12" fill="#C9A84C" text-anchor="end" font-style="italic">Forecast / modelled</text>
</svg>