<svg viewBox="0 0 1300 860" xmlns="http://www.w3.org/2000/svg" font-family="Arial, Helvetica, sans-serif">
<rect width="1300" height="860" fill="#FBF9F4"/>
<text x="70" y="52" font-size="32" font-weight="700" fill="#0F1828">Global supply-chain entry points</text>
<text x="70" y="82" font-size="16" fill="#4A5567">India as a trusted, non-aligned supplier to a de-risking world.</text>
<text x="1230" y="40" font-size="14" fill="#4A5567" text-anchor="end" font-family="monospace">Figure 7.1 - Techadyant Labs - 2026</text>
<circle cx="650.0" cy="460.0" r="95" fill="#0F1828"/>
<text x="650.0" y="466.0" font-size="26" fill="#C9A84C" text-anchor="middle" font-weight="700">INDIA</text>
<line x1="650" y1="365" x2="650" y2="200" stroke="#2BC5B4" stroke-width="3"/>
<circle cx="650" cy="160" r="64" fill="#2BC5B4"/>
<text x="650" y="158" font-size="18" fill="#ffffff" text-anchor="middle" font-weight="700">USA</text>
<text x="650" y="180" font-size="11" fill="#ffffff" text-anchor="middle">Design, chips, IP</text>
<line x1="740" y1="431" x2="869" y2="380" stroke="#2BC5B4" stroke-width="3"/>
<circle cx="935" cy="367" r="64" fill="#2BC5B4"/>
<text x="935" y="365" font-size="18" fill="#ffffff" text-anchor="middle" font-weight="700">Europe</text>
<text x="935" y="387" font-size="11" fill="#ffffff" text-anchor="middle">Equipment, automotive</text>
<line x1="706" y1="537" x2="785" y2="670" stroke="#2BC5B4" stroke-width="3"/>
<circle cx="826" cy="703" r="64" fill="#2BC5B4"/>
<text x="826" y="701" font-size="18" fill="#ffffff" text-anchor="middle" font-weight="700">Japan</text>
<text x="826" y="723" font-size="11" fill="#ffffff" text-anchor="middle">Materials, packaging</text>
<line x1="594" y1="537" x2="515" y2="670" stroke="#2BC5B4" stroke-width="3"/>
<circle cx="474" cy="703" r="64" fill="#2BC5B4"/>
<text x="474" y="701" font-size="18" fill="#ffffff" text-anchor="middle" font-weight="700">ASEAN</text>
<text x="474" y="723" font-size="11" fill="#ffffff" text-anchor="middle">Electronics assembly</text>
<line x1="560" y1="431" x2="431" y2="380" stroke="#2BC5B4" stroke-width="3"/>
<circle cx="365" cy="367" r="64" fill="#2BC5B4"/>
<text x="365" y="365" font-size="18" fill="#ffffff" text-anchor="middle" font-weight="700">Middle East</text>
<text x="365" y="387" font-size="11" fill="#ffffff" text-anchor="middle">Capital, data centres</text>
<text x="70" y="832" font-size="13" fill="#4A5567">Source: Techadyant Labs analysis.</text>
<text x="1230" y="832" font-size="12" fill="#C9A84C" text-anchor="end" font-style="italic">Schematic</text>
</svg>