<svg viewBox="0 0 1400 760" xmlns="http://www.w3.org/2000/svg" font-family="Arial, Helvetica, sans-serif">
<rect width="1400" height="760" fill="#FBF9F4"/>
<text x="70" y="52" font-size="32" font-weight="700" fill="#0F1828">The foreign-dependency map</text>
<text x="70" y="82" font-size="16" fill="#4A5567">Who owns each layer of factory and engineering software today.</text>
<text x="1330" y="40" font-size="14" fill="#4A5567" text-anchor="end" font-family="monospace">Figure 3.2 - Techadyant Labs - 2026</text>
<rect x="70" y="200" width="600" height="170" rx="10" fill="#ffffff" stroke="#C8443B" stroke-width="2"/>
<text x="94" y="250" font-size="22" font-weight="700" fill="#0F1828">ERP</text>
<text x="94" y="295" font-size="17" fill="#C8443B">SAP, Oracle</text>
<text x="94" y="330" font-size="13" fill="#4A5567" font-family="monospace">FOREIGN-HELD</text>
<rect x="710" y="200" width="600" height="170" rx="10" fill="#ffffff" stroke="#C8443B" stroke-width="2"/>
<text x="734" y="250" font-size="22" font-weight="700" fill="#0F1828">PLM</text>
<text x="734" y="295" font-size="17" fill="#C8443B">Siemens, Dassault, PTC</text>
<text x="734" y="330" font-size="13" fill="#4A5567" font-family="monospace">FOREIGN-HELD</text>
<rect x="70" y="410" width="600" height="170" rx="10" fill="#ffffff" stroke="#C8443B" stroke-width="2"/>
<text x="94" y="460" font-size="22" font-weight="700" fill="#0F1828">MES / Automation</text>
<text x="94" y="505" font-size="17" fill="#C8443B">Rockwell, Siemens</text>
<text x="94" y="540" font-size="13" fill="#4A5567" font-family="monospace">FOREIGN-HELD</text>
<rect x="710" y="410" width="600" height="170" rx="10" fill="#ffffff" stroke="#C8443B" stroke-width="2"/>
<text x="734" y="460" font-size="22" font-weight="700" fill="#0F1828">CAD / CAE</text>
<text x="734" y="505" font-size="17" fill="#C8443B">Dassault, Siemens, Ansys</text>
<text x="734" y="540" font-size="13" fill="#4A5567" font-family="monospace">FOREIGN-HELD</text>
<rect x="70" y="620" width="600" height="170" rx="10" fill="#ffffff" stroke="#C8443B" stroke-width="2"/>
<text x="94" y="670" font-size="22" font-weight="700" fill="#0F1828">EDA</text>
<text x="94" y="715" font-size="17" fill="#C8443B">Synopsys, Cadence, Siemens</text>
<text x="94" y="750" font-size="13" fill="#4A5567" font-family="monospace">FOREIGN-HELD</text>
<rect x="710" y="620" width="600" height="170" rx="10" fill="#ffffff" stroke="#C8443B" stroke-width="2"/>
<text x="734" y="670" font-size="22" font-weight="700" fill="#0F1828">Industrial cloud</text>
<text x="734" y="715" font-size="17" fill="#C8443B">AWS, Azure, GCP</text>
<text x="734" y="750" font-size="13" fill="#4A5567" font-family="monospace">FOREIGN-HELD</text>
<text x="70" y="732" font-size="13" fill="#4A5567">Source: Techadyant Labs The SAP Question (2026); analysis.</text>
</svg>