<svg viewBox="0 0 1340 900" xmlns="http://www.w3.org/2000/svg" font-family="Arial, Helvetica, sans-serif">
<rect width="1340" height="900" fill="#FBF9F4"/>
<text x="70" y="52" font-size="32" font-weight="700" fill="#0F1828">The opportunity portfolio, by SOE class</text>
<text x="70" y="82" font-size="16" fill="#4A5567">Strategic pull versus executability. The engine that sorts the hundred.</text>
<text x="1270" y="40" font-size="14" fill="#4A5567" text-anchor="end" font-family="monospace">Figure 9.1 - Techadyant Labs - 2026</text>
<rect x="180" y="160" width="1010" height="590" fill="#ffffff" stroke="#E8E5DD"/>
<line x1="685.0" y1="160" x2="685.0" y2="750" stroke="#4A5567" stroke-dasharray="6 5"/>
<line x1="180" y1="455.0" x2="1190" y2="455.0" stroke="#4A5567" stroke-dasharray="6 5"/>
<circle cx="1059" cy="560" r="7" fill="#2BC5B4" fill-opacity="0.5"/>
<circle cx="1025" cy="529" r="7" fill="#2BC5B4" fill-opacity="0.5"/>
<circle cx="659" cy="339" r="7" fill="#C9A84C" fill-opacity="0.5"/>
<circle cx="464" cy="228" r="7" fill="#C9A84C" fill-opacity="0.5"/>
<circle cx="689" cy="352" r="7" fill="#C9A84C" fill-opacity="0.5"/>
<circle cx="685" cy="341" r="7" fill="#C9A84C" fill-opacity="0.5"/>
<circle cx="1022" cy="643" r="7" fill="#4A5567" fill-opacity="0.5"/>
<circle cx="887" cy="510" r="7" fill="#2BC5B4" fill-opacity="0.5"/>
<circle cx="939" cy="472" r="7" fill="#2BC5B4" fill-opacity="0.5"/>
<circle cx="502" cy="276" r="7" fill="#C9A84C" fill-opacity="0.5"/>
<circle cx="801" cy="429" r="7" fill="#2BC5B4" fill-opacity="0.5"/>
<circle cx="640" cy="411" r="7" fill="#C9A84C" fill-opacity="0.5"/>
<circle cx="188" cy="168" r="7" fill="#C9A84C" fill-opacity="0.5"/>
<circle cx="790" cy="448" r="7" fill="#2BC5B4" fill-opacity="0.5"/>
<circle cx="707" cy="383" r="7" fill="#C9A84C" fill-opacity="0.5"/>
<circle cx="827" cy="455" r="7" fill="#2BC5B4" fill-opacity="0.5"/>
<circle cx="345" cy="302" r="7" fill="#C9A84C" fill-opacity="0.5"/>
<circle cx="318" cy="193" r="7" fill="#C9A84C" fill-opacity="0.5"/>
<circle cx="651" cy="405" r="7" fill="#C9A84C" fill-opacity="0.5"/>
<circle cx="906" cy="560" r="7" fill="#2BC5B4" fill-opacity="0.5"/>
<circle cx="906" cy="582" r="7" fill="#2BC5B4" fill-opacity="0.5"/>
<circle cx="188" cy="324" r="7" fill="#C9A84C" fill-opacity="0.5"/>
<circle cx="726" cy="411" r="7" fill="#C9A84C" fill-opacity="0.5"/>
<circle cx="909" cy="632" r="7" fill="#2BC5B4" fill-opacity="0.5"/>
<circle cx="404" cy="285" r="7" fill="#C9A84C" fill-opacity="0.5"/>
<circle cx="188" cy="221" r="7" fill="#C9A84C" fill-opacity="0.5"/>
<circle cx="651" cy="389" r="7" fill="#C9A84C" fill-opacity="0.5"/>
<circle cx="756" cy="438" r="7" fill="#2BC5B4" fill-opacity="0.5"/>
<circle cx="532" cy="350" r="7" fill="#C9A84C" fill-opacity="0.5"/>
<circle cx="827" cy="560" r="7" fill="#2BC5B4" fill-opacity="0.5"/>
<circle cx="775" cy="523" r="7" fill="#2BC5B4" fill-opacity="0.5"/>
<circle cx="591" cy="499" r="7" fill="#C9A84C" fill-opacity="0.5"/>
<circle cx="644" cy="621" r="7" fill="#C9A84C" fill-opacity="0.5"/>
<circle cx="188" cy="250" r="7" fill="#C9A84C" fill-opacity="0.5"/>
<circle cx="580" cy="446" r="7" fill="#C9A84C" fill-opacity="0.5"/>
<circle cx="543" cy="348" r="7" fill="#C9A84C" fill-opacity="0.5"/>
<circle cx="509" cy="372" r="7" fill="#C9A84C" fill-opacity="0.5"/>
<circle cx="775" cy="531" r="7" fill="#2BC5B4" fill-opacity="0.5"/>
<circle cx="771" cy="549" r="7" fill="#2BC5B4" fill-opacity="0.5"/>
<circle cx="606" cy="422" r="7" fill="#C9A84C" fill-opacity="0.5"/>
<circle cx="876" cy="634" r="7" fill="#2BC5B4" fill-opacity="0.5"/>
<circle cx="924" cy="621" r="7" fill="#2BC5B4" fill-opacity="0.5"/>
<circle cx="696" cy="468" r="7" fill="#C9A84C" fill-opacity="0.5"/>
<circle cx="726" cy="512" r="7" fill="#C9A84C" fill-opacity="0.5"/>
<circle cx="633" cy="464" r="7" fill="#C9A84C" fill-opacity="0.5"/>
<circle cx="188" cy="169" r="7" fill="#C9A84C" fill-opacity="0.5"/>
<circle cx="696" cy="536" r="7" fill="#C9A84C" fill-opacity="0.5"/>
<circle cx="188" cy="295" r="7" fill="#C9A84C" fill-opacity="0.5"/>
<circle cx="453" cy="516" r="7" fill="#C9A84C" fill-opacity="0.5"/>
<circle cx="543" cy="440" r="7" fill="#C9A84C" fill-opacity="0.5"/>
<circle cx="629" cy="531" r="7" fill="#C9A84C" fill-opacity="0.5"/>
<circle cx="760" cy="590" r="7" fill="#2BC5B4" fill-opacity="0.5"/>
<circle cx="928" cy="660" r="7" fill="#4A5567" fill-opacity="0.5"/>
<circle cx="539" cy="534" r="7" fill="#C9A84C" fill-opacity="0.5"/>
<circle cx="924" cy="641" r="7" fill="#2BC5B4" fill-opacity="0.5"/>
<circle cx="633" cy="523" r="7" fill="#C9A84C" fill-opacity="0.5"/>
<circle cx="692" cy="676" r="7" fill="#C8443B" fill-opacity="0.5"/>
<circle cx="936" cy="658" r="7" fill="#4A5567" fill-opacity="0.5"/>
<circle cx="188" cy="405" r="7" fill="#C9A84C" fill-opacity="0.5"/>
<circle cx="782" cy="621" r="7" fill="#2BC5B4" fill-opacity="0.5"/>
<circle cx="771" cy="556" r="7" fill="#2BC5B4" fill-opacity="0.5"/>
<circle cx="188" cy="298" r="7" fill="#C9A84C" fill-opacity="0.5"/>
<circle cx="1007" cy="704" r="7" fill="#4A5567" fill-opacity="0.5"/>
<circle cx="535" cy="475" r="7" fill="#C9A84C" fill-opacity="0.5"/>
<circle cx="535" cy="479" r="7" fill="#C9A84C" fill-opacity="0.5"/>
<circle cx="1063" cy="742" r="7" fill="#4A5567" fill-opacity="0.5"/>
<circle cx="386" cy="470" r="7" fill="#C9A84C" fill-opacity="0.5"/>
<circle cx="894" cy="691" r="7" fill="#4A5567" fill-opacity="0.5"/>
<circle cx="188" cy="387" r="7" fill="#C9A84C" fill-opacity="0.5"/>
<circle cx="722" cy="518" r="7" fill="#C9A84C" fill-opacity="0.5"/>
<circle cx="891" cy="717" r="7" fill="#4A5567" fill-opacity="0.5"/>
<circle cx="1059" cy="742" r="7" fill="#4A5567" fill-opacity="0.5"/>
<circle cx="247" cy="405" r="7" fill="#C9A84C" fill-opacity="0.5"/>
<circle cx="891" cy="665" r="7" fill="#4A5567" fill-opacity="0.5"/>
<circle cx="898" cy="728" r="7" fill="#4A5567" fill-opacity="0.5"/>
<circle cx="509" cy="545" r="7" fill="#C9A84C" fill-opacity="0.5"/>
<circle cx="954" cy="742" r="7" fill="#4A5567" fill-opacity="0.5"/>
<circle cx="640" cy="573" r="7" fill="#C9A84C" fill-opacity="0.5"/>
<circle cx="573" cy="700" r="7" fill="#C8443B" fill-opacity="0.5"/>
<circle cx="603" cy="549" r="7" fill="#C9A84C" fill-opacity="0.5"/>
<circle cx="962" cy="742" r="7" fill="#4A5567" fill-opacity="0.5"/>
<circle cx="954" cy="742" r="7" fill="#4A5567" fill-opacity="0.5"/>
<circle cx="457" cy="523" r="7" fill="#C9A84C" fill-opacity="0.5"/>
<circle cx="588" cy="553" r="7" fill="#C9A84C" fill-opacity="0.5"/>
<circle cx="188" cy="304" r="7" fill="#C9A84C" fill-opacity="0.5"/>
<circle cx="977" cy="742" r="7" fill="#4A5567" fill-opacity="0.5"/>
<circle cx="539" cy="658" r="7" fill="#C8443B" fill-opacity="0.5"/>
<circle cx="479" cy="610" r="7" fill="#C9A84C" fill-opacity="0.5"/>
<circle cx="348" cy="575" r="7" fill="#C9A84C" fill-opacity="0.5"/>
<circle cx="240" cy="490" r="7" fill="#C9A84C" fill-opacity="0.5"/>
<circle cx="715" cy="674" r="7" fill="#C8443B" fill-opacity="0.5"/>
<circle cx="490" cy="580" r="7" fill="#C9A84C" fill-opacity="0.5"/>
<circle cx="494" cy="645" r="7" fill="#C8443B" fill-opacity="0.5"/>
<circle cx="984" cy="742" r="7" fill="#4A5567" fill-opacity="0.5"/>
<circle cx="188" cy="317" r="7" fill="#C9A84C" fill-opacity="0.5"/>
<circle cx="188" cy="510" r="7" fill="#C9A84C" fill-opacity="0.5"/>
<circle cx="188" cy="551" r="7" fill="#C9A84C" fill-opacity="0.5"/>
<circle cx="188" cy="584" r="7" fill="#C9A84C" fill-opacity="0.5"/>
<circle cx="274" cy="621" r="7" fill="#C9A84C" fill-opacity="0.5"/>
<circle cx="472" cy="733" r="7" fill="#C8443B" fill-opacity="0.5"/>
<text x="204" y="194" font-size="16" font-weight="700" fill="#C9A84C" font-family="monospace">NATIONAL BETS</text>
<text x="709" y="194" font-size="16" font-weight="700" fill="#2BC5B4" font-family="monospace">STRATEGIC QUICK WINS</text>
<text x="204" y="489" font-size="16" font-weight="700" fill="#C8443B" font-family="monospace">WATCH / DEFER</text>
<text x="709" y="489" font-size="16" font-weight="700" fill="#4A5567" font-family="monospace">CASH ENGINES</text>
<text x="685" y="792" font-size="15" fill="#0F1828" text-anchor="middle">Executability (GEM + IRR) &#8594;</text>
<text x="125" y="455" font-size="15" fill="#0F1828" text-anchor="middle" transform="rotate(-90 125 455)">Strategic pull (TSVI + MA) &#8594;</text>
<text x="70" y="872" font-size="13" fill="#4A5567">Source: Techadyant Labs SOE scoring (FRAMEWORKS.md).</text>
<text x="1270" y="872" font-size="12" fill="#C9A84C" text-anchor="end" font-style="italic">Indicative</text>
</svg>