<svg viewBox="0 0 1400 820" xmlns="http://www.w3.org/2000/svg" font-family="Arial, Helvetica, sans-serif">
<rect width="1400" height="820" fill="#FBF9F4"/>
<text x="70" y="52" font-size="32" font-weight="700" fill="#0F1828">The industrial-AI opportunity tree</text>
<text x="70" y="82" font-size="16" fill="#4A5567">One root, many branches: applied AI on the factory's own data.</text>
<text x="1330" y="40" font-size="14" fill="#4A5567" text-anchor="end" font-family="monospace">Figure 4.1 - Techadyant Labs - 2026</text>
<rect x="110" y="360.0" width="200" height="100" rx="12" fill="#0F1828"/>
<text x="210" y="404.0" font-size="19" fill="#ffffff" text-anchor="middle" font-weight="700">Industrial</text>
<text x="210" y="430.0" font-size="19" fill="#C9A84C" text-anchor="middle" font-weight="700">AI</text>
<path d="M 310 410.0 C 420 410.0, 470 180, 620 180" stroke="#2BC5B4" stroke-width="2.5" fill="none"/>
<rect x="620" y="154" width="620" height="52" rx="8" fill="#2BC5B4"/>
<text x="644" y="186" font-size="18" fill="#ffffff" font-weight="600">Quality inspection</text>
<path d="M 310 410.0 C 420 410.0, 470 278, 620 278" stroke="#2BC5B4" stroke-width="2.5" fill="none"/>
<rect x="620" y="252" width="620" height="52" rx="8" fill="#2BC5B4"/>
<text x="644" y="284" font-size="18" fill="#ffffff" font-weight="600">Yield optimisation</text>
<path d="M 310 410.0 C 420 410.0, 470 376, 620 376" stroke="#2BC5B4" stroke-width="2.5" fill="none"/>
<rect x="620" y="350" width="620" height="52" rx="8" fill="#2BC5B4"/>
<text x="644" y="382" font-size="18" fill="#ffffff" font-weight="600">Predictive maintenance</text>
<path d="M 310 410.0 C 420 410.0, 470 474, 620 474" stroke="#2BC5B4" stroke-width="2.5" fill="none"/>
<rect x="620" y="448" width="620" height="52" rx="8" fill="#2BC5B4"/>
<text x="644" y="480" font-size="18" fill="#ffffff" font-weight="600">Factory copilots</text>
<path d="M 310 410.0 C 420 410.0, 470 572, 620 572" stroke="#2BC5B4" stroke-width="2.5" fill="none"/>
<rect x="620" y="546" width="620" height="52" rx="8" fill="#2BC5B4"/>
<text x="644" y="578" font-size="18" fill="#ffffff" font-weight="600">Procurement AI</text>
<path d="M 310 410.0 C 420 410.0, 470 670, 620 670" stroke="#2BC5B4" stroke-width="2.5" fill="none"/>
<rect x="620" y="644" width="620" height="52" rx="8" fill="#2BC5B4"/>
<text x="644" y="676" font-size="18" fill="#ffffff" font-weight="600">Documentation AI</text>
<text x="70" y="792" font-size="13" fill="#4A5567">Source: Techadyant Labs analysis.</text>
</svg>