<svg viewBox="0 0 1500 820" xmlns="http://www.w3.org/2000/svg" font-family="Arial, Helvetica, sans-serif">
<rect width="1500" height="820" fill="#FBF9F4"/>
<text x="70" y="52" font-size="32" font-weight="700" fill="#0F1828">The founder decision tree</text>
<text x="70" y="82" font-size="16" fill="#4A5567">Match the opportunity to what you already have.</text>
<text x="1430" y="40" font-size="14" fill="#4A5567" text-anchor="end" font-family="monospace">Figure 10.1 - Techadyant Labs - 2026</text>
<rect x="620" y="150" width="260" height="80" rx="10" fill="#0F1828"/>
<text x="750" y="185" font-size="17" fill="#fff" text-anchor="middle" font-weight="600">Domain</text>
<text x="750" y="205" font-size="17" fill="#fff" text-anchor="middle" font-weight="600">expertise?</text>
<line x1="620" y1="190" x2="360" y2="300" stroke="#4A5567" stroke-width="2"/>
<text x="490" y="237" font-size="13" fill="#4A5567" text-anchor="middle" font-family="monospace">yes</text>
<line x1="880" y1="190" x2="1140" y2="300" stroke="#4A5567" stroke-width="2"/>
<text x="1010" y="237" font-size="13" fill="#4A5567" text-anchor="middle" font-family="monospace">no</text>
<rect x="230" y="300" width="260" height="80" rx="10" fill="#0F1828"/>
<text x="360" y="335" font-size="17" fill="#fff" text-anchor="middle" font-weight="600">Capital</text>
<text x="360" y="355" font-size="17" fill="#fff" text-anchor="middle" font-weight="600">access?</text>
<rect x="1010" y="300" width="300" height="80" rx="10" fill="#4A5567"/>
<text x="1160" y="335" font-size="17" fill="#fff" text-anchor="middle" font-weight="600">Partner / services</text>
<text x="1160" y="355" font-size="17" fill="#fff" text-anchor="middle" font-weight="600">entry</text>
<line x1="230" y1="340" x2="120" y2="460" stroke="#4A5567" stroke-width="2"/>
<text x="175" y="392" font-size="13" fill="#4A5567" text-anchor="middle" font-family="monospace">low</text>
<line x1="490" y1="340" x2="640" y2="460" stroke="#4A5567" stroke-width="2"/>
<text x="565" y="392" font-size="13" fill="#4A5567" text-anchor="middle" font-family="monospace">high</text>
<rect x="40" y="460" width="300" height="90" rx="10" fill="#2BC5B4"/>
<text x="190" y="490" font-size="15" fill="#fff" text-anchor="middle" font-weight="600">Cash engines &amp;</text>
<text x="190" y="510" font-size="15" fill="#fff" text-anchor="middle" font-weight="600">light quick wins</text>
<text x="190" y="530" font-size="15" fill="#fff" text-anchor="middle" font-weight="600">(software, AI, services)</text>
<rect x="500" y="460" width="320" height="90" rx="10" fill="#C9A84C"/>
<text x="660" y="490" font-size="15" fill="#0F1828" text-anchor="middle" font-weight="600">National bets</text>
<text x="660" y="510" font-size="15" fill="#0F1828" text-anchor="middle" font-weight="600">(precision, OSAT,</text>
<text x="660" y="530" font-size="15" fill="#0F1828" text-anchor="middle" font-weight="600">packaging, EDA)</text>
<rect x="1010" y="460" width="300" height="90" rx="10" fill="#2BC5B4"/>
<text x="1160" y="500" font-size="15" fill="#fff" text-anchor="middle" font-weight="600">Climb to IP /</text>
<text x="1160" y="520" font-size="15" fill="#fff" text-anchor="middle" font-weight="600">value capture</text>
<line x1="1160" y1="380" x2="1160" y2="460" stroke="#4A5567" stroke-width="2"/>
<text x="70" y="792" font-size="13" fill="#4A5567">Source: Techadyant Labs analysis.</text>
</svg>