<svg viewBox="0 0 1600 900" xmlns="http://www.w3.org/2000/svg" font-family="Arial, Helvetica, sans-serif">
<rect width="1600" height="900" fill="#FBF9F4"/>
<text x="70" y="55" font-size="32" font-weight="700" fill="#0F1828">The Top-100 opportunity landscape</text>
<text x="70" y="86" font-size="18" fill="#4A5567">Each bubble = one opportunity. x = market attractiveness, y = go-to-market ease, colour = portfolio class.</text>
<text x="1530" y="40" font-size="14" fill="#4A5567" text-anchor="end" font-family="monospace">Figure 0.2 · Techadyant Labs · 2026</text>
<rect x="120" y="140" width="1140" height="670" fill="#ffffff" stroke="#E8E5DD"/>
<line x1="120" y1="140" x2="120" y2="810" stroke="#E8E5DD"/>
<text x="120" y="832" font-size="12" fill="#4A5567" text-anchor="middle" font-family="monospace">40</text>
<line x1="405" y1="140" x2="405" y2="810" stroke="#E8E5DD"/>
<text x="405" y="832" font-size="12" fill="#4A5567" text-anchor="middle" font-family="monospace">50</text>
<line x1="690" y1="140" x2="690" y2="810" stroke="#E8E5DD"/>
<text x="690" y="832" font-size="12" fill="#4A5567" text-anchor="middle" font-family="monospace">60</text>
<line x1="975" y1="140" x2="975" y2="810" stroke="#E8E5DD"/>
<text x="975" y="832" font-size="12" fill="#4A5567" text-anchor="middle" font-family="monospace">70</text>
<line x1="1260" y1="140" x2="1260" y2="810" stroke="#E8E5DD"/>
<text x="1260" y="832" font-size="12" fill="#4A5567" text-anchor="middle" font-family="monospace">80</text>
<line x1="120" y1="810" x2="1260" y2="810" stroke="#E8E5DD"/>
<text x="110" y="814" font-size="12" fill="#4A5567" text-anchor="end" font-family="monospace">40</text>
<line x1="120" y1="688" x2="1260" y2="688" stroke="#E8E5DD"/>
<text x="110" y="692" font-size="12" fill="#4A5567" text-anchor="end" font-family="monospace">50</text>
<line x1="120" y1="566" x2="1260" y2="566" stroke="#E8E5DD"/>
<text x="110" y="570" font-size="12" fill="#4A5567" text-anchor="end" font-family="monospace">60</text>
<line x1="120" y1="445" x2="1260" y2="445" stroke="#E8E5DD"/>
<text x="110" y="449" font-size="12" fill="#4A5567" text-anchor="end" font-family="monospace">70</text>
<line x1="120" y1="323" x2="1260" y2="323" stroke="#E8E5DD"/>
<text x="110" y="327" font-size="12" fill="#4A5567" text-anchor="end" font-family="monospace">80</text>
<line x1="120" y1="201" x2="1260" y2="201" stroke="#E8E5DD"/>
<text x="110" y="205" font-size="12" fill="#4A5567" text-anchor="end" font-family="monospace">90</text>
<text x="690" y="858" font-size="15" fill="#0F1828" text-anchor="middle">Market attractiveness (MA) &#8594;</text>
<text x="60" y="475" font-size="15" fill="#0F1828" text-anchor="middle" transform="rotate(-90 60 475)">Go-to-market ease (GEM) &#8594;</text>
<circle cx="1328" cy="513" r="16" fill="#2BC5B4" fill-opacity="0.55" stroke="#2BC5B4" stroke-width="1"/>
<circle cx="1246" cy="535" r="15" fill="#2BC5B4" fill-opacity="0.55" stroke="#2BC5B4" stroke-width="1"/>
<circle cx="1004" cy="715" r="15" fill="#C9A84C" fill-opacity="0.55" stroke="#C9A84C" stroke-width="1"/>
<circle cx="1029" cy="682" r="15" fill="#C9A84C" fill-opacity="0.55" stroke="#C9A84C" stroke-width="1"/>
<circle cx="1083" cy="592" r="14" fill="#C9A84C" fill-opacity="0.55" stroke="#C9A84C" stroke-width="1"/>
<circle cx="1103" cy="551" r="14" fill="#C9A84C" fill-opacity="0.55" stroke="#C9A84C" stroke-width="1"/>
<circle cx="1306" cy="481" r="14" fill="#4A5567" fill-opacity="0.55" stroke="#4A5567" stroke-width="1"/>
<circle cx="1183" cy="497" r="14" fill="#2BC5B4" fill-opacity="0.55" stroke="#2BC5B4" stroke-width="1"/>
<circle cx="1023" cy="481" r="14" fill="#2BC5B4" fill-opacity="0.55" stroke="#2BC5B4" stroke-width="1"/>
<circle cx="1049" cy="633" r="14" fill="#C9A84C" fill-opacity="0.55" stroke="#C9A84C" stroke-width="1"/>
<circle cx="1049" cy="530" r="14" fill="#2BC5B4" fill-opacity="0.55" stroke="#2BC5B4" stroke-width="1"/>
<circle cx="1029" cy="691" r="14" fill="#C9A84C" fill-opacity="0.55" stroke="#C9A84C" stroke-width="1"/>
<circle cx="1360" cy="968" r="14" fill="#C9A84C" fill-opacity="0.55" stroke="#C9A84C" stroke-width="1"/>
<circle cx="1069" cy="537" r="14" fill="#2BC5B4" fill-opacity="0.55" stroke="#2BC5B4" stroke-width="1"/>
<circle cx="949" cy="579" r="14" fill="#C9A84C" fill-opacity="0.55" stroke="#C9A84C" stroke-width="1"/>
<circle cx="861" cy="609" r="14" fill="#2BC5B4" fill-opacity="0.55" stroke="#2BC5B4" stroke-width="1"/>
<circle cx="1172" cy="686" r="14" fill="#C9A84C" fill-opacity="0.55" stroke="#C9A84C" stroke-width="1"/>
<circle cx="904" cy="719" r="14" fill="#C9A84C" fill-opacity="0.55" stroke="#C9A84C" stroke-width="1"/>
<circle cx="1063" cy="565" r="13" fill="#C9A84C" fill-opacity="0.55" stroke="#C9A84C" stroke-width="1"/>
<circle cx="1123" cy="487" r="13" fill="#2BC5B4" fill-opacity="0.55" stroke="#2BC5B4" stroke-width="1"/>
<circle cx="1126" cy="490" r="13" fill="#2BC5B4" fill-opacity="0.55" stroke="#2BC5B4" stroke-width="1"/>
<circle cx="1254" cy="861" r="13" fill="#C9A84C" fill-opacity="0.55" stroke="#C9A84C" stroke-width="1"/>
<circle cx="929" cy="543" r="13" fill="#C9A84C" fill-opacity="0.55" stroke="#C9A84C" stroke-width="1"/>
<circle cx="1212" cy="504" r="13" fill="#2BC5B4" fill-opacity="0.55" stroke="#2BC5B4" stroke-width="1"/>
<circle cx="969" cy="653" r="13" fill="#C9A84C" fill-opacity="0.55" stroke="#C9A84C" stroke-width="1"/>
<circle cx="1183" cy="847" r="13" fill="#C9A84C" fill-opacity="0.55" stroke="#C9A84C" stroke-width="1"/>
<circle cx="944" cy="551" r="13" fill="#C9A84C" fill-opacity="0.55" stroke="#C9A84C" stroke-width="1"/>
<circle cx="892" cy="533" r="13" fill="#2BC5B4" fill-opacity="0.55" stroke="#2BC5B4" stroke-width="1"/>
<circle cx="929" cy="602" r="13" fill="#C9A84C" fill-opacity="0.55" stroke="#C9A84C" stroke-width="1"/>
<circle cx="1043" cy="518" r="13" fill="#2BC5B4" fill-opacity="0.55" stroke="#2BC5B4" stroke-width="1"/>
<circle cx="1021" cy="530" r="13" fill="#2BC5B4" fill-opacity="0.55" stroke="#2BC5B4" stroke-width="1"/>
<circle cx="1055" cy="661" r="13" fill="#C9A84C" fill-opacity="0.55" stroke="#C9A84C" stroke-width="1"/>
<circle cx="1254" cy="664" r="13" fill="#C9A84C" fill-opacity="0.55" stroke="#C9A84C" stroke-width="1"/>
<circle cx="1140" cy="828" r="13" fill="#C9A84C" fill-opacity="0.55" stroke="#C9A84C" stroke-width="1"/>
<circle cx="1055" cy="586" r="13" fill="#C9A84C" fill-opacity="0.55" stroke="#C9A84C" stroke-width="1"/>
<circle cx="835" cy="622" r="13" fill="#C9A84C" fill-opacity="0.55" stroke="#C9A84C" stroke-width="1"/>
<circle cx="855" cy="639" r="12" fill="#C9A84C" fill-opacity="0.55" stroke="#C9A84C" stroke-width="1"/>
<circle cx="966" cy="518" r="12" fill="#2BC5B4" fill-opacity="0.55" stroke="#2BC5B4" stroke-width="1"/>
<circle cx="964" cy="530" r="12" fill="#2BC5B4" fill-opacity="0.55" stroke="#2BC5B4" stroke-width="1"/>
<circle cx="827" cy="597" r="12" fill="#C9A84C" fill-opacity="0.55" stroke="#C9A84C" stroke-width="1"/>
<circle cx="1058" cy="479" r="12" fill="#2BC5B4" fill-opacity="0.55" stroke="#2BC5B4" stroke-width="1"/>
<circle cx="958" cy="466" r="12" fill="#2BC5B4" fill-opacity="0.55" stroke="#2BC5B4" stroke-width="1"/>
<circle cx="864" cy="540" r="12" fill="#C9A84C" fill-opacity="0.55" stroke="#C9A84C" stroke-width="1"/>
<circle cx="915" cy="540" r="12" fill="#C9A84C" fill-opacity="0.55" stroke="#C9A84C" stroke-width="1"/>
<circle cx="895" cy="579" r="12" fill="#C9A84C" fill-opacity="0.55" stroke="#C9A84C" stroke-width="1"/>
<circle cx="1149" cy="922" r="12" fill="#C9A84C" fill-opacity="0.55" stroke="#C9A84C" stroke-width="1"/>
<circle cx="975" cy="538" r="12" fill="#C9A84C" fill-opacity="0.55" stroke="#C9A84C" stroke-width="1"/>
<circle cx="1112" cy="861" r="12" fill="#C9A84C" fill-opacity="0.55" stroke="#C9A84C" stroke-width="1"/>
<circle cx="1075" cy="694" r="12" fill="#C9A84C" fill-opacity="0.55" stroke="#C9A84C" stroke-width="1"/>
<circle cx="875" cy="602" r="12" fill="#C9A84C" fill-opacity="0.55" stroke="#C9A84C" stroke-width="1"/>
<circle cx="981" cy="572" r="12" fill="#C9A84C" fill-opacity="0.55" stroke="#C9A84C" stroke-width="1"/>
<circle cx="841" cy="605" r="12" fill="#2BC5B4" fill-opacity="0.55" stroke="#2BC5B4" stroke-width="1"/>
<circle cx="901" cy="466" r="11" fill="#4A5567" fill-opacity="0.55" stroke="#4A5567" stroke-width="1"/>
<circle cx="1009" cy="618" r="11" fill="#C9A84C" fill-opacity="0.55" stroke="#C9A84C" stroke-width="1"/>
<circle cx="841" cy="469" r="11" fill="#2BC5B4" fill-opacity="0.55" stroke="#2BC5B4" stroke-width="1"/>
<circle cx="892" cy="557" r="11" fill="#C9A84C" fill-opacity="0.55" stroke="#C9A84C" stroke-width="1"/>
<circle cx="1018" cy="639" r="11" fill="#C8443B" fill-opacity="0.55" stroke="#C8443B" stroke-width="1"/>
<circle cx="807" cy="469" r="11" fill="#4A5567" fill-opacity="0.55" stroke="#4A5567" stroke-width="1"/>
<circle cx="1109" cy="783" r="11" fill="#C9A84C" fill-opacity="0.55" stroke="#C9A84C" stroke-width="1"/>
<circle cx="904" cy="502" r="11" fill="#2BC5B4" fill-opacity="0.55" stroke="#2BC5B4" stroke-width="1"/>
<circle cx="744" cy="512" r="11" fill="#2BC5B4" fill-opacity="0.55" stroke="#2BC5B4" stroke-width="1"/>
<circle cx="924" cy="771" r="11" fill="#C9A84C" fill-opacity="0.55" stroke="#C9A84C" stroke-width="1"/>
<circle cx="815" cy="430" r="11" fill="#4A5567" fill-opacity="0.55" stroke="#4A5567" stroke-width="1"/>
<circle cx="793" cy="602" r="11" fill="#C9A84C" fill-opacity="0.55" stroke="#C9A84C" stroke-width="1"/>
<circle cx="798" cy="602" r="11" fill="#C9A84C" fill-opacity="0.55" stroke="#C9A84C" stroke-width="1"/>
<circle cx="890" cy="446" r="11" fill="#4A5567" fill-opacity="0.55" stroke="#4A5567" stroke-width="1"/>
<circle cx="804" cy="725" r="11" fill="#C9A84C" fill-opacity="0.55" stroke="#C9A84C" stroke-width="1"/>
<circle cx="870" cy="470" r="11" fill="#4A5567" fill-opacity="0.55" stroke="#4A5567" stroke-width="1"/>
<circle cx="921" cy="808" r="11" fill="#C9A84C" fill-opacity="0.55" stroke="#C9A84C" stroke-width="1"/>
<circle cx="701" cy="499" r="11" fill="#C9A84C" fill-opacity="0.55" stroke="#C9A84C" stroke-width="1"/>
<circle cx="952" cy="459" r="11" fill="#4A5567" fill-opacity="0.55" stroke="#4A5567" stroke-width="1"/>
<circle cx="927" cy="435" r="11" fill="#4A5567" fill-opacity="0.55" stroke="#4A5567" stroke-width="1"/>
<circle cx="810" cy="725" r="10" fill="#C9A84C" fill-opacity="0.55" stroke="#C9A84C" stroke-width="1"/>
<circle cx="753" cy="463" r="10" fill="#4A5567" fill-opacity="0.55" stroke="#4A5567" stroke-width="1"/>
<circle cx="892" cy="465" r="10" fill="#4A5567" fill-opacity="0.55" stroke="#4A5567" stroke-width="1"/>
<circle cx="804" cy="652" r="10" fill="#C9A84C" fill-opacity="0.55" stroke="#C9A84C" stroke-width="1"/>
<circle cx="870" cy="452" r="10" fill="#4A5567" fill-opacity="0.55" stroke="#4A5567" stroke-width="1"/>
<circle cx="773" cy="571" r="10" fill="#C9A84C" fill-opacity="0.55" stroke="#C9A84C" stroke-width="1"/>
<circle cx="938" cy="703" r="10" fill="#C8443B" fill-opacity="0.55" stroke="#C8443B" stroke-width="1"/>
<circle cx="733" cy="574" r="10" fill="#C9A84C" fill-opacity="0.55" stroke="#C9A84C" stroke-width="1"/>
<circle cx="844" cy="452" r="10" fill="#4A5567" fill-opacity="0.55" stroke="#4A5567" stroke-width="1"/>
<circle cx="810" cy="458" r="10" fill="#4A5567" fill-opacity="0.55" stroke="#4A5567" stroke-width="1"/>
<circle cx="690" cy="682" r="10" fill="#C9A84C" fill-opacity="0.55" stroke="#C9A84C" stroke-width="1"/>
<circle cx="693" cy="571" r="10" fill="#C9A84C" fill-opacity="0.55" stroke="#C9A84C" stroke-width="1"/>
<circle cx="884" cy="898" r="10" fill="#C9A84C" fill-opacity="0.55" stroke="#C9A84C" stroke-width="1"/>
<circle cx="827" cy="429" r="10" fill="#4A5567" fill-opacity="0.55" stroke="#4A5567" stroke-width="1"/>
<circle cx="781" cy="688" r="9" fill="#C8443B" fill-opacity="0.55" stroke="#C8443B" stroke-width="1"/>
<circle cx="756" cy="688" r="9" fill="#C9A84C" fill-opacity="0.55" stroke="#C9A84C" stroke-width="1"/>
<circle cx="790" cy="719" r="9" fill="#C9A84C" fill-opacity="0.55" stroke="#C9A84C" stroke-width="1"/>
<circle cx="736" cy="713" r="9" fill="#C9A84C" fill-opacity="0.55" stroke="#C9A84C" stroke-width="1"/>
<circle cx="662" cy="533" r="9" fill="#C8443B" fill-opacity="0.55" stroke="#C8443B" stroke-width="1"/>
<circle cx="633" cy="646" r="9" fill="#C9A84C" fill-opacity="0.55" stroke="#C9A84C" stroke-width="1"/>
<circle cx="696" cy="676" r="9" fill="#C8443B" fill-opacity="0.55" stroke="#C8443B" stroke-width="1"/>
<circle cx="670" cy="435" r="9" fill="#4A5567" fill-opacity="0.55" stroke="#4A5567" stroke-width="1"/>
<circle cx="747" cy="889" r="8" fill="#C9A84C" fill-opacity="0.55" stroke="#C9A84C" stroke-width="1"/>
<circle cx="607" cy="731" r="7" fill="#C9A84C" fill-opacity="0.55" stroke="#C9A84C" stroke-width="1"/>
<circle cx="599" cy="747" r="7" fill="#C9A84C" fill-opacity="0.55" stroke="#C9A84C" stroke-width="1"/>
<circle cx="579" cy="703" r="7" fill="#C9A84C" fill-opacity="0.55" stroke="#C9A84C" stroke-width="1"/>
<circle cx="519" cy="678" r="7" fill="#C9A84C" fill-opacity="0.55" stroke="#C9A84C" stroke-width="1"/>
<circle cx="485" cy="625" r="6" fill="#C8443B" fill-opacity="0.55" stroke="#C8443B" stroke-width="1"/>
<text x="1300" y="152" font-size="14" fill="#0F1828" font-weight="600">SOE portfolio class</text>
<circle cx="1310" cy="178" r="8" fill="#2BC5B4" fill-opacity="0.6"/><text x="1328" y="182" font-size="13" fill="#4A5567">Strategic Quick Win</text>
<circle cx="1310" cy="208" r="8" fill="#C9A84C" fill-opacity="0.6"/><text x="1328" y="212" font-size="13" fill="#4A5567">National Bet</text>
<circle cx="1310" cy="238" r="8" fill="#4A5567" fill-opacity="0.6"/><text x="1328" y="242" font-size="13" fill="#4A5567">Cash Engine</text>
<circle cx="1310" cy="268" r="8" fill="#C8443B" fill-opacity="0.6"/><text x="1328" y="272" font-size="13" fill="#4A5567">Watch / Defer</text>
<text x="1300" y="330" font-size="13" fill="#0F1828" font-weight="600">Bubble size = TOMI</text>
<text x="1300" y="352" font-size="12" fill="#4A5567">larger = higher overall score</text>
<text x="1300" y="390" font-size="12" fill="#4A5567">n = 100 opportunities</text>
<text x="70" y="872" font-size="13" fill="#4A5567">Source: Techadyant Labs TOMI/SOE scoring (FRAMEWORKS.md). NITI Aayog 2026; ISM.</text>
<text x="1530" y="872" font-size="12" fill="#C9A84C" text-anchor="end" font-style="italic">Indicative</text>
</svg>