<svg viewBox="0 0 1400 820" xmlns="http://www.w3.org/2000/svg" font-family="Arial, Helvetica, sans-serif">
<rect width="1400" height="820" fill="#FBF9F4"/>
<text x="70" y="52" font-size="32" font-weight="700" fill="#0F1828">The precision-SME pivot</text>
<text x="70" y="82" font-size="16" fill="#4A5567">India's existing precision base maps onto fab-grade component demand.</text>
<text x="1330" y="40" font-size="14" fill="#4A5567" text-anchor="end" font-family="monospace">Figure 2.4 - Techadyant Labs - 2026</text>
<rect x="120" y="180" width="420" height="92" rx="8" fill="#4A5567"/>
<text x="330.0" y="232.0" font-size="17" fill="#ffffff" text-anchor="middle" font-weight="600">Aerospace machining</text>
<rect x="120" y="302" width="420" height="92" rx="8" fill="#4A5567"/>
<text x="330.0" y="354.0" font-size="17" fill="#ffffff" text-anchor="middle" font-weight="600">Defence precision parts</text>
<rect x="120" y="424" width="420" height="92" rx="8" fill="#4A5567"/>
<text x="330.0" y="476.0" font-size="17" fill="#ffffff" text-anchor="middle" font-weight="600">Automotive tooling</text>
<rect x="120" y="546" width="420" height="92" rx="8" fill="#4A5567"/>
<text x="330.0" y="598.0" font-size="17" fill="#ffffff" text-anchor="middle" font-weight="600">Industrial fabrication</text>
<rect x="120" y="668" width="420" height="92" rx="8" fill="#4A5567"/>
<text x="330.0" y="720.0" font-size="17" fill="#ffffff" text-anchor="middle" font-weight="600">Medical-device precision</text>
<rect x="860" y="180" width="420" height="92" rx="8" fill="#2BC5B4"/>
<text x="1070.0" y="232.0" font-size="16" fill="#ffffff" text-anchor="middle" font-weight="600">Vacuum chambers &amp; UHV parts</text>
<text x="700" y="234.0" font-size="30" fill="#C9A84C" text-anchor="middle">&#8594;</text>
<rect x="860" y="302" width="420" height="92" rx="8" fill="#2BC5B4"/>
<text x="1070.0" y="354.0" font-size="16" fill="#ffffff" text-anchor="middle" font-weight="600">Stainless bellows &amp; manifolds</text>
<text x="700" y="356.0" font-size="30" fill="#C9A84C" text-anchor="middle">&#8594;</text>
<rect x="860" y="424" width="420" height="92" rx="8" fill="#2BC5B4"/>
<text x="1070.0" y="476.0" font-size="16" fill="#ffffff" text-anchor="middle" font-weight="600">Thermal-management assemblies</text>
<text x="700" y="478.0" font-size="30" fill="#C9A84C" text-anchor="middle">&#8594;</text>
<rect x="860" y="546" width="420" height="92" rx="8" fill="#2BC5B4"/>
<text x="1070.0" y="598.0" font-size="16" fill="#ffffff" text-anchor="middle" font-weight="600">Gas/chemical delivery systems</text>
<text x="700" y="600.0" font-size="30" fill="#C9A84C" text-anchor="middle">&#8594;</text>
<rect x="860" y="668" width="420" height="92" rx="8" fill="#2BC5B4"/>
<text x="1070.0" y="720.0" font-size="16" fill="#ffffff" text-anchor="middle" font-weight="600">Semiconductor-grade quartzware</text>
<text x="700" y="722.0" font-size="30" fill="#C9A84C" text-anchor="middle">&#8594;</text>
<text x="330.0" y="160" font-size="15" fill="#4A5567" text-anchor="middle" font-family="monospace">EXISTING CAPABILITY</text>
<text x="1070.0" y="160" font-size="15" fill="#4A5567" text-anchor="middle" font-family="monospace">FAB-GRADE OPPORTUNITY</text>
<text x="70" y="792" font-size="13" fill="#4A5567">Source: Techadyant Labs Missing Links (2026); analysis.</text>
<text x="1330" y="792" font-size="12" fill="#C9A84C" text-anchor="end" font-style="italic">Indicative mapping</text>
</svg>