<svg viewBox="0 0 1600 460" xmlns="http://www.w3.org/2000/svg" font-family="Arial, Helvetica, sans-serif">
<rect width="1600" height="460" fill="#FBF9F4"/>
<text x="70" y="52" font-size="32" font-weight="700" fill="#0F1828">The MSME entry roadmap</text>
<text x="70" y="82" font-size="16" fill="#4A5567">Five steps from capability to scale; qualification is the binding step.</text>
<text x="1530" y="40" font-size="14" fill="#4A5567" text-anchor="end" font-family="monospace">Figure 10.2 - Techadyant Labs - 2026</text>
<polygon points="70.0,200 328.8,200 350.8,275.0 328.8,350 70.0,350" fill="#4A5567"/>
<text x="221" y="270" font-size="17" font-weight="600" fill="#ffffff" text-anchor="middle">Capability</text>
<text x="221" y="292" font-size="17" font-weight="600" fill="#ffffff" text-anchor="middle">assessment</text>
<polygon points="364.8,200 623.6,200 645.6,275.0 623.6,350 364.8,350 386.8,275.0" fill="#C8443B"/>
<text x="516" y="270" font-size="17" font-weight="600" fill="#ffffff" text-anchor="middle">Certification &amp;</text>
<text x="516" y="292" font-size="17" font-weight="600" fill="#ffffff" text-anchor="middle">qualification</text>
<polygon points="659.6,200 918.4000000000001,200 940.4000000000001,275.0 918.4000000000001,350 659.6,350 681.6,275.0" fill="#2BC5B4"/>
<text x="811" y="281" font-size="17" font-weight="600" fill="#ffffff" text-anchor="middle">Pilot</text>
<polygon points="954.4000000000001,200 1213.2,200 1235.2,275.0 1213.2,350 954.4000000000001,350 976.4000000000001,275.0" fill="#C9A84C"/>
<text x="1106" y="270" font-size="17" font-weight="600" fill="#0F1828" text-anchor="middle">Customer</text>
<text x="1106" y="292" font-size="17" font-weight="600" fill="#0F1828" text-anchor="middle">acquisition</text>
<polygon points="1249.2,200 1508.0,200 1530.0,275.0 1508.0,350 1249.2,350 1271.2,275.0" fill="#0F1828"/>
<text x="1401" y="281" font-size="17" font-weight="600" fill="#ffffff" text-anchor="middle">Scale</text>
<text x="653" y="390" font-size="14" fill="#C8443B" text-anchor="middle" font-weight="600">&#8593; the binding constraint - fund qualification infrastructure</text>
<text x="70" y="432" font-size="13" fill="#4A5567">Source: Techadyant Labs analysis.</text>
</svg>