<svg xmlns="http://www.w3.org/2000/svg" viewBox="0 0 1600 754" width="1600" height="754">
<rect x="0" y="0" width="1600" height="754" fill="#FBF9F4"/>
<text x="46.0" y="56.0" font-family="Arial, Helvetica, sans-serif" font-size="30" font-weight="700" fill="#0F1828" text-anchor="start">Defence procurement process for FC / AI</text>
<text x="46.0" y="84.0" font-family="Arial, Helvetica, sans-serif" font-size="16" font-weight="400" fill="#4A5567" text-anchor="start">Six stages, grant to delivery (2–5 years total)</text>
<rect x="46.0" y="98.0" width="64.0" height="4.0" rx="0" fill="#C9A84C"/>
<text x="1554.0" y="40.0" font-family="Arial, Helvetica, sans-serif" font-size="12.5" font-weight="500" fill="#4A5567" text-anchor="end">Figure 10.2 · Techadyant Labs · 2026</text>
<rect x="46.0" y="150.0" width="470.0" height="88.0" rx="8" fill="#2BC5B4"/>
<text x="66.0" y="180.0" font-family="'JetBrains Mono', 'Courier New', monospace" font-size="14" font-weight="700" fill="#FFFFFF" text-anchor="start">STAGE 1</text>
<text x="66.0" y="212.0" font-family="Arial, Helvetica, sans-serif" font-size="20" font-weight="700" fill="#FFFFFF" text-anchor="start">iDEX Grant</text>
<text x="496.0" y="180.0" font-family="Arial, Helvetica, sans-serif" font-size="13" font-weight="600" fill="#E8E5DD" text-anchor="end">12–18 months</text>
<rect x="46.0" y="248.0" width="470.0" height="60.0" rx="8" fill="#FFFFFF" stroke="#D9D4C8" stroke-width="1.4"/>
<text x="64.0" y="284.0" font-family="Arial, Helvetica, sans-serif" font-size="15" font-weight="400" fill="#4A5567" text-anchor="start">Grant: Rs 0.5–10 Cr</text>
<line x1="516.0" y1="194.0" x2="558.0" y2="194.0" stroke="#2BC5B4" stroke-width="2.6" opacity="1"/>
<polygon points="565.0,194.0 555.0,189.0 555.0,199.0" fill="#2BC5B4" opacity="1"/>
<rect x="565.0" y="150.0" width="470.0" height="88.0" rx="8" fill="#2BC5B4"/>
<text x="585.0" y="180.0" font-family="'JetBrains Mono', 'Courier New', monospace" font-size="14" font-weight="700" fill="#FFFFFF" text-anchor="start">STAGE 2</text>
<text x="585.0" y="212.0" font-family="Arial, Helvetica, sans-serif" font-size="20" font-weight="700" fill="#FFFFFF" text-anchor="start">Prototype Development</text>
<rect x="565.0" y="248.0" width="470.0" height="60.0" rx="8" fill="#FFFFFF" stroke="#D9D4C8" stroke-width="1.4"/>
<text x="583.0" y="284.0" font-family="Arial, Helvetica, sans-serif" font-size="15" font-weight="400" fill="#4A5567" text-anchor="start">Technical hand-holding</text>
<line x1="1035.0" y1="194.0" x2="1077.0" y2="194.0" stroke="#2BC5B4" stroke-width="2.6" opacity="1"/>
<polygon points="1084.0,194.0 1074.0,189.0 1074.0,199.0" fill="#2BC5B4" opacity="1"/>
<rect x="1084.0" y="150.0" width="470.0" height="88.0" rx="8" fill="#C9A84C"/>
<text x="1104.0" y="180.0" font-family="'JetBrains Mono', 'Courier New', monospace" font-size="14" font-weight="700" fill="#0F1828" text-anchor="start">STAGE 3</text>
<text x="1104.0" y="212.0" font-family="Arial, Helvetica, sans-serif" font-size="20" font-weight="700" fill="#0F1828" text-anchor="start">Validation (515 WS)</text>
<rect x="1084.0" y="248.0" width="470.0" height="60.0" rx="8" fill="#FFFFFF" stroke="#D9D4C8" stroke-width="1.4"/>
<text x="1102.0" y="284.0" font-family="Arial, Helvetica, sans-serif" font-size="15" font-weight="400" fill="#4A5567" text-anchor="start">Validation report</text>
<rect x="46.0" y="380.0" width="470.0" height="88.0" rx="8" fill="#4A5567"/>
<text x="66.0" y="410.0" font-family="'JetBrains Mono', 'Courier New', monospace" font-size="14" font-weight="700" fill="#FFFFFF" text-anchor="start">STAGE 4</text>
<text x="66.0" y="442.0" font-family="Arial, Helvetica, sans-serif" font-size="20" font-weight="700" fill="#FFFFFF" text-anchor="start">Tender Release</text>
<text x="496.0" y="410.0" font-family="Arial, Helvetica, sans-serif" font-size="13" font-weight="600" fill="#E8E5DD" text-anchor="end">6–12 months</text>
<rect x="46.0" y="478.0" width="470.0" height="60.0" rx="8" fill="#FFFFFF" stroke="#D9D4C8" stroke-width="1.4"/>
<text x="64.0" y="514.0" font-family="Arial, Helvetica, sans-serif" font-size="15" font-weight="400" fill="#4A5567" text-anchor="start">RFP / RFQ</text>
<line x1="516.0" y1="424.0" x2="558.0" y2="424.0" stroke="#4A5567" stroke-width="2.6" opacity="1"/>
<polygon points="565.0,424.0 555.0,419.0 555.0,429.0" fill="#4A5567" opacity="1"/>
<rect x="565.0" y="380.0" width="470.0" height="88.0" rx="8" fill="#4A5567"/>
<text x="585.0" y="410.0" font-family="'JetBrains Mono', 'Courier New', monospace" font-size="14" font-weight="700" fill="#FFFFFF" text-anchor="start">STAGE 5</text>
<text x="585.0" y="442.0" font-family="Arial, Helvetica, sans-serif" font-size="20" font-weight="700" fill="#FFFFFF" text-anchor="start">Commercial Negotiation</text>
<rect x="565.0" y="478.0" width="470.0" height="60.0" rx="8" fill="#FFFFFF" stroke="#D9D4C8" stroke-width="1.4"/>
<text x="583.0" y="514.0" font-family="Arial, Helvetica, sans-serif" font-size="15" font-weight="400" fill="#4A5567" text-anchor="start">L1 or technical preference</text>
<line x1="1035.0" y1="424.0" x2="1077.0" y2="424.0" stroke="#4A5567" stroke-width="2.6" opacity="1"/>
<polygon points="1084.0,424.0 1074.0,419.0 1074.0,429.0" fill="#4A5567" opacity="1"/>
<rect x="1084.0" y="380.0" width="470.0" height="88.0" rx="8" fill="#0F1828"/>
<text x="1104.0" y="410.0" font-family="'JetBrains Mono', 'Courier New', monospace" font-size="14" font-weight="700" fill="#C9A84C" text-anchor="start">STAGE 6</text>
<text x="1104.0" y="442.0" font-family="Arial, Helvetica, sans-serif" font-size="20" font-weight="700" fill="#FFFFFF" text-anchor="start">Production &amp; Delivery</text>
<rect x="1084.0" y="478.0" width="470.0" height="60.0" rx="8" fill="#FFFFFF" stroke="#D9D4C8" stroke-width="1.4"/>
<text x="1102.0" y="514.0" font-family="Arial, Helvetica, sans-serif" font-size="15" font-weight="400" fill="#4A5567" text-anchor="start">Typically 100–1,000 units</text>
<line x1="1319.0" y1="306.0" x2="1319.0" y2="369.0" stroke="#C9A84C" stroke-width="2.6" opacity="1"/>
<polygon points="1319.0,376.0 1314.0,366.0 1324.0,366.0" fill="#C9A84C" opacity="1"/>
<rect x="46.0" y="616.0" width="1508.0" height="70.0" rx="8" fill="#E8E5DD" stroke="#D9D4C8" stroke-width="1.4"/>
<text x="66.0" y="644.0" font-family="Arial, Helvetica, sans-serif" font-size="14" font-weight="700" fill="#0F1828" text-anchor="start">KEY PATHWAYS:</text>
<text x="66.0" y="668.0" font-family="Arial, Helvetica, sans-serif" font-size="14" font-weight="400" fill="#4A5567" text-anchor="start">iDEX + 515 WS — fastest (12–24 mo to validation)   ·   Direct tender — 2–5 yrs, needs prior certs   ·   BEL/PSU partnership — 1–3 yrs</text>
<line x1="46.0" y1="714.0" x2="1554.0" y2="714.0" stroke="#D9D4C8" stroke-width="1" opacity="1"/>
<text x="46.0" y="736.0" font-family="Arial, Helvetica, sans-serif" font-size="11.5" font-weight="400" fill="#4A5567" text-anchor="start">Source: MoD; iDEX; Techadyant Labs analysis.  Techadyant Labs analysis.</text>
</svg>