<svg xmlns="http://www.w3.org/2000/svg" viewBox="0 0 1600 946" width="1600" height="946">
<rect x="0" y="0" width="1600" height="946" fill="#FBF9F4"/>
<text x="46.0" y="56.0" font-family="Arial, Helvetica, sans-serif" font-size="30" font-weight="700" fill="#0F1828" text-anchor="start">FC / AI technology gap analysis</text>
<text x="46.0" y="84.0" font-family="Arial, Helvetica, sans-serif" font-size="16" font-weight="400" fill="#4A5567" text-anchor="start">India vs. global leader vs. 2030 target (1 = negligible, 5 = world-leading)</text>
<rect x="46.0" y="98.0" width="64.0" height="4.0" rx="0" fill="#C9A84C"/>
<text x="1554.0" y="40.0" font-family="Arial, Helvetica, sans-serif" font-size="12.5" font-weight="500" fill="#4A5567" text-anchor="end">Figure 13.1 · Techadyant Labs · 2026</text>
<polygon points="800.0,480.0 835.3,491.5 857.1,521.5 857.1,558.5 835.3,588.5 800.0,600.0 764.7,588.5 742.9,558.5 742.9,521.5 764.7,491.5" fill="none" stroke="#D9D4C8" stroke-width="1" opacity="1"/>
<polygon points="800.0,420.0 870.5,442.9 914.1,502.9 914.1,577.1 870.5,637.1 800.0,660.0 729.5,637.1 685.9,577.1 685.9,502.9 729.5,442.9" fill="none" stroke="#D9D4C8" stroke-width="1" opacity="1"/>
<polygon points="800.0,360.0 905.8,394.4 971.2,484.4 971.2,595.6 905.8,685.6 800.0,720.0 694.2,685.6 628.8,595.6 628.8,484.4 694.2,394.4" fill="none" stroke="#D9D4C8" stroke-width="1" opacity="1"/>
<polygon points="800.0,300.0 941.1,345.8 1028.3,465.8 1028.3,614.2 941.1,734.2 800.0,780.0 658.9,734.2 571.7,614.2 571.7,465.8 658.9,345.8" fill="none" stroke="#D9D4C8" stroke-width="1" opacity="1"/>
<polygon points="800.0,240.0 976.3,297.3 1085.3,447.3 1085.3,632.7 976.3,782.7 800.0,840.0 623.7,782.7 514.7,632.7 514.7,447.3 623.7,297.3" fill="none" stroke="#D9D4C8" stroke-width="1" opacity="1"/>
<line x1="800.0" y1="540.0" x2="800.0" y2="240.0" stroke="#D9D4C8" stroke-width="1" opacity="1"/>
<text x="800.0" y="214.0" font-family="Arial, Helvetica, sans-serif" font-size="13" font-weight="600" fill="#0F1828" text-anchor="middle">GPS-denied navigation</text>
<line x1="800.0" y1="540.0" x2="976.3" y2="297.3" stroke="#D9D4C8" stroke-width="1" opacity="1"/>
<text x="994.0" y="277.0" font-family="Arial, Helvetica, sans-serif" font-size="13" font-weight="600" fill="#0F1828" text-anchor="start">Sense-and-avoid (dynamic)</text>
<line x1="800.0" y1="540.0" x2="1085.3" y2="447.3" stroke="#D9D4C8" stroke-width="1" opacity="1"/>
<text x="1113.8" y="442.0" font-family="Arial, Helvetica, sans-serif" font-size="13" font-weight="600" fill="#0F1828" text-anchor="start">Indigenous FC processor</text>
<line x1="800.0" y1="540.0" x2="1085.3" y2="632.7" stroke="#D9D4C8" stroke-width="1" opacity="1"/>
<text x="1113.8" y="646.0" font-family="Arial, Helvetica, sans-serif" font-size="13" font-weight="600" fill="#0F1828" text-anchor="start">Edge AI hardware</text>
<line x1="800.0" y1="540.0" x2="976.3" y2="782.7" stroke="#D9D4C8" stroke-width="1" opacity="1"/>
<text x="994.0" y="811.0" font-family="Arial, Helvetica, sans-serif" font-size="13" font-weight="600" fill="#0F1828" text-anchor="start">Open-source contribution</text>
<line x1="800.0" y1="540.0" x2="800.0" y2="840.0" stroke="#D9D4C8" stroke-width="1" opacity="1"/>
<text x="800.0" y="874.0" font-family="Arial, Helvetica, sans-serif" font-size="13" font-weight="600" fill="#0F1828" text-anchor="middle">AI certification framework</text>
<line x1="800.0" y1="540.0" x2="623.7" y2="782.7" stroke="#D9D4C8" stroke-width="1" opacity="1"/>
<text x="606.0" y="811.0" font-family="Arial, Helvetica, sans-serif" font-size="13" font-weight="600" fill="#0F1828" text-anchor="end">RTOS for drones</text>
<line x1="800.0" y1="540.0" x2="514.7" y2="632.7" stroke="#D9D4C8" stroke-width="1" opacity="1"/>
<text x="486.2" y="646.0" font-family="Arial, Helvetica, sans-serif" font-size="13" font-weight="600" fill="#0F1828" text-anchor="end">MEMS IMU fab</text>
<line x1="800.0" y1="540.0" x2="514.7" y2="447.3" stroke="#D9D4C8" stroke-width="1" opacity="1"/>
<text x="486.2" y="442.0" font-family="Arial, Helvetica, sans-serif" font-size="13" font-weight="600" fill="#0F1828" text-anchor="end">Swarm intelligence</text>
<line x1="800.0" y1="540.0" x2="623.7" y2="297.3" stroke="#D9D4C8" stroke-width="1" opacity="1"/>
<text x="606.0" y="277.0" font-family="Arial, Helvetica, sans-serif" font-size="13" font-weight="600" fill="#0F1828" text-anchor="end">EW-resilient FC</text>
<polygon points="800.0,240.0 965.8,311.9 1085.3,447.3 1085.3,632.7 958.7,758.4 800.0,720.0 630.7,773.0 514.7,632.7 543.2,456.6 634.2,311.9" fill="#4A5567" fill-opacity="0.05" stroke="#4A5567" stroke-width="2.4"/>
<circle cx="800.0" cy="240.0" r="3.5" fill="#4A5567" opacity="1"/>
<circle cx="965.8" cy="311.9" r="3.5" fill="#4A5567" opacity="1"/>
<circle cx="1085.3" cy="447.3" r="3.5" fill="#4A5567" opacity="1"/>
<circle cx="1085.3" cy="632.7" r="3.5" fill="#4A5567" opacity="1"/>
<circle cx="958.7" cy="758.4" r="3.5" fill="#4A5567" opacity="1"/>
<circle cx="800.0" cy="720.0" r="3.5" fill="#4A5567" opacity="1"/>
<circle cx="630.7" cy="773.0" r="3.5" fill="#4A5567" opacity="1"/>
<circle cx="514.7" cy="632.7" r="3.5" fill="#4A5567" opacity="1"/>
<circle cx="543.2" cy="456.6" r="3.5" fill="#4A5567" opacity="1"/>
<circle cx="634.2" cy="311.9" r="3.5" fill="#4A5567" opacity="1"/>
<polygon points="800.0,300.0 941.1,345.8 914.1,502.9 914.1,577.1 905.8,685.6 800.0,720.0 658.9,734.2 685.9,577.1 600.3,475.1 658.9,345.8" fill="#C9A84C" fill-opacity="0.1" stroke="#C9A84C" stroke-width="2.4"/>
<circle cx="800.0" cy="300.0" r="3.5" fill="#C9A84C" opacity="1"/>
<circle cx="941.1" cy="345.8" r="3.5" fill="#C9A84C" opacity="1"/>
<circle cx="914.1" cy="502.9" r="3.5" fill="#C9A84C" opacity="1"/>
<circle cx="914.1" cy="577.1" r="3.5" fill="#C9A84C" opacity="1"/>
<circle cx="905.8" cy="685.6" r="3.5" fill="#C9A84C" opacity="1"/>
<circle cx="800.0" cy="720.0" r="3.5" fill="#C9A84C" opacity="1"/>
<circle cx="658.9" cy="734.2" r="3.5" fill="#C9A84C" opacity="1"/>
<circle cx="685.9" cy="577.1" r="3.5" fill="#C9A84C" opacity="1"/>
<circle cx="600.3" cy="475.1" r="3.5" fill="#C9A84C" opacity="1"/>
<circle cx="658.9" cy="345.8" r="3.5" fill="#C9A84C" opacity="1"/>
<polygon points="800.0,420.0 877.6,433.2 857.1,521.5 857.1,558.5 845.8,603.1 800.0,600.0 711.8,661.4 742.9,558.5 685.9,502.9 718.9,428.4" fill="#2BC5B4" fill-opacity="0.16" stroke="#2BC5B4" stroke-width="2.4"/>
<circle cx="800.0" cy="420.0" r="3.5" fill="#2BC5B4" opacity="1"/>
<circle cx="877.6" cy="433.2" r="3.5" fill="#2BC5B4" opacity="1"/>
<circle cx="857.1" cy="521.5" r="3.5" fill="#2BC5B4" opacity="1"/>
<circle cx="857.1" cy="558.5" r="3.5" fill="#2BC5B4" opacity="1"/>
<circle cx="845.8" cy="603.1" r="3.5" fill="#2BC5B4" opacity="1"/>
<circle cx="800.0" cy="600.0" r="3.5" fill="#2BC5B4" opacity="1"/>
<circle cx="711.8" cy="661.4" r="3.5" fill="#2BC5B4" opacity="1"/>
<circle cx="742.9" cy="558.5" r="3.5" fill="#2BC5B4" opacity="1"/>
<circle cx="685.9" cy="502.9" r="3.5" fill="#2BC5B4" opacity="1"/>
<circle cx="718.9" cy="428.4" r="3.5" fill="#2BC5B4" opacity="1"/>
<rect x="1300.0" y="180.0" width="18.0" height="18.0" rx="0" fill="#2BC5B4" opacity="0.5"/>
<rect x="1300.0" y="180.0" width="18.0" height="18.0" rx="0" fill="none" stroke="#2BC5B4" stroke-width="2"/>
<text x="1328.0" y="195.0" font-family="Arial, Helvetica, sans-serif" font-size="14" font-weight="600" fill="#0F1828" text-anchor="start">India (2026)</text>
<rect x="1300.0" y="210.0" width="18.0" height="18.0" rx="0" fill="#C9A84C" opacity="0.5"/>
<rect x="1300.0" y="210.0" width="18.0" height="18.0" rx="0" fill="none" stroke="#C9A84C" stroke-width="2"/>
<text x="1328.0" y="225.0" font-family="Arial, Helvetica, sans-serif" font-size="14" font-weight="600" fill="#0F1828" text-anchor="start">2030 target</text>
<rect x="1300.0" y="240.0" width="18.0" height="18.0" rx="0" fill="#4A5567" opacity="0.5"/>
<rect x="1300.0" y="240.0" width="18.0" height="18.0" rx="0" fill="none" stroke="#4A5567" stroke-width="2"/>
<text x="1328.0" y="255.0" font-family="Arial, Helvetica, sans-serif" font-size="14" font-weight="600" fill="#0F1828" text-anchor="start">Global leader</text>
<line x1="46.0" y1="906.0" x2="1554.0" y2="906.0" stroke="#D9D4C8" stroke-width="1" opacity="1"/>
<text x="46.0" y="928.0" font-family="Arial, Helvetica, sans-serif" font-size="11.5" font-weight="400" fill="#4A5567" text-anchor="start">Source: Comparative capability assessment  Techadyant Labs analysis.</text>
<text x="1554.0" y="928.0" font-family="Arial, Helvetica, sans-serif" font-size="11.5" font-weight="400" fill="#C9A84C" text-anchor="end" font-style="italic">Indicative 1–5</text>
</svg>