<svg xmlns="http://www.w3.org/2000/svg" viewBox="0 0 1600 802" width="1600" height="802">
<rect x="0" y="0" width="1600" height="802" fill="#FBF9F4"/>
<text x="46.0" y="56.0" font-family="Arial, Helvetica, sans-serif" font-size="30" font-weight="700" fill="#0F1828" text-anchor="start">Flight controller block diagram</text>
<text x="46.0" y="84.0" font-family="Arial, Helvetica, sans-serif" font-size="16" font-weight="400" fill="#4A5567" text-anchor="start">Sensor inputs through processor, firmware and outputs</text>
<rect x="46.0" y="98.0" width="64.0" height="4.0" rx="0" fill="#C9A84C"/>
<text x="1554.0" y="40.0" font-family="Arial, Helvetica, sans-serif" font-size="12.5" font-weight="500" fill="#4A5567" text-anchor="end">Figure 4.1 · Techadyant Labs · 2026</text>
<text x="46.0" y="124.0" font-family="Arial, Helvetica, sans-serif" font-size="14" font-weight="700" fill="#4A5567" text-anchor="start">SENSORS (onboard or external)</text>
<rect x="120.0" y="144.0" width="210.0" height="72.0" rx="8" fill="#FFFFFF" stroke="#2BC5B4" stroke-width="1.8"/>
<text x="225.0" y="180.0" font-family="Arial, Helvetica, sans-serif" font-size="16" font-weight="700" fill="#0F1828" text-anchor="middle">IMU</text>
<text x="225.0" y="202.0" font-family="Arial, Helvetica, sans-serif" font-size="12.5" font-weight="400" fill="#4A5567" text-anchor="middle">(Accel+Gyro)</text>
<rect x="352.0" y="144.0" width="210.0" height="72.0" rx="8" fill="#FFFFFF" stroke="#2BC5B4" stroke-width="1.8"/>
<text x="457.0" y="180.0" font-family="Arial, Helvetica, sans-serif" font-size="16" font-weight="700" fill="#0F1828" text-anchor="middle">Mag</text>
<text x="457.0" y="202.0" font-family="Arial, Helvetica, sans-serif" font-size="12.5" font-weight="400" fill="#4A5567" text-anchor="middle">(Heading)</text>
<rect x="584.0" y="144.0" width="210.0" height="72.0" rx="8" fill="#FFFFFF" stroke="#2BC5B4" stroke-width="1.8"/>
<text x="689.0" y="180.0" font-family="Arial, Helvetica, sans-serif" font-size="16" font-weight="700" fill="#0F1828" text-anchor="middle">Baro</text>
<text x="689.0" y="202.0" font-family="Arial, Helvetica, sans-serif" font-size="12.5" font-weight="400" fill="#4A5567" text-anchor="middle">(Altitude)</text>
<rect x="816.0" y="144.0" width="210.0" height="72.0" rx="8" fill="#FFFFFF" stroke="#2BC5B4" stroke-width="1.8"/>
<text x="921.0" y="180.0" font-family="Arial, Helvetica, sans-serif" font-size="16" font-weight="700" fill="#0F1828" text-anchor="middle">GPS</text>
<text x="921.0" y="202.0" font-family="Arial, Helvetica, sans-serif" font-size="12.5" font-weight="400" fill="#4A5567" text-anchor="middle">(Position)</text>
<rect x="1048.0" y="144.0" width="210.0" height="72.0" rx="8" fill="#FFFFFF" stroke="#2BC5B4" stroke-width="1.8"/>
<text x="1153.0" y="180.0" font-family="Arial, Helvetica, sans-serif" font-size="16" font-weight="700" fill="#0F1828" text-anchor="middle">Optical Flow</text>
<rect x="1280.0" y="144.0" width="210.0" height="72.0" rx="8" fill="#FFFFFF" stroke="#2BC5B4" stroke-width="1.8"/>
<text x="1385.0" y="180.0" font-family="Arial, Helvetica, sans-serif" font-size="16" font-weight="700" fill="#0F1828" text-anchor="middle">LiDAR</text>
<text x="1385.0" y="202.0" font-family="Arial, Helvetica, sans-serif" font-size="12.5" font-weight="400" fill="#4A5567" text-anchor="middle">(Range)</text>
<line x1="225.0" y1="216.0" x2="225.0" y2="240.0" stroke="#4A5567" stroke-width="1.6" opacity="1"/>
<line x1="457.0" y1="216.0" x2="457.0" y2="240.0" stroke="#4A5567" stroke-width="1.6" opacity="1"/>
<line x1="689.0" y1="216.0" x2="689.0" y2="240.0" stroke="#4A5567" stroke-width="1.6" opacity="1"/>
<line x1="921.0" y1="216.0" x2="921.0" y2="240.0" stroke="#4A5567" stroke-width="1.6" opacity="1"/>
<line x1="1153.0" y1="216.0" x2="1153.0" y2="240.0" stroke="#4A5567" stroke-width="1.6" opacity="1"/>
<line x1="1385.0" y1="216.0" x2="1385.0" y2="240.0" stroke="#4A5567" stroke-width="1.6" opacity="1"/>
<line x1="225.0" y1="240.0" x2="1385.0" y2="240.0" stroke="#4A5567" stroke-width="1.6" opacity="1"/>
<line x1="805.0" y1="240.0" x2="805.0" y2="273.0" stroke="#4A5567" stroke-width="2.4" opacity="1"/>
<polygon points="805.0,280.0 800.0,270.0 810.0,270.0" fill="#4A5567" opacity="1"/>
<rect x="120.0" y="280.0" width="1380.0" height="200.0" rx="10" fill="#0F1828"/>
<text x="144.0" y="314.0" font-family="Arial, Helvetica, sans-serif" font-size="18" font-weight="700" fill="#C9A84C" text-anchor="start">MICROCONTROLLER / PROCESSOR  (STM32, NXP, etc.)</text>
<rect x="160.0" y="340.0" width="305.0" height="110.0" rx="8" fill="#FFFFFF" stroke="#2BC5B4" stroke-width="1.6"/>
<text x="312.5" y="395.0" font-family="Arial, Helvetica, sans-serif" font-size="16" font-weight="700" fill="#0F1828" text-anchor="middle">Sensor Fusion</text>
<text x="312.5" y="418.0" font-family="Arial, Helvetica, sans-serif" font-size="13" font-weight="400" fill="#4A5567" text-anchor="middle">(Kalman Filter)</text>
<rect x="485.0" y="340.0" width="305.0" height="110.0" rx="8" fill="#FFFFFF" stroke="#2BC5B4" stroke-width="1.6"/>
<text x="637.5" y="395.0" font-family="Arial, Helvetica, sans-serif" font-size="16" font-weight="700" fill="#0F1828" text-anchor="middle">Control Laws</text>
<text x="637.5" y="418.0" font-family="Arial, Helvetica, sans-serif" font-size="13" font-weight="400" fill="#4A5567" text-anchor="middle">(PID, MPC)</text>
<rect x="810.0" y="340.0" width="305.0" height="110.0" rx="8" fill="#FFFFFF" stroke="#2BC5B4" stroke-width="1.6"/>
<text x="962.5" y="395.0" font-family="Arial, Helvetica, sans-serif" font-size="16" font-weight="700" fill="#0F1828" text-anchor="middle">Mission Mgmt</text>
<text x="962.5" y="418.0" font-family="Arial, Helvetica, sans-serif" font-size="13" font-weight="400" fill="#4A5567" text-anchor="middle">(Waypoints)</text>
<rect x="1135.0" y="340.0" width="305.0" height="110.0" rx="8" fill="#FFFFFF" stroke="#2BC5B4" stroke-width="1.6"/>
<text x="1287.5" y="395.0" font-family="Arial, Helvetica, sans-serif" font-size="16" font-weight="700" fill="#0F1828" text-anchor="middle">Failsafe Handling</text>
<line x1="805.0" y1="480.0" x2="805.0" y2="513.0" stroke="#4A5567" stroke-width="2.4" opacity="1"/>
<polygon points="805.0,520.0 800.0,510.0 810.0,510.0" fill="#4A5567" opacity="1"/>
<rect x="120.0" y="520.0" width="1380.0" height="58.0" rx="8" fill="#C9A84C"/>
<text x="140.0" y="556.0" font-family="Arial, Helvetica, sans-serif" font-size="18" font-weight="700" fill="#0F1828" text-anchor="start">FIRMWARE — ArduPilot, PX4, Proprietary</text>
<line x1="805.0" y1="578.0" x2="805.0" y2="605.0" stroke="#4A5567" stroke-width="2.4" opacity="1"/>
<polygon points="805.0,612.0 800.0,602.0 810.0,602.0" fill="#4A5567" opacity="1"/>
<rect x="120.0" y="612.0" width="1380.0" height="58.0" rx="8" fill="#2BC5B4"/>
<text x="140.0" y="648.0" font-family="Arial, Helvetica, sans-serif" font-size="18" font-weight="700" fill="#0F1828" text-anchor="start">OUTPUTS — Motor signals, telemetry, GCS link</text>
<rect x="120.0" y="688.0" width="1380.0" height="46.0" rx="8" fill="#E8E5DD" stroke="#D9D4C8" stroke-width="1.2"/>
<text x="140.0" y="716.0" font-family="Arial, Helvetica, sans-serif" font-size="14" font-weight="600" fill="#C8443B" text-anchor="start">Sourcing (India 2026):  Processor &amp; MEMS IMU — import only  |  GPS — assembly only  |  PCB &amp; firmware — domestic capability</text>
<line x1="46.0" y1="762.0" x2="1554.0" y2="762.0" stroke="#D9D4C8" stroke-width="1" opacity="1"/>
<text x="46.0" y="784.0" font-family="Arial, Helvetica, sans-serif" font-size="11.5" font-weight="400" fill="#4A5567" text-anchor="start">Source: Techadyant Labs technical synthesis.  Techadyant Labs analysis.</text>
</svg>