<svg xmlns="http://www.w3.org/2000/svg" viewBox="0 0 1600 895" width="1600" height="895">
<rect x="0" y="0" width="1600" height="895" fill="#FBF9F4"/>
<text x="46.0" y="56.0" font-family="Arial, Helvetica, sans-serif" font-size="30" font-weight="700" fill="#0F1828" text-anchor="start">Strategic Vulnerability Index</text>
<text x="46.0" y="84.0" font-family="Arial, Helvetica, sans-serif" font-size="16" font-weight="400" fill="#4A5567" text-anchor="start">Control-stack layers ranked by exposure (0–100, higher = more exposed)</text>
<rect x="46.0" y="98.0" width="64.0" height="4.0" rx="0" fill="#C9A84C"/>
<text x="1554.0" y="40.0" font-family="Arial, Helvetica, sans-serif" font-size="12.5" font-weight="500" fill="#4A5567" text-anchor="end">Figure SVI · Techadyant Labs · 2026</text>
<text x="60.0" y="166.0" font-family="Arial, Helvetica, sans-serif" font-size="15" font-weight="600" fill="#0F1828" text-anchor="start">Flight-control processor (SoC)</text>
<rect x="430.0" y="144.0" width="940.0" height="34.0" rx="4" fill="#E8E5DD"/>
<rect x="430.0" y="144.0" width="921.2" height="34.0" rx="4" fill="#C8443B"/>
<text x="1363.2" y="168.0" font-family="'JetBrains Mono', 'Courier New', monospace" font-size="16" font-weight="700" fill="#0F1828" text-anchor="start">98</text>
<text x="1440.0" y="168.0" font-family="Arial, Helvetica, sans-serif" font-size="13.5" font-weight="700" fill="#C8443B" text-anchor="end">Critical</text>
<text x="60.0" y="226.0" font-family="Arial, Helvetica, sans-serif" font-size="15" font-weight="600" fill="#0F1828" text-anchor="start">MEMS inertial sensors (IMU)</text>
<rect x="430.0" y="204.0" width="940.0" height="34.0" rx="4" fill="#E8E5DD"/>
<rect x="430.0" y="204.0" width="864.8" height="34.0" rx="4" fill="#C8443B"/>
<text x="1306.8" y="228.0" font-family="'JetBrains Mono', 'Courier New', monospace" font-size="16" font-weight="700" fill="#0F1828" text-anchor="start">92</text>
<text x="1440.0" y="228.0" font-family="Arial, Helvetica, sans-serif" font-size="13.5" font-weight="700" fill="#C8443B" text-anchor="end">Critical</text>
<text x="60.0" y="286.0" font-family="Arial, Helvetica, sans-serif" font-size="15" font-weight="600" fill="#0F1828" text-anchor="start">EW resilience / anti-jam</text>
<rect x="430.0" y="264.0" width="940.0" height="34.0" rx="4" fill="#E8E5DD"/>
<rect x="430.0" y="264.0" width="827.2" height="34.0" rx="4" fill="#C8443B"/>
<text x="1269.2" y="288.0" font-family="'JetBrains Mono', 'Courier New', monospace" font-size="16" font-weight="700" fill="#0F1828" text-anchor="start">88</text>
<text x="1440.0" y="288.0" font-family="Arial, Helvetica, sans-serif" font-size="13.5" font-weight="700" fill="#C8443B" text-anchor="end">Critical</text>
<text x="60.0" y="346.0" font-family="Arial, Helvetica, sans-serif" font-size="15" font-weight="600" fill="#0F1828" text-anchor="start">Edge-AI compute hardware</text>
<rect x="430.0" y="324.0" width="940.0" height="34.0" rx="4" fill="#E8E5DD"/>
<rect x="430.0" y="324.0" width="827.2" height="34.0" rx="4" fill="#C8443B"/>
<text x="1269.2" y="348.0" font-family="'JetBrains Mono', 'Courier New', monospace" font-size="16" font-weight="700" fill="#0F1828" text-anchor="start">88</text>
<text x="1440.0" y="348.0" font-family="Arial, Helvetica, sans-serif" font-size="13.5" font-weight="700" fill="#C8443B" text-anchor="end">Critical</text>
<text x="60.0" y="406.0" font-family="Arial, Helvetica, sans-serif" font-size="15" font-weight="600" fill="#0F1828" text-anchor="start">GPS-denied navigation</text>
<rect x="430.0" y="384.0" width="940.0" height="34.0" rx="4" fill="#E8E5DD"/>
<rect x="430.0" y="384.0" width="780.2" height="34.0" rx="4" fill="#D86F62"/>
<text x="1222.2" y="408.0" font-family="'JetBrains Mono', 'Courier New', monospace" font-size="16" font-weight="700" fill="#0F1828" text-anchor="start">83</text>
<text x="1440.0" y="408.0" font-family="Arial, Helvetica, sans-serif" font-size="13.5" font-weight="700" fill="#D86F62" text-anchor="end">High</text>
<text x="60.0" y="466.0" font-family="Arial, Helvetica, sans-serif" font-size="15" font-weight="600" fill="#0F1828" text-anchor="start">Certification capacity</text>
<rect x="430.0" y="444.0" width="940.0" height="34.0" rx="4" fill="#E8E5DD"/>
<rect x="430.0" y="444.0" width="592.2" height="34.0" rx="4" fill="#C9A84C"/>
<text x="1034.2" y="468.0" font-family="'JetBrains Mono', 'Courier New', monospace" font-size="16" font-weight="700" fill="#0F1828" text-anchor="start">63</text>
<text x="1440.0" y="468.0" font-family="Arial, Helvetica, sans-serif" font-size="13.5" font-weight="700" fill="#C9A84C" text-anchor="end">Medium</text>
<text x="60.0" y="526.0" font-family="Arial, Helvetica, sans-serif" font-size="15" font-weight="600" fill="#0F1828" text-anchor="start">GNSS module</text>
<rect x="430.0" y="504.0" width="940.0" height="34.0" rx="4" fill="#E8E5DD"/>
<rect x="430.0" y="504.0" width="592.2" height="34.0" rx="4" fill="#C9A84C"/>
<text x="1034.2" y="528.0" font-family="'JetBrains Mono', 'Courier New', monospace" font-size="16" font-weight="700" fill="#0F1828" text-anchor="start">63</text>
<text x="1440.0" y="528.0" font-family="Arial, Helvetica, sans-serif" font-size="13.5" font-weight="700" fill="#C9A84C" text-anchor="end">Medium</text>
<text x="60.0" y="586.0" font-family="Arial, Helvetica, sans-serif" font-size="15" font-weight="600" fill="#0F1828" text-anchor="start">FC hardware assembly</text>
<rect x="430.0" y="564.0" width="940.0" height="34.0" rx="4" fill="#E8E5DD"/>
<rect x="430.0" y="564.0" width="592.2" height="34.0" rx="4" fill="#C9A84C"/>
<text x="1034.2" y="588.0" font-family="'JetBrains Mono', 'Courier New', monospace" font-size="16" font-weight="700" fill="#0F1828" text-anchor="start">63</text>
<text x="1440.0" y="588.0" font-family="Arial, Helvetica, sans-serif" font-size="13.5" font-weight="700" fill="#C9A84C" text-anchor="end">Medium</text>
<text x="60.0" y="646.0" font-family="Arial, Helvetica, sans-serif" font-size="15" font-weight="600" fill="#0F1828" text-anchor="start">AI mission software</text>
<rect x="430.0" y="624.0" width="940.0" height="34.0" rx="4" fill="#E8E5DD"/>
<rect x="430.0" y="624.0" width="545.2" height="34.0" rx="4" fill="#C9A84C"/>
<text x="987.2" y="648.0" font-family="'JetBrains Mono', 'Courier New', monospace" font-size="16" font-weight="700" fill="#0F1828" text-anchor="start">58</text>
<text x="1440.0" y="648.0" font-family="Arial, Helvetica, sans-serif" font-size="13.5" font-weight="700" fill="#C9A84C" text-anchor="end">Medium</text>
<text x="60.0" y="706.0" font-family="Arial, Helvetica, sans-serif" font-size="15" font-weight="600" fill="#0F1828" text-anchor="start">Firmware</text>
<rect x="430.0" y="684.0" width="940.0" height="34.0" rx="4" fill="#E8E5DD"/>
<rect x="430.0" y="684.0" width="470.0" height="34.0" rx="4" fill="#4A5567"/>
<text x="912.0" y="708.0" font-family="'JetBrains Mono', 'Courier New', monospace" font-size="16" font-weight="700" fill="#0F1828" text-anchor="start">50</text>
<text x="1440.0" y="708.0" font-family="Arial, Helvetica, sans-serif" font-size="13.5" font-weight="700" fill="#4A5567" text-anchor="end">Moderate</text>
<text x="60.0" y="766.0" font-family="Arial, Helvetica, sans-serif" font-size="15" font-weight="600" fill="#0F1828" text-anchor="start">PCB fabrication</text>
<rect x="430.0" y="744.0" width="940.0" height="34.0" rx="4" fill="#E8E5DD"/>
<rect x="430.0" y="744.0" width="329.0" height="34.0" rx="4" fill="#2BC5B4"/>
<text x="771.0" y="768.0" font-family="'JetBrains Mono', 'Courier New', monospace" font-size="16" font-weight="700" fill="#0F1828" text-anchor="start">35</text>
<text x="1440.0" y="768.0" font-family="Arial, Helvetica, sans-serif" font-size="13.5" font-weight="700" fill="#2BC5B4" text-anchor="end">Low</text>
<rect x="60.0" y="810.0" width="16.0" height="16.0" rx="0" fill="#C8443B"/>
<text x="82.0" y="823.0" font-family="Arial, Helvetica, sans-serif" font-size="13" font-weight="400" fill="#0F1828" text-anchor="start">Critical</text>
<rect x="230.0" y="810.0" width="16.0" height="16.0" rx="0" fill="#D86F62"/>
<text x="252.0" y="823.0" font-family="Arial, Helvetica, sans-serif" font-size="13" font-weight="400" fill="#0F1828" text-anchor="start">High</text>
<rect x="400.0" y="810.0" width="16.0" height="16.0" rx="0" fill="#C9A84C"/>
<text x="422.0" y="823.0" font-family="Arial, Helvetica, sans-serif" font-size="13" font-weight="400" fill="#0F1828" text-anchor="start">Medium</text>
<rect x="570.0" y="810.0" width="16.0" height="16.0" rx="0" fill="#4A5567"/>
<text x="592.0" y="823.0" font-family="Arial, Helvetica, sans-serif" font-size="13" font-weight="400" fill="#0F1828" text-anchor="start">Moderate</text>
<rect x="740.0" y="810.0" width="16.0" height="16.0" rx="0" fill="#2BC5B4"/>
<text x="762.0" y="823.0" font-family="Arial, Helvetica, sans-serif" font-size="13" font-weight="400" fill="#0F1828" text-anchor="start">Low</text>
<line x1="46.0" y1="855.0" x2="1554.0" y2="855.0" stroke="#D9D4C8" stroke-width="1" opacity="1"/>
<text x="46.0" y="877.0" font-family="Arial, Helvetica, sans-serif" font-size="11.5" font-weight="400" fill="#4A5567" text-anchor="start">Source: Import data, certification records, primary interviews  Techadyant Labs analysis.</text>
<text x="1554.0" y="877.0" font-family="Arial, Helvetica, sans-serif" font-size="11.5" font-weight="400" fill="#C9A84C" text-anchor="end" font-style="italic">Scores modelled</text>
</svg>