<svg xmlns="http://www.w3.org/2000/svg" viewBox="0 0 1600 818" width="1600" height="818">
<rect x="0" y="0" width="1600" height="818" fill="#FBF9F4"/>
<text x="46.0" y="56.0" font-family="Arial, Helvetica, sans-serif" font-size="30" font-weight="700" fill="#0F1828" text-anchor="start">Flight controller certification process (India)</text>
<text x="46.0" y="84.0" font-family="Arial, Helvetica, sans-serif" font-size="16" font-weight="400" fill="#4A5567" text-anchor="start">Three pathways by drone class</text>
<rect x="46.0" y="98.0" width="64.0" height="4.0" rx="0" fill="#C9A84C"/>
<text x="1554.0" y="40.0" font-family="Arial, Helvetica, sans-serif" font-size="12.5" font-weight="500" fill="#4A5567" text-anchor="end">Figure 4.3 · Techadyant Labs · 2026</text>
<text x="60.0" y="136.0" font-family="Arial, Helvetica, sans-serif" font-size="17" font-weight="700" fill="#0F1828" text-anchor="start">FOR COMMERCIAL DRONES (Small and above)</text>
<rect x="60.0" y="152.0" width="248.0" height="64.0" rx="8" fill="#FFFFFF" stroke="#2BC5B4" stroke-width="1.8"/>
<text x="74.0" y="190.0" font-family="Arial, Helvetica, sans-serif" font-size="14.5" font-weight="400" fill="#0F1828" text-anchor="start">Development</text>
<line x1="308.0" y1="184.0" x2="359.0" y2="184.0" stroke="#2BC5B4" stroke-width="2.4" opacity="1"/>
<polygon points="366.0,184.0 356.0,179.0 356.0,189.0" fill="#2BC5B4" opacity="1"/>
<rect x="368.0" y="152.0" width="248.0" height="64.0" rx="8" fill="#FFFFFF" stroke="#2BC5B4" stroke-width="1.8"/>
<text x="382.0" y="180.0" font-family="Arial, Helvetica, sans-serif" font-size="14.5" font-weight="400" fill="#0F1828" text-anchor="start">Type Certification</text>
<text x="382.0" y="198.0" font-family="Arial, Helvetica, sans-serif" font-size="14.5" font-weight="400" fill="#0F1828" text-anchor="start">Application</text>
<line x1="616.0" y1="184.0" x2="667.0" y2="184.0" stroke="#2BC5B4" stroke-width="2.4" opacity="1"/>
<polygon points="674.0,184.0 664.0,179.0 664.0,189.0" fill="#2BC5B4" opacity="1"/>
<rect x="676.0" y="152.0" width="248.0" height="64.0" rx="8" fill="#FFFFFF" stroke="#2BC5B4" stroke-width="1.8"/>
<text x="690.0" y="190.0" font-family="Arial, Helvetica, sans-serif" font-size="14.5" font-weight="400" fill="#0F1828" text-anchor="start">DGCA Review</text>
<line x1="924.0" y1="184.0" x2="975.0" y2="184.0" stroke="#2BC5B4" stroke-width="2.4" opacity="1"/>
<polygon points="982.0,184.0 972.0,179.0 972.0,189.0" fill="#2BC5B4" opacity="1"/>
<rect x="984.0" y="152.0" width="248.0" height="64.0" rx="8" fill="#FFFFFF" stroke="#2BC5B4" stroke-width="1.8"/>
<text x="998.0" y="190.0" font-family="Arial, Helvetica, sans-serif" font-size="14.5" font-weight="400" fill="#0F1828" text-anchor="start">Flight Tests</text>
<line x1="1232.0" y1="184.0" x2="1283.0" y2="184.0" stroke="#2BC5B4" stroke-width="2.4" opacity="1"/>
<polygon points="1290.0,184.0 1280.0,179.0 1280.0,189.0" fill="#2BC5B4" opacity="1"/>
<rect x="1292.0" y="152.0" width="248.0" height="64.0" rx="8" fill="#FFFFFF" stroke="#2BC5B4" stroke-width="1.8"/>
<text x="1306.0" y="190.0" font-family="Arial, Helvetica, sans-serif" font-size="14.5" font-weight="400" fill="#0F1828" text-anchor="start">Certified</text>
<text x="60.0" y="244.0" font-family="Arial, Helvetica, sans-serif" font-size="13.5" font-weight="400" fill="#4A5567" text-anchor="start" font-style="italic">Timeline: 6–12 months   |   Cost: USD 50,000–150,000 (complete drone)</text>
<text x="60.0" y="306.0" font-family="Arial, Helvetica, sans-serif" font-size="17" font-weight="700" fill="#0F1828" text-anchor="start">FOR GOVERNMENT / DEFENCE TENDERS</text>
<rect x="60.0" y="322.0" width="250.0" height="64.0" rx="8" fill="#FFFFFF" stroke="#C9A84C" stroke-width="1.8"/>
<text x="74.0" y="360.0" font-family="Arial, Helvetica, sans-serif" font-size="14.5" font-weight="400" fill="#0F1828" text-anchor="start">Development</text>
<line x1="310.0" y1="354.0" x2="361.0" y2="354.0" stroke="#C9A84C" stroke-width="2.4" opacity="1"/>
<polygon points="368.0,354.0 358.0,349.0 358.0,359.0" fill="#C9A84C" opacity="1"/>
<rect x="370.0" y="322.0" width="250.0" height="64.0" rx="8" fill="#FFFFFF" stroke="#C9A84C" stroke-width="1.8"/>
<text x="384.0" y="350.0" font-family="Arial, Helvetica, sans-serif" font-size="14.5" font-weight="400" fill="#0F1828" text-anchor="start">STQC Certification</text>
<text x="384.0" y="368.0" font-family="Arial, Helvetica, sans-serif" font-size="14.5" font-weight="400" fill="#0F1828" text-anchor="start">(optional)</text>
<line x1="620.0" y1="354.0" x2="671.0" y2="354.0" stroke="#C9A84C" stroke-width="2.4" opacity="1"/>
<polygon points="678.0,354.0 668.0,349.0 668.0,359.0" fill="#C9A84C" opacity="1"/>
<rect x="680.0" y="322.0" width="250.0" height="64.0" rx="8" fill="#FFFFFF" stroke="#C9A84C" stroke-width="1.8"/>
<text x="694.0" y="350.0" font-family="Arial, Helvetica, sans-serif" font-size="14.5" font-weight="400" fill="#0F1828" text-anchor="start">Army 515 WS Validation</text>
<text x="694.0" y="368.0" font-family="Arial, Helvetica, sans-serif" font-size="14.5" font-weight="400" fill="#0F1828" text-anchor="start">(if MoU)</text>
<line x1="930.0" y1="354.0" x2="981.0" y2="354.0" stroke="#C9A84C" stroke-width="2.4" opacity="1"/>
<polygon points="988.0,354.0 978.0,349.0 978.0,359.0" fill="#C9A84C" opacity="1"/>
<rect x="990.0" y="322.0" width="250.0" height="64.0" rx="8" fill="#FFFFFF" stroke="#C9A84C" stroke-width="1.8"/>
<text x="1004.0" y="360.0" font-family="Arial, Helvetica, sans-serif" font-size="14.5" font-weight="400" fill="#0F1828" text-anchor="start">Defence Procurement</text>
<text x="60.0" y="414.0" font-family="Arial, Helvetica, sans-serif" font-size="13.5" font-weight="400" fill="#4A5567" text-anchor="start" font-style="italic">Timeline: 2–5 years</text>
<text x="60.0" y="476.0" font-family="Arial, Helvetica, sans-serif" font-size="17" font-weight="700" fill="#0F1828" text-anchor="start">FOR OPEN-SOURCE / HOBBYIST (non-commercial)</text>
<rect x="60.0" y="492.0" width="360.0" height="64.0" rx="8" fill="#FFFFFF" stroke="#4A5567" stroke-width="1.8"/>
<text x="74.0" y="520.0" font-family="Arial, Helvetica, sans-serif" font-size="14.5" font-weight="400" fill="#0F1828" text-anchor="start">No certification</text>
<text x="74.0" y="538.0" font-family="Arial, Helvetica, sans-serif" font-size="14.5" font-weight="400" fill="#0F1828" text-anchor="start">required</text>
<text x="60.0" y="584.0" font-family="Arial, Helvetica, sans-serif" font-size="13.5" font-weight="400" fill="#4A5567" text-anchor="start" font-style="italic">Cannot be used for commercial operations</text>
<rect x="46.0" y="632.0" width="1508.0" height="118.0" rx="8" fill="#E8E5DD" stroke="#C8443B" stroke-width="1.4"/>
<text x="66.0" y="662.0" font-family="Arial, Helvetica, sans-serif" font-size="15" font-weight="700" fill="#C8443B" text-anchor="start">BARRIERS TO ENTRY FOR INDIGENOUS FC MANUFACTURERS</text>
<circle cx="60.0" cy="683.0" r="3.0" fill="#C8443B" opacity="1"/>
<text x="72.0" y="688.0" font-family="Arial, Helvetica, sans-serif" font-size="13" font-weight="400" fill="#0F1828" text-anchor="start">DGCA Type Certification is expensive (USD 50k–150k) — a major barrier for startups</text>
<circle cx="60.0" cy="713.0" r="3.0" fill="#C8443B" opacity="1"/>
<text x="72.0" y="718.0" font-family="Arial, Helvetica, sans-serif" font-size="13" font-weight="400" fill="#0F1828" text-anchor="start">Certification is for the complete drone, not a standalone FC — indigenous FCs must partner with OEMs</text>
<circle cx="794.0" cy="683.0" r="3.0" fill="#C8443B" opacity="1"/>
<text x="806.0" y="688.0" font-family="Arial, Helvetica, sans-serif" font-size="13" font-weight="400" fill="#0F1828" text-anchor="start">Defence procurement cycles are long (2–5 years) — startups need patient capital</text>
<circle cx="794.0" cy="713.0" r="3.0" fill="#C8443B" opacity="1"/>
<text x="806.0" y="718.0" font-family="Arial, Helvetica, sans-serif" font-size="13" font-weight="400" fill="#0F1828" text-anchor="start">Army 515 WS MoUs are selective — only a few startups benefit</text>
<line x1="46.0" y1="778.0" x2="1554.0" y2="778.0" stroke="#D9D4C8" stroke-width="1" opacity="1"/>
<text x="46.0" y="800.0" font-family="Arial, Helvetica, sans-serif" font-size="11.5" font-weight="400" fill="#4A5567" text-anchor="start">Source: DGCA; STQC; Techadyant Labs analysis.  Techadyant Labs analysis.</text>
</svg>