<svg xmlns="http://www.w3.org/2000/svg" viewBox="0 0 1600 860" width="1600" height="860">
<rect x="0" y="0" width="1600" height="860" fill="#FBF9F4"/>
<text x="46.0" y="56.0" font-family="Arial, Helvetica, sans-serif" font-size="30" font-weight="700" fill="#0F1828" text-anchor="start">Tsalla &#x27;AI Pilot&#x27; — technical architecture (inferred)</text>
<text x="46.0" y="84.0" font-family="Arial, Helvetica, sans-serif" font-size="16" font-weight="400" fill="#4A5567" text-anchor="start">Hardware-agnostic, edge-AI, GPS-denied autonomy</text>
<rect x="46.0" y="98.0" width="64.0" height="4.0" rx="0" fill="#C9A84C"/>
<text x="1554.0" y="40.0" font-family="Arial, Helvetica, sans-serif" font-size="12.5" font-weight="500" fill="#4A5567" text-anchor="end">Figure 5.2 · Techadyant Labs · 2026</text>
<text x="800.0" y="124.0" font-family="Arial, Helvetica, sans-serif" font-size="14" font-weight="700" fill="#4A5567" text-anchor="middle">SENSOR INPUTS</text>
<rect x="344.0" y="134.0" width="210.0" height="56.0" rx="8" fill="#FFFFFF" stroke="#2BC5B4" stroke-width="1.6"/>
<text x="449.0" y="168.0" font-family="Arial, Helvetica, sans-serif" font-size="14.5" font-weight="600" fill="#0F1828" text-anchor="middle">Stereo Cameras</text>
<rect x="578.0" y="134.0" width="210.0" height="56.0" rx="8" fill="#FFFFFF" stroke="#2BC5B4" stroke-width="1.6"/>
<text x="683.0" y="168.0" font-family="Arial, Helvetica, sans-serif" font-size="14.5" font-weight="600" fill="#0F1828" text-anchor="middle">IMU (Accel+Gyro)</text>
<rect x="812.0" y="134.0" width="210.0" height="56.0" rx="8" fill="#FFFFFF" stroke="#2BC5B4" stroke-width="1.6"/>
<text x="917.0" y="168.0" font-family="Arial, Helvetica, sans-serif" font-size="14.5" font-weight="600" fill="#0F1828" text-anchor="middle">GPS (if available)</text>
<rect x="1046.0" y="134.0" width="210.0" height="56.0" rx="8" fill="#FFFFFF" stroke="#2BC5B4" stroke-width="1.6"/>
<text x="1151.0" y="168.0" font-family="Arial, Helvetica, sans-serif" font-size="14.5" font-weight="600" fill="#0F1828" text-anchor="middle">Baro (Altitude)</text>
<line x1="800.0" y1="190.0" x2="800.0" y2="219.0" stroke="#4A5567" stroke-width="2.2" opacity="1"/>
<polygon points="800.0,226.0 795.0,216.0 805.0,216.0" fill="#4A5567" opacity="1"/>
<rect x="350.0" y="226.0" width="900.0" height="52.0" rx="8" fill="#0F1828"/>
<text x="800.0" y="252.0" font-family="Arial, Helvetica, sans-serif" font-size="18" font-weight="700" fill="#FFFFFF" text-anchor="middle">EDGE AI PROCESSOR (NVIDIA Jetson class)</text>
<line x1="800.0" y1="278.0" x2="800.0" y2="306.0" stroke="#4A5567" stroke-width="2" opacity="1"/>
<line x1="460.0" y1="306.0" x2="1140.0" y2="306.0" stroke="#4A5567" stroke-width="2" opacity="1"/>
<line x1="460.0" y1="306.0" x2="460.0" y2="313.0" stroke="#4A5567" stroke-width="2" opacity="1"/>
<polygon points="460.0,320.0 455.0,310.0 465.0,310.0" fill="#4A5567" opacity="1"/>
<rect x="320.0" y="320.0" width="280.0" height="72.0" rx="8" fill="#FFFFFF" stroke="#2BC5B4" stroke-width="1.6"/>
<text x="460.0" y="352.0" font-family="Arial, Helvetica, sans-serif" font-size="15" font-weight="700" fill="#0F1828" text-anchor="middle">Computer Vision</text>
<text x="460.0" y="374.0" font-family="Arial, Helvetica, sans-serif" font-size="13" font-weight="400" fill="#4A5567" text-anchor="middle">(object detection)</text>
<line x1="460.0" y1="392.0" x2="460.0" y2="416.0" stroke="#4A5567" stroke-width="1.6" opacity="1"/>
<line x1="800.0" y1="306.0" x2="800.0" y2="313.0" stroke="#4A5567" stroke-width="2" opacity="1"/>
<polygon points="800.0,320.0 795.0,310.0 805.0,310.0" fill="#4A5567" opacity="1"/>
<rect x="660.0" y="320.0" width="280.0" height="72.0" rx="8" fill="#FFFFFF" stroke="#2BC5B4" stroke-width="1.6"/>
<text x="800.0" y="352.0" font-family="Arial, Helvetica, sans-serif" font-size="15" font-weight="700" fill="#0F1828" text-anchor="middle">Visual-Inertial</text>
<text x="800.0" y="374.0" font-family="Arial, Helvetica, sans-serif" font-size="13" font-weight="400" fill="#4A5567" text-anchor="middle">Odometry</text>
<line x1="800.0" y1="392.0" x2="800.0" y2="416.0" stroke="#4A5567" stroke-width="1.6" opacity="1"/>
<line x1="1140.0" y1="306.0" x2="1140.0" y2="313.0" stroke="#4A5567" stroke-width="2" opacity="1"/>
<polygon points="1140.0,320.0 1135.0,310.0 1145.0,310.0" fill="#4A5567" opacity="1"/>
<rect x="1000.0" y="320.0" width="280.0" height="72.0" rx="8" fill="#FFFFFF" stroke="#2BC5B4" stroke-width="1.6"/>
<text x="1140.0" y="352.0" font-family="Arial, Helvetica, sans-serif" font-size="15" font-weight="700" fill="#0F1828" text-anchor="middle">Mission Planning</text>
<text x="1140.0" y="374.0" font-family="Arial, Helvetica, sans-serif" font-size="13" font-weight="400" fill="#4A5567" text-anchor="middle">&amp; Replanning</text>
<line x1="1140.0" y1="392.0" x2="1140.0" y2="416.0" stroke="#4A5567" stroke-width="1.6" opacity="1"/>
<line x1="460.0" y1="416.0" x2="1140.0" y2="416.0" stroke="#4A5567" stroke-width="1.6" opacity="1"/>
<line x1="800.0" y1="416.0" x2="800.0" y2="439.0" stroke="#4A5567" stroke-width="2.2" opacity="1"/>
<polygon points="800.0,446.0 795.0,436.0 805.0,436.0" fill="#4A5567" opacity="1"/>
<rect x="350.0" y="446.0" width="900.0" height="88.0" rx="8" fill="#C9A84C"/>
<text x="800.0" y="484.0" font-family="Arial, Helvetica, sans-serif" font-size="18" font-weight="700" fill="#0F1828" text-anchor="middle">AI PILOT CORE (decision engine)</text>
<text x="800.0" y="508.0" font-family="Arial, Helvetica, sans-serif" font-size="13" font-weight="400" fill="#0F1828" text-anchor="middle">State estimation (VIO when GPS-denied) · obstacle mapping · mission execution · &#x27;zero operator cognitive load&#x27;</text>
<line x1="800.0" y1="534.0" x2="800.0" y2="557.0" stroke="#4A5567" stroke-width="2.2" opacity="1"/>
<polygon points="800.0,564.0 795.0,554.0 805.0,554.0" fill="#4A5567" opacity="1"/>
<rect x="350.0" y="564.0" width="900.0" height="64.0" rx="8" fill="#4A5567"/>
<text x="800.0" y="590.0" font-family="Arial, Helvetica, sans-serif" font-size="18" font-weight="700" fill="#FFFFFF" text-anchor="middle">FLIGHT CONTROLLER INTERFACE (hardware-agnostic)</text>
<text x="800.0" y="614.0" font-family="Arial, Helvetica, sans-serif" font-size="13" font-weight="400" fill="#FFFFFF" text-anchor="middle">Works with Pixhawk, Zuppa, ideaForge and other FCs</text>
<line x1="800.0" y1="628.0" x2="800.0" y2="651.0" stroke="#4A5567" stroke-width="2.2" opacity="1"/>
<polygon points="800.0,658.0 795.0,648.0 805.0,648.0" fill="#4A5567" opacity="1"/>
<rect x="350.0" y="658.0" width="900.0" height="48.0" rx="8" fill="#2BC5B4"/>
<text x="800.0" y="682.0" font-family="Arial, Helvetica, sans-serif" font-size="18" font-weight="700" fill="#0F1828" text-anchor="middle">DRONE PLATFORM (any)</text>
<rect x="46.0" y="720.0" width="1508.0" height="72.0" rx="8" fill="#E8E5DD" stroke="#D9D4C8" stroke-width="1.2"/>
<text x="66.0" y="748.0" font-family="Arial, Helvetica, sans-serif" font-size="14" font-weight="700" fill="#0F1828" text-anchor="start">KEY DIFFERENTIATORS</text>
<text x="66.0" y="774.0" font-family="Arial, Helvetica, sans-serif" font-size="14" font-weight="400" fill="#4A5567" text-anchor="start">Hardware-agnostic  ·  GPS/comms-denied operation (defence)  ·  zero operator cognitive load  ·  edge AI (no cloud dependence)</text>
<line x1="46.0" y1="820.0" x2="1554.0" y2="820.0" stroke="#D9D4C8" stroke-width="1" opacity="1"/>
<text x="46.0" y="842.0" font-family="Arial, Helvetica, sans-serif" font-size="11.5" font-weight="400" fill="#4A5567" text-anchor="start">Source: Company materials; Techadyant Labs technical inference.  Techadyant Labs analysis.</text>
<text x="1554.0" y="842.0" font-family="Arial, Helvetica, sans-serif" font-size="11.5" font-weight="400" fill="#C9A84C" text-anchor="end" font-style="italic">Inferred architecture</text>
</svg>