<svg xmlns="http://www.w3.org/2000/svg" viewBox="0 0 1600 860" width="1600" height="860">
<rect x="0" y="0" width="1600" height="860" fill="#FBF9F4"/>
<text x="46.0" y="56.0" font-family="Arial, Helvetica, sans-serif" font-size="30" font-weight="700" fill="#0F1828" text-anchor="start">Import Vulnerability Matrix</text>
<text x="46.0" y="84.0" font-family="Arial, Helvetica, sans-serif" font-size="16" font-weight="400" fill="#4A5567" text-anchor="start">Dependence versus strategic importance — posture by quadrant</text>
<rect x="46.0" y="98.0" width="64.0" height="4.0" rx="0" fill="#C9A84C"/>
<text x="1554.0" y="40.0" font-family="Arial, Helvetica, sans-serif" font-size="12.5" font-weight="500" fill="#4A5567" text-anchor="end">Figure IVM · Techadyant Labs · 2026</text>
<rect x="320.0" y="150.0" width="575.0" height="290.0" rx="0" fill="#C8443B" opacity="0.05"/>
<rect x="895.0" y="150.0" width="575.0" height="290.0" rx="0" fill="#C8443B" opacity="0.11"/>
<rect x="320.0" y="440.0" width="575.0" height="290.0" rx="0" fill="#E8E5DD" opacity="0.35"/>
<rect x="895.0" y="440.0" width="575.0" height="290.0" rx="0" fill="#C9A84C" opacity="0.1"/>
<rect x="320.0" y="150.0" width="1150.0" height="580.0" rx="0" fill="none" stroke="#4A5567" stroke-width="1.6"/>
<line x1="895.0" y1="150.0" x2="895.0" y2="730.0" stroke="#4A5567" stroke-width="1.2" opacity="1"/>
<line x1="320.0" y1="440.0" x2="1470.0" y2="440.0" stroke="#4A5567" stroke-width="1.2" opacity="1"/>
<text x="300.0" y="140.0" font-family="Arial, Helvetica, sans-serif" font-size="14" font-weight="700" fill="#0F1828" text-anchor="start">Strategic importance</text>
<line x1="286.0" y1="730.0" x2="286.0" y2="131.0" stroke="#4A5567" stroke-width="2" opacity="1"/>
<polygon points="286.0,138.0 281.0,128.0 291.0,128.0" fill="#4A5567" opacity="1"/>
<line x1="320.0" y1="764.0" x2="1475.0" y2="764.0" stroke="#4A5567" stroke-width="2" opacity="1"/>
<polygon points="1482.0,764.0 1472.0,759.0 1472.0,769.0" fill="#4A5567" opacity="1"/>
<text x="1470.0" y="788.0" font-family="Arial, Helvetica, sans-serif" font-size="14" font-weight="700" fill="#0F1828" text-anchor="end">Import dependence →</text>
<text x="1450.0" y="174.0" font-family="Arial, Helvetica, sans-serif" font-size="14" font-weight="700" fill="#C8443B" text-anchor="end">NATIONAL PRIORITY</text>
<text x="340.0" y="174.0" font-family="Arial, Helvetica, sans-serif" font-size="14" font-weight="700" fill="#9c7f2e" text-anchor="start">ACCELERATE</text>
<text x="1450.0" y="714.0" font-family="Arial, Helvetica, sans-serif" font-size="14" font-weight="700" fill="#4A5567" text-anchor="end">ASSEMBLY-LOCALISE</text>
<text x="340.0" y="714.0" font-family="Arial, Helvetica, sans-serif" font-size="14" font-weight="700" fill="#4A5567" text-anchor="start">LEAVE TO MARKET</text>
<circle cx="1470.0" cy="179.0" r="7.0" fill="#C8443B" opacity="1"/>
<text x="1458.0" y="197.0" font-family="Arial, Helvetica, sans-serif" font-size="12.5" font-weight="600" fill="#0F1828" text-anchor="end">Processor</text>
<circle cx="1470.0" cy="237.0" r="7.0" fill="#C8443B" opacity="1"/>
<text x="1458.0" y="227.0" font-family="Arial, Helvetica, sans-serif" font-size="12.5" font-weight="600" fill="#0F1828" text-anchor="end">MEMS IMU</text>
<circle cx="1412.5" cy="266.0" r="7.0" fill="#C8443B" opacity="1"/>
<text x="1400.5" y="286.0" font-family="Arial, Helvetica, sans-serif" font-size="12.5" font-weight="600" fill="#0F1828" text-anchor="end">Edge-AI HW</text>
<circle cx="1240.0" cy="179.0" r="7.0" fill="#C8443B" opacity="1"/>
<text x="1252.0" y="183.0" font-family="Arial, Helvetica, sans-serif" font-size="12.5" font-weight="600" fill="#0F1828" text-anchor="start">EW/anti-jam</text>
<circle cx="1182.5" cy="208.0" r="7.0" fill="#C8443B" opacity="1"/>
<text x="1194.5" y="212.0" font-family="Arial, Helvetica, sans-serif" font-size="12.5" font-weight="600" fill="#0F1828" text-anchor="start">GPS-denied nav</text>
<circle cx="1125.0" cy="411.0" r="7.0" fill="#0F1828" opacity="1"/>
<text x="1137.0" y="415.0" font-family="Arial, Helvetica, sans-serif" font-size="12.5" font-weight="600" fill="#0F1828" text-anchor="start">GNSS module</text>
<circle cx="1010.0" cy="353.0" r="7.0" fill="#0F1828" opacity="1"/>
<text x="1022.0" y="357.0" font-family="Arial, Helvetica, sans-serif" font-size="12.5" font-weight="600" fill="#0F1828" text-anchor="start">FC assembly</text>
<circle cx="895.0" cy="295.0" r="7.0" fill="#0F1828" opacity="1"/>
<text x="907.0" y="299.0" font-family="Arial, Helvetica, sans-serif" font-size="12.5" font-weight="600" fill="#0F1828" text-anchor="start">Cert. capacity</text>
<circle cx="722.5" cy="266.0" r="7.0" fill="#0F1828" opacity="1"/>
<text x="734.5" y="270.0" font-family="Arial, Helvetica, sans-serif" font-size="12.5" font-weight="600" fill="#0F1828" text-anchor="start">AI software</text>
<circle cx="665.0" cy="324.0" r="7.0" fill="#0F1828" opacity="1"/>
<text x="677.0" y="328.0" font-family="Arial, Helvetica, sans-serif" font-size="12.5" font-weight="600" fill="#0F1828" text-anchor="start">Firmware</text>
<circle cx="665.0" cy="498.0" r="7.0" fill="#0F1828" opacity="1"/>
<text x="677.0" y="502.0" font-family="Arial, Helvetica, sans-serif" font-size="12.5" font-weight="600" fill="#0F1828" text-anchor="start">PCB fab</text>
<line x1="46.0" y1="820.0" x2="1554.0" y2="820.0" stroke="#D9D4C8" stroke-width="1" opacity="1"/>
<text x="46.0" y="842.0" font-family="Arial, Helvetica, sans-serif" font-size="11.5" font-weight="400" fill="#4A5567" text-anchor="start">Source: Component import data; primary interviews.  Techadyant Labs analysis.</text>
<text x="1554.0" y="842.0" font-family="Arial, Helvetica, sans-serif" font-size="11.5" font-weight="400" fill="#C9A84C" text-anchor="end" font-style="italic">Positions modelled</text>
</svg>