<svg xmlns="http://www.w3.org/2000/svg" viewBox="0 0 1600 932" width="1600" height="932">
<rect x="0" y="0" width="1600" height="932" fill="#FBF9F4"/>
<text x="46.0" y="56.0" font-family="Arial, Helvetica, sans-serif" font-size="30" font-weight="700" fill="#0F1828" text-anchor="start">Defence vs. commercial autonomy — requirements</text>
<text x="46.0" y="84.0" font-family="Arial, Helvetica, sans-serif" font-size="16" font-weight="400" fill="#4A5567" text-anchor="start">Relative intensity across seven dimensions (1–5)</text>
<rect x="46.0" y="98.0" width="64.0" height="4.0" rx="0" fill="#C9A84C"/>
<text x="1554.0" y="40.0" font-family="Arial, Helvetica, sans-serif" font-size="12.5" font-weight="500" fill="#4A5567" text-anchor="end">Figure 10.1 · Techadyant Labs · 2026</text>
<text x="420.0" y="128.0" font-family="Arial, Helvetica, sans-serif" font-size="15" font-weight="700" fill="#0F1828" text-anchor="middle">DEFENCE</text>
<text x="980.0" y="128.0" font-family="Arial, Helvetica, sans-serif" font-size="15" font-weight="700" fill="#0F1828" text-anchor="middle">COMMERCIAL</text>
<text x="60.0" y="180.0" font-family="Arial, Helvetica, sans-serif" font-size="15" font-weight="600" fill="#0F1828" text-anchor="start">Performance</text>
<rect x="220.0" y="150.0" width="400.0" height="40.0" rx="4" fill="#E8E5DD"/>
<rect x="220.0" y="150.0" width="400.0" height="40.0" rx="4" fill="#C9A84C"/>
<text x="630.0" y="177.0" font-family="'JetBrains Mono', 'Courier New', monospace" font-size="14" font-weight="700" fill="#0F1828" text-anchor="start">5</text>
<rect x="760.0" y="150.0" width="400.0" height="40.0" rx="4" fill="#E8E5DD"/>
<rect x="760.0" y="150.0" width="400.0" height="40.0" rx="4" fill="#2BC5B4"/>
<text x="1170.0" y="177.0" font-family="'JetBrains Mono', 'Courier New', monospace" font-size="14" font-weight="700" fill="#0F1828" text-anchor="start">5</text>
<text x="60.0" y="272.0" font-family="Arial, Helvetica, sans-serif" font-size="15" font-weight="600" fill="#0F1828" text-anchor="start">EW resilience</text>
<rect x="220.0" y="242.0" width="400.0" height="40.0" rx="4" fill="#E8E5DD"/>
<rect x="220.0" y="242.0" width="400.0" height="40.0" rx="4" fill="#C9A84C"/>
<text x="630.0" y="269.0" font-family="'JetBrains Mono', 'Courier New', monospace" font-size="14" font-weight="700" fill="#0F1828" text-anchor="start">5</text>
<rect x="760.0" y="242.0" width="400.0" height="40.0" rx="4" fill="#E8E5DD"/>
<rect x="760.0" y="242.0" width="120.0" height="40.0" rx="4" fill="#2BC5B4"/>
<text x="890.0" y="269.0" font-family="'JetBrains Mono', 'Courier New', monospace" font-size="14" font-weight="700" fill="#0F1828" text-anchor="start">1.5</text>
<text x="60.0" y="364.0" font-family="Arial, Helvetica, sans-serif" font-size="15" font-weight="600" fill="#0F1828" text-anchor="start">GPS-denied navigation</text>
<rect x="220.0" y="334.0" width="400.0" height="40.0" rx="4" fill="#E8E5DD"/>
<rect x="220.0" y="334.0" width="400.0" height="40.0" rx="4" fill="#C9A84C"/>
<text x="630.0" y="361.0" font-family="'JetBrains Mono', 'Courier New', monospace" font-size="14" font-weight="700" fill="#0F1828" text-anchor="start">5</text>
<rect x="760.0" y="334.0" width="400.0" height="40.0" rx="4" fill="#E8E5DD"/>
<rect x="760.0" y="334.0" width="120.0" height="40.0" rx="4" fill="#2BC5B4"/>
<text x="890.0" y="361.0" font-family="'JetBrains Mono', 'Courier New', monospace" font-size="14" font-weight="700" fill="#0F1828" text-anchor="start">1.5</text>
<text x="60.0" y="456.0" font-family="Arial, Helvetica, sans-serif" font-size="15" font-weight="600" fill="#0F1828" text-anchor="start">Cost sensitivity</text>
<rect x="220.0" y="426.0" width="400.0" height="40.0" rx="4" fill="#E8E5DD"/>
<rect x="220.0" y="426.0" width="80.0" height="40.0" rx="4" fill="#C9A84C"/>
<text x="310.0" y="453.0" font-family="'JetBrains Mono', 'Courier New', monospace" font-size="14" font-weight="700" fill="#0F1828" text-anchor="start">1</text>
<rect x="760.0" y="426.0" width="400.0" height="40.0" rx="4" fill="#E8E5DD"/>
<rect x="760.0" y="426.0" width="400.0" height="40.0" rx="4" fill="#2BC5B4"/>
<text x="1170.0" y="453.0" font-family="'JetBrains Mono', 'Courier New', monospace" font-size="14" font-weight="700" fill="#0F1828" text-anchor="start">5</text>
<text x="60.0" y="548.0" font-family="Arial, Helvetica, sans-serif" font-size="15" font-weight="600" fill="#0F1828" text-anchor="start">Open-source usage</text>
<rect x="220.0" y="518.0" width="400.0" height="40.0" rx="4" fill="#E8E5DD"/>
<rect x="220.0" y="518.0" width="80.0" height="40.0" rx="4" fill="#C9A84C"/>
<text x="310.0" y="545.0" font-family="'JetBrains Mono', 'Courier New', monospace" font-size="14" font-weight="700" fill="#0F1828" text-anchor="start">1</text>
<rect x="760.0" y="518.0" width="400.0" height="40.0" rx="4" fill="#E8E5DD"/>
<rect x="760.0" y="518.0" width="400.0" height="40.0" rx="4" fill="#2BC5B4"/>
<text x="1170.0" y="545.0" font-family="'JetBrains Mono', 'Courier New', monospace" font-size="14" font-weight="700" fill="#0F1828" text-anchor="start">5</text>
<text x="60.0" y="640.0" font-family="Arial, Helvetica, sans-serif" font-size="15" font-weight="600" fill="#0F1828" text-anchor="start">Certification stringency</text>
<rect x="220.0" y="610.0" width="400.0" height="40.0" rx="4" fill="#E8E5DD"/>
<rect x="220.0" y="610.0" width="400.0" height="40.0" rx="4" fill="#C9A84C"/>
<text x="630.0" y="637.0" font-family="'JetBrains Mono', 'Courier New', monospace" font-size="14" font-weight="700" fill="#0F1828" text-anchor="start">5</text>
<rect x="760.0" y="610.0" width="400.0" height="40.0" rx="4" fill="#E8E5DD"/>
<rect x="760.0" y="610.0" width="320.0" height="40.0" rx="4" fill="#2BC5B4"/>
<text x="1090.0" y="637.0" font-family="'JetBrains Mono', 'Courier New', monospace" font-size="14" font-weight="700" fill="#0F1828" text-anchor="start">4</text>
<text x="60.0" y="732.0" font-family="Arial, Helvetica, sans-serif" font-size="15" font-weight="600" fill="#0F1828" text-anchor="start">ASP (price level)</text>
<rect x="220.0" y="702.0" width="400.0" height="40.0" rx="4" fill="#E8E5DD"/>
<rect x="220.0" y="702.0" width="400.0" height="40.0" rx="4" fill="#C9A84C"/>
<text x="630.0" y="729.0" font-family="'JetBrains Mono', 'Courier New', monospace" font-size="14" font-weight="700" fill="#0F1828" text-anchor="start">5</text>
<rect x="760.0" y="702.0" width="400.0" height="40.0" rx="4" fill="#E8E5DD"/>
<rect x="760.0" y="702.0" width="120.0" height="40.0" rx="4" fill="#2BC5B4"/>
<text x="890.0" y="729.0" font-family="'JetBrains Mono', 'Courier New', monospace" font-size="14" font-weight="700" fill="#0F1828" text-anchor="start">1.5</text>
<rect x="46.0" y="798.0" width="1508.0" height="66.0" rx="8" fill="#0F1828"/>
<text x="66.0" y="824.0" font-family="Arial, Helvetica, sans-serif" font-size="14" font-weight="700" fill="#C9A84C" text-anchor="start">IMPLICATIONS:</text>
<text x="66.0" y="848.0" font-family="Arial, Helvetica, sans-serif" font-size="13.5" font-weight="400" fill="#E8E5DD" text-anchor="start">Defence needs ruggedised, EW-resilient, high-ASP systems; commercial needs cost-optimised, open-source-compatible. Dual-use: GPS-denied nav &amp; sense-and-avoid serve both.</text>
<rect x="60.0" y="118.0" width="16.0" height="16.0" rx="0" fill="#C9A84C"/>
<text x="82.0" y="131.0" font-family="Arial, Helvetica, sans-serif" font-size="13" font-weight="400" fill="#0F1828" text-anchor="start">Defence</text>
<rect x="180.0" y="118.0" width="16.0" height="16.0" rx="0" fill="#2BC5B4"/>
<text x="202.0" y="131.0" font-family="Arial, Helvetica, sans-serif" font-size="13" font-weight="400" fill="#0F1828" text-anchor="start">Commercial</text>
<line x1="46.0" y1="892.0" x2="1554.0" y2="892.0" stroke="#D9D4C8" stroke-width="1" opacity="1"/>
<text x="46.0" y="914.0" font-family="Arial, Helvetica, sans-serif" font-size="11.5" font-weight="400" fill="#4A5567" text-anchor="start">Source: Defence and commercial procurement norms.  Techadyant Labs analysis.</text>
<text x="1554.0" y="914.0" font-family="Arial, Helvetica, sans-serif" font-size="11.5" font-weight="400" fill="#C9A84C" text-anchor="end" font-style="italic">Indicative 1–5 scale</text>
</svg>