<?xml version="1.0" encoding="UTF-8"?>
<svg id="Layer_1" xmlns="http://www.w3.org/2000/svg" version="1.1" xmlns:xlink="http://www.w3.org/1999/xlink" viewBox="0 0 764.82 394.38">
  <!-- Generator: Adobe Illustrator 30.4.0, SVG Export Plug-In . SVG Version: 2.1.4 Build 226)  -->
  <defs>
    <style>
      .st0 {
        stroke-linecap: square;
      }

      .st0, .st1, .st2 {
        stroke-width: .8px;
      }

      .st0, .st3, .st4, .st5, .st6 {
        stroke: #0f1828;
      }

      .st0, .st7, .st8, .st2 {
        fill: none;
      }

      .st9 {
        clip-path: url(#clippath-6);
      }

      .st10 {
        clip-path: url(#clippath-7);
      }

      .st11 {
        clip-path: url(#clippath-17);
      }

      .st12 {
        clip-path: url(#clippath-15);
      }

      .st13 {
        clip-path: url(#clippath-4);
      }

      .st14, .st15, .st16, .st17, .st18, .st19, .st20, .st21, .st22 {
        isolation: isolate;
      }

      .st14, .st15, .st17, .st18, .st19, .st22 {
        font-family: ArialMT, Arial;
      }

      .st14, .st20 {
        font-size: 9px;
      }

      .st14, .st5 {
        fill: #2bc5b4;
      }

      .st23 {
        clip-path: url(#clippath-9);
      }

      .st24 {
        clip-path: url(#clippath-10);
      }

      .st15 {
        font-size: 11px;
      }

      .st15, .st18, .st19 {
        fill: #0f1828;
      }

      .st25 {
        fill: #fbf9f4;
      }

      .st26 {
        fill: #fff;
      }

      .st16, .st1, .st20, .st21, .st22 {
        fill: #4a5567;
      }

      .st16, .st17 {
        font-size: 8px;
      }

      .st16, .st20, .st21 {
        font-family: Arial-ItalicMT, Arial;
        font-style: italic;
      }

      .st1 {
        stroke: #4a5567;
      }

      .st1, .st8, .st2 {
        stroke-linejoin: round;
      }

      .st3, .st17 {
        fill: #c0c5cc;
      }

      .st3, .st4, .st5, .st6 {
        stroke-width: .6px;
      }

      .st27 {
        clip-path: url(#clippath-11);
      }

      .st18, .st21 {
        font-size: 10.5px;
      }

      .st4 {
        fill: #e4d3a6;
      }

      .st28 {
        clip-path: url(#clippath-1);
      }

      .st29 {
        clip-path: url(#clippath-5);
      }

      .st30 {
        clip-path: url(#clippath-8);
      }

      .st19 {
        font-size: 15px;
      }

      .st31 {
        clip-path: url(#clippath-3);
      }

      .st32 {
        clip-path: url(#clippath-12);
      }

      .st33 {
        clip-path: url(#clippath-14);
      }

      .st8 {
        stroke: #2bc5b4;
        stroke-linecap: round;
        stroke-width: 1.2px;
      }

      .st2 {
        stroke: #c0c5cc;
        stroke-dasharray: 2.96 1.28;
        stroke-opacity: .4;
      }

      .st34 {
        clip-path: url(#clippath-16);
      }

      .st35 {
        clip-path: url(#clippath-2);
      }

      .st36 {
        clip-path: url(#clippath-13);
      }

      .st37 {
        clip-path: url(#clippath);
      }

      .st22 {
        font-size: 10px;
      }

      .st6 {
        fill: #c9a84c;
      }
    </style>
    <clipPath id="clippath">
      <rect class="st7" x="60.66" y="56.84" width="696.96" height="265.32"/>
    </clipPath>
    <clipPath id="clippath-1">
      <rect class="st7" x="60.66" y="56.84" width="696.96" height="265.32"/>
    </clipPath>
    <clipPath id="clippath-2">
      <rect class="st7" x="60.66" y="56.84" width="696.96" height="265.32"/>
    </clipPath>
    <clipPath id="clippath-3">
      <rect class="st7" x="60.66" y="56.84" width="696.96" height="265.32"/>
    </clipPath>
    <clipPath id="clippath-4">
      <rect class="st7" x="60.66" y="56.84" width="696.96" height="265.32"/>
    </clipPath>
    <clipPath id="clippath-5">
      <rect class="st7" x="60.66" y="56.84" width="696.96" height="265.32"/>
    </clipPath>
    <clipPath id="clippath-6">
      <rect class="st7" x="60.66" y="56.84" width="696.96" height="265.32"/>
    </clipPath>
    <clipPath id="clippath-7">
      <rect class="st7" x="60.66" y="56.84" width="696.96" height="265.32"/>
    </clipPath>
    <clipPath id="clippath-8">
      <rect class="st7" x="60.66" y="56.84" width="696.96" height="265.32"/>
    </clipPath>
    <clipPath id="clippath-9">
      <rect class="st7" x="60.66" y="56.84" width="696.96" height="265.32"/>
    </clipPath>
    <clipPath id="clippath-10">
      <rect class="st7" x="60.66" y="56.84" width="696.96" height="265.32"/>
    </clipPath>
    <clipPath id="clippath-11">
      <rect class="st7" x="60.66" y="56.84" width="696.96" height="265.32"/>
    </clipPath>
    <clipPath id="clippath-12">
      <rect class="st7" x="60.66" y="56.84" width="696.96" height="265.32"/>
    </clipPath>
    <clipPath id="clippath-13">
      <rect class="st7" x="60.66" y="56.84" width="696.96" height="265.32"/>
    </clipPath>
    <clipPath id="clippath-14">
      <rect class="st7" x="60.66" y="56.84" width="696.96" height="265.32"/>
    </clipPath>
    <clipPath id="clippath-15">
      <rect class="st7" x="60.66" y="56.84" width="696.96" height="265.32"/>
    </clipPath>
    <clipPath id="clippath-16">
      <rect class="st7" x="60.66" y="56.84" width="696.96" height="265.32"/>
    </clipPath>
    <clipPath id="clippath-17">
      <rect class="st7" x="60.66" y="56.84" width="696.96" height="265.32"/>
    </clipPath>
  </defs>
  <path class="st25" d="M0,394.38h764.82V0H0v394.38Z"/>
  <path class="st26" d="M60.66,322.16h696.96V56.84H60.66v265.32Z"/>
  <g class="st37">
    <path class="st3" d="M92.34,322.16h98.16v-58.96h-98.16v58.96Z"/>
  </g>
  <g class="st28">
    <path class="st4" d="M270.82,322.16h98.16v-106.13h-98.16v106.13Z"/>
  </g>
  <g class="st35">
    <path class="st6" d="M449.3,322.16h98.16V119.73h-98.16v202.43Z"/>
  </g>
  <g class="st31">
    <path class="st5" d="M627.78,322.16h98.16V96.75h-98.16v225.41Z"/>
  </g>
  <g class="st13">
    <path class="st2" d="M141.42,322.16V56.84"/>
  </g>
  <path id="mdd16a9efff" class="st1" d="M141.42,322.16v3.5"/>
  <text class="st22" transform="translate(122.1 336.76)"><tspan x="0" y="0">Cabinet</tspan></text>
  <text class="st22" transform="translate(126.22 347.95)"><tspan x="0" y="0">target</tspan></text>
  <text class="st22" transform="translate(113.77 359.15)"><tspan x="0" y="0">(Mar 2024)</tspan></text>
  <g class="st29">
    <path class="st2" d="M319.9,322.16V56.84"/>
  </g>
  <path id="mdd16a9efff1" data-name="mdd16a9efff" class="st1" d="M319.9,322.16v3.5"/>
  <text class="st22" transform="translate(299.31 336.76)"><tspan x="0" y="0">Round 1</tspan></text>
  <text class="st22" transform="translate(285 347.95)"><tspan x="0" y="0">empanelment</tspan></text>
  <g class="st9">
    <path class="st2" d="M498.38,322.16V56.84"/>
  </g>
  <path id="mdd16a9efff2" data-name="mdd16a9efff" class="st1" d="M498.38,322.16v3.5"/>
  <text class="st22" transform="translate(477.79 336.76)"><tspan x="0" y="0">Round 2</tspan></text>
  <text class="st22" transform="translate(463.48 347.95)"><tspan x="0" y="0">empanelment</tspan></text>
  <g class="st10">
    <path class="st2" d="M676.86,322.16V56.84"/>
  </g>
  <path id="mdd16a9efff3" data-name="mdd16a9efff" class="st1" d="M676.86,322.16v3.5"/>
  <text class="st22" transform="translate(650.49 336.76)"><tspan x="0" y="0">Round 3 +</tspan></text>
  <text class="st22" transform="translate(619.82 347.95)"><tspan x="0" y="0">cumulative (Mar 2026)</tspan></text>
  <g class="st30">
    <path class="st2" d="M60.66,322.16h696.96"/>
  </g>
  <path id="m14ce4e83c9" class="st1" d="M60.66,322.16h-3.5"/>
  <text class="st22" transform="translate(47.3 325.96)"><tspan x="0" y="0">0</tspan></text>
  <g class="st23">
    <path class="st2" d="M60.66,292.68h696.96"/>
  </g>
  <path id="m14ce4e83c91" data-name="m14ce4e83c9" class="st1" d="M60.66,292.68h-3.5"/>
  <text class="st22" transform="translate(28.21 296.48)"><tspan x="0" y="0">5000</tspan></text>
  <g class="st24">
    <path class="st2" d="M60.66,263.2h696.96"/>
  </g>
  <path id="m14ce4e83c92" data-name="m14ce4e83c9" class="st1" d="M60.66,263.2h-3.5"/>
  <text class="st22" transform="translate(21.85 267)"><tspan x="0" y="0">10000</tspan></text>
  <g class="st27">
    <path class="st2" d="M60.66,233.72h696.96"/>
  </g>
  <path id="m14ce4e83c93" data-name="m14ce4e83c9" class="st1" d="M60.66,233.72h-3.5"/>
  <text class="st22" transform="translate(21.85 237.52)"><tspan x="0" y="0">15000</tspan></text>
  <g class="st32">
    <path class="st2" d="M60.66,204.24h696.96"/>
  </g>
  <path id="m14ce4e83c94" data-name="m14ce4e83c9" class="st1" d="M60.66,204.24h-3.5"/>
  <text class="st22" transform="translate(21.85 208.04)"><tspan x="0" y="0">20000</tspan></text>
  <g class="st36">
    <path class="st2" d="M60.66,174.76h696.96"/>
  </g>
  <path id="m14ce4e83c95" data-name="m14ce4e83c9" class="st1" d="M60.66,174.76h-3.5"/>
  <text class="st22" transform="translate(21.85 178.56)"><tspan x="0" y="0">25000</tspan></text>
  <g class="st33">
    <path class="st2" d="M60.66,145.28h696.96"/>
  </g>
  <path id="m14ce4e83c96" data-name="m14ce4e83c9" class="st1" d="M60.66,145.28h-3.5"/>
  <text class="st22" transform="translate(21.85 149.08)"><tspan x="0" y="0">30000</tspan></text>
  <g class="st12">
    <path class="st2" d="M60.66,115.8h696.96"/>
  </g>
  <path id="m14ce4e83c97" data-name="m14ce4e83c9" class="st1" d="M60.66,115.8h-3.5"/>
  <text class="st22" transform="translate(21.85 119.6)"><tspan x="0" y="0">35000</tspan></text>
  <g class="st34">
    <path class="st2" d="M60.66,86.32h696.96"/>
  </g>
  <path id="m14ce4e83c98" data-name="m14ce4e83c9" class="st1" d="M60.66,86.32h-3.5"/>
  <text class="st22" transform="translate(21.85 90.12)"><tspan x="0" y="0">40000</tspan></text>
  <g class="st11">
    <path class="st2" d="M60.66,56.84h696.96"/>
  </g>
  <path id="m14ce4e83c99" data-name="m14ce4e83c9" class="st1" d="M60.66,56.84h-3.5"/>
  <text class="st22" transform="translate(21.85 60.64)"><tspan x="0" y="0">45000</tspan></text>
  <text class="st15" transform="translate(15.56 271.94) rotate(-90)"><tspan x="0" y="0">GPUs onboarded (cumulative)</tspan></text>
  <path class="st0" d="M60.66,322.16V56.84"/>
  <path class="st0" d="M60.66,322.16h696.96"/>
  <text class="st18" transform="translate(121.16 258.48)"><tspan x="0" y="0">10,000</tspan></text>
  <text class="st18" transform="translate(299.64 211.31)"><tspan x="0" y="0">18,000</tspan></text>
  <text class="st18" transform="translate(478.12 115.01)"><tspan x="0" y="0">34,333</tspan></text>
  <text class="st18" transform="translate(656.6 92.03)"><tspan x="0" y="0">38,231</tspan></text>
  <path class="st8" d="M634.83,79.24c13.4,5.58,26.38,10.99,38.95,16.23"/>
  <path class="st8" d="M671.14,92.42l2.63,3.05-4.02.28"/>
  <text class="st14" transform="translate(563.51 64.38)"><tspan x="0" y="0">Target exceeded</tspan></text>
  <text class="st14" transform="translate(586 74.53)"><tspan x="0" y="0">by 3.8×</tspan></text>
  <text class="st20" transform="translate(205.79 366.87)"><tspan x="0" y="0">Subsidised rate: Rs 65–92/GPU-hour · Outlay: Rs 10,372 cr · Funds released: ~Rs 400 cr (&lt;4%)</tspan></text>
  <text class="st19" transform="translate(44.82 24.68)"><tspan x="0" y="0">IndiaAI Mission: from 10,000 GPU target to 38,000+ deployed</tspan></text>
  <text class="st21" transform="translate(44.82 38.12)"><tspan x="0" y="0">Empanelment under utilisation-linked subsidy; capex borne by private providers</tspan></text>
  <text class="st17" transform="translate(607.22 13.28)"><tspan x="0" y="0">Figure 5 · Techadyant Labs · 2026</tspan></text>
  <text class="st16" transform="translate(44.82 385.52)"><tspan x="0" y="0">Source: PIB PRID 2012375 (Mar 2024) and PRID 2132817 (Mar 2026); IndiaAI Compute Portal; MediaNama Apr 2026.</tspan></text>
</svg>