<?xml version="1.0" encoding="UTF-8"?>
<svg xmlns="http://www.w3.org/2000/svg" version="1.1" xmlns:xlink="http://www.w3.org/1999/xlink" viewBox="0 0 774.72 563.58">
  <!-- Generator: Adobe Illustrator 30.4.0, SVG Export Plug-In . SVG Version: 2.1.4 Build 226)  -->
  <defs>
    <style>
      .st0 {
        fill: #95e2d9;
        stroke: #2bc5b4;
      }

      .st0, .st1, .st2, .st3, .st4, .st5, .st6, .st7, .st8, .st9, .st10, .st11, .st12, .st13 {
        isolation: isolate;
      }

      .st0, .st2 {
        stroke-width: 1.5px;
      }

      .st0, .st2, .st7 {
        opacity: .5;
      }

      .st1 {
        fill: #138473;
      }

      .st1, .st3, .st6, .st8, .st9, .st10, .st11, .st13 {
        font-family: ArialMT, Arial;
      }

      .st1, .st10 {
        font-size: 12px;
      }

      .st2 {
        fill: #e4d3a6;
        stroke: #c9a84c;
      }

      .st14 {
        stroke: #0f1828;
        stroke-linecap: round;
        stroke-linejoin: round;
        stroke-width: 1.2px;
      }

      .st14, .st15 {
        fill: none;
      }

      .st3, .st8, .st9 {
        fill: #0f1828;
      }

      .st3, .st11 {
        font-size: 11px;
      }

      .st16 {
        fill: #fbf9f4;
      }

      .st4, .st6 {
        font-size: 8px;
      }

      .st4, .st11, .st12, .st13 {
        fill: #4a5567;
      }

      .st4, .st12 {
        font-family: Arial-ItalicMT, Arial;
        font-style: italic;
      }

      .st5 {
        opacity: .3;
      }

      .st5, .st7 {
        fill: #e8e5dd;
        stroke: #4a5567;
      }

      .st6 {
        fill: #c0c5cc;
      }

      .st17 {
        clip-path: url(#clippath-1);
      }

      .st8 {
        font-size: 15px;
      }

      .st18 {
        clip-path: url(#clippath-3);
      }

      .st9, .st13 {
        font-size: 10px;
      }

      .st10 {
        fill: #604b17;
      }

      .st19 {
        clip-path: url(#clippath-2);
      }

      .st12 {
        font-size: 10.5px;
      }

      .st20 {
        clip-path: url(#clippath);
      }
    </style>
    <clipPath id="clippath">
      <rect class="st15" x="63.36" y="59.36" width="669.6" height="443.52"/>
    </clipPath>
    <clipPath id="clippath-1">
      <rect class="st15" x="63.36" y="59.36" width="669.6" height="443.52"/>
    </clipPath>
    <clipPath id="clippath-2">
      <rect class="st15" x="63.36" y="59.36" width="669.6" height="443.52"/>
    </clipPath>
    <clipPath id="clippath-3">
      <rect class="st15" x="63.36" y="59.36" width="669.6" height="443.52"/>
    </clipPath>
  </defs>
  <g id="Layer_1">
    <path class="st16" d="M0,563.58h774.72V0H0v563.58Z"/>
    <g class="st20">
      <path class="st0" d="M96.84,283.34h308.02c2.23,0,3.35-.74,3.35-2.22V77.1c0-1.48-1.12-2.22-3.35-2.22H96.84c-2.23,0-3.35.74-3.35,2.22v204.02c0,1.48,1.12,2.22,3.35,2.22Z"/>
    </g>
    <g class="st17">
      <path class="st2" d="M411.55,283.34h308.02c2.23,0,3.35-.74,3.35-2.22V77.1c0-1.48-1.12-2.22-3.35-2.22h-308.02c-2.23,0-3.35.74-3.35,2.22v204.02c0,1.48,1.12,2.22,3.35,2.22Z"/>
    </g>
    <g class="st19">
      <path class="st7" d="M96.84,482.92h308.02c2.23,0,3.35-.74,3.35-2.22v-190.71c0-1.48-1.12-2.22-3.35-2.22H96.84c-2.23,0-3.35.74-3.35,2.22v190.71c0,1.48,1.12,2.22,3.35,2.22Z"/>
    </g>
    <g class="st18">
      <path class="st5" d="M411.55,482.92h308.02c2.23,0,3.35-.74,3.35-2.22v-190.71c0-1.48-1.12-2.22-3.35-2.22h-308.02c-2.23,0-3.35.74-3.35,2.22v190.71c0,1.48,1.12,2.22,3.35,2.22Z"/>
    </g>
    <path class="st14" d="M65.36,485.14h664.26"/>
    <path class="st14" d="M725.62,483.14l4,2-4,2"/>
    <path class="st14" d="M90.14,500.88c0-146.51,0-292.57,0-438.18"/>
    <path class="st14" d="M88.14,66.7l2-4,2,4"/>
  </g>
  <g id="Layer_2">
    <text class="st1" transform="translate(213.61 102.96)"><tspan x="0" y="0">QUICK WINS</tspan></text>
    <text class="st4" transform="translate(192.04 118.48)"><tspan x="0" y="0">High importance · 0–24 months</tspan></text>
    <text class="st10" transform="translate(513.72 102.96)"><tspan x="0" y="0">STRATEGIC BETS</tspan></text>
    <text class="st4" transform="translate(504.21 118.48)"><tspan x="0" y="0">High importance · 24–60 months</tspan></text>
    <text class="st11" transform="translate(207.34 319.98)"><tspan x="0" y="0">TACTICAL WINS</tspan></text>
    <text class="st4" transform="translate(182.21 333.29)"><tspan x="0" y="0">Moderate importance · 0–24 months</tspan></text>
    <text class="st11" transform="translate(514.1 319.98)"><tspan x="0" y="0">WATCH-AND-WAIT</tspan></text>
    <text class="st4" transform="translate(507.42 333.29)"><tspan x="0" y="0">Moderate / lower · 60+ months</tspan></text>
    <text class="st3" transform="translate(117.88 144.52)"><tspan x="0" y="0">• GPU/accelerator cluster deploy · Rs 60–100k cr</tspan></text>
    <text class="st3" transform="translate(117.88 157.83)"><tspan x="0" y="0">• Captive RE PPA structuring · Rs 25–50k cr</tspan></text>
    <text class="st3" transform="translate(117.88 171.13)"><tspan x="0" y="0">• Treated-wastewater policy · Rs 5–10k cr</tspan></text>
    <text class="st3" transform="translate(117.88 184.44)"><tspan x="0" y="0">• Industrial AI services (GCC) · Rs 80–150k cr</tspan></text>
    <text class="st3" transform="translate(117.88 197.74)"><tspan x="0" y="0">• Edge AI in Tier-2 cities · Rs 10–45k cr</tspan></text>
    <text class="st3" transform="translate(117.88 211.05)"><tspan x="0" y="0">• High-density cooling / liquid · Rs 7.5–36k cr</tspan></text>
    <text class="st3" transform="translate(430.59 145.52)"><tspan x="0" y="0">• Advanced packaging (CoWoS-class) · Rs 25–50k cr</tspan></text>
    <text class="st3" transform="translate(430.59 158.83)"><tspan x="0" y="0">• Visakhapatnam coastal hub · Rs 80–100k cr</tspan></text>
    <text class="st3" transform="translate(430.59 172.13)"><tspan x="0" y="0">• HBM stacking partnership · Rs 15–25k cr</tspan></text>
    <text class="st3" transform="translate(430.59 185.44)"><tspan x="0" y="0">• Specialty-gases hub (beyond Inox) · Rs 5–10k cr</tspan></text>
    <text class="st3" transform="translate(430.59 198.74)"><tspan x="0" y="0">• Sovereign foundation model · Rs 5–10k cr</tspan></text>
    <text class="st3" transform="translate(430.59 212.05)"><tspan x="0" y="0">• OSAT-led 2.5D packaging at TSAT/Jewar · Rs 10–20k cr</tspan></text>
    <text class="st3" transform="translate(430.59 225.35)"><tspan x="0" y="0">• Inter-state water-rights modernisation · Rs 20–40k cr</tspan></text>
    <text class="st3" transform="translate(430.59 238.66)"><tspan x="0" y="0">• Tier-2 GCC anchor-city development · Rs 30–60k cr</tspan></text>
    <text class="st11" transform="translate(117.88 357.1)"><tspan x="0" y="0">• DCIM and operations software · Rs 5–12k cr</tspan></text>
    <text class="st11" transform="translate(117.88 369.08)"><tspan x="0" y="0">• Precision piping / UPW services · Rs 5–10k cr</tspan></text>
    <text class="st11" transform="translate(117.88 381.05)"><tspan x="0" y="0">• Industrial sensors / edge IoT · Rs 8–15k cr</tspan></text>
    <text class="st11" transform="translate(117.88 393.03)"><tspan x="0" y="0">• Cleanroom certification bodies · Rs 3–6k cr</tspan></text>
    <text class="st11" transform="translate(117.88 405)"><tspan x="0" y="0">• Submarine-cable landing infra · Rs 5–10k cr</tspan></text>
    <text class="st11" transform="translate(117.88 416.98)"><tspan x="0" y="0">• DC InvIT / REIT structuring · Rs 50–80k cr</tspan></text>
    <text class="st13" transform="translate(432.59 357.1)"><tspan x="0" y="0">• Leading-edge logic fab (3–5 nm)</tspan></text>
    <text class="st13" transform="translate(432.59 369.08)"><tspan x="0" y="0">• Indigenous AI accelerator design at scale</tspan></text>
    <text class="st13" transform="translate(432.59 381.05)"><tspan x="0" y="0">• Quantum-compute infrastructure</tspan></text>
    <text class="st13" transform="translate(432.59 393.03)"><tspan x="0" y="0">• BCI / post-classical AI hardware</tspan></text>
    <text class="st9" transform="translate(345.2 495.56)"><tspan x="0" y="0">Time-to-execution →</tspan></text>
    <text class="st9" transform="translate(80.42 280.4) rotate(-90)"><tspan x="0" y="0">← Strategic importance</tspan></text>
    <text class="st8" transform="translate(11.5 21.8)"><tspan x="0" y="0">Strategic Opportunity Matrix — India AI industrial transition 2026–2030</tspan></text>
    <text class="st12" transform="translate(12.06 46.86)"><tspan x="0" y="0">Twenty-four opportunity surfaces mapped to strategic importance and time-to-execution</tspan></text>
    <text class="st6" transform="translate(632.17 10.4)"><tspan x="0" y="0">Figure 23 · Techadyant Labs · 2026</tspan></text>
    <text class="st4" transform="translate(11.5 551.84)"><tspan x="0" y="0">Source: Techadyant Labs signature framework integrating Parts II–VII analysis.</tspan></text>
  </g>
</svg>