<?xml version="1.0" encoding="UTF-8"?>
<svg id="Layer_1" xmlns="http://www.w3.org/2000/svg" version="1.1" xmlns:xlink="http://www.w3.org/1999/xlink" viewBox="0 0 762.68 529.74">
  <!-- Generator: Adobe Illustrator 30.4.0, SVG Export Plug-In . SVG Version: 2.1.4 Build 226)  -->
  <defs>
    <style>
      .st0 {
        stroke-linecap: square;
      }

      .st0, .st1, .st2, .st3, .st4, .st5, .st6, .st7 {
        stroke: #0f1828;
      }

      .st0, .st8, .st9 {
        stroke-width: .8px;
      }

      .st0, .st10, .st9 {
        fill: none;
      }

      .st11 {
        clip-path: url(#clippath-21);
      }

      .st12 {
        clip-path: url(#clippath-6);
      }

      .st13 {
        clip-path: url(#clippath-7);
      }

      .st14 {
        clip-path: url(#clippath-17);
      }

      .st15 {
        clip-path: url(#clippath-15);
      }

      .st16 {
        clip-path: url(#clippath-18);
      }

      .st17 {
        clip-path: url(#clippath-4);
      }

      .st18 {
        clip-path: url(#clippath-22);
      }

      .st19 {
        clip-path: url(#clippath-23);
      }

      .st1 {
        fill: #c9a84c;
      }

      .st1, .st2, .st3, .st4, .st5, .st6, .st7 {
        stroke-width: .5px;
      }

      .st2, .st20, .st21 {
        fill: #0f1828;
      }

      .st22 {
        clip-path: url(#clippath-9);
      }

      .st23 {
        clip-path: url(#clippath-10);
      }

      .st3, .st24, .st8, .st25, .st26, .st27, .st28 {
        fill: #4a5567;
      }

      .st20 {
        font-size: 11px;
      }

      .st20, .st24, .st29, .st21, .st25, .st26, .st27, .st28 {
        isolation: isolate;
      }

      .st20, .st29, .st21, .st25, .st27, .st28 {
        font-family: ArialMT, Arial;
      }

      .st30 {
        fill: #fbf9f4;
      }

      .st31 {
        fill: #fff;
      }

      .st32 {
        clip-path: url(#clippath-25);
      }

      .st24, .st29, .st25 {
        font-size: 8px;
      }

      .st24, .st26 {
        font-family: Arial-ItalicMT, Arial;
        font-style: italic;
      }

      .st33 {
        clip-path: url(#clippath-27);
      }

      .st8 {
        stroke: #4a5567;
      }

      .st8, .st9 {
        stroke-linejoin: round;
      }

      .st34 {
        clip-path: url(#clippath-11);
      }

      .st29 {
        fill: #c0c5cc;
      }

      .st35 {
        clip-path: url(#clippath-28);
      }

      .st36 {
        clip-path: url(#clippath-1);
      }

      .st37 {
        clip-path: url(#clippath-5);
      }

      .st38 {
        clip-path: url(#clippath-20);
      }

      .st39 {
        clip-path: url(#clippath-8);
      }

      .st21 {
        font-size: 15px;
      }

      .st40 {
        clip-path: url(#clippath-3);
      }

      .st41 {
        clip-path: url(#clippath-26);
      }

      .st4 {
        fill: #878b95;
      }

      .st42 {
        clip-path: url(#clippath-12);
      }

      .st43 {
        clip-path: url(#clippath-14);
      }

      .st44 {
        clip-path: url(#clippath-19);
      }

      .st5 {
        fill: #2bc5b4;
      }

      .st9 {
        stroke: #c0c5cc;
        stroke-dasharray: 2.96 1.28;
        stroke-opacity: .4;
      }

      .st6 {
        fill: #e4d3a6;
      }

      .st45 {
        clip-path: url(#clippath-16);
      }

      .st46 {
        clip-path: url(#clippath-2);
      }

      .st47 {
        clip-path: url(#clippath-13);
      }

      .st7 {
        fill: #95e2d9;
      }

      .st48 {
        clip-path: url(#clippath-24);
      }

      .st26 {
        font-size: 10.5px;
      }

      .st49 {
        clip-path: url(#clippath);
      }

      .st27 {
        font-size: 10px;
      }

      .st28 {
        font-size: 9.5px;
      }
    </style>
    <clipPath id="clippath">
      <rect class="st10" x="83.84" y="72.68" width="665.28" height="405"/>
    </clipPath>
    <clipPath id="clippath-1">
      <rect class="st10" x="83.84" y="72.68" width="665.28" height="405"/>
    </clipPath>
    <clipPath id="clippath-2">
      <rect class="st10" x="83.84" y="72.68" width="665.28" height="405"/>
    </clipPath>
    <clipPath id="clippath-3">
      <rect class="st10" x="83.84" y="72.68" width="665.28" height="405"/>
    </clipPath>
    <clipPath id="clippath-4">
      <rect class="st10" x="83.84" y="72.68" width="665.28" height="405"/>
    </clipPath>
    <clipPath id="clippath-5">
      <rect class="st10" x="83.84" y="72.68" width="665.28" height="405"/>
    </clipPath>
    <clipPath id="clippath-6">
      <rect class="st10" x="83.84" y="72.68" width="665.28" height="405"/>
    </clipPath>
    <clipPath id="clippath-7">
      <rect class="st10" x="83.84" y="72.68" width="665.28" height="405"/>
    </clipPath>
    <clipPath id="clippath-8">
      <rect class="st10" x="83.84" y="72.68" width="665.28" height="405"/>
    </clipPath>
    <clipPath id="clippath-9">
      <rect class="st10" x="83.84" y="72.68" width="665.28" height="405"/>
    </clipPath>
    <clipPath id="clippath-10">
      <rect class="st10" x="83.84" y="72.68" width="665.28" height="405"/>
    </clipPath>
    <clipPath id="clippath-11">
      <rect class="st10" x="83.84" y="72.68" width="665.28" height="405"/>
    </clipPath>
    <clipPath id="clippath-12">
      <rect class="st10" x="83.84" y="72.68" width="665.28" height="405"/>
    </clipPath>
    <clipPath id="clippath-13">
      <rect class="st10" x="83.84" y="72.68" width="665.28" height="405"/>
    </clipPath>
    <clipPath id="clippath-14">
      <rect class="st10" x="83.84" y="72.68" width="665.28" height="405"/>
    </clipPath>
    <clipPath id="clippath-15">
      <rect class="st10" x="83.84" y="72.68" width="665.28" height="405"/>
    </clipPath>
    <clipPath id="clippath-16">
      <rect class="st10" x="83.84" y="72.68" width="665.28" height="405"/>
    </clipPath>
    <clipPath id="clippath-17">
      <rect class="st10" x="83.84" y="72.68" width="665.28" height="405"/>
    </clipPath>
    <clipPath id="clippath-18">
      <rect class="st10" x="83.84" y="72.68" width="665.28" height="405"/>
    </clipPath>
    <clipPath id="clippath-19">
      <rect class="st10" x="83.84" y="72.68" width="665.28" height="405"/>
    </clipPath>
    <clipPath id="clippath-20">
      <rect class="st10" x="83.84" y="72.68" width="665.28" height="405"/>
    </clipPath>
    <clipPath id="clippath-21">
      <rect class="st10" x="83.84" y="72.68" width="665.28" height="405"/>
    </clipPath>
    <clipPath id="clippath-22">
      <rect class="st10" x="83.84" y="72.68" width="665.28" height="405"/>
    </clipPath>
    <clipPath id="clippath-23">
      <rect class="st10" x="83.84" y="72.68" width="665.28" height="405"/>
    </clipPath>
    <clipPath id="clippath-24">
      <rect class="st10" x="83.84" y="72.68" width="665.28" height="405"/>
    </clipPath>
    <clipPath id="clippath-25">
      <rect class="st10" x="83.84" y="72.68" width="665.28" height="405"/>
    </clipPath>
    <clipPath id="clippath-26">
      <rect class="st10" x="83.84" y="72.68" width="665.28" height="405"/>
    </clipPath>
    <clipPath id="clippath-27">
      <rect class="st10" x="83.84" y="72.68" width="665.28" height="405"/>
    </clipPath>
    <clipPath id="clippath-28">
      <rect class="st10" x="83.84" y="72.68" width="665.28" height="405"/>
    </clipPath>
  </defs>
  <path class="st30" d="M0,529.74h762.68V0H0v529.74Z"/>
  <path class="st31" d="M83.84,477.68h665.28V72.68H83.84v405Z"/>
  <g class="st49">
    <path class="st2" d="M83.84,91.09h166.32v24.8H83.84v-24.8Z"/>
  </g>
  <g class="st36">
    <path class="st1" d="M83.84,129.24h332.64v24.8H83.84v-24.8Z"/>
  </g>
  <g class="st46">
    <path class="st5" d="M83.84,167.39h332.64v24.8H83.84v-24.8Z"/>
  </g>
  <g class="st40">
    <path class="st4" d="M83.84,205.55h249.48v24.8H83.84v-24.8Z"/>
  </g>
  <g class="st17">
    <path class="st6" d="M83.84,243.7h207.9v24.8H83.84v-24.8Z"/>
  </g>
  <g class="st37">
    <path class="st7" d="M83.84,281.86h207.9v24.8H83.84v-24.8Z"/>
  </g>
  <g class="st12">
    <path class="st3" d="M83.84,320.01h207.9v24.8H83.84v-24.8Z"/>
  </g>
  <g class="st13">
    <path class="st2" d="M83.84,358.16h207.9v24.8H83.84v-24.8Z"/>
  </g>
  <g class="st39">
    <path class="st1" d="M83.84,396.32h207.9v24.8H83.84v-24.8Z"/>
  </g>
  <g class="st22">
    <path class="st5" d="M83.84,434.47h207.9v24.8H83.84v-24.8Z"/>
  </g>
  <g class="st23">
    <path class="st9" d="M83.84,477.68V72.68"/>
  </g>
  <path id="m62c63f0436" class="st8" d="M83.84,477.68v3.5"/>
  <text class="st27" transform="translate(80.66 492.28)"><tspan x="0" y="0">0</tspan></text>
  <g class="st34">
    <path class="st9" d="M167,477.68V72.68"/>
  </g>
  <path id="m62c63f04361" data-name="m62c63f0436" class="st8" d="M167,477.68v3.5"/>
  <text class="st27" transform="translate(163.82 492.28)"><tspan x="0" y="0">2</tspan></text>
  <g class="st42">
    <path class="st9" d="M250.16,477.68V72.68"/>
  </g>
  <path id="m62c63f04362" data-name="m62c63f0436" class="st8" d="M250.16,477.68v3.5"/>
  <text class="st27" transform="translate(246.98 492.28)"><tspan x="0" y="0">4</tspan></text>
  <g class="st47">
    <path class="st9" d="M333.32,477.68V72.68"/>
  </g>
  <path id="m62c63f04363" data-name="m62c63f0436" class="st8" d="M333.32,477.68v3.5"/>
  <text class="st27" transform="translate(330.14 492.28)"><tspan x="0" y="0">6</tspan></text>
  <g class="st43">
    <path class="st9" d="M416.48,477.68V72.68"/>
  </g>
  <path id="m62c63f04364" data-name="m62c63f0436" class="st8" d="M416.48,477.68v3.5"/>
  <text class="st27" transform="translate(413.3 492.28)"><tspan x="0" y="0">8</tspan></text>
  <g class="st15">
    <path class="st9" d="M499.64,477.68V72.68"/>
  </g>
  <path id="m62c63f04365" data-name="m62c63f0436" class="st8" d="M499.64,477.68v3.5"/>
  <text class="st27" transform="translate(493.28 492.28)"><tspan x="0" y="0">10</tspan></text>
  <g class="st45">
    <path class="st9" d="M582.8,477.68V72.68"/>
  </g>
  <path id="m62c63f04366" data-name="m62c63f0436" class="st8" d="M582.8,477.68v3.5"/>
  <text class="st27" transform="translate(576.44 492.28)"><tspan x="0" y="0">12</tspan></text>
  <g class="st14">
    <path class="st9" d="M665.96,477.68V72.68"/>
  </g>
  <path id="m62c63f04367" data-name="m62c63f0436" class="st8" d="M665.96,477.68v3.5"/>
  <text class="st27" transform="translate(659.6 492.28)"><tspan x="0" y="0">14</tspan></text>
  <g class="st16">
    <path class="st9" d="M749.12,477.68V72.68"/>
  </g>
  <path id="m62c63f04368" data-name="m62c63f0436" class="st8" d="M749.12,477.68v3.5"/>
  <text class="st27" transform="translate(742.76 492.28)"><tspan x="0" y="0">16</tspan></text>
  <text class="st20" transform="translate(243.6 506.72)"><tspan x="0" y="0">Count of named institutional / corporate winners (Section 37B)</tspan></text>
  <g class="st44">
    <path class="st9" d="M83.84,103.49h665.28"/>
  </g>
  <path id="m3164a09f70" class="st8" d="M83.84,103.49h-3.5"/>
  <text class="st28" transform="translate(38.29 102.5)"><tspan x="0" y="0">Winning</tspan></text>
  <text class="st28" transform="translate(47.83 113.14)"><tspan x="0" y="0">states</tspan></text>
  <g class="st38">
    <path class="st9" d="M83.84,141.64h665.28"/>
  </g>
  <path id="m3164a09f701" data-name="m3164a09f70" class="st8" d="M83.84,141.64h-3.5"/>
  <text class="st28" transform="translate(32.29 140.65)"><tspan x="0" y="0">Industrial</tspan></text>
  <text class="st28" transform="translate(42.43 151.29)"><tspan x="0" y="0">sectors</tspan></text>
  <g class="st11">
    <path class="st9" d="M83.84,179.79h665.28"/>
  </g>
  <path id="m3164a09f702" data-name="m3164a09f70" class="st8" d="M83.84,179.79h-3.5"/>
  <text class="st28" transform="translate(11.84 178.81)"><tspan x="0" y="0">Infrastructure</tspan></text>
  <text class="st28" transform="translate(31.03 189.44)"><tspan x="0" y="0">operators</tspan></text>
  <g class="st18">
    <path class="st9" d="M83.84,217.95h665.28"/>
  </g>
  <path id="m3164a09f703" data-name="m3164a09f70" class="st8" d="M83.84,217.95h-3.5"/>
  <text class="st28" transform="translate(30.66 216.96)"><tspan x="0" y="0">Utilities &amp;</tspan></text>
  <text class="st28" transform="translate(47.48 227.6)"><tspan x="0" y="0">power</tspan></text>
  <g class="st19">
    <path class="st9" d="M83.84,256.1h665.28"/>
  </g>
  <path id="m3164a09f704" data-name="m3164a09f70" class="st8" d="M83.84,256.1h-3.5"/>
  <text class="st28" transform="translate(25.32 255.11)"><tspan x="0" y="0">Logistics &amp;</tspan></text>
  <text class="st28" transform="translate(16.56 265.75)"><tspan x="0" y="0">supply-chain</tspan></text>
  <g class="st48">
    <path class="st9" d="M83.84,294.26h665.28"/>
  </g>
  <path id="m3164a09f705" data-name="m3164a09f70" class="st8" d="M83.84,294.26h-3.5"/>
  <text class="st28" transform="translate(34.46 293.27)"><tspan x="0" y="0">Precision</tspan></text>
  <text class="st28" transform="translate(7.2 303.91)"><tspan x="0" y="0">manufacturers</tspan></text>
  <g class="st32">
    <path class="st9" d="M83.84,332.41h665.28"/>
  </g>
  <path id="m3164a09f706" data-name="m3164a09f70" class="st8" d="M83.84,332.41h-3.5"/>
  <text class="st28" transform="translate(23.02 331.42)"><tspan x="0" y="0">Real-estate</tspan></text>
  <text class="st28" transform="translate(39.98 342.06)"><tspan x="0" y="0">&amp; InvITs</tspan></text>
  <g class="st41">
    <path class="st9" d="M83.84,370.56h665.28"/>
  </g>
  <path id="m3164a09f707" data-name="m3164a09f70" class="st8" d="M83.84,370.56h-3.5"/>
  <text class="st28" transform="translate(48.05 369.57)"><tspan x="0" y="0">EPC &amp;</tspan></text>
  <text class="st28" transform="translate(20 380.21)"><tspan x="0" y="0">engineering</tspan></text>
  <g class="st33">
    <path class="st9" d="M83.84,408.72h665.28"/>
  </g>
  <path id="m3164a09f708" data-name="m3164a09f70" class="st8" d="M83.84,408.72h-3.5"/>
  <text class="st28" transform="translate(31.58 407.73)"><tspan x="0" y="0">Fabless &amp;</tspan></text>
  <text class="st28" transform="translate(45.33 418.37)"><tspan x="0" y="0">design</tspan></text>
  <g class="st35">
    <path class="st9" d="M83.84,446.87h665.28"/>
  </g>
  <path id="m3164a09f709" data-name="m3164a09f70" class="st8" d="M83.84,446.87h-3.5"/>
  <text class="st28" transform="translate(37.49 445.88)"><tspan x="0" y="0">Gases &amp;</tspan></text>
  <text class="st28" transform="translate(32.24 456.52)"><tspan x="0" y="0">materials</tspan></text>
  <path class="st0" d="M83.84,477.68V72.68"/>
  <path class="st0" d="M83.84,477.68h665.28"/>
  <text class="st25" transform="translate(256.4 105.7)"><tspan x="0" y="0">Karnataka, TN, AP, Gujarat</tspan></text>
  <text class="st25" transform="translate(422.72 143.85)"><tspan x="0" y="0">BFSI, Auto, Pharma, Industrial-auto, …</tspan></text>
  <text class="st25" transform="translate(422.72 182)"><tspan x="0" y="0">AdaniConneX, Yotta, CtrlS, Reliance, NTT, Sify, Tata Comm, …</tspan></text>
  <text class="st25" transform="translate(339.56 220.16)"><tspan x="0" y="0">CleanMax, ReNew, Amplus, BHEL, ABB, …</tspan></text>
  <text class="st25" transform="translate(297.98 258.31)"><tspan x="0" y="0">CONCOR, DFCCIL, JSW Infra, Adani Ports, Delhivery</tspan></text>
  <text class="st25" transform="translate(297.98 296.46)"><tspan x="0" y="0">Sterlite, Voltas, Blue Star, Praj, Cyient</tspan></text>
  <text class="st25" transform="translate(297.98 334.62)"><tspan x="0" y="0">Embassy REIT, Mindspace, IndiGrid, Hiranandani, Tata Realty</tspan></text>
  <text class="st25" transform="translate(297.98 372.77)"><tspan x="0" y="0">L&amp;T, Tata Projects, SP Group, Megha Eng, KEC</tspan></text>
  <text class="st25" transform="translate(297.98 410.92)"><tspan x="0" y="0">Tata Electronics, Saankhya, Mindgrove, InCore, Ceremorphic</tspan></text>
  <text class="st25" transform="translate(297.98 449.08)"><tspan x="0" y="0">Linde, Inox, Air Liquide, Aegis, SRF</tspan></text>
  <text class="st21" transform="translate(28.4 24.68)"><tspan x="0" y="0">Likely winners of India&apos;s AI industrial transition — ten categories</tspan></text>
  <text class="st26" transform="translate(28.4 45.88)"><tspan x="0" y="0">Named institutional and corporate winners; exemplars only, not exhaustive</tspan></text>
  <text class="st29" transform="translate(585.71 13.28)"><tspan x="0" y="0">Figure 26 · Techadyant Labs · 2026</tspan></text>
  <text class="st24" transform="translate(28.4 520.88)"><tspan x="0" y="0">Source: Techadyant Labs synthesis of Parts II–VII analysis; Section 37B detailed list.</tspan></text>
</svg>