<?xml version="1.0" encoding="UTF-8"?>
<svg id="Layer_1" xmlns="http://www.w3.org/2000/svg" version="1.1" xmlns:xlink="http://www.w3.org/1999/xlink" viewBox="0 0 711.36 394.38">
  <!-- Generator: Adobe Illustrator 30.4.0, SVG Export Plug-In . SVG Version: 2.1.4 Build 226)  -->
  <defs>
    <style>
      .st0 {
        clip-path: url(#clippath-34);
      }

      .st1, .st2, .st3 {
        stroke: #0f1828;
      }

      .st1, .st4, .st5 {
        stroke-width: .8px;
      }

      .st1, .st6, .st7, .st3, .st8, .st5 {
        fill: none;
      }

      .st1, .st3 {
        stroke-linecap: square;
      }

      .st9 {
        clip-path: url(#clippath-21);
      }

      .st10 {
        clip-path: url(#clippath-6);
      }

      .st11 {
        clip-path: url(#clippath-7);
      }

      .st12 {
        clip-path: url(#clippath-17);
      }

      .st13 {
        clip-path: url(#clippath-31);
      }

      .st14 {
        clip-path: url(#clippath-15);
      }

      .st15 {
        clip-path: url(#clippath-33);
      }

      .st16 {
        clip-path: url(#clippath-18);
      }

      .st17 {
        clip-path: url(#clippath-4);
      }

      .st18 {
        clip-path: url(#clippath-22);
      }

      .st19 {
        clip-path: url(#clippath-23);
      }

      .st20 {
        clip-path: url(#clippath-9);
      }

      .st21 {
        clip-path: url(#clippath-10);
      }

      .st22 {
        font-size: 11px;
      }

      .st22, .st23, .st24, .st25, .st26, .st27, .st28, .st29 {
        isolation: isolate;
      }

      .st22, .st2, .st25, .st27 {
        fill: #0f1828;
      }

      .st22, .st24, .st25, .st27, .st29 {
        font-family: ArialMT, Arial;
      }

      .st30 {
        fill: #fbf9f4;
      }

      .st31 {
        fill: #fff;
      }

      .st32 {
        clip-path: url(#clippath-25);
      }

      .st23, .st4, .st28, .st29 {
        fill: #4a5567;
      }

      .st23, .st24, .st26 {
        font-size: 8px;
      }

      .st23, .st26, .st28 {
        font-family: Arial-ItalicMT, Arial;
        font-style: italic;
      }

      .st33 {
        clip-path: url(#clippath-27);
      }

      .st2, .st4, .st7, .st3, .st8, .st34, .st5 {
        stroke-linejoin: round;
      }

      .st4 {
        stroke: #4a5567;
      }

      .st35 {
        clip-path: url(#clippath-11);
      }

      .st36 {
        fill: #c8443b;
      }

      .st36, .st8 {
        stroke: #c8443b;
      }

      .st24 {
        fill: #c0c5cc;
      }

      .st25 {
        font-size: 9px;
      }

      .st26, .st34 {
        fill: #c9a84c;
      }

      .st37 {
        clip-path: url(#clippath-36);
      }

      .st38 {
        clip-path: url(#clippath-35);
      }

      .st39 {
        clip-path: url(#clippath-28);
      }

      .st7 {
        stroke-dasharray: 6.66 2.88;
      }

      .st7, .st40 {
        stroke: #2bc5b4;
      }

      .st7, .st8 {
        stroke-width: 1.8px;
      }

      .st41 {
        clip-path: url(#clippath-1);
      }

      .st3 {
        stroke-width: 2.5px;
      }

      .st42 {
        clip-path: url(#clippath-5);
      }

      .st43 {
        clip-path: url(#clippath-20);
      }

      .st44 {
        clip-path: url(#clippath-8);
      }

      .st27 {
        font-size: 15px;
      }

      .st45 {
        clip-path: url(#clippath-3);
      }

      .st46 {
        clip-path: url(#clippath-26);
      }

      .st47 {
        clip-path: url(#clippath-12);
      }

      .st48 {
        clip-path: url(#clippath-14);
      }

      .st40 {
        fill: #2bc5b4;
      }

      .st8 {
        stroke-dasharray: 1.8 2.97;
      }

      .st34 {
        fill-opacity: .15;
        stroke: #c9a84c;
        stroke-opacity: .15;
      }

      .st49 {
        clip-path: url(#clippath-30);
      }

      .st50 {
        clip-path: url(#clippath-19);
      }

      .st51 {
        clip-path: url(#clippath-32);
      }

      .st5 {
        stroke: #c0c5cc;
        stroke-dasharray: 2.96 1.28;
        stroke-opacity: .4;
      }

      .st52 {
        clip-path: url(#clippath-16);
      }

      .st53 {
        clip-path: url(#clippath-2);
      }

      .st54 {
        clip-path: url(#clippath-29);
      }

      .st55 {
        clip-path: url(#clippath-37);
      }

      .st56 {
        clip-path: url(#clippath-13);
      }

      .st57 {
        clip-path: url(#clippath-24);
      }

      .st28 {
        font-size: 10.5px;
      }

      .st58 {
        clip-path: url(#clippath);
      }

      .st29 {
        font-size: 10px;
      }
    </style>
    <clipPath id="clippath">
      <rect class="st6" x="58.68" y="68.72" width="266.87" height="277.2"/>
    </clipPath>
    <clipPath id="clippath-1">
      <rect class="st6" x="58.68" y="68.72" width="266.87" height="277.2"/>
    </clipPath>
    <clipPath id="clippath-2">
      <rect class="st6" x="58.68" y="68.72" width="266.87" height="277.2"/>
    </clipPath>
    <clipPath id="clippath-3">
      <rect class="st6" x="58.68" y="68.72" width="266.87" height="277.2"/>
    </clipPath>
    <clipPath id="clippath-4">
      <rect class="st6" x="58.68" y="68.72" width="266.87" height="277.2"/>
    </clipPath>
    <clipPath id="clippath-5">
      <rect class="st6" x="58.68" y="68.72" width="266.87" height="277.2"/>
    </clipPath>
    <clipPath id="clippath-6">
      <rect class="st6" x="58.68" y="68.72" width="266.87" height="277.2"/>
    </clipPath>
    <clipPath id="clippath-7">
      <rect class="st6" x="58.68" y="68.72" width="266.87" height="277.2"/>
    </clipPath>
    <clipPath id="clippath-8">
      <rect class="st6" x="58.68" y="68.72" width="266.87" height="277.2"/>
    </clipPath>
    <clipPath id="clippath-9">
      <rect class="st6" x="58.68" y="68.72" width="266.87" height="277.2"/>
    </clipPath>
    <clipPath id="clippath-10">
      <rect class="st6" x="58.68" y="68.72" width="266.87" height="277.2"/>
    </clipPath>
    <clipPath id="clippath-11">
      <rect class="st6" x="58.68" y="68.72" width="266.87" height="277.2"/>
    </clipPath>
    <clipPath id="clippath-12">
      <rect class="st6" x="58.68" y="68.72" width="266.87" height="277.2"/>
    </clipPath>
    <clipPath id="clippath-13">
      <rect class="st6" x="58.68" y="68.72" width="266.87" height="277.2"/>
    </clipPath>
    <clipPath id="clippath-14">
      <rect class="st6" x="58.68" y="68.72" width="266.87" height="277.2"/>
    </clipPath>
    <clipPath id="clippath-15">
      <rect class="st6" x="58.68" y="68.72" width="266.87" height="277.2"/>
    </clipPath>
    <clipPath id="clippath-16">
      <rect class="st6" x="58.68" y="68.72" width="266.87" height="277.2"/>
    </clipPath>
    <clipPath id="clippath-17">
      <rect class="st6" x="58.68" y="68.72" width="266.87" height="277.2"/>
    </clipPath>
    <clipPath id="clippath-18">
      <rect class="st6" x="58.68" y="68.72" width="266.87" height="277.2"/>
    </clipPath>
    <clipPath id="clippath-19">
      <rect class="st6" x="58.68" y="68.72" width="266.87" height="277.2"/>
    </clipPath>
    <clipPath id="clippath-20">
      <rect class="st6" x="405.61" y="68.72" width="266.87" height="277.2"/>
    </clipPath>
    <clipPath id="clippath-21">
      <rect class="st6" x="405.61" y="68.72" width="266.87" height="277.2"/>
    </clipPath>
    <clipPath id="clippath-22">
      <rect class="st6" x="405.61" y="68.72" width="266.87" height="277.2"/>
    </clipPath>
    <clipPath id="clippath-23">
      <rect class="st6" x="405.61" y="68.72" width="266.87" height="277.2"/>
    </clipPath>
    <clipPath id="clippath-24">
      <rect class="st6" x="405.61" y="68.72" width="266.87" height="277.2"/>
    </clipPath>
    <clipPath id="clippath-25">
      <rect class="st6" x="405.61" y="68.72" width="266.87" height="277.2"/>
    </clipPath>
    <clipPath id="clippath-26">
      <rect class="st6" x="405.61" y="68.72" width="266.87" height="277.2"/>
    </clipPath>
    <clipPath id="clippath-27">
      <rect class="st6" x="405.61" y="68.72" width="266.87" height="277.2"/>
    </clipPath>
    <clipPath id="clippath-28">
      <rect class="st6" x="405.61" y="68.72" width="266.87" height="277.2"/>
    </clipPath>
    <clipPath id="clippath-29">
      <rect class="st6" x="405.61" y="68.72" width="266.87" height="277.2"/>
    </clipPath>
    <clipPath id="clippath-30">
      <rect class="st6" x="405.61" y="68.72" width="266.87" height="277.2"/>
    </clipPath>
    <clipPath id="clippath-31">
      <rect class="st6" x="405.61" y="68.72" width="266.87" height="277.2"/>
    </clipPath>
    <clipPath id="clippath-32">
      <rect class="st6" x="405.61" y="68.72" width="266.87" height="277.2"/>
    </clipPath>
    <clipPath id="clippath-33">
      <rect class="st6" x="405.61" y="68.72" width="266.87" height="277.2"/>
    </clipPath>
    <clipPath id="clippath-34">
      <rect class="st6" x="405.61" y="68.72" width="266.87" height="277.2"/>
    </clipPath>
    <clipPath id="clippath-35">
      <rect class="st6" x="405.61" y="68.72" width="266.87" height="277.2"/>
    </clipPath>
    <clipPath id="clippath-36">
      <rect class="st6" x="405.61" y="68.72" width="266.87" height="277.2"/>
    </clipPath>
    <clipPath id="clippath-37">
      <rect class="st6" x="405.61" y="68.72" width="266.87" height="277.2"/>
    </clipPath>
  </defs>
  <path class="st30" d="M0,394.38h711.36V0H0v394.38Z"/>
  <path class="st31" d="M58.68,345.92h266.87V68.72H58.68v277.2Z"/>
  <g class="st58">
    <path id="mdb057e6ab1" class="st34" d="M58.68,320.97h0l48.52-7.72,48.52-14.85,48.52-37.62,48.52-25.74,72.78-23.76V78.62h0l-72.78,79.2-48.52,59.4-48.52,67.32-48.52,26.73-48.52,9.7Z"/>
  </g>
  <g class="st41">
    <path class="st5" d="M58.68,345.92V68.72"/>
  </g>
  <path id="m7590bb871e" class="st4" d="M58.68,345.92v3.5"/>
  <text class="st29" transform="translate(45.95 360.52)"><tspan x="0" y="0">2024</tspan></text>
  <g class="st53">
    <path class="st5" d="M107.2,345.92V68.72"/>
  </g>
  <path id="m7590bb871e1" data-name="m7590bb871e" class="st4" d="M107.2,345.92v3.5"/>
  <text class="st29" transform="translate(94.48 360.52)"><tspan x="0" y="0">2026</tspan></text>
  <g class="st45">
    <path class="st5" d="M155.72,345.92V68.72"/>
  </g>
  <path id="m7590bb871e2" data-name="m7590bb871e" class="st4" d="M155.72,345.92v3.5"/>
  <text class="st29" transform="translate(143 360.52)"><tspan x="0" y="0">2028</tspan></text>
  <g class="st17">
    <path class="st5" d="M204.25,345.92V68.72"/>
  </g>
  <path id="m7590bb871e3" data-name="m7590bb871e" class="st4" d="M204.25,345.92v3.5"/>
  <text class="st29" transform="translate(191.52 360.52)"><tspan x="0" y="0">2030</tspan></text>
  <g class="st42">
    <path class="st5" d="M252.77,345.92V68.72"/>
  </g>
  <path id="m7590bb871e4" data-name="m7590bb871e" class="st4" d="M252.77,345.92v3.5"/>
  <text class="st29" transform="translate(240.04 360.52)"><tspan x="0" y="0">2032</tspan></text>
  <g class="st10">
    <path class="st5" d="M301.29,345.92V68.72"/>
  </g>
  <path id="m7590bb871e5" data-name="m7590bb871e" class="st4" d="M301.29,345.92v3.5"/>
  <text class="st29" transform="translate(288.56 360.52)"><tspan x="0" y="0">2034</tspan></text>
  <text class="st22" transform="translate(180.47 374.96)"><tspan x="0" y="0">Year</tspan></text>
  <g class="st11">
    <path class="st5" d="M58.68,345.92h266.87"/>
  </g>
  <path id="m45a698658f" class="st4" d="M58.68,345.92h-3.5"/>
  <text class="st29" transform="translate(45.32 349.72)"><tspan x="0" y="0">0</tspan></text>
  <rect class="st6" x="58.68" y="68.72" width="266.87" height="277.2"/>
  <path class="st5" d="M58.68,306.32h266.87"/>
  <path id="m45a698658f1" data-name="m45a698658f" class="st4" d="M58.68,306.32h-3.5"/>
  <text class="st29" transform="translate(45.32 310.12)"><tspan x="0" y="0">2</tspan></text>
  <g class="st44">
    <path class="st5" d="M58.68,266.72h266.87"/>
  </g>
  <path id="m45a698658f2" data-name="m45a698658f" class="st4" d="M58.68,266.72h-3.5"/>
  <text class="st29" transform="translate(45.32 270.52)"><tspan x="0" y="0">4</tspan></text>
  <g class="st20">
    <path class="st5" d="M58.68,227.12h266.87"/>
  </g>
  <path id="m45a698658f3" data-name="m45a698658f" class="st4" d="M58.68,227.12h-3.5"/>
  <text class="st29" transform="translate(45.32 230.92)"><tspan x="0" y="0">6</tspan></text>
  <g class="st21">
    <path class="st5" d="M58.68,187.52h266.87"/>
  </g>
  <path id="m45a698658f4" data-name="m45a698658f" class="st4" d="M58.68,187.52h-3.5"/>
  <text class="st29" transform="translate(45.32 191.32)"><tspan x="0" y="0">8</tspan></text>
  <g class="st35">
    <path class="st5" d="M58.68,147.92h266.87"/>
  </g>
  <path id="m45a698658f5" data-name="m45a698658f" class="st4" d="M58.68,147.92h-3.5"/>
  <text class="st29" transform="translate(38.95 151.72)"><tspan x="0" y="0">10</tspan></text>
  <g class="st47">
    <path class="st5" d="M58.68,108.32h266.87"/>
  </g>
  <path id="m45a698658f6" data-name="m45a698658f" class="st4" d="M58.68,108.32h-3.5"/>
  <text class="st29" transform="translate(38.95 112.12)"><tspan x="0" y="0">12</tspan></text>
  <g class="st56">
    <path class="st5" d="M58.68,68.72h266.87"/>
  </g>
  <path id="m45a698658f7" data-name="m45a698658f" class="st4" d="M58.68,68.72h-3.5"/>
  <text class="st29" transform="translate(38.95 72.52)"><tspan x="0" y="0">14</tspan></text>
  <text class="st22" transform="translate(32.67 281.19) rotate(-90)"><tspan x="0" y="0">DC installed capacity (GW)</tspan></text>
  <g class="st48">
    <path class="st3" d="M58.68,320.97l48.52-8.71,48.52-21.78,48.52-53.46,48.52-39.6,72.78-29.7"/>
  </g>
  <g class="st14">
    <path id="ma3e1f7f57c" class="st2" d="M58.68,323.97c.8,0,1.56-.32,2.12-.88.56-.56.88-1.33.88-2.12s-.32-1.56-.88-2.12c-.56-.56-1.33-.88-2.12-.88s-1.56.32-2.12.88c-.56.56-.88,1.33-.88,2.12s.32,1.56.88,2.12c.56.56,1.33.88,2.12.88Z"/>
    <path id="ma3e1f7f57c1" data-name="ma3e1f7f57c" class="st2" d="M107.2,315.26c.8,0,1.56-.32,2.12-.88.56-.56.88-1.33.88-2.12s-.32-1.56-.88-2.12c-.56-.56-1.33-.88-2.12-.88s-1.56.32-2.12.88c-.56.56-.88,1.33-.88,2.12s.32,1.56.88,2.12c.56.56,1.33.88,2.12.88Z"/>
    <path id="ma3e1f7f57c2" data-name="ma3e1f7f57c" class="st2" d="M155.72,293.48c.8,0,1.56-.32,2.12-.88.56-.56.88-1.33.88-2.12s-.32-1.56-.88-2.12c-.56-.56-1.33-.88-2.12-.88s-1.56.32-2.12.88c-.56.56-.88,1.33-.88,2.12s.32,1.56.88,2.12c.56.56,1.33.88,2.12.88Z"/>
    <path id="ma3e1f7f57c3" data-name="ma3e1f7f57c" class="st2" d="M204.25,240.02c.8,0,1.56-.32,2.12-.88.56-.56.88-1.33.88-2.12s-.32-1.56-.88-2.12c-.56-.56-1.33-.88-2.12-.88s-1.56.32-2.12.88c-.56.56-.88,1.33-.88,2.12s.32,1.56.88,2.12c.56.56,1.33.88,2.12.88Z"/>
    <path id="ma3e1f7f57c4" data-name="ma3e1f7f57c" class="st2" d="M252.77,200.42c.8,0,1.56-.32,2.12-.88.56-.56.88-1.33.88-2.12s-.32-1.56-.88-2.12c-.56-.56-1.33-.88-2.12-.88s-1.56.32-2.12.88c-.56.56-.88,1.33-.88,2.12s.32,1.56.88,2.12c.56.56,1.33.88,2.12.88Z"/>
    <path id="ma3e1f7f57c5" data-name="ma3e1f7f57c" class="st2" d="M325.55,170.72c.8,0,1.56-.32,2.12-.88.56-.56.88-1.33.88-2.12s-.32-1.56-.88-2.12c-.56-.56-1.33-.88-2.12-.88s-1.56.32-2.12.88c-.56.56-.88,1.33-.88,2.12s.32,1.56.88,2.12c.56.56,1.33.88,2.12.88Z"/>
  </g>
  <g class="st52">
    <path class="st7" d="M58.68,320.97l48.52-9.7,48.52-26.73,48.52-67.32,48.52-59.4,72.78-79.2"/>
  </g>
  <g class="st12">
    <path id="m221442b522" class="st40" d="M55.68,323.97h6v-6h-6v6Z"/>
    <path id="m221442b5221" data-name="m221442b522" class="st40" d="M104.2,314.27h6v-6h-6v6Z"/>
    <path id="m221442b5222" data-name="m221442b522" class="st40" d="M152.72,287.54h6v-6h-6v6Z"/>
    <path id="m221442b5223" data-name="m221442b522" class="st40" d="M201.25,220.22h6v-6h-6v6Z"/>
    <path id="m221442b5224" data-name="m221442b522" class="st40" d="M249.77,160.82h6v-6h-6v6Z"/>
    <path id="m221442b5225" data-name="m221442b522" class="st40" d="M322.55,81.62h6v-6h-6v6Z"/>
  </g>
  <g class="st16">
    <path class="st8" d="M58.68,320.97l48.52-7.72,48.52-14.85,48.52-37.62,48.52-25.74,72.78-23.76"/>
  </g>
  <g class="st50">
    <path id="m901aaa5e3c" class="st36" d="M58.68,317.97l-3,6h6l-3-6Z"/>
    <path id="m901aaa5e3c1" data-name="m901aaa5e3c" class="st36" d="M107.2,310.25l-3,6h6l-3-6Z"/>
    <path id="m901aaa5e3c2" data-name="m901aaa5e3c" class="st36" d="M155.72,295.4l-3,6h6l-3-6Z"/>
    <path id="m901aaa5e3c3" data-name="m901aaa5e3c" class="st36" d="M204.25,257.78l-3,6h6l-3-6Z"/>
    <path id="m901aaa5e3c4" data-name="m901aaa5e3c" class="st36" d="M252.77,232.04l-3,6h6l-3-6Z"/>
    <path id="m901aaa5e3c5" data-name="m901aaa5e3c" class="st36" d="M325.55,208.28l-3,6h6l-3-6Z"/>
  </g>
  <path class="st1" d="M58.68,345.92V68.72"/>
  <path class="st1" d="M58.68,345.92h266.87"/>
  <text class="st22" transform="translate(127.34 62.72)"><tspan x="0" y="0">Data-centre capacity</tspan></text>
  <path class="st3" d="M66.78,80.51h18"/>
  <path id="ma3e1f7f57c6" data-name="ma3e1f7f57c" class="st2" d="M75.78,83.51c.8,0,1.56-.32,2.12-.88.56-.56.88-1.33.88-2.12s-.32-1.56-.88-2.12c-.56-.56-1.33-.88-2.12-.88s-1.56.32-2.12.88c-.56.56-.88,1.33-.88,2.12s.32,1.56.88,2.12c.56.56,1.33.88,2.12.88Z"/>
  <text class="st25" transform="translate(91.98 83.66)"><tspan x="0" y="0">A · Base (~50%)</tspan></text>
  <path class="st7" d="M66.78,93.72h18"/>
  <path id="m221442b5226" data-name="m221442b522" class="st40" d="M72.78,96.72h6v-6h-6v6Z"/>
  <text class="st25" transform="translate(91.98 96.87)"><tspan x="0" y="0">B · Upside (~25%)</tspan></text>
  <path class="st8" d="M66.78,106.93h18"/>
  <path id="m901aaa5e3c6" data-name="m901aaa5e3c" class="st36" d="M75.78,103.93l-3,6h6l-3-6Z"/>
  <text class="st25" transform="translate(91.98 110.08)"><tspan x="0" y="0">C · Downside (~25%)</tspan></text>
  <path class="st31" d="M405.61,345.92h266.87V68.72h-266.87v277.2Z"/>
  <g class="st43">
    <path id="mac9458e77a" class="st34" d="M405.61,330.8h0l48.52-7.56,48.52-5.04,48.52-10.08,48.52-12.6,72.78-12.6V93.92h0l-72.78,75.6-48.52,63-48.52,55.44-48.52,25.2-48.52,17.64Z"/>
  </g>
  <g class="st9">
    <path class="st5" d="M405.61,345.92V68.72"/>
  </g>
  <path id="m7590bb871e6" data-name="m7590bb871e" class="st4" d="M405.61,345.92v3.5"/>
  <text class="st29" transform="translate(392.89 360.52)"><tspan x="0" y="0">2024</tspan></text>
  <g class="st18">
    <path class="st5" d="M454.13,345.92V68.72"/>
  </g>
  <path id="m7590bb871e7" data-name="m7590bb871e" class="st4" d="M454.13,345.92v3.5"/>
  <text class="st29" transform="translate(441.41 360.52)"><tspan x="0" y="0">2026</tspan></text>
  <g class="st19">
    <path class="st5" d="M502.65,345.92V68.72"/>
  </g>
  <path id="m7590bb871e8" data-name="m7590bb871e" class="st4" d="M502.65,345.92v3.5"/>
  <text class="st29" transform="translate(489.93 360.52)"><tspan x="0" y="0">2028</tspan></text>
  <g class="st57">
    <path class="st5" d="M551.18,345.92V68.72"/>
  </g>
  <path id="m7590bb871e9" data-name="m7590bb871e" class="st4" d="M551.18,345.92v3.5"/>
  <text class="st29" transform="translate(538.45 360.52)"><tspan x="0" y="0">2030</tspan></text>
  <g class="st32">
    <path class="st5" d="M599.7,345.92V68.72"/>
  </g>
  <path id="m7590bb871e10" data-name="m7590bb871e" class="st4" d="M599.7,345.92v3.5"/>
  <text class="st29" transform="translate(586.97 360.52)"><tspan x="0" y="0">2032</tspan></text>
  <g class="st46">
    <path class="st5" d="M648.22,345.92V68.72"/>
  </g>
  <path id="m7590bb871e11" data-name="m7590bb871e" class="st4" d="M648.22,345.92v3.5"/>
  <text class="st29" transform="translate(635.49 360.52)"><tspan x="0" y="0">2034</tspan></text>
  <text class="st22" transform="translate(527.4 374.96)"><tspan x="0" y="0">Year</tspan></text>
  <g class="st33">
    <path class="st5" d="M405.61,345.92h266.87"/>
  </g>
  <path id="m45a698658f8" data-name="m45a698658f" class="st4" d="M405.61,345.92h-3.5"/>
  <text class="st29" transform="translate(392.25 349.72)"><tspan x="0" y="0">0</tspan></text>
  <g class="st39">
    <path class="st5" d="M405.61,295.52h266.87"/>
  </g>
  <path id="m45a698658f9" data-name="m45a698658f" class="st4" d="M405.61,295.52h-3.5"/>
  <text class="st29" transform="translate(379.52 299.32)"><tspan x="0" y="0">200</tspan></text>
  <g class="st54">
    <path class="st5" d="M405.61,245.12h266.87"/>
  </g>
  <path id="m45a698658f10" data-name="m45a698658f" class="st4" d="M405.61,245.12h-3.5"/>
  <text class="st29" transform="translate(379.52 248.92)"><tspan x="0" y="0">400</tspan></text>
  <g class="st49">
    <path class="st5" d="M405.61,194.72h266.87"/>
  </g>
  <path id="m45a698658f11" data-name="m45a698658f" class="st4" d="M405.61,194.72h-3.5"/>
  <text class="st29" transform="translate(379.52 198.52)"><tspan x="0" y="0">600</tspan></text>
  <g class="st13">
    <path class="st5" d="M405.61,144.32h266.87"/>
  </g>
  <path id="m45a698658f12" data-name="m45a698658f" class="st4" d="M405.61,144.32h-3.5"/>
  <text class="st29" transform="translate(379.52 148.12)"><tspan x="0" y="0">800</tspan></text>
  <g class="st51">
    <path class="st5" d="M405.61,93.92h266.87"/>
  </g>
  <path id="m45a698658f13" data-name="m45a698658f" class="st4" d="M405.61,93.92h-3.5"/>
  <text class="st29" transform="translate(373.16 97.72)"><tspan x="0" y="0">1000</tspan></text>
  <text class="st22" transform="translate(366.87 321.64) rotate(-90)"><tspan x="0" y="0">Cumulative AI accelerators in India (&apos;000)</tspan></text>
  <g class="st15">
    <path class="st3" d="M405.61,330.8l48.52-12.6,48.52-15.12,48.52-20.16,48.52-22.68,72.78-27.72"/>
  </g>
  <g class="st0">
    <path id="ma3e1f7f57c7" data-name="ma3e1f7f57c" class="st2" d="M405.61,333.8c.8,0,1.56-.32,2.12-.88.56-.56.88-1.33.88-2.12s-.32-1.56-.88-2.12c-.56-.56-1.33-.88-2.12-.88s-1.56.32-2.12.88c-.56.56-.88,1.33-.88,2.12s.32,1.56.88,2.12c.56.56,1.33.88,2.12.88Z"/>
    <path id="ma3e1f7f57c8" data-name="ma3e1f7f57c" class="st2" d="M454.13,321.2c.8,0,1.56-.32,2.12-.88.56-.56.88-1.33.88-2.12s-.32-1.56-.88-2.12c-.56-.56-1.33-.88-2.12-.88s-1.56.32-2.12.88c-.56.56-.88,1.33-.88,2.12s.32,1.56.88,2.12c.56.56,1.33.88,2.12.88Z"/>
    <path id="ma3e1f7f57c9" data-name="ma3e1f7f57c" class="st2" d="M502.65,306.08c.8,0,1.56-.32,2.12-.88.56-.56.88-1.33.88-2.12s-.32-1.56-.88-2.12c-.56-.56-1.33-.88-2.12-.88s-1.56.32-2.12.88c-.56.56-.88,1.33-.88,2.12s.32,1.56.88,2.12c.56.56,1.33.88,2.12.88Z"/>
    <path id="ma3e1f7f57c10" data-name="ma3e1f7f57c" class="st2" d="M551.18,285.92c.8,0,1.56-.32,2.12-.88.56-.56.88-1.33.88-2.12s-.32-1.56-.88-2.12c-.56-.56-1.33-.88-2.12-.88s-1.56.32-2.12.88c-.56.56-.88,1.33-.88,2.12s.32,1.56.88,2.12c.56.56,1.33.88,2.12.88Z"/>
    <path id="ma3e1f7f57c11" data-name="ma3e1f7f57c" class="st2" d="M599.7,263.24c.8,0,1.56-.32,2.12-.88.56-.56.88-1.33.88-2.12s-.32-1.56-.88-2.12c-.56-.56-1.33-.88-2.12-.88s-1.56.32-2.12.88c-.56.56-.88,1.33-.88,2.12s.32,1.56.88,2.12c.56.56,1.33.88,2.12.88Z"/>
    <path id="ma3e1f7f57c12" data-name="ma3e1f7f57c" class="st2" d="M672.48,235.52c.8,0,1.56-.32,2.12-.88.56-.56.88-1.33.88-2.12s-.32-1.56-.88-2.12c-.56-.56-1.33-.88-2.12-.88s-1.56.32-2.12.88c-.56.56-.88,1.33-.88,2.12s.32,1.56.88,2.12c.56.56,1.33.88,2.12.88Z"/>
  </g>
  <g class="st38">
    <path class="st7" d="M405.61,330.8l48.52-17.64,48.52-25.2,48.52-55.44,48.52-63,72.78-75.6"/>
  </g>
  <g class="st37">
    <path id="m221442b5227" data-name="m221442b522" class="st40" d="M402.61,333.8h6v-6h-6v6Z"/>
    <path id="m221442b5228" data-name="m221442b522" class="st40" d="M451.13,316.16h6v-6h-6v6Z"/>
    <path id="m221442b5229" data-name="m221442b522" class="st40" d="M499.65,290.96h6v-6h-6v6Z"/>
    <path id="m221442b52210" data-name="m221442b522" class="st40" d="M548.18,235.52h6v-6h-6v6Z"/>
    <path id="m221442b52211" data-name="m221442b522" class="st40" d="M596.7,172.52h6v-6h-6v6Z"/>
    <path id="m221442b52212" data-name="m221442b522" class="st40" d="M669.48,96.92h6v-6h-6v6Z"/>
  </g>
  <g class="st55">
    <path class="st8" d="M405.61,330.8l48.52-7.56,48.52-5.04,48.52-10.08,48.52-12.6,72.78-12.6"/>
  </g>
  <path id="m901aaa5e3c7" data-name="m901aaa5e3c" class="st36" d="M405.61,327.8l-3,6h6l-3-6Z"/>
  <path id="m901aaa5e3c8" data-name="m901aaa5e3c" class="st36" d="M454.13,320.24l-3,6h6l-3-6Z"/>
  <path id="m901aaa5e3c9" data-name="m901aaa5e3c" class="st36" d="M502.65,315.2l-3,6h6l-3-6Z"/>
  <path id="m901aaa5e3c10" data-name="m901aaa5e3c" class="st36" d="M551.18,305.12l-3,6h6l-3-6Z"/>
  <path id="m901aaa5e3c11" data-name="m901aaa5e3c" class="st36" d="M599.7,292.52l-3,6h6l-3-6Z"/>
  <path id="m901aaa5e3c12" data-name="m901aaa5e3c" class="st36" d="M672.48,279.92l-3,6h6l-3-6Z"/>
  <path class="st1" d="M405.61,345.92V68.72"/>
  <path class="st1" d="M405.61,345.92h266.87"/>
  <text class="st22" transform="translate(456.93 62.72)"><tspan x="0" y="0">AI accelerator deployment</tspan></text>
  <path class="st3" d="M413.71,80.51h18"/>
  <path id="ma3e1f7f57c13" data-name="ma3e1f7f57c" class="st2" d="M422.71,83.51c.8,0,1.56-.32,2.12-.88.56-.56.88-1.33.88-2.12s-.32-1.56-.88-2.12c-.56-.56-1.33-.88-2.12-.88s-1.56.32-2.12.88c-.56.56-.88,1.33-.88,2.12s.32,1.56.88,2.12c.56.56,1.33.88,2.12.88Z"/>
  <text class="st25" transform="translate(438.91 83.66)"><tspan x="0" y="0">A · Base</tspan></text>
  <path class="st7" d="M413.71,93.72h18"/>
  <path id="m221442b52213" data-name="m221442b522" class="st40" d="M419.71,96.72h6v-6h-6v6Z"/>
  <text class="st25" transform="translate(438.91 96.87)"><tspan x="0" y="0">B · Upside</tspan></text>
  <path class="st8" d="M413.71,106.93h18"/>
  <path id="m901aaa5e3c13" data-name="m901aaa5e3c" class="st36" d="M422.71,103.93l-3,6h6l-3-6Z"/>
  <text class="st25" transform="translate(438.91 110.08)"><tspan x="0" y="0">C · Downside</tspan></text>
  <text class="st27" transform="translate(7.2 24.68)"><tspan x="0" y="0">Three scenarios for India&apos;s AI infrastructure — 2024 to 2035</tspan></text>
  <text class="st28" transform="translate(7.2 39.12)"><tspan x="0" y="0">Base case probability ~50%; upside ~25%; constraint-bound ~25%</tspan></text>
  <text class="st24" transform="translate(564.51 13.28)"><tspan x="0" y="0">Figure 21 · Techadyant Labs · 2026</tspan></text>
  <text class="st23" transform="translate(7.2 385.52)"><tspan x="0" y="0">Source: Techadyant Labs scenario model integrating CEEW, S&amp;P Global, JLL, Colliers, hyperscaler announcements.</tspan></text>
  <text class="st26" transform="translate(669.85 385.52)"><tspan x="0" y="0">Forecast</tspan></text>
</svg>