<svg viewBox="0 0 1600 900" xmlns="http://www.w3.org/2000/svg"><rect width="1600" height="900" fill="#FBF9F4"/><rect width="1600" height="8" fill="#C9A84C"/><text x="60" y="62" font-family="Arial, Helvetica, sans-serif" font-size="32" font-weight="700" fill="#0F1828">India's Agent-Era Build-Out, by Site</text><text x="60" y="90" font-family="Arial, Helvetica, sans-serif" font-size="17" fill="#4A5567">Where sovereign compute, packaging and talent are concentrating.</text><text x="1540" y="40" font-family="Arial, Helvetica, sans-serif" font-size="13" fill="#4A5567" text-anchor="end">Figure 7.1 &#183; Techadyant Labs &#183; 2026</text><svg x="520" y="120" width="640" height="655" viewBox="0 0 550 563.58">
  <defs>
    <style>
      .country { fill: #FFFFFF; stroke: #C9A84C; stroke-width: 0.25px; stroke-linejoin: round; }
      .country-accent { fill: #FFFFFF; fill-opacity: 0.99; stroke: #C9A84C; stroke-width: 0.25px; }
    </style>
  </defs>
  <g id="india-map">
    <path id="path3907" class="country" d="M80.79,454.79c.89,0,1.34-.45,1.34-.45,0,0,.89-1.94,1.04-.6.15,1.34-.15,1.94-.15,2.39s.89,1.34,0,1.64-1.04,1.04-1.64.15-.6-3.13-.6-3.13h0Z"/>
    <path id="path3909" class="country" d="M79,459.72s-.6-.45-.75.3c-.15.75-.45,1.04-.15,1.8.3.75.75.75,1.64,1.2s1.94,0,1.94,0l-.15-1.64-1.8-1.64h-.75Z"/>
    <path id="path3911" class="country" d="M84.53,465.39c.15.6.75,1.04.75,1.04l-.3,1.2,1.64.45s.75-.45.6-1.2c-.15-.75-.15-1.2-.75-1.49-.6-.3-1.94,0-1.94,0h0Z"/>
    <path id="path3913" class="country" d="M93.34,464.5v1.64l1.2.6.89-.75s.3-1.04-.3-1.2c-.6-.15-1.8-.3-1.8-.3h0Z"/>
    <path id="path3915" class="country" d="M82.14,470.47l-.3,1.34.89.45.89.15-.3.89s-.15.75.75,1.04c.89.3,1.34.15,1.34.15l-.3-1.34.15-.75"/>
    <path id="path3917" class="country" d="M81.69,471.21l1.49,1.49s.15,1.2.75,1.64c.6.45,1.64,0,1.64,0,0,0,.15-.89,0-1.49s0-1.04,0-1.04c0,0,0-.45-.89-.75s-.75-1.04-1.34-1.2-1.34.89-1.64,1.34h0Z"/>
    <path id="path3919" class="country" d="M97.96,468.53c-.3.75-.45,2.69.6,2.54,1.04-.15,1.04.45,1.49-.45.45-.89.75-1.2.75-2.09s-.15-2.39-1.04-1.64c-.89.75-1.8,1.64-1.8,1.64h0Z"/>
    <path id="path3921" class="country" d="M93.63,471.21s-.45,1.34.45,1.49c.89.15,1.49,1.04,1.49,0s.6-1.94-.3-1.94-1.64.45-1.64.45h0Z"/>
    <path id="path3923" class="country" d="M93.04,474.35c0,.89-.15,1.8.75,1.8s1.64-.3,1.64-.89-.15-1.04-.75-1.04-1.64.15-1.64.15h0Z"/>
    <path id="path3925" class="country" d="M86.62,475.99s-.3,1.04.6,1.2,2.09-.6,1.94-1.2c-.15-.6-2.39-.75-2.39-.75l-.15.75h0Z"/>
    <path id="path3927" class="country" d="M83.63,477.63c.3,1.04,1.04,2.99,1.8,2.24.75-.75,1.2-1.8,1.2-1.8l-2.24-1.49-.75,1.04h0Z"/>
    <path id="path3929" class="country" d="M89.75,479.13c.89.75,2.09,1.04,2.24.45s1.04-.89.3-1.34-1.94-1.2-2.09-.45c-.15.75-.45,1.34-.45,1.34h0Z"/>
    <path id="path3931" class="country" d="M107.22,480.17c.89,1.34,1.94,1.8,1.94,1.8,0,0,1.04.3,1.2-.89.15-1.2,1.64-1.2-.15-2.09s-1.04-2.09-2.09-.89c-1.04,1.2-.89,2.09-.89,2.09h0Z"/>
    <path id="path3933" class="country" d="M91.39,481.97c.15,1.34.89,2.09,1.49,1.34s1.64-1.8.75-1.94-2.24.3-2.24.6Z"/>
    <path id="path3935" class="country" d="M90.65,486.89c1.04-1.34,1.94-1.34.75-1.8-1.2-.45-1.64-1.8-1.94-.6-.3,1.2-.75,1.2-1.04,1.64-.3.45-.3.6.45,1.64s.6,1.64,1.49,1.49c.89-.15,1.34.6,1.2-.6s-.89-1.8-.89-1.8h0Z"/>
    <path id="path3937" class="country" d="M86.32,488.98c.15.75,2.24.6,2.24,0s.6-1.2-.45-1.49c-1.04-.3-2.99-.3-2.69.75s.89.75.89.75h0Z"/>
    <path id="path3939" class="country" d="M85.12,489.58c-.15,1.04.15,2.54.75,2.09.6-.45,2.09-.89,1.04-1.49s-1.8-.6-1.8-.6h0Z"/>
    <path id="path3943" class="country" d="M106.03,490.78c0,1.04-.45,1.94,1.04,1.94s2.24.75,1.94-.45-.89-2.09-.89-2.09c0,0-1.64.15-2.09.6h0Z"/>
    <path id="path3945" class="country" d="M93.48,508.99c.75,1.49,1.34,1.49,1.64.75s.89-.15.3-1.34-1.2-1.94-1.2-1.94c0,0-1.04-.15-1.64.6s-1.04,1.94-1.04,1.94h1.94Z"/>
    <path id="path3947" class="country" d="M95.28,516.17c.45,1.04,1.2,1.8,1.2,1.8,0,0,1.04-.6,1.04-1.34s.89-.3,0-1.2c-.89-.89-2.09.6-2.24.75h0Z"/>
    <path id="path3904" class="country" d="M375.63,218.63l-2.51,3.76.57,2.85s-1.03-.23-1.6-.34-2.28-.46-2.28-.46c0,0-1.14.8-1.6,1.14-.46.34-2.85.46-2.85.46l-1.14.34s-.8.57-1.6.34c-.8-.23-1.49-.46-1.94-.11-.46.34.23,1.14-1.49,1.26-1.71.11-4.34.8-4.79.34-.46-.46-2.28-2.16-2.28-2.16l-1.37-.11-1.26,1.03s-1.26,0-1.6.69.23,1.26-.46,1.14c-.69-.11-1.83-.46-1.83-.46l-.69.69-1.71.92-3.88,4.22s.92,5.59,1.37,5.81c.46.23,2.96,1.37,2.96,1.37,0,0,.92.11.92,1.14s-.69.57-.57,1.83c.11,1.26.57,2.62.57,2.62l.69,1.6,13.12-3.76,18.82.92-2.05,5.36,1.14,2.16s2.28,1.37,2.85,1.6,1.14.57,1.14.57l-1.37.11s-2.05.11-1.49,1.03,1.37,1.37,1.49,1.94,0,1.14,0,1.14c0,0-1.49-.23-1.6,1.37s-.11,2.62-.11,2.62l2.39,5.14s7.07.23,7.64-.46,3.08-3.31,3.99-5.59,3.88-9.35,3.76-13.92c-.11-4.57,4.11-9.58,7.19-14.49,3.08-4.91,8.79-12.32,11.07-13.57s7.19-4.91,7.19-4.91c0,0,5.48-4.79,5.59-5.36.11-.57-1.83-4.91-1.83-4.91l-.11-6.84s-6.5-1.37-9.35.46-12.55,6.84-18.02,9.24c-5.48,2.4-10.84,7.07-12.32,7.53s-8.79,2.74-8.79,2.74h0Z"/>
    <path id="path3901" class="country" d="M411.91,219.21l.8-1.94,1.26-.34.8-.11.23-.23,1.14-.8s.46-.8.8-1.49-.23-1.03.69-1.14,2.16-.23,2.16-.23c0,0-.23-.23.34-.46s1.71-.34,1.71-.34c0,0,.92-.57,1.37-1.03.46-.46,1.49-1.14,1.49-1.14l-.69-.8-2.05-1.6s-1.26-1.26-1.14-2.05c.11-.8.46-1.6.92-2.62s1.03-2.05,1.03-2.05c0,0,.11-.8-.57-.8s-1.49-.11-2.39.23-1.6.57-1.6.57l-.69,1.49s-.8.8-1.94.57-1.49-.23-1.94.34c-.46.57-.69,1.03-1.37,1.37s-.8.92-2.05.92-1.49-.23-1.71.57.46.92-.57,1.14c-1.03.23-2.16-.57-2.28,0-.11.57,1.14,1.6-.34,1.6s-3.54-.34-4.22.34-1.6,1.71-1.94,2.51-2.51,2.28-2.74,2.85-.23,1.37-1.14,2.05-.92,1.49-.92,1.49c0,0-.69,1.03-.92,1.49s-1.6.8-2.62.8-2.05-.23-3.08,0-1.49,1.14-1.49,1.14c0,0-1.14-.11-2.16-.46s-1.6-1.37-3.65-.92c-2.05.46-1.26.23-2.74.92-1.49.69-.92.8-2.16,1.03-1.26.23-2.05.8-2.05.8,0,0-1.03-.34-1.03-.8s.31-3,.57-3.88c.48-1.63-1.83-1.71-3.31-1.94s-3.31.23-3.76-.11c-.46-.34-1.03-1.71-.69-2.28s-.34-4.11-.11-4.57,1.94.11,2.62.8,1.37,1.94,2.74,1.26-.34-1.26,2.05-1.6,2.39-.34,3.76-.34,3.42-1.03,3.42-1.49.23-1.49-.23-2.16c-.46-.69-1.94-.23-.46-1.03s1.83-1.6,2.28-1.94c.46-.34-.34-.8.92-1.26,1.26-.46,3.65-1.03,3.65-1.03,0,0,.8-1.03.69-1.6s-.11-2.16.46-2.51.8-1.71,1.71-1.83,1.26.34,2.28.46.11-.46,2.05-.92c1.94-.46,2.05-.69,2.05-.69,0,0,.57-.8,1.49-2.05s1.26-.8,1.6-1.94c.34-1.14.11-1.94,1.03-2.62s1.71-.69,2.85-2.05,1.14-3.31,2.16-3.08,1.14,1.03,1.6,1.6,2.74,1.83,4.34,1.83,2.16.57,3.19.8,2.85-.69,2.96-1.49.92-1.83,1.71-2.62,3.42-2.62,4.34-2.62,1.6-.92,1.94,0,.69,1.71.69,1.71l1.94.34.92.46s.34,1.14-.46,1.71c-.8.57-1.94,1.37-1.94,1.37l-.57,1.71s.46.8,1.03.11-.34-.57.69-1.03,2.16-.8,2.16-.8c0,0,.8,1.26,1.14,2.05.34.8,1.14,1.94,1.37,2.39.23.46-.46,2.28-.92,2.85s-1.94,1.6-1.94,1.6l-1.26,1.37,2.62-.57s1.94-.34,2.51-.34,1.6.46,2.16.92c.57.46.69.69,1.49.57.8-.11.57-.57,1.71-.34s1.49.92,2.28,1.03,2.05,0,2.05,0c0,0,.46-.23.11,1.14s-.92,1.26-.46,1.71c.46.46.8-.23.92,1.03.11,1.26-.8,2.74-.8,2.74l-2.16,2.16-2.16,1.37s-1.37.8-.57,1.6c.8.8.46,1.94,2.05,2.85,1.6.92,1.26.8,1.83,1.71s.92,2.05.46,2.39-2.51.11-3.31,0c-.8-.11-1.14-1.03-1.94-1.71s-.34-2.16-1.49-1.6-.69.69-1.71,1.26-.8.57-1.6.46c-.8-.11-1.14.69-1.14.69,0,0-1.83.46-2.39.57s-.92-.34-1.6,1.37.8,1.83-1.37,2.96-1.6.34-2.62,1.83-3.31,1.94-3.31,2.85.92.57-.11,1.37c-2.6,2.02-3.99.57-4.22.11s-2.51-5.93-2.51-5.93h-.04Z"/>
    <path id="path3788" class="country" d="M306.64,302.81s.46.75.52,1.57c.06.83.26,1.89.37,2.06s.34.6,1.06.6,1.66-.06,1.77.06c.11.11-.14.29.34.57.49.29,1.03.32,1.03.32,0,0,.29.43.43.86.14.43.2,1,.75,1.09.55.09,1-.03,1.32-.37s.92-.32,1.34.06,1,1.51,1.63,1.66,1.46.63,1.68.49.14-.34.75-.6c.6-.26.37-1,1.2-.11.83.89.83.98,1.2.92.37-.06,2.86-.26,2.8-.8-.06-.55-.52-1.74-.29-2.26s1.06-1.17,1.49-1.03c.43.14,1.29.63,1.23.95s-.46,1.09-.29,1.54c.17.46.66,1.09,1.43.66s2.06.32,2.69-.52c.63-.83,1.54-1.29,1.89-1.91.34-.63.72-.83,1.2-.32.49.52,2.4,1.34,2.83,1.09s.98-.52,1.12-.92,0-1.68.03-2.2.66-1.17.46-1.89c-.2-.72-.6-1.29-.98-2.11-.37-.83-.75-1.12-.75-1.66s.09-2.75-.34-3.38-.89-.29-1.03-1.26c-.14-.98.32-1.54.23-2.14s-.03-1.4-.2-2.17-1-.95-.72-1.57,1.15-.92,1.2-1.46c.06-.55-.14-2.23-.8-2.32-.66-.09-2.89-.4-2.78-.75.11-.34.63-.78.69-1.06.06-.29.55-2.55-.46-3.15-1-.6-2.32,0-2.8-1.51-.49-1.51-.14-2.17.4-2.89s1.12-.66,1.6-1.54.4-1.26.26-2.09-.43-2.63-.29-3c.14-.37.26-1.06-.4-1.29s-5.84.06-6.21-.78-2.03-2.57-2.14-3.46c-.11-.89-.14-2.09.06-2.34.2-.26.09-.49,1.12-.57s2.09-.2,2.09-.8.11-2.2.43-2.8-.06-.98,1-1.09,1.89-.69,2.34-.78c.46-.09,2.6.11,2.89.09s1.83-.66,1.49-2-.34-2.23-.95-2.4c-.6-.17-2.06-.14-2.06-.83s.11-1.77-.72-1.77-1.71.4-2.23.32c-.52-.09-2.26-.89-2.17-1.37s.14-.8-.49-1.15c-.63-.34-2.11-1.46-2.34-1.63s-1.63-.89-1.77-1.03-.23-.2-.4-.03c-.12.12,1.32-1.25,1.41-2.21.04-.44-.98-.86-1.2-.89-.12-.02,4.79-3.71,3.47-2.45-.5.47,1.26-.04,1.64-1.08.22-.58-.95-1.48-.86-2.09.04-.27,2.05,4.09,3.96,5.11.33.18,1.51.44,1.49-.07-.02-.52-1.25-1.83-.93-2.23.29-.36,1.75.66,2.39.66.65,0,.49-1,.86-.95,1.2.15,2.56,3.54,3.86,4.23,1.39.72,2.71.14,3.78.35,1.69.33.33-2.45.96-1.82.51.52.33-1.11.41-2.05.04-.52-1.09-1.55-.77-1.68.28-.13.98-.16.2-.92-.47-.46-.42-1.35-.07-1.17.72.38.63-.96.62-1.08-.01-.6-1.47-1.12,1.43-.66.46.07-.12-.35-.38-1.16-.35-1.07.05-2.68-.69-2.89-.52-.15-1.77.07-2.39-.3-.97-.58-1.38-1.79-2.73-1.91-.81-.07-1.58,1.42-2.45,1.4-1.07-.01-2.18-1.37-3.29-1.39-4.91-.1-9.86,1.14-11.82,1.87-.48.18-.41,1.97.24,2.08.49.08.15.96.02,1.65-.27,1.51-.28,3.41-.47,3.69-.7,1.05-5.87,3.6-5.79,5.05.04.67,1.55,1.76,2.53,2.17.24.1,1.86-.32,1.68-.13-1.09,1.19-.42.23-.42.33,0,.89.57.64.55.84-.03.46.09,2.6-.37,3.98-.46,1.37-1.43,8.61-.55,10.84.89,2.23-3.12,11.79-4.34,12.44-1.23.66-4.34,5.32-6.58,5.49-2.23.17-6.1.52-6.47,1.57s-.78,3.69-1.74,3.29-4.6-.23-5.38.63-1.86,7.58-.66,8.58,5.67-1.32,7.29.03,4.15,4.89,4.06,5.46,2.69,5.61,2.69,5.61h0v-.02Z"/>
    <path id="path3791" class="country" d="M325.02,315.44s.21.67.64.03,1.07-.76.83-1.37c-.24-.61-.18-.86-.43-1.16s-.24-1.4-.79-.7c-.55.7-.43,1.13-.73,1.62s-.86.24-.43.83c.43.58.92.76.92.76h0Z"/>
    <path id="path3797" class="country" d="M326.76,313.52c.03.3.18.67.13,1.25-.06.58.03,1,.27,1.22s1.19.13,1.25-.03c.06-.16.27-.21.16-.73-.13-.52-.06-.3-.3-.92-.24-.61-.55-.86-.67-.89s-.83.09-.83.09h0Z"/>
    <path id="path3800" class="country" d="M329.69,312.6c-.24.37-.24.03-.49.67s-.52.64-.24,1.25c.27.61-.33,1.1.3.86s.83-.37.95-.73c.13-.37.37-.18.18-.83s-.55-1.19-.55-1.19l-.16-.03h0Z"/>
    <path id="path3803" class="country" d="M331.31,312.51c-.21.64-.13,0-.27.79-.16.79.03.7-.09,1.34-.13.64-.03.98.21,1.19s-.24.67.33.3c.58-.37.64-.24.7-1.1s.18-.49.06-1.4-.95-1.13-.95-1.13h0Z"/>
    <path id="path3806" class="country" d="M333.78,311.1c-.4.33-.76.24-.67,1.13s0,.58.43,1.59.37,1.25.58,1.59.92,1.22,1.07.79c.16-.43.27-.73.37-1.25.09-.52.4-.61.27-1.22-.13-.61-.27-.73-.55-1.46-.27-.73-1.5-1.16-1.5-1.16h0Z"/>
    <path id="path3808" class="country" d="M337.18,311.29c.27.13.64.27.7.86.06.58.18,1.13.58,1.25s.64-.64.98.18.21,1.65-.18,1.74c-.4.09-2.2-.09-2.45-.55s-.16-.76-.52-1.29-.55-.76-.58-1.22c-.03-.46-.13-.76.43-.76s1.04-.21,1.04-.21h0Z"/>
    <path id="path4071" class="country" d="M332.23,311.13c1.08-.31.92-.98.92-.98,0,0-.72.21-.92.47s-.36.52-.36.52h.36Z"/>
    <path id="path3898" class="country" d="M396.94,252.47c-.49-.81-2.82-3.55-3.63-4.12s-1.13-1.85-1.05-2.34c.08-.49.08-1.37-.49-2.02s-1.05-.33-.64-1.13.72-.81,1.13-1.05,1.21,0,1.29-.72-.16-.89.24-1.46c.41-.56,1.05-.64,1.21-1.13s.41-1.13.64-1.61c.24-.49.64-1.13,1.21-.89.56.24,1.29.56,1.77.64.49.08.56-.64.41-.97s-.56-.08-.24-.72c.33-.64.49-.81.41-1.05-.08-.24-.49-.89-.41-1.37.08-.49.16-.64.56-.97.41-.33.08-.97.81-1.53.72-.56.89-1.61.89-2.1s0-1.46.33-1.61c.33-.16,1.13-.33,1.37-.08s1.05.56,1.21.16-.08-.97.33-1.85,1.94-1.85,2.66-2.58c.72-.72,1.85-1.53,2.66-2.26.81-.72,2.66-2.18,2.66-2.18,0,0,.24-.72.89-.24s1.37.81,1.37,1.21-.33.41-.33,1.29.16.97.49,1.05.56.56.49,1.13c-.08.56-.89.64-.16,1.46s1.21.97,1.53.64c.33-.33.81-.49.81-.49,0,0,.24.08.08.89-.16.81-1.13.81-1.46,1.21-.33.41-1.69,1.37-1.61,2.1s.97,2.5.97,2.5c0,0,.33,2.1.33,2.42s.81,1.21.81,1.61-.89,2.34-1.05,2.99-.24,2.9-.24,2.9c0,0-.33,1.77-.72,2.26-.41.49-2.02,2.5-2.02,2.5,0,0-2.42,1.21-2.82,1.61s-12.66,5.89-12.66,5.89h0Z"/>
    <path id="path3895" class="country" d="M392.59,272.07c1.53-.64,5.08-1.37,5.48-2.18.41-.81.72-1.13,1.21-.64.49.49,1.05.89,1.46,1.05s-.08-.72,1.69-.33c1.77.41,2.26.89,2.26.89,0,0,1.94-.81,2.02-1.29s-.08-.72-.24-1.21c-.16-.49-.72-1.05-.08-1.53s1.13-2.42,1.29-2.74.49-2.34.49-2.34c0,0,1.05-.56,1.13-1.21.08-.64.64-2.74.64-2.74l1.29-1.77.89-2.66-.41-2.58-.81-1.13h-.64l-.64-2.18,1.29-1.29.33-.72.08-.56-1.29-.89s-.33-1.69,0-2.18.72-.97.72-.97l-.89-.81s-.49.41-.81.97-1.05,1.21-1.69,1.94c-.64.72-.41,1.05-1.05,1.21s-1.69.33-1.61-.33c.08-.64-.41-.81-.49-.49s-.64.89-.72.56-.24-.41-.81-.56c-.56-.16-1.94-.41-2.82,0s-1.21.89-1.05,1.29c.16.41.72.64.24,1.13-.49.49-.97.56-1.05,1.13-.08.56-.49,1.29-.49,1.69s.56.89-.24.64c-.81-.24-1.13-.89-1.85-.89s-1.21-.08-1.46.24c-.24.33-.41.72-.41.97s-.24,1.13-.24,1.13c0,0-.49.24-.49.49s.16.41-.33.64c-.49.24-.72.89-.72,1.13v1.94c0,.64-.56,1.13-1.05,1.61-.49.49-.72,1.05-.64,1.61.08.56.81,1.05.16,1.85-.64.81-.97,1.69-.97,1.69v1.46c0,.56-.72,1.77-.56,3.23s3.87,5.73,3.87,5.73h0Z"/>
    <path id="path3892" class="country" d="M378.32,268.36c.64,0,2.02-.24,2.66-1.05.64-.81.08-1.46,1.05-1.53s.56.89,1.13,1.21c.56.33.97,0,1.61-.56.64-.56.72-.41.72-1.29s-.81-1.13,0-1.85c.81-.72,1.85-1.77,1.85-1.77,0,0,.24.81.33,1.53s.81.89,1.05.24c.24-.64.64-1.05.64-1.05,0,0,.49.49.49,1.37s-.41,2.02-.24,3.15.56,1.46,1.46,1.46,1.77-.49,1.77-.49c0,0,.56,0,.97.24s.41-.56,1.13.64c.72,1.21,1.13.41,1.29,1.53.16,1.13.72,3.15.72,3.15,0,0-.24,2.58-.24,3.15s.08,1.29-.33,1.77c-.41.49-.89.49-.49,1.29.41.81,1.61.41,1.29,2.9-.33,2.5-.33,2.66-.33,2.66,0,0-1.46,1.05-2.58,1.29s-2.02.33-1.85,1.29.97,2.26.97,2.26c0,0,.16.56.24,1.53.08.97.64,2.02.72,2.26s.33,1.13.33,1.94v2.02s.41,2.58.33,2.99c-.08.41-.72.72-1.13,1.53-.41.81-1.29,2.34-1.29,2.74s-.24,1.69-1.13,1.13-2.34-1.46-2.34-1.46l-.72,1.05s-1.13.81-1.46.56c-.33-.24-1.05-1.85-1.05-1.85l.24-2.66s-.56-1.69-.49-2.18-.24-2.18-.33-2.82-.33-2.18-.33-2.9.08-1.53-.64-2.18c-.72-.64-2.1-2.58-1.94-2.99.16-.41,1.21-3.23,1.21-3.23,0,0-1.29-2.02-1.53-2.58-.24-.56-1.05-1.77-.89-2.5s.08-2.02-.33-2.26-1.21-.89-1.13-1.53c.08-.64.97-1.13.08-1.13s-1.85-3.79-1.85-3.79l.33-3.23h0Z"/>
    <path id="path3889" class="country" d="M379.36,276.02l.16-.64c.16-.64.49-.33.49-1.21s-.56-1.37,0-1.13,1.13-.64,1.05-1.21c-.08-.56-.16-.64-.56-1.13s-.41-1.53-.24-2.18c.16-.64.81-.41.08-1.21-.72-.81-.72.16-.81-1.53s-.16-1.13-.41-1.85-.33-1.69-.81-1.13c-.49.56-2.02.72-2.34.64-.33-.08-.64-.49-.97,0s.16,2.99.08,3.31c-.08.33-1.77-.08-1.77-.08,0,0-.89-.16-1.13.16s-1.29.97-1.29.97l-.72,1.05s-1.53.49-2.02.56c-.49.08-1.29.33-1.53.81s-1.13,2.26-1.13,2.58.41.97-.08,1.53c-.49.56-.89,1.85-.81,2.18.08.33,0,2.02.24,2.34s1.53,1.77,1.61,2.18c.08.41.97,3.31.89,3.71-.08.41.49,2.34.49,2.34,0,0,1.61.08,1.61-.24v-1.85s.89.41,1.13.89c.24.49.33,2.34.72,2.5s2.34.64,2.74.41c.41-.24,1.29-1.85,1.37-2.26s-.08-2.5-.33-3.07c-.24-.56-1.13-.72-.41-1.37s1.21-1.05,1.46-1.61.81-3.39.81-3.39c0,0,.16-.81.81-.72s1.61-.33,1.61-.33h0Z"/>
    <path id="path3886" class="country" d="M345.24,247.06s.81,1.05,1.05.56c.24-.49.89-.81.64-1.46s-.72-.97-.81-1.46-.41-1.21-.08-1.53.97-1.53.97-1.53c0,0-.41-.56.16-.56s.89.16,1.61,0c.72-.16.64-.16,1.05-.56.41-.41.49-.72,1.37-.72s.64,0,1.37-.33c.72-.33,1.37-.41,1.46.33.08.72-.41.89.24,1.05.64.16.64-.41,1.21-.97.56-.56.97-.97,1.05-.64.08.33.33,1.69.33,1.69,0,0-.08.64.64.41.72-.24,1.05-.89,1.77-.49.72.41,1.53.56,1.85.49.33-.08.81-.08.81-.49s-.33-.49.49-.64c.81-.16,1.05.33,1.05-.24s.24-1.61.24-1.61c0,0,1.37-.24,1.37.16s.16.81.16.81c0,0,.49.56.81-.24.33-.81,0-1.05,1.21-1.05s1.29.56,1.85-.33,1.46-2.34,2.02-2.02,1.46,1.13,1.46,1.61-.56.81-.08,1.13c.49.33.89.64.33,1.05-.56.41-1.21,0-.81.89.41.89.64.89.64,1.46s.33.49,1.05.16,1.37-1.05,2.42-.56.64.72,1.37.97,1.37-.08,1.53.72c.16.81.24,1.69-.24,2.26-.49.56-1.05.97.24.89s1.37-.89,1.61-.08c.16.54.3.97.41,1.29.16.49.49.64.33,1.13s-.24,1.21-.97,1.61-.81.33-1.21.97-.49,1.29-.81,1.29-.08-.64-1.05-.49c-.97.16-.81,1.13-.56,1.46s.16-.56-1.69-.24-1.77-.56-2.34.24c-.56.81.81.89-.64,1.21-1.46.33-4.36-.24-5-.24s-2.5-1.21-2.99-1.05-.16.89-1.46,1.13-3.39.08-3.71-.16c-.33-.24-.89-1.77-1.53-.56-.64,1.21-.16,1.21-1.46,1.37-1.29.16-1.53.24-2.58.08-1.05-.16-1.21-.33-2.18-.49s-1.13.08-1.61.08-1.61-.81-2.34-.97-1.53.33-2.18-.08c-.64-.41-.72-.89-.89-1.77-.16-.89-.97-1.13-.08-1.94s1.37-.81,1.29-1.46c-.08-.64-.16-1.53-.16-1.53h-.03Z"/>
    <path id="path3883" class="country" d="M330.84,228.65c1.02.13.81,2.11,2.67.37,3.29-3.07-1.93.86-3.92-5.36-.08-.33.64-1.29.64-1.29,0,0,1.13-.81.56-1.77-.56-.97-1.29-.64-1.46-1.77s.64-2.26.64-2.66.56-3.07.56-3.07l-1.77-3.31s-1.29-.97-2.58-.89-2.02,1.13-2.58,1.46c-.56.33-2.1.97-3.07,1.13s-2.02-.08-1.94.97c.08,1.05,1.21,1.46,1.37,2.02s.16,1.85-.33,2.26-1.29,2.02-1.21,2.42.64,3.07.24,3.55c-.41.49-.64,2.26-.72,2.5-.08.24.64,1.13,1.37,2.34,3.47,7.18-.89,1.46,3.07,2.4,1.83.43,1.16.41,2.14.11,2.13-.65,1.61.75,2.45-.43.5-.71,1.36.24,2.87.03.52-.07.24-.87.95-1h.01Z"/>
    <path id="path3880" class="country" d="M129.61,449.73l-1.4.87s1.23,2.08,1.31,2.18,2.35,6.3,2.67,6.72c.32.41,2.23,2.74,2.74,3.01s1.36.68,2.01,1.57,2.45,2.72,2.57,2.84c.12.12.34.89.63,1.65.29.75.68,2.38.68,2.38,0,0,1.72,2.48,1.99,3.23s.85,1.77,1.09,2.21c.24.44.72,1.46.61,2.16-.12.7-.17,1.31.1,1.67s.15,1.26.49,2.11c.34.85.85,2.5,1.17,2.99.32.49,1.43,2.48,1.6,2.86.17.39.63.34,1.04.44s1.06,1.06,1.06,1.36-.15,1.06-.63.89-.72-.29-.87-.17c-.15.12.15,2.23.75,3.49.61,1.26,1.17,2.96,1.19,3.03s.22,3.25.46,4.05c.24.8.34,2.11.8,2.62.46.51.75.95.63,1.48-.12.53-.39,1.43.32,2.25.7.83,1.46,1.82,1.67,2.25.22.44-.02,1.48.75,2.23s2.57,2.14,2.67,2.16c.1.02,2.52,2.42,3.37,2.57.85.15,1.12.15,1.29.58.17.44-.24,1.04.17,1.46s2.11,2.23,2.67,2.38,1.34-.15,1.34-.15c0,0,1.34-.7,1.65-1.36s.49-8.27.39-8.61.55-2.25,1.12-2.96,1.94-4.51,2.01-4.82c.07-.32-.61-5.31-.61-5.31l-.8-11.08-7.23-13.24s-7.98-4.99-7.98-5.19-1.91-5.26-1.91-5.26c0,0-7.83-2.76-7.98-2.86s-4.41-6.11-4.65-6.21-7.87-4.71-7.87-4.71l-3.04.24h0Z"/>
    <path id="path3877" class="country" d="M153.42,467.36c0,.05.05.81.09.86.04.05.21.55.25.99.04.44.03.75-.03,1.09-.05.34-.31.47.05.83s.29.21.48.52c.2.31.95.61.98.8.03.18.36.29.61.44s.98.41,1.14.7c.16.3-.09.68.05,1.06s.95,1.2,1.2,1.38c.25.18.92.63,1.06.73s.3-.09.41.44.26,1.23.12,1.38-.52.39-.69.67-.25.47-.12.72c.13.25.27.51.59.65.31.14,1.63.76,2.08.94.44.18.69.27.81.53s.33,1.16.2,1.32c-.13.16-.7.77-.92.87s-.78.29-.81.53c-.03.25.69,1.16.68,1.58s.12,1.2-.05,1.72c-.17.52-.69.83-.2,1.61s.92.57,1.16.86c.24.29.39.48.52.56.13.08.58.14.94-.2s1.71-.82,2.02-1.03.59-.53.92-.43c.33.1.78.25,1.07.44.29.2.69.85.59.99s-.47.67-.66.85c-.2.18-.81.17-.6.68.21.51.56.99.64,1.33.08.34-.05,1.58-.24,2.04s-.38.92-.26,1.2c.12.27.33.7.29.83s-.05.73-.42,1.19-.63.86-.72,1.14-.17.94.05.97.65.24,1.04-.25c.39-.48.6-.68.81-.68s.97.56,1.15.85.33.3.34.7c.01.41.2,2.05-.35,2.45-.55.41-1.04.65-1.2,1.03s-.38,2.04-.41,2.5c-.03.47-.14.82-.65,1.2s-.85.35-.99.82c-.14.47-.05,1.07.25,1.43s.81.52.85,1.03.08,1.38-.3,1.6c-.38.22-.61.26-.77.63-.16.36.1.73.3,1s.7.99.7,1.38-.17.98-.46,1.4-.92,1.43-.92,1.7.25.99.31,1.03c.07.04.92-.43,1.37.18s-.01,1.15.89,1.29,1.26.35,1.74.43,1.36.33,1.66.24,2.21-1.49,2.55-1.63c.34-.14,2.31-1.4,2.77-1.84s2.55-1.49,2.81-1.49,1.72-.07,1.96-.86c.24-.8.27-2.59.42-2.95s.27-3.3.26-3.61c-.01-.3.83-2.21.83-2.21,0,0,1.6-1.29,2.06-1.41s1.51,0,2.28-.04,1.77-.63,2.36-.86,3.04-.16,3.72-.25c.68-.09,2.89-.18,3.12-.48.24-.3.77-.6.42-1.11s-.59-1.38-1.5-2.16-1.32-.89-1.37-1.23c-.05-.34,1.07-3.66,1.46-4,.39-.34,1.45-1.36,1.92-1.85s1.89-1.92,1.91-2.39c.01-.47-.44-.97-.53-1.28s1.41-2.67,1.85-2.67,1.67-.2,2.08,0,2.78.44,3.28.38,3.35-.73,3.79-1.07c.43-.34.82-.22.26-.95-.56-.73-.66-2.28-.68-2.91-.01-.63.34-3.68-.05-4.18-.39-.5-.58-2.23-.55-2.55.03-.31.42-2.11.26-2.53s-.42-1.74-.73-2.43-.9-2.08-.82-2.3c.08-.22.7-.97.94-1.21.24-.25.1-.16-.16-.87s-.55-.92-.63-1.16-.01-1.82.3-2.01c.31-.2.65-2.25.73-2.45s.36-2.05,1.14-2.3c.77-.25,1.77-.56,2.09-1.02s1.5-2.06,1.57-2.23c.07-.17,0-1.38-.21-1.58s-1.15-1.28-1.12-1.49.04-.12.7-.41c.66-.29,2.67-1.72,2.76-2.18.09-.46.52-1.83.52-1.83,0,0,1.4-1.6,1.41-2.16.01-.55.07-3.06-.01-3.28s-.17-1.88-.94-2.72c-.77-.83-.94-.92-1.58-1.26-.64-.34-2.19-.55-2.5-.5s-3.1,2.45-3.42,2.73-3.28.64-3.92.59-3.27.43-3.44.51c-.17.08-.52,2.56-.87,2.56s-3.45.44-3.69.48-5.94-.64-6.07-.38-2.84,1.6-2.84,2.28-.2,3.57-.46,3.58c-.26.01-4.41-.18-4.7-.39s-1.65-1.33-1.91-1.33-2.78-1.46-3.79-.68c-1,.78-2.28,2.42-2.76,2.76-.48.34-2.78,1-2.9,1.16s.35,4.56-.43,4.97-1.28,1.6-.97,2.01c.31.42,3.16,2.48,2.43,2.91s-2.05.81-2.4,1.28-.69,1.79-.69,1.79c0,0-6.07,0-6.81-.04s-2.16-.13-2.33.92-.29,2.02-.61,1.96c-.33-.07-5.31-1.62-6.01-1.84s-1.17-.1-1.17-.1h0l-.04.02Z"/>
    <path id="path3874" class="country" d="M182.9,450.16s.07,1.52.36,1.99c.3.47,1.16.6,1.56.76.4.16,1.26.43,1.36.83.1.4.6.96.96.96s.86-.2.86-.2c0,0-.07-1.03-.07-1.29s.56-.3.76-.1.6.4.73.4.2-.67.23-1.12c.03-.47-.1-.5.23-.89.33-.4.33-.69.53-.99s.6-.2.36-.76c-.23-.56-.53-1.03-.53-1.03,0,0,.03,0,.43-.13.4-.13,1.06-.36,1.26-.89.2-.53-.16-1.06.4-.69s.3.36,1.95.73c1.66.37,2.65.63,3.08.36s.56-.53,1.26-.6,1.19-.07,1.59-.03c.4.03,1.88-.86,2.19-1.16s.43-.36.53-.67c.1-.3-.33-.67.23-.96.56-.3,1.29-.89,1.72-.53.43.36.73.33,1.26.3.53-.03.69-.23,1.19.2s.33.99.92,1.06c.6.07.99-.2,1.36-.86.36-.67.2-1.03.8-1.26s.86-.76,1.06-1.19c.2-.43-.2-.83.4-.8s1.09-.07,1.32-.16-.1-.03,0-.63.1-.63.53-.53c.43.1.76,0,.66-.23s-.4-1.19-.4-1.39.53-.96.96-.63,1.85,1.23,1.99.92c.13-.3-.27-2.62-.43-3.18s-.23-1.09-.83-2.15-.83-1.49-1.16-2.08c-.33-.6-.89-2.28-.92-2.42s.1-.69.73-1.12c.63-.43,1.12-1.16,1.19-1.36s-.83-4.3-.92-4.67c-.1-.36-1.56-4.34-1.52-4.67s-.43-3.64-.16-3.81,1.62-1.23,1.92-1.66c.3-.43.83-1.19.99-1.52s.83-1.92.96-2.15,2.95-2.58,3.54-2.58,2.58-.23,3.11.27.69,1.16,1.06,1.36,1.52.8,1.92.2,1.88-3.04,2.39-3.41c.5-.36,1.03-.1.99-1.26-.03-1.16.03-1.32.8-1.56.76-.23.89-3.61,1.03-3.78.13-.16,1.62-.83,2.08-.89s2.05,1.26,2.32,1.39,1.75-.03,2.22-.1,2.62-.69,2.62-.69c0,0,1.92-1.29,2.68-1.32s2.28-.92,2.68-1.19.96-1.03,1.36-1.16.6-.73.6-1.95-.66-2.75-.73-3.47c-.07-.73-.4-2.35.07-2.35s5.79-3.38,6.19-3.81,1.09-.53,1.72-.63.92-.53,1.29-.8,1.29-.16,1.62-.33c.33-.16,4.14-3.58,4.14-3.58,0,0,.53-2.48.56-2.98s.16-1.92.63-2.22,2.65-2.55,3.87-3.01c1.23-.47,5.66-2.98,6.02-3.61s2.22-3.24,2.65-3.74c.43-.5,3.11-3.58,3.47-4.04.36-.47.83-.6,1.03-2.05.2-1.46,1.49-1.92.36-2.15s-7.41,1.36-8.11,1.36-4.4-3.87-7.18-2.71c-2.78,1.16-8.77,6.06-10.23,7.05s-4.97,2.98-5.79,3.18-7.78,6.72-7.91,6.82-5.63,4.93-6.35,4.99c-.73.07-2.68-.96-2.88-1.26-.2-.3-7.34-6.19-7.81-7.22-.47-1.03-6.42-4.54-7.85-4.77s-2.78-.2-2.78-.2c0,0-3.71-8.93-3.58-9.4s-.66-3.67-3.04-3.84c-2.39-.16-4.5-.43-6.39-.33-1.88.1-9.86-3.04-10.69-3.18s-5.36-.83-5.93.69-3.64,5.93-4.86,6.46-4.7,2.62-4.83,3.87c-.13,1.26-.99,6.09-1.62,6.72s-2.39,4.93-2.05,5.63c.33.69-1.52,11.79-1.23,12.55s-.6,14-1.39,14.4c-.8.4-1.29,4.99-.92,5.66s-6.06,2.95-5.86,4.54-1.88,10.16-2.05,10.79c-.16.63-2.55,9.3-2.02,10.63s3.08,9.76,3.08,10.63,6.52,4.54,8.37,4.27c1.85-.27,13.77,10.13,13.77,10.13h0v-.02Z"/>
    <path id="path3871" class="country" d="M112.99,403.38l-1.99,1.94s.55.83.78,1.25.65,1.85.92,2.22c.28.37,0,.78.41.92s1.15,0,1.57.14.69.33.69.33l-1.8.6.18,1.34s1.11,1.11,1.34,1.48.41.65.69,1.43.65,1.52.92,1.94.69.6,1.25,1.34.18,1.48.55,1.76,1.48.23,2.45-.28c.97-.51,4.12-11.79,4.02-12.16s-6.1-4.81-6.43-4.77-5.59.51-5.59.51h0Z"/>
    <path id="path3865" class="country" d="M214.52,359.63s-.67,1.17.67,2.09c1.35.92,2.52.43,3.62.8,1.11.37,1.54.37,1.78.8s.18.43.5.67c.31.24.18.06.37.8s-.06,1.23.8,1.91c.86.67.67.18,1.23.61s.67.86.24.92-1.11-.06-1.11.5-.06,1.48.61,1.11c.67-.37.74-.74,1.11-.86s1.11-.74.92-.13-.43.8.31.8,1.11-.43,1.17,0-.55.49-.74,1.04-.18.49.13.86.74.43.67,1.17c-.06.74-.43.86.06,1.6.5.74.74,1.78,1.29,1.17s.43-1.04.98-.86,1.35.13,2.52.61c1.17.5.98.8,2.15.13s9.95-13.27,12.04-14.37-.98-9.89,2.58-11.36c3.56-1.48,5.47-6.82,5.41-7.43s-2.39-2.64-2.76-2.89-.8-4.06-.86-5.34c-.06-1.29-.55-3.5,0-4.43s1.29-4.12,1.54-4.24,7.31-.43,8.11-.92,10.68-13.7,11.05-14.68,4.79-11.85,5.34-12.96-2.02-7.55-2.15-8.42c-.13-.86-1.35-9.77-2.33-10.14s-9.7-2.76-11.05-2.82c-1.35-.06-6.45-.24-9.34.18s-16.83,2.95-17.32,4.24c-.5,1.29-.55,7.62-.8,9.15s-17.44,36.3-17.44,36.3c0,0-2.09,19.53-2.02,20.39.06.86.74,14,.74,14h0Z"/>
    <path id="path3868" class="country" d="M171.82,366.22c.65.16,1.79.86,1.79.86,0,0,.54.21.65.54.11.33.16.76.11,1.51-.05.76-.11,1.09.27,1.79s.44,1.46.44,2.11.21,1.63-.38,1.95c-.6.33-.44,1.19-1.09,1.19s-1.19,0-1.3.6-.7,1.19.54,1.46c1.25.27,1.03-.16,1.25.27s1.63.76,2.16.7-.6,1.57-1.03,1.68c-.44.11-.92.11-1.3.6s-1.3,1.14-1.51,1.46c-.21.33-.54.76-.92,1.19-.38.44.05,1.03.49,1.14s.7.33.65.7c-.05.38-.6.92-.49,1.3s.7.81.38,1.09-.98.6-.81,1.25.54.7.33,1.63.21,1.3.05,1.51-1.19.98-1.79,1.57-.98,1.25-.7,1.46,1.63.81,1.79.92.7-.38,1.09-.33c.38.05.54.6,1.25.7.7.11,1.09.33.76.54s-1.35.38-1.41.86-.38,1.09-.38,2.22.21,1.79-.21,2.11c-.44.33-1.46,1.03-2.06.81s-1.14.05-1.35-.54c-.21-.6-.54-.98-.86-.81s-1.79-.11-2.16.38c-.38.49-1.03.81-.86,1.35.16.54,1.03.92.98,1.51s-.11.6.11.98c.21.38.54.49.16.92s-1.25,2.22-1.84,2.28c-.6.05-1.51-.16-.7.49s1.46.21,1.68,1.25c.21,1.03.76,1.68,1.03,1.84.27.16.7,2.82-.11,2.87-.81.05-2.06.6-2.71.38s-1.19-.54-1.9-.6c-.7-.05-1.3.21-1.3.65s.05.7.6,1.09c.54.38,1.41.7,1.19,1.35-.21.65.27.86-.44,1.25-.7.38-.92,1.68-.98,2.28s-.49,1.25,0,1.68,1.19.98,1.79,1.03.81.6.81.6c0,0-.81.16-.86.76-.05.6.81,2,1.51,2.11.7.11,2.06.49,2.06.49,0,0,.11-1.14.11-1.46s.65-.86,1.14-.33c.49.54,1.51,1.14,1.9,1.3s.86.05.92-.38,0-.92.44-.81.81.38,1.14.76,1.03.76.65,1.35c-.38.6-.21.76-.54.86-.33.11-.6-.11-1.14-.21s-1.09,0-1.09.44.76,1.3.98,1.63c.21.33.44,1.03.44,1.46s-.81.38-1.3-.49-2.98-.21-3.85-1.25c-.86-1.03-1.25-1.3-1.84-1.68-.6-.38-1.19-.98-1.3-.7s.54.76.65,1.79c.11,1.03.7,1.46.7,1.46,0,0,.65.7.38,1.09-.27.38-.7.86-.7,1.25s.21,1.09.21,1.09c0,0,2.11.21,2.16,0,.05-.21.38-.16.21-.92s-.54-.86-.49-1.19c.05-.33.7-.6.98-.16.27.44,1.35,1.19,1.9,1.19s1.95.76,2.16.86c.21.11.54.65.6.98.05.33.86.76,1.25.21s1.09-.6,1.35-.7.65-.16,1.19-.16.33-.33.54-.6.11,0,.54-.65.92-1.57.92-1.57c0,0,.11.33.49.81.38.49.54.65,1.25.76.7.11,1.09-.44,1.63-.38s1.14.11,1.19.65-.21.76-.33,1.25c-.11.49.38,1.51,1.14,2.06.76.54.81.49,1.57.44.76-.05,1.35,0,1.35,0,0,0,.21.65.21,1.19s-.16,1.57.11,2.11.38,1.09,1.3,1.03c.92-.05,1.35-.05,1.35-.05,0,0,.7.49.44.81s-.38.81-.49,1.3-.05.81-.38,1.46c-.33.65-.27,1.19-1.25,1.63s-1.68.65-1.79.81-.44.33-.6.76-.86,1.3-1.09,1.41-1.68-.33-2.11-.38-.98-.54-2.06-.6-1.46.05-1.63.33-.05.92-.7,1.14-.7.81-1.19,1.14-.44.27-1.09.33-1.19.76-1.19,1.57.6.92.76,1.46.05,1.46-.81,2.11-1.46,1.03-1.41,1.57c.05.54.76.6,2.16.7s1.95-.05,2,.16-.38,1.9-.76,2.16-.6.7-.6.7c0,0-.11.05-.6.33s-.81.49-1.35.49-.76-.33-1.19.65c-.44.98-.65,1.46-.92,1.63s-.86-.27-1.74-.44-2.98.54-3.3.76c-.33.21-.76-.38-1.19-.38s-1.84-.21-2.39.44-.6.98-.76,1.74c-.16.76.38,1.03-.49.81s-2.49-.27-2.71-.49c-.21-.21-1.46-.92-1.9-.98-.44-.05-.81-.33-1.09.05s-.33.7-.81.65-.65-.44-1.03-1.09-.98-1.84-2-1.79-1.3-.6-1.41-1.35c-.11-.76-.86-1.35-1.35-1.03s-1.51.54-2.11.33-1.41.11-1.41-.65.44-1.14-.33-1.35-1.35.27-2.22-.38-1.03-1.03-1.41-1.51c-.38-.49-.76-1.19-1.46-1.74-.7-.54-1.25-.11-1.25-.92s-.16-1.84-.27-2.22c-.11-.38-.49-.05-.86-.49-.38-.44-.33-.81-.38-1.14-.05-.33-.33-.7-.6-.49-.27.21-.54.54-.76.27-.21-.27-.05-.33-.38-.6-.33-.27-.33-.44-.86-.65s-.81-.05-1.09-.44c-.27-.38-.44-1.3-.86-1.35-.44-.05-2.28.44-2.6.44s-1.25-.6-1.25-.6c0,0-1.84-3.25-1.84-4.34s-.7-5.8-.7-6.34-.44-1.19-.05-2.06c.38-.86-1.14-2.82-1.03-3.58s-.76-2.49-1.41-3.52-.33-1.68-.16-2.16-.21-.33-.49-1.09c-.27-.76-.27-3.2-1.14-3.52s-1.03.16-1.03-.54.76-.98.54-1.46c-.21-.49-.86-1.3-1.46-1.51s-1.03-.27-1.09-.7.44-.21.76-.76c.33-.54,0-.81.27-1.14s.98-.44.98-.44c0,0,.54-.54.6-.98.05-.44.05-.98.05-1.41s-.11-2.06.05-2.55c.16-.49.05-.33.33-.7s.6-.54.27-1.14-.81-.38-.38-.98.65-.76.7-1.03c.05-.27.44-.27.05-1.03-.38-.76-.86-2.16-1.14-2.16s-.54-.11-.86.05c-.33.16-.86,1.03-1.19-.05-.33-1.09,2.06-5.09,2.28-6.01s-.54-6.34-.54-6.88-.27-2.93,2.44-2.98,4.34-.16,5.53-.92,7.97-6.18,9.37-6.39,3.74-4.44,5.58-4.66,3.52.11,6.28.27c2.76.16,5.96-2.22,6.66-3.69s4.55-5.74,5.74-6.18,5.2-2.28,5.48-2.65c.27-.38,1.51-.98,1.79-1.09s2.16,2.16,2.16,2.16l-.21-.27h0Z"/>
    <path id="path3832" class="country" d="M233,373.72c.18.33.27,1.4.4,1.63.61.99-.11,0,.09.05.24.05,1.97-.86,2.5-.86s1.46-.35,1.86-.83.86-1.19,1.49-1.21c.62-.03,1.16-.08,1.57-.16.41-.08.89-1.16,1.29-1.29s1.59-.38,2.19-.21c.59.16,1.21.59,1.59.81s.59.24.7.08c.11-.16.19-.51.49-.86s.83-.24.86-.83c.03-.59-.05-1-.16-1.26s-.21-.78-.21-1.29.21-.57.16-.97c-.05-.41-.54-.51-.05-1.13s.78-1.21,1.03-1.4c.24-.19.92-.21.97-.05s.46,1.57.75,1.75c.3.19.81,1.13.81,1.62s.57.24.57.24c0,0,.16-.3.86-.62s1.16-.19,1.46-.92.46-1.08,1-.89c.54.19.89.49,1.26.57.38.08,1.05.38,1.4.24.35-.13.65-.62.65-.62,0,0-.83-.35-.78-.75s.54-.46.59-.95-.59-1.03-.49-1.86c.11-.83.33-.92.97-1.13s2.11-1.11,2.56-1.73.81-1.08.81-1.57-.16-1.05-.08-1.19c.08-.13.41.05.62-.21.21-.27.35-.83.35-1s-.38-.41.3-.67c.67-.27.81-.05,1.13.13.33.19.73.05,1-.43.27-.49.43-.78.43-.78,0,0,.24.13.41.59s-.11,1.08.27,1.57c.38.49.83.73.89.43.05-.3.19-.73.19-.73,0,0,.16.49.62,1.03s.67.73.95,1.13c.27.41,1.05.7,2.19.62,1.13-.08,1.73-.08,2.65-.13s1.37-.16,1.73-.51c.35-.35,1.08-.59,1.37-1.29s.24-1.75,1.16-1.86c.92-.11,1.7-.86,2.32-.81.62.05,1.86-.19,2.26-1.03.41-.83.97-1.51,1.67-2.16s2.24-.62,2.73-1.62,1.46-.67,1.57-1.26.46-1.65-.3-1.75c-.75-.11-1.73.16-1.97-.35-.24-.51-.16-.89.33-1.16.49-.27,2.19-1.46,2.45-1.49.27-.03.21,1.08.24,1.24.03.16.24,1.4.97,1.54s1.13-.11,1.88-.41,1.73-.65,2.42-1.11c.7-.46,4.58-2.13,6.41-2.8,1.83-.67,3.66-2.21,4.23-3.02.57-.81,2.56-3.07,2.8-3.13.24-.05,1.13-1.13,1.19-1.75.05-.62-.43-1.19-.3-1.86s1.19-1.57,1.4-1.78.83-1.11,1.03-1.37-.24-1.32-.24-1.59.16-1.03.33-1.34c.16-.33-.03-.89-.24-1.24-.21-.35-2.34-1.88-2.13-2.96.21-1.08.73-1.37,1.21-1.97s1.65-1.51,2.08-1.99.86-.83,1.46-.86,1.21-.46,2.11-.83c.89-.38.21-.67,1.73-.81,1.51-.13,2.34.03,3.4-.38s1.51-.38,1.21-.75.13-.67-.35-1.46c-.49-.78-1.16-1.8-2.32-1.8s-6.28-1.49-6.58-1.65-5.72-4.77-6.79-4.99c-1.08-.21-7.23-3.58-8.09-3.21s-2.67,4.04-2.83,4.42-10.84-3.32-12.67-3.94c-1.83-.62-8.44-.78-8.47-.89s-.83,2.08-1.32,2.11-2.34.16-2.34.16c0,0-.75.07-.88.34s.72,2.67-.09,2.8c-.34.06-1.61,1.4-2.89,1.26-.72-.08-1.35.38-2.55,1.32-.31.24.31,1.24-.01,1.51-.21.17.41.18.16.32-.44.25-.47-.27-1.03-.09-.87.29,1.92,3.16.08,2.73-.13-.03-.51,1.29-1.03,1.09-.25-.1-.98-.24-1.15.35-.47,1.63-.72,1.9-1.16,2.22-.72.52.46,3.32-.69,2.56-.12-.07,1.71.72,1.49,1.16-.19.39-.82-.3-1.41.1-.41.27-.01.89-.4,1.32-.19.21-.49.04-.8.3-.55.45-1.13,3.3-1.15,2.41,0-.14-.55-.04-.95-.31-.35-.23-.62-.81-1.16-1.09-.86-.45-.87.85-1.96.51-.4-.13-1.08.04-1.52-.1-.64-.21-1.52,1.22-1.68,2.11-.16.89-.17,2.37-.98,1.65-.28-.25-.11,1.14-.39.72-.17-.24.87,1.31.35,1.54-.58.26-1.14-.78-2.06-.44-.99.37.93,2.17.05,2.86-.25.19.03,1.23.13,2.08.07.65.66,1.76.19,1.74-.43-.01.81,1.81,0,1.11-.41-.36.16,1.12.37,2.19.09.45-.07,1.14.16,2.02.19.77,2.33.99,2.25,1.3-.04.13,2.87.09,2.39.1-.21,0,.08,1.09-.24,1.7-.13.24.61.92.3.98-.13.03-.88.54-1.26.41-.42-.14-1.79-.23-1.36-.67.22-.23-.81,0-1.12-.35-.34-.37-1.83.49-2.05.11-.24-.41-1.16-2.03-1.21-2.07-.62-.43-3.24-.47-3.72-.86-.32-.25-.76.1-1.07.13-.36.04-1.23.13-1.44.44-.26.39.18,1.03-.07,1.43-.34.55,1.12,1.12,1.22,1.25.16.21,2.11.35,2.3,1.12.08.36-.14.83-.46,1.27-.21.3.9.58.67.8-.1.09-.15.95-.27,1.85-.07.55,1.82,1.17,1.66,1.57-.09.22,1.32.89.83.98-.41.07.14,3.38-.73,3.19-.31-.07,1.6.95,1.44,1.63-.15.61-.06,1.6-.87,1.82-.39.1-.83,2.05-1.43,1.92-.35-.08.13,1.19-1.16,1.12-.57.19-2.3-.94-1.54-.58s.12.18-.34.91c.35.79,1.8.78.72,1.32-.47.23-1.32,2.37-2.55,3.01-1.63.85-2.49,1.49-2.84,1.85-.16.16-.75-.33-1.1.3-.95,1.72-.41,2.91-.41,2.91l-.27,1.45-1.1,1.17-.04-.02Z"/>
    <path id="path3822" class="country" d="M103.08,336.77c.72.86,1.51,2.38,2.38,2.67.86.29,3.9,1.44,4.54,1.23.65-.21,1.37-3.1.94-3.9s-1.23-2.89-2.53-3.32c-1.3-.44-3.97.72-4.48,1.37-.5.65-.86,1.95-.86,1.95h0Z"/>
    <path id="path3819" class="country" d="M110.04,336.98l-.21,1.63s-.61.58-.76.5-1.26-.61-1.55-.72-1.3-.54-1.59-.47c-.29.07-.33.07-1.05-.15-.72-.21-2.24-.25-2.42-.25s-1.84-.83-1.84-.83c0,0-.44,1.99-.44,2.16s-.54,1.95-.79,2.45-.98,2.05-.98,2.05l.65,2.6c.04.15.98,1.05.98,1.19s-.07.79-.18,1.05c-.11.25-.29,1.23-.18,1.37.11.15,1.3.83,1.3.83l-.76,1.26s-.07,2.2-.07,2.53.07,3.32.36,3.1c.29-.21,1.26-2.02,1.44-2.2s1.7-.36,1.7-.36c0,0,.69.72.18,1.05-.5.33-1.44.36-1.59.47-.15.11-.11,1.26.04,1.48s.61.69.29.76-1.91.25-2.05.72c-.15.47.36,2.24.58,2.7.21.47.72,1.3.54,1.37-.18.07-.94.61-.94.61,0,0-.5.5.72,1.84s1.26,2.05,1.19,2.7.04,1.51.5,2.24c.47.72.76,1.59,1.44,3.14.69,1.55.44,2.74.5,3.68.07.94-.54,1.77-.25,2.28.29.5,1.3.61,1.34.94s-.86.25-.58,1.34.79,1.51.86,1.91-.47,4.15,0,5.34c.47,1.19.61,2.2.5,3.43s1.06,4.98,1.53,5.74c.47.76.79,1.7.83,2.31.04.61.21,2.13.83,2.56s1.12,1.23,1.12,1.59.83.5,1.34.36,1.48-.33,1.84-.9c.36-.58.72-.61.72-.61,0,0,1.09,1.66,1.48,1.91s1.44.86,2.02.47c.58-.4.72-1.01,1.19-1.55s.58-1.09,1.19-.83,2.02-.04,2.34-.33,1.09-.83,1.3-1.84-.18-1.4-.15-1.84.72-.33.83-1.12.07-1.77-.61-1.99c-.69-.21-1.23-1.3-1.26-1.77-.04-.47-.58-.98-.98-1.59s-.07-1.26.69-1.23,1.7.25,2.24-.29,1.12-.4,1.59-.18c.47.21,1.44.4,1.84-.33.4-.72.5-1.12,1.37-1.4.86-.29,2.09-.29,2.38-.36.29-.07.36-1.48.54-2.31.18-.83.44-.79,1.34-.25s1.15,1.48,2.53,1.09c1.37-.4,1.51-.9,2.13-1.3s4.22-.21,4.58-.36c.36-.15,1.3,0,1.12-1.01-.18-1.01-.76-1.4-.76-2.02s.29-.11.29-1.15-.44-.61-.54-1.63c-.11-1.01-.21-1.51.58-1.19s1.26,1.12,2.28,1.37c1.01.25,1.51.4,2.6.18,1.09-.21,1.34-.04,1.73.21.4.25.9.65,1.7.29.79-.36,1.3-.36,1.84-.15s1.59.65,1.8.07c.21-.58,1.26-.98.15-1.19s-1.55-1.37-1.34-1.99c.21-.61.86-.98,1.09-1.23s1.44-1.34,1.59-1.95c.15-.61.47-.21.47-.21,0,0,0,.4.07.76s.9.11,1.12-.25.47-.15.5.4c.04.54-.07,1.34.5.79.58-.54.79-1.05.98-1.95s-.5-1.01.36-1.05c.86-.04,1.63.44,1.73-.11.11-.54.04-1.19-.07-1.59-.11-.4.29-.98.47-1.34s-.04-.98,1.44-1.34,1.66-.11,2.2-1.12c.54-1.01,1.73-2.96,2.13-3.07s.65-.69.94.5.58,2.45,1.19,2.45.61.36,1.19-.58,1.01-2.24,1.3-2.74,1.09-.18,1.44-1.01-.11-.61.5-1.51.98-.36,1.44-1.01c.47-.65-.36-.94.58-1.15s.94.29.98-.25.33-.9-.04-1.34-1.99-1.73-1.77-2.56c.21-.83.54-.83.69-1.01.15-.18.5-.9.76-1.55s.76-1.05.86-1.23c.11-.18-.04.18.86.76.9.58,1.51.94,2.05.86s1.05-.36,1.19-.98c.15-.61-.15-1.01.18-1.44s.86-.15,1.3-.83c.44-.69.44-1.09.18-1.48-.25-.4.21-.61.44-.98.21-.36,1.15-1.88.76-2.24s-.72-.94-.5-1.19.98,0,1.3.36.54.76,1.05.04.76-.86,1.34-.5c.58.36,1.19.25,1.88.4s.94-.11,1.34.94c.4,1.05-.18,1.66,1.3,1.95,1.48.29,1.7.36,2.16.69s.76.58,1.4.83c.65.25,1.15.72,1.37.36.21-.36.25-.83.25-1.34s1.01-.33,1.55,0,1.37.86,2.49.65,1.34-.61,2.31-.76,1.51-.4,2.16.33,1.7,1.44,1.7,1.91-.11,1.84-.29,2.89c-.18,1.05-.58.9-.61,1.7-.04.79.25.5.58,1.3.33.79.04,1.4.33,2.13s.21,1.19.4,1.84c.18.65-.04,1.09,1.37,1.19,1.4.11,2.45.15,2.89-.25s.76-.36,1.23-.76.79-1.15.58-2.02c-.21-.86-.5-.83-.15-1.48s.5-1.34.47-1.73c-.04-.4.65-.29.9-.44s0-.69.33-1.3c.33-.61,1.09-.83,1.34-1.3s1.26-.18,1.7.15,1.09,1.55,1.95.98,1.19-.86,1.34-1.51.25-1.63.83-1.99.47-.76.07-1.09c-.4-.33-1.01-.76-1.63-.76s-2.2-1.15-2.38-1.8-.18-.9-.5-1.01-.94-.07-1.44.18c-.5.25-1.09,0-.98-.36s.54,0,.86-.54.47-.65.5-1.26.47-.98.79-1.48,1.09-.44.44-.94-.86-.69-1.19-1.26-.15-.58-.72-.61-1.44.04-.98-.54.94-.5,1.55-.83c.61-.33,1.15-.25,1.34-.44s.29-1.05.25-1.88c-.04-.83.54-1.77.07-2.13s-1.63-.5-1.8-.65-.54-.29-.07-.58c.47-.29,1.09-.54,1.09-1.19s.33-.54-.54-1.8-1.23-1.88-1.34-2.82-.33-1.37.11-1.84.65-.83,1.4-1.23,1.19-.5,1.4-.98.76-3.25-.15-3.72c-.9-.47-1.3.44-2.82-1.66-1.51-2.09-.25-3.72-3.18-2.74s-4.44,2.74-7.4,1.66c-2.96-1.09-5.52-2.93-7.26-2.24s-2.99,1.3-5.84,1.48c-2.85.18-13.39,2.09-15.12.9s-5.23-4-6.28-4-7.4-.47-8.59.4-2.49,2.42-3.21,3.68c-.72,1.26-10.65,4.44-15.99,1.48s-6.97-3.58-9.31-4.15-3.47-4.29-5.96-5.27,0-1.84-1.48-1.12c-1.48.72-4.58,1.88-5.74,2.31s-4.15-.47-3.97,1.99,1.01,6.32.83,6.97-2.67,2.85-3.35,3.68,1.77,5.92,1.26,6.32c-.5.4-3.72-2.56-4.91-.15s-1.7,5.63-2.02,6.46-.83,2.85-.83,2.85h0l.03-.02Z"/>
    <path id="path3785" class="country" d="M258.49,275.11c.16.1,1.26.4,1.92,1.24s1.87,2.25,2.34,2.63.33-.21.76.65.86,1.79,1.24,2.27.33.89.99,1.05,1.12-.11,1.32-.5c.19-.38.8-.76,1.06-.29s.99,1.06.78,1.81-.7,1.18-.89,1.66-.3.63.13,1.05.44.82.34,1.52.19,2.23.61,2.59c.42.36,1.01,1.43,1.12,1.47s.7-.06,1.54-.06,1.37-.07,1.51.13c.13.21.59.19.19.65s-.53.21-.57.61.33.89-.25,1.35-1.15.59-1.15,1.35-.5,1.24-1.01,1.45c-.52.21-2,.5-2.15.69s.07.72.4.88,1.22.53,1.66.29,2.31-.63,2.53-.3-.4,1.06-.89,1.12-1.47.16-1.7.52-.25.7-.17.83c.07.13.3.07.42.13.11.06.42-.23,1.01.52s1.15,1.87,1.88,2.04c.75.17,2.79.02,3.01-.42s.53-.57,1.2-.4c.66.17,1.92.17,2.1-.19s.21-.72.93-.65,1.56.5,2,.34c.44-.16.75-.89.89-.99s.95-.16.99.23.5,2.14.27,3.07-.04,2.44.4,2.79c.44.34.83.75,1.11.83.27.1,1.05-.13,1.05-.4s.38-.42.65-.38.86-.23,1.06-.46.88-.42.99-.25.33.5.82.38c.5-.11,1.05-.38,1.35-.13.3.25,1.32,1.12,1.51.93s.89-1.05.99-1.12.5-.23.47,0-.4.42-.44.52.11.33.21.46.07.27-.13.52c-.21.25-.34.61-.16.59s.72-.34.82-.5c.1-.16.36.04.5.1s.63.06.98-.19c.34-.25.82-.72.83-1.43.02-.7-.04-1.47.17-2.15.21-.69.47-.46.27-.92s-.59-1.43-.59-1.68,0-1.74.23-1.81,1.16.06,1.32.29.06.52,1.15.61c1.09.1,1.3,1.09,1.52,1.45s.52.88.86.93.83-.3.83-.53.25-.82.69-.53c.44.29.57.78,1.47.98.89.19,1.37.34,1.39.42.02.07.46.13.82.11s.7.02.66-.33c-.04-.34-.21-.47,0-.7s.65-.23.59-.88c-.06-.65-.02-1.03-.55-1.18s-.83-.8-.7-1.03c.13-.23.5-.4.38-.83s-.42-.66-.93-.55c-.52.11-.93-.33-.63-.69s.69-.29.69-.83.21-.47-.25-.8-.89-.04-.86-.76.11-.75.3-1.12c.19-.38.53-.53.23-.76s-.75-.63-.88-.46-.02.4-.59.23-1.26-.29-1.58-.53-.34-.69-.13-.98.44-.23.29-.86-.19-.88-.16-1.2-.07-.65-.53-.66c-.46-.02-.82-.13-1.28.07-.46.21-.36.65-1.18.52s-2.33-.29-2.82-.78-.55-.83-1.12-.86-.63.13-.93-.63-.29-1.15-.66-.95-.59.78-.88.66c-.29-.11-.46-.33-.47-.52s-.34-1.35.04-1.92.88-1.29,1.2-1.49c.33-.19,1.03-1.32,1.56-1.28s1.34.21,1.6.46c.27.25.83.52,1.18.42s1.51-1.37,1.68-1.7.5-.72.29-1.03-.47-.17-.33-.47c.16-.3.75-.42.86-.55s.53-.57,1.01-.7.63-.38.98-.42c.34-.04,1.11-.1,1.51.19s1.18.76,1.45.63.65-.66.61-1.01c-.04-.34.65-.89.89-1.2s.99-.23,1.18-.16,1.22-.17,1.43-.55-.07-.4.34-.75c.42-.34,1.05-.02,1.18.02.13.04.72.02.47-.61-.25-.63-.21-1.51.04-1.85s.89-.13,1.12-.59.5-.88.57-.65c.07.23.1,1.03.29,1.11s.72-.23.76-.5.29-.29.53-.55.52-.36.52-.55.11-.66.25-.92c.13-.25.29-.52.47-.46s.63-.04.59-.34-.25-.36-.11-.88c.13-.52.36-.65.47-.86s.4-.76.5-1.43.1-.83.34-1.18.93-1.71,1.06-2.17.17-.88.19-1.15-.07-2.42-.07-2.86-.17-.33-.06-1.09.27-.92-.11-1.29-.29-.69-.99-.83c-.7-.16-1.22.3-1.83.59s-1.03-1.29-4.67,1.91-1.77,3.52-2.21,4.46-.19,3.49-1.05,3.41-1.58-.7-1.97.19-4.29,1.39-5.53.3c-1.24-1.09-1.97-1.32-2.74-2.25-.78-.93-7.28-2.82-8.39-1.03-1.11,1.79-3.62,4.29-4.94,4.31s-3.39.1-4.96-.06-4.65.86-7.54-.16c-2.9-1.01-4.61-1.56-5.55-.98-.93.59-1.92,2.23-2.59,1.98-.66-.25-6.5-4.38-7.09-1.34s.02,7.47.02,7.47h0l.02-.04Z"/>
    <path id="path3013" class="country" d="M259.11,269.01l2,.02s.2-.3.85-.02c.64.28.02.47,1.25.57,1.23.1.91-.16,1.57.2s1.4.75,2.06.28.42-1.19.77-1.66c.34-.47,1.19-.52,1.46.18s-.36,1.55.47,1.57.71.08,1.23-.28c.52-.36.18-.08.99-.14s.87-.3,1.07-.72c.2-.42.63-.72.69-.22s-.36.99-.02,1.41.44.06.57.79.08,1.37.75,1.68c.66.3,1.41.18,1.4-.47-.02-.64-.27-1.33.52-1.07s.72.71,1.21.79.55.69.81-.27-.38-1.25.69-1.85,1.32-.99,1.78.1.33,1.94,1.21,2.32c.89.38,1.07.79,1.01-.14s-.75-1.19.61-1.05,1.4.41,1.7-.34-.3-1.07.99-1.11,2.24.22,2.73-.3-.18-.58,1.25-.58,1.88.5,2.12.02c.24-.49.08-.71.06-1.19-.02-.49.14-1.13.55-1.37s.99-.63,1.15-.85.41-.38.57-.22-.1.06.22.64-.36.66.55.77,1.35.28,1.41.1.02-.2.06-.85c.04-.64.2-1.07.36-.69s-.42.28.33.83.71.57.99.63c.28.06.24-.47.28.28s.44,1.03.63,1.07c.18.04.27.08.27.57s.04.75.42.49.5-1.33.83-.5-.14.71.14,1.4-.44.49.77,1.25,1.55.97,1.68.99c.12.02.58-.64.97-1.03s.5-.03.72-1.24c.22-1.21.49-1.45.58-1.45s.52.08.79.42.34.99.66.27.77-1.62.95-1.6c.18.02.34.16.38.58s.18,1.05.57.99c.38-.06.83-.16.93-.75s.12-.89.24-1.05c.12-.16.81.34,1.07.64.27.3.97.44,1.01.08.04-.36-.1-3.49-.12-3.82-.02-.33.08-.83.22-1.03.14-.2.75-.58.57-1.09-.18-.5-.63-.3-.52-.99s-.2-.87.34-.81.83.41,1.17-.06c.34-.47.06-.72.42-1.19.36-.47.93-.36,1.43-.34s.95-.1,1.07-.41c.12-.3.89-.24,1.17-.58.28-.34.42-.5.34-.85-.08-.34-.3-.08-.3-.75s.63-.85.44-1.55c-.18-.71-.63-.77-.63-1.78s.06-1.92.42-2.42c.36-.5.93-.97,1.43-1.03.5-.06,1.03.16,1.29-.1s.64-.52.63-.81c-.02-.28.08-.99-.41-1.27s-1.33-.58-1.66-.99-.75-1.6-.72-1.82-.34-.64-.77-.85c-.42-.2-.85-1.19-.55-1.8s.2-.75.52-.87c.33-.12.79-1.84.71-2.4-.08-.57-.08-1.01-.52-1.48s-.79-.81-1.71-.66c-.93.14-2.14.36-2.83.75s-1.54.47-2.16.36c-.63-.1-1.37,0-2.36.02s-1.13.55-1.84-.22-1.54-1.46-1.92-1.76c-.38-.3-2.22-.14-2.45.3s-.71,1.21-1.27.99c-.57-.22-1.6-.34-2-.2s-.49,1.32-1.54.12c-1.05-1.19-1.29-1.35-1.84-1.74s-1.46-.22-1.85,0-.44.97-1.17.12c-.72-.85-1.49-1.09-1.71-.95-.22.14-1.19,1.13-1.4,1.13s-.97-.81-.97-.97-.69-.58-1.23-1.43-1.46-1.62-1.98-1.46-1.35.57-1.94.77-2.12.79-2.84,0-.34-1.15-1.78-1.63c-1.43-.49-4.02-.71-4.49-1.07s-.83-.2-.89-1.29.89-2.42-.41-3.41-2.18-1.29-2.28-1.32c-.1-.02-1.43.69-1.94.27s-.12-.33-1.03-1.23-1.51-1.6-2.45-1.21-2.67.27-3.41.77-2.04.08-.97,1.15.75.85,1.23,2.04,1.46,7.91,2.1,8.32c.64.41-.22.72-.91,1.66s-.77,2.67,0,3.35.06,2.16.75,3.37.06,2.12,2.42,3.27,0,3.35-1.01,3.27-3.75,2.5-3.67,2.93c.08.42-2.48,1.68-2.26,2.24.22.57-3.92,5.39-3.78,6.47s.41,4.87,1.03,5.78c.63.91.91,3.29.91,3.29h0v-.03Z"/>
    <path id="path3805" class="country" d="M253.15,276.46l-.97,2.61-.38.68-2.32.19h-.48s1.26,1.16,1.94,1.54.78,1.16.78,1.16l-.29.48-1.06,1.26s-.78-.29-1.26-.68-1.35-.58-1.35-.29-.38.68-.87.68-1.26.78-1.26.78c0,0-.68-.19-1.54-.58s-1.26-.58-1.64-.58-1.06-.38-1.45-.87c-.38-.48-.97-.58-.97,0s-.19,1.64-1.16,1.45-.87.68-1.35-.29-1.16-1.54-1.16-1.54l.1,1.06s.78.78.87,1.26c.1.48.38.87,0,1.45-.38.58-1.45.97-1.54,1.45s.78,1.06,1.45.48,1.74-1.16,2.22-.68,1.35.38,1.74,1.54,0,1.64,1.06,1.45,1.94-1.16,2.32-.58,0,.78.68,1.45.68.58,0,1.26-.78.97-.87,1.74-.29,1.16-1.16.97-1.45-.29-2.03,0-1.16-.19-1.16.29.68.48,0,1.06-2.42.1-1.84,1.16c.58,1.06,1.84,1.54,1.94,1.94s-1.06.87-2.03.78-1.26,1.64-1.06,1.74-.29.1-.87.38-.48.87-1.06.87-.29-.58-1.26-.29-.48.19-.68.78c-.19.58-.29.97-1.45.58-1.16-.38-.29-.78-1.26-.78s-1.45-.29-1.16.48c.29.78.78,1.26.58,1.74-.19.48-1.16.38-1.16.38l-.68,1.16h-.68s-.38-.29-.29.58-.58,1.45-1.06,1.26c-.48-.19-1.16-.29-1.35.48-.19.78,0,1.74-.58,1.94s-.87.68-.38,1.06c.48.38,1.35-.1.87.48-.48.58-.58.58-1.26,1.06s.78,1.26,0,2.7-.78.78-.78,2.03.29,1.26-.38,2.13-1.06,1.06-1.06,1.06c0,0-.19-1.06-.19-1.54s.29-1.35-1.06-1.26-2.13,1.16-2.22.1.87-1.74,0-2.51c-.87-.78-.48-1.84-1.94-1.74-1.45.1-3.77.58-4.54,1.06s-1.35.48-2.51.29c-1.16-.19-1.06-1.26-2.61-.48s-1.35.48-2.03-.1-1.45-.48-2.32-.97c-.87-.48-1.84-1.26-2.22-.97s.58,1.35-.97,1.35-2.7-.68-3.29.48-.19,2.03-.68,2.13c-.48.1-2.13.78-3.58.19-1.45-.58-.68-.97-2.61-1.64s-2.8-.68-3.67.48c-.87,1.16-1.16,1.06-2.42,1.54s-1.06.68-2.61.58-2.51-.68-3.29,0-1.64.38-2.13-.38c-.48-.78-1.26-1.06-.68-1.45.58-.38,1.35-.1,1.64-.48s.97,0,.38-1.35.19-1.94-.68-2.32-2.9-1.45-3.67-.58c-.78.87.58,1.64-1.45,1.45-2.03-.19-3.96-1.16-4.74,0s-.97,1.16-1.54,2.03-.87.58-.87,1.16.29.68-.58,1.35-1.06-.19-1.16,1.45,1.45,2.03-.58,2.32-1.84.1-2.22.97.19,1.35-.68.97-1.45-.87-2.51-.48c-1.06.38-.68.78-.68-1.45s-.78-3.67-3.1-3.48-2.13.58-3.1.1-1.35-.78-2.03-.19c-.68.58-1.74.29-3.67,0s-1.16.58-2.13.68-.68-.19-.97-1.26.19-.78-.78-1.74-.78-1.06-1.84-1.35c-1.06-.29-1.74.38-2.42.38s-.48.1-1.16-.87-1.64-.48-2.13-1.45c-.48-.97.87-2.32,0-3.19s-1.16.19-1.26-.87c-.1-1.06.1-2.42-.78-1.84s-.87,2.51-2.32,2.22-1.06,1.74-3.29.1c-2.22-1.64-3.1-15.37-2.03-17.11,1.06-1.74,7.34-10.06,7.93-11.22.58-1.16.19-8.02.19-8.02,0,0-.19-19.62,1.35-20.01s15.56,2.13,16.92,2.32c1.35.19,10.34-17.5,12.47-18.37s14.79-5.8,14.79-5.8c0,0,24.84-9.47,26.49-5.12s-2.32,18.85-.68,21.07,10.34,2.7,14.7,3.77c4.35,1.06,8.7,4.06,11.7,5.22,3,1.16,6.67-.97,8.6.19s16.43-.78,16.82,2.7c.38,3.48,1.26,7.74,1.45,10.34.19,2.61-.78,6.67-.78,6.67h.01Z"/>
    <path id="path3802" class="country" d="M262.2,223.17c.19.19.65.69,1.15.61s.95-.3,1.18-.11.8,1.26.72,2.17-.11,2.78,1.06,3.2,1.98-.16,2.55.72c.57.88.38.95.72,1.56s.65.46.76.8.38.83.65,1.06c.27.23.72.88-.04,1.22s-.88.46-1.79.11-1.26-.07-1.45.16-.53,1.03-1.29,1.29-1.06.53-.42,1.03,1.91.53,2.4.99.88,1.94.57,2.4-.92.76-1.6.76-1.03-.23-.95.16.99,1.41,1.87,2.14,1.03.88,1.94,1.06,1.94,1.06,2.51,1.49,1.98,1.22,2.55,1.22,1.22.57.95,1.03c-.27.46-.11,1.18-1.11.99-.99-.19-4.31-.46-4.72-.3-.42.16-1.18-.07-1.49-.16-.3-.07-1.94.11-2.28,1.18s-.95,1.52-1.33,2.32-.04.92-.57,1.29c-.53.38-1.26.07-1.64,0s-.8-.3-.83.42.07,1.91-.46,2.25-1.33.16-1.52.72-.19.92-.69,1.29c-.5.38-.92.42-.83,1.15s-.53,2.28.07,3.5,1.79,3.04,2.14,3.5c.34.46.99,1.49.42,1.94s-.95.23-.99.95.27,1.98,0,2.44-.8,1.11-.72,2.32c.07,1.22.27,1.71.04,1.87s-2.44,1.52-2.21,1.91.69.11.72.65c.04.53-.53,1.06-1.37.95s-1.98,0-2.59-.07-.53.27-.8-.11-.34-.46-.92-.46-.61-.27-1.06-.65-.95-.65-1.18-1.03c-.23-.38-.42-1.6-.11-2.02.3-.42,0-.92.5-1.11s.72-.23,1.26-.53.72-.42.57-.5-.61-.16-1.22-.19-.95.11-.95-.72.19-1.26,0-1.52-.04-.99.19-1.26c.23-.27-.23-.27-.16-.65.07-.38.95-.69.99-.88s-.34-.27-1.18-.8-1.11-.88-1.29-.53-.3.99-.99.57-.76-1.15-1.37-.83c-.61.3-.57.76-.57,1.18s.07.95-.5.57c-.57-.38-.83-1.03-1.41-1.22-.57-.19,0,.42-.72-.8s-.46-1.49-1.41-1.49-1.22.23-1.52-.16-.23.07-1.15-.92-.88-1.15-1.87-1.22-.88-.3-1.6-.8c-.72-.5-.72-.42-1.33-.42s-.69-.53-.65-.76.8-1.15.07-.99-.76.46-1.03.61-1.18.5-1.71.11c-.53-.38-.92-.95-1.29-.46-.38.5-.46.88-.3,1.26s-.16.27-.38.61-.27.3,0,.72.61.8,0,.99-1.6.23-2.4,0-1.91-.07-2.48-.07-1.18-.5-1.11-1.06.27-.53.46-1.03.57-1.03.42-1.18-.38-.53-.38-.53c0,0-.34-.16-.69.19s-.61.3-.95.42c-.34.11-.76.23-.53.72s.8.76.23.83-.99.3-1.11-.27c-.11-.57.46-1.18-.34-.99s-1.18.19-1.15.46-.07.3-.19.53-.07.38-.07.57-.53.69-.92.19.07-.99-.92-.53-1.79.69-1.6-.11.65-.57.83-1.37c.19-.8-.34-2.48-.8-3.04s-.38-.95-.76-1.11c-.38-.16-.99-.16-1.03.19-.04.34.23.53-.27.5s-.16-.3-.99-.23-1.37.53-1.29.83-.34.8-.76.88-1.22-.34-1.26.19.23,1.75.04,2.1-1.79.3-2.55.19-.76-.23-1.41-.57-.8.3-.8.3c0,0-.04.3-.5.61-.46.3-.34.04-.69.07-.34.04-.57.53-.57.53,0,0-.72-.04-.69-.95.04-.92.46-.8.8-1.06s1.37-.38.61-.88c-.76-.5-1.45-.92-1.68-.46s-.23.3-.76.61-.69.46-.5.76c.19.3-.72.57-1.15.42-.42-.16-.34.34-.5.57-.16.23-.38.23-.46-.07s.23-.72-.3-.53-.57.46-.88-.34c-.3-.8-.57-1.87-.92-1.49s-1.06.99-1.41,1.06-.72-.16-.5-.42.61-.16.42-.69-.34-.65-.5-.92-.46-1.18.38-1.37,1.29.07,1.18-.46c-.11-.53,0-.46-.27-.72s-.42-1.26-.76-1.11-.61.11-.57.76-.23.46-.57.61c-.34.16-.27.5-.19.8s-.04,1.18-.69,1.18-.88.04-1.33-.65c-.46-.69-.53-.95-.83-.5s-.34.88-.53,1.11-.57-.07-.88.46c-.3.53-.76,1.03-.57,1.22.19.19,1.03.3,1.56.72s1.26,1.18,1.26,1.18c0,0-.04.65-.11,1.06-.07.42-.3,1.26.16,1.68s1.33,1.22,1.45,1.52.16.34-.04.8.16,1.91.38,2.1.95.3,1.06.11.83.19.83.92-.23,1.33.11,1.75-.11,1.29-.23,1.79c-.11.5-.76,1.37-.8,1.64s-.53,1.06-.53,1.06c0,0-.61-.8-1.03-.92s-.92.19-.92.19c0,0-.83-.57-1.33-1.37s-.83-1.33-1.18-1.41-.95.27-1.06.57-.76,1.49-1.03,1.45c-.27-.04-.38-1.33-.38-1.83s-2.59-2.44-2.14-3.5.76-1.22.46-1.64-.5.38-.72-.72,0-.88-.23-1.33c-.23-.46-.46-.42-.46-.83s.53-.65.92-.8,1.11-.76,1.41-1.18.72-.57.72-1.41-.11-1.03.04-1.41.04-.53-.19-.88-.76-1.71-.46-2.28.61-1.41.95-2.05,1.11-1.37,1.56-1.26c.46.11,1.26.46,1.75.3s2.05-.76,2.28-1.11.72-.53.46-.99-1.15-.19-.8-.99.72-.83,1.06-.92.92,0,.92-.3,0-.38-.04-.83c-.04-.46.23-.76.5-1.29s.92-.8.88-1.33-.3-.65-.38-1.15.61-1.06.92-1.75.76-.38,1.06-.92.92-.8.34-1.98-.92-1.45-1.15-2.02c-.23-.57.07-1.22-.8-1.83s-1.91-1.22-2.36-1.33-.42-.42-.92-.65-.5-.72-1.45-.57c-.95.16-.72.57-1.15.5-.42-.07-.57-.42-1.33-.76s-1.15-.76-1.98-.16-.72,1.11-1.91,1.18-2.05.57-2.86.57-3.58-.27-3.58-.27c0,0-4.88,1.75-5.41.69s-.92-5.48-.95-6.21c-.04-.72-2.4-10.25-2.14-10.82s2.4-4.76,2.4-4.99,1.26-4.49.19-5.87-3.2-7.62-3.2-8.19-.8-10.36-.8-10.36c0,0-.19-1.33-.11-1.64s.72-8.27,1.45-8.31c.72-.04,5.6-1.52,6.52-.83s3.54.07,4.19,2.59c.65,2.51.04,6.78.95,6.93.92.16,1.94-3.39,3.92-2.9s3.5,2.36,4.42,3.43,3.92,1.94,5.11,3.09c1.18,1.15,2.82,5.98,2.82,5.98,0,0,8.99,4.88,9.18,4.88s2.74.53,2.74.53c0,0,3.13,2.59,3.62,2.86s2.05,1.18,2.25,1.22,1.03-.92,1.11-1.22c.07-.3.53-.65,1.15-.11s1.94,2.25,2.28,2.63.8.8,1.98,1.03,2.67.53,2.67.53c0,0,3.01,2.48,3.39,2.74s.69.65,1.33.69c.65.04,1.06.27,1.26.69s.53.92,1.11,1.68c.57.76,1.26.65,1.79,1.11s.61.99,1.26,1.33,1.52.42,2.4.3c.88-.11,4.03.57,5.03,1.18s1.45,2.02,2.36,1.98c.92-.04,2.28-.16,2.7-.23s1.71.16,1.83.46.69,2.78,1.18,2.82c.5.04,4.03-.07,4.76.5.72.57.83,1.49,1.56,1.22.72-.27.99-.95,1.22-1.33s1.56-.88,2.4-.72,2.14.57,2.14.57h.01Z"/>
    <path id="path3799" class="country" d="M127.33,290.64s.07.58-.04,1.23.07,1.03.65,1.47c.58.44.82.38.82,1.09s-.68,1.57-.75,1.98c-.07.41-.24,1.26-.61,1.57-.38.31-.07.95-.89.78s-.95-.38-1.37-.17-.75.99-.72,1.26-.07.31-.24.58c-.17.27.04.55.55.95s.68.78.72,1.09-.34.92-.95.82c-.61-.1-.85-.58-1.2-.72s-1.09,0-1.06.41.38,2.22.82,2.87.75,1.23.72,1.71-.24,1.81-.24,2.08-.17.61-.58.61-.68-.07-.82.13c-.13.21-.07.72-.38.89s-1.09.24-1.09.24c0,0,.1.85.31,1.09s.41.04.24.61.07,1.06-.44,1.12-1.03.24-.89.85c.13.61.1,1.16.44,1.3.34.13.65.21,1.12-.04s.61-.34,1.43-.31.51-.07,1.33-.07.75.38,1.47-.07,1.3-.51,1.5-.34.38.48.34.82.1.65-.38.78-1.47.13-2.25.24-1.71.44-2.05.78-.31,1.23-.65,1.5-.89,1.06-1.54,1.03-.78-.51-.85-.07,0,1.37-.44,1.37-1.06.07-1.5.21c-.44.13-1.2.13-.85.41.34.27,1.54.55,1.77.68s.38-.04.95,1.03,1.3,1.33,1.3,1.81.21.99.04,1.54-.72,1.5-.95,1.94c-.24.44,0,.89-.27,1.16s-1.57.68-2.19.51c-.61-.17-1.12-.27-1.47-.31s-.89-.38-1.06-.85.1-.78-.41-.92c-.51-.13-1.47.24-1.6.72s.04.78.41,1.12c.38.34.85,1.33.41,1.84-.44.51-.92.99-.85,1.5.07.51.24,1.81-.38,2.25-.61.44-2.49,1.26-2.8,1.03-.31-.24-.85-.41-.85-.78s-.38-.82-.78-.65c-.41.17-.89-.07-.31-.58.58-.51,1.37-.1,1.16-.58s-.85-.75-1.74-.51c-.89.24-.44.31-1.16.82-.72.51-1.5.48-1.67.75s-.61.31-.21.75.85.65.78.85.72.58-.68.51-1.57-.04-2.25-.44c-.68-.41-.07-.34-.82-.44-.75-.1-1.23-.31-1.03-.78.21-.48,1.5-1.94,1.71-2.29.21-.34.65-1.23.65-1.57s-.85-1.98-.89-2.73c-.04-.75-.92-3.92-1.2-4.47s-.34-.92-.48-1.26c-.13-.34-.92-1.16-1.3-2.19-.38-1.03-.17-1.84.04-1.94s.75-.07,1.23-.68c.48-.61.27-1.03.24-1.64s.13-.99,1.12-1.2c.99-.21,1.98-.34,1.77-.92s-.1-.85-1.12-.85-2.11.72-2.9.13-.95-1.43-.85-1.67,1.57-.75,1.57-.75c0,0,.65-1.03.55-1.26-.1-.24.04-.61-.51-.75s-1.3.58-1.71-.04c-.41-.61-.27-2.76.24-3.04s2.25-.41,2.25-.78-.75-1.26-1.47-1.37-2.15-.04-2.15-.04l-.48.92s-.72,1.98-.85,2.15-1.16,1.6-.89,2.11.68,2.05.65,2.32c-.04.27-.61.92-.72,1.26s.68,2.05.68,2.05c0,0,.51,1.37.31,1.74-.21.38-1.71,1.81-2.11,2.25s-1.16,1.91-1.37,2.39c-.21.48-.31,1.2-1.3,1.3-.99.1-.78-.41-2.39,1.09s-1.54.75-2.87,1.09-2.02.44-2.59,1.06c-.58.61-2.32,1.16-3.65,1.4s-2.25,1.2-3.18.68c-.92-.51-1.4,0-1.88.34s-1.64.48-2.46.21-1.26-1.26-2.46-1.4c-1.2-.13-2.02.1-2.02.1,0,0-1.74-1.12-2.15-2.02-.41-.89-2.36-1.94-3.35-3.04-.99-1.09-2.53-2.22-3.52-4.74-.99-2.53-1.6-2.53-1.77-2.63s-.92-1.06-2.05-2.39c-1.12-1.33-6.04-6.24-6.04-6.24,0,0-2.22-1.54-2.49-2.22s-.72-4.03-.72-4.54-.1-1.5.72-1.71,2.63-.58,2.93-.34.89,2.08,1.09,2.32,1.12.38,1.4.21,1.26-.38,1.5-.38.1-.58.65-.75c.55-.17,1.03.41,1.84.51s.65,0,1.23-.41c.58-.41,1.88-.82,2.73-.85.85-.04,1.2-.68,1.4-.89s1.03-.24,1.74-.21c.72.04,2.46-.17,2.73-.82s.48-1.03,1.06-1.54c.58-.51,1.12-.82,1.47-1.3.34-.48,1.67-1.37,2.05-1.43.38-.07.78-.31.92-.95.13-.65.48-.85-.07-1.23s-1.71-.95-1.91-.51-.1,1.47-.1,1.47c0,0-.44.1-.99.48-.55.38-1.09.31-1.64.04s-.72-.61-1.26-.27-1.33.78-1.09,1.09-.17.99-.55,1.06-3.07-.27-3.82-.51c-.75-.24-1.03.27-1.06.72-.04.44-.34.95-.95.95s-4.54-.34-5.12-.75-3.48-2.08-4.57-2.53-4.98-3.48-5.25-3.72c-.27-.24-.89-1.26-1.2-1.94s-2.29-2.7-2.29-2.7c0,0-.95-.68-.65-1.2.31-.51.55-.72.68-1.23s1.71-1.2,2.29-1.4,2.7-1.12,2.76-1.47.13-1.12-.44-1.12-1.98.48-2.36.75-.92.92-1.33,1.26-1.94,1.43-2.39,1.64-1.03.95-1.64.41c-.61-.55-1.4-1.09-1.03-1.5.38-.41,1.12-.41,1.2-1.12.07-.72-.27-1.37-.27-1.81s.99-2.83,1.3-2.93,3.38.58,3.82.72,2.25.58,2.63.38,1.37-2.83,1.23-3.55c-.13-.72-.61-1.33-.24-1.74.38-.41,1.6-.78,1.88-.48.27.31.31.82.89.92.58.1,1.37-.04,1.57.24s.82-.38,1.33-.41.65.51,1.4.68,2.42.21,3.27-.24c.85-.44,1.12-.78,2.11-.31s1.6,1.4,2.49,1.64c.89.24,1.54.95,2.25,1.03s1.6.72,2.25.24c.65-.48.58-1.23,1.03-1.91.44-.68,1.71-.65,3.01-.85s2.63-.04,3.41-.72c.78-.68,1.26-.44,1.43-.17s-.07,2.15.51,2.59c.58.44,1.43.75,1.84.68.41-.07.95-.61,1.26-1.09.31-.48,1.37-.85,2.05-.85s1.57.13.95-.41-1.5-1.2-1.47-1.81,1.06-1.98,1.06-1.98c0,0,.17-1.5-.17-1.88s-.99-.85-.58-1.43c.41-.58-2.11-1.94,1.26-1.71s3.14-.07,5.6.1,16.9-2.32,17.85-1.81,5.39-.75,7.37,2.66,3.31,10.85,4.61,12.63c1.3,1.77,2.32,5.42,2.97,6.35s9.25,6.18,9.25,6.59-.04,2.49-.04,2.49h.04Z"/>
    <path id="path7865" class="country" d="M101.97,329.44s.48-.55.5-.63c.01-.07,1.36-.38,1.36-.38,0,0,.25.27.23.39-.01.13-.29.68.05.98.34.3.72.52.64.81-.07.29-.35.95-.57.68s-.86-.48-.95-.38c-.09.11-.47.54-.59.45-.13-.09-.39-.11-.39-.52s-.33-.97-.3-1.07c.01-.11.01-.34.01-.34h0Z"/>
    <path id="path3796" class="country" d="M169.24,215.7l3.23,2.75.42.48.06.66-.12.78s-.18,2.21.18,2.75.83.83.95.36c.12-.48.42-.72.78-.54s.36-.06,1.02.54,1.08.78,1.14,1.2c.06.42-.06.54.18,1.08s.83.42.48.95-1.02,1.2-1.37,1.2-1.2,0-.78.42l.42.42s.66-.12.42.42c-.24.54.48.54.89.54s.66-.54.72.12-.48,1.14-.78,1.26c-.3.12-1.55-.12-2.03-.06-.48.06-.89-.18-.95.54-.06.72.12,1.55.12,1.55,0,0,.66-.12.83-.54s.3-.36,1.26-.42c.95-.06,1.08-.18,1.43-.42s.66-.78,1.49-.42,1.14.06,1.74,0,.83-.36.95.12.06.72-.3,1.02-.42.3-.12.89c.3.6.72,1.26-.6,1.32s-1.43.24-1.8.6c-.36.36-.48.6-1.2.72s-1.08.36-1.08.36c0,0,.3.48,0,.78s0-.3-.78.12c-.78.42-1.55.78-1.8.78s-.95-.83-1.97.36.06,1.43-1.08,1.85-2.99.83-3.23,1.26c-.24.42-.36.89-.78,1.08s-1.62.3-1.91.54c-.3.24,0,.83-.24,1.37s-.12.48-.48.78-.12.42-.54.72-.6.18-1.68.3-1.62.36-1.68.89c-.06.54-.12,1.43-.78,1.97s-.36,1.2,0,1.91-.3,1.85.72,2.51,2.09,1.14,2.93,1.85.83,1.2,2.03,1.2,1.62.48,2.28,0,.83-.48,1.62-.36.89.54,1.14.06.66-1.68,1.08-1.8.48-.6.83-.12c.36.48.06.83.18,1.62s.18.83.54,1.02.72.42.42.78c-.3.36-.66-.12-.42.54s.54.83.3,1.08-.95.66-1.37.42-.95-.48-1.2-.42c-.24.06-1.68.78-2.39.83-.72.06-1.55-.3-2.21.06s-1.02,1.8-.78,2.09c.24.3.42.6.12.95-.3.36-.83.06-.54.6s.95.3,1.62.72,1.2,1.2,1.14,2.39.18,2.03-.48,2.09-1.74,0-2.28-.36-.95-.83-1.02-.48c-.06.36-.3.3.12.89.42.6.48.48.42,1.08s-.24.66-.18,1.2-.6.24.24.66,1.02.66.83,1.37c-.18.72-.3,1.02-.3,1.49s-.6,1.14-.78.83,0-.72-.48-.78-.72.12-1.2-.54-.24-1.14-.18-1.43.24-1.26-.66-.54-1.32,1.32-1.26,1.68-.6.6-.89.18c-.3-.42-.54-1.14-1.68-1.02s-2.51.36-2.69.06.24-.95-.42-1.14c-.66-.18-1.2.06-1.2.78s.36,1.37,0,1.97-1.55,1.62-2.09,1.8.18.48-.6,1.14-1.02,1.26-1.43,1.26-1.37-.78-1.74-.66-.3.66-.3,1.14-.24.89-.66.54-.48-.6-.95-.42-.36.06-.72-.42c-.36-.48-.36-1.14-.89-1.32-.54-.18-1.14-.3-.6-.66s1.14-.12,1.68-.42c.54-.3.6-.83,1.08-.83s1.2.36,1.2.66.78.72,1.08-.18c.3-.89.42-.3.12-1.32-.3-1.02-.6-1.26-.3-1.8.3-.54,1.49-.72,1.32-1.14s-1.68-.6-1.68-1.55.18-1.32.48-1.14c.3.18,1.49.3,1.8-.36s.66-.72,0-1.49-.66-.95-.66-1.91.18-1.62-.3-1.55l-.48.06s-.66.66-1.26.48-.6-.12-.89.3c-.2.28-.51.38-.95.3-.66-.12-.36-.3-.95.18s-.78.6-1.26.12-.83-.72-1.55-.72-1.08.24-1.37-.06-.54-1.49-.36-1.74.95-.6,1.2-.42c.24.18.36.6.89.36.54-.24.89-.3.72-.54s-.83-.12-1.26-.48c-.42-.36-.72-.54-.42-.72l.3-.18s.54.18.78-.12.36-1.55.18-1.62-2.63.3-2.63.3c0,0-.95,1.26-1.08,1.68-.12.42-.42.95-1.02.95s-1.26.48-1.68-.18-1.2-.89-1.2-.89c0,0-.36.72.06,1.08s.6.83,1.08,1.02c.48.18.66.66.24,1.14s-.12.66-.83.66-1.62.3-1.68.78-.12.66-.48,1.08c-.36.42-.12.66.36,1.26.48.6,1.08.6.6,1.68s-1.02.83-.6,1.55.83.78,1.26.89c.42.12-.42.95.24,1.91s1.02.89.95,1.32c-.06.42-.12.95-.48,1.55-.36.6-.83,1.2-.3,1.85.54.66,1.08,1.02.66,1.55s-.6.95-.42,1.37c.18.42-.42.95-.95,1.14-.54.18-.89.54-.95.83s-.78.36-1.74.48-2.03,1.02-2.03,1.55-.36.83-.36,1.02.3.12.89.3c.6.18,1.08-.24,1.49.42.42.66.83,1.26.48,1.55s-1.32.42-1.85.66-.66-.12-1.55.36-1.2.78-1.85.83c-.66.06-.89.12-1.32-.42s-.83-.83-1.43-1.14-.83.06-.83-.66-.24-.89-.6-1.14c-.36-.24-.24-.12-.6-.72s-.78-.06-.83-.6-.72-.78-.72-.78c0,0-.54-.12-.78.36s-.6,1.43-1.14.78-1.32-1.2-1.8-1.55c-.48-.36-.12-1.49-.24-2.28-.12-.78.12-1.08-.78-1.49-.89-.42-1.32,0-1.97-.54s-1.68-1.68-1.68-2.28.66-.95.95-1.26c.3-.3-.06-1.55-.24-1.91s-.54-.72-.72-1.43-.3-1.02-.3-1.02l-.78.6-.3,1.26-.6.36s-.54-.54-.54-1.02.12-.72-.18-1.2-.6-.78-.72-1.02-.42-1.26-.06-1.43.83-.3,1.02-.54c.18-.24-.36-1.2-.48-1.43s-.89-2.33-1.14-2.69c-.24-.36-.12.66-.3,1.02s-.48,1.43-.72,1.62-1.32,1.08-1.62.95c-.3-.12-1.26-.18-1.68-.36-.42-.18-1.26-.83-1.49-.89s-1.49-1.26-1.74-1.43-.54.24-.54.42-2.21-1.08-2.87-1.02-1.32-.12-.72-.48,1.43-.24,1.49-.6c.06-.36.24-.78-.54-.78s-2.75,0-3.41-.24-2.21.48-2.33,0c-.12-.48-.78-1.08-.83-.6-.06.48.48,1.2-.24.95s-.89-.36-1.49-.6-1.02-.12-1.32-.42-1.91-.42-2.57-.18c-.66.24-2.03.89-2.87.72s-1.43.3-1.49-.3c-.06-.6.36-1.32-.42-1.14s-1.49,1.02-2.28,1.08-1.97-3.53-1.85-4.25c.12-.72-1.91-3.17-1.91-3.71s-1.49-3.05-1.02-3.53c.48-.48,1.43-1.32,1.26-1.85s-.89-.95-1.74-.6c-.83.36-2.63,1.32-3.23.42s-3.53-3.59-3.53-4.12-1.02-3.29-.72-3.65c.3-.36,2.45-4.91,2.45-5.14s-.6-1.62-.48-1.85c.12-.24-.3-.66-.72-.66s-1.85.42-2.28.18c-.42-.24-1.02-1.08-1.62-1.2s-1.68.72-2.57-.42c-.89-1.14-2.28-3.65-2.28-4.78s-.06-1.91.3-2.75c.36-.83,1.43-1.91,1.91-2.21s4.78-3.83,5.08-4.19c.3-.36,4.49-5.44,4.97-6.22.48-.78,4.72-2.51,5.5-2.28.78.24,1.49.83,1.49,1.14s-.24,1.74,0,2.39c.24.66.78,1.08.78,1.43s.06,1.08.36,1.08,1.32-.42,1.8-.83c.48-.42.6-.66,2.69-.72s1.74-.48,3.47-.66c1.74-.18,2.99.3,3.83.36.83.06,2.57-.06,2.81-.66.24-.6.42-.42.6-1.43s.48-1.91,1.26-2.39,2.51-1.08,3.23-2.21.95-4,1.91-4.66c.95-.66,1.26-.6,1.85-1.26s.72-1.14.83-1.68.78-.95,1.97-.83,2.81-.24,3.11-.6,3.47-4.25,3.59-4.78c.12-.54.3-.36.48-.95.18-.6.72-1.2,1.08-1.85s1.62-1.49,1.62-1.91,1.8-7,2.21-7.23,1.91-.6,3.65-.83.48-.6,1.68-.95.06-.06,2.57.06,6.46.18,8.14.24c1.68.06,3.05.12,3.11,2.75s.36,4.31,1.43,4.97c1.08.66,17.22,8.49,16.8,12.14-.42,3.65,6.28,10.46,8.79,9.39,2.51-1.08,5.68,5.14,5.68,5.14h0l-.02.02Z"/>
    <path id="path3793" class="country" d="M169.41,200.27c.24.09,1.77.33,1.77.33l.3.35s.06.15.09.27.27.68.27.68c0,0,.09.33-.03.47s-.09.33-.09.33c0,0,.38.18.53.35.15.18.27.68.24.8s.38.33.53.62.06.24.27.62c.21.38.44.35.68.68.24.33.59.68.53,1.03s-.15.8-.18.95c-.03.15-.18,1.18-.35,1.36-.18.18-8.24.38-8.3.09s1.09-4.88,1.09-5.14.62-2.33.74-2.57c.12-.24,1.92-1.21,1.92-1.21h0Z"/>
    <path id="path3790" class="country" d="M130.87,181.62c.22.13,1.84.92,1.84.92l.79.22s.57.09.61.44.27,1.09-.35,1.45c-.61.35-.97.66-.97.88s.61.66,1.01.66,1.58-.09,1.58-.09c0,0,.79,0,.39.52-.39.52-1.06.66-1.06.66,0,0-.79,1.58-.57,2.28s-.22.92-.44.83c-.22-.09-.61.39-.48.66.13.27.61.13.88.7s.27,1.09.66,1.06c.39-.04,1.97-1.09,2.85-.7s1.67,1.36,2.15,1.63c.48.27,1.27,1.01,2.33.75s1.27-.39,1.54-.57.79,0,1.09.66c.31.66,1.84,2.06,1.88,3.51s.13,2.02.52,2.55c.39.52-.04.57.27,1.36s.7.79.61,1.49.44,2.28.97,2.63c.52.35.22.13.83,1.01s.39,1.54,1.49,1.67,1.49.92,1.8,1.32.92,1.36.66,2.02-.66.18-.57.92.31.97.44,1.32.39.09-.18.79-.31,1.54.13,1.88c.44.35,1.67.7,2.42.61s1.18-.48.97-.75c-.22-.27-.83-.22-.66-1.14s.18-.97.18-.97c0,0-.52-.35.31-.48s1.63.44,1.63.44c0,0,.48-.18.52-.57s.13-.79.04-1.01-.22-.22-.52-.48c-.31-.27-.48-.35-.44-.52s.7-.66.97-.39c.27.27.35.52.83,1.06s.66.52.97,1.14.18.79.61,1.01,1.23.22,1.36-.04.18-.57.18-.92.22-.61.61-.83c.39-.22.13-.27.48-.44.35-.18.31-.18.66-.27.35-.09.48-.39.75-.7s.44-.09.79.31c.35.39.22.18.48.83.27.66.39.66.57.97.18.31.13.75.13,1.14s.13.7.22.92c.09.22.44.31.09.52-.35.22-.75-.09-.97.61-.22.7-.39.83-.18,1.18.22.35.27.66.27,1.01s-.22.92.09,1.18c.31.27.66.48.97.18s.48-.66.57-.88c.09-.22.39-.18.44.31s-.44.83,0,.92,1.01.13,1.06-.35.22-.31.13-.79c-.09-.48.04-.7-.44-.83s-1.4-.27-.79-.61c.61-.35,1.36-.35,1.58-.13.22.22.88.35,1.49.31s.83.35.88-.09.18-.44-.09-.79-1.09-.52-.48-.97.57-.13.88-.44.39-.57.52-.92-.22-.35.35-.48.97-.13,1.09-.31c.13-.18.44-.75.22-1.09-.22-.35-.79-1.06-.83-1.76s.48-.7.39-1.23-.13-.7.04-.97.52-.39.18-.83-.39-.44-.61-.83-.22-.88-.22-.88c0,0-.66,0-.79.44-.13.44.18,1.01-.27.88-.44-.13-1.36-.48-1.84-.83-.48-.35-1.18-.83-1.4-.57-.22.27-.39.75-.75.97s-.92.88-1.14.18-.04-.88-.31-1.32-.92,0-.39-.88.79-.79,1.14-1.09c.35-.31.19-.66-.02-1.14s.2-1.09.2-1.71.04-.88.48-.97.52-.09,1.18-.13.92-.18.79-.44-.48-.35-.57-.66c-.09-.31-.04-2.63-.09-2.99s-.31-.75-.18-1.63-.27-.83-.39-1.58.13-.83-.09-2.02-.44-.83-.66-1.67c-.22-.83.35-3.03.31-3.47s.04-.48.79-2.11.61-1.4.83-2.28.66-1.23,1.36-2.11,2.06-1.8,2.5-2.06,2.42-1.8,2.11-2.63c-.31-.83-2.24,0-3.6-1.88s-.66-3.78-2.46-4.43-5.62.57-6.15.75-1.09,2.24-1.06,2.63-1.45,1.18-3.33,2.28-4.3.83-4.52,2.94c-.22,2.11-22.87,1.97-23.04,2.06s-2.06,2.11-2.06,2.11h-.02Z"/>
    <path id="path3787" class="country" d="M175.74,173.18l.25,2.25-.5,1-.38,1.13,1,1.13h1.63l1,1.13h.75l-.13,1.26-.5,1-.25,2v1.76c0,.75-.38,1.63-.38,2.25s-.13,1,.88.75,1-1.13,1.63-1,.88,1.76.88,1.76l1.26.5.88-1.51s.75-.13.75-.5-.13-2.38-.13-2.63.88-.13.88-.13l.25,1s.5.38,1.13.5,1.63,1.76,1.63,1.76c0,0,.63.25.38.75-.25.5-1.13,1.63-.13,1.76s1.76.13,1.76.13c0,0,.13.63.88,0s1.13-1,1.13-.13v1.26l1.63.38s1,.5.13.5-1.76.5-1.76.5c0,0,0,1.88.88,2s1.88-.13.88.63-1,1.38-1,1.38l2.25-.13s0,.13.63.13,1.13.13,1.26.75.5,1.51,1.51,1.88c1,.38,2,1,2.13.5.13-.5.5-.38.5.13s-1.26.75.5,1.38c1.76.63,3.89.38,3.89.38l.88-1.13s.5.13.5,1,1.13,1.63,1.51,1.63,1.51.25,1.26-.38c-.25-.63-.63-1,.25-1s.13-1.51.13-1.51l1.51-.5.88-1.76.5-2.13s1.13-1.51.75-2c-.38-.5-.88-.38-.88-1.26s.13-1,.75-1.63,1.13-2.38,1.13-3.13.13-.88.88-1.26,1.51-.75,1.63-1.26,0-1.38,0-1.38h1.88s1.38-2.13,2.13-2.76-1.51-.63.38-.63,2.63-.25,2.5-.88-.38-2-.38-2l-2.76-.38s-.88-.5-1.13-1.26-.5-1.38-1.26-1.38-2.38-.13-2.38-.13c0,0-1.38-.13-2-.63s-1.26-.5-1.26-.5l-.25-2.13-.88-1.51-1.76-.63s-1.38-.63-2-.88-1.26-1.13-1.26-1.13c0,0-1.13-.88-2.13-.75-1,.13-2.5.5-2.63,0s-.75-.88-1.13-1.51-1.13-1-1.13-1v-1.38l-1.51-1.51s0-1.51-.75-1.63-1.76,0-1.76,0c0,0-1.13,1.13-1.26,1.76s.38,1.63-.25,1.51c-.63-.13-2.76-1.88-4.14-2.5-1.38-.63-4.01-1.51-4.89-1.38s-11.66,4.77-11.41,5.76,1.76,7.52,1.76,7.52h-.04Z"/>
    <path id="path3784" class="country" d="M170.27,169.16l-.59,1.51s-.67.42-1,.59-1.09-.17-1.09-.17c0,0-.92-1-1.26-.92s-1,.17-.67.67c.33.5,1.09,1.09,1.09,1.09l.33,1.51s-.92.5-1.51.67c-.59.17-1.09.08-1.09.08,0,0-.25.33-.42.67s-1.77.67-1.77.67c0,0,.33.33.42.84s.17.42,0,1.17c-.17.75.17,1.34-.33,1.51s-1.51.17-1.77-.33-.75-1.51-.75-1-.42.75-.75.59c-.33-.17-.75-1.09-1.09-.17-.33.92-.75,2.77-1.26,3.27s-.25,1-.5,1.77c-.25.75.84,1.68-1.09,1.26s-3.02-.67-4.2-1-1-.25-1.51,0c-.5.25-1.43.42-2.02.33s-.59,0-.84.5-.92,1-.92,1c0,0-.84.67-.84,1s-.5,1.09-1.17.75c-.67-.33-.59-.33-.92-1.17s.25-1.51-.17-2.18c-.42-.67.08-.17-.84-.33s-1.26-.08-1.43-.75.08-.33-.67-.84c-.75-.5.08-.08-1.09-.67s-1.6-1-1.68-.67-.33,1.38-1.6,1.21c-1.26-.17-1.43-1.55-1.68-.8-.25.75,0,1.51-.67,1.68-.67.17-1.93-.17-2.35-.17s-.42.25-1.26.25-.08-.5-1.17-.33-1,.08-1.51.17-1.93.17-2.52-.25c-.59-.42-1.43-1.17-1.09-1.26s1.51-.59,1.51-.59c0,0,.75-1.85.5-2.85s-.84-.92-.25-1.6,1.26-.92,1.77-1.6c.5-.67.33-.84,1.17-1.51s1.68-.42,1.93-1.68,1.43-2.6,1.51-3.19.84-1.43,1.6-1.6c.75-.17,1.34-.42,1.34-.42,0,0-.59-1.09-.75-1.85-.17-.75-.33-1.43.5-2.02s1.51-1.17.92-2.27-1.09-1.43-1.34-2.77-.75-.5-.25-1.51c.5-1,1.68-3.1,2.1-3.27s1.09-.25,1.85-.33.42-.59,1.6-1.17c1.17-.59,2.77-1.17,3.44-1.09s2.6-.67,2.69-1.26c.08-.59.75-1.43,0-2.02s-1.34-.84-1.34-.84c0,0,1-3.69,1.34-3.95.33-.25,4.79-.75,5.79-.92s5.54-1.26,5.62-.92.5,9.82.5,11.92,2.94,4.54,5.46,6.13c2.52,1.6,5.87,4.37,6.47,6.13s1.6,5.29,1.6,5.29h0Z"/>
    <path id="path3781" class="country" d="M151.47,139.28l1.68,1.93s.17.92.17,1.43-.67,1.34-.67,1.34c0,0-.75.25-1.09.59-.33.33-1.26.33-1.34,1.34s-.42.92-.33,1.93,0,.84.59,1.17,2.44,1.17,2.6,1.6c.17.42.59.33.84.75s.08,1-.25,1.34.5,2.94,1,3.69c.5.75.75.17.84,1.51.08,1.34.17,1.43.84,2.02s.84.67,1.6.67.84-.42,1.17-.75.67-1.09.75-.59-.25,1,.17,1.43,1.43.92,1.6,1.51c.17.59,1,.25,1.34.25s.59,0,.59.75-.25-.25-.25,1.26-.59,2.77-.08,3.02.17-.25,1.26-.33c1.09-.08,1.34.84,1.34.84,0,0,.17.5.75.33.59-.17.5-.08,1.43.67s.75.84,1.34,1.09.84.33.92.75,0,2.77.17,3.19-.25.75.08,1,.59-.08.92-.17c.33-.08.42.08.92.25s.84-.17,1.43-.33c.59-.17.5.59.84.84s1,.42,1.34.08,0,0,1.09-.42,1.93-.33,1.77-1.26c-.17-.92,0-2.02-.5-2.6-.5-.59-1.09-1.26-.84-1.68s1.77-.84,1.93-1.26c.17-.42-.25-1.51-.33-1.93-.08-.42,0-.75.67-1.26s1.17-.92,1.6-1.09,1-.42,1.6-.92.5-.33,1.43-.84c.92-.5,1.51.25,1.85-.5.33-.75.59-.92,1-.42s1.43,1.43,1.43,1.43c0,0,0,.92.59.17s.84-.75,1.43-.33,1.34.75,2.44.67-.08-2.94-.08-2.94l-.25-.67,1.43-1.43s-1.85-2.77-1.85-3.44.42-1.17.5-1.68c.08-.5-.75-2.27-.75-2.27,0,0-1.09-.33-1.09-1s.08-1.09-.25-1.51-1.09-.92-1.09-.92l-.33-.92v-2.94l.17-1.6,1.09-3.19-5.96-5.96s-4.54-2.44-6.72-2.6c-2.18-.17-6.38-.42-8.73-1-2.35-.59-7.31-.75-7.31-.75,0,0-6.55,2.18-8.14,2.94-1.6.75-2.27,7.72-2.27,7.72h-.02Z"/>
    <path id="path3778" class="country" d="M143.48,145.4l.81-.47s.71-1.04.66-1.42,1.28.43,1.51.76.14.33.71.1c.57-.24.9-.19.9.33s.19.81.61.19.1-.85,1.28-1.47,2.14-.9,2.56-1.37c.43-.47.76-.81.85-1,.1-.19,1.04-1.66.61-2.89s-.76-1.94-.71-2.22c.04-.28.19.43-.1-.28s-1.47-1.85-.28-1.47,1.18.57,1.61.76.28-.81,1.18-1.04,1.04.1,1.8-.24c.76-.33.66.85,1.37-.76s1.42-1.66,2.42-2.18.76-1.04,1.8-.33.52,1.33,1.9.61c1.37-.71,1-1.57,1.37-.85.38.71.52,1.09,1.51,2.14s.14,1.28,1.51,1.66c1.37.38,1.28.47,2.46,1.09s1.85.61,2.18.9.66.38.81-.28.61-.61,1.23-.57,1,.85,1.42-.14c.43-1,.57-2.84,1.23-1.94s.24,1.33,1.04,1.57c.81.24,1-.9,1.14.19s.1,1.18-.28,1.23-.85.43-.1.61,1,.24,1,.71-.66.52-.04,1,1,.24,1.14.61-.14,1.28-.04,1.51,0,1.33.9.04,1.42-1.18,1.57-1.47-1-.61.38-.76,1.37-.24,1.75-.52c.38-.28,1-1.33.76-.04s-.14,1.71-.57,2.08c-.43.38-.33.66-.52,1.47-.19.81-.71,1.42.14,1.51s1.37-.14,2.08-.43,1.8,0,1.8,0c0,0,1.14.43,1.66,1.75.52,1.33.24,1.71,1,2.14s1.51.85,2.22.66,1.42-.71,1.47-1.28c.04-.57.81-.95,1.42-1.28.61-.33.33-1.42,1.42-1.33s1.28.43,1.57.43,1.57-.9,2.04-1.85.57-1.8.28-2.28c-.28-.47-2.08-3.08-2.28-3.46s-1.47-1.28-.9-1.71,1.61-1.85,1.28-2.56c-.33-.71-.47-1.04-1.51-1.18-1.04-.14-2.32-.47-2.89-.47s-1.28.04-1.75-.19c-.47-.24-.81-.71-.9-1.42s-.52-1.71-.14-2.22.47-1.23,1-1.75c.52-.52,1.47-.38,1.09-1.33-.38-.95-.47-1.04-.66-1.66s-.33-.76-.85-.66-.57-1.14-.52-1.33c.04-.19-.66-.9.1-1.23.76-.33,2.84.43,3.18.47s2.32,1,2.84.9.9-.66,1.09-1.18c.19-.52-.14-.85.81-1.28s.61-1.94.95-2.79.61-1.99.71-2.18c.1-.19,1.71.19,2.32-.43s.81-.9.71-1.61-.81-1.04,0-1.18c.81-.14,1.85.28,2.56-.14s1.09-.76,1.18-1.57c.1-.81-.1-.66.14-1.99s.57-1.66.66-2.32.43-1.61,1-2.79c.57-1.18,1.47-1.9,1.37-2.65s.19-2.37-.33-2.94-3.6-3.13-4.32-3.65-1.09-1-2.22-1-1.57.24-2.14-.43c-.57-.66-.52-1-1.14-1s-1.33.33-1.66-.66c-.33-1,.04-1.75-.76-1.42-.81.33-1.42,1.33-1.85,1.33s-1.71.57-2.14.85c-.43.28-.76,1.57-1.51.85s-1.37-1.42-2.28-1.23c-.9.19-1.57,1.09-1.57,1.09,0,0-1.18.28-2.79.57s-1.8.43-2.65.9-.47,1.04-1.71,1.75-2.08,1.33-2.61,1.33-1.71-.19-1.9.33c-.19.52-.24.81-1,.47s-.81-.28-1.23.04-1.75.95-2.32.61-.04-.57-.43-1.61c-.38-1.04-1.9-3.22-2.37-3.41s-1.09-.66-2.89-.33c-1.8.33-2.14.9-2.7.47s-1.8-1.9-2.04-3.13c-.24-1.23.14-2.56-.52-3.08-.66-.52-1.33-.28-1.9-.66s-2.04-3.36-3.55-3.18-1,.19-2.28-.57-1.23,0-1.75-.85c-.52-.85-.28-.38-1.04-1.57s-1.14-.95-2.14-1.9-.61-.81-1.37-1.8c-.76-1-.38-1.18-1.28-1.9-.9-.71-1.85-1.09-1.71-1.66s.33-1.57-.43-1.57-.71-.71-1.47,0-.24,1.28-1.28.95-.14-1.18-1.47-.43c-1.33.76-.81,1.9-1.75,1.14s-1.42-1.47-2.04-1.94c-.61-.47-1.23-.9-1.85-.04s.85,2.65-.95,1.66c-1.8-1-.95-1.94-1.94-1.23s-.85.95-1.33,1.33-2.37-.1-2.94.76c-.57.85,0,2.14-.81,1.28s-.47-.9-1.18-1.18-1.8-1.66-2.37-.76c-.57.9-1.14,1.23-.71,1.71s1.57,1,1.71,1.37,1,1.37-.38,1.33-2.37-1.47-3.46-1.47-2.14.1-2.7.33-1.09-.19-2.18.19c-1.09.38-1.75.66-2.14,1.61-.38.95-.95,1.33-1.42,1.47-.47.14-1.51-.85-1.37.66s.14,1.99-.43,2.22-.71-.38-1.61.61c-.9,1-.57.52-1.85,1.51-1.28,1-1.71,1.57-.95,2.99s.9,1.42.9,1.94-1,2.14.38,2.51,2.42.1,3.55.1,1.33-1.37,2.84.33,2.79,2.61,3.18,3.18c.38.57,1.09,1.47,1.37,1.66.28.19.61.81,1.09.38.47-.43,1.18-.81,1.18-.81,0,0,.76-.28.76.28s-.47,1.57-.24,1.99c.24.43,1.14,2.42,2.18,2.94s2.04.9,2.89,1.23,1.37.19.85,1.09c-.52.9-1.71,3.41-2.84,3.6-1.14.19-1.57-.47-2.46.19s-1.33,1.28-1.66,1.9-2.22,1.37-2.65,1.51-.61.9-.14,1.57.81,1,.52,1.51-.66.24-.61.66c.04.43.85,1.71.95,2.32s-.14,1.37-.33,2.04-.47,2.04,0,2.56c.47.52.81,1,.85,1.66s-.33.66.1,1.8.71,2.37.14,2.99-.76.57-.66,1.23.14,1.71.14,2.51-.76,1.99-.43,2.79,2.28,2.7,2.99,2.84,1.99.9,3.08.9,1.37.28,2.42,1c1.04.71.81,1.51,2.18,1.99s2.18.76,2.84.76,1.28-.24,1.28.33-.57,1.75.04,2.46,1.04,1.14,1.99,1.47,1.66.52,2.18.52.38-.57,1.18,0c.81.57.81.71,1.18.81.38.1,1.09.14,1.09.14h.07Z"/>
    <path id="path3121" class="country" d="M76.89,328.98s-.21-.13-.38-.63c-.16-.49-.65-1.06-.6-1.44.05-.38,2.2-1.55,2.04-2.09-.16-.55,1.93.16,2.01.57s-.65.6.19,1.31,1.31,1.03.95,1.36c-.35.33-2.86,1.17-3.37,1.23-.52.05-.84-.3-.84-.3h0Z"/>
    <path id="path4015" class="country" d="M165.46,169.84s-.63.36-.72.58c-.09.22-.81.09-.32.86s.76.86,1.03.99c.27.13.76.67,1.03.18s.58-.45.81-.36.45.32.5-.18.41-.86,0-1.17c-.41-.32-1.21-.41-1.39-.63s-.95-.27-.95-.27h0Z"/>
    <path id="path4067" class="country-accent" d="M335.73,311.03c.1-.21-.52-.92-.87-.92s-1.8-.36-.98.36,1.96.82,1.96.82l-.1-.26h0Z"/>
    <path id="path4069" class="country-accent" d="M337.02,310.05c-.36.36-1.18.26-.47.62s1.08.26,1.08.26l.05-.67-.67-.21h0Z"/>
    <path id="path4073" class="country-accent" d="M330.33,311.7c-.57.57.16.92.52.82.36-.1,1.13-.41,1.13-.41,0,0,.31-.36-.1-.47-.41-.1-1.29-.21-1.29-.21l-.26.26h0Z"/>
    <path id="path4075" class="country-accent" d="M326.68,312.42c1.49.41,1.49.36,1.49.36,0,0,1.03-.05.98-.41s.16-.47-.05-.47-1.08-.16-1.49,0-1.08.52-.92.52h0Z"/>
    <path id="path4077" class="country-accent" d="M325.65,310.72c.05.77.36.92.36.92,0,0,.41.05.36-.31s-.21-.82-.21-.82l-.52.21h0Z"/>
  </g>
<circle cx="213.78" cy="444.8" r="5" fill="#2BC5B4" stroke="#fff" stroke-width="0.8"/><text x="221.78" y="437.8" font-family="Arial" font-size="9.5" font-weight="700" fill="#0F1828" text-anchor="start">Chennai</text><text x="221.78" y="449.8" font-family="Arial" font-size="8" fill="#4A5567" text-anchor="start">IndiaAI 30 MW</text><circle cx="103.08" cy="355.63" r="5" fill="#2BC5B4" stroke="#fff" stroke-width="0.8"/><text x="95.08" y="348.63" font-family="Arial" font-size="9.5" font-weight="700" fill="#0F1828" text-anchor="end">Mumbai</text><text x="95.08" y="360.63" font-family="Arial" font-size="8" fill="#4A5567" text-anchor="end">IndiaAI 40 MW</text><circle cx="94.72" cy="295.31" r="5" fill="#C9A84C" stroke="#fff" stroke-width="0.8"/><text x="86.72" y="287.31" font-family="Arial" font-size="9.5" font-weight="700" fill="#0F1828" text-anchor="end">Sanand</text><text x="86.72" y="297.31" font-family="Arial" font-size="8" fill="#4A5567" text-anchor="end">Micron ATMP</text><circle cx="90.81" cy="308.82" r="5" fill="#C9A84C" stroke="#fff" stroke-width="0.8"/><text x="82.81" y="324.82" font-family="Arial" font-size="9.5" font-weight="700" fill="#0F1828" text-anchor="end">Dholera</text><text x="82.81" y="336.82" font-family="Arial" font-size="8" fill="#4A5567" text-anchor="end">Tata-PSMC fab</text><circle cx="170.21" cy="446.26" r="5" fill="#4A5567" stroke="#fff" stroke-width="0.8"/><text x="162.21" y="439.26" font-family="Arial" font-size="9.5" font-weight="700" fill="#0F1828" text-anchor="end">Bengaluru</text><text x="162.21" y="451.26" font-family="Arial" font-size="8" fill="#4A5567" text-anchor="end">Sovereign LLM</text><circle cx="195.49" cy="368.97" r="5" fill="#4A5567" stroke="#fff" stroke-width="0.8"/><text x="203.49" y="361.97" font-family="Arial" font-size="9.5" font-weight="700" fill="#0F1828" text-anchor="start">Hyderabad</text><text x="203.49" y="373.97" font-family="Arial" font-size="8" fill="#4A5567" text-anchor="start">DC + design</text></svg><circle cx="1230" cy="300" r="9" fill="#2BC5B4"/><text x="1252" y="305" font-family="Arial, Helvetica, sans-serif" font-size="16" fill="#0F1828">IndiaAI compute (L1-L2)</text><circle cx="1230" cy="346" r="9" fill="#C9A84C"/><text x="1252" y="351" font-family="Arial, Helvetica, sans-serif" font-size="16" fill="#0F1828">Semiconductor / ATMP (ISM)</text><circle cx="1230" cy="392" r="9" fill="#4A5567"/><text x="1252" y="397" font-family="Arial, Helvetica, sans-serif" font-size="16" fill="#0F1828">Talent / design / DC</text><line x1="60" y1="854" x2="1540" y2="854" stroke="#E8E5DD"/><text x="60" y="876" font-family="Arial, Helvetica, sans-serif" font-size="13" fill="#4A5567">Source: IndiaAI Mission; India Semiconductor Mission; company disclosures. Techadyant Labs analysis.</text></svg>