<svg xmlns="http://www.w3.org/2000/svg" width="1180" height="839" viewBox="150.5 406.5 82.0 58.3" role="img" aria-label="Map of the Chennai–Bengaluru Industrial Corridor">
<rect x="150.5" y="406.5" width="82.0" height="58.3" fill="#FFFFFF"/>
<path d="M79.2,265.3 L79.1,266.6 L78.3,268.0 L78.4,269.3 L79.6,270.4 L77.1,271.2 L74.9,272.7 L73.5,272.1 L72.8,269.4 L70.1,270.2 L65.4,270.9 L63.9,273.2 L61.1,272.6 L57.2,270.3 L55.8,270.1 L54.4,270.7 L52.8,270.9 L50.1,270.1 L47.3,270.2 L46.3,269.3 L44.8,269.7 L44.8,272.3 L43.6,275.1 L37.4,274.0 L36.7,274.6 L36.0,276.4 L36.0,279.2 L34.9,280.0 L35.7,281.1 L37.1,281.3 L41.8,277.8 L43.4,277.3 L44.2,278.2 L43.3,279.0 L39.1,281.2 L38.4,282.5 L39.1,283.7 L42.6,288.4 L46.4,291.2 L52.6,294.7 L57.4,295.4 L59.2,293.6 L62.6,294.2 L63.7,294.0 L63.9,292.8 L65.4,291.9 L66.7,292.5 L68.3,292.0 L69.4,290.2 L70.9,290.9 L70.9,292.3 L68.5,294.0 L66.2,296.0 L65.5,297.2 L64.3,298.0 L61.1,298.2 L60.2,299.0 L56.0,300.5 L54.4,300.0 L51.9,301.0 L50.4,301.0 L49.1,298.5 L46.0,299.0 L45.5,300.3 L46.1,304.9 L46.8,305.9 L54.5,313.3 L57.8,317.0 L58.8,319.3 L60.7,322.0 L67.2,328.2 L69.7,328.4 L72.2,329.8 L73.8,329.8 L75.0,329.2 L77.9,329.2 L82.4,327.6 L84.6,326.4 L87.4,325.9 L90.3,323.9 L91.7,323.7 L93.9,320.0 L95.9,317.8 L95.0,314.9 L95.5,312.3 L95.0,310.7 L96.6,306.4 L97.2,305.4 L98.7,305.4 L100.2,305.9 L100.6,306.9 L99.0,307.4 L98.2,308.2 L98.1,310.0 L98.9,310.8 L100.4,310.9 L100.1,312.4 L99.0,313.0 L98.4,313.9 L99.5,315.2 L102.6,315.0 L103.3,316.0 L100.5,317.2 L100.4,318.6 L99.7,320.0 L98.7,320.4 L98.8,322.1 L100.7,325.9 L102.6,333.3 L100.4,337.1 L99.9,340.0 L98.5,343.1 L99.0,345.8 L100.0,347.0 L99.9,349.7 L100.8,350.6 L100.2,351.7 L100.3,356.8 L100.8,356.9 L101.8,355.4 L103.0,354.8 L104.0,355.2 L102.7,356.1 L102.2,357.0 L102.7,358.4 L101.2,358.8 L100.5,359.7 L101.6,362.9 L100.6,364.5 L102.6,367.8 L103.0,370.4 L104.9,374.8 L105.1,377.6 L104.7,379.2 L105.9,381.0 L105.8,382.7 L106.4,383.9 L106.3,388.4 L106.9,391.3 L107.1,394.1 L109.1,400.0 L109.7,402.9 L111.3,405.1 L111.1,405.4 L113.0,409.7 L114.6,409.8 L114.8,410.4 L113.6,411.0 L113.9,412.2 L115.1,413.6 L116.4,416.4 L118.2,418.9 L118.6,420.1 L120.0,420.6 L121.1,421.7 L121.2,423.9 L122.4,424.7 L123.4,430.4 L124.9,433.4 L126.1,437.6 L125.9,439.1 L126.8,446.4 L132.0,459.1 L133.5,461.1 L136.9,464.0 L139.7,467.3 L140.8,470.7 L144.1,476.9 L144.5,480.0 L145.8,484.3 L147.9,488.2 L149.1,488.7 L150.0,490.0 L148.4,491.1 L150.4,497.2 L151.3,503.2 L152.1,504.5 L152.3,507.2 L154.2,509.8 L154.5,511.0 L155.3,512.4 L160.0,516.2 L162.4,517.6 L162.6,519.0 L165.0,521.1 L166.7,521.0 L169.0,522.5 L171.9,523.1 L178.1,519.2 L182.1,517.3 L183.1,510.0 L183.7,508.5 L184.8,507.7 L186.1,507.1 L187.7,507.1 L190.4,506.2 L196.8,505.6 L197.7,504.9 L196.3,502.4 L194.9,501.2 L194.9,500.4 L196.1,497.1 L200.0,492.8 L199.5,491.5 L201.2,488.8 L206.9,489.1 L210.1,488.3 L211.0,487.7 L210.1,484.6 L210.2,481.6 L209.5,477.4 L209.6,474.5 L208.2,470.2 L209.2,469.0 L208.3,466.3 L210.1,460.5 L212.7,459.1 L214.2,456.7 L213.8,455.3 L212.9,454.0 L216.3,451.3 L216.8,449.7 L218.2,447.3 L218.2,444.2 L217.4,441.5 L216.3,440.4 L214.3,439.7 L214.0,438.5 L215.3,438.3 L216.8,439.0 L216.9,438.0 L216.3,435.0 L213.6,429.2 L215.4,426.9 L215.4,426.1 L213.2,418.0 L212.8,413.7 L214.8,411.8 L216.9,408.1 L219.6,405.9 L220.6,405.6 L222.3,405.5 L223.7,406.1 L224.5,407.2 L226.0,407.7 L228.7,404.1 L229.7,403.4 L229.9,401.6 L230.9,400.9 L231.6,397.6 L232.4,397.0 L233.9,396.5 L236.4,397.9 L238.1,397.8 L240.9,397.1 L245.2,395.2 L247.5,393.5 L248.1,392.6 L248.1,390.7 L247.3,386.1 L254.5,381.4 L258.5,380.0 L262.4,376.6 L263.7,371.3 L267.3,368.4 L271.6,366.1 L273.6,364.6 L280.0,356.5 L281.3,353.2 L282.9,352.3 L284.7,349.9 L288.6,347.5 L289.1,346.3 L288.3,345.4 L286.8,345.2 L286.8,344.0 L289.4,342.4 L290.4,345.1 L291.8,345.0 L301.5,340.8 L304.4,339.0 L309.1,333.9 L309.5,332.4 L309.3,331.0 L311.2,328.6 L311.7,327.3 L311.8,324.4 L310.0,322.1 L309.4,320.7 L310.2,319.4 L313.4,316.3 L317.1,314.5 L322.1,313.7 L322.5,313.0 L322.2,312.0 L324.0,311.7 L324.8,310.9 L324.5,309.3 L325.3,308.1 L326.7,308.2 L327.1,309.3 L327.1,310.7 L328.5,311.0 L330.0,311.0 L331.3,310.3 L333.4,308.1 L336.1,309.3 L337.4,309.2 L338.2,308.2 L338.6,305.2 L338.4,303.7 L336.9,300.9 L336.8,297.9 L335.5,295.4 L335.7,292.6 L335.0,289.8 L336.0,288.7 L335.9,287.2 L335.0,286.3 L333.2,285.9 L332.6,285.3 L333.2,284.2 L333.3,282.6 L332.5,281.2 L331.1,280.9 L330.0,280.0 L329.7,278.3 L330.2,277.1 L332.1,274.8 L331.6,269.1 L325.4,268.4 L323.1,264.9 L323.3,262.2 L326.4,261.2 L326.8,258.3 L327.5,257.2 L330.4,256.4 L333.3,256.4 L334.4,255.5 L333.9,252.3 L332.5,251.9 L331.5,251.2 L331.2,249.7 L328.4,249.8 L326.9,249.0 L326.4,247.9 L325.3,247.0 L321.6,244.5 L322.8,242.3 L321.6,241.5 L324.5,239.3 L325.3,238.9 L325.5,239.1 L326.7,237.8 L326.0,236.0 L328.8,240.2 L330.1,241.1 L331.3,240.8 L330.5,239.3 L330.8,238.7 L332.4,239.3 L333.5,238.5 L334.4,238.9 L337.4,242.6 L339.0,243.0 L342.0,242.8 L342.0,241.2 L342.6,240.8 L344.4,241.9 L344.1,245.2 L345.4,248.5 L343.7,250.8 L344.8,253.6 L347.7,254.0 L349.2,254.7 L354.8,255.3 L356.6,255.0 L357.3,254.1 L358.5,253.7 L359.2,254.4 L360.7,254.6 L362.5,254.5 L363.9,253.6 L364.9,253.5 L366.5,254.3 L370.9,254.8 L372.6,254.5 L372.8,253.4 L376.2,253.2 L379.7,255.1 L379.6,255.4 L378.4,255.6 L377.5,256.6 L378.6,257.9 L379.0,259.3 L377.3,261.1 L377.2,263.3 L375.0,263.5 L375.1,266.7 L372.3,266.7 L370.2,268.8 L367.3,269.7 L366.4,270.7 L364.6,276.5 L364.7,278.0 L366.6,281.7 L367.7,286.6 L368.5,287.1 L369.4,286.3 L369.5,285.0 L370.6,286.1 L371.0,287.8 L371.8,288.5 L373.6,288.8 L374.6,288.2 L375.4,286.7 L375.1,283.7 L374.4,282.6 L376.2,280.3 L376.9,277.1 L379.4,276.0 L379.7,275.3 L380.4,277.7 L381.2,278.6 L381.5,281.7 L383.6,285.4 L382.4,288.5 L382.7,289.5 L384.8,292.2 L386.0,301.3 L385.9,304.0 L386.4,305.3 L387.5,306.2 L389.3,304.7 L390.8,305.6 L392.3,305.9 L393.3,303.3 L395.0,300.7 L394.6,294.6 L392.4,287.6 L393.1,286.6 L394.8,286.2 L396.9,285.0 L397.0,283.8 L397.2,281.0 L395.7,279.0 L396.6,277.9 L396.9,273.3 L396.4,270.8 L399.2,269.2 L400.5,270.2 L401.2,270.0 L403.8,270.4 L404.7,270.9 L405.9,270.3 L406.7,269.1 L406.2,267.7 L407.4,264.8 L408.1,261.9 L409.0,261.1 L409.9,257.9 L411.9,254.1 L411.8,251.1 L410.1,249.0 L409.6,247.6 L411.0,245.7 L412.7,244.7 L414.7,241.9 L415.4,237.5 L416.4,234.5 L414.4,227.7 L415.7,226.0 L417.5,225.8 L419.1,224.5 L418.9,223.4 L421.3,221.6 L423.2,219.7 L425.1,218.8 L425.9,217.7 L425.9,216.5 L426.9,214.7 L432.0,213.4 L434.6,211.6 L437.4,214.8 L440.5,215.2 L441.4,214.7 L440.4,211.9 L437.8,209.8 L436.8,207.1 L440.2,204.6 L441.9,202.7 L442.5,201.1 L442.3,199.4 L441.5,198.8 L442.3,196.7 L441.8,196.3 L440.1,196.3 L437.1,195.2 L435.8,195.6 L433.2,194.3 L431.8,194.2 L427.4,195.0 L430.4,192.1 L431.3,189.2 L429.0,185.0 L428.5,184.9 L426.6,185.6 L425.8,186.8 L425.1,186.1 L425.5,184.8 L427.9,182.6 L427.7,181.6 L425.0,180.8 L424.4,179.3 L423.3,179.0 L420.5,180.0 L418.0,181.9 L415.5,185.4 L414.0,185.9 L407.9,184.6 L406.5,183.8 L404.9,181.9 L403.7,181.9 L402.1,184.8 L398.7,187.5 L397.8,190.3 L395.1,193.5 L391.7,194.8 L389.2,194.6 L387.9,195.2 L387.0,196.4 L386.6,197.8 L386.6,199.3 L385.9,200.5 L383.0,201.3 L381.5,202.2 L380.1,204.0 L378.4,205.2 L379.5,205.8 L379.8,207.3 L379.5,208.3 L376.4,209.4 L371.5,210.0 L371.1,210.9 L369.6,211.6 L367.4,209.8 L365.8,209.1 L365.1,209.6 L365.2,214.2 L365.6,215.8 L366.5,216.3 L371.5,216.5 L372.8,217.1 L372.5,221.7 L373.2,222.7 L373.7,225.2 L369.5,224.7 L368.1,225.6 L364.0,226.5 L360.7,226.6 L360.3,227.5 L355.0,228.4 L351.9,226.0 L350.5,226.2 L347.9,227.6 L347.5,228.8 L345.7,228.4 L343.2,230.1 L343.0,229.6 L340.2,229.0 L339.2,228.0 L337.8,227.3 L335.2,228.7 L334.2,228.3 L334.4,227.7 L332.1,227.1 L330.6,225.7 L329.6,223.4 L330.9,220.8 L329.8,219.7 L329.3,218.2 L330.4,213.5 L328.8,209.8 L327.7,209.2 L325.7,209.0 L321.9,211.1 L318.8,211.8 L318.9,213.3 L319.9,214.3 L320.0,215.8 L318.5,218.6 L318.8,221.6 L318.0,225.5 L320.2,229.7 L320.0,230.1 L320.7,231.4 L320.2,236.2 L319.2,237.4 L318.7,236.6 L317.3,236.2 L312.9,237.3 L308.5,237.5 L306.2,235.4 L304.8,235.2 L302.4,236.6 L300.8,236.4 L299.9,237.0 L297.4,235.0 L296.0,234.6 L294.9,235.1 L292.3,234.0 L291.1,235.0 L290.0,234.2 L288.0,231.9 L286.8,231.2 L284.2,232.2 L282.6,232.4 L280.6,230.5 L275.8,229.4 L274.9,228.8 L275.0,225.7 L274.0,224.3 L272.4,223.4 L270.1,223.5 L267.9,221.2 L266.6,221.2 L262.1,222.2 L262.6,223.4 L259.2,222.6 L257.8,223.1 L257.0,224.2 L255.8,224.5 L254.7,223.3 L250.1,222.9 L248.9,220.2 L247.8,219.7 L244.8,219.8 L243.5,219.5 L241.3,217.5 L238.0,216.7 L235.2,216.6 L231.7,214.1 L229.9,211.8 L228.4,211.3 L224.6,208.3 L220.4,207.1 L217.5,204.0 L216.3,204.1 L215.3,205.3 L212.9,204.0 L210.5,202.2 L210.8,201.2 L212.0,200.4 L212.6,199.1 L213.8,194.9 L213.0,193.7 L214.3,191.1 L215.0,188.2 L217.4,186.4 L217.5,185.1 L219.0,185.1 L219.7,184.4 L221.3,181.8 L224.1,181.3 L223.9,178.8 L221.1,178.4 L219.2,175.9 L216.4,175.6 L213.2,174.5 L212.6,171.9 L211.7,170.8 L209.0,169.7 L206.8,168.1 L205.1,167.5 L203.3,167.7 L202.2,167.5 L200.1,165.0 L199.9,163.8 L197.4,160.4 L195.9,160.5 L195.0,161.5 L194.7,163.2 L194.1,163.6 L193.2,163.0 L193.6,162.8 L192.8,159.8 L193.9,158.7 L193.9,157.9 L192.4,154.8 L192.9,153.4 L192.5,151.8 L190.5,148.2 L189.6,147.2 L189.6,142.3 L191.0,142.4 L192.2,143.5 L192.9,145.4 L193.7,146.3 L195.1,146.9 L196.5,146.5 L199.2,143.3 L201.9,143.3 L203.1,142.3 L204.0,140.7 L204.0,139.4 L200.6,134.4 L202.1,131.9 L201.5,130.7 L195.6,129.6 L195.0,128.2 L194.7,126.7 L195.2,125.4 L197.0,123.3 L194.9,119.6 L194.7,118.4 L196.2,118.1 L200.6,119.5 L201.8,118.9 L202.2,117.6 L203.4,116.6 L204.5,112.1 L207.2,111.3 L207.6,108.8 L209.2,108.9 L210.6,108.4 L211.3,107.3 L212.5,101.6 L214.5,97.4 L214.2,94.5 L209.6,90.6 L208.4,89.9 L206.7,89.8 L205.5,89.3 L204.5,88.4 L203.1,88.3 L202.5,86.6 L201.5,86.5 L196.7,89.5 L195.4,88.4 L194.1,88.1 L192.7,89.1 L187.2,90.6 L183.5,93.5 L177.0,95.3 L176.1,94.7 L175.8,93.1 L174.8,91.6 L173.1,89.9 L171.7,89.7 L168.3,90.4 L167.4,89.7 L165.9,86.9 L165.4,84.0 L163.9,83.6 L160.8,80.4 L159.2,80.3 L156.5,79.3 L154.8,77.0 L152.4,75.0 L149.9,71.5 L148.6,70.5 L148.5,69.2 L147.6,68.3 L146.3,68.7 L145.5,69.4 L144.4,68.6 L142.0,70.1 L139.8,68.0 L138.5,67.7 L137.8,70.0 L135.3,68.5 L134.2,69.6 L131.4,70.3 L130.7,71.7 L129.9,71.6 L127.6,69.8 L126.4,70.3 L125.8,71.5 L127.8,73.5 L127.2,74.4 L124.4,73.0 L122.9,72.9 L118.5,73.5 L117.3,74.2 L116.4,75.6 L115.4,76.5 L114.1,76.4 L114.0,78.4 L113.6,79.3 L112.4,79.5 L109.9,81.6 L108.9,82.8 L108.9,84.0 L109.9,85.8 L109.7,88.2 L111.0,89.1 L113.9,89.0 L115.1,88.6 L116.4,89.0 L121.7,94.6 L124.3,93.8 L124.1,95.4 L125.2,97.9 L126.4,99.0 L130.2,100.9 L128.7,103.6 L127.6,104.7 L124.9,105.0 L122.9,107.2 L120.3,108.6 L120.3,110.0 L120.9,111.4 L120.2,112.4 L121.1,115.3 L120.6,118.3 L121.7,121.0 L122.2,124.0 L122.1,125.4 L121.2,126.5 L121.1,132.3 L123.4,134.7 L128.7,136.4 L130.8,138.4 L132.5,139.2 L135.4,139.6 L135.6,142.2 L136.6,143.3 L139.5,144.4 L140.7,144.2 L142.1,145.2 L143.7,145.3 L145.1,146.6 L144.9,148.1 L144.1,149.0 L139.8,150.2 L137.2,151.8 L135.6,152.1 L134.8,152.7 L133.0,155.7 L134.7,159.6 L134.8,161.1 L133.7,162.1 L133.2,163.4 L134.0,165.9 L132.3,166.5 L131.2,167.6 L129.4,171.7 L127.0,173.5 L125.1,175.6 L124.7,176.7 L125.0,178.5 L124.6,180.1 L123.5,180.9 L122.3,181.1 L121.6,181.8 L117.2,182.9 L115.0,190.2 L113.0,192.7 L110.9,196.3 L108.0,199.7 L104.6,200.1 L103.4,200.7 L103.0,201.9 L99.9,204.9 L98.9,208.1 L98.1,209.2 L95.5,210.7 L94.6,211.8 L93.5,214.6 L92.3,215.2 L86.1,215.0 L81.3,215.8 L79.1,217.1 L77.8,214.6 L77.7,211.9 L76.3,211.0 L75.1,211.2 L70.8,213.4 L65.9,219.5 L60.4,224.0 L58.7,226.5 L58.7,229.3 L60.9,233.5 L62.4,234.1 L63.6,234.0 L64.9,235.0 L67.8,235.1 L68.5,237.5 L66.0,243.0 L66.8,246.2 L70.7,250.6 L73.6,249.9 L75.1,250.1 L75.1,251.3 L74.0,252.4 L74.3,253.8 L77.0,259.4 L77.7,262.4 L79.2,265.3Z" fill="none" stroke="#CACFD8" stroke-width="0.13" stroke-linejoin="round"/>
<path d="M214.4,438.1 L216.8,439.0 L216.7,436.8 L216.2,434.6 L214.8,432.1 L213.8,429.7 L214.6,427.8 L215.5,426.1 L214.8,423.0 L214.3,421.2 L213.3,418.1 L213.0,416.2 L212.9,413.5 L214.8,411.9 L216.0,409.9 L217.1,407.9 L219.5,406.0 L221.6,405.5 L223.9,406.5 L225.9,407.7 L227.4,405.9 L229.0,403.9 L229.9,401.7 L231.2,400.0 L231.6,397.4 L233.8,396.5 L236.0,397.9 L238.4,397.8 L240.9,397.1 L243.1,395.9 L245.5,395.0 L247.4,393.5 L248.2,391.4 L247.6,388.8 L247.3,386.2 L248.4,385.3 L251.2,383.6 L253.5,382.1 L255.4,381.2 L257.6,380.2 L259.5,379.2 L262.0,377.0 L262.7,375.5 L263.1,372.9 L264.1,371.0 L266.2,369.1 L268.2,368.0 L270.8,366.6 L273.1,365.1 L274.3,363.6 L276.0,361.3 L277.3,359.7 L279.3,357.4 L280.4,356.0 L281.5,353.1 L279.9,352.8 L276.9,353.3 L274.0,353.9 L272.6,354.0 L270.8,352.7 L268.1,351.3 L265.5,351.5 L263.4,352.7 L261.0,354.4 L258.6,356.1 L256.6,357.6 L255.2,358.6 L252.8,360.1 L250.4,361.3 L249.2,362.0 L247.0,363.8 L244.4,366.1 L242.3,368.0 L241.6,368.6 L239.6,370.4 L236.9,372.5 L235.2,373.4 L232.7,372.3 L231.8,371.4 L229.5,369.4 L226.9,367.1 L225.1,365.3 L224.2,364.3 L221.9,362.7 L219.2,361.1 L217.1,360.2 L214.3,360.0 L213.8,359.1 L212.6,356.2 L211.3,352.9 L210.6,350.7 L210.3,349.3 L208.6,347.0 L205.8,346.6 L203.3,346.4 L201.1,346.4 L198.9,346.0 L195.9,345.0 L192.9,344.0 L190.8,343.3 L189.3,343.0 L186.3,343.0 L184.5,344.1 L183.3,346.2 L181.5,348.7 L179.9,350.3 L177.9,351.4 L175.6,353.1 L174.8,354.8 L174.3,357.7 L173.6,360.4 L172.7,361.9 L171.5,364.8 L171.4,365.7 L170.5,364.7 L168.5,365.0 L166.9,366.1 L164.1,367.4 L162.2,368.3 L160.3,370.0 L158.2,372.3 L156.9,374.2 L155.6,375.7 L153.4,377.2 L150.7,377.9 L147.9,377.7 L145.5,377.6 L143.4,377.8 L141.3,379.6 L139.4,381.6 L137.9,382.4 L136.0,383.6 L133.4,385.4 L130.9,387.3 L129.1,388.6 L127.5,389.3 L124.9,389.6 L121.7,390.2 L121.0,392.3 L121.2,394.0 L121.5,397.2 L121.5,399.5 L120.6,401.6 L119.4,404.4 L120.1,405.8 L121.8,406.1 L122.4,408.7 L122.1,410.7 L121.4,412.9 L121.4,415.5 L120.6,417.5 L119.0,419.5 L120.3,420.8 L121.1,422.7 L122.1,424.2 L122.8,426.8 L123.4,428.9 L123.9,431.3 L125.0,433.8 L125.6,436.0 L125.9,438.5 L126.1,440.4 L126.5,443.2 L126.8,446.0 L127.6,448.5 L128.6,450.6 L130.7,451.1 L133.0,451.3 L134.9,452.8 L136.7,453.5 L138.0,455.5 L138.5,457.7 L140.3,459.3 L141.7,461.1 L144.0,462.4 L145.2,463.7 L147.3,464.5 L149.6,464.2 L150.8,466.3 L153.0,467.5 L153.5,468.1 L153.8,469.9 L154.6,471.9 L156.7,473.3 L157.6,475.4 L159.5,476.8 L159.3,479.1 L160.1,480.8 L162.5,482.0 L161.9,484.2 L161.5,486.0 L161.5,488.4 L162.3,490.4 L164.2,490.8 L166.5,489.5 L168.6,490.7 L167.4,492.5 L168.0,494.8 L167.6,497.3 L166.9,499.6 L167.3,501.2 L169.4,500.8 L170.1,503.0 L168.6,505.0 L168.1,507.5 L166.8,509.3 L167.0,511.5 L167.3,513.7 L166.9,515.6 L167.2,518.0 L166.1,520.2 L167.9,521.3 L169.8,522.7 L172.1,523.1 L174.3,521.6 L176.3,520.4 L178.4,519.0 L180.5,518.1 L182.3,516.5 L182.6,514.2 L182.8,511.3 L183.5,508.9 L185.2,507.4 L187.5,507.1 L190.0,506.4 L192.4,506.0 L194.9,505.9 L197.3,505.4 L197.1,503.4 L194.9,501.3 L195.2,499.3 L196.2,496.9 L198.1,495.2 L199.9,493.1 L199.6,491.2 L201.2,488.9 L203.5,488.8 L206.2,489.2 L208.4,488.8 L210.8,487.9 L210.2,485.6 L210.1,483.4 L210.2,480.5 L209.5,478.1 L209.8,475.7 L209.3,473.4 L208.3,470.8 L209.2,468.9 L208.3,466.8 L208.9,464.4 L209.5,462.1 L211.1,460.0 L213.0,458.6 L214.2,456.6 L213.0,454.2 L214.6,452.9 L216.3,451.2 L217.1,449.1 L218.3,446.8 L218.2,444.1 L217.6,441.8 L215.7,440.1 L214.3,439.8 L214.4,438.1Z" fill="none" stroke="#9AA3B0" stroke-opacity="0.95" stroke-width="0.21" stroke-linejoin="round"/>
<path d="M 213.8,444.8 L 170.2,446.3" fill="none" stroke="#FFFFFF" stroke-width="0.9" stroke-linecap="round" stroke-linejoin="round"/>
<path d="M 213.8,444.8 L 170.2,446.3" fill="none" stroke="#B23B33" stroke-width="0.52" stroke-linecap="round" stroke-linejoin="round"/>
<rect x="211.4" y="424.4" width="1.2" height="1.2" transform="rotate(45 212.0 425.0)" fill="#FFFFFF" stroke="#2563A8" stroke-width="0.28"/>
<text x="213.6" y="425.3" font-family="Arial" font-size="1.31" fill="#3a4a60">Krishnapatnam</text>
<rect x="168.4" y="439.4" width="1.2" height="1.2" transform="rotate(45 169.0 440.0)" fill="#FFFFFF" stroke="#2563A8" stroke-width="0.28"/>
<text x="170.6" y="440.3" font-family="Arial" font-size="1.31" fill="#3a4a60">Tumakuru</text>
<rect x="213.4" y="439.4" width="1.2" height="1.2" transform="rotate(45 214.0 440.0)" fill="#FFFFFF" stroke="#2563A8" stroke-width="0.28"/>
<text x="215.6" y="440.3" font-family="Arial" font-size="1.31" fill="#3a4a60">Ponneri</text>
<circle cx="213.8" cy="444.8" r="0.67" fill="#B23B33" stroke="#FFFFFF" stroke-width="0.23"/>
<text x="213.8" y="443.8" font-family="Arial" font-size="1.6" font-weight="bold" fill="#16233a" text-anchor="middle">Chennai</text>
<circle cx="170.2" cy="446.3" r="0.67" fill="#B23B33" stroke="#FFFFFF" stroke-width="0.23"/>
<text x="170.2" y="445.3" font-family="Arial" font-size="1.6" font-weight="bold" fill="#16233a" text-anchor="middle">Bengaluru</text>
<text x="151.5" y="409.8" font-family="Georgia,serif" font-size="2.54" fill="#16233a">Chennai–Bengaluru Industrial Corridor</text>
<text x="151.5" y="412.0" font-family="Arial" font-size="1.23" fill="#6a7689">CBIC · ~560 km · 3 states · In build-out</text>
<line x1="216.1" y1="457.8" x2="218.7" y2="457.8" stroke="#B23B33" stroke-width="0.49"/><text x="219.5" y="458.3" font-family="Arial" font-size="1.16" fill="#3a4a60">Corridor route</text>
<rect x="216.6" y="459.3" width="1.0" height="1.0" transform="rotate(45 217.1 459.8)" fill="#FFFFFF" stroke="#2563A8" stroke-width="0.28"/><text x="219.5" y="460.3" font-family="Arial" font-size="1.16" fill="#3a4a60">Industrial node</text>
<line x1="216.1" y1="461.4" x2="218.7" y2="461.4" stroke="#9AA3B0" stroke-opacity="0.95" stroke-width="0.21"/><text x="219.5" y="461.9" font-family="Arial" font-size="1.16" fill="#3a4a60">States traversed</text>
<text x="151.5" y="463.7" font-family="Arial" font-size="1.0" fill="#9aa3b2">Source: NICDC · National Industrial Corridor Development Programme.  © Techadyant Labs</text>
</svg>