<svg xmlns="http://www.w3.org/2000/svg" width="1180" height="1439" viewBox="103.2 160.6 162.0 197.5" role="img" aria-label="Map of the Delhi–Nagpur Industrial Corridor">
<rect x="103.2" y="160.6" width="162.0" height="197.5" fill="#FFFFFF"/>
<path d="M79.2,265.3 L79.1,266.6 L78.3,268.0 L78.4,269.3 L79.6,270.4 L77.1,271.2 L74.9,272.7 L73.5,272.1 L72.8,269.4 L70.1,270.2 L65.4,270.9 L63.9,273.2 L61.1,272.6 L57.2,270.3 L55.8,270.1 L54.4,270.7 L52.8,270.9 L50.1,270.1 L47.3,270.2 L46.3,269.3 L44.8,269.7 L44.8,272.3 L43.6,275.1 L37.4,274.0 L36.7,274.6 L36.0,276.4 L36.0,279.2 L34.9,280.0 L35.7,281.1 L37.1,281.3 L41.8,277.8 L43.4,277.3 L44.2,278.2 L43.3,279.0 L39.1,281.2 L38.4,282.5 L39.1,283.7 L42.6,288.4 L46.4,291.2 L52.6,294.7 L57.4,295.4 L59.2,293.6 L62.6,294.2 L63.7,294.0 L63.9,292.8 L65.4,291.9 L66.7,292.5 L68.3,292.0 L69.4,290.2 L70.9,290.9 L70.9,292.3 L68.5,294.0 L66.2,296.0 L65.5,297.2 L64.3,298.0 L61.1,298.2 L60.2,299.0 L56.0,300.5 L54.4,300.0 L51.9,301.0 L50.4,301.0 L49.1,298.5 L46.0,299.0 L45.5,300.3 L46.1,304.9 L46.8,305.9 L54.5,313.3 L57.8,317.0 L58.8,319.3 L60.7,322.0 L67.2,328.2 L69.7,328.4 L72.2,329.8 L73.8,329.8 L75.0,329.2 L77.9,329.2 L82.4,327.6 L84.6,326.4 L87.4,325.9 L90.3,323.9 L91.7,323.7 L93.9,320.0 L95.9,317.8 L95.0,314.9 L95.5,312.3 L95.0,310.7 L96.6,306.4 L97.2,305.4 L98.7,305.4 L100.2,305.9 L100.6,306.9 L99.0,307.4 L98.2,308.2 L98.1,310.0 L98.9,310.8 L100.4,310.9 L100.1,312.4 L99.0,313.0 L98.4,313.9 L99.5,315.2 L102.6,315.0 L103.3,316.0 L100.5,317.2 L100.4,318.6 L99.7,320.0 L98.7,320.4 L98.8,322.1 L100.7,325.9 L102.6,333.3 L100.4,337.1 L99.9,340.0 L98.5,343.1 L99.0,345.8 L100.0,347.0 L99.9,349.7 L100.8,350.6 L100.2,351.7 L100.3,356.8 L100.8,356.9 L101.8,355.4 L103.0,354.8 L104.0,355.2 L102.7,356.1 L102.2,357.0 L102.7,358.4 L101.2,358.8 L100.5,359.7 L101.6,362.9 L100.6,364.5 L102.6,367.8 L103.0,370.4 L104.9,374.8 L105.1,377.6 L104.7,379.2 L105.9,381.0 L105.8,382.7 L106.4,383.9 L106.3,388.4 L106.9,391.3 L107.1,394.1 L109.1,400.0 L109.7,402.9 L111.3,405.1 L111.1,405.4 L113.0,409.7 L114.6,409.8 L114.8,410.4 L113.6,411.0 L113.9,412.2 L115.1,413.6 L116.4,416.4 L118.2,418.9 L118.6,420.1 L120.0,420.6 L121.1,421.7 L121.2,423.9 L122.4,424.7 L123.4,430.4 L124.9,433.4 L126.1,437.6 L125.9,439.1 L126.8,446.4 L132.0,459.1 L133.5,461.1 L136.9,464.0 L139.7,467.3 L140.8,470.7 L144.1,476.9 L144.5,480.0 L145.8,484.3 L147.9,488.2 L149.1,488.7 L150.0,490.0 L148.4,491.1 L150.4,497.2 L151.3,503.2 L152.1,504.5 L152.3,507.2 L154.2,509.8 L154.5,511.0 L155.3,512.4 L160.0,516.2 L162.4,517.6 L162.6,519.0 L165.0,521.1 L166.7,521.0 L169.0,522.5 L171.9,523.1 L178.1,519.2 L182.1,517.3 L183.1,510.0 L183.7,508.5 L184.8,507.7 L186.1,507.1 L187.7,507.1 L190.4,506.2 L196.8,505.6 L197.7,504.9 L196.3,502.4 L194.9,501.2 L194.9,500.4 L196.1,497.1 L200.0,492.8 L199.5,491.5 L201.2,488.8 L206.9,489.1 L210.1,488.3 L211.0,487.7 L210.1,484.6 L210.2,481.6 L209.5,477.4 L209.6,474.5 L208.2,470.2 L209.2,469.0 L208.3,466.3 L210.1,460.5 L212.7,459.1 L214.2,456.7 L213.8,455.3 L212.9,454.0 L216.3,451.3 L216.8,449.7 L218.2,447.3 L218.2,444.2 L217.4,441.5 L216.3,440.4 L214.3,439.7 L214.0,438.5 L215.3,438.3 L216.8,439.0 L216.9,438.0 L216.3,435.0 L213.6,429.2 L215.4,426.9 L215.4,426.1 L213.2,418.0 L212.8,413.7 L214.8,411.8 L216.9,408.1 L219.6,405.9 L220.6,405.6 L222.3,405.5 L223.7,406.1 L224.5,407.2 L226.0,407.7 L228.7,404.1 L229.7,403.4 L229.9,401.6 L230.9,400.9 L231.6,397.6 L232.4,397.0 L233.9,396.5 L236.4,397.9 L238.1,397.8 L240.9,397.1 L245.2,395.2 L247.5,393.5 L248.1,392.6 L248.1,390.7 L247.3,386.1 L254.5,381.4 L258.5,380.0 L262.4,376.6 L263.7,371.3 L267.3,368.4 L271.6,366.1 L273.6,364.6 L280.0,356.5 L281.3,353.2 L282.9,352.3 L284.7,349.9 L288.6,347.5 L289.1,346.3 L288.3,345.4 L286.8,345.2 L286.8,344.0 L289.4,342.4 L290.4,345.1 L291.8,345.0 L301.5,340.8 L304.4,339.0 L309.1,333.9 L309.5,332.4 L309.3,331.0 L311.2,328.6 L311.7,327.3 L311.8,324.4 L310.0,322.1 L309.4,320.7 L310.2,319.4 L313.4,316.3 L317.1,314.5 L322.1,313.7 L322.5,313.0 L322.2,312.0 L324.0,311.7 L324.8,310.9 L324.5,309.3 L325.3,308.1 L326.7,308.2 L327.1,309.3 L327.1,310.7 L328.5,311.0 L330.0,311.0 L331.3,310.3 L333.4,308.1 L336.1,309.3 L337.4,309.2 L338.2,308.2 L338.6,305.2 L338.4,303.7 L336.9,300.9 L336.8,297.9 L335.5,295.4 L335.7,292.6 L335.0,289.8 L336.0,288.7 L335.9,287.2 L335.0,286.3 L333.2,285.9 L332.6,285.3 L333.2,284.2 L333.3,282.6 L332.5,281.2 L331.1,280.9 L330.0,280.0 L329.7,278.3 L330.2,277.1 L332.1,274.8 L331.6,269.1 L325.4,268.4 L323.1,264.9 L323.3,262.2 L326.4,261.2 L326.8,258.3 L327.5,257.2 L330.4,256.4 L333.3,256.4 L334.4,255.5 L333.9,252.3 L332.5,251.9 L331.5,251.2 L331.2,249.7 L328.4,249.8 L326.9,249.0 L326.4,247.9 L325.3,247.0 L321.6,244.5 L322.8,242.3 L321.6,241.5 L324.5,239.3 L325.3,238.9 L325.5,239.1 L326.7,237.8 L326.0,236.0 L328.8,240.2 L330.1,241.1 L331.3,240.8 L330.5,239.3 L330.8,238.7 L332.4,239.3 L333.5,238.5 L334.4,238.9 L337.4,242.6 L339.0,243.0 L342.0,242.8 L342.0,241.2 L342.6,240.8 L344.4,241.9 L344.1,245.2 L345.4,248.5 L343.7,250.8 L344.8,253.6 L347.7,254.0 L349.2,254.7 L354.8,255.3 L356.6,255.0 L357.3,254.1 L358.5,253.7 L359.2,254.4 L360.7,254.6 L362.5,254.5 L363.9,253.6 L364.9,253.5 L366.5,254.3 L370.9,254.8 L372.6,254.5 L372.8,253.4 L376.2,253.2 L379.7,255.1 L379.6,255.4 L378.4,255.6 L377.5,256.6 L378.6,257.9 L379.0,259.3 L377.3,261.1 L377.2,263.3 L375.0,263.5 L375.1,266.7 L372.3,266.7 L370.2,268.8 L367.3,269.7 L366.4,270.7 L364.6,276.5 L364.7,278.0 L366.6,281.7 L367.7,286.6 L368.5,287.1 L369.4,286.3 L369.5,285.0 L370.6,286.1 L371.0,287.8 L371.8,288.5 L373.6,288.8 L374.6,288.2 L375.4,286.7 L375.1,283.7 L374.4,282.6 L376.2,280.3 L376.9,277.1 L379.4,276.0 L379.7,275.3 L380.4,277.7 L381.2,278.6 L381.5,281.7 L383.6,285.4 L382.4,288.5 L382.7,289.5 L384.8,292.2 L386.0,301.3 L385.9,304.0 L386.4,305.3 L387.5,306.2 L389.3,304.7 L390.8,305.6 L392.3,305.9 L393.3,303.3 L395.0,300.7 L394.6,294.6 L392.4,287.6 L393.1,286.6 L394.8,286.2 L396.9,285.0 L397.0,283.8 L397.2,281.0 L395.7,279.0 L396.6,277.9 L396.9,273.3 L396.4,270.8 L399.2,269.2 L400.5,270.2 L401.2,270.0 L403.8,270.4 L404.7,270.9 L405.9,270.3 L406.7,269.1 L406.2,267.7 L407.4,264.8 L408.1,261.9 L409.0,261.1 L409.9,257.9 L411.9,254.1 L411.8,251.1 L410.1,249.0 L409.6,247.6 L411.0,245.7 L412.7,244.7 L414.7,241.9 L415.4,237.5 L416.4,234.5 L414.4,227.7 L415.7,226.0 L417.5,225.8 L419.1,224.5 L418.9,223.4 L421.3,221.6 L423.2,219.7 L425.1,218.8 L425.9,217.7 L425.9,216.5 L426.9,214.7 L432.0,213.4 L434.6,211.6 L437.4,214.8 L440.5,215.2 L441.4,214.7 L440.4,211.9 L437.8,209.8 L436.8,207.1 L440.2,204.6 L441.9,202.7 L442.5,201.1 L442.3,199.4 L441.5,198.8 L442.3,196.7 L441.8,196.3 L440.1,196.3 L437.1,195.2 L435.8,195.6 L433.2,194.3 L431.8,194.2 L427.4,195.0 L430.4,192.1 L431.3,189.2 L429.0,185.0 L428.5,184.9 L426.6,185.6 L425.8,186.8 L425.1,186.1 L425.5,184.8 L427.9,182.6 L427.7,181.6 L425.0,180.8 L424.4,179.3 L423.3,179.0 L420.5,180.0 L418.0,181.9 L415.5,185.4 L414.0,185.9 L407.9,184.6 L406.5,183.8 L404.9,181.9 L403.7,181.9 L402.1,184.8 L398.7,187.5 L397.8,190.3 L395.1,193.5 L391.7,194.8 L389.2,194.6 L387.9,195.2 L387.0,196.4 L386.6,197.8 L386.6,199.3 L385.9,200.5 L383.0,201.3 L381.5,202.2 L380.1,204.0 L378.4,205.2 L379.5,205.8 L379.8,207.3 L379.5,208.3 L376.4,209.4 L371.5,210.0 L371.1,210.9 L369.6,211.6 L367.4,209.8 L365.8,209.1 L365.1,209.6 L365.2,214.2 L365.6,215.8 L366.5,216.3 L371.5,216.5 L372.8,217.1 L372.5,221.7 L373.2,222.7 L373.7,225.2 L369.5,224.7 L368.1,225.6 L364.0,226.5 L360.7,226.6 L360.3,227.5 L355.0,228.4 L351.9,226.0 L350.5,226.2 L347.9,227.6 L347.5,228.8 L345.7,228.4 L343.2,230.1 L343.0,229.6 L340.2,229.0 L339.2,228.0 L337.8,227.3 L335.2,228.7 L334.2,228.3 L334.4,227.7 L332.1,227.1 L330.6,225.7 L329.6,223.4 L330.9,220.8 L329.8,219.7 L329.3,218.2 L330.4,213.5 L328.8,209.8 L327.7,209.2 L325.7,209.0 L321.9,211.1 L318.8,211.8 L318.9,213.3 L319.9,214.3 L320.0,215.8 L318.5,218.6 L318.8,221.6 L318.0,225.5 L320.2,229.7 L320.0,230.1 L320.7,231.4 L320.2,236.2 L319.2,237.4 L318.7,236.6 L317.3,236.2 L312.9,237.3 L308.5,237.5 L306.2,235.4 L304.8,235.2 L302.4,236.6 L300.8,236.4 L299.9,237.0 L297.4,235.0 L296.0,234.6 L294.9,235.1 L292.3,234.0 L291.1,235.0 L290.0,234.2 L288.0,231.9 L286.8,231.2 L284.2,232.2 L282.6,232.4 L280.6,230.5 L275.8,229.4 L274.9,228.8 L275.0,225.7 L274.0,224.3 L272.4,223.4 L270.1,223.5 L267.9,221.2 L266.6,221.2 L262.1,222.2 L262.6,223.4 L259.2,222.6 L257.8,223.1 L257.0,224.2 L255.8,224.5 L254.7,223.3 L250.1,222.9 L248.9,220.2 L247.8,219.7 L244.8,219.8 L243.5,219.5 L241.3,217.5 L238.0,216.7 L235.2,216.6 L231.7,214.1 L229.9,211.8 L228.4,211.3 L224.6,208.3 L220.4,207.1 L217.5,204.0 L216.3,204.1 L215.3,205.3 L212.9,204.0 L210.5,202.2 L210.8,201.2 L212.0,200.4 L212.6,199.1 L213.8,194.9 L213.0,193.7 L214.3,191.1 L215.0,188.2 L217.4,186.4 L217.5,185.1 L219.0,185.1 L219.7,184.4 L221.3,181.8 L224.1,181.3 L223.9,178.8 L221.1,178.4 L219.2,175.9 L216.4,175.6 L213.2,174.5 L212.6,171.9 L211.7,170.8 L209.0,169.7 L206.8,168.1 L205.1,167.5 L203.3,167.7 L202.2,167.5 L200.1,165.0 L199.9,163.8 L197.4,160.4 L195.9,160.5 L195.0,161.5 L194.7,163.2 L194.1,163.6 L193.2,163.0 L193.6,162.8 L192.8,159.8 L193.9,158.7 L193.9,157.9 L192.4,154.8 L192.9,153.4 L192.5,151.8 L190.5,148.2 L189.6,147.2 L189.6,142.3 L191.0,142.4 L192.2,143.5 L192.9,145.4 L193.7,146.3 L195.1,146.9 L196.5,146.5 L199.2,143.3 L201.9,143.3 L203.1,142.3 L204.0,140.7 L204.0,139.4 L200.6,134.4 L202.1,131.9 L201.5,130.7 L195.6,129.6 L195.0,128.2 L194.7,126.7 L195.2,125.4 L197.0,123.3 L194.9,119.6 L194.7,118.4 L196.2,118.1 L200.6,119.5 L201.8,118.9 L202.2,117.6 L203.4,116.6 L204.5,112.1 L207.2,111.3 L207.6,108.8 L209.2,108.9 L210.6,108.4 L211.3,107.3 L212.5,101.6 L214.5,97.4 L214.2,94.5 L209.6,90.6 L208.4,89.9 L206.7,89.8 L205.5,89.3 L204.5,88.4 L203.1,88.3 L202.5,86.6 L201.5,86.5 L196.7,89.5 L195.4,88.4 L194.1,88.1 L192.7,89.1 L187.2,90.6 L183.5,93.5 L177.0,95.3 L176.1,94.7 L175.8,93.1 L174.8,91.6 L173.1,89.9 L171.7,89.7 L168.3,90.4 L167.4,89.7 L165.9,86.9 L165.4,84.0 L163.9,83.6 L160.8,80.4 L159.2,80.3 L156.5,79.3 L154.8,77.0 L152.4,75.0 L149.9,71.5 L148.6,70.5 L148.5,69.2 L147.6,68.3 L146.3,68.7 L145.5,69.4 L144.4,68.6 L142.0,70.1 L139.8,68.0 L138.5,67.7 L137.8,70.0 L135.3,68.5 L134.2,69.6 L131.4,70.3 L130.7,71.7 L129.9,71.6 L127.6,69.8 L126.4,70.3 L125.8,71.5 L127.8,73.5 L127.2,74.4 L124.4,73.0 L122.9,72.9 L118.5,73.5 L117.3,74.2 L116.4,75.6 L115.4,76.5 L114.1,76.4 L114.0,78.4 L113.6,79.3 L112.4,79.5 L109.9,81.6 L108.9,82.8 L108.9,84.0 L109.9,85.8 L109.7,88.2 L111.0,89.1 L113.9,89.0 L115.1,88.6 L116.4,89.0 L121.7,94.6 L124.3,93.8 L124.1,95.4 L125.2,97.9 L126.4,99.0 L130.2,100.9 L128.7,103.6 L127.6,104.7 L124.9,105.0 L122.9,107.2 L120.3,108.6 L120.3,110.0 L120.9,111.4 L120.2,112.4 L121.1,115.3 L120.6,118.3 L121.7,121.0 L122.2,124.0 L122.1,125.4 L121.2,126.5 L121.1,132.3 L123.4,134.7 L128.7,136.4 L130.8,138.4 L132.5,139.2 L135.4,139.6 L135.6,142.2 L136.6,143.3 L139.5,144.4 L140.7,144.2 L142.1,145.2 L143.7,145.3 L145.1,146.6 L144.9,148.1 L144.1,149.0 L139.8,150.2 L137.2,151.8 L135.6,152.1 L134.8,152.7 L133.0,155.7 L134.7,159.6 L134.8,161.1 L133.7,162.1 L133.2,163.4 L134.0,165.9 L132.3,166.5 L131.2,167.6 L129.4,171.7 L127.0,173.5 L125.1,175.6 L124.7,176.7 L125.0,178.5 L124.6,180.1 L123.5,180.9 L122.3,181.1 L121.6,181.8 L117.2,182.9 L115.0,190.2 L113.0,192.7 L110.9,196.3 L108.0,199.7 L104.6,200.1 L103.4,200.7 L103.0,201.9 L99.9,204.9 L98.9,208.1 L98.1,209.2 L95.5,210.7 L94.6,211.8 L93.5,214.6 L92.3,215.2 L86.1,215.0 L81.3,215.8 L79.1,217.1 L77.8,214.6 L77.7,211.9 L76.3,211.0 L75.1,211.2 L70.8,213.4 L65.9,219.5 L60.4,224.0 L58.7,226.5 L58.7,229.3 L60.9,233.5 L62.4,234.1 L63.6,234.0 L64.9,235.0 L67.8,235.1 L68.5,237.5 L66.0,243.0 L66.8,246.2 L70.7,250.6 L73.6,249.9 L75.1,250.1 L75.1,251.3 L74.0,252.4 L74.3,253.8 L77.0,259.4 L77.7,262.4 L79.2,265.3Z" fill="none" stroke="#CACFD8" stroke-width="0.26" stroke-linejoin="round"/>
<path d="M252.8,278.8 L254.9,279.4 L257.6,279.3 L257.5,277.7 L259.6,276.0 L259.7,273.6 L260.5,271.5 L260.5,268.9 L261.4,267.0 L260.2,265.2 L258.8,262.7 L258.7,260.1 L259.7,258.2 L261.2,256.5 L262.3,254.5 L263.9,253.7 L265.4,252.1 L266.6,249.9 L268.8,248.8 L270.8,248.9 L273.7,249.0 L276.0,248.8 L275.2,247.2 L272.8,246.1 L270.8,244.7 L268.6,243.7 L266.6,241.7 L268.1,241.0 L269.0,239.1 L267.2,237.5 L266.0,236.2 L267.8,234.6 L270.3,234.7 L270.8,233.0 L269.4,230.9 L268.0,229.2 L265.6,228.4 L265.2,225.9 L264.5,223.6 L262.2,223.2 L259.8,222.5 L257.5,223.4 L255.8,224.5 L253.8,223.1 L250.8,222.9 L249.4,221.8 L248.3,219.8 L245.9,219.7 L243.5,219.4 L241.6,217.7 L238.9,216.9 L236.6,216.7 L234.2,216.1 L232.4,214.6 L230.6,212.7 L228.7,211.5 L226.8,210.1 L224.5,208.2 L222.6,207.8 L220.0,206.8 L218.5,205.0 L216.4,203.9 L214.9,205.2 L212.7,203.9 L210.3,201.9 L208.7,201.1 L206.5,200.6 L204.5,199.6 L201.4,197.9 L198.5,196.4 L197.4,195.8 L196.7,193.9 L195.4,190.9 L193.8,189.2 L191.3,187.9 L189.4,186.6 L187.8,184.9 L185.6,183.4 L183.1,184.1 L181.5,186.1 L180.7,185.3 L180.6,182.6 L180.3,179.5 L178.5,177.4 L176.3,176.8 L176.0,176.8 L177.1,175.4 L175.5,174.6 L173.1,172.7 L172.3,170.3 L170.7,168.8 L167.8,168.9 L165.3,169.5 L164.1,171.0 L163.5,172.7 L161.0,174.2 L158.3,175.4 L156.3,176.5 L155.7,177.8 L154.2,178.4 L151.7,178.8 L148.4,179.0 L144.9,179.2 L141.2,179.4 L137.9,179.5 L135.2,179.5 L133.4,179.5 L132.7,179.7 L131.2,181.3 L129.8,181.2 L127.0,181.2 L123.8,181.0 L122.1,181.3 L119.6,182.2 L117.4,182.8 L116.6,184.4 L115.7,187.7 L115.1,190.0 L113.7,191.7 L112.4,193.9 L111.4,195.6 L109.4,198.2 L108.1,199.7 L105.5,200.1 L103.3,200.9 L102.0,203.0 L100.2,204.3 L99.3,206.9 L98.2,209.1 L96.0,210.5 L94.4,212.1 L93.6,214.4 L91.4,215.3 L89.2,215.0 L86.3,215.0 L84.2,215.5 L81.2,215.9 L79.2,217.0 L78.3,215.4 L77.8,212.7 L76.5,211.1 L74.2,211.5 L71.5,212.8 L70.3,214.0 L68.4,216.5 L66.5,218.8 L65.6,219.9 L63.3,221.7 L61.1,223.5 L59.5,224.9 L58.6,227.2 L58.7,229.5 L59.9,232.0 L61.6,234.0 L63.8,234.1 L65.9,235.1 L68.1,235.6 L68.5,237.6 L67.3,240.2 L66.1,242.5 L66.5,244.9 L67.1,246.8 L69.1,249.0 L70.8,250.7 L73.3,250.0 L75.3,250.6 L74.0,252.5 L74.8,255.2 L75.7,257.1 L77.0,259.5 L77.5,261.9 L78.8,263.9 L81.1,262.8 L82.0,264.2 L84.8,263.9 L87.2,263.4 L89.4,264.0 L91.6,264.6 L92.5,264.5 L95.0,264.4 L97.7,264.6 L98.0,265.7 L98.1,266.5 L100.7,267.5 L102.4,268.1 L104.4,269.3 L106.7,269.5 L108.3,267.6 L109.1,266.7 L110.1,269.1 L109.3,270.9 L110.1,273.1 L110.9,275.5 L112.2,273.6 L113.3,275.2 L113.9,277.5 L113.0,279.4 L114.8,281.3 L117.2,282.2 L117.3,284.7 L118.7,286.4 L120.5,286.3 L122.1,286.9 L123.9,288.4 L124.1,288.6 L122.5,290.7 L121.3,292.4 L120.9,293.7 L120.7,295.9 L120.8,298.9 L121.0,302.1 L121.5,305.3 L122.1,307.9 L122.6,308.8 L121.7,309.0 L119.3,309.6 L119.2,312.4 L119.7,315.4 L119.9,317.5 L118.9,319.0 L116.9,321.1 L116.6,323.0 L117.5,326.2 L117.7,327.8 L115.5,326.9 L113.0,327.4 L111.9,330.3 L111.2,332.9 L110.7,334.7 L110.0,337.0 L109.1,339.1 L106.9,338.1 L104.4,337.7 L102.0,337.4 L100.4,337.6 L99.9,340.0 L98.7,342.7 L98.8,344.8 L100.0,347.0 L99.7,349.5 L100.6,351.1 L100.2,353.5 L100.2,356.2 L101.1,356.4 L103.0,354.8 L103.3,356.0 L102.2,357.6 L101.2,358.8 L100.8,360.9 L101.7,363.2 L100.6,364.5 L102.5,367.4 L102.6,369.4 L103.6,371.5 L104.7,374.2 L105.0,376.7 L104.7,379.2 L106.1,380.7 L106.0,383.2 L106.4,384.8 L106.2,387.8 L106.7,390.3 L106.9,392.7 L107.3,395.2 L108.2,397.9 L109.1,400.0 L109.5,402.4 L111.1,404.5 L112.8,405.2 L115.1,403.8 L116.5,405.6 L118.8,406.0 L120.3,403.9 L122.7,403.7 L124.4,402.3 L124.5,399.7 L125.3,397.5 L123.7,395.7 L122.7,393.6 L123.6,392.1 L125.9,391.4 L128.3,391.7 L129.9,390.0 L132.5,389.5 L133.1,387.2 L135.0,387.3 L137.3,387.9 L139.2,386.7 L142.0,386.4 L144.2,386.3 L144.3,384.0 L144.3,381.7 L143.8,379.3 L145.9,380.4 L148.3,381.0 L150.8,381.0 L153.2,381.2 L155.6,381.6 L156.8,380.2 L155.1,378.5 L156.5,376.7 L158.2,374.7 L159.6,375.2 L160.7,376.3 L161.5,373.8 L163.5,373.6 L163.6,371.2 L164.7,369.4 L167.3,368.5 L168.8,366.1 L170.2,364.7 L171.3,367.3 L172.9,367.5 L174.1,365.0 L175.8,363.5 L177.1,361.4 L178.5,359.8 L179.3,358.3 L177.6,356.3 L178.4,354.4 L179.7,352.0 L181.8,353.3 L183.8,352.9 L184.6,350.8 L185.5,348.8 L186.7,346.6 L186.3,344.4 L188.3,345.1 L190.4,344.5 L192.7,344.9 L193.6,347.2 L196.3,348.1 L198.3,349.2 L199.6,348.3 L201.6,348.4 L204.2,348.6 L206.6,347.9 L208.7,348.9 L209.8,350.6 L209.5,353.4 L209.2,355.6 L209.8,358.0 L210.3,360.4 L212.7,361.4 L214.8,360.8 L216.4,359.2 L216.3,356.7 L217.3,354.7 L218.5,352.7 L220.6,352.0 L222.6,353.3 L224.2,351.5 L225.4,349.3 L223.8,347.8 L221.5,346.6 L220.2,344.9 L218.3,344.7 L219.6,342.7 L221.0,340.8 L219.3,338.9 L218.2,337.9 L220.6,337.0 L221.0,334.7 L220.5,332.6 L219.5,331.5 L220.4,329.7 L218.8,327.1 L218.3,324.7 L219.7,323.0 L221.1,321.8 L221.2,322.3 L222.6,320.2 L222.8,317.9 L223.2,315.1 L224.5,313.5 L223.6,312.1 L224.6,310.0 L226.6,309.3 L227.8,307.6 L229.6,306.3 L229.2,304.0 L231.1,304.2 L233.2,303.9 L235.1,303.5 L237.1,302.3 L238.3,300.6 L240.1,299.6 L238.2,297.8 L240.0,296.7 L241.0,295.4 L243.6,295.4 L244.6,293.5 L245.5,291.5 L244.2,289.7 L241.6,290.5 L240.5,288.1 L238.6,287.4 L236.1,288.3 L237.0,286.6 L237.1,284.2 L236.4,282.5 L238.1,284.4 L240.0,283.1 L241.7,283.4 L243.8,284.2 L246.0,284.5 L248.0,283.3 L250.4,284.4 L251.7,282.6 L249.6,280.5 L250.4,279.9 L252.3,278.8 L252.4,278.5 L252.8,278.8Z" fill="none" stroke="#9AA3B0" stroke-opacity="0.95" stroke-width="0.42" stroke-linejoin="round"/>
<path d="M 170.4,200.8 L 182.0,223.0 L 198.0,318.0" fill="none" stroke="#FFFFFF" stroke-width="1.78" stroke-linecap="round" stroke-linejoin="round"/>
<path d="M 170.4,200.8 L 182.0,223.0 L 198.0,318.0" fill="none" stroke="#B23B33" stroke-width="1.04" stroke-linecap="round" stroke-linejoin="round" stroke-dasharray="4 3"/>
<circle cx="170.4" cy="200.8" r="1.33" fill="#B23B33" stroke="#FFFFFF" stroke-width="0.45"/>
<text x="170.4" y="198.8" font-family="Arial" font-size="3.16" font-weight="bold" fill="#16233a" text-anchor="middle">Delhi</text>
<circle cx="198.0" cy="318.0" r="1.33" fill="#B23B33" stroke="#FFFFFF" stroke-width="0.45"/>
<text x="198.0" y="316.0" font-family="Arial" font-size="3.16" font-weight="bold" fill="#16233a" text-anchor="middle">Nagpur</text>
<text x="105.2" y="167.1" font-family="Georgia,serif" font-size="5.02" fill="#16233a">Delhi–Nagpur Industrial Corridor</text>
<text x="105.2" y="171.5" font-family="Arial" font-size="2.43" fill="#6a7689">DNIC · 5 states · Planned</text>
<line x1="232.8" y1="344.4" x2="238.0" y2="344.4" stroke="#B23B33" stroke-width="0.97" stroke-dasharray="4 3"/><text x="239.6" y="345.4" font-family="Arial" font-size="2.3" fill="#3a4a60">Corridor route</text>
<rect x="233.8" y="347.3" width="1.9" height="1.9" transform="rotate(45 234.7 348.3)" fill="#FFFFFF" stroke="#2563A8" stroke-width="0.55"/><text x="239.6" y="349.3" font-family="Arial" font-size="2.3" fill="#3a4a60">Industrial node</text>
<line x1="232.8" y1="351.5" x2="238.0" y2="351.5" stroke="#9AA3B0" stroke-opacity="0.95" stroke-width="0.42"/><text x="239.6" y="352.5" font-family="Arial" font-size="2.3" fill="#3a4a60">States traversed</text>
<text x="105.2" y="355.9" font-family="Arial" font-size="1.98" fill="#9aa3b2">Source: NICDC · National Industrial Corridor Development Programme.  © Techadyant Labs</text>
</svg>