<?xml version="1.0" encoding="utf-8" standalone="no"?>
<!DOCTYPE svg PUBLIC "-//W3C//DTD SVG 1.1//EN"
  "http://www.w3.org/Graphics/SVG/1.1/DTD/svg11.dtd">
<svg xmlns:xlink="http://www.w3.org/1999/xlink" width="720pt" height="720pt" viewBox="0 0 720 720" xmlns="http://www.w3.org/2000/svg" version="1.1">
 <metadata>
  <rdf:RDF xmlns:dc="http://purl.org/dc/elements/1.1/" xmlns:cc="http://creativecommons.org/ns#" xmlns:rdf="http://www.w3.org/1999/02/22-rdf-syntax-ns#">
   <cc:Work>
    <dc:type rdf:resource="http://purl.org/dc/dcmitype/StillImage"/>
    <dc:date>2026-07-03T06:23:39.607535</dc:date>
    <dc:format>image/svg+xml</dc:format>
    <dc:creator>
     <cc:Agent>
      <dc:title>Matplotlib v3.10.9, https://matplotlib.org/</dc:title>
     </cc:Agent>
    </dc:creator>
   </cc:Work>
  </rdf:RDF>
 </metadata>
 <defs>
  <style type="text/css">*{stroke-linejoin: round; stroke-linecap: butt}</style>
 </defs>
 <g id="figure_1">
  <g id="patch_1">
   <path d="M 0 720 
L 720 720 
L 720 0 
L 0 0 
z
" style="fill: #ffffff"/>
  </g>
  <g id="axes_1">
   <g id="patch_2">
    <path d="M 268.865455 496.552727 
C 309.147394 496.552727 347.784913 480.548543 376.268546 452.06491 
C 404.752179 423.581277 420.756364 384.943758 420.756364 344.661818 
C 420.756364 304.379878 404.752179 265.742359 376.268546 237.258726 
C 347.784913 208.775093 309.147394 192.770909 268.865455 192.770909 
C 228.583515 192.770909 189.945996 208.775093 161.462363 237.258726 
C 132.97873 265.742359 116.974545 304.379878 116.974545 344.661818 
C 116.974545 384.943758 132.97873 423.581277 161.462363 452.06491 
C 189.945996 480.548543 228.583515 496.552727 268.865455 496.552727 
z
" clip-path="url(#p676bf5b39a)" style="fill: #003366; opacity: 0.3; stroke: #003366; stroke-linejoin: miter"/>
   </g>
   <g id="patch_3">
    <path d="M 451.134545 496.552727 
C 491.416485 496.552727 530.054004 480.548543 558.537637 452.06491 
C 587.02127 423.581277 603.025455 384.943758 603.025455 344.661818 
C 603.025455 304.379878 587.02127 265.742359 558.537637 237.258726 
C 530.054004 208.775093 491.416485 192.770909 451.134545 192.770909 
C 410.852606 192.770909 372.215087 208.775093 343.731454 237.258726 
C 315.247821 265.742359 299.243636 304.379878 299.243636 344.661818 
C 299.243636 384.943758 315.247821 423.581277 343.731454 452.06491 
C 372.215087 480.548543 410.852606 496.552727 451.134545 496.552727 
z
" clip-path="url(#p676bf5b39a)" style="fill: #ff6600; opacity: 0.3; stroke: #ff6600; stroke-linejoin: miter"/>
   </g>
   <g id="patch_4">
    <path d="M 360 648.443636 
C 400.28194 648.443636 438.919459 632.439452 467.403092 603.955819 
C 495.886725 575.472186 511.890909 536.834667 511.890909 496.552727 
C 511.890909 456.270787 495.886725 417.633268 467.403092 389.149635 
C 438.919459 360.666003 400.28194 344.661818 360 344.661818 
C 319.71806 344.661818 281.080541 360.666003 252.596908 389.149635 
C 224.113275 417.633268 208.109091 456.270787 208.109091 496.552727 
C 208.109091 536.834667 224.113275 575.472186 252.596908 603.955819 
C 281.080541 632.439452 319.71806 648.443636 360 648.443636 
z
" clip-path="url(#p676bf5b39a)" style="fill: #0099ff; opacity: 0.3; stroke: #0099ff; stroke-linejoin: miter"/>
   </g>
   <g id="text_1">
    <!-- PERSISTENCE -->
    <g style="fill: #003366" transform="translate(189.085866 253.527273) scale(0.14 -0.14)">
     <defs>
      <path id="Arial-BoldMT-50" d="M 466 0 
L 466 4581 
L 1950 4581 
Q 2794 4581 3050 4513 
Q 3444 4409 3709 4064 
Q 3975 3719 3975 3172 
Q 3975 2750 3822 2462 
Q 3669 2175 3433 2011 
Q 3197 1847 2953 1794 
Q 2622 1728 1994 1728 
L 1391 1728 
L 1391 0 
L 466 0 
z
M 1391 3806 
L 1391 2506 
L 1897 2506 
Q 2444 2506 2628 2578 
Q 2813 2650 2917 2803 
Q 3022 2956 3022 3159 
Q 3022 3409 2875 3571 
Q 2728 3734 2503 3775 
Q 2338 3806 1838 3806 
L 1391 3806 
z
" transform="scale(0.015625)"/>
      <path id="Arial-BoldMT-45" d="M 466 0 
L 466 4581 
L 3863 4581 
L 3863 3806 
L 1391 3806 
L 1391 2791 
L 3691 2791 
L 3691 2019 
L 1391 2019 
L 1391 772 
L 3950 772 
L 3950 0 
L 466 0 
z
" transform="scale(0.015625)"/>
      <path id="Arial-BoldMT-52" d="M 469 0 
L 469 4581 
L 2416 4581 
Q 3150 4581 3483 4457 
Q 3816 4334 4016 4018 
Q 4216 3703 4216 3297 
Q 4216 2781 3912 2445 
Q 3609 2109 3006 2022 
Q 3306 1847 3501 1637 
Q 3697 1428 4028 894 
L 4588 0 
L 3481 0 
L 2813 997 
Q 2456 1531 2325 1670 
Q 2194 1809 2047 1861 
Q 1900 1913 1581 1913 
L 1394 1913 
L 1394 0 
L 469 0 
z
M 1394 2644 
L 2078 2644 
Q 2744 2644 2909 2700 
Q 3075 2756 3169 2893 
Q 3263 3031 3263 3238 
Q 3263 3469 3139 3611 
Q 3016 3753 2791 3791 
Q 2678 3806 2116 3806 
L 1394 3806 
L 1394 2644 
z
" transform="scale(0.015625)"/>
      <path id="Arial-BoldMT-53" d="M 231 1491 
L 1131 1578 
Q 1213 1125 1461 912 
Q 1709 700 2131 700 
Q 2578 700 2804 889 
Q 3031 1078 3031 1331 
Q 3031 1494 2936 1608 
Q 2841 1722 2603 1806 
Q 2441 1863 1863 2006 
Q 1119 2191 819 2459 
Q 397 2838 397 3381 
Q 397 3731 595 4036 
Q 794 4341 1167 4500 
Q 1541 4659 2069 4659 
Q 2931 4659 3367 4281 
Q 3803 3903 3825 3272 
L 2900 3231 
Q 2841 3584 2645 3739 
Q 2450 3894 2059 3894 
Q 1656 3894 1428 3728 
Q 1281 3622 1281 3444 
Q 1281 3281 1419 3166 
Q 1594 3019 2269 2859 
Q 2944 2700 3267 2529 
Q 3591 2359 3773 2064 
Q 3956 1769 3956 1334 
Q 3956 941 3737 597 
Q 3519 253 3119 86 
Q 2719 -81 2122 -81 
Q 1253 -81 787 320 
Q 322 722 231 1491 
z
" transform="scale(0.015625)"/>
      <path id="Arial-BoldMT-49" d="M 438 0 
L 438 4581 
L 1363 4581 
L 1363 0 
L 438 0 
z
" transform="scale(0.015625)"/>
      <path id="Arial-BoldMT-54" d="M 1497 0 
L 1497 3806 
L 138 3806 
L 138 4581 
L 3778 4581 
L 3778 3806 
L 2422 3806 
L 2422 0 
L 1497 0 
z
" transform="scale(0.015625)"/>
      <path id="Arial-BoldMT-4e" d="M 475 0 
L 475 4581 
L 1375 4581 
L 3250 1522 
L 3250 4581 
L 4109 4581 
L 4109 0 
L 3181 0 
L 1334 2988 
L 1334 0 
L 475 0 
z
" transform="scale(0.015625)"/>
      <path id="Arial-BoldMT-43" d="M 3397 1684 
L 4294 1400 
Q 4088 650 3608 286 
Q 3128 -78 2391 -78 
Q 1478 -78 890 545 
Q 303 1169 303 2250 
Q 303 3394 893 4026 
Q 1484 4659 2447 4659 
Q 3288 4659 3813 4163 
Q 4125 3869 4281 3319 
L 3366 3100 
Q 3284 3456 3026 3662 
Q 2769 3869 2400 3869 
Q 1891 3869 1573 3503 
Q 1256 3138 1256 2319 
Q 1256 1450 1568 1081 
Q 1881 713 2381 713 
Q 2750 713 3015 947 
Q 3281 1181 3397 1684 
z
" transform="scale(0.015625)"/>
     </defs>
     <use xlink:href="#Arial-BoldMT-50"/>
     <use xlink:href="#Arial-BoldMT-45" transform="translate(66.699219 0)"/>
     <use xlink:href="#Arial-BoldMT-52" transform="translate(133.398438 0)"/>
     <use xlink:href="#Arial-BoldMT-53" transform="translate(205.615234 0)"/>
     <use xlink:href="#Arial-BoldMT-49" transform="translate(272.314453 0)"/>
     <use xlink:href="#Arial-BoldMT-53" transform="translate(300.097656 0)"/>
     <use xlink:href="#Arial-BoldMT-54" transform="translate(366.796875 0)"/>
     <use xlink:href="#Arial-BoldMT-45" transform="translate(427.880859 0)"/>
     <use xlink:href="#Arial-BoldMT-4e" transform="translate(494.580078 0)"/>
     <use xlink:href="#Arial-BoldMT-43" transform="translate(566.796875 0)"/>
     <use xlink:href="#Arial-BoldMT-45" transform="translate(639.013672 0)"/>
    </g>
   </g>
   <g id="text_2">
    <!-- Time on Station -->
    <g style="fill: #003366" transform="translate(203.659929 273.18233) scale(0.1 -0.1)">
     <defs>
      <path id="ArialMT-54" d="M 1659 0 
L 1659 4041 
L 150 4041 
L 150 4581 
L 3781 4581 
L 3781 4041 
L 2266 4041 
L 2266 0 
L 1659 0 
z
" transform="scale(0.015625)"/>
      <path id="ArialMT-69" d="M 425 3934 
L 425 4581 
L 988 4581 
L 988 3934 
L 425 3934 
z
M 425 0 
L 425 3319 
L 988 3319 
L 988 0 
L 425 0 
z
" transform="scale(0.015625)"/>
      <path id="ArialMT-6d" d="M 422 0 
L 422 3319 
L 925 3319 
L 925 2853 
Q 1081 3097 1340 3245 
Q 1600 3394 1931 3394 
Q 2300 3394 2536 3241 
Q 2772 3088 2869 2813 
Q 3263 3394 3894 3394 
Q 4388 3394 4653 3120 
Q 4919 2847 4919 2278 
L 4919 0 
L 4359 0 
L 4359 2091 
Q 4359 2428 4304 2576 
Q 4250 2725 4106 2815 
Q 3963 2906 3769 2906 
Q 3419 2906 3187 2673 
Q 2956 2441 2956 1928 
L 2956 0 
L 2394 0 
L 2394 2156 
Q 2394 2531 2256 2718 
Q 2119 2906 1806 2906 
Q 1569 2906 1367 2781 
Q 1166 2656 1075 2415 
Q 984 2175 984 1722 
L 984 0 
L 422 0 
z
" transform="scale(0.015625)"/>
      <path id="ArialMT-65" d="M 2694 1069 
L 3275 997 
Q 3138 488 2766 206 
Q 2394 -75 1816 -75 
Q 1088 -75 661 373 
Q 234 822 234 1631 
Q 234 2469 665 2931 
Q 1097 3394 1784 3394 
Q 2450 3394 2872 2941 
Q 3294 2488 3294 1666 
Q 3294 1616 3291 1516 
L 816 1516 
Q 847 969 1125 678 
Q 1403 388 1819 388 
Q 2128 388 2347 550 
Q 2566 713 2694 1069 
z
M 847 1978 
L 2700 1978 
Q 2663 2397 2488 2606 
Q 2219 2931 1791 2931 
Q 1403 2931 1139 2672 
Q 875 2413 847 1978 
z
" transform="scale(0.015625)"/>
      <path id="ArialMT-20" transform="scale(0.015625)"/>
      <path id="ArialMT-6f" d="M 213 1659 
Q 213 2581 725 3025 
Q 1153 3394 1769 3394 
Q 2453 3394 2887 2945 
Q 3322 2497 3322 1706 
Q 3322 1066 3130 698 
Q 2938 331 2570 128 
Q 2203 -75 1769 -75 
Q 1072 -75 642 372 
Q 213 819 213 1659 
z
M 791 1659 
Q 791 1022 1069 705 
Q 1347 388 1769 388 
Q 2188 388 2466 706 
Q 2744 1025 2744 1678 
Q 2744 2294 2464 2611 
Q 2184 2928 1769 2928 
Q 1347 2928 1069 2612 
Q 791 2297 791 1659 
z
" transform="scale(0.015625)"/>
      <path id="ArialMT-6e" d="M 422 0 
L 422 3319 
L 928 3319 
L 928 2847 
Q 1294 3394 1984 3394 
Q 2284 3394 2536 3286 
Q 2788 3178 2913 3003 
Q 3038 2828 3088 2588 
Q 3119 2431 3119 2041 
L 3119 0 
L 2556 0 
L 2556 2019 
Q 2556 2363 2490 2533 
Q 2425 2703 2258 2804 
Q 2091 2906 1866 2906 
Q 1506 2906 1245 2678 
Q 984 2450 984 1813 
L 984 0 
L 422 0 
z
" transform="scale(0.015625)"/>
      <path id="ArialMT-53" d="M 288 1472 
L 859 1522 
Q 900 1178 1048 958 
Q 1197 738 1509 602 
Q 1822 466 2213 466 
Q 2559 466 2825 569 
Q 3091 672 3220 851 
Q 3350 1031 3350 1244 
Q 3350 1459 3225 1620 
Q 3100 1781 2813 1891 
Q 2628 1963 1997 2114 
Q 1366 2266 1113 2400 
Q 784 2572 623 2826 
Q 463 3081 463 3397 
Q 463 3744 659 4045 
Q 856 4347 1234 4503 
Q 1613 4659 2075 4659 
Q 2584 4659 2973 4495 
Q 3363 4331 3572 4012 
Q 3781 3694 3797 3291 
L 3216 3247 
Q 3169 3681 2898 3903 
Q 2628 4125 2100 4125 
Q 1550 4125 1298 3923 
Q 1047 3722 1047 3438 
Q 1047 3191 1225 3031 
Q 1400 2872 2139 2705 
Q 2878 2538 3153 2413 
Q 3553 2228 3743 1945 
Q 3934 1663 3934 1294 
Q 3934 928 3725 604 
Q 3516 281 3123 101 
Q 2731 -78 2241 -78 
Q 1619 -78 1198 103 
Q 778 284 539 648 
Q 300 1013 288 1472 
z
" transform="scale(0.015625)"/>
      <path id="ArialMT-74" d="M 1650 503 
L 1731 6 
Q 1494 -44 1306 -44 
Q 1000 -44 831 53 
Q 663 150 594 308 
Q 525 466 525 972 
L 525 2881 
L 113 2881 
L 113 3319 
L 525 3319 
L 525 4141 
L 1084 4478 
L 1084 3319 
L 1650 3319 
L 1650 2881 
L 1084 2881 
L 1084 941 
Q 1084 700 1114 631 
Q 1144 563 1211 522 
Q 1278 481 1403 481 
Q 1497 481 1650 503 
z
" transform="scale(0.015625)"/>
      <path id="ArialMT-61" d="M 2588 409 
Q 2275 144 1986 34 
Q 1697 -75 1366 -75 
Q 819 -75 525 192 
Q 231 459 231 875 
Q 231 1119 342 1320 
Q 453 1522 633 1644 
Q 813 1766 1038 1828 
Q 1203 1872 1538 1913 
Q 2219 1994 2541 2106 
Q 2544 2222 2544 2253 
Q 2544 2597 2384 2738 
Q 2169 2928 1744 2928 
Q 1347 2928 1158 2789 
Q 969 2650 878 2297 
L 328 2372 
Q 403 2725 575 2942 
Q 747 3159 1072 3276 
Q 1397 3394 1825 3394 
Q 2250 3394 2515 3294 
Q 2781 3194 2906 3042 
Q 3031 2891 3081 2659 
Q 3109 2516 3109 2141 
L 3109 1391 
Q 3109 606 3145 398 
Q 3181 191 3288 0 
L 2700 0 
Q 2613 175 2588 409 
z
M 2541 1666 
Q 2234 1541 1622 1453 
Q 1275 1403 1131 1340 
Q 988 1278 909 1158 
Q 831 1038 831 891 
Q 831 666 1001 516 
Q 1172 366 1500 366 
Q 1825 366 2078 508 
Q 2331 650 2450 897 
Q 2541 1088 2541 1459 
L 2541 1666 
z
" transform="scale(0.015625)"/>
     </defs>
     <use xlink:href="#ArialMT-54"/>
     <use xlink:href="#ArialMT-69" transform="translate(57.333984 0)"/>
     <use xlink:href="#ArialMT-6d" transform="translate(79.550781 0)"/>
     <use xlink:href="#ArialMT-65" transform="translate(162.851562 0)"/>
     <use xlink:href="#ArialMT-20" transform="translate(218.466797 0)"/>
     <use xlink:href="#ArialMT-6f" transform="translate(246.25 0)"/>
     <use xlink:href="#ArialMT-6e" transform="translate(301.865234 0)"/>
     <use xlink:href="#ArialMT-20" transform="translate(357.480469 0)"/>
     <use xlink:href="#ArialMT-53" transform="translate(385.263672 0)"/>
     <use xlink:href="#ArialMT-74" transform="translate(451.962891 0)"/>
     <use xlink:href="#ArialMT-61" transform="translate(479.746094 0)"/>
     <use xlink:href="#ArialMT-74" transform="translate(535.361328 0)"/>
     <use xlink:href="#ArialMT-69" transform="translate(563.144531 0)"/>
     <use xlink:href="#ArialMT-6f" transform="translate(585.361328 0)"/>
     <use xlink:href="#ArialMT-6e" transform="translate(640.976562 0)"/>
    </g>
    <!-- ISR Integration -->
    <g style="fill: #003366" transform="translate(205.137273 283.905455) scale(0.1 -0.1)">
     <defs>
      <path id="ArialMT-49" d="M 597 0 
L 597 4581 
L 1203 4581 
L 1203 0 
L 597 0 
z
" transform="scale(0.015625)"/>
      <path id="ArialMT-52" d="M 503 0 
L 503 4581 
L 2534 4581 
Q 3147 4581 3465 4457 
Q 3784 4334 3975 4021 
Q 4166 3709 4166 3331 
Q 4166 2844 3850 2509 
Q 3534 2175 2875 2084 
Q 3116 1969 3241 1856 
Q 3506 1613 3744 1247 
L 4541 0 
L 3778 0 
L 3172 953 
Q 2906 1366 2734 1584 
Q 2563 1803 2427 1890 
Q 2291 1978 2150 2013 
Q 2047 2034 1813 2034 
L 1109 2034 
L 1109 0 
L 503 0 
z
M 1109 2559 
L 2413 2559 
Q 2828 2559 3062 2645 
Q 3297 2731 3419 2920 
Q 3541 3109 3541 3331 
Q 3541 3656 3305 3865 
Q 3069 4075 2559 4075 
L 1109 4075 
L 1109 2559 
z
" transform="scale(0.015625)"/>
      <path id="ArialMT-67" d="M 319 -275 
L 866 -356 
Q 900 -609 1056 -725 
Q 1266 -881 1628 -881 
Q 2019 -881 2231 -725 
Q 2444 -569 2519 -288 
Q 2563 -116 2559 434 
Q 2191 0 1641 0 
Q 956 0 581 494 
Q 206 988 206 1678 
Q 206 2153 378 2554 
Q 550 2956 876 3175 
Q 1203 3394 1644 3394 
Q 2231 3394 2613 2919 
L 2613 3319 
L 3131 3319 
L 3131 450 
Q 3131 -325 2973 -648 
Q 2816 -972 2473 -1159 
Q 2131 -1347 1631 -1347 
Q 1038 -1347 672 -1080 
Q 306 -813 319 -275 
z
M 784 1719 
Q 784 1066 1043 766 
Q 1303 466 1694 466 
Q 2081 466 2343 764 
Q 2606 1063 2606 1700 
Q 2606 2309 2336 2618 
Q 2066 2928 1684 2928 
Q 1309 2928 1046 2623 
Q 784 2319 784 1719 
z
" transform="scale(0.015625)"/>
      <path id="ArialMT-72" d="M 416 0 
L 416 3319 
L 922 3319 
L 922 2816 
Q 1116 3169 1280 3281 
Q 1444 3394 1641 3394 
Q 1925 3394 2219 3213 
L 2025 2691 
Q 1819 2813 1613 2813 
Q 1428 2813 1281 2702 
Q 1134 2591 1072 2394 
Q 978 2094 978 1738 
L 978 0 
L 416 0 
z
" transform="scale(0.015625)"/>
     </defs>
     <use xlink:href="#ArialMT-49"/>
     <use xlink:href="#ArialMT-53" transform="translate(27.783203 0)"/>
     <use xlink:href="#ArialMT-52" transform="translate(94.482422 0)"/>
     <use xlink:href="#ArialMT-20" transform="translate(166.699219 0)"/>
     <use xlink:href="#ArialMT-49" transform="translate(194.482422 0)"/>
     <use xlink:href="#ArialMT-6e" transform="translate(222.265625 0)"/>
     <use xlink:href="#ArialMT-74" transform="translate(277.880859 0)"/>
     <use xlink:href="#ArialMT-65" transform="translate(305.664062 0)"/>
     <use xlink:href="#ArialMT-67" transform="translate(361.279297 0)"/>
     <use xlink:href="#ArialMT-72" transform="translate(416.894531 0)"/>
     <use xlink:href="#ArialMT-61" transform="translate(450.195312 0)"/>
     <use xlink:href="#ArialMT-74" transform="translate(505.810547 0)"/>
     <use xlink:href="#ArialMT-69" transform="translate(533.59375 0)"/>
     <use xlink:href="#ArialMT-6f" transform="translate(555.810547 0)"/>
     <use xlink:href="#ArialMT-6e" transform="translate(611.425781 0)"/>
    </g>
   </g>
   <g id="text_3">
    <!-- PRECISION -->
    <g style="fill: #ff6600" transform="translate(443.005071 253.527273) scale(0.14 -0.14)">
     <defs>
      <path id="Arial-BoldMT-4f" d="M 278 2263 
Q 278 2963 488 3438 
Q 644 3788 914 4066 
Q 1184 4344 1506 4478 
Q 1934 4659 2494 4659 
Q 3506 4659 4114 4031 
Q 4722 3403 4722 2284 
Q 4722 1175 4119 548 
Q 3516 -78 2506 -78 
Q 1484 -78 881 545 
Q 278 1169 278 2263 
z
M 1231 2294 
Q 1231 1516 1590 1114 
Q 1950 713 2503 713 
Q 3056 713 3411 1111 
Q 3766 1509 3766 2306 
Q 3766 3094 3420 3481 
Q 3075 3869 2503 3869 
Q 1931 3869 1581 3476 
Q 1231 3084 1231 2294 
z
" transform="scale(0.015625)"/>
     </defs>
     <use xlink:href="#Arial-BoldMT-50"/>
     <use xlink:href="#Arial-BoldMT-52" transform="translate(66.699219 0)"/>
     <use xlink:href="#Arial-BoldMT-45" transform="translate(138.916016 0)"/>
     <use xlink:href="#Arial-BoldMT-43" transform="translate(205.615234 0)"/>
     <use xlink:href="#Arial-BoldMT-49" transform="translate(277.832031 0)"/>
     <use xlink:href="#Arial-BoldMT-53" transform="translate(305.615234 0)"/>
     <use xlink:href="#Arial-BoldMT-49" transform="translate(372.314453 0)"/>
     <use xlink:href="#Arial-BoldMT-4f" transform="translate(400.097656 0)"/>
     <use xlink:href="#Arial-BoldMT-4e" transform="translate(477.880859 0)"/>
    </g>
   </g>
   <g id="text_4">
    <!-- Terminal Guidance -->
    <g style="fill: #ff6600" transform="translate(439.830696 273.32858) scale(0.1 -0.1)">
     <defs>
      <path id="ArialMT-6c" d="M 409 0 
L 409 4581 
L 972 4581 
L 972 0 
L 409 0 
z
" transform="scale(0.015625)"/>
      <path id="ArialMT-47" d="M 2638 1797 
L 2638 2334 
L 4578 2338 
L 4578 638 
Q 4131 281 3656 101 
Q 3181 -78 2681 -78 
Q 2006 -78 1454 211 
Q 903 500 622 1047 
Q 341 1594 341 2269 
Q 341 2938 620 3517 
Q 900 4097 1425 4378 
Q 1950 4659 2634 4659 
Q 3131 4659 3532 4498 
Q 3934 4338 4162 4050 
Q 4391 3763 4509 3300 
L 3963 3150 
Q 3859 3500 3706 3700 
Q 3553 3900 3268 4020 
Q 2984 4141 2638 4141 
Q 2222 4141 1919 4014 
Q 1616 3888 1430 3681 
Q 1244 3475 1141 3228 
Q 966 2803 966 2306 
Q 966 1694 1177 1281 
Q 1388 869 1791 669 
Q 2194 469 2647 469 
Q 3041 469 3416 620 
Q 3791 772 3984 944 
L 3984 1797 
L 2638 1797 
z
" transform="scale(0.015625)"/>
      <path id="ArialMT-75" d="M 2597 0 
L 2597 488 
Q 2209 -75 1544 -75 
Q 1250 -75 995 37 
Q 741 150 617 320 
Q 494 491 444 738 
Q 409 903 409 1263 
L 409 3319 
L 972 3319 
L 972 1478 
Q 972 1038 1006 884 
Q 1059 663 1231 536 
Q 1403 409 1656 409 
Q 1909 409 2131 539 
Q 2353 669 2445 892 
Q 2538 1116 2538 1541 
L 2538 3319 
L 3100 3319 
L 3100 0 
L 2597 0 
z
" transform="scale(0.015625)"/>
      <path id="ArialMT-64" d="M 2575 0 
L 2575 419 
Q 2259 -75 1647 -75 
Q 1250 -75 917 144 
Q 584 363 401 755 
Q 219 1147 219 1656 
Q 219 2153 384 2558 
Q 550 2963 881 3178 
Q 1213 3394 1622 3394 
Q 1922 3394 2156 3267 
Q 2391 3141 2538 2938 
L 2538 4581 
L 3097 4581 
L 3097 0 
L 2575 0 
z
M 797 1656 
Q 797 1019 1065 703 
Q 1334 388 1700 388 
Q 2069 388 2326 689 
Q 2584 991 2584 1609 
Q 2584 2291 2321 2609 
Q 2059 2928 1675 2928 
Q 1300 2928 1048 2622 
Q 797 2316 797 1656 
z
" transform="scale(0.015625)"/>
      <path id="ArialMT-63" d="M 2588 1216 
L 3141 1144 
Q 3050 572 2676 248 
Q 2303 -75 1759 -75 
Q 1078 -75 664 370 
Q 250 816 250 1647 
Q 250 2184 428 2587 
Q 606 2991 970 3192 
Q 1334 3394 1763 3394 
Q 2303 3394 2647 3120 
Q 2991 2847 3088 2344 
L 2541 2259 
Q 2463 2594 2264 2762 
Q 2066 2931 1784 2931 
Q 1359 2931 1093 2626 
Q 828 2322 828 1663 
Q 828 994 1084 691 
Q 1341 388 1753 388 
Q 2084 388 2306 591 
Q 2528 794 2588 1216 
z
" transform="scale(0.015625)"/>
     </defs>
     <use xlink:href="#ArialMT-54"/>
     <use xlink:href="#ArialMT-65" transform="translate(49.958984 0)"/>
     <use xlink:href="#ArialMT-72" transform="translate(105.574219 0)"/>
     <use xlink:href="#ArialMT-6d" transform="translate(138.875 0)"/>
     <use xlink:href="#ArialMT-69" transform="translate(222.175781 0)"/>
     <use xlink:href="#ArialMT-6e" transform="translate(244.392578 0)"/>
     <use xlink:href="#ArialMT-61" transform="translate(300.007812 0)"/>
     <use xlink:href="#ArialMT-6c" transform="translate(355.623047 0)"/>
     <use xlink:href="#ArialMT-20" transform="translate(377.839844 0)"/>
     <use xlink:href="#ArialMT-47" transform="translate(405.623047 0)"/>
     <use xlink:href="#ArialMT-75" transform="translate(483.40625 0)"/>
     <use xlink:href="#ArialMT-69" transform="translate(539.021484 0)"/>
     <use xlink:href="#ArialMT-64" transform="translate(561.238281 0)"/>
     <use xlink:href="#ArialMT-61" transform="translate(616.853516 0)"/>
     <use xlink:href="#ArialMT-6e" transform="translate(672.46875 0)"/>
     <use xlink:href="#ArialMT-63" transform="translate(728.083984 0)"/>
     <use xlink:href="#ArialMT-65" transform="translate(778.083984 0)"/>
    </g>
    <!-- AI Seekers -->
    <g style="fill: #ff6600" transform="translate(457.05804 283.905455) scale(0.1 -0.1)">
     <defs>
      <path id="ArialMT-41" d="M -9 0 
L 1750 4581 
L 2403 4581 
L 4278 0 
L 3588 0 
L 3053 1388 
L 1138 1388 
L 634 0 
L -9 0 
z
M 1313 1881 
L 2866 1881 
L 2388 3150 
Q 2169 3728 2063 4100 
Q 1975 3659 1816 3225 
L 1313 1881 
z
" transform="scale(0.015625)"/>
      <path id="ArialMT-6b" d="M 425 0 
L 425 4581 
L 988 4581 
L 988 1969 
L 2319 3319 
L 3047 3319 
L 1778 2088 
L 3175 0 
L 2481 0 
L 1384 1697 
L 988 1316 
L 988 0 
L 425 0 
z
" transform="scale(0.015625)"/>
      <path id="ArialMT-73" d="M 197 991 
L 753 1078 
Q 800 744 1014 566 
Q 1228 388 1613 388 
Q 2000 388 2187 545 
Q 2375 703 2375 916 
Q 2375 1106 2209 1216 
Q 2094 1291 1634 1406 
Q 1016 1563 777 1677 
Q 538 1791 414 1992 
Q 291 2194 291 2438 
Q 291 2659 392 2848 
Q 494 3038 669 3163 
Q 800 3259 1026 3326 
Q 1253 3394 1513 3394 
Q 1903 3394 2198 3281 
Q 2494 3169 2634 2976 
Q 2775 2784 2828 2463 
L 2278 2388 
Q 2241 2644 2061 2787 
Q 1881 2931 1553 2931 
Q 1166 2931 1000 2803 
Q 834 2675 834 2503 
Q 834 2394 903 2306 
Q 972 2216 1119 2156 
Q 1203 2125 1616 2013 
Q 2213 1853 2448 1751 
Q 2684 1650 2818 1456 
Q 2953 1263 2953 975 
Q 2953 694 2789 445 
Q 2625 197 2315 61 
Q 2006 -75 1616 -75 
Q 969 -75 630 194 
Q 291 463 197 991 
z
" transform="scale(0.015625)"/>
     </defs>
     <use xlink:href="#ArialMT-41"/>
     <use xlink:href="#ArialMT-49" transform="translate(66.699219 0)"/>
     <use xlink:href="#ArialMT-20" transform="translate(94.482422 0)"/>
     <use xlink:href="#ArialMT-53" transform="translate(122.265625 0)"/>
     <use xlink:href="#ArialMT-65" transform="translate(188.964844 0)"/>
     <use xlink:href="#ArialMT-65" transform="translate(244.580078 0)"/>
     <use xlink:href="#ArialMT-6b" transform="translate(300.195312 0)"/>
     <use xlink:href="#ArialMT-65" transform="translate(350.195312 0)"/>
     <use xlink:href="#ArialMT-72" transform="translate(405.810547 0)"/>
     <use xlink:href="#ArialMT-73" transform="translate(439.111328 0)"/>
    </g>
   </g>
   <g id="text_5">
    <!-- MASS -->
    <g style="fill: #0099ff" transform="translate(339.775469 587.687273) scale(0.14 -0.14)">
     <defs>
      <path id="Arial-BoldMT-4d" d="M 453 0 
L 453 4581 
L 1838 4581 
L 2669 1456 
L 3491 4581 
L 4878 4581 
L 4878 0 
L 4019 0 
L 4019 3606 
L 3109 0 
L 2219 0 
L 1313 3606 
L 1313 0 
L 453 0 
z
" transform="scale(0.015625)"/>
      <path id="Arial-BoldMT-41" d="M 4597 0 
L 3591 0 
L 3191 1041 
L 1359 1041 
L 981 0 
L 0 0 
L 1784 4581 
L 2763 4581 
L 4597 0 
z
M 2894 1813 
L 2263 3513 
L 1644 1813 
L 2894 1813 
z
" transform="scale(0.015625)"/>
     </defs>
     <use xlink:href="#Arial-BoldMT-4d"/>
     <use xlink:href="#Arial-BoldMT-41" transform="translate(83.300781 0)"/>
     <use xlink:href="#Arial-BoldMT-53" transform="translate(155.517578 0)"/>
     <use xlink:href="#Arial-BoldMT-53" transform="translate(222.216797 0)"/>
    </g>
   </g>
   <g id="text_6">
    <!-- Volume -->
    <g style="fill: #0099ff" transform="translate(343.322656 607.48858) scale(0.1 -0.1)">
     <defs>
      <path id="ArialMT-56" d="M 1803 0 
L 28 4581 
L 684 4581 
L 1875 1253 
Q 2019 853 2116 503 
Q 2222 878 2363 1253 
L 3600 4581 
L 4219 4581 
L 2425 0 
L 1803 0 
z
" transform="scale(0.015625)"/>
     </defs>
     <use xlink:href="#ArialMT-56"/>
     <use xlink:href="#ArialMT-6f" transform="translate(61.199219 0)"/>
     <use xlink:href="#ArialMT-6c" transform="translate(116.814453 0)"/>
     <use xlink:href="#ArialMT-75" transform="translate(139.03125 0)"/>
     <use xlink:href="#ArialMT-6d" transform="translate(194.646484 0)"/>
     <use xlink:href="#ArialMT-65" transform="translate(277.947266 0)"/>
    </g>
    <!-- Attrition Economics -->
    <g style="fill: #0099ff" transform="translate(317.208594 618.065455) scale(0.1 -0.1)">
     <defs>
      <path id="ArialMT-45" d="M 506 0 
L 506 4581 
L 3819 4581 
L 3819 4041 
L 1113 4041 
L 1113 2638 
L 3647 2638 
L 3647 2100 
L 1113 2100 
L 1113 541 
L 3925 541 
L 3925 0 
L 506 0 
z
" transform="scale(0.015625)"/>
     </defs>
     <use xlink:href="#ArialMT-41"/>
     <use xlink:href="#ArialMT-74" transform="translate(66.699219 0)"/>
     <use xlink:href="#ArialMT-74" transform="translate(94.482422 0)"/>
     <use xlink:href="#ArialMT-72" transform="translate(122.265625 0)"/>
     <use xlink:href="#ArialMT-69" transform="translate(155.566406 0)"/>
     <use xlink:href="#ArialMT-74" transform="translate(177.783203 0)"/>
     <use xlink:href="#ArialMT-69" transform="translate(205.566406 0)"/>
     <use xlink:href="#ArialMT-6f" transform="translate(227.783203 0)"/>
     <use xlink:href="#ArialMT-6e" transform="translate(283.398438 0)"/>
     <use xlink:href="#ArialMT-20" transform="translate(339.013672 0)"/>
     <use xlink:href="#ArialMT-45" transform="translate(366.796875 0)"/>
     <use xlink:href="#ArialMT-63" transform="translate(433.496094 0)"/>
     <use xlink:href="#ArialMT-6f" transform="translate(483.496094 0)"/>
     <use xlink:href="#ArialMT-6e" transform="translate(539.111328 0)"/>
     <use xlink:href="#ArialMT-6f" transform="translate(594.726562 0)"/>
     <use xlink:href="#ArialMT-6d" transform="translate(650.341797 0)"/>
     <use xlink:href="#ArialMT-69" transform="translate(733.642578 0)"/>
     <use xlink:href="#ArialMT-63" transform="translate(755.859375 0)"/>
     <use xlink:href="#ArialMT-73" transform="translate(805.859375 0)"/>
    </g>
   </g>
   <g id="text_7">
    <g id="patch_5">
     <path d="M 326.66625 383.408125 
L 393.33375 383.408125 
Q 399.33375 383.408125 399.33375 377.408125 
L 399.33375 353.77525 
Q 399.33375 347.77525 393.33375 347.77525 
L 326.66625 347.77525 
Q 320.66625 347.77525 320.66625 353.77525 
L 320.66625 377.408125 
Q 320.66625 383.408125 326.66625 383.408125 
z
" style="fill: #ffffff; stroke: #000000; stroke-width: 2; stroke-linejoin: miter"/>
    </g>
    <!-- OPTIMAL -->
    <g transform="translate(333.00375 362.364625) scale(0.12 -0.12)">
     <defs>
      <path id="Arial-BoldMT-4c" d="M 491 0 
L 491 4544 
L 1416 4544 
L 1416 772 
L 3716 772 
L 3716 0 
L 491 0 
z
" transform="scale(0.015625)"/>
     </defs>
     <use xlink:href="#Arial-BoldMT-4f"/>
     <use xlink:href="#Arial-BoldMT-50" transform="translate(77.783203 0)"/>
     <use xlink:href="#Arial-BoldMT-54" transform="translate(144.482422 0)"/>
     <use xlink:href="#Arial-BoldMT-49" transform="translate(205.566406 0)"/>
     <use xlink:href="#Arial-BoldMT-4d" transform="translate(233.349609 0)"/>
     <use xlink:href="#Arial-BoldMT-41" transform="translate(316.650391 0)"/>
     <use xlink:href="#Arial-BoldMT-4c" transform="translate(388.867188 0)"/>
    </g>
    <!-- LM DESIGN -->
    <g transform="translate(326.66625 375.04) scale(0.12 -0.12)">
     <defs>
      <path id="Arial-BoldMT-20" transform="scale(0.015625)"/>
      <path id="Arial-BoldMT-44" d="M 463 4581 
L 2153 4581 
Q 2725 4581 3025 4494 
Q 3428 4375 3715 4072 
Q 4003 3769 4153 3330 
Q 4303 2891 4303 2247 
Q 4303 1681 4163 1272 
Q 3991 772 3672 463 
Q 3431 228 3022 97 
Q 2716 0 2203 0 
L 463 0 
L 463 4581 
z
M 1388 3806 
L 1388 772 
L 2078 772 
Q 2466 772 2638 816 
Q 2863 872 3011 1006 
Q 3159 1141 3253 1448 
Q 3347 1756 3347 2288 
Q 3347 2819 3253 3103 
Q 3159 3388 2990 3547 
Q 2822 3706 2563 3763 
Q 2369 3806 1803 3806 
L 1388 3806 
z
" transform="scale(0.015625)"/>
      <path id="Arial-BoldMT-47" d="M 2597 1684 
L 2597 2456 
L 4591 2456 
L 4591 631 
Q 4300 350 3748 136 
Q 3197 -78 2631 -78 
Q 1913 -78 1378 223 
Q 844 525 575 1086 
Q 306 1647 306 2306 
Q 306 3022 606 3578 
Q 906 4134 1484 4431 
Q 1925 4659 2581 4659 
Q 3434 4659 3914 4301 
Q 4394 3944 4531 3313 
L 3613 3141 
Q 3516 3478 3248 3673 
Q 2981 3869 2581 3869 
Q 1975 3869 1617 3484 
Q 1259 3100 1259 2344 
Q 1259 1528 1621 1120 
Q 1984 713 2572 713 
Q 2863 713 3155 827 
Q 3447 941 3656 1103 
L 3656 1684 
L 2597 1684 
z
" transform="scale(0.015625)"/>
     </defs>
     <use xlink:href="#Arial-BoldMT-4c"/>
     <use xlink:href="#Arial-BoldMT-4d" transform="translate(61.083984 0)"/>
     <use xlink:href="#Arial-BoldMT-20" transform="translate(144.384766 0)"/>
     <use xlink:href="#Arial-BoldMT-44" transform="translate(172.167969 0)"/>
     <use xlink:href="#Arial-BoldMT-45" transform="translate(244.384766 0)"/>
     <use xlink:href="#Arial-BoldMT-53" transform="translate(311.083984 0)"/>
     <use xlink:href="#Arial-BoldMT-49" transform="translate(377.783203 0)"/>
     <use xlink:href="#Arial-BoldMT-47" transform="translate(405.566406 0)"/>
     <use xlink:href="#Arial-BoldMT-4e" transform="translate(483.349609 0)"/>
    </g>
   </g>
   <g id="text_8">
    <!-- Figure 2.1: The Three Organizing Principles of LM Design -->
    <g style="fill: #003366" transform="translate(169.430469 20.88) scale(0.14 -0.14)">
     <defs>
      <path id="Arial-BoldMT-46" d="M 472 0 
L 472 4581 
L 3613 4581 
L 3613 3806 
L 1397 3806 
L 1397 2722 
L 3309 2722 
L 3309 1947 
L 1397 1947 
L 1397 0 
L 472 0 
z
" transform="scale(0.015625)"/>
      <path id="Arial-BoldMT-69" d="M 459 3769 
L 459 4581 
L 1338 4581 
L 1338 3769 
L 459 3769 
z
M 459 0 
L 459 3319 
L 1338 3319 
L 1338 0 
L 459 0 
z
" transform="scale(0.015625)"/>
      <path id="Arial-BoldMT-67" d="M 378 -219 
L 1381 -341 
Q 1406 -516 1497 -581 
Q 1622 -675 1891 -675 
Q 2234 -675 2406 -572 
Q 2522 -503 2581 -350 
Q 2622 -241 2622 53 
L 2622 538 
Q 2228 0 1628 0 
Q 959 0 569 566 
Q 263 1013 263 1678 
Q 263 2513 664 2953 
Q 1066 3394 1663 3394 
Q 2278 3394 2678 2853 
L 2678 3319 
L 3500 3319 
L 3500 341 
Q 3500 -247 3403 -537 
Q 3306 -828 3131 -993 
Q 2956 -1159 2664 -1253 
Q 2372 -1347 1925 -1347 
Q 1081 -1347 728 -1058 
Q 375 -769 375 -325 
Q 375 -281 378 -219 
z
M 1163 1728 
Q 1163 1200 1367 954 
Q 1572 709 1872 709 
Q 2194 709 2416 961 
Q 2638 1213 2638 1706 
Q 2638 2222 2425 2472 
Q 2213 2722 1888 2722 
Q 1572 2722 1367 2476 
Q 1163 2231 1163 1728 
z
" transform="scale(0.015625)"/>
      <path id="Arial-BoldMT-75" d="M 2644 0 
L 2644 497 
Q 2463 231 2167 78 
Q 1872 -75 1544 -75 
Q 1209 -75 943 72 
Q 678 219 559 484 
Q 441 750 441 1219 
L 441 3319 
L 1319 3319 
L 1319 1794 
Q 1319 1094 1367 936 
Q 1416 778 1544 686 
Q 1672 594 1869 594 
Q 2094 594 2272 717 
Q 2450 841 2515 1023 
Q 2581 1206 2581 1919 
L 2581 3319 
L 3459 3319 
L 3459 0 
L 2644 0 
z
" transform="scale(0.015625)"/>
      <path id="Arial-BoldMT-72" d="M 1300 0 
L 422 0 
L 422 3319 
L 1238 3319 
L 1238 2847 
Q 1447 3181 1614 3287 
Q 1781 3394 1994 3394 
Q 2294 3394 2572 3228 
L 2300 2463 
Q 2078 2606 1888 2606 
Q 1703 2606 1575 2504 
Q 1447 2403 1373 2137 
Q 1300 1872 1300 1025 
L 1300 0 
z
" transform="scale(0.015625)"/>
      <path id="Arial-BoldMT-65" d="M 2381 1056 
L 3256 909 
Q 3088 428 2723 176 
Q 2359 -75 1813 -75 
Q 947 -75 531 491 
Q 203 944 203 1634 
Q 203 2459 634 2926 
Q 1066 3394 1725 3394 
Q 2466 3394 2894 2905 
Q 3322 2416 3303 1406 
L 1103 1406 
Q 1113 1016 1316 798 
Q 1519 581 1822 581 
Q 2028 581 2168 693 
Q 2309 806 2381 1056 
z
M 2431 1944 
Q 2422 2325 2234 2523 
Q 2047 2722 1778 2722 
Q 1491 2722 1303 2513 
Q 1116 2303 1119 1944 
L 2431 1944 
z
" transform="scale(0.015625)"/>
      <path id="Arial-BoldMT-32" d="M 3238 816 
L 3238 0 
L 159 0 
Q 209 463 459 877 
Q 709 1291 1447 1975 
Q 2041 2528 2175 2725 
Q 2356 2997 2356 3263 
Q 2356 3556 2198 3714 
Q 2041 3872 1763 3872 
Q 1488 3872 1325 3706 
Q 1163 3541 1138 3156 
L 263 3244 
Q 341 3969 753 4284 
Q 1166 4600 1784 4600 
Q 2463 4600 2850 4234 
Q 3238 3869 3238 3325 
Q 3238 3016 3127 2736 
Q 3016 2456 2775 2150 
Q 2616 1947 2200 1565 
Q 1784 1184 1673 1059 
Q 1563 934 1494 816 
L 3238 816 
z
" transform="scale(0.015625)"/>
      <path id="Arial-BoldMT-2e" d="M 459 0 
L 459 878 
L 1338 878 
L 1338 0 
L 459 0 
z
" transform="scale(0.015625)"/>
      <path id="Arial-BoldMT-31" d="M 2519 0 
L 1641 0 
L 1641 3309 
Q 1159 2859 506 2644 
L 506 3441 
Q 850 3553 1253 3867 
Q 1656 4181 1806 4600 
L 2519 4600 
L 2519 0 
z
" transform="scale(0.015625)"/>
      <path id="Arial-BoldMT-3a" d="M 628 2441 
L 628 3319 
L 1506 3319 
L 1506 2441 
L 628 2441 
z
M 628 0 
L 628 878 
L 1506 878 
L 1506 0 
L 628 0 
z
" transform="scale(0.015625)"/>
      <path id="Arial-BoldMT-68" d="M 1334 4581 
L 1334 2897 
Q 1759 3394 2350 3394 
Q 2653 3394 2897 3281 
Q 3141 3169 3264 2994 
Q 3388 2819 3433 2606 
Q 3478 2394 3478 1947 
L 3478 0 
L 2600 0 
L 2600 1753 
Q 2600 2275 2550 2415 
Q 2500 2556 2373 2639 
Q 2247 2722 2056 2722 
Q 1838 2722 1666 2615 
Q 1494 2509 1414 2295 
Q 1334 2081 1334 1663 
L 1334 0 
L 456 0 
L 456 4581 
L 1334 4581 
z
" transform="scale(0.015625)"/>
      <path id="Arial-BoldMT-61" d="M 1116 2306 
L 319 2450 
Q 453 2931 781 3162 
Q 1109 3394 1756 3394 
Q 2344 3394 2631 3255 
Q 2919 3116 3036 2902 
Q 3153 2688 3153 2116 
L 3144 1091 
Q 3144 653 3186 445 
Q 3228 238 3344 0 
L 2475 0 
Q 2441 88 2391 259 
Q 2369 338 2359 363 
Q 2134 144 1878 34 
Q 1622 -75 1331 -75 
Q 819 -75 523 203 
Q 228 481 228 906 
Q 228 1188 362 1408 
Q 497 1628 739 1745 
Q 981 1863 1438 1950 
Q 2053 2066 2291 2166 
L 2291 2253 
Q 2291 2506 2166 2614 
Q 2041 2722 1694 2722 
Q 1459 2722 1328 2630 
Q 1197 2538 1116 2306 
z
M 2291 1594 
Q 2122 1538 1756 1459 
Q 1391 1381 1278 1306 
Q 1106 1184 1106 997 
Q 1106 813 1243 678 
Q 1381 544 1594 544 
Q 1831 544 2047 700 
Q 2206 819 2256 991 
Q 2291 1103 2291 1419 
L 2291 1594 
z
" transform="scale(0.015625)"/>
      <path id="Arial-BoldMT-6e" d="M 3478 0 
L 2600 0 
L 2600 1694 
Q 2600 2231 2544 2389 
Q 2488 2547 2361 2634 
Q 2234 2722 2056 2722 
Q 1828 2722 1647 2597 
Q 1466 2472 1398 2265 
Q 1331 2059 1331 1503 
L 1331 0 
L 453 0 
L 453 3319 
L 1269 3319 
L 1269 2831 
Q 1703 3394 2363 3394 
Q 2653 3394 2893 3289 
Q 3134 3184 3257 3021 
Q 3381 2859 3429 2653 
Q 3478 2447 3478 2063 
L 3478 0 
z
" transform="scale(0.015625)"/>
      <path id="Arial-BoldMT-7a" d="M 106 0 
L 106 684 
L 1350 2113 
Q 1656 2463 1803 2609 
Q 1650 2600 1400 2597 
L 228 2591 
L 228 3319 
L 2972 3319 
L 2972 2697 
L 1703 1234 
L 1256 750 
Q 1622 772 1709 772 
L 3069 772 
L 3069 0 
L 106 0 
z
" transform="scale(0.015625)"/>
      <path id="Arial-BoldMT-63" d="M 3353 2338 
L 2488 2181 
Q 2444 2441 2289 2572 
Q 2134 2703 1888 2703 
Q 1559 2703 1364 2476 
Q 1169 2250 1169 1719 
Q 1169 1128 1367 884 
Q 1566 641 1900 641 
Q 2150 641 2309 783 
Q 2469 925 2534 1272 
L 3397 1125 
Q 3263 531 2881 228 
Q 2500 -75 1859 -75 
Q 1131 -75 698 384 
Q 266 844 266 1656 
Q 266 2478 700 2936 
Q 1134 3394 1875 3394 
Q 2481 3394 2839 3133 
Q 3197 2872 3353 2338 
z
" transform="scale(0.015625)"/>
      <path id="Arial-BoldMT-70" d="M 434 3319 
L 1253 3319 
L 1253 2831 
Q 1413 3081 1684 3237 
Q 1956 3394 2288 3394 
Q 2866 3394 3269 2941 
Q 3672 2488 3672 1678 
Q 3672 847 3265 386 
Q 2859 -75 2281 -75 
Q 2006 -75 1782 34 
Q 1559 144 1313 409 
L 1313 -1263 
L 434 -1263 
L 434 3319 
z
M 1303 1716 
Q 1303 1156 1525 889 
Q 1747 622 2066 622 
Q 2372 622 2575 867 
Q 2778 1113 2778 1672 
Q 2778 2194 2568 2447 
Q 2359 2700 2050 2700 
Q 1728 2700 1515 2451 
Q 1303 2203 1303 1716 
z
" transform="scale(0.015625)"/>
      <path id="Arial-BoldMT-6c" d="M 459 0 
L 459 4581 
L 1338 4581 
L 1338 0 
L 459 0 
z
" transform="scale(0.015625)"/>
      <path id="Arial-BoldMT-73" d="M 150 947 
L 1031 1081 
Q 1088 825 1259 692 
Q 1431 559 1741 559 
Q 2081 559 2253 684 
Q 2369 772 2369 919 
Q 2369 1019 2306 1084 
Q 2241 1147 2013 1200 
Q 950 1434 666 1628 
Q 272 1897 272 2375 
Q 272 2806 612 3100 
Q 953 3394 1669 3394 
Q 2350 3394 2681 3172 
Q 3013 2950 3138 2516 
L 2309 2363 
Q 2256 2556 2107 2659 
Q 1959 2763 1684 2763 
Q 1338 2763 1188 2666 
Q 1088 2597 1088 2488 
Q 1088 2394 1175 2328 
Q 1294 2241 1995 2081 
Q 2697 1922 2975 1691 
Q 3250 1456 3250 1038 
Q 3250 581 2869 253 
Q 2488 -75 1741 -75 
Q 1063 -75 667 200 
Q 272 475 150 947 
z
" transform="scale(0.015625)"/>
      <path id="Arial-BoldMT-6f" d="M 256 1706 
Q 256 2144 472 2553 
Q 688 2963 1083 3178 
Q 1478 3394 1966 3394 
Q 2719 3394 3200 2905 
Q 3681 2416 3681 1669 
Q 3681 916 3195 420 
Q 2709 -75 1972 -75 
Q 1516 -75 1102 131 
Q 688 338 472 736 
Q 256 1134 256 1706 
z
M 1156 1659 
Q 1156 1166 1390 903 
Q 1625 641 1969 641 
Q 2313 641 2545 903 
Q 2778 1166 2778 1666 
Q 2778 2153 2545 2415 
Q 2313 2678 1969 2678 
Q 1625 2678 1390 2415 
Q 1156 2153 1156 1659 
z
" transform="scale(0.015625)"/>
      <path id="Arial-BoldMT-66" d="M 75 3319 
L 563 3319 
L 563 3569 
Q 563 3988 652 4194 
Q 741 4400 980 4529 
Q 1219 4659 1584 4659 
Q 1959 4659 2319 4547 
L 2200 3934 
Q 1991 3984 1797 3984 
Q 1606 3984 1523 3895 
Q 1441 3806 1441 3553 
L 1441 3319 
L 2097 3319 
L 2097 2628 
L 1441 2628 
L 1441 0 
L 563 0 
L 563 2628 
L 75 2628 
L 75 3319 
z
" transform="scale(0.015625)"/>
     </defs>
     <use xlink:href="#Arial-BoldMT-46"/>
     <use xlink:href="#Arial-BoldMT-69" transform="translate(61.083984 0)"/>
     <use xlink:href="#Arial-BoldMT-67" transform="translate(88.867188 0)"/>
     <use xlink:href="#Arial-BoldMT-75" transform="translate(149.951172 0)"/>
     <use xlink:href="#Arial-BoldMT-72" transform="translate(211.035156 0)"/>
     <use xlink:href="#Arial-BoldMT-65" transform="translate(249.951172 0)"/>
     <use xlink:href="#Arial-BoldMT-20" transform="translate(305.566406 0)"/>
     <use xlink:href="#Arial-BoldMT-32" transform="translate(333.349609 0)"/>
     <use xlink:href="#Arial-BoldMT-2e" transform="translate(388.964844 0)"/>
     <use xlink:href="#Arial-BoldMT-31" transform="translate(416.748047 0)"/>
     <use xlink:href="#Arial-BoldMT-3a" transform="translate(472.363281 0)"/>
     <use xlink:href="#Arial-BoldMT-20" transform="translate(505.664062 0)"/>
     <use xlink:href="#Arial-BoldMT-54" transform="translate(533.447266 0)"/>
     <use xlink:href="#Arial-BoldMT-68" transform="translate(594.53125 0)"/>
     <use xlink:href="#Arial-BoldMT-65" transform="translate(655.615234 0)"/>
     <use xlink:href="#Arial-BoldMT-20" transform="translate(711.230469 0)"/>
     <use xlink:href="#Arial-BoldMT-54" transform="translate(739.013672 0)"/>
     <use xlink:href="#Arial-BoldMT-68" transform="translate(800.097656 0)"/>
     <use xlink:href="#Arial-BoldMT-72" transform="translate(861.181641 0)"/>
     <use xlink:href="#Arial-BoldMT-65" transform="translate(900.097656 0)"/>
     <use xlink:href="#Arial-BoldMT-65" transform="translate(955.712891 0)"/>
     <use xlink:href="#Arial-BoldMT-20" transform="translate(1011.328125 0)"/>
     <use xlink:href="#Arial-BoldMT-4f" transform="translate(1039.111328 0)"/>
     <use xlink:href="#Arial-BoldMT-72" transform="translate(1116.894531 0)"/>
     <use xlink:href="#Arial-BoldMT-67" transform="translate(1155.810547 0)"/>
     <use xlink:href="#Arial-BoldMT-61" transform="translate(1216.894531 0)"/>
     <use xlink:href="#Arial-BoldMT-6e" transform="translate(1272.509766 0)"/>
     <use xlink:href="#Arial-BoldMT-69" transform="translate(1333.59375 0)"/>
     <use xlink:href="#Arial-BoldMT-7a" transform="translate(1361.376953 0)"/>
     <use xlink:href="#Arial-BoldMT-69" transform="translate(1411.376953 0)"/>
     <use xlink:href="#Arial-BoldMT-6e" transform="translate(1439.160156 0)"/>
     <use xlink:href="#Arial-BoldMT-67" transform="translate(1500.244141 0)"/>
     <use xlink:href="#Arial-BoldMT-20" transform="translate(1561.328125 0)"/>
     <use xlink:href="#Arial-BoldMT-50" transform="translate(1589.111328 0)"/>
     <use xlink:href="#Arial-BoldMT-72" transform="translate(1655.810547 0)"/>
     <use xlink:href="#Arial-BoldMT-69" transform="translate(1694.726562 0)"/>
     <use xlink:href="#Arial-BoldMT-6e" transform="translate(1722.509766 0)"/>
     <use xlink:href="#Arial-BoldMT-63" transform="translate(1783.59375 0)"/>
     <use xlink:href="#Arial-BoldMT-69" transform="translate(1839.208984 0)"/>
     <use xlink:href="#Arial-BoldMT-70" transform="translate(1866.992188 0)"/>
     <use xlink:href="#Arial-BoldMT-6c" transform="translate(1928.076172 0)"/>
     <use xlink:href="#Arial-BoldMT-65" transform="translate(1955.859375 0)"/>
     <use xlink:href="#Arial-BoldMT-73" transform="translate(2011.474609 0)"/>
     <use xlink:href="#Arial-BoldMT-20" transform="translate(2067.089844 0)"/>
     <use xlink:href="#Arial-BoldMT-6f" transform="translate(2094.873047 0)"/>
     <use xlink:href="#Arial-BoldMT-66" transform="translate(2155.957031 0)"/>
     <use xlink:href="#Arial-BoldMT-20" transform="translate(2189.257812 0)"/>
     <use xlink:href="#Arial-BoldMT-4c" transform="translate(2217.041016 0)"/>
     <use xlink:href="#Arial-BoldMT-4d" transform="translate(2278.125 0)"/>
     <use xlink:href="#Arial-BoldMT-20" transform="translate(2361.425781 0)"/>
     <use xlink:href="#Arial-BoldMT-44" transform="translate(2389.208984 0)"/>
     <use xlink:href="#Arial-BoldMT-65" transform="translate(2461.425781 0)"/>
     <use xlink:href="#Arial-BoldMT-73" transform="translate(2517.041016 0)"/>
     <use xlink:href="#Arial-BoldMT-69" transform="translate(2572.65625 0)"/>
     <use xlink:href="#Arial-BoldMT-67" transform="translate(2600.439453 0)"/>
     <use xlink:href="#Arial-BoldMT-6e" transform="translate(2661.523438 0)"/>
    </g>
   </g>
  </g>
 </g>
 <defs>
  <clipPath id="p676bf5b39a">
   <rect x="25.84" y="40.88" width="668.32" height="668.32"/>
  </clipPath>
 </defs>
</svg>
