<?xml version="1.0" encoding="utf-8" standalone="no"?>
<!DOCTYPE svg PUBLIC "-//W3C//DTD SVG 1.1//EN"
  "http://www.w3.org/Graphics/SVG/1.1/DTD/svg11.dtd">
<svg xmlns:xlink="http://www.w3.org/1999/xlink" width="720pt" height="720pt" viewBox="0 0 720 720" xmlns="http://www.w3.org/2000/svg" version="1.1">
 <metadata>
  <rdf:RDF xmlns:dc="http://purl.org/dc/elements/1.1/" xmlns:cc="http://creativecommons.org/ns#" xmlns:rdf="http://www.w3.org/1999/02/22-rdf-syntax-ns#">
   <cc:Work>
    <dc:type rdf:resource="http://purl.org/dc/dcmitype/StillImage"/>
    <dc:date>2026-07-03T06:23:38.927449</dc:date>
    <dc:format>image/svg+xml</dc:format>
    <dc:creator>
     <cc:Agent>
      <dc:title>Matplotlib v3.10.9, https://matplotlib.org/</dc:title>
     </cc:Agent>
    </dc:creator>
   </cc:Work>
  </rdf:RDF>
 </metadata>
 <defs>
  <style type="text/css">*{stroke-linejoin: round; stroke-linecap: butt}</style>
 </defs>
 <g id="figure_1">
  <g id="patch_1">
   <path d="M 0 720 
L 720 720 
L 720 0 
L 0 0 
z
" style="fill: #ffffff"/>
  </g>
  <g id="axes_1">
   <g id="patch_2">
    <path d="M 52.9 681.24 
L 693.26 681.24 
L 693.26 40.88 
L 52.9 40.88 
z
" style="fill: #ffffff"/>
   </g>
   <g id="patch_3">
    <path d="M 180.972 194.5664 
C 187.765018 194.5664 194.280727 191.867505 199.084116 187.064116 
C 203.887505 182.260727 206.5864 175.745018 206.5864 168.952 
C 206.5864 162.158982 203.887505 155.643273 199.084116 150.839884 
C 194.280727 146.036495 187.765018 143.3376 180.972 143.3376 
C 174.178982 143.3376 167.663273 146.036495 162.859884 150.839884 
C 158.056495 155.643273 155.3576 162.158982 155.3576 168.952 
C 155.3576 175.745018 158.056495 182.260727 162.859884 187.064116 
C 167.663273 191.867505 174.178982 194.5664 180.972 194.5664 
z
" clip-path="url(#p2b1c3a1052)" style="fill: #cc0000; opacity: 0.7; stroke: #cc0000; stroke-linejoin: miter"/>
   </g>
   <g id="patch_4">
    <path d="M 245.008 258.6024 
C 251.801018 258.6024 258.316727 255.903505 263.120116 251.100116 
C 267.923505 246.296727 270.6224 239.781018 270.6224 232.988 
C 270.6224 226.194982 267.923505 219.679273 263.120116 214.875884 
C 258.316727 210.072495 251.801018 207.3736 245.008 207.3736 
C 238.214982 207.3736 231.699273 210.072495 226.895884 214.875884 
C 222.092495 219.679273 219.3936 226.194982 219.3936 232.988 
C 219.3936 239.781018 222.092495 246.296727 226.895884 251.100116 
C 231.699273 255.903505 238.214982 258.6024 245.008 258.6024 
z
" clip-path="url(#p2b1c3a1052)" style="fill: #ff6600; opacity: 0.7; stroke: #ff6600; stroke-linejoin: miter"/>
   </g>
   <g id="patch_5">
    <path d="M 309.044 322.6384 
C 315.837018 322.6384 322.352727 319.939505 327.156116 315.136116 
C 331.959505 310.332727 334.6584 303.817018 334.6584 297.024 
C 334.6584 290.230982 331.959505 283.715273 327.156116 278.911884 
C 322.352727 274.108495 315.837018 271.4096 309.044 271.4096 
C 302.250982 271.4096 295.735273 274.108495 290.931884 278.911884 
C 286.128495 283.715273 283.4296 290.230982 283.4296 297.024 
C 283.4296 303.817018 286.128495 310.332727 290.931884 315.136116 
C 295.735273 319.939505 302.250982 322.6384 309.044 322.6384 
z
" clip-path="url(#p2b1c3a1052)" style="fill: #003366; opacity: 0.7; stroke: #003366; stroke-linejoin: miter"/>
   </g>
   <g id="patch_6">
    <path d="M 501.152 258.6024 
C 507.945018 258.6024 514.460727 255.903505 519.264116 251.100116 
C 524.067505 246.296727 526.7664 239.781018 526.7664 232.988 
C 526.7664 226.194982 524.067505 219.679273 519.264116 214.875884 
C 514.460727 210.072495 507.945018 207.3736 501.152 207.3736 
C 494.358982 207.3736 487.843273 210.072495 483.039884 214.875884 
C 478.236495 219.679273 475.5376 226.194982 475.5376 232.988 
C 475.5376 239.781018 478.236495 246.296727 483.039884 251.100116 
C 487.843273 255.903505 494.358982 258.6024 501.152 258.6024 
z
" clip-path="url(#p2b1c3a1052)" style="fill: #ff6600; opacity: 0.7; stroke: #ff6600; stroke-linejoin: miter"/>
   </g>
   <g id="patch_7">
    <path d="M 565.188 194.5664 
C 571.981018 194.5664 578.496727 191.867505 583.300116 187.064116 
C 588.103505 182.260727 590.8024 175.745018 590.8024 168.952 
C 590.8024 162.158982 588.103505 155.643273 583.300116 150.839884 
C 578.496727 146.036495 571.981018 143.3376 565.188 143.3376 
C 558.394982 143.3376 551.879273 146.036495 547.075884 150.839884 
C 542.272495 155.643273 539.5736 162.158982 539.5736 168.952 
C 539.5736 175.745018 542.272495 182.260727 547.075884 187.064116 
C 551.879273 191.867505 558.394982 194.5664 565.188 194.5664 
z
" clip-path="url(#p2b1c3a1052)" style="fill: #cc0000; opacity: 0.7; stroke: #cc0000; stroke-linejoin: miter"/>
   </g>
   <g id="patch_8">
    <path d="M 180.972 514.7464 
C 187.765018 514.7464 194.280727 512.047505 199.084116 507.244116 
C 203.887505 502.440727 206.5864 495.925018 206.5864 489.132 
C 206.5864 482.338982 203.887505 475.823273 199.084116 471.019884 
C 194.280727 466.216495 187.765018 463.5176 180.972 463.5176 
C 174.178982 463.5176 167.663273 466.216495 162.859884 471.019884 
C 158.056495 475.823273 155.3576 482.338982 155.3576 489.132 
C 155.3576 495.925018 158.056495 502.440727 162.859884 507.244116 
C 167.663273 512.047505 174.178982 514.7464 180.972 514.7464 
z
" clip-path="url(#p2b1c3a1052)" style="fill: #0066cc; opacity: 0.7; stroke: #0066cc; stroke-linejoin: miter"/>
   </g>
   <g id="patch_9">
    <path d="M 501.152 514.7464 
C 507.945018 514.7464 514.460727 512.047505 519.264116 507.244116 
C 524.067505 502.440727 526.7664 495.925018 526.7664 489.132 
C 526.7664 482.338982 524.067505 475.823273 519.264116 471.019884 
C 514.460727 466.216495 507.945018 463.5176 501.152 463.5176 
C 494.358982 463.5176 487.843273 466.216495 483.039884 471.019884 
C 478.236495 475.823273 475.5376 482.338982 475.5376 489.132 
C 475.5376 495.925018 478.236495 502.440727 483.039884 507.244116 
C 487.843273 512.047505 494.358982 514.7464 501.152 514.7464 
z
" clip-path="url(#p2b1c3a1052)" style="fill: #ff6600; opacity: 0.7; stroke: #ff6600; stroke-linejoin: miter"/>
   </g>
   <g id="matplotlib.axis_1">
    <g id="text_1">
     <!-- Intensity of Conflict → -->
     <g transform="translate(304.115 705.703594) scale(0.13 -0.13)">
      <defs>
       <path id="Arial-BoldMT-49" d="M 438 0 
L 438 4581 
L 1363 4581 
L 1363 0 
L 438 0 
z
" transform="scale(0.015625)"/>
       <path id="Arial-BoldMT-6e" d="M 3478 0 
L 2600 0 
L 2600 1694 
Q 2600 2231 2544 2389 
Q 2488 2547 2361 2634 
Q 2234 2722 2056 2722 
Q 1828 2722 1647 2597 
Q 1466 2472 1398 2265 
Q 1331 2059 1331 1503 
L 1331 0 
L 453 0 
L 453 3319 
L 1269 3319 
L 1269 2831 
Q 1703 3394 2363 3394 
Q 2653 3394 2893 3289 
Q 3134 3184 3257 3021 
Q 3381 2859 3429 2653 
Q 3478 2447 3478 2063 
L 3478 0 
z
" transform="scale(0.015625)"/>
       <path id="Arial-BoldMT-74" d="M 1981 3319 
L 1981 2619 
L 1381 2619 
L 1381 1281 
Q 1381 875 1398 808 
Q 1416 741 1477 697 
Q 1538 653 1625 653 
Q 1747 653 1978 738 
L 2053 56 
Q 1747 -75 1359 -75 
Q 1122 -75 931 4 
Q 741 84 652 211 
Q 563 338 528 553 
Q 500 706 500 1172 
L 500 2619 
L 97 2619 
L 97 3319 
L 500 3319 
L 500 3978 
L 1381 4491 
L 1381 3319 
L 1981 3319 
z
" transform="scale(0.015625)"/>
       <path id="Arial-BoldMT-65" d="M 2381 1056 
L 3256 909 
Q 3088 428 2723 176 
Q 2359 -75 1813 -75 
Q 947 -75 531 491 
Q 203 944 203 1634 
Q 203 2459 634 2926 
Q 1066 3394 1725 3394 
Q 2466 3394 2894 2905 
Q 3322 2416 3303 1406 
L 1103 1406 
Q 1113 1016 1316 798 
Q 1519 581 1822 581 
Q 2028 581 2168 693 
Q 2309 806 2381 1056 
z
M 2431 1944 
Q 2422 2325 2234 2523 
Q 2047 2722 1778 2722 
Q 1491 2722 1303 2513 
Q 1116 2303 1119 1944 
L 2431 1944 
z
" transform="scale(0.015625)"/>
       <path id="Arial-BoldMT-73" d="M 150 947 
L 1031 1081 
Q 1088 825 1259 692 
Q 1431 559 1741 559 
Q 2081 559 2253 684 
Q 2369 772 2369 919 
Q 2369 1019 2306 1084 
Q 2241 1147 2013 1200 
Q 950 1434 666 1628 
Q 272 1897 272 2375 
Q 272 2806 612 3100 
Q 953 3394 1669 3394 
Q 2350 3394 2681 3172 
Q 3013 2950 3138 2516 
L 2309 2363 
Q 2256 2556 2107 2659 
Q 1959 2763 1684 2763 
Q 1338 2763 1188 2666 
Q 1088 2597 1088 2488 
Q 1088 2394 1175 2328 
Q 1294 2241 1995 2081 
Q 2697 1922 2975 1691 
Q 3250 1456 3250 1038 
Q 3250 581 2869 253 
Q 2488 -75 1741 -75 
Q 1063 -75 667 200 
Q 272 475 150 947 
z
" transform="scale(0.015625)"/>
       <path id="Arial-BoldMT-69" d="M 459 3769 
L 459 4581 
L 1338 4581 
L 1338 3769 
L 459 3769 
z
M 459 0 
L 459 3319 
L 1338 3319 
L 1338 0 
L 459 0 
z
" transform="scale(0.015625)"/>
       <path id="Arial-BoldMT-79" d="M 44 3319 
L 978 3319 
L 1772 963 
L 2547 3319 
L 3456 3319 
L 2284 125 
L 2075 -453 
Q 1959 -744 1854 -897 
Q 1750 -1050 1614 -1145 
Q 1478 -1241 1279 -1294 
Q 1081 -1347 831 -1347 
Q 578 -1347 334 -1294 
L 256 -606 
Q 463 -647 628 -647 
Q 934 -647 1081 -467 
Q 1228 -288 1306 -9 
L 44 3319 
z
" transform="scale(0.015625)"/>
       <path id="Arial-BoldMT-20" transform="scale(0.015625)"/>
       <path id="Arial-BoldMT-6f" d="M 256 1706 
Q 256 2144 472 2553 
Q 688 2963 1083 3178 
Q 1478 3394 1966 3394 
Q 2719 3394 3200 2905 
Q 3681 2416 3681 1669 
Q 3681 916 3195 420 
Q 2709 -75 1972 -75 
Q 1516 -75 1102 131 
Q 688 338 472 736 
Q 256 1134 256 1706 
z
M 1156 1659 
Q 1156 1166 1390 903 
Q 1625 641 1969 641 
Q 2313 641 2545 903 
Q 2778 1166 2778 1666 
Q 2778 2153 2545 2415 
Q 2313 2678 1969 2678 
Q 1625 2678 1390 2415 
Q 1156 2153 1156 1659 
z
" transform="scale(0.015625)"/>
       <path id="Arial-BoldMT-66" d="M 75 3319 
L 563 3319 
L 563 3569 
Q 563 3988 652 4194 
Q 741 4400 980 4529 
Q 1219 4659 1584 4659 
Q 1959 4659 2319 4547 
L 2200 3934 
Q 1991 3984 1797 3984 
Q 1606 3984 1523 3895 
Q 1441 3806 1441 3553 
L 1441 3319 
L 2097 3319 
L 2097 2628 
L 1441 2628 
L 1441 0 
L 563 0 
L 563 2628 
L 75 2628 
L 75 3319 
z
" transform="scale(0.015625)"/>
       <path id="Arial-BoldMT-43" d="M 3397 1684 
L 4294 1400 
Q 4088 650 3608 286 
Q 3128 -78 2391 -78 
Q 1478 -78 890 545 
Q 303 1169 303 2250 
Q 303 3394 893 4026 
Q 1484 4659 2447 4659 
Q 3288 4659 3813 4163 
Q 4125 3869 4281 3319 
L 3366 3100 
Q 3284 3456 3026 3662 
Q 2769 3869 2400 3869 
Q 1891 3869 1573 3503 
Q 1256 3138 1256 2319 
Q 1256 1450 1568 1081 
Q 1881 713 2381 713 
Q 2750 713 3015 947 
Q 3281 1181 3397 1684 
z
" transform="scale(0.015625)"/>
       <path id="Arial-BoldMT-6c" d="M 459 0 
L 459 4581 
L 1338 4581 
L 1338 0 
L 459 0 
z
" transform="scale(0.015625)"/>
       <path id="Arial-BoldMT-63" d="M 3353 2338 
L 2488 2181 
Q 2444 2441 2289 2572 
Q 2134 2703 1888 2703 
Q 1559 2703 1364 2476 
Q 1169 2250 1169 1719 
Q 1169 1128 1367 884 
Q 1566 641 1900 641 
Q 2150 641 2309 783 
Q 2469 925 2534 1272 
L 3397 1125 
Q 3263 531 2881 228 
Q 2500 -75 1859 -75 
Q 1131 -75 698 384 
Q 266 844 266 1656 
Q 266 2478 700 2936 
Q 1134 3394 1875 3394 
Q 2481 3394 2839 3133 
Q 3197 2872 3353 2338 
z
" transform="scale(0.015625)"/>
       <path id="Arial-BoldMT-2192" d="M 4859 2738 
Q 5275 2284 5578 2048 
Q 5881 1813 6150 1697 
L 6150 1556 
Q 5841 1406 5550 1173 
Q 5259 941 4856 491 
L 4616 491 
Q 4909 1119 5231 1456 
L 247 1456 
L 247 1772 
L 5231 1772 
Q 4994 2072 4900 2220 
Q 4806 2369 4622 2738 
L 4859 2738 
z
" transform="scale(0.015625)"/>
      </defs>
      <use xlink:href="#Arial-BoldMT-49"/>
      <use xlink:href="#Arial-BoldMT-6e" transform="translate(27.783203 0)"/>
      <use xlink:href="#Arial-BoldMT-74" transform="translate(88.867188 0)"/>
      <use xlink:href="#Arial-BoldMT-65" transform="translate(122.167969 0)"/>
      <use xlink:href="#Arial-BoldMT-6e" transform="translate(177.783203 0)"/>
      <use xlink:href="#Arial-BoldMT-73" transform="translate(238.867188 0)"/>
      <use xlink:href="#Arial-BoldMT-69" transform="translate(294.482422 0)"/>
      <use xlink:href="#Arial-BoldMT-74" transform="translate(322.265625 0)"/>
      <use xlink:href="#Arial-BoldMT-79" transform="translate(355.566406 0)"/>
      <use xlink:href="#Arial-BoldMT-20" transform="translate(411.181641 0)"/>
      <use xlink:href="#Arial-BoldMT-6f" transform="translate(438.964844 0)"/>
      <use xlink:href="#Arial-BoldMT-66" transform="translate(500.048828 0)"/>
      <use xlink:href="#Arial-BoldMT-20" transform="translate(533.349609 0)"/>
      <use xlink:href="#Arial-BoldMT-43" transform="translate(561.132812 0)"/>
      <use xlink:href="#Arial-BoldMT-6f" transform="translate(633.349609 0)"/>
      <use xlink:href="#Arial-BoldMT-6e" transform="translate(694.433594 0)"/>
      <use xlink:href="#Arial-BoldMT-66" transform="translate(755.517578 0)"/>
      <use xlink:href="#Arial-BoldMT-6c" transform="translate(788.818359 0)"/>
      <use xlink:href="#Arial-BoldMT-69" transform="translate(816.601562 0)"/>
      <use xlink:href="#Arial-BoldMT-63" transform="translate(844.384766 0)"/>
      <use xlink:href="#Arial-BoldMT-74" transform="translate(900 0)"/>
      <use xlink:href="#Arial-BoldMT-20" transform="translate(933.300781 0)"/>
      <use xlink:href="#Arial-BoldMT-2192" transform="translate(961.083984 0)"/>
     </g>
    </g>
   </g>
   <g id="matplotlib.axis_2">
    <g id="text_2">
     <!-- Conventionality of Threat → -->
     <g transform="translate(35.163906 447.724297) rotate(-90) scale(0.13 -0.13)">
      <defs>
       <path id="Arial-BoldMT-76" d="M 1372 0 
L 34 3319 
L 956 3319 
L 1581 1625 
L 1763 1059 
Q 1834 1275 1853 1344 
Q 1897 1484 1947 1625 
L 2578 3319 
L 3481 3319 
L 2163 0 
L 1372 0 
z
" transform="scale(0.015625)"/>
       <path id="Arial-BoldMT-61" d="M 1116 2306 
L 319 2450 
Q 453 2931 781 3162 
Q 1109 3394 1756 3394 
Q 2344 3394 2631 3255 
Q 2919 3116 3036 2902 
Q 3153 2688 3153 2116 
L 3144 1091 
Q 3144 653 3186 445 
Q 3228 238 3344 0 
L 2475 0 
Q 2441 88 2391 259 
Q 2369 338 2359 363 
Q 2134 144 1878 34 
Q 1622 -75 1331 -75 
Q 819 -75 523 203 
Q 228 481 228 906 
Q 228 1188 362 1408 
Q 497 1628 739 1745 
Q 981 1863 1438 1950 
Q 2053 2066 2291 2166 
L 2291 2253 
Q 2291 2506 2166 2614 
Q 2041 2722 1694 2722 
Q 1459 2722 1328 2630 
Q 1197 2538 1116 2306 
z
M 2291 1594 
Q 2122 1538 1756 1459 
Q 1391 1381 1278 1306 
Q 1106 1184 1106 997 
Q 1106 813 1243 678 
Q 1381 544 1594 544 
Q 1831 544 2047 700 
Q 2206 819 2256 991 
Q 2291 1103 2291 1419 
L 2291 1594 
z
" transform="scale(0.015625)"/>
       <path id="Arial-BoldMT-54" d="M 1497 0 
L 1497 3806 
L 138 3806 
L 138 4581 
L 3778 4581 
L 3778 3806 
L 2422 3806 
L 2422 0 
L 1497 0 
z
" transform="scale(0.015625)"/>
       <path id="Arial-BoldMT-68" d="M 1334 4581 
L 1334 2897 
Q 1759 3394 2350 3394 
Q 2653 3394 2897 3281 
Q 3141 3169 3264 2994 
Q 3388 2819 3433 2606 
Q 3478 2394 3478 1947 
L 3478 0 
L 2600 0 
L 2600 1753 
Q 2600 2275 2550 2415 
Q 2500 2556 2373 2639 
Q 2247 2722 2056 2722 
Q 1838 2722 1666 2615 
Q 1494 2509 1414 2295 
Q 1334 2081 1334 1663 
L 1334 0 
L 456 0 
L 456 4581 
L 1334 4581 
z
" transform="scale(0.015625)"/>
       <path id="Arial-BoldMT-72" d="M 1300 0 
L 422 0 
L 422 3319 
L 1238 3319 
L 1238 2847 
Q 1447 3181 1614 3287 
Q 1781 3394 1994 3394 
Q 2294 3394 2572 3228 
L 2300 2463 
Q 2078 2606 1888 2606 
Q 1703 2606 1575 2504 
Q 1447 2403 1373 2137 
Q 1300 1872 1300 1025 
L 1300 0 
z
" transform="scale(0.015625)"/>
      </defs>
      <use xlink:href="#Arial-BoldMT-43"/>
      <use xlink:href="#Arial-BoldMT-6f" transform="translate(72.216797 0)"/>
      <use xlink:href="#Arial-BoldMT-6e" transform="translate(133.300781 0)"/>
      <use xlink:href="#Arial-BoldMT-76" transform="translate(194.384766 0)"/>
      <use xlink:href="#Arial-BoldMT-65" transform="translate(250 0)"/>
      <use xlink:href="#Arial-BoldMT-6e" transform="translate(305.615234 0)"/>
      <use xlink:href="#Arial-BoldMT-74" transform="translate(366.699219 0)"/>
      <use xlink:href="#Arial-BoldMT-69" transform="translate(400 0)"/>
      <use xlink:href="#Arial-BoldMT-6f" transform="translate(427.783203 0)"/>
      <use xlink:href="#Arial-BoldMT-6e" transform="translate(488.867188 0)"/>
      <use xlink:href="#Arial-BoldMT-61" transform="translate(549.951172 0)"/>
      <use xlink:href="#Arial-BoldMT-6c" transform="translate(605.566406 0)"/>
      <use xlink:href="#Arial-BoldMT-69" transform="translate(633.349609 0)"/>
      <use xlink:href="#Arial-BoldMT-74" transform="translate(661.132812 0)"/>
      <use xlink:href="#Arial-BoldMT-79" transform="translate(694.433594 0)"/>
      <use xlink:href="#Arial-BoldMT-20" transform="translate(750.048828 0)"/>
      <use xlink:href="#Arial-BoldMT-6f" transform="translate(777.832031 0)"/>
      <use xlink:href="#Arial-BoldMT-66" transform="translate(838.916016 0)"/>
      <use xlink:href="#Arial-BoldMT-20" transform="translate(872.216797 0)"/>
      <use xlink:href="#Arial-BoldMT-54" transform="translate(900 0)"/>
      <use xlink:href="#Arial-BoldMT-68" transform="translate(961.083984 0)"/>
      <use xlink:href="#Arial-BoldMT-72" transform="translate(1022.167969 0)"/>
      <use xlink:href="#Arial-BoldMT-65" transform="translate(1061.083984 0)"/>
      <use xlink:href="#Arial-BoldMT-61" transform="translate(1116.699219 0)"/>
      <use xlink:href="#Arial-BoldMT-74" transform="translate(1172.314453 0)"/>
      <use xlink:href="#Arial-BoldMT-20" transform="translate(1205.615234 0)"/>
      <use xlink:href="#Arial-BoldMT-2192" transform="translate(1233.398438 0)"/>
     </g>
    </g>
   </g>
   <g id="line2d_1">
    <path d="M 52.9 361.06 
L 693.26 361.06 
" clip-path="url(#p2b1c3a1052)" style="fill: none; stroke: #cccccc; stroke-width: 2; stroke-linecap: square"/>
   </g>
   <g id="line2d_2">
    <path d="M 373.08 681.24 
L 373.08 40.88 
" clip-path="url(#p2b1c3a1052)" style="fill: none; stroke: #cccccc; stroke-width: 2; stroke-linecap: square"/>
   </g>
   <g id="patch_10">
    <path d="M 52.9 681.24 
L 52.9 40.88 
" style="fill: none; stroke: #000000; stroke-width: 0.8; stroke-linejoin: miter; stroke-linecap: square"/>
   </g>
   <g id="patch_11">
    <path d="M 52.9 681.24 
L 693.26 681.24 
" style="fill: none; stroke: #000000; stroke-width: 0.8; stroke-linejoin: miter; stroke-linecap: square"/>
   </g>
   <g id="text_3">
    <!-- HIGH INTENSITY -->
    <g style="fill: #003366" transform="translate(164.987188 92.240625) scale(0.12 -0.12)">
     <defs>
      <path id="Arial-BoldMT-48" d="M 469 0 
L 469 4581 
L 1394 4581 
L 1394 2778 
L 3206 2778 
L 3206 4581 
L 4131 4581 
L 4131 0 
L 3206 0 
L 3206 2003 
L 1394 2003 
L 1394 0 
L 469 0 
z
" transform="scale(0.015625)"/>
      <path id="Arial-BoldMT-47" d="M 2597 1684 
L 2597 2456 
L 4591 2456 
L 4591 631 
Q 4300 350 3748 136 
Q 3197 -78 2631 -78 
Q 1913 -78 1378 223 
Q 844 525 575 1086 
Q 306 1647 306 2306 
Q 306 3022 606 3578 
Q 906 4134 1484 4431 
Q 1925 4659 2581 4659 
Q 3434 4659 3914 4301 
Q 4394 3944 4531 3313 
L 3613 3141 
Q 3516 3478 3248 3673 
Q 2981 3869 2581 3869 
Q 1975 3869 1617 3484 
Q 1259 3100 1259 2344 
Q 1259 1528 1621 1120 
Q 1984 713 2572 713 
Q 2863 713 3155 827 
Q 3447 941 3656 1103 
L 3656 1684 
L 2597 1684 
z
" transform="scale(0.015625)"/>
      <path id="Arial-BoldMT-4e" d="M 475 0 
L 475 4581 
L 1375 4581 
L 3250 1522 
L 3250 4581 
L 4109 4581 
L 4109 0 
L 3181 0 
L 1334 2988 
L 1334 0 
L 475 0 
z
" transform="scale(0.015625)"/>
      <path id="Arial-BoldMT-45" d="M 466 0 
L 466 4581 
L 3863 4581 
L 3863 3806 
L 1391 3806 
L 1391 2791 
L 3691 2791 
L 3691 2019 
L 1391 2019 
L 1391 772 
L 3950 772 
L 3950 0 
L 466 0 
z
" transform="scale(0.015625)"/>
      <path id="Arial-BoldMT-53" d="M 231 1491 
L 1131 1578 
Q 1213 1125 1461 912 
Q 1709 700 2131 700 
Q 2578 700 2804 889 
Q 3031 1078 3031 1331 
Q 3031 1494 2936 1608 
Q 2841 1722 2603 1806 
Q 2441 1863 1863 2006 
Q 1119 2191 819 2459 
Q 397 2838 397 3381 
Q 397 3731 595 4036 
Q 794 4341 1167 4500 
Q 1541 4659 2069 4659 
Q 2931 4659 3367 4281 
Q 3803 3903 3825 3272 
L 2900 3231 
Q 2841 3584 2645 3739 
Q 2450 3894 2059 3894 
Q 1656 3894 1428 3728 
Q 1281 3622 1281 3444 
Q 1281 3281 1419 3166 
Q 1594 3019 2269 2859 
Q 2944 2700 3267 2529 
Q 3591 2359 3773 2064 
Q 3956 1769 3956 1334 
Q 3956 941 3737 597 
Q 3519 253 3119 86 
Q 2719 -81 2122 -81 
Q 1253 -81 787 320 
Q 322 722 231 1491 
z
" transform="scale(0.015625)"/>
      <path id="Arial-BoldMT-59" d="M 1669 0 
L 1669 1928 
L -9 4581 
L 1075 4581 
L 2153 2769 
L 3209 4581 
L 4275 4581 
L 2591 1922 
L 2591 0 
L 1669 0 
z
" transform="scale(0.015625)"/>
     </defs>
     <use xlink:href="#Arial-BoldMT-48"/>
     <use xlink:href="#Arial-BoldMT-49" transform="translate(72.216797 0)"/>
     <use xlink:href="#Arial-BoldMT-47" transform="translate(100 0)"/>
     <use xlink:href="#Arial-BoldMT-48" transform="translate(177.783203 0)"/>
     <use xlink:href="#Arial-BoldMT-20" transform="translate(250 0)"/>
     <use xlink:href="#Arial-BoldMT-49" transform="translate(277.783203 0)"/>
     <use xlink:href="#Arial-BoldMT-4e" transform="translate(305.566406 0)"/>
     <use xlink:href="#Arial-BoldMT-54" transform="translate(377.783203 0)"/>
     <use xlink:href="#Arial-BoldMT-45" transform="translate(438.867188 0)"/>
     <use xlink:href="#Arial-BoldMT-4e" transform="translate(505.566406 0)"/>
     <use xlink:href="#Arial-BoldMT-53" transform="translate(577.783203 0)"/>
     <use xlink:href="#Arial-BoldMT-49" transform="translate(644.482422 0)"/>
     <use xlink:href="#Arial-BoldMT-54" transform="translate(672.265625 0)"/>
     <use xlink:href="#Arial-BoldMT-59" transform="translate(733.349609 0)"/>
    </g>
    <!-- CONVENTIONAL -->
    <g style="fill: #003366" transform="translate(164.99 104.916) scale(0.12 -0.12)">
     <defs>
      <path id="Arial-BoldMT-4f" d="M 278 2263 
Q 278 2963 488 3438 
Q 644 3788 914 4066 
Q 1184 4344 1506 4478 
Q 1934 4659 2494 4659 
Q 3506 4659 4114 4031 
Q 4722 3403 4722 2284 
Q 4722 1175 4119 548 
Q 3516 -78 2506 -78 
Q 1484 -78 881 545 
Q 278 1169 278 2263 
z
M 1231 2294 
Q 1231 1516 1590 1114 
Q 1950 713 2503 713 
Q 3056 713 3411 1111 
Q 3766 1509 3766 2306 
Q 3766 3094 3420 3481 
Q 3075 3869 2503 3869 
Q 1931 3869 1581 3476 
Q 1231 3084 1231 2294 
z
" transform="scale(0.015625)"/>
      <path id="Arial-BoldMT-56" d="M 1634 0 
L -3 4581 
L 1000 4581 
L 2159 1191 
L 3281 4581 
L 4263 4581 
L 2622 0 
L 1634 0 
z
" transform="scale(0.015625)"/>
      <path id="Arial-BoldMT-41" d="M 4597 0 
L 3591 0 
L 3191 1041 
L 1359 1041 
L 981 0 
L 0 0 
L 1784 4581 
L 2763 4581 
L 4597 0 
z
M 2894 1813 
L 2263 3513 
L 1644 1813 
L 2894 1813 
z
" transform="scale(0.015625)"/>
      <path id="Arial-BoldMT-4c" d="M 491 0 
L 491 4544 
L 1416 4544 
L 1416 772 
L 3716 772 
L 3716 0 
L 491 0 
z
" transform="scale(0.015625)"/>
     </defs>
     <use xlink:href="#Arial-BoldMT-43"/>
     <use xlink:href="#Arial-BoldMT-4f" transform="translate(72.216797 0)"/>
     <use xlink:href="#Arial-BoldMT-4e" transform="translate(150 0)"/>
     <use xlink:href="#Arial-BoldMT-56" transform="translate(222.216797 0)"/>
     <use xlink:href="#Arial-BoldMT-45" transform="translate(288.916016 0)"/>
     <use xlink:href="#Arial-BoldMT-4e" transform="translate(355.615234 0)"/>
     <use xlink:href="#Arial-BoldMT-54" transform="translate(427.832031 0)"/>
     <use xlink:href="#Arial-BoldMT-49" transform="translate(488.916016 0)"/>
     <use xlink:href="#Arial-BoldMT-4f" transform="translate(516.699219 0)"/>
     <use xlink:href="#Arial-BoldMT-4e" transform="translate(594.482422 0)"/>
     <use xlink:href="#Arial-BoldMT-41" transform="translate(666.699219 0)"/>
     <use xlink:href="#Arial-BoldMT-4c" transform="translate(738.916016 0)"/>
    </g>
   </g>
   <g id="text_4">
    <!-- HIGH INTENSITY -->
    <g style="fill: #cc0000" transform="translate(485.167187 92.240625) scale(0.12 -0.12)">
     <use xlink:href="#Arial-BoldMT-48"/>
     <use xlink:href="#Arial-BoldMT-49" transform="translate(72.216797 0)"/>
     <use xlink:href="#Arial-BoldMT-47" transform="translate(100 0)"/>
     <use xlink:href="#Arial-BoldMT-48" transform="translate(177.783203 0)"/>
     <use xlink:href="#Arial-BoldMT-20" transform="translate(250 0)"/>
     <use xlink:href="#Arial-BoldMT-49" transform="translate(277.783203 0)"/>
     <use xlink:href="#Arial-BoldMT-4e" transform="translate(305.566406 0)"/>
     <use xlink:href="#Arial-BoldMT-54" transform="translate(377.783203 0)"/>
     <use xlink:href="#Arial-BoldMT-45" transform="translate(438.867188 0)"/>
     <use xlink:href="#Arial-BoldMT-4e" transform="translate(505.566406 0)"/>
     <use xlink:href="#Arial-BoldMT-53" transform="translate(577.783203 0)"/>
     <use xlink:href="#Arial-BoldMT-49" transform="translate(644.482422 0)"/>
     <use xlink:href="#Arial-BoldMT-54" transform="translate(672.265625 0)"/>
     <use xlink:href="#Arial-BoldMT-59" transform="translate(733.349609 0)"/>
    </g>
    <!-- UNCONVENTIONAL -->
    <g style="fill: #cc0000" transform="translate(476.50375 104.916) scale(0.12 -0.12)">
     <defs>
      <path id="Arial-BoldMT-55" d="M 459 4581 
L 1384 4581 
L 1384 2100 
Q 1384 1509 1419 1334 
Q 1478 1053 1701 883 
Q 1925 713 2313 713 
Q 2706 713 2906 873 
Q 3106 1034 3147 1268 
Q 3188 1503 3188 2047 
L 3188 4581 
L 4113 4581 
L 4113 2175 
Q 4113 1350 4038 1009 
Q 3963 669 3761 434 
Q 3559 200 3221 61 
Q 2884 -78 2341 -78 
Q 1684 -78 1345 73 
Q 1006 225 809 467 
Q 613 709 550 975 
Q 459 1369 459 2138 
L 459 4581 
z
" transform="scale(0.015625)"/>
     </defs>
     <use xlink:href="#Arial-BoldMT-55"/>
     <use xlink:href="#Arial-BoldMT-4e" transform="translate(72.216797 0)"/>
     <use xlink:href="#Arial-BoldMT-43" transform="translate(144.433594 0)"/>
     <use xlink:href="#Arial-BoldMT-4f" transform="translate(216.650391 0)"/>
     <use xlink:href="#Arial-BoldMT-4e" transform="translate(294.433594 0)"/>
     <use xlink:href="#Arial-BoldMT-56" transform="translate(366.650391 0)"/>
     <use xlink:href="#Arial-BoldMT-45" transform="translate(433.349609 0)"/>
     <use xlink:href="#Arial-BoldMT-4e" transform="translate(500.048828 0)"/>
     <use xlink:href="#Arial-BoldMT-54" transform="translate(572.265625 0)"/>
     <use xlink:href="#Arial-BoldMT-49" transform="translate(633.349609 0)"/>
     <use xlink:href="#Arial-BoldMT-4f" transform="translate(661.132812 0)"/>
     <use xlink:href="#Arial-BoldMT-4e" transform="translate(738.916016 0)"/>
     <use xlink:href="#Arial-BoldMT-41" transform="translate(811.132812 0)"/>
     <use xlink:href="#Arial-BoldMT-4c" transform="translate(883.349609 0)"/>
    </g>
   </g>
   <g id="text_5">
    <!-- LOW INTENSITY -->
    <g style="fill: #0066cc" transform="translate(165.992188 604.528625) scale(0.12 -0.12)">
     <defs>
      <path id="Arial-BoldMT-57" d="M 1116 0 
L 22 4581 
L 969 4581 
L 1659 1434 
L 2497 4581 
L 3597 4581 
L 4400 1381 
L 5103 4581 
L 6034 4581 
L 4922 0 
L 3941 0 
L 3028 3425 
L 2119 0 
L 1116 0 
z
" transform="scale(0.015625)"/>
     </defs>
     <use xlink:href="#Arial-BoldMT-4c"/>
     <use xlink:href="#Arial-BoldMT-4f" transform="translate(61.083984 0)"/>
     <use xlink:href="#Arial-BoldMT-57" transform="translate(138.867188 0)"/>
     <use xlink:href="#Arial-BoldMT-20" transform="translate(233.251953 0)"/>
     <use xlink:href="#Arial-BoldMT-49" transform="translate(261.035156 0)"/>
     <use xlink:href="#Arial-BoldMT-4e" transform="translate(288.818359 0)"/>
     <use xlink:href="#Arial-BoldMT-54" transform="translate(361.035156 0)"/>
     <use xlink:href="#Arial-BoldMT-45" transform="translate(422.119141 0)"/>
     <use xlink:href="#Arial-BoldMT-4e" transform="translate(488.818359 0)"/>
     <use xlink:href="#Arial-BoldMT-53" transform="translate(561.035156 0)"/>
     <use xlink:href="#Arial-BoldMT-49" transform="translate(627.734375 0)"/>
     <use xlink:href="#Arial-BoldMT-54" transform="translate(655.517578 0)"/>
     <use xlink:href="#Arial-BoldMT-59" transform="translate(716.601562 0)"/>
    </g>
    <!-- CONVENTIONAL -->
    <g style="fill: #0066cc" transform="translate(164.99 617.204) scale(0.12 -0.12)">
     <use xlink:href="#Arial-BoldMT-43"/>
     <use xlink:href="#Arial-BoldMT-4f" transform="translate(72.216797 0)"/>
     <use xlink:href="#Arial-BoldMT-4e" transform="translate(150 0)"/>
     <use xlink:href="#Arial-BoldMT-56" transform="translate(222.216797 0)"/>
     <use xlink:href="#Arial-BoldMT-45" transform="translate(288.916016 0)"/>
     <use xlink:href="#Arial-BoldMT-4e" transform="translate(355.615234 0)"/>
     <use xlink:href="#Arial-BoldMT-54" transform="translate(427.832031 0)"/>
     <use xlink:href="#Arial-BoldMT-49" transform="translate(488.916016 0)"/>
     <use xlink:href="#Arial-BoldMT-4f" transform="translate(516.699219 0)"/>
     <use xlink:href="#Arial-BoldMT-4e" transform="translate(594.482422 0)"/>
     <use xlink:href="#Arial-BoldMT-41" transform="translate(666.699219 0)"/>
     <use xlink:href="#Arial-BoldMT-4c" transform="translate(738.916016 0)"/>
    </g>
   </g>
   <g id="text_6">
    <!-- LOW INTENSITY -->
    <g style="fill: #ff6600" transform="translate(486.172187 604.528625) scale(0.12 -0.12)">
     <use xlink:href="#Arial-BoldMT-4c"/>
     <use xlink:href="#Arial-BoldMT-4f" transform="translate(61.083984 0)"/>
     <use xlink:href="#Arial-BoldMT-57" transform="translate(138.867188 0)"/>
     <use xlink:href="#Arial-BoldMT-20" transform="translate(233.251953 0)"/>
     <use xlink:href="#Arial-BoldMT-49" transform="translate(261.035156 0)"/>
     <use xlink:href="#Arial-BoldMT-4e" transform="translate(288.818359 0)"/>
     <use xlink:href="#Arial-BoldMT-54" transform="translate(361.035156 0)"/>
     <use xlink:href="#Arial-BoldMT-45" transform="translate(422.119141 0)"/>
     <use xlink:href="#Arial-BoldMT-4e" transform="translate(488.818359 0)"/>
     <use xlink:href="#Arial-BoldMT-53" transform="translate(561.035156 0)"/>
     <use xlink:href="#Arial-BoldMT-49" transform="translate(627.734375 0)"/>
     <use xlink:href="#Arial-BoldMT-54" transform="translate(655.517578 0)"/>
     <use xlink:href="#Arial-BoldMT-59" transform="translate(716.601562 0)"/>
    </g>
    <!-- UNCONVENTIONAL -->
    <g style="fill: #ff6600" transform="translate(476.50375 617.204) scale(0.12 -0.12)">
     <use xlink:href="#Arial-BoldMT-55"/>
     <use xlink:href="#Arial-BoldMT-4e" transform="translate(72.216797 0)"/>
     <use xlink:href="#Arial-BoldMT-43" transform="translate(144.433594 0)"/>
     <use xlink:href="#Arial-BoldMT-4f" transform="translate(216.650391 0)"/>
     <use xlink:href="#Arial-BoldMT-4e" transform="translate(294.433594 0)"/>
     <use xlink:href="#Arial-BoldMT-56" transform="translate(366.650391 0)"/>
     <use xlink:href="#Arial-BoldMT-45" transform="translate(433.349609 0)"/>
     <use xlink:href="#Arial-BoldMT-4e" transform="translate(500.048828 0)"/>
     <use xlink:href="#Arial-BoldMT-54" transform="translate(572.265625 0)"/>
     <use xlink:href="#Arial-BoldMT-49" transform="translate(633.349609 0)"/>
     <use xlink:href="#Arial-BoldMT-4f" transform="translate(661.132812 0)"/>
     <use xlink:href="#Arial-BoldMT-4e" transform="translate(738.916016 0)"/>
     <use xlink:href="#Arial-BoldMT-41" transform="translate(811.132812 0)"/>
     <use xlink:href="#Arial-BoldMT-4c" transform="translate(883.349609 0)"/>
    </g>
   </g>
   <g id="text_7">
    <!-- PLA Armor -->
    <g transform="translate(157.556531 210.674269) scale(0.09 -0.09)">
     <defs>
      <path id="Arial-BoldMT-50" d="M 466 0 
L 466 4581 
L 1950 4581 
Q 2794 4581 3050 4513 
Q 3444 4409 3709 4064 
Q 3975 3719 3975 3172 
Q 3975 2750 3822 2462 
Q 3669 2175 3433 2011 
Q 3197 1847 2953 1794 
Q 2622 1728 1994 1728 
L 1391 1728 
L 1391 0 
L 466 0 
z
M 1391 3806 
L 1391 2506 
L 1897 2506 
Q 2444 2506 2628 2578 
Q 2813 2650 2917 2803 
Q 3022 2956 3022 3159 
Q 3022 3409 2875 3571 
Q 2728 3734 2503 3775 
Q 2338 3806 1838 3806 
L 1391 3806 
z
" transform="scale(0.015625)"/>
      <path id="Arial-BoldMT-6d" d="M 394 3319 
L 1203 3319 
L 1203 2866 
Q 1638 3394 2238 3394 
Q 2556 3394 2790 3262 
Q 3025 3131 3175 2866 
Q 3394 3131 3647 3262 
Q 3900 3394 4188 3394 
Q 4553 3394 4806 3245 
Q 5059 3097 5184 2809 
Q 5275 2597 5275 2122 
L 5275 0 
L 4397 0 
L 4397 1897 
Q 4397 2391 4306 2534 
Q 4184 2722 3931 2722 
Q 3747 2722 3584 2609 
Q 3422 2497 3350 2280 
Q 3278 2063 3278 1594 
L 3278 0 
L 2400 0 
L 2400 1819 
Q 2400 2303 2353 2443 
Q 2306 2584 2207 2653 
Q 2109 2722 1941 2722 
Q 1738 2722 1575 2612 
Q 1413 2503 1342 2297 
Q 1272 2091 1272 1613 
L 1272 0 
L 394 0 
L 394 3319 
z
" transform="scale(0.015625)"/>
     </defs>
     <use xlink:href="#Arial-BoldMT-50"/>
     <use xlink:href="#Arial-BoldMT-4c" transform="translate(66.699219 0)"/>
     <use xlink:href="#Arial-BoldMT-41" transform="translate(127.783203 0)"/>
     <use xlink:href="#Arial-BoldMT-20" transform="translate(196.25 0)"/>
     <use xlink:href="#Arial-BoldMT-41" transform="translate(220.283203 0)"/>
     <use xlink:href="#Arial-BoldMT-72" transform="translate(292.5 0)"/>
     <use xlink:href="#Arial-BoldMT-6d" transform="translate(331.416016 0)"/>
     <use xlink:href="#Arial-BoldMT-6f" transform="translate(420.332031 0)"/>
     <use xlink:href="#Arial-BoldMT-72" transform="translate(481.416016 0)"/>
    </g>
    <!-- Thrust -->
    <g transform="translate(166.974187 220.1808) scale(0.09 -0.09)">
     <defs>
      <path id="Arial-BoldMT-75" d="M 2644 0 
L 2644 497 
Q 2463 231 2167 78 
Q 1872 -75 1544 -75 
Q 1209 -75 943 72 
Q 678 219 559 484 
Q 441 750 441 1219 
L 441 3319 
L 1319 3319 
L 1319 1794 
Q 1319 1094 1367 936 
Q 1416 778 1544 686 
Q 1672 594 1869 594 
Q 2094 594 2272 717 
Q 2450 841 2515 1023 
Q 2581 1206 2581 1919 
L 2581 3319 
L 3459 3319 
L 3459 0 
L 2644 0 
z
" transform="scale(0.015625)"/>
     </defs>
     <use xlink:href="#Arial-BoldMT-54"/>
     <use xlink:href="#Arial-BoldMT-68" transform="translate(61.083984 0)"/>
     <use xlink:href="#Arial-BoldMT-72" transform="translate(122.167969 0)"/>
     <use xlink:href="#Arial-BoldMT-75" transform="translate(161.083984 0)"/>
     <use xlink:href="#Arial-BoldMT-73" transform="translate(222.167969 0)"/>
     <use xlink:href="#Arial-BoldMT-74" transform="translate(277.783203 0)"/>
    </g>
   </g>
   <g id="text_8">
    <!-- Pak Strike -->
    <g transform="translate(223.244875 274.578644) scale(0.09 -0.09)">
     <defs>
      <path id="Arial-BoldMT-6b" d="M 428 0 
L 428 4581 
L 1306 4581 
L 1306 2150 
L 2334 3319 
L 3416 3319 
L 2281 2106 
L 3497 0 
L 2550 0 
L 1716 1491 
L 1306 1063 
L 1306 0 
L 428 0 
z
" transform="scale(0.015625)"/>
     </defs>
     <use xlink:href="#Arial-BoldMT-50"/>
     <use xlink:href="#Arial-BoldMT-61" transform="translate(66.699219 0)"/>
     <use xlink:href="#Arial-BoldMT-6b" transform="translate(122.314453 0)"/>
     <use xlink:href="#Arial-BoldMT-20" transform="translate(177.929688 0)"/>
     <use xlink:href="#Arial-BoldMT-53" transform="translate(205.712891 0)"/>
     <use xlink:href="#Arial-BoldMT-74" transform="translate(272.412109 0)"/>
     <use xlink:href="#Arial-BoldMT-72" transform="translate(305.712891 0)"/>
     <use xlink:href="#Arial-BoldMT-69" transform="translate(344.628906 0)"/>
     <use xlink:href="#Arial-BoldMT-6b" transform="translate(372.412109 0)"/>
     <use xlink:href="#Arial-BoldMT-65" transform="translate(428.027344 0)"/>
    </g>
    <!-- Corps -->
    <g transform="translate(232.007219 284.2168) scale(0.09 -0.09)">
     <defs>
      <path id="Arial-BoldMT-70" d="M 434 3319 
L 1253 3319 
L 1253 2831 
Q 1413 3081 1684 3237 
Q 1956 3394 2288 3394 
Q 2866 3394 3269 2941 
Q 3672 2488 3672 1678 
Q 3672 847 3265 386 
Q 2859 -75 2281 -75 
Q 2006 -75 1782 34 
Q 1559 144 1313 409 
L 1313 -1263 
L 434 -1263 
L 434 3319 
z
M 1303 1716 
Q 1303 1156 1525 889 
Q 1747 622 2066 622 
Q 2372 622 2575 867 
Q 2778 1113 2778 1672 
Q 2778 2194 2568 2447 
Q 2359 2700 2050 2700 
Q 1728 2700 1515 2451 
Q 1303 2203 1303 1716 
z
" transform="scale(0.015625)"/>
     </defs>
     <use xlink:href="#Arial-BoldMT-43"/>
     <use xlink:href="#Arial-BoldMT-6f" transform="translate(72.216797 0)"/>
     <use xlink:href="#Arial-BoldMT-72" transform="translate(133.300781 0)"/>
     <use xlink:href="#Arial-BoldMT-70" transform="translate(172.216797 0)"/>
     <use xlink:href="#Arial-BoldMT-73" transform="translate(233.300781 0)"/>
    </g>
   </g>
   <g id="text_9">
    <!-- High-Altitude -->
    <g transform="translate(280.802281 338.628144) scale(0.09 -0.09)">
     <defs>
      <path id="Arial-BoldMT-67" d="M 378 -219 
L 1381 -341 
Q 1406 -516 1497 -581 
Q 1622 -675 1891 -675 
Q 2234 -675 2406 -572 
Q 2522 -503 2581 -350 
Q 2622 -241 2622 53 
L 2622 538 
Q 2228 0 1628 0 
Q 959 0 569 566 
Q 263 1013 263 1678 
Q 263 2513 664 2953 
Q 1066 3394 1663 3394 
Q 2278 3394 2678 2853 
L 2678 3319 
L 3500 3319 
L 3500 341 
Q 3500 -247 3403 -537 
Q 3306 -828 3131 -993 
Q 2956 -1159 2664 -1253 
Q 2372 -1347 1925 -1347 
Q 1081 -1347 728 -1058 
Q 375 -769 375 -325 
Q 375 -281 378 -219 
z
M 1163 1728 
Q 1163 1200 1367 954 
Q 1572 709 1872 709 
Q 2194 709 2416 961 
Q 2638 1213 2638 1706 
Q 2638 2222 2425 2472 
Q 2213 2722 1888 2722 
Q 1572 2722 1367 2476 
Q 1163 2231 1163 1728 
z
" transform="scale(0.015625)"/>
      <path id="Arial-BoldMT-2d" d="M 359 1222 
L 359 2100 
L 2084 2100 
L 2084 1222 
L 359 1222 
z
" transform="scale(0.015625)"/>
      <path id="Arial-BoldMT-64" d="M 3503 0 
L 2688 0 
L 2688 488 
Q 2484 203 2207 64 
Q 1931 -75 1650 -75 
Q 1078 -75 670 386 
Q 263 847 263 1672 
Q 263 2516 659 2955 
Q 1056 3394 1663 3394 
Q 2219 3394 2625 2931 
L 2625 4581 
L 3503 4581 
L 3503 0 
z
M 1159 1731 
Q 1159 1200 1306 963 
Q 1519 619 1900 619 
Q 2203 619 2415 876 
Q 2628 1134 2628 1647 
Q 2628 2219 2422 2470 
Q 2216 2722 1894 2722 
Q 1581 2722 1370 2473 
Q 1159 2225 1159 1731 
z
" transform="scale(0.015625)"/>
     </defs>
     <use xlink:href="#Arial-BoldMT-48"/>
     <use xlink:href="#Arial-BoldMT-69" transform="translate(72.216797 0)"/>
     <use xlink:href="#Arial-BoldMT-67" transform="translate(100 0)"/>
     <use xlink:href="#Arial-BoldMT-68" transform="translate(161.083984 0)"/>
     <use xlink:href="#Arial-BoldMT-2d" transform="translate(222.167969 0)"/>
     <use xlink:href="#Arial-BoldMT-41" transform="translate(255.46875 0)"/>
     <use xlink:href="#Arial-BoldMT-6c" transform="translate(327.685547 0)"/>
     <use xlink:href="#Arial-BoldMT-74" transform="translate(355.46875 0)"/>
     <use xlink:href="#Arial-BoldMT-69" transform="translate(388.769531 0)"/>
     <use xlink:href="#Arial-BoldMT-74" transform="translate(416.552734 0)"/>
     <use xlink:href="#Arial-BoldMT-75" transform="translate(449.853516 0)"/>
     <use xlink:href="#Arial-BoldMT-64" transform="translate(510.9375 0)"/>
     <use xlink:href="#Arial-BoldMT-65" transform="translate(572.021484 0)"/>
    </g>
    <!-- LM Swarms -->
    <g transform="translate(284.037359 348.2528) scale(0.09 -0.09)">
     <defs>
      <path id="Arial-BoldMT-4d" d="M 453 0 
L 453 4581 
L 1838 4581 
L 2669 1456 
L 3491 4581 
L 4878 4581 
L 4878 0 
L 4019 0 
L 4019 3606 
L 3109 0 
L 2219 0 
L 1313 3606 
L 1313 0 
L 453 0 
z
" transform="scale(0.015625)"/>
      <path id="Arial-BoldMT-77" d="M 1078 0 
L 28 3319 
L 881 3319 
L 1503 1144 
L 2075 3319 
L 2922 3319 
L 3475 1144 
L 4109 3319 
L 4975 3319 
L 3909 0 
L 3066 0 
L 2494 2134 
L 1931 0 
L 1078 0 
z
" transform="scale(0.015625)"/>
     </defs>
     <use xlink:href="#Arial-BoldMT-4c"/>
     <use xlink:href="#Arial-BoldMT-4d" transform="translate(61.083984 0)"/>
     <use xlink:href="#Arial-BoldMT-20" transform="translate(144.384766 0)"/>
     <use xlink:href="#Arial-BoldMT-53" transform="translate(172.167969 0)"/>
     <use xlink:href="#Arial-BoldMT-77" transform="translate(238.867188 0)"/>
     <use xlink:href="#Arial-BoldMT-61" transform="translate(316.650391 0)"/>
     <use xlink:href="#Arial-BoldMT-72" transform="translate(372.265625 0)"/>
     <use xlink:href="#Arial-BoldMT-6d" transform="translate(411.181641 0)"/>
     <use xlink:href="#Arial-BoldMT-73" transform="translate(500.097656 0)"/>
    </g>
   </g>
   <g id="text_10">
    <!-- NSA Drone -->
    <g transform="translate(477.568484 274.710269) scale(0.09 -0.09)">
     <defs>
      <path id="Arial-BoldMT-44" d="M 463 4581 
L 2153 4581 
Q 2725 4581 3025 4494 
Q 3428 4375 3715 4072 
Q 4003 3769 4153 3330 
Q 4303 2891 4303 2247 
Q 4303 1681 4163 1272 
Q 3991 772 3672 463 
Q 3431 228 3022 97 
Q 2716 0 2203 0 
L 463 0 
L 463 4581 
z
M 1388 3806 
L 1388 772 
L 2078 772 
Q 2466 772 2638 816 
Q 2863 872 3011 1006 
Q 3159 1141 3253 1448 
Q 3347 1756 3347 2288 
Q 3347 2819 3253 3103 
Q 3159 3388 2990 3547 
Q 2822 3706 2563 3763 
Q 2369 3806 1803 3806 
L 1388 3806 
z
" transform="scale(0.015625)"/>
     </defs>
     <use xlink:href="#Arial-BoldMT-4e"/>
     <use xlink:href="#Arial-BoldMT-53" transform="translate(72.216797 0)"/>
     <use xlink:href="#Arial-BoldMT-41" transform="translate(138.916016 0)"/>
     <use xlink:href="#Arial-BoldMT-20" transform="translate(207.382812 0)"/>
     <use xlink:href="#Arial-BoldMT-44" transform="translate(235.166016 0)"/>
     <use xlink:href="#Arial-BoldMT-72" transform="translate(307.382812 0)"/>
     <use xlink:href="#Arial-BoldMT-6f" transform="translate(346.298828 0)"/>
     <use xlink:href="#Arial-BoldMT-6e" transform="translate(407.382812 0)"/>
     <use xlink:href="#Arial-BoldMT-65" transform="translate(468.466797 0)"/>
    </g>
    <!-- Attacks -->
    <g transform="translate(484.89575 284.2168) scale(0.09 -0.09)">
     <use xlink:href="#Arial-BoldMT-41"/>
     <use xlink:href="#Arial-BoldMT-74" transform="translate(72.216797 0)"/>
     <use xlink:href="#Arial-BoldMT-74" transform="translate(105.517578 0)"/>
     <use xlink:href="#Arial-BoldMT-61" transform="translate(138.818359 0)"/>
     <use xlink:href="#Arial-BoldMT-63" transform="translate(194.433594 0)"/>
     <use xlink:href="#Arial-BoldMT-6b" transform="translate(250.048828 0)"/>
     <use xlink:href="#Arial-BoldMT-73" transform="translate(305.664062 0)"/>
    </g>
   </g>
   <g id="text_11">
    <!-- Strategic -->
    <g transform="translate(545.932219 210.556144) scale(0.09 -0.09)">
     <use xlink:href="#Arial-BoldMT-53"/>
     <use xlink:href="#Arial-BoldMT-74" transform="translate(66.699219 0)"/>
     <use xlink:href="#Arial-BoldMT-72" transform="translate(100 0)"/>
     <use xlink:href="#Arial-BoldMT-61" transform="translate(138.916016 0)"/>
     <use xlink:href="#Arial-BoldMT-74" transform="translate(194.53125 0)"/>
     <use xlink:href="#Arial-BoldMT-65" transform="translate(227.832031 0)"/>
     <use xlink:href="#Arial-BoldMT-67" transform="translate(283.447266 0)"/>
     <use xlink:href="#Arial-BoldMT-69" transform="translate(344.53125 0)"/>
     <use xlink:href="#Arial-BoldMT-63" transform="translate(372.314453 0)"/>
    </g>
    <!-- SEAD -->
    <g transform="translate(552.685031 220.1808) scale(0.09 -0.09)">
     <use xlink:href="#Arial-BoldMT-53"/>
     <use xlink:href="#Arial-BoldMT-45" transform="translate(66.699219 0)"/>
     <use xlink:href="#Arial-BoldMT-41" transform="translate(133.398438 0)"/>
     <use xlink:href="#Arial-BoldMT-44" transform="translate(205.615234 0)"/>
    </g>
   </g>
   <g id="text_12">
    <!-- Coastal -->
    <g transform="translate(164.717859 530.854269) scale(0.09 -0.09)">
     <use xlink:href="#Arial-BoldMT-43"/>
     <use xlink:href="#Arial-BoldMT-6f" transform="translate(72.216797 0)"/>
     <use xlink:href="#Arial-BoldMT-61" transform="translate(133.300781 0)"/>
     <use xlink:href="#Arial-BoldMT-73" transform="translate(188.916016 0)"/>
     <use xlink:href="#Arial-BoldMT-74" transform="translate(244.53125 0)"/>
     <use xlink:href="#Arial-BoldMT-61" transform="translate(277.832031 0)"/>
     <use xlink:href="#Arial-BoldMT-6c" transform="translate(333.447266 0)"/>
    </g>
    <!-- Defense -->
    <g transform="translate(163.465594 540.3608) scale(0.09 -0.09)">
     <use xlink:href="#Arial-BoldMT-44"/>
     <use xlink:href="#Arial-BoldMT-65" transform="translate(72.216797 0)"/>
     <use xlink:href="#Arial-BoldMT-66" transform="translate(127.832031 0)"/>
     <use xlink:href="#Arial-BoldMT-65" transform="translate(161.132812 0)"/>
     <use xlink:href="#Arial-BoldMT-6e" transform="translate(216.748047 0)"/>
     <use xlink:href="#Arial-BoldMT-73" transform="translate(277.832031 0)"/>
     <use xlink:href="#Arial-BoldMT-65" transform="translate(333.447266 0)"/>
    </g>
   </g>
   <g id="text_13">
    <!-- Urban -->
    <g transform="translate(488.151219 530.854269) scale(0.09 -0.09)">
     <defs>
      <path id="Arial-BoldMT-62" d="M 422 0 
L 422 4581 
L 1300 4581 
L 1300 2931 
Q 1706 3394 2263 3394 
Q 2869 3394 3266 2955 
Q 3663 2516 3663 1694 
Q 3663 844 3258 384 
Q 2853 -75 2275 -75 
Q 1991 -75 1714 67 
Q 1438 209 1238 488 
L 1238 0 
L 422 0 
z
M 1294 1731 
Q 1294 1216 1456 969 
Q 1684 619 2063 619 
Q 2353 619 2558 867 
Q 2763 1116 2763 1650 
Q 2763 2219 2556 2470 
Q 2350 2722 2028 2722 
Q 1713 2722 1503 2476 
Q 1294 2231 1294 1731 
z
" transform="scale(0.015625)"/>
     </defs>
     <use xlink:href="#Arial-BoldMT-55"/>
     <use xlink:href="#Arial-BoldMT-72" transform="translate(72.216797 0)"/>
     <use xlink:href="#Arial-BoldMT-62" transform="translate(111.132812 0)"/>
     <use xlink:href="#Arial-BoldMT-61" transform="translate(172.216797 0)"/>
     <use xlink:href="#Arial-BoldMT-6e" transform="translate(227.832031 0)"/>
    </g>
    <!-- Insurgency -->
    <g transform="translate(477.146609 540.3608) scale(0.09 -0.09)">
     <use xlink:href="#Arial-BoldMT-49"/>
     <use xlink:href="#Arial-BoldMT-6e" transform="translate(27.783203 0)"/>
     <use xlink:href="#Arial-BoldMT-73" transform="translate(88.867188 0)"/>
     <use xlink:href="#Arial-BoldMT-75" transform="translate(144.482422 0)"/>
     <use xlink:href="#Arial-BoldMT-72" transform="translate(205.566406 0)"/>
     <use xlink:href="#Arial-BoldMT-67" transform="translate(244.482422 0)"/>
     <use xlink:href="#Arial-BoldMT-65" transform="translate(305.566406 0)"/>
     <use xlink:href="#Arial-BoldMT-6e" transform="translate(361.181641 0)"/>
     <use xlink:href="#Arial-BoldMT-63" transform="translate(422.265625 0)"/>
     <use xlink:href="#Arial-BoldMT-79" transform="translate(477.880859 0)"/>
    </g>
   </g>
   <g id="text_14">
    <!-- Figure 1.3: Indian Operational Environment Threat Matrix -->
    <g style="fill: #003366" transform="translate(183.672031 20.88) scale(0.14 -0.14)">
     <defs>
      <path id="Arial-BoldMT-46" d="M 472 0 
L 472 4581 
L 3613 4581 
L 3613 3806 
L 1397 3806 
L 1397 2722 
L 3309 2722 
L 3309 1947 
L 1397 1947 
L 1397 0 
L 472 0 
z
" transform="scale(0.015625)"/>
      <path id="Arial-BoldMT-31" d="M 2519 0 
L 1641 0 
L 1641 3309 
Q 1159 2859 506 2644 
L 506 3441 
Q 850 3553 1253 3867 
Q 1656 4181 1806 4600 
L 2519 4600 
L 2519 0 
z
" transform="scale(0.015625)"/>
      <path id="Arial-BoldMT-2e" d="M 459 0 
L 459 878 
L 1338 878 
L 1338 0 
L 459 0 
z
" transform="scale(0.015625)"/>
      <path id="Arial-BoldMT-33" d="M 241 1216 
L 1091 1319 
Q 1131 994 1309 822 
Q 1488 650 1741 650 
Q 2013 650 2198 856 
Q 2384 1063 2384 1413 
Q 2384 1744 2206 1937 
Q 2028 2131 1772 2131 
Q 1603 2131 1369 2066 
L 1466 2781 
Q 1822 2772 2009 2936 
Q 2197 3100 2197 3372 
Q 2197 3603 2059 3740 
Q 1922 3878 1694 3878 
Q 1469 3878 1309 3722 
Q 1150 3566 1116 3266 
L 306 3403 
Q 391 3819 561 4067 
Q 731 4316 1036 4458 
Q 1341 4600 1719 4600 
Q 2366 4600 2756 4188 
Q 3078 3850 3078 3425 
Q 3078 2822 2419 2463 
Q 2813 2378 3048 2084 
Q 3284 1791 3284 1375 
Q 3284 772 2843 347 
Q 2403 -78 1747 -78 
Q 1125 -78 715 280 
Q 306 638 241 1216 
z
" transform="scale(0.015625)"/>
      <path id="Arial-BoldMT-3a" d="M 628 2441 
L 628 3319 
L 1506 3319 
L 1506 2441 
L 628 2441 
z
M 628 0 
L 628 878 
L 1506 878 
L 1506 0 
L 628 0 
z
" transform="scale(0.015625)"/>
      <path id="Arial-BoldMT-78" d="M 38 0 
L 1234 1709 
L 88 3319 
L 1159 3319 
L 1747 2406 
L 2366 3319 
L 3397 3319 
L 2272 1747 
L 3500 0 
L 2422 0 
L 1747 1028 
L 1066 0 
L 38 0 
z
" transform="scale(0.015625)"/>
     </defs>
     <use xlink:href="#Arial-BoldMT-46"/>
     <use xlink:href="#Arial-BoldMT-69" transform="translate(61.083984 0)"/>
     <use xlink:href="#Arial-BoldMT-67" transform="translate(88.867188 0)"/>
     <use xlink:href="#Arial-BoldMT-75" transform="translate(149.951172 0)"/>
     <use xlink:href="#Arial-BoldMT-72" transform="translate(211.035156 0)"/>
     <use xlink:href="#Arial-BoldMT-65" transform="translate(249.951172 0)"/>
     <use xlink:href="#Arial-BoldMT-20" transform="translate(305.566406 0)"/>
     <use xlink:href="#Arial-BoldMT-31" transform="translate(333.349609 0)"/>
     <use xlink:href="#Arial-BoldMT-2e" transform="translate(388.964844 0)"/>
     <use xlink:href="#Arial-BoldMT-33" transform="translate(416.748047 0)"/>
     <use xlink:href="#Arial-BoldMT-3a" transform="translate(472.363281 0)"/>
     <use xlink:href="#Arial-BoldMT-20" transform="translate(505.664062 0)"/>
     <use xlink:href="#Arial-BoldMT-49" transform="translate(533.447266 0)"/>
     <use xlink:href="#Arial-BoldMT-6e" transform="translate(561.230469 0)"/>
     <use xlink:href="#Arial-BoldMT-64" transform="translate(622.314453 0)"/>
     <use xlink:href="#Arial-BoldMT-69" transform="translate(683.398438 0)"/>
     <use xlink:href="#Arial-BoldMT-61" transform="translate(711.181641 0)"/>
     <use xlink:href="#Arial-BoldMT-6e" transform="translate(766.796875 0)"/>
     <use xlink:href="#Arial-BoldMT-20" transform="translate(827.880859 0)"/>
     <use xlink:href="#Arial-BoldMT-4f" transform="translate(855.664062 0)"/>
     <use xlink:href="#Arial-BoldMT-70" transform="translate(933.447266 0)"/>
     <use xlink:href="#Arial-BoldMT-65" transform="translate(994.53125 0)"/>
     <use xlink:href="#Arial-BoldMT-72" transform="translate(1050.146484 0)"/>
     <use xlink:href="#Arial-BoldMT-61" transform="translate(1089.0625 0)"/>
     <use xlink:href="#Arial-BoldMT-74" transform="translate(1144.677734 0)"/>
     <use xlink:href="#Arial-BoldMT-69" transform="translate(1177.978516 0)"/>
     <use xlink:href="#Arial-BoldMT-6f" transform="translate(1205.761719 0)"/>
     <use xlink:href="#Arial-BoldMT-6e" transform="translate(1266.845703 0)"/>
     <use xlink:href="#Arial-BoldMT-61" transform="translate(1327.929688 0)"/>
     <use xlink:href="#Arial-BoldMT-6c" transform="translate(1383.544922 0)"/>
     <use xlink:href="#Arial-BoldMT-20" transform="translate(1411.328125 0)"/>
     <use xlink:href="#Arial-BoldMT-45" transform="translate(1439.111328 0)"/>
     <use xlink:href="#Arial-BoldMT-6e" transform="translate(1505.810547 0)"/>
     <use xlink:href="#Arial-BoldMT-76" transform="translate(1566.894531 0)"/>
     <use xlink:href="#Arial-BoldMT-69" transform="translate(1622.509766 0)"/>
     <use xlink:href="#Arial-BoldMT-72" transform="translate(1650.292969 0)"/>
     <use xlink:href="#Arial-BoldMT-6f" transform="translate(1689.208984 0)"/>
     <use xlink:href="#Arial-BoldMT-6e" transform="translate(1750.292969 0)"/>
     <use xlink:href="#Arial-BoldMT-6d" transform="translate(1811.376953 0)"/>
     <use xlink:href="#Arial-BoldMT-65" transform="translate(1900.292969 0)"/>
     <use xlink:href="#Arial-BoldMT-6e" transform="translate(1955.908203 0)"/>
     <use xlink:href="#Arial-BoldMT-74" transform="translate(2016.992188 0)"/>
     <use xlink:href="#Arial-BoldMT-20" transform="translate(2050.292969 0)"/>
     <use xlink:href="#Arial-BoldMT-54" transform="translate(2078.076172 0)"/>
     <use xlink:href="#Arial-BoldMT-68" transform="translate(2139.160156 0)"/>
     <use xlink:href="#Arial-BoldMT-72" transform="translate(2200.244141 0)"/>
     <use xlink:href="#Arial-BoldMT-65" transform="translate(2239.160156 0)"/>
     <use xlink:href="#Arial-BoldMT-61" transform="translate(2294.775391 0)"/>
     <use xlink:href="#Arial-BoldMT-74" transform="translate(2350.390625 0)"/>
     <use xlink:href="#Arial-BoldMT-20" transform="translate(2383.691406 0)"/>
     <use xlink:href="#Arial-BoldMT-4d" transform="translate(2411.474609 0)"/>
     <use xlink:href="#Arial-BoldMT-61" transform="translate(2494.775391 0)"/>
     <use xlink:href="#Arial-BoldMT-74" transform="translate(2550.390625 0)"/>
     <use xlink:href="#Arial-BoldMT-72" transform="translate(2583.691406 0)"/>
     <use xlink:href="#Arial-BoldMT-69" transform="translate(2622.607422 0)"/>
     <use xlink:href="#Arial-BoldMT-78" transform="translate(2650.390625 0)"/>
    </g>
   </g>
  </g>
 </g>
 <defs>
  <clipPath id="p2b1c3a1052">
   <rect x="52.9" y="40.88" width="640.36" height="640.36"/>
  </clipPath>
 </defs>
</svg>
