<?xml version="1.0" encoding="UTF-8"?>
<svg id="Layer_1" xmlns="http://www.w3.org/2000/svg" version="1.1" xmlns:xlink="http://www.w3.org/1999/xlink" viewBox="0 0 720 720">
  <!-- Generator: Adobe Illustrator 30.4.0, SVG Export Plug-In . SVG Version: 2.1.4 Build 226)  -->
  <defs>
    <style>
      .st0, .st1, .st2, .st3, .st4, .st5 {
        fill: none;
      }

      .st0, .st2, .st3, .st4, .st5 {
        stroke-linecap: square;
      }

      .st0, .st2, .st6, .st4, .st5 {
        stroke-linejoin: round;
      }

      .st0, .st2, .st5 {
        stroke-width: 2.5px;
      }

      .st0, .st7, .st6 {
        stroke: #c00;
      }

      .st8 {
        clip-path: url(#clippath-6);
      }

      .st9 {
        clip-path: url(#clippath-7);
      }

      .st10 {
        clip-path: url(#clippath-17);
      }

      .st11 {
        clip-path: url(#clippath-15);
      }

      .st12 {
        clip-path: url(#clippath-18);
      }

      .st13 {
        clip-path: url(#clippath-4);
      }

      .st14 {
        opacity: .8;
        stroke: #ccc;
      }

      .st14, .st15 {
        fill: #fff;
      }

      .st14, .st7, .st16, .st17 {
        isolation: isolate;
      }

      .st18 {
        clip-path: url(#clippath-9);
      }

      .st19 {
        clip-path: url(#clippath-10);
      }

      .st20, .st2, .st17 {
        stroke: #f60;
      }

      .st20, .st17 {
        fill: #f60;
      }

      .st21 {
        clip-path: url(#clippath-11);
      }

      .st22 {
        clip-path: url(#clippath-1);
      }

      .st23 {
        clip-path: url(#clippath-5);
      }

      .st24, .st16, .st25 {
        fill: #036;
      }

      .st24, .st16, .st5 {
        stroke: #036;
      }

      .st26 {
        clip-path: url(#clippath-8);
      }

      .st7, .st16, .st17 {
        opacity: .15;
      }

      .st7, .st6 {
        fill: #c00;
      }

      .st3 {
        stroke: #000;
      }

      .st3, .st4 {
        stroke-width: .8px;
      }

      .st27 {
        clip-path: url(#clippath-3);
      }

      .st28 {
        clip-path: url(#clippath-12);
      }

      .st29 {
        clip-path: url(#clippath-14);
      }

      .st30 {
        clip-path: url(#clippath-19);
      }

      .st4 {
        stroke: #b0b0b0;
      }

      .st31 {
        clip-path: url(#clippath-16);
      }

      .st32 {
        clip-path: url(#clippath-2);
      }

      .st33 {
        clip-path: url(#clippath-13);
      }

      .st34 {
        clip-path: url(#clippath);
      }
    </style>
    <clipPath id="clippath">
      <path class="st1" d="M600.03,383.35c0-32.85-6.47-65.39-19.04-95.74-12.57-30.35-31-57.93-54.23-81.16-23.23-23.23-50.81-41.66-81.16-54.23-30.35-12.57-62.89-19.04-95.74-19.04s-65.39,6.47-95.74,19.04c-30.35,12.57-57.93,31-81.16,54.23-23.23,23.23-41.66,50.81-54.23,81.16-12.57,30.35-19.04,62.89-19.04,95.74s6.47,65.39,19.04,95.74c12.57,30.35,31,57.93,54.23,81.16,23.23,23.23,50.81,41.66,81.16,54.23,30.35,12.57,62.89,19.04,95.74,19.04s65.39-6.47,95.74-19.04c30.35-12.57,57.93-31,81.16-54.23,23.23-23.23,41.66-50.81,54.23-81.16,12.57-30.35,19.04-62.89,19.04-95.74M349.85,383.35h0Z"/>
    </clipPath>
    <clipPath id="clippath-1">
      <path class="st1" d="M600.03,383.35c0-32.85-6.47-65.39-19.04-95.74-12.57-30.35-31-57.93-54.23-81.16-23.23-23.23-50.81-41.66-81.16-54.23-30.35-12.57-62.89-19.04-95.74-19.04s-65.39,6.47-95.74,19.04c-30.35,12.57-57.93,31-81.16,54.23-23.23,23.23-41.66,50.81-54.23,81.16-12.57,30.35-19.04,62.89-19.04,95.74s6.47,65.39,19.04,95.74c12.57,30.35,31,57.93,54.23,81.16,23.23,23.23,50.81,41.66,81.16,54.23,30.35,12.57,62.89,19.04,95.74,19.04s65.39-6.47,95.74-19.04c30.35-12.57,57.93-31,81.16-54.23,23.23-23.23,41.66-50.81,54.23-81.16,12.57-30.35,19.04-62.89,19.04-95.74M349.85,383.35h0Z"/>
    </clipPath>
    <clipPath id="clippath-2">
      <path class="st1" d="M600.03,383.35c0-32.85-6.47-65.39-19.04-95.74-12.57-30.35-31-57.93-54.23-81.16-23.23-23.23-50.81-41.66-81.16-54.23-30.35-12.57-62.89-19.04-95.74-19.04s-65.39,6.47-95.74,19.04c-30.35,12.57-57.93,31-81.16,54.23-23.23,23.23-41.66,50.81-54.23,81.16-12.57,30.35-19.04,62.89-19.04,95.74s6.47,65.39,19.04,95.74c12.57,30.35,31,57.93,54.23,81.16,23.23,23.23,50.81,41.66,81.16,54.23,30.35,12.57,62.89,19.04,95.74,19.04s65.39-6.47,95.74-19.04c30.35-12.57,57.93-31,81.16-54.23,23.23-23.23,41.66-50.81,54.23-81.16,12.57-30.35,19.04-62.89,19.04-95.74M349.85,383.35h0Z"/>
    </clipPath>
    <clipPath id="clippath-3">
      <path class="st1" d="M600.03,383.35c0-32.85-6.47-65.39-19.04-95.74-12.57-30.35-31-57.93-54.23-81.16-23.23-23.23-50.81-41.66-81.16-54.23-30.35-12.57-62.89-19.04-95.74-19.04s-65.39,6.47-95.74,19.04c-30.35,12.57-57.93,31-81.16,54.23-23.23,23.23-41.66,50.81-54.23,81.16-12.57,30.35-19.04,62.89-19.04,95.74s6.47,65.39,19.04,95.74c12.57,30.35,31,57.93,54.23,81.16,23.23,23.23,50.81,41.66,81.16,54.23,30.35,12.57,62.89,19.04,95.74,19.04s65.39-6.47,95.74-19.04c30.35-12.57,57.93-31,81.16-54.23,23.23-23.23,41.66-50.81,54.23-81.16,12.57-30.35,19.04-62.89,19.04-95.74M349.85,383.35h0Z"/>
    </clipPath>
    <clipPath id="clippath-4">
      <path class="st1" d="M600.03,383.35c0-32.85-6.47-65.39-19.04-95.74-12.57-30.35-31-57.93-54.23-81.16-23.23-23.23-50.81-41.66-81.16-54.23-30.35-12.57-62.89-19.04-95.74-19.04s-65.39,6.47-95.74,19.04c-30.35,12.57-57.93,31-81.16,54.23-23.23,23.23-41.66,50.81-54.23,81.16-12.57,30.35-19.04,62.89-19.04,95.74s6.47,65.39,19.04,95.74c12.57,30.35,31,57.93,54.23,81.16,23.23,23.23,50.81,41.66,81.16,54.23,30.35,12.57,62.89,19.04,95.74,19.04s65.39-6.47,95.74-19.04c30.35-12.57,57.93-31,81.16-54.23,23.23-23.23,41.66-50.81,54.23-81.16,12.57-30.35,19.04-62.89,19.04-95.74M349.85,383.35h0Z"/>
    </clipPath>
    <clipPath id="clippath-5">
      <path class="st1" d="M600.03,383.35c0-32.85-6.47-65.39-19.04-95.74-12.57-30.35-31-57.93-54.23-81.16-23.23-23.23-50.81-41.66-81.16-54.23-30.35-12.57-62.89-19.04-95.74-19.04s-65.39,6.47-95.74,19.04c-30.35,12.57-57.93,31-81.16,54.23-23.23,23.23-41.66,50.81-54.23,81.16-12.57,30.35-19.04,62.89-19.04,95.74s6.47,65.39,19.04,95.74c12.57,30.35,31,57.93,54.23,81.16,23.23,23.23,50.81,41.66,81.16,54.23,30.35,12.57,62.89,19.04,95.74,19.04s65.39-6.47,95.74-19.04c30.35-12.57,57.93-31,81.16-54.23,23.23-23.23,41.66-50.81,54.23-81.16,12.57-30.35,19.04-62.89,19.04-95.74M349.85,383.35h0Z"/>
    </clipPath>
    <clipPath id="clippath-6">
      <path class="st1" d="M600.03,383.35c0-32.85-6.47-65.39-19.04-95.74-12.57-30.35-31-57.93-54.23-81.16-23.23-23.23-50.81-41.66-81.16-54.23-30.35-12.57-62.89-19.04-95.74-19.04s-65.39,6.47-95.74,19.04c-30.35,12.57-57.93,31-81.16,54.23-23.23,23.23-41.66,50.81-54.23,81.16-12.57,30.35-19.04,62.89-19.04,95.74s6.47,65.39,19.04,95.74c12.57,30.35,31,57.93,54.23,81.16,23.23,23.23,50.81,41.66,81.16,54.23,30.35,12.57,62.89,19.04,95.74,19.04s65.39-6.47,95.74-19.04c30.35-12.57,57.93-31,81.16-54.23,23.23-23.23,41.66-50.81,54.23-81.16,12.57-30.35,19.04-62.89,19.04-95.74M349.85,383.35h0Z"/>
    </clipPath>
    <clipPath id="clippath-7">
      <path class="st1" d="M600.03,383.35c0-32.85-6.47-65.39-19.04-95.74-12.57-30.35-31-57.93-54.23-81.16-23.23-23.23-50.81-41.66-81.16-54.23-30.35-12.57-62.89-19.04-95.74-19.04s-65.39,6.47-95.74,19.04c-30.35,12.57-57.93,31-81.16,54.23-23.23,23.23-41.66,50.81-54.23,81.16-12.57,30.35-19.04,62.89-19.04,95.74s6.47,65.39,19.04,95.74c12.57,30.35,31,57.93,54.23,81.16,23.23,23.23,50.81,41.66,81.16,54.23,30.35,12.57,62.89,19.04,95.74,19.04s65.39-6.47,95.74-19.04c30.35-12.57,57.93-31,81.16-54.23,23.23-23.23,41.66-50.81,54.23-81.16,12.57-30.35,19.04-62.89,19.04-95.74M349.85,383.35h0Z"/>
    </clipPath>
    <clipPath id="clippath-8">
      <path class="st1" d="M600.03,383.35c0-32.85-6.47-65.39-19.04-95.74-12.57-30.35-31-57.93-54.23-81.16-23.23-23.23-50.81-41.66-81.16-54.23-30.35-12.57-62.89-19.04-95.74-19.04s-65.39,6.47-95.74,19.04c-30.35,12.57-57.93,31-81.16,54.23-23.23,23.23-41.66,50.81-54.23,81.16-12.57,30.35-19.04,62.89-19.04,95.74s6.47,65.39,19.04,95.74c12.57,30.35,31,57.93,54.23,81.16,23.23,23.23,50.81,41.66,81.16,54.23,30.35,12.57,62.89,19.04,95.74,19.04s65.39-6.47,95.74-19.04c30.35-12.57,57.93-31,81.16-54.23,23.23-23.23,41.66-50.81,54.23-81.16,12.57-30.35,19.04-62.89,19.04-95.74M349.85,383.35h0Z"/>
    </clipPath>
    <clipPath id="clippath-9">
      <path class="st1" d="M600.03,383.35c0-32.85-6.47-65.39-19.04-95.74-12.57-30.35-31-57.93-54.23-81.16-23.23-23.23-50.81-41.66-81.16-54.23-30.35-12.57-62.89-19.04-95.74-19.04s-65.39,6.47-95.74,19.04c-30.35,12.57-57.93,31-81.16,54.23-23.23,23.23-41.66,50.81-54.23,81.16-12.57,30.35-19.04,62.89-19.04,95.74s6.47,65.39,19.04,95.74c12.57,30.35,31,57.93,54.23,81.16,23.23,23.23,50.81,41.66,81.16,54.23,30.35,12.57,62.89,19.04,95.74,19.04s65.39-6.47,95.74-19.04c30.35-12.57,57.93-31,81.16-54.23,23.23-23.23,41.66-50.81,54.23-81.16,12.57-30.35,19.04-62.89,19.04-95.74M349.85,383.35h0Z"/>
    </clipPath>
    <clipPath id="clippath-10">
      <path class="st1" d="M600.03,383.35c0-32.85-6.47-65.39-19.04-95.74-12.57-30.35-31-57.93-54.23-81.16-23.23-23.23-50.81-41.66-81.16-54.23-30.35-12.57-62.89-19.04-95.74-19.04s-65.39,6.47-95.74,19.04c-30.35,12.57-57.93,31-81.16,54.23-23.23,23.23-41.66,50.81-54.23,81.16-12.57,30.35-19.04,62.89-19.04,95.74s6.47,65.39,19.04,95.74c12.57,30.35,31,57.93,54.23,81.16,23.23,23.23,50.81,41.66,81.16,54.23,30.35,12.57,62.89,19.04,95.74,19.04s65.39-6.47,95.74-19.04c30.35-12.57,57.93-31,81.16-54.23,23.23-23.23,41.66-50.81,54.23-81.16,12.57-30.35,19.04-62.89,19.04-95.74M349.85,383.35h0Z"/>
    </clipPath>
    <clipPath id="clippath-11">
      <path class="st1" d="M600.03,383.35c0-32.85-6.47-65.39-19.04-95.74-12.57-30.35-31-57.93-54.23-81.16-23.23-23.23-50.81-41.66-81.16-54.23-30.35-12.57-62.89-19.04-95.74-19.04s-65.39,6.47-95.74,19.04c-30.35,12.57-57.93,31-81.16,54.23-23.23,23.23-41.66,50.81-54.23,81.16-12.57,30.35-19.04,62.89-19.04,95.74s6.47,65.39,19.04,95.74c12.57,30.35,31,57.93,54.23,81.16,23.23,23.23,50.81,41.66,81.16,54.23,30.35,12.57,62.89,19.04,95.74,19.04s65.39-6.47,95.74-19.04c30.35-12.57,57.93-31,81.16-54.23,23.23-23.23,41.66-50.81,54.23-81.16,12.57-30.35,19.04-62.89,19.04-95.74M349.85,383.35h0Z"/>
    </clipPath>
    <clipPath id="clippath-12">
      <path class="st1" d="M600.03,383.35c0-32.85-6.47-65.39-19.04-95.74-12.57-30.35-31-57.93-54.23-81.16-23.23-23.23-50.81-41.66-81.16-54.23-30.35-12.57-62.89-19.04-95.74-19.04s-65.39,6.47-95.74,19.04c-30.35,12.57-57.93,31-81.16,54.23-23.23,23.23-41.66,50.81-54.23,81.16-12.57,30.35-19.04,62.89-19.04,95.74s6.47,65.39,19.04,95.74c12.57,30.35,31,57.93,54.23,81.16,23.23,23.23,50.81,41.66,81.16,54.23,30.35,12.57,62.89,19.04,95.74,19.04s65.39-6.47,95.74-19.04c30.35-12.57,57.93-31,81.16-54.23,23.23-23.23,41.66-50.81,54.23-81.16,12.57-30.35,19.04-62.89,19.04-95.74M349.85,383.35h0Z"/>
    </clipPath>
    <clipPath id="clippath-13">
      <path class="st1" d="M600.03,383.35c0-32.85-6.47-65.39-19.04-95.74-12.57-30.35-31-57.93-54.23-81.16-23.23-23.23-50.81-41.66-81.16-54.23-30.35-12.57-62.89-19.04-95.74-19.04s-65.39,6.47-95.74,19.04c-30.35,12.57-57.93,31-81.16,54.23-23.23,23.23-41.66,50.81-54.23,81.16-12.57,30.35-19.04,62.89-19.04,95.74s6.47,65.39,19.04,95.74c12.57,30.35,31,57.93,54.23,81.16,23.23,23.23,50.81,41.66,81.16,54.23,30.35,12.57,62.89,19.04,95.74,19.04s65.39-6.47,95.74-19.04c30.35-12.57,57.93-31,81.16-54.23,23.23-23.23,41.66-50.81,54.23-81.16,12.57-30.35,19.04-62.89,19.04-95.74M349.85,383.35h0Z"/>
    </clipPath>
    <clipPath id="clippath-14">
      <path class="st1" d="M600.03,383.35c0-32.85-6.47-65.39-19.04-95.74-12.57-30.35-31-57.93-54.23-81.16-23.23-23.23-50.81-41.66-81.16-54.23-30.35-12.57-62.89-19.04-95.74-19.04s-65.39,6.47-95.74,19.04c-30.35,12.57-57.93,31-81.16,54.23-23.23,23.23-41.66,50.81-54.23,81.16-12.57,30.35-19.04,62.89-19.04,95.74s6.47,65.39,19.04,95.74c12.57,30.35,31,57.93,54.23,81.16,23.23,23.23,50.81,41.66,81.16,54.23,30.35,12.57,62.89,19.04,95.74,19.04s65.39-6.47,95.74-19.04c30.35-12.57,57.93-31,81.16-54.23,23.23-23.23,41.66-50.81,54.23-81.16,12.57-30.35,19.04-62.89,19.04-95.74M349.85,383.35h0Z"/>
    </clipPath>
    <clipPath id="clippath-15">
      <path class="st1" d="M600.03,383.35c0-32.85-6.47-65.39-19.04-95.74-12.57-30.35-31-57.93-54.23-81.16-23.23-23.23-50.81-41.66-81.16-54.23-30.35-12.57-62.89-19.04-95.74-19.04s-65.39,6.47-95.74,19.04c-30.35,12.57-57.93,31-81.16,54.23-23.23,23.23-41.66,50.81-54.23,81.16-12.57,30.35-19.04,62.89-19.04,95.74s6.47,65.39,19.04,95.74c12.57,30.35,31,57.93,54.23,81.16,23.23,23.23,50.81,41.66,81.16,54.23,30.35,12.57,62.89,19.04,95.74,19.04s65.39-6.47,95.74-19.04c30.35-12.57,57.93-31,81.16-54.23,23.23-23.23,41.66-50.81,54.23-81.16,12.57-30.35,19.04-62.89,19.04-95.74M349.85,383.35h0Z"/>
    </clipPath>
    <clipPath id="clippath-16">
      <path class="st1" d="M600.03,383.35c0-32.85-6.47-65.39-19.04-95.74-12.57-30.35-31-57.93-54.23-81.16-23.23-23.23-50.81-41.66-81.16-54.23-30.35-12.57-62.89-19.04-95.74-19.04s-65.39,6.47-95.74,19.04c-30.35,12.57-57.93,31-81.16,54.23-23.23,23.23-41.66,50.81-54.23,81.16-12.57,30.35-19.04,62.89-19.04,95.74s6.47,65.39,19.04,95.74c12.57,30.35,31,57.93,54.23,81.16,23.23,23.23,50.81,41.66,81.16,54.23,30.35,12.57,62.89,19.04,95.74,19.04s65.39-6.47,95.74-19.04c30.35-12.57,57.93-31,81.16-54.23,23.23-23.23,41.66-50.81,54.23-81.16,12.57-30.35,19.04-62.89,19.04-95.74M349.85,383.35h0Z"/>
    </clipPath>
    <clipPath id="clippath-17">
      <path class="st1" d="M600.03,383.35c0-32.85-6.47-65.39-19.04-95.74-12.57-30.35-31-57.93-54.23-81.16-23.23-23.23-50.81-41.66-81.16-54.23-30.35-12.57-62.89-19.04-95.74-19.04s-65.39,6.47-95.74,19.04c-30.35,12.57-57.93,31-81.16,54.23-23.23,23.23-41.66,50.81-54.23,81.16-12.57,30.35-19.04,62.89-19.04,95.74s6.47,65.39,19.04,95.74c12.57,30.35,31,57.93,54.23,81.16,23.23,23.23,50.81,41.66,81.16,54.23,30.35,12.57,62.89,19.04,95.74,19.04s65.39-6.47,95.74-19.04c30.35-12.57,57.93-31,81.16-54.23,23.23-23.23,41.66-50.81,54.23-81.16,12.57-30.35,19.04-62.89,19.04-95.74M349.85,383.35h0Z"/>
    </clipPath>
    <clipPath id="clippath-18">
      <path class="st1" d="M600.03,383.35c0-32.85-6.47-65.39-19.04-95.74-12.57-30.35-31-57.93-54.23-81.16-23.23-23.23-50.81-41.66-81.16-54.23-30.35-12.57-62.89-19.04-95.74-19.04s-65.39,6.47-95.74,19.04c-30.35,12.57-57.93,31-81.16,54.23-23.23,23.23-41.66,50.81-54.23,81.16-12.57,30.35-19.04,62.89-19.04,95.74s6.47,65.39,19.04,95.74c12.57,30.35,31,57.93,54.23,81.16,23.23,23.23,50.81,41.66,81.16,54.23,30.35,12.57,62.89,19.04,95.74,19.04s65.39-6.47,95.74-19.04c30.35-12.57,57.93-31,81.16-54.23,23.23-23.23,41.66-50.81,54.23-81.16,12.57-30.35,19.04-62.89,19.04-95.74M349.85,383.35h0Z"/>
    </clipPath>
    <clipPath id="clippath-19">
      <path class="st1" d="M600.03,383.35c0-32.85-6.47-65.39-19.04-95.74-12.57-30.35-31-57.93-54.23-81.16-23.23-23.23-50.81-41.66-81.16-54.23-30.35-12.57-62.89-19.04-95.74-19.04s-65.39,6.47-95.74,19.04c-30.35,12.57-57.93,31-81.16,54.23-23.23,23.23-41.66,50.81-54.23,81.16-12.57,30.35-19.04,62.89-19.04,95.74s6.47,65.39,19.04,95.74c12.57,30.35,31,57.93,54.23,81.16,23.23,23.23,50.81,41.66,81.16,54.23,30.35,12.57,62.89,19.04,95.74,19.04s65.39-6.47,95.74-19.04c30.35-12.57,57.93-31,81.16-54.23,23.23-23.23,41.66-50.81,54.23-81.16,12.57-30.35,19.04-62.89,19.04-95.74M349.85,383.35h0Z"/>
    </clipPath>
  </defs>
  <g>
    <path class="st15" d="M600.03,383.35c0-32.85-6.47-65.39-19.04-95.74-12.57-30.35-31-57.93-54.23-81.16-23.23-23.23-50.81-41.66-81.16-54.23-30.35-12.57-62.89-19.04-95.74-19.04s-65.39,6.47-95.74,19.04c-30.35,12.57-57.93,31-81.16,54.23-23.23,23.23-41.66,50.81-54.23,81.16-12.57,30.35-19.04,62.89-19.04,95.74s6.47,65.39,19.04,95.74c12.57,30.35,31,57.93,54.23,81.16,23.23,23.23,50.81,41.66,81.16,54.23,30.35,12.57,62.89,19.04,95.74,19.04s65.39-6.47,95.74-19.04c30.35-12.57,57.93-31,81.16-54.23,23.23-23.23,41.66-50.81,54.23-81.16,12.57-30.35,19.04-62.89,19.04-95.74M349.85,383.35h0Z"/>
    <g class="st34">
      <path class="st7" d="M575.01,383.35l-125.09-173.33h-200.14l-125.09,173.33,125.09,173.33,187.63-21.67,137.6-151.66Z"/>
    </g>
    <g class="st22">
      <path class="st17" d="M499.96,383.35l-87.56-108.33-137.6-21.67-100.07,130,112.58,108.33,137.6,21.67,75.05-130Z"/>
    </g>
    <g class="st32">
      <path class="st16" d="M549.99,383.35l-112.58-151.66h-175.12l-112.58,151.66,112.58,151.66,187.63,21.67,100.07-173.33Z"/>
    </g>
    <g class="st27">
      <path class="st4" d="M349.85,383.35h250.18"/>
    </g>
    <g class="st13">
      <path class="st4" d="M349.85,383.35l125.09-216.66"/>
    </g>
    <g class="st23">
      <path class="st4" d="M349.85,383.35l-125.09-216.66"/>
    </g>
    <g class="st8">
      <path class="st4" d="M349.85,383.35H99.67"/>
    </g>
    <g class="st9">
      <path class="st4" d="M349.85,383.35l-125.09,216.66"/>
    </g>
    <g class="st26">
      <path class="st4" d="M349.85,383.35l125.09,216.66"/>
    </g>
    <g class="st18">
      <path class="st4" d="M399.89,383.35c0-6.57-1.29-13.08-3.81-19.15-2.51-6.07-6.2-11.59-10.85-16.23s-10.16-8.33-16.23-10.85c-6.07-2.51-12.58-3.81-19.15-3.81s-13.08,1.29-19.15,3.81c-6.07,2.51-11.59,6.2-16.23,10.85s-8.33,10.16-10.85,16.23c-2.51,6.07-3.81,12.58-3.81,19.15s1.29,13.08,3.81,19.15c2.51,6.07,6.2,11.59,10.85,16.23s10.16,8.33,16.23,10.85c6.07,2.51,12.58,3.81,19.15,3.81s13.08-1.29,19.15-3.81c6.07-2.51,11.59-6.2,16.23-10.85s8.33-10.16,10.85-16.23c2.51-6.07,3.81-12.58,3.81-19.15"/>
    </g>
    <path id="ArialMT-32" d="M400.61,361.65v.76h-4.26c0-.19.02-.37.09-.55.11-.29.28-.58.52-.86.24-.28.58-.61,1.04-.98.7-.57,1.17-1.03,1.42-1.36.25-.34.37-.65.37-.95s-.11-.58-.34-.79c-.22-.22-.52-.32-.88-.32-.38,0-.69.11-.91.34-.23.23-.34.54-.35.95l-.81-.08c.06-.61.26-1.07.63-1.39.36-.32.85-.48,1.47-.48s1.11.17,1.47.51c.36.34.54.77.54,1.27,0,.26-.05.51-.16.76-.11.25-.28.51-.52.79s-.65.65-1.22,1.13c-.48.4-.78.67-.92.81-.13.14-.25.28-.33.43h3.16Z"/>
    <g class="st19">
      <path class="st4" d="M449.92,383.35c0-13.14-2.59-26.15-7.62-38.3-5.03-12.14-12.4-23.17-21.69-32.47-9.29-9.29-20.32-16.66-32.47-21.69-12.14-5.03-25.15-7.62-38.3-7.62s-26.15,2.59-38.3,7.62c-12.14,5.03-23.17,12.4-32.47,21.69-9.29,9.29-16.66,20.32-21.69,32.47-5.03,12.14-7.62,25.15-7.62,38.3s2.59,26.15,7.62,38.3c5.03,12.14,12.4,23.17,21.69,32.47,9.29,9.29,20.32,16.66,32.47,21.69,12.14,5.03,25.15,7.62,38.3,7.62s26.15-2.59,38.3-7.62c12.14-5.03,23.17-12.4,32.47-21.69,9.29-9.29,16.66-20.32,21.69-32.47,5.03-12.14,7.62-25.15,7.62-38.3"/>
    </g>
    <path id="ArialMT-34" d="M445.21,343.27v-1.54h-2.8v-.73l2.94-4.17h.65v4.17h.87v.73h-.87v1.54h-.79ZM445.21,341v-2.9l-2.02,2.9h2.02Z"/>
    <g class="st21">
      <path class="st4" d="M499.96,383.35c0-19.71-3.88-39.23-11.43-57.44-7.54-18.21-18.6-34.76-32.54-48.7s-30.49-25-48.7-32.54-37.73-11.43-57.44-11.43-39.23,3.88-57.44,11.43-34.76,18.6-48.7,32.54-25,30.49-32.54,48.7-11.43,37.73-11.43,57.44,3.88,39.23,11.43,57.44,18.6,34.76,32.54,48.7,30.49,25,48.7,32.54,37.73,11.43,57.44,11.43,39.23-3.88,57.44-11.43,34.76-18.6,48.7-32.54,25-30.49,32.54-48.7c7.54-18.21,11.43-37.73,11.43-57.44"/>
    </g>
    <path id="ArialMT-36" d="M493.01,319.26l-.79.06c-.07-.31-.17-.54-.3-.68-.21-.23-.48-.34-.79-.34-.25,0-.47.07-.66.21-.25.18-.44.45-.59.8-.14.35-.22.85-.22,1.49.19-.29.42-.5.7-.65s.56-.21.87-.21c.53,0,.98.19,1.35.58.37.39.56.89.56,1.5,0,.41-.09.78-.26,1.13-.17.35-.41.61-.72.8-.3.18-.65.28-1.04.28-.66,0-1.2-.24-1.61-.73-.42-.48-.62-1.28-.62-2.4,0-1.24.23-2.15.69-2.72.4-.49.94-.74,1.62-.74.51,0,.92.14,1.25.43.32.28.52.68.58,1.18ZM489.78,322.03c0,.27.06.53.17.78.12.25.28.44.49.57.21.13.43.2.66.2.33,0,.62-.13.86-.4.24-.27.36-.64.36-1.1s-.12-.8-.36-1.05c-.24-.26-.54-.39-.9-.39s-.66.13-.91.39c-.25.26-.37.59-.37,1.01Z"/>
    <g class="st28">
      <path class="st4" d="M549.99,383.35c0-26.28-5.18-52.31-15.23-76.59-10.06-24.28-24.8-46.35-43.39-64.93s-40.65-33.33-64.93-43.39c-24.28-10.06-50.31-15.23-76.59-15.23s-52.31,5.18-76.59,15.23c-24.28,10.06-46.35,24.8-64.93,43.39-18.58,18.58-33.33,40.65-43.39,64.93-10.06,24.28-15.23,50.31-15.23,76.59s5.18,52.31,15.23,76.59c10.06,24.28,24.8,46.35,43.39,64.93,18.58,18.58,40.65,33.33,64.93,43.39,24.28,10.06,50.31,15.23,76.59,15.23s52.31-5.18,76.59-15.23c24.28-10.06,46.35-24.8,64.93-43.39s33.33-40.65,43.39-64.93c10.06-24.28,15.23-50.31,15.23-76.59"/>
    </g>
    <path id="ArialMT-38" d="M536.35,301.48c-.33-.12-.57-.29-.73-.51-.16-.22-.24-.49-.24-.8,0-.47.17-.86.5-1.18.34-.32.79-.48,1.34-.48s1.02.16,1.36.49c.34.33.51.72.51,1.19,0,.3-.08.56-.24.78-.16.22-.39.39-.71.51.4.13.7.34.9.62.21.29.31.63.31,1.03,0,.55-.2,1.01-.59,1.39-.39.38-.9.56-1.54.56s-1.15-.19-1.54-.56c-.39-.38-.59-.85-.59-1.41,0-.42.11-.77.32-1.05.21-.28.52-.48.91-.58ZM536.19,300.14c0,.3.1.55.29.75.2.19.45.29.77.29s.55-.1.75-.29c.2-.19.29-.43.29-.71s-.1-.53-.3-.73c-.2-.2-.45-.3-.75-.3s-.55.1-.75.29c-.2.19-.3.42-.3.69ZM535.94,303.11c0,.23.05.44.16.66s.27.37.48.49c.21.12.44.17.68.17.38,0,.69-.12.94-.36.25-.24.37-.55.37-.93s-.13-.7-.38-.95c-.25-.25-.57-.37-.95-.37s-.68.12-.93.37c-.24.25-.37.55-.37.92Z"/>
    <g class="st33">
      <path class="st4" d="M600.03,383.35c0-32.85-6.47-65.39-19.04-95.74-12.57-30.35-31-57.93-54.23-81.16-23.23-23.23-50.81-41.66-81.16-54.23-30.35-12.57-62.89-19.04-95.74-19.04s-65.39,6.47-95.74,19.04c-30.35,12.57-57.93,31-81.16,54.23-23.23,23.23-41.66,50.81-54.23,81.16-12.57,30.35-19.04,62.89-19.04,95.74s6.47,65.39,19.04,95.74c12.57,30.35,31,57.93,54.23,81.16,23.23,23.23,50.81,41.66,81.16,54.23,30.35,12.57,62.89,19.04,95.74,19.04s65.39-6.47,95.74-19.04c30.35-12.57,57.93-31,81.16-54.23,23.23-23.23,41.66-50.81,54.23-81.16,12.57-30.35,19.04-62.89,19.04-95.74"/>
    </g>
    <path id="ArialMT-31" d="M584.34,285.82h-.79v-5.04c-.19.18-.44.36-.75.54s-.59.32-.83.41v-.77c.44-.21.83-.46,1.16-.76.33-.3.57-.58.7-.86h.51v6.47Z"/>
    <path id="ArialMT-30" d="M586.37,282.65c0-.76.08-1.38.23-1.84.16-.47.39-.82.7-1.07.31-.25.7-.38,1.17-.38.35,0,.65.07.91.21.26.14.48.34.65.6.17.26.3.58.4.96.1.38.14.88.14,1.52,0,.76-.08,1.37-.23,1.83-.15.46-.39.82-.7,1.08-.31.25-.7.38-1.17.38-.62,0-1.11-.22-1.46-.67-.42-.54-.64-1.41-.64-2.62ZM587.18,282.65c0,1.06.12,1.76.37,2.11.25.35.55.52.92.52s.67-.18.92-.53.37-1.05.37-2.11-.12-1.77-.37-2.11c-.25-.35-.56-.52-.93-.52s-.65.15-.87.46c-.27.39-.41,1.12-.41,2.18Z"/>
    <g class="st29">
      <path class="st0" d="M575.01,383.35l-125.09-173.33h-200.14l-125.09,173.33,125.09,173.33,187.63-21.67,137.6-151.66"/>
    </g>
    <g class="st11">
      <path id="m306c4ca479" class="st6" d="M575.01,386.35c.8,0,1.56-.32,2.12-.88.56-.56.88-1.33.88-2.12s-.32-1.56-.88-2.12c-.56-.56-1.33-.88-2.12-.88s-1.56.32-2.12.88c-.56.56-.88,1.33-.88,2.12s.32,1.56.88,2.12c.56.56,1.33.88,2.12.88Z"/>
      <path id="m306c4ca4791" data-name="m306c4ca479" class="st6" d="M449.92,213.02c.8,0,1.56-.32,2.12-.88.56-.56.88-1.33.88-2.12s-.32-1.56-.88-2.12c-.56-.56-1.33-.88-2.12-.88s-1.56.32-2.12.88c-.56.56-.88,1.33-.88,2.12s.32,1.56.88,2.12c.56.56,1.33.88,2.12.88Z"/>
      <path id="m306c4ca4792" data-name="m306c4ca479" class="st6" d="M249.78,213.02c.8,0,1.56-.32,2.12-.88.56-.56.88-1.33.88-2.12s-.32-1.56-.88-2.12c-.56-.56-1.33-.88-2.12-.88s-1.56.32-2.12.88c-.56.56-.88,1.33-.88,2.12s.32,1.56.88,2.12c.56.56,1.33.88,2.12.88Z"/>
      <path id="m306c4ca4793" data-name="m306c4ca479" class="st6" d="M124.69,386.35c.8,0,1.56-.32,2.12-.88.56-.56.88-1.33.88-2.12s-.32-1.56-.88-2.12c-.56-.56-1.33-.88-2.12-.88s-1.56.32-2.12.88c-.56.56-.88,1.33-.88,2.12s.32,1.56.88,2.12c.56.56,1.33.88,2.12.88Z"/>
      <path id="m306c4ca4794" data-name="m306c4ca479" class="st6" d="M249.78,559.68c.8,0,1.56-.32,2.12-.88.56-.56.88-1.33.88-2.12s-.32-1.56-.88-2.12c-.56-.56-1.33-.88-2.12-.88s-1.56.32-2.12.88c-.56.56-.88,1.33-.88,2.12s.32,1.56.88,2.12c.56.56,1.33.88,2.12.88Z"/>
      <path id="m306c4ca4795" data-name="m306c4ca479" class="st6" d="M437.41,538.01c.8,0,1.56-.32,2.12-.88.56-.56.88-1.33.88-2.12s-.32-1.56-.88-2.12c-.56-.56-1.33-.88-2.12-.88s-1.56.32-2.12.88c-.56.56-.88,1.33-.88,2.12s.32,1.56.88,2.12c.56.56,1.33.88,2.12.88Z"/>
      <path id="m306c4ca4796" data-name="m306c4ca479" class="st6" d="M575.01,386.35c.8,0,1.56-.32,2.12-.88.56-.56.88-1.33.88-2.12s-.32-1.56-.88-2.12c-.56-.56-1.33-.88-2.12-.88s-1.56.32-2.12.88c-.56.56-.88,1.33-.88,2.12s.32,1.56.88,2.12c.56.56,1.33.88,2.12.88Z"/>
    </g>
    <g class="st31">
      <path class="st2" d="M499.96,383.35l-87.56-108.33-137.6-21.67-100.07,130,112.58,108.33,137.6,21.67,75.05-130"/>
    </g>
    <g class="st10">
      <path id="m89f68895c1" class="st20" d="M496.96,386.35h6v-6h-6v6Z"/>
      <path id="m89f68895c11" data-name="m89f68895c1" class="st20" d="M409.4,278.02h6v-6h-6v6Z"/>
      <path id="m89f68895c12" data-name="m89f68895c1" class="st20" d="M271.8,256.36h6v-6h-6v6Z"/>
      <path id="m89f68895c13" data-name="m89f68895c1" class="st20" d="M171.73,386.35h6v-6h-6v6Z"/>
      <path id="m89f68895c14" data-name="m89f68895c1" class="st20" d="M284.31,494.68h6v-6h-6v6Z"/>
      <path id="m89f68895c15" data-name="m89f68895c1" class="st20" d="M421.91,516.35h6v-6h-6v6Z"/>
      <path id="m89f68895c16" data-name="m89f68895c1" class="st20" d="M496.96,386.35h6v-6h-6v6Z"/>
    </g>
    <g class="st12">
      <path class="st5" d="M549.99,383.35l-112.58-151.66h-175.12l-112.58,151.66,112.58,151.66,187.63,21.67,100.07-173.33"/>
    </g>
    <g class="st30">
      <path id="m28bf601f14" class="st24" d="M549.99,380.35l-3,6h6l-3-6Z"/>
      <path id="m28bf601f141" data-name="m28bf601f14" class="st24" d="M437.41,228.69l-3,6h6l-3-6Z"/>
      <path id="m28bf601f142" data-name="m28bf601f14" class="st24" d="M262.29,228.69l-3,6h6l-3-6Z"/>
      <path id="m28bf601f143" data-name="m28bf601f14" class="st24" d="M149.71,380.35l-3,6h6l-3-6Z"/>
      <path id="m28bf601f144" data-name="m28bf601f14" class="st24" d="M262.29,532.01l-3,6h6l-3-6Z"/>
      <path id="m28bf601f145" data-name="m28bf601f14" class="st24" d="M449.92,553.68l-3,6h6l-3-6Z"/>
      <path id="m28bf601f146" data-name="m28bf601f14" class="st24" d="M549.99,380.35l-3,6h6l-3-6Z"/>
    </g>
    <path class="st3" d="M600.03,383.35c0-32.85-6.47-65.39-19.04-95.74-12.57-30.35-31-57.93-54.23-81.16-23.23-23.23-50.81-41.66-81.16-54.23-30.35-12.57-62.89-19.04-95.74-19.04s-65.39,6.47-95.74,19.04c-30.35,12.57-57.93,31-81.16,54.23-23.23,23.23-41.66,50.81-54.23,81.16-12.57,30.35-19.04,62.89-19.04,95.74s6.47,65.39,19.04,95.74c12.57,30.35,31,57.93,54.23,81.16,23.23,23.23,50.81,41.66,81.16,54.23,30.35,12.57,62.89,19.04,95.74,19.04s65.39-6.47,95.74-19.04c30.35-12.57,57.93-31,81.16-54.23,23.23-23.23,41.66-50.81,54.23-81.16,12.57-30.35,19.04-62.89,19.04-95.74"/>
  </g>
  <path id="Arial-BoldMT-52" d="M613.31,383.27v-7.87h3.35c.84,0,1.45.07,1.83.21.38.14.69.39.92.75.23.36.34.77.34,1.24,0,.59-.17,1.08-.52,1.46-.35.38-.87.63-1.56.73.34.2.63.42.85.66.22.24.53.67.91,1.28l.96,1.54h-1.9l-1.15-1.71c-.41-.61-.69-1-.84-1.16s-.31-.27-.48-.33-.44-.09-.8-.09h-.32v3.29h-1.59ZM614.9,378.73h1.18c.76,0,1.24-.03,1.43-.1.19-.06.34-.17.45-.33.11-.16.16-.36.16-.59,0-.26-.07-.48-.21-.64-.14-.16-.34-.27-.6-.31-.13-.02-.52-.03-1.16-.03h-1.24v2Z"/>
  <path id="Arial-BoldMT-61" d="M622.37,379.31l-1.37-.25c.15-.55.42-.96.79-1.22.38-.27.93-.4,1.68-.4.67,0,1.18.08,1.5.24.33.16.56.36.7.61s.2.7.2,1.35l-.02,1.76c0,.5.02.87.07,1.11.05.24.14.49.27.76h-1.49c-.04-.1-.09-.25-.14-.45-.03-.09-.04-.15-.05-.18-.26.25-.53.44-.83.57-.29.12-.61.19-.94.19-.59,0-1.05-.16-1.39-.48-.34-.32-.51-.72-.51-1.21,0-.32.08-.61.23-.86.15-.25.37-.45.65-.58.28-.14.68-.25,1.2-.35.7-.13,1.19-.26,1.47-.37v-.15c0-.29-.07-.5-.21-.62s-.41-.19-.81-.19c-.27,0-.48.05-.63.16s-.27.29-.36.56ZM624.39,380.53c-.19.06-.5.14-.92.23-.42.09-.69.18-.82.26-.2.14-.3.32-.3.53s.08.39.24.55c.16.15.36.23.6.23.27,0,.53-.09.78-.27.18-.14.3-.3.36-.5.04-.13.06-.37.06-.74v-.3Z"/>
  <path id="Arial-BoldMT-6e" d="M632.54,383.27h-1.51v-2.91c0-.62-.03-1.01-.1-1.19s-.17-.32-.31-.42c-.15-.1-.32-.15-.52-.15-.26,0-.5.07-.7.21s-.35.33-.43.57c-.08.24-.12.67-.12,1.31v2.58h-1.51v-5.7h1.4v.84c.5-.65,1.12-.97,1.88-.97.33,0,.64.06.91.18.28.12.48.27.63.46.14.19.24.4.3.63.06.24.08.57.08,1.01v3.55Z"/>
  <path id="Arial-BoldMT-67" d="M633.94,383.65l1.72.21c.03.2.1.34.2.41.14.11.37.16.68.16.39,0,.69-.06.89-.18.13-.08.23-.21.3-.38.05-.12.07-.36.07-.69v-.83c-.45.62-1.02.92-1.71.92-.77,0-1.37-.32-1.82-.97-.35-.51-.53-1.15-.53-1.91,0-.96.23-1.69.69-2.19.46-.51,1.03-.76,1.72-.76s1.29.31,1.74.93v-.8h1.41v5.12c0,.67-.06,1.18-.17,1.51-.11.33-.27.59-.47.78-.2.19-.47.34-.8.45s-.76.16-1.27.16c-.97,0-1.65-.17-2.06-.5-.4-.33-.61-.75-.61-1.26,0-.05,0-.11,0-.18ZM635.28,380.3c0,.6.12,1.05.35,1.33.23.28.52.42.87.42.37,0,.68-.14.93-.43s.38-.72.38-1.28-.12-1.03-.37-1.32c-.24-.29-.55-.43-.92-.43s-.66.14-.9.42c-.23.28-.35.71-.35,1.29Z"/>
  <path id="Arial-BoldMT-65" d="M644.1,381.46l1.5.25c-.19.55-.5.97-.92,1.26-.42.29-.94.43-1.56.43-.99,0-1.73-.32-2.2-.97-.38-.52-.56-1.17-.56-1.96,0-.95.25-1.69.74-2.22.49-.54,1.12-.8,1.88-.8.85,0,1.52.28,2.01.84s.72,1.42.7,2.58h-3.78c.01.45.13.8.37,1.04.23.25.52.37.87.37.24,0,.43-.06.59-.19.16-.13.28-.34.37-.62ZM644.18,379.93c-.01-.44-.12-.77-.34-1-.21-.23-.48-.34-.78-.34-.33,0-.6.12-.82.36-.21.24-.32.57-.32.98h2.25Z"/>
  <path id="Arial-BoldMT-50" d="M461.24,154.08v-7.87h2.55c.97,0,1.6.04,1.89.12.45.12.83.38,1.13.77.3.4.46.91.46,1.53,0,.48-.09.89-.26,1.22-.18.33-.4.59-.67.78-.27.19-.55.31-.82.37-.38.08-.93.11-1.65.11h-1.04v2.97h-1.59ZM462.83,147.54v2.23h.87c.63,0,1.05-.04,1.26-.12.21-.08.38-.21.5-.39.12-.18.18-.38.18-.61,0-.29-.08-.52-.25-.71-.17-.19-.38-.3-.64-.35-.19-.04-.57-.05-1.14-.05h-.77Z"/>
  <path id="Arial-BoldMT-611" data-name="Arial-BoldMT-61" d="M469.7,150.12l-1.37-.25c.15-.55.42-.96.79-1.22.38-.27.93-.4,1.68-.4.67,0,1.18.08,1.5.24.33.16.56.36.7.61s.2.7.2,1.35l-.02,1.76c0,.5.02.87.07,1.11.05.24.14.49.27.76h-1.49c-.04-.1-.09-.25-.14-.45-.03-.09-.04-.15-.05-.18-.26.25-.53.44-.83.57-.29.12-.61.19-.94.19-.59,0-1.05-.16-1.39-.48-.34-.32-.51-.72-.51-1.21,0-.32.08-.61.23-.86.15-.25.37-.45.65-.58.28-.14.68-.25,1.2-.35.7-.13,1.19-.26,1.47-.37v-.15c0-.29-.07-.5-.21-.62s-.41-.19-.81-.19c-.27,0-.48.05-.63.16s-.27.29-.36.56ZM471.72,151.34c-.19.06-.5.14-.92.23-.42.09-.69.18-.82.26-.2.14-.3.32-.3.53s.08.39.24.55c.16.15.36.23.6.23.27,0,.53-.09.78-.27.18-.14.3-.3.36-.5.04-.13.06-.37.06-.74v-.3Z"/>
  <path id="Arial-BoldMT-79" d="M473.97,148.38h1.61l1.36,4.05,1.33-4.05h1.56l-2.01,5.49-.36.99c-.13.33-.26.59-.38.76-.12.18-.26.32-.41.43-.16.11-.35.2-.58.26-.23.06-.48.09-.77.09s-.57-.03-.85-.09l-.13-1.18c.24.05.45.07.64.07.35,0,.61-.1.78-.31.17-.21.3-.47.39-.79l-2.17-5.72Z"/>
  <path id="Arial-BoldMT-6c" d="M480.8,154.08v-7.87h1.51v7.87h-1.51Z"/>
  <path id="Arial-BoldMT-6f" d="M483.51,151.15c0-.5.12-.99.37-1.46.25-.47.6-.83,1.05-1.07.45-.25.96-.37,1.52-.37.86,0,1.57.28,2.12.84s.83,1.27.83,2.12-.28,1.58-.84,2.15c-.56.57-1.26.85-2.1.85-.52,0-1.02-.12-1.5-.35-.47-.24-.84-.58-1.08-1.04-.25-.46-.37-1.01-.37-1.67ZM485.06,151.23c0,.56.13,1,.4,1.3.27.3.6.45,1,.45s.72-.15.99-.45c.27-.3.4-.74.4-1.31s-.13-.99-.4-1.29c-.27-.3-.6-.45-.99-.45s-.73.15-1,.45c-.27.3-.4.73-.4,1.3Z"/>
  <path id="Arial-BoldMT-612" data-name="Arial-BoldMT-61" d="M491.71,150.12l-1.37-.25c.15-.55.42-.96.79-1.22.38-.27.93-.4,1.68-.4.67,0,1.18.08,1.5.24.33.16.56.36.7.61s.2.7.2,1.35l-.02,1.76c0,.5.02.87.07,1.11.05.24.14.49.27.76h-1.49c-.04-.1-.09-.25-.14-.45-.03-.09-.04-.15-.05-.18-.26.25-.53.44-.83.57-.29.12-.61.19-.94.19-.59,0-1.05-.16-1.39-.48-.34-.32-.51-.72-.51-1.21,0-.32.08-.61.23-.86.15-.25.37-.45.65-.58.28-.14.68-.25,1.2-.35.7-.13,1.19-.26,1.47-.37v-.15c0-.29-.07-.5-.21-.62s-.41-.19-.81-.19c-.27,0-.48.05-.63.16s-.27.29-.36.56ZM493.73,151.34c-.19.06-.5.14-.92.23-.42.09-.69.18-.82.26-.2.14-.3.32-.3.53s.08.39.24.55c.16.15.36.23.6.23.27,0,.53-.09.78-.27.18-.14.3-.3.36-.5.04-.13.06-.37.06-.74v-.3Z"/>
  <path id="Arial-BoldMT-64" d="M501.93,154.08h-1.4v-.84c-.23.33-.51.57-.83.73-.32.16-.64.24-.96.24-.66,0-1.22-.26-1.68-.79-.47-.53-.7-1.26-.7-2.21s.23-1.7.68-2.21c.45-.5,1.03-.75,1.73-.75.64,0,1.19.27,1.65.8v-2.84h1.51v7.87ZM497.9,151.1c0,.61.08,1.05.25,1.32.24.39.58.59,1.02.59.35,0,.64-.15.89-.44.24-.3.37-.74.37-1.33,0-.66-.12-1.13-.35-1.41-.24-.29-.54-.43-.91-.43s-.66.14-.9.43c-.24.28-.36.71-.36,1.28Z"/>
  <path id="Arial-BoldMT-45" d="M170.44,156.89v-7.87h5.84v1.33h-4.25v1.74h3.95v1.33h-3.95v2.14h4.4v1.33h-5.99Z"/>
  <path id="Arial-BoldMT-6e1" data-name="Arial-BoldMT-6e" d="M182.96,156.89h-1.51v-2.91c0-.62-.03-1.01-.1-1.19s-.17-.32-.31-.42c-.15-.1-.32-.15-.52-.15-.26,0-.5.07-.7.21s-.35.33-.43.57c-.08.24-.12.67-.12,1.31v2.58h-1.51v-5.7h1.4v.84c.5-.65,1.12-.97,1.88-.97.33,0,.64.06.91.18.28.12.48.27.63.46.14.19.24.4.3.63.06.24.08.57.08,1.01v3.55Z"/>
  <path id="Arial-BoldMT-641" data-name="Arial-BoldMT-64" d="M189.72,156.89h-1.4v-.84c-.23.33-.51.57-.83.73-.32.16-.64.24-.96.24-.66,0-1.22-.26-1.68-.79-.47-.53-.7-1.26-.7-2.21s.23-1.7.68-2.21c.45-.5,1.03-.75,1.73-.75.64,0,1.19.27,1.65.8v-2.84h1.51v7.87ZM185.69,153.91c0,.61.08,1.05.25,1.32.24.39.58.59,1.02.59.35,0,.64-.15.89-.44.24-.3.37-.74.37-1.33,0-.66-.12-1.13-.35-1.41-.24-.29-.54-.43-.91-.43s-.66.14-.9.43c-.24.28-.36.71-.36,1.28Z"/>
  <path id="Arial-BoldMT-75" d="M194.96,156.89v-.85c-.21.3-.48.54-.82.72-.34.18-.69.26-1.07.26s-.73-.08-1.03-.25c-.3-.17-.52-.4-.66-.71-.14-.3-.2-.73-.2-1.26v-3.61h1.51v2.62c0,.8.03,1.29.08,1.47.06.18.16.32.3.43s.33.16.56.16c.26,0,.49-.07.69-.21.2-.14.34-.32.42-.53.08-.21.11-.72.11-1.54v-2.41h1.51v5.7h-1.4Z"/>
  <path id="Arial-BoldMT-72" d="M199.37,156.89h-1.51v-5.7h1.4v.81c.24-.38.45-.63.65-.76.19-.12.41-.18.65-.18.34,0,.67.1.99.29l-.47,1.31c-.25-.16-.49-.25-.71-.25s-.39.06-.54.18c-.15.12-.26.33-.35.63-.08.3-.13.94-.13,1.91v1.76Z"/>
  <path id="Arial-BoldMT-613" data-name="Arial-BoldMT-61" d="M203.34,152.92l-1.37-.25c.15-.55.42-.96.79-1.22.38-.27.93-.4,1.68-.4.67,0,1.18.08,1.5.24.33.16.56.36.7.61s.2.7.2,1.35l-.02,1.76c0,.5.02.87.07,1.11.05.24.14.49.27.76h-1.49c-.04-.1-.09-.25-.14-.45-.03-.09-.04-.15-.05-.18-.26.25-.53.44-.83.57-.29.12-.61.19-.94.19-.59,0-1.05-.16-1.39-.48-.34-.32-.51-.72-.51-1.21,0-.32.08-.61.23-.86.15-.25.37-.45.65-.58.28-.14.68-.25,1.2-.35.7-.13,1.19-.26,1.47-.37v-.15c0-.29-.07-.5-.21-.62s-.41-.19-.81-.19c-.27,0-.48.05-.63.16s-.27.29-.36.56ZM205.36,154.15c-.19.06-.5.14-.92.23-.42.09-.69.18-.82.26-.2.14-.3.32-.3.53s.08.39.24.55c.16.15.36.23.6.23.27,0,.53-.09.78-.27.18-.14.3-.3.36-.5.04-.13.06-.37.06-.74v-.3Z"/>
  <path id="Arial-BoldMT-6e2" data-name="Arial-BoldMT-6e" d="M213.51,156.89h-1.51v-2.91c0-.62-.03-1.01-.1-1.19s-.17-.32-.31-.42c-.15-.1-.32-.15-.52-.15-.26,0-.5.07-.7.21s-.35.33-.43.57c-.08.24-.12.67-.12,1.31v2.58h-1.51v-5.7h1.4v.84c.5-.65,1.12-.97,1.88-.97.33,0,.64.06.91.18.28.12.48.27.63.46.14.19.24.4.3.63.06.24.08.57.08,1.01v3.55Z"/>
  <path id="Arial-BoldMT-63" d="M220.02,152.87l-1.49.27c-.05-.3-.16-.52-.34-.67s-.41-.23-.69-.23c-.38,0-.68.13-.9.39-.22.26-.34.69-.34,1.3,0,.68.11,1.16.34,1.44.23.28.53.42.92.42.29,0,.52-.08.7-.24.18-.16.31-.44.39-.84l1.48.25c-.15.68-.45,1.19-.89,1.54-.44.35-1.02.52-1.76.52-.83,0-1.5-.26-2-.79-.49-.53-.74-1.26-.74-2.19s.25-1.68.75-2.2c.5-.52,1.17-.79,2.02-.79.69,0,1.25.15,1.66.45s.7.75.88,1.37Z"/>
  <path id="Arial-BoldMT-651" data-name="Arial-BoldMT-65" d="M224.47,155.07l1.5.25c-.19.55-.5.97-.92,1.26-.42.29-.94.43-1.56.43-.99,0-1.73-.32-2.2-.97-.38-.52-.56-1.17-.56-1.96,0-.95.25-1.69.74-2.22.49-.54,1.12-.8,1.88-.8.85,0,1.52.28,2.01.84s.72,1.42.7,2.58h-3.78c.01.45.13.8.37,1.04.23.25.52.37.87.37.24,0,.43-.06.59-.19.16-.13.28-.34.37-.62ZM224.55,153.55c-.01-.44-.12-.77-.34-1-.21-.23-.48-.34-.78-.34-.33,0-.6.12-.82.36-.21.24-.32.57-.32.98h2.25Z"/>
  <path id="Arial-BoldMT-53" d="M34.63,383.64l1.55-.15c.09.52.28.9.57,1.14.28.24.67.36,1.15.36.51,0,.9-.11,1.16-.32.26-.22.39-.47.39-.76,0-.19-.05-.35-.16-.48s-.3-.24-.57-.34c-.19-.07-.61-.18-1.27-.34-.85-.21-1.45-.47-1.79-.78-.48-.43-.73-.96-.73-1.58,0-.4.11-.78.34-1.13.23-.35.56-.62.98-.8.43-.18.95-.27,1.55-.27.99,0,1.73.22,2.23.65s.76,1.01.79,1.73l-1.59.07c-.07-.4-.21-.7-.44-.87-.22-.18-.56-.27-1.01-.27s-.82.1-1.08.29c-.17.12-.25.28-.25.49,0,.19.08.35.24.48.2.17.69.34,1.46.53.77.18,1.35.37,1.72.57.37.19.66.46.87.8.21.34.31.76.31,1.25,0,.45-.13.87-.38,1.27-.25.39-.6.69-1.06.88-.46.19-1.03.29-1.71.29-1,0-1.76-.23-2.29-.69-.53-.46-.85-1.13-.96-2.01Z"/>
  <path id="Arial-BoldMT-77" d="M43.42,386.2l-1.8-5.7h1.47l1.07,3.74.98-3.74h1.46l.95,3.74,1.09-3.74h1.49l-1.83,5.7h-1.45l-.98-3.67-.97,3.67h-1.47Z"/>
  <path id="Arial-BoldMT-614" data-name="Arial-BoldMT-61" d="M52.04,382.23l-1.37-.25c.15-.55.42-.96.79-1.22.38-.27.93-.4,1.68-.4.67,0,1.18.08,1.5.24.33.16.56.36.7.61s.2.7.2,1.35l-.02,1.76c0,.5.02.87.07,1.11.05.24.14.49.27.76h-1.49c-.04-.1-.09-.25-.14-.45-.03-.09-.04-.15-.05-.18-.26.25-.53.44-.83.57-.29.12-.61.19-.94.19-.59,0-1.05-.16-1.39-.48-.34-.32-.51-.72-.51-1.21,0-.32.08-.61.23-.86.15-.25.37-.45.65-.58.28-.14.68-.25,1.2-.35.7-.13,1.19-.26,1.47-.37v-.15c0-.29-.07-.5-.21-.62s-.41-.19-.81-.19c-.27,0-.48.05-.63.16s-.27.29-.36.56ZM54.06,383.46c-.19.06-.5.14-.92.23-.42.09-.69.18-.82.26-.2.14-.3.32-.3.53s.08.39.24.55c.16.15.36.23.6.23.27,0,.53-.09.78-.27.18-.14.3-.3.36-.5.04-.13.06-.37.06-.74v-.3Z"/>
  <path id="Arial-BoldMT-721" data-name="Arial-BoldMT-72" d="M58.47,386.2h-1.51v-5.7h1.4v.81c.24-.38.45-.63.65-.76.19-.12.41-.18.65-.18.34,0,.67.1.99.29l-.47,1.31c-.25-.16-.49-.25-.71-.25s-.39.06-.54.18c-.15.12-.26.33-.35.63-.08.3-.13.94-.13,1.91v1.76Z"/>
  <path id="Arial-BoldMT-6d" d="M61.2,380.49h1.39v.78c.5-.6,1.09-.91,1.78-.91.36,0,.68.08.95.23.27.15.49.38.66.68.25-.3.52-.53.81-.68.29-.15.6-.23.93-.23.42,0,.77.09,1.06.26.29.17.51.42.65.75.1.24.16.64.16,1.18v3.65h-1.51v-3.26c0-.57-.05-.93-.16-1.09-.14-.22-.35-.32-.64-.32-.21,0-.41.06-.6.19-.19.13-.32.32-.4.57s-.12.64-.12,1.18v2.74h-1.51v-3.13c0-.55-.03-.91-.08-1.07-.05-.16-.14-.28-.25-.36-.11-.08-.26-.12-.46-.12-.23,0-.44.06-.63.19-.19.12-.32.31-.4.54-.08.24-.12.63-.12,1.18v2.77h-1.51v-5.7Z"/>
  <path id="Arial-BoldMT-69" d="M71.09,379.72v-1.4h1.51v1.4h-1.51ZM71.09,386.2v-5.7h1.51v5.7h-1.51Z"/>
  <path id="Arial-BoldMT-6e3" data-name="Arial-BoldMT-6e" d="M79.33,386.2h-1.51v-2.91c0-.62-.03-1.01-.1-1.19s-.17-.32-.31-.42c-.15-.1-.32-.15-.52-.15-.26,0-.5.07-.7.21s-.35.33-.43.57c-.08.24-.12.67-.12,1.31v2.58h-1.51v-5.7h1.4v.84c.5-.65,1.12-.97,1.88-.97.33,0,.64.06.91.18.28.12.48.27.63.46.14.19.24.4.3.63.06.24.08.57.08,1.01v3.55Z"/>
  <path id="Arial-BoldMT-671" data-name="Arial-BoldMT-67" d="M80.73,386.57l1.72.21c.03.2.1.34.2.41.14.11.37.16.68.16.39,0,.69-.06.89-.18.13-.08.23-.21.3-.38.05-.12.07-.36.07-.69v-.83c-.45.62-1.02.92-1.71.92-.77,0-1.37-.32-1.82-.97-.35-.51-.53-1.15-.53-1.91,0-.96.23-1.69.69-2.19.46-.51,1.03-.76,1.72-.76s1.29.31,1.74.93v-.8h1.41v5.12c0,.67-.06,1.18-.17,1.51-.11.33-.27.59-.47.78-.2.19-.47.34-.8.45s-.76.16-1.27.16c-.97,0-1.65-.17-2.06-.5-.4-.33-.61-.75-.61-1.26,0-.05,0-.11,0-.18ZM82.07,383.23c0,.6.12,1.05.35,1.33.23.28.52.42.87.42.37,0,.68-.14.93-.43s.38-.72.38-1.28-.12-1.03-.37-1.32c-.24-.29-.55-.43-.92-.43s-.66.14-.9.42c-.23.28-.35.71-.35,1.29Z"/>
  <path id="Arial-BoldMT-41" d="M180.44,626.87h-1.73l-.69-1.79h-3.15l-.65,1.79h-1.69l3.07-7.87h1.68l3.15,7.87ZM177.52,623.75l-1.08-2.92-1.06,2.92h2.15Z"/>
  <path id="Arial-BoldMT-49" d="M181.24,626.87v-7.87h1.59v7.87h-1.59Z"/>
  <path id="Arial-BoldMT-20" d="M183.54,626.87"/>
  <path id="Arial-BoldMT-411" data-name="Arial-BoldMT-41" d="M194.09,626.87h-1.73l-.69-1.79h-3.15l-.65,1.79h-1.69l3.07-7.87h1.68l3.15,7.87ZM191.16,623.75l-1.08-2.92-1.06,2.92h2.15Z"/>
  <path id="Arial-BoldMT-751" data-name="Arial-BoldMT-75" d="M198.67,626.87v-.85c-.21.3-.48.54-.82.72-.34.18-.69.26-1.07.26s-.73-.08-1.03-.25c-.3-.17-.52-.4-.66-.71-.14-.3-.2-.73-.2-1.26v-3.61h1.51v2.62c0,.8.03,1.29.08,1.47.06.18.16.32.3.43s.33.16.56.16c.26,0,.49-.07.69-.21.2-.14.34-.32.42-.53.08-.21.11-.72.11-1.54v-2.41h1.51v5.7h-1.4Z"/>
  <path id="Arial-BoldMT-74" d="M204.25,621.16v1.2h-1.03v2.3c0,.47,0,.74.03.81.02.08.07.14.14.19s.15.08.25.08c.14,0,.34-.05.61-.15l.13,1.17c-.35.15-.75.23-1.19.23-.27,0-.52-.05-.74-.14-.22-.09-.38-.21-.48-.36-.1-.15-.17-.34-.21-.59-.03-.18-.05-.53-.05-1.06v-2.49h-.69v-1.2h.69v-1.13l1.51-.88v2.01h1.03Z"/>
  <path id="Arial-BoldMT-6f1" data-name="Arial-BoldMT-6f" d="M204.95,623.94c0-.5.12-.99.37-1.46.25-.47.6-.83,1.05-1.07.45-.25.96-.37,1.52-.37.86,0,1.57.28,2.12.84s.83,1.27.83,2.12-.28,1.58-.84,2.15c-.56.57-1.26.85-2.1.85-.52,0-1.02-.12-1.5-.35-.47-.24-.84-.58-1.08-1.04-.25-.46-.37-1.01-.37-1.67ZM206.5,624.02c0,.56.13,1,.4,1.3.27.3.6.45,1,.45s.72-.15.99-.45c.27-.3.4-.74.4-1.31s-.13-.99-.4-1.29c-.27-.3-.6-.45-.99-.45s-.73.15-1,.45c-.27.3-.4.73-.4,1.3Z"/>
  <path id="Arial-BoldMT-6e4" data-name="Arial-BoldMT-6e" d="M217.21,626.87h-1.51v-2.91c0-.62-.03-1.01-.1-1.19s-.17-.32-.31-.42c-.15-.1-.32-.15-.52-.15-.26,0-.5.07-.7.21s-.35.33-.43.57c-.08.24-.12.67-.12,1.31v2.58h-1.51v-5.7h1.4v.84c.5-.65,1.12-.97,1.88-.97.33,0,.64.06.91.18.28.12.48.27.63.46.14.19.24.4.3.63.06.24.08.57.08,1.01v3.55Z"/>
  <path id="Arial-BoldMT-6f2" data-name="Arial-BoldMT-6f" d="M218.39,623.94c0-.5.12-.99.37-1.46.25-.47.6-.83,1.05-1.07.45-.25.96-.37,1.52-.37.86,0,1.57.28,2.12.84s.83,1.27.83,2.12-.28,1.58-.84,2.15c-.56.57-1.26.85-2.1.85-.52,0-1.02-.12-1.5-.35-.47-.24-.84-.58-1.08-1.04-.25-.46-.37-1.01-.37-1.67ZM219.94,624.02c0,.56.13,1,.4,1.3.27.3.6.45,1,.45s.72-.15.99-.45c.27-.3.4-.74.4-1.31s-.13-.99-.4-1.29c-.27-.3-.6-.45-.99-.45s-.73.15-1,.45c-.27.3-.4.73-.4,1.3Z"/>
  <path id="Arial-BoldMT-6d1" data-name="Arial-BoldMT-6d" d="M225.35,621.16h1.39v.78c.5-.6,1.09-.91,1.78-.91.36,0,.68.08.95.23.27.15.49.38.66.68.25-.3.52-.53.81-.68.29-.15.6-.23.93-.23.42,0,.77.09,1.06.26.29.17.51.42.65.75.1.24.16.64.16,1.18v3.65h-1.51v-3.26c0-.57-.05-.93-.16-1.09-.14-.22-.35-.32-.64-.32-.21,0-.41.06-.6.19-.19.13-.32.32-.4.57s-.12.64-.12,1.18v2.74h-1.51v-3.13c0-.55-.03-.91-.08-1.07-.05-.16-.14-.28-.25-.36-.11-.08-.26-.12-.46-.12-.23,0-.44.06-.63.19-.19.12-.32.31-.4.54-.08.24-.12.63-.12,1.18v2.77h-1.51v-5.7Z"/>
  <path id="Arial-BoldMT-791" data-name="Arial-BoldMT-79" d="M234.53,621.16h1.61l1.36,4.05,1.33-4.05h1.56l-2.01,5.49-.36.99c-.13.33-.26.59-.38.76-.12.18-.26.32-.41.43-.16.11-.35.2-.58.26-.23.06-.48.09-.77.09s-.57-.03-.85-.09l-.13-1.18c.24.05.45.07.64.07.35,0,.61-.1.78-.31.17-.21.3-.47.39-.79l-2.17-5.72Z"/>
  <path id="Arial-BoldMT-451" data-name="Arial-BoldMT-45" d="M441.34,631.27v-7.87h5.84v1.33h-4.25v1.74h3.95v1.33h-3.95v2.14h4.4v1.33h-5.99Z"/>
  <path id="Arial-BoldMT-57" d="M449.79,631.27l-1.88-7.87h1.63l1.19,5.41,1.44-5.41h1.89l1.38,5.5,1.21-5.5h1.6l-1.91,7.87h-1.69l-1.57-5.89-1.56,5.89h-1.72Z"/>
  <path id="Arial-BoldMT-201" data-name="Arial-BoldMT-20" d="M458.26,631.27"/>
  <path id="Arial-BoldMT-521" data-name="Arial-BoldMT-52" d="M462.12,631.27v-7.87h3.35c.84,0,1.45.07,1.83.21.38.14.69.39.92.75.23.36.34.77.34,1.24,0,.59-.17,1.08-.52,1.46-.35.38-.87.63-1.56.73.34.2.63.42.85.66.22.24.53.67.91,1.28l.96,1.54h-1.9l-1.15-1.71c-.41-.61-.69-1-.84-1.16s-.31-.27-.48-.33-.44-.09-.8-.09h-.32v3.29h-1.59ZM463.71,626.72h1.18c.76,0,1.24-.03,1.43-.1.19-.06.34-.17.45-.33.11-.16.16-.36.16-.59,0-.26-.07-.48-.21-.64-.14-.16-.34-.27-.6-.31-.13-.02-.52-.03-1.16-.03h-1.24v2Z"/>
  <path id="Arial-BoldMT-652" data-name="Arial-BoldMT-65" d="M473.35,629.45l1.5.25c-.19.55-.5.97-.92,1.26-.42.29-.94.43-1.56.43-.99,0-1.73-.32-2.2-.97-.38-.52-.56-1.17-.56-1.96,0-.95.25-1.69.74-2.22.49-.54,1.12-.8,1.88-.8.85,0,1.52.28,2.01.84s.72,1.42.7,2.58h-3.78c.01.45.13.8.37,1.04.23.25.52.37.87.37.24,0,.43-.06.59-.19.16-.13.28-.34.37-.62ZM473.44,627.92c-.01-.44-.12-.77-.34-1-.21-.23-.48-.34-.78-.34-.33,0-.6.12-.82.36-.21.24-.32.57-.32.98h2.25Z"/>
  <path id="Arial-BoldMT-73" d="M475.63,629.64l1.51-.23c.07.29.2.52.39.67.2.15.47.23.83.23.39,0,.68-.07.88-.21.13-.1.2-.24.2-.4,0-.11-.04-.21-.11-.28-.07-.07-.24-.14-.5-.2-1.22-.27-1.99-.51-2.32-.74-.45-.31-.68-.74-.68-1.28,0-.49.19-.91.58-1.25.39-.34,1-.51,1.82-.51s1.36.13,1.74.38c.38.25.64.63.79,1.13l-1.42.26c-.06-.22-.18-.39-.35-.51-.17-.12-.41-.18-.73-.18-.4,0-.68.06-.85.17-.11.08-.17.18-.17.31,0,.11.05.2.15.27.14.1.61.24,1.41.42.8.18,1.37.41,1.68.67.32.27.47.64.47,1.12,0,.52-.22.97-.65,1.35-.44.38-1.08.56-1.94.56-.78,0-1.39-.16-1.85-.47-.45-.32-.75-.74-.89-1.28Z"/>
  <path id="Arial-BoldMT-691" data-name="Arial-BoldMT-69" d="M482.28,624.79v-1.4h1.51v1.4h-1.51ZM482.28,631.27v-5.7h1.51v5.7h-1.51Z"/>
  <path id="Arial-BoldMT-731" data-name="Arial-BoldMT-73" d="M484.81,629.64l1.51-.23c.07.29.2.52.39.67.2.15.47.23.83.23.39,0,.68-.07.88-.21.13-.1.2-.24.2-.4,0-.11-.04-.21-.11-.28-.07-.07-.24-.14-.5-.2-1.22-.27-1.99-.51-2.32-.74-.45-.31-.68-.74-.68-1.28,0-.49.19-.91.58-1.25.39-.34,1-.51,1.82-.51s1.36.13,1.74.38c.38.25.64.63.79,1.13l-1.42.26c-.06-.22-.18-.39-.35-.51-.17-.12-.41-.18-.73-.18-.4,0-.68.06-.85.17-.11.08-.17.18-.17.31,0,.11.05.2.15.27.14.1.61.24,1.41.42.8.18,1.37.41,1.68.67.32.27.47.64.47,1.12,0,.52-.22.97-.65,1.35-.44.38-1.08.56-1.94.56-.78,0-1.39-.16-1.85-.47-.45-.32-.75-.74-.89-1.28Z"/>
  <path id="Arial-BoldMT-741" data-name="Arial-BoldMT-74" d="M494.07,625.56v1.2h-1.03v2.3c0,.47,0,.74.03.81.02.08.07.14.14.19s.15.08.25.08c.14,0,.34-.05.61-.15l.13,1.17c-.35.15-.75.23-1.19.23-.27,0-.52-.05-.74-.14-.22-.09-.38-.21-.48-.36-.1-.15-.17-.34-.21-.59-.03-.18-.05-.53-.05-1.06v-2.49h-.69v-1.2h.69v-1.13l1.51-.88v2.01h1.03Z"/>
  <path id="Arial-BoldMT-615" data-name="Arial-BoldMT-61" d="M496.25,627.3l-1.37-.25c.15-.55.42-.96.79-1.22.38-.27.93-.4,1.68-.4.67,0,1.18.08,1.5.24.33.16.56.36.7.61s.2.7.2,1.35l-.02,1.76c0,.5.02.87.07,1.11.05.24.14.49.27.76h-1.49c-.04-.1-.09-.25-.14-.45-.03-.09-.04-.15-.05-.18-.26.25-.53.44-.83.57-.29.12-.61.19-.94.19-.59,0-1.05-.16-1.39-.48-.34-.32-.51-.72-.51-1.21,0-.32.08-.61.23-.86.15-.25.37-.45.65-.58.28-.14.68-.25,1.2-.35.7-.13,1.19-.26,1.47-.37v-.15c0-.29-.07-.5-.21-.62s-.41-.19-.81-.19c-.27,0-.48.05-.63.16s-.27.29-.36.56ZM498.27,628.53c-.19.06-.5.14-.92.23-.42.09-.69.18-.82.26-.2.14-.3.32-.3.53s.08.39.24.55c.16.15.36.23.6.23.27,0,.53-.09.78-.27.18-.14.3-.3.36-.5.04-.13.06-.37.06-.74v-.3Z"/>
  <path id="Arial-BoldMT-6e5" data-name="Arial-BoldMT-6e" d="M506.43,631.27h-1.51v-2.91c0-.62-.03-1.01-.1-1.19s-.17-.32-.31-.42c-.15-.1-.32-.15-.52-.15-.26,0-.5.07-.7.21s-.35.33-.43.57c-.08.24-.12.67-.12,1.31v2.58h-1.51v-5.7h1.4v.84c.5-.65,1.12-.97,1.88-.97.33,0,.64.06.91.18.28.12.48.27.63.46.14.19.24.4.3.63.06.24.08.57.08,1.01v3.55Z"/>
  <path id="Arial-BoldMT-631" data-name="Arial-BoldMT-63" d="M512.93,627.25l-1.49.27c-.05-.3-.16-.52-.34-.67s-.41-.23-.69-.23c-.38,0-.68.13-.9.39-.22.26-.34.69-.34,1.3,0,.68.11,1.16.34,1.44.23.28.53.42.92.42.29,0,.52-.08.7-.24.18-.16.31-.44.39-.84l1.48.25c-.15.68-.45,1.19-.89,1.54-.44.35-1.02.52-1.76.52-.83,0-1.5-.26-2-.79-.49-.53-.74-1.26-.74-2.19s.25-1.68.75-2.2c.5-.52,1.17-.79,2.02-.79.69,0,1.25.15,1.66.45s.7.75.88,1.37Z"/>
  <path id="Arial-BoldMT-653" data-name="Arial-BoldMT-65" d="M517.38,629.45l1.5.25c-.19.55-.5.97-.92,1.26-.42.29-.94.43-1.56.43-.99,0-1.73-.32-2.2-.97-.38-.52-.56-1.17-.56-1.96,0-.95.25-1.69.74-2.22.49-.54,1.12-.8,1.88-.8.85,0,1.52.28,2.01.84s.72,1.42.7,2.58h-3.78c.01.45.13.8.37,1.04.23.25.52.37.87.37.24,0,.43-.06.59-.19.16-.13.28-.34.37-.62ZM517.46,627.92c-.01-.44-.12-.77-.34-1-.21-.23-.48-.34-.78-.34-.33,0-.6.12-.82.36-.21.24-.32.57-.32.98h2.25Z"/>
  <path id="Arial-BoldMT-4c" class="st25" d="M162.69,84.7v-9.94h2.02v8.25h5.03v1.69h-7.05Z"/>
  <path id="Arial-BoldMT-4d" class="st25" d="M171.16,84.7v-10.02h3.03l1.82,6.84,1.8-6.84h3.03v10.02h-1.88v-7.89l-1.99,7.89h-1.95l-1.98-7.89v7.89h-1.88Z"/>
  <path id="Arial-BoldMT-202" data-name="Arial-BoldMT-20" class="st25" d="M181.83,84.7"/>
  <path id="Arial-BoldMT-43" class="st25" d="M193.15,81.01l1.96.62c-.3,1.09-.8,1.91-1.5,2.44-.7.53-1.59.8-2.66.8-1.33,0-2.43-.45-3.28-1.36-.86-.91-1.28-2.15-1.28-3.73,0-1.67.43-2.96,1.29-3.89.86-.92,2-1.38,3.4-1.38,1.23,0,2.22.36,2.99,1.09.46.43.8,1.04,1.02,1.85l-2,.48c-.12-.52-.37-.93-.74-1.23-.37-.3-.83-.45-1.37-.45-.74,0-1.35.27-1.81.8-.46.53-.69,1.4-.69,2.59,0,1.27.23,2.17.68,2.71.46.54,1.05.81,1.78.81.54,0,1-.17,1.39-.51.39-.34.67-.88.84-1.61Z"/>
  <path id="Arial-BoldMT-616" data-name="Arial-BoldMT-61" class="st25" d="M198.27,79.65l-1.74-.32c.2-.7.53-1.22,1.01-1.56.48-.34,1.19-.51,2.13-.51.86,0,1.5.1,1.91.3.42.2.72.46.89.77s.26.89.26,1.72l-.02,2.24c0,.64.03,1.11.09,1.41.06.3.18.63.35.97h-1.9c-.05-.13-.11-.32-.18-.57-.03-.12-.06-.19-.07-.23-.33.32-.68.56-1.05.72-.37.16-.77.24-1.2.24-.75,0-1.34-.2-1.77-.61-.43-.41-.65-.92-.65-1.54,0-.41.1-.78.29-1.1.2-.32.47-.57.82-.74.35-.17.86-.32,1.53-.45.9-.17,1.52-.33,1.87-.47v-.19c0-.37-.09-.63-.27-.79s-.53-.24-1.03-.24c-.34,0-.61.07-.8.2s-.35.37-.46.71ZM200.84,81.21c-.25.08-.64.18-1.17.3-.53.11-.88.23-1.05.33-.25.18-.38.4-.38.68s.1.5.3.7c.2.2.46.29.77.29.35,0,.68-.11.99-.34.23-.17.38-.39.46-.64.05-.16.08-.48.08-.94v-.38Z"/>
  <path id="Arial-BoldMT-70" class="st25" d="M204.56,77.44h1.79v1.07c.23-.36.55-.66.94-.89.4-.23.84-.34,1.32-.34.84,0,1.56.33,2.15.99s.88,1.58.88,2.76-.3,2.15-.89,2.83c-.59.67-1.31,1.01-2.15,1.01-.4,0-.76-.08-1.09-.24-.33-.16-.67-.43-1.03-.82v3.66h-1.92v-10.02ZM206.47,80.94c0,.82.16,1.42.49,1.81s.72.58,1.18.58.82-.18,1.11-.54c.3-.36.44-.95.44-1.76,0-.76-.15-1.33-.46-1.7-.3-.37-.68-.55-1.13-.55s-.86.18-1.17.54c-.31.36-.46.9-.46,1.61Z"/>
  <path id="Arial-BoldMT-617" data-name="Arial-BoldMT-61" class="st25" d="M214.61,79.65l-1.74-.32c.2-.7.53-1.22,1.01-1.56.48-.34,1.19-.51,2.13-.51.86,0,1.5.1,1.91.3.42.2.72.46.89.77s.26.89.26,1.72l-.02,2.24c0,.64.03,1.11.09,1.41.06.3.18.63.35.97h-1.9c-.05-.13-.11-.32-.18-.57-.03-.12-.06-.19-.07-.23-.33.32-.68.56-1.05.72-.37.16-.77.24-1.2.24-.75,0-1.34-.2-1.77-.61-.43-.41-.65-.92-.65-1.54,0-.41.1-.78.29-1.1.2-.32.47-.57.82-.74.35-.17.86-.32,1.53-.45.9-.17,1.52-.33,1.87-.47v-.19c0-.37-.09-.63-.27-.79s-.53-.24-1.03-.24c-.34,0-.61.07-.8.2s-.35.37-.46.71ZM217.18,81.21c-.25.08-.64.18-1.17.3-.53.11-.88.23-1.05.33-.25.18-.38.4-.38.68s.1.5.3.7c.2.2.46.29.77.29.35,0,.68-.11.99-.34.23-.17.38-.39.46-.64.05-.16.08-.48.08-.94v-.38Z"/>
  <path id="Arial-BoldMT-62" class="st25" d="M220.88,84.7v-10.02h1.92v3.61c.59-.68,1.29-1.01,2.11-1.01.88,0,1.62.32,2.19.96s.87,1.56.87,2.76-.3,2.19-.89,2.87c-.59.67-1.31,1-2.15,1-.41,0-.82-.1-1.23-.31-.4-.21-.75-.51-1.04-.92v1.07h-1.79ZM222.78,80.91c0,.75.12,1.31.35,1.67.33.51.78.77,1.33.77.42,0,.78-.18,1.08-.54.3-.36.45-.93.45-1.71,0-.83-.15-1.43-.45-1.79-.3-.37-.69-.55-1.16-.55s-.84.18-1.15.54c-.3.36-.46.9-.46,1.63Z"/>
  <path id="Arial-BoldMT-692" data-name="Arial-BoldMT-69" class="st25" d="M229.51,76.45v-1.78h1.92v1.78h-1.92ZM229.51,84.7v-7.26h1.92v7.26h-1.92Z"/>
  <path id="Arial-BoldMT-6c1" data-name="Arial-BoldMT-6c" class="st25" d="M233.4,84.7v-10.02h1.92v10.02h-1.92Z"/>
  <path id="Arial-BoldMT-693" data-name="Arial-BoldMT-69" class="st25" d="M237.29,76.45v-1.78h1.92v1.78h-1.92ZM237.29,84.7v-7.26h1.92v7.26h-1.92Z"/>
  <path id="Arial-BoldMT-742" data-name="Arial-BoldMT-74" class="st25" d="M244.51,77.44v1.53h-1.31v2.93c0,.59.01.94.04,1.03.03.1.08.18.17.24s.2.1.32.1c.18,0,.44-.06.77-.19l.16,1.49c-.45.19-.95.29-1.52.29-.35,0-.66-.06-.94-.17-.28-.12-.48-.27-.61-.45-.13-.19-.22-.43-.27-.75-.04-.22-.06-.67-.06-1.35v-3.17h-.88v-1.53h.88v-1.44l1.93-1.12v2.56h1.31Z"/>
  <path id="Arial-BoldMT-792" data-name="Arial-BoldMT-79" class="st25" d="M244.93,77.44h2.04l1.74,5.15,1.7-5.15h1.99l-2.56,6.99-.46,1.26c-.17.42-.33.75-.48.97-.15.22-.33.4-.53.54-.2.14-.44.25-.73.33-.29.08-.62.12-.98.12s-.73-.04-1.09-.12l-.17-1.51c.3.06.57.09.81.09.45,0,.78-.13.99-.39.21-.26.38-.6.49-1l-2.76-7.28Z"/>
  <path id="Arial-BoldMT-203" data-name="Arial-BoldMT-20" class="st25" d="M252.62,84.7"/>
  <path id="Arial-BoldMT-431" data-name="Arial-BoldMT-43" class="st25" d="M263.94,81.01l1.96.62c-.3,1.09-.8,1.91-1.5,2.44-.7.53-1.59.8-2.66.8-1.33,0-2.43-.45-3.28-1.36-.86-.91-1.28-2.15-1.28-3.73,0-1.67.43-2.96,1.29-3.89.86-.92,2-1.38,3.4-1.38,1.23,0,2.22.36,2.99,1.09.46.43.8,1.04,1.02,1.85l-2,.48c-.12-.52-.37-.93-.74-1.23-.37-.3-.83-.45-1.37-.45-.74,0-1.35.27-1.81.8-.46.53-.69,1.4-.69,2.59,0,1.27.23,2.17.68,2.71.46.54,1.05.81,1.78.81.54,0,1-.17,1.39-.51.39-.34.67-.88.84-1.61Z"/>
  <path id="Arial-BoldMT-6f3" data-name="Arial-BoldMT-6f" class="st25" d="M267.18,80.96c0-.64.16-1.26.47-1.85.32-.6.76-1.05,1.34-1.37.58-.32,1.22-.47,1.93-.47,1.1,0,2,.36,2.7,1.07s1.05,1.61,1.05,2.7-.35,2.01-1.06,2.73c-.71.72-1.6,1.08-2.68,1.08-.67,0-1.3-.15-1.9-.45-.6-.3-1.06-.74-1.38-1.32-.32-.58-.47-1.29-.47-2.12ZM269.15,81.07c0,.72.17,1.27.51,1.65.34.38.76.57,1.27.57s.92-.19,1.26-.57c.34-.38.51-.94.51-1.67s-.17-1.26-.51-1.64c-.34-.38-.76-.58-1.26-.58s-.92.19-1.27.58c-.34.38-.51.93-.51,1.65Z"/>
  <path id="Arial-BoldMT-6d2" data-name="Arial-BoldMT-6d" class="st25" d="M276.04,77.44h1.77v.99c.63-.77,1.39-1.16,2.26-1.16.46,0,.87.1,1.21.29.34.19.62.48.84.87.32-.39.66-.68,1.03-.87.37-.19.76-.29,1.18-.29.53,0,.98.11,1.35.33.37.22.64.53.83.95.13.31.2.81.2,1.5v4.64h-1.92v-4.15c0-.72-.07-1.18-.2-1.39-.18-.27-.45-.41-.82-.41-.27,0-.52.08-.76.25-.24.16-.41.4-.51.72s-.16.82-.16,1.5v3.49h-1.92v-3.98c0-.71-.03-1.16-.1-1.37-.07-.21-.18-.36-.32-.46-.14-.1-.34-.15-.58-.15-.3,0-.56.08-.8.24-.24.16-.41.39-.51.69-.1.3-.15.8-.15,1.5v3.53h-1.92v-7.26Z"/>
  <path id="Arial-BoldMT-701" data-name="Arial-BoldMT-70" class="st25" d="M288.57,77.44h1.79v1.07c.23-.36.55-.66.94-.89.4-.23.84-.34,1.32-.34.84,0,1.56.33,2.15.99s.88,1.58.88,2.76-.3,2.15-.89,2.83c-.59.67-1.31,1.01-2.15,1.01-.4,0-.76-.08-1.09-.24-.33-.16-.67-.43-1.03-.82v3.66h-1.92v-10.02ZM290.47,80.94c0,.82.16,1.42.49,1.81s.72.58,1.18.58.82-.18,1.11-.54c.3-.36.44-.95.44-1.76,0-.76-.15-1.33-.46-1.7-.3-.37-.68-.55-1.13-.55s-.86.18-1.17.54c-.31.36-.46.9-.46,1.61Z"/>
  <path id="Arial-BoldMT-618" data-name="Arial-BoldMT-61" class="st25" d="M298.61,79.65l-1.74-.32c.2-.7.53-1.22,1.01-1.56.48-.34,1.19-.51,2.13-.51.86,0,1.5.1,1.91.3.42.2.72.46.89.77s.26.89.26,1.72l-.02,2.24c0,.64.03,1.11.09,1.41.06.3.18.63.35.97h-1.9c-.05-.13-.11-.32-.18-.57-.03-.12-.06-.19-.07-.23-.33.32-.68.56-1.05.72-.37.16-.77.24-1.2.24-.75,0-1.34-.2-1.77-.61-.43-.41-.65-.92-.65-1.54,0-.41.1-.78.29-1.1.2-.32.47-.57.82-.74.35-.17.86-.32,1.53-.45.9-.17,1.52-.33,1.87-.47v-.19c0-.37-.09-.63-.27-.79s-.53-.24-1.03-.24c-.34,0-.61.07-.8.2s-.35.37-.46.71ZM301.19,81.21c-.25.08-.64.18-1.17.3-.53.11-.88.23-1.05.33-.25.18-.38.4-.38.68s.1.5.3.7c.2.2.46.29.77.29.35,0,.68-.11.99-.34.23-.17.38-.39.46-.64.05-.16.08-.48.08-.94v-.38Z"/>
  <path id="Arial-BoldMT-722" data-name="Arial-BoldMT-72" class="st25" d="M306.8,84.7h-1.92v-7.26h1.79v1.03c.3-.49.58-.81.82-.96.24-.16.52-.23.83-.23.44,0,.86.12,1.26.36l-.6,1.67c-.32-.21-.62-.31-.9-.31s-.5.07-.68.22c-.19.15-.33.41-.44.8-.11.39-.16,1.2-.16,2.43v2.24Z"/>
  <path id="Arial-BoldMT-694" data-name="Arial-BoldMT-69" class="st25" d="M310.41,76.45v-1.78h1.92v1.78h-1.92ZM310.41,84.7v-7.26h1.92v7.26h-1.92Z"/>
  <path id="Arial-BoldMT-732" data-name="Arial-BoldMT-73" class="st25" d="M313.63,82.62l1.93-.29c.08.37.25.66.5.85.25.19.6.29,1.05.29.5,0,.87-.09,1.12-.27.17-.13.25-.3.25-.51,0-.15-.05-.27-.14-.36-.09-.09-.31-.18-.64-.25-1.55-.34-2.53-.65-2.95-.94-.57-.39-.86-.94-.86-1.63,0-.63.25-1.16.74-1.59.5-.43,1.27-.64,2.31-.64s1.73.16,2.21.49c.48.32.82.8,1,1.44l-1.81.33c-.08-.28-.22-.5-.44-.65-.22-.15-.52-.23-.93-.23-.5,0-.87.07-1.09.21-.15.1-.22.23-.22.39,0,.14.06.25.19.35.17.13.77.31,1.79.54,1.02.23,1.74.52,2.14.85.4.34.6.82.6,1.43,0,.67-.28,1.24-.83,1.72-.56.48-1.38.72-2.47.72-.99,0-1.77-.2-2.35-.6-.58-.4-.95-.95-1.13-1.63Z"/>
  <path id="Arial-BoldMT-6f4" data-name="Arial-BoldMT-6f" class="st25" d="M321.64,80.96c0-.64.16-1.26.47-1.85.32-.6.76-1.05,1.34-1.37.58-.32,1.22-.47,1.93-.47,1.1,0,2,.36,2.7,1.07s1.05,1.61,1.05,2.7-.35,2.01-1.06,2.73c-.71.72-1.6,1.08-2.68,1.08-.67,0-1.3-.15-1.9-.45-.6-.3-1.06-.74-1.38-1.32-.32-.58-.47-1.29-.47-2.12ZM323.61,81.07c0,.72.17,1.27.51,1.65.34.38.76.57,1.27.57s.92-.19,1.26-.57c.34-.38.51-.94.51-1.67s-.17-1.26-.51-1.64c-.34-.38-.76-.58-1.26-.58s-.92.19-1.27.58c-.34.38-.51.93-.51,1.65Z"/>
  <path id="Arial-BoldMT-6e6" data-name="Arial-BoldMT-6e" class="st25" d="M337.24,84.7h-1.92v-3.71c0-.78-.04-1.29-.12-1.52s-.22-.41-.4-.54c-.19-.13-.41-.19-.67-.19-.33,0-.63.09-.89.27s-.45.42-.54.73c-.1.3-.15.86-.15,1.67v3.29h-1.92v-7.26h1.79v1.07c.63-.82,1.43-1.23,2.39-1.23.42,0,.81.08,1.16.23.35.15.62.35.8.59.18.24.31.5.38.81.07.3.11.73.11,1.29v4.51Z"/>
  <path id="Arial-BoldMT-204" data-name="Arial-BoldMT-20" class="st25" d="M338.19,84.7"/>
  <path id="Arial-BoldMT-2d" class="st25" d="M342.86,82.02v-1.92h3.77v1.92h-3.77Z"/>
  <path id="Arial-BoldMT-205" data-name="Arial-BoldMT-20" class="st25" d="M346.74,84.7"/>
  <path id="Arial-BoldMT-522" data-name="Arial-BoldMT-52" class="st25" d="M351.65,84.7v-10.02h4.26c1.07,0,1.85.09,2.33.27.49.18.87.5,1.17.96.29.46.44.99.44,1.58,0,.75-.22,1.37-.67,1.86-.44.49-1.1.8-1.98.93.44.26.8.54,1.08.84.29.3.67.85,1.15,1.63l1.23,1.96h-2.42l-1.46-2.18c-.52-.78-.88-1.27-1.07-1.47s-.39-.34-.61-.42-.55-.11-1.02-.11h-.41v4.18h-2.02ZM353.68,78.91h1.5c.97,0,1.58-.04,1.82-.12.24-.08.43-.22.57-.42.14-.2.21-.45.21-.75,0-.34-.09-.61-.27-.82-.18-.21-.43-.34-.76-.39-.16-.02-.66-.03-1.48-.03h-1.58v2.54Z"/>
  <path id="Arial-BoldMT-654" data-name="Arial-BoldMT-65" class="st25" d="M365.95,82.39l1.91.32c-.25.7-.63,1.24-1.17,1.6-.53.37-1.19.55-1.99.55-1.26,0-2.2-.41-2.8-1.24-.48-.66-.72-1.49-.72-2.5,0-1.2.31-2.15.94-2.83.63-.68,1.43-1.02,2.39-1.02,1.08,0,1.93.36,2.56,1.07s.92,1.81.89,3.28h-4.81c.01.57.17,1.01.47,1.33.3.32.67.47,1.11.47.3,0,.55-.08.76-.25.21-.16.36-.43.47-.79ZM366.06,80.44c-.01-.56-.16-.98-.43-1.27-.27-.29-.61-.44-1-.44-.42,0-.76.15-1.04.46-.27.31-.41.72-.4,1.24h2.87Z"/>
  <path id="Arial-BoldMT-672" data-name="Arial-BoldMT-67" class="st25" d="M369.35,85.17l2.19.27c.04.26.12.43.25.53.18.14.47.21.86.21.5,0,.88-.08,1.13-.23.17-.1.3-.26.38-.49.06-.16.09-.45.09-.88v-1.06c-.57.78-1.3,1.18-2.17,1.18-.98,0-1.75-.41-2.32-1.24-.45-.65-.67-1.46-.67-2.43,0-1.22.29-2.15.88-2.79.59-.64,1.31-.96,2.19-.96s1.64.39,2.22,1.18v-1.02h1.8v6.51c0,.86-.07,1.5-.21,1.92-.14.42-.34.76-.6,1-.26.24-.6.43-1.02.57s-.96.21-1.62.21c-1.23,0-2.1-.21-2.62-.63-.51-.42-.77-.96-.77-1.6,0-.06,0-.14,0-.23ZM371.07,80.92c0,.77.15,1.33.45,1.69.3.36.67.54,1.1.54.47,0,.87-.18,1.19-.55s.49-.91.49-1.63-.16-1.31-.47-1.68c-.31-.36-.7-.55-1.17-.55s-.84.18-1.14.54c-.3.36-.45.9-.45,1.64Z"/>
  <path id="Arial-BoldMT-695" data-name="Arial-BoldMT-69" class="st25" d="M378.08,76.45v-1.78h1.92v1.78h-1.92ZM378.08,84.7v-7.26h1.92v7.26h-1.92Z"/>
  <path id="Arial-BoldMT-6f5" data-name="Arial-BoldMT-6f" class="st25" d="M381.53,80.96c0-.64.16-1.26.47-1.85.32-.6.76-1.05,1.34-1.37.58-.32,1.22-.47,1.93-.47,1.1,0,2,.36,2.7,1.07s1.05,1.61,1.05,2.7-.35,2.01-1.06,2.73c-.71.72-1.6,1.08-2.68,1.08-.67,0-1.3-.15-1.9-.45-.6-.3-1.06-.74-1.38-1.32-.32-.58-.47-1.29-.47-2.12ZM383.5,81.07c0,.72.17,1.27.51,1.65.34.38.76.57,1.27.57s.92-.19,1.26-.57c.34-.38.51-.94.51-1.67s-.17-1.26-.51-1.64c-.34-.38-.76-.58-1.26-.58s-.92.19-1.27.58c-.34.38-.51.93-.51,1.65Z"/>
  <path id="Arial-BoldMT-6e7" data-name="Arial-BoldMT-6e" class="st25" d="M397.13,84.7h-1.92v-3.71c0-.78-.04-1.29-.12-1.52s-.22-.41-.4-.54c-.19-.13-.41-.19-.67-.19-.33,0-.63.09-.89.27s-.45.42-.54.73c-.1.3-.15.86-.15,1.67v3.29h-1.92v-7.26h1.79v1.07c.63-.82,1.43-1.23,2.39-1.23.42,0,.81.08,1.16.23.35.15.62.35.8.59.18.24.31.5.38.81.07.3.11.73.11,1.29v4.51Z"/>
  <path id="Arial-BoldMT-619" data-name="Arial-BoldMT-61" class="st25" d="M400.51,79.65l-1.74-.32c.2-.7.53-1.22,1.01-1.56.48-.34,1.19-.51,2.13-.51.86,0,1.5.1,1.91.3.42.2.72.46.89.77s.26.89.26,1.72l-.02,2.24c0,.64.03,1.11.09,1.41.06.3.18.63.35.97h-1.9c-.05-.13-.11-.32-.18-.57-.03-.12-.06-.19-.07-.23-.33.32-.68.56-1.05.72-.37.16-.77.24-1.2.24-.75,0-1.34-.2-1.77-.61-.43-.41-.65-.92-.65-1.54,0-.41.1-.78.29-1.1.2-.32.47-.57.82-.74.35-.17.86-.32,1.53-.45.9-.17,1.52-.33,1.87-.47v-.19c0-.37-.09-.63-.27-.79s-.53-.24-1.03-.24c-.34,0-.61.07-.8.2s-.35.37-.46.71ZM403.08,81.21c-.25.08-.64.18-1.17.3-.53.11-.88.23-1.05.33-.25.18-.38.4-.38.68s.1.5.3.7c.2.2.46.29.77.29.35,0,.68-.11.99-.34.23-.17.38-.39.46-.64.05-.16.08-.48.08-.94v-.38Z"/>
  <path id="Arial-BoldMT-6c2" data-name="Arial-BoldMT-6c" class="st25" d="M406.86,84.7v-10.02h1.92v10.02h-1.92Z"/>
  <path id="Arial-BoldMT-206" data-name="Arial-BoldMT-20" class="st25" d="M409.75,84.7"/>
  <path id="Arial-BoldMT-412" data-name="Arial-BoldMT-41" class="st25" d="M423.17,84.7h-2.2l-.88-2.28h-4.01l-.83,2.28h-2.15l3.9-10.02h2.14l4.01,10.02ZM419.44,80.73l-1.38-3.72-1.35,3.72h2.73Z"/>
  <path id="Arial-BoldMT-642" data-name="Arial-BoldMT-64" class="st25" d="M430.88,84.7h-1.78v-1.07c-.3.42-.65.72-1.05.93-.4.2-.81.3-1.22.3-.83,0-1.55-.34-2.14-1.01-.59-.67-.89-1.61-.89-2.81s.29-2.17.87-2.81c.58-.64,1.31-.96,2.2-.96.81,0,1.51.34,2.1,1.01v-3.61h1.92v10.02ZM425.76,80.91c0,.77.11,1.33.32,1.68.31.5.74.75,1.3.75.44,0,.82-.19,1.13-.56.31-.38.47-.94.47-1.69,0-.83-.15-1.43-.45-1.8-.3-.37-.69-.55-1.16-.55s-.84.18-1.15.54c-.31.36-.46.9-.46,1.62Z"/>
  <path id="Arial-BoldMT-76" class="st25" d="M434.77,84.7l-2.93-7.26h2.02l1.37,3.71.4,1.24c.1-.32.17-.52.2-.62.06-.2.13-.41.21-.61l1.38-3.71h1.98l-2.88,7.26h-1.73Z"/>
  <path id="Arial-BoldMT-655" data-name="Arial-BoldMT-65" class="st25" d="M444.77,82.39l1.91.32c-.25.7-.63,1.24-1.17,1.6-.53.37-1.19.55-1.99.55-1.26,0-2.2-.41-2.8-1.24-.48-.66-.72-1.49-.72-2.5,0-1.2.31-2.15.94-2.83.63-.68,1.43-1.02,2.39-1.02,1.08,0,1.93.36,2.56,1.07s.92,1.81.89,3.28h-4.81c.01.57.17,1.01.47,1.33.3.32.67.47,1.11.47.3,0,.55-.08.76-.25.21-.16.36-.43.47-.79ZM444.88,80.44c-.01-.56-.16-.98-.43-1.27-.27-.29-.61-.44-1-.44-.42,0-.76.15-1.04.46-.27.31-.41.72-.4,1.24h2.87Z"/>
  <path id="Arial-BoldMT-723" data-name="Arial-BoldMT-72" class="st25" d="M450.19,84.7h-1.92v-7.26h1.79v1.03c.3-.49.58-.81.82-.96.24-.16.52-.23.83-.23.44,0,.86.12,1.26.36l-.6,1.67c-.32-.21-.62-.31-.9-.31s-.5.07-.68.22c-.19.15-.33.41-.44.8-.11.39-.16,1.2-.16,2.43v2.24Z"/>
  <path id="Arial-BoldMT-733" data-name="Arial-BoldMT-73" class="st25" d="M453.12,82.62l1.93-.29c.08.37.25.66.5.85.25.19.6.29,1.05.29.5,0,.87-.09,1.12-.27.17-.13.25-.3.25-.51,0-.15-.05-.27-.14-.36-.09-.09-.31-.18-.64-.25-1.55-.34-2.53-.65-2.95-.94-.57-.39-.86-.94-.86-1.63,0-.63.25-1.16.74-1.59.5-.43,1.27-.64,2.31-.64s1.73.16,2.21.49c.48.32.82.8,1,1.44l-1.81.33c-.08-.28-.22-.5-.44-.65-.22-.15-.52-.23-.93-.23-.5,0-.87.07-1.09.21-.15.1-.22.23-.22.39,0,.14.06.25.19.35.17.13.77.31,1.79.54,1.02.23,1.74.52,2.14.85.4.34.6.82.6,1.43,0,.67-.28,1.24-.83,1.72-.56.48-1.38.72-2.47.72-.99,0-1.77-.2-2.35-.6-.58-.4-.95-.95-1.13-1.63Z"/>
  <path id="Arial-BoldMT-6110" data-name="Arial-BoldMT-61" class="st25" d="M463.02,79.65l-1.74-.32c.2-.7.53-1.22,1.01-1.56.48-.34,1.19-.51,2.13-.51.86,0,1.5.1,1.91.3.42.2.72.46.89.77s.26.89.26,1.72l-.02,2.24c0,.64.03,1.11.09,1.41.06.3.18.63.35.97h-1.9c-.05-.13-.11-.32-.18-.57-.03-.12-.06-.19-.07-.23-.33.32-.68.56-1.05.72-.37.16-.77.24-1.2.24-.75,0-1.34-.2-1.77-.61-.43-.41-.65-.92-.65-1.54,0-.41.1-.78.29-1.1.2-.32.47-.57.82-.74.35-.17.86-.32,1.53-.45.9-.17,1.52-.33,1.87-.47v-.19c0-.37-.09-.63-.27-.79s-.53-.24-1.03-.24c-.34,0-.61.07-.8.2s-.35.37-.46.71ZM465.59,81.21c-.25.08-.64.18-1.17.3-.53.11-.88.23-1.05.33-.25.18-.38.4-.38.68s.1.5.3.7c.2.2.46.29.77.29.35,0,.68-.11.99-.34.23-.17.38-.39.46-.64.05-.16.08-.48.08-.94v-.38Z"/>
  <path id="Arial-BoldMT-724" data-name="Arial-BoldMT-72" class="st25" d="M471.21,84.7h-1.92v-7.26h1.79v1.03c.3-.49.58-.81.82-.96.24-.16.52-.23.83-.23.44,0,.86.12,1.26.36l-.6,1.67c-.32-.21-.62-.31-.9-.31s-.5.07-.68.22c-.19.15-.33.41-.44.8-.11.39-.16,1.2-.16,2.43v2.24Z"/>
  <path id="Arial-BoldMT-696" data-name="Arial-BoldMT-69" class="st25" d="M474.82,76.45v-1.78h1.92v1.78h-1.92ZM474.82,84.7v-7.26h1.92v7.26h-1.92Z"/>
  <path id="Arial-BoldMT-656" data-name="Arial-BoldMT-65" class="st25" d="M482.91,82.39l1.91.32c-.25.7-.63,1.24-1.17,1.6-.53.37-1.19.55-1.99.55-1.26,0-2.2-.41-2.8-1.24-.48-.66-.72-1.49-.72-2.5,0-1.2.31-2.15.94-2.83.63-.68,1.43-1.02,2.39-1.02,1.08,0,1.93.36,2.56,1.07s.92,1.81.89,3.28h-4.81c.01.57.17,1.01.47,1.33.3.32.67.47,1.11.47.3,0,.55-.08.76-.25.21-.16.36-.43.47-.79ZM483.02,80.44c-.01-.56-.16-.98-.43-1.27-.27-.29-.61-.44-1-.44-.42,0-.76.15-1.04.46-.27.31-.41.72-.4,1.24h2.87Z"/>
  <path id="Arial-BoldMT-734" data-name="Arial-BoldMT-73" class="st25" d="M485.82,82.62l1.93-.29c.08.37.25.66.5.85.25.19.6.29,1.05.29.5,0,.87-.09,1.12-.27.17-.13.25-.3.25-.51,0-.15-.05-.27-.14-.36-.09-.09-.31-.18-.64-.25-1.55-.34-2.53-.65-2.95-.94-.57-.39-.86-.94-.86-1.63,0-.63.25-1.16.74-1.59.5-.43,1.27-.64,2.31-.64s1.73.16,2.21.49c.48.32.82.8,1,1.44l-1.81.33c-.08-.28-.22-.5-.44-.65-.22-.15-.52-.23-.93-.23-.5,0-.87.07-1.09.21-.15.1-.22.23-.22.39,0,.14.06.25.19.35.17.13.77.31,1.79.54,1.02.23,1.74.52,2.14.85.4.34.6.82.6,1.43,0,.67-.28,1.24-.83,1.72-.56.48-1.38.72-2.47.72-.99,0-1.77-.2-2.35-.6-.58-.4-.95-.95-1.13-1.63Z"/>
  <path class="st14" d="M567.62,115.81h115.75c1.33,0,2-.67,2-2v-42.15c0-1.33-.67-2-2-2h-115.75c-1.33,0-2,.67-2,2v42.15c0,1.33.67,2,2,2Z"/>
  <path class="st0" d="M569.62,77.44h20"/>
  <path id="m306c4ca4797" data-name="m306c4ca479" class="st6" d="M579.62,80.44c.8,0,1.56-.32,2.12-.88.56-.56.88-1.33.88-2.12s-.32-1.56-.88-2.12c-.56-.56-1.33-.88-2.12-.88s-1.56.32-2.12.88c-.56.56-.88,1.33-.88,2.12s.32,1.56.88,2.12c.56.56,1.33.88,2.12.88Z"/>
  <path id="ArialMT-43" d="M603.5,78.43l.95.24c-.2.78-.56,1.37-1.07,1.78-.52.41-1.15.61-1.89.61s-1.4-.16-1.88-.47c-.48-.31-.85-.77-1.1-1.37-.25-.6-.38-1.24-.38-1.92,0-.75.14-1.4.43-1.95.29-.56.69-.98,1.22-1.26.53-.29,1.1-.43,1.74-.43.72,0,1.32.18,1.81.55.49.36.83.88,1.02,1.54l-.93.22c-.17-.52-.41-.9-.72-1.14-.32-.24-.71-.36-1.19-.36-.55,0-1.01.13-1.38.4-.37.26-.63.62-.78,1.06-.15.44-.22.9-.22,1.37,0,.61.09,1.14.27,1.59.18.45.45.79.83,1.02.38.22.78.34,1.22.34.53,0,.98-.15,1.35-.46.37-.31.62-.76.75-1.36Z"/>
  <path id="ArialMT-68" d="M605.5,80.94v-7.16h.88v2.57c.41-.48.93-.71,1.55-.71.38,0,.72.08,1,.23.28.15.49.36.61.63s.18.65.18,1.16v3.29h-.88v-3.29c0-.44-.1-.76-.29-.96s-.46-.3-.81-.3c-.26,0-.51.07-.74.2-.23.13-.39.32-.49.55-.1.23-.15.55-.15.96v2.84h-.88Z"/>
  <path id="ArialMT-69" d="M611.07,74.79v-1.01h.88v1.01h-.88ZM611.07,80.94v-5.19h.88v5.19h-.88Z"/>
  <path id="ArialMT-6e" d="M613.29,80.94v-5.19h.79v.74c.38-.57.93-.85,1.65-.85.31,0,.6.06.86.17s.46.26.59.44.22.4.27.65c.03.16.05.45.05.85v3.19h-.88v-3.15c0-.36-.03-.63-.1-.8-.07-.18-.19-.32-.36-.42-.17-.11-.38-.16-.61-.16-.38,0-.7.12-.97.36s-.41.69-.41,1.35v2.83h-.88Z"/>
  <path id="ArialMT-61" d="M622.23,80.3c-.33.28-.64.47-.94.59-.3.11-.62.17-.97.17-.57,0-1.01-.14-1.31-.42s-.46-.63-.46-1.07c0-.25.06-.49.17-.7.12-.21.27-.38.45-.51s.4-.22.63-.29c.17-.05.43-.09.78-.13.71-.08,1.23-.18,1.57-.3,0-.12,0-.2,0-.23,0-.36-.08-.61-.25-.76-.22-.2-.56-.3-1-.3-.41,0-.72.07-.92.22s-.34.4-.44.77l-.86-.12c.08-.37.21-.66.39-.89.18-.23.44-.4.78-.52.34-.12.73-.18,1.18-.18s.8.05,1.08.16c.28.1.48.24.61.39.13.16.22.36.27.6.03.15.04.42.04.81v1.17c0,.82.02,1.33.06,1.55.04.22.11.42.22.62h-.92c-.09-.18-.15-.4-.18-.64ZM622.16,78.34c-.32.13-.8.24-1.44.33-.36.05-.62.11-.77.18-.15.06-.26.16-.35.28-.08.13-.12.26-.12.42,0,.23.09.43.27.59.18.16.44.23.78.23s.64-.07.9-.22c.26-.15.46-.35.58-.61.09-.2.14-.49.14-.88v-.32Z"/>
  <path id="ArialMT-20" d="M623.75,80.94"/>
  <path id="ArialMT-28" d="M628.87,83.04c-.49-.61-.9-1.33-1.23-2.15-.33-.82-.5-1.67-.5-2.55,0-.78.13-1.52.38-2.23.29-.82.75-1.64,1.36-2.46h.63c-.39.68-.65,1.16-.78,1.45-.2.45-.36.92-.47,1.41-.14.61-.21,1.22-.21,1.84,0,1.57.49,3.13,1.46,4.69h-.63Z"/>
  <path id="ArialMT-431" data-name="ArialMT-43" d="M635.74,78.43l.95.24c-.2.78-.56,1.37-1.07,1.78-.52.41-1.15.61-1.89.61s-1.4-.16-1.88-.47c-.48-.31-.85-.77-1.1-1.37-.25-.6-.38-1.24-.38-1.92,0-.75.14-1.4.43-1.95.29-.56.69-.98,1.22-1.26.53-.29,1.1-.43,1.74-.43.72,0,1.32.18,1.81.55.49.36.83.88,1.02,1.54l-.93.22c-.17-.52-.41-.9-.72-1.14-.32-.24-.71-.36-1.19-.36-.55,0-1.01.13-1.38.4-.37.26-.63.62-.78,1.06-.15.44-.22.9-.22,1.37,0,.61.09,1.14.27,1.59.18.45.45.79.83,1.02.38.22.78.34,1.22.34.53,0,.98-.15,1.35-.46.37-.31.62-.76.75-1.36Z"/>
  <path id="ArialMT-75" d="M641.14,80.94v-.76c-.4.59-.95.88-1.65.88-.31,0-.59-.06-.86-.18-.26-.12-.46-.27-.59-.44-.13-.18-.22-.4-.27-.65-.04-.17-.05-.45-.05-.82v-3.21h.88v2.88c0,.46.02.77.05.93.06.23.17.41.35.54.18.13.4.2.66.2s.51-.07.74-.2c.23-.14.39-.32.49-.55.1-.23.15-.57.15-1.01v-2.78h.88v5.19h-.79Z"/>
  <path id="ArialMT-72" d="M643.29,80.94v-5.19h.79v.79c.2-.37.39-.61.56-.73.17-.12.36-.18.56-.18.3,0,.6.09.9.28l-.3.82c-.21-.13-.43-.19-.64-.19-.19,0-.37.06-.52.17s-.26.28-.33.48c-.1.31-.15.65-.15,1.03v2.72h-.88Z"/>
  <path id="ArialMT-721" data-name="ArialMT-72" d="M646.62,80.94v-5.19h.79v.79c.2-.37.39-.61.56-.73.17-.12.36-.18.56-.18.3,0,.6.09.9.28l-.3.82c-.21-.13-.43-.19-.64-.19-.19,0-.37.06-.52.17s-.26.28-.33.48c-.1.31-.15.65-.15,1.03v2.72h-.88Z"/>
  <path id="ArialMT-65" d="M653.51,79.27l.91.11c-.14.53-.41.94-.8,1.24-.39.29-.88.44-1.48.44-.76,0-1.36-.23-1.8-.7-.44-.47-.67-1.12-.67-1.97s.22-1.55.67-2.03c.45-.48,1.03-.72,1.75-.72s1.26.24,1.7.71.66,1.14.66,1.99c0,.05,0,.13,0,.23h-3.87c.03.57.19,1.01.48,1.31.29.3.65.45,1.08.45.32,0,.6-.08.83-.25.23-.17.41-.44.54-.81ZM650.63,77.85h2.9c-.04-.44-.15-.76-.33-.98-.28-.34-.64-.51-1.09-.51-.4,0-.74.13-1.02.4s-.43.63-.46,1.08Z"/>
  <path id="ArialMT-6e1" data-name="ArialMT-6e" d="M655.52,80.94v-5.19h.79v.74c.38-.57.93-.85,1.65-.85.31,0,.6.06.86.17s.46.26.59.44.22.4.27.65c.03.16.05.45.05.85v3.19h-.88v-3.15c0-.36-.03-.63-.1-.8-.07-.18-.19-.32-.36-.42-.17-.11-.38-.16-.61-.16-.38,0-.7.12-.97.36s-.41.69-.41,1.35v2.83h-.88Z"/>
  <path id="ArialMT-74" d="M663,80.15l.13.78c-.25.05-.47.08-.66.08-.32,0-.57-.05-.74-.15-.18-.1-.3-.23-.37-.4-.07-.16-.11-.51-.11-1.04v-2.98h-.64v-.68h.64v-1.28l.87-.53v1.81h.88v.68h-.88v3.03c0,.25.02.41.05.48.03.07.08.13.15.17.07.04.17.06.3.06.1,0,.23-.01.39-.03Z"/>
  <path id="ArialMT-29" d="M664.44,83.04h-.63c.97-1.56,1.46-3.13,1.46-4.69,0-.61-.07-1.22-.21-1.82-.11-.49-.27-.96-.46-1.41-.13-.29-.39-.78-.79-1.46h.63c.61.82,1.06,1.64,1.36,2.46.25.71.38,1.45.38,2.23,0,.88-.17,1.73-.51,2.55-.34.82-.75,1.54-1.23,2.15Z"/>
  <path class="st2" d="M569.62,91.82h20"/>
  <path id="m89f68895c17" data-name="m89f68895c1" class="st20" d="M576.62,94.82h6v-6h-6v6Z"/>
  <path id="ArialMT-50" d="M598.39,95.32v-7.16h2.7c.48,0,.84.02,1.09.07.35.06.65.17.88.34.24.16.43.39.58.69.14.3.22.62.22.98,0,.61-.19,1.12-.58,1.55-.39.42-1.09.63-2.1.63h-1.84v2.91h-.95ZM599.34,91.57h1.85c.61,0,1.05-.11,1.3-.34s.39-.55.39-.96c0-.3-.08-.55-.23-.77-.15-.21-.35-.35-.6-.42-.16-.04-.46-.06-.88-.06h-1.83v2.56Z"/>
  <path id="ArialMT-611" data-name="ArialMT-61" d="M608.34,94.69c-.33.28-.64.47-.94.59-.3.11-.62.17-.97.17-.57,0-1.01-.14-1.31-.42s-.46-.63-.46-1.07c0-.25.06-.49.17-.7.12-.21.27-.38.45-.51s.4-.22.63-.29c.17-.05.43-.09.78-.13.71-.08,1.23-.18,1.57-.3,0-.12,0-.2,0-.23,0-.36-.08-.61-.25-.76-.22-.2-.56-.3-1-.3-.41,0-.72.07-.92.22s-.34.4-.44.77l-.86-.12c.08-.37.21-.66.39-.89.18-.23.44-.4.78-.52.34-.12.73-.18,1.18-.18s.8.05,1.08.16c.28.1.48.24.61.39.13.16.22.36.27.6.03.15.04.42.04.81v1.17c0,.82.02,1.33.06,1.55.04.22.11.42.22.62h-.92c-.09-.18-.15-.4-.18-.64ZM608.26,92.72c-.32.13-.8.24-1.44.33-.36.05-.62.11-.77.18-.15.06-.26.16-.35.28-.08.13-.12.26-.12.42,0,.23.09.43.27.59.18.16.44.23.78.23s.64-.07.9-.22c.26-.15.46-.35.58-.61.09-.2.14-.49.14-.88v-.32Z"/>
  <path id="ArialMT-6b" d="M610.52,95.32v-7.16h.88v4.08l2.08-2.11h1.14l-1.98,1.92,2.18,3.26h-1.08l-1.71-2.65-.62.6v2.06h-.88Z"/>
  <path id="ArialMT-691" data-name="ArialMT-69" d="M615.52,89.18v-1.01h.88v1.01h-.88ZM615.52,95.32v-5.19h.88v5.19h-.88Z"/>
  <path id="ArialMT-73" d="M617.38,93.78l.87-.14c.05.35.18.61.41.8.22.19.53.28.94.28s.7-.08.9-.25c.2-.16.29-.36.29-.58,0-.2-.09-.35-.26-.47-.12-.08-.42-.18-.9-.3-.64-.16-1.09-.3-1.34-.42s-.44-.28-.57-.49c-.13-.21-.19-.44-.19-.7,0-.23.05-.44.16-.64.11-.2.25-.36.43-.49.14-.1.32-.18.56-.25.24-.07.49-.11.76-.11.41,0,.76.06,1.07.18.31.12.54.28.68.48.15.2.25.47.3.8l-.86.12c-.04-.27-.15-.47-.34-.62-.19-.15-.45-.23-.79-.23-.4,0-.69.07-.86.2-.17.13-.26.29-.26.47,0,.11.04.22.11.31.07.09.18.17.34.23.09.03.35.11.78.22.62.17,1.06.3,1.3.41.25.11.44.26.58.46.14.2.21.45.21.75s-.09.57-.26.83c-.17.26-.42.46-.74.6-.32.14-.69.21-1.09.21-.67,0-1.19-.14-1.54-.42-.35-.28-.58-.7-.68-1.25Z"/>
  <path id="ArialMT-741" data-name="ArialMT-74" d="M624.65,94.54l.13.78c-.25.05-.47.08-.66.08-.32,0-.57-.05-.74-.15-.18-.1-.3-.23-.37-.4-.07-.16-.11-.51-.11-1.04v-2.98h-.64v-.68h.64v-1.28l.87-.53v1.81h.88v.68h-.88v3.03c0,.25.02.41.05.48.03.07.08.13.15.17.07.04.17.06.3.06.1,0,.23-.01.39-.03Z"/>
  <path id="ArialMT-612" data-name="ArialMT-61" d="M628.9,94.69c-.33.28-.64.47-.94.59-.3.11-.62.17-.97.17-.57,0-1.01-.14-1.31-.42s-.46-.63-.46-1.07c0-.25.06-.49.17-.7.12-.21.27-.38.45-.51s.4-.22.63-.29c.17-.05.43-.09.78-.13.71-.08,1.23-.18,1.57-.3,0-.12,0-.2,0-.23,0-.36-.08-.61-.25-.76-.22-.2-.56-.3-1-.3-.41,0-.72.07-.92.22s-.34.4-.44.77l-.86-.12c.08-.37.21-.66.39-.89.18-.23.44-.4.78-.52.34-.12.73-.18,1.18-.18s.8.05,1.08.16c.28.1.48.24.61.39.13.16.22.36.27.6.03.15.04.42.04.81v1.17c0,.82.02,1.33.06,1.55.04.22.11.42.22.62h-.92c-.09-.18-.15-.4-.18-.64ZM628.82,92.72c-.32.13-.8.24-1.44.33-.36.05-.62.11-.77.18-.15.06-.26.16-.35.28-.08.13-.12.26-.12.42,0,.23.09.43.27.59.18.16.44.23.78.23s.64-.07.9-.22c.26-.15.46-.35.58-.61.09-.2.14-.49.14-.88v-.32Z"/>
  <path id="ArialMT-6e2" data-name="ArialMT-6e" d="M631.07,95.32v-5.19h.79v.74c.38-.57.93-.85,1.65-.85.31,0,.6.06.86.17s.46.26.59.44.22.4.27.65c.03.16.05.45.05.85v3.19h-.88v-3.15c0-.36-.03-.63-.1-.8-.07-.18-.19-.32-.36-.42-.17-.11-.38-.16-.61-.16-.38,0-.7.12-.97.36s-.41.69-.41,1.35v2.83h-.88Z"/>
  <path id="ArialMT-201" data-name="ArialMT-20" d="M635.98,95.32"/>
  <path id="ArialMT-281" data-name="ArialMT-28" d="M641.09,97.43c-.49-.61-.9-1.33-1.23-2.15-.33-.82-.5-1.67-.5-2.55,0-.78.13-1.52.38-2.23.29-.82.75-1.64,1.36-2.46h.63c-.39.68-.65,1.16-.78,1.45-.2.45-.36.92-.47,1.41-.14.61-.21,1.22-.21,1.84,0,1.57.49,3.13,1.46,4.69h-.63Z"/>
  <path id="ArialMT-432" data-name="ArialMT-43" d="M647.96,92.82l.95.24c-.2.78-.56,1.37-1.07,1.78-.52.41-1.15.61-1.89.61s-1.4-.16-1.88-.47c-.48-.31-.85-.77-1.1-1.37-.25-.6-.38-1.24-.38-1.92,0-.75.14-1.4.43-1.95.29-.56.69-.98,1.22-1.26.53-.29,1.1-.43,1.74-.43.72,0,1.32.18,1.81.55.49.36.83.88,1.02,1.54l-.93.22c-.17-.52-.41-.9-.72-1.14-.32-.24-.71-.36-1.19-.36-.55,0-1.01.13-1.38.4-.37.26-.63.62-.78,1.06-.15.44-.22.9-.22,1.37,0,.61.09,1.14.27,1.59.18.45.45.79.83,1.02.38.22.78.34,1.22.34.53,0,.98-.15,1.35-.46.37-.31.62-.76.75-1.36Z"/>
  <path id="ArialMT-751" data-name="ArialMT-75" d="M653.36,95.32v-.76c-.4.59-.95.88-1.65.88-.31,0-.59-.06-.86-.18-.26-.12-.46-.27-.59-.44-.13-.18-.22-.4-.27-.65-.04-.17-.05-.45-.05-.82v-3.21h.88v2.88c0,.46.02.77.05.93.06.23.17.41.35.54.18.13.4.2.66.2s.51-.07.74-.2c.23-.14.39-.32.49-.55.1-.23.15-.57.15-1.01v-2.78h.88v5.19h-.79Z"/>
  <path id="ArialMT-722" data-name="ArialMT-72" d="M655.52,95.32v-5.19h.79v.79c.2-.37.39-.61.56-.73.17-.12.36-.18.56-.18.3,0,.6.09.9.28l-.3.82c-.21-.13-.43-.19-.64-.19-.19,0-.37.06-.52.17s-.26.28-.33.48c-.1.31-.15.65-.15,1.03v2.72h-.88Z"/>
  <path id="ArialMT-723" data-name="ArialMT-72" d="M658.85,95.32v-5.19h.79v.79c.2-.37.39-.61.56-.73.17-.12.36-.18.56-.18.3,0,.6.09.9.28l-.3.82c-.21-.13-.43-.19-.64-.19-.19,0-.37.06-.52.17s-.26.28-.33.48c-.1.31-.15.65-.15,1.03v2.72h-.88Z"/>
  <path id="ArialMT-651" data-name="ArialMT-65" d="M665.74,93.65l.91.11c-.14.53-.41.94-.8,1.24-.39.29-.88.44-1.48.44-.76,0-1.36-.23-1.8-.7-.44-.47-.67-1.12-.67-1.97s.22-1.55.67-2.03c.45-.48,1.03-.72,1.75-.72s1.26.24,1.7.71.66,1.14.66,1.99c0,.05,0,.13,0,.23h-3.87c.03.57.19,1.01.48,1.31.29.3.65.45,1.08.45.32,0,.6-.08.83-.25.23-.17.41-.44.54-.81ZM662.85,92.23h2.9c-.04-.44-.15-.76-.33-.98-.28-.34-.64-.51-1.09-.51-.4,0-.74.13-1.02.4s-.43.63-.46,1.08Z"/>
  <path id="ArialMT-6e3" data-name="ArialMT-6e" d="M667.75,95.32v-5.19h.79v.74c.38-.57.93-.85,1.65-.85.31,0,.6.06.86.17s.46.26.59.44.22.4.27.65c.03.16.05.45.05.85v3.19h-.88v-3.15c0-.36-.03-.63-.1-.8-.07-.18-.19-.32-.36-.42-.17-.11-.38-.16-.61-.16-.38,0-.7.12-.97.36s-.41.69-.41,1.35v2.83h-.88Z"/>
  <path id="ArialMT-742" data-name="ArialMT-74" d="M675.23,94.54l.13.78c-.25.05-.47.08-.66.08-.32,0-.57-.05-.74-.15-.18-.1-.3-.23-.37-.4-.07-.16-.11-.51-.11-1.04v-2.98h-.64v-.68h.64v-1.28l.87-.53v1.81h.88v.68h-.88v3.03c0,.25.02.41.05.48.03.07.08.13.15.17.07.04.17.06.3.06.1,0,.23-.01.39-.03Z"/>
  <path id="ArialMT-291" data-name="ArialMT-29" d="M676.67,97.43h-.63c.97-1.56,1.46-3.13,1.46-4.69,0-.61-.07-1.22-.21-1.82-.11-.49-.27-.96-.46-1.41-.13-.29-.39-.78-.79-1.46h.63c.61.82,1.06,1.64,1.36,2.46.25.71.38,1.45.38,2.23,0,.88-.17,1.73-.51,2.55-.34.82-.75,1.54-1.23,2.15Z"/>
  <path class="st5" d="M569.62,106.21h20"/>
  <path id="m28bf601f147" data-name="m28bf601f14" class="st24" d="M579.62,103.21l-3,6h6l-3-6Z"/>
  <path id="ArialMT-49" d="M598.55,109.71v-7.16h.95v7.16h-.95Z"/>
  <path id="ArialMT-6e4" data-name="ArialMT-6e" d="M601.06,109.71v-5.19h.79v.74c.38-.57.93-.85,1.65-.85.31,0,.6.06.86.17s.46.26.59.44.22.4.27.65c.03.16.05.45.05.85v3.19h-.88v-3.15c0-.36-.03-.63-.1-.8-.07-.18-.19-.32-.36-.42-.17-.11-.38-.16-.61-.16-.38,0-.7.12-.97.36s-.41.69-.41,1.35v2.83h-.88Z"/>
  <path id="ArialMT-64" d="M609.99,109.71v-.65c-.33.51-.81.77-1.45.77-.41,0-.79-.11-1.14-.34s-.62-.55-.81-.95c-.19-.41-.28-.88-.28-1.41s.09-.99.26-1.41c.17-.42.43-.74.78-.97.35-.23.73-.34,1.16-.34.31,0,.59.07.83.2.24.13.44.3.6.51v-2.57h.87v7.16h-.82ZM607.21,107.12c0,.66.14,1.16.42,1.49.28.33.61.49.99.49s.71-.16.98-.47c.27-.31.4-.79.4-1.44,0-.71-.14-1.23-.41-1.56-.27-.33-.61-.5-1.01-.5s-.72.16-.98.48c-.26.32-.39.82-.39,1.51Z"/>
  <path id="ArialMT-692" data-name="ArialMT-69" d="M612.19,103.56v-1.01h.88v1.01h-.88ZM612.19,109.71v-5.19h.88v5.19h-.88Z"/>
  <path id="ArialMT-613" data-name="ArialMT-61" d="M617.79,109.07c-.33.28-.64.47-.94.59-.3.11-.62.17-.97.17-.57,0-1.01-.14-1.31-.42s-.46-.63-.46-1.07c0-.25.06-.49.17-.7.12-.21.27-.38.45-.51s.4-.22.63-.29c.17-.05.43-.09.78-.13.71-.08,1.23-.18,1.57-.3,0-.12,0-.2,0-.23,0-.36-.08-.61-.25-.76-.22-.2-.56-.3-1-.3-.41,0-.72.07-.92.22s-.34.4-.44.77l-.86-.12c.08-.37.21-.66.39-.89.18-.23.44-.4.78-.52.34-.12.73-.18,1.18-.18s.8.05,1.08.16c.28.1.48.24.61.39.13.16.22.36.27.6.03.15.04.42.04.81v1.17c0,.82.02,1.33.06,1.55.04.22.11.42.22.62h-.92c-.09-.18-.15-.4-.18-.64ZM617.72,107.11c-.32.13-.8.24-1.44.33-.36.05-.62.11-.77.18-.15.06-.26.16-.35.28-.08.13-.12.26-.12.42,0,.23.09.43.27.59.18.16.44.23.78.23s.64-.07.9-.22c.26-.15.46-.35.58-.61.09-.2.14-.49.14-.88v-.32Z"/>
  <path id="ArialMT-202" data-name="ArialMT-20" d="M619.31,109.71"/>
  <path id="ArialMT-282" data-name="ArialMT-28" d="M624.42,111.81c-.49-.61-.9-1.33-1.23-2.15-.33-.82-.5-1.67-.5-2.55,0-.78.13-1.52.38-2.23.29-.82.75-1.64,1.36-2.46h.63c-.39.68-.65,1.16-.78,1.45-.2.45-.36.92-.47,1.41-.14.61-.21,1.22-.21,1.84,0,1.57.49,3.13,1.46,4.69h-.63Z"/>
  <path id="ArialMT-321" data-name="ArialMT-32" d="M630.45,108.86v.85h-4.73c0-.21.03-.42.1-.61.12-.32.31-.64.58-.95.27-.31.65-.67,1.15-1.08.78-.64,1.3-1.14,1.58-1.52.27-.37.41-.73.41-1.06s-.13-.64-.38-.88c-.25-.24-.57-.36-.97-.36-.42,0-.76.13-1.02.38-.25.25-.38.6-.39,1.05l-.9-.09c.06-.67.29-1.19.7-1.54.4-.35.95-.53,1.63-.53s1.23.19,1.63.57c.4.38.6.85.6,1.42,0,.29-.06.57-.18.85-.12.28-.31.57-.58.87s-.72.73-1.35,1.26c-.53.44-.87.74-1.02.9-.15.16-.27.32-.37.48h3.51Z"/>
  <path id="ArialMT-301" data-name="ArialMT-30" d="M631.39,106.18c0-.85.09-1.53.26-2.04.17-.52.43-.91.78-1.19.34-.28.78-.42,1.3-.42.38,0,.72.08,1.01.23.29.15.53.38.72.67.19.29.34.65.45,1.06.11.42.16.98.16,1.69,0,.84-.09,1.52-.26,2.03-.17.52-.43.91-.77,1.2-.34.28-.78.42-1.3.42-.69,0-1.23-.25-1.63-.74-.47-.6-.71-1.57-.71-2.91ZM632.3,106.18c0,1.18.14,1.96.41,2.35.28.39.61.58,1.02.58s.74-.2,1.02-.59.41-1.17.41-2.34-.14-1.96-.41-2.35c-.28-.39-.62-.58-1.03-.58s-.73.17-.97.51c-.3.44-.45,1.24-.45,2.42Z"/>
  <path id="ArialMT-33" d="M636.96,107.82l.88-.12c.1.5.27.86.52,1.08.24.22.54.33.89.33.41,0,.76-.14,1.05-.43.29-.29.43-.64.43-1.07s-.13-.74-.4-1c-.26-.26-.6-.39-1.01-.39-.17,0-.37.03-.62.1l.1-.77c.06,0,.11.01.14.01.38,0,.71-.1,1.01-.29.3-.2.45-.5.45-.9,0-.32-.11-.59-.33-.8-.22-.21-.5-.32-.84-.32s-.63.11-.85.32c-.23.21-.37.54-.44.97l-.88-.16c.11-.59.35-1.04.73-1.37.38-.32.86-.49,1.42-.49.39,0,.75.08,1.08.25.33.17.58.4.75.69.18.29.26.6.26.92,0,.31-.08.59-.25.84-.17.25-.41.46-.74.61.42.1.75.3.99.61.23.31.35.69.35,1.15,0,.63-.23,1.15-.68,1.59-.46.43-1.03.65-1.73.65-.63,0-1.15-.19-1.57-.56-.41-.38-.65-.86-.71-1.45Z"/>
  <path id="ArialMT-302" data-name="ArialMT-30" d="M642.52,106.18c0-.85.09-1.53.26-2.04.17-.52.43-.91.78-1.19.34-.28.78-.42,1.3-.42.38,0,.72.08,1.01.23.29.15.53.38.72.67.19.29.34.65.45,1.06.11.42.16.98.16,1.69,0,.84-.09,1.52-.26,2.03-.17.52-.43.91-.77,1.2-.34.28-.78.42-1.3.42-.69,0-1.23-.25-1.63-.74-.47-.6-.71-1.57-.71-2.91ZM643.42,106.18c0,1.18.14,1.96.41,2.35.28.39.61.58,1.02.58s.74-.2,1.02-.59.41-1.17.41-2.34-.14-1.96-.41-2.35c-.28-.39-.62-.58-1.03-.58s-.73.17-.97.51c-.3.44-.45,1.24-.45,2.42Z"/>
  <path id="ArialMT-203" data-name="ArialMT-20" d="M647.66,109.71"/>
  <path id="ArialMT-54" d="M652.86,109.71v-6.31h-2.36v-.84h5.67v.84h-2.37v6.31h-.95Z"/>
  <path id="ArialMT-614" data-name="ArialMT-61" d="M659.3,109.07c-.33.28-.64.47-.94.59-.3.11-.62.17-.97.17-.57,0-1.01-.14-1.31-.42s-.46-.63-.46-1.07c0-.25.06-.49.17-.7.12-.21.27-.38.45-.51s.4-.22.63-.29c.17-.05.43-.09.78-.13.71-.08,1.23-.18,1.57-.3,0-.12,0-.2,0-.23,0-.36-.08-.61-.25-.76-.22-.2-.56-.3-1-.3-.41,0-.72.07-.92.22s-.34.4-.44.77l-.86-.12c.08-.37.21-.66.39-.89.18-.23.44-.4.78-.52.34-.12.73-.18,1.18-.18s.8.05,1.08.16c.28.1.48.24.61.39.13.16.22.36.27.6.03.15.04.42.04.81v1.17c0,.82.02,1.33.06,1.55.04.22.11.42.22.62h-.92c-.09-.18-.15-.4-.18-.64ZM659.23,107.11c-.32.13-.8.24-1.44.33-.36.05-.62.11-.77.18-.15.06-.26.16-.35.28-.08.13-.12.26-.12.42,0,.23.09.43.27.59.18.16.44.23.78.23s.64-.07.9-.22c.26-.15.46-.35.58-.61.09-.2.14-.49.14-.88v-.32Z"/>
  <path id="ArialMT-724" data-name="ArialMT-72" d="M661.47,109.71v-5.19h.79v.79c.2-.37.39-.61.56-.73.17-.12.36-.18.56-.18.3,0,.6.09.9.28l-.3.82c-.21-.13-.43-.19-.64-.19-.19,0-.37.06-.52.17s-.26.28-.33.48c-.1.31-.15.65-.15,1.03v2.72h-.88Z"/>
  <path id="ArialMT-67" d="M664.65,110.14l.85.13c.04.26.13.46.3.58.22.16.52.24.89.24.41,0,.72-.08.94-.24.22-.16.37-.39.45-.68.05-.18.07-.56.06-1.13-.38.45-.86.68-1.43.68-.71,0-1.27-.26-1.66-.77-.39-.51-.59-1.13-.59-1.85,0-.49.09-.95.27-1.37.18-.42.44-.74.78-.97.34-.23.74-.34,1.2-.34.61,0,1.12.25,1.51.74v-.63h.81v4.48c0,.81-.08,1.38-.25,1.72-.16.34-.42.6-.78.8-.36.2-.79.29-1.32.29-.62,0-1.12-.14-1.5-.42s-.57-.7-.55-1.26ZM665.38,107.02c0,.68.13,1.18.4,1.49.27.31.61.47,1.02.47s.74-.16,1.01-.47c.27-.31.41-.8.41-1.46s-.14-1.11-.42-1.43c-.28-.32-.62-.48-1.02-.48s-.72.16-1,.48c-.27.32-.41.79-.41,1.41Z"/>
  <path id="ArialMT-652" data-name="ArialMT-65" d="M673.92,108.04l.91.11c-.14.53-.41.94-.8,1.24-.39.29-.88.44-1.48.44-.76,0-1.36-.23-1.8-.7-.44-.47-.67-1.12-.67-1.97s.22-1.55.67-2.03c.45-.48,1.03-.72,1.75-.72s1.26.24,1.7.71.66,1.14.66,1.99c0,.05,0,.13,0,.23h-3.87c.03.57.19,1.01.48,1.31.29.3.65.45,1.08.45.32,0,.6-.08.83-.25.23-.17.41-.44.54-.81ZM671.04,106.62h2.9c-.04-.44-.15-.76-.33-.98-.28-.34-.64-.51-1.09-.51-.4,0-.74.13-1.02.4s-.43.63-.46,1.08Z"/>
  <path id="ArialMT-743" data-name="ArialMT-74" d="M677.85,108.92l.13.78c-.25.05-.47.08-.66.08-.32,0-.57-.05-.74-.15-.18-.1-.3-.23-.37-.4-.07-.16-.11-.51-.11-1.04v-2.98h-.64v-.68h.64v-1.28l.87-.53v1.81h.88v.68h-.88v3.03c0,.25.02.41.05.48.03.07.08.13.15.17.07.04.17.06.3.06.1,0,.23-.01.39-.03Z"/>
  <path id="ArialMT-292" data-name="ArialMT-29" d="M679.29,111.81h-.63c.97-1.56,1.46-3.13,1.46-4.69,0-.61-.07-1.22-.21-1.82-.11-.49-.27-.96-.46-1.41-.13-.29-.39-.78-.79-1.46h.63c.61.82,1.06,1.64,1.36,2.46.25.71.38,1.45.38,2.23,0,.88-.17,1.73-.51,2.55-.34.82-.75,1.54-1.23,2.15Z"/>
</svg>