<?xml version="1.0" encoding="UTF-8"?>
<svg id="Layer_1" xmlns="http://www.w3.org/2000/svg" version="1.1" xmlns:xlink="http://www.w3.org/1999/xlink" viewBox="0 0 936 504">
  <!-- Generator: Adobe Illustrator 30.4.0, SVG Export Plug-In . SVG Version: 2.1.4 Build 226)  -->
  <defs>
    <style>
      .st0 {
        clip-path: url(#clippath-6);
      }

      .st1 {
        clip-path: url(#clippath-7);
      }

      .st2 {
        fill: #f60;
      }

      .st2, .st3, .st4, .st5, .st6, .st7, .st8 {
        stroke: #000;
      }

      .st2, .st3, .st4, .st7, .st8 {
        stroke-width: 1.5px;
      }

      .st9 {
        clip-path: url(#clippath-4);
      }

      .st10 {
        stroke: #b0b0b0;
        stroke-dasharray: 2.96 1.28;
        stroke-opacity: .3;
      }

      .st10, .st11, .st5 {
        fill: none;
      }

      .st10, .st5, .st6 {
        stroke-width: .8px;
      }

      .st10, .st6 {
        stroke-linejoin: round;
      }

      .st12 {
        clip-path: url(#clippath-9);
      }

      .st13 {
        clip-path: url(#clippath-10);
      }

      .st14 {
        fill: #fff;
      }

      .st3 {
        fill: #c00;
      }

      .st15 {
        clip-path: url(#clippath-11);
      }

      .st16 {
        clip-path: url(#clippath-1);
      }

      .st4 {
        fill: #06c;
      }

      .st17 {
        clip-path: url(#clippath-5);
      }

      .st18 {
        clip-path: url(#clippath-8);
      }

      .st5 {
        stroke-linecap: square;
      }

      .st19 {
        clip-path: url(#clippath-3);
      }

      .st20 {
        clip-path: url(#clippath-12);
      }

      .st21, .st7 {
        fill: #036;
      }

      .st22 {
        clip-path: url(#clippath-2);
      }

      .st23 {
        clip-path: url(#clippath-13);
      }

      .st8 {
        fill: #09f;
      }

      .st24 {
        clip-path: url(#clippath);
      }
    </style>
    <clipPath id="clippath">
      <rect class="st11" x="66.08" y="40.88" width="859.12" height="411.91"/>
    </clipPath>
    <clipPath id="clippath-1">
      <rect class="st11" x="66.08" y="40.88" width="859.12" height="411.91"/>
    </clipPath>
    <clipPath id="clippath-2">
      <rect class="st11" x="66.08" y="40.88" width="859.12" height="411.91"/>
    </clipPath>
    <clipPath id="clippath-3">
      <rect class="st11" x="66.08" y="40.88" width="859.12" height="411.91"/>
    </clipPath>
    <clipPath id="clippath-4">
      <rect class="st11" x="66.08" y="40.88" width="859.12" height="411.91"/>
    </clipPath>
    <clipPath id="clippath-5">
      <rect class="st11" x="66.08" y="40.88" width="859.12" height="411.91"/>
    </clipPath>
    <clipPath id="clippath-6">
      <rect class="st11" x="66.08" y="40.88" width="859.12" height="411.91"/>
    </clipPath>
    <clipPath id="clippath-7">
      <rect class="st11" x="66.08" y="40.88" width="859.12" height="411.91"/>
    </clipPath>
    <clipPath id="clippath-8">
      <rect class="st11" x="66.08" y="40.88" width="859.12" height="411.91"/>
    </clipPath>
    <clipPath id="clippath-9">
      <rect class="st11" x="66.08" y="40.88" width="859.12" height="411.91"/>
    </clipPath>
    <clipPath id="clippath-10">
      <rect class="st11" x="66.08" y="40.88" width="859.12" height="411.91"/>
    </clipPath>
    <clipPath id="clippath-11">
      <rect class="st11" x="66.08" y="40.88" width="859.12" height="411.91"/>
    </clipPath>
    <clipPath id="clippath-12">
      <rect class="st11" x="66.08" y="40.88" width="859.12" height="411.91"/>
    </clipPath>
    <clipPath id="clippath-13">
      <rect class="st11" x="66.08" y="40.88" width="859.12" height="411.91"/>
    </clipPath>
  </defs>
  <path class="st14" d="M66.08,452.79h859.12V40.88H66.08v411.91Z"/>
  <g class="st24">
    <path class="st7" d="M105.13,452.79h130.17V135.75H105.13v317.04Z"/>
  </g>
  <g class="st16">
    <path class="st4" d="M267.84,135.75h130.17v-44.24h-130.17v44.24Z"/>
  </g>
  <g class="st22">
    <path class="st8" d="M430.56,91.51h130.17v-50.63h-130.17v50.63Z"/>
  </g>
  <g class="st19">
    <path class="st2" d="M593.27,40.88h130.17-130.17Z"/>
  </g>
  <g class="st9">
    <path class="st3" d="M755.98,452.79h130.17V40.88h-130.17v411.91Z"/>
  </g>
  <path id="m41b3d2f281" class="st6" d="M170.22,452.79v3.5"/>
  <path id="ArialMT-50" d="M156.81,466.95v-7.16h2.7c.48,0,.84.02,1.09.07.35.06.65.17.88.34.24.16.43.39.58.69.14.3.22.62.22.98,0,.61-.19,1.12-.58,1.55-.39.42-1.09.63-2.1.63h-1.84v2.91h-.95ZM157.76,463.2h1.85c.61,0,1.05-.11,1.3-.34s.39-.55.39-.96c0-.3-.08-.55-.23-.77-.15-.21-.35-.35-.6-.42-.16-.04-.46-.06-.88-.06h-1.83v2.56Z"/>
  <path id="ArialMT-65" d="M166.92,465.28l.91.11c-.14.53-.41.94-.8,1.24-.39.29-.88.44-1.48.44-.76,0-1.36-.23-1.8-.7-.44-.47-.67-1.12-.67-1.97s.22-1.55.67-2.03c.45-.48,1.03-.72,1.75-.72s1.26.24,1.7.71.66,1.14.66,1.99c0,.05,0,.13,0,.23h-3.87c.03.57.19,1.01.48,1.31.29.3.65.45,1.08.45.32,0,.6-.08.83-.25.23-.17.41-.44.54-.81ZM164.03,463.86h2.9c-.04-.44-.15-.76-.33-.98-.28-.34-.64-.51-1.09-.51-.4,0-.74.13-1.02.4s-.43.63-.46,1.08Z"/>
  <path id="ArialMT-61" d="M172.31,466.31c-.33.28-.64.47-.94.59-.3.11-.62.17-.97.17-.57,0-1.01-.14-1.31-.42s-.46-.63-.46-1.07c0-.25.06-.49.17-.7.12-.21.27-.38.45-.51s.4-.22.63-.29c.17-.05.43-.09.78-.13.71-.08,1.23-.18,1.57-.3,0-.12,0-.2,0-.23,0-.36-.08-.61-.25-.76-.22-.2-.56-.3-1-.3-.41,0-.72.07-.92.22s-.34.4-.44.77l-.86-.12c.08-.37.21-.66.39-.89.18-.23.44-.4.78-.52.34-.12.73-.18,1.18-.18s.8.05,1.08.16c.28.1.48.24.61.39.13.16.22.36.27.6.03.15.04.42.04.81v1.17c0,.82.02,1.33.06,1.55.04.22.11.42.22.62h-.92c-.09-.18-.15-.4-.18-.64ZM172.24,464.35c-.32.13-.8.24-1.44.33-.36.05-.62.11-.77.18-.15.06-.26.16-.35.28-.08.13-.12.26-.12.42,0,.23.09.43.27.59.18.16.44.23.78.23s.64-.07.9-.22c.26-.15.46-.35.58-.61.09-.2.14-.49.14-.88v-.32Z"/>
  <path id="ArialMT-63" d="M177.88,465.05l.86.11c-.09.6-.34,1.06-.73,1.4-.39.34-.87.5-1.43.5-.71,0-1.28-.23-1.71-.7-.43-.46-.65-1.13-.65-2,0-.56.09-1.05.28-1.47.19-.42.47-.74.85-.95.38-.21.79-.32,1.24-.32.56,0,1.02.14,1.38.43.36.28.59.69.69,1.21l-.85.13c-.08-.35-.23-.61-.43-.79-.21-.18-.46-.26-.75-.26-.44,0-.8.16-1.08.48-.28.32-.41.82-.41,1.5s.13,1.2.4,1.52c.27.32.62.47,1.05.47.34,0,.63-.11.86-.32.23-.21.38-.54.44-.98Z"/>
  <path id="ArialMT-651" data-name="ArialMT-65" d="M183.04,465.28l.91.11c-.14.53-.41.94-.8,1.24-.39.29-.88.44-1.48.44-.76,0-1.36-.23-1.8-.7-.44-.47-.67-1.12-.67-1.97s.22-1.55.67-2.03c.45-.48,1.03-.72,1.75-.72s1.26.24,1.7.71.66,1.14.66,1.99c0,.05,0,.13,0,.23h-3.87c.03.57.19,1.01.48,1.31.29.3.65.45,1.08.45.32,0,.6-.08.83-.25.23-.17.41-.44.54-.81ZM180.16,463.86h2.9c-.04-.44-.15-.76-.33-.98-.28-.34-.64-.51-1.09-.51-.4,0-.74.13-1.02.4s-.43.63-.46,1.08Z"/>
  <path id="ArialMT-45" d="M139.6,477.53v-7.16h5.18v.84h-4.23v2.19h3.96v.84h-3.96v2.44h4.39v.85h-5.34Z"/>
  <path id="ArialMT-73" d="M145.79,475.98l.87-.14c.05.35.18.61.41.8.22.19.53.28.94.28s.7-.08.9-.25c.2-.16.29-.36.29-.58,0-.2-.09-.35-.26-.47-.12-.08-.42-.18-.9-.3-.64-.16-1.09-.3-1.34-.42s-.44-.28-.57-.49c-.13-.21-.19-.44-.19-.7,0-.23.05-.44.16-.64.11-.2.25-.36.43-.49.14-.1.32-.18.56-.25.24-.07.49-.11.76-.11.41,0,.76.06,1.07.18.31.12.54.28.68.48.15.2.25.47.3.8l-.86.12c-.04-.27-.15-.47-.34-.62-.19-.15-.45-.23-.79-.23-.4,0-.69.07-.86.2-.17.13-.26.29-.26.47,0,.11.04.22.11.31.07.09.18.17.34.23.09.03.35.11.78.22.62.17,1.06.3,1.3.41.25.11.44.26.58.46.14.2.21.45.21.75s-.09.57-.26.83c-.17.26-.42.46-.74.6-.32.14-.69.21-1.09.21-.67,0-1.19-.14-1.54-.42-.35-.28-.58-.7-.68-1.25Z"/>
  <path id="ArialMT-74" d="M153.06,476.74l.13.78c-.25.05-.47.08-.66.08-.32,0-.57-.05-.74-.15-.18-.1-.3-.23-.37-.4-.07-.16-.11-.51-.11-1.04v-2.98h-.64v-.68h.64v-1.28l.87-.53v1.81h.88v.68h-.88v3.03c0,.25.02.41.05.48.03.07.08.13.15.17.07.04.17.06.3.06.1,0,.23-.01.39-.03Z"/>
  <path id="ArialMT-611" data-name="ArialMT-61" d="M157.31,476.89c-.33.28-.64.47-.94.59-.3.11-.62.17-.97.17-.57,0-1.01-.14-1.31-.42s-.46-.63-.46-1.07c0-.25.06-.49.17-.7.12-.21.27-.38.45-.51s.4-.22.63-.29c.17-.05.43-.09.78-.13.71-.08,1.23-.18,1.57-.3,0-.12,0-.2,0-.23,0-.36-.08-.61-.25-.76-.22-.2-.56-.3-1-.3-.41,0-.72.07-.92.22s-.34.4-.44.77l-.86-.12c.08-.37.21-.66.39-.89.18-.23.44-.4.78-.52.34-.12.73-.18,1.18-.18s.8.05,1.08.16c.28.1.48.24.61.39.13.16.22.36.27.6.03.15.04.42.04.81v1.17c0,.82.02,1.33.06,1.55.04.22.11.42.22.62h-.92c-.09-.18-.15-.4-.18-.64ZM157.23,474.92c-.32.13-.8.24-1.44.33-.36.05-.62.11-.77.18-.15.06-.26.16-.35.28-.08.13-.12.26-.12.42,0,.23.09.43.27.59.18.16.44.23.78.23s.64-.07.9-.22c.26-.15.46-.35.58-.61.09-.2.14-.49.14-.88v-.32Z"/>
  <path id="ArialMT-62" d="M160.29,477.53h-.82v-7.16h.88v2.55c.37-.47.85-.7,1.42-.7.32,0,.62.06.9.19.29.13.52.31.7.54.18.23.33.51.43.84.1.33.16.68.16,1.05,0,.89-.22,1.58-.66,2.06-.44.48-.97.73-1.58.73s-1.09-.26-1.44-.77v.65ZM160.28,474.9c0,.62.08,1.07.25,1.35.28.45.65.68,1.12.68.38,0,.72-.17,1-.5.28-.33.42-.83.42-1.49s-.13-1.18-.4-1.5-.59-.48-.97-.48-.72.17-1,.5c-.28.33-.42.82-.42,1.45Z"/>
  <path id="ArialMT-6c" d="M165.02,477.53v-7.16h.88v7.16h-.88Z"/>
  <path id="ArialMT-69" d="M167.27,471.38v-1.01h.88v1.01h-.88ZM167.27,477.53v-5.19h.88v5.19h-.88Z"/>
  <path id="ArialMT-731" data-name="ArialMT-73" d="M169.14,475.98l.87-.14c.05.35.18.61.41.8.22.19.53.28.94.28s.7-.08.9-.25c.2-.16.29-.36.29-.58,0-.2-.09-.35-.26-.47-.12-.08-.42-.18-.9-.3-.64-.16-1.09-.3-1.34-.42s-.44-.28-.57-.49c-.13-.21-.19-.44-.19-.7,0-.23.05-.44.16-.64.11-.2.25-.36.43-.49.14-.1.32-.18.56-.25.24-.07.49-.11.76-.11.41,0,.76.06,1.07.18.31.12.54.28.68.48.15.2.25.47.3.8l-.86.12c-.04-.27-.15-.47-.34-.62-.19-.15-.45-.23-.79-.23-.4,0-.69.07-.86.2-.17.13-.26.29-.26.47,0,.11.04.22.11.31.07.09.18.17.34.23.09.03.35.11.78.22.62.17,1.06.3,1.3.41.25.11.44.26.58.46.14.2.21.45.21.75s-.09.57-.26.83c-.17.26-.42.46-.74.6-.32.14-.69.21-1.09.21-.67,0-1.19-.14-1.54-.42-.35-.28-.58-.7-.68-1.25Z"/>
  <path id="ArialMT-68" d="M174.49,477.53v-7.16h.88v2.57c.41-.48.93-.71,1.55-.71.38,0,.72.08,1,.23.28.15.49.36.61.63s.18.65.18,1.16v3.29h-.88v-3.29c0-.44-.1-.76-.29-.96s-.46-.3-.81-.3c-.26,0-.51.07-.74.2-.23.13-.39.32-.49.55-.1.23-.15.55-.15.96v2.84h-.88Z"/>
  <path id="ArialMT-6d" d="M180.05,477.53v-5.19h.79v.73c.16-.25.38-.46.65-.61.27-.16.58-.23.92-.23.38,0,.7.08.95.24s.42.38.52.67c.41-.61.94-.91,1.6-.91.51,0,.91.14,1.19.43.28.28.42.72.42,1.32v3.56h-.88v-3.27c0-.35-.03-.6-.09-.76-.06-.16-.16-.28-.31-.37-.15-.09-.32-.14-.53-.14-.36,0-.67.12-.91.36-.24.24-.36.63-.36,1.16v3.01h-.88v-3.37c0-.39-.07-.68-.22-.88-.14-.2-.38-.29-.7-.29-.25,0-.48.07-.69.2-.21.13-.36.32-.46.57-.09.25-.14.61-.14,1.08v2.69h-.88Z"/>
  <path id="ArialMT-652" data-name="ArialMT-65" d="M191.93,475.86l.91.11c-.14.53-.41.94-.8,1.24-.39.29-.88.44-1.48.44-.76,0-1.36-.23-1.8-.7-.44-.47-.67-1.12-.67-1.97s.22-1.55.67-2.03c.45-.48,1.03-.72,1.75-.72s1.26.24,1.7.71.66,1.14.66,1.99c0,.05,0,.13,0,.23h-3.87c.03.57.19,1.01.48,1.31.29.3.65.45,1.08.45.32,0,.6-.08.83-.25.23-.17.41-.44.54-.81ZM189.04,474.44h2.9c-.04-.44-.15-.76-.33-.98-.28-.34-.64-.51-1.09-.51-.4,0-.74.13-1.02.4s-.43.63-.46,1.08Z"/>
  <path id="ArialMT-6e" d="M193.94,477.53v-5.19h.79v.74c.38-.57.93-.85,1.65-.85.31,0,.6.06.86.17s.46.26.59.44.22.4.27.65c.03.16.05.45.05.85v3.19h-.88v-3.15c0-.36-.03-.63-.1-.8-.07-.18-.19-.32-.36-.42-.17-.11-.38-.16-.61-.16-.38,0-.7.12-.97.36s-.41.69-.41,1.35v2.83h-.88Z"/>
  <path id="ArialMT-741" data-name="ArialMT-74" d="M201.42,476.74l.13.78c-.25.05-.47.08-.66.08-.32,0-.57-.05-.74-.15-.18-.1-.3-.23-.37-.4-.07-.16-.11-.51-.11-1.04v-2.98h-.64v-.68h.64v-1.28l.87-.53v1.81h.88v.68h-.88v3.03c0,.25.02.41.05.48.03.07.08.13.15.17.07.04.17.06.3.06.1,0,.23-.01.39-.03Z"/>
  <path id="m41b3d2f2811" data-name="m41b3d2f281" class="st6" d="M332.93,452.79v3.5"/>
  <path id="ArialMT-54" d="M317.65,466.95v-6.31h-2.36v-.84h5.67v.84h-2.37v6.31h-.95Z"/>
  <path id="ArialMT-72" d="M321.44,466.95v-5.19h.79v.79c.2-.37.39-.61.56-.73.17-.12.36-.18.56-.18.3,0,.6.09.9.28l-.3.82c-.21-.13-.43-.19-.64-.19-.19,0-.37.06-.52.17s-.26.28-.33.48c-.1.31-.15.65-.15,1.03v2.72h-.88Z"/>
  <path id="ArialMT-612" data-name="ArialMT-61" d="M328.16,466.31c-.33.28-.64.47-.94.59-.3.11-.62.17-.97.17-.57,0-1.01-.14-1.31-.42s-.46-.63-.46-1.07c0-.25.06-.49.17-.7.12-.21.27-.38.45-.51s.4-.22.63-.29c.17-.05.43-.09.78-.13.71-.08,1.23-.18,1.57-.3,0-.12,0-.2,0-.23,0-.36-.08-.61-.25-.76-.22-.2-.56-.3-1-.3-.41,0-.72.07-.92.22s-.34.4-.44.77l-.86-.12c.08-.37.21-.66.39-.89.18-.23.44-.4.78-.52.34-.12.73-.18,1.18-.18s.8.05,1.08.16c.28.1.48.24.61.39.13.16.22.36.27.6.03.15.04.42.04.81v1.17c0,.82.02,1.33.06,1.55.04.22.11.42.22.62h-.92c-.09-.18-.15-.4-.18-.64ZM328.09,464.35c-.32.13-.8.24-1.44.33-.36.05-.62.11-.77.18-.15.06-.26.16-.35.28-.08.13-.12.26-.12.42,0,.23.09.43.27.59.18.16.44.23.78.23s.64-.07.9-.22c.26-.15.46-.35.58-.61.09-.2.14-.49.14-.88v-.32Z"/>
  <path id="ArialMT-691" data-name="ArialMT-69" d="M330.34,460.8v-1.01h.88v1.01h-.88ZM330.34,466.95v-5.19h.88v5.19h-.88Z"/>
  <path id="ArialMT-6e1" data-name="ArialMT-6e" d="M332.56,466.95v-5.19h.79v.74c.38-.57.93-.85,1.65-.85.31,0,.6.06.86.17s.46.26.59.44.22.4.27.65c.03.16.05.45.05.85v3.19h-.88v-3.15c0-.36-.03-.63-.1-.8-.07-.18-.19-.32-.36-.42-.17-.11-.38-.16-.61-.16-.38,0-.7.12-.97.36s-.41.69-.41,1.35v2.83h-.88Z"/>
  <path id="ArialMT-692" data-name="ArialMT-69" d="M338.13,460.8v-1.01h.88v1.01h-.88ZM338.13,466.95v-5.19h.88v5.19h-.88Z"/>
  <path id="ArialMT-6e2" data-name="ArialMT-6e" d="M340.34,466.95v-5.19h.79v.74c.38-.57.93-.85,1.65-.85.31,0,.6.06.86.17s.46.26.59.44.22.4.27.65c.03.16.05.45.05.85v3.19h-.88v-3.15c0-.36-.03-.63-.1-.8-.07-.18-.19-.32-.36-.42-.17-.11-.38-.16-.61-.16-.38,0-.7.12-.97.36s-.41.69-.41,1.35v2.83h-.88Z"/>
  <path id="ArialMT-67" d="M345.74,467.38l.85.13c.04.26.13.46.3.58.22.16.52.24.89.24.41,0,.72-.08.94-.24.22-.16.37-.39.45-.68.05-.18.07-.56.06-1.13-.38.45-.86.68-1.43.68-.71,0-1.27-.26-1.66-.77-.39-.51-.59-1.13-.59-1.85,0-.49.09-.95.27-1.37.18-.42.44-.74.78-.97.34-.23.74-.34,1.2-.34.61,0,1.12.25,1.51.74v-.63h.81v4.48c0,.81-.08,1.38-.25,1.72-.16.34-.42.6-.78.8-.36.2-.79.29-1.32.29-.62,0-1.12-.14-1.5-.42s-.57-.7-.55-1.26ZM346.47,464.26c0,.68.13,1.18.4,1.49.27.31.61.47,1.02.47s.74-.16,1.01-.47c.27-.31.41-.8.41-1.46s-.14-1.11-.42-1.43c-.28-.32-.62-.48-1.02-.48s-.72.16-1,.48c-.27.32-.41.79-.41,1.41Z"/>
  <path id="ArialMT-43" d="M309.35,475.28l.95.24c-.2.78-.56,1.37-1.07,1.78-.52.41-1.15.61-1.89.61s-1.4-.16-1.88-.47c-.48-.31-.85-.77-1.1-1.37-.25-.6-.38-1.24-.38-1.92,0-.75.14-1.4.43-1.95.29-.56.69-.98,1.22-1.26.53-.29,1.1-.43,1.74-.43.72,0,1.32.18,1.81.55.49.36.83.88,1.02,1.54l-.93.22c-.17-.52-.41-.9-.72-1.14-.32-.24-.71-.36-1.19-.36-.55,0-1.01.13-1.38.4-.37.26-.63.62-.78,1.06-.15.44-.22.9-.22,1.37,0,.61.09,1.14.27,1.59.18.45.45.79.83,1.02.38.22.78.34,1.22.34.53,0,.98-.15,1.35-.46.37-.31.62-.76.75-1.36Z"/>
  <path id="ArialMT-6f" d="M311.02,475.2c0-.96.27-1.67.8-2.13.45-.38.99-.58,1.63-.58.71,0,1.29.23,1.75.7.45.47.68,1.11.68,1.94,0,.67-.1,1.19-.3,1.58-.2.38-.49.68-.88.89-.38.21-.8.32-1.25.32-.73,0-1.31-.23-1.76-.7-.45-.47-.67-1.14-.67-2.01ZM311.93,475.2c0,.66.14,1.16.43,1.49.29.33.65.5,1.09.5s.8-.17,1.09-.5c.29-.33.43-.84.43-1.52,0-.64-.15-1.13-.44-1.46s-.65-.5-1.09-.5-.8.16-1.09.49c-.29.33-.43.82-.43,1.49Z"/>
  <path id="ArialMT-6e3" data-name="ArialMT-6e" d="M316.91,477.79v-5.19h.79v.74c.38-.57.93-.85,1.65-.85.31,0,.6.06.86.17s.46.26.59.44.22.4.27.65c.03.16.05.45.05.85v3.19h-.88v-3.15c0-.36-.03-.63-.1-.8-.07-.18-.19-.32-.36-.42-.17-.11-.38-.16-.61-.16-.38,0-.7.12-.97.36s-.41.69-.41,1.35v2.83h-.88Z"/>
  <path id="ArialMT-732" data-name="ArialMT-73" d="M322.12,476.24l.87-.14c.05.35.18.61.41.8.22.19.53.28.94.28s.7-.08.9-.25c.2-.16.29-.36.29-.58,0-.2-.09-.35-.26-.47-.12-.08-.42-.18-.9-.3-.64-.16-1.09-.3-1.34-.42s-.44-.28-.57-.49c-.13-.21-.19-.44-.19-.7,0-.23.05-.44.16-.64.11-.2.25-.36.43-.49.14-.1.32-.18.56-.25.24-.07.49-.11.76-.11.41,0,.76.06,1.07.18.31.12.54.28.68.48.15.2.25.47.3.8l-.86.12c-.04-.27-.15-.47-.34-.62-.19-.15-.45-.23-.79-.23-.4,0-.69.07-.86.2-.17.13-.26.29-.26.47,0,.11.04.22.11.31.07.09.18.17.34.23.09.03.35.11.78.22.62.17,1.06.3,1.3.41.25.11.44.26.58.46.14.2.21.45.21.75s-.09.57-.26.83c-.17.26-.42.46-.74.6-.32.14-.69.21-1.09.21-.67,0-1.19-.14-1.54-.42-.35-.28-.58-.7-.68-1.25Z"/>
  <path id="ArialMT-75" d="M330.87,477.79v-.76c-.4.59-.95.88-1.65.88-.31,0-.59-.06-.86-.18-.26-.12-.46-.27-.59-.44-.13-.18-.22-.4-.27-.65-.04-.17-.05-.45-.05-.82v-3.21h.88v2.88c0,.46.02.77.05.93.06.23.17.41.35.54.18.13.4.2.66.2s.51-.07.74-.2c.23-.14.39-.32.49-.55.1-.23.15-.57.15-1.01v-2.78h.88v5.19h-.79Z"/>
  <path id="ArialMT-6d1" data-name="ArialMT-6d" d="M333.03,477.79v-5.19h.79v.73c.16-.25.38-.46.65-.61.27-.16.58-.23.92-.23.38,0,.7.08.95.24s.42.38.52.67c.41-.61.94-.91,1.6-.91.51,0,.91.14,1.19.43.28.28.42.72.42,1.32v3.56h-.88v-3.27c0-.35-.03-.6-.09-.76-.06-.16-.16-.28-.31-.37-.15-.09-.32-.14-.53-.14-.36,0-.67.12-.91.36-.24.24-.36.63-.36,1.16v3.01h-.88v-3.37c0-.39-.07-.68-.22-.88-.14-.2-.38-.29-.7-.29-.25,0-.48.07-.69.2-.21.13-.36.32-.46.57-.09.25-.14.61-.14,1.08v2.69h-.88Z"/>
  <path id="ArialMT-70" d="M341.37,479.78v-7.17h.8v.67c.19-.26.4-.46.64-.59.24-.13.53-.2.86-.2.44,0,.83.11,1.17.34s.59.55.77.97c.17.41.26.87.26,1.36,0,.53-.1,1.01-.29,1.43-.19.43-.47.75-.83.98-.36.23-.74.34-1.15.34-.29,0-.56-.06-.79-.19-.23-.12-.42-.28-.57-.47v2.53h-.88ZM342.16,475.23c0,.67.13,1.16.4,1.48.27.32.6.48.98.48s.73-.17,1-.5c.28-.33.42-.84.42-1.54s-.14-1.15-.41-1.48c-.27-.33-.6-.49-.97-.49s-.71.18-1,.53c-.29.35-.43.86-.43,1.53Z"/>
  <path id="ArialMT-742" data-name="ArialMT-74" d="M348.85,477l.13.78c-.25.05-.47.08-.66.08-.32,0-.57-.05-.74-.15-.18-.1-.3-.23-.37-.4-.07-.16-.11-.51-.11-1.04v-2.98h-.64v-.68h.64v-1.28l.87-.53v1.81h.88v.68h-.88v3.03c0,.25.02.41.05.48.03.07.08.13.15.17.07.04.17.06.3.06.1,0,.23-.01.39-.03Z"/>
  <path id="ArialMT-693" data-name="ArialMT-69" d="M349.71,471.64v-1.01h.88v1.01h-.88ZM349.71,477.79v-5.19h.88v5.19h-.88Z"/>
  <path id="ArialMT-6f1" data-name="ArialMT-6f" d="M351.6,475.2c0-.96.27-1.67.8-2.13.45-.38.99-.58,1.63-.58.71,0,1.29.23,1.75.7.45.47.68,1.11.68,1.94,0,.67-.1,1.19-.3,1.58-.2.38-.49.68-.88.89-.38.21-.8.32-1.25.32-.73,0-1.31-.23-1.76-.7-.45-.47-.67-1.14-.67-2.01ZM352.5,475.2c0,.66.14,1.16.43,1.49.29.33.65.5,1.09.5s.8-.17,1.09-.5c.29-.33.43-.84.43-1.52,0-.64-.15-1.13-.44-1.46s-.65-.5-1.09-.5-.8.16-1.09.49c-.29.33-.43.82-.43,1.49Z"/>
  <path id="ArialMT-6e4" data-name="ArialMT-6e" d="M357.49,477.79v-5.19h.79v.74c.38-.57.93-.85,1.65-.85.31,0,.6.06.86.17s.46.26.59.44.22.4.27.65c.03.16.05.45.05.85v3.19h-.88v-3.15c0-.36-.03-.63-.1-.8-.07-.18-.19-.32-.36-.42-.17-.11-.38-.16-.61-.16-.38,0-.7.12-.97.36s-.41.69-.41,1.35v2.83h-.88Z"/>
  <path id="ArialMT-28" d="M320.55,490.62c-.49-.61-.9-1.33-1.23-2.15-.33-.82-.5-1.67-.5-2.55,0-.78.13-1.52.38-2.23.29-.82.75-1.64,1.36-2.46h.63c-.39.68-.65,1.16-.78,1.45-.2.45-.36.92-.47,1.41-.14.61-.21,1.22-.21,1.84,0,1.57.49,3.13,1.46,4.69h-.63Z"/>
  <path id="ArialMT-31" d="M325.26,488.51h-.88v-5.6c-.21.2-.49.4-.83.6s-.65.35-.93.45v-.85c.49-.23.92-.51,1.29-.84.37-.33.63-.65.78-.96h.57v7.19Z"/>
  <path id="ArialMT-30" d="M327.51,484.98c0-.85.09-1.53.26-2.04.17-.52.43-.91.78-1.19.34-.28.78-.42,1.3-.42.38,0,.72.08,1.01.23.29.15.53.38.72.67.19.29.34.65.45,1.06.11.42.16.98.16,1.69,0,.84-.09,1.52-.26,2.03-.17.52-.43.91-.77,1.2-.34.28-.78.42-1.3.42-.69,0-1.23-.25-1.63-.74-.47-.6-.71-1.57-.71-2.91ZM328.42,484.98c0,1.18.14,1.96.41,2.35.28.39.61.58,1.02.58s.74-.2,1.02-.59.41-1.17.41-2.34-.14-1.96-.41-2.35c-.28-.39-.62-.58-1.03-.58s-.73.17-.97.51c-.3.44-.45,1.24-.45,2.42Z"/>
  <path id="ArialMT-2d" d="M332.98,486.36v-.88h2.7v.88h-2.7Z"/>
  <path id="ArialMT-79" d="M336.61,490.51l-.1-.83c.19.05.36.08.5.08.2,0,.35-.03.47-.1.12-.06.21-.16.29-.27.06-.09.14-.31.27-.65.02-.05.04-.12.08-.22l-1.97-5.2h.95l1.08,3c.14.38.27.78.38,1.2.1-.4.22-.8.36-1.18l1.11-3.02h.88l-1.97,5.27c-.21.57-.38.96-.49,1.18-.16.29-.34.5-.54.64-.2.14-.44.2-.72.2-.17,0-.36-.04-.57-.11Z"/>
  <path id="ArialMT-721" data-name="ArialMT-72" d="M341.64,488.51v-5.19h.79v.79c.2-.37.39-.61.56-.73.17-.12.36-.18.56-.18.3,0,.6.09.9.28l-.3.82c-.21-.13-.43-.19-.64-.19-.19,0-.37.06-.52.17s-.26.28-.33.48c-.1.31-.15.65-.15,1.03v2.72h-.88Z"/>
  <path id="ArialMT-29" d="M345.56,490.62h-.63c.97-1.56,1.46-3.13,1.46-4.69,0-.61-.07-1.22-.21-1.82-.11-.49-.27-.96-.46-1.41-.13-.29-.39-.78-.79-1.46h.63c.61.82,1.06,1.64,1.36,2.46.25.71.38,1.45.38,2.23,0,.88-.17,1.73-.51,2.55-.34.82-.75,1.54-1.23,2.15Z"/>
  <path id="m41b3d2f2812" data-name="m41b3d2f281" class="st6" d="M495.64,452.79v3.5"/>
  <path id="ArialMT-57" d="M467.75,466.95l-1.9-7.16h.97l1.09,4.69c.12.49.22.98.3,1.46.18-.76.29-1.21.32-1.32l1.36-4.83h1.14l1.03,3.62c.26.9.44,1.74.56,2.53.09-.45.21-.97.36-1.56l1.12-4.6h.95l-1.96,7.16h-.91l-1.51-5.45c-.13-.46-.2-.73-.23-.84-.08.33-.15.61-.21.84l-1.52,5.45h-.97Z"/>
  <path id="ArialMT-613" data-name="ArialMT-61" d="M478.84,466.31c-.33.28-.64.47-.94.59-.3.11-.62.17-.97.17-.57,0-1.01-.14-1.31-.42s-.46-.63-.46-1.07c0-.25.06-.49.17-.7.12-.21.27-.38.45-.51s.4-.22.63-.29c.17-.05.43-.09.78-.13.71-.08,1.23-.18,1.57-.3,0-.12,0-.2,0-.23,0-.36-.08-.61-.25-.76-.22-.2-.56-.3-1-.3-.41,0-.72.07-.92.22s-.34.4-.44.77l-.86-.12c.08-.37.21-.66.39-.89.18-.23.44-.4.78-.52.34-.12.73-.18,1.18-.18s.8.05,1.08.16c.28.1.48.24.61.39.13.16.22.36.27.6.03.15.04.42.04.81v1.17c0,.82.02,1.33.06,1.55.04.22.11.42.22.62h-.92c-.09-.18-.15-.4-.18-.64ZM478.76,464.35c-.32.13-.8.24-1.44.33-.36.05-.62.11-.77.18-.15.06-.26.16-.35.28-.08.13-.12.26-.12.42,0,.23.09.43.27.59.18.16.44.23.78.23s.64-.07.9-.22c.26-.15.46-.35.58-.61.09-.2.14-.49.14-.88v-.32Z"/>
  <path id="ArialMT-722" data-name="ArialMT-72" d="M481.01,466.95v-5.19h.79v.79c.2-.37.39-.61.56-.73.17-.12.36-.18.56-.18.3,0,.6.09.9.28l-.3.82c-.21-.13-.43-.19-.64-.19-.19,0-.37.06-.52.17s-.26.28-.33.48c-.1.31-.15.65-.15,1.03v2.72h-.88Z"/>
  <path id="ArialMT-20" d="M483.69,466.95"/>
  <path id="ArialMT-571" data-name="ArialMT-57" d="M488.49,466.95l-1.9-7.16h.97l1.09,4.69c.12.49.22.98.3,1.46.18-.76.29-1.21.32-1.32l1.36-4.83h1.14l1.03,3.62c.26.9.44,1.74.56,2.53.09-.45.21-.97.36-1.56l1.12-4.6h.95l-1.96,7.16h-.91l-1.51-5.45c-.13-.46-.2-.73-.23-.84-.08.33-.15.61-.21.84l-1.52,5.45h-.97Z"/>
  <path id="ArialMT-614" data-name="ArialMT-61" d="M499.57,466.31c-.33.28-.64.47-.94.59-.3.11-.62.17-.97.17-.57,0-1.01-.14-1.31-.42s-.46-.63-.46-1.07c0-.25.06-.49.17-.7.12-.21.27-.38.45-.51s.4-.22.63-.29c.17-.05.43-.09.78-.13.71-.08,1.23-.18,1.57-.3,0-.12,0-.2,0-.23,0-.36-.08-.61-.25-.76-.22-.2-.56-.3-1-.3-.41,0-.72.07-.92.22s-.34.4-.44.77l-.86-.12c.08-.37.21-.66.39-.89.18-.23.44-.4.78-.52.34-.12.73-.18,1.18-.18s.8.05,1.08.16c.28.1.48.24.61.39.13.16.22.36.27.6.03.15.04.42.04.81v1.17c0,.82.02,1.33.06,1.55.04.22.11.42.22.62h-.92c-.09-.18-.15-.4-.18-.64ZM499.5,464.35c-.32.13-.8.24-1.44.33-.36.05-.62.11-.77.18-.15.06-.26.16-.35.28-.08.13-.12.26-.12.42,0,.23.09.43.27.59.18.16.44.23.78.23s.64-.07.9-.22c.26-.15.46-.35.58-.61.09-.2.14-.49.14-.88v-.32Z"/>
  <path id="ArialMT-733" data-name="ArialMT-73" d="M501.4,465.4l.87-.14c.05.35.18.61.41.8.22.19.53.28.94.28s.7-.08.9-.25c.2-.16.29-.36.29-.58,0-.2-.09-.35-.26-.47-.12-.08-.42-.18-.9-.3-.64-.16-1.09-.3-1.34-.42s-.44-.28-.57-.49c-.13-.21-.19-.44-.19-.7,0-.23.05-.44.16-.64.11-.2.25-.36.43-.49.14-.1.32-.18.56-.25.24-.07.49-.11.76-.11.41,0,.76.06,1.07.18.31.12.54.28.68.48.15.2.25.47.3.8l-.86.12c-.04-.27-.15-.47-.34-.62-.19-.15-.45-.23-.79-.23-.4,0-.69.07-.86.2-.17.13-.26.29-.26.47,0,.11.04.22.11.31.07.09.18.17.34.23.09.03.35.11.78.22.62.17,1.06.3,1.3.41.25.11.44.26.58.46.14.2.21.45.21.75s-.09.57-.26.83c-.17.26-.42.46-.74.6-.32.14-.69.21-1.09.21-.67,0-1.19-.14-1.54-.42-.35-.28-.58-.7-.68-1.25Z"/>
  <path id="ArialMT-743" data-name="ArialMT-74" d="M508.67,466.16l.13.78c-.25.05-.47.08-.66.08-.32,0-.57-.05-.74-.15-.18-.1-.3-.23-.37-.4-.07-.16-.11-.51-.11-1.04v-2.98h-.64v-.68h.64v-1.28l.87-.53v1.81h.88v.68h-.88v3.03c0,.25.02.41.05.48.03.07.08.13.15.17.07.04.17.06.3.06.1,0,.23-.01.39-.03Z"/>
  <path id="ArialMT-615" data-name="ArialMT-61" d="M512.91,466.31c-.33.28-.64.47-.94.59-.3.11-.62.17-.97.17-.57,0-1.01-.14-1.31-.42s-.46-.63-.46-1.07c0-.25.06-.49.17-.7.12-.21.27-.38.45-.51s.4-.22.63-.29c.17-.05.43-.09.78-.13.71-.08,1.23-.18,1.57-.3,0-.12,0-.2,0-.23,0-.36-.08-.61-.25-.76-.22-.2-.56-.3-1-.3-.41,0-.72.07-.92.22s-.34.4-.44.77l-.86-.12c.08-.37.21-.66.39-.89.18-.23.44-.4.78-.52.34-.12.73-.18,1.18-.18s.8.05,1.08.16c.28.1.48.24.61.39.13.16.22.36.27.6.03.15.04.42.04.81v1.17c0,.82.02,1.33.06,1.55.04.22.11.42.22.62h-.92c-.09-.18-.15-.4-.18-.64ZM512.84,464.35c-.32.13-.8.24-1.44.33-.36.05-.62.11-.77.18-.15.06-.26.16-.35.28-.08.13-.12.26-.12.42,0,.23.09.43.27.59.18.16.44.23.78.23s.64-.07.9-.22c.26-.15.46-.35.58-.61.09-.2.14-.49.14-.88v-.32Z"/>
  <path id="ArialMT-671" data-name="ArialMT-67" d="M514.93,467.38l.85.13c.04.26.13.46.3.58.22.16.52.24.89.24.41,0,.72-.08.94-.24.22-.16.37-.39.45-.68.05-.18.07-.56.06-1.13-.38.45-.86.68-1.43.68-.71,0-1.27-.26-1.66-.77-.39-.51-.59-1.13-.59-1.85,0-.49.09-.95.27-1.37.18-.42.44-.74.78-.97.34-.23.74-.34,1.2-.34.61,0,1.12.25,1.51.74v-.63h.81v4.48c0,.81-.08,1.38-.25,1.72-.16.34-.42.6-.78.8-.36.2-.79.29-1.32.29-.62,0-1.12-.14-1.5-.42s-.57-.7-.55-1.26ZM515.65,464.26c0,.68.13,1.18.4,1.49.27.31.61.47,1.02.47s.74-.16,1.01-.47c.27-.31.41-.8.41-1.46s-.14-1.11-.42-1.43c-.28-.32-.62-.48-1.02-.48s-.72.16-1,.48c-.27.32-.41.79-.41,1.41Z"/>
  <path id="ArialMT-653" data-name="ArialMT-65" d="M524.2,465.28l.91.11c-.14.53-.41.94-.8,1.24-.39.29-.88.44-1.48.44-.76,0-1.36-.23-1.8-.7-.44-.47-.67-1.12-.67-1.97s.22-1.55.67-2.03c.45-.48,1.03-.72,1.75-.72s1.26.24,1.7.71.66,1.14.66,1.99c0,.05,0,.13,0,.23h-3.87c.03.57.19,1.01.48,1.31.29.3.65.45,1.08.45.32,0,.6-.08.83-.25.23-.17.41-.44.54-.81ZM521.31,463.86h2.9c-.04-.44-.15-.76-.33-.98-.28-.34-.64-.51-1.09-.51-.4,0-.74.13-1.02.4s-.43.63-.46,1.08Z"/>
  <path id="ArialMT-52" d="M475.31,477.64v-7.16h3.17c.64,0,1.12.06,1.45.19.33.13.6.36.8.68.2.33.3.68.3,1.08,0,.51-.16.94-.49,1.28-.33.35-.84.57-1.52.66.25.12.44.24.57.36.28.25.54.57.79.95l1.25,1.95h-1.19l-.95-1.49c-.28-.43-.51-.76-.68-.99-.18-.23-.34-.39-.48-.48-.14-.09-.29-.16-.43-.19-.11-.02-.28-.03-.53-.03h-1.1v3.18h-.95ZM476.26,473.65h2.04c.43,0,.77-.04,1.01-.13.24-.09.43-.23.56-.43s.19-.41.19-.64c0-.34-.12-.62-.37-.83-.25-.22-.63-.33-1.17-.33h-2.27v2.37Z"/>
  <path id="ArialMT-654" data-name="ArialMT-65" d="M485.95,475.97l.91.11c-.14.53-.41.94-.8,1.24-.39.29-.88.44-1.48.44-.76,0-1.36-.23-1.8-.7-.44-.47-.67-1.12-.67-1.97s.22-1.55.67-2.03c.45-.48,1.03-.72,1.75-.72s1.26.24,1.7.71.66,1.14.66,1.99c0,.05,0,.13,0,.23h-3.87c.03.57.19,1.01.48,1.31.29.3.65.45,1.08.45.32,0,.6-.08.83-.25.23-.17.41-.44.54-.81ZM483.07,474.55h2.9c-.04-.44-.15-.76-.33-.98-.28-.34-.64-.51-1.09-.51-.4,0-.74.13-1.02.4s-.43.63-.46,1.08Z"/>
  <path id="ArialMT-734" data-name="ArialMT-73" d="M487.61,476.1l.87-.14c.05.35.18.61.41.8.22.19.53.28.94.28s.7-.08.9-.25c.2-.16.29-.36.29-.58,0-.2-.09-.35-.26-.47-.12-.08-.42-.18-.9-.3-.64-.16-1.09-.3-1.34-.42s-.44-.28-.57-.49c-.13-.21-.19-.44-.19-.7,0-.23.05-.44.16-.64.11-.2.25-.36.43-.49.14-.1.32-.18.56-.25.24-.07.49-.11.76-.11.41,0,.76.06,1.07.18.31.12.54.28.68.48.15.2.25.47.3.8l-.86.12c-.04-.27-.15-.47-.34-.62-.19-.15-.45-.23-.79-.23-.4,0-.69.07-.86.2-.17.13-.26.29-.26.47,0,.11.04.22.11.31.07.09.18.17.34.23.09.03.35.11.78.22.62.17,1.06.3,1.3.41.25.11.44.26.58.46.14.2.21.45.21.75s-.09.57-.26.83c-.17.26-.42.46-.74.6-.32.14-.69.21-1.09.21-.67,0-1.19-.14-1.54-.42-.35-.28-.58-.7-.68-1.25Z"/>
  <path id="ArialMT-655" data-name="ArialMT-65" d="M496.52,475.97l.91.11c-.14.53-.41.94-.8,1.24-.39.29-.88.44-1.48.44-.76,0-1.36-.23-1.8-.7-.44-.47-.67-1.12-.67-1.97s.22-1.55.67-2.03c.45-.48,1.03-.72,1.75-.72s1.26.24,1.7.71.66,1.14.66,1.99c0,.05,0,.13,0,.23h-3.87c.03.57.19,1.01.48,1.31.29.3.65.45,1.08.45.32,0,.6-.08.83-.25.23-.17.41-.44.54-.81ZM493.63,474.55h2.9c-.04-.44-.15-.76-.33-.98-.28-.34-.64-.51-1.09-.51-.4,0-.74.13-1.02.4s-.43.63-.46,1.08Z"/>
  <path id="ArialMT-723" data-name="ArialMT-72" d="M498.52,477.64v-5.19h.79v.79c.2-.37.39-.61.56-.73.17-.12.36-.18.56-.18.3,0,.6.09.9.28l-.3.82c-.21-.13-.43-.19-.64-.19-.19,0-.37.06-.52.17s-.26.28-.33.48c-.1.31-.15.65-.15,1.03v2.72h-.88Z"/>
  <path id="ArialMT-76" d="M503.3,477.64l-1.97-5.19h.93l1.11,3.11c.12.34.23.68.33,1.04.08-.27.19-.6.33-.99l1.15-3.16h.9l-1.96,5.19h-.82Z"/>
  <path id="ArialMT-656" data-name="ArialMT-65" d="M510.41,475.97l.91.11c-.14.53-.41.94-.8,1.24-.39.29-.88.44-1.48.44-.76,0-1.36-.23-1.8-.7-.44-.47-.67-1.12-.67-1.97s.22-1.55.67-2.03c.45-.48,1.03-.72,1.75-.72s1.26.24,1.7.71.66,1.14.66,1.99c0,.05,0,.13,0,.23h-3.87c.03.57.19,1.01.48,1.31.29.3.65.45,1.08.45.32,0,.6-.08.83-.25.23-.17.41-.44.54-.81ZM507.52,474.55h2.9c-.04-.44-.15-.76-.33-.98-.28-.34-.64-.51-1.09-.51-.4,0-.74.13-1.02.4s-.43.63-.46,1.08Z"/>
  <path id="ArialMT-735" data-name="ArialMT-73" d="M512.07,476.1l.87-.14c.05.35.18.61.41.8.22.19.53.28.94.28s.7-.08.9-.25c.2-.16.29-.36.29-.58,0-.2-.09-.35-.26-.47-.12-.08-.42-.18-.9-.3-.64-.16-1.09-.3-1.34-.42s-.44-.28-.57-.49c-.13-.21-.19-.44-.19-.7,0-.23.05-.44.16-.64.11-.2.25-.36.43-.49.14-.1.32-.18.56-.25.24-.07.49-.11.76-.11.41,0,.76.06,1.07.18.31.12.54.28.68.48.15.2.25.47.3.8l-.86.12c-.04-.27-.15-.47-.34-.62-.19-.15-.45-.23-.79-.23-.4,0-.69.07-.86.2-.17.13-.26.29-.26.47,0,.11.04.22.11.31.07.09.18.17.34.23.09.03.35.11.78.22.62.17,1.06.3,1.3.41.25.11.44.26.58.46.14.2.21.45.21.75s-.09.57-.26.83c-.17.26-.42.46-.74.6-.32.14-.69.21-1.09.21-.67,0-1.19-.14-1.54-.42-.35-.28-.58-.7-.68-1.25Z"/>
  <path id="m41b3d2f2813" data-name="m41b3d2f281" class="st6" d="M658.35,452.79v3.5"/>
  <path id="ArialMT-521" data-name="ArialMT-52" d="M625.79,466.95v-7.16h3.17c.64,0,1.12.06,1.45.19.33.13.6.36.8.68.2.33.3.68.3,1.08,0,.51-.16.94-.49,1.28-.33.35-.84.57-1.52.66.25.12.44.24.57.36.28.25.54.57.79.95l1.25,1.95h-1.19l-.95-1.49c-.28-.43-.51-.76-.68-.99-.18-.23-.34-.39-.48-.48-.14-.09-.29-.16-.43-.19-.11-.02-.28-.03-.53-.03h-1.1v3.18h-.95ZM626.73,462.95h2.04c.43,0,.77-.04,1.01-.13.24-.09.43-.23.56-.43s.19-.41.19-.64c0-.34-.12-.62-.37-.83-.25-.22-.63-.33-1.17-.33h-2.27v2.37Z"/>
  <path id="ArialMT-657" data-name="ArialMT-65" d="M636.43,465.28l.91.11c-.14.53-.41.94-.8,1.24-.39.29-.88.44-1.48.44-.76,0-1.36-.23-1.8-.7-.44-.47-.67-1.12-.67-1.97s.22-1.55.67-2.03c.45-.48,1.03-.72,1.75-.72s1.26.24,1.7.71.66,1.14.66,1.99c0,.05,0,.13,0,.23h-3.87c.03.57.19,1.01.48,1.31.29.3.65.45,1.08.45.32,0,.6-.08.83-.25.23-.17.41-.44.54-.81ZM633.55,463.86h2.9c-.04-.44-.15-.76-.33-.98-.28-.34-.64-.51-1.09-.51-.4,0-.74.13-1.02.4s-.43.63-.46,1.08Z"/>
  <path id="ArialMT-701" data-name="ArialMT-70" d="M638.44,468.94v-7.17h.8v.67c.19-.26.4-.46.64-.59.24-.13.53-.2.86-.2.44,0,.83.11,1.17.34s.59.55.77.97c.17.41.26.87.26,1.36,0,.53-.1,1.01-.29,1.43-.19.43-.47.75-.83.98-.36.23-.74.34-1.15.34-.29,0-.56-.06-.79-.19-.23-.12-.42-.28-.57-.47v2.53h-.88ZM639.24,464.39c0,.67.13,1.16.4,1.48.27.32.6.48.98.48s.73-.17,1-.5c.28-.33.42-.84.42-1.54s-.14-1.15-.41-1.48c-.27-.33-.6-.49-.97-.49s-.71.18-1,.53c-.29.35-.43.86-.43,1.53Z"/>
  <path id="ArialMT-6c1" data-name="ArialMT-6c" d="M643.99,466.95v-7.16h.88v7.16h-.88Z"/>
  <path id="ArialMT-658" data-name="ArialMT-65" d="M649.78,465.28l.91.11c-.14.53-.41.94-.8,1.24-.39.29-.88.44-1.48.44-.76,0-1.36-.23-1.8-.7-.44-.47-.67-1.12-.67-1.97s.22-1.55.67-2.03c.45-.48,1.03-.72,1.75-.72s1.26.24,1.7.71.66,1.14.66,1.99c0,.05,0,.13,0,.23h-3.87c.03.57.19,1.01.48,1.31.29.3.65.45,1.08.45.32,0,.6-.08.83-.25.23-.17.41-.44.54-.81ZM646.89,463.86h2.9c-.04-.44-.15-.76-.33-.98-.28-.34-.64-.51-1.09-.51-.4,0-.74.13-1.02.4s-.43.63-.46,1.08Z"/>
  <path id="ArialMT-6e5" data-name="ArialMT-6e" d="M651.79,466.95v-5.19h.79v.74c.38-.57.93-.85,1.65-.85.31,0,.6.06.86.17s.46.26.59.44.22.4.27.65c.03.16.05.45.05.85v3.19h-.88v-3.15c0-.36-.03-.63-.1-.8-.07-.18-.19-.32-.36-.42-.17-.11-.38-.16-.61-.16-.38,0-.7.12-.97.36s-.41.69-.41,1.35v2.83h-.88Z"/>
  <path id="ArialMT-694" data-name="ArialMT-69" d="M657.36,460.8v-1.01h.88v1.01h-.88ZM657.36,466.95v-5.19h.88v5.19h-.88Z"/>
  <path id="ArialMT-736" data-name="ArialMT-73" d="M659.22,465.4l.87-.14c.05.35.18.61.41.8.22.19.53.28.94.28s.7-.08.9-.25c.2-.16.29-.36.29-.58,0-.2-.09-.35-.26-.47-.12-.08-.42-.18-.9-.3-.64-.16-1.09-.3-1.34-.42s-.44-.28-.57-.49c-.13-.21-.19-.44-.19-.7,0-.23.05-.44.16-.64.11-.2.25-.36.43-.49.14-.1.32-.18.56-.25.24-.07.49-.11.76-.11.41,0,.76.06,1.07.18.31.12.54.28.68.48.15.2.25.47.3.8l-.86.12c-.04-.27-.15-.47-.34-.62-.19-.15-.45-.23-.79-.23-.4,0-.69.07-.86.2-.17.13-.26.29-.26.47,0,.11.04.22.11.31.07.09.18.17.34.23.09.03.35.11.78.22.62.17,1.06.3,1.3.41.25.11.44.26.58.46.14.2.21.45.21.75s-.09.57-.26.83c-.17.26-.42.46-.74.6-.32.14-.69.21-1.09.21-.67,0-1.19-.14-1.54-.42-.35-.28-.58-.7-.68-1.25Z"/>
  <path id="ArialMT-681" data-name="ArialMT-68" d="M664.57,466.95v-7.16h.88v2.57c.41-.48.93-.71,1.55-.71.38,0,.72.08,1,.23.28.15.49.36.61.63s.18.65.18,1.16v3.29h-.88v-3.29c0-.44-.1-.76-.29-.96s-.46-.3-.81-.3c-.26,0-.51.07-.74.2-.23.13-.39.32-.49.55-.1.23-.15.55-.15.96v2.84h-.88Z"/>
  <path id="ArialMT-6d2" data-name="ArialMT-6d" d="M670.13,466.95v-5.19h.79v.73c.16-.25.38-.46.65-.61.27-.16.58-.23.92-.23.38,0,.7.08.95.24s.42.38.52.67c.41-.61.94-.91,1.6-.91.51,0,.91.14,1.19.43.28.28.42.72.42,1.32v3.56h-.88v-3.27c0-.35-.03-.6-.09-.76-.06-.16-.16-.28-.31-.37-.15-.09-.32-.14-.53-.14-.36,0-.67.12-.91.36-.24.24-.36.63-.36,1.16v3.01h-.88v-3.37c0-.39-.07-.68-.22-.88-.14-.2-.38-.29-.7-.29-.25,0-.48.07-.69.2-.21.13-.36.32-.46.57-.09.25-.14.61-.14,1.08v2.69h-.88Z"/>
  <path id="ArialMT-659" data-name="ArialMT-65" d="M682.01,465.28l.91.11c-.14.53-.41.94-.8,1.24-.39.29-.88.44-1.48.44-.76,0-1.36-.23-1.8-.7-.44-.47-.67-1.12-.67-1.97s.22-1.55.67-2.03c.45-.48,1.03-.72,1.75-.72s1.26.24,1.7.71.66,1.14.66,1.99c0,.05,0,.13,0,.23h-3.87c.03.57.19,1.01.48,1.31.29.3.65.45,1.08.45.32,0,.6-.08.83-.25.23-.17.41-.44.54-.81ZM679.13,463.86h2.9c-.04-.44-.15-.76-.33-.98-.28-.34-.64-.51-1.09-.51-.4,0-.74.13-1.02.4s-.43.63-.46,1.08Z"/>
  <path id="ArialMT-6e6" data-name="ArialMT-6e" d="M684.03,466.95v-5.19h.79v.74c.38-.57.93-.85,1.65-.85.31,0,.6.06.86.17s.46.26.59.44.22.4.27.65c.03.16.05.45.05.85v3.19h-.88v-3.15c0-.36-.03-.63-.1-.8-.07-.18-.19-.32-.36-.42-.17-.11-.38-.16-.61-.16-.38,0-.7.12-.97.36s-.41.69-.41,1.35v2.83h-.88Z"/>
  <path id="ArialMT-744" data-name="ArialMT-74" d="M691.51,466.16l.13.78c-.25.05-.47.08-.66.08-.32,0-.57-.05-.74-.15-.18-.1-.3-.23-.37-.4-.07-.16-.11-.51-.11-1.04v-2.98h-.64v-.68h.64v-1.28l.87-.53v1.81h.88v.68h-.88v3.03c0,.25.02.41.05.48.03.07.08.13.15.17.07.04.17.06.3.06.1,0,.23-.01.39-.03Z"/>
  <path id="ArialMT-53" d="M646.3,475.23l.89-.08c.04.36.14.65.3.88.16.23.4.41.72.56.33.14.69.21,1.1.21.36,0,.68-.05.96-.16.28-.11.48-.25.62-.44.14-.19.2-.39.2-.61s-.07-.42-.2-.59-.34-.31-.64-.42c-.19-.08-.62-.19-1.28-.35-.66-.16-1.12-.31-1.38-.45-.34-.18-.6-.4-.77-.67-.17-.27-.25-.56-.25-.89,0-.36.1-.7.31-1.01.21-.31.5-.55.9-.72.39-.16.83-.24,1.31-.24.53,0,1,.09,1.4.26.41.17.72.42.94.75.22.33.33.71.35,1.13l-.91.07c-.05-.45-.21-.79-.5-1.03-.28-.23-.7-.35-1.25-.35s-.99.11-1.25.32c-.26.21-.39.46-.39.76,0,.26.09.47.28.64.18.17.66.34,1.43.51.77.17,1.3.33,1.58.46.42.19.72.44.92.73.2.29.3.63.3,1.02s-.11.74-.33,1.08c-.22.34-.53.6-.94.79-.41.19-.87.28-1.38.28-.65,0-1.19-.09-1.63-.28-.44-.19-.78-.47-1.03-.85-.25-.38-.38-.81-.39-1.29Z"/>
  <path id="ArialMT-745" data-name="ArialMT-74" d="M655.1,476.74l.13.78c-.25.05-.47.08-.66.08-.32,0-.57-.05-.74-.15-.18-.1-.3-.23-.37-.4-.07-.16-.11-.51-.11-1.04v-2.98h-.64v-.68h.64v-1.28l.87-.53v1.81h.88v.68h-.88v3.03c0,.25.02.41.05.48.03.07.08.13.15.17.07.04.17.06.3.06.1,0,.23-.01.39-.03Z"/>
  <path id="ArialMT-6f2" data-name="ArialMT-6f" d="M655.63,474.93c0-.96.27-1.67.8-2.13.45-.38.99-.58,1.63-.58.71,0,1.29.23,1.75.7.45.47.68,1.11.68,1.94,0,.67-.1,1.19-.3,1.58-.2.38-.49.68-.88.89-.38.21-.8.32-1.25.32-.73,0-1.31-.23-1.76-.7-.45-.47-.67-1.14-.67-2.01ZM656.53,474.93c0,.66.14,1.16.43,1.49.29.33.65.5,1.09.5s.8-.17,1.09-.5c.29-.33.43-.84.43-1.52,0-.64-.15-1.13-.44-1.46s-.65-.5-1.09-.5-.8.16-1.09.49c-.29.33-.43.82-.43,1.49Z"/>
  <path id="ArialMT-631" data-name="ArialMT-63" d="M664.9,475.63l.86.11c-.09.6-.34,1.06-.73,1.4-.39.34-.87.5-1.43.5-.71,0-1.28-.23-1.71-.7-.43-.46-.65-1.13-.65-2,0-.56.09-1.05.28-1.47.19-.42.47-.74.85-.95.38-.21.79-.32,1.24-.32.56,0,1.02.14,1.38.43.36.28.59.69.69,1.21l-.85.13c-.08-.35-.23-.61-.43-.79-.21-.18-.46-.26-.75-.26-.44,0-.8.16-1.08.48-.28.32-.41.82-.41,1.5s.13,1.2.4,1.52c.27.32.62.47,1.05.47.34,0,.63-.11.86-.32.23-.21.38-.54.44-.98Z"/>
  <path id="ArialMT-6b" d="M666.52,477.53v-7.16h.88v4.08l2.08-2.11h1.14l-1.98,1.92,2.18,3.26h-1.08l-1.71-2.65-.62.6v2.06h-.88Z"/>
  <path id="m41b3d2f2814" data-name="m41b3d2f281" class="st6" d="M821.06,452.79v3.5"/>
  <path id="ArialMT-541" data-name="ArialMT-54" d="M808,466.95v-6.31h-2.36v-.84h5.67v.84h-2.37v6.31h-.95Z"/>
  <path id="ArialMT-4f" d="M811.82,463.46c0-1.19.32-2.12.96-2.79.64-.67,1.46-1.01,2.47-1.01.66,0,1.26.16,1.79.48.53.32.93.76,1.21,1.32.28.56.42,1.21.42,1.92s-.15,1.37-.44,1.95c-.29.57-.71,1.01-1.25,1.3-.54.29-1.12.44-1.74.44-.67,0-1.28-.16-1.81-.49-.53-.33-.93-.77-1.21-1.33-.27-.56-.41-1.16-.41-1.79ZM812.8,463.48c0,.86.23,1.54.7,2.04.46.5,1.05.74,1.75.74s1.3-.25,1.76-.75c.46-.5.69-1.21.69-2.13,0-.58-.1-1.09-.3-1.53s-.49-.77-.87-1.01c-.38-.24-.8-.36-1.28-.36-.67,0-1.25.23-1.73.69-.48.46-.73,1.23-.73,2.31Z"/>
  <path id="ArialMT-542" data-name="ArialMT-54" d="M821.71,466.95v-6.31h-2.36v-.84h5.67v.84h-2.37v6.31h-.95Z"/>
  <path id="ArialMT-41" d="M824.48,466.95l2.75-7.16h1.02l2.93,7.16h-1.08l-.84-2.17h-2.99l-.79,2.17h-1ZM826.54,464.01h2.43l-.75-1.98c-.23-.6-.4-1.1-.51-1.48-.09.46-.22.92-.39,1.37l-.79,2.1Z"/>
  <path id="ArialMT-4c" d="M831.89,466.95v-7.16h.95v6.31h3.53v.85h-4.47Z"/>
  <path id="ArialMT-44" d="M800.17,477.53v-7.16h2.47c.56,0,.98.03,1.28.1.41.09.76.27,1.05.51.38.32.66.73.85,1.23.19.5.28,1.06.28,1.7,0,.54-.06,1.03-.19,1.45-.13.42-.29.77-.49,1.04-.2.28-.42.49-.65.65-.24.16-.52.28-.85.36s-.72.12-1.15.12h-2.58ZM801.12,476.68h1.53c.47,0,.84-.04,1.11-.13s.48-.21.64-.37c.23-.22.4-.53.53-.9s.19-.84.19-1.38c0-.75-.12-1.32-.37-1.73s-.54-.67-.9-.81c-.25-.1-.66-.15-1.23-.15h-1.5v5.47Z"/>
  <path id="ArialMT-451" data-name="ArialMT-45" d="M807.41,477.53v-7.16h5.18v.84h-4.23v2.19h3.96v.84h-3.96v2.44h4.39v.85h-5.34Z"/>
  <path id="ArialMT-4d" d="M814.03,477.53v-7.16h1.43l1.69,5.07c.16.47.27.83.34,1.06.08-.26.21-.64.38-1.15l1.71-4.98h1.28v7.16h-.91v-5.99l-2.08,5.99h-.85l-2.07-6.09v6.09h-.91Z"/>
  <path id="ArialMT-411" data-name="ArialMT-41" d="M821.6,477.53l2.75-7.16h1.02l2.93,7.16h-1.08l-.84-2.17h-2.99l-.79,2.17h-1ZM823.67,474.59h2.43l-.75-1.98c-.23-.6-.4-1.1-.51-1.48-.09.46-.22.92-.39,1.37l-.79,2.1Z"/>
  <path id="ArialMT-4e" d="M829.05,477.53v-7.16h.97l3.76,5.62v-5.62h.91v7.16h-.97l-3.76-5.63v5.63h-.91Z"/>
  <path id="ArialMT-441" data-name="ArialMT-44" d="M836.28,477.53v-7.16h2.47c.56,0,.98.03,1.28.1.41.09.76.27,1.05.51.38.32.66.73.85,1.23.19.5.28,1.06.28,1.7,0,.54-.06,1.03-.19,1.45-.13.42-.29.77-.49,1.04-.2.28-.42.49-.65.65-.24.16-.52.28-.85.36s-.72.12-1.15.12h-2.58ZM837.23,476.68h1.53c.47,0,.84-.04,1.11-.13s.48-.21.64-.37c.23-.22.4-.53.53-.9s.19-.84.19-1.38c0-.75-.12-1.32-.37-1.73s-.54-.67-.9-.81c-.25-.1-.66-.15-1.23-.15h-1.5v5.47Z"/>
  <g class="st17">
    <path class="st10" d="M66.08,452.79h859.12"/>
  </g>
  <path id="m7605fd834d" class="st6" d="M66.08,452.79h-3.5"/>
  <path id="ArialMT-301" data-name="ArialMT-30" d="M53.93,452.84c0-.85.09-1.53.26-2.04.17-.52.43-.91.78-1.19.34-.28.78-.42,1.3-.42.38,0,.72.08,1.01.23.29.15.53.38.72.67.19.29.34.65.45,1.06.11.42.16.98.16,1.69,0,.84-.09,1.52-.26,2.03-.17.52-.43.91-.77,1.2-.34.28-.78.42-1.3.42-.69,0-1.23-.25-1.63-.74-.47-.6-.71-1.57-.71-2.91ZM54.84,452.84c0,1.18.14,1.96.41,2.35.28.39.61.58,1.02.58s.74-.2,1.02-.59.41-1.17.41-2.34-.14-1.96-.41-2.35c-.28-.39-.62-.58-1.03-.58s-.73.17-.97.51c-.3.44-.45,1.24-.45,2.42Z"/>
  <g class="st0">
    <path class="st10" d="M66.08,403.64h859.12"/>
  </g>
  <path id="m7605fd834d1" data-name="m7605fd834d" class="st6" d="M66.08,403.64h-3.5"/>
  <path id="ArialMT-35" d="M31.69,405.34l.92-.08c.07.45.23.79.48,1.01.25.23.55.34.9.34.42,0,.78-.16,1.07-.48.29-.32.44-.74.44-1.27s-.14-.9-.42-1.19c-.28-.29-.65-.44-1.11-.44-.28,0-.54.06-.77.19-.23.13-.41.29-.54.5l-.83-.11.69-3.68h3.56v.84h-2.86l-.38,1.92c.43-.3.88-.45,1.35-.45.63,0,1.15.22,1.58.65.43.43.65.99.65,1.67s-.19,1.21-.57,1.68c-.46.58-1.09.87-1.88.87-.65,0-1.18-.18-1.6-.55-.41-.36-.65-.85-.7-1.45Z"/>
  <path id="ArialMT-302" data-name="ArialMT-30" d="M37.25,403.69c0-.85.09-1.53.26-2.04.17-.52.43-.91.78-1.19.34-.28.78-.42,1.3-.42.38,0,.72.08,1.01.23.29.15.53.38.72.67.19.29.34.65.45,1.06.11.42.16.98.16,1.69,0,.84-.09,1.52-.26,2.03-.17.52-.43.91-.77,1.2-.34.28-.78.42-1.3.42-.69,0-1.23-.25-1.63-.74-.47-.6-.71-1.57-.71-2.91ZM38.16,403.69c0,1.18.14,1.96.41,2.35.28.39.61.58,1.02.58s.74-.2,1.02-.59.41-1.17.41-2.34-.14-1.96-.41-2.35c-.28-.39-.62-.58-1.03-.58s-.73.17-.97.51c-.3.44-.45,1.24-.45,2.42Z"/>
  <path id="ArialMT-303" data-name="ArialMT-30" d="M42.81,403.69c0-.85.09-1.53.26-2.04.17-.52.43-.91.78-1.19.34-.28.78-.42,1.3-.42.38,0,.72.08,1.01.23.29.15.53.38.72.67.19.29.34.65.45,1.06.11.42.16.98.16,1.69,0,.84-.09,1.52-.26,2.03-.17.52-.43.91-.77,1.2-.34.28-.78.42-1.3.42-.69,0-1.23-.25-1.63-.74-.47-.6-.71-1.57-.71-2.91ZM43.72,403.69c0,1.18.14,1.96.41,2.35.28.39.61.58,1.02.58s.74-.2,1.02-.59.41-1.17.41-2.34-.14-1.96-.41-2.35c-.28-.39-.62-.58-1.03-.58s-.73.17-.97.51c-.3.44-.45,1.24-.45,2.42Z"/>
  <path id="ArialMT-304" data-name="ArialMT-30" d="M48.38,403.69c0-.85.09-1.53.26-2.04.17-.52.43-.91.78-1.19.34-.28.78-.42,1.3-.42.38,0,.72.08,1.01.23.29.15.53.38.72.67.19.29.34.65.45,1.06.11.42.16.98.16,1.69,0,.84-.09,1.52-.26,2.03-.17.52-.43.91-.77,1.2-.34.28-.78.42-1.3.42-.69,0-1.23-.25-1.63-.74-.47-.6-.71-1.57-.71-2.91ZM49.28,403.69c0,1.18.14,1.96.41,2.35.28.39.61.58,1.02.58s.74-.2,1.02-.59.41-1.17.41-2.34-.14-1.96-.41-2.35c-.28-.39-.62-.58-1.03-.58s-.73.17-.97.51c-.3.44-.45,1.24-.45,2.42Z"/>
  <path id="ArialMT-305" data-name="ArialMT-30" d="M53.94,403.69c0-.85.09-1.53.26-2.04.17-.52.43-.91.78-1.19.34-.28.78-.42,1.3-.42.38,0,.72.08,1.01.23.29.15.53.38.72.67.19.29.34.65.45,1.06.11.42.16.98.16,1.69,0,.84-.09,1.52-.26,2.03-.17.52-.43.91-.77,1.2-.34.28-.78.42-1.3.42-.69,0-1.23-.25-1.63-.74-.47-.6-.71-1.57-.71-2.91ZM54.84,403.69c0,1.18.14,1.96.41,2.35.28.39.61.58,1.02.58s.74-.2,1.02-.59.41-1.17.41-2.34-.14-1.96-.41-2.35c-.28-.39-.62-.58-1.03-.58s-.73.17-.97.51c-.3.44-.45,1.24-.45,2.42Z"/>
  <g class="st1">
    <path class="st10" d="M66.08,354.48h859.12"/>
  </g>
  <path id="m7605fd834d2" data-name="m7605fd834d" class="st6" d="M66.08,354.48h-3.5"/>
  <path id="ArialMT-311" data-name="ArialMT-31" d="M29.44,358.06h-.88v-5.6c-.21.2-.49.4-.83.6s-.65.35-.93.45v-.85c.49-.23.92-.51,1.29-.84.37-.33.63-.65.78-.96h.57v7.19Z"/>
  <path id="ArialMT-306" data-name="ArialMT-30" d="M31.69,354.53c0-.85.09-1.53.26-2.04.17-.52.43-.91.78-1.19.34-.28.78-.42,1.3-.42.38,0,.72.08,1.01.23.29.15.53.38.72.67.19.29.34.65.45,1.06.11.42.16.98.16,1.69,0,.84-.09,1.52-.26,2.03-.17.52-.43.91-.77,1.2-.34.28-.78.42-1.3.42-.69,0-1.23-.25-1.63-.74-.47-.6-.71-1.57-.71-2.91ZM32.59,354.53c0,1.18.14,1.96.41,2.35.28.39.61.58,1.02.58s.74-.2,1.02-.59.41-1.17.41-2.34-.14-1.96-.41-2.35c-.28-.39-.62-.58-1.03-.58s-.73.17-.97.51c-.3.44-.45,1.24-.45,2.42Z"/>
  <path id="ArialMT-307" data-name="ArialMT-30" d="M37.25,354.53c0-.85.09-1.53.26-2.04.17-.52.43-.91.78-1.19.34-.28.78-.42,1.3-.42.38,0,.72.08,1.01.23.29.15.53.38.72.67.19.29.34.65.45,1.06.11.42.16.98.16,1.69,0,.84-.09,1.52-.26,2.03-.17.52-.43.91-.77,1.2-.34.28-.78.42-1.3.42-.69,0-1.23-.25-1.63-.74-.47-.6-.71-1.57-.71-2.91ZM38.16,354.53c0,1.18.14,1.96.41,2.35.28.39.61.58,1.02.58s.74-.2,1.02-.59.41-1.17.41-2.34-.14-1.96-.41-2.35c-.28-.39-.62-.58-1.03-.58s-.73.17-.97.51c-.3.44-.45,1.24-.45,2.42Z"/>
  <path id="ArialMT-308" data-name="ArialMT-30" d="M42.81,354.53c0-.85.09-1.53.26-2.04.17-.52.43-.91.78-1.19.34-.28.78-.42,1.3-.42.38,0,.72.08,1.01.23.29.15.53.38.72.67.19.29.34.65.45,1.06.11.42.16.98.16,1.69,0,.84-.09,1.52-.26,2.03-.17.52-.43.91-.77,1.2-.34.28-.78.42-1.3.42-.69,0-1.23-.25-1.63-.74-.47-.6-.71-1.57-.71-2.91ZM43.72,354.53c0,1.18.14,1.96.41,2.35.28.39.61.58,1.02.58s.74-.2,1.02-.59.41-1.17.41-2.34-.14-1.96-.41-2.35c-.28-.39-.62-.58-1.03-.58s-.73.17-.97.51c-.3.44-.45,1.24-.45,2.42Z"/>
  <path id="ArialMT-309" data-name="ArialMT-30" d="M48.38,354.53c0-.85.09-1.53.26-2.04.17-.52.43-.91.78-1.19.34-.28.78-.42,1.3-.42.38,0,.72.08,1.01.23.29.15.53.38.72.67.19.29.34.65.45,1.06.11.42.16.98.16,1.69,0,.84-.09,1.52-.26,2.03-.17.52-.43.91-.77,1.2-.34.28-.78.42-1.3.42-.69,0-1.23-.25-1.63-.74-.47-.6-.71-1.57-.71-2.91ZM49.28,354.53c0,1.18.14,1.96.41,2.35.28.39.61.58,1.02.58s.74-.2,1.02-.59.41-1.17.41-2.34-.14-1.96-.41-2.35c-.28-.39-.62-.58-1.03-.58s-.73.17-.97.51c-.3.44-.45,1.24-.45,2.42Z"/>
  <path id="ArialMT-3010" data-name="ArialMT-30" d="M53.94,354.53c0-.85.09-1.53.26-2.04.17-.52.43-.91.78-1.19.34-.28.78-.42,1.3-.42.38,0,.72.08,1.01.23.29.15.53.38.72.67.19.29.34.65.45,1.06.11.42.16.98.16,1.69,0,.84-.09,1.52-.26,2.03-.17.52-.43.91-.77,1.2-.34.28-.78.42-1.3.42-.69,0-1.23-.25-1.63-.74-.47-.6-.71-1.57-.71-2.91ZM54.84,354.53c0,1.18.14,1.96.41,2.35.28.39.61.58,1.02.58s.74-.2,1.02-.59.41-1.17.41-2.34-.14-1.96-.41-2.35c-.28-.39-.62-.58-1.03-.58s-.73.17-.97.51c-.3.44-.45,1.24-.45,2.42Z"/>
  <g class="st18">
    <path class="st10" d="M66.08,305.33h859.12"/>
  </g>
  <path id="m7605fd834d3" data-name="m7605fd834d" class="st6" d="M66.08,305.33h-3.5"/>
  <path id="ArialMT-312" data-name="ArialMT-31" d="M29.44,308.91h-.88v-5.6c-.21.2-.49.4-.83.6s-.65.35-.93.45v-.85c.49-.23.92-.51,1.29-.84.37-.33.63-.65.78-.96h.57v7.19Z"/>
  <path id="ArialMT-351" data-name="ArialMT-35" d="M31.69,307.03l.92-.08c.07.45.23.79.48,1.01.25.23.55.34.9.34.42,0,.78-.16,1.07-.48.29-.32.44-.74.44-1.27s-.14-.9-.42-1.19c-.28-.29-.65-.44-1.11-.44-.28,0-.54.06-.77.19-.23.13-.41.29-.54.5l-.83-.11.69-3.68h3.56v.84h-2.86l-.38,1.92c.43-.3.88-.45,1.35-.45.63,0,1.15.22,1.58.65.43.43.65.99.65,1.67s-.19,1.21-.57,1.68c-.46.58-1.09.87-1.88.87-.65,0-1.18-.18-1.6-.55-.41-.36-.65-.85-.7-1.45Z"/>
  <path id="ArialMT-3011" data-name="ArialMT-30" d="M37.25,305.38c0-.85.09-1.53.26-2.04.17-.52.43-.91.78-1.19.34-.28.78-.42,1.3-.42.38,0,.72.08,1.01.23.29.15.53.38.72.67.19.29.34.65.45,1.06.11.42.16.98.16,1.69,0,.84-.09,1.52-.26,2.03-.17.52-.43.91-.77,1.2-.34.28-.78.42-1.3.42-.69,0-1.23-.25-1.63-.74-.47-.6-.71-1.57-.71-2.91ZM38.16,305.38c0,1.18.14,1.96.41,2.35.28.39.61.58,1.02.58s.74-.2,1.02-.59.41-1.17.41-2.34-.14-1.96-.41-2.35c-.28-.39-.62-.58-1.03-.58s-.73.17-.97.51c-.3.44-.45,1.24-.45,2.42Z"/>
  <path id="ArialMT-3012" data-name="ArialMT-30" d="M42.81,305.38c0-.85.09-1.53.26-2.04.17-.52.43-.91.78-1.19.34-.28.78-.42,1.3-.42.38,0,.72.08,1.01.23.29.15.53.38.72.67.19.29.34.65.45,1.06.11.42.16.98.16,1.69,0,.84-.09,1.52-.26,2.03-.17.52-.43.91-.77,1.2-.34.28-.78.42-1.3.42-.69,0-1.23-.25-1.63-.74-.47-.6-.71-1.57-.71-2.91ZM43.72,305.38c0,1.18.14,1.96.41,2.35.28.39.61.58,1.02.58s.74-.2,1.02-.59.41-1.17.41-2.34-.14-1.96-.41-2.35c-.28-.39-.62-.58-1.03-.58s-.73.17-.97.51c-.3.44-.45,1.24-.45,2.42Z"/>
  <path id="ArialMT-3013" data-name="ArialMT-30" d="M48.38,305.38c0-.85.09-1.53.26-2.04.17-.52.43-.91.78-1.19.34-.28.78-.42,1.3-.42.38,0,.72.08,1.01.23.29.15.53.38.72.67.19.29.34.65.45,1.06.11.42.16.98.16,1.69,0,.84-.09,1.52-.26,2.03-.17.52-.43.91-.77,1.2-.34.28-.78.42-1.3.42-.69,0-1.23-.25-1.63-.74-.47-.6-.71-1.57-.71-2.91ZM49.28,305.38c0,1.18.14,1.96.41,2.35.28.39.61.58,1.02.58s.74-.2,1.02-.59.41-1.17.41-2.34-.14-1.96-.41-2.35c-.28-.39-.62-.58-1.03-.58s-.73.17-.97.51c-.3.44-.45,1.24-.45,2.42Z"/>
  <path id="ArialMT-3014" data-name="ArialMT-30" d="M53.94,305.38c0-.85.09-1.53.26-2.04.17-.52.43-.91.78-1.19.34-.28.78-.42,1.3-.42.38,0,.72.08,1.01.23.29.15.53.38.72.67.19.29.34.65.45,1.06.11.42.16.98.16,1.69,0,.84-.09,1.52-.26,2.03-.17.52-.43.91-.77,1.2-.34.28-.78.42-1.3.42-.69,0-1.23-.25-1.63-.74-.47-.6-.71-1.57-.71-2.91ZM54.84,305.38c0,1.18.14,1.96.41,2.35.28.39.61.58,1.02.58s.74-.2,1.02-.59.41-1.17.41-2.34-.14-1.96-.41-2.35c-.28-.39-.62-.58-1.03-.58s-.73.17-.97.51c-.3.44-.45,1.24-.45,2.42Z"/>
  <g class="st12">
    <path class="st10" d="M66.08,256.18h859.12"/>
  </g>
  <path id="m7605fd834d4" data-name="m7605fd834d" class="st6" d="M66.08,256.18h-3.5"/>
  <path id="ArialMT-32" d="M30.75,258.91v.85h-4.73c0-.21.03-.42.1-.61.12-.32.31-.64.58-.95.27-.31.65-.67,1.15-1.08.78-.64,1.3-1.14,1.58-1.52.27-.37.41-.73.41-1.06s-.13-.64-.38-.88c-.25-.24-.57-.36-.97-.36-.42,0-.76.13-1.02.38-.25.25-.38.6-.39,1.05l-.9-.09c.06-.67.29-1.19.7-1.54.4-.35.95-.53,1.63-.53s1.23.19,1.63.57c.4.38.6.85.6,1.42,0,.29-.06.57-.18.85-.12.28-.31.57-.58.87s-.72.73-1.35,1.26c-.53.44-.87.74-1.02.9-.15.16-.27.32-.37.48h3.51Z"/>
  <path id="ArialMT-3015" data-name="ArialMT-30" d="M31.69,256.22c0-.85.09-1.53.26-2.04.17-.52.43-.91.78-1.19.34-.28.78-.42,1.3-.42.38,0,.72.08,1.01.23.29.15.53.38.72.67.19.29.34.65.45,1.06.11.42.16.98.16,1.69,0,.84-.09,1.52-.26,2.03-.17.52-.43.91-.77,1.2-.34.28-.78.42-1.3.42-.69,0-1.23-.25-1.63-.74-.47-.6-.71-1.57-.71-2.91ZM32.59,256.22c0,1.18.14,1.96.41,2.35.28.39.61.58,1.02.58s.74-.2,1.02-.59.41-1.17.41-2.34-.14-1.96-.41-2.35c-.28-.39-.62-.58-1.03-.58s-.73.17-.97.51c-.3.44-.45,1.24-.45,2.42Z"/>
  <path id="ArialMT-3016" data-name="ArialMT-30" d="M37.25,256.22c0-.85.09-1.53.26-2.04.17-.52.43-.91.78-1.19.34-.28.78-.42,1.3-.42.38,0,.72.08,1.01.23.29.15.53.38.72.67.19.29.34.65.45,1.06.11.42.16.98.16,1.69,0,.84-.09,1.52-.26,2.03-.17.52-.43.91-.77,1.2-.34.28-.78.42-1.3.42-.69,0-1.23-.25-1.63-.74-.47-.6-.71-1.57-.71-2.91ZM38.16,256.22c0,1.18.14,1.96.41,2.35.28.39.61.58,1.02.58s.74-.2,1.02-.59.41-1.17.41-2.34-.14-1.96-.41-2.35c-.28-.39-.62-.58-1.03-.58s-.73.17-.97.51c-.3.44-.45,1.24-.45,2.42Z"/>
  <path id="ArialMT-3017" data-name="ArialMT-30" d="M42.81,256.22c0-.85.09-1.53.26-2.04.17-.52.43-.91.78-1.19.34-.28.78-.42,1.3-.42.38,0,.72.08,1.01.23.29.15.53.38.72.67.19.29.34.65.45,1.06.11.42.16.98.16,1.69,0,.84-.09,1.52-.26,2.03-.17.52-.43.91-.77,1.2-.34.28-.78.42-1.3.42-.69,0-1.23-.25-1.63-.74-.47-.6-.71-1.57-.71-2.91ZM43.72,256.22c0,1.18.14,1.96.41,2.35.28.39.61.58,1.02.58s.74-.2,1.02-.59.41-1.17.41-2.34-.14-1.96-.41-2.35c-.28-.39-.62-.58-1.03-.58s-.73.17-.97.51c-.3.44-.45,1.24-.45,2.42Z"/>
  <path id="ArialMT-3018" data-name="ArialMT-30" d="M48.38,256.22c0-.85.09-1.53.26-2.04.17-.52.43-.91.78-1.19.34-.28.78-.42,1.3-.42.38,0,.72.08,1.01.23.29.15.53.38.72.67.19.29.34.65.45,1.06.11.42.16.98.16,1.69,0,.84-.09,1.52-.26,2.03-.17.52-.43.91-.77,1.2-.34.28-.78.42-1.3.42-.69,0-1.23-.25-1.63-.74-.47-.6-.71-1.57-.71-2.91ZM49.28,256.22c0,1.18.14,1.96.41,2.35.28.39.61.58,1.02.58s.74-.2,1.02-.59.41-1.17.41-2.34-.14-1.96-.41-2.35c-.28-.39-.62-.58-1.03-.58s-.73.17-.97.51c-.3.44-.45,1.24-.45,2.42Z"/>
  <path id="ArialMT-3019" data-name="ArialMT-30" d="M53.94,256.22c0-.85.09-1.53.26-2.04.17-.52.43-.91.78-1.19.34-.28.78-.42,1.3-.42.38,0,.72.08,1.01.23.29.15.53.38.72.67.19.29.34.65.45,1.06.11.42.16.98.16,1.69,0,.84-.09,1.52-.26,2.03-.17.52-.43.91-.77,1.2-.34.28-.78.42-1.3.42-.69,0-1.23-.25-1.63-.74-.47-.6-.71-1.57-.71-2.91ZM54.84,256.22c0,1.18.14,1.96.41,2.35.28.39.61.58,1.02.58s.74-.2,1.02-.59.41-1.17.41-2.34-.14-1.96-.41-2.35c-.28-.39-.62-.58-1.03-.58s-.73.17-.97.51c-.3.44-.45,1.24-.45,2.42Z"/>
  <g class="st13">
    <path class="st10" d="M66.08,207.02h859.12"/>
  </g>
  <path id="m7605fd834d5" data-name="m7605fd834d" class="st6" d="M66.08,207.02h-3.5"/>
  <path id="ArialMT-321" data-name="ArialMT-32" d="M30.75,209.75v.85h-4.73c0-.21.03-.42.1-.61.12-.32.31-.64.58-.95.27-.31.65-.67,1.15-1.08.78-.64,1.3-1.14,1.58-1.52.27-.37.41-.73.41-1.06s-.13-.64-.38-.88c-.25-.24-.57-.36-.97-.36-.42,0-.76.13-1.02.38-.25.25-.38.6-.39,1.05l-.9-.09c.06-.67.29-1.19.7-1.54.4-.35.95-.53,1.63-.53s1.23.19,1.63.57c.4.38.6.85.6,1.42,0,.29-.06.57-.18.85-.12.28-.31.57-.58.87s-.72.73-1.35,1.26c-.53.44-.87.74-1.02.9-.15.16-.27.32-.37.48h3.51Z"/>
  <path id="ArialMT-352" data-name="ArialMT-35" d="M31.69,208.73l.92-.08c.07.45.23.79.48,1.01.25.23.55.34.9.34.42,0,.78-.16,1.07-.48.29-.32.44-.74.44-1.27s-.14-.9-.42-1.19c-.28-.29-.65-.44-1.11-.44-.28,0-.54.06-.77.19-.23.13-.41.29-.54.5l-.83-.11.69-3.68h3.56v.84h-2.86l-.38,1.92c.43-.3.88-.45,1.35-.45.63,0,1.15.22,1.58.65.43.43.65.99.65,1.67s-.19,1.21-.57,1.68c-.46.58-1.09.87-1.88.87-.65,0-1.18-.18-1.6-.55-.41-.36-.65-.85-.7-1.45Z"/>
  <path id="ArialMT-3020" data-name="ArialMT-30" d="M37.25,207.07c0-.85.09-1.53.26-2.04.17-.52.43-.91.78-1.19.34-.28.78-.42,1.3-.42.38,0,.72.08,1.01.23.29.15.53.38.72.67.19.29.34.65.45,1.06.11.42.16.98.16,1.69,0,.84-.09,1.52-.26,2.03-.17.52-.43.91-.77,1.2-.34.28-.78.42-1.3.42-.69,0-1.23-.25-1.63-.74-.47-.6-.71-1.57-.71-2.91ZM38.16,207.07c0,1.18.14,1.96.41,2.35.28.39.61.58,1.02.58s.74-.2,1.02-.59.41-1.17.41-2.34-.14-1.96-.41-2.35c-.28-.39-.62-.58-1.03-.58s-.73.17-.97.51c-.3.44-.45,1.24-.45,2.42Z"/>
  <path id="ArialMT-3021" data-name="ArialMT-30" d="M42.81,207.07c0-.85.09-1.53.26-2.04.17-.52.43-.91.78-1.19.34-.28.78-.42,1.3-.42.38,0,.72.08,1.01.23.29.15.53.38.72.67.19.29.34.65.45,1.06.11.42.16.98.16,1.69,0,.84-.09,1.52-.26,2.03-.17.52-.43.91-.77,1.2-.34.28-.78.42-1.3.42-.69,0-1.23-.25-1.63-.74-.47-.6-.71-1.57-.71-2.91ZM43.72,207.07c0,1.18.14,1.96.41,2.35.28.39.61.58,1.02.58s.74-.2,1.02-.59.41-1.17.41-2.34-.14-1.96-.41-2.35c-.28-.39-.62-.58-1.03-.58s-.73.17-.97.51c-.3.44-.45,1.24-.45,2.42Z"/>
  <path id="ArialMT-3022" data-name="ArialMT-30" d="M48.38,207.07c0-.85.09-1.53.26-2.04.17-.52.43-.91.78-1.19.34-.28.78-.42,1.3-.42.38,0,.72.08,1.01.23.29.15.53.38.72.67.19.29.34.65.45,1.06.11.42.16.98.16,1.69,0,.84-.09,1.52-.26,2.03-.17.52-.43.91-.77,1.2-.34.28-.78.42-1.3.42-.69,0-1.23-.25-1.63-.74-.47-.6-.71-1.57-.71-2.91ZM49.28,207.07c0,1.18.14,1.96.41,2.35.28.39.61.58,1.02.58s.74-.2,1.02-.59.41-1.17.41-2.34-.14-1.96-.41-2.35c-.28-.39-.62-.58-1.03-.58s-.73.17-.97.51c-.3.44-.45,1.24-.45,2.42Z"/>
  <path id="ArialMT-3023" data-name="ArialMT-30" d="M53.94,207.07c0-.85.09-1.53.26-2.04.17-.52.43-.91.78-1.19.34-.28.78-.42,1.3-.42.38,0,.72.08,1.01.23.29.15.53.38.72.67.19.29.34.65.45,1.06.11.42.16.98.16,1.69,0,.84-.09,1.52-.26,2.03-.17.52-.43.91-.77,1.2-.34.28-.78.42-1.3.42-.69,0-1.23-.25-1.63-.74-.47-.6-.71-1.57-.71-2.91ZM54.84,207.07c0,1.18.14,1.96.41,2.35.28.39.61.58,1.02.58s.74-.2,1.02-.59.41-1.17.41-2.34-.14-1.96-.41-2.35c-.28-.39-.62-.58-1.03-.58s-.73.17-.97.51c-.3.44-.45,1.24-.45,2.42Z"/>
  <g class="st15">
    <path class="st10" d="M66.08,157.87h859.12"/>
  </g>
  <path id="m7605fd834d6" data-name="m7605fd834d" class="st6" d="M66.08,157.87h-3.5"/>
  <path id="ArialMT-33" d="M26.13,159.56l.88-.12c.1.5.27.86.52,1.08.24.22.54.33.89.33.41,0,.76-.14,1.05-.43.29-.29.43-.64.43-1.07s-.13-.74-.4-1c-.26-.26-.6-.39-1.01-.39-.17,0-.37.03-.62.1l.1-.77c.06,0,.11.01.14.01.38,0,.71-.1,1.01-.29.3-.2.45-.5.45-.9,0-.32-.11-.59-.33-.8-.22-.21-.5-.32-.84-.32s-.63.11-.85.32c-.23.21-.37.54-.44.97l-.88-.16c.11-.59.35-1.04.73-1.37.38-.32.86-.49,1.42-.49.39,0,.75.08,1.08.25.33.17.58.4.75.69.18.29.26.6.26.92,0,.31-.08.59-.25.84-.17.25-.41.46-.74.61.42.1.75.3.99.61.23.31.35.69.35,1.15,0,.63-.23,1.15-.68,1.59-.46.43-1.03.65-1.73.65-.63,0-1.15-.19-1.57-.56-.41-.38-.65-.86-.71-1.45Z"/>
  <path id="ArialMT-3024" data-name="ArialMT-30" d="M31.69,157.92c0-.85.09-1.53.26-2.04.17-.52.43-.91.78-1.19.34-.28.78-.42,1.3-.42.38,0,.72.08,1.01.23.29.15.53.38.72.67.19.29.34.65.45,1.06.11.42.16.98.16,1.69,0,.84-.09,1.52-.26,2.03-.17.52-.43.91-.77,1.2-.34.28-.78.42-1.3.42-.69,0-1.23-.25-1.63-.74-.47-.6-.71-1.57-.71-2.91ZM32.59,157.92c0,1.18.14,1.96.41,2.35.28.39.61.58,1.02.58s.74-.2,1.02-.59.41-1.17.41-2.34-.14-1.96-.41-2.35c-.28-.39-.62-.58-1.03-.58s-.73.17-.97.51c-.3.44-.45,1.24-.45,2.42Z"/>
  <path id="ArialMT-3025" data-name="ArialMT-30" d="M37.25,157.92c0-.85.09-1.53.26-2.04.17-.52.43-.91.78-1.19.34-.28.78-.42,1.3-.42.38,0,.72.08,1.01.23.29.15.53.38.72.67.19.29.34.65.45,1.06.11.42.16.98.16,1.69,0,.84-.09,1.52-.26,2.03-.17.52-.43.91-.77,1.2-.34.28-.78.42-1.3.42-.69,0-1.23-.25-1.63-.74-.47-.6-.71-1.57-.71-2.91ZM38.16,157.92c0,1.18.14,1.96.41,2.35.28.39.61.58,1.02.58s.74-.2,1.02-.59.41-1.17.41-2.34-.14-1.96-.41-2.35c-.28-.39-.62-.58-1.03-.58s-.73.17-.97.51c-.3.44-.45,1.24-.45,2.42Z"/>
  <path id="ArialMT-3026" data-name="ArialMT-30" d="M42.81,157.92c0-.85.09-1.53.26-2.04.17-.52.43-.91.78-1.19.34-.28.78-.42,1.3-.42.38,0,.72.08,1.01.23.29.15.53.38.72.67.19.29.34.65.45,1.06.11.42.16.98.16,1.69,0,.84-.09,1.52-.26,2.03-.17.52-.43.91-.77,1.2-.34.28-.78.42-1.3.42-.69,0-1.23-.25-1.63-.74-.47-.6-.71-1.57-.71-2.91ZM43.72,157.92c0,1.18.14,1.96.41,2.35.28.39.61.58,1.02.58s.74-.2,1.02-.59.41-1.17.41-2.34-.14-1.96-.41-2.35c-.28-.39-.62-.58-1.03-.58s-.73.17-.97.51c-.3.44-.45,1.24-.45,2.42Z"/>
  <path id="ArialMT-3027" data-name="ArialMT-30" d="M48.38,157.92c0-.85.09-1.53.26-2.04.17-.52.43-.91.78-1.19.34-.28.78-.42,1.3-.42.38,0,.72.08,1.01.23.29.15.53.38.72.67.19.29.34.65.45,1.06.11.42.16.98.16,1.69,0,.84-.09,1.52-.26,2.03-.17.52-.43.91-.77,1.2-.34.28-.78.42-1.3.42-.69,0-1.23-.25-1.63-.74-.47-.6-.71-1.57-.71-2.91ZM49.28,157.92c0,1.18.14,1.96.41,2.35.28.39.61.58,1.02.58s.74-.2,1.02-.59.41-1.17.41-2.34-.14-1.96-.41-2.35c-.28-.39-.62-.58-1.03-.58s-.73.17-.97.51c-.3.44-.45,1.24-.45,2.42Z"/>
  <path id="ArialMT-3028" data-name="ArialMT-30" d="M53.94,157.92c0-.85.09-1.53.26-2.04.17-.52.43-.91.78-1.19.34-.28.78-.42,1.3-.42.38,0,.72.08,1.01.23.29.15.53.38.72.67.19.29.34.65.45,1.06.11.42.16.98.16,1.69,0,.84-.09,1.52-.26,2.03-.17.52-.43.91-.77,1.2-.34.28-.78.42-1.3.42-.69,0-1.23-.25-1.63-.74-.47-.6-.71-1.57-.71-2.91ZM54.84,157.92c0,1.18.14,1.96.41,2.35.28.39.61.58,1.02.58s.74-.2,1.02-.59.41-1.17.41-2.34-.14-1.96-.41-2.35c-.28-.39-.62-.58-1.03-.58s-.73.17-.97.51c-.3.44-.45,1.24-.45,2.42Z"/>
  <g class="st20">
    <path class="st10" d="M66.08,108.71h859.12"/>
  </g>
  <path id="m7605fd834d7" data-name="m7605fd834d" class="st6" d="M66.08,108.71h-3.5"/>
  <path id="ArialMT-331" data-name="ArialMT-33" d="M26.13,110.4l.88-.12c.1.5.27.86.52,1.08.24.22.54.33.89.33.41,0,.76-.14,1.05-.43.29-.29.43-.64.43-1.07s-.13-.74-.4-1c-.26-.26-.6-.39-1.01-.39-.17,0-.37.03-.62.1l.1-.77c.06,0,.11.01.14.01.38,0,.71-.1,1.01-.29.3-.2.45-.5.45-.9,0-.32-.11-.59-.33-.8-.22-.21-.5-.32-.84-.32s-.63.11-.85.32c-.23.21-.37.54-.44.97l-.88-.16c.11-.59.35-1.04.73-1.37.38-.32.86-.49,1.42-.49.39,0,.75.08,1.08.25.33.17.58.4.75.69.18.29.26.6.26.92,0,.31-.08.59-.25.84-.17.25-.41.46-.74.61.42.1.75.3.99.61.23.31.35.69.35,1.15,0,.63-.23,1.15-.68,1.59-.46.43-1.03.65-1.73.65-.63,0-1.15-.19-1.57-.56-.41-.38-.65-.86-.71-1.45Z"/>
  <path id="ArialMT-353" data-name="ArialMT-35" d="M31.69,110.42l.92-.08c.07.45.23.79.48,1.01.25.23.55.34.9.34.42,0,.78-.16,1.07-.48.29-.32.44-.74.44-1.27s-.14-.9-.42-1.19c-.28-.29-.65-.44-1.11-.44-.28,0-.54.06-.77.19-.23.13-.41.29-.54.5l-.83-.11.69-3.68h3.56v.84h-2.86l-.38,1.92c.43-.3.88-.45,1.35-.45.63,0,1.15.22,1.58.65.43.43.65.99.65,1.67s-.19,1.21-.57,1.68c-.46.58-1.09.87-1.88.87-.65,0-1.18-.18-1.6-.55-.41-.36-.65-.85-.7-1.45Z"/>
  <path id="ArialMT-3029" data-name="ArialMT-30" d="M37.25,108.76c0-.85.09-1.53.26-2.04.17-.52.43-.91.78-1.19.34-.28.78-.42,1.3-.42.38,0,.72.08,1.01.23.29.15.53.38.72.67.19.29.34.65.45,1.06.11.42.16.98.16,1.69,0,.84-.09,1.52-.26,2.03-.17.52-.43.91-.77,1.2-.34.28-.78.42-1.3.42-.69,0-1.23-.25-1.63-.74-.47-.6-.71-1.57-.71-2.91ZM38.16,108.76c0,1.18.14,1.96.41,2.35.28.39.61.58,1.02.58s.74-.2,1.02-.59.41-1.17.41-2.34-.14-1.96-.41-2.35c-.28-.39-.62-.58-1.03-.58s-.73.17-.97.51c-.3.44-.45,1.24-.45,2.42Z"/>
  <path id="ArialMT-3030" data-name="ArialMT-30" d="M42.81,108.76c0-.85.09-1.53.26-2.04.17-.52.43-.91.78-1.19.34-.28.78-.42,1.3-.42.38,0,.72.08,1.01.23.29.15.53.38.72.67.19.29.34.65.45,1.06.11.42.16.98.16,1.69,0,.84-.09,1.52-.26,2.03-.17.52-.43.91-.77,1.2-.34.28-.78.42-1.3.42-.69,0-1.23-.25-1.63-.74-.47-.6-.71-1.57-.71-2.91ZM43.72,108.76c0,1.18.14,1.96.41,2.35.28.39.61.58,1.02.58s.74-.2,1.02-.59.41-1.17.41-2.34-.14-1.96-.41-2.35c-.28-.39-.62-.58-1.03-.58s-.73.17-.97.51c-.3.44-.45,1.24-.45,2.42Z"/>
  <path id="ArialMT-3031" data-name="ArialMT-30" d="M48.38,108.76c0-.85.09-1.53.26-2.04.17-.52.43-.91.78-1.19.34-.28.78-.42,1.3-.42.38,0,.72.08,1.01.23.29.15.53.38.72.67.19.29.34.65.45,1.06.11.42.16.98.16,1.69,0,.84-.09,1.52-.26,2.03-.17.52-.43.91-.77,1.2-.34.28-.78.42-1.3.42-.69,0-1.23-.25-1.63-.74-.47-.6-.71-1.57-.71-2.91ZM49.28,108.76c0,1.18.14,1.96.41,2.35.28.39.61.58,1.02.58s.74-.2,1.02-.59.41-1.17.41-2.34-.14-1.96-.41-2.35c-.28-.39-.62-.58-1.03-.58s-.73.17-.97.51c-.3.44-.45,1.24-.45,2.42Z"/>
  <path id="ArialMT-3032" data-name="ArialMT-30" d="M53.94,108.76c0-.85.09-1.53.26-2.04.17-.52.43-.91.78-1.19.34-.28.78-.42,1.3-.42.38,0,.72.08,1.01.23.29.15.53.38.72.67.19.29.34.65.45,1.06.11.42.16.98.16,1.69,0,.84-.09,1.52-.26,2.03-.17.52-.43.91-.77,1.2-.34.28-.78.42-1.3.42-.69,0-1.23-.25-1.63-.74-.47-.6-.71-1.57-.71-2.91ZM54.84,108.76c0,1.18.14,1.96.41,2.35.28.39.61.58,1.02.58s.74-.2,1.02-.59.41-1.17.41-2.34-.14-1.96-.41-2.35c-.28-.39-.62-.58-1.03-.58s-.73.17-.97.51c-.3.44-.45,1.24-.45,2.42Z"/>
  <g class="st23">
    <path class="st10" d="M66.08,59.56h859.12"/>
  </g>
  <path id="m7605fd834d8" data-name="m7605fd834d" class="st6" d="M66.08,59.56h-3.5"/>
  <path id="ArialMT-34" d="M28.95,63.14v-1.71h-3.11v-.81l3.27-4.64h.72v4.64h.97v.81h-.97v1.71h-.88ZM28.95,60.62v-3.23l-2.24,3.23h2.24Z"/>
  <path id="ArialMT-3033" data-name="ArialMT-30" d="M31.69,59.61c0-.85.09-1.53.26-2.04.17-.52.43-.91.78-1.19.34-.28.78-.42,1.3-.42.38,0,.72.08,1.01.23.29.15.53.38.72.67.19.29.34.65.45,1.06.11.42.16.98.16,1.69,0,.84-.09,1.52-.26,2.03-.17.52-.43.91-.77,1.2-.34.28-.78.42-1.3.42-.69,0-1.23-.25-1.63-.74-.47-.6-.71-1.57-.71-2.91ZM32.59,59.61c0,1.18.14,1.96.41,2.35.28.39.61.58,1.02.58s.74-.2,1.02-.59.41-1.17.41-2.34-.14-1.96-.41-2.35c-.28-.39-.62-.58-1.03-.58s-.73.17-.97.51c-.3.44-.45,1.24-.45,2.42Z"/>
  <path id="ArialMT-3034" data-name="ArialMT-30" d="M37.25,59.61c0-.85.09-1.53.26-2.04.17-.52.43-.91.78-1.19.34-.28.78-.42,1.3-.42.38,0,.72.08,1.01.23.29.15.53.38.72.67.19.29.34.65.45,1.06.11.42.16.98.16,1.69,0,.84-.09,1.52-.26,2.03-.17.52-.43.91-.77,1.2-.34.28-.78.42-1.3.42-.69,0-1.23-.25-1.63-.74-.47-.6-.71-1.57-.71-2.91ZM38.16,59.61c0,1.18.14,1.96.41,2.35.28.39.61.58,1.02.58s.74-.2,1.02-.59.41-1.17.41-2.34-.14-1.96-.41-2.35c-.28-.39-.62-.58-1.03-.58s-.73.17-.97.51c-.3.44-.45,1.24-.45,2.42Z"/>
  <path id="ArialMT-3035" data-name="ArialMT-30" d="M42.81,59.61c0-.85.09-1.53.26-2.04.17-.52.43-.91.78-1.19.34-.28.78-.42,1.3-.42.38,0,.72.08,1.01.23.29.15.53.38.72.67.19.29.34.65.45,1.06.11.42.16.98.16,1.69,0,.84-.09,1.52-.26,2.03-.17.52-.43.91-.77,1.2-.34.28-.78.42-1.3.42-.69,0-1.23-.25-1.63-.74-.47-.6-.71-1.57-.71-2.91ZM43.72,59.61c0,1.18.14,1.96.41,2.35.28.39.61.58,1.02.58s.74-.2,1.02-.59.41-1.17.41-2.34-.14-1.96-.41-2.35c-.28-.39-.62-.58-1.03-.58s-.73.17-.97.51c-.3.44-.45,1.24-.45,2.42Z"/>
  <path id="ArialMT-3036" data-name="ArialMT-30" d="M48.38,59.61c0-.85.09-1.53.26-2.04.17-.52.43-.91.78-1.19.34-.28.78-.42,1.3-.42.38,0,.72.08,1.01.23.29.15.53.38.72.67.19.29.34.65.45,1.06.11.42.16.98.16,1.69,0,.84-.09,1.52-.26,2.03-.17.52-.43.91-.77,1.2-.34.28-.78.42-1.3.42-.69,0-1.23-.25-1.63-.74-.47-.6-.71-1.57-.71-2.91ZM49.28,59.61c0,1.18.14,1.96.41,2.35.28.39.61.58,1.02.58s.74-.2,1.02-.59.41-1.17.41-2.34-.14-1.96-.41-2.35c-.28-.39-.62-.58-1.03-.58s-.73.17-.97.51c-.3.44-.45,1.24-.45,2.42Z"/>
  <path id="ArialMT-3037" data-name="ArialMT-30" d="M53.94,59.61c0-.85.09-1.53.26-2.04.17-.52.43-.91.78-1.19.34-.28.78-.42,1.3-.42.38,0,.72.08,1.01.23.29.15.53.38.72.67.19.29.34.65.45,1.06.11.42.16.98.16,1.69,0,.84-.09,1.52-.26,2.03-.17.52-.43.91-.77,1.2-.34.28-.78.42-1.3.42-.69,0-1.23-.25-1.63-.74-.47-.6-.71-1.57-.71-2.91ZM54.84,59.61c0,1.18.14,1.96.41,2.35.28.39.61.58,1.02.58s.74-.2,1.02-.59.41-1.17.41-2.34-.14-1.96-.41-2.35c-.28-.39-.62-.58-1.03-.58s-.73.17-.97.51c-.3.44-.45,1.24-.45,2.42Z"/>
  <path id="Arial-BoldMT-4e" d="M19.35,292.61h-8.59v-1.69l5.74-3.52h-5.74v-1.61h8.59v1.74l-5.6,3.46h5.6v1.61Z"/>
  <path id="Arial-BoldMT-75" d="M19.35,279.88h-.93c.33.23.59.52.79.89.19.37.29.76.29,1.17s-.09.79-.28,1.13c-.18.33-.44.57-.77.72-.33.15-.79.22-1.38.22h-3.94v-1.65h2.86c.87,0,1.41-.03,1.61-.09.2-.06.35-.17.47-.33s.17-.36.17-.61c0-.28-.08-.53-.23-.76-.16-.22-.35-.37-.57-.46-.23-.08-.79-.12-1.68-.12h-2.62v-1.65h6.22v1.53Z"/>
  <path id="Arial-BoldMT-6d" d="M13.12,276.77v-1.52h.85c-.66-.54-.99-1.19-.99-1.94,0-.4.08-.74.25-1.03.16-.29.41-.53.74-.72-.33-.27-.58-.57-.74-.88-.16-.32-.25-.65-.25-1.01,0-.46.09-.84.28-1.16.19-.32.46-.55.82-.71.26-.11.69-.17,1.29-.17h3.98v1.65h-3.56c-.62,0-1.02.06-1.19.17-.23.15-.35.39-.35.7,0,.23.07.45.21.65.14.2.35.35.62.44s.7.13,1.29.13h2.99v1.65h-3.41c-.61,0-1,.03-1.17.09-.18.06-.31.15-.39.27-.09.12-.13.29-.13.5,0,.25.07.48.21.69.14.2.33.35.59.44.26.09.69.13,1.28.13h3.02v1.65h-6.22Z"/>
  <path id="Arial-BoldMT-62" d="M19.35,266.04h-8.59v-1.65h3.09c-.58-.51-.87-1.11-.87-1.81,0-.76.27-1.38.82-1.88s1.34-.74,2.36-.74,1.88.25,2.46.76c.57.51.86,1.12.86,1.84,0,.35-.09.71-.27,1.05-.18.34-.44.64-.79.89h.91v1.53ZM16.1,264.41c.64,0,1.12-.1,1.43-.3.44-.28.66-.66.66-1.14,0-.36-.16-.67-.46-.93-.31-.26-.8-.38-1.47-.38-.71,0-1.22.13-1.54.39-.31.26-.47.59-.47.99s.15.72.46.98c.31.26.77.39,1.4.39Z"/>
  <path id="Arial-BoldMT-65" d="M17.37,255.04l.28-1.64c.6.21,1.06.54,1.37,1,.31.46.47,1.02.47,1.71,0,1.08-.35,1.88-1.06,2.4-.57.41-1.28.61-2.14.61-1.03,0-1.84-.27-2.42-.81-.58-.54-.88-1.22-.88-2.05,0-.93.31-1.66.92-2.19s1.55-.79,2.81-.77v4.12c.49-.01.87-.15,1.14-.4.27-.25.41-.57.41-.95,0-.26-.07-.47-.21-.65-.14-.18-.37-.31-.68-.4ZM15.7,254.95c-.48.01-.84.13-1.09.37-.25.23-.37.52-.37.85,0,.36.13.66.39.89.26.23.62.35,1.07.34v-2.46Z"/>
  <path id="Arial-BoldMT-72" d="M19.35,250.39v1.65h-6.22v-1.53h.88c-.42-.26-.69-.5-.82-.7-.13-.21-.2-.45-.2-.71,0-.37.1-.74.31-1.08l1.43.51c-.18.28-.27.54-.27.77s.06.43.19.59c.13.16.36.29.69.38.33.09,1.03.14,2.08.14h1.92Z"/>
  <path id="Arial-BoldMT-20" d="M19.35,248.16"/>
  <path id="Arial-BoldMT-6f" d="M16.15,244.35c-.55,0-1.08-.13-1.59-.4-.51-.27-.9-.65-1.17-1.15-.27-.49-.4-1.05-.4-1.66,0-.94.31-1.71.92-2.31s1.38-.9,2.32-.9,1.72.3,2.34.91c.62.61.93,1.37.93,2.29,0,.57-.13,1.11-.39,1.63-.26.52-.64.91-1.13,1.18-.5.27-1.1.4-1.82.4ZM16.24,242.66c.62,0,1.09-.15,1.42-.44.33-.29.49-.66.49-1.09s-.16-.79-.49-1.08c-.33-.29-.81-.44-1.43-.44s-1.08.15-1.4.44c-.33.29-.49.65-.49,1.08s.16.79.49,1.09c.33.29.8.44,1.42.44Z"/>
  <path id="Arial-BoldMT-66" d="M13.12,237.36v-.91h-.47c-.52,0-.91-.06-1.17-.17-.26-.11-.47-.32-.63-.61-.16-.3-.24-.68-.24-1.13s.07-.93.21-1.38l1.15.22c-.06.26-.09.51-.09.76s.06.41.17.51c.11.1.32.15.64.15h.44v-1.23h1.3v1.23h4.93v1.65h-4.93v.91h-1.3Z"/>
  <path id="Arial-BoldMT-201" data-name="Arial-BoldMT-20" d="M19.35,233.5"/>
  <path id="Arial-BoldMT-55" d="M10.76,229.31v-1.73h4.65c.74,0,1.22-.02,1.44-.07.35-.07.63-.25.85-.53.21-.28.32-.66.32-1.15s-.1-.86-.3-1.11c-.2-.25-.45-.4-.74-.45-.29-.05-.78-.08-1.46-.08h-4.75v-1.73h4.51c1.03,0,1.76.05,2.19.14.43.09.78.27,1.08.52.29.25.53.59.7,1.01.17.42.26.97.26,1.65,0,.82-.09,1.44-.28,1.87-.19.42-.44.76-.74,1-.3.25-.62.41-.95.49-.49.11-1.22.17-2.18.17h-4.58Z"/>
  <path id="Arial-BoldMT-6e" d="M19.35,214.98v1.65h-3.18c-.67,0-1.11.04-1.3.1s-.35.18-.46.34c-.11.16-.16.35-.16.57,0,.28.08.54.23.77s.36.38.62.47c.26.08.73.13,1.43.13h2.82v1.65h-6.22v-1.53h.91c-.7-.54-1.06-1.23-1.06-2.05,0-.36.07-.69.2-.99.13-.3.3-.53.5-.68.2-.16.43-.26.69-.32.26-.06.63-.09,1.11-.09h3.87Z"/>
  <path id="Arial-BoldMT-69" d="M12.28,213.31h-1.52v-1.65h1.52v1.65ZM19.35,213.31h-6.22v-1.65h6.22v1.65Z"/>
  <path id="Arial-BoldMT-74" d="M13.12,207.12h1.31v1.12h2.51c.51,0,.8-.01.89-.03.08-.02.15-.07.21-.15s.08-.17.08-.28c0-.15-.05-.37-.16-.66l1.28-.14c.16.38.25.82.25,1.3,0,.3-.05.56-.15.8-.1.24-.23.41-.39.52-.16.11-.37.19-.64.23-.19.03-.58.05-1.16.05h-2.71v.76h-1.31v-.76h-1.24l-.96-1.65h2.2v-1.12Z"/>
  <path id="Arial-BoldMT-73" d="M17.57,206.56l-.25-1.65c.32-.07.56-.21.73-.43.17-.21.25-.52.25-.9,0-.42-.08-.74-.23-.96-.11-.14-.26-.22-.44-.22-.13,0-.23.04-.31.12-.08.08-.15.26-.22.55-.29,1.33-.56,2.17-.8,2.53-.34.49-.8.74-1.4.74-.54,0-.99-.21-1.36-.64-.37-.43-.55-1.09-.55-1.98s.14-1.48.42-1.9c.28-.41.69-.7,1.23-.86l.29,1.55c-.24.07-.43.19-.55.38-.13.18-.19.45-.19.79,0,.43.06.74.18.93.09.12.2.19.33.19.12,0,.22-.05.3-.16.11-.15.26-.66.46-1.54.2-.88.44-1.49.73-1.84.29-.34.7-.52,1.22-.52.57,0,1.06.24,1.47.71.41.48.61,1.18.61,2.11,0,.85-.17,1.52-.52,2.01-.34.49-.81.82-1.4.97Z"/>
  <path class="st5" d="M66.08,452.79V40.88"/>
  <path class="st5" d="M66.08,452.79h859.12"/>
  <path id="Arial-BoldMT-33" class="st14" d="M150.75,295.03l1.46-.18c.05.37.17.66.37.85.21.2.45.3.74.3.31,0,.57-.12.79-.35.21-.24.32-.56.32-.96,0-.38-.1-.68-.31-.9-.2-.22-.45-.33-.75-.33-.19,0-.42.04-.69.11l.17-1.23c.41.01.72-.08.93-.27.22-.19.32-.44.32-.75,0-.26-.08-.48-.24-.63-.16-.16-.37-.24-.63-.24s-.48.09-.66.27c-.18.18-.29.44-.33.78l-1.39-.24c.1-.48.24-.86.44-1.14.19-.29.47-.51.82-.67.35-.16.74-.24,1.17-.24.74,0,1.34.24,1.78.71.37.39.55.82.55,1.31,0,.69-.38,1.24-1.13,1.65.45.1.81.31,1.08.65.27.34.41.74.41,1.22,0,.69-.25,1.28-.76,1.77-.5.49-1.13.73-1.88.73-.71,0-1.3-.21-1.77-.62-.47-.41-.74-.95-.81-1.61Z"/>
  <path id="Arial-BoldMT-32" class="st14" d="M162.02,295.72v1.4h-5.29c.06-.53.23-1.03.52-1.51.29-.47.85-1.1,1.7-1.89.68-.63,1.1-1.06,1.25-1.29.21-.31.31-.62.31-.92,0-.34-.09-.59-.27-.78-.18-.18-.43-.27-.75-.27s-.57.1-.75.29c-.19.19-.29.5-.32.95l-1.5-.15c.09-.83.37-1.43.84-1.79.47-.36,1.06-.54,1.77-.54.78,0,1.39.21,1.83.63.44.42.67.94.67,1.56,0,.35-.06.69-.19,1.01s-.33.66-.6,1.01c-.18.23-.51.57-.99,1.01-.48.44-.78.73-.91.87-.13.14-.23.28-.31.42h3Z"/>
  <path id="Arial-BoldMT-321" data-name="Arial-BoldMT-32" class="st14" d="M168.14,295.72v1.4h-5.29c.06-.53.23-1.03.52-1.51.29-.47.85-1.1,1.7-1.89.68-.63,1.1-1.06,1.25-1.29.21-.31.31-.62.31-.92,0-.34-.09-.59-.27-.78-.18-.18-.43-.27-.75-.27s-.57.1-.75.29c-.19.19-.29.5-.32.95l-1.5-.15c.09-.83.37-1.43.84-1.79.47-.36,1.06-.54,1.77-.54.78,0,1.39.21,1.83.63.44.42.67.94.67,1.56,0,.35-.06.69-.19,1.01s-.33.66-.6,1.01c-.18.23-.51.57-.99,1.01-.48.44-.78.73-.91.87-.13.14-.23.28-.31.42h3Z"/>
  <path id="Arial-BoldMT-2c" class="st14" d="M169.44,295.61h1.51v1.08c0,.44-.04.78-.11,1.03-.08.25-.22.48-.43.68-.21.2-.47.36-.8.47l-.3-.62c.3-.1.52-.24.65-.41.13-.18.2-.42.21-.72h-.73v-1.51Z"/>
  <path id="Arial-BoldMT-35" class="st14" d="M172.23,295.1l1.5-.16c.04.34.17.61.38.81.21.2.46.3.73.3.32,0,.58-.13.8-.38.22-.26.33-.64.33-1.16,0-.48-.11-.85-.33-1.09-.22-.24-.5-.36-.85-.36-.43,0-.82.19-1.17.58l-1.22-.18.77-4.1h3.99v1.41h-2.85l-.24,1.34c.34-.17.68-.25,1.03-.25.67,0,1.24.24,1.7.73.47.49.7,1.12.7,1.9,0,.65-.19,1.23-.56,1.74-.51.69-1.22,1.04-2.13,1.04-.73,0-1.32-.19-1.78-.58-.46-.39-.73-.92-.82-1.57Z"/>
  <path id="Arial-BoldMT-30" class="st14" d="M180.88,289.21c.76,0,1.36.27,1.79.82.51.64.77,1.71.77,3.21s-.26,2.56-.77,3.21c-.43.54-1.02.81-1.78.81s-1.38-.29-1.85-.88c-.47-.59-.7-1.64-.7-3.15s.26-2.55.77-3.2c.43-.54,1.02-.81,1.78-.81ZM180.88,290.47c-.18,0-.34.06-.49.18-.14.12-.25.32-.33.63-.1.39-.15,1.05-.15,1.97s.05,1.56.14,1.9c.09.34.21.57.35.69.14.11.3.17.49.17s.35-.06.49-.17c.14-.12.25-.33.33-.63.1-.39.16-1.04.16-1.96s-.05-1.56-.14-1.9c-.09-.35-.21-.58-.35-.69-.14-.12-.3-.18-.49-.18Z"/>
  <path id="Arial-BoldMT-301" data-name="Arial-BoldMT-30" class="st14" d="M187,289.21c.76,0,1.36.27,1.79.82.51.64.77,1.71.77,3.21s-.26,2.56-.77,3.21c-.43.54-1.02.81-1.78.81s-1.38-.29-1.85-.88c-.47-.59-.7-1.64-.7-3.15s.26-2.55.77-3.2c.43-.54,1.02-.81,1.78-.81ZM187,290.47c-.18,0-.34.06-.49.18-.14.12-.25.32-.33.63-.1.39-.15,1.05-.15,1.97s.05,1.56.14,1.9c.09.34.21.57.35.69.14.11.3.17.49.17s.35-.06.49-.17c.14-.12.25-.33.33-.63.1-.39.16-1.04.16-1.96s-.05-1.56-.14-1.9c-.09-.35-.21-.58-.35-.69-.14-.12-.3-.18-.49-.18Z"/>
  <path id="Arial-BoldMT-34" class="st14" d="M319.53,116.48v-1.58h-3.22v-1.32l3.42-5h1.27v4.99h.98v1.33h-.98v1.58h-1.46ZM319.53,113.57v-2.69l-1.81,2.69h1.81Z"/>
  <path id="Arial-BoldMT-351" data-name="Arial-BoldMT-35" class="st14" d="M322.71,114.45l1.5-.16c.04.34.17.61.38.81.21.2.46.3.73.3.32,0,.58-.13.8-.38.22-.26.33-.64.33-1.16,0-.48-.11-.85-.33-1.09-.22-.24-.5-.36-.85-.36-.43,0-.82.19-1.17.58l-1.22-.18.77-4.1h3.99v1.41h-2.85l-.24,1.34c.34-.17.68-.25,1.03-.25.67,0,1.24.24,1.7.73.47.49.7,1.12.7,1.9,0,.65-.19,1.23-.56,1.74-.51.69-1.22,1.04-2.13,1.04-.73,0-1.32-.19-1.78-.58-.46-.39-.73-.92-.82-1.57Z"/>
  <path id="Arial-BoldMT-2c1" data-name="Arial-BoldMT-2c" class="st14" d="M329.1,114.97h1.51v1.08c0,.44-.04.78-.11,1.03-.08.25-.22.48-.43.68-.21.2-.47.36-.8.47l-.3-.62c.3-.1.52-.24.65-.41.13-.18.2-.42.21-.72h-.73v-1.51Z"/>
  <path id="Arial-BoldMT-302" data-name="Arial-BoldMT-30" class="st14" d="M334.42,108.57c.76,0,1.36.27,1.79.82.51.64.77,1.71.77,3.21s-.26,2.56-.77,3.21c-.43.54-1.02.81-1.78.81s-1.38-.29-1.85-.88c-.47-.59-.7-1.64-.7-3.15s.26-2.55.77-3.2c.43-.54,1.02-.81,1.78-.81ZM334.42,109.82c-.18,0-.34.06-.49.18-.14.12-.25.32-.33.63-.1.39-.15,1.05-.15,1.97s.05,1.56.14,1.9c.09.34.21.57.35.69.14.11.3.17.49.17s.35-.06.49-.17c.14-.12.25-.33.33-.63.1-.39.16-1.04.16-1.96s-.05-1.56-.14-1.9c-.09-.35-.21-.58-.35-.69-.14-.12-.3-.18-.49-.18Z"/>
  <path id="Arial-BoldMT-303" data-name="Arial-BoldMT-30" class="st14" d="M340.53,108.57c.76,0,1.36.27,1.79.82.51.64.77,1.71.77,3.21s-.26,2.56-.77,3.21c-.43.54-1.02.81-1.78.81s-1.38-.29-1.85-.88c-.47-.59-.7-1.64-.7-3.15s.26-2.55.77-3.2c.43-.54,1.02-.81,1.78-.81ZM340.53,109.82c-.18,0-.34.06-.49.18-.14.12-.25.32-.33.63-.1.39-.15,1.05-.15,1.97s.05,1.56.14,1.9c.09.34.21.57.35.69.14.11.3.17.49.17s.35-.06.49-.17c.14-.12.25-.33.33-.63.1-.39.16-1.04.16-1.96s-.05-1.56-.14-1.9c-.09-.35-.21-.58-.35-.69-.14-.12-.3-.18-.49-.18Z"/>
  <path id="Arial-BoldMT-304" data-name="Arial-BoldMT-30" class="st14" d="M346.65,108.57c.76,0,1.36.27,1.79.82.51.64.77,1.71.77,3.21s-.26,2.56-.77,3.21c-.43.54-1.02.81-1.78.81s-1.38-.29-1.85-.88c-.47-.59-.7-1.64-.7-3.15s.26-2.55.77-3.2c.43-.54,1.02-.81,1.78-.81ZM346.65,109.82c-.18,0-.34.06-.49.18-.14.12-.25.32-.33.63-.1.39-.15,1.05-.15,1.97s.05,1.56.14,1.9c.09.34.21.57.35.69.14.11.3.17.49.17s.35-.06.49-.17c.14-.12.25-.33.33-.63.1-.39.16-1.04.16-1.96s-.05-1.56-.14-1.9c-.09-.35-.21-.58-.35-.69-.14-.12-.3-.18-.49-.18Z"/>
  <path id="Arial-BoldMT-352" data-name="Arial-BoldMT-35" class="st14" d="M479.31,67.02l1.5-.16c.04.34.17.61.38.81.21.2.46.3.73.3.32,0,.58-.13.8-.38.22-.26.33-.64.33-1.16,0-.48-.11-.85-.33-1.09-.22-.24-.5-.36-.85-.36-.43,0-.82.19-1.17.58l-1.22-.18.77-4.1h3.99v1.41h-2.85l-.24,1.34c.34-.17.68-.25,1.03-.25.67,0,1.24.24,1.7.73.47.49.7,1.12.7,1.9,0,.65-.19,1.23-.56,1.74-.51.69-1.22,1.04-2.13,1.04-.73,0-1.32-.19-1.78-.58-.46-.39-.73-.92-.82-1.57Z"/>
  <path id="Arial-BoldMT-31" class="st14" d="M489.27,69.05h-1.51v-5.69c-.55.52-1.2.9-1.95,1.14v-1.37c.39-.13.82-.37,1.28-.73.46-.36.78-.78.95-1.26h1.23v7.91Z"/>
  <path id="Arial-BoldMT-2c2" data-name="Arial-BoldMT-2c" class="st14" d="M491.81,67.54h1.51v1.08c0,.44-.04.78-.11,1.03-.08.25-.22.48-.43.68-.21.2-.47.36-.8.47l-.3-.62c.3-.1.52-.24.65-.41.13-.18.2-.42.21-.72h-.73v-1.51Z"/>
  <path id="Arial-BoldMT-353" data-name="Arial-BoldMT-35" class="st14" d="M494.6,67.02l1.5-.16c.04.34.17.61.38.81.21.2.46.3.73.3.32,0,.58-.13.8-.38.22-.26.33-.64.33-1.16,0-.48-.11-.85-.33-1.09-.22-.24-.5-.36-.85-.36-.43,0-.82.19-1.17.58l-1.22-.18.77-4.1h3.99v1.41h-2.85l-.24,1.34c.34-.17.68-.25,1.03-.25.67,0,1.24.24,1.7.73.47.49.7,1.12.7,1.9,0,.65-.19,1.23-.56,1.74-.51.69-1.22,1.04-2.13,1.04-.73,0-1.32-.19-1.78-.58-.46-.39-.73-.92-.82-1.57Z"/>
  <path id="Arial-BoldMT-305" data-name="Arial-BoldMT-30" class="st14" d="M503.25,61.14c.76,0,1.36.27,1.79.82.51.64.77,1.71.77,3.21s-.26,2.56-.77,3.21c-.43.54-1.02.81-1.78.81s-1.38-.29-1.85-.88c-.47-.59-.7-1.64-.7-3.15s.26-2.55.77-3.2c.43-.54,1.02-.81,1.78-.81ZM503.25,62.39c-.18,0-.34.06-.49.18-.14.12-.25.32-.33.63-.1.39-.15,1.05-.15,1.97s.05,1.56.14,1.9c.09.34.21.57.35.69.14.11.3.17.49.17s.35-.06.49-.17c.14-.12.25-.33.33-.63.1-.39.16-1.04.16-1.96s-.05-1.56-.14-1.9c-.09-.35-.21-.58-.35-.69-.14-.12-.3-.18-.49-.18Z"/>
  <path id="Arial-BoldMT-306" data-name="Arial-BoldMT-30" class="st14" d="M509.36,61.14c.76,0,1.36.27,1.79.82.51.64.77,1.71.77,3.21s-.26,2.56-.77,3.21c-.43.54-1.02.81-1.78.81s-1.38-.29-1.85-.88c-.47-.59-.7-1.64-.7-3.15s.26-2.55.77-3.2c.43-.54,1.02-.81,1.78-.81ZM509.36,62.39c-.18,0-.34.06-.49.18-.14.12-.25.32-.33.63-.1.39-.15,1.05-.15,1.97s.05,1.56.14,1.9c.09.34.21.57.35.69.14.11.3.17.49.17s.35-.06.49-.17c.14-.12.25-.33.33-.63.1-.39.16-1.04.16-1.96s-.05-1.56-.14-1.9c-.09-.35-.21-.58-.35-.69-.14-.12-.3-.18-.49-.18Z"/>
  <path id="Arial-BoldMT-307" data-name="Arial-BoldMT-30" class="st14" d="M658.31,35.83c.76,0,1.36.27,1.79.82.51.64.77,1.71.77,3.21s-.26,2.56-.77,3.21c-.43.54-1.02.81-1.78.81s-1.38-.29-1.85-.88c-.47-.59-.7-1.64-.7-3.15s.26-2.55.77-3.2c.43-.54,1.02-.81,1.78-.81ZM658.31,37.08c-.18,0-.34.06-.49.18-.14.12-.25.32-.33.63-.1.39-.15,1.05-.15,1.97s.05,1.56.14,1.9c.09.34.21.57.35.69.14.11.3.17.49.17s.35-.06.49-.17c.14-.12.25-.33.33-.63.1-.39.16-1.04.16-1.96s-.05-1.56-.14-1.9c-.09-.35-.21-.58-.35-.69-.14-.12-.3-.18-.49-.18Z"/>
  <path id="Arial-BoldMT-341" data-name="Arial-BoldMT-34" class="st14" d="M801.62,250.21v-1.87h-3.81v-1.56l4.04-5.91h1.5v5.9h1.16v1.57h-1.16v1.87h-1.73ZM801.62,246.76v-3.18l-2.14,3.18h2.14Z"/>
  <path id="Arial-BoldMT-311" data-name="Arial-BoldMT-31" class="st14" d="M809.92,250.21h-1.78v-6.72c-.65.61-1.42,1.06-2.31,1.35v-1.62c.47-.15.97-.44,1.52-.87.55-.43.92-.92,1.12-1.49h1.45v9.34Z"/>
  <path id="Arial-BoldMT-39" class="st14" d="M812.62,248.05l1.73-.19c.04.35.15.61.33.78s.41.25.7.25c.37,0,.68-.17.94-.51.26-.34.42-1.04.5-2.11-.45.52-1.01.78-1.68.78-.73,0-1.36-.28-1.9-.85-.53-.56-.8-1.3-.8-2.21s.28-1.7.84-2.28c.56-.58,1.27-.87,2.14-.87.94,0,1.72.36,2.32,1.09.61.73.91,1.93.91,3.6s-.32,2.93-.95,3.68c-.63.75-1.45,1.13-2.46,1.13-.73,0-1.32-.19-1.77-.58-.45-.39-.74-.97-.86-1.73ZM816.66,244.16c0-.58-.13-1.02-.4-1.34-.26-.32-.57-.48-.92-.48-.33,0-.6.13-.82.39s-.33.69-.33,1.28.12,1.04.36,1.32c.24.28.53.42.89.42s.63-.14.87-.41c.24-.27.35-.67.35-1.19Z"/>
  <path id="Arial-BoldMT-2c3" data-name="Arial-BoldMT-2c" class="st14" d="M820.15,248.42h1.78v1.28c0,.52-.04.92-.13,1.22-.09.3-.26.57-.51.8-.25.24-.56.42-.94.56l-.35-.74c.36-.12.61-.28.77-.49.15-.21.23-.49.24-.85h-.86v-1.78Z"/>
  <path id="Arial-BoldMT-308" data-name="Arial-BoldMT-30" class="st14" d="M826.44,240.86c.9,0,1.61.32,2.11.96.61.76.91,2.02.91,3.79s-.3,3.03-.91,3.79c-.5.64-1.21.95-2.11.95s-1.63-.35-2.19-1.04c-.55-.7-.83-1.94-.83-3.72s.3-3.01.91-3.78c.5-.64,1.21-.95,2.11-.95ZM826.44,242.34c-.22,0-.41.07-.58.21-.17.14-.3.38-.39.74-.12.46-.18,1.24-.18,2.33s.05,1.84.16,2.25c.11.41.25.68.41.81.17.14.36.2.57.2s.41-.07.58-.21c.17-.14.3-.39.39-.74.12-.46.18-1.23.18-2.32s-.05-1.84-.16-2.25c-.11-.41-.25-.68-.42-.82-.17-.14-.36-.21-.57-.21Z"/>
  <path id="Arial-BoldMT-309" data-name="Arial-BoldMT-30" class="st14" d="M833.67,240.86c.9,0,1.61.32,2.11.96.61.76.91,2.02.91,3.79s-.3,3.03-.91,3.79c-.5.64-1.21.95-2.11.95s-1.63-.35-2.19-1.04c-.55-.7-.83-1.94-.83-3.72s.3-3.01.91-3.78c.5-.64,1.21-.95,2.11-.95ZM833.67,242.34c-.22,0-.41.07-.58.21-.17.14-.3.38-.39.74-.12.46-.18,1.24-.18,2.33s.05,1.84.16,2.25c.11.41.25.68.41.81.17.14.36.2.57.2s.41-.07.58-.21c.17-.14.3-.39.39-.74.12-.46.18-1.23.18-2.32s-.05-1.84-.16-2.25c-.11-.41-.25-.68-.42-.82-.17-.14-.36-.21-.57-.21Z"/>
  <path id="Arial-BoldMT-3010" data-name="Arial-BoldMT-30" class="st14" d="M840.9,240.86c.9,0,1.61.32,2.11.96.61.76.91,2.02.91,3.79s-.3,3.03-.91,3.79c-.5.64-1.21.95-2.11.95s-1.63-.35-2.19-1.04c-.55-.7-.83-1.94-.83-3.72s.3-3.01.91-3.78c.5-.64,1.21-.95,2.11-.95ZM840.9,242.34c-.22,0-.41.07-.58.21-.17.14-.3.38-.39.74-.12.46-.18,1.24-.18,2.33s.05,1.84.16,2.25c.11.41.25.68.41.81.17.14.36.2.57.2s.41-.07.58-.21c.17-.14.3-.39.39-.74.12-.46.18-1.23.18-2.32s-.05-1.84-.16-2.25c-.11-.41-.25-.68-.42-.82-.17-.14-.36-.21-.57-.21Z"/>
  <path id="Arial-BoldMT-312" data-name="Arial-BoldMT-31" class="st21" d="M307.84,20.88h-1.92v-7.24c-.7.66-1.53,1.14-2.48,1.45v-1.74c.5-.16,1.05-.47,1.63-.93.59-.46.99-.99,1.21-1.6h1.56v10.06Z"/>
  <path id="Arial-BoldMT-3011" data-name="Arial-BoldMT-30" class="st21" d="M313.96,10.82c.97,0,1.73.35,2.28,1.04.65.82.98,2.18.98,4.08s-.33,3.26-.98,4.09c-.54.68-1.3,1.03-2.27,1.03s-1.76-.37-2.36-1.12c-.6-.75-.89-2.09-.89-4.01s.33-3.24.98-4.07c.54-.68,1.3-1.03,2.27-1.03ZM313.96,12.41c-.23,0-.44.07-.62.22-.18.15-.32.41-.42.8-.13.5-.2,1.33-.2,2.51s.06,1.98.18,2.42c.12.44.27.73.45.88.18.15.39.22.62.22s.44-.07.62-.22c.18-.15.32-.41.42-.8.13-.49.2-1.32.2-2.5s-.06-1.98-.18-2.42c-.12-.44-.27-.73-.45-.88-.18-.15-.39-.22-.62-.22Z"/>
  <path id="Arial-BoldMT-2d" class="st21" d="M318.69,18.21v-1.92h3.77v1.92h-3.77Z"/>
  <path id="Arial-BoldMT-59" class="st21" d="M326.22,20.88v-4.22l-3.67-5.8h2.37l2.36,3.96,2.31-3.96h2.33l-3.68,5.82v4.2h-2.02Z"/>
  <path id="Arial-BoldMT-651" data-name="Arial-BoldMT-65" class="st21" d="M336.34,18.57l1.91.32c-.25.7-.63,1.24-1.17,1.6-.53.37-1.19.55-1.99.55-1.26,0-2.2-.41-2.8-1.24-.48-.66-.72-1.49-.72-2.5,0-1.2.31-2.15.94-2.83.63-.68,1.43-1.02,2.39-1.02,1.08,0,1.93.36,2.56,1.07s.92,1.81.89,3.28h-4.81c.01.57.17,1.01.47,1.33.3.32.67.47,1.11.47.3,0,.55-.08.76-.25.21-.16.36-.43.47-.79ZM336.45,16.63c-.01-.56-.16-.98-.43-1.27-.27-.29-.61-.44-1-.44-.42,0-.76.15-1.04.46-.27.31-.41.72-.4,1.24h2.87Z"/>
  <path id="Arial-BoldMT-61" class="st21" d="M341.36,15.84l-1.74-.32c.2-.7.53-1.22,1.01-1.56.48-.34,1.19-.51,2.13-.51.86,0,1.5.1,1.91.3.42.2.72.46.89.77s.26.89.26,1.72l-.02,2.24c0,.64.03,1.11.09,1.41.06.3.18.63.35.97h-1.9c-.05-.13-.11-.32-.18-.57-.03-.12-.06-.19-.07-.23-.33.32-.68.56-1.05.72-.37.16-.77.24-1.2.24-.75,0-1.34-.2-1.77-.61-.43-.41-.65-.92-.65-1.54,0-.41.1-.78.29-1.1.2-.32.47-.57.82-.74.35-.17.86-.32,1.53-.45.9-.17,1.52-.33,1.87-.47v-.19c0-.37-.09-.63-.27-.79s-.53-.24-1.03-.24c-.34,0-.61.07-.8.2s-.35.37-.46.71ZM343.93,17.39c-.25.08-.64.18-1.17.3-.53.11-.88.23-1.05.33-.25.18-.38.4-.38.68s.1.5.3.7c.2.2.46.29.77.29.35,0,.68-.11.99-.34.23-.17.38-.39.46-.64.05-.16.08-.48.08-.94v-.38Z"/>
  <path id="Arial-BoldMT-721" data-name="Arial-BoldMT-72" class="st21" d="M349.55,20.88h-1.92v-7.26h1.79v1.03c.3-.49.58-.81.82-.96.24-.16.52-.23.83-.23.44,0,.86.12,1.26.36l-.6,1.67c-.32-.21-.62-.31-.9-.31s-.5.07-.68.22c-.19.15-.33.41-.44.8-.11.39-.16,1.2-.16,2.43v2.24Z"/>
  <path id="Arial-BoldMT-202" data-name="Arial-BoldMT-20" class="st21" d="M352.15,20.88"/>
  <path id="Arial-BoldMT-4c" class="st21" d="M357.12,20.88v-9.94h2.02v8.25h5.03v1.69h-7.05Z"/>
  <path id="Arial-BoldMT-6f1" data-name="Arial-BoldMT-6f" class="st21" d="M365.16,17.15c0-.64.16-1.26.47-1.85.32-.6.76-1.05,1.34-1.37.58-.32,1.22-.47,1.93-.47,1.1,0,2,.36,2.7,1.07s1.05,1.61,1.05,2.7-.35,2.01-1.06,2.73c-.71.72-1.6,1.08-2.68,1.08-.67,0-1.3-.15-1.9-.45-.6-.3-1.06-.74-1.38-1.32-.32-.58-.47-1.29-.47-2.12ZM367.12,17.25c0,.72.17,1.27.51,1.65.34.38.76.57,1.27.57s.92-.19,1.26-.57c.34-.38.51-.94.51-1.67s-.17-1.26-.51-1.64c-.34-.38-.76-.58-1.26-.58s-.92.19-1.27.58c-.34.38-.51.93-.51,1.65Z"/>
  <path id="Arial-BoldMT-691" data-name="Arial-BoldMT-69" class="st21" d="M374.15,12.64v-1.78h1.92v1.78h-1.92ZM374.15,20.88v-7.26h1.92v7.26h-1.92Z"/>
  <path id="Arial-BoldMT-741" data-name="Arial-BoldMT-74" class="st21" d="M381.37,13.62v1.53h-1.31v2.93c0,.59.01.94.04,1.03.03.1.08.18.17.24s.2.1.32.1c.18,0,.44-.06.77-.19l.16,1.49c-.45.19-.95.29-1.52.29-.35,0-.66-.06-.94-.17-.28-.12-.48-.27-.61-.45-.13-.19-.22-.43-.27-.75-.04-.22-.06-.67-.06-1.35v-3.17h-.88v-1.53h.88v-1.44l1.93-1.12v2.56h1.31Z"/>
  <path id="Arial-BoldMT-652" data-name="Arial-BoldMT-65" class="st21" d="M386.91,18.57l1.91.32c-.25.7-.63,1.24-1.17,1.6-.53.37-1.19.55-1.99.55-1.26,0-2.2-.41-2.8-1.24-.48-.66-.72-1.49-.72-2.5,0-1.2.31-2.15.94-2.83.63-.68,1.43-1.02,2.39-1.02,1.08,0,1.93.36,2.56,1.07s.92,1.81.89,3.28h-4.81c.01.57.17,1.01.47,1.33.3.32.67.47,1.11.47.3,0,.55-.08.76-.25.21-.16.36-.43.47-.79ZM387.02,16.63c-.01-.56-.16-.98-.43-1.27-.27-.29-.61-.44-1-.44-.42,0-.76.15-1.04.46-.27.31-.41.72-.4,1.24h2.87Z"/>
  <path id="Arial-BoldMT-722" data-name="Arial-BoldMT-72" class="st21" d="M392.33,20.88h-1.92v-7.26h1.79v1.03c.3-.49.58-.81.82-.96.24-.16.52-.23.83-.23.44,0,.86.12,1.26.36l-.6,1.67c-.32-.21-.62-.31-.9-.31s-.5.07-.68.22c-.19.15-.33.41-.44.8-.11.39-.16,1.2-.16,2.43v2.24Z"/>
  <path id="Arial-BoldMT-692" data-name="Arial-BoldMT-69" class="st21" d="M395.94,12.64v-1.78h1.92v1.78h-1.92ZM395.94,20.88v-7.26h1.92v7.26h-1.92Z"/>
  <path id="Arial-BoldMT-6e1" data-name="Arial-BoldMT-6e" class="st21" d="M406.43,20.88h-1.92v-3.71c0-.78-.04-1.29-.12-1.52s-.22-.41-.4-.54c-.19-.13-.41-.19-.67-.19-.33,0-.63.09-.89.27s-.45.42-.54.73c-.1.3-.15.86-.15,1.67v3.29h-1.92v-7.26h1.79v1.07c.63-.82,1.43-1.23,2.39-1.23.42,0,.81.08,1.16.23.35.15.62.35.8.59.18.24.31.5.38.81.07.3.11.73.11,1.29v4.51Z"/>
  <path id="Arial-BoldMT-67" class="st21" d="M408.2,21.36l2.19.27c.04.26.12.43.25.53.18.14.47.21.86.21.5,0,.88-.08,1.13-.23.17-.1.3-.26.38-.49.06-.16.09-.45.09-.88v-1.06c-.57.78-1.3,1.18-2.17,1.18-.98,0-1.75-.41-2.32-1.24-.45-.65-.67-1.46-.67-2.43,0-1.22.29-2.15.88-2.79.59-.64,1.31-.96,2.19-.96s1.64.39,2.22,1.18v-1.02h1.8v6.51c0,.86-.07,1.5-.21,1.92-.14.42-.34.76-.6,1-.26.24-.6.43-1.02.57s-.96.21-1.62.21c-1.23,0-2.1-.21-2.62-.63-.51-.42-.77-.96-.77-1.6,0-.06,0-.14,0-.23ZM409.92,17.1c0,.77.15,1.33.45,1.69.3.36.67.54,1.1.54.47,0,.87-.18,1.19-.55s.49-.91.49-1.63-.16-1.31-.47-1.68c-.31-.36-.7-.55-1.17-.55s-.84.18-1.14.54c-.3.36-.45.9-.45,1.64Z"/>
  <path id="Arial-BoldMT-203" data-name="Arial-BoldMT-20" class="st21" d="M415.93,20.88"/>
  <path id="Arial-BoldMT-4d" class="st21" d="M420.81,20.88v-10.02h3.03l1.82,6.84,1.8-6.84h3.03v10.02h-1.88v-7.89l-1.99,7.89h-1.95l-1.98-7.89v7.89h-1.88Z"/>
  <path id="Arial-BoldMT-751" data-name="Arial-BoldMT-75" class="st21" d="M437.26,20.88v-1.09c-.26.39-.61.69-1.04.92-.43.22-.88.33-1.36.33s-.93-.11-1.31-.32c-.39-.21-.67-.51-.84-.9-.17-.39-.26-.92-.26-1.61v-4.59h1.92v3.34c0,1.02.04,1.65.11,1.88.07.23.2.41.39.55s.42.2.71.2c.33,0,.62-.09.88-.27.26-.18.44-.4.53-.67.1-.27.14-.92.14-1.96v-3.06h1.92v7.26h-1.78Z"/>
  <path id="Arial-BoldMT-6e2" data-name="Arial-BoldMT-6e" class="st21" d="M447.64,20.88h-1.92v-3.71c0-.78-.04-1.29-.12-1.52s-.22-.41-.4-.54c-.19-.13-.41-.19-.67-.19-.33,0-.63.09-.89.27s-.45.42-.54.73c-.1.3-.15.86-.15,1.67v3.29h-1.92v-7.26h1.79v1.07c.63-.82,1.43-1.23,2.39-1.23.42,0,.81.08,1.16.23.35.15.62.35.8.59.18.24.31.5.38.81.07.3.11.73.11,1.29v4.51Z"/>
  <path id="Arial-BoldMT-693" data-name="Arial-BoldMT-69" class="st21" d="M449.59,12.64v-1.78h1.92v1.78h-1.92ZM449.59,20.88v-7.26h1.92v7.26h-1.92Z"/>
  <path id="Arial-BoldMT-742" data-name="Arial-BoldMT-74" class="st21" d="M456.81,13.62v1.53h-1.31v2.93c0,.59.01.94.04,1.03.03.1.08.18.17.24s.2.1.32.1c.18,0,.44-.06.77-.19l.16,1.49c-.45.19-.95.29-1.52.29-.35,0-.66-.06-.94-.17-.28-.12-.48-.27-.61-.45-.13-.19-.22-.43-.27-.75-.04-.22-.06-.67-.06-1.35v-3.17h-.88v-1.53h.88v-1.44l1.93-1.12v2.56h1.31Z"/>
  <path id="Arial-BoldMT-694" data-name="Arial-BoldMT-69" class="st21" d="M458.14,12.64v-1.78h1.92v1.78h-1.92ZM458.14,20.88v-7.26h1.92v7.26h-1.92Z"/>
  <path id="Arial-BoldMT-6f2" data-name="Arial-BoldMT-6f" class="st21" d="M461.58,17.15c0-.64.16-1.26.47-1.85.32-.6.76-1.05,1.34-1.37.58-.32,1.22-.47,1.93-.47,1.1,0,2,.36,2.7,1.07s1.05,1.61,1.05,2.7-.35,2.01-1.06,2.73c-.71.72-1.6,1.08-2.68,1.08-.67,0-1.3-.15-1.9-.45-.6-.3-1.06-.74-1.38-1.32-.32-.58-.47-1.29-.47-2.12ZM463.55,17.25c0,.72.17,1.27.51,1.65.34.38.76.57,1.27.57s.92-.19,1.26-.57c.34-.38.51-.94.51-1.67s-.17-1.26-.51-1.64c-.34-.38-.76-.58-1.26-.58s-.92.19-1.27.58c-.34.38-.51.93-.51,1.65Z"/>
  <path id="Arial-BoldMT-6e3" data-name="Arial-BoldMT-6e" class="st21" d="M477.18,20.88h-1.92v-3.71c0-.78-.04-1.29-.12-1.52s-.22-.41-.4-.54c-.19-.13-.41-.19-.67-.19-.33,0-.63.09-.89.27s-.45.42-.54.73c-.1.3-.15.86-.15,1.67v3.29h-1.92v-7.26h1.79v1.07c.63-.82,1.43-1.23,2.39-1.23.42,0,.81.08,1.16.23.35.15.62.35.8.59.18.24.31.5.38.81.07.3.11.73.11,1.29v4.51Z"/>
  <path id="Arial-BoldMT-204" data-name="Arial-BoldMT-20" class="st21" d="M478.13,20.88"/>
  <path id="Arial-BoldMT-44" class="st21" d="M483.03,10.86h3.7c.83,0,1.47.06,1.91.19.59.17,1.09.48,1.51.92.42.44.74.98.96,1.62s.33,1.43.33,2.37c0,.83-.1,1.54-.31,2.13-.25.73-.61,1.32-1.07,1.77-.35.34-.83.61-1.42.8-.45.14-1.04.21-1.79.21h-3.81v-10.02ZM485.05,12.55v6.64h1.51c.57,0,.97-.03,1.23-.1.33-.08.6-.22.82-.42.22-.2.39-.52.53-.97.14-.45.21-1.06.21-1.84s-.07-1.37-.21-1.78c-.14-.42-.33-.74-.58-.97-.25-.23-.56-.39-.93-.47-.28-.06-.84-.09-1.66-.09h-.91Z"/>
  <path id="Arial-BoldMT-653" data-name="Arial-BoldMT-65" class="st21" d="M497.34,18.57l1.91.32c-.25.7-.63,1.24-1.17,1.6-.53.37-1.19.55-1.99.55-1.26,0-2.2-.41-2.8-1.24-.48-.66-.72-1.49-.72-2.5,0-1.2.31-2.15.94-2.83.63-.68,1.43-1.02,2.39-1.02,1.08,0,1.93.36,2.56,1.07s.92,1.81.89,3.28h-4.81c.01.57.17,1.01.47,1.33.3.32.67.47,1.11.47.3,0,.55-.08.76-.25.21-.16.36-.43.47-.79ZM497.45,16.63c-.01-.56-.16-.98-.43-1.27-.27-.29-.61-.44-1-.44-.42,0-.76.15-1.04.46-.27.31-.41.72-.4,1.24h2.87Z"/>
  <path id="Arial-BoldMT-6d1" data-name="Arial-BoldMT-6d" class="st21" d="M500.78,13.62h1.77v.99c.63-.77,1.39-1.16,2.26-1.16.46,0,.87.1,1.21.29.34.19.62.48.84.87.32-.39.66-.68,1.03-.87.37-.19.76-.29,1.18-.29.53,0,.98.11,1.35.33.37.22.64.53.83.95.13.31.2.81.2,1.5v4.64h-1.92v-4.15c0-.72-.07-1.18-.2-1.39-.18-.27-.45-.41-.82-.41-.27,0-.52.08-.76.25-.24.16-.41.4-.51.72s-.16.82-.16,1.5v3.49h-1.92v-3.98c0-.71-.03-1.16-.1-1.37-.07-.21-.18-.36-.32-.46-.14-.1-.34-.15-.58-.15-.3,0-.56.08-.8.24-.24.16-.41.39-.51.69-.1.3-.15.8-.15,1.5v3.53h-1.92v-7.26Z"/>
  <path id="Arial-BoldMT-611" data-name="Arial-BoldMT-61" class="st21" d="M514.8,15.84l-1.74-.32c.2-.7.53-1.22,1.01-1.56.48-.34,1.19-.51,2.13-.51.86,0,1.5.1,1.91.3.42.2.72.46.89.77s.26.89.26,1.72l-.02,2.24c0,.64.03,1.11.09,1.41.06.3.18.63.35.97h-1.9c-.05-.13-.11-.32-.18-.57-.03-.12-.06-.19-.07-.23-.33.32-.68.56-1.05.72-.37.16-.77.24-1.2.24-.75,0-1.34-.2-1.77-.61-.43-.41-.65-.92-.65-1.54,0-.41.1-.78.29-1.1.2-.32.47-.57.82-.74.35-.17.86-.32,1.53-.45.9-.17,1.52-.33,1.87-.47v-.19c0-.37-.09-.63-.27-.79s-.53-.24-1.03-.24c-.34,0-.61.07-.8.2s-.35.37-.46.71ZM517.37,17.39c-.25.08-.64.18-1.17.3-.53.11-.88.23-1.05.33-.25.18-.38.4-.38.68s.1.5.3.7c.2.2.46.29.77.29.35,0,.68-.11.99-.34.23-.17.38-.39.46-.64.05-.16.08-.48.08-.94v-.38Z"/>
  <path id="Arial-BoldMT-6e4" data-name="Arial-BoldMT-6e" class="st21" d="M527.76,20.88h-1.92v-3.71c0-.78-.04-1.29-.12-1.52s-.22-.41-.4-.54c-.19-.13-.41-.19-.67-.19-.33,0-.63.09-.89.27s-.45.42-.54.73c-.1.3-.15.86-.15,1.67v3.29h-1.92v-7.26h1.79v1.07c.63-.82,1.43-1.23,2.39-1.23.42,0,.81.08,1.16.23.35.15.62.35.8.59.18.24.31.5.38.81.07.3.11.73.11,1.29v4.51Z"/>
  <path id="Arial-BoldMT-64" class="st21" d="M536.36,20.88h-1.78v-1.07c-.3.42-.65.72-1.05.93-.4.2-.81.3-1.22.3-.83,0-1.55-.34-2.14-1.01-.59-.67-.89-1.61-.89-2.81s.29-2.17.87-2.81c.58-.64,1.31-.96,2.2-.96.81,0,1.51.34,2.1,1.01v-3.61h1.92v10.02ZM531.24,17.09c0,.77.11,1.33.32,1.68.31.5.74.75,1.3.75.44,0,.82-.19,1.13-.56.31-.38.47-.94.47-1.69,0-.83-.15-1.43-.45-1.8-.3-.37-.69-.55-1.16-.55s-.84.18-1.15.54c-.31.36-.46.9-.46,1.62Z"/>
  <path id="Arial-BoldMT-205" data-name="Arial-BoldMT-20" class="st21" d="M537.25,20.88"/>
  <path id="Arial-BoldMT-46" class="st21" d="M542.17,20.88v-10.02h6.87v1.7h-4.85v2.37h4.18v1.7h-4.18v4.26h-2.02Z"/>
  <path id="Arial-BoldMT-6f3" data-name="Arial-BoldMT-6f" class="st21" d="M550.25,17.15c0-.64.16-1.26.47-1.85.32-.6.76-1.05,1.34-1.37.58-.32,1.22-.47,1.93-.47,1.1,0,2,.36,2.7,1.07s1.05,1.61,1.05,2.7-.35,2.01-1.06,2.73c-.71.72-1.6,1.08-2.68,1.08-.67,0-1.3-.15-1.9-.45-.6-.3-1.06-.74-1.38-1.32-.32-.58-.47-1.29-.47-2.12ZM552.22,17.25c0,.72.17,1.27.51,1.65.34.38.76.57,1.27.57s.92-.19,1.26-.57c.34-.38.51-.94.51-1.67s-.17-1.26-.51-1.64c-.34-.38-.76-.58-1.26-.58s-.92.19-1.27.58c-.34.38-.51.93-.51,1.65Z"/>
  <path id="Arial-BoldMT-723" data-name="Arial-BoldMT-72" class="st21" d="M561.09,20.88h-1.92v-7.26h1.79v1.03c.3-.49.58-.81.82-.96.24-.16.52-.23.83-.23.44,0,.86.12,1.26.36l-.6,1.67c-.32-.21-.62-.31-.9-.31s-.5.07-.68.22c-.19.15-.33.41-.44.8-.11.39-.16,1.2-.16,2.43v2.24Z"/>
  <path id="Arial-BoldMT-654" data-name="Arial-BoldMT-65" class="st21" d="M568.9,18.57l1.91.32c-.25.7-.63,1.24-1.17,1.6-.53.37-1.19.55-1.99.55-1.26,0-2.2-.41-2.8-1.24-.48-.66-.72-1.49-.72-2.5,0-1.2.31-2.15.94-2.83.63-.68,1.43-1.02,2.39-1.02,1.08,0,1.93.36,2.56,1.07s.92,1.81.89,3.28h-4.81c.01.57.17,1.01.47,1.33.3.32.67.47,1.11.47.3,0,.55-.08.76-.25.21-.16.36-.43.47-.79ZM569.01,16.63c-.01-.56-.16-.98-.43-1.27-.27-.29-.61-.44-1-.44-.42,0-.76.15-1.04.46-.27.31-.41.72-.4,1.24h2.87Z"/>
  <path id="Arial-BoldMT-63" class="st21" d="M578.81,15.77l-1.89.34c-.06-.38-.21-.66-.44-.86s-.52-.29-.88-.29c-.48,0-.86.17-1.15.5-.28.33-.43.88-.43,1.66,0,.86.14,1.47.43,1.83.29.35.68.53,1.17.53.36,0,.66-.1.89-.31.23-.21.4-.56.49-1.07l1.89.32c-.2.87-.57,1.52-1.13,1.96-.56.44-1.3.66-2.24.66-1.06,0-1.91-.33-2.54-1-.63-.67-.95-1.6-.95-2.78s.32-2.13.95-2.8c.63-.67,1.49-1,2.57-1,.88,0,1.59.19,2.11.57s.9.96,1.12,1.74Z"/>
  <path id="Arial-BoldMT-612" data-name="Arial-BoldMT-61" class="st21" d="M581.71,15.84l-1.74-.32c.2-.7.53-1.22,1.01-1.56.48-.34,1.19-.51,2.13-.51.86,0,1.5.1,1.91.3.42.2.72.46.89.77s.26.89.26,1.72l-.02,2.24c0,.64.03,1.11.09,1.41.06.3.18.63.35.97h-1.9c-.05-.13-.11-.32-.18-.57-.03-.12-.06-.19-.07-.23-.33.32-.68.56-1.05.72-.37.16-.77.24-1.2.24-.75,0-1.34-.2-1.77-.61-.43-.41-.65-.92-.65-1.54,0-.41.1-.78.29-1.1.2-.32.47-.57.82-.74.35-.17.86-.32,1.53-.45.9-.17,1.52-.33,1.87-.47v-.19c0-.37-.09-.63-.27-.79s-.53-.24-1.03-.24c-.34,0-.61.07-.8.2s-.35.37-.46.71ZM584.28,17.39c-.25.08-.64.18-1.17.3-.53.11-.88.23-1.05.33-.25.18-.38.4-.38.68s.1.5.3.7c.2.2.46.29.77.29.35,0,.68-.11.99-.34.23-.17.38-.39.46-.64.05-.16.08-.48.08-.94v-.38Z"/>
  <path id="Arial-BoldMT-731" data-name="Arial-BoldMT-73" class="st21" d="M587.38,18.81l1.93-.29c.08.37.25.66.5.85.25.19.6.29,1.05.29.5,0,.87-.09,1.12-.27.17-.13.25-.3.25-.51,0-.15-.05-.27-.14-.36-.09-.09-.31-.18-.64-.25-1.55-.34-2.53-.65-2.95-.94-.57-.39-.86-.94-.86-1.63,0-.63.25-1.16.74-1.59.5-.43,1.27-.64,2.31-.64s1.73.16,2.21.49c.48.32.82.8,1,1.44l-1.81.33c-.08-.28-.22-.5-.44-.65-.22-.15-.52-.23-.93-.23-.5,0-.87.07-1.09.21-.15.1-.22.23-.22.39,0,.14.06.25.19.35.17.13.77.31,1.79.54,1.02.23,1.74.52,2.14.85.4.34.6.82.6,1.43,0,.67-.28,1.24-.83,1.72-.56.48-1.38.72-2.47.72-.99,0-1.77-.2-2.35-.6-.58-.4-.95-.95-1.13-1.63Z"/>
  <path id="Arial-BoldMT-743" data-name="Arial-BoldMT-74" class="st21" d="M599.17,13.62v1.53h-1.31v2.93c0,.59.01.94.04,1.03.03.1.08.18.17.24s.2.1.32.1c.18,0,.44-.06.77-.19l.16,1.49c-.45.19-.95.29-1.52.29-.35,0-.66-.06-.94-.17-.28-.12-.48-.27-.61-.45-.13-.19-.22-.43-.27-.75-.04-.22-.06-.67-.06-1.35v-3.17h-.88v-1.53h.88v-1.44l1.93-1.12v2.56h1.31Z"/>
  <path id="Arial-BoldMT-206" data-name="Arial-BoldMT-20" class="st21" d="M599.5,20.88"/>
  <path id="Arial-BoldMT-28" class="st21" d="M607.58,23.83h-1.32c-.7-1.05-1.23-2.15-1.59-3.28-.36-1.13-.55-2.23-.55-3.29,0-1.32.23-2.57.68-3.74.39-1.02.89-1.96,1.49-2.82h1.31c-.62,1.38-1.05,2.55-1.29,3.52-.23.97-.35,1.99-.35,3.08,0,.75.07,1.51.21,2.3.14.78.33,1.53.57,2.23.16.47.44,1.13.84,2Z"/>
  <path id="Arial-BoldMT-322" data-name="Arial-BoldMT-32" class="st21" d="M615.13,19.1v1.79h-6.74c.07-.68.29-1.31.66-1.92.36-.6,1.09-1.4,2.16-2.4.87-.81,1.4-1.35,1.59-1.64.26-.4.4-.79.4-1.18,0-.43-.12-.76-.35-.99-.23-.23-.55-.35-.95-.35s-.72.12-.96.36c-.24.24-.37.64-.41,1.2l-1.91-.19c.11-1.06.47-1.82,1.07-2.28.6-.46,1.35-.69,2.26-.69.99,0,1.77.27,2.33.8.57.53.85,1.2.85,1.99,0,.45-.08.88-.24,1.29s-.42.84-.77,1.28c-.23.3-.65.72-1.26,1.28-.61.56-.99.92-1.15,1.11-.16.18-.29.36-.39.53h3.82Z"/>
  <path id="Arial-BoldMT-3012" data-name="Arial-BoldMT-30" class="st21" d="M619.68,10.82c.97,0,1.73.35,2.28,1.04.65.82.98,2.18.98,4.08s-.33,3.26-.98,4.09c-.54.68-1.3,1.03-2.27,1.03s-1.76-.37-2.36-1.12c-.6-.75-.89-2.09-.89-4.01s.33-3.24.98-4.07c.54-.68,1.3-1.03,2.27-1.03ZM619.68,12.41c-.23,0-.44.07-.62.22-.18.15-.32.41-.42.8-.13.5-.2,1.33-.2,2.51s.06,1.98.18,2.42c.12.44.27.73.45.88.18.15.39.22.62.22s.44-.07.62-.22c.18-.15.32-.41.42-.8.13-.49.2-1.32.2-2.5s-.06-1.98-.18-2.42c-.12-.44-.27-.73-.45-.88-.18-.15-.39-.22-.62-.22Z"/>
  <path id="Arial-BoldMT-323" data-name="Arial-BoldMT-32" class="st21" d="M630.71,19.1v1.79h-6.74c.07-.68.29-1.31.66-1.92.36-.6,1.09-1.4,2.16-2.4.87-.81,1.4-1.35,1.59-1.64.26-.4.4-.79.4-1.18,0-.43-.12-.76-.35-.99-.23-.23-.55-.35-.95-.35s-.72.12-.96.36c-.24.24-.37.64-.41,1.2l-1.91-.19c.11-1.06.47-1.82,1.07-2.28.6-.46,1.35-.69,2.26-.69.99,0,1.77.27,2.33.8.57.53.85,1.2.85,1.99,0,.45-.08.88-.24,1.29s-.42.84-.77,1.28c-.23.3-.65.72-1.26,1.28-.61.56-.99.92-1.15,1.11-.16.18-.29.36-.39.53h3.82Z"/>
  <path id="Arial-BoldMT-36" class="st21" d="M638.51,13.31l-1.86.2c-.05-.38-.16-.66-.36-.85-.19-.18-.44-.27-.74-.27-.41,0-.75.18-1.03.55-.28.36-.46,1.12-.53,2.28.48-.56,1.07-.85,1.79-.85.8,0,1.49.31,2.06.92.57.61.86,1.4.86,2.36,0,1.03-.3,1.85-.9,2.47-.6.62-1.37.93-2.32.93-1.01,0-1.84-.39-2.49-1.18-.65-.79-.98-2.07-.98-3.87s.34-3.16,1.02-3.97c.68-.81,1.56-1.22,2.65-1.22.76,0,1.39.21,1.89.64s.82,1.04.95,1.86ZM634.16,17.5c0,.62.14,1.11.43,1.45.29.34.62.51.98.51s.65-.14.89-.42c.24-.28.36-.74.36-1.37s-.13-1.13-.38-1.43c-.26-.3-.57-.46-.96-.46s-.68.15-.94.44c-.26.29-.38.72-.38,1.28Z"/>
  <path id="Arial-BoldMT-2d1" data-name="Arial-BoldMT-2d" class="st21" d="M639.98,18.21v-1.92h3.77v1.92h-3.77Z"/>
  <path id="Arial-BoldMT-324" data-name="Arial-BoldMT-32" class="st21" d="M650.94,19.1v1.79h-6.74c.07-.68.29-1.31.66-1.92.36-.6,1.09-1.4,2.16-2.4.87-.81,1.4-1.35,1.59-1.64.26-.4.4-.79.4-1.18,0-.43-.12-.76-.35-.99-.23-.23-.55-.35-.95-.35s-.72.12-.96.36c-.24.24-.37.64-.41,1.2l-1.91-.19c.11-1.06.47-1.82,1.07-2.28.6-.46,1.35-.69,2.26-.69.99,0,1.77.27,2.33.8.57.53.85,1.2.85,1.99,0,.45-.08.88-.24,1.29s-.42.84-.77,1.28c-.23.3-.65.72-1.26,1.28-.61.56-.99.92-1.15,1.11-.16.18-.29.36-.39.53h3.82Z"/>
  <path id="Arial-BoldMT-3013" data-name="Arial-BoldMT-30" class="st21" d="M655.49,10.82c.97,0,1.73.35,2.28,1.04.65.82.98,2.18.98,4.08s-.33,3.26-.98,4.09c-.54.68-1.3,1.03-2.27,1.03s-1.76-.37-2.36-1.12c-.6-.75-.89-2.09-.89-4.01s.33-3.24.98-4.07c.54-.68,1.3-1.03,2.27-1.03ZM655.49,12.41c-.23,0-.44.07-.62.22-.18.15-.32.41-.42.8-.13.5-.2,1.33-.2,2.51s.06,1.98.18,2.42c.12.44.27.73.45.88.18.15.39.22.62.22s.44-.07.62-.22c.18-.15.32-.41.42-.8.13-.49.2-1.32.2-2.5s-.06-1.98-.18-2.42c-.12-.44-.27-.73-.45-.88-.18-.15-.39-.22-.62-.22Z"/>
  <path id="Arial-BoldMT-331" data-name="Arial-BoldMT-33" class="st21" d="M659.96,18.22l1.86-.23c.06.47.22.84.48,1.09.26.25.58.38.95.38.4,0,.73-.15,1-.45.27-.3.41-.71.41-1.22,0-.48-.13-.86-.39-1.15-.26-.28-.58-.42-.95-.42-.25,0-.54.05-.88.14l.21-1.56c.52.01.92-.1,1.19-.34.27-.24.41-.56.41-.95,0-.34-.1-.61-.3-.81-.2-.2-.47-.3-.8-.3s-.61.11-.84.34c-.23.23-.37.56-.42,1l-1.77-.3c.12-.61.31-1.09.56-1.45.25-.36.59-.65,1.04-.86.44-.21.94-.31,1.49-.31.94,0,1.7.3,2.27.9.47.49.7,1.05.7,1.67,0,.88-.48,1.58-1.44,2.1.57.12,1.03.4,1.38.83.34.43.52.94.52,1.55,0,.88-.32,1.63-.96,2.25-.64.62-1.44.93-2.4.93-.91,0-1.66-.26-2.26-.78-.6-.52-.94-1.2-1.04-2.05Z"/>
  <path id="Arial-BoldMT-354" data-name="Arial-BoldMT-35" class="st21" d="M667.84,18.3l1.91-.2c.06.43.22.78.49,1.03.27.25.58.38.93.38.4,0,.74-.16,1.02-.49.28-.33.42-.82.42-1.47,0-.62-.14-1.08-.42-1.38-.28-.31-.63-.46-1.08-.46-.55,0-1.05.24-1.48.73l-1.56-.23.98-5.22h5.08v1.8h-3.62l-.3,1.7c.43-.21.87-.32,1.31-.32.85,0,1.57.31,2.17.93.59.62.89,1.42.89,2.41,0,.83-.24,1.56-.72,2.21-.65.88-1.56,1.33-2.71,1.33-.92,0-1.68-.25-2.26-.74-.58-.5-.93-1.17-1.05-2Z"/>
  <path id="Arial-BoldMT-29" class="st21" d="M675.47,23.83c.38-.81.64-1.43.8-1.87.16-.43.3-.93.43-1.5.13-.57.23-1.1.29-1.61.06-.51.1-1.03.1-1.56,0-1.08-.12-2.11-.35-3.08-.23-.97-.66-2.14-1.29-3.52h1.31c.69.98,1.22,2.02,1.6,3.12.38,1.1.57,2.21.57,3.34,0,.95-.15,1.97-.45,3.06-.34,1.22-.91,2.43-1.69,3.62h-1.33Z"/>
</svg>