<?xml version="1.0" encoding="utf-8" standalone="no"?>
<!DOCTYPE svg PUBLIC "-//W3C//DTD SVG 1.1//EN"
  "http://www.w3.org/Graphics/SVG/1.1/DTD/svg11.dtd">
<svg xmlns:xlink="http://www.w3.org/1999/xlink" width="936pt" height="576pt" viewBox="0 0 936 576" xmlns="http://www.w3.org/2000/svg" version="1.1">
 <metadata>
  <rdf:RDF xmlns:dc="http://purl.org/dc/elements/1.1/" xmlns:cc="http://creativecommons.org/ns#" xmlns:rdf="http://www.w3.org/1999/02/22-rdf-syntax-ns#">
   <cc:Work>
    <dc:type rdf:resource="http://purl.org/dc/dcmitype/StillImage"/>
    <dc:date>2026-07-03T06:23:43.957890</dc:date>
    <dc:format>image/svg+xml</dc:format>
    <dc:creator>
     <cc:Agent>
      <dc:title>Matplotlib v3.10.9, https://matplotlib.org/</dc:title>
     </cc:Agent>
    </dc:creator>
   </cc:Work>
  </rdf:RDF>
 </metadata>
 <defs>
  <style type="text/css">*{stroke-linejoin: round; stroke-linecap: butt}</style>
 </defs>
 <g id="figure_1">
  <g id="patch_1">
   <path d="M 0 576 
L 936 576 
L 936 0 
L 0 0 
z
" style="fill: #ffffff"/>
  </g>
  <g id="axes_1">
   <g id="FillBetweenPolyCollection_1">
    <defs>
     <path id="mc18ff770ee" d="M 10.8 -76.34 
L 10.8 -10.8 
L 925.2 -10.8 
L 925.2 -76.34 
L 925.2 -76.34 
L 10.8 -76.34 
z
" style="stroke: #8b4513; stroke-opacity: 0.3"/>
    </defs>
    <g clip-path="url(#p3718893f1f)">
     <use xlink:href="#mc18ff770ee" x="0" y="576" style="fill: #8b4513; fill-opacity: 0.3; stroke: #8b4513; stroke-opacity: 0.3"/>
    </g>
   </g>
   <g id="patch_2">
    <path d="M 81.138462 473.444 
L 221.815385 473.444 
Q 228.849231 473.444 228.849231 466.89 
L 228.849231 368.58 
Q 228.849231 362.026 221.815385 362.026 
L 81.138462 362.026 
Q 74.104615 362.026 74.104615 368.58 
L 74.104615 466.89 
Q 74.104615 473.444 81.138462 473.444 
z
" clip-path="url(#p3718893f1f)" style="fill: #003366; stroke: #000000; stroke-width: 2; stroke-linejoin: miter"/>
   </g>
   <g id="patch_3">
    <path d="M 573.507692 276.824 
C 584.700079 276.824 595.435562 272.680575 603.349774 265.306267 
C 611.263987 257.931959 615.710769 247.928847 615.710769 237.5 
C 615.710769 227.071153 611.263987 217.068041 603.349774 209.693733 
C 595.435562 202.319425 584.700079 198.176 573.507692 198.176 
C 562.315305 198.176 551.579823 202.319425 543.66561 209.693733 
C 535.751398 217.068041 531.304615 227.071153 531.304615 237.5 
C 531.304615 247.928847 535.751398 257.931959 543.66561 265.306267 
C 551.579823 272.680575 562.315305 276.824 573.507692 276.824 
z
" clip-path="url(#p3718893f1f)" style="fill: #ff6600; stroke: #000000; stroke-width: 2; stroke-linejoin: miter"/>
   </g>
   <g id="patch_4">
    <path d="M 362.492308 211.284 
C 373.684695 211.284 384.420177 207.140575 392.33439 199.766267 
C 400.248602 192.391959 404.695385 182.388847 404.695385 171.96 
C 404.695385 161.531153 400.248602 151.528041 392.33439 144.153733 
C 384.420177 136.779425 373.684695 132.636 362.492308 132.636 
C 351.299921 132.636 340.564438 136.779425 332.650226 144.153733 
C 324.736013 151.528041 320.289231 161.531153 320.289231 171.96 
C 320.289231 182.388847 324.736013 192.391959 332.650226 199.766267 
C 340.564438 207.140575 351.299921 211.284 362.492308 211.284 
z
" clip-path="url(#p3718893f1f)" style="fill: #cc0000; stroke: #000000; stroke-width: 2; stroke-linejoin: miter"/>
   </g>
   <g id="patch_5">
    <path d="M 714.184615 473.444 
L 854.861538 473.444 
Q 861.895385 473.444 861.895385 466.89 
L 861.895385 368.58 
Q 861.895385 362.026 854.861538 362.026 
L 714.184615 362.026 
Q 707.150769 362.026 707.150769 368.58 
L 707.150769 466.89 
Q 707.150769 473.444 714.184615 473.444 
z
" clip-path="url(#p3718893f1f)" style="fill: #666666; stroke: #000000; stroke-width: 2; stroke-linejoin: miter"/>
   </g>
   <g id="line2d_1">
    <path d="M 10.8 499.66 
L 925.2 499.66 
" clip-path="url(#p3718893f1f)" style="fill: none; stroke: #666666; stroke-width: 3; stroke-linecap: square"/>
   </g>
   <g id="text_1">
    <!-- MANNED -->
    <g style="fill: #ffffff" transform="translate(131.727548 410.436563) scale(0.09 -0.09)">
     <defs>
      <path id="Arial-BoldMT-4d" d="M 453 0 
L 453 4581 
L 1838 4581 
L 2669 1456 
L 3491 4581 
L 4878 4581 
L 4878 0 
L 4019 0 
L 4019 3606 
L 3109 0 
L 2219 0 
L 1313 3606 
L 1313 0 
L 453 0 
z
" transform="scale(0.015625)"/>
      <path id="Arial-BoldMT-41" d="M 4597 0 
L 3591 0 
L 3191 1041 
L 1359 1041 
L 981 0 
L 0 0 
L 1784 4581 
L 2763 4581 
L 4597 0 
z
M 2894 1813 
L 2263 3513 
L 1644 1813 
L 2894 1813 
z
" transform="scale(0.015625)"/>
      <path id="Arial-BoldMT-4e" d="M 475 0 
L 475 4581 
L 1375 4581 
L 3250 1522 
L 3250 4581 
L 4109 4581 
L 4109 0 
L 3181 0 
L 1334 2988 
L 1334 0 
L 475 0 
z
" transform="scale(0.015625)"/>
      <path id="Arial-BoldMT-45" d="M 466 0 
L 466 4581 
L 3863 4581 
L 3863 3806 
L 1391 3806 
L 1391 2791 
L 3691 2791 
L 3691 2019 
L 1391 2019 
L 1391 772 
L 3950 772 
L 3950 0 
L 466 0 
z
" transform="scale(0.015625)"/>
      <path id="Arial-BoldMT-44" d="M 463 4581 
L 2153 4581 
Q 2725 4581 3025 4494 
Q 3428 4375 3715 4072 
Q 4003 3769 4153 3330 
Q 4303 2891 4303 2247 
Q 4303 1681 4163 1272 
Q 3991 772 3672 463 
Q 3431 228 3022 97 
Q 2716 0 2203 0 
L 463 0 
L 463 4581 
z
M 1388 3806 
L 1388 772 
L 2078 772 
Q 2466 772 2638 816 
Q 2863 872 3011 1006 
Q 3159 1141 3253 1448 
Q 3347 1756 3347 2288 
Q 3347 2819 3253 3103 
Q 3159 3388 2990 3547 
Q 2822 3706 2563 3763 
Q 2369 3806 1803 3806 
L 1388 3806 
z
" transform="scale(0.015625)"/>
     </defs>
     <use xlink:href="#Arial-BoldMT-4d"/>
     <use xlink:href="#Arial-BoldMT-41" transform="translate(83.300781 0)"/>
     <use xlink:href="#Arial-BoldMT-4e" transform="translate(155.517578 0)"/>
     <use xlink:href="#Arial-BoldMT-4e" transform="translate(227.734375 0)"/>
     <use xlink:href="#Arial-BoldMT-45" transform="translate(299.951172 0)"/>
     <use xlink:href="#Arial-BoldMT-44" transform="translate(366.650391 0)"/>
    </g>
    <!-- PLATFORM -->
    <g style="fill: #ffffff" transform="translate(126.813407 419.943094) scale(0.09 -0.09)">
     <defs>
      <path id="Arial-BoldMT-50" d="M 466 0 
L 466 4581 
L 1950 4581 
Q 2794 4581 3050 4513 
Q 3444 4409 3709 4064 
Q 3975 3719 3975 3172 
Q 3975 2750 3822 2462 
Q 3669 2175 3433 2011 
Q 3197 1847 2953 1794 
Q 2622 1728 1994 1728 
L 1391 1728 
L 1391 0 
L 466 0 
z
M 1391 3806 
L 1391 2506 
L 1897 2506 
Q 2444 2506 2628 2578 
Q 2813 2650 2917 2803 
Q 3022 2956 3022 3159 
Q 3022 3409 2875 3571 
Q 2728 3734 2503 3775 
Q 2338 3806 1838 3806 
L 1391 3806 
z
" transform="scale(0.015625)"/>
      <path id="Arial-BoldMT-4c" d="M 491 0 
L 491 4544 
L 1416 4544 
L 1416 772 
L 3716 772 
L 3716 0 
L 491 0 
z
" transform="scale(0.015625)"/>
      <path id="Arial-BoldMT-54" d="M 1497 0 
L 1497 3806 
L 138 3806 
L 138 4581 
L 3778 4581 
L 3778 3806 
L 2422 3806 
L 2422 0 
L 1497 0 
z
" transform="scale(0.015625)"/>
      <path id="Arial-BoldMT-46" d="M 472 0 
L 472 4581 
L 3613 4581 
L 3613 3806 
L 1397 3806 
L 1397 2722 
L 3309 2722 
L 3309 1947 
L 1397 1947 
L 1397 0 
L 472 0 
z
" transform="scale(0.015625)"/>
      <path id="Arial-BoldMT-4f" d="M 278 2263 
Q 278 2963 488 3438 
Q 644 3788 914 4066 
Q 1184 4344 1506 4478 
Q 1934 4659 2494 4659 
Q 3506 4659 4114 4031 
Q 4722 3403 4722 2284 
Q 4722 1175 4119 548 
Q 3516 -78 2506 -78 
Q 1484 -78 881 545 
Q 278 1169 278 2263 
z
M 1231 2294 
Q 1231 1516 1590 1114 
Q 1950 713 2503 713 
Q 3056 713 3411 1111 
Q 3766 1509 3766 2306 
Q 3766 3094 3420 3481 
Q 3075 3869 2503 3869 
Q 1931 3869 1581 3476 
Q 1231 3084 1231 2294 
z
" transform="scale(0.015625)"/>
      <path id="Arial-BoldMT-52" d="M 469 0 
L 469 4581 
L 2416 4581 
Q 3150 4581 3483 4457 
Q 3816 4334 4016 4018 
Q 4216 3703 4216 3297 
Q 4216 2781 3912 2445 
Q 3609 2109 3006 2022 
Q 3306 1847 3501 1637 
Q 3697 1428 4028 894 
L 4588 0 
L 3481 0 
L 2813 997 
Q 2456 1531 2325 1670 
Q 2194 1809 2047 1861 
Q 1900 1913 1581 1913 
L 1394 1913 
L 1394 0 
L 469 0 
z
M 1394 2644 
L 2078 2644 
Q 2744 2644 2909 2700 
Q 3075 2756 3169 2893 
Q 3263 3031 3263 3238 
Q 3263 3469 3139 3611 
Q 3016 3753 2791 3791 
Q 2678 3806 2116 3806 
L 1394 3806 
L 1394 2644 
z
" transform="scale(0.015625)"/>
     </defs>
     <use xlink:href="#Arial-BoldMT-50"/>
     <use xlink:href="#Arial-BoldMT-4c" transform="translate(66.699219 0)"/>
     <use xlink:href="#Arial-BoldMT-41" transform="translate(127.783203 0)"/>
     <use xlink:href="#Arial-BoldMT-54" transform="translate(192.625 0)"/>
     <use xlink:href="#Arial-BoldMT-46" transform="translate(253.708984 0)"/>
     <use xlink:href="#Arial-BoldMT-4f" transform="translate(314.792969 0)"/>
     <use xlink:href="#Arial-BoldMT-52" transform="translate(392.576172 0)"/>
     <use xlink:href="#Arial-BoldMT-4d" transform="translate(464.792969 0)"/>
    </g>
    <!-- (Tank/Heli) -->
    <g style="fill: #ffffff" transform="translate(128.80747 429.58125) scale(0.09 -0.09)">
     <defs>
      <path id="Arial-BoldMT-28" d="M 1916 -1347 
L 1313 -1347 
Q 834 -625 584 153 
Q 334 931 334 1659 
Q 334 2563 644 3369 
Q 913 4069 1325 4659 
L 1925 4659 
Q 1497 3713 1336 3048 
Q 1175 2384 1175 1641 
Q 1175 1128 1270 590 
Q 1366 53 1531 -431 
Q 1641 -750 1916 -1347 
z
" transform="scale(0.015625)"/>
      <path id="Arial-BoldMT-61" d="M 1116 2306 
L 319 2450 
Q 453 2931 781 3162 
Q 1109 3394 1756 3394 
Q 2344 3394 2631 3255 
Q 2919 3116 3036 2902 
Q 3153 2688 3153 2116 
L 3144 1091 
Q 3144 653 3186 445 
Q 3228 238 3344 0 
L 2475 0 
Q 2441 88 2391 259 
Q 2369 338 2359 363 
Q 2134 144 1878 34 
Q 1622 -75 1331 -75 
Q 819 -75 523 203 
Q 228 481 228 906 
Q 228 1188 362 1408 
Q 497 1628 739 1745 
Q 981 1863 1438 1950 
Q 2053 2066 2291 2166 
L 2291 2253 
Q 2291 2506 2166 2614 
Q 2041 2722 1694 2722 
Q 1459 2722 1328 2630 
Q 1197 2538 1116 2306 
z
M 2291 1594 
Q 2122 1538 1756 1459 
Q 1391 1381 1278 1306 
Q 1106 1184 1106 997 
Q 1106 813 1243 678 
Q 1381 544 1594 544 
Q 1831 544 2047 700 
Q 2206 819 2256 991 
Q 2291 1103 2291 1419 
L 2291 1594 
z
" transform="scale(0.015625)"/>
      <path id="Arial-BoldMT-6e" d="M 3478 0 
L 2600 0 
L 2600 1694 
Q 2600 2231 2544 2389 
Q 2488 2547 2361 2634 
Q 2234 2722 2056 2722 
Q 1828 2722 1647 2597 
Q 1466 2472 1398 2265 
Q 1331 2059 1331 1503 
L 1331 0 
L 453 0 
L 453 3319 
L 1269 3319 
L 1269 2831 
Q 1703 3394 2363 3394 
Q 2653 3394 2893 3289 
Q 3134 3184 3257 3021 
Q 3381 2859 3429 2653 
Q 3478 2447 3478 2063 
L 3478 0 
z
" transform="scale(0.015625)"/>
      <path id="Arial-BoldMT-6b" d="M 428 0 
L 428 4581 
L 1306 4581 
L 1306 2150 
L 2334 3319 
L 3416 3319 
L 2281 2106 
L 3497 0 
L 2550 0 
L 1716 1491 
L 1306 1063 
L 1306 0 
L 428 0 
z
" transform="scale(0.015625)"/>
      <path id="Arial-BoldMT-2f" d="M -9 -78 
L 1125 4659 
L 1784 4659 
L 638 -78 
L -9 -78 
z
" transform="scale(0.015625)"/>
      <path id="Arial-BoldMT-48" d="M 469 0 
L 469 4581 
L 1394 4581 
L 1394 2778 
L 3206 2778 
L 3206 4581 
L 4131 4581 
L 4131 0 
L 3206 0 
L 3206 2003 
L 1394 2003 
L 1394 0 
L 469 0 
z
" transform="scale(0.015625)"/>
      <path id="Arial-BoldMT-65" d="M 2381 1056 
L 3256 909 
Q 3088 428 2723 176 
Q 2359 -75 1813 -75 
Q 947 -75 531 491 
Q 203 944 203 1634 
Q 203 2459 634 2926 
Q 1066 3394 1725 3394 
Q 2466 3394 2894 2905 
Q 3322 2416 3303 1406 
L 1103 1406 
Q 1113 1016 1316 798 
Q 1519 581 1822 581 
Q 2028 581 2168 693 
Q 2309 806 2381 1056 
z
M 2431 1944 
Q 2422 2325 2234 2523 
Q 2047 2722 1778 2722 
Q 1491 2722 1303 2513 
Q 1116 2303 1119 1944 
L 2431 1944 
z
" transform="scale(0.015625)"/>
      <path id="Arial-BoldMT-6c" d="M 459 0 
L 459 4581 
L 1338 4581 
L 1338 0 
L 459 0 
z
" transform="scale(0.015625)"/>
      <path id="Arial-BoldMT-69" d="M 459 3769 
L 459 4581 
L 1338 4581 
L 1338 3769 
L 459 3769 
z
M 459 0 
L 459 3319 
L 1338 3319 
L 1338 0 
L 459 0 
z
" transform="scale(0.015625)"/>
      <path id="Arial-BoldMT-29" d="M 216 -1347 
Q 475 -791 581 -494 
Q 688 -197 778 190 
Q 869 578 912 926 
Q 956 1275 956 1641 
Q 956 2384 797 3048 
Q 638 3713 209 4659 
L 806 4659 
Q 1278 3988 1539 3234 
Q 1800 2481 1800 1706 
Q 1800 1053 1594 306 
Q 1359 -531 822 -1347 
L 216 -1347 
z
" transform="scale(0.015625)"/>
     </defs>
     <use xlink:href="#Arial-BoldMT-28"/>
     <use xlink:href="#Arial-BoldMT-54" transform="translate(33.300781 0)"/>
     <use xlink:href="#Arial-BoldMT-61" transform="translate(87.009766 0)"/>
     <use xlink:href="#Arial-BoldMT-6e" transform="translate(142.625 0)"/>
     <use xlink:href="#Arial-BoldMT-6b" transform="translate(203.708984 0)"/>
     <use xlink:href="#Arial-BoldMT-2f" transform="translate(259.324219 0)"/>
     <use xlink:href="#Arial-BoldMT-48" transform="translate(287.107422 0)"/>
     <use xlink:href="#Arial-BoldMT-65" transform="translate(359.324219 0)"/>
     <use xlink:href="#Arial-BoldMT-6c" transform="translate(414.939453 0)"/>
     <use xlink:href="#Arial-BoldMT-69" transform="translate(442.722656 0)"/>
     <use xlink:href="#Arial-BoldMT-29" transform="translate(470.505859 0)"/>
    </g>
   </g>
   <g id="text_2">
    <!-- HUNTER -->
    <g style="fill: #ffffff" transform="translate(556.841442 235.237625) scale(0.08 -0.08)">
     <defs>
      <path id="Arial-BoldMT-55" d="M 459 4581 
L 1384 4581 
L 1384 2100 
Q 1384 1509 1419 1334 
Q 1478 1053 1701 883 
Q 1925 713 2313 713 
Q 2706 713 2906 873 
Q 3106 1034 3147 1268 
Q 3188 1503 3188 2047 
L 3188 4581 
L 4113 4581 
L 4113 2175 
Q 4113 1350 4038 1009 
Q 3963 669 3761 434 
Q 3559 200 3221 61 
Q 2884 -78 2341 -78 
Q 1684 -78 1345 73 
Q 1006 225 809 467 
Q 613 709 550 975 
Q 459 1369 459 2138 
L 459 4581 
z
" transform="scale(0.015625)"/>
     </defs>
     <use xlink:href="#Arial-BoldMT-48"/>
     <use xlink:href="#Arial-BoldMT-55" transform="translate(72.216797 0)"/>
     <use xlink:href="#Arial-BoldMT-4e" transform="translate(144.433594 0)"/>
     <use xlink:href="#Arial-BoldMT-54" transform="translate(216.650391 0)"/>
     <use xlink:href="#Arial-BoldMT-45" transform="translate(277.734375 0)"/>
     <use xlink:href="#Arial-BoldMT-52" transform="translate(344.433594 0)"/>
    </g>
    <!-- (ISR) -->
    <g style="fill: #ffffff" transform="translate(564.175817 243.804875) scale(0.08 -0.08)">
     <defs>
      <path id="Arial-BoldMT-49" d="M 438 0 
L 438 4581 
L 1363 4581 
L 1363 0 
L 438 0 
z
" transform="scale(0.015625)"/>
      <path id="Arial-BoldMT-53" d="M 231 1491 
L 1131 1578 
Q 1213 1125 1461 912 
Q 1709 700 2131 700 
Q 2578 700 2804 889 
Q 3031 1078 3031 1331 
Q 3031 1494 2936 1608 
Q 2841 1722 2603 1806 
Q 2441 1863 1863 2006 
Q 1119 2191 819 2459 
Q 397 2838 397 3381 
Q 397 3731 595 4036 
Q 794 4341 1167 4500 
Q 1541 4659 2069 4659 
Q 2931 4659 3367 4281 
Q 3803 3903 3825 3272 
L 2900 3231 
Q 2841 3584 2645 3739 
Q 2450 3894 2059 3894 
Q 1656 3894 1428 3728 
Q 1281 3622 1281 3444 
Q 1281 3281 1419 3166 
Q 1594 3019 2269 2859 
Q 2944 2700 3267 2529 
Q 3591 2359 3773 2064 
Q 3956 1769 3956 1334 
Q 3956 941 3737 597 
Q 3519 253 3119 86 
Q 2719 -81 2122 -81 
Q 1253 -81 787 320 
Q 322 722 231 1491 
z
" transform="scale(0.015625)"/>
     </defs>
     <use xlink:href="#Arial-BoldMT-28"/>
     <use xlink:href="#Arial-BoldMT-49" transform="translate(33.300781 0)"/>
     <use xlink:href="#Arial-BoldMT-53" transform="translate(61.083984 0)"/>
     <use xlink:href="#Arial-BoldMT-52" transform="translate(127.783203 0)"/>
     <use xlink:href="#Arial-BoldMT-29" transform="translate(200 0)"/>
    </g>
   </g>
   <g id="text_3">
    <!-- KILLER -->
    <g style="fill: #ffffff" transform="translate(348.049183 169.697625) scale(0.08 -0.08)">
     <defs>
      <path id="Arial-BoldMT-4b" d="M 478 0 
L 478 4581 
L 1403 4581 
L 1403 2547 
L 3272 4581 
L 4516 4581 
L 2791 2797 
L 4609 0 
L 3413 0 
L 2153 2150 
L 1403 1384 
L 1403 0 
L 478 0 
z
" transform="scale(0.015625)"/>
     </defs>
     <use xlink:href="#Arial-BoldMT-4b"/>
     <use xlink:href="#Arial-BoldMT-49" transform="translate(72.216797 0)"/>
     <use xlink:href="#Arial-BoldMT-4c" transform="translate(100 0)"/>
     <use xlink:href="#Arial-BoldMT-4c" transform="translate(161.083984 0)"/>
     <use xlink:href="#Arial-BoldMT-45" transform="translate(222.167969 0)"/>
     <use xlink:href="#Arial-BoldMT-52" transform="translate(288.867188 0)"/>
    </g>
    <!-- (LM) -->
    <g style="fill: #ffffff" transform="translate(354.053558 178.264875) scale(0.08 -0.08)">
     <use xlink:href="#Arial-BoldMT-28"/>
     <use xlink:href="#Arial-BoldMT-4c" transform="translate(33.300781 0)"/>
     <use xlink:href="#Arial-BoldMT-4d" transform="translate(94.384766 0)"/>
     <use xlink:href="#Arial-BoldMT-29" transform="translate(177.685547 0)"/>
    </g>
   </g>
   <g id="text_4">
    <!-- ENEMY -->
    <g style="fill: #ffffff" transform="translate(768.519952 415.314703) scale(0.09 -0.09)">
     <defs>
      <path id="Arial-BoldMT-59" d="M 1669 0 
L 1669 1928 
L -9 4581 
L 1075 4581 
L 2153 2769 
L 3209 4581 
L 4275 4581 
L 2591 1922 
L 2591 0 
L 1669 0 
z
" transform="scale(0.015625)"/>
     </defs>
     <use xlink:href="#Arial-BoldMT-45"/>
     <use xlink:href="#Arial-BoldMT-4e" transform="translate(66.699219 0)"/>
     <use xlink:href="#Arial-BoldMT-45" transform="translate(138.916016 0)"/>
     <use xlink:href="#Arial-BoldMT-4d" transform="translate(205.615234 0)"/>
     <use xlink:href="#Arial-BoldMT-59" transform="translate(288.916016 0)"/>
    </g>
    <!-- TARGET -->
    <g style="fill: #ffffff" transform="translate(766.356436 424.821234) scale(0.09 -0.09)">
     <defs>
      <path id="Arial-BoldMT-47" d="M 2597 1684 
L 2597 2456 
L 4591 2456 
L 4591 631 
Q 4300 350 3748 136 
Q 3197 -78 2631 -78 
Q 1913 -78 1378 223 
Q 844 525 575 1086 
Q 306 1647 306 2306 
Q 306 3022 606 3578 
Q 906 4134 1484 4431 
Q 1925 4659 2581 4659 
Q 3434 4659 3914 4301 
Q 4394 3944 4531 3313 
L 3613 3141 
Q 3516 3478 3248 3673 
Q 2981 3869 2581 3869 
Q 1975 3869 1617 3484 
Q 1259 3100 1259 2344 
Q 1259 1528 1621 1120 
Q 1984 713 2572 713 
Q 2863 713 3155 827 
Q 3447 941 3656 1103 
L 3656 1684 
L 2597 1684 
z
" transform="scale(0.015625)"/>
     </defs>
     <use xlink:href="#Arial-BoldMT-54"/>
     <use xlink:href="#Arial-BoldMT-41" transform="translate(53.708984 0)"/>
     <use xlink:href="#Arial-BoldMT-52" transform="translate(125.925781 0)"/>
     <use xlink:href="#Arial-BoldMT-47" transform="translate(198.142578 0)"/>
     <use xlink:href="#Arial-BoldMT-45" transform="translate(275.925781 0)"/>
     <use xlink:href="#Arial-BoldMT-54" transform="translate(342.625 0)"/>
    </g>
   </g>
   <g id="patch_6">
    <path d="M 188.457313 400.506199 
Q 362.491633 319.425315 534.499062 239.288739 
" style="fill: none; stroke-dasharray: 7.4,3.2; stroke-dashoffset: 0; stroke: #0066cc; stroke-width: 2; stroke-linecap: round"/>
    <path d="M 530.028636 239.165063 
L 534.499062 239.288739 
L 531.717866 242.790874 
" style="fill: none; stroke-dasharray: 7.4,3.2; stroke-dashoffset: 0; stroke: #0066cc; stroke-width: 2; stroke-linecap: round"/>
   </g>
   <g id="text_5">
    <!-- Target Data -->
    <g style="fill: #0066cc" transform="translate(305.613702 327.25475) scale(0.08 -0.08)">
     <defs>
      <path id="Arial-BoldMT-72" d="M 1300 0 
L 422 0 
L 422 3319 
L 1238 3319 
L 1238 2847 
Q 1447 3181 1614 3287 
Q 1781 3394 1994 3394 
Q 2294 3394 2572 3228 
L 2300 2463 
Q 2078 2606 1888 2606 
Q 1703 2606 1575 2504 
Q 1447 2403 1373 2137 
Q 1300 1872 1300 1025 
L 1300 0 
z
" transform="scale(0.015625)"/>
      <path id="Arial-BoldMT-67" d="M 378 -219 
L 1381 -341 
Q 1406 -516 1497 -581 
Q 1622 -675 1891 -675 
Q 2234 -675 2406 -572 
Q 2522 -503 2581 -350 
Q 2622 -241 2622 53 
L 2622 538 
Q 2228 0 1628 0 
Q 959 0 569 566 
Q 263 1013 263 1678 
Q 263 2513 664 2953 
Q 1066 3394 1663 3394 
Q 2278 3394 2678 2853 
L 2678 3319 
L 3500 3319 
L 3500 341 
Q 3500 -247 3403 -537 
Q 3306 -828 3131 -993 
Q 2956 -1159 2664 -1253 
Q 2372 -1347 1925 -1347 
Q 1081 -1347 728 -1058 
Q 375 -769 375 -325 
Q 375 -281 378 -219 
z
M 1163 1728 
Q 1163 1200 1367 954 
Q 1572 709 1872 709 
Q 2194 709 2416 961 
Q 2638 1213 2638 1706 
Q 2638 2222 2425 2472 
Q 2213 2722 1888 2722 
Q 1572 2722 1367 2476 
Q 1163 2231 1163 1728 
z
" transform="scale(0.015625)"/>
      <path id="Arial-BoldMT-74" d="M 1981 3319 
L 1981 2619 
L 1381 2619 
L 1381 1281 
Q 1381 875 1398 808 
Q 1416 741 1477 697 
Q 1538 653 1625 653 
Q 1747 653 1978 738 
L 2053 56 
Q 1747 -75 1359 -75 
Q 1122 -75 931 4 
Q 741 84 652 211 
Q 563 338 528 553 
Q 500 706 500 1172 
L 500 2619 
L 97 2619 
L 97 3319 
L 500 3319 
L 500 3978 
L 1381 4491 
L 1381 3319 
L 1981 3319 
z
" transform="scale(0.015625)"/>
      <path id="Arial-BoldMT-20" transform="scale(0.015625)"/>
     </defs>
     <use xlink:href="#Arial-BoldMT-54"/>
     <use xlink:href="#Arial-BoldMT-61" transform="translate(53.708984 0)"/>
     <use xlink:href="#Arial-BoldMT-72" transform="translate(109.324219 0)"/>
     <use xlink:href="#Arial-BoldMT-67" transform="translate(148.240234 0)"/>
     <use xlink:href="#Arial-BoldMT-65" transform="translate(209.324219 0)"/>
     <use xlink:href="#Arial-BoldMT-74" transform="translate(264.939453 0)"/>
     <use xlink:href="#Arial-BoldMT-20" transform="translate(298.240234 0)"/>
     <use xlink:href="#Arial-BoldMT-44" transform="translate(326.023438 0)"/>
     <use xlink:href="#Arial-BoldMT-61" transform="translate(398.240234 0)"/>
     <use xlink:href="#Arial-BoldMT-74" transform="translate(453.855469 0)"/>
     <use xlink:href="#Arial-BoldMT-61" transform="translate(487.15625 0)"/>
    </g>
    <!-- via Datalink -->
    <g style="fill: #0066cc" transform="translate(305.092452 335.81) scale(0.08 -0.08)">
     <defs>
      <path id="Arial-BoldMT-76" d="M 1372 0 
L 34 3319 
L 956 3319 
L 1581 1625 
L 1763 1059 
Q 1834 1275 1853 1344 
Q 1897 1484 1947 1625 
L 2578 3319 
L 3481 3319 
L 2163 0 
L 1372 0 
z
" transform="scale(0.015625)"/>
     </defs>
     <use xlink:href="#Arial-BoldMT-76"/>
     <use xlink:href="#Arial-BoldMT-69" transform="translate(55.615234 0)"/>
     <use xlink:href="#Arial-BoldMT-61" transform="translate(83.398438 0)"/>
     <use xlink:href="#Arial-BoldMT-20" transform="translate(139.013672 0)"/>
     <use xlink:href="#Arial-BoldMT-44" transform="translate(166.796875 0)"/>
     <use xlink:href="#Arial-BoldMT-61" transform="translate(239.013672 0)"/>
     <use xlink:href="#Arial-BoldMT-74" transform="translate(294.628906 0)"/>
     <use xlink:href="#Arial-BoldMT-61" transform="translate(327.929688 0)"/>
     <use xlink:href="#Arial-BoldMT-6c" transform="translate(383.544922 0)"/>
     <use xlink:href="#Arial-BoldMT-69" transform="translate(411.328125 0)"/>
     <use xlink:href="#Arial-BoldMT-6e" transform="translate(439.111328 0)"/>
     <use xlink:href="#Arial-BoldMT-6b" transform="translate(500.195312 0)"/>
    </g>
   </g>
   <g id="patch_7">
    <path d="M 399.310901 186.195019 
Q 555.92257 293.208653 710.226461 398.645371 
" style="fill: none; stroke: #cc0000; stroke-width: 2.5; stroke-linecap: round"/>
    <path d="M 708.05219 394.737361 
L 710.226461 398.645371 
L 705.79549 398.039982 
" style="fill: none; stroke: #cc0000; stroke-width: 2.5; stroke-linecap: round"/>
   </g>
   <g id="text_6">
    <!-- STRIKE -->
    <g style="fill: #cc0000" transform="translate(555.172536 270.27) scale(0.1 -0.1)">
     <use xlink:href="#Arial-BoldMT-53"/>
     <use xlink:href="#Arial-BoldMT-54" transform="translate(66.699219 0)"/>
     <use xlink:href="#Arial-BoldMT-52" transform="translate(127.783203 0)"/>
     <use xlink:href="#Arial-BoldMT-49" transform="translate(200 0)"/>
     <use xlink:href="#Arial-BoldMT-4b" transform="translate(227.783203 0)"/>
     <use xlink:href="#Arial-BoldMT-45" transform="translate(300 0)"/>
    </g>
   </g>
   <g id="patch_8">
    <path d="M 571.589205 236.927965 
Q 485.584766 211.284045 401.187457 186.119322 
" style="fill: none; stroke-dasharray: 1.5,2.475; stroke-dashoffset: 0; stroke: #ff6600; stroke-width: 1.5; stroke-linecap: round"/>
    <path d="M 404.449212 189.178891 
L 401.187457 186.119322 
L 405.592165 185.34566 
" style="fill: none; stroke-dasharray: 1.5,2.475; stroke-dashoffset: 0; stroke: #ff6600; stroke-width: 1.5; stroke-linecap: round"/>
   </g>
   <g id="text_7">
    <!-- Figure 4.3: MUM-T Hunter-Killer Pair Doctrine -->
    <g style="fill: #003366" transform="translate(317.490156 20.88) scale(0.14 -0.14)">
     <defs>
      <path id="Arial-BoldMT-75" d="M 2644 0 
L 2644 497 
Q 2463 231 2167 78 
Q 1872 -75 1544 -75 
Q 1209 -75 943 72 
Q 678 219 559 484 
Q 441 750 441 1219 
L 441 3319 
L 1319 3319 
L 1319 1794 
Q 1319 1094 1367 936 
Q 1416 778 1544 686 
Q 1672 594 1869 594 
Q 2094 594 2272 717 
Q 2450 841 2515 1023 
Q 2581 1206 2581 1919 
L 2581 3319 
L 3459 3319 
L 3459 0 
L 2644 0 
z
" transform="scale(0.015625)"/>
      <path id="Arial-BoldMT-34" d="M 1994 0 
L 1994 922 
L 119 922 
L 119 1691 
L 2106 4600 
L 2844 4600 
L 2844 1694 
L 3413 1694 
L 3413 922 
L 2844 922 
L 2844 0 
L 1994 0 
z
M 1994 1694 
L 1994 3259 
L 941 1694 
L 1994 1694 
z
" transform="scale(0.015625)"/>
      <path id="Arial-BoldMT-2e" d="M 459 0 
L 459 878 
L 1338 878 
L 1338 0 
L 459 0 
z
" transform="scale(0.015625)"/>
      <path id="Arial-BoldMT-33" d="M 241 1216 
L 1091 1319 
Q 1131 994 1309 822 
Q 1488 650 1741 650 
Q 2013 650 2198 856 
Q 2384 1063 2384 1413 
Q 2384 1744 2206 1937 
Q 2028 2131 1772 2131 
Q 1603 2131 1369 2066 
L 1466 2781 
Q 1822 2772 2009 2936 
Q 2197 3100 2197 3372 
Q 2197 3603 2059 3740 
Q 1922 3878 1694 3878 
Q 1469 3878 1309 3722 
Q 1150 3566 1116 3266 
L 306 3403 
Q 391 3819 561 4067 
Q 731 4316 1036 4458 
Q 1341 4600 1719 4600 
Q 2366 4600 2756 4188 
Q 3078 3850 3078 3425 
Q 3078 2822 2419 2463 
Q 2813 2378 3048 2084 
Q 3284 1791 3284 1375 
Q 3284 772 2843 347 
Q 2403 -78 1747 -78 
Q 1125 -78 715 280 
Q 306 638 241 1216 
z
" transform="scale(0.015625)"/>
      <path id="Arial-BoldMT-3a" d="M 628 2441 
L 628 3319 
L 1506 3319 
L 1506 2441 
L 628 2441 
z
M 628 0 
L 628 878 
L 1506 878 
L 1506 0 
L 628 0 
z
" transform="scale(0.015625)"/>
      <path id="Arial-BoldMT-2d" d="M 359 1222 
L 359 2100 
L 2084 2100 
L 2084 1222 
L 359 1222 
z
" transform="scale(0.015625)"/>
      <path id="Arial-BoldMT-6f" d="M 256 1706 
Q 256 2144 472 2553 
Q 688 2963 1083 3178 
Q 1478 3394 1966 3394 
Q 2719 3394 3200 2905 
Q 3681 2416 3681 1669 
Q 3681 916 3195 420 
Q 2709 -75 1972 -75 
Q 1516 -75 1102 131 
Q 688 338 472 736 
Q 256 1134 256 1706 
z
M 1156 1659 
Q 1156 1166 1390 903 
Q 1625 641 1969 641 
Q 2313 641 2545 903 
Q 2778 1166 2778 1666 
Q 2778 2153 2545 2415 
Q 2313 2678 1969 2678 
Q 1625 2678 1390 2415 
Q 1156 2153 1156 1659 
z
" transform="scale(0.015625)"/>
      <path id="Arial-BoldMT-63" d="M 3353 2338 
L 2488 2181 
Q 2444 2441 2289 2572 
Q 2134 2703 1888 2703 
Q 1559 2703 1364 2476 
Q 1169 2250 1169 1719 
Q 1169 1128 1367 884 
Q 1566 641 1900 641 
Q 2150 641 2309 783 
Q 2469 925 2534 1272 
L 3397 1125 
Q 3263 531 2881 228 
Q 2500 -75 1859 -75 
Q 1131 -75 698 384 
Q 266 844 266 1656 
Q 266 2478 700 2936 
Q 1134 3394 1875 3394 
Q 2481 3394 2839 3133 
Q 3197 2872 3353 2338 
z
" transform="scale(0.015625)"/>
     </defs>
     <use xlink:href="#Arial-BoldMT-46"/>
     <use xlink:href="#Arial-BoldMT-69" transform="translate(61.083984 0)"/>
     <use xlink:href="#Arial-BoldMT-67" transform="translate(88.867188 0)"/>
     <use xlink:href="#Arial-BoldMT-75" transform="translate(149.951172 0)"/>
     <use xlink:href="#Arial-BoldMT-72" transform="translate(211.035156 0)"/>
     <use xlink:href="#Arial-BoldMT-65" transform="translate(249.951172 0)"/>
     <use xlink:href="#Arial-BoldMT-20" transform="translate(305.566406 0)"/>
     <use xlink:href="#Arial-BoldMT-34" transform="translate(333.349609 0)"/>
     <use xlink:href="#Arial-BoldMT-2e" transform="translate(388.964844 0)"/>
     <use xlink:href="#Arial-BoldMT-33" transform="translate(416.748047 0)"/>
     <use xlink:href="#Arial-BoldMT-3a" transform="translate(472.363281 0)"/>
     <use xlink:href="#Arial-BoldMT-20" transform="translate(505.664062 0)"/>
     <use xlink:href="#Arial-BoldMT-4d" transform="translate(533.447266 0)"/>
     <use xlink:href="#Arial-BoldMT-55" transform="translate(616.748047 0)"/>
     <use xlink:href="#Arial-BoldMT-4d" transform="translate(688.964844 0)"/>
     <use xlink:href="#Arial-BoldMT-2d" transform="translate(772.265625 0)"/>
     <use xlink:href="#Arial-BoldMT-54" transform="translate(805.566406 0)"/>
     <use xlink:href="#Arial-BoldMT-20" transform="translate(866.650391 0)"/>
     <use xlink:href="#Arial-BoldMT-48" transform="translate(894.433594 0)"/>
     <use xlink:href="#Arial-BoldMT-75" transform="translate(966.650391 0)"/>
     <use xlink:href="#Arial-BoldMT-6e" transform="translate(1027.734375 0)"/>
     <use xlink:href="#Arial-BoldMT-74" transform="translate(1088.818359 0)"/>
     <use xlink:href="#Arial-BoldMT-65" transform="translate(1122.119141 0)"/>
     <use xlink:href="#Arial-BoldMT-72" transform="translate(1177.734375 0)"/>
     <use xlink:href="#Arial-BoldMT-2d" transform="translate(1216.650391 0)"/>
     <use xlink:href="#Arial-BoldMT-4b" transform="translate(1249.951172 0)"/>
     <use xlink:href="#Arial-BoldMT-69" transform="translate(1322.167969 0)"/>
     <use xlink:href="#Arial-BoldMT-6c" transform="translate(1349.951172 0)"/>
     <use xlink:href="#Arial-BoldMT-6c" transform="translate(1377.734375 0)"/>
     <use xlink:href="#Arial-BoldMT-65" transform="translate(1405.517578 0)"/>
     <use xlink:href="#Arial-BoldMT-72" transform="translate(1461.132812 0)"/>
     <use xlink:href="#Arial-BoldMT-20" transform="translate(1500.048828 0)"/>
     <use xlink:href="#Arial-BoldMT-50" transform="translate(1527.832031 0)"/>
     <use xlink:href="#Arial-BoldMT-61" transform="translate(1594.53125 0)"/>
     <use xlink:href="#Arial-BoldMT-69" transform="translate(1650.146484 0)"/>
     <use xlink:href="#Arial-BoldMT-72" transform="translate(1677.929688 0)"/>
     <use xlink:href="#Arial-BoldMT-20" transform="translate(1716.845703 0)"/>
     <use xlink:href="#Arial-BoldMT-44" transform="translate(1744.628906 0)"/>
     <use xlink:href="#Arial-BoldMT-6f" transform="translate(1816.845703 0)"/>
     <use xlink:href="#Arial-BoldMT-63" transform="translate(1877.929688 0)"/>
     <use xlink:href="#Arial-BoldMT-74" transform="translate(1933.544922 0)"/>
     <use xlink:href="#Arial-BoldMT-72" transform="translate(1966.845703 0)"/>
     <use xlink:href="#Arial-BoldMT-69" transform="translate(2005.761719 0)"/>
     <use xlink:href="#Arial-BoldMT-6e" transform="translate(2033.544922 0)"/>
     <use xlink:href="#Arial-BoldMT-65" transform="translate(2094.628906 0)"/>
    </g>
   </g>
  </g>
 </g>
 <defs>
  <clipPath id="p3718893f1f">
   <rect x="10.8" y="40.88" width="914.4" height="524.32"/>
  </clipPath>
 </defs>
</svg>
