<?xml version="1.0" encoding="utf-8" standalone="no"?>
<!DOCTYPE svg PUBLIC "-//W3C//DTD SVG 1.1//EN"
  "http://www.w3.org/Graphics/SVG/1.1/DTD/svg11.dtd">
<svg xmlns:xlink="http://www.w3.org/1999/xlink" width="1008pt" height="648pt" viewBox="0 0 1008 648" xmlns="http://www.w3.org/2000/svg" version="1.1">
 <metadata>
  <rdf:RDF xmlns:dc="http://purl.org/dc/elements/1.1/" xmlns:cc="http://creativecommons.org/ns#" xmlns:rdf="http://www.w3.org/1999/02/22-rdf-syntax-ns#">
   <cc:Work>
    <dc:type rdf:resource="http://purl.org/dc/dcmitype/StillImage"/>
    <dc:date>2026-07-03T06:23:40.872165</dc:date>
    <dc:format>image/svg+xml</dc:format>
    <dc:creator>
     <cc:Agent>
      <dc:title>Matplotlib v3.10.9, https://matplotlib.org/</dc:title>
     </cc:Agent>
    </dc:creator>
   </cc:Work>
  </rdf:RDF>
 </metadata>
 <defs>
  <style type="text/css">*{stroke-linejoin: round; stroke-linecap: butt}</style>
 </defs>
 <g id="figure_1">
  <g id="patch_1">
   <path d="M 0 648 
L 1008 648 
L 1008 0 
L 0 0 
z
" style="fill: #ffffff"/>
  </g>
  <g id="axes_1">
   <g id="patch_2">
    <path d="M 46.028571 173.395556 
L 222.171429 173.395556 
Q 229.217143 173.395556 229.217143 166.769778 
L 229.217143 113.763556 
Q 229.217143 107.137778 222.171429 107.137778 
L 46.028571 107.137778 
Q 38.982857 107.137778 38.982857 113.763556 
L 38.982857 166.769778 
Q 38.982857 173.395556 46.028571 173.395556 
z
" clip-path="url(#pcfe1d72b8a)" style="fill: #003366; stroke: #000000; stroke-width: 1.5; stroke-linejoin: miter"/>
   </g>
   <g id="patch_3">
    <path d="M 46.028571 259.530667 
L 222.171429 259.530667 
Q 229.217143 259.530667 229.217143 252.904889 
L 229.217143 199.898667 
Q 229.217143 193.272889 222.171429 193.272889 
L 46.028571 193.272889 
Q 38.982857 193.272889 38.982857 199.898667 
L 38.982857 252.904889 
Q 38.982857 259.530667 46.028571 259.530667 
z
" clip-path="url(#pcfe1d72b8a)" style="fill: #0066cc; stroke: #000000; stroke-width: 1.5; stroke-linejoin: miter"/>
   </g>
   <g id="patch_4">
    <path d="M 46.028571 345.665778 
L 222.171429 345.665778 
Q 229.217143 345.665778 229.217143 339.04 
L 229.217143 286.033778 
Q 229.217143 279.408 222.171429 279.408 
L 46.028571 279.408 
Q 38.982857 279.408 38.982857 286.033778 
L 38.982857 339.04 
Q 38.982857 345.665778 46.028571 345.665778 
z
" clip-path="url(#pcfe1d72b8a)" style="fill: #0099ff; stroke: #000000; stroke-width: 1.5; stroke-linejoin: miter"/>
   </g>
   <g id="patch_5">
    <path d="M 46.028571 431.800889 
L 222.171429 431.800889 
Q 229.217143 431.800889 229.217143 425.175111 
L 229.217143 372.168889 
Q 229.217143 365.543111 222.171429 365.543111 
L 46.028571 365.543111 
Q 38.982857 365.543111 38.982857 372.168889 
L 38.982857 425.175111 
Q 38.982857 431.800889 46.028571 431.800889 
z
" clip-path="url(#pcfe1d72b8a)" style="fill: #ff6600; stroke: #000000; stroke-width: 1.5; stroke-linejoin: miter"/>
   </g>
   <g id="patch_6">
    <path d="M 46.028571 517.936 
L 222.171429 517.936 
Q 229.217143 517.936 229.217143 511.310222 
L 229.217143 458.304 
Q 229.217143 451.678222 222.171429 451.678222 
L 46.028571 451.678222 
Q 38.982857 451.678222 38.982857 458.304 
L 38.982857 511.310222 
Q 38.982857 517.936 46.028571 517.936 
z
" clip-path="url(#pcfe1d72b8a)" style="fill: #cc0000; stroke: #000000; stroke-width: 1.5; stroke-linejoin: miter"/>
   </g>
   <g id="patch_7">
    <path d="M 46.028571 604.071111 
L 222.171429 604.071111 
Q 229.217143 604.071111 229.217143 597.445333 
L 229.217143 544.439111 
Q 229.217143 537.813333 222.171429 537.813333 
L 46.028571 537.813333 
Q 38.982857 537.813333 38.982857 544.439111 
L 38.982857 597.445333 
Q 38.982857 604.071111 46.028571 604.071111 
z
" clip-path="url(#pcfe1d72b8a)" style="fill: #666666; stroke: #000000; stroke-width: 1.5; stroke-linejoin: miter"/>
   </g>
   <g id="patch_8">
    <path d="M 398.314286 127.015111 
L 539.228571 127.015111 
Q 542.751429 127.015111 542.751429 123.702222 
L 542.751429 90.573333 
Q 542.751429 87.260444 539.228571 87.260444 
L 398.314286 87.260444 
Q 394.791429 87.260444 394.791429 90.573333 
L 394.791429 123.702222 
Q 394.791429 127.015111 398.314286 127.015111 
z
" clip-path="url(#pcfe1d72b8a)" style="fill: #0099ff; stroke: #000000; stroke-linejoin: miter"/>
   </g>
   <g id="patch_9">
    <path d="M 398.314286 172.190869 
L 539.228571 172.190869 
Q 542.751429 172.190869 542.751429 168.87798 
L 542.751429 135.749091 
Q 542.751429 132.436202 539.228571 132.436202 
L 398.314286 132.436202 
Q 394.791429 132.436202 394.791429 135.749091 
L 394.791429 168.87798 
Q 394.791429 172.190869 398.314286 172.190869 
z
" clip-path="url(#pcfe1d72b8a)" style="fill: #0099ff; stroke: #000000; stroke-linejoin: miter"/>
   </g>
   <g id="patch_10">
    <path d="M 398.314286 217.366626 
L 539.228571 217.366626 
Q 542.751429 217.366626 542.751429 214.053737 
L 542.751429 180.924848 
Q 542.751429 177.61196 539.228571 177.61196 
L 398.314286 177.61196 
Q 394.791429 177.61196 394.791429 180.924848 
L 394.791429 214.053737 
Q 394.791429 217.366626 398.314286 217.366626 
z
" clip-path="url(#pcfe1d72b8a)" style="fill: #0099ff; stroke: #000000; stroke-linejoin: miter"/>
   </g>
   <g id="patch_11">
    <path d="M 398.314286 262.542384 
L 539.228571 262.542384 
Q 542.751429 262.542384 542.751429 259.229495 
L 542.751429 226.100606 
Q 542.751429 222.787717 539.228571 222.787717 
L 398.314286 222.787717 
Q 394.791429 222.787717 394.791429 226.100606 
L 394.791429 259.229495 
Q 394.791429 262.542384 398.314286 262.542384 
z
" clip-path="url(#pcfe1d72b8a)" style="fill: #0099ff; stroke: #000000; stroke-linejoin: miter"/>
   </g>
   <g id="patch_12">
    <path d="M 398.314286 307.718141 
L 539.228571 307.718141 
Q 542.751429 307.718141 542.751429 304.405253 
L 542.751429 271.276364 
Q 542.751429 267.963475 539.228571 267.963475 
L 398.314286 267.963475 
Q 394.791429 267.963475 394.791429 271.276364 
L 394.791429 304.405253 
Q 394.791429 307.718141 398.314286 307.718141 
z
" clip-path="url(#pcfe1d72b8a)" style="fill: #0099ff; stroke: #000000; stroke-linejoin: miter"/>
   </g>
   <g id="patch_13">
    <path d="M 398.314286 352.893899 
L 539.228571 352.893899 
Q 542.751429 352.893899 542.751429 349.58101 
L 542.751429 316.452121 
Q 542.751429 313.139232 539.228571 313.139232 
L 398.314286 313.139232 
Q 394.791429 313.139232 394.791429 316.452121 
L 394.791429 349.58101 
Q 394.791429 352.893899 398.314286 352.893899 
z
" clip-path="url(#pcfe1d72b8a)" style="fill: #0099ff; stroke: #000000; stroke-linejoin: miter"/>
   </g>
   <g id="patch_14">
    <path d="M 398.314286 398.069657 
L 539.228571 398.069657 
Q 542.751429 398.069657 542.751429 394.756768 
L 542.751429 361.627879 
Q 542.751429 358.31499 539.228571 358.31499 
L 398.314286 358.31499 
Q 394.791429 358.31499 394.791429 361.627879 
L 394.791429 394.756768 
Q 394.791429 398.069657 398.314286 398.069657 
z
" clip-path="url(#pcfe1d72b8a)" style="fill: #0099ff; stroke: #000000; stroke-linejoin: miter"/>
   </g>
   <g id="patch_15">
    <path d="M 398.314286 443.245414 
L 539.228571 443.245414 
Q 542.751429 443.245414 542.751429 439.932525 
L 542.751429 406.803636 
Q 542.751429 403.490747 539.228571 403.490747 
L 398.314286 403.490747 
Q 394.791429 403.490747 394.791429 406.803636 
L 394.791429 439.932525 
Q 394.791429 443.245414 398.314286 443.245414 
z
" clip-path="url(#pcfe1d72b8a)" style="fill: #0099ff; stroke: #000000; stroke-linejoin: miter"/>
   </g>
   <g id="patch_16">
    <path d="M 398.314286 488.421172 
L 539.228571 488.421172 
Q 542.751429 488.421172 542.751429 485.108283 
L 542.751429 451.979394 
Q 542.751429 448.666505 539.228571 448.666505 
L 398.314286 448.666505 
Q 394.791429 448.666505 394.791429 451.979394 
L 394.791429 485.108283 
Q 394.791429 488.421172 398.314286 488.421172 
z
" clip-path="url(#pcfe1d72b8a)" style="fill: #0099ff; stroke: #000000; stroke-linejoin: miter"/>
   </g>
   <g id="patch_17">
    <path d="M 398.314286 533.596929 
L 539.228571 533.596929 
Q 542.751429 533.596929 542.751429 530.28404 
L 542.751429 497.155152 
Q 542.751429 493.842263 539.228571 493.842263 
L 398.314286 493.842263 
Q 394.791429 493.842263 394.791429 497.155152 
L 394.791429 530.28404 
Q 394.791429 533.596929 398.314286 533.596929 
z
" clip-path="url(#pcfe1d72b8a)" style="fill: #0099ff; stroke: #000000; stroke-linejoin: miter"/>
   </g>
   <g id="patch_18">
    <path d="M 398.314286 578.772687 
L 539.228571 578.772687 
Q 542.751429 578.772687 542.751429 575.459798 
L 542.751429 542.330909 
Q 542.751429 539.01802 539.228571 539.01802 
L 398.314286 539.01802 
Q 394.791429 539.01802 394.791429 542.330909 
L 394.791429 575.459798 
Q 394.791429 578.772687 398.314286 578.772687 
z
" clip-path="url(#pcfe1d72b8a)" style="fill: #0099ff; stroke: #000000; stroke-linejoin: miter"/>
   </g>
   <g id="patch_19">
    <path d="M 398.314286 623.948444 
L 539.228571 623.948444 
Q 542.751429 623.948444 542.751429 620.635556 
L 542.751429 587.506667 
Q 542.751429 584.193778 539.228571 584.193778 
L 398.314286 584.193778 
Q 394.791429 584.193778 394.791429 587.506667 
L 394.791429 620.635556 
Q 394.791429 623.948444 398.314286 623.948444 
z
" clip-path="url(#pcfe1d72b8a)" style="fill: #0099ff; stroke: #000000; stroke-linejoin: miter"/>
   </g>
   <g id="patch_20">
    <path d="M 715.371429 610.696889 
L 926.742857 610.696889 
Q 933.788571 610.696889 933.788571 604.071111 
L 933.788571 107.137778 
Q 933.788571 100.512 926.742857 100.512 
L 715.371429 100.512 
Q 708.325714 100.512 708.325714 107.137778 
L 708.325714 604.071111 
Q 708.325714 610.696889 715.371429 610.696889 
z
" clip-path="url(#pcfe1d72b8a)" style="fill: #003366; stroke: #000000; stroke-width: 2; stroke-linejoin: miter"/>
   </g>
   <g id="text_1">
    <!-- Long Range -->
    <g style="fill: #ffffff" transform="translate(108.104062 137.662432) scale(0.09 -0.09)">
     <defs>
      <path id="Arial-BoldMT-4c" d="M 491 0 
L 491 4544 
L 1416 4544 
L 1416 772 
L 3716 772 
L 3716 0 
L 491 0 
z
" transform="scale(0.015625)"/>
      <path id="Arial-BoldMT-6f" d="M 256 1706 
Q 256 2144 472 2553 
Q 688 2963 1083 3178 
Q 1478 3394 1966 3394 
Q 2719 3394 3200 2905 
Q 3681 2416 3681 1669 
Q 3681 916 3195 420 
Q 2709 -75 1972 -75 
Q 1516 -75 1102 131 
Q 688 338 472 736 
Q 256 1134 256 1706 
z
M 1156 1659 
Q 1156 1166 1390 903 
Q 1625 641 1969 641 
Q 2313 641 2545 903 
Q 2778 1166 2778 1666 
Q 2778 2153 2545 2415 
Q 2313 2678 1969 2678 
Q 1625 2678 1390 2415 
Q 1156 2153 1156 1659 
z
" transform="scale(0.015625)"/>
      <path id="Arial-BoldMT-6e" d="M 3478 0 
L 2600 0 
L 2600 1694 
Q 2600 2231 2544 2389 
Q 2488 2547 2361 2634 
Q 2234 2722 2056 2722 
Q 1828 2722 1647 2597 
Q 1466 2472 1398 2265 
Q 1331 2059 1331 1503 
L 1331 0 
L 453 0 
L 453 3319 
L 1269 3319 
L 1269 2831 
Q 1703 3394 2363 3394 
Q 2653 3394 2893 3289 
Q 3134 3184 3257 3021 
Q 3381 2859 3429 2653 
Q 3478 2447 3478 2063 
L 3478 0 
z
" transform="scale(0.015625)"/>
      <path id="Arial-BoldMT-67" d="M 378 -219 
L 1381 -341 
Q 1406 -516 1497 -581 
Q 1622 -675 1891 -675 
Q 2234 -675 2406 -572 
Q 2522 -503 2581 -350 
Q 2622 -241 2622 53 
L 2622 538 
Q 2228 0 1628 0 
Q 959 0 569 566 
Q 263 1013 263 1678 
Q 263 2513 664 2953 
Q 1066 3394 1663 3394 
Q 2278 3394 2678 2853 
L 2678 3319 
L 3500 3319 
L 3500 341 
Q 3500 -247 3403 -537 
Q 3306 -828 3131 -993 
Q 2956 -1159 2664 -1253 
Q 2372 -1347 1925 -1347 
Q 1081 -1347 728 -1058 
Q 375 -769 375 -325 
Q 375 -281 378 -219 
z
M 1163 1728 
Q 1163 1200 1367 954 
Q 1572 709 1872 709 
Q 2194 709 2416 961 
Q 2638 1213 2638 1706 
Q 2638 2222 2425 2472 
Q 2213 2722 1888 2722 
Q 1572 2722 1367 2476 
Q 1163 2231 1163 1728 
z
" transform="scale(0.015625)"/>
      <path id="Arial-BoldMT-20" transform="scale(0.015625)"/>
      <path id="Arial-BoldMT-52" d="M 469 0 
L 469 4581 
L 2416 4581 
Q 3150 4581 3483 4457 
Q 3816 4334 4016 4018 
Q 4216 3703 4216 3297 
Q 4216 2781 3912 2445 
Q 3609 2109 3006 2022 
Q 3306 1847 3501 1637 
Q 3697 1428 4028 894 
L 4588 0 
L 3481 0 
L 2813 997 
Q 2456 1531 2325 1670 
Q 2194 1809 2047 1861 
Q 1900 1913 1581 1913 
L 1394 1913 
L 1394 0 
L 469 0 
z
M 1394 2644 
L 2078 2644 
Q 2744 2644 2909 2700 
Q 3075 2756 3169 2893 
Q 3263 3031 3263 3238 
Q 3263 3469 3139 3611 
Q 3016 3753 2791 3791 
Q 2678 3806 2116 3806 
L 1394 3806 
L 1394 2644 
z
" transform="scale(0.015625)"/>
      <path id="Arial-BoldMT-61" d="M 1116 2306 
L 319 2450 
Q 453 2931 781 3162 
Q 1109 3394 1756 3394 
Q 2344 3394 2631 3255 
Q 2919 3116 3036 2902 
Q 3153 2688 3153 2116 
L 3144 1091 
Q 3144 653 3186 445 
Q 3228 238 3344 0 
L 2475 0 
Q 2441 88 2391 259 
Q 2369 338 2359 363 
Q 2134 144 1878 34 
Q 1622 -75 1331 -75 
Q 819 -75 523 203 
Q 228 481 228 906 
Q 228 1188 362 1408 
Q 497 1628 739 1745 
Q 981 1863 1438 1950 
Q 2053 2066 2291 2166 
L 2291 2253 
Q 2291 2506 2166 2614 
Q 2041 2722 1694 2722 
Q 1459 2722 1328 2630 
Q 1197 2538 1116 2306 
z
M 2291 1594 
Q 2122 1538 1756 1459 
Q 1391 1381 1278 1306 
Q 1106 1184 1106 997 
Q 1106 813 1243 678 
Q 1381 544 1594 544 
Q 1831 544 2047 700 
Q 2206 819 2256 991 
Q 2291 1103 2291 1419 
L 2291 1594 
z
" transform="scale(0.015625)"/>
      <path id="Arial-BoldMT-65" d="M 2381 1056 
L 3256 909 
Q 3088 428 2723 176 
Q 2359 -75 1813 -75 
Q 947 -75 531 491 
Q 203 944 203 1634 
Q 203 2459 634 2926 
Q 1066 3394 1725 3394 
Q 2466 3394 2894 2905 
Q 3322 2416 3303 1406 
L 1103 1406 
Q 1113 1016 1316 798 
Q 1519 581 1822 581 
Q 2028 581 2168 693 
Q 2309 806 2381 1056 
z
M 2431 1944 
Q 2422 2325 2234 2523 
Q 2047 2722 1778 2722 
Q 1491 2722 1303 2513 
Q 1116 2303 1119 1944 
L 2431 1944 
z
" transform="scale(0.015625)"/>
     </defs>
     <use xlink:href="#Arial-BoldMT-4c"/>
     <use xlink:href="#Arial-BoldMT-6f" transform="translate(61.083984 0)"/>
     <use xlink:href="#Arial-BoldMT-6e" transform="translate(122.167969 0)"/>
     <use xlink:href="#Arial-BoldMT-67" transform="translate(183.251953 0)"/>
     <use xlink:href="#Arial-BoldMT-20" transform="translate(244.335938 0)"/>
     <use xlink:href="#Arial-BoldMT-52" transform="translate(272.119141 0)"/>
     <use xlink:href="#Arial-BoldMT-61" transform="translate(344.335938 0)"/>
     <use xlink:href="#Arial-BoldMT-6e" transform="translate(399.951172 0)"/>
     <use xlink:href="#Arial-BoldMT-67" transform="translate(461.035156 0)"/>
     <use xlink:href="#Arial-BoldMT-65" transform="translate(522.119141 0)"/>
    </g>
    <!-- (10 variants) -->
    <g style="fill: #ffffff" transform="translate(107.590078 147.418714) scale(0.09 -0.09)">
     <defs>
      <path id="Arial-BoldMT-28" d="M 1916 -1347 
L 1313 -1347 
Q 834 -625 584 153 
Q 334 931 334 1659 
Q 334 2563 644 3369 
Q 913 4069 1325 4659 
L 1925 4659 
Q 1497 3713 1336 3048 
Q 1175 2384 1175 1641 
Q 1175 1128 1270 590 
Q 1366 53 1531 -431 
Q 1641 -750 1916 -1347 
z
" transform="scale(0.015625)"/>
      <path id="Arial-BoldMT-31" d="M 2519 0 
L 1641 0 
L 1641 3309 
Q 1159 2859 506 2644 
L 506 3441 
Q 850 3553 1253 3867 
Q 1656 4181 1806 4600 
L 2519 4600 
L 2519 0 
z
" transform="scale(0.015625)"/>
      <path id="Arial-BoldMT-30" d="M 1756 4600 
Q 2422 4600 2797 4125 
Q 3244 3563 3244 2259 
Q 3244 959 2794 391 
Q 2422 -78 1756 -78 
Q 1088 -78 678 436 
Q 269 950 269 2269 
Q 269 3563 719 4131 
Q 1091 4600 1756 4600 
z
M 1756 3872 
Q 1597 3872 1472 3770 
Q 1347 3669 1278 3406 
Q 1188 3066 1188 2259 
Q 1188 1453 1269 1151 
Q 1350 850 1473 750 
Q 1597 650 1756 650 
Q 1916 650 2041 751 
Q 2166 853 2234 1116 
Q 2325 1453 2325 2259 
Q 2325 3066 2244 3367 
Q 2163 3669 2039 3770 
Q 1916 3872 1756 3872 
z
" transform="scale(0.015625)"/>
      <path id="Arial-BoldMT-76" d="M 1372 0 
L 34 3319 
L 956 3319 
L 1581 1625 
L 1763 1059 
Q 1834 1275 1853 1344 
Q 1897 1484 1947 1625 
L 2578 3319 
L 3481 3319 
L 2163 0 
L 1372 0 
z
" transform="scale(0.015625)"/>
      <path id="Arial-BoldMT-72" d="M 1300 0 
L 422 0 
L 422 3319 
L 1238 3319 
L 1238 2847 
Q 1447 3181 1614 3287 
Q 1781 3394 1994 3394 
Q 2294 3394 2572 3228 
L 2300 2463 
Q 2078 2606 1888 2606 
Q 1703 2606 1575 2504 
Q 1447 2403 1373 2137 
Q 1300 1872 1300 1025 
L 1300 0 
z
" transform="scale(0.015625)"/>
      <path id="Arial-BoldMT-69" d="M 459 3769 
L 459 4581 
L 1338 4581 
L 1338 3769 
L 459 3769 
z
M 459 0 
L 459 3319 
L 1338 3319 
L 1338 0 
L 459 0 
z
" transform="scale(0.015625)"/>
      <path id="Arial-BoldMT-74" d="M 1981 3319 
L 1981 2619 
L 1381 2619 
L 1381 1281 
Q 1381 875 1398 808 
Q 1416 741 1477 697 
Q 1538 653 1625 653 
Q 1747 653 1978 738 
L 2053 56 
Q 1747 -75 1359 -75 
Q 1122 -75 931 4 
Q 741 84 652 211 
Q 563 338 528 553 
Q 500 706 500 1172 
L 500 2619 
L 97 2619 
L 97 3319 
L 500 3319 
L 500 3978 
L 1381 4491 
L 1381 3319 
L 1981 3319 
z
" transform="scale(0.015625)"/>
      <path id="Arial-BoldMT-73" d="M 150 947 
L 1031 1081 
Q 1088 825 1259 692 
Q 1431 559 1741 559 
Q 2081 559 2253 684 
Q 2369 772 2369 919 
Q 2369 1019 2306 1084 
Q 2241 1147 2013 1200 
Q 950 1434 666 1628 
Q 272 1897 272 2375 
Q 272 2806 612 3100 
Q 953 3394 1669 3394 
Q 2350 3394 2681 3172 
Q 3013 2950 3138 2516 
L 2309 2363 
Q 2256 2556 2107 2659 
Q 1959 2763 1684 2763 
Q 1338 2763 1188 2666 
Q 1088 2597 1088 2488 
Q 1088 2394 1175 2328 
Q 1294 2241 1995 2081 
Q 2697 1922 2975 1691 
Q 3250 1456 3250 1038 
Q 3250 581 2869 253 
Q 2488 -75 1741 -75 
Q 1063 -75 667 200 
Q 272 475 150 947 
z
" transform="scale(0.015625)"/>
      <path id="Arial-BoldMT-29" d="M 216 -1347 
Q 475 -791 581 -494 
Q 688 -197 778 190 
Q 869 578 912 926 
Q 956 1275 956 1641 
Q 956 2384 797 3048 
Q 638 3713 209 4659 
L 806 4659 
Q 1278 3988 1539 3234 
Q 1800 2481 1800 1706 
Q 1800 1053 1594 306 
Q 1359 -531 822 -1347 
L 216 -1347 
z
" transform="scale(0.015625)"/>
     </defs>
     <use xlink:href="#Arial-BoldMT-28"/>
     <use xlink:href="#Arial-BoldMT-31" transform="translate(33.300781 0)"/>
     <use xlink:href="#Arial-BoldMT-30" transform="translate(88.916016 0)"/>
     <use xlink:href="#Arial-BoldMT-20" transform="translate(144.53125 0)"/>
     <use xlink:href="#Arial-BoldMT-76" transform="translate(172.314453 0)"/>
     <use xlink:href="#Arial-BoldMT-61" transform="translate(227.929688 0)"/>
     <use xlink:href="#Arial-BoldMT-72" transform="translate(283.544922 0)"/>
     <use xlink:href="#Arial-BoldMT-69" transform="translate(322.460938 0)"/>
     <use xlink:href="#Arial-BoldMT-61" transform="translate(350.244141 0)"/>
     <use xlink:href="#Arial-BoldMT-6e" transform="translate(405.859375 0)"/>
     <use xlink:href="#Arial-BoldMT-74" transform="translate(466.943359 0)"/>
     <use xlink:href="#Arial-BoldMT-73" transform="translate(500.244141 0)"/>
     <use xlink:href="#Arial-BoldMT-29" transform="translate(555.859375 0)"/>
    </g>
   </g>
   <g id="text_2">
    <!-- Medium Range -->
    <g style="fill: #ffffff" transform="translate(102.098672 223.797543) scale(0.09 -0.09)">
     <defs>
      <path id="Arial-BoldMT-4d" d="M 453 0 
L 453 4581 
L 1838 4581 
L 2669 1456 
L 3491 4581 
L 4878 4581 
L 4878 0 
L 4019 0 
L 4019 3606 
L 3109 0 
L 2219 0 
L 1313 3606 
L 1313 0 
L 453 0 
z
" transform="scale(0.015625)"/>
      <path id="Arial-BoldMT-64" d="M 3503 0 
L 2688 0 
L 2688 488 
Q 2484 203 2207 64 
Q 1931 -75 1650 -75 
Q 1078 -75 670 386 
Q 263 847 263 1672 
Q 263 2516 659 2955 
Q 1056 3394 1663 3394 
Q 2219 3394 2625 2931 
L 2625 4581 
L 3503 4581 
L 3503 0 
z
M 1159 1731 
Q 1159 1200 1306 963 
Q 1519 619 1900 619 
Q 2203 619 2415 876 
Q 2628 1134 2628 1647 
Q 2628 2219 2422 2470 
Q 2216 2722 1894 2722 
Q 1581 2722 1370 2473 
Q 1159 2225 1159 1731 
z
" transform="scale(0.015625)"/>
      <path id="Arial-BoldMT-75" d="M 2644 0 
L 2644 497 
Q 2463 231 2167 78 
Q 1872 -75 1544 -75 
Q 1209 -75 943 72 
Q 678 219 559 484 
Q 441 750 441 1219 
L 441 3319 
L 1319 3319 
L 1319 1794 
Q 1319 1094 1367 936 
Q 1416 778 1544 686 
Q 1672 594 1869 594 
Q 2094 594 2272 717 
Q 2450 841 2515 1023 
Q 2581 1206 2581 1919 
L 2581 3319 
L 3459 3319 
L 3459 0 
L 2644 0 
z
" transform="scale(0.015625)"/>
      <path id="Arial-BoldMT-6d" d="M 394 3319 
L 1203 3319 
L 1203 2866 
Q 1638 3394 2238 3394 
Q 2556 3394 2790 3262 
Q 3025 3131 3175 2866 
Q 3394 3131 3647 3262 
Q 3900 3394 4188 3394 
Q 4553 3394 4806 3245 
Q 5059 3097 5184 2809 
Q 5275 2597 5275 2122 
L 5275 0 
L 4397 0 
L 4397 1897 
Q 4397 2391 4306 2534 
Q 4184 2722 3931 2722 
Q 3747 2722 3584 2609 
Q 3422 2497 3350 2280 
Q 3278 2063 3278 1594 
L 3278 0 
L 2400 0 
L 2400 1819 
Q 2400 2303 2353 2443 
Q 2306 2584 2207 2653 
Q 2109 2722 1941 2722 
Q 1738 2722 1575 2612 
Q 1413 2503 1342 2297 
Q 1272 2091 1272 1613 
L 1272 0 
L 394 0 
L 394 3319 
z
" transform="scale(0.015625)"/>
     </defs>
     <use xlink:href="#Arial-BoldMT-4d"/>
     <use xlink:href="#Arial-BoldMT-65" transform="translate(83.300781 0)"/>
     <use xlink:href="#Arial-BoldMT-64" transform="translate(138.916016 0)"/>
     <use xlink:href="#Arial-BoldMT-69" transform="translate(200 0)"/>
     <use xlink:href="#Arial-BoldMT-75" transform="translate(227.783203 0)"/>
     <use xlink:href="#Arial-BoldMT-6d" transform="translate(288.867188 0)"/>
     <use xlink:href="#Arial-BoldMT-20" transform="translate(377.783203 0)"/>
     <use xlink:href="#Arial-BoldMT-52" transform="translate(405.566406 0)"/>
     <use xlink:href="#Arial-BoldMT-61" transform="translate(477.783203 0)"/>
     <use xlink:href="#Arial-BoldMT-6e" transform="translate(533.398438 0)"/>
     <use xlink:href="#Arial-BoldMT-67" transform="translate(594.482422 0)"/>
     <use xlink:href="#Arial-BoldMT-65" transform="translate(655.566406 0)"/>
    </g>
    <!-- (15 variants) -->
    <g style="fill: #ffffff" transform="translate(107.590078 233.553825) scale(0.09 -0.09)">
     <defs>
      <path id="Arial-BoldMT-35" d="M 284 1178 
L 1159 1269 
Q 1197 972 1381 798 
Q 1566 625 1806 625 
Q 2081 625 2272 848 
Q 2463 1072 2463 1522 
Q 2463 1944 2273 2155 
Q 2084 2366 1781 2366 
Q 1403 2366 1103 2031 
L 391 2134 
L 841 4519 
L 3163 4519 
L 3163 3697 
L 1506 3697 
L 1369 2919 
Q 1663 3066 1969 3066 
Q 2553 3066 2959 2641 
Q 3366 2216 3366 1538 
Q 3366 972 3038 528 
Q 2591 -78 1797 -78 
Q 1163 -78 763 262 
Q 363 603 284 1178 
z
" transform="scale(0.015625)"/>
     </defs>
     <use xlink:href="#Arial-BoldMT-28"/>
     <use xlink:href="#Arial-BoldMT-31" transform="translate(33.300781 0)"/>
     <use xlink:href="#Arial-BoldMT-35" transform="translate(88.916016 0)"/>
     <use xlink:href="#Arial-BoldMT-20" transform="translate(144.53125 0)"/>
     <use xlink:href="#Arial-BoldMT-76" transform="translate(172.314453 0)"/>
     <use xlink:href="#Arial-BoldMT-61" transform="translate(227.929688 0)"/>
     <use xlink:href="#Arial-BoldMT-72" transform="translate(283.544922 0)"/>
     <use xlink:href="#Arial-BoldMT-69" transform="translate(322.460938 0)"/>
     <use xlink:href="#Arial-BoldMT-61" transform="translate(350.244141 0)"/>
     <use xlink:href="#Arial-BoldMT-6e" transform="translate(405.859375 0)"/>
     <use xlink:href="#Arial-BoldMT-74" transform="translate(466.943359 0)"/>
     <use xlink:href="#Arial-BoldMT-73" transform="translate(500.244141 0)"/>
     <use xlink:href="#Arial-BoldMT-29" transform="translate(555.859375 0)"/>
    </g>
   </g>
   <g id="text_3">
    <!-- Short Range -->
    <g style="fill: #ffffff" transform="translate(107.349609 309.987498) scale(0.09 -0.09)">
     <defs>
      <path id="Arial-BoldMT-53" d="M 231 1491 
L 1131 1578 
Q 1213 1125 1461 912 
Q 1709 700 2131 700 
Q 2578 700 2804 889 
Q 3031 1078 3031 1331 
Q 3031 1494 2936 1608 
Q 2841 1722 2603 1806 
Q 2441 1863 1863 2006 
Q 1119 2191 819 2459 
Q 397 2838 397 3381 
Q 397 3731 595 4036 
Q 794 4341 1167 4500 
Q 1541 4659 2069 4659 
Q 2931 4659 3367 4281 
Q 3803 3903 3825 3272 
L 2900 3231 
Q 2841 3584 2645 3739 
Q 2450 3894 2059 3894 
Q 1656 3894 1428 3728 
Q 1281 3622 1281 3444 
Q 1281 3281 1419 3166 
Q 1594 3019 2269 2859 
Q 2944 2700 3267 2529 
Q 3591 2359 3773 2064 
Q 3956 1769 3956 1334 
Q 3956 941 3737 597 
Q 3519 253 3119 86 
Q 2719 -81 2122 -81 
Q 1253 -81 787 320 
Q 322 722 231 1491 
z
" transform="scale(0.015625)"/>
      <path id="Arial-BoldMT-68" d="M 1334 4581 
L 1334 2897 
Q 1759 3394 2350 3394 
Q 2653 3394 2897 3281 
Q 3141 3169 3264 2994 
Q 3388 2819 3433 2606 
Q 3478 2394 3478 1947 
L 3478 0 
L 2600 0 
L 2600 1753 
Q 2600 2275 2550 2415 
Q 2500 2556 2373 2639 
Q 2247 2722 2056 2722 
Q 1838 2722 1666 2615 
Q 1494 2509 1414 2295 
Q 1334 2081 1334 1663 
L 1334 0 
L 456 0 
L 456 4581 
L 1334 4581 
z
" transform="scale(0.015625)"/>
     </defs>
     <use xlink:href="#Arial-BoldMT-53"/>
     <use xlink:href="#Arial-BoldMT-68" transform="translate(66.699219 0)"/>
     <use xlink:href="#Arial-BoldMT-6f" transform="translate(127.783203 0)"/>
     <use xlink:href="#Arial-BoldMT-72" transform="translate(188.867188 0)"/>
     <use xlink:href="#Arial-BoldMT-74" transform="translate(227.783203 0)"/>
     <use xlink:href="#Arial-BoldMT-20" transform="translate(261.083984 0)"/>
     <use xlink:href="#Arial-BoldMT-52" transform="translate(288.867188 0)"/>
     <use xlink:href="#Arial-BoldMT-61" transform="translate(361.083984 0)"/>
     <use xlink:href="#Arial-BoldMT-6e" transform="translate(416.699219 0)"/>
     <use xlink:href="#Arial-BoldMT-67" transform="translate(477.783203 0)"/>
     <use xlink:href="#Arial-BoldMT-65" transform="translate(538.867188 0)"/>
    </g>
    <!-- (15 variants) -->
    <g style="fill: #ffffff" transform="translate(107.590078 319.74378) scale(0.09 -0.09)">
     <use xlink:href="#Arial-BoldMT-28"/>
     <use xlink:href="#Arial-BoldMT-31" transform="translate(33.300781 0)"/>
     <use xlink:href="#Arial-BoldMT-35" transform="translate(88.916016 0)"/>
     <use xlink:href="#Arial-BoldMT-20" transform="translate(144.53125 0)"/>
     <use xlink:href="#Arial-BoldMT-76" transform="translate(172.314453 0)"/>
     <use xlink:href="#Arial-BoldMT-61" transform="translate(227.929688 0)"/>
     <use xlink:href="#Arial-BoldMT-72" transform="translate(283.544922 0)"/>
     <use xlink:href="#Arial-BoldMT-69" transform="translate(322.460938 0)"/>
     <use xlink:href="#Arial-BoldMT-61" transform="translate(350.244141 0)"/>
     <use xlink:href="#Arial-BoldMT-6e" transform="translate(405.859375 0)"/>
     <use xlink:href="#Arial-BoldMT-74" transform="translate(466.943359 0)"/>
     <use xlink:href="#Arial-BoldMT-73" transform="translate(500.244141 0)"/>
     <use xlink:href="#Arial-BoldMT-29" transform="translate(555.859375 0)"/>
    </g>
   </g>
   <g id="text_4">
    <!-- Swarm -->
    <g style="fill: #ffffff" transform="translate(119.342812 396.126828) scale(0.09 -0.09)">
     <defs>
      <path id="Arial-BoldMT-77" d="M 1078 0 
L 28 3319 
L 881 3319 
L 1503 1144 
L 2075 3319 
L 2922 3319 
L 3475 1144 
L 4109 3319 
L 4975 3319 
L 3909 0 
L 3066 0 
L 2494 2134 
L 1931 0 
L 1078 0 
z
" transform="scale(0.015625)"/>
     </defs>
     <use xlink:href="#Arial-BoldMT-53"/>
     <use xlink:href="#Arial-BoldMT-77" transform="translate(66.699219 0)"/>
     <use xlink:href="#Arial-BoldMT-61" transform="translate(144.482422 0)"/>
     <use xlink:href="#Arial-BoldMT-72" transform="translate(200.097656 0)"/>
     <use xlink:href="#Arial-BoldMT-6d" transform="translate(239.013672 0)"/>
    </g>
    <!-- (10 variants) -->
    <g style="fill: #ffffff" transform="translate(107.590078 405.764984) scale(0.09 -0.09)">
     <use xlink:href="#Arial-BoldMT-28"/>
     <use xlink:href="#Arial-BoldMT-31" transform="translate(33.300781 0)"/>
     <use xlink:href="#Arial-BoldMT-30" transform="translate(88.916016 0)"/>
     <use xlink:href="#Arial-BoldMT-20" transform="translate(144.53125 0)"/>
     <use xlink:href="#Arial-BoldMT-76" transform="translate(172.314453 0)"/>
     <use xlink:href="#Arial-BoldMT-61" transform="translate(227.929688 0)"/>
     <use xlink:href="#Arial-BoldMT-72" transform="translate(283.544922 0)"/>
     <use xlink:href="#Arial-BoldMT-69" transform="translate(322.460938 0)"/>
     <use xlink:href="#Arial-BoldMT-61" transform="translate(350.244141 0)"/>
     <use xlink:href="#Arial-BoldMT-6e" transform="translate(405.859375 0)"/>
     <use xlink:href="#Arial-BoldMT-74" transform="translate(466.943359 0)"/>
     <use xlink:href="#Arial-BoldMT-73" transform="translate(500.244141 0)"/>
     <use xlink:href="#Arial-BoldMT-29" transform="translate(555.859375 0)"/>
    </g>
   </g>
   <g id="text_5">
    <!-- FPV -->
    <g style="fill: #ffffff" transform="translate(125.348203 482.261939) scale(0.09 -0.09)">
     <defs>
      <path id="Arial-BoldMT-46" d="M 472 0 
L 472 4581 
L 3613 4581 
L 3613 3806 
L 1397 3806 
L 1397 2722 
L 3309 2722 
L 3309 1947 
L 1397 1947 
L 1397 0 
L 472 0 
z
" transform="scale(0.015625)"/>
      <path id="Arial-BoldMT-50" d="M 466 0 
L 466 4581 
L 1950 4581 
Q 2794 4581 3050 4513 
Q 3444 4409 3709 4064 
Q 3975 3719 3975 3172 
Q 3975 2750 3822 2462 
Q 3669 2175 3433 2011 
Q 3197 1847 2953 1794 
Q 2622 1728 1994 1728 
L 1391 1728 
L 1391 0 
L 466 0 
z
M 1391 3806 
L 1391 2506 
L 1897 2506 
Q 2444 2506 2628 2578 
Q 2813 2650 2917 2803 
Q 3022 2956 3022 3159 
Q 3022 3409 2875 3571 
Q 2728 3734 2503 3775 
Q 2338 3806 1838 3806 
L 1391 3806 
z
" transform="scale(0.015625)"/>
      <path id="Arial-BoldMT-56" d="M 1634 0 
L -3 4581 
L 1000 4581 
L 2159 1191 
L 3281 4581 
L 4263 4581 
L 2622 0 
L 1634 0 
z
" transform="scale(0.015625)"/>
     </defs>
     <use xlink:href="#Arial-BoldMT-46"/>
     <use xlink:href="#Arial-BoldMT-50" transform="translate(61.083984 0)"/>
     <use xlink:href="#Arial-BoldMT-56" transform="translate(127.783203 0)"/>
    </g>
    <!-- (20 variants) -->
    <g style="fill: #ffffff" transform="translate(107.590078 491.900095) scale(0.09 -0.09)">
     <defs>
      <path id="Arial-BoldMT-32" d="M 3238 816 
L 3238 0 
L 159 0 
Q 209 463 459 877 
Q 709 1291 1447 1975 
Q 2041 2528 2175 2725 
Q 2356 2997 2356 3263 
Q 2356 3556 2198 3714 
Q 2041 3872 1763 3872 
Q 1488 3872 1325 3706 
Q 1163 3541 1138 3156 
L 263 3244 
Q 341 3969 753 4284 
Q 1166 4600 1784 4600 
Q 2463 4600 2850 4234 
Q 3238 3869 3238 3325 
Q 3238 3016 3127 2736 
Q 3016 2456 2775 2150 
Q 2616 1947 2200 1565 
Q 1784 1184 1673 1059 
Q 1563 934 1494 816 
L 3238 816 
z
" transform="scale(0.015625)"/>
     </defs>
     <use xlink:href="#Arial-BoldMT-28"/>
     <use xlink:href="#Arial-BoldMT-32" transform="translate(33.300781 0)"/>
     <use xlink:href="#Arial-BoldMT-30" transform="translate(88.916016 0)"/>
     <use xlink:href="#Arial-BoldMT-20" transform="translate(144.53125 0)"/>
     <use xlink:href="#Arial-BoldMT-76" transform="translate(172.314453 0)"/>
     <use xlink:href="#Arial-BoldMT-61" transform="translate(227.929688 0)"/>
     <use xlink:href="#Arial-BoldMT-72" transform="translate(283.544922 0)"/>
     <use xlink:href="#Arial-BoldMT-69" transform="translate(322.460938 0)"/>
     <use xlink:href="#Arial-BoldMT-61" transform="translate(350.244141 0)"/>
     <use xlink:href="#Arial-BoldMT-6e" transform="translate(405.859375 0)"/>
     <use xlink:href="#Arial-BoldMT-74" transform="translate(466.943359 0)"/>
     <use xlink:href="#Arial-BoldMT-73" transform="translate(500.244141 0)"/>
     <use xlink:href="#Arial-BoldMT-29" transform="translate(555.859375 0)"/>
    </g>
   </g>
   <g id="text_6">
    <!-- Attritable -->
    <g style="fill: #ffffff" transform="translate(114.349922 568.39705) scale(0.09 -0.09)">
     <defs>
      <path id="Arial-BoldMT-41" d="M 4597 0 
L 3591 0 
L 3191 1041 
L 1359 1041 
L 981 0 
L 0 0 
L 1784 4581 
L 2763 4581 
L 4597 0 
z
M 2894 1813 
L 2263 3513 
L 1644 1813 
L 2894 1813 
z
" transform="scale(0.015625)"/>
      <path id="Arial-BoldMT-62" d="M 422 0 
L 422 4581 
L 1300 4581 
L 1300 2931 
Q 1706 3394 2263 3394 
Q 2869 3394 3266 2955 
Q 3663 2516 3663 1694 
Q 3663 844 3258 384 
Q 2853 -75 2275 -75 
Q 1991 -75 1714 67 
Q 1438 209 1238 488 
L 1238 0 
L 422 0 
z
M 1294 1731 
Q 1294 1216 1456 969 
Q 1684 619 2063 619 
Q 2353 619 2558 867 
Q 2763 1116 2763 1650 
Q 2763 2219 2556 2470 
Q 2350 2722 2028 2722 
Q 1713 2722 1503 2476 
Q 1294 2231 1294 1731 
z
" transform="scale(0.015625)"/>
      <path id="Arial-BoldMT-6c" d="M 459 0 
L 459 4581 
L 1338 4581 
L 1338 0 
L 459 0 
z
" transform="scale(0.015625)"/>
     </defs>
     <use xlink:href="#Arial-BoldMT-41"/>
     <use xlink:href="#Arial-BoldMT-74" transform="translate(72.216797 0)"/>
     <use xlink:href="#Arial-BoldMT-74" transform="translate(105.517578 0)"/>
     <use xlink:href="#Arial-BoldMT-72" transform="translate(138.818359 0)"/>
     <use xlink:href="#Arial-BoldMT-69" transform="translate(177.734375 0)"/>
     <use xlink:href="#Arial-BoldMT-74" transform="translate(205.517578 0)"/>
     <use xlink:href="#Arial-BoldMT-61" transform="translate(238.818359 0)"/>
     <use xlink:href="#Arial-BoldMT-62" transform="translate(294.433594 0)"/>
     <use xlink:href="#Arial-BoldMT-6c" transform="translate(355.517578 0)"/>
     <use xlink:href="#Arial-BoldMT-65" transform="translate(383.300781 0)"/>
    </g>
    <!-- (10 variants) -->
    <g style="fill: #ffffff" transform="translate(107.590078 578.035207) scale(0.09 -0.09)">
     <use xlink:href="#Arial-BoldMT-28"/>
     <use xlink:href="#Arial-BoldMT-31" transform="translate(33.300781 0)"/>
     <use xlink:href="#Arial-BoldMT-30" transform="translate(88.916016 0)"/>
     <use xlink:href="#Arial-BoldMT-20" transform="translate(144.53125 0)"/>
     <use xlink:href="#Arial-BoldMT-76" transform="translate(172.314453 0)"/>
     <use xlink:href="#Arial-BoldMT-61" transform="translate(227.929688 0)"/>
     <use xlink:href="#Arial-BoldMT-72" transform="translate(283.544922 0)"/>
     <use xlink:href="#Arial-BoldMT-69" transform="translate(322.460938 0)"/>
     <use xlink:href="#Arial-BoldMT-61" transform="translate(350.244141 0)"/>
     <use xlink:href="#Arial-BoldMT-6e" transform="translate(405.859375 0)"/>
     <use xlink:href="#Arial-BoldMT-74" transform="translate(466.943359 0)"/>
     <use xlink:href="#Arial-BoldMT-73" transform="translate(500.244141 0)"/>
     <use xlink:href="#Arial-BoldMT-29" transform="translate(555.859375 0)"/>
    </g>
   </g>
   <g id="text_7">
    <!-- Family 1 -->
    <g transform="translate(452.764554 109.170903) scale(0.08 -0.08)">
     <defs>
      <path id="Arial-BoldMT-79" d="M 44 3319 
L 978 3319 
L 1772 963 
L 2547 3319 
L 3456 3319 
L 2284 125 
L 2075 -453 
Q 1959 -744 1854 -897 
Q 1750 -1050 1614 -1145 
Q 1478 -1241 1279 -1294 
Q 1081 -1347 831 -1347 
Q 578 -1347 334 -1294 
L 256 -606 
Q 463 -647 628 -647 
Q 934 -647 1081 -467 
Q 1228 -288 1306 -9 
L 44 3319 
z
" transform="scale(0.015625)"/>
     </defs>
     <use xlink:href="#Arial-BoldMT-46"/>
     <use xlink:href="#Arial-BoldMT-61" transform="translate(61.083984 0)"/>
     <use xlink:href="#Arial-BoldMT-6d" transform="translate(116.699219 0)"/>
     <use xlink:href="#Arial-BoldMT-69" transform="translate(205.615234 0)"/>
     <use xlink:href="#Arial-BoldMT-6c" transform="translate(233.398438 0)"/>
     <use xlink:href="#Arial-BoldMT-79" transform="translate(261.181641 0)"/>
     <use xlink:href="#Arial-BoldMT-20" transform="translate(316.796875 0)"/>
     <use xlink:href="#Arial-BoldMT-31" transform="translate(344.580078 0)"/>
    </g>
   </g>
   <g id="patch_21">
    <path d="M 224.136157 139.897141 
Q 310.243184 123.702161 394.702057 107.817165 
" style="fill: none; opacity: 0.6; stroke: #003366; stroke-width: 1.5; stroke-linecap: round"/>
    <path d="M 390.401304 106.590982 
L 394.702057 107.817165 
L 391.140659 110.522058 
" style="fill: none; opacity: 0.6; stroke: #003366; stroke-width: 1.5; stroke-linecap: round"/>
   </g>
   <g id="text_8">
    <!-- Family 2 -->
    <g transform="translate(452.764554 154.34666) scale(0.08 -0.08)">
     <use xlink:href="#Arial-BoldMT-46"/>
     <use xlink:href="#Arial-BoldMT-61" transform="translate(61.083984 0)"/>
     <use xlink:href="#Arial-BoldMT-6d" transform="translate(116.699219 0)"/>
     <use xlink:href="#Arial-BoldMT-69" transform="translate(205.615234 0)"/>
     <use xlink:href="#Arial-BoldMT-6c" transform="translate(233.398438 0)"/>
     <use xlink:href="#Arial-BoldMT-79" transform="translate(261.181641 0)"/>
     <use xlink:href="#Arial-BoldMT-20" transform="translate(316.796875 0)"/>
     <use xlink:href="#Arial-BoldMT-32" transform="translate(344.580078 0)"/>
    </g>
   </g>
   <g id="patch_22">
    <path d="M 224.16841 140.403245 
Q 310.243548 146.290148 394.645545 152.062621 
" style="fill: none; opacity: 0.6; stroke: #003366; stroke-width: 1.5; stroke-linecap: round"/>
    <path d="M 390.791333 149.794349 
L 394.645545 152.062621 
L 390.518401 153.785027 
" style="fill: none; opacity: 0.6; stroke: #003366; stroke-width: 1.5; stroke-linecap: round"/>
   </g>
   <g id="text_9">
    <!-- Family 3 -->
    <g transform="translate(452.764554 199.522418) scale(0.08 -0.08)">
     <defs>
      <path id="Arial-BoldMT-33" d="M 241 1216 
L 1091 1319 
Q 1131 994 1309 822 
Q 1488 650 1741 650 
Q 2013 650 2198 856 
Q 2384 1063 2384 1413 
Q 2384 1744 2206 1937 
Q 2028 2131 1772 2131 
Q 1603 2131 1369 2066 
L 1466 2781 
Q 1822 2772 2009 2936 
Q 2197 3100 2197 3372 
Q 2197 3603 2059 3740 
Q 1922 3878 1694 3878 
Q 1469 3878 1309 3722 
Q 1150 3566 1116 3266 
L 306 3403 
Q 391 3819 561 4067 
Q 731 4316 1036 4458 
Q 1341 4600 1719 4600 
Q 2366 4600 2756 4188 
Q 3078 3850 3078 3425 
Q 3078 2822 2419 2463 
Q 2813 2378 3048 2084 
Q 3284 1791 3284 1375 
Q 3284 772 2843 347 
Q 2403 -78 1747 -78 
Q 1125 -78 715 280 
Q 306 638 241 1216 
z
" transform="scale(0.015625)"/>
     </defs>
     <use xlink:href="#Arial-BoldMT-46"/>
     <use xlink:href="#Arial-BoldMT-61" transform="translate(61.083984 0)"/>
     <use xlink:href="#Arial-BoldMT-6d" transform="translate(116.699219 0)"/>
     <use xlink:href="#Arial-BoldMT-69" transform="translate(205.615234 0)"/>
     <use xlink:href="#Arial-BoldMT-6c" transform="translate(233.398438 0)"/>
     <use xlink:href="#Arial-BoldMT-79" transform="translate(261.181641 0)"/>
     <use xlink:href="#Arial-BoldMT-20" transform="translate(316.796875 0)"/>
     <use xlink:href="#Arial-BoldMT-33" transform="translate(344.580078 0)"/>
    </g>
   </g>
   <g id="patch_23">
    <path d="M 224.146908 226.077518 
Q 310.243305 211.945462 394.684796 198.085046 
" style="fill: none; opacity: 0.6; stroke: #0066cc; stroke-width: 1.5; stroke-linecap: round"/>
    <path d="M 390.413667 196.759355 
L 394.684796 198.085046 
L 391.061566 200.706534 
" style="fill: none; opacity: 0.6; stroke: #0066cc; stroke-width: 1.5; stroke-linecap: round"/>
   </g>
   <g id="text_10">
    <!-- Family 4 -->
    <g transform="translate(452.764554 244.698176) scale(0.08 -0.08)">
     <defs>
      <path id="Arial-BoldMT-34" d="M 1994 0 
L 1994 922 
L 119 922 
L 119 1691 
L 2106 4600 
L 2844 4600 
L 2844 1694 
L 3413 1694 
L 3413 922 
L 2844 922 
L 2844 0 
L 1994 0 
z
M 1994 1694 
L 1994 3259 
L 941 1694 
L 1994 1694 
z
" transform="scale(0.015625)"/>
     </defs>
     <use xlink:href="#Arial-BoldMT-46"/>
     <use xlink:href="#Arial-BoldMT-61" transform="translate(61.083984 0)"/>
     <use xlink:href="#Arial-BoldMT-6d" transform="translate(116.699219 0)"/>
     <use xlink:href="#Arial-BoldMT-69" transform="translate(205.615234 0)"/>
     <use xlink:href="#Arial-BoldMT-6c" transform="translate(233.398438 0)"/>
     <use xlink:href="#Arial-BoldMT-79" transform="translate(261.181641 0)"/>
     <use xlink:href="#Arial-BoldMT-20" transform="translate(316.796875 0)"/>
     <use xlink:href="#Arial-BoldMT-34" transform="translate(344.580078 0)"/>
    </g>
   </g>
   <g id="patch_24">
    <path d="M 224.163034 226.585663 
Q 310.243487 234.533472 394.653992 242.327096 
" style="fill: none; opacity: 0.6; stroke: #0066cc; stroke-width: 1.5; stroke-linecap: round"/>
    <path d="M 390.854811 239.96781 
L 394.653992 242.327096 
L 390.487056 243.950869 
" style="fill: none; opacity: 0.6; stroke: #0066cc; stroke-width: 1.5; stroke-linecap: round"/>
   </g>
   <g id="text_11">
    <!-- Family 5 -->
    <g transform="translate(452.764554 289.862058) scale(0.08 -0.08)">
     <use xlink:href="#Arial-BoldMT-46"/>
     <use xlink:href="#Arial-BoldMT-61" transform="translate(61.083984 0)"/>
     <use xlink:href="#Arial-BoldMT-6d" transform="translate(116.699219 0)"/>
     <use xlink:href="#Arial-BoldMT-69" transform="translate(205.615234 0)"/>
     <use xlink:href="#Arial-BoldMT-6c" transform="translate(233.398438 0)"/>
     <use xlink:href="#Arial-BoldMT-79" transform="translate(261.181641 0)"/>
     <use xlink:href="#Arial-BoldMT-20" transform="translate(316.796875 0)"/>
     <use xlink:href="#Arial-BoldMT-35" transform="translate(344.580078 0)"/>
    </g>
   </g>
   <g id="patch_25">
    <path d="M 224.152283 312.259163 
Q 310.243365 300.188777 394.67364 288.351244 
" style="fill: none; opacity: 0.6; stroke: #0099ff; stroke-width: 1.5; stroke-linecap: round"/>
    <path d="M 390.434691 286.926004 
L 394.67364 288.351244 
L 390.990079 290.887259 
" style="fill: none; opacity: 0.6; stroke: #0099ff; stroke-width: 1.5; stroke-linecap: round"/>
   </g>
   <g id="text_12">
    <!-- Family 6 -->
    <g transform="translate(452.764554 335.049691) scale(0.08 -0.08)">
     <defs>
      <path id="Arial-BoldMT-36" d="M 3247 3459 
L 2397 3366 
Q 2366 3628 2234 3753 
Q 2103 3878 1894 3878 
Q 1616 3878 1423 3628 
Q 1231 3378 1181 2588 
Q 1509 2975 1997 2975 
Q 2547 2975 2939 2556 
Q 3331 2138 3331 1475 
Q 3331 772 2918 347 
Q 2506 -78 1859 -78 
Q 1166 -78 719 461 
Q 272 1000 272 2228 
Q 272 3488 737 4044 
Q 1203 4600 1947 4600 
Q 2469 4600 2811 4308 
Q 3153 4016 3247 3459 
z
M 1256 1544 
Q 1256 1116 1453 883 
Q 1650 650 1903 650 
Q 2147 650 2309 840 
Q 2472 1031 2472 1466 
Q 2472 1913 2297 2120 
Q 2122 2328 1859 2328 
Q 1606 2328 1431 2129 
Q 1256 1931 1256 1544 
z
" transform="scale(0.015625)"/>
     </defs>
     <use xlink:href="#Arial-BoldMT-46"/>
     <use xlink:href="#Arial-BoldMT-61" transform="translate(61.083984 0)"/>
     <use xlink:href="#Arial-BoldMT-6d" transform="translate(116.699219 0)"/>
     <use xlink:href="#Arial-BoldMT-69" transform="translate(205.615234 0)"/>
     <use xlink:href="#Arial-BoldMT-6c" transform="translate(233.398438 0)"/>
     <use xlink:href="#Arial-BoldMT-79" transform="translate(261.181641 0)"/>
     <use xlink:href="#Arial-BoldMT-20" transform="translate(316.796875 0)"/>
     <use xlink:href="#Arial-BoldMT-36" transform="translate(344.580078 0)"/>
    </g>
   </g>
   <g id="patch_26">
    <path d="M 224.157659 312.767823 
Q 310.243426 322.776793 394.663364 332.592082 
" style="fill: none; opacity: 0.6; stroke: #0099ff; stroke-width: 1.5; stroke-linecap: round"/>
    <path d="M 390.921108 330.143507 
L 394.663364 332.592082 
L 390.45915 334.116742 
" style="fill: none; opacity: 0.6; stroke: #0099ff; stroke-width: 1.5; stroke-linecap: round"/>
   </g>
   <g id="text_13">
    <!-- Family 7 -->
    <g transform="translate(452.764554 380.213573) scale(0.08 -0.08)">
     <defs>
      <path id="Arial-BoldMT-37" d="M 272 3703 
L 272 4519 
L 3275 4519 
L 3275 3881 
Q 2903 3516 2518 2831 
Q 2134 2147 1932 1376 
Q 1731 606 1734 0 
L 888 0 
Q 909 950 1279 1937 
Q 1650 2925 2269 3703 
L 272 3703 
z
" transform="scale(0.015625)"/>
     </defs>
     <use xlink:href="#Arial-BoldMT-46"/>
     <use xlink:href="#Arial-BoldMT-61" transform="translate(61.083984 0)"/>
     <use xlink:href="#Arial-BoldMT-6d" transform="translate(116.699219 0)"/>
     <use xlink:href="#Arial-BoldMT-69" transform="translate(205.615234 0)"/>
     <use xlink:href="#Arial-BoldMT-6c" transform="translate(233.398438 0)"/>
     <use xlink:href="#Arial-BoldMT-79" transform="translate(261.181641 0)"/>
     <use xlink:href="#Arial-BoldMT-20" transform="translate(316.796875 0)"/>
     <use xlink:href="#Arial-BoldMT-37" transform="translate(344.580078 0)"/>
    </g>
   </g>
   <g id="patch_27">
    <path d="M 224.157659 398.441066 
Q 310.243426 388.432095 394.663364 378.616806 
" style="fill: none; opacity: 0.6; stroke: #ff6600; stroke-width: 1.5; stroke-linecap: round"/>
    <path d="M 390.45915 377.092147 
L 394.663364 378.616806 
L 390.921108 381.065382 
" style="fill: none; opacity: 0.6; stroke: #ff6600; stroke-width: 1.5; stroke-linecap: round"/>
   </g>
   <g id="text_14">
    <!-- Family 8 -->
    <g transform="translate(452.764554 425.401206) scale(0.08 -0.08)">
     <defs>
      <path id="Arial-BoldMT-38" d="M 1025 2472 
Q 684 2616 529 2867 
Q 375 3119 375 3419 
Q 375 3931 733 4265 
Q 1091 4600 1750 4600 
Q 2403 4600 2764 4265 
Q 3125 3931 3125 3419 
Q 3125 3100 2959 2851 
Q 2794 2603 2494 2472 
Q 2875 2319 3073 2025 
Q 3272 1731 3272 1347 
Q 3272 713 2867 316 
Q 2463 -81 1791 -81 
Q 1166 -81 750 247 
Q 259 634 259 1309 
Q 259 1681 443 1992 
Q 628 2303 1025 2472 
z
M 1206 3356 
Q 1206 3094 1354 2947 
Q 1503 2800 1750 2800 
Q 2000 2800 2150 2948 
Q 2300 3097 2300 3359 
Q 2300 3606 2151 3754 
Q 2003 3903 1759 3903 
Q 1506 3903 1356 3753 
Q 1206 3603 1206 3356 
z
M 1125 1394 
Q 1125 1031 1311 828 
Q 1497 625 1775 625 
Q 2047 625 2225 820 
Q 2403 1016 2403 1384 
Q 2403 1706 2222 1901 
Q 2041 2097 1763 2097 
Q 1441 2097 1283 1875 
Q 1125 1653 1125 1394 
z
" transform="scale(0.015625)"/>
     </defs>
     <use xlink:href="#Arial-BoldMT-46"/>
     <use xlink:href="#Arial-BoldMT-61" transform="translate(61.083984 0)"/>
     <use xlink:href="#Arial-BoldMT-6d" transform="translate(116.699219 0)"/>
     <use xlink:href="#Arial-BoldMT-69" transform="translate(205.615234 0)"/>
     <use xlink:href="#Arial-BoldMT-6c" transform="translate(233.398438 0)"/>
     <use xlink:href="#Arial-BoldMT-79" transform="translate(261.181641 0)"/>
     <use xlink:href="#Arial-BoldMT-20" transform="translate(316.796875 0)"/>
     <use xlink:href="#Arial-BoldMT-38" transform="translate(344.580078 0)"/>
    </g>
   </g>
   <g id="patch_28">
    <path d="M 224.152283 398.949725 
Q 310.243365 411.020112 394.67364 422.857645 
" style="fill: none; opacity: 0.6; stroke: #ff6600; stroke-width: 1.5; stroke-linecap: round"/>
    <path d="M 390.990079 420.32163 
L 394.67364 422.857645 
L 390.434691 424.282885 
" style="fill: none; opacity: 0.6; stroke: #ff6600; stroke-width: 1.5; stroke-linecap: round"/>
   </g>
   <g id="text_15">
    <!-- Family 9 -->
    <g transform="translate(452.764554 470.576963) scale(0.08 -0.08)">
     <defs>
      <path id="Arial-BoldMT-39" d="M 291 1059 
L 1141 1153 
Q 1172 894 1303 769 
Q 1434 644 1650 644 
Q 1922 644 2112 894 
Q 2303 1144 2356 1931 
Q 2025 1547 1528 1547 
Q 988 1547 595 1964 
Q 203 2381 203 3050 
Q 203 3747 617 4173 
Q 1031 4600 1672 4600 
Q 2369 4600 2816 4061 
Q 3263 3522 3263 2288 
Q 3263 1031 2797 475 
Q 2331 -81 1584 -81 
Q 1047 -81 715 205 
Q 384 491 291 1059 
z
M 2278 2978 
Q 2278 3403 2083 3637 
Q 1888 3872 1631 3872 
Q 1388 3872 1227 3680 
Q 1066 3488 1066 3050 
Q 1066 2606 1241 2398 
Q 1416 2191 1678 2191 
Q 1931 2191 2104 2391 
Q 2278 2591 2278 2978 
z
" transform="scale(0.015625)"/>
     </defs>
     <use xlink:href="#Arial-BoldMT-46"/>
     <use xlink:href="#Arial-BoldMT-61" transform="translate(61.083984 0)"/>
     <use xlink:href="#Arial-BoldMT-6d" transform="translate(116.699219 0)"/>
     <use xlink:href="#Arial-BoldMT-69" transform="translate(205.615234 0)"/>
     <use xlink:href="#Arial-BoldMT-6c" transform="translate(233.398438 0)"/>
     <use xlink:href="#Arial-BoldMT-79" transform="translate(261.181641 0)"/>
     <use xlink:href="#Arial-BoldMT-20" transform="translate(316.796875 0)"/>
     <use xlink:href="#Arial-BoldMT-39" transform="translate(344.580078 0)"/>
    </g>
   </g>
   <g id="patch_29">
    <path d="M 224.163034 484.623226 
Q 310.243487 476.675417 394.653992 468.881793 
" style="fill: none; opacity: 0.6; stroke: #cc0000; stroke-width: 1.5; stroke-linecap: round"/>
    <path d="M 390.487056 467.25802 
L 394.653992 468.881793 
L 390.854811 471.241079 
" style="fill: none; opacity: 0.6; stroke: #cc0000; stroke-width: 1.5; stroke-linecap: round"/>
   </g>
   <g id="text_16">
    <!-- Family 10 -->
    <g transform="translate(450.540179 515.752721) scale(0.08 -0.08)">
     <use xlink:href="#Arial-BoldMT-46"/>
     <use xlink:href="#Arial-BoldMT-61" transform="translate(61.083984 0)"/>
     <use xlink:href="#Arial-BoldMT-6d" transform="translate(116.699219 0)"/>
     <use xlink:href="#Arial-BoldMT-69" transform="translate(205.615234 0)"/>
     <use xlink:href="#Arial-BoldMT-6c" transform="translate(233.398438 0)"/>
     <use xlink:href="#Arial-BoldMT-79" transform="translate(261.181641 0)"/>
     <use xlink:href="#Arial-BoldMT-20" transform="translate(316.796875 0)"/>
     <use xlink:href="#Arial-BoldMT-31" transform="translate(344.580078 0)"/>
     <use xlink:href="#Arial-BoldMT-30" transform="translate(400.195312 0)"/>
    </g>
   </g>
   <g id="patch_30">
    <path d="M 224.146908 485.131371 
Q 310.243305 499.263427 394.684796 513.123843 
" style="fill: none; opacity: 0.6; stroke: #cc0000; stroke-width: 1.5; stroke-linecap: round"/>
    <path d="M 391.061566 510.502355 
L 394.684796 513.123843 
L 390.413667 514.449534 
" style="fill: none; opacity: 0.6; stroke: #cc0000; stroke-width: 1.5; stroke-linecap: round"/>
   </g>
   <g id="text_17">
    <!-- Family 11 -->
    <g transform="translate(450.760179 560.928479) scale(0.08 -0.08)">
     <use xlink:href="#Arial-BoldMT-46"/>
     <use xlink:href="#Arial-BoldMT-61" transform="translate(61.083984 0)"/>
     <use xlink:href="#Arial-BoldMT-6d" transform="translate(116.699219 0)"/>
     <use xlink:href="#Arial-BoldMT-69" transform="translate(205.615234 0)"/>
     <use xlink:href="#Arial-BoldMT-6c" transform="translate(233.398438 0)"/>
     <use xlink:href="#Arial-BoldMT-79" transform="translate(261.181641 0)"/>
     <use xlink:href="#Arial-BoldMT-20" transform="translate(316.796875 0)"/>
     <use xlink:href="#Arial-BoldMT-31" transform="translate(344.580078 0)"/>
     <use xlink:href="#Arial-BoldMT-31" transform="translate(394.695312 0)"/>
    </g>
   </g>
   <g id="patch_31">
    <path d="M 224.16841 570.805643 
Q 310.243548 564.918741 394.645545 559.146268 
" style="fill: none; opacity: 0.6; stroke: #666666; stroke-width: 1.5; stroke-linecap: round"/>
    <path d="M 390.518401 557.423862 
L 394.645545 559.146268 
L 390.791333 561.41454 
" style="fill: none; opacity: 0.6; stroke: #666666; stroke-width: 1.5; stroke-linecap: round"/>
   </g>
   <g id="text_18">
    <!-- Family 12 -->
    <g transform="translate(450.540179 606.104236) scale(0.08 -0.08)">
     <use xlink:href="#Arial-BoldMT-46"/>
     <use xlink:href="#Arial-BoldMT-61" transform="translate(61.083984 0)"/>
     <use xlink:href="#Arial-BoldMT-6d" transform="translate(116.699219 0)"/>
     <use xlink:href="#Arial-BoldMT-69" transform="translate(205.615234 0)"/>
     <use xlink:href="#Arial-BoldMT-6c" transform="translate(233.398438 0)"/>
     <use xlink:href="#Arial-BoldMT-79" transform="translate(261.181641 0)"/>
     <use xlink:href="#Arial-BoldMT-20" transform="translate(316.796875 0)"/>
     <use xlink:href="#Arial-BoldMT-31" transform="translate(344.580078 0)"/>
     <use xlink:href="#Arial-BoldMT-32" transform="translate(400.195312 0)"/>
    </g>
   </g>
   <g id="patch_32">
    <path d="M 224.136157 571.311748 
Q 310.243184 587.506728 394.702057 603.391724 
" style="fill: none; opacity: 0.6; stroke: #666666; stroke-width: 1.5; stroke-linecap: round"/>
    <path d="M 391.140659 600.686831 
L 394.702057 603.391724 
L 390.401304 604.617907 
" style="fill: none; opacity: 0.6; stroke: #666666; stroke-width: 1.5; stroke-linecap: round"/>
   </g>
   <g id="text_19">
    <!-- 80 -->
    <g style="fill: #ffffff" transform="translate(807.710893 349.150319) scale(0.24 -0.24)">
     <use xlink:href="#Arial-BoldMT-38"/>
     <use xlink:href="#Arial-BoldMT-30" transform="translate(55.615234 0)"/>
    </g>
    <!-- VARIANTS -->
    <g style="fill: #ffffff" transform="translate(760.605268 374.501069) scale(0.24 -0.24)">
     <defs>
      <path id="Arial-BoldMT-49" d="M 438 0 
L 438 4581 
L 1363 4581 
L 1363 0 
L 438 0 
z
" transform="scale(0.015625)"/>
      <path id="Arial-BoldMT-4e" d="M 475 0 
L 475 4581 
L 1375 4581 
L 3250 1522 
L 3250 4581 
L 4109 4581 
L 4109 0 
L 3181 0 
L 1334 2988 
L 1334 0 
L 475 0 
z
" transform="scale(0.015625)"/>
      <path id="Arial-BoldMT-54" d="M 1497 0 
L 1497 3806 
L 138 3806 
L 138 4581 
L 3778 4581 
L 3778 3806 
L 2422 3806 
L 2422 0 
L 1497 0 
z
" transform="scale(0.015625)"/>
     </defs>
     <use xlink:href="#Arial-BoldMT-56"/>
     <use xlink:href="#Arial-BoldMT-41" transform="translate(59.324219 0)"/>
     <use xlink:href="#Arial-BoldMT-52" transform="translate(131.541016 0)"/>
     <use xlink:href="#Arial-BoldMT-49" transform="translate(203.757812 0)"/>
     <use xlink:href="#Arial-BoldMT-41" transform="translate(231.541016 0)"/>
     <use xlink:href="#Arial-BoldMT-4e" transform="translate(303.757812 0)"/>
     <use xlink:href="#Arial-BoldMT-54" transform="translate(375.974609 0)"/>
     <use xlink:href="#Arial-BoldMT-53" transform="translate(437.058594 0)"/>
    </g>
   </g>
   <g id="patch_33">
    <path d="M 541.230928 107.137778 
Q 627.300752 107.137778 712.252543 107.137778 
" style="fill: none; opacity: 0.5; stroke: #0099ff; stroke-linecap: round"/>
    <path d="M 708.252543 105.137778 
L 712.252543 107.137778 
L 708.252543 109.137778 
" style="fill: none; opacity: 0.5; stroke: #0099ff; stroke-linecap: round"/>
   </g>
   <g id="patch_34">
    <path d="M 541.230928 152.313535 
Q 627.300752 152.313535 712.252543 152.313535 
" style="fill: none; opacity: 0.5; stroke: #0099ff; stroke-linecap: round"/>
    <path d="M 708.252543 150.313535 
L 712.252543 152.313535 
L 708.252543 154.313535 
" style="fill: none; opacity: 0.5; stroke: #0099ff; stroke-linecap: round"/>
   </g>
   <g id="patch_35">
    <path d="M 541.230928 197.489293 
Q 627.300752 197.489293 712.252543 197.489293 
" style="fill: none; opacity: 0.5; stroke: #0099ff; stroke-linecap: round"/>
    <path d="M 708.252543 195.489293 
L 712.252543 197.489293 
L 708.252543 199.489293 
" style="fill: none; opacity: 0.5; stroke: #0099ff; stroke-linecap: round"/>
   </g>
   <g id="patch_36">
    <path d="M 541.230928 242.665051 
Q 627.300752 242.665051 712.252543 242.665051 
" style="fill: none; opacity: 0.5; stroke: #0099ff; stroke-linecap: round"/>
    <path d="M 708.252543 240.665051 
L 712.252543 242.665051 
L 708.252543 244.665051 
" style="fill: none; opacity: 0.5; stroke: #0099ff; stroke-linecap: round"/>
   </g>
   <g id="patch_37">
    <path d="M 541.230928 287.840808 
Q 627.300752 287.840808 712.252543 287.840808 
" style="fill: none; opacity: 0.5; stroke: #0099ff; stroke-linecap: round"/>
    <path d="M 708.252543 285.840808 
L 712.252543 287.840808 
L 708.252543 289.840808 
" style="fill: none; opacity: 0.5; stroke: #0099ff; stroke-linecap: round"/>
   </g>
   <g id="patch_38">
    <path d="M 541.230928 333.016566 
Q 627.300752 333.016566 712.252543 333.016566 
" style="fill: none; opacity: 0.5; stroke: #0099ff; stroke-linecap: round"/>
    <path d="M 708.252543 331.016566 
L 712.252543 333.016566 
L 708.252543 335.016566 
" style="fill: none; opacity: 0.5; stroke: #0099ff; stroke-linecap: round"/>
   </g>
   <g id="patch_39">
    <path d="M 541.230928 378.192323 
Q 627.300752 378.192323 712.252543 378.192323 
" style="fill: none; opacity: 0.5; stroke: #0099ff; stroke-linecap: round"/>
    <path d="M 708.252543 376.192323 
L 712.252543 378.192323 
L 708.252543 380.192323 
" style="fill: none; opacity: 0.5; stroke: #0099ff; stroke-linecap: round"/>
   </g>
   <g id="patch_40">
    <path d="M 541.230928 423.368081 
Q 627.300752 423.368081 712.252543 423.368081 
" style="fill: none; opacity: 0.5; stroke: #0099ff; stroke-linecap: round"/>
    <path d="M 708.252543 421.368081 
L 712.252543 423.368081 
L 708.252543 425.368081 
" style="fill: none; opacity: 0.5; stroke: #0099ff; stroke-linecap: round"/>
   </g>
   <g id="patch_41">
    <path d="M 541.230928 468.543838 
Q 627.300752 468.543838 712.252543 468.543838 
" style="fill: none; opacity: 0.5; stroke: #0099ff; stroke-linecap: round"/>
    <path d="M 708.252543 466.543838 
L 712.252543 468.543838 
L 708.252543 470.543838 
" style="fill: none; opacity: 0.5; stroke: #0099ff; stroke-linecap: round"/>
   </g>
   <g id="patch_42">
    <path d="M 541.230928 513.719596 
Q 627.300752 513.719596 712.252543 513.719596 
" style="fill: none; opacity: 0.5; stroke: #0099ff; stroke-linecap: round"/>
    <path d="M 708.252543 511.719596 
L 712.252543 513.719596 
L 708.252543 515.719596 
" style="fill: none; opacity: 0.5; stroke: #0099ff; stroke-linecap: round"/>
   </g>
   <g id="patch_43">
    <path d="M 541.230928 558.895354 
Q 627.300752 558.895354 712.252543 558.895354 
" style="fill: none; opacity: 0.5; stroke: #0099ff; stroke-linecap: round"/>
    <path d="M 708.252543 556.895354 
L 712.252543 558.895354 
L 708.252543 560.895354 
" style="fill: none; opacity: 0.5; stroke: #0099ff; stroke-linecap: round"/>
   </g>
   <g id="patch_44">
    <path d="M 541.230928 604.071111 
Q 627.300752 604.071111 712.252543 604.071111 
" style="fill: none; opacity: 0.5; stroke: #0099ff; stroke-linecap: round"/>
    <path d="M 708.252543 602.071111 
L 712.252543 604.071111 
L 708.252543 606.071111 
" style="fill: none; opacity: 0.5; stroke: #0099ff; stroke-linecap: round"/>
   </g>
   <g id="text_20">
    <!-- Figure 2.4: 80-Variant Architecture from 6 Categories via 12 Families -->
    <g style="fill: #003366" transform="translate(277.465781 20.88) scale(0.14 -0.14)">
     <defs>
      <path id="Arial-BoldMT-2e" d="M 459 0 
L 459 878 
L 1338 878 
L 1338 0 
L 459 0 
z
" transform="scale(0.015625)"/>
      <path id="Arial-BoldMT-3a" d="M 628 2441 
L 628 3319 
L 1506 3319 
L 1506 2441 
L 628 2441 
z
M 628 0 
L 628 878 
L 1506 878 
L 1506 0 
L 628 0 
z
" transform="scale(0.015625)"/>
      <path id="Arial-BoldMT-2d" d="M 359 1222 
L 359 2100 
L 2084 2100 
L 2084 1222 
L 359 1222 
z
" transform="scale(0.015625)"/>
      <path id="Arial-BoldMT-63" d="M 3353 2338 
L 2488 2181 
Q 2444 2441 2289 2572 
Q 2134 2703 1888 2703 
Q 1559 2703 1364 2476 
Q 1169 2250 1169 1719 
Q 1169 1128 1367 884 
Q 1566 641 1900 641 
Q 2150 641 2309 783 
Q 2469 925 2534 1272 
L 3397 1125 
Q 3263 531 2881 228 
Q 2500 -75 1859 -75 
Q 1131 -75 698 384 
Q 266 844 266 1656 
Q 266 2478 700 2936 
Q 1134 3394 1875 3394 
Q 2481 3394 2839 3133 
Q 3197 2872 3353 2338 
z
" transform="scale(0.015625)"/>
      <path id="Arial-BoldMT-66" d="M 75 3319 
L 563 3319 
L 563 3569 
Q 563 3988 652 4194 
Q 741 4400 980 4529 
Q 1219 4659 1584 4659 
Q 1959 4659 2319 4547 
L 2200 3934 
Q 1991 3984 1797 3984 
Q 1606 3984 1523 3895 
Q 1441 3806 1441 3553 
L 1441 3319 
L 2097 3319 
L 2097 2628 
L 1441 2628 
L 1441 0 
L 563 0 
L 563 2628 
L 75 2628 
L 75 3319 
z
" transform="scale(0.015625)"/>
      <path id="Arial-BoldMT-43" d="M 3397 1684 
L 4294 1400 
Q 4088 650 3608 286 
Q 3128 -78 2391 -78 
Q 1478 -78 890 545 
Q 303 1169 303 2250 
Q 303 3394 893 4026 
Q 1484 4659 2447 4659 
Q 3288 4659 3813 4163 
Q 4125 3869 4281 3319 
L 3366 3100 
Q 3284 3456 3026 3662 
Q 2769 3869 2400 3869 
Q 1891 3869 1573 3503 
Q 1256 3138 1256 2319 
Q 1256 1450 1568 1081 
Q 1881 713 2381 713 
Q 2750 713 3015 947 
Q 3281 1181 3397 1684 
z
" transform="scale(0.015625)"/>
     </defs>
     <use xlink:href="#Arial-BoldMT-46"/>
     <use xlink:href="#Arial-BoldMT-69" transform="translate(61.083984 0)"/>
     <use xlink:href="#Arial-BoldMT-67" transform="translate(88.867188 0)"/>
     <use xlink:href="#Arial-BoldMT-75" transform="translate(149.951172 0)"/>
     <use xlink:href="#Arial-BoldMT-72" transform="translate(211.035156 0)"/>
     <use xlink:href="#Arial-BoldMT-65" transform="translate(249.951172 0)"/>
     <use xlink:href="#Arial-BoldMT-20" transform="translate(305.566406 0)"/>
     <use xlink:href="#Arial-BoldMT-32" transform="translate(333.349609 0)"/>
     <use xlink:href="#Arial-BoldMT-2e" transform="translate(388.964844 0)"/>
     <use xlink:href="#Arial-BoldMT-34" transform="translate(416.748047 0)"/>
     <use xlink:href="#Arial-BoldMT-3a" transform="translate(472.363281 0)"/>
     <use xlink:href="#Arial-BoldMT-20" transform="translate(505.664062 0)"/>
     <use xlink:href="#Arial-BoldMT-38" transform="translate(533.447266 0)"/>
     <use xlink:href="#Arial-BoldMT-30" transform="translate(589.0625 0)"/>
     <use xlink:href="#Arial-BoldMT-2d" transform="translate(644.677734 0)"/>
     <use xlink:href="#Arial-BoldMT-56" transform="translate(677.978516 0)"/>
     <use xlink:href="#Arial-BoldMT-61" transform="translate(739.177734 0)"/>
     <use xlink:href="#Arial-BoldMT-72" transform="translate(794.792969 0)"/>
     <use xlink:href="#Arial-BoldMT-69" transform="translate(833.708984 0)"/>
     <use xlink:href="#Arial-BoldMT-61" transform="translate(861.492188 0)"/>
     <use xlink:href="#Arial-BoldMT-6e" transform="translate(917.107422 0)"/>
     <use xlink:href="#Arial-BoldMT-74" transform="translate(978.191406 0)"/>
     <use xlink:href="#Arial-BoldMT-20" transform="translate(1011.492188 0)"/>
     <use xlink:href="#Arial-BoldMT-41" transform="translate(1035.525391 0)"/>
     <use xlink:href="#Arial-BoldMT-72" transform="translate(1107.742188 0)"/>
     <use xlink:href="#Arial-BoldMT-63" transform="translate(1146.658203 0)"/>
     <use xlink:href="#Arial-BoldMT-68" transform="translate(1202.273438 0)"/>
     <use xlink:href="#Arial-BoldMT-69" transform="translate(1263.357422 0)"/>
     <use xlink:href="#Arial-BoldMT-74" transform="translate(1291.140625 0)"/>
     <use xlink:href="#Arial-BoldMT-65" transform="translate(1324.441406 0)"/>
     <use xlink:href="#Arial-BoldMT-63" transform="translate(1380.056641 0)"/>
     <use xlink:href="#Arial-BoldMT-74" transform="translate(1435.671875 0)"/>
     <use xlink:href="#Arial-BoldMT-75" transform="translate(1468.972656 0)"/>
     <use xlink:href="#Arial-BoldMT-72" transform="translate(1530.056641 0)"/>
     <use xlink:href="#Arial-BoldMT-65" transform="translate(1568.972656 0)"/>
     <use xlink:href="#Arial-BoldMT-20" transform="translate(1624.587891 0)"/>
     <use xlink:href="#Arial-BoldMT-66" transform="translate(1652.371094 0)"/>
     <use xlink:href="#Arial-BoldMT-72" transform="translate(1685.671875 0)"/>
     <use xlink:href="#Arial-BoldMT-6f" transform="translate(1724.587891 0)"/>
     <use xlink:href="#Arial-BoldMT-6d" transform="translate(1785.671875 0)"/>
     <use xlink:href="#Arial-BoldMT-20" transform="translate(1874.587891 0)"/>
     <use xlink:href="#Arial-BoldMT-36" transform="translate(1902.371094 0)"/>
     <use xlink:href="#Arial-BoldMT-20" transform="translate(1957.986328 0)"/>
     <use xlink:href="#Arial-BoldMT-43" transform="translate(1985.769531 0)"/>
     <use xlink:href="#Arial-BoldMT-61" transform="translate(2057.986328 0)"/>
     <use xlink:href="#Arial-BoldMT-74" transform="translate(2113.601562 0)"/>
     <use xlink:href="#Arial-BoldMT-65" transform="translate(2146.902344 0)"/>
     <use xlink:href="#Arial-BoldMT-67" transform="translate(2202.517578 0)"/>
     <use xlink:href="#Arial-BoldMT-6f" transform="translate(2263.601562 0)"/>
     <use xlink:href="#Arial-BoldMT-72" transform="translate(2324.685547 0)"/>
     <use xlink:href="#Arial-BoldMT-69" transform="translate(2363.601562 0)"/>
     <use xlink:href="#Arial-BoldMT-65" transform="translate(2391.384766 0)"/>
     <use xlink:href="#Arial-BoldMT-73" transform="translate(2447 0)"/>
     <use xlink:href="#Arial-BoldMT-20" transform="translate(2502.615234 0)"/>
     <use xlink:href="#Arial-BoldMT-76" transform="translate(2530.398438 0)"/>
     <use xlink:href="#Arial-BoldMT-69" transform="translate(2586.013672 0)"/>
     <use xlink:href="#Arial-BoldMT-61" transform="translate(2613.796875 0)"/>
     <use xlink:href="#Arial-BoldMT-20" transform="translate(2669.412109 0)"/>
     <use xlink:href="#Arial-BoldMT-31" transform="translate(2697.195312 0)"/>
     <use xlink:href="#Arial-BoldMT-32" transform="translate(2752.810547 0)"/>
     <use xlink:href="#Arial-BoldMT-20" transform="translate(2808.425781 0)"/>
     <use xlink:href="#Arial-BoldMT-46" transform="translate(2836.208984 0)"/>
     <use xlink:href="#Arial-BoldMT-61" transform="translate(2897.292969 0)"/>
     <use xlink:href="#Arial-BoldMT-6d" transform="translate(2952.908203 0)"/>
     <use xlink:href="#Arial-BoldMT-69" transform="translate(3041.824219 0)"/>
     <use xlink:href="#Arial-BoldMT-6c" transform="translate(3069.607422 0)"/>
     <use xlink:href="#Arial-BoldMT-69" transform="translate(3097.390625 0)"/>
     <use xlink:href="#Arial-BoldMT-65" transform="translate(3125.173828 0)"/>
     <use xlink:href="#Arial-BoldMT-73" transform="translate(3180.789062 0)"/>
    </g>
   </g>
  </g>
 </g>
 <defs>
  <clipPath id="pcfe1d72b8a">
   <rect x="10.8" y="40.88" width="986.4" height="596.32"/>
  </clipPath>
 </defs>
</svg>
