<?xml version="1.0" encoding="UTF-8"?>
<svg id="Layer_1" xmlns="http://www.w3.org/2000/svg" version="1.1" xmlns:xlink="http://www.w3.org/1999/xlink" viewBox="0 0 760 576">
  <!-- Generator: Adobe Illustrator 30.4.0, SVG Export Plug-In . SVG Version: 2.1.4 Build 226)  -->
  <defs>
    <style>
      .st0 {
        fill: #c00;
      }

      .st0, .st1, .st2, .st3, .st4 {
        isolation: isolate;
        opacity: .8;
        stroke: #000;
        stroke-width: 2px;
      }

      .st5 {
        clip-path: url(#clippath-4);
      }

      .st6 {
        fill: #fff;
      }

      .st1 {
        fill: #06c;
      }

      .st2, .st7 {
        fill: #036;
      }

      .st8 {
        fill: none;
      }

      .st9 {
        clip-path: url(#clippath-1);
      }

      .st10 {
        clip-path: url(#clippath-3);
      }

      .st11 {
        clip-path: url(#clippath-2);
      }

      .st3 {
        fill: #f60;
      }

      .st4 {
        fill: #09f;
      }

      .st12 {
        clip-path: url(#clippath);
      }
    </style>
    <clipPath id="clippath">
      <rect class="st8" x="30.45" y="40.88" width="699.09" height="524.32"/>
    </clipPath>
    <clipPath id="clippath-1">
      <rect class="st8" x="30.45" y="40.88" width="699.09" height="524.32"/>
    </clipPath>
    <clipPath id="clippath-2">
      <rect class="st8" x="30.45" y="40.88" width="699.09" height="524.32"/>
    </clipPath>
    <clipPath id="clippath-3">
      <rect class="st8" x="30.45" y="40.88" width="699.09" height="524.32"/>
    </clipPath>
    <clipPath id="clippath-4">
      <rect class="st8" x="30.45" y="40.88" width="699.09" height="524.32"/>
    </clipPath>
  </defs>
  <g class="st12">
    <path class="st2" d="M30.45,215.65h233.03V40.88H30.45v174.77Z"/>
  </g>
  <g class="st9">
    <path class="st1" d="M263.48,215.65h233.03V40.88h-233.03v174.77Z"/>
  </g>
  <g class="st11">
    <path class="st4" d="M496.52,215.65h233.03V40.88h-233.03v174.77Z"/>
  </g>
  <g class="st10">
    <path class="st3" d="M30.45,390.43h349.55v-174.77H30.45v174.77Z"/>
  </g>
  <g class="st5">
    <path class="st0" d="M380,565.2h349.55V215.65h-349.55v349.55Z"/>
  </g>
  <path id="Arial-BoldMT-54" class="st6" d="M101.26,125.31v-6.54h-2.34v-1.33h6.26v1.33h-2.33v6.54h-1.59Z"/>
  <path id="Arial-BoldMT-68" class="st6" d="M107.7,117.43v2.89c.49-.57,1.07-.85,1.75-.85.35,0,.66.06.94.19.28.13.49.29.63.49.14.2.24.42.29.67.05.24.08.62.08,1.13v3.35h-1.51v-3.01c0-.6-.03-.98-.09-1.14-.06-.16-.16-.29-.3-.38-.14-.1-.33-.14-.54-.14-.25,0-.47.06-.67.18-.2.12-.34.3-.43.55s-.14.61-.14,1.09v2.86h-1.51v-7.87h1.51Z"/>
  <path id="Arial-BoldMT-65" class="st6" d="M116.22,123.49l1.5.25c-.19.55-.5.97-.92,1.26-.42.29-.94.43-1.56.43-.99,0-1.73-.32-2.2-.97-.38-.52-.56-1.17-.56-1.96,0-.95.25-1.69.74-2.22.49-.54,1.12-.8,1.88-.8.85,0,1.52.28,2.01.84s.72,1.42.7,2.58h-3.78c.01.45.13.8.37,1.04.23.25.52.37.87.37.24,0,.43-.06.59-.19.16-.13.28-.34.37-.62ZM116.3,121.97c-.01-.44-.12-.77-.34-1-.21-.23-.48-.34-.78-.34-.33,0-.6.12-.82.36-.21.24-.32.57-.32.98h2.25Z"/>
  <path id="Arial-BoldMT-61" class="st6" d="M120.16,121.35l-1.37-.25c.15-.55.42-.96.79-1.22.38-.27.93-.4,1.68-.4.67,0,1.18.08,1.5.24.33.16.56.36.7.61s.2.7.2,1.35l-.02,1.76c0,.5.02.87.07,1.11.05.24.14.49.27.76h-1.49c-.04-.1-.09-.25-.14-.45-.03-.09-.04-.15-.05-.18-.26.25-.53.44-.83.57-.29.12-.61.19-.94.19-.59,0-1.05-.16-1.39-.48-.34-.32-.51-.72-.51-1.21,0-.32.08-.61.23-.86.15-.25.37-.45.65-.58.28-.14.68-.25,1.2-.35.7-.13,1.19-.26,1.47-.37v-.15c0-.29-.07-.5-.21-.62s-.41-.19-.81-.19c-.27,0-.48.05-.63.16s-.27.29-.36.56ZM122.18,122.57c-.19.06-.5.14-.92.23-.42.09-.69.18-.82.26-.2.14-.3.32-.3.53s.08.39.24.55c.16.15.36.23.6.23.27,0,.53-.09.78-.27.18-.14.3-.3.36-.5.04-.13.06-.37.06-.74v-.3Z"/>
  <path id="Arial-BoldMT-74" class="st6" d="M127.76,119.6v1.2h-1.03v2.3c0,.47,0,.74.03.81.02.08.07.14.14.19s.15.08.25.08c.14,0,.34-.05.61-.15l.13,1.17c-.35.15-.75.23-1.19.23-.27,0-.52-.05-.74-.14-.22-.09-.38-.21-.48-.36-.1-.15-.17-.34-.21-.59-.03-.18-.05-.53-.05-1.06v-2.49h-.69v-1.2h.69v-1.13l1.51-.88v2.01h1.03Z"/>
  <path id="Arial-BoldMT-72" class="st6" d="M130.26,125.31h-1.51v-5.7h1.4v.81c.24-.38.45-.63.65-.76.19-.12.41-.18.65-.18.34,0,.67.1.99.29l-.47,1.31c-.25-.16-.49-.25-.71-.25s-.39.06-.54.18c-.15.12-.26.33-.35.63-.08.3-.13.94-.13,1.91v1.76Z"/>
  <path id="Arial-BoldMT-651" data-name="Arial-BoldMT-65" class="st6" d="M136.39,123.49l1.5.25c-.19.55-.5.97-.92,1.26-.42.29-.94.43-1.56.43-.99,0-1.73-.32-2.2-.97-.38-.52-.56-1.17-.56-1.96,0-.95.25-1.69.74-2.22.49-.54,1.12-.8,1.88-.8.85,0,1.52.28,2.01.84s.72,1.42.7,2.58h-3.78c.01.45.13.8.37,1.04.23.25.52.37.87.37.24,0,.43-.06.59-.19.16-.13.28-.34.37-.62ZM136.48,121.97c-.01-.44-.12-.77-.34-1-.21-.23-.48-.34-.78-.34-.33,0-.6.12-.82.36-.21.24-.32.57-.32.98h2.25Z"/>
  <path id="Arial-BoldMT-20" class="st6" d="M138.42,125.31"/>
  <path id="Arial-BoldMT-43" class="st6" d="M147.32,122.41l1.54.49c-.24.86-.63,1.5-1.18,1.91-.55.42-1.25.63-2.09.63-1.05,0-1.91-.36-2.58-1.07-.67-.71-1.01-1.69-1.01-2.93,0-1.31.34-2.33,1.01-3.05.68-.73,1.57-1.09,2.67-1.09.96,0,1.75.28,2.35.85.36.34.63.82.8,1.45l-1.57.38c-.09-.41-.29-.73-.58-.97-.29-.24-.65-.36-1.08-.36-.58,0-1.06.21-1.42.63-.36.42-.54,1.1-.54,2.03,0,1,.18,1.7.54,2.13.36.42.82.63,1.4.63.42,0,.79-.13,1.09-.4.3-.27.52-.69.66-1.27Z"/>
  <path id="Arial-BoldMT-6f" class="st6" d="M149.86,122.38c0-.5.12-.99.37-1.46.25-.47.6-.83,1.05-1.07.45-.25.96-.37,1.52-.37.86,0,1.57.28,2.12.84s.83,1.27.83,2.12-.28,1.58-.84,2.15c-.56.57-1.26.85-2.1.85-.52,0-1.02-.12-1.5-.35-.47-.24-.84-.58-1.08-1.04-.25-.46-.37-1.01-.37-1.67ZM151.41,122.46c0,.56.13,1,.4,1.3.27.3.6.45,1,.45s.72-.15.99-.45c.27-.3.4-.74.4-1.31s-.13-.99-.4-1.29c-.27-.3-.6-.45-.99-.45s-.73.15-1,.45c-.27.3-.4.73-.4,1.3Z"/>
  <path id="Arial-BoldMT-6d" class="st6" d="M156.82,119.6h1.39v.78c.5-.6,1.09-.91,1.78-.91.36,0,.68.08.95.23.27.15.49.38.66.68.25-.3.52-.53.81-.68.29-.15.6-.23.93-.23.42,0,.77.09,1.06.26.29.17.51.42.65.75.1.24.16.64.16,1.18v3.65h-1.51v-3.26c0-.57-.05-.93-.16-1.09-.14-.22-.35-.32-.64-.32-.21,0-.41.06-.6.19-.19.13-.32.32-.4.57s-.12.64-.12,1.18v2.74h-1.51v-3.13c0-.55-.03-.91-.08-1.07-.05-.16-.14-.28-.25-.36-.11-.08-.26-.12-.46-.12-.23,0-.44.06-.63.19-.19.12-.32.31-.4.54-.08.24-.12.63-.12,1.18v2.77h-1.51v-5.7Z"/>
  <path id="Arial-BoldMT-6d1" data-name="Arial-BoldMT-6d" class="st6" d="M166.6,119.6h1.39v.78c.5-.6,1.09-.91,1.78-.91.36,0,.68.08.95.23.27.15.49.38.66.68.25-.3.52-.53.81-.68.29-.15.6-.23.93-.23.42,0,.77.09,1.06.26.29.17.51.42.65.75.1.24.16.64.16,1.18v3.65h-1.51v-3.26c0-.57-.05-.93-.16-1.09-.14-.22-.35-.32-.64-.32-.21,0-.41.06-.6.19-.19.13-.32.32-.4.57s-.12.64-.12,1.18v2.74h-1.51v-3.13c0-.55-.03-.91-.08-1.07-.05-.16-.14-.28-.25-.36-.11-.08-.26-.12-.46-.12-.23,0-.44.06-.63.19-.19.12-.32.31-.4.54-.08.24-.12.63-.12,1.18v2.77h-1.51v-5.7Z"/>
  <path id="Arial-BoldMT-611" data-name="Arial-BoldMT-61" class="st6" d="M177.62,121.35l-1.37-.25c.15-.55.42-.96.79-1.22.38-.27.93-.4,1.68-.4.67,0,1.18.08,1.5.24.33.16.56.36.7.61s.2.7.2,1.35l-.02,1.76c0,.5.02.87.07,1.11.05.24.14.49.27.76h-1.49c-.04-.1-.09-.25-.14-.45-.03-.09-.04-.15-.05-.18-.26.25-.53.44-.83.57-.29.12-.61.19-.94.19-.59,0-1.05-.16-1.39-.48-.34-.32-.51-.72-.51-1.21,0-.32.08-.61.23-.86.15-.25.37-.45.65-.58.28-.14.68-.25,1.2-.35.7-.13,1.19-.26,1.47-.37v-.15c0-.29-.07-.5-.21-.62s-.41-.19-.81-.19c-.27,0-.48.05-.63.16s-.27.29-.36.56ZM179.64,122.57c-.19.06-.5.14-.92.23-.42.09-.69.18-.82.26-.2.14-.3.32-.3.53s.08.39.24.55c.16.15.36.23.6.23.27,0,.53-.09.78-.27.18-.14.3-.3.36-.5.04-.13.06-.37.06-.74v-.3Z"/>
  <path id="Arial-BoldMT-6e" class="st6" d="M187.8,125.31h-1.51v-2.91c0-.62-.03-1.01-.1-1.19s-.17-.32-.31-.42c-.15-.1-.32-.15-.52-.15-.26,0-.5.07-.7.21s-.35.33-.43.57c-.08.24-.12.67-.12,1.31v2.58h-1.51v-5.7h1.4v.84c.5-.65,1.12-.97,1.88-.97.33,0,.64.06.91.18.28.12.48.27.63.46.14.19.24.4.3.63.06.24.08.57.08,1.01v3.55Z"/>
  <path id="Arial-BoldMT-64" class="st6" d="M194.56,125.31h-1.4v-.84c-.23.33-.51.57-.83.73-.32.16-.64.24-.96.24-.66,0-1.22-.26-1.68-.79-.47-.53-.7-1.26-.7-2.21s.23-1.7.68-2.21c.45-.5,1.03-.75,1.73-.75.64,0,1.19.27,1.65.8v-2.84h1.51v7.87ZM190.53,122.33c0,.61.08,1.05.25,1.32.24.39.58.59,1.02.59.35,0,.64-.15.89-.44.24-.3.37-.74.37-1.33,0-.66-.12-1.13-.35-1.41-.24-.29-.54-.43-.91-.43s-.66.14-.9.43c-.24.28-.36.71-.36,1.28Z"/>
  <path id="Arial-BoldMT-32" class="st6" d="M124.11,135.53v1.4h-5.29c.06-.53.23-1.03.52-1.51.29-.47.85-1.1,1.7-1.89.68-.63,1.1-1.06,1.25-1.29.21-.31.31-.62.31-.92,0-.34-.09-.59-.27-.78-.18-.18-.43-.27-.75-.27s-.57.1-.75.29c-.19.19-.29.5-.32.95l-1.5-.15c.09-.83.37-1.43.84-1.79.47-.36,1.06-.54,1.77-.54.78,0,1.39.21,1.83.63.44.42.67.94.67,1.56,0,.35-.06.69-.19,1.01s-.33.66-.6,1.01c-.18.23-.51.57-.99,1.01-.48.44-.78.73-.91.87-.13.14-.23.28-.31.42h3Z"/>
  <path id="Arial-BoldMT-2c" class="st6" d="M125.41,135.42h1.51v1.08c0,.44-.04.78-.11,1.03-.08.25-.22.48-.43.68-.21.2-.47.36-.8.47l-.3-.62c.3-.1.52-.24.65-.41.13-.18.2-.42.21-.72h-.73v-1.51Z"/>
  <path id="Arial-BoldMT-34" class="st6" d="M131.14,136.93v-1.58h-3.22v-1.32l3.42-5h1.27v4.99h.98v1.33h-.98v1.58h-1.46ZM131.14,134.02v-2.69l-1.81,2.69h1.81Z"/>
  <path id="Arial-BoldMT-30" class="st6" d="M136.85,129.02c.76,0,1.36.27,1.79.82.51.64.77,1.71.77,3.21s-.26,2.56-.77,3.21c-.43.54-1.02.81-1.78.81s-1.38-.29-1.85-.88c-.47-.59-.7-1.64-.7-3.15s.26-2.55.77-3.2c.43-.54,1.02-.81,1.78-.81ZM136.85,130.27c-.18,0-.34.06-.49.18-.14.12-.25.32-.33.63-.1.39-.15,1.05-.15,1.97s.05,1.56.14,1.9c.09.34.21.57.35.69.14.11.3.17.49.17s.35-.06.49-.17c.14-.12.25-.33.33-.63.1-.39.16-1.04.16-1.96s-.05-1.56-.14-1.9c-.09-.35-.21-.58-.35-.69-.14-.12-.3-.18-.49-.18Z"/>
  <path id="Arial-BoldMT-301" data-name="Arial-BoldMT-30" class="st6" d="M142.97,129.02c.76,0,1.36.27,1.79.82.51.64.77,1.71.77,3.21s-.26,2.56-.77,3.21c-.43.54-1.02.81-1.78.81s-1.38-.29-1.85-.88c-.47-.59-.7-1.64-.7-3.15s.26-2.55.77-3.2c.43-.54,1.02-.81,1.78-.81ZM142.97,130.27c-.18,0-.34.06-.49.18-.14.12-.25.32-.33.63-.1.39-.15,1.05-.15,1.97s.05,1.56.14,1.9c.09.34.21.57.35.69.14.11.3.17.49.17s.35-.06.49-.17c.14-.12.25-.33.33-.63.1-.39.16-1.04.16-1.96s-.05-1.56-.14-1.9c-.09-.35-.21-.58-.35-.69-.14-.12-.3-.18-.49-.18Z"/>
  <path id="Arial-BoldMT-201" data-name="Arial-BoldMT-20" class="st6" d="M146.07,136.93"/>
  <path id="Arial-BoldMT-75" class="st6" d="M153.67,136.93v-.85c-.21.3-.48.54-.82.72-.34.18-.69.26-1.07.26s-.73-.08-1.03-.25c-.3-.17-.52-.4-.66-.71-.14-.3-.2-.73-.2-1.26v-3.61h1.51v2.62c0,.8.03,1.29.08,1.47.06.18.16.32.3.43s.33.16.56.16c.26,0,.49-.07.69-.21.2-.14.34-.32.42-.53.08-.21.11-.72.11-1.54v-2.41h1.51v5.7h-1.4Z"/>
  <path id="Arial-BoldMT-6e1" data-name="Arial-BoldMT-6e" class="st6" d="M161.82,136.93h-1.51v-2.91c0-.62-.03-1.01-.1-1.19s-.17-.32-.31-.42c-.15-.1-.32-.15-.52-.15-.26,0-.5.07-.7.21s-.35.33-.43.57c-.08.24-.12.67-.12,1.31v2.58h-1.51v-5.7h1.4v.84c.5-.65,1.12-.97,1.88-.97.33,0,.64.06.91.18.28.12.48.27.63.46.14.19.24.4.3.63.06.24.08.57.08,1.01v3.55Z"/>
  <path id="Arial-BoldMT-69" class="st6" d="M163.35,130.45v-1.4h1.51v1.4h-1.51ZM163.35,136.93v-5.7h1.51v5.7h-1.51Z"/>
  <path id="Arial-BoldMT-741" data-name="Arial-BoldMT-74" class="st6" d="M169.02,131.22v1.2h-1.03v2.3c0,.47,0,.74.03.81.02.08.07.14.14.19s.15.08.25.08c.14,0,.34-.05.61-.15l.13,1.17c-.35.15-.75.23-1.19.23-.27,0-.52-.05-.74-.14-.22-.09-.38-.21-.48-.36-.1-.15-.17-.34-.21-.59-.03-.18-.05-.53-.05-1.06v-2.49h-.69v-1.2h.69v-1.13l1.51-.88v2.01h1.03Z"/>
  <path id="Arial-BoldMT-73" class="st6" d="M169.54,135.3l1.51-.23c.07.29.2.52.39.67.2.15.47.23.83.23.39,0,.68-.07.88-.21.13-.1.2-.24.2-.4,0-.11-.04-.21-.11-.28-.07-.07-.24-.14-.5-.2-1.22-.27-1.99-.51-2.32-.74-.45-.31-.68-.74-.68-1.28,0-.49.19-.91.58-1.25.39-.34,1-.51,1.82-.51s1.36.13,1.74.38c.38.25.64.63.79,1.13l-1.42.26c-.06-.22-.18-.39-.35-.51-.17-.12-.41-.18-.73-.18-.4,0-.68.06-.85.17-.11.08-.17.18-.17.31,0,.11.05.2.15.27.14.1.61.24,1.41.42.8.18,1.37.41,1.68.67.32.27.47.64.47,1.12,0,.52-.22.97-.65,1.35-.44.38-1.08.56-1.94.56-.78,0-1.39-.16-1.85-.47-.45-.32-.75-.74-.89-1.28Z"/>
  <path id="Arial-BoldMT-41" class="st6" d="M339.31,125.31h-1.73l-.69-1.79h-3.15l-.65,1.79h-1.69l3.07-7.87h1.68l3.15,7.87ZM336.38,122.19l-1.08-2.92-1.06,2.92h2.15Z"/>
  <path id="Arial-BoldMT-721" data-name="Arial-BoldMT-72" class="st6" d="M341.58,125.31h-1.51v-5.7h1.4v.81c.24-.38.45-.63.65-.76.19-.12.41-.18.65-.18.34,0,.67.1.99.29l-.47,1.31c-.25-.16-.49-.25-.71-.25s-.39.06-.54.18c-.15.12-.26.33-.35.63-.08.3-.13.94-.13,1.91v1.76Z"/>
  <path id="Arial-BoldMT-6d2" data-name="Arial-BoldMT-6d" class="st6" d="M344.31,119.6h1.39v.78c.5-.6,1.09-.91,1.78-.91.36,0,.68.08.95.23.27.15.49.38.66.68.25-.3.52-.53.81-.68.29-.15.6-.23.93-.23.42,0,.77.09,1.06.26.29.17.51.42.65.75.1.24.16.64.16,1.18v3.65h-1.51v-3.26c0-.57-.05-.93-.16-1.09-.14-.22-.35-.32-.64-.32-.21,0-.41.06-.6.19-.19.13-.32.32-.4.57s-.12.64-.12,1.18v2.74h-1.51v-3.13c0-.55-.03-.91-.08-1.07-.05-.16-.14-.28-.25-.36-.11-.08-.26-.12-.46-.12-.23,0-.44.06-.63.19-.19.12-.32.31-.4.54-.08.24-.12.63-.12,1.18v2.77h-1.51v-5.7Z"/>
  <path id="Arial-BoldMT-6f1" data-name="Arial-BoldMT-6f" class="st6" d="M353.85,122.38c0-.5.12-.99.37-1.46.25-.47.6-.83,1.05-1.07.45-.25.96-.37,1.52-.37.86,0,1.57.28,2.12.84s.83,1.27.83,2.12-.28,1.58-.84,2.15c-.56.57-1.26.85-2.1.85-.52,0-1.02-.12-1.5-.35-.47-.24-.84-.58-1.08-1.04-.25-.46-.37-1.01-.37-1.67ZM355.4,122.46c0,.56.13,1,.4,1.3.27.3.6.45,1,.45s.72-.15.99-.45c.27-.3.4-.74.4-1.31s-.13-.99-.4-1.29c-.27-.3-.6-.45-.99-.45s-.73.15-1,.45c-.27.3-.4.73-.4,1.3Z"/>
  <path id="Arial-BoldMT-722" data-name="Arial-BoldMT-72" class="st6" d="M362.37,125.31h-1.51v-5.7h1.4v.81c.24-.38.45-.63.65-.76.19-.12.41-.18.65-.18.34,0,.67.1.99.29l-.47,1.31c-.25-.16-.49-.25-.71-.25s-.39.06-.54.18c-.15.12-.26.33-.35.63-.08.3-.13.94-.13,1.91v1.76Z"/>
  <path id="Arial-BoldMT-652" data-name="Arial-BoldMT-65" class="st6" d="M368.5,123.49l1.5.25c-.19.55-.5.97-.92,1.26-.42.29-.94.43-1.56.43-.99,0-1.73-.32-2.2-.97-.38-.52-.56-1.17-.56-1.96,0-.95.25-1.69.74-2.22.49-.54,1.12-.8,1.88-.8.85,0,1.52.28,2.01.84s.72,1.42.7,2.58h-3.78c.01.45.13.8.37,1.04.23.25.52.37.87.37.24,0,.43-.06.59-.19.16-.13.28-.34.37-.62ZM368.59,121.97c-.01-.44-.12-.77-.34-1-.21-.23-.48-.34-.78-.34-.33,0-.6.12-.82.36-.21.24-.32.57-.32.98h2.25Z"/>
  <path id="Arial-BoldMT-641" data-name="Arial-BoldMT-64" class="st6" d="M376.55,125.31h-1.4v-.84c-.23.33-.51.57-.83.73-.32.16-.64.24-.96.24-.66,0-1.22-.26-1.68-.79-.47-.53-.7-1.26-.7-2.21s.23-1.7.68-2.21c.45-.5,1.03-.75,1.73-.75.64,0,1.19.27,1.65.8v-2.84h1.51v7.87ZM372.52,122.33c0,.61.08,1.05.25,1.32.24.39.58.59,1.02.59.35,0,.64-.15.89-.44.24-.3.37-.74.37-1.33,0-.66-.12-1.13-.35-1.41-.24-.29-.54-.43-.91-.43s-.66.14-.9.43c-.24.28-.36.71-.36,1.28Z"/>
  <path id="Arial-BoldMT-2f" class="st6" d="M377.23,125.44l1.95-8.14h1.13l-1.97,8.14h-1.11Z"/>
  <path id="Arial-BoldMT-4d" class="st6" d="M381.08,125.31v-7.87h2.38l1.43,5.37,1.41-5.37h2.38v7.87h-1.48v-6.2l-1.56,6.2h-1.53l-1.56-6.2v6.2h-1.48Z"/>
  <path id="Arial-BoldMT-653" data-name="Arial-BoldMT-65" class="st6" d="M393.56,123.49l1.5.25c-.19.55-.5.97-.92,1.26-.42.29-.94.43-1.56.43-.99,0-1.73-.32-2.2-.97-.38-.52-.56-1.17-.56-1.96,0-.95.25-1.69.74-2.22.49-.54,1.12-.8,1.88-.8.85,0,1.52.28,2.01.84s.72,1.42.7,2.58h-3.78c.01.45.13.8.37,1.04.23.25.52.37.87.37.24,0,.43-.06.59-.19.16-.13.28-.34.37-.62ZM393.65,121.97c-.01-.44-.12-.77-.34-1-.21-.23-.48-.34-.78-.34-.33,0-.6.12-.82.36-.21.24-.32.57-.32.98h2.25Z"/>
  <path id="Arial-BoldMT-63" class="st6" d="M401.35,121.29l-1.49.27c-.05-.3-.16-.52-.34-.67s-.41-.23-.69-.23c-.38,0-.68.13-.9.39-.22.26-.34.69-.34,1.3,0,.68.11,1.16.34,1.44.23.28.53.42.92.42.29,0,.52-.08.7-.24.18-.16.31-.44.39-.84l1.48.25c-.15.68-.45,1.19-.89,1.54-.44.35-1.02.52-1.76.52-.83,0-1.5-.26-2-.79-.49-.53-.74-1.26-.74-2.19s.25-1.68.75-2.2c.5-.52,1.17-.79,2.02-.79.69,0,1.25.15,1.66.45s.7.75.88,1.37Z"/>
  <path id="Arial-BoldMT-681" data-name="Arial-BoldMT-68" class="st6" d="M404,117.43v2.89c.49-.57,1.07-.85,1.75-.85.35,0,.66.06.94.19.28.13.49.29.63.49.14.2.24.42.29.67.05.24.08.62.08,1.13v3.35h-1.51v-3.01c0-.6-.03-.98-.09-1.14-.06-.16-.16-.29-.3-.38-.14-.1-.33-.14-.54-.14-.25,0-.47.06-.67.18-.2.12-.34.3-.43.55s-.14.61-.14,1.09v2.86h-1.51v-7.87h1.51Z"/>
  <path id="Arial-BoldMT-202" data-name="Arial-BoldMT-20" class="st6" d="M408.42,125.31"/>
  <path id="Arial-BoldMT-44" class="st6" d="M412.27,117.43h2.9c.66,0,1.15.05,1.5.15.46.14.86.38,1.19.73.33.35.58.77.75,1.28s.26,1.12.26,1.86c0,.65-.08,1.21-.24,1.68-.2.57-.48,1.04-.84,1.39-.28.27-.65.48-1.12.63-.35.11-.82.17-1.41.17h-2.99v-7.87ZM413.86,118.77v5.21h1.19c.44,0,.77-.03.96-.08.26-.06.47-.17.64-.33.17-.15.31-.41.42-.76.11-.35.16-.83.16-1.44s-.05-1.08-.16-1.4c-.11-.33-.26-.58-.45-.76-.19-.18-.44-.31-.73-.37-.22-.05-.66-.07-1.31-.07h-.71Z"/>
  <path id="Arial-BoldMT-691" data-name="Arial-BoldMT-69" class="st6" d="M420.21,118.83v-1.4h1.51v1.4h-1.51ZM420.21,125.31v-5.7h1.51v5.7h-1.51Z"/>
  <path id="Arial-BoldMT-76" class="st6" d="M424.84,125.31l-2.3-5.7h1.58l1.07,2.91.31.97c.08-.25.13-.41.15-.49.05-.16.1-.32.16-.48l1.08-2.91h1.55l-2.27,5.7h-1.36Z"/>
  <path id="Arial-BoldMT-38" class="st6" d="M353.34,132.68c-.39-.16-.67-.39-.85-.68-.18-.29-.26-.6-.26-.95,0-.59.21-1.07.62-1.45.41-.38.99-.58,1.75-.58s1.33.19,1.74.58c.41.38.62.87.62,1.45,0,.37-.1.69-.29.98-.19.28-.46.5-.8.65.44.18.77.43,1,.77.23.34.34.73.34,1.17,0,.73-.23,1.32-.7,1.77-.46.45-1.08.68-1.85.68-.72,0-1.31-.19-1.79-.56-.56-.44-.84-1.05-.84-1.83,0-.43.11-.82.32-1.17.21-.36.55-.63,1-.82ZM353.65,131.16c0,.3.08.53.25.7.17.17.4.25.68.25s.52-.08.69-.25c.17-.17.26-.41.26-.71,0-.28-.09-.51-.26-.68-.17-.17-.39-.26-.67-.26s-.52.09-.69.26-.26.4-.26.68ZM353.51,134.53c0,.42.11.74.32.97s.48.35.8.35.57-.11.77-.34c.2-.22.31-.55.31-.97,0-.37-.1-.67-.31-.89-.21-.22-.47-.34-.79-.34-.37,0-.64.13-.82.38s-.27.53-.27.83Z"/>
  <path id="Arial-BoldMT-2c1" data-name="Arial-BoldMT-2c" class="st6" d="M358.44,135.42h1.51v1.08c0,.44-.04.78-.11,1.03-.08.25-.22.48-.43.68-.21.2-.47.36-.8.47l-.3-.62c.3-.1.52-.24.65-.41.13-.18.2-.42.21-.72h-.73v-1.51Z"/>
  <path id="Arial-BoldMT-341" data-name="Arial-BoldMT-34" class="st6" d="M364.17,136.93v-1.58h-3.22v-1.32l3.42-5h1.27v4.99h.98v1.33h-.98v1.58h-1.46ZM364.17,134.02v-2.69l-1.81,2.69h1.81Z"/>
  <path id="Arial-BoldMT-302" data-name="Arial-BoldMT-30" class="st6" d="M369.88,129.02c.76,0,1.36.27,1.79.82.51.64.77,1.71.77,3.21s-.26,2.56-.77,3.21c-.43.54-1.02.81-1.78.81s-1.38-.29-1.85-.88c-.47-.59-.7-1.64-.7-3.15s.26-2.55.77-3.2c.43-.54,1.02-.81,1.78-.81ZM369.88,130.27c-.18,0-.34.06-.49.18-.14.12-.25.32-.33.63-.1.39-.15,1.05-.15,1.97s.05,1.56.14,1.9c.09.34.21.57.35.69.14.11.3.17.49.17s.35-.06.49-.17c.14-.12.25-.33.33-.63.1-.39.16-1.04.16-1.96s-.05-1.56-.14-1.9c-.09-.35-.21-.58-.35-.69-.14-.12-.3-.18-.49-.18Z"/>
  <path id="Arial-BoldMT-303" data-name="Arial-BoldMT-30" class="st6" d="M376,129.02c.76,0,1.36.27,1.79.82.51.64.77,1.71.77,3.21s-.26,2.56-.77,3.21c-.43.54-1.02.81-1.78.81s-1.38-.29-1.85-.88c-.47-.59-.7-1.64-.7-3.15s.26-2.55.77-3.2c.43-.54,1.02-.81,1.78-.81ZM376,130.27c-.18,0-.34.06-.49.18-.14.12-.25.32-.33.63-.1.39-.15,1.05-.15,1.97s.05,1.56.14,1.9c.09.34.21.57.35.69.14.11.3.17.49.17s.35-.06.49-.17c.14-.12.25-.33.33-.63.1-.39.16-1.04.16-1.96s-.05-1.56-.14-1.9c-.09-.35-.21-.58-.35-.69-.14-.12-.3-.18-.49-.18Z"/>
  <path id="Arial-BoldMT-203" data-name="Arial-BoldMT-20" class="st6" d="M379.1,136.93"/>
  <path id="Arial-BoldMT-751" data-name="Arial-BoldMT-75" class="st6" d="M386.7,136.93v-.85c-.21.3-.48.54-.82.72-.34.18-.69.26-1.07.26s-.73-.08-1.03-.25c-.3-.17-.52-.4-.66-.71-.14-.3-.2-.73-.2-1.26v-3.61h1.51v2.62c0,.8.03,1.29.08,1.47.06.18.16.32.3.43s.33.16.56.16c.26,0,.49-.07.69-.21.2-.14.34-.32.42-.53.08-.21.11-.72.11-1.54v-2.41h1.51v5.7h-1.4Z"/>
  <path id="Arial-BoldMT-6e2" data-name="Arial-BoldMT-6e" class="st6" d="M394.85,136.93h-1.51v-2.91c0-.62-.03-1.01-.1-1.19s-.17-.32-.31-.42c-.15-.1-.32-.15-.52-.15-.26,0-.5.07-.7.21s-.35.33-.43.57c-.08.24-.12.67-.12,1.31v2.58h-1.51v-5.7h1.4v.84c.5-.65,1.12-.97,1.88-.97.33,0,.64.06.91.18.28.12.48.27.63.46.14.19.24.4.3.63.06.24.08.57.08,1.01v3.55Z"/>
  <path id="Arial-BoldMT-692" data-name="Arial-BoldMT-69" class="st6" d="M396.38,130.45v-1.4h1.51v1.4h-1.51ZM396.38,136.93v-5.7h1.51v5.7h-1.51Z"/>
  <path id="Arial-BoldMT-742" data-name="Arial-BoldMT-74" class="st6" d="M402.06,131.22v1.2h-1.03v2.3c0,.47,0,.74.03.81.02.08.07.14.14.19s.15.08.25.08c.14,0,.34-.05.61-.15l.13,1.17c-.35.15-.75.23-1.19.23-.27,0-.52-.05-.74-.14-.22-.09-.38-.21-.48-.36-.1-.15-.17-.34-.21-.59-.03-.18-.05-.53-.05-1.06v-2.49h-.69v-1.2h.69v-1.13l1.51-.88v2.01h1.03Z"/>
  <path id="Arial-BoldMT-731" data-name="Arial-BoldMT-73" class="st6" d="M402.57,135.3l1.51-.23c.07.29.2.52.39.67.2.15.47.23.83.23.39,0,.68-.07.88-.21.13-.1.2-.24.2-.4,0-.11-.04-.21-.11-.28-.07-.07-.24-.14-.5-.2-1.22-.27-1.99-.51-2.32-.74-.45-.31-.68-.74-.68-1.28,0-.49.19-.91.58-1.25.39-.34,1-.51,1.82-.51s1.36.13,1.74.38c.38.25.64.63.79,1.13l-1.42.26c-.06-.22-.18-.39-.35-.51-.17-.12-.41-.18-.73-.18-.4,0-.68.06-.85.17-.11.08-.17.18-.17.31,0,.11.05.2.15.27.14.1.61.24,1.41.42.8.18,1.37.41,1.68.67.32.27.47.64.47,1.12,0,.52-.22.97-.65,1.35-.44.38-1.08.56-1.94.56-.78,0-1.39-.16-1.85-.47-.45-.32-.75-.74-.89-1.28Z"/>
  <path id="Arial-BoldMT-49" class="st6" d="M572.23,125.3v-7.87h1.59v7.87h-1.59Z"/>
  <path id="Arial-BoldMT-6e3" data-name="Arial-BoldMT-6e" class="st6" d="M580.51,125.3h-1.51v-2.91c0-.62-.03-1.01-.1-1.19s-.17-.32-.31-.42c-.15-.1-.32-.15-.52-.15-.26,0-.5.07-.7.21s-.35.33-.43.57c-.08.24-.12.67-.12,1.31v2.58h-1.51v-5.7h1.4v.84c.5-.65,1.12-.97,1.88-.97.33,0,.64.06.91.18.28.12.48.27.63.46.14.19.24.4.3.63.06.24.08.57.08,1.01v3.55Z"/>
  <path id="Arial-BoldMT-66" class="st6" d="M581.38,119.6h.84v-.43c0-.48.05-.84.15-1.07.1-.24.29-.43.56-.58.27-.15.62-.22,1.04-.22s.85.06,1.26.19l-.2,1.05c-.24-.06-.47-.09-.69-.09s-.38.05-.47.15c-.09.1-.14.3-.14.59v.4h1.13v1.19h-1.13v4.52h-1.51v-4.52h-.84v-1.19Z"/>
  <path id="Arial-BoldMT-612" data-name="Arial-BoldMT-61" class="st6" d="M586.83,121.34l-1.37-.25c.15-.55.42-.96.79-1.22.38-.27.93-.4,1.68-.4.67,0,1.18.08,1.5.24.33.16.56.36.7.61s.2.7.2,1.35l-.02,1.76c0,.5.02.87.07,1.11.05.24.14.49.27.76h-1.49c-.04-.1-.09-.25-.14-.45-.03-.09-.04-.15-.05-.18-.26.25-.53.44-.83.57-.29.12-.61.19-.94.19-.59,0-1.05-.16-1.39-.48-.34-.32-.51-.72-.51-1.21,0-.32.08-.61.23-.86.15-.25.37-.45.65-.58.28-.14.68-.25,1.2-.35.7-.13,1.19-.26,1.47-.37v-.15c0-.29-.07-.5-.21-.62s-.41-.19-.81-.19c-.27,0-.48.05-.63.16s-.27.29-.36.56ZM588.85,122.56c-.19.06-.5.14-.92.23-.42.09-.69.18-.82.26-.2.14-.3.32-.3.53s.08.39.24.55c.16.15.36.23.6.23.27,0,.53-.09.78-.27.18-.14.3-.3.36-.5.04-.13.06-.37.06-.74v-.3Z"/>
  <path id="Arial-BoldMT-6e4" data-name="Arial-BoldMT-6e" class="st6" d="M597.01,125.3h-1.51v-2.91c0-.62-.03-1.01-.1-1.19s-.17-.32-.31-.42c-.15-.1-.32-.15-.52-.15-.26,0-.5.07-.7.21s-.35.33-.43.57c-.08.24-.12.67-.12,1.31v2.58h-1.51v-5.7h1.4v.84c.5-.65,1.12-.97,1.88-.97.33,0,.64.06.91.18.28.12.48.27.63.46.14.19.24.4.3.63.06.24.08.57.08,1.01v3.55Z"/>
  <path id="Arial-BoldMT-743" data-name="Arial-BoldMT-74" class="st6" d="M601.16,119.6v1.2h-1.03v2.3c0,.47,0,.74.03.81.02.08.07.14.14.19s.15.08.25.08c.14,0,.34-.05.61-.15l.13,1.17c-.35.15-.75.23-1.19.23-.27,0-.52-.05-.74-.14-.22-.09-.38-.21-.48-.36-.1-.15-.17-.34-.21-.59-.03-.18-.05-.53-.05-1.06v-2.49h-.69v-1.2h.69v-1.13l1.51-.88v2.01h1.03Z"/>
  <path id="Arial-BoldMT-723" data-name="Arial-BoldMT-72" class="st6" d="M603.65,125.3h-1.51v-5.7h1.4v.81c.24-.38.45-.63.65-.76.19-.12.41-.18.65-.18.34,0,.67.1.99.29l-.47,1.31c-.25-.16-.49-.25-.71-.25s-.39.06-.54.18c-.15.12-.26.33-.35.63-.08.3-.13.94-.13,1.91v1.76Z"/>
  <path id="Arial-BoldMT-79" class="st6" d="M605.77,119.6h1.61l1.36,4.05,1.33-4.05h1.56l-2.01,5.49-.36.99c-.13.33-.26.59-.38.76-.12.18-.26.32-.41.43-.16.11-.35.2-.58.26-.23.06-.48.09-.77.09s-.57-.03-.85-.09l-.13-1.18c.24.05.45.07.64.07.35,0,.61-.1.78-.31.17-.21.3-.47.39-.79l-2.17-5.72Z"/>
  <path id="Arial-BoldMT-2f1" data-name="Arial-BoldMT-2f" class="st6" d="M611.8,125.44l1.95-8.14h1.13l-1.97,8.14h-1.11Z"/>
  <path id="Arial-BoldMT-4d1" data-name="Arial-BoldMT-4d" class="st6" d="M615.65,125.3v-7.87h2.38l1.43,5.37,1.41-5.37h2.38v7.87h-1.48v-6.2l-1.56,6.2h-1.53l-1.56-6.2v6.2h-1.48Z"/>
  <path id="Arial-BoldMT-744" data-name="Arial-BoldMT-74" class="st6" d="M627.44,119.6v1.2h-1.03v2.3c0,.47,0,.74.03.81.02.08.07.14.14.19s.15.08.25.08c.14,0,.34-.05.61-.15l.13,1.17c-.35.15-.75.23-1.19.23-.27,0-.52-.05-.74-.14-.22-.09-.38-.21-.48-.36-.1-.15-.17-.34-.21-.59-.03-.18-.05-.53-.05-1.06v-2.49h-.69v-1.2h.69v-1.13l1.51-.88v2.01h1.03Z"/>
  <path id="Arial-BoldMT-6e5" data-name="Arial-BoldMT-6e" class="st6" d="M633.67,125.3h-1.51v-2.91c0-.62-.03-1.01-.1-1.19s-.17-.32-.31-.42c-.15-.1-.32-.15-.52-.15-.26,0-.5.07-.7.21s-.35.33-.43.57c-.08.24-.12.67-.12,1.31v2.58h-1.51v-5.7h1.4v.84c.5-.65,1.12-.97,1.88-.97.33,0,.64.06.91.18.28.12.48.27.63.46.14.19.24.4.3.63.06.24.08.57.08,1.01v3.55Z"/>
  <path id="Arial-BoldMT-204" data-name="Arial-BoldMT-20" class="st6" d="M634.42,125.3"/>
  <path id="Arial-BoldMT-441" data-name="Arial-BoldMT-44" class="st6" d="M638.27,117.43h2.9c.66,0,1.15.05,1.5.15.46.14.86.38,1.19.73.33.35.58.77.75,1.28s.26,1.12.26,1.86c0,.65-.08,1.21-.24,1.68-.2.57-.48,1.04-.84,1.39-.28.27-.65.48-1.12.63-.35.11-.82.17-1.41.17h-2.99v-7.87ZM639.86,118.76v5.21h1.19c.44,0,.77-.03.96-.08.26-.06.47-.17.64-.33.17-.15.31-.41.42-.76.11-.35.16-.83.16-1.44s-.05-1.08-.16-1.4c-.11-.33-.26-.58-.45-.76-.19-.18-.44-.31-.73-.37-.22-.05-.66-.07-1.31-.07h-.71Z"/>
  <path id="Arial-BoldMT-693" data-name="Arial-BoldMT-69" class="st6" d="M646.21,118.83v-1.4h1.51v1.4h-1.51ZM646.21,125.3v-5.7h1.51v5.7h-1.51Z"/>
  <path id="Arial-BoldMT-761" data-name="Arial-BoldMT-76" class="st6" d="M650.83,125.3l-2.3-5.7h1.58l1.07,2.91.31.97c.08-.25.13-.41.15-.49.05-.16.1-.32.16-.48l1.08-2.91h1.55l-2.27,5.7h-1.36Z"/>
  <path id="Arial-BoldMT-321" data-name="Arial-BoldMT-32" class="st6" d="M587.11,135.66v1.4h-5.29c.06-.53.23-1.03.52-1.51.29-.47.85-1.1,1.7-1.89.68-.63,1.1-1.06,1.25-1.29.21-.31.31-.62.31-.92,0-.34-.09-.59-.27-.78-.18-.18-.43-.27-.75-.27s-.57.1-.75.29c-.19.19-.29.5-.32.95l-1.5-.15c.09-.83.37-1.43.84-1.79.47-.36,1.06-.54,1.77-.54.78,0,1.39.21,1.83.63.44.42.67.94.67,1.56,0,.35-.06.69-.19,1.01s-.33.66-.6,1.01c-.18.23-.51.57-.99,1.01-.48.44-.78.73-.91.87-.13.14-.23.28-.31.42h3Z"/>
  <path id="Arial-BoldMT-304" data-name="Arial-BoldMT-30" class="st6" d="M590.68,129.16c.76,0,1.36.27,1.79.82.51.64.77,1.71.77,3.21s-.26,2.56-.77,3.21c-.43.54-1.02.81-1.78.81s-1.38-.29-1.85-.88c-.47-.59-.7-1.64-.7-3.15s.26-2.55.77-3.2c.43-.54,1.02-.81,1.78-.81ZM590.68,130.41c-.18,0-.34.06-.49.18-.14.12-.25.32-.33.63-.1.39-.15,1.05-.15,1.97s.05,1.56.14,1.9c.09.34.21.57.35.69.14.11.3.17.49.17s.35-.06.49-.17c.14-.12.25-.33.33-.63.1-.39.16-1.04.16-1.96s-.05-1.56-.14-1.9c-.09-.35-.21-.58-.35-.69-.14-.12-.3-.18-.49-.18Z"/>
  <path id="Arial-BoldMT-2c2" data-name="Arial-BoldMT-2c" class="st6" d="M594.53,135.56h1.51v1.08c0,.44-.04.78-.11,1.03-.08.25-.22.48-.43.68-.21.2-.47.36-.8.47l-.3-.62c.3-.1.52-.24.65-.41.13-.18.2-.42.21-.72h-.73v-1.51Z"/>
  <path id="Arial-BoldMT-37" class="st6" d="M597.31,130.7v-1.4h5.16v1.1c-.43.42-.86,1.02-1.3,1.8-.44.78-.78,1.62-1.01,2.5-.23.88-.34,1.67-.34,2.36h-1.45c.02-1.09.25-2.2.67-3.33.43-1.13.99-2.14,1.7-3.04h-3.43Z"/>
  <path id="Arial-BoldMT-305" data-name="Arial-BoldMT-30" class="st6" d="M605.97,129.16c.76,0,1.36.27,1.79.82.51.64.77,1.71.77,3.21s-.26,2.56-.77,3.21c-.43.54-1.02.81-1.78.81s-1.38-.29-1.85-.88c-.47-.59-.7-1.64-.7-3.15s.26-2.55.77-3.2c.43-.54,1.02-.81,1.78-.81ZM605.97,130.41c-.18,0-.34.06-.49.18-.14.12-.25.32-.33.63-.1.39-.15,1.05-.15,1.97s.05,1.56.14,1.9c.09.34.21.57.35.69.14.11.3.17.49.17s.35-.06.49-.17c.14-.12.25-.33.33-.63.1-.39.16-1.04.16-1.96s-.05-1.56-.14-1.9c-.09-.35-.21-.58-.35-.69-.14-.12-.3-.18-.49-.18Z"/>
  <path id="Arial-BoldMT-306" data-name="Arial-BoldMT-30" class="st6" d="M612.09,129.16c.76,0,1.36.27,1.79.82.51.64.77,1.71.77,3.21s-.26,2.56-.77,3.21c-.43.54-1.02.81-1.78.81s-1.38-.29-1.85-.88c-.47-.59-.7-1.64-.7-3.15s.26-2.55.77-3.2c.43-.54,1.02-.81,1.78-.81ZM612.09,130.41c-.18,0-.34.06-.49.18-.14.12-.25.32-.33.63-.1.39-.15,1.05-.15,1.97s.05,1.56.14,1.9c.09.34.21.57.35.69.14.11.3.17.49.17s.35-.06.49-.17c.14-.12.25-.33.33-.63.1-.39.16-1.04.16-1.96s-.05-1.56-.14-1.9c-.09-.35-.21-.58-.35-.69-.14-.12-.3-.18-.49-.18Z"/>
  <path id="Arial-BoldMT-205" data-name="Arial-BoldMT-20" class="st6" d="M615.19,137.07"/>
  <path id="Arial-BoldMT-752" data-name="Arial-BoldMT-75" class="st6" d="M622.79,137.07v-.85c-.21.3-.48.54-.82.72-.34.18-.69.26-1.07.26s-.73-.08-1.03-.25c-.3-.17-.52-.4-.66-.71-.14-.3-.2-.73-.2-1.26v-3.61h1.51v2.62c0,.8.03,1.29.08,1.47.06.18.16.32.3.43s.33.16.56.16c.26,0,.49-.07.69-.21.2-.14.34-.32.42-.53.08-.21.11-.72.11-1.54v-2.41h1.51v5.7h-1.4Z"/>
  <path id="Arial-BoldMT-6e6" data-name="Arial-BoldMT-6e" class="st6" d="M630.94,137.07h-1.51v-2.91c0-.62-.03-1.01-.1-1.19s-.17-.32-.31-.42c-.15-.1-.32-.15-.52-.15-.26,0-.5.07-.7.21s-.35.33-.43.57c-.08.24-.12.67-.12,1.31v2.58h-1.51v-5.7h1.4v.84c.5-.65,1.12-.97,1.88-.97.33,0,.64.06.91.18.28.12.48.27.63.46.14.19.24.4.3.63.06.24.08.57.08,1.01v3.55Z"/>
  <path id="Arial-BoldMT-694" data-name="Arial-BoldMT-69" class="st6" d="M632.47,130.59v-1.4h1.51v1.4h-1.51ZM632.47,137.07v-5.7h1.51v5.7h-1.51Z"/>
  <path id="Arial-BoldMT-745" data-name="Arial-BoldMT-74" class="st6" d="M638.15,131.36v1.2h-1.03v2.3c0,.47,0,.74.03.81.02.08.07.14.14.19s.15.08.25.08c.14,0,.34-.05.61-.15l.13,1.17c-.35.15-.75.23-1.19.23-.27,0-.52-.05-.74-.14-.22-.09-.38-.21-.48-.36-.1-.15-.17-.34-.21-.59-.03-.18-.05-.53-.05-1.06v-2.49h-.69v-1.2h.69v-1.13l1.51-.88v2.01h1.03Z"/>
  <path id="Arial-BoldMT-732" data-name="Arial-BoldMT-73" class="st6" d="M638.66,135.44l1.51-.23c.07.29.2.52.39.67.2.15.47.23.83.23.39,0,.68-.07.88-.21.13-.1.2-.24.2-.4,0-.11-.04-.21-.11-.28-.07-.07-.24-.14-.5-.2-1.22-.27-1.99-.51-2.32-.74-.45-.31-.68-.74-.68-1.28,0-.49.19-.91.58-1.25.39-.34,1-.51,1.82-.51s1.36.13,1.74.38c.38.25.64.63.79,1.13l-1.42.26c-.06-.22-.18-.39-.35-.51-.17-.12-.41-.18-.73-.18-.4,0-.68.06-.85.17-.11.08-.17.18-.17.31,0,.11.05.2.15.27.14.1.61.24,1.41.42.8.18,1.37.41,1.68.67.32.27.47.64.47,1.12,0,.52-.22.97-.65,1.35-.44.38-1.08.56-1.94.56-.78,0-1.39-.16-1.85-.47-.45-.32-.75-.74-.89-1.28Z"/>
  <path id="Arial-BoldMT-491" data-name="Arial-BoldMT-49" class="st6" d="M151.28,300.01v-7.87h1.59v7.87h-1.59Z"/>
  <path id="Arial-BoldMT-6e7" data-name="Arial-BoldMT-6e" class="st6" d="M159.57,300.01h-1.51v-2.91c0-.62-.03-1.01-.1-1.19s-.17-.32-.31-.42c-.15-.1-.32-.15-.52-.15-.26,0-.5.07-.7.21s-.35.33-.43.57c-.08.24-.12.67-.12,1.31v2.58h-1.51v-5.7h1.4v.84c.5-.65,1.12-.97,1.88-.97.33,0,.64.06.91.18.28.12.48.27.63.46.14.19.24.4.3.63.06.24.08.57.08,1.01v3.55Z"/>
  <path id="Arial-BoldMT-642" data-name="Arial-BoldMT-64" class="st6" d="M166.33,300.01h-1.4v-.84c-.23.33-.51.57-.83.73-.32.16-.64.24-.96.24-.66,0-1.22-.26-1.68-.79-.47-.53-.7-1.26-.7-2.21s.23-1.7.68-2.21c.45-.5,1.03-.75,1.73-.75.64,0,1.19.27,1.65.8v-2.84h1.51v7.87ZM162.3,297.03c0,.61.08,1.05.25,1.32.24.39.58.59,1.02.59.35,0,.64-.15.89-.44.24-.3.37-.74.37-1.33,0-.66-.12-1.13-.35-1.41-.24-.29-.54-.43-.91-.43s-.66.14-.9.43c-.24.28-.36.71-.36,1.28Z"/>
  <path id="Arial-BoldMT-654" data-name="Arial-BoldMT-65" class="st6" d="M171.12,298.19l1.5.25c-.19.55-.5.97-.92,1.26-.42.29-.94.43-1.56.43-.99,0-1.73-.32-2.2-.97-.38-.52-.56-1.17-.56-1.96,0-.95.25-1.69.74-2.22.49-.54,1.12-.8,1.88-.8.85,0,1.52.28,2.01.84s.72,1.42.7,2.58h-3.78c.01.45.13.8.37,1.04.23.25.52.37.87.37.24,0,.43-.06.59-.19.16-.13.28-.34.37-.62ZM171.2,296.67c-.01-.44-.12-.77-.34-1-.21-.23-.48-.34-.78-.34-.33,0-.6.12-.82.36-.21.24-.32.57-.32.98h2.25Z"/>
  <path id="Arial-BoldMT-70" class="st6" d="M173.89,294.31h1.41v.84c.18-.29.43-.52.74-.7.31-.18.66-.27,1.04-.27.66,0,1.22.26,1.69.78s.69,1.24.69,2.17-.23,1.69-.7,2.22c-.47.53-1.03.79-1.69.79-.32,0-.6-.06-.86-.19-.26-.13-.52-.34-.81-.64v2.87h-1.51v-7.88ZM175.38,297.06c0,.64.13,1.12.38,1.42s.56.46.93.46.64-.14.87-.42c.23-.28.35-.74.35-1.38,0-.6-.12-1.04-.36-1.33-.24-.29-.54-.43-.89-.43s-.68.14-.92.43c-.24.28-.36.71-.36,1.26Z"/>
  <path id="Arial-BoldMT-655" data-name="Arial-BoldMT-65" class="st6" d="M183.96,298.19l1.5.25c-.19.55-.5.97-.92,1.26-.42.29-.94.43-1.56.43-.99,0-1.73-.32-2.2-.97-.38-.52-.56-1.17-.56-1.96,0-.95.25-1.69.74-2.22.49-.54,1.12-.8,1.88-.8.85,0,1.52.28,2.01.84s.72,1.42.7,2.58h-3.78c.01.45.13.8.37,1.04.23.25.52.37.87.37.24,0,.43-.06.59-.19.16-.13.28-.34.37-.62ZM184.04,296.67c-.01-.44-.12-.77-.34-1-.21-.23-.48-.34-.78-.34-.33,0-.6.12-.82.36-.21.24-.32.57-.32.98h2.25Z"/>
  <path id="Arial-BoldMT-6e8" data-name="Arial-BoldMT-6e" class="st6" d="M191.96,300.01h-1.51v-2.91c0-.62-.03-1.01-.1-1.19s-.17-.32-.31-.42c-.15-.1-.32-.15-.52-.15-.26,0-.5.07-.7.21s-.35.33-.43.57c-.08.24-.12.67-.12,1.31v2.58h-1.51v-5.7h1.4v.84c.5-.65,1.12-.97,1.88-.97.33,0,.64.06.91.18.28.12.48.27.63.46.14.19.24.4.3.63.06.24.08.57.08,1.01v3.55Z"/>
  <path id="Arial-BoldMT-643" data-name="Arial-BoldMT-64" class="st6" d="M198.72,300.01h-1.4v-.84c-.23.33-.51.57-.83.73-.32.16-.64.24-.96.24-.66,0-1.22-.26-1.68-.79-.47-.53-.7-1.26-.7-2.21s.23-1.7.68-2.21c.45-.5,1.03-.75,1.73-.75.64,0,1.19.27,1.65.8v-2.84h1.51v7.87ZM194.69,297.03c0,.61.08,1.05.25,1.32.24.39.58.59,1.02.59.35,0,.64-.15.89-.44.24-.3.37-.74.37-1.33,0-.66-.12-1.13-.35-1.41-.24-.29-.54-.43-.91-.43s-.66.14-.9.43c-.24.28-.36.71-.36,1.28Z"/>
  <path id="Arial-BoldMT-656" data-name="Arial-BoldMT-65" class="st6" d="M203.51,298.19l1.5.25c-.19.55-.5.97-.92,1.26-.42.29-.94.43-1.56.43-.99,0-1.73-.32-2.2-.97-.38-.52-.56-1.17-.56-1.96,0-.95.25-1.69.74-2.22.49-.54,1.12-.8,1.88-.8.85,0,1.52.28,2.01.84s.72,1.42.7,2.58h-3.78c.01.45.13.8.37,1.04.23.25.52.37.87.37.24,0,.43-.06.59-.19.16-.13.28-.34.37-.62ZM203.6,296.67c-.01-.44-.12-.77-.34-1-.21-.23-.48-.34-.78-.34-.33,0-.6.12-.82.36-.21.24-.32.57-.32.98h2.25Z"/>
  <path id="Arial-BoldMT-6e9" data-name="Arial-BoldMT-6e" class="st6" d="M211.51,300.01h-1.51v-2.91c0-.62-.03-1.01-.1-1.19s-.17-.32-.31-.42c-.15-.1-.32-.15-.52-.15-.26,0-.5.07-.7.21s-.35.33-.43.57c-.08.24-.12.67-.12,1.31v2.58h-1.51v-5.7h1.4v.84c.5-.65,1.12-.97,1.88-.97.33,0,.64.06.91.18.28.12.48.27.63.46.14.19.24.4.3.63.06.24.08.57.08,1.01v3.55Z"/>
  <path id="Arial-BoldMT-746" data-name="Arial-BoldMT-74" class="st6" d="M215.66,294.31v1.2h-1.03v2.3c0,.47,0,.74.03.81.02.08.07.14.14.19s.15.08.25.08c.14,0,.34-.05.61-.15l.13,1.17c-.35.15-.75.23-1.19.23-.27,0-.52-.05-.74-.14-.22-.09-.38-.21-.48-.36-.1-.15-.17-.34-.21-.59-.03-.18-.05-.53-.05-1.06v-2.49h-.69v-1.2h.69v-1.13l1.51-.88v2.01h1.03Z"/>
  <path id="Arial-BoldMT-206" data-name="Arial-BoldMT-20" class="st6" d="M215.92,300.01"/>
  <path id="Arial-BoldMT-42" class="st6" d="M219.78,292.14h3.15c.62,0,1.09.03,1.39.08s.58.16.82.32.44.38.6.66c.16.27.24.58.24.92,0,.37-.1.71-.3,1.02-.2.31-.47.54-.81.69.48.14.85.38,1.11.71s.39.73.39,1.19c0,.36-.08.71-.25,1.04-.17.34-.39.61-.68.81-.29.2-.64.33-1.07.37-.26.03-.9.05-1.92.05h-2.68v-7.87ZM221.37,293.45v1.82h1.04c.62,0,1,0,1.15-.03.27-.03.49-.13.64-.28s.23-.36.23-.62-.07-.44-.2-.59-.33-.24-.6-.28c-.16-.02-.61-.03-1.36-.03h-.91ZM221.37,296.58v2.11h1.47c.57,0,.94-.02,1.09-.05.24-.04.43-.15.58-.31.15-.17.22-.39.22-.67,0-.24-.06-.44-.17-.6s-.28-.28-.5-.36c-.22-.08-.69-.11-1.41-.11h-1.28Z"/>
  <path id="Arial-BoldMT-724" data-name="Arial-BoldMT-72" class="st6" d="M229.15,300.01h-1.51v-5.7h1.4v.81c.24-.38.45-.63.65-.76.19-.12.41-.18.65-.18.34,0,.67.1.99.29l-.47,1.31c-.25-.16-.49-.25-.71-.25s-.39.06-.54.18c-.15.12-.26.33-.35.63-.08.3-.13.94-.13,1.91v1.76Z"/>
  <path id="Arial-BoldMT-695" data-name="Arial-BoldMT-69" class="st6" d="M231.99,293.53v-1.4h1.51v1.4h-1.51ZM231.99,300.01v-5.7h1.51v5.7h-1.51Z"/>
  <path id="Arial-BoldMT-67" class="st6" d="M234.91,300.39l1.72.21c.03.2.1.34.2.41.14.11.37.16.68.16.39,0,.69-.06.89-.18.13-.08.23-.21.3-.38.05-.12.07-.36.07-.69v-.83c-.45.62-1.02.92-1.71.92-.77,0-1.37-.32-1.82-.97-.35-.51-.53-1.15-.53-1.91,0-.96.23-1.69.69-2.19.46-.51,1.03-.76,1.72-.76s1.29.31,1.74.93v-.8h1.41v5.12c0,.67-.06,1.18-.17,1.51-.11.33-.27.59-.47.78-.2.19-.47.34-.8.45s-.76.16-1.27.16c-.97,0-1.65-.17-2.06-.5-.4-.33-.61-.75-.61-1.26,0-.05,0-.11,0-.18ZM236.26,297.04c0,.6.12,1.05.35,1.33.23.28.52.42.87.42.37,0,.68-.14.93-.43s.38-.72.38-1.28-.12-1.03-.37-1.32c-.24-.29-.55-.43-.92-.43s-.66.14-.9.42c-.23.28-.35.71-.35,1.29Z"/>
  <path id="Arial-BoldMT-613" data-name="Arial-BoldMT-61" class="st6" d="M242.89,296.05l-1.37-.25c.15-.55.42-.96.79-1.22.38-.27.93-.4,1.68-.4.67,0,1.18.08,1.5.24.33.16.56.36.7.61s.2.7.2,1.35l-.02,1.76c0,.5.02.87.07,1.11.05.24.14.49.27.76h-1.49c-.04-.1-.09-.25-.14-.45-.03-.09-.04-.15-.05-.18-.26.25-.53.44-.83.57-.29.12-.61.19-.94.19-.59,0-1.05-.16-1.39-.48-.34-.32-.51-.72-.51-1.21,0-.32.08-.61.23-.86.15-.25.37-.45.65-.58.28-.14.68-.25,1.2-.35.7-.13,1.19-.26,1.47-.37v-.15c0-.29-.07-.5-.21-.62s-.41-.19-.81-.19c-.27,0-.48.05-.63.16s-.27.29-.36.56ZM244.91,297.27c-.19.06-.5.14-.92.23-.42.09-.69.18-.82.26-.2.14-.3.32-.3.53s.08.39.24.55c.16.15.36.23.6.23.27,0,.53-.09.78-.27.18-.14.3-.3.36-.5.04-.13.06-.37.06-.74v-.3Z"/>
  <path id="Arial-BoldMT-644" data-name="Arial-BoldMT-64" class="st6" d="M253.11,300.01h-1.4v-.84c-.23.33-.51.57-.83.73-.32.16-.64.24-.96.24-.66,0-1.22-.26-1.68-.79-.47-.53-.7-1.26-.7-2.21s.23-1.7.68-2.21c.45-.5,1.03-.75,1.73-.75.64,0,1.19.27,1.65.8v-2.84h1.51v7.87ZM249.09,297.03c0,.61.08,1.05.25,1.32.24.39.58.59,1.02.59.35,0,.64-.15.89-.44.24-.3.37-.74.37-1.33,0-.66-.12-1.13-.35-1.41-.24-.29-.54-.43-.91-.43s-.66.14-.9.43c-.24.28-.36.71-.36,1.28Z"/>
  <path id="Arial-BoldMT-657" data-name="Arial-BoldMT-65" class="st6" d="M257.9,298.19l1.5.25c-.19.55-.5.97-.92,1.26-.42.29-.94.43-1.56.43-.99,0-1.73-.32-2.2-.97-.38-.52-.56-1.17-.56-1.96,0-.95.25-1.69.74-2.22.49-.54,1.12-.8,1.88-.8.85,0,1.52.28,2.01.84s.72,1.42.7,2.58h-3.78c.01.45.13.8.37,1.04.23.25.52.37.87.37.24,0,.43-.06.59-.19.16-.13.28-.34.37-.62ZM257.99,296.67c-.01-.44-.12-.77-.34-1-.21-.23-.48-.34-.78-.34-.33,0-.6.12-.82.36-.21.24-.32.57-.32.98h2.25Z"/>
  <path id="Arial-BoldMT-35" class="st6" d="M174.23,309.75l1.5-.16c.04.34.17.61.38.81.21.2.46.3.73.3.32,0,.58-.13.8-.38.22-.26.33-.64.33-1.16,0-.48-.11-.85-.33-1.09-.22-.24-.5-.36-.85-.36-.43,0-.82.19-1.17.58l-1.22-.18.77-4.1h3.99v1.41h-2.85l-.24,1.34c.34-.17.68-.25,1.03-.25.67,0,1.24.24,1.7.73.47.49.7,1.12.7,1.9,0,.65-.19,1.23-.56,1.74-.51.69-1.22,1.04-2.13,1.04-.73,0-1.32-.19-1.78-.58-.46-.39-.73-.92-.82-1.57Z"/>
  <path id="Arial-BoldMT-31" class="st6" d="M184.19,311.77h-1.51v-5.69c-.55.52-1.2.9-1.95,1.14v-1.37c.39-.13.82-.37,1.28-.73.46-.36.78-.78.95-1.26h1.23v7.91Z"/>
  <path id="Arial-BoldMT-2c3" data-name="Arial-BoldMT-2c" class="st6" d="M186.73,310.26h1.51v1.08c0,.44-.04.78-.11,1.03-.08.25-.22.48-.43.68-.21.2-.47.36-.8.47l-.3-.62c.3-.1.52-.24.65-.41.13-.18.2-.42.21-.72h-.73v-1.51Z"/>
  <path id="Arial-BoldMT-307" data-name="Arial-BoldMT-30" class="st6" d="M192.05,303.87c.76,0,1.36.27,1.79.82.51.64.77,1.71.77,3.21s-.26,2.56-.77,3.21c-.43.54-1.02.81-1.78.81s-1.38-.29-1.85-.88c-.47-.59-.7-1.64-.7-3.15s.26-2.55.77-3.2c.43-.54,1.02-.81,1.78-.81ZM192.05,305.12c-.18,0-.34.06-.49.18-.14.12-.25.32-.33.63-.1.39-.15,1.05-.15,1.97s.05,1.56.14,1.9c.09.34.21.57.35.69.14.11.3.17.49.17s.35-.06.49-.17c.14-.12.25-.33.33-.63.1-.39.16-1.04.16-1.96s-.05-1.56-.14-1.9c-.09-.35-.21-.58-.35-.69-.14-.12-.3-.18-.49-.18Z"/>
  <path id="Arial-BoldMT-308" data-name="Arial-BoldMT-30" class="st6" d="M198.17,303.87c.76,0,1.36.27,1.79.82.51.64.77,1.71.77,3.21s-.26,2.56-.77,3.21c-.43.54-1.02.81-1.78.81s-1.38-.29-1.85-.88c-.47-.59-.7-1.64-.7-3.15s.26-2.55.77-3.2c.43-.54,1.02-.81,1.78-.81ZM198.17,305.12c-.18,0-.34.06-.49.18-.14.12-.25.32-.33.63-.1.39-.15,1.05-.15,1.97s.05,1.56.14,1.9c.09.34.21.57.35.69.14.11.3.17.49.17s.35-.06.49-.17c.14-.12.25-.33.33-.63.1-.39.16-1.04.16-1.96s-.05-1.56-.14-1.9c-.09-.35-.21-.58-.35-.69-.14-.12-.3-.18-.49-.18Z"/>
  <path id="Arial-BoldMT-309" data-name="Arial-BoldMT-30" class="st6" d="M204.29,303.87c.76,0,1.36.27,1.79.82.51.64.77,1.71.77,3.21s-.26,2.56-.77,3.21c-.43.54-1.02.81-1.78.81s-1.38-.29-1.85-.88c-.47-.59-.7-1.64-.7-3.15s.26-2.55.77-3.2c.43-.54,1.02-.81,1.78-.81ZM204.29,305.12c-.18,0-.34.06-.49.18-.14.12-.25.32-.33.63-.1.39-.15,1.05-.15,1.97s.05,1.56.14,1.9c.09.34.21.57.35.69.14.11.3.17.49.17s.35-.06.49-.17c.14-.12.25-.33.33-.63.1-.39.16-1.04.16-1.96s-.05-1.56-.14-1.9c-.09-.35-.21-.58-.35-.69-.14-.12-.3-.18-.49-.18Z"/>
  <path id="Arial-BoldMT-207" data-name="Arial-BoldMT-20" class="st6" d="M207.39,311.77"/>
  <path id="Arial-BoldMT-753" data-name="Arial-BoldMT-75" class="st6" d="M214.99,311.77v-.85c-.21.3-.48.54-.82.72-.34.18-.69.26-1.07.26s-.73-.08-1.03-.25c-.3-.17-.52-.4-.66-.71-.14-.3-.2-.73-.2-1.26v-3.61h1.51v2.62c0,.8.03,1.29.08,1.47.06.18.16.32.3.43s.33.16.56.16c.26,0,.49-.07.69-.21.2-.14.34-.32.42-.53.08-.21.11-.72.11-1.54v-2.41h1.51v5.7h-1.4Z"/>
  <path id="Arial-BoldMT-6e10" data-name="Arial-BoldMT-6e" class="st6" d="M223.14,311.77h-1.51v-2.91c0-.62-.03-1.01-.1-1.19s-.17-.32-.31-.42c-.15-.1-.32-.15-.52-.15-.26,0-.5.07-.7.21s-.35.33-.43.57c-.08.24-.12.67-.12,1.31v2.58h-1.51v-5.7h1.4v.84c.5-.65,1.12-.97,1.88-.97.33,0,.64.06.91.18.28.12.48.27.63.46.14.19.24.4.3.63.06.24.08.57.08,1.01v3.55Z"/>
  <path id="Arial-BoldMT-696" data-name="Arial-BoldMT-69" class="st6" d="M224.67,305.3v-1.4h1.51v1.4h-1.51ZM224.67,311.77v-5.7h1.51v5.7h-1.51Z"/>
  <path id="Arial-BoldMT-747" data-name="Arial-BoldMT-74" class="st6" d="M230.34,306.07v1.2h-1.03v2.3c0,.47,0,.74.03.81.02.08.07.14.14.19s.15.08.25.08c.14,0,.34-.05.61-.15l.13,1.17c-.35.15-.75.23-1.19.23-.27,0-.52-.05-.74-.14-.22-.09-.38-.21-.48-.36-.1-.15-.17-.34-.21-.59-.03-.18-.05-.53-.05-1.06v-2.49h-.69v-1.2h.69v-1.13l1.51-.88v2.01h1.03Z"/>
  <path id="Arial-BoldMT-733" data-name="Arial-BoldMT-73" class="st6" d="M230.86,310.15l1.51-.23c.07.29.2.52.39.67.2.15.47.23.83.23.39,0,.68-.07.88-.21.13-.1.2-.24.2-.4,0-.11-.04-.21-.11-.28-.07-.07-.24-.14-.5-.2-1.22-.27-1.99-.51-2.32-.74-.45-.31-.68-.74-.68-1.28,0-.49.19-.91.58-1.25.39-.34,1-.51,1.82-.51s1.36.13,1.74.38c.38.25.64.63.79,1.13l-1.42.26c-.06-.22-.18-.39-.35-.51-.17-.12-.41-.18-.73-.18-.4,0-.68.06-.85.17-.11.08-.17.18-.17.31,0,.11.05.2.15.27.14.1.61.24,1.41.42.8.18,1.37.41,1.68.67.32.27.47.64.47,1.12,0,.52-.22.97-.65,1.35-.44.38-1.08.56-1.94.56-.78,0-1.39-.16-1.85-.47-.45-.32-.75-.74-.89-1.28Z"/>
  <path id="Arial-BoldMT-492" data-name="Arial-BoldMT-49" class="st6" d="M513.67,387.46v-7.87h1.59v7.87h-1.59Z"/>
  <path id="Arial-BoldMT-6e11" data-name="Arial-BoldMT-6e" class="st6" d="M521.95,387.46h-1.51v-2.91c0-.62-.03-1.01-.1-1.19s-.17-.32-.31-.42c-.15-.1-.32-.15-.52-.15-.26,0-.5.07-.7.21s-.35.33-.43.57c-.08.24-.12.67-.12,1.31v2.58h-1.51v-5.7h1.4v.84c.5-.65,1.12-.97,1.88-.97.33,0,.64.06.91.18.28.12.48.27.63.46.14.19.24.4.3.63.06.24.08.57.08,1.01v3.55Z"/>
  <path id="Arial-BoldMT-661" data-name="Arial-BoldMT-66" class="st6" d="M522.82,381.76h.84v-.43c0-.48.05-.84.15-1.07.1-.24.29-.43.56-.58.27-.15.62-.22,1.04-.22s.85.06,1.26.19l-.2,1.05c-.24-.06-.47-.09-.69-.09s-.38.05-.47.15c-.09.1-.14.3-.14.59v.4h1.13v1.19h-1.13v4.52h-1.51v-4.52h-.84v-1.19Z"/>
  <path id="Arial-BoldMT-614" data-name="Arial-BoldMT-61" class="st6" d="M528.27,383.5l-1.37-.25c.15-.55.42-.96.79-1.22.38-.27.93-.4,1.68-.4.67,0,1.18.08,1.5.24.33.16.56.36.7.61s.2.7.2,1.35l-.02,1.76c0,.5.02.87.07,1.11.05.24.14.49.27.76h-1.49c-.04-.1-.09-.25-.14-.45-.03-.09-.04-.15-.05-.18-.26.25-.53.44-.83.57-.29.12-.61.19-.94.19-.59,0-1.05-.16-1.39-.48-.34-.32-.51-.72-.51-1.21,0-.32.08-.61.23-.86.15-.25.37-.45.65-.58.28-.14.68-.25,1.2-.35.7-.13,1.19-.26,1.47-.37v-.15c0-.29-.07-.5-.21-.62s-.41-.19-.81-.19c-.27,0-.48.05-.63.16s-.27.29-.36.56ZM530.29,384.72c-.19.06-.5.14-.92.23-.42.09-.69.18-.82.26-.2.14-.3.32-.3.53s.08.39.24.55c.16.15.36.23.6.23.27,0,.53-.09.78-.27.18-.14.3-.3.36-.5.04-.13.06-.37.06-.74v-.3Z"/>
  <path id="Arial-BoldMT-6e12" data-name="Arial-BoldMT-6e" class="st6" d="M538.45,387.46h-1.51v-2.91c0-.62-.03-1.01-.1-1.19s-.17-.32-.31-.42c-.15-.1-.32-.15-.52-.15-.26,0-.5.07-.7.21s-.35.33-.43.57c-.08.24-.12.67-.12,1.31v2.58h-1.51v-5.7h1.4v.84c.5-.65,1.12-.97,1.88-.97.33,0,.64.06.91.18.28.12.48.27.63.46.14.19.24.4.3.63.06.24.08.57.08,1.01v3.55Z"/>
  <path id="Arial-BoldMT-748" data-name="Arial-BoldMT-74" class="st6" d="M542.59,381.76v1.2h-1.03v2.3c0,.47,0,.74.03.81.02.08.07.14.14.19s.15.08.25.08c.14,0,.34-.05.61-.15l.13,1.17c-.35.15-.75.23-1.19.23-.27,0-.52-.05-.74-.14-.22-.09-.38-.21-.48-.36-.1-.15-.17-.34-.21-.59-.03-.18-.05-.53-.05-1.06v-2.49h-.69v-1.2h.69v-1.13l1.51-.88v2.01h1.03Z"/>
  <path id="Arial-BoldMT-725" data-name="Arial-BoldMT-72" class="st6" d="M545.09,387.46h-1.51v-5.7h1.4v.81c.24-.38.45-.63.65-.76.19-.12.41-.18.65-.18.34,0,.67.1.99.29l-.47,1.31c-.25-.16-.49-.25-.71-.25s-.39.06-.54.18c-.15.12-.26.33-.35.63-.08.3-.13.94-.13,1.91v1.76Z"/>
  <path id="Arial-BoldMT-791" data-name="Arial-BoldMT-79" class="st6" d="M547.21,381.76h1.61l1.36,4.05,1.33-4.05h1.56l-2.01,5.49-.36.99c-.13.33-.26.59-.38.76-.12.18-.26.32-.41.43-.16.11-.35.2-.58.26-.23.06-.48.09-.77.09s-.57-.03-.85-.09l-.13-1.18c.24.05.45.07.64.07.35,0,.61-.1.78-.31.17-.21.3-.47.39-.79l-2.17-5.72Z"/>
  <path id="Arial-BoldMT-208" data-name="Arial-BoldMT-20" class="st6" d="M553.25,387.46"/>
  <path id="Arial-BoldMT-50" class="st6" d="M557.11,387.46v-7.87h2.55c.97,0,1.6.04,1.89.12.45.12.83.38,1.13.77.3.4.46.91.46,1.53,0,.48-.09.89-.26,1.22-.18.33-.4.59-.67.78-.27.19-.55.31-.82.37-.38.08-.93.11-1.65.11h-1.04v2.97h-1.59ZM558.7,380.92v2.23h.87c.63,0,1.05-.04,1.26-.12.21-.08.38-.21.5-.39.12-.18.18-.38.18-.61,0-.29-.08-.52-.25-.71-.17-.19-.38-.3-.64-.35-.19-.04-.57-.05-1.14-.05h-.77Z"/>
  <path id="Arial-BoldMT-6c" class="st6" d="M564.43,387.46v-7.87h1.51v7.87h-1.51Z"/>
  <path id="Arial-BoldMT-615" data-name="Arial-BoldMT-61" class="st6" d="M568.62,383.5l-1.37-.25c.15-.55.42-.96.79-1.22.38-.27.93-.4,1.68-.4.67,0,1.18.08,1.5.24.33.16.56.36.7.61s.2.7.2,1.35l-.02,1.76c0,.5.02.87.07,1.11.05.24.14.49.27.76h-1.49c-.04-.1-.09-.25-.14-.45-.03-.09-.04-.15-.05-.18-.26.25-.53.44-.83.57-.29.12-.61.19-.94.19-.59,0-1.05-.16-1.39-.48-.34-.32-.51-.72-.51-1.21,0-.32.08-.61.23-.86.15-.25.37-.45.65-.58.28-.14.68-.25,1.2-.35.7-.13,1.19-.26,1.47-.37v-.15c0-.29-.07-.5-.21-.62s-.41-.19-.81-.19c-.27,0-.48.05-.63.16s-.27.29-.36.56ZM570.64,384.72c-.19.06-.5.14-.92.23-.42.09-.69.18-.82.26-.2.14-.3.32-.3.53s.08.39.24.55c.16.15.36.23.6.23.27,0,.53-.09.78-.27.18-.14.3-.3.36-.5.04-.13.06-.37.06-.74v-.3Z"/>
  <path id="Arial-BoldMT-749" data-name="Arial-BoldMT-74" class="st6" d="M576.22,381.76v1.2h-1.03v2.3c0,.47,0,.74.03.81.02.08.07.14.14.19s.15.08.25.08c.14,0,.34-.05.61-.15l.13,1.17c-.35.15-.75.23-1.19.23-.27,0-.52-.05-.74-.14-.22-.09-.38-.21-.48-.36-.1-.15-.17-.34-.21-.59-.03-.18-.05-.53-.05-1.06v-2.49h-.69v-1.2h.69v-1.13l1.51-.88v2.01h1.03Z"/>
  <path id="Arial-BoldMT-6f2" data-name="Arial-BoldMT-6f" class="st6" d="M576.92,384.53c0-.5.12-.99.37-1.46.25-.47.6-.83,1.05-1.07.45-.25.96-.37,1.52-.37.86,0,1.57.28,2.12.84s.83,1.27.83,2.12-.28,1.58-.84,2.15c-.56.57-1.26.85-2.1.85-.52,0-1.02-.12-1.5-.35-.47-.24-.84-.58-1.08-1.04-.25-.46-.37-1.01-.37-1.67ZM578.47,384.61c0,.56.13,1,.4,1.3.27.3.6.45,1,.45s.72-.15.99-.45c.27-.3.4-.74.4-1.31s-.13-.99-.4-1.29c-.27-.3-.6-.45-.99-.45s-.73.15-1,.45c-.27.3-.4.73-.4,1.3Z"/>
  <path id="Arial-BoldMT-6f3" data-name="Arial-BoldMT-6f" class="st6" d="M583.64,384.53c0-.5.12-.99.37-1.46.25-.47.6-.83,1.05-1.07.45-.25.96-.37,1.52-.37.86,0,1.57.28,2.12.84s.83,1.27.83,2.12-.28,1.58-.84,2.15c-.56.57-1.26.85-2.1.85-.52,0-1.02-.12-1.5-.35-.47-.24-.84-.58-1.08-1.04-.25-.46-.37-1.01-.37-1.67ZM585.19,384.61c0,.56.13,1,.4,1.3.27.3.6.45,1,.45s.72-.15.99-.45c.27-.3.4-.74.4-1.31s-.13-.99-.4-1.29c-.27-.3-.6-.45-.99-.45s-.73.15-1,.45c-.27.3-.4.73-.4,1.3Z"/>
  <path id="Arial-BoldMT-6e13" data-name="Arial-BoldMT-6e" class="st6" d="M595.9,387.46h-1.51v-2.91c0-.62-.03-1.01-.1-1.19s-.17-.32-.31-.42c-.15-.1-.32-.15-.52-.15-.26,0-.5.07-.7.21s-.35.33-.43.57c-.08.24-.12.67-.12,1.31v2.58h-1.51v-5.7h1.4v.84c.5-.65,1.12-.97,1.88-.97.33,0,.64.06.91.18.28.12.48.27.63.46.14.19.24.4.3.63.06.24.08.57.08,1.01v3.55Z"/>
  <path id="Arial-BoldMT-322" data-name="Arial-BoldMT-32" class="st6" d="M525.8,397.82v1.4h-5.29c.06-.53.23-1.03.52-1.51.29-.47.85-1.1,1.7-1.89.68-.63,1.1-1.06,1.25-1.29.21-.31.31-.62.31-.92,0-.34-.09-.59-.27-.78-.18-.18-.43-.27-.75-.27s-.57.1-.75.29c-.19.19-.29.5-.32.95l-1.5-.15c.09-.83.37-1.43.84-1.79.47-.36,1.06-.54,1.77-.54.78,0,1.39.21,1.83.63.44.42.67.94.67,1.56,0,.35-.06.69-.19,1.01s-.33.66-.6,1.01c-.18.23-.51.57-.99,1.01-.48.44-.78.73-.91.87-.13.14-.23.28-.31.42h3Z"/>
  <path id="Arial-BoldMT-342" data-name="Arial-BoldMT-34" class="st6" d="M529.77,399.23v-1.58h-3.22v-1.32l3.42-5h1.27v4.99h.98v1.33h-.98v1.58h-1.46ZM529.77,396.32v-2.69l-1.81,2.69h1.81Z"/>
  <path id="Arial-BoldMT-3010" data-name="Arial-BoldMT-30" class="st6" d="M535.48,391.32c.76,0,1.36.27,1.79.82.51.64.77,1.71.77,3.21s-.26,2.56-.77,3.21c-.43.54-1.02.81-1.78.81s-1.38-.29-1.85-.88c-.47-.59-.7-1.64-.7-3.15s.26-2.55.77-3.2c.43-.54,1.02-.81,1.78-.81ZM535.48,392.57c-.18,0-.34.06-.49.18-.14.12-.25.32-.33.63-.1.39-.15,1.05-.15,1.97s.05,1.56.14,1.9c.09.34.21.57.35.69.14.11.3.17.49.17s.35-.06.49-.17c.14-.12.25-.33.33-.63.1-.39.16-1.04.16-1.96s-.05-1.56-.14-1.9c-.09-.35-.21-.58-.35-.69-.14-.12-.3-.18-.49-.18Z"/>
  <path id="Arial-BoldMT-2c4" data-name="Arial-BoldMT-2c" class="st6" d="M539.34,397.72h1.51v1.08c0,.44-.04.78-.11,1.03-.08.25-.22.48-.43.68-.21.2-.47.36-.8.47l-.3-.62c.3-.1.52-.24.65-.41.13-.18.2-.42.21-.72h-.73v-1.51Z"/>
  <path id="Arial-BoldMT-3011" data-name="Arial-BoldMT-30" class="st6" d="M544.66,391.32c.76,0,1.36.27,1.79.82.51.64.77,1.71.77,3.21s-.26,2.56-.77,3.21c-.43.54-1.02.81-1.78.81s-1.38-.29-1.85-.88c-.47-.59-.7-1.64-.7-3.15s.26-2.55.77-3.2c.43-.54,1.02-.81,1.78-.81ZM544.66,392.57c-.18,0-.34.06-.49.18-.14.12-.25.32-.33.63-.1.39-.15,1.05-.15,1.97s.05,1.56.14,1.9c.09.34.21.57.35.69.14.11.3.17.49.17s.35-.06.49-.17c.14-.12.25-.33.33-.63.1-.39.16-1.04.16-1.96s-.05-1.56-.14-1.9c-.09-.35-.21-.58-.35-.69-.14-.12-.3-.18-.49-.18Z"/>
  <path id="Arial-BoldMT-3012" data-name="Arial-BoldMT-30" class="st6" d="M550.77,391.32c.76,0,1.36.27,1.79.82.51.64.77,1.71.77,3.21s-.26,2.56-.77,3.21c-.43.54-1.02.81-1.78.81s-1.38-.29-1.85-.88c-.47-.59-.7-1.64-.7-3.15s.26-2.55.77-3.2c.43-.54,1.02-.81,1.78-.81ZM550.77,392.57c-.18,0-.34.06-.49.18-.14.12-.25.32-.33.63-.1.39-.15,1.05-.15,1.97s.05,1.56.14,1.9c.09.34.21.57.35.69.14.11.3.17.49.17s.35-.06.49-.17c.14-.12.25-.33.33-.63.1-.39.16-1.04.16-1.96s-.05-1.56-.14-1.9c-.09-.35-.21-.58-.35-.69-.14-.12-.3-.18-.49-.18Z"/>
  <path id="Arial-BoldMT-3013" data-name="Arial-BoldMT-30" class="st6" d="M556.89,391.32c.76,0,1.36.27,1.79.82.51.64.77,1.71.77,3.21s-.26,2.56-.77,3.21c-.43.54-1.02.81-1.78.81s-1.38-.29-1.85-.88c-.47-.59-.7-1.64-.7-3.15s.26-2.55.77-3.2c.43-.54,1.02-.81,1.78-.81ZM556.89,392.57c-.18,0-.34.06-.49.18-.14.12-.25.32-.33.63-.1.39-.15,1.05-.15,1.97s.05,1.56.14,1.9c.09.34.21.57.35.69.14.11.3.17.49.17s.35-.06.49-.17c.14-.12.25-.33.33-.63.1-.39.16-1.04.16-1.96s-.05-1.56-.14-1.9c-.09-.35-.21-.58-.35-.69-.14-.12-.3-.18-.49-.18Z"/>
  <path id="Arial-BoldMT-209" data-name="Arial-BoldMT-20" class="st6" d="M559.99,399.23"/>
  <path id="Arial-BoldMT-754" data-name="Arial-BoldMT-75" class="st6" d="M567.59,399.23v-.85c-.21.3-.48.54-.82.72-.34.18-.69.26-1.07.26s-.73-.08-1.03-.25c-.3-.17-.52-.4-.66-.71-.14-.3-.2-.73-.2-1.26v-3.61h1.51v2.62c0,.8.03,1.29.08,1.47.06.18.16.32.3.43s.33.16.56.16c.26,0,.49-.07.69-.21.2-.14.34-.32.42-.53.08-.21.11-.72.11-1.54v-2.41h1.51v5.7h-1.4Z"/>
  <path id="Arial-BoldMT-6e14" data-name="Arial-BoldMT-6e" class="st6" d="M575.75,399.23h-1.51v-2.91c0-.62-.03-1.01-.1-1.19s-.17-.32-.31-.42c-.15-.1-.32-.15-.52-.15-.26,0-.5.07-.7.21s-.35.33-.43.57c-.08.24-.12.67-.12,1.31v2.58h-1.51v-5.7h1.4v.84c.5-.65,1.12-.97,1.88-.97.33,0,.64.06.91.18.28.12.48.27.63.46.14.19.24.4.3.63.06.24.08.57.08,1.01v3.55Z"/>
  <path id="Arial-BoldMT-697" data-name="Arial-BoldMT-69" class="st6" d="M577.28,392.75v-1.4h1.51v1.4h-1.51ZM577.28,399.23v-5.7h1.51v5.7h-1.51Z"/>
  <path id="Arial-BoldMT-7410" data-name="Arial-BoldMT-74" class="st6" d="M582.95,393.52v1.2h-1.03v2.3c0,.47,0,.74.03.81.02.08.07.14.14.19s.15.08.25.08c.14,0,.34-.05.61-.15l.13,1.17c-.35.15-.75.23-1.19.23-.27,0-.52-.05-.74-.14-.22-.09-.38-.21-.48-.36-.1-.15-.17-.34-.21-.59-.03-.18-.05-.53-.05-1.06v-2.49h-.69v-1.2h.69v-1.13l1.51-.88v2.01h1.03Z"/>
  <path id="Arial-BoldMT-734" data-name="Arial-BoldMT-73" class="st6" d="M583.46,397.6l1.51-.23c.07.29.2.52.39.67.2.15.47.23.83.23.39,0,.68-.07.88-.21.13-.1.2-.24.2-.4,0-.11-.04-.21-.11-.28-.07-.07-.24-.14-.5-.2-1.22-.27-1.99-.51-2.32-.74-.45-.31-.68-.74-.68-1.28,0-.49.19-.91.58-1.25.39-.34,1-.51,1.82-.51s1.36.13,1.74.38c.38.25.64.63.79,1.13l-1.42.26c-.06-.22-.18-.39-.35-.51-.17-.12-.41-.18-.73-.18-.4,0-.68.06-.85.17-.11.08-.17.18-.17.31,0,.11.05.2.15.27.14.1.61.24,1.41.42.8.18,1.37.41,1.68.67.32.27.47.64.47,1.12,0,.52-.22.97-.65,1.35-.44.38-1.08.56-1.94.56-.78,0-1.39-.16-1.85-.47-.45-.32-.75-.74-.89-1.28Z"/>
  <path id="Arial-BoldMT-46" class="st7" d="M200.37,20.88v-10.02h6.87v1.7h-4.85v2.37h4.18v1.7h-4.18v4.26h-2.02Z"/>
  <path id="Arial-BoldMT-6f4" data-name="Arial-BoldMT-6f" class="st7" d="M208.45,17.15c0-.64.16-1.26.47-1.85.32-.6.76-1.05,1.34-1.37.58-.32,1.22-.47,1.93-.47,1.1,0,2,.36,2.7,1.07s1.05,1.61,1.05,2.7-.35,2.01-1.06,2.73c-.71.72-1.6,1.08-2.68,1.08-.67,0-1.3-.15-1.9-.45-.6-.3-1.06-.74-1.38-1.32-.32-.58-.47-1.29-.47-2.12ZM210.42,17.25c0,.72.17,1.27.51,1.65.34.38.76.57,1.27.57s.92-.19,1.26-.57c.34-.38.51-.94.51-1.67s-.17-1.26-.51-1.64c-.34-.38-.76-.58-1.26-.58s-.92.19-1.27.58c-.34.38-.51.93-.51,1.65Z"/>
  <path id="Arial-BoldMT-726" data-name="Arial-BoldMT-72" class="st7" d="M219.28,20.88h-1.92v-7.26h1.79v1.03c.3-.49.58-.81.82-.96.24-.16.52-.23.83-.23.44,0,.86.12,1.26.36l-.6,1.67c-.32-.21-.62-.31-.9-.31s-.5.07-.68.22c-.19.15-.33.41-.44.8-.11.39-.16,1.2-.16,2.43v2.24Z"/>
  <path id="Arial-BoldMT-631" data-name="Arial-BoldMT-63" class="st7" d="M229.22,15.77l-1.89.34c-.06-.38-.21-.66-.44-.86s-.52-.29-.88-.29c-.48,0-.86.17-1.15.5-.28.33-.43.88-.43,1.66,0,.86.14,1.47.43,1.83.29.35.68.53,1.17.53.36,0,.66-.1.89-.31.23-.21.4-.56.49-1.07l1.89.32c-.2.87-.57,1.52-1.13,1.96-.56.44-1.3.66-2.24.66-1.06,0-1.91-.33-2.54-1-.63-.67-.95-1.6-.95-2.78s.32-2.13.95-2.8c.63-.67,1.49-1,2.57-1,.88,0,1.59.19,2.11.57s.9.96,1.12,1.74Z"/>
  <path id="Arial-BoldMT-658" data-name="Arial-BoldMT-65" class="st7" d="M234.88,18.57l1.91.32c-.25.7-.63,1.24-1.17,1.6-.53.37-1.19.55-1.99.55-1.26,0-2.2-.41-2.8-1.24-.48-.66-.72-1.49-.72-2.5,0-1.2.31-2.15.94-2.83.63-.68,1.43-1.02,2.39-1.02,1.08,0,1.93.36,2.56,1.07s.92,1.81.89,3.28h-4.81c.01.57.17,1.01.47,1.33.3.32.67.47,1.11.47.3,0,.55-.08.76-.25.21-.16.36-.43.47-.79ZM234.99,16.63c-.01-.56-.16-.98-.43-1.27-.27-.29-.61-.44-1-.44-.42,0-.76.15-1.04.46-.27.31-.41.72-.4,1.24h2.87Z"/>
  <path id="Arial-BoldMT-2010" data-name="Arial-BoldMT-20" class="st7" d="M237.46,20.88"/>
  <path id="Arial-BoldMT-53" class="st7" d="M241.86,17.62l1.97-.19c.12.66.36,1.15.72,1.46.36.31.85.46,1.47.46.65,0,1.14-.14,1.47-.41.33-.28.5-.6.5-.97,0-.24-.07-.44-.21-.61s-.38-.31-.73-.43c-.24-.08-.78-.23-1.62-.44-1.09-.27-1.85-.6-2.28-.99-.62-.55-.92-1.23-.92-2.02,0-.51.14-.99.43-1.43.29-.44.71-.78,1.25-1.02.55-.23,1.2-.35,1.97-.35,1.26,0,2.2.28,2.84.83s.97,1.29,1,2.21l-2.02.09c-.09-.51-.27-.89-.56-1.11-.28-.23-.71-.34-1.28-.34s-1.05.12-1.38.36c-.21.15-.32.36-.32.62,0,.24.1.44.3.61.26.21.88.44,1.86.67.98.23,1.71.47,2.18.72.47.25.84.59,1.11,1.02.27.43.4.96.4,1.6,0,.57-.16,1.11-.48,1.61-.32.5-.77.87-1.35,1.12-.58.24-1.31.37-2.18.37-1.27,0-2.24-.29-2.92-.88-.68-.59-1.08-1.44-1.22-2.56Z"/>
  <path id="Arial-BoldMT-7411" data-name="Arial-BoldMT-74" class="st7" d="M255.02,13.62v1.53h-1.31v2.93c0,.59.01.94.04,1.03.03.1.08.18.17.24s.2.1.32.1c.18,0,.44-.06.77-.19l.16,1.49c-.45.19-.95.29-1.52.29-.35,0-.66-.06-.94-.17-.28-.12-.48-.27-.61-.45-.13-.19-.22-.43-.27-.75-.04-.22-.06-.67-.06-1.35v-3.17h-.88v-1.53h.88v-1.44l1.93-1.12v2.56h1.31Z"/>
  <path id="Arial-BoldMT-727" data-name="Arial-BoldMT-72" class="st7" d="M258.19,20.88h-1.92v-7.26h1.79v1.03c.3-.49.58-.81.82-.96.24-.16.52-.23.83-.23.44,0,.86.12,1.26.36l-.6,1.67c-.32-.21-.62-.31-.9-.31s-.5.07-.68.22c-.19.15-.33.41-.44.8-.11.39-.16,1.2-.16,2.43v2.24Z"/>
  <path id="Arial-BoldMT-755" data-name="Arial-BoldMT-75" class="st7" d="M266.58,20.88v-1.09c-.26.39-.61.69-1.04.92-.43.22-.88.33-1.36.33s-.93-.11-1.31-.32c-.39-.21-.67-.51-.84-.9-.17-.39-.26-.92-.26-1.61v-4.59h1.92v3.34c0,1.02.04,1.65.11,1.88.07.23.2.41.39.55s.42.2.71.2c.33,0,.62-.09.88-.27.26-.18.44-.4.53-.67.1-.27.14-.92.14-1.96v-3.06h1.92v7.26h-1.78Z"/>
  <path id="Arial-BoldMT-632" data-name="Arial-BoldMT-63" class="st7" d="M276.69,15.77l-1.89.34c-.06-.38-.21-.66-.44-.86s-.52-.29-.88-.29c-.48,0-.86.17-1.15.5-.28.33-.43.88-.43,1.66,0,.86.14,1.47.43,1.83.29.35.68.53,1.17.53.36,0,.66-.1.89-.31.23-.21.4-.56.49-1.07l1.89.32c-.2.87-.57,1.52-1.13,1.96-.56.44-1.3.66-2.24.66-1.06,0-1.91-.33-2.54-1-.63-.67-.95-1.6-.95-2.78s.32-2.13.95-2.8c.63-.67,1.49-1,2.57-1,.88,0,1.59.19,2.11.57s.9.96,1.12,1.74Z"/>
  <path id="Arial-BoldMT-7412" data-name="Arial-BoldMT-74" class="st7" d="M281.47,13.62v1.53h-1.31v2.93c0,.59.01.94.04,1.03.03.1.08.18.17.24s.2.1.32.1c.18,0,.44-.06.77-.19l.16,1.49c-.45.19-.95.29-1.52.29-.35,0-.66-.06-.94-.17-.28-.12-.48-.27-.61-.45-.13-.19-.22-.43-.27-.75-.04-.22-.06-.67-.06-1.35v-3.17h-.88v-1.53h.88v-1.44l1.93-1.12v2.56h1.31Z"/>
  <path id="Arial-BoldMT-756" data-name="Arial-BoldMT-75" class="st7" d="M287.58,20.88v-1.09c-.26.39-.61.69-1.04.92-.43.22-.88.33-1.36.33s-.93-.11-1.31-.32c-.39-.21-.67-.51-.84-.9-.17-.39-.26-.92-.26-1.61v-4.59h1.92v3.34c0,1.02.04,1.65.11,1.88.07.23.2.41.39.55s.42.2.71.2c.33,0,.62-.09.88-.27.26-.18.44-.4.53-.67.1-.27.14-.92.14-1.96v-3.06h1.92v7.26h-1.78Z"/>
  <path id="Arial-BoldMT-728" data-name="Arial-BoldMT-72" class="st7" d="M293.19,20.88h-1.92v-7.26h1.79v1.03c.3-.49.58-.81.82-.96.24-.16.52-.23.83-.23.44,0,.86.12,1.26.36l-.6,1.67c-.32-.21-.62-.31-.9-.31s-.5.07-.68.22c-.19.15-.33.41-.44.8-.11.39-.16,1.2-.16,2.43v2.24Z"/>
  <path id="Arial-BoldMT-659" data-name="Arial-BoldMT-65" class="st7" d="M301.01,18.57l1.91.32c-.25.7-.63,1.24-1.17,1.6-.53.37-1.19.55-1.99.55-1.26,0-2.2-.41-2.8-1.24-.48-.66-.72-1.49-.72-2.5,0-1.2.31-2.15.94-2.83.63-.68,1.43-1.02,2.39-1.02,1.08,0,1.93.36,2.56,1.07s.92,1.81.89,3.28h-4.81c.01.57.17,1.01.47,1.33.3.32.67.47,1.11.47.3,0,.55-.08.76-.25.21-.16.36-.43.47-.79ZM301.12,16.63c-.01-.56-.16-.98-.43-1.27-.27-.29-.61-.44-1-.44-.42,0-.76.15-1.04.46-.27.31-.41.72-.4,1.24h2.87Z"/>
  <path id="Arial-BoldMT-2011" data-name="Arial-BoldMT-20" class="st7" d="M303.59,20.88"/>
  <path id="Arial-BoldMT-411" data-name="Arial-BoldMT-41" class="st7" d="M317.01,20.88h-2.2l-.88-2.28h-4.01l-.83,2.28h-2.15l3.9-10.02h2.14l4.01,10.02ZM313.28,16.91l-1.38-3.72-1.35,3.72h2.73Z"/>
  <path id="Arial-BoldMT-6c1" data-name="Arial-BoldMT-6c" class="st7" d="M318.06,20.88v-10.02h1.92v10.02h-1.92Z"/>
  <path id="Arial-BoldMT-6c2" data-name="Arial-BoldMT-6c" class="st7" d="M321.95,20.88v-10.02h1.92v10.02h-1.92Z"/>
  <path id="Arial-BoldMT-6f5" data-name="Arial-BoldMT-6f" class="st7" d="M325.4,17.15c0-.64.16-1.26.47-1.85.32-.6.76-1.05,1.34-1.37.58-.32,1.22-.47,1.93-.47,1.1,0,2,.36,2.7,1.07s1.05,1.61,1.05,2.7-.35,2.01-1.06,2.73c-.71.72-1.6,1.08-2.68,1.08-.67,0-1.3-.15-1.9-.45-.6-.3-1.06-.74-1.38-1.32-.32-.58-.47-1.29-.47-2.12ZM327.37,17.25c0,.72.17,1.27.51,1.65.34.38.76.57,1.27.57s.92-.19,1.26-.57c.34-.38.51-.94.51-1.67s-.17-1.26-.51-1.64c-.34-.38-.76-.58-1.26-.58s-.92.19-1.27.58c-.34.38-.51.93-.51,1.65Z"/>
  <path id="Arial-BoldMT-633" data-name="Arial-BoldMT-63" class="st7" d="M340.73,15.77l-1.89.34c-.06-.38-.21-.66-.44-.86s-.52-.29-.88-.29c-.48,0-.86.17-1.15.5-.28.33-.43.88-.43,1.66,0,.86.14,1.47.43,1.83.29.35.68.53,1.17.53.36,0,.66-.1.89-.31.23-.21.4-.56.49-1.07l1.89.32c-.2.87-.57,1.52-1.13,1.96-.56.44-1.3.66-2.24.66-1.06,0-1.91-.33-2.54-1-.63-.67-.95-1.6-.95-2.78s.32-2.13.95-2.8c.63-.67,1.49-1,2.57-1,.88,0,1.59.19,2.11.57s.9.96,1.12,1.74Z"/>
  <path id="Arial-BoldMT-616" data-name="Arial-BoldMT-61" class="st7" d="M343.62,15.84l-1.74-.32c.2-.7.53-1.22,1.01-1.56.48-.34,1.19-.51,2.13-.51.86,0,1.5.1,1.91.3.42.2.72.46.89.77s.26.89.26,1.72l-.02,2.24c0,.64.03,1.11.09,1.41.06.3.18.63.35.97h-1.9c-.05-.13-.11-.32-.18-.57-.03-.12-.06-.19-.07-.23-.33.32-.68.56-1.05.72-.37.16-.77.24-1.2.24-.75,0-1.34-.2-1.77-.61-.43-.41-.65-.92-.65-1.54,0-.41.1-.78.29-1.1.2-.32.47-.57.82-.74.35-.17.86-.32,1.53-.45.9-.17,1.52-.33,1.87-.47v-.19c0-.37-.09-.63-.27-.79s-.53-.24-1.03-.24c-.34,0-.61.07-.8.2s-.35.37-.46.71ZM346.19,17.39c-.25.08-.64.18-1.17.3-.53.11-.88.23-1.05.33-.25.18-.38.4-.38.68s.1.5.3.7c.2.2.46.29.77.29.35,0,.68-.11.99-.34.23-.17.38-.39.46-.64.05-.16.08-.48.08-.94v-.38Z"/>
  <path id="Arial-BoldMT-7413" data-name="Arial-BoldMT-74" class="st7" d="M353.3,13.62v1.53h-1.31v2.93c0,.59.01.94.04,1.03.03.1.08.18.17.24s.2.1.32.1c.18,0,.44-.06.77-.19l.16,1.49c-.45.19-.95.29-1.52.29-.35,0-.66-.06-.94-.17-.28-.12-.48-.27-.61-.45-.13-.19-.22-.43-.27-.75-.04-.22-.06-.67-.06-1.35v-3.17h-.88v-1.53h.88v-1.44l1.93-1.12v2.56h1.31Z"/>
  <path id="Arial-BoldMT-698" data-name="Arial-BoldMT-69" class="st7" d="M354.63,12.64v-1.78h1.92v1.78h-1.92ZM354.63,20.88v-7.26h1.92v7.26h-1.92Z"/>
  <path id="Arial-BoldMT-6f6" data-name="Arial-BoldMT-6f" class="st7" d="M358.08,17.15c0-.64.16-1.26.47-1.85.32-.6.76-1.05,1.34-1.37.58-.32,1.22-.47,1.93-.47,1.1,0,2,.36,2.7,1.07s1.05,1.61,1.05,2.7-.35,2.01-1.06,2.73c-.71.72-1.6,1.08-2.68,1.08-.67,0-1.3-.15-1.9-.45-.6-.3-1.06-.74-1.38-1.32-.32-.58-.47-1.29-.47-2.12ZM360.04,17.25c0,.72.17,1.27.51,1.65.34.38.76.57,1.27.57s.92-.19,1.26-.57c.34-.38.51-.94.51-1.67s-.17-1.26-.51-1.64c-.34-.38-.76-.58-1.26-.58s-.92.19-1.27.58c-.34.38-.51.93-.51,1.65Z"/>
  <path id="Arial-BoldMT-6e15" data-name="Arial-BoldMT-6e" class="st7" d="M373.68,20.88h-1.92v-3.71c0-.78-.04-1.29-.12-1.52s-.22-.41-.4-.54c-.19-.13-.41-.19-.67-.19-.33,0-.63.09-.89.27s-.45.42-.54.73c-.1.3-.15.86-.15,1.67v3.29h-1.92v-7.26h1.79v1.07c.63-.82,1.43-1.23,2.39-1.23.42,0,.81.08,1.16.23.35.15.62.35.8.59.18.24.31.5.38.81.07.3.11.73.11,1.29v4.51Z"/>
  <path id="Arial-BoldMT-2012" data-name="Arial-BoldMT-20" class="st7" d="M374.62,20.88"/>
  <path id="Arial-BoldMT-541" data-name="Arial-BoldMT-54" class="st7" d="M381.78,20.88v-8.33h-2.97v-1.7h7.96v1.7h-2.97v8.33h-2.02Z"/>
  <path id="Arial-BoldMT-729" data-name="Arial-BoldMT-72" class="st7" d="M389.13,20.88h-1.92v-7.26h1.79v1.03c.3-.49.58-.81.82-.96.24-.16.52-.23.83-.23.44,0,.86.12,1.26.36l-.6,1.67c-.32-.21-.62-.31-.9-.31s-.5.07-.68.22c-.19.15-.33.41-.44.8-.11.39-.16,1.2-.16,2.43v2.24Z"/>
  <path id="Arial-BoldMT-6510" data-name="Arial-BoldMT-65" class="st7" d="M396.95,18.57l1.91.32c-.25.7-.63,1.24-1.17,1.6-.53.37-1.19.55-1.99.55-1.26,0-2.2-.41-2.8-1.24-.48-.66-.72-1.49-.72-2.5,0-1.2.31-2.15.94-2.83.63-.68,1.43-1.02,2.39-1.02,1.08,0,1.93.36,2.56,1.07s.92,1.81.89,3.28h-4.81c.01.57.17,1.01.47,1.33.3.32.67.47,1.11.47.3,0,.55-.08.76-.25.21-.16.36-.43.47-.79ZM397.06,16.63c-.01-.56-.16-.98-.43-1.27-.27-.29-.61-.44-1-.44-.42,0-.76.15-1.04.46-.27.31-.41.72-.4,1.24h2.87Z"/>
  <path id="Arial-BoldMT-6511" data-name="Arial-BoldMT-65" class="st7" d="M404.73,18.57l1.91.32c-.25.7-.63,1.24-1.17,1.6-.53.37-1.19.55-1.99.55-1.26,0-2.2-.41-2.8-1.24-.48-.66-.72-1.49-.72-2.5,0-1.2.31-2.15.94-2.83.63-.68,1.43-1.02,2.39-1.02,1.08,0,1.93.36,2.56,1.07s.92,1.81.89,3.28h-4.81c.01.57.17,1.01.47,1.33.3.32.67.47,1.11.47.3,0,.55-.08.76-.25.21-.16.36-.43.47-.79ZM404.84,16.63c-.01-.56-.16-.98-.43-1.27-.27-.29-.61-.44-1-.44-.42,0-.76.15-1.04.46-.27.31-.41.72-.4,1.24h2.87Z"/>
  <path id="Arial-BoldMT-6d3" data-name="Arial-BoldMT-6d" class="st7" d="M408.17,13.62h1.77v.99c.63-.77,1.39-1.16,2.26-1.16.46,0,.87.1,1.21.29.34.19.62.48.84.87.32-.39.66-.68,1.03-.87.37-.19.76-.29,1.18-.29.53,0,.98.11,1.35.33.37.22.64.53.83.95.13.31.2.81.2,1.5v4.64h-1.92v-4.15c0-.72-.07-1.18-.2-1.39-.18-.27-.45-.41-.82-.41-.27,0-.52.08-.76.25-.24.16-.41.4-.51.72s-.16.82-.16,1.5v3.49h-1.92v-3.98c0-.71-.03-1.16-.1-1.37-.07-.21-.18-.36-.32-.46-.14-.1-.34-.15-.58-.15-.3,0-.56.08-.8.24-.24.16-.41.39-.51.69-.1.3-.15.8-.15,1.5v3.53h-1.92v-7.26Z"/>
  <path id="Arial-BoldMT-617" data-name="Arial-BoldMT-61" class="st7" d="M422.2,15.84l-1.74-.32c.2-.7.53-1.22,1.01-1.56.48-.34,1.19-.51,2.13-.51.86,0,1.5.1,1.91.3.42.2.72.46.89.77s.26.89.26,1.72l-.02,2.24c0,.64.03,1.11.09,1.41.06.3.18.63.35.97h-1.9c-.05-.13-.11-.32-.18-.57-.03-.12-.06-.19-.07-.23-.33.32-.68.56-1.05.72-.37.16-.77.24-1.2.24-.75,0-1.34-.2-1.77-.61-.43-.41-.65-.92-.65-1.54,0-.41.1-.78.29-1.1.2-.32.47-.57.82-.74.35-.17.86-.32,1.53-.45.9-.17,1.52-.33,1.87-.47v-.19c0-.37-.09-.63-.27-.79s-.53-.24-1.03-.24c-.34,0-.61.07-.8.2s-.35.37-.46.71ZM424.77,17.39c-.25.08-.64.18-1.17.3-.53.11-.88.23-1.05.33-.25.18-.38.4-.38.68s.1.5.3.7c.2.2.46.29.77.29.35,0,.68-.11.99-.34.23-.17.38-.39.46-.64.05-.16.08-.48.08-.94v-.38Z"/>
  <path id="Arial-BoldMT-701" data-name="Arial-BoldMT-70" class="st7" d="M428.49,13.62h1.79v1.07c.23-.36.55-.66.94-.89.4-.23.84-.34,1.32-.34.84,0,1.56.33,2.15.99s.88,1.58.88,2.76-.3,2.15-.89,2.83c-.59.67-1.31,1.01-2.15,1.01-.4,0-.76-.08-1.09-.24-.33-.16-.67-.43-1.03-.82v3.66h-1.92v-10.02ZM430.4,17.13c0,.82.16,1.42.49,1.81s.72.58,1.18.58.82-.18,1.11-.54c.3-.36.44-.95.44-1.76,0-.76-.15-1.33-.46-1.7-.3-.37-.68-.55-1.13-.55s-.86.18-1.17.54c-.31.36-.46.9-.46,1.61Z"/>
  <path id="Arial-BoldMT-2013" data-name="Arial-BoldMT-20" class="st7" d="M436.1,20.88"/>
  <path id="Arial-BoldMT-28" class="st7" d="M444.18,23.83h-1.32c-.7-1.05-1.23-2.15-1.59-3.28-.36-1.13-.55-2.23-.55-3.29,0-1.32.23-2.57.68-3.74.39-1.02.89-1.96,1.49-2.82h1.31c-.62,1.38-1.05,2.55-1.29,3.52-.23.97-.35,1.99-.35,3.08,0,.75.07,1.51.21,2.3.14.78.33,1.53.57,2.23.16.47.44,1.13.84,2Z"/>
  <path id="Arial-BoldMT-33" class="st7" d="M445.18,18.22l1.86-.23c.06.47.22.84.48,1.09.26.25.58.38.95.38.4,0,.73-.15,1-.45.27-.3.41-.71.41-1.22,0-.48-.13-.86-.39-1.15-.26-.28-.58-.42-.95-.42-.25,0-.54.05-.88.14l.21-1.56c.52.01.92-.1,1.19-.34.27-.24.41-.56.41-.95,0-.34-.1-.61-.3-.81-.2-.2-.47-.3-.8-.3s-.61.11-.84.34c-.23.23-.37.56-.42,1l-1.77-.3c.12-.61.31-1.09.56-1.45.25-.36.59-.65,1.04-.86.44-.21.94-.31,1.49-.31.94,0,1.7.3,2.27.9.47.49.7,1.05.7,1.67,0,.88-.48,1.58-1.44,2.1.57.12,1.03.4,1.38.83.34.43.52.94.52,1.55,0,.88-.32,1.63-.96,2.25-.64.62-1.44.93-2.4.93-.91,0-1.66-.26-2.26-.78-.6-.52-.94-1.2-1.04-2.05Z"/>
  <path id="Arial-BoldMT-323" data-name="Arial-BoldMT-32" class="st7" d="M459.52,19.1v1.79h-6.74c.07-.68.29-1.31.66-1.92.36-.6,1.09-1.4,2.16-2.4.87-.81,1.4-1.35,1.59-1.64.26-.4.4-.79.4-1.18,0-.43-.12-.76-.35-.99-.23-.23-.55-.35-.95-.35s-.72.12-.96.36c-.24.24-.37.64-.41,1.2l-1.91-.19c.11-1.06.47-1.82,1.07-2.28.6-.46,1.35-.69,2.26-.69.99,0,1.77.27,2.33.8.57.53.85,1.2.85,1.99,0,.45-.08.88-.24,1.29s-.42.84-.77,1.28c-.23.3-.65.72-1.26,1.28-.61.56-.99.92-1.15,1.11-.16.18-.29.36-.39.53h3.82Z"/>
  <path id="Arial-BoldMT-324" data-name="Arial-BoldMT-32" class="st7" d="M467.3,19.1v1.79h-6.74c.07-.68.29-1.31.66-1.92.36-.6,1.09-1.4,2.16-2.4.87-.81,1.4-1.35,1.59-1.64.26-.4.4-.79.4-1.18,0-.43-.12-.76-.35-.99-.23-.23-.55-.35-.95-.35s-.72.12-.96.36c-.24.24-.37.64-.41,1.2l-1.91-.19c.11-1.06.47-1.82,1.07-2.28.6-.46,1.35-.69,2.26-.69.99,0,1.77.27,2.33.8.57.53.85,1.2.85,1.99,0,.45-.08.88-.24,1.29s-.42.84-.77,1.28c-.23.3-.65.72-1.26,1.28-.61.56-.99.92-1.15,1.11-.16.18-.29.36-.39.53h3.82Z"/>
  <path id="Arial-BoldMT-2c5" data-name="Arial-BoldMT-2c" class="st7" d="M468.97,18.96h1.92v1.37c0,.56-.05.99-.14,1.31-.1.32-.28.61-.54.87-.27.26-.6.46-1.01.6l-.38-.79c.39-.13.66-.3.82-.53.16-.22.25-.53.26-.92h-.93v-1.92Z"/>
  <path id="Arial-BoldMT-351" data-name="Arial-BoldMT-35" class="st7" d="M472.52,18.3l1.91-.2c.06.43.22.78.49,1.03.27.25.58.38.93.38.4,0,.74-.16,1.02-.49.28-.33.42-.82.42-1.47,0-.62-.14-1.08-.42-1.38-.28-.31-.63-.46-1.08-.46-.55,0-1.05.24-1.48.73l-1.56-.23.98-5.22h5.08v1.8h-3.62l-.3,1.7c.43-.21.87-.32,1.31-.32.85,0,1.57.31,2.17.93.59.62.89,1.42.89,2.41,0,.83-.24,1.56-.72,2.21-.65.88-1.56,1.33-2.71,1.33-.92,0-1.68-.25-2.26-.74-.58-.5-.93-1.17-1.05-2Z"/>
  <path id="Arial-BoldMT-3014" data-name="Arial-BoldMT-30" class="st7" d="M483.52,10.82c.97,0,1.73.35,2.28,1.04.65.82.98,2.18.98,4.08s-.33,3.26-.98,4.09c-.54.68-1.3,1.03-2.27,1.03s-1.76-.37-2.36-1.12c-.6-.75-.89-2.09-.89-4.01s.33-3.24.98-4.07c.54-.68,1.3-1.03,2.27-1.03ZM483.52,12.41c-.23,0-.44.07-.62.22-.18.15-.32.41-.42.8-.13.5-.2,1.33-.2,2.51s.06,1.98.18,2.42c.12.44.27.73.45.88.18.15.39.22.62.22s.44-.07.62-.22c.18-.15.32-.41.42-.8.13-.49.2-1.32.2-2.5s-.06-1.98-.18-2.42c-.12-.44-.27-.73-.45-.88-.18-.15-.39-.22-.62-.22Z"/>
  <path id="Arial-BoldMT-3015" data-name="Arial-BoldMT-30" class="st7" d="M491.31,10.82c.97,0,1.73.35,2.28,1.04.65.82.98,2.18.98,4.08s-.33,3.26-.98,4.09c-.54.68-1.3,1.03-2.27,1.03s-1.76-.37-2.36-1.12c-.6-.75-.89-2.09-.89-4.01s.33-3.24.98-4.07c.54-.68,1.3-1.03,2.27-1.03ZM491.31,12.41c-.23,0-.44.07-.62.22-.18.15-.32.41-.42.8-.13.5-.2,1.33-.2,2.51s.06,1.98.18,2.42c.12.44.27.73.45.88.18.15.39.22.62.22s.44-.07.62-.22c.18-.15.32-.41.42-.8.13-.49.2-1.32.2-2.5s-.06-1.98-.18-2.42c-.12-.44-.27-.73-.45-.88-.18-.15-.39-.22-.62-.22Z"/>
  <path id="Arial-BoldMT-2014" data-name="Arial-BoldMT-20" class="st7" d="M495.26,20.88"/>
  <path id="Arial-BoldMT-501" data-name="Arial-BoldMT-50" class="st7" d="M500.16,20.88v-10.02h3.25c1.23,0,2.03.05,2.41.15.57.15,1.06.48,1.44.98.39.5.58,1.15.58,1.95,0,.62-.11,1.13-.33,1.55-.22.42-.51.75-.85.99-.34.24-.69.4-1.05.47-.48.1-1.18.14-2.1.14h-1.32v3.78h-2.02ZM502.19,12.55v2.84h1.11c.8,0,1.33-.05,1.6-.16.27-.11.48-.27.63-.49.15-.22.23-.48.23-.78,0-.36-.11-.67-.32-.9-.21-.24-.49-.39-.81-.45-.24-.05-.73-.07-1.45-.07h-.98Z"/>
  <path id="Arial-BoldMT-45" class="st7" d="M509.5,20.88v-10.02h7.43v1.7h-5.41v2.22h5.03v1.69h-5.03v2.73h5.6v1.69h-7.62Z"/>
  <path id="Arial-BoldMT-2015" data-name="Arial-BoldMT-20" class="st7" d="M517.82,20.88"/>
  <path id="Arial-BoldMT-55" class="st7" d="M522.71,10.86h2.02v5.43c0,.86.03,1.42.08,1.68.09.41.29.74.62.99.33.25.77.37,1.34.37s1.01-.12,1.3-.35c.29-.23.47-.52.53-.86.06-.34.09-.91.09-1.7v-5.54h2.02v5.26c0,1.2-.05,2.05-.16,2.55-.11.5-.31.92-.61,1.26-.29.34-.69.61-1.18.82-.49.2-1.13.3-1.93.3-.96,0-1.68-.11-2.18-.33-.49-.22-.89-.51-1.17-.86-.29-.35-.47-.72-.57-1.11-.13-.57-.2-1.42-.2-2.54v-5.34Z"/>
  <path id="Arial-BoldMT-6e16" data-name="Arial-BoldMT-6e" class="st7" d="M539.43,20.88h-1.92v-3.71c0-.78-.04-1.29-.12-1.52s-.22-.41-.4-.54c-.19-.13-.41-.19-.67-.19-.33,0-.63.09-.89.27s-.45.42-.54.73c-.1.3-.15.86-.15,1.67v3.29h-1.92v-7.26h1.79v1.07c.63-.82,1.43-1.23,2.39-1.23.42,0,.81.08,1.16.23.35.15.62.35.8.59.18.24.31.5.38.81.07.3.11.73.11,1.29v4.51Z"/>
  <path id="Arial-BoldMT-699" data-name="Arial-BoldMT-69" class="st7" d="M541.38,12.64v-1.78h1.92v1.78h-1.92ZM541.38,20.88v-7.26h1.92v7.26h-1.92Z"/>
  <path id="Arial-BoldMT-7414" data-name="Arial-BoldMT-74" class="st7" d="M548.6,13.62v1.53h-1.31v2.93c0,.59.01.94.04,1.03.03.1.08.18.17.24s.2.1.32.1c.18,0,.44-.06.77-.19l.16,1.49c-.45.19-.95.29-1.52.29-.35,0-.66-.06-.94-.17-.28-.12-.48-.27-.61-.45-.13-.19-.22-.43-.27-.75-.04-.22-.06-.67-.06-1.35v-3.17h-.88v-1.53h.88v-1.44l1.93-1.12v2.56h1.31Z"/>
  <path id="Arial-BoldMT-735" data-name="Arial-BoldMT-73" class="st7" d="M549.25,18.81l1.93-.29c.08.37.25.66.5.85.25.19.6.29,1.05.29.5,0,.87-.09,1.12-.27.17-.13.25-.3.25-.51,0-.15-.05-.27-.14-.36-.09-.09-.31-.18-.64-.25-1.55-.34-2.53-.65-2.95-.94-.57-.39-.86-.94-.86-1.63,0-.63.25-1.16.74-1.59.5-.43,1.27-.64,2.31-.64s1.73.16,2.21.49c.48.32.82.8,1,1.44l-1.81.33c-.08-.28-.22-.5-.44-.65-.22-.15-.52-.23-.93-.23-.5,0-.87.07-1.09.21-.15.1-.22.23-.22.39,0,.14.06.25.19.35.17.13.77.31,1.79.54,1.02.23,1.74.52,2.14.85.4.34.6.82.6,1.43,0,.67-.28,1.24-.83,1.72-.56.48-1.38.72-2.47.72-.99,0-1.77-.2-2.35-.6-.58-.4-.95-.95-1.13-1.63Z"/>
  <path id="Arial-BoldMT-29" class="st7" d="M557.18,23.83c.38-.81.64-1.43.8-1.87.16-.43.3-.93.43-1.5.13-.57.23-1.1.29-1.61.06-.51.1-1.03.1-1.56,0-1.08-.12-2.11-.35-3.08-.23-.97-.66-2.14-1.29-3.52h1.31c.69.98,1.22,2.02,1.6,3.12.38,1.1.57,2.21.57,3.34,0,.95-.15,1.97-.45,3.06-.34,1.22-.91,2.43-1.69,3.62h-1.33Z"/>
</svg>