<?xml version="1.0" encoding="UTF-8"?>
<svg id="Layer_1" xmlns="http://www.w3.org/2000/svg" version="1.1" xmlns:xlink="http://www.w3.org/1999/xlink" viewBox="0 0 864 504">
  <!-- Generator: Adobe Illustrator 30.4.0, SVG Export Plug-In . SVG Version: 2.1.4 Build 226)  -->
  <defs>
    <style>
      .st0, .st1 {
        fill: #f60;
      }

      .st0, .st2, .st3, .st4, .st5, .st6, .st7, .st8 {
        stroke: #000;
      }

      .st0, .st2, .st3, .st7, .st8 {
        stroke-width: 1.5px;
      }

      .st9 {
        clip-path: url(#clippath-4);
      }

      .st10 {
        fill: #fff;
      }

      .st2, .st11 {
        fill: #c00;
      }

      .st12, .st4 {
        fill: none;
      }

      .st13, .st8 {
        fill: #09f;
      }

      .st14 {
        clip-path: url(#clippath-1);
      }

      .st3, .st15 {
        fill: #06c;
      }

      .st4 {
        stroke-linecap: square;
      }

      .st4, .st6 {
        stroke-width: .8px;
      }

      .st16 {
        clip-path: url(#clippath-3);
      }

      .st5 {
        stroke-width: .6px;
      }

      .st5, .st6 {
        stroke-linejoin: round;
      }

      .st17, .st7 {
        fill: #036;
      }

      .st18 {
        clip-path: url(#clippath-2);
      }

      .st19 {
        clip-path: url(#clippath);
      }
    </style>
    <clipPath id="clippath">
      <rect class="st12" x="98.44" y="40.88" width="754.76" height="415.05"/>
    </clipPath>
    <clipPath id="clippath-1">
      <rect class="st12" x="98.44" y="40.88" width="754.76" height="415.05"/>
    </clipPath>
    <clipPath id="clippath-2">
      <rect class="st12" x="98.44" y="40.88" width="754.76" height="415.05"/>
    </clipPath>
    <clipPath id="clippath-3">
      <rect class="st12" x="98.44" y="40.88" width="754.76" height="415.05"/>
    </clipPath>
    <clipPath id="clippath-4">
      <rect class="st12" x="98.44" y="40.88" width="754.76" height="415.05"/>
    </clipPath>
  </defs>
  <path class="st10" d="M98.44,455.93h754.76V40.88H98.44v415.05Z"/>
  <g class="st19">
    <path class="st7" d="M-130394.03,59.75H722.58v62.89H-130394.03v-62.89Z"/>
  </g>
  <g class="st14">
    <path class="st3" d="M-130394.03,138.35H479.74v62.89h-130873.77v-62.89Z"/>
  </g>
  <g class="st18">
    <path class="st8" d="M-130394.03,216.96H529.63v62.89h-130923.66v-62.89Z"/>
  </g>
  <g class="st16">
    <path class="st0" d="M-130394.03,295.57H259.17v62.89h-130653.2v-62.89Z"/>
  </g>
  <g class="st9">
    <path class="st2" d="M-130394.03,374.18H382.69v62.89h-130776.72v-62.89Z"/>
  </g>
  <path id="m9dd5f4e982" class="st6" d="M98.44,455.93v3.5"/>
  <path id="ArialMT-31" d="M92.27,473.14h-.88v-5.6c-.21.2-.49.4-.83.6s-.65.35-.93.45v-.85c.49-.23.92-.51,1.29-.84.37-.33.63-.65.78-.96h.57v7.19Z"/>
  <path id="ArialMT-30" d="M94.52,469.61c0-.85.09-1.53.26-2.04.17-.52.43-.91.78-1.19.34-.28.78-.42,1.3-.42.38,0,.72.08,1.01.23.29.15.53.38.72.67.19.29.34.65.45,1.06.11.42.16.98.16,1.69,0,.84-.09,1.52-.26,2.03-.17.52-.43.91-.77,1.2-.34.28-.78.42-1.3.42-.69,0-1.23-.25-1.63-.74-.47-.6-.71-1.57-.71-2.91ZM95.42,469.61c0,1.18.14,1.96.41,2.35.28.39.61.58,1.02.58s.74-.2,1.02-.59.41-1.17.41-2.34-.14-1.96-.41-2.35c-.28-.39-.62-.58-1.03-.58s-.73.17-.97.51c-.3.44-.45,1.24-.45,2.42Z"/>
  <path id="ArialMT-2212" d="M103.54,463.99h-3.31v-.57h3.31v.57Z"/>
  <path id="ArialMT-311" data-name="ArialMT-31" d="M106.53,466.17h-.61v-3.92c-.15.14-.34.28-.58.42s-.46.25-.65.32v-.6c.34-.16.64-.36.9-.59.26-.23.44-.45.55-.67h.4v5.03Z"/>
  <path id="m9dd5f4e9821" data-name="m9dd5f4e982" class="st6" d="M229.06,455.93v3.5"/>
  <path id="ArialMT-312" data-name="ArialMT-31" d="M224.94,473.14h-.88v-5.6c-.21.2-.49.4-.83.6s-.65.35-.93.45v-.85c.49-.23.92-.51,1.29-.84.37-.33.63-.65.78-.96h.57v7.19Z"/>
  <path id="ArialMT-301" data-name="ArialMT-30" d="M227.19,469.61c0-.85.09-1.53.26-2.04.17-.52.43-.91.78-1.19.34-.28.78-.42,1.3-.42.38,0,.72.08,1.01.23.29.15.53.38.72.67.19.29.34.65.45,1.06.11.42.16.98.16,1.69,0,.84-.09,1.52-.26,2.03-.17.52-.43.91-.77,1.2-.34.28-.78.42-1.3.42-.69,0-1.23-.25-1.63-.74-.47-.6-.71-1.57-.71-2.91ZM228.09,469.61c0,1.18.14,1.96.41,2.35.28.39.61.58,1.02.58s.74-.2,1.02-.59.41-1.17.41-2.34-.14-1.96-.41-2.35c-.28-.39-.62-.58-1.03-.58s-.73.17-.97.51c-.3.44-.45,1.24-.45,2.42Z"/>
  <path id="ArialMT-302" data-name="ArialMT-30" d="M232.8,463.7c0-.59.06-1.07.18-1.43.12-.36.3-.64.54-.84.24-.2.54-.29.91-.29.27,0,.5.05.71.16.2.11.37.26.5.47.13.2.24.45.31.74.08.29.11.69.11,1.18,0,.59-.06,1.06-.18,1.42-.12.36-.3.64-.54.84-.24.2-.54.3-.91.3-.48,0-.86-.17-1.14-.52-.33-.42-.5-1.1-.5-2.04ZM233.43,463.7c0,.82.1,1.37.29,1.64.19.27.43.41.71.41s.52-.14.71-.41.29-.82.29-1.64-.1-1.37-.29-1.64c-.19-.27-.43-.41-.72-.41s-.51.12-.68.36c-.21.3-.32.87-.32,1.69Z"/>
  <path id="m9dd5f4e9822" data-name="m9dd5f4e982" class="st6" d="M359.69,455.93v3.5"/>
  <path id="ArialMT-313" data-name="ArialMT-31" d="M355.56,473.14h-.88v-5.6c-.21.2-.49.4-.83.6s-.65.35-.93.45v-.85c.49-.23.92-.51,1.29-.84.37-.33.63-.65.78-.96h.57v7.19Z"/>
  <path id="ArialMT-303" data-name="ArialMT-30" d="M357.81,469.61c0-.85.09-1.53.26-2.04.17-.52.43-.91.78-1.19.34-.28.78-.42,1.3-.42.38,0,.72.08,1.01.23.29.15.53.38.72.67.19.29.34.65.45,1.06.11.42.16.98.16,1.69,0,.84-.09,1.52-.26,2.03-.17.52-.43.91-.77,1.2-.34.28-.78.42-1.3.42-.69,0-1.23-.25-1.63-.74-.47-.6-.71-1.57-.71-2.91ZM358.72,469.61c0,1.18.14,1.96.41,2.35.28.39.61.58,1.02.58s.74-.2,1.02-.59.41-1.17.41-2.34-.14-1.96-.41-2.35c-.28-.39-.62-.58-1.03-.58s-.73.17-.97.51c-.3.44-.45,1.24-.45,2.42Z"/>
  <path id="ArialMT-314" data-name="ArialMT-31" d="M365.74,466.17h-.61v-3.92c-.15.14-.34.28-.58.42s-.46.25-.65.32v-.6c.34-.16.64-.36.9-.59.26-.23.44-.45.55-.67h.4v5.03Z"/>
  <path id="m9dd5f4e9823" data-name="m9dd5f4e982" class="st6" d="M490.31,455.93v3.5"/>
  <path id="ArialMT-315" data-name="ArialMT-31" d="M486.18,473.14h-.88v-5.6c-.21.2-.49.4-.83.6s-.65.35-.93.45v-.85c.49-.23.92-.51,1.29-.84.37-.33.63-.65.78-.96h.57v7.19Z"/>
  <path id="ArialMT-304" data-name="ArialMT-30" d="M488.44,469.61c0-.85.09-1.53.26-2.04.17-.52.43-.91.78-1.19.34-.28.78-.42,1.3-.42.38,0,.72.08,1.01.23.29.15.53.38.72.67.19.29.34.65.45,1.06.11.42.16.98.16,1.69,0,.84-.09,1.52-.26,2.03-.17.52-.43.91-.77,1.2-.34.28-.78.42-1.3.42-.69,0-1.23-.25-1.63-.74-.47-.6-.71-1.57-.71-2.91ZM489.34,469.61c0,1.18.14,1.96.41,2.35.28.39.61.58,1.02.58s.74-.2,1.02-.59.41-1.17.41-2.34-.14-1.96-.41-2.35c-.28-.39-.62-.58-1.03-.58s-.73.17-.97.51c-.3.44-.45,1.24-.45,2.42Z"/>
  <path id="ArialMT-32" d="M497.28,465.58v.59h-3.31c0-.15.02-.29.07-.43.08-.23.22-.45.4-.67.19-.22.45-.47.81-.76.54-.45.91-.8,1.1-1.06.19-.26.29-.51.29-.74s-.09-.45-.26-.62c-.17-.17-.4-.25-.68-.25-.3,0-.53.09-.71.27-.18.18-.27.42-.27.74l-.63-.06c.04-.47.21-.83.49-1.08.28-.25.66-.37,1.14-.37s.86.13,1.14.4c.28.27.42.6.42.99,0,.2-.04.4-.12.59-.08.19-.22.4-.41.61s-.51.51-.95.88c-.37.31-.61.52-.71.63-.1.11-.19.22-.26.33h2.46Z"/>
  <path id="m9dd5f4e9824" data-name="m9dd5f4e982" class="st6" d="M620.93,455.93v3.5"/>
  <path id="ArialMT-316" data-name="ArialMT-31" d="M616.81,473.14h-.88v-5.6c-.21.2-.49.4-.83.6s-.65.35-.93.45v-.85c.49-.23.92-.51,1.29-.84.37-.33.63-.65.78-.96h.57v7.19Z"/>
  <path id="ArialMT-305" data-name="ArialMT-30" d="M619.06,469.61c0-.85.09-1.53.26-2.04.17-.52.43-.91.78-1.19.34-.28.78-.42,1.3-.42.38,0,.72.08,1.01.23.29.15.53.38.72.67.19.29.34.65.45,1.06.11.42.16.98.16,1.69,0,.84-.09,1.52-.26,2.03-.17.52-.43.91-.77,1.2-.34.28-.78.42-1.3.42-.69,0-1.23-.25-1.63-.74-.47-.6-.71-1.57-.71-2.91ZM619.96,469.61c0,1.18.14,1.96.41,2.35.28.39.61.58,1.02.58s.74-.2,1.02-.59.41-1.17.41-2.34-.14-1.96-.41-2.35c-.28-.39-.62-.58-1.03-.58s-.73.17-.97.51c-.3.44-.45,1.24-.45,2.42Z"/>
  <path id="ArialMT-33" d="M624.67,464.85l.61-.08c.07.35.19.6.36.75.17.15.38.23.62.23.29,0,.53-.1.73-.3.2-.2.3-.45.3-.75s-.09-.51-.28-.7c-.18-.18-.42-.28-.7-.28-.12,0-.26.02-.43.07l.07-.54s.07,0,.1,0c.26,0,.5-.07.71-.2.21-.14.32-.35.32-.63,0-.23-.08-.41-.23-.56-.15-.15-.35-.22-.59-.22s-.44.08-.6.23c-.16.15-.26.38-.31.68l-.62-.11c.08-.41.25-.73.51-.96.27-.23.6-.34,1-.34.27,0,.53.06.75.18.23.12.41.28.53.48.12.2.18.42.18.65,0,.22-.06.41-.18.59-.12.18-.29.32-.52.42.3.07.53.21.69.43.16.22.25.48.25.81,0,.44-.16.81-.48,1.11-.32.3-.72.46-1.21.46-.44,0-.81-.13-1.1-.39-.29-.26-.46-.6-.5-1.02Z"/>
  <path id="m9dd5f4e9825" data-name="m9dd5f4e982" class="st6" d="M751.56,455.93v3.5"/>
  <path id="ArialMT-317" data-name="ArialMT-31" d="M747.43,473.12h-.88v-5.6c-.21.2-.49.4-.83.6s-.65.35-.93.45v-.85c.49-.23.92-.51,1.29-.84.37-.33.63-.65.78-.96h.57v7.19Z"/>
  <path id="ArialMT-306" data-name="ArialMT-30" d="M749.68,469.59c0-.85.09-1.53.26-2.04.17-.52.43-.91.78-1.19.34-.28.78-.42,1.3-.42.38,0,.72.08,1.01.23.29.15.53.38.72.67.19.29.34.65.45,1.06.11.42.16.98.16,1.69,0,.84-.09,1.52-.26,2.03-.17.52-.43.91-.77,1.2-.34.28-.78.42-1.3.42-.69,0-1.23-.25-1.63-.74-.47-.6-.71-1.57-.71-2.91ZM750.59,469.59c0,1.18.14,1.96.41,2.35.28.39.61.58,1.02.58s.74-.2,1.02-.59.41-1.17.41-2.34-.14-1.96-.41-2.35c-.28-.39-.62-.58-1.03-.58s-.73.17-.97.51c-.3.44-.45,1.24-.45,2.42Z"/>
  <path id="ArialMT-34" d="M757.27,466.15v-1.2h-2.17v-.56l2.29-3.25h.5v3.25h.68v.56h-.68v1.2h-.61ZM757.27,464.39v-2.26l-1.57,2.26h1.57Z"/>
  <path id="mf94689a238" class="st5" d="M137.76,455.93v2"/>
  <path id="mf94689a2381" data-name="mf94689a238" class="st5" d="M160.76,455.93v2"/>
  <path id="mf94689a2382" data-name="mf94689a238" class="st5" d="M177.08,455.93v2"/>
  <path id="mf94689a2383" data-name="mf94689a238" class="st5" d="M189.74,455.93v2"/>
  <path id="mf94689a2384" data-name="mf94689a238" class="st5" d="M200.08,455.93v2"/>
  <path id="mf94689a2385" data-name="mf94689a238" class="st5" d="M208.83,455.93v2"/>
  <path id="mf94689a2386" data-name="mf94689a238" class="st5" d="M216.4,455.93v2"/>
  <path id="mf94689a2387" data-name="mf94689a238" class="st5" d="M223.09,455.93v2"/>
  <path id="mf94689a2388" data-name="mf94689a238" class="st5" d="M268.38,455.93v2"/>
  <path id="mf94689a2389" data-name="mf94689a238" class="st5" d="M291.39,455.93v2"/>
  <path id="mf94689a23810" data-name="mf94689a238" class="st5" d="M307.71,455.93v2"/>
  <path id="mf94689a23811" data-name="mf94689a238" class="st5" d="M320.36,455.93v2"/>
  <path id="mf94689a23812" data-name="mf94689a238" class="st5" d="M330.71,455.93v2"/>
  <path id="mf94689a23813" data-name="mf94689a238" class="st5" d="M339.45,455.93v2"/>
  <path id="mf94689a23814" data-name="mf94689a238" class="st5" d="M347.03,455.93v2"/>
  <path id="mf94689a23815" data-name="mf94689a238" class="st5" d="M353.71,455.93v2"/>
  <path id="mf94689a23816" data-name="mf94689a238" class="st5" d="M399.01,455.93v2"/>
  <path id="mf94689a23817" data-name="mf94689a238" class="st5" d="M422.01,455.93v2"/>
  <path id="mf94689a23818" data-name="mf94689a238" class="st5" d="M438.33,455.93v2"/>
  <path id="mf94689a23819" data-name="mf94689a238" class="st5" d="M450.99,455.93v2"/>
  <path id="mf94689a23820" data-name="mf94689a238" class="st5" d="M461.33,455.93v2"/>
  <path id="mf94689a23821" data-name="mf94689a238" class="st5" d="M470.08,455.93v2"/>
  <path id="mf94689a23822" data-name="mf94689a238" class="st5" d="M477.65,455.93v2"/>
  <path id="mf94689a23823" data-name="mf94689a238" class="st5" d="M484.33,455.93v2"/>
  <path id="mf94689a23824" data-name="mf94689a238" class="st5" d="M529.63,455.93v2"/>
  <path id="mf94689a23825" data-name="mf94689a238" class="st5" d="M552.63,455.93v2"/>
  <path id="mf94689a23826" data-name="mf94689a238" class="st5" d="M568.95,455.93v2"/>
  <path id="mf94689a23827" data-name="mf94689a238" class="st5" d="M581.61,455.93v2"/>
  <path id="mf94689a23828" data-name="mf94689a238" class="st5" d="M591.95,455.93v2"/>
  <path id="mf94689a23829" data-name="mf94689a238" class="st5" d="M600.7,455.93v2"/>
  <path id="mf94689a23830" data-name="mf94689a238" class="st5" d="M608.27,455.93v2"/>
  <path id="mf94689a23831" data-name="mf94689a238" class="st5" d="M614.96,455.93v2"/>
  <path id="mf94689a23832" data-name="mf94689a238" class="st5" d="M660.25,455.93v2"/>
  <path id="mf94689a23833" data-name="mf94689a238" class="st5" d="M683.26,455.93v2"/>
  <path id="mf94689a23834" data-name="mf94689a238" class="st5" d="M699.58,455.93v2"/>
  <path id="mf94689a23835" data-name="mf94689a238" class="st5" d="M712.23,455.93v2"/>
  <path id="mf94689a23836" data-name="mf94689a238" class="st5" d="M722.58,455.93v2"/>
  <path id="mf94689a23837" data-name="mf94689a238" class="st5" d="M731.32,455.93v2"/>
  <path id="mf94689a23838" data-name="mf94689a238" class="st5" d="M738.9,455.93v2"/>
  <path id="mf94689a23839" data-name="mf94689a238" class="st5" d="M745.58,455.93v2"/>
  <path id="mf94689a23840" data-name="mf94689a238" class="st5" d="M790.88,455.93v2"/>
  <path id="mf94689a23841" data-name="mf94689a238" class="st5" d="M813.88,455.93v2"/>
  <path id="mf94689a23842" data-name="mf94689a238" class="st5" d="M830.2,455.93v2"/>
  <path id="mf94689a23843" data-name="mf94689a238" class="st5" d="M842.86,455.93v2"/>
  <path id="mf94689a23844" data-name="mf94689a238" class="st5" d="M853.2,455.93v2"/>
  <path id="Arial-BoldMT-43" d="M364.18,484.81l1.68.53c-.26.94-.69,1.63-1.29,2.09-.6.45-1.36.68-2.28.68-1.14,0-2.08-.39-2.81-1.17-.73-.78-1.1-1.85-1.1-3.2,0-1.43.37-2.54,1.11-3.33.74-.79,1.71-1.19,2.91-1.19,1.05,0,1.9.31,2.56.93.39.37.68.89.88,1.58l-1.72.41c-.1-.44-.31-.8-.64-1.05-.32-.26-.71-.39-1.17-.39-.64,0-1.15.23-1.55.69-.4.46-.59,1.2-.59,2.22,0,1.09.19,1.86.58,2.32.39.46.9.69,1.52.69.46,0,.86-.15,1.19-.44.33-.29.57-.75.72-1.38Z"/>
  <path id="Arial-BoldMT-6f" d="M366.95,484.76c0-.55.13-1.08.4-1.59.27-.51.65-.9,1.15-1.17.49-.27,1.05-.4,1.66-.4.94,0,1.71.31,2.31.92s.9,1.38.9,2.32-.3,1.72-.91,2.34c-.61.62-1.37.93-2.29.93-.57,0-1.11-.13-1.63-.39-.52-.26-.91-.64-1.18-1.13-.27-.5-.4-1.1-.4-1.82ZM368.64,484.85c0,.62.15,1.09.44,1.42.29.33.66.49,1.09.49s.79-.16,1.08-.49c.29-.33.44-.81.44-1.43s-.15-1.08-.44-1.4c-.29-.33-.65-.49-1.08-.49s-.79.16-1.09.49c-.29.33-.44.8-.44,1.42Z"/>
  <path id="Arial-BoldMT-73" d="M374.08,486.19l1.65-.25c.07.32.21.56.43.73.21.17.52.25.9.25.42,0,.74-.08.96-.23.14-.11.22-.26.22-.44,0-.13-.04-.23-.12-.31-.08-.08-.26-.15-.55-.22-1.33-.29-2.17-.56-2.53-.8-.49-.34-.74-.8-.74-1.4,0-.54.21-.99.64-1.36.43-.37,1.09-.55,1.98-.55s1.48.14,1.9.42c.41.28.7.69.86,1.23l-1.55.29c-.07-.24-.19-.43-.38-.55-.18-.13-.45-.19-.79-.19-.43,0-.74.06-.93.18-.12.09-.19.2-.19.33,0,.12.05.22.16.3.15.11.66.26,1.54.46.88.2,1.49.44,1.84.73.34.29.52.7.52,1.22,0,.57-.24,1.06-.71,1.47-.48.41-1.18.61-2.11.61-.85,0-1.52-.17-2.01-.52-.49-.34-.82-.81-.97-1.4Z"/>
  <path id="Arial-BoldMT-74" d="M384.19,481.74v1.31h-1.12v2.51c0,.51.01.8.03.89.02.08.07.15.15.21s.17.08.28.08c.15,0,.37-.05.66-.16l.14,1.28c-.38.16-.82.25-1.3.25-.3,0-.56-.05-.8-.15-.24-.1-.41-.23-.52-.39-.11-.16-.19-.37-.23-.64-.03-.19-.05-.58-.05-1.16v-2.71h-.76v-1.31h.76v-1.24l1.65-.96v2.2h1.12Z"/>
  <path id="Arial-BoldMT-2d" d="M385.14,485.67v-1.65h3.23v1.65h-3.23Z"/>
  <path id="Arial-BoldMT-45" d="M389.34,487.96v-8.59h6.37v1.45h-4.63v1.9h4.31v1.45h-4.31v2.34h4.8v1.45h-6.53Z"/>
  <path id="Arial-BoldMT-78" d="M396.54,487.96l2.24-3.2-2.15-3.02h2.01l1.1,1.71,1.16-1.71h1.93l-2.11,2.95,2.3,3.28h-2.02l-1.27-1.93-1.28,1.93h-1.93Z"/>
  <path id="Arial-BoldMT-63" d="M409.43,483.58l-1.62.29c-.05-.32-.18-.57-.37-.73s-.44-.25-.75-.25c-.41,0-.74.14-.98.43-.24.28-.37.76-.37,1.42,0,.74.12,1.26.37,1.57.25.3.58.46,1,.46.31,0,.57-.09.77-.27.2-.18.34-.48.42-.92l1.62.28c-.17.74-.49,1.3-.97,1.68-.48.38-1.12.57-1.92.57-.91,0-1.64-.29-2.18-.86-.54-.58-.81-1.37-.81-2.38s.27-1.83.81-2.4c.54-.57,1.28-.86,2.2-.86.76,0,1.36.16,1.81.49s.77.82.96,1.49Z"/>
  <path id="Arial-BoldMT-68" d="M412.32,479.37v3.16c.53-.62,1.17-.93,1.9-.93.38,0,.72.07,1.03.21.31.14.53.32.69.54.16.22.26.46.32.73.06.26.08.68.08,1.24v3.65h-1.65v-3.29c0-.65-.03-1.07-.09-1.24-.06-.18-.17-.32-.33-.42-.16-.1-.36-.16-.59-.16-.27,0-.52.07-.73.2-.21.13-.37.33-.47.6s-.15.66-.15,1.18v3.12h-1.65v-8.59h1.65Z"/>
  <path id="Arial-BoldMT-61" d="M419.24,483.64l-1.49-.27c.17-.6.46-1.05.87-1.33.41-.29,1.02-.43,1.83-.43.73,0,1.28.09,1.64.26.36.17.61.39.76.66s.22.76.22,1.47l-.02,1.92c0,.55.03.95.08,1.21.05.26.15.54.3.83h-1.63c-.04-.11-.1-.27-.16-.49-.03-.1-.05-.16-.06-.19-.28.27-.58.48-.9.62-.32.14-.66.2-1.03.2-.64,0-1.15-.17-1.51-.52-.37-.35-.55-.79-.55-1.32,0-.35.08-.67.25-.94.17-.27.4-.49.71-.63.3-.15.74-.28,1.31-.38.77-.15,1.3-.28,1.6-.4v-.16c0-.32-.08-.54-.23-.68s-.45-.2-.88-.2c-.29,0-.52.06-.69.17s-.3.32-.4.61ZM421.45,484.97c-.21.07-.55.15-1,.25-.46.1-.75.19-.9.29-.21.15-.32.35-.32.58s.09.43.26.6c.17.17.39.25.66.25.3,0,.58-.1.85-.29.2-.15.33-.33.39-.55.04-.14.07-.41.07-.8v-.33Z"/>
  <path id="Arial-BoldMT-6e" d="M430.34,487.96h-1.65v-3.18c0-.67-.04-1.11-.1-1.3s-.18-.35-.34-.46c-.16-.11-.35-.16-.57-.16-.28,0-.54.08-.77.23s-.38.36-.47.62c-.08.26-.13.73-.13,1.43v2.82h-1.65v-6.22h1.53v.91c.54-.7,1.23-1.06,2.05-1.06.36,0,.69.07.99.2.3.13.53.3.68.5.16.2.26.43.32.69.06.26.09.63.09,1.11v3.87Z"/>
  <path id="Arial-BoldMT-67" d="M431.86,488.37l1.88.23c.03.22.1.37.22.45.16.12.4.18.74.18.43,0,.75-.06.97-.19.14-.09.25-.22.33-.42.05-.14.08-.39.08-.76v-.91c-.49.67-1.11,1.01-1.86,1.01-.84,0-1.5-.35-1.99-1.06-.38-.56-.57-1.25-.57-2.08,0-1.04.25-1.84.75-2.39.5-.55,1.13-.83,1.87-.83s1.4.34,1.9,1.01v-.87h1.54v5.58c0,.73-.06,1.28-.18,1.65-.12.36-.29.65-.51.85-.22.21-.51.37-.88.49s-.83.18-1.39.18c-1.05,0-1.8-.18-2.24-.54-.44-.36-.66-.82-.66-1.37,0-.06,0-.12,0-.2ZM433.33,484.72c0,.66.13,1.14.38,1.45.26.31.57.46.95.46.4,0,.74-.16,1.02-.47s.42-.78.42-1.4-.13-1.12-.4-1.44c-.26-.31-.6-.47-1.01-.47s-.72.15-.98.46c-.25.31-.38.77-.38,1.4Z"/>
  <path id="Arial-BoldMT-65" d="M442.95,485.98l1.64.28c-.21.6-.54,1.06-1,1.37-.46.31-1.02.47-1.71.47-1.08,0-1.88-.35-2.4-1.06-.41-.57-.61-1.28-.61-2.14,0-1.03.27-1.84.81-2.42.54-.58,1.22-.88,2.05-.88.93,0,1.66.31,2.19.92s.79,1.55.77,2.81h-4.12c.01.49.15.87.4,1.14.25.27.57.41.95.41.26,0,.47-.07.65-.21.18-.14.31-.37.4-.68ZM443.04,484.32c-.01-.48-.13-.84-.37-1.09-.23-.25-.52-.37-.85-.37-.36,0-.66.13-.89.39-.23.26-.35.62-.34,1.07h2.46Z"/>
  <path id="Arial-BoldMT-20" d="M445.16,487.96"/>
  <path id="Arial-BoldMT-52" d="M449.37,487.96v-8.59h3.65c.92,0,1.58.08,2,.23.42.15.75.43,1,.82.25.39.37.84.37,1.35,0,.64-.19,1.18-.57,1.6-.38.42-.94.68-1.7.79.37.22.68.46.93.72.25.26.57.73.99,1.39l1.05,1.68h-2.08l-1.25-1.87c-.45-.67-.75-1.09-.91-1.26s-.34-.29-.52-.36-.48-.1-.87-.1h-.35v3.59h-1.73ZM451.1,483.01h1.28c.83,0,1.35-.04,1.56-.1.21-.07.37-.19.49-.36.12-.17.18-.39.18-.65,0-.29-.08-.52-.23-.7-.15-.18-.37-.29-.65-.34-.14-.02-.56-.03-1.27-.03h-1.35v2.18Z"/>
  <path id="Arial-BoldMT-611" data-name="Arial-BoldMT-61" d="M459.25,483.64l-1.49-.27c.17-.6.46-1.05.87-1.33.41-.29,1.02-.43,1.83-.43.73,0,1.28.09,1.64.26.36.17.61.39.76.66s.22.76.22,1.47l-.02,1.92c0,.55.03.95.08,1.21.05.26.15.54.3.83h-1.63c-.04-.11-.1-.27-.16-.49-.03-.1-.05-.16-.06-.19-.28.27-.58.48-.9.62-.32.14-.66.2-1.03.2-.64,0-1.15-.17-1.51-.52-.37-.35-.55-.79-.55-1.32,0-.35.08-.67.25-.94.17-.27.4-.49.71-.63.3-.15.74-.28,1.31-.38.77-.15,1.3-.28,1.6-.4v-.16c0-.32-.08-.54-.23-.68s-.45-.2-.88-.2c-.29,0-.52.06-.69.17s-.3.32-.4.61ZM461.45,484.97c-.21.07-.55.15-1,.25-.46.1-.75.19-.9.29-.21.15-.32.35-.32.58s.09.43.26.6c.17.17.39.25.66.25.3,0,.58-.1.85-.29.2-.15.33-.33.39-.55.04-.14.07-.41.07-.8v-.33Z"/>
  <path id="Arial-BoldMT-741" data-name="Arial-BoldMT-74" d="M467.55,481.74v1.31h-1.12v2.51c0,.51.01.8.03.89.02.08.07.15.15.21s.17.08.28.08c.15,0,.37-.05.66-.16l.14,1.28c-.38.16-.82.25-1.3.25-.3,0-.56-.05-.8-.15-.24-.1-.41-.23-.52-.39-.11-.16-.19-.37-.23-.64-.03-.19-.05-.58-.05-1.16v-2.71h-.76v-1.31h.76v-1.24l1.65-.96v2.2h1.12Z"/>
  <path id="Arial-BoldMT-69" d="M468.69,480.9v-1.52h1.65v1.52h-1.65ZM468.69,487.96v-6.22h1.65v6.22h-1.65Z"/>
  <path id="Arial-BoldMT-6f1" data-name="Arial-BoldMT-6f" d="M471.64,484.76c0-.55.13-1.08.4-1.59.27-.51.65-.9,1.15-1.17.49-.27,1.05-.4,1.66-.4.94,0,1.71.31,2.31.92s.9,1.38.9,2.32-.3,1.72-.91,2.34c-.61.62-1.37.93-2.29.93-.57,0-1.11-.13-1.63-.39-.52-.26-.91-.64-1.18-1.13-.27-.5-.4-1.1-.4-1.82ZM473.33,484.85c0,.62.15,1.09.44,1.42.29.33.66.49,1.09.49s.79-.16,1.08-.49c.29-.33.44-.81.44-1.43s-.15-1.08-.44-1.4c-.29-.33-.65-.49-1.08-.49s-.79.16-1.09.49c-.29.33-.44.8-.44,1.42Z"/>
  <path id="Arial-BoldMT-201" data-name="Arial-BoldMT-20" d="M478.49,487.96"/>
  <path id="Arial-BoldMT-28" d="M485.42,490.49h-1.13c-.6-.9-1.05-1.84-1.37-2.81-.31-.97-.47-1.91-.47-2.82,0-1.13.19-2.2.58-3.21.34-.88.76-1.68,1.28-2.42h1.12c-.54,1.18-.9,2.19-1.1,3.02-.2.83-.3,1.71-.3,2.64,0,.64.06,1.3.18,1.97.12.67.28,1.31.49,1.91.14.4.38.97.72,1.72Z"/>
  <path id="Arial-BoldMT-41" d="M494.44,487.96h-1.89l-.75-1.95h-3.43l-.71,1.95h-1.84l3.34-8.59h1.84l3.44,8.59ZM491.25,484.56l-1.18-3.19-1.16,3.19h2.34Z"/>
  <path id="Arial-BoldMT-742" data-name="Arial-BoldMT-74" d="M498.2,481.74v1.31h-1.12v2.51c0,.51.01.8.03.89.02.08.07.15.15.21s.17.08.28.08c.15,0,.37-.05.66-.16l.14,1.28c-.38.16-.82.25-1.3.25-.3,0-.56-.05-.8-.15-.24-.1-.41-.23-.52-.39-.11-.16-.19-.37-.23-.64-.03-.19-.05-.58-.05-1.16v-2.71h-.76v-1.31h.76v-1.24l1.65-.96v2.2h1.12Z"/>
  <path id="Arial-BoldMT-743" data-name="Arial-BoldMT-74" d="M502.2,481.74v1.31h-1.12v2.51c0,.51.01.8.03.89.02.08.07.15.15.21s.17.08.28.08c.15,0,.37-.05.66-.16l.14,1.28c-.38.16-.82.25-1.3.25-.3,0-.56-.05-.8-.15-.24-.1-.41-.23-.52-.39-.11-.16-.19-.37-.23-.64-.03-.19-.05-.58-.05-1.16v-2.71h-.76v-1.31h.76v-1.24l1.65-.96v2.2h1.12Z"/>
  <path id="Arial-BoldMT-612" data-name="Arial-BoldMT-61" d="M504.57,483.64l-1.49-.27c.17-.6.46-1.05.87-1.33.41-.29,1.02-.43,1.83-.43.73,0,1.28.09,1.64.26.36.17.61.39.76.66s.22.76.22,1.47l-.02,1.92c0,.55.03.95.08,1.21.05.26.15.54.3.83h-1.63c-.04-.11-.1-.27-.16-.49-.03-.1-.05-.16-.06-.19-.28.27-.58.48-.9.62-.32.14-.66.2-1.03.2-.64,0-1.15-.17-1.51-.52-.37-.35-.55-.79-.55-1.32,0-.35.08-.67.25-.94.17-.27.4-.49.71-.63.3-.15.74-.28,1.31-.38.77-.15,1.3-.28,1.6-.4v-.16c0-.32-.08-.54-.23-.68s-.45-.2-.88-.2c-.29,0-.52.06-.69.17s-.3.32-.4.61ZM506.78,484.97c-.21.07-.55.15-1,.25-.46.1-.75.19-.9.29-.21.15-.32.35-.32.58s.09.43.26.6c.17.17.39.25.66.25.3,0,.58-.1.85-.29.2-.15.33-.33.39-.55.04-.14.07-.41.07-.8v-.33Z"/>
  <path id="Arial-BoldMT-631" data-name="Arial-BoldMT-63" d="M515.44,483.58l-1.62.29c-.05-.32-.18-.57-.37-.73s-.44-.25-.75-.25c-.41,0-.74.14-.98.43-.24.28-.37.76-.37,1.42,0,.74.12,1.26.37,1.57.25.3.58.46,1,.46.31,0,.57-.09.77-.27.2-.18.34-.48.42-.92l1.62.28c-.17.74-.49,1.3-.97,1.68-.48.38-1.12.57-1.92.57-.91,0-1.64-.29-2.18-.86-.54-.58-.81-1.37-.81-2.38s.27-1.83.81-2.4c.54-.57,1.28-.86,2.2-.86.76,0,1.36.16,1.81.49s.77.82.96,1.49Z"/>
  <path id="Arial-BoldMT-6b" d="M516.63,487.96v-8.59h1.65v4.56l1.93-2.19h2.03l-2.13,2.27,2.28,3.95h-1.78l-1.56-2.8-.77.8v1.99h-1.65Z"/>
  <path id="Arial-BoldMT-651" data-name="Arial-BoldMT-65" d="M526.97,485.98l1.64.28c-.21.6-.54,1.06-1,1.37-.46.31-1.02.47-1.71.47-1.08,0-1.88-.35-2.4-1.06-.41-.57-.61-1.28-.61-2.14,0-1.03.27-1.84.81-2.42.54-.58,1.22-.88,2.05-.88.93,0,1.66.31,2.19.92s.79,1.55.77,2.81h-4.12c.01.49.15.87.4,1.14.25.27.57.41.95.41.26,0,.47-.07.65-.21.18-.14.31-.37.4-.68ZM527.06,484.32c-.01-.48-.13-.84-.37-1.09-.23-.25-.52-.37-.85-.37-.36,0-.66.13-.89.39-.23.26-.35.62-.34,1.07h2.46Z"/>
  <path id="Arial-BoldMT-72" d="M531.61,487.96h-1.65v-6.22h1.53v.88c.26-.42.5-.69.7-.82.21-.13.45-.2.71-.2.37,0,.74.1,1.08.31l-.51,1.43c-.28-.18-.54-.27-.77-.27s-.43.06-.59.19c-.16.13-.29.36-.38.69-.09.33-.14,1.03-.14,2.08v1.92Z"/>
  <path id="Arial-BoldMT-3a" d="M535.02,483.39v-1.65h1.65v1.65h-1.65ZM535.02,487.96v-1.65h1.65v1.65h-1.65Z"/>
  <path id="Arial-BoldMT-44" d="M538.71,479.37h3.17c.71,0,1.26.05,1.63.16.5.15.94.41,1.29.79.36.38.63.84.82,1.39s.28,1.23.28,2.03c0,.71-.09,1.32-.26,1.83-.22.62-.52,1.13-.92,1.52-.3.29-.71.52-1.22.69-.38.12-.89.18-1.54.18h-3.26v-8.59ZM540.44,480.83v5.69h1.29c.49,0,.83-.03,1.05-.08.28-.07.51-.19.7-.36.19-.17.34-.45.45-.83.12-.39.18-.91.18-1.57s-.06-1.17-.18-1.53c-.12-.36-.28-.63-.49-.83-.21-.2-.48-.33-.8-.4-.24-.05-.72-.08-1.42-.08h-.78Z"/>
  <path id="Arial-BoldMT-652" data-name="Arial-BoldMT-65" d="M550.97,485.98l1.64.28c-.21.6-.54,1.06-1,1.37-.46.31-1.02.47-1.71.47-1.08,0-1.88-.35-2.4-1.06-.41-.57-.61-1.28-.61-2.14,0-1.03.27-1.84.81-2.42.54-.58,1.22-.88,2.05-.88.93,0,1.66.31,2.19.92s.79,1.55.77,2.81h-4.12c.01.49.15.87.4,1.14.25.27.57.41.95.41.26,0,.47-.07.65-.21.18-.14.31-.37.4-.68ZM551.06,484.32c-.01-.48-.13-.84-.37-1.09-.23-.25-.52-.37-.85-.37-.36,0-.66.13-.89.39-.23.26-.35.62-.34,1.07h2.46Z"/>
  <path id="Arial-BoldMT-66" d="M553.32,481.74h.91v-.47c0-.52.06-.91.17-1.17.11-.26.32-.47.61-.63.3-.16.68-.24,1.13-.24s.93.07,1.38.21l-.22,1.15c-.26-.06-.51-.09-.76-.09s-.41.06-.51.17c-.1.11-.15.32-.15.64v.44h1.23v1.3h-1.23v4.93h-1.65v-4.93h-.91v-1.3Z"/>
  <path id="Arial-BoldMT-653" data-name="Arial-BoldMT-65" d="M561.64,485.98l1.64.28c-.21.6-.54,1.06-1,1.37-.46.31-1.02.47-1.71.47-1.08,0-1.88-.35-2.4-1.06-.41-.57-.61-1.28-.61-2.14,0-1.03.27-1.84.81-2.42.54-.58,1.22-.88,2.05-.88.93,0,1.66.31,2.19.92s.79,1.55.77,2.81h-4.12c.01.49.15.87.4,1.14.25.27.57.41.95.41.26,0,.47-.07.65-.21.18-.14.31-.37.4-.68ZM561.73,484.32c-.01-.48-.13-.84-.37-1.09-.23-.25-.52-.37-.85-.37-.36,0-.66.13-.89.39-.23.26-.35.62-.34,1.07h2.46Z"/>
  <path id="Arial-BoldMT-6e1" data-name="Arial-BoldMT-6e" d="M570.37,487.96h-1.65v-3.18c0-.67-.04-1.11-.1-1.3s-.18-.35-.34-.46c-.16-.11-.35-.16-.57-.16-.28,0-.54.08-.77.23s-.38.36-.47.62c-.08.26-.13.73-.13,1.43v2.82h-1.65v-6.22h1.53v.91c.54-.7,1.23-1.06,2.05-1.06.36,0,.69.07.99.2.3.13.53.3.68.5.16.2.26.43.32.69.06.26.09.63.09,1.11v3.87Z"/>
  <path id="Arial-BoldMT-64" d="M577.75,487.96h-1.53v-.91c-.25.36-.56.62-.9.79-.34.17-.69.26-1.04.26-.72,0-1.33-.29-1.84-.86-.51-.58-.76-1.38-.76-2.41s.25-1.86.74-2.41c.5-.55,1.12-.82,1.88-.82.69,0,1.3.29,1.8.87v-3.09h1.65v8.59ZM573.35,484.72c0,.66.09,1.14.28,1.44.27.43.64.64,1.11.64.38,0,.7-.16.97-.48.27-.32.4-.8.4-1.45,0-.72-.13-1.23-.39-1.54-.26-.31-.59-.47-.99-.47s-.72.16-.98.47c-.26.31-.4.77-.4,1.39Z"/>
  <path id="Arial-BoldMT-654" data-name="Arial-BoldMT-65" d="M582.98,485.98l1.64.28c-.21.6-.54,1.06-1,1.37-.46.31-1.02.47-1.71.47-1.08,0-1.88-.35-2.4-1.06-.41-.57-.61-1.28-.61-2.14,0-1.03.27-1.84.81-2.42.54-.58,1.22-.88,2.05-.88.93,0,1.66.31,2.19.92s.79,1.55.77,2.81h-4.12c.01.49.15.87.4,1.14.25.27.57.41.95.41.26,0,.47-.07.65-.21.18-.14.31-.37.4-.68ZM583.07,484.32c-.01-.48-.13-.84-.37-1.09-.23-.25-.52-.37-.85-.37-.36,0-.66.13-.89.39-.23.26-.35.62-.34,1.07h2.46Z"/>
  <path id="Arial-BoldMT-721" data-name="Arial-BoldMT-72" d="M587.62,487.96h-1.65v-6.22h1.53v.88c.26-.42.5-.69.7-.82.21-.13.45-.2.71-.2.37,0,.74.1,1.08.31l-.51,1.43c-.28-.18-.54-.27-.77-.27s-.43.06-.59.19c-.16.13-.29.36-.38.69-.09.33-.14,1.03-.14,2.08v1.92Z"/>
  <path id="Arial-BoldMT-29" d="M590.26,490.49c.32-.7.55-1.23.68-1.6.13-.37.26-.8.37-1.28.11-.48.2-.94.25-1.38.05-.44.08-.88.08-1.34,0-.93-.1-1.81-.3-2.64-.2-.83-.57-1.84-1.1-3.02h1.12c.59.84,1.05,1.73,1.37,2.67.33.94.49,1.9.49,2.86,0,.82-.13,1.69-.39,2.62-.29,1.05-.78,2.08-1.45,3.1h-1.14Z"/>
  <path id="mb86ea4a39e" class="st6" d="M98.44,91.19h-3.5"/>
  <path id="ArialMT-46" d="M37.94,90.1v-7.87h5.31v.93h-4.27v2.44h3.7v.93h-3.7v3.58h-1.04Z"/>
  <path id="ArialMT-50" d="M44.6,90.1v-7.87h2.97c.52,0,.92.02,1.2.07.39.07.71.19.97.37.26.18.47.43.63.76.16.33.24.68.24,1.07,0,.67-.21,1.24-.64,1.7-.43.46-1.2.69-2.31.69h-2.02v3.2h-1.04ZM45.64,85.97h2.03c.67,0,1.15-.13,1.44-.38s.42-.6.42-1.06c0-.33-.08-.61-.25-.84-.17-.23-.38-.39-.66-.47-.18-.05-.5-.07-.97-.07h-2.01v2.82Z"/>
  <path id="ArialMT-56" d="M54.19,90.1l-3.05-7.87h1.13l2.05,5.72c.16.46.3.89.41,1.29.12-.43.26-.86.42-1.29l2.13-5.72h1.06l-3.08,7.87h-1.07Z"/>
  <path id="ArialMT-20" d="M58.43,90.1"/>
  <path id="ArialMT-44" d="M62.33,90.1v-7.87h2.71c.61,0,1.08.04,1.4.11.45.1.83.29,1.15.56.42.35.73.8.93,1.35.21.55.31,1.17.31,1.87,0,.6-.07,1.13-.21,1.59-.14.46-.32.84-.54,1.15-.22.3-.46.54-.72.71-.26.17-.57.3-.94.39s-.79.13-1.26.13h-2.84ZM63.37,89.17h1.68c.52,0,.93-.05,1.22-.14s.53-.23.71-.41c.25-.25.44-.58.58-1s.21-.92.21-1.52c0-.82-.14-1.46-.41-1.9s-.6-.74-.98-.89c-.28-.11-.73-.16-1.35-.16h-1.66v6.02Z"/>
  <path id="ArialMT-72" d="M70.14,90.1v-5.7h.87v.86c.22-.4.43-.67.62-.8.19-.13.39-.19.62-.19.33,0,.66.1.99.31l-.33.9c-.24-.14-.47-.21-.71-.21-.21,0-.4.06-.57.19s-.29.3-.36.53c-.11.34-.16.72-.16,1.13v2.99h-.97Z"/>
  <path id="ArialMT-6f" d="M73.46,87.24c0-1.06.29-1.84.88-2.35.49-.42,1.09-.63,1.79-.63.78,0,1.42.26,1.92.77.5.51.75,1.22.75,2.13,0,.73-.11,1.31-.33,1.73-.22.42-.54.75-.96.98-.42.23-.88.35-1.38.35-.8,0-1.44-.26-1.94-.77-.49-.51-.74-1.25-.74-2.21ZM74.45,87.24c0,.73.16,1.28.48,1.64.32.36.72.54,1.2.54s.88-.18,1.2-.55c.32-.37.48-.92.48-1.67,0-.71-.16-1.24-.48-1.6s-.72-.54-1.19-.54-.88.18-1.2.54c-.32.36-.48.91-.48,1.64Z"/>
  <path id="ArialMT-6e" d="M79.93,90.1v-5.7h.87v.81c.42-.63,1.02-.94,1.81-.94.34,0,.66.06.95.19s.5.29.65.49.24.44.3.71c.04.18.05.49.05.94v3.51h-.97v-3.47c0-.39-.04-.69-.11-.88-.07-.19-.21-.35-.4-.47-.19-.12-.42-.18-.67-.18-.41,0-.77.13-1.07.39s-.45.76-.45,1.49v3.12h-.97Z"/>
  <path id="ArialMT-65" d="M89.95,88.26l1,.12c-.16.58-.45,1.04-.87,1.36-.43.32-.97.48-1.63.48-.83,0-1.5-.26-1.99-.77-.49-.51-.73-1.24-.73-2.16s.25-1.7.74-2.23c.49-.53,1.14-.8,1.92-.8s1.39.26,1.87.78.73,1.25.73,2.19c0,.06,0,.14,0,.26h-4.25c.04.63.21,1.11.53,1.44.32.33.72.5,1.19.5.35,0,.66-.09.91-.28.25-.19.45-.48.6-.89ZM86.78,86.7h3.18c-.04-.48-.16-.84-.36-1.08-.31-.37-.71-.56-1.2-.56-.44,0-.82.15-1.12.45s-.47.69-.5,1.19Z"/>
  <path id="ArialMT-76" d="M31.78,101.73l-2.17-5.7h1.02l1.23,3.42c.13.37.25.75.36,1.15.09-.3.21-.66.36-1.08l1.27-3.48h.99l-2.16,5.7h-.9Z"/>
  <path id="ArialMT-73" d="M35.31,100.03l.96-.15c.05.38.2.68.45.88.25.2.59.31,1.03.31s.77-.09.99-.27c.22-.18.32-.39.32-.64,0-.22-.1-.39-.29-.52-.13-.09-.46-.19-.99-.33-.71-.18-1.2-.34-1.47-.47s-.48-.31-.62-.54c-.14-.23-.21-.49-.21-.77,0-.25.06-.49.17-.7.12-.22.28-.4.48-.54.15-.11.35-.2.61-.28.26-.08.54-.12.84-.12.45,0,.84.06,1.18.19.34.13.59.3.75.52.16.22.27.51.33.88l-.95.13c-.04-.29-.17-.52-.37-.69-.21-.16-.5-.25-.87-.25-.44,0-.76.07-.95.22-.19.15-.29.32-.29.52,0,.12.04.24.12.34.08.1.2.19.37.26.1.04.38.12.85.25.68.18,1.16.33,1.43.45.27.12.48.28.64.51.15.22.23.5.23.83s-.09.63-.28.91c-.19.28-.46.5-.81.66-.35.16-.75.23-1.2.23-.74,0-1.31-.15-1.69-.46-.39-.31-.64-.76-.74-1.37Z"/>
  <path id="ArialMT-201" data-name="ArialMT-20" d="M40.47,101.73"/>
  <path id="ArialMT-54" d="M46.19,101.73v-6.95h-2.59v-.93h6.24v.93h-2.6v6.95h-1.04Z"/>
  <path id="ArialMT-2d" d="M49.8,99.37v-.97h2.97v.97h-2.97Z"/>
  <path id="ArialMT-39" d="M53.72,99.91l.93-.09c.08.44.23.75.45.95.22.2.51.3.85.3.3,0,.56-.07.78-.2.22-.14.41-.32.55-.54.14-.23.26-.54.36-.92.1-.39.15-.78.15-1.18,0-.04,0-.11,0-.19-.19.31-.46.56-.79.75-.33.19-.7.29-1.09.29-.65,0-1.2-.24-1.66-.71-.45-.47-.68-1.1-.68-1.87s.24-1.44.71-1.93c.47-.49,1.06-.73,1.77-.73.51,0,.98.14,1.4.41.43.27.75.67.97,1.18.22.51.33,1.25.33,2.22s-.11,1.81-.33,2.4c-.22.6-.54,1.05-.97,1.36-.43.31-.94.47-1.52.47-.62,0-1.12-.17-1.51-.51-.39-.34-.62-.82-.7-1.44ZM57.67,96.43c0-.56-.15-1-.44-1.32-.29-.33-.65-.49-1.07-.49s-.8.18-1.12.53c-.32.35-.48.81-.48,1.36,0,.5.15.91.45,1.22.3.31.68.47,1.12.47s.82-.16,1.1-.47c.29-.31.43-.75.43-1.3Z"/>
  <path id="ArialMT-307" data-name="ArialMT-30" d="M59.69,97.85c0-.93.1-1.68.29-2.25.19-.57.48-1.01.85-1.31.38-.31.85-.46,1.43-.46.42,0,.79.09,1.11.26.32.17.58.41.79.74.21.32.37.71.49,1.17.12.46.18,1.08.18,1.86,0,.92-.1,1.67-.29,2.24-.19.57-.47,1.01-.85,1.32-.38.31-.85.46-1.43.46-.76,0-1.35-.27-1.79-.82-.52-.66-.78-1.72-.78-3.2ZM60.68,97.85c0,1.29.15,2.15.45,2.58.3.43.68.64,1.12.64s.82-.21,1.12-.64.45-1.29.45-2.58-.15-2.16-.45-2.58c-.3-.43-.68-.64-1.13-.64s-.8.19-1.06.56c-.33.48-.5,1.37-.5,2.66Z"/>
  <path id="ArialMT-202" data-name="ArialMT-20" d="M65.35,101.73"/>
  <path id="ArialMT-541" data-name="ArialMT-54" d="M71.07,101.73v-6.95h-2.59v-.93h6.24v.93h-2.6v6.95h-1.04Z"/>
  <path id="ArialMT-61" d="M78.16,101.03c-.36.3-.7.52-1.03.64-.33.12-.69.19-1.07.19-.63,0-1.11-.15-1.45-.46s-.51-.7-.51-1.17c0-.28.06-.53.19-.76.13-.23.29-.42.5-.56s.44-.25.7-.32c.19-.05.48-.1.86-.15.78-.09,1.35-.2,1.72-.33,0-.13,0-.22,0-.25,0-.39-.09-.67-.27-.83-.25-.22-.61-.33-1.1-.33-.45,0-.79.08-1.01.24s-.38.44-.48.85l-.95-.13c.09-.4.23-.73.42-.98.2-.25.48-.44.85-.57.37-.14.8-.2,1.29-.2s.88.06,1.19.17c.3.11.53.26.67.43.14.17.24.39.3.66.03.16.05.46.05.89v1.29c0,.9.02,1.47.06,1.71.04.24.12.47.25.68h-1.01c-.1-.2-.16-.43-.19-.7ZM78.08,98.87c-.35.14-.88.27-1.58.37-.4.06-.68.12-.84.19-.16.07-.29.18-.38.31-.09.14-.13.29-.13.46,0,.26.1.47.29.64.2.17.48.26.86.26s.7-.08.99-.24c.29-.16.5-.39.64-.67.1-.22.16-.54.16-.97v-.36Z"/>
  <path id="ArialMT-6e1" data-name="ArialMT-6e" d="M80.55,101.73v-5.7h.87v.81c.42-.63,1.02-.94,1.81-.94.34,0,.66.06.95.19s.5.29.65.49.24.44.3.71c.04.18.05.49.05.94v3.51h-.97v-3.47c0-.39-.04-.69-.11-.88-.07-.19-.21-.35-.4-.47-.19-.12-.42-.18-.67-.18-.41,0-.77.13-1.07.39s-.45.76-.45,1.49v3.12h-.97Z"/>
  <path id="ArialMT-6b" d="M86.68,101.73v-7.87h.97v4.49l2.29-2.32h1.25l-2.18,2.12,2.4,3.59h-1.19l-1.89-2.92-.68.65v2.26h-.97Z"/>
  <path id="mb86ea4a39e1" data-name="mb86ea4a39e" class="st6" d="M98.44,169.8h-3.5"/>
  <path id="ArialMT-53" d="M11.22,166.17l.98-.09c.05.39.16.72.32.97.17.25.43.46.79.61.36.16.76.23,1.21.23.4,0,.75-.06,1.05-.18.3-.12.53-.28.68-.48.15-.21.22-.43.22-.68s-.07-.46-.21-.65-.38-.34-.71-.47c-.21-.08-.68-.21-1.4-.38-.72-.17-1.23-.34-1.52-.49-.38-.2-.66-.44-.84-.73-.18-.29-.27-.62-.27-.98,0-.4.11-.77.34-1.11.23-.35.56-.61.99-.79.43-.18.92-.27,1.45-.27.58,0,1.1.09,1.54.28.45.19.79.46,1.03.83.24.36.37.78.39,1.24l-1,.08c-.05-.5-.24-.87-.55-1.13-.31-.25-.77-.38-1.37-.38s-1.09.12-1.38.35c-.29.23-.43.51-.43.83,0,.28.1.52.31.7.2.18.72.37,1.57.56.85.19,1.43.36,1.74.5.46.21.8.48,1.01.8.22.32.33.7.33,1.12s-.12.81-.36,1.19c-.24.37-.58.66-1.03.86-.45.21-.95.31-1.52.31-.71,0-1.31-.1-1.79-.31-.48-.21-.86-.52-1.13-.94-.27-.42-.42-.89-.43-1.42Z"/>
  <path id="ArialMT-77" d="M19.84,168.7l-1.74-5.7h1l.91,3.29.34,1.22c.01-.06.11-.45.3-1.18l.91-3.34h.99l.85,3.31.29,1.09.33-1.1.98-3.3h.94l-1.78,5.7h-1l-.91-3.42-.22-.97-1.15,4.39h-1.01Z"/>
  <path id="ArialMT-69" d="M26.73,161.94v-1.11h.97v1.11h-.97ZM26.73,168.7v-5.7h.97v5.7h-.97Z"/>
  <path id="ArialMT-74" d="M31.28,167.84l.14.85c-.27.06-.52.09-.73.09-.35,0-.62-.06-.82-.17-.19-.11-.33-.26-.41-.44-.08-.18-.12-.56-.12-1.14v-3.28h-.71v-.75h.71v-1.41l.96-.58v1.99h.97v.75h-.97v3.33c0,.28.02.45.05.53.03.08.09.14.17.19.08.05.19.07.33.07.11,0,.25-.01.42-.04Z"/>
  <path id="ArialMT-63" d="M35.95,166.61l.95.12c-.1.66-.37,1.17-.8,1.54-.43.37-.95.56-1.58.56-.78,0-1.41-.25-1.88-.76-.47-.51-.71-1.24-.71-2.19,0-.62.1-1.15.31-1.62.2-.46.51-.81.93-1.04.42-.23.87-.35,1.36-.35.62,0,1.13.16,1.52.47.39.31.65.76.76,1.33l-.94.15c-.09-.38-.25-.67-.48-.86-.23-.19-.5-.29-.82-.29-.49,0-.88.17-1.19.52-.3.35-.46.9-.46,1.66s.15,1.32.44,1.67c.29.35.68.52,1.15.52.38,0,.7-.12.95-.35.25-.23.42-.59.48-1.07Z"/>
  <path id="ArialMT-68" d="M37.73,168.7v-7.87h.97v2.82c.45-.52,1.02-.78,1.71-.78.42,0,.79.08,1.1.25.31.17.53.4.67.69s.2.72.2,1.28v3.61h-.97v-3.61c0-.48-.1-.84-.31-1.06s-.51-.33-.89-.33c-.29,0-.56.07-.81.22-.25.15-.43.35-.54.6-.11.25-.16.6-.16,1.05v3.12h-.97Z"/>
  <path id="ArialMT-62" d="M44.74,168.7h-.9v-7.87h.97v2.81c.41-.51.93-.77,1.56-.77.35,0,.68.07,1,.21.31.14.57.34.77.6.2.26.36.56.48.93.11.36.17.75.17,1.16,0,.98-.24,1.73-.73,2.27-.48.53-1.06.8-1.74.8s-1.2-.28-1.58-.84v.71ZM44.73,165.81c0,.68.09,1.18.28,1.48.3.5.72.75,1.24.75.42,0,.79-.18,1.09-.55.31-.37.46-.91.46-1.64s-.15-1.29-.44-1.65-.65-.53-1.07-.53-.79.18-1.1.55c-.31.37-.46.9-.46,1.59Z"/>
  <path id="ArialMT-6c" d="M49.94,168.7v-7.87h.97v7.87h-.97Z"/>
  <path id="ArialMT-611" data-name="ArialMT-61" d="M56.13,168c-.36.3-.7.52-1.03.64-.33.12-.69.19-1.07.19-.63,0-1.11-.15-1.45-.46s-.51-.7-.51-1.17c0-.28.06-.53.19-.76.13-.23.29-.42.5-.56s.44-.25.7-.32c.19-.05.48-.1.86-.15.78-.09,1.35-.2,1.72-.33,0-.13,0-.22,0-.25,0-.39-.09-.67-.27-.83-.25-.22-.61-.33-1.1-.33-.45,0-.79.08-1.01.24s-.38.44-.48.85l-.95-.13c.09-.4.23-.73.42-.98.2-.25.48-.44.85-.57.37-.14.8-.2,1.29-.2s.88.06,1.19.17c.3.11.53.26.67.43.14.17.24.39.3.66.03.16.05.46.05.89v1.29c0,.9.02,1.47.06,1.71.04.24.12.47.25.68h-1.01c-.1-.2-.16-.43-.19-.7ZM56.05,165.84c-.35.14-.88.27-1.58.37-.4.06-.68.12-.84.19-.16.07-.29.18-.38.31-.09.14-.13.29-.13.46,0,.26.1.47.29.64.2.17.48.26.86.26s.7-.08.99-.24c.29-.16.5-.39.64-.67.1-.22.16-.54.16-.97v-.36Z"/>
  <path id="ArialMT-64" d="M62.23,168.7v-.72c-.36.57-.89.85-1.59.85-.45,0-.87-.13-1.25-.38s-.68-.6-.89-1.05c-.21-.45-.31-.97-.31-1.55s.09-1.09.28-1.55c.19-.46.47-.82.85-1.07.38-.25.8-.37,1.27-.37.34,0,.65.07.92.22.27.14.49.33.66.57v-2.82h.96v7.87h-.9ZM59.17,165.86c0,.73.15,1.28.46,1.64.31.36.67.54,1.09.54s.78-.17,1.08-.52c.3-.35.44-.87.44-1.58,0-.78-.15-1.35-.45-1.72-.3-.37-.67-.55-1.11-.55s-.79.18-1.08.53c-.29.35-.43.9-.43,1.66Z"/>
  <path id="ArialMT-651" data-name="ArialMT-65" d="M68.55,166.87l1,.12c-.16.58-.45,1.04-.87,1.36-.43.32-.97.48-1.63.48-.83,0-1.5-.26-1.99-.77-.49-.51-.73-1.24-.73-2.16s.25-1.7.74-2.23c.49-.53,1.14-.8,1.92-.8s1.39.26,1.87.78.73,1.25.73,2.19c0,.06,0,.14,0,.26h-4.25c.04.63.21,1.11.53,1.44.32.33.72.5,1.19.5.35,0,.66-.09.91-.28.25-.19.45-.48.6-.89ZM65.37,165.3h3.18c-.04-.48-.16-.84-.36-1.08-.31-.37-.71-.56-1.2-.56-.44,0-.82.15-1.12.45s-.47.69-.5,1.19Z"/>
  <path id="ArialMT-203" data-name="ArialMT-20" d="M70.04,168.7"/>
  <path id="ArialMT-331" data-name="ArialMT-33" d="M73.55,166.63l.97-.13c.11.55.3.94.57,1.18.27.24.59.36.97.36.45,0,.84-.16,1.15-.47.31-.32.47-.71.47-1.17s-.14-.81-.43-1.1c-.29-.29-.66-.43-1.11-.43-.18,0-.41.04-.68.11l.11-.85c.06,0,.12.01.15.01.41,0,.78-.11,1.11-.32.33-.22.49-.55.49-1,0-.35-.12-.65-.36-.88-.24-.23-.55-.35-.93-.35s-.69.12-.94.36c-.25.24-.41.59-.48,1.06l-.97-.17c.12-.65.39-1.15.8-1.51.42-.36.94-.53,1.56-.53.43,0,.82.09,1.19.28.36.18.64.44.83.75.19.32.29.66.29,1.02,0,.34-.09.65-.27.93-.18.28-.45.5-.81.67.47.11.83.33,1.08.67.26.34.39.76.39,1.27,0,.69-.25,1.27-.75,1.75-.5.48-1.13.72-1.9.72-.69,0-1.26-.21-1.72-.62-.46-.41-.72-.95-.78-1.6Z"/>
  <path id="ArialMT-308" data-name="ArialMT-30" d="M79.67,164.82c0-.93.1-1.68.29-2.25.19-.57.48-1.01.85-1.31.38-.31.85-.46,1.43-.46.42,0,.79.09,1.11.26.32.17.58.41.79.74.21.32.37.71.49,1.17.12.46.18,1.08.18,1.86,0,.92-.1,1.67-.29,2.24-.19.57-.47,1.01-.85,1.32-.38.31-.85.46-1.43.46-.76,0-1.35-.27-1.79-.82-.52-.66-.78-1.72-.78-3.2ZM80.66,164.82c0,1.29.15,2.15.45,2.58.3.43.68.64,1.12.64s.82-.21,1.12-.64.45-1.29.45-2.58-.15-2.16-.45-2.58c-.3-.43-.68-.64-1.13-.64s-.8.19-1.06.56c-.33.48-.5,1.37-.5,2.66Z"/>
  <path id="ArialMT-309" data-name="ArialMT-30" d="M85.78,164.82c0-.93.1-1.68.29-2.25.19-.57.48-1.01.85-1.31.38-.31.85-.46,1.43-.46.42,0,.79.09,1.11.26.32.17.58.41.79.74.21.32.37.71.49,1.17.12.46.18,1.08.18,1.86,0,.92-.1,1.67-.29,2.24-.19.57-.47,1.01-.85,1.32-.38.31-.85.46-1.43.46-.76,0-1.35-.27-1.79-.82-.52-.66-.78-1.72-.78-3.2ZM86.78,164.82c0,1.29.15,2.15.45,2.58.3.43.68.64,1.12.64s.82-.21,1.12-.64.45-1.29.45-2.58-.15-2.16-.45-2.58c-.3-.43-.68-.64-1.13-.64s-.8.19-1.06.56c-.33.48-.5,1.37-.5,2.66Z"/>
  <path id="ArialMT-761" data-name="ArialMT-76" d="M46.08,180.34l-2.17-5.7h1.02l1.23,3.42c.13.37.25.75.36,1.15.09-.3.21-.66.36-1.08l1.27-3.48h.99l-2.16,5.7h-.9Z"/>
  <path id="ArialMT-731" data-name="ArialMT-73" d="M49.61,178.63l.96-.15c.05.38.2.68.45.88.25.2.59.31,1.03.31s.77-.09.99-.27c.22-.18.32-.39.32-.64,0-.22-.1-.39-.29-.52-.13-.09-.46-.19-.99-.33-.71-.18-1.2-.34-1.47-.47s-.48-.31-.62-.54c-.14-.23-.21-.49-.21-.77,0-.25.06-.49.17-.7.12-.22.28-.4.48-.54.15-.11.35-.2.61-.28.26-.08.54-.12.84-.12.45,0,.84.06,1.18.19.34.13.59.3.75.52.16.22.27.51.33.88l-.95.13c-.04-.29-.17-.52-.37-.69-.21-.16-.5-.25-.87-.25-.44,0-.76.07-.95.22-.19.15-.29.32-.29.52,0,.12.04.24.12.34.08.1.2.19.37.26.1.04.38.12.85.25.68.18,1.16.33,1.43.45.27.12.48.28.64.51.15.22.23.5.23.83s-.09.63-.28.91c-.19.28-.46.5-.81.66-.35.16-.75.23-1.2.23-.74,0-1.31-.15-1.69-.46-.39-.31-.64-.76-.74-1.37Z"/>
  <path id="ArialMT-204" data-name="ArialMT-20" d="M54.77,180.34"/>
  <path id="ArialMT-42" d="M58.63,180.34v-7.87h2.95c.6,0,1.08.08,1.45.24s.65.4.85.74c.21.33.31.68.31,1.04,0,.34-.09.65-.27.95-.18.3-.46.54-.83.72.48.14.84.38,1.1.71.26.34.38.73.38,1.19,0,.37-.08.71-.23,1.03-.16.32-.35.56-.58.73s-.52.3-.86.39c-.34.09-.77.13-1.27.13h-3ZM59.67,175.77h1.7c.46,0,.79-.03.99-.09.26-.08.46-.21.6-.39.13-.18.2-.41.2-.69,0-.26-.06-.49-.19-.69-.12-.2-.3-.34-.54-.41-.23-.07-.63-.11-1.2-.11h-1.57v2.38ZM59.67,179.41h1.96c.34,0,.57-.01.71-.04.24-.04.44-.11.6-.21.16-.1.29-.25.4-.44.1-.19.16-.41.16-.66,0-.29-.08-.55-.23-.76-.15-.22-.36-.37-.63-.46-.27-.09-.65-.13-1.15-.13h-1.82v2.71Z"/>
  <path id="ArialMT-4d" d="M65.98,180.34v-7.87h1.57l1.86,5.57c.17.52.3.91.38,1.17.09-.29.23-.71.42-1.26l1.89-5.48h1.4v7.87h-1v-6.59l-2.29,6.59h-.94l-2.28-6.7v6.7h-1Z"/>
  <path id="ArialMT-501" data-name="ArialMT-50" d="M75.17,180.34v-7.87h2.97c.52,0,.92.02,1.2.07.39.07.71.19.97.37.26.18.47.43.63.76.16.33.24.68.24,1.07,0,.67-.21,1.24-.64,1.7-.43.46-1.2.69-2.31.69h-2.02v3.2h-1.04ZM76.21,176.21h2.03c.67,0,1.15-.13,1.44-.38s.42-.6.42-1.06c0-.33-.08-.61-.25-.84-.17-.23-.38-.39-.66-.47-.18-.05-.5-.07-.97-.07h-2.01v2.82Z"/>
  <path id="ArialMT-2d1" data-name="ArialMT-2d" d="M82.01,177.97v-.97h2.97v.97h-2.97Z"/>
  <path id="ArialMT-321" data-name="ArialMT-32" d="M90.86,179.41v.93h-5.2c0-.23.03-.46.11-.67.13-.35.34-.7.64-1.05.29-.34.71-.74,1.27-1.19.86-.7,1.43-1.26,1.73-1.67.3-.41.45-.8.45-1.16s-.14-.71-.41-.97c-.27-.26-.63-.4-1.07-.4-.47,0-.84.14-1.12.42-.28.28-.42.66-.42,1.16l-.99-.1c.07-.74.32-1.31.77-1.69.44-.39,1.04-.58,1.79-.58s1.35.21,1.79.63c.44.42.66.94.66,1.56,0,.32-.06.63-.19.93-.13.3-.34.62-.64.96s-.8.8-1.49,1.39c-.58.49-.95.82-1.12.99-.16.17-.3.35-.41.52h3.86Z"/>
  <path id="mb86ea4a39e2" data-name="mb86ea4a39e" class="st6" d="M98.44,248.4h-3.5"/>
  <path id="ArialMT-531" data-name="ArialMT-53" d="M32,244.78l.98-.09c.05.39.16.72.32.97.17.25.43.46.79.61.36.16.76.23,1.21.23.4,0,.75-.06,1.05-.18.3-.12.53-.28.68-.48.15-.21.22-.43.22-.68s-.07-.46-.21-.65-.38-.34-.71-.47c-.21-.08-.68-.21-1.4-.38-.72-.17-1.23-.34-1.52-.49-.38-.2-.66-.44-.84-.73-.18-.29-.27-.62-.27-.98,0-.4.11-.77.34-1.11.23-.35.56-.61.99-.79.43-.18.92-.27,1.45-.27.58,0,1.1.09,1.54.28.45.19.79.46,1.03.83.24.36.37.78.39,1.24l-1,.08c-.05-.5-.24-.87-.55-1.13-.31-.25-.77-.38-1.37-.38s-1.09.12-1.38.35c-.29.23-.43.51-.43.83,0,.28.1.52.31.7.2.18.72.37,1.57.56.85.19,1.43.36,1.74.5.46.21.8.48,1.01.8.22.32.33.7.33,1.12s-.12.81-.36,1.19c-.24.37-.58.66-1.03.86-.45.21-.95.31-1.52.31-.71,0-1.31-.1-1.79-.31-.48-.21-.86-.52-1.13-.94-.27-.42-.42-.89-.43-1.42Z"/>
  <path id="ArialMT-681" data-name="ArialMT-68" d="M39.57,247.31v-7.87h.97v2.82c.45-.52,1.02-.78,1.71-.78.42,0,.79.08,1.1.25.31.17.53.4.67.69s.2.72.2,1.28v3.61h-.97v-3.61c0-.48-.1-.84-.31-1.06s-.51-.33-.89-.33c-.29,0-.56.07-.81.22-.25.15-.43.35-.54.6-.11.25-.16.6-.16,1.05v3.12h-.97Z"/>
  <path id="ArialMT-612" data-name="ArialMT-61" d="M49.41,246.61c-.36.3-.7.52-1.03.64-.33.12-.69.19-1.07.19-.63,0-1.11-.15-1.45-.46s-.51-.7-.51-1.17c0-.28.06-.53.19-.76.13-.23.29-.42.5-.56s.44-.25.7-.32c.19-.05.48-.1.86-.15.78-.09,1.35-.2,1.72-.33,0-.13,0-.22,0-.25,0-.39-.09-.67-.27-.83-.25-.22-.61-.33-1.1-.33-.45,0-.79.08-1.01.24s-.38.44-.48.85l-.95-.13c.09-.4.23-.73.42-.98.2-.25.48-.44.85-.57.37-.14.8-.2,1.29-.2s.88.06,1.19.17c.3.11.53.26.67.43.14.17.24.39.3.66.03.16.05.46.05.89v1.29c0,.9.02,1.47.06,1.71.04.24.12.47.25.68h-1.01c-.1-.2-.16-.43-.19-.7ZM49.33,244.45c-.35.14-.88.27-1.58.37-.4.06-.68.12-.84.19-.16.07-.29.18-.38.31-.09.14-.13.29-.13.46,0,.26.1.47.29.64.2.17.48.26.86.26s.7-.08.99-.24c.29-.16.5-.39.64-.67.1-.22.16-.54.16-.97v-.36Z"/>
  <path id="ArialMT-682" data-name="ArialMT-68" d="M51.8,247.31v-7.87h.97v2.82c.45-.52,1.02-.78,1.71-.78.42,0,.79.08,1.1.25.31.17.53.4.67.69s.2.72.2,1.28v3.61h-.97v-3.61c0-.48-.1-.84-.31-1.06s-.51-.33-.89-.33c-.29,0-.56.07-.81.22-.25.15-.43.35-.54.6-.11.25-.16.6-.16,1.05v3.12h-.97Z"/>
  <path id="ArialMT-652" data-name="ArialMT-65" d="M61.82,245.47l1,.12c-.16.58-.45,1.04-.87,1.36-.43.32-.97.48-1.63.48-.83,0-1.5-.26-1.99-.77-.49-.51-.73-1.24-.73-2.16s.25-1.7.74-2.23c.49-.53,1.14-.8,1.92-.8s1.39.26,1.87.78.73,1.25.73,2.19c0,.06,0,.14,0,.26h-4.25c.04.63.21,1.11.53,1.44.32.33.72.5,1.19.5.35,0,.66-.09.91-.28.25-.19.45-.48.6-.89ZM58.65,243.91h3.18c-.04-.48-.16-.84-.36-1.08-.31-.37-.71-.56-1.2-.56-.44,0-.82.15-1.12.45s-.47.69-.5,1.19Z"/>
  <path id="ArialMT-641" data-name="ArialMT-64" d="M67.74,247.31v-.72c-.36.57-.89.85-1.59.85-.45,0-.87-.13-1.25-.38s-.68-.6-.89-1.05c-.21-.45-.31-.97-.31-1.55s.09-1.09.28-1.55c.19-.46.47-.82.85-1.07.38-.25.8-.37,1.27-.37.34,0,.65.07.92.22.27.14.49.33.66.57v-2.82h.96v7.87h-.9ZM64.68,244.46c0,.73.15,1.28.46,1.64.31.36.67.54,1.09.54s.78-.17,1.08-.52c.3-.35.44-.87.44-1.58,0-.78-.15-1.35-.45-1.72-.3-.37-.67-.55-1.11-.55s-.79.18-1.08.53c-.29.35-.43.9-.43,1.66Z"/>
  <path id="ArialMT-2d2" data-name="ArialMT-2d" d="M69.78,244.95v-.97h2.97v.97h-2.97Z"/>
  <path id="ArialMT-318" data-name="ArialMT-31" d="M77.19,247.31h-.97v-6.16c-.23.22-.54.44-.92.67s-.72.39-1.02.5v-.93c.54-.25,1.01-.56,1.42-.92.4-.36.69-.71.86-1.05h.62v7.91Z"/>
  <path id="ArialMT-332" data-name="ArialMT-33" d="M79.67,245.23l.97-.13c.11.55.3.94.57,1.18.27.24.59.36.97.36.45,0,.84-.16,1.15-.47.31-.32.47-.71.47-1.17s-.14-.81-.43-1.1c-.29-.29-.66-.43-1.11-.43-.18,0-.41.04-.68.11l.11-.85c.06,0,.12.01.15.01.41,0,.78-.11,1.11-.32.33-.22.49-.55.49-1,0-.35-.12-.65-.36-.88-.24-.23-.55-.35-.93-.35s-.69.12-.94.36c-.25.24-.41.59-.48,1.06l-.97-.17c.12-.65.39-1.15.8-1.51.42-.36.94-.53,1.56-.53.43,0,.82.09,1.19.28.36.18.64.44.83.75.19.32.29.66.29,1.02,0,.34-.09.65-.27.93-.18.28-.45.5-.81.67.47.11.83.33,1.08.67.26.34.39.76.39,1.27,0,.69-.25,1.27-.75,1.75-.5.48-1.13.72-1.9.72-.69,0-1.26-.21-1.72-.62-.46-.41-.72-.95-.78-1.6Z"/>
  <path id="ArialMT-36" d="M90.8,241.37l-.96.07c-.09-.38-.21-.65-.36-.83-.26-.28-.58-.41-.97-.41-.31,0-.58.09-.81.26-.3.22-.54.55-.72.97-.18.43-.27,1.03-.27,1.82.23-.35.52-.62.85-.79s.69-.26,1.06-.26c.64,0,1.19.24,1.64.71.45.47.68,1.09.68,1.84,0,.49-.11.95-.32,1.38-.21.42-.51.75-.88.97-.37.23-.8.34-1.27.34-.81,0-1.46-.3-1.97-.89-.51-.59-.76-1.57-.76-2.93,0-1.52.28-2.63.84-3.32.49-.6,1.15-.9,1.98-.9.62,0,1.13.17,1.52.52.4.35.63.83.71,1.44ZM86.85,244.76c0,.33.07.65.21.96.14.3.34.54.59.7.25.16.52.24.8.24.41,0,.76-.16,1.05-.49.29-.33.44-.78.44-1.34s-.15-.97-.44-1.29c-.29-.31-.65-.47-1.09-.47s-.81.16-1.11.47c-.3.31-.46.72-.46,1.23Z"/>
  <path id="ArialMT-762" data-name="ArialMT-76" d="M47.9,258.95l-2.17-5.7h1.02l1.23,3.42c.13.37.25.75.36,1.15.09-.3.21-.66.36-1.08l1.27-3.48h.99l-2.16,5.7h-.9Z"/>
  <path id="ArialMT-732" data-name="ArialMT-73" d="M51.43,257.24l.96-.15c.05.38.2.68.45.88.25.2.59.31,1.03.31s.77-.09.99-.27c.22-.18.32-.39.32-.64,0-.22-.1-.39-.29-.52-.13-.09-.46-.19-.99-.33-.71-.18-1.2-.34-1.47-.47s-.48-.31-.62-.54c-.14-.23-.21-.49-.21-.77,0-.25.06-.49.17-.7.12-.22.28-.4.48-.54.15-.11.35-.2.61-.28.26-.08.54-.12.84-.12.45,0,.84.06,1.18.19.34.13.59.3.75.52.16.22.27.51.33.88l-.95.13c-.04-.29-.17-.52-.37-.69-.21-.16-.5-.25-.87-.25-.44,0-.76.07-.95.22-.19.15-.29.32-.29.52,0,.12.04.24.12.34.08.1.2.19.37.26.1.04.38.12.85.25.68.18,1.16.33,1.43.45.27.12.48.28.64.51.15.22.23.5.23.83s-.09.63-.28.91c-.19.28-.46.5-.81.66-.35.16-.75.23-1.2.23-.74,0-1.31-.15-1.69-.46-.39-.31-.64-.76-.74-1.37Z"/>
  <path id="ArialMT-205" data-name="ArialMT-20" d="M56.59,258.95"/>
  <path id="ArialMT-502" data-name="ArialMT-50" d="M60.5,258.95v-7.87h2.97c.52,0,.92.02,1.2.07.39.07.71.19.97.37.26.18.47.43.63.76.16.33.24.68.24,1.07,0,.67-.21,1.24-.64,1.7-.43.46-1.2.69-2.31.69h-2.02v3.2h-1.04ZM61.54,254.82h2.03c.67,0,1.15-.13,1.44-.38s.42-.6.42-1.06c0-.33-.08-.61-.25-.84-.17-.23-.38-.39-.66-.47-.18-.05-.5-.07-.97-.07h-2.01v2.82Z"/>
  <path id="ArialMT-613" data-name="ArialMT-61" d="M71.44,258.24c-.36.3-.7.52-1.03.64-.33.12-.69.19-1.07.19-.63,0-1.11-.15-1.45-.46s-.51-.7-.51-1.17c0-.28.06-.53.19-.76.13-.23.29-.42.5-.56s.44-.25.7-.32c.19-.05.48-.1.86-.15.78-.09,1.35-.2,1.72-.33,0-.13,0-.22,0-.25,0-.39-.09-.67-.27-.83-.25-.22-.61-.33-1.1-.33-.45,0-.79.08-1.01.24s-.38.44-.48.85l-.95-.13c.09-.4.23-.73.42-.98.2-.25.48-.44.85-.57.37-.14.8-.2,1.29-.2s.88.06,1.19.17c.3.11.53.26.67.43.14.17.24.39.3.66.03.16.05.46.05.89v1.29c0,.9.02,1.47.06,1.71.04.24.12.47.25.68h-1.01c-.1-.2-.16-.43-.19-.7ZM71.35,256.08c-.35.14-.88.27-1.58.37-.4.06-.68.12-.84.19-.16.07-.29.18-.38.31-.09.14-.13.29-.13.46,0,.26.1.47.29.64.2.17.48.26.86.26s.7-.08.99-.24c.29-.16.5-.39.64-.67.1-.22.16-.54.16-.97v-.36Z"/>
  <path id="ArialMT-741" data-name="ArialMT-74" d="M75.94,258.08l.14.85c-.27.06-.52.09-.73.09-.35,0-.62-.06-.82-.17-.19-.11-.33-.26-.41-.44-.08-.18-.12-.56-.12-1.14v-3.28h-.71v-.75h.71v-1.41l.96-.58v1.99h.97v.75h-.97v3.33c0,.28.02.45.05.53.03.08.09.14.17.19.08.05.19.07.33.07.11,0,.25-.01.42-.04Z"/>
  <path id="ArialMT-721" data-name="ArialMT-72" d="M76.88,258.95v-5.7h.87v.86c.22-.4.43-.67.62-.8.19-.13.39-.19.62-.19.33,0,.66.1.99.31l-.33.9c-.24-.14-.47-.21-.71-.21-.21,0-.4.06-.57.19s-.29.3-.36.53c-.11.34-.16.72-.16,1.13v2.99h-.97Z"/>
  <path id="ArialMT-691" data-name="ArialMT-69" d="M80.55,252.18v-1.11h.97v1.11h-.97ZM80.55,258.95v-5.7h.97v5.7h-.97Z"/>
  <path id="ArialMT-6f1" data-name="ArialMT-6f" d="M82.63,256.09c0-1.06.29-1.84.88-2.35.49-.42,1.09-.63,1.79-.63.78,0,1.42.26,1.92.77.5.51.75,1.22.75,2.13,0,.73-.11,1.31-.33,1.73-.22.42-.54.75-.96.98-.42.23-.88.35-1.38.35-.8,0-1.44-.26-1.94-.77-.49-.51-.74-1.25-.74-2.21ZM83.63,256.09c0,.73.16,1.28.48,1.64.32.36.72.54,1.2.54s.88-.18,1.2-.55c.32-.37.48-.92.48-1.67,0-.71-.16-1.24-.48-1.6s-.72-.54-1.19-.54-.88.18-1.2.54c-.32.36-.48.91-.48,1.64Z"/>
  <path id="ArialMT-742" data-name="ArialMT-74" d="M91.22,258.08l.14.85c-.27.06-.52.09-.73.09-.35,0-.62-.06-.82-.17-.19-.11-.33-.26-.41-.44-.08-.18-.12-.56-.12-1.14v-3.28h-.71v-.75h.71v-1.41l.96-.58v1.99h.97v.75h-.97v3.33c0,.28.02.45.05.53.03.08.09.14.17.19.08.05.19.07.33.07.11,0,.25-.01.42-.04Z"/>
  <path id="mb86ea4a39e3" data-name="mb86ea4a39e" class="st6" d="M98.44,327.01h-3.5"/>
  <path id="ArialMT-421" data-name="ArialMT-42" d="M48.23,325.92v-7.87h2.95c.6,0,1.08.08,1.45.24s.65.4.85.74c.21.33.31.68.31,1.04,0,.34-.09.65-.27.95-.18.3-.46.54-.83.72.48.14.84.38,1.1.71.26.34.38.73.38,1.19,0,.37-.08.71-.23,1.03-.16.32-.35.56-.58.73s-.52.3-.86.39c-.34.09-.77.13-1.27.13h-3ZM49.27,321.35h1.7c.46,0,.79-.03.99-.09.26-.08.46-.21.6-.39.13-.18.2-.41.2-.69,0-.26-.06-.49-.19-.69-.12-.2-.3-.34-.54-.41-.23-.07-.63-.11-1.2-.11h-1.57v2.38ZM49.27,324.99h1.96c.34,0,.57-.01.71-.04.24-.04.44-.11.6-.21.16-.1.29-.25.4-.44.1-.19.16-.41.16-.66,0-.29-.08-.55-.23-.76-.15-.22-.36-.37-.63-.46-.27-.09-.65-.13-1.15-.13h-1.82v2.71Z"/>
  <path id="ArialMT-722" data-name="ArialMT-72" d="M55.48,325.92v-5.7h.87v.86c.22-.4.43-.67.62-.8.19-.13.39-.19.62-.19.33,0,.66.1.99.31l-.33.9c-.24-.14-.47-.21-.71-.21-.21,0-.4.06-.57.19s-.29.3-.36.53c-.11.34-.16.72-.16,1.13v2.99h-.97Z"/>
  <path id="ArialMT-614" data-name="ArialMT-61" d="M62.87,325.22c-.36.3-.7.52-1.03.64-.33.12-.69.19-1.07.19-.63,0-1.11-.15-1.45-.46s-.51-.7-.51-1.17c0-.28.06-.53.19-.76.13-.23.29-.42.5-.56s.44-.25.7-.32c.19-.05.48-.1.86-.15.78-.09,1.35-.2,1.72-.33,0-.13,0-.22,0-.25,0-.39-.09-.67-.27-.83-.25-.22-.61-.33-1.1-.33-.45,0-.79.08-1.01.24s-.38.44-.48.85l-.95-.13c.09-.4.23-.73.42-.98.2-.25.48-.44.85-.57.37-.14.8-.2,1.29-.2s.88.06,1.19.17c.3.11.53.26.67.43.14.17.24.39.3.66.03.16.05.46.05.89v1.29c0,.9.02,1.47.06,1.71.04.24.12.47.25.68h-1.01c-.1-.2-.16-.43-.19-.7ZM62.79,323.05c-.35.14-.88.27-1.58.37-.4.06-.68.12-.84.19-.16.07-.29.18-.38.31-.09.14-.13.29-.13.46,0,.26.1.47.29.64.2.17.48.26.86.26s.7-.08.99-.24c.29-.16.5-.39.64-.67.1-.22.16-.54.16-.97v-.36Z"/>
  <path id="ArialMT-683" data-name="ArialMT-68" d="M65.27,325.92v-7.87h.97v2.82c.45-.52,1.02-.78,1.71-.78.42,0,.79.08,1.1.25.31.17.53.4.67.69s.2.72.2,1.28v3.61h-.97v-3.61c0-.48-.1-.84-.31-1.06s-.51-.33-.89-.33c-.29,0-.56.07-.81.22-.25.15-.43.35-.54.6-.11.25-.16.6-.16,1.05v3.12h-.97Z"/>
  <path id="ArialMT-4d1" data-name="ArialMT-4d" d="M71.48,325.92v-7.87h1.57l1.86,5.57c.17.52.3.91.38,1.17.09-.29.23-.71.42-1.26l1.89-5.48h1.4v7.87h-1v-6.59l-2.29,6.59h-.94l-2.28-6.7v6.7h-1Z"/>
  <path id="ArialMT-6f2" data-name="ArialMT-6f" d="M80.19,323.07c0-1.06.29-1.84.88-2.35.49-.42,1.09-.63,1.79-.63.78,0,1.42.26,1.92.77.5.51.75,1.22.75,2.13,0,.73-.11,1.31-.33,1.73-.22.42-.54.75-.96.98-.42.23-.88.35-1.38.35-.8,0-1.44-.26-1.94-.77-.49-.51-.74-1.25-.74-2.21ZM81.18,323.07c0,.73.16,1.28.48,1.64.32.36.72.54,1.2.54s.88-.18,1.2-.55c.32-.37.48-.92.48-1.67,0-.71-.16-1.24-.48-1.6s-.72-.54-1.19-.54-.88.18-1.2.54c-.32.36-.48.91-.48,1.64Z"/>
  <path id="ArialMT-733" data-name="ArialMT-73" d="M86.28,324.22l.96-.15c.05.38.2.68.45.88.25.2.59.31,1.03.31s.77-.09.99-.27c.22-.18.32-.39.32-.64,0-.22-.1-.39-.29-.52-.13-.09-.46-.19-.99-.33-.71-.18-1.2-.34-1.47-.47s-.48-.31-.62-.54c-.14-.23-.21-.49-.21-.77,0-.25.06-.49.17-.7.12-.22.28-.4.48-.54.15-.11.35-.2.61-.28.26-.08.54-.12.84-.12.45,0,.84.06,1.18.19.34.13.59.3.75.52.16.22.27.51.33.88l-.95.13c-.04-.29-.17-.52-.37-.69-.21-.16-.5-.25-.87-.25-.44,0-.76.07-.95.22-.19.15-.29.32-.29.52,0,.12.04.24.12.34.08.1.2.19.37.26.1.04.38.12.85.25.68.18,1.16.33,1.43.45.27.12.48.28.64.51.15.22.23.5.23.83s-.09.63-.28.91c-.19.28-.46.5-.81.66-.35.16-.75.23-1.2.23-.74,0-1.31-.15-1.69-.46-.39-.31-.64-.76-.74-1.37Z"/>
  <path id="ArialMT-763" data-name="ArialMT-76" d="M44.84,337.55l-2.17-5.7h1.02l1.23,3.42c.13.37.25.75.36,1.15.09-.3.21-.66.36-1.08l1.27-3.48h.99l-2.16,5.7h-.9Z"/>
  <path id="ArialMT-734" data-name="ArialMT-73" d="M48.37,335.85l.96-.15c.05.38.2.68.45.88.25.2.59.31,1.03.31s.77-.09.99-.27c.22-.18.32-.39.32-.64,0-.22-.1-.39-.29-.52-.13-.09-.46-.19-.99-.33-.71-.18-1.2-.34-1.47-.47s-.48-.31-.62-.54c-.14-.23-.21-.49-.21-.77,0-.25.06-.49.17-.7.12-.22.28-.4.48-.54.15-.11.35-.2.61-.28.26-.08.54-.12.84-.12.45,0,.84.06,1.18.19.34.13.59.3.75.52.16.22.27.51.33.88l-.95.13c-.04-.29-.17-.52-.37-.69-.21-.16-.5-.25-.87-.25-.44,0-.76.07-.95.22-.19.15-.29.32-.29.52,0,.12.04.24.12.34.08.1.2.19.37.26.1.04.38.12.85.25.68.18,1.16.33,1.43.45.27.12.48.28.64.51.15.22.23.5.23.83s-.09.63-.28.91c-.19.28-.46.5-.81.66-.35.16-.75.23-1.2.23-.74,0-1.31-.15-1.69-.46-.39-.31-.64-.76-.74-1.37Z"/>
  <path id="ArialMT-206" data-name="ArialMT-20" d="M53.53,337.55"/>
  <path id="ArialMT-422" data-name="ArialMT-42" d="M57.4,337.55v-7.87h2.95c.6,0,1.08.08,1.45.24s.65.4.85.74c.21.33.31.68.31,1.04,0,.34-.09.65-.27.95-.18.3-.46.54-.83.72.48.14.84.38,1.1.71.26.34.38.73.38,1.19,0,.37-.08.71-.23,1.03-.16.32-.35.56-.58.73s-.52.3-.86.39c-.34.09-.77.13-1.27.13h-3ZM58.44,332.99h1.7c.46,0,.79-.03.99-.09.26-.08.46-.21.6-.39.13-.18.2-.41.2-.69,0-.26-.06-.49-.19-.69-.12-.2-.3-.34-.54-.41-.23-.07-.63-.11-1.2-.11h-1.57v2.38ZM58.44,336.62h1.96c.34,0,.57-.01.71-.04.24-.04.44-.11.6-.21.16-.1.29-.25.4-.44.1-.19.16-.41.16-.66,0-.29-.08-.55-.23-.76-.15-.22-.36-.37-.63-.46-.27-.09-.65-.13-1.15-.13h-1.82v2.71Z"/>
  <path id="ArialMT-75" d="M68.39,337.55v-.84c-.44.65-1.05.97-1.81.97-.34,0-.65-.06-.94-.19-.29-.13-.51-.29-.65-.49-.14-.2-.24-.44-.3-.72-.04-.19-.06-.49-.06-.9v-3.53h.97v3.16c0,.5.02.84.06,1.02.06.25.19.45.39.6.2.15.44.22.73.22s.56-.07.82-.22c.25-.15.43-.35.54-.61.11-.26.16-.63.16-1.12v-3.06h.97v5.7h-.86Z"/>
  <path id="ArialMT-6e2" data-name="ArialMT-6e" d="M70.77,337.55v-5.7h.87v.81c.42-.63,1.02-.94,1.81-.94.34,0,.66.06.95.19s.5.29.65.49.24.44.3.71c.04.18.05.49.05.94v3.51h-.97v-3.47c0-.39-.04-.69-.11-.88-.07-.19-.21-.35-.4-.47-.19-.12-.42-.18-.67-.18-.41,0-.77.13-1.07.39s-.45.76-.45,1.49v3.12h-.97Z"/>
  <path id="ArialMT-6b1" data-name="ArialMT-6b" d="M76.89,337.55v-7.87h.97v4.49l2.29-2.32h1.25l-2.18,2.12,2.4,3.59h-1.19l-1.89-2.92-.68.65v2.26h-.97Z"/>
  <path id="ArialMT-653" data-name="ArialMT-65" d="M86.29,335.72l1,.12c-.16.58-.45,1.04-.87,1.36-.43.32-.97.48-1.63.48-.83,0-1.5-.26-1.99-.77-.49-.51-.73-1.24-.73-2.16s.25-1.7.74-2.23c.49-.53,1.14-.8,1.92-.8s1.39.26,1.87.78.73,1.25.73,2.19c0,.06,0,.14,0,.26h-4.25c.04.63.21,1.11.53,1.44.32.33.72.5,1.19.5.35,0,.66-.09.91-.28.25-.19.45-.48.6-.89ZM83.12,334.15h3.18c-.04-.48-.16-.84-.36-1.08-.31-.37-.71-.56-1.2-.56-.44,0-.82.15-1.12.45s-.47.69-.5,1.19Z"/>
  <path id="ArialMT-723" data-name="ArialMT-72" d="M88.49,337.55v-5.7h.87v.86c.22-.4.43-.67.62-.8.19-.13.39-.19.62-.19.33,0,.66.1.99.31l-.33.9c-.24-.14-.47-.21-.71-.21-.21,0-.4.06-.57.19s-.29.3-.36.53c-.11.34-.16.72-.16,1.13v2.99h-.97Z"/>
  <path id="mb86ea4a39e4" data-name="mb86ea4a39e" class="st6" d="M98.44,405.62h-3.5"/>
  <path id="ArialMT-4c" d="M39.69,404.53v-7.87h1.04v6.94h3.88v.93h-4.92Z"/>
  <path id="ArialMT-4d2" data-name="ArialMT-4d" d="M45.81,404.53v-7.87h1.57l1.86,5.57c.17.52.3.91.38,1.17.09-.29.23-.71.42-1.26l1.89-5.48h1.4v7.87h-1v-6.59l-2.29,6.59h-.94l-2.28-6.7v6.7h-1Z"/>
  <path id="ArialMT-207" data-name="ArialMT-20" d="M54.16,404.53"/>
  <path id="ArialMT-532" data-name="ArialMT-53" d="M57.71,402l.98-.09c.05.39.16.72.32.97.17.25.43.46.79.61.36.16.76.23,1.21.23.4,0,.75-.06,1.05-.18.3-.12.53-.28.68-.48.15-.21.22-.43.22-.68s-.07-.46-.21-.65-.38-.34-.71-.47c-.21-.08-.68-.21-1.4-.38-.72-.17-1.23-.34-1.52-.49-.38-.2-.66-.44-.84-.73-.18-.29-.27-.62-.27-.98,0-.4.11-.77.34-1.11.23-.35.56-.61.99-.79.43-.18.92-.27,1.45-.27.58,0,1.1.09,1.54.28.45.19.79.46,1.03.83.24.36.37.78.39,1.24l-1,.08c-.05-.5-.24-.87-.55-1.13-.31-.25-.77-.38-1.37-.38s-1.09.12-1.38.35c-.29.23-.43.51-.43.83,0,.28.1.52.31.7.2.18.72.37,1.57.56.85.19,1.43.36,1.74.5.46.21.8.48,1.01.8.22.32.33.7.33,1.12s-.12.81-.36,1.19c-.24.37-.58.66-1.03.86-.45.21-.95.31-1.52.31-.71,0-1.31-.1-1.79-.31-.48-.21-.86-.52-1.13-.94-.27-.42-.42-.89-.43-1.42Z"/>
  <path id="ArialMT-771" data-name="ArialMT-77" d="M66.33,404.53l-1.74-5.7h1l.91,3.29.34,1.22c.01-.06.11-.45.3-1.18l.91-3.34h.99l.85,3.31.29,1.09.33-1.1.98-3.3h.94l-1.78,5.7h-1l-.91-3.42-.22-.97-1.15,4.39h-1.01Z"/>
  <path id="ArialMT-615" data-name="ArialMT-61" d="M76.95,403.82c-.36.3-.7.52-1.03.64-.33.12-.69.19-1.07.19-.63,0-1.11-.15-1.45-.46s-.51-.7-.51-1.17c0-.28.06-.53.19-.76.13-.23.29-.42.5-.56s.44-.25.7-.32c.19-.05.48-.1.86-.15.78-.09,1.35-.2,1.72-.33,0-.13,0-.22,0-.25,0-.39-.09-.67-.27-.83-.25-.22-.61-.33-1.1-.33-.45,0-.79.08-1.01.24s-.38.44-.48.85l-.95-.13c.09-.4.23-.73.42-.98.2-.25.48-.44.85-.57.37-.14.8-.2,1.29-.2s.88.06,1.19.17c.3.11.53.26.67.43.14.17.24.39.3.66.03.16.05.46.05.89v1.29c0,.9.02,1.47.06,1.71.04.24.12.47.25.68h-1.01c-.1-.2-.16-.43-.19-.7ZM76.87,401.66c-.35.14-.88.27-1.58.37-.4.06-.68.12-.84.19-.16.07-.29.18-.38.31-.09.14-.13.29-.13.46,0,.26.1.47.29.64.2.17.48.26.86.26s.7-.08.99-.24c.29-.16.5-.39.64-.67.1-.22.16-.54.16-.97v-.36Z"/>
  <path id="ArialMT-724" data-name="ArialMT-72" d="M79.33,404.53v-5.7h.87v.86c.22-.4.43-.67.62-.8.19-.13.39-.19.62-.19.33,0,.66.1.99.31l-.33.9c-.24-.14-.47-.21-.71-.21-.21,0-.4.06-.57.19s-.29.3-.36.53c-.11.34-.16.72-.16,1.13v2.99h-.97Z"/>
  <path id="ArialMT-6d" d="M83,404.53v-5.7h.86v.8c.18-.28.42-.5.71-.67.3-.17.64-.26,1.02-.26.42,0,.77.09,1.04.26s.46.42.57.74c.45-.67,1.04-1,1.76-1,.57,0,1,.16,1.3.47.3.31.46.8.46,1.45v3.92h-.96v-3.59c0-.39-.03-.66-.09-.83-.06-.17-.18-.31-.34-.41-.16-.1-.36-.16-.58-.16-.4,0-.73.13-1,.4-.26.27-.4.69-.4,1.28v3.31h-.97v-3.71c0-.43-.08-.75-.24-.97-.16-.22-.41-.32-.77-.32-.27,0-.52.07-.75.21-.23.14-.4.35-.5.63-.1.27-.16.67-.16,1.19v2.96h-.97Z"/>
  <path id="ArialMT-764" data-name="ArialMT-76" d="M33.85,416.16l-2.17-5.7h1.02l1.23,3.42c.13.37.25.75.36,1.15.09-.3.21-.66.36-1.08l1.27-3.48h.99l-2.16,5.7h-.9Z"/>
  <path id="ArialMT-735" data-name="ArialMT-73" d="M37.37,414.46l.96-.15c.05.38.2.68.45.88.25.2.59.31,1.03.31s.77-.09.99-.27c.22-.18.32-.39.32-.64,0-.22-.1-.39-.29-.52-.13-.09-.46-.19-.99-.33-.71-.18-1.2-.34-1.47-.47s-.48-.31-.62-.54c-.14-.23-.21-.49-.21-.77,0-.25.06-.49.17-.7.12-.22.28-.4.48-.54.15-.11.35-.2.61-.28.26-.08.54-.12.84-.12.45,0,.84.06,1.18.19.34.13.59.3.75.52.16.22.27.51.33.88l-.95.13c-.04-.29-.17-.52-.37-.69-.21-.16-.5-.25-.87-.25-.44,0-.76.07-.95.22-.19.15-.29.32-.29.52,0,.12.04.24.12.34.08.1.2.19.37.26.1.04.38.12.85.25.68.18,1.16.33,1.43.45.27.12.48.28.64.51.15.22.23.5.23.83s-.09.63-.28.91c-.19.28-.46.5-.81.66-.35.16-.75.23-1.2.23-.74,0-1.31-.15-1.69-.46-.39-.31-.64-.76-.74-1.37Z"/>
  <path id="ArialMT-208" data-name="ArialMT-20" d="M42.54,416.16"/>
  <path id="ArialMT-533" data-name="ArialMT-53" d="M46.09,413.63l.98-.09c.05.39.16.72.32.97.17.25.43.46.79.61.36.16.76.23,1.21.23.4,0,.75-.06,1.05-.18.3-.12.53-.28.68-.48.15-.21.22-.43.22-.68s-.07-.46-.21-.65-.38-.34-.71-.47c-.21-.08-.68-.21-1.4-.38-.72-.17-1.23-.34-1.52-.49-.38-.2-.66-.44-.84-.73-.18-.29-.27-.62-.27-.98,0-.4.11-.77.34-1.11.23-.35.56-.61.99-.79.43-.18.92-.27,1.45-.27.58,0,1.1.09,1.54.28.45.19.79.46,1.03.83.24.36.37.78.39,1.24l-1,.08c-.05-.5-.24-.87-.55-1.13-.31-.25-.77-.38-1.37-.38s-1.09.12-1.38.35c-.29.23-.43.51-.43.83,0,.28.1.52.31.7.2.18.72.37,1.57.56.85.19,1.43.36,1.74.5.46.21.8.48,1.01.8.22.32.33.7.33,1.12s-.12.81-.36,1.19c-.24.37-.58.66-1.03.86-.45.21-.95.31-1.52.31-.71,0-1.31-.1-1.79-.31-.48-.21-.86-.52-1.13-.94-.27-.42-.42-.89-.43-1.42Z"/>
  <path id="ArialMT-41" d="M52.91,416.16l3.02-7.87h1.12l3.22,7.87h-1.19l-.92-2.39h-3.29l-.87,2.39h-1.11ZM55.19,412.93h2.67l-.82-2.18c-.25-.66-.44-1.21-.56-1.63-.1.51-.24,1.01-.42,1.5l-.86,2.31Z"/>
  <path id="ArialMT-4d3" data-name="ArialMT-4d" d="M61.08,416.16v-7.87h1.57l1.86,5.57c.17.52.3.91.38,1.17.09-.29.23-.71.42-1.26l1.89-5.48h1.4v7.87h-1v-6.59l-2.29,6.59h-.94l-2.28-6.7v6.7h-1Z"/>
  <path id="ArialMT-209" data-name="ArialMT-20" d="M69.43,416.16"/>
  <path id="ArialMT-534" data-name="ArialMT-53" d="M72.98,413.63l.98-.09c.05.39.16.72.32.97.17.25.43.46.79.61.36.16.76.23,1.21.23.4,0,.75-.06,1.05-.18.3-.12.53-.28.68-.48.15-.21.22-.43.22-.68s-.07-.46-.21-.65-.38-.34-.71-.47c-.21-.08-.68-.21-1.4-.38-.72-.17-1.23-.34-1.52-.49-.38-.2-.66-.44-.84-.73-.18-.29-.27-.62-.27-.98,0-.4.11-.77.34-1.11.23-.35.56-.61.99-.79.43-.18.92-.27,1.45-.27.58,0,1.1.09,1.54.28.45.19.79.46,1.03.83.24.36.37.78.39,1.24l-1,.08c-.05-.5-.24-.87-.55-1.13-.31-.25-.77-.38-1.37-.38s-1.09.12-1.38.35c-.29.23-.43.51-.43.83,0,.28.1.52.31.7.2.18.72.37,1.57.56.85.19,1.43.36,1.74.5.46.21.8.48,1.01.8.22.32.33.7.33,1.12s-.12.81-.36,1.19c-.24.37-.58.66-1.03.86-.45.21-.95.31-1.52.31-.71,0-1.31-.1-1.79-.31-.48-.21-.86-.52-1.13-.94-.27-.42-.42-.89-.43-1.42Z"/>
  <path id="ArialMT-692" data-name="ArialMT-69" d="M80.55,409.4v-1.11h.97v1.11h-.97ZM80.55,416.16v-5.7h.97v5.7h-.97Z"/>
  <path id="ArialMT-743" data-name="ArialMT-74" d="M85.1,415.3l.14.85c-.27.06-.52.09-.73.09-.35,0-.62-.06-.82-.17-.19-.11-.33-.26-.41-.44-.08-.18-.12-.56-.12-1.14v-3.28h-.71v-.75h.71v-1.41l.96-.58v1.99h.97v.75h-.97v3.33c0,.28.02.45.05.53.03.08.09.14.17.19.08.05.19.07.33.07.11,0,.25-.01.42-.04Z"/>
  <path id="ArialMT-654" data-name="ArialMT-65" d="M89.95,414.32l1,.12c-.16.58-.45,1.04-.87,1.36-.43.32-.97.48-1.63.48-.83,0-1.5-.26-1.99-.77-.49-.51-.73-1.24-.73-2.16s.25-1.7.74-2.23c.49-.53,1.14-.8,1.92-.8s1.39.26,1.87.78.73,1.25.73,2.19c0,.06,0,.14,0,.26h-4.25c.04.63.21,1.11.53,1.44.32.33.72.5,1.19.5.35,0,.66-.09.91-.28.25-.19.45-.48.6-.89ZM86.78,412.76h3.18c-.04-.48-.16-.84-.36-1.08-.31-.37-.71-.56-1.2-.56-.44,0-.82.15-1.12.45s-.47.69-.5,1.19Z"/>
  <path class="st4" d="M98.44,455.93V40.88"/>
  <path class="st4" d="M98.44,455.93h754.76"/>
  <path id="Arial-BoldMT-36" class="st17" d="M751.16,88.1l-1.46.16c-.04-.3-.13-.52-.28-.67-.15-.14-.34-.21-.58-.21-.32,0-.59.14-.81.43-.22.29-.36.88-.42,1.79.38-.44.84-.67,1.4-.67.63,0,1.17.24,1.62.72.45.48.67,1.1.67,1.86,0,.81-.24,1.45-.71,1.94-.47.49-1.08.73-1.82.73-.79,0-1.45-.31-1.96-.93-.51-.62-.77-1.63-.77-3.04s.27-2.48.8-3.12c.53-.64,1.23-.96,2.08-.96.6,0,1.09.17,1.48.5s.64.82.75,1.46ZM747.74,91.39c0,.49.11.87.34,1.14.23.27.48.4.77.4s.51-.11.7-.33c.19-.22.28-.58.28-1.08s-.1-.89-.3-1.12c-.2-.24-.45-.36-.75-.36s-.54.11-.74.34c-.2.23-.3.56-.3,1.01Z"/>
  <path id="Arial-BoldMT-30" class="st17" d="M754.71,86.13c.76,0,1.36.27,1.79.82.51.64.77,1.71.77,3.21s-.26,2.56-.77,3.21c-.43.54-1.02.81-1.78.81s-1.38-.29-1.85-.88c-.47-.59-.7-1.64-.7-3.15s.26-2.55.77-3.2c.43-.54,1.02-.81,1.78-.81ZM754.71,87.39c-.18,0-.34.06-.49.18-.14.12-.25.32-.33.63-.1.39-.15,1.05-.15,1.97s.05,1.56.14,1.9c.09.34.21.57.35.69.14.11.3.17.49.17s.35-.06.49-.17c.14-.12.25-.33.33-.63.1-.39.16-1.04.16-1.96s-.05-1.56-.14-1.9c-.09-.35-.21-.58-.35-.69-.14-.12-.3-.18-.49-.18Z"/>
  <path id="Arial-BoldMT-301" data-name="Arial-BoldMT-30" class="st17" d="M760.83,86.13c.76,0,1.36.27,1.79.82.51.64.77,1.71.77,3.21s-.26,2.56-.77,3.21c-.43.54-1.02.81-1.78.81s-1.38-.29-1.85-.88c-.47-.59-.7-1.64-.7-3.15s.26-2.55.77-3.2c.43-.54,1.02-.81,1.78-.81ZM760.83,87.39c-.18,0-.34.06-.49.18-.14.12-.25.32-.33.63-.1.39-.15,1.05-.15,1.97s.05,1.56.14,1.9c.09.34.21.57.35.69.14.11.3.17.49.17s.35-.06.49-.17c.14-.12.25-.33.33-.63.1-.39.16-1.04.16-1.96s-.05-1.56-.14-1.9c-.09-.35-.21-.58-.35-.69-.14-.12-.3-.18-.49-.18Z"/>
  <path id="Arial-BoldMT-302" data-name="Arial-BoldMT-30" class="st17" d="M766.95,86.13c.76,0,1.36.27,1.79.82.51.64.77,1.71.77,3.21s-.26,2.56-.77,3.21c-.43.54-1.02.81-1.78.81s-1.38-.29-1.85-.88c-.47-.59-.7-1.64-.7-3.15s.26-2.55.77-3.2c.43-.54,1.02-.81,1.78-.81ZM766.95,87.39c-.18,0-.34.06-.49.18-.14.12-.25.32-.33.63-.1.39-.15,1.05-.15,1.97s.05,1.56.14,1.9c.09.34.21.57.35.69.14.11.3.17.49.17s.35-.06.49-.17c.14-.12.25-.33.33-.63.1-.39.16-1.04.16-1.96s-.05-1.56-.14-1.9c-.09-.35-.21-.58-.35-.69-.14-.12-.3-.18-.49-.18Z"/>
  <path id="Arial-BoldMT-3a1" data-name="Arial-BoldMT-3a" class="st17" d="M771.13,89.84v-1.51h1.51v1.51h-1.51ZM771.13,94.04v-1.51h1.51v1.51h-1.51Z"/>
  <path id="Arial-BoldMT-31" class="st17" d="M778.04,94.04h-1.51v-5.69c-.55.52-1.2.9-1.95,1.14v-1.37c.39-.13.82-.37,1.28-.73.46-.36.78-.78.95-1.26h1.23v7.91Z"/>
  <path id="Arial-BoldMT-38" class="st15" d="M747.34,168.4c-.39-.16-.67-.39-.85-.68-.18-.29-.26-.6-.26-.95,0-.59.21-1.07.62-1.45.41-.38.99-.58,1.75-.58s1.33.19,1.74.58c.41.38.62.87.62,1.45,0,.37-.1.69-.29.98-.19.28-.46.5-.8.65.44.18.77.43,1,.77.23.34.34.73.34,1.17,0,.73-.23,1.32-.7,1.77-.46.45-1.08.68-1.85.68-.72,0-1.31-.19-1.79-.56-.56-.44-.84-1.05-.84-1.83,0-.43.11-.82.32-1.17.21-.36.55-.63,1-.82ZM747.65,166.88c0,.3.08.53.25.7.17.17.4.25.68.25s.52-.08.69-.25c.17-.17.26-.41.26-.71,0-.28-.09-.51-.26-.68-.17-.17-.39-.26-.67-.26s-.52.09-.69.26-.26.4-.26.68ZM747.51,170.25c0,.42.11.74.32.97s.48.35.8.35.57-.11.77-.34c.2-.22.31-.55.31-.97,0-.37-.1-.67-.31-.89-.21-.22-.47-.34-.79-.34-.37,0-.64.13-.82.38s-.27.53-.27.83Z"/>
  <path id="Arial-BoldMT-33" class="st15" d="M752.11,170.56l1.46-.18c.05.37.17.66.37.85.21.2.45.3.74.3.31,0,.57-.12.79-.35.21-.24.32-.56.32-.96,0-.38-.1-.68-.31-.9-.2-.22-.45-.33-.75-.33-.19,0-.42.04-.69.11l.17-1.23c.41.01.72-.08.93-.27.22-.19.32-.44.32-.75,0-.26-.08-.48-.24-.63-.16-.16-.37-.24-.63-.24s-.48.09-.66.27c-.18.18-.29.44-.33.78l-1.39-.24c.1-.48.24-.86.44-1.14.19-.29.47-.51.82-.67.35-.16.74-.24,1.17-.24.74,0,1.34.24,1.78.71.37.39.55.82.55,1.31,0,.69-.38,1.24-1.13,1.65.45.1.81.31,1.08.65.27.34.41.74.41,1.22,0,.69-.25,1.28-.76,1.77-.5.49-1.13.73-1.88.73-.71,0-1.3-.21-1.77-.62-.47-.41-.74-.95-.81-1.61Z"/>
  <path id="Arial-BoldMT-3a2" data-name="Arial-BoldMT-3a" class="st15" d="M758.89,168.45v-1.51h1.51v1.51h-1.51ZM758.89,172.65v-1.51h1.51v1.51h-1.51Z"/>
  <path id="Arial-BoldMT-311" data-name="Arial-BoldMT-31" class="st15" d="M765.81,172.65h-1.51v-5.69c-.55.52-1.2.9-1.95,1.14v-1.37c.39-.13.82-.37,1.28-.73.46-.36.78-.78.95-1.26h1.23v7.91Z"/>
  <path id="Arial-BoldMT-32" class="st13" d="M751.14,249.85v1.4h-5.29c.06-.53.23-1.03.52-1.51.29-.47.85-1.1,1.7-1.89.68-.63,1.1-1.06,1.25-1.29.21-.31.31-.62.31-.92,0-.34-.09-.59-.27-.78-.18-.18-.43-.27-.75-.27s-.57.1-.75.29c-.19.19-.29.5-.32.95l-1.5-.15c.09-.83.37-1.43.84-1.79.47-.36,1.06-.54,1.77-.54.78,0,1.39.21,1.83.63.44.42.67.94.67,1.56,0,.35-.06.69-.19,1.01s-.33.66-.6,1.01c-.18.23-.51.57-.99,1.01-.48.44-.78.73-.91.87-.13.14-.23.28-.31.42h3Z"/>
  <path id="Arial-BoldMT-303" data-name="Arial-BoldMT-30" class="st13" d="M754.71,243.35c.76,0,1.36.27,1.79.82.51.64.77,1.71.77,3.21s-.26,2.56-.77,3.21c-.43.54-1.02.81-1.78.81s-1.38-.29-1.85-.88c-.47-.59-.7-1.64-.7-3.15s.26-2.55.77-3.2c.43-.54,1.02-.81,1.78-.81ZM754.71,244.6c-.18,0-.34.06-.49.18-.14.12-.25.32-.33.63-.1.39-.15,1.05-.15,1.97s.05,1.56.14,1.9c.09.34.21.57.35.69.14.11.3.17.49.17s.35-.06.49-.17c.14-.12.25-.33.33-.63.1-.39.16-1.04.16-1.96s-.05-1.56-.14-1.9c-.09-.35-.21-.58-.35-.69-.14-.12-.3-.18-.49-.18Z"/>
  <path id="Arial-BoldMT-304" data-name="Arial-BoldMT-30" class="st13" d="M760.83,243.35c.76,0,1.36.27,1.79.82.51.64.77,1.71.77,3.21s-.26,2.56-.77,3.21c-.43.54-1.02.81-1.78.81s-1.38-.29-1.85-.88c-.47-.59-.7-1.64-.7-3.15s.26-2.55.77-3.2c.43-.54,1.02-.81,1.78-.81ZM760.83,244.6c-.18,0-.34.06-.49.18-.14.12-.25.32-.33.63-.1.39-.15,1.05-.15,1.97s.05,1.56.14,1.9c.09.34.21.57.35.69.14.11.3.17.49.17s.35-.06.49-.17c.14-.12.25-.33.33-.63.1-.39.16-1.04.16-1.96s-.05-1.56-.14-1.9c-.09-.35-.21-.58-.35-.69-.14-.12-.3-.18-.49-.18Z"/>
  <path id="Arial-BoldMT-3a3" data-name="Arial-BoldMT-3a" class="st13" d="M765.01,247.06v-1.51h1.51v1.51h-1.51ZM765.01,251.26v-1.51h1.51v1.51h-1.51Z"/>
  <path id="Arial-BoldMT-312" data-name="Arial-BoldMT-31" class="st13" d="M771.92,251.26h-1.51v-5.69c-.55.52-1.2.9-1.95,1.14v-1.37c.39-.13.82-.37,1.28-.73.46-.36.78-.78.95-1.26h1.23v7.91Z"/>
  <path id="Arial-BoldMT-313" data-name="Arial-BoldMT-31" class="st1" d="M749.91,329.86h-1.51v-5.69c-.55.52-1.2.9-1.95,1.14v-1.37c.39-.13.82-.37,1.28-.73.46-.36.78-.78.95-1.26h1.23v7.91Z"/>
  <path id="Arial-BoldMT-2e" class="st1" d="M752.49,329.86v-1.51h1.51v1.51h-1.51Z"/>
  <path id="Arial-BoldMT-37" class="st1" d="M755.22,323.5v-1.4h5.16v1.1c-.43.42-.86,1.02-1.3,1.8-.44.78-.78,1.62-1.01,2.5-.23.88-.34,1.67-.34,2.36h-1.45c.02-1.09.25-2.2.67-3.33.43-1.13.99-2.14,1.7-3.04h-3.43Z"/>
  <path id="Arial-BoldMT-3a4" data-name="Arial-BoldMT-3a" class="st1" d="M761.95,325.67v-1.51h1.51v1.51h-1.51ZM761.95,329.86v-1.51h1.51v1.51h-1.51Z"/>
  <path id="Arial-BoldMT-314" data-name="Arial-BoldMT-31" class="st1" d="M768.86,329.86h-1.51v-5.69c-.55.52-1.2.9-1.95,1.14v-1.37c.39-.13.82-.37,1.28-.73.46-.36.78-.78.95-1.26h1.23v7.91Z"/>
  <path id="Arial-BoldMT-315" data-name="Arial-BoldMT-31" class="st11" d="M749.91,408.47h-1.51v-5.69c-.55.52-1.2.9-1.95,1.14v-1.37c.39-.13.82-.37,1.28-.73.46-.36.78-.78.95-1.26h1.23v7.91Z"/>
  <path id="Arial-BoldMT-35" class="st11" d="M752.18,406.45l1.5-.16c.04.34.17.61.38.81.21.2.46.3.73.3.32,0,.58-.13.8-.38.22-.26.33-.64.33-1.16,0-.48-.11-.85-.33-1.09-.22-.24-.5-.36-.85-.36-.43,0-.82.19-1.17.58l-1.22-.18.77-4.1h3.99v1.41h-2.85l-.24,1.34c.34-.17.68-.25,1.03-.25.67,0,1.24.24,1.7.73.47.49.7,1.12.7,1.9,0,.65-.19,1.23-.56,1.74-.51.69-1.22,1.04-2.13,1.04-.73,0-1.32-.19-1.78-.58-.46-.39-.73-.92-.82-1.57Z"/>
  <path id="Arial-BoldMT-3a5" data-name="Arial-BoldMT-3a" class="st11" d="M758.89,404.27v-1.51h1.51v1.51h-1.51ZM758.89,408.47v-1.51h1.51v1.51h-1.51Z"/>
  <path id="Arial-BoldMT-316" data-name="Arial-BoldMT-31" class="st11" d="M765.81,408.47h-1.51v-5.69c-.55.52-1.2.9-1.95,1.14v-1.37c.39-.13.82-.37,1.28-.73.46-.36.78-.78.95-1.26h1.23v7.91Z"/>
  <path id="Arial-BoldMT-431" data-name="Arial-BoldMT-43" class="st17" d="M280.77,24.2l1.96.62c-.3,1.09-.8,1.91-1.5,2.44-.7.53-1.59.8-2.66.8-1.33,0-2.43-.45-3.28-1.36-.86-.91-1.28-2.15-1.28-3.73,0-1.67.43-2.96,1.29-3.89.86-.92,2-1.38,3.4-1.38,1.23,0,2.22.36,2.99,1.09.46.43.8,1.04,1.02,1.85l-2,.48c-.12-.52-.37-.93-.74-1.23-.37-.3-.83-.45-1.37-.45-.74,0-1.35.27-1.81.8-.46.53-.69,1.4-.69,2.59,0,1.27.23,2.17.68,2.71.46.54,1.05.81,1.78.81.54,0,1-.17,1.39-.51.39-.34.67-.88.84-1.61Z"/>
  <path id="Arial-BoldMT-6f2" data-name="Arial-BoldMT-6f" class="st17" d="M284.01,24.15c0-.64.16-1.26.47-1.85.32-.6.76-1.05,1.34-1.37.58-.32,1.22-.47,1.93-.47,1.1,0,2,.36,2.7,1.07s1.05,1.61,1.05,2.7-.35,2.01-1.06,2.73c-.71.72-1.6,1.08-2.68,1.08-.67,0-1.3-.15-1.9-.45-.6-.3-1.06-.74-1.38-1.32-.32-.58-.47-1.29-.47-2.12ZM285.98,24.25c0,.72.17,1.27.51,1.65.34.38.76.57,1.27.57s.92-.19,1.26-.57c.34-.38.51-.94.51-1.67s-.17-1.26-.51-1.64c-.34-.38-.76-.58-1.26-.58s-.92.19-1.27.58c-.34.38-.51.93-.51,1.65Z"/>
  <path id="Arial-BoldMT-731" data-name="Arial-BoldMT-73" class="st17" d="M292.33,25.81l1.93-.29c.08.37.25.66.5.85.25.19.6.29,1.05.29.5,0,.87-.09,1.12-.27.17-.13.25-.3.25-.51,0-.15-.05-.27-.14-.36-.09-.09-.31-.18-.64-.25-1.55-.34-2.53-.65-2.95-.94-.57-.39-.86-.94-.86-1.63,0-.63.25-1.16.74-1.59.5-.43,1.27-.64,2.31-.64s1.73.16,2.21.49c.48.32.82.8,1,1.44l-1.81.33c-.08-.28-.22-.5-.44-.65-.22-.15-.52-.23-.93-.23-.5,0-.87.07-1.09.21-.15.1-.22.23-.22.39,0,.14.06.25.19.35.17.13.77.31,1.79.54,1.02.23,1.74.52,2.14.85.4.34.6.82.6,1.43,0,.67-.28,1.24-.83,1.72-.56.48-1.38.72-2.47.72-.99,0-1.77-.2-2.35-.6-.58-.4-.95-.95-1.13-1.63Z"/>
  <path id="Arial-BoldMT-744" data-name="Arial-BoldMT-74" class="st17" d="M304.12,20.62v1.53h-1.31v2.93c0,.59.01.94.04,1.03.03.1.08.18.17.24s.2.1.32.1c.18,0,.44-.06.77-.19l.16,1.49c-.45.19-.95.29-1.52.29-.35,0-.66-.06-.94-.17-.28-.12-.48-.27-.61-.45-.13-.19-.22-.43-.27-.75-.04-.22-.06-.67-.06-1.35v-3.17h-.88v-1.53h.88v-1.44l1.93-1.12v2.56h1.31Z"/>
  <path id="Arial-BoldMT-2d1" data-name="Arial-BoldMT-2d" class="st17" d="M305.24,25.21v-1.92h3.77v1.92h-3.77Z"/>
  <path id="Arial-BoldMT-451" data-name="Arial-BoldMT-45" class="st17" d="M310.13,27.88v-10.02h7.43v1.7h-5.41v2.22h5.03v1.69h-5.03v2.73h5.6v1.69h-7.62Z"/>
  <path id="Arial-BoldMT-781" data-name="Arial-BoldMT-78" class="st17" d="M318.53,27.88l2.62-3.74-2.51-3.52h2.34l1.29,2,1.35-2h2.26l-2.46,3.44,2.69,3.82h-2.36l-1.48-2.25-1.49,2.25h-2.25Z"/>
  <path id="Arial-BoldMT-632" data-name="Arial-BoldMT-63" class="st17" d="M333.57,22.77l-1.89.34c-.06-.38-.21-.66-.44-.86s-.52-.29-.88-.29c-.48,0-.86.17-1.15.5-.28.33-.43.88-.43,1.66,0,.86.14,1.47.43,1.83.29.35.68.53,1.17.53.36,0,.66-.1.89-.31.23-.21.4-.56.49-1.07l1.89.32c-.2.87-.57,1.52-1.13,1.96-.56.44-1.3.66-2.24.66-1.06,0-1.91-.33-2.54-1-.63-.67-.95-1.6-.95-2.78s.32-2.13.95-2.8c.63-.67,1.49-1,2.57-1,.88,0,1.59.19,2.11.57s.9.96,1.12,1.74Z"/>
  <path id="Arial-BoldMT-681" data-name="Arial-BoldMT-68" class="st17" d="M336.94,17.86v3.68c.62-.72,1.36-1.09,2.22-1.09.44,0,.84.08,1.2.25.36.16.62.37.8.63.18.26.3.54.37.85.07.31.1.79.1,1.44v4.26h-1.92v-3.83c0-.76-.04-1.24-.11-1.45-.07-.21-.2-.37-.39-.49-.18-.12-.41-.18-.69-.18-.32,0-.6.08-.85.23-.25.15-.43.39-.55.7s-.18.77-.18,1.38v3.64h-1.92v-10.02h1.92Z"/>
  <path id="Arial-BoldMT-613" data-name="Arial-BoldMT-61" class="st17" d="M345.02,22.84l-1.74-.32c.2-.7.53-1.22,1.01-1.56.48-.34,1.19-.51,2.13-.51.86,0,1.5.1,1.91.3.42.2.72.46.89.77s.26.89.26,1.72l-.02,2.24c0,.64.03,1.11.09,1.41.06.3.18.63.35.97h-1.9c-.05-.13-.11-.32-.18-.57-.03-.12-.06-.19-.07-.23-.33.32-.68.56-1.05.72-.37.16-.77.24-1.2.24-.75,0-1.34-.2-1.77-.61-.43-.41-.65-.92-.65-1.54,0-.41.1-.78.29-1.1.2-.32.47-.57.82-.74.35-.17.86-.32,1.53-.45.9-.17,1.52-.33,1.87-.47v-.19c0-.37-.09-.63-.27-.79s-.53-.24-1.03-.24c-.34,0-.61.07-.8.2s-.35.37-.46.71ZM347.59,24.39c-.25.08-.64.18-1.17.3-.53.11-.88.23-1.05.33-.25.18-.38.4-.38.68s.1.5.3.7c.2.2.46.29.77.29.35,0,.68-.11.99-.34.23-.17.38-.39.46-.64.05-.16.08-.48.08-.94v-.38Z"/>
  <path id="Arial-BoldMT-6e2" data-name="Arial-BoldMT-6e" class="st17" d="M357.97,27.88h-1.92v-3.71c0-.78-.04-1.29-.12-1.52s-.22-.41-.4-.54c-.19-.13-.41-.19-.67-.19-.33,0-.63.09-.89.27s-.45.42-.54.73c-.1.3-.15.86-.15,1.67v3.29h-1.92v-7.26h1.79v1.07c.63-.82,1.43-1.23,2.39-1.23.42,0,.81.08,1.16.23.35.15.62.35.8.59.18.24.31.5.38.81.07.3.11.73.11,1.29v4.51Z"/>
  <path id="Arial-BoldMT-671" data-name="Arial-BoldMT-67" class="st17" d="M359.74,28.36l2.19.27c.04.26.12.43.25.53.18.14.47.21.86.21.5,0,.88-.08,1.13-.23.17-.1.3-.26.38-.49.06-.16.09-.45.09-.88v-1.06c-.57.78-1.3,1.18-2.17,1.18-.98,0-1.75-.41-2.32-1.24-.45-.65-.67-1.46-.67-2.43,0-1.22.29-2.15.88-2.79.59-.64,1.31-.96,2.19-.96s1.64.39,2.22,1.18v-1.02h1.8v6.51c0,.86-.07,1.5-.21,1.92-.14.42-.34.76-.6,1-.26.24-.6.43-1.02.57s-.96.21-1.62.21c-1.23,0-2.1-.21-2.62-.63-.51-.42-.77-.96-.77-1.6,0-.06,0-.14,0-.23ZM361.46,24.1c0,.77.15,1.33.45,1.69.3.36.67.54,1.1.54.47,0,.87-.18,1.19-.55s.49-.91.49-1.63-.16-1.31-.47-1.68c-.31-.36-.7-.55-1.17-.55s-.84.18-1.14.54c-.3.36-.45.9-.45,1.64Z"/>
  <path id="Arial-BoldMT-655" data-name="Arial-BoldMT-65" class="st17" d="M372.67,25.57l1.91.32c-.25.7-.63,1.24-1.17,1.6-.53.37-1.19.55-1.99.55-1.26,0-2.2-.41-2.8-1.24-.48-.66-.72-1.49-.72-2.5,0-1.2.31-2.15.94-2.83.63-.68,1.43-1.02,2.39-1.02,1.08,0,1.93.36,2.56,1.07s.92,1.81.89,3.28h-4.81c.01.57.17,1.01.47,1.33.3.32.67.47,1.11.47.3,0,.55-.08.76-.25.21-.16.36-.43.47-.79ZM372.78,23.63c-.01-.56-.16-.98-.43-1.27-.27-.29-.61-.44-1-.44-.42,0-.76.15-1.04.46-.27.31-.41.72-.4,1.24h2.87Z"/>
  <path id="Arial-BoldMT-202" data-name="Arial-BoldMT-20" class="st17" d="M375.25,27.88"/>
  <path id="Arial-BoldMT-521" data-name="Arial-BoldMT-52" class="st17" d="M380.17,27.88v-10.02h4.26c1.07,0,1.85.09,2.33.27.49.18.87.5,1.17.96.29.46.44.99.44,1.58,0,.75-.22,1.37-.67,1.86-.44.49-1.1.8-1.98.93.44.26.8.54,1.08.84.29.3.67.85,1.15,1.63l1.23,1.96h-2.42l-1.46-2.18c-.52-.78-.88-1.27-1.07-1.47s-.39-.34-.61-.42-.55-.11-1.02-.11h-.41v4.18h-2.02ZM382.19,22.1h1.5c.97,0,1.58-.04,1.82-.12.24-.08.43-.22.57-.42.14-.2.21-.45.21-.75,0-.34-.09-.61-.27-.82-.18-.21-.43-.34-.76-.39-.16-.02-.66-.03-1.48-.03h-1.58v2.54Z"/>
  <path id="Arial-BoldMT-614" data-name="Arial-BoldMT-61" class="st17" d="M391.69,22.84l-1.74-.32c.2-.7.53-1.22,1.01-1.56.48-.34,1.19-.51,2.13-.51.86,0,1.5.1,1.91.3.42.2.72.46.89.77s.26.89.26,1.72l-.02,2.24c0,.64.03,1.11.09,1.41.06.3.18.63.35.97h-1.9c-.05-.13-.11-.32-.18-.57-.03-.12-.06-.19-.07-.23-.33.32-.68.56-1.05.72-.37.16-.77.24-1.2.24-.75,0-1.34-.2-1.77-.61-.43-.41-.65-.92-.65-1.54,0-.41.1-.78.29-1.1.2-.32.47-.57.82-.74.35-.17.86-.32,1.53-.45.9-.17,1.52-.33,1.87-.47v-.19c0-.37-.09-.63-.27-.79s-.53-.24-1.03-.24c-.34,0-.61.07-.8.2s-.35.37-.46.71ZM394.26,24.39c-.25.08-.64.18-1.17.3-.53.11-.88.23-1.05.33-.25.18-.38.4-.38.68s.1.5.3.7c.2.2.46.29.77.29.35,0,.68-.11.99-.34.23-.17.38-.39.46-.64.05-.16.08-.48.08-.94v-.38Z"/>
  <path id="Arial-BoldMT-745" data-name="Arial-BoldMT-74" class="st17" d="M401.37,20.62v1.53h-1.31v2.93c0,.59.01.94.04,1.03.03.1.08.18.17.24s.2.1.32.1c.18,0,.44-.06.77-.19l.16,1.49c-.45.19-.95.29-1.52.29-.35,0-.66-.06-.94-.17-.28-.12-.48-.27-.61-.45-.13-.19-.22-.43-.27-.75-.04-.22-.06-.67-.06-1.35v-3.17h-.88v-1.53h.88v-1.44l1.93-1.12v2.56h1.31Z"/>
  <path id="Arial-BoldMT-691" data-name="Arial-BoldMT-69" class="st17" d="M402.7,19.64v-1.78h1.92v1.78h-1.92ZM402.7,27.88v-7.26h1.92v7.26h-1.92Z"/>
  <path id="Arial-BoldMT-6f3" data-name="Arial-BoldMT-6f" class="st17" d="M406.15,24.15c0-.64.16-1.26.47-1.85.32-.6.76-1.05,1.34-1.37.58-.32,1.22-.47,1.93-.47,1.1,0,2,.36,2.7,1.07s1.05,1.61,1.05,2.7-.35,2.01-1.06,2.73c-.71.72-1.6,1.08-2.68,1.08-.67,0-1.3-.15-1.9-.45-.6-.3-1.06-.74-1.38-1.32-.32-.58-.47-1.29-.47-2.12ZM408.12,24.25c0,.72.17,1.27.51,1.65.34.38.76.57,1.27.57s.92-.19,1.26-.57c.34-.38.51-.94.51-1.67s-.17-1.26-.51-1.64c-.34-.38-.76-.58-1.26-.58s-.92.19-1.27.58c-.34.38-.51.93-.51,1.65Z"/>
  <path id="Arial-BoldMT-732" data-name="Arial-BoldMT-73" class="st17" d="M414.47,25.81l1.93-.29c.08.37.25.66.5.85.25.19.6.29,1.05.29.5,0,.87-.09,1.12-.27.17-.13.25-.3.25-.51,0-.15-.05-.27-.14-.36-.09-.09-.31-.18-.64-.25-1.55-.34-2.53-.65-2.95-.94-.57-.39-.86-.94-.86-1.63,0-.63.25-1.16.74-1.59.5-.43,1.27-.64,2.31-.64s1.73.16,2.21.49c.48.32.82.8,1,1.44l-1.81.33c-.08-.28-.22-.5-.44-.65-.22-.15-.52-.23-.93-.23-.5,0-.87.07-1.09.21-.15.1-.22.23-.22.39,0,.14.06.25.19.35.17.13.77.31,1.79.54,1.02.23,1.74.52,2.14.85.4.34.6.82.6,1.43,0,.67-.28,1.24-.83,1.72-.56.48-1.38.72-2.47.72-.99,0-1.77-.2-2.35-.6-.58-.4-.95-.95-1.13-1.63Z"/>
  <path id="Arial-BoldMT-203" data-name="Arial-BoldMT-20" class="st17" d="M421.93,27.88"/>
  <path id="Arial-BoldMT-692" data-name="Arial-BoldMT-69" class="st17" d="M426.82,19.64v-1.78h1.92v1.78h-1.92ZM426.82,27.88v-7.26h1.92v7.26h-1.92Z"/>
  <path id="Arial-BoldMT-6e3" data-name="Arial-BoldMT-6e" class="st17" d="M437.31,27.88h-1.92v-3.71c0-.78-.04-1.29-.12-1.52s-.22-.41-.4-.54c-.19-.13-.41-.19-.67-.19-.33,0-.63.09-.89.27s-.45.42-.54.73c-.1.3-.15.86-.15,1.67v3.29h-1.92v-7.26h1.79v1.07c.63-.82,1.43-1.23,2.39-1.23.42,0,.81.08,1.16.23.35.15.62.35.8.59.18.24.31.5.38.81.07.3.11.73.11,1.29v4.51Z"/>
  <path id="Arial-BoldMT-204" data-name="Arial-BoldMT-20" class="st17" d="M438.26,27.88"/>
  <path id="Arial-BoldMT-4d" class="st17" d="M443.14,27.88v-10.02h3.03l1.82,6.84,1.8-6.84h3.03v10.02h-1.88v-7.89l-1.99,7.89h-1.95l-1.98-7.89v7.89h-1.88Z"/>
  <path id="Arial-BoldMT-6f4" data-name="Arial-BoldMT-6f" class="st17" d="M454.37,24.15c0-.64.16-1.26.47-1.85.32-.6.76-1.05,1.34-1.37.58-.32,1.22-.47,1.93-.47,1.1,0,2,.36,2.7,1.07s1.05,1.61,1.05,2.7-.35,2.01-1.06,2.73c-.71.72-1.6,1.08-2.68,1.08-.67,0-1.3-.15-1.9-.45-.6-.3-1.06-.74-1.38-1.32-.32-.58-.47-1.29-.47-2.12ZM456.34,24.25c0,.72.17,1.27.51,1.65.34.38.76.57,1.27.57s.92-.19,1.26-.57c.34-.38.51-.94.51-1.67s-.17-1.26-.51-1.64c-.34-.38-.76-.58-1.26-.58s-.92.19-1.27.58c-.34.38-.51.93-.51,1.65Z"/>
  <path id="Arial-BoldMT-641" data-name="Arial-BoldMT-64" class="st17" d="M470.02,27.88h-1.78v-1.07c-.3.42-.65.72-1.05.93-.4.2-.81.3-1.22.3-.83,0-1.55-.34-2.14-1.01-.59-.67-.89-1.61-.89-2.81s.29-2.17.87-2.81c.58-.64,1.31-.96,2.2-.96.81,0,1.51.34,2.1,1.01v-3.61h1.92v10.02ZM464.9,24.09c0,.77.11,1.33.32,1.68.31.5.74.75,1.3.75.44,0,.82-.19,1.13-.56.31-.38.47-.94.47-1.69,0-.83-.15-1.43-.45-1.8-.3-.37-.69-.55-1.16-.55s-.84.18-1.15.54c-.31.36-.46.9-.46,1.62Z"/>
  <path id="Arial-BoldMT-656" data-name="Arial-BoldMT-65" class="st17" d="M476.12,25.57l1.91.32c-.25.7-.63,1.24-1.17,1.6-.53.37-1.19.55-1.99.55-1.26,0-2.2-.41-2.8-1.24-.48-.66-.72-1.49-.72-2.5,0-1.2.31-2.15.94-2.83.63-.68,1.43-1.02,2.39-1.02,1.08,0,1.93.36,2.56,1.07s.92,1.81.89,3.28h-4.81c.01.57.17,1.01.47,1.33.3.32.67.47,1.11.47.3,0,.55-.08.76-.25.21-.16.36-.43.47-.79ZM476.23,23.63c-.01-.56-.16-.98-.43-1.27-.27-.29-.61-.44-1-.44-.42,0-.76.15-1.04.46-.27.31-.41.72-.4,1.24h2.87Z"/>
  <path id="Arial-BoldMT-722" data-name="Arial-BoldMT-72" class="st17" d="M481.54,27.88h-1.92v-7.26h1.79v1.03c.3-.49.58-.81.82-.96.24-.16.52-.23.83-.23.44,0,.86.12,1.26.36l-.6,1.67c-.32-.21-.62-.31-.9-.31s-.5.07-.68.22c-.19.15-.33.41-.44.8-.11.39-.16,1.2-.16,2.43v2.24Z"/>
  <path id="Arial-BoldMT-6e4" data-name="Arial-BoldMT-6e" class="st17" d="M491.76,27.88h-1.92v-3.71c0-.78-.04-1.29-.12-1.52s-.22-.41-.4-.54c-.19-.13-.41-.19-.67-.19-.33,0-.63.09-.89.27s-.45.42-.54.73c-.1.3-.15.86-.15,1.67v3.29h-1.92v-7.26h1.79v1.07c.63-.82,1.43-1.23,2.39-1.23.42,0,.81.08,1.16.23.35.15.62.35.8.59.18.24.31.5.38.81.07.3.11.73.11,1.29v4.51Z"/>
  <path id="Arial-BoldMT-205" data-name="Arial-BoldMT-20" class="st17" d="M492.7,27.88"/>
  <path id="Arial-BoldMT-411" data-name="Arial-BoldMT-41" class="st17" d="M506.12,27.88h-2.2l-.88-2.28h-4.01l-.83,2.28h-2.15l3.9-10.02h2.14l4.01,10.02ZM502.39,23.91l-1.38-3.72-1.35,3.72h2.73Z"/>
  <path id="Arial-BoldMT-746" data-name="Arial-BoldMT-74" class="st17" d="M510.51,20.62v1.53h-1.31v2.93c0,.59.01.94.04,1.03.03.1.08.18.17.24s.2.1.32.1c.18,0,.44-.06.77-.19l.16,1.49c-.45.19-.95.29-1.52.29-.35,0-.66-.06-.94-.17-.28-.12-.48-.27-.61-.45-.13-.19-.22-.43-.27-.75-.04-.22-.06-.67-.06-1.35v-3.17h-.88v-1.53h.88v-1.44l1.93-1.12v2.56h1.31Z"/>
  <path id="Arial-BoldMT-747" data-name="Arial-BoldMT-74" class="st17" d="M515.17,20.62v1.53h-1.31v2.93c0,.59.01.94.04,1.03.03.1.08.18.17.24s.2.1.32.1c.18,0,.44-.06.77-.19l.16,1.49c-.45.19-.95.29-1.52.29-.35,0-.66-.06-.94-.17-.28-.12-.48-.27-.61-.45-.13-.19-.22-.43-.27-.75-.04-.22-.06-.67-.06-1.35v-3.17h-.88v-1.53h.88v-1.44l1.93-1.12v2.56h1.31Z"/>
  <path id="Arial-BoldMT-723" data-name="Arial-BoldMT-72" class="st17" d="M518.34,27.88h-1.92v-7.26h1.79v1.03c.3-.49.58-.81.82-.96.24-.16.52-.23.83-.23.44,0,.86.12,1.26.36l-.6,1.67c-.32-.21-.62-.31-.9-.31s-.5.07-.68.22c-.19.15-.33.41-.44.8-.11.39-.16,1.2-.16,2.43v2.24Z"/>
  <path id="Arial-BoldMT-693" data-name="Arial-BoldMT-69" class="st17" d="M521.95,19.64v-1.78h1.92v1.78h-1.92ZM521.95,27.88v-7.26h1.92v7.26h-1.92Z"/>
  <path id="Arial-BoldMT-748" data-name="Arial-BoldMT-74" class="st17" d="M529.17,20.62v1.53h-1.31v2.93c0,.59.01.94.04,1.03.03.1.08.18.17.24s.2.1.32.1c.18,0,.44-.06.77-.19l.16,1.49c-.45.19-.95.29-1.52.29-.35,0-.66-.06-.94-.17-.28-.12-.48-.27-.61-.45-.13-.19-.22-.43-.27-.75-.04-.22-.06-.67-.06-1.35v-3.17h-.88v-1.53h.88v-1.44l1.93-1.12v2.56h1.31Z"/>
  <path id="Arial-BoldMT-615" data-name="Arial-BoldMT-61" class="st17" d="M531.94,22.84l-1.74-.32c.2-.7.53-1.22,1.01-1.56.48-.34,1.19-.51,2.13-.51.86,0,1.5.1,1.91.3.42.2.72.46.89.77s.26.89.26,1.72l-.02,2.24c0,.64.03,1.11.09,1.41.06.3.18.63.35.97h-1.9c-.05-.13-.11-.32-.18-.57-.03-.12-.06-.19-.07-.23-.33.32-.68.56-1.05.72-.37.16-.77.24-1.2.24-.75,0-1.34-.2-1.77-.61-.43-.41-.65-.92-.65-1.54,0-.41.1-.78.29-1.1.2-.32.47-.57.82-.74.35-.17.86-.32,1.53-.45.9-.17,1.52-.33,1.87-.47v-.19c0-.37-.09-.63-.27-.79s-.53-.24-1.03-.24c-.34,0-.61.07-.8.2s-.35.37-.46.71ZM534.51,24.39c-.25.08-.64.18-1.17.3-.53.11-.88.23-1.05.33-.25.18-.38.4-.38.68s.1.5.3.7c.2.2.46.29.77.29.35,0,.68-.11.99-.34.23-.17.38-.39.46-.64.05-.16.08-.48.08-.94v-.38Z"/>
  <path id="Arial-BoldMT-62" class="st17" d="M538.21,27.88v-10.02h1.92v3.61c.59-.68,1.29-1.01,2.11-1.01.88,0,1.62.32,2.19.96s.87,1.56.87,2.76-.3,2.19-.89,2.87c-.59.67-1.31,1-2.15,1-.41,0-.82-.1-1.23-.31-.4-.21-.75-.51-1.04-.92v1.07h-1.79ZM540.12,24.09c0,.75.12,1.31.35,1.67.33.51.78.77,1.33.77.42,0,.78-.18,1.08-.54.3-.36.45-.93.45-1.71,0-.83-.15-1.43-.45-1.79-.3-.37-.69-.55-1.16-.55s-.84.18-1.15.54c-.3.36-.46.9-.46,1.63Z"/>
  <path id="Arial-BoldMT-6c" class="st17" d="M546.84,27.88v-10.02h1.92v10.02h-1.92Z"/>
  <path id="Arial-BoldMT-657" data-name="Arial-BoldMT-65" class="st17" d="M554.93,25.57l1.91.32c-.25.7-.63,1.24-1.17,1.6-.53.37-1.19.55-1.99.55-1.26,0-2.2-.41-2.8-1.24-.48-.66-.72-1.49-.72-2.5,0-1.2.31-2.15.94-2.83.63-.68,1.43-1.02,2.39-1.02,1.08,0,1.93.36,2.56,1.07s.92,1.81.89,3.28h-4.81c.01.57.17,1.01.47,1.33.3.32.67.47,1.11.47.3,0,.55-.08.76-.25.21-.16.36-.43.47-.79ZM555.04,23.63c-.01-.56-.16-.98-.43-1.27-.27-.29-.61-.44-1-.44-.42,0-.76.15-1.04.46-.27.31-.41.72-.4,1.24h2.87Z"/>
  <path id="Arial-BoldMT-206" data-name="Arial-BoldMT-20" class="st17" d="M557.51,27.88"/>
  <path id="Arial-BoldMT-57" class="st17" d="M563.84,27.88l-2.39-10.02h2.07l1.51,6.88,1.83-6.88h2.41l1.76,7,1.54-7h2.04l-2.43,10.02h-2.15l-2-7.49-1.99,7.49h-2.19Z"/>
  <path id="Arial-BoldMT-616" data-name="Arial-BoldMT-61" class="st17" d="M576.53,22.84l-1.74-.32c.2-.7.53-1.22,1.01-1.56.48-.34,1.19-.51,2.13-.51.86,0,1.5.1,1.91.3.42.2.72.46.89.77s.26.89.26,1.72l-.02,2.24c0,.64.03,1.11.09,1.41.06.3.18.63.35.97h-1.9c-.05-.13-.11-.32-.18-.57-.03-.12-.06-.19-.07-.23-.33.32-.68.56-1.05.72-.37.16-.77.24-1.2.24-.75,0-1.34-.2-1.77-.61-.43-.41-.65-.92-.65-1.54,0-.41.1-.78.29-1.1.2-.32.47-.57.82-.74.35-.17.86-.32,1.53-.45.9-.17,1.52-.33,1.87-.47v-.19c0-.37-.09-.63-.27-.79s-.53-.24-1.03-.24c-.34,0-.61.07-.8.2s-.35.37-.46.71ZM579.1,24.39c-.25.08-.64.18-1.17.3-.53.11-.88.23-1.05.33-.25.18-.38.4-.38.68s.1.5.3.7c.2.2.46.29.77.29.35,0,.68-.11.99-.34.23-.17.38-.39.46-.64.05-.16.08-.48.08-.94v-.38Z"/>
  <path id="Arial-BoldMT-724" data-name="Arial-BoldMT-72" class="st17" d="M584.72,27.88h-1.92v-7.26h1.79v1.03c.3-.49.58-.81.82-.96.24-.16.52-.23.83-.23.44,0,.86.12,1.26.36l-.6,1.67c-.32-.21-.62-.31-.9-.31s-.5.07-.68.22c-.19.15-.33.41-.44.8-.11.39-.16,1.2-.16,2.43v2.24Z"/>
  <path id="Arial-BoldMT-661" data-name="Arial-BoldMT-66" class="st17" d="M587.49,20.62h1.07v-.55c0-.61.06-1.07.19-1.37.13-.3.37-.54.72-.73.35-.19.79-.28,1.32-.28s1.08.08,1.61.25l-.26,1.34c-.3-.07-.6-.11-.88-.11s-.48.06-.6.19c-.12.13-.18.38-.18.75v.51h1.44v1.51h-1.44v5.75h-1.92v-5.75h-1.07v-1.51Z"/>
  <path id="Arial-BoldMT-617" data-name="Arial-BoldMT-61" class="st17" d="M594.43,22.84l-1.74-.32c.2-.7.53-1.22,1.01-1.56.48-.34,1.19-.51,2.13-.51.86,0,1.5.1,1.91.3.42.2.72.46.89.77s.26.89.26,1.72l-.02,2.24c0,.64.03,1.11.09,1.41.06.3.18.63.35.97h-1.9c-.05-.13-.11-.32-.18-.57-.03-.12-.06-.19-.07-.23-.33.32-.68.56-1.05.72-.37.16-.77.24-1.2.24-.75,0-1.34-.2-1.77-.61-.43-.41-.65-.92-.65-1.54,0-.41.1-.78.29-1.1.2-.32.47-.57.82-.74.35-.17.86-.32,1.53-.45.9-.17,1.52-.33,1.87-.47v-.19c0-.37-.09-.63-.27-.79s-.53-.24-1.03-.24c-.34,0-.61.07-.8.2s-.35.37-.46.71ZM597,24.39c-.25.08-.64.18-1.17.3-.53.11-.88.23-1.05.33-.25.18-.38.4-.38.68s.1.5.3.7c.2.2.46.29.77.29.35,0,.68-.11.99-.34.23-.17.38-.39.46-.64.05-.16.08-.48.08-.94v-.38Z"/>
  <path id="Arial-BoldMT-725" data-name="Arial-BoldMT-72" class="st17" d="M602.62,27.88h-1.92v-7.26h1.79v1.03c.3-.49.58-.81.82-.96.24-.16.52-.23.83-.23.44,0,.86.12,1.26.36l-.6,1.67c-.32-.21-.62-.31-.9-.31s-.5.07-.68.22c-.19.15-.33.41-.44.8-.11.39-.16,1.2-.16,2.43v2.24Z"/>
  <path id="Arial-BoldMT-658" data-name="Arial-BoldMT-65" class="st17" d="M610.43,25.57l1.91.32c-.25.7-.63,1.24-1.17,1.6-.53.37-1.19.55-1.99.55-1.26,0-2.2-.41-2.8-1.24-.48-.66-.72-1.49-.72-2.5,0-1.2.31-2.15.94-2.83.63-.68,1.43-1.02,2.39-1.02,1.08,0,1.93.36,2.56,1.07s.92,1.81.89,3.28h-4.81c.01.57.17,1.01.47,1.33.3.32.67.47,1.11.47.3,0,.55-.08.76-.25.21-.16.36-.43.47-.79ZM610.54,23.63c-.01-.56-.16-.98-.43-1.27-.27-.29-.61-.44-1-.44-.42,0-.76.15-1.04.46-.27.31-.41.72-.4,1.24h2.87Z"/>
</svg>