<?xml version="1.0" encoding="utf-8" standalone="no"?>
<!DOCTYPE svg PUBLIC "-//W3C//DTD SVG 1.1//EN"
  "http://www.w3.org/Graphics/SVG/1.1/DTD/svg11.dtd">
<svg xmlns:xlink="http://www.w3.org/1999/xlink" width="1008pt" height="720pt" viewBox="0 0 1008 720" xmlns="http://www.w3.org/2000/svg" version="1.1">
 <metadata>
  <rdf:RDF xmlns:dc="http://purl.org/dc/elements/1.1/" xmlns:cc="http://creativecommons.org/ns#" xmlns:rdf="http://www.w3.org/1999/02/22-rdf-syntax-ns#">
   <cc:Work>
    <dc:type rdf:resource="http://purl.org/dc/dcmitype/StillImage"/>
    <dc:date>2026-07-03T06:23:43.365093</dc:date>
    <dc:format>image/svg+xml</dc:format>
    <dc:creator>
     <cc:Agent>
      <dc:title>Matplotlib v3.10.9, https://matplotlib.org/</dc:title>
     </cc:Agent>
    </dc:creator>
   </cc:Work>
  </rdf:RDF>
 </metadata>
 <defs>
  <style type="text/css">*{stroke-linejoin: round; stroke-linecap: butt}</style>
 </defs>
 <g id="figure_1">
  <g id="patch_1">
   <path d="M 0 720 
L 1008 720 
L 1008 0 
L 0 0 
z
" style="fill: #ffffff"/>
  </g>
  <g id="axes_1">
   <g id="patch_2">
    <path d="M 399.079286 147.8112 
L 610.180714 147.8112 
Q 617.217429 147.8112 617.217429 141.128 
L 617.217429 74.296 
Q 617.217429 67.6128 610.180714 67.6128 
L 399.079286 67.6128 
Q 392.042571 67.6128 392.042571 74.296 
L 392.042571 141.128 
Q 392.042571 147.8112 399.079286 147.8112 
z
" clip-path="url(#p0233d37254)" style="fill: #003366; stroke: #000000; stroke-width: 2; stroke-linejoin: miter"/>
   </g>
   <g id="patch_3">
    <path d="M -23.123571 415.1392 
L 117.610714 415.1392 
Q 124.647429 415.1392 124.647429 408.456 
L 124.647429 274.792 
Q 124.647429 268.1088 117.610714 268.1088 
L -23.123571 268.1088 
Q -30.160286 268.1088 -30.160286 274.792 
L -30.160286 408.456 
Q -30.160286 415.1392 -23.123571 415.1392 
z
" clip-path="url(#p0233d37254)" style="fill: #0066cc; stroke: #000000; stroke-width: 1.5; stroke-linejoin: miter"/>
   </g>
   <g id="patch_4">
    <path d="M 187.977857 415.1392 
L 328.712143 415.1392 
Q 335.748857 415.1392 335.748857 408.456 
L 335.748857 274.792 
Q 335.748857 268.1088 328.712143 268.1088 
L 187.977857 268.1088 
Q 180.941143 268.1088 180.941143 274.792 
L 180.941143 408.456 
Q 180.941143 415.1392 187.977857 415.1392 
z
" clip-path="url(#p0233d37254)" style="fill: #ff6600; stroke: #000000; stroke-width: 1.5; stroke-linejoin: miter"/>
   </g>
   <g id="patch_5">
    <path d="M 399.079286 415.1392 
L 539.813571 415.1392 
Q 546.850286 415.1392 546.850286 408.456 
L 546.850286 274.792 
Q 546.850286 268.1088 539.813571 268.1088 
L 399.079286 268.1088 
Q 392.042571 268.1088 392.042571 274.792 
L 392.042571 408.456 
Q 392.042571 415.1392 399.079286 415.1392 
z
" clip-path="url(#p0233d37254)" style="fill: #cc0000; stroke: #000000; stroke-width: 1.5; stroke-linejoin: miter"/>
   </g>
   <g id="patch_6">
    <path d="M 610.180714 415.1392 
L 750.915 415.1392 
Q 757.951714 415.1392 757.951714 408.456 
L 757.951714 274.792 
Q 757.951714 268.1088 750.915 268.1088 
L 610.180714 268.1088 
Q 603.144 268.1088 603.144 274.792 
L 603.144 408.456 
Q 603.144 415.1392 610.180714 415.1392 
z
" clip-path="url(#p0233d37254)" style="fill: #0099ff; stroke: #000000; stroke-width: 1.5; stroke-linejoin: miter"/>
   </g>
   <g id="patch_7">
    <path d="M 821.282143 415.1392 
L 962.016429 415.1392 
Q 969.053143 415.1392 969.053143 408.456 
L 969.053143 274.792 
Q 969.053143 268.1088 962.016429 268.1088 
L 821.282143 268.1088 
Q 814.245429 268.1088 814.245429 274.792 
L 814.245429 408.456 
Q 814.245429 415.1392 821.282143 415.1392 
z
" clip-path="url(#p0233d37254)" style="fill: #666666; stroke: #000000; stroke-width: 1.5; stroke-linejoin: miter"/>
   </g>
   <g id="text_1">
    <!-- SHAKTIBAAN REGIMENT -->
    <g style="fill: #ffffff" transform="translate(443.797188 104.884031) scale(0.1 -0.1)">
     <defs>
      <path id="Arial-BoldMT-53" d="M 231 1491 
L 1131 1578 
Q 1213 1125 1461 912 
Q 1709 700 2131 700 
Q 2578 700 2804 889 
Q 3031 1078 3031 1331 
Q 3031 1494 2936 1608 
Q 2841 1722 2603 1806 
Q 2441 1863 1863 2006 
Q 1119 2191 819 2459 
Q 397 2838 397 3381 
Q 397 3731 595 4036 
Q 794 4341 1167 4500 
Q 1541 4659 2069 4659 
Q 2931 4659 3367 4281 
Q 3803 3903 3825 3272 
L 2900 3231 
Q 2841 3584 2645 3739 
Q 2450 3894 2059 3894 
Q 1656 3894 1428 3728 
Q 1281 3622 1281 3444 
Q 1281 3281 1419 3166 
Q 1594 3019 2269 2859 
Q 2944 2700 3267 2529 
Q 3591 2359 3773 2064 
Q 3956 1769 3956 1334 
Q 3956 941 3737 597 
Q 3519 253 3119 86 
Q 2719 -81 2122 -81 
Q 1253 -81 787 320 
Q 322 722 231 1491 
z
" transform="scale(0.015625)"/>
      <path id="Arial-BoldMT-48" d="M 469 0 
L 469 4581 
L 1394 4581 
L 1394 2778 
L 3206 2778 
L 3206 4581 
L 4131 4581 
L 4131 0 
L 3206 0 
L 3206 2003 
L 1394 2003 
L 1394 0 
L 469 0 
z
" transform="scale(0.015625)"/>
      <path id="Arial-BoldMT-41" d="M 4597 0 
L 3591 0 
L 3191 1041 
L 1359 1041 
L 981 0 
L 0 0 
L 1784 4581 
L 2763 4581 
L 4597 0 
z
M 2894 1813 
L 2263 3513 
L 1644 1813 
L 2894 1813 
z
" transform="scale(0.015625)"/>
      <path id="Arial-BoldMT-4b" d="M 478 0 
L 478 4581 
L 1403 4581 
L 1403 2547 
L 3272 4581 
L 4516 4581 
L 2791 2797 
L 4609 0 
L 3413 0 
L 2153 2150 
L 1403 1384 
L 1403 0 
L 478 0 
z
" transform="scale(0.015625)"/>
      <path id="Arial-BoldMT-54" d="M 1497 0 
L 1497 3806 
L 138 3806 
L 138 4581 
L 3778 4581 
L 3778 3806 
L 2422 3806 
L 2422 0 
L 1497 0 
z
" transform="scale(0.015625)"/>
      <path id="Arial-BoldMT-49" d="M 438 0 
L 438 4581 
L 1363 4581 
L 1363 0 
L 438 0 
z
" transform="scale(0.015625)"/>
      <path id="Arial-BoldMT-42" d="M 469 4581 
L 2300 4581 
Q 2844 4581 3111 4536 
Q 3378 4491 3589 4347 
Q 3800 4203 3940 3964 
Q 4081 3725 4081 3428 
Q 4081 3106 3907 2837 
Q 3734 2569 3438 2434 
Q 3856 2313 4081 2019 
Q 4306 1725 4306 1328 
Q 4306 1016 4161 720 
Q 4016 425 3764 248 
Q 3513 72 3144 31 
Q 2913 6 2028 0 
L 469 0 
L 469 4581 
z
M 1394 3819 
L 1394 2759 
L 2000 2759 
Q 2541 2759 2672 2775 
Q 2909 2803 3045 2939 
Q 3181 3075 3181 3297 
Q 3181 3509 3064 3642 
Q 2947 3775 2716 3803 
Q 2578 3819 1925 3819 
L 1394 3819 
z
M 1394 1997 
L 1394 772 
L 2250 772 
Q 2750 772 2884 800 
Q 3091 838 3220 983 
Q 3350 1128 3350 1372 
Q 3350 1578 3250 1722 
Q 3150 1866 2961 1931 
Q 2772 1997 2141 1997 
L 1394 1997 
z
" transform="scale(0.015625)"/>
      <path id="Arial-BoldMT-4e" d="M 475 0 
L 475 4581 
L 1375 4581 
L 3250 1522 
L 3250 4581 
L 4109 4581 
L 4109 0 
L 3181 0 
L 1334 2988 
L 1334 0 
L 475 0 
z
" transform="scale(0.015625)"/>
      <path id="Arial-BoldMT-20" transform="scale(0.015625)"/>
      <path id="Arial-BoldMT-52" d="M 469 0 
L 469 4581 
L 2416 4581 
Q 3150 4581 3483 4457 
Q 3816 4334 4016 4018 
Q 4216 3703 4216 3297 
Q 4216 2781 3912 2445 
Q 3609 2109 3006 2022 
Q 3306 1847 3501 1637 
Q 3697 1428 4028 894 
L 4588 0 
L 3481 0 
L 2813 997 
Q 2456 1531 2325 1670 
Q 2194 1809 2047 1861 
Q 1900 1913 1581 1913 
L 1394 1913 
L 1394 0 
L 469 0 
z
M 1394 2644 
L 2078 2644 
Q 2744 2644 2909 2700 
Q 3075 2756 3169 2893 
Q 3263 3031 3263 3238 
Q 3263 3469 3139 3611 
Q 3016 3753 2791 3791 
Q 2678 3806 2116 3806 
L 1394 3806 
L 1394 2644 
z
" transform="scale(0.015625)"/>
      <path id="Arial-BoldMT-45" d="M 466 0 
L 466 4581 
L 3863 4581 
L 3863 3806 
L 1391 3806 
L 1391 2791 
L 3691 2791 
L 3691 2019 
L 1391 2019 
L 1391 772 
L 3950 772 
L 3950 0 
L 466 0 
z
" transform="scale(0.015625)"/>
      <path id="Arial-BoldMT-47" d="M 2597 1684 
L 2597 2456 
L 4591 2456 
L 4591 631 
Q 4300 350 3748 136 
Q 3197 -78 2631 -78 
Q 1913 -78 1378 223 
Q 844 525 575 1086 
Q 306 1647 306 2306 
Q 306 3022 606 3578 
Q 906 4134 1484 4431 
Q 1925 4659 2581 4659 
Q 3434 4659 3914 4301 
Q 4394 3944 4531 3313 
L 3613 3141 
Q 3516 3478 3248 3673 
Q 2981 3869 2581 3869 
Q 1975 3869 1617 3484 
Q 1259 3100 1259 2344 
Q 1259 1528 1621 1120 
Q 1984 713 2572 713 
Q 2863 713 3155 827 
Q 3447 941 3656 1103 
L 3656 1684 
L 2597 1684 
z
" transform="scale(0.015625)"/>
      <path id="Arial-BoldMT-4d" d="M 453 0 
L 453 4581 
L 1838 4581 
L 2669 1456 
L 3491 4581 
L 4878 4581 
L 4878 0 
L 4019 0 
L 4019 3606 
L 3109 0 
L 2219 0 
L 1313 3606 
L 1313 0 
L 453 0 
z
" transform="scale(0.015625)"/>
     </defs>
     <use xlink:href="#Arial-BoldMT-53"/>
     <use xlink:href="#Arial-BoldMT-48" transform="translate(66.699219 0)"/>
     <use xlink:href="#Arial-BoldMT-41" transform="translate(138.916016 0)"/>
     <use xlink:href="#Arial-BoldMT-4b" transform="translate(211.132812 0)"/>
     <use xlink:href="#Arial-BoldMT-54" transform="translate(283.349609 0)"/>
     <use xlink:href="#Arial-BoldMT-49" transform="translate(344.433594 0)"/>
     <use xlink:href="#Arial-BoldMT-42" transform="translate(372.216797 0)"/>
     <use xlink:href="#Arial-BoldMT-41" transform="translate(444.433594 0)"/>
     <use xlink:href="#Arial-BoldMT-41" transform="translate(516.650391 0)"/>
     <use xlink:href="#Arial-BoldMT-4e" transform="translate(588.867188 0)"/>
     <use xlink:href="#Arial-BoldMT-20" transform="translate(661.083984 0)"/>
     <use xlink:href="#Arial-BoldMT-52" transform="translate(688.867188 0)"/>
     <use xlink:href="#Arial-BoldMT-45" transform="translate(761.083984 0)"/>
     <use xlink:href="#Arial-BoldMT-47" transform="translate(827.783203 0)"/>
     <use xlink:href="#Arial-BoldMT-49" transform="translate(905.566406 0)"/>
     <use xlink:href="#Arial-BoldMT-4d" transform="translate(933.349609 0)"/>
     <use xlink:href="#Arial-BoldMT-45" transform="translate(1016.650391 0)"/>
     <use xlink:href="#Arial-BoldMT-4e" transform="translate(1083.349609 0)"/>
     <use xlink:href="#Arial-BoldMT-54" transform="translate(1155.566406 0)"/>
    </g>
    <!-- HQ &amp; Signal Co. -->
    <g style="fill: #ffffff" transform="translate(466.296406 115.593094) scale(0.1 -0.1)">
     <defs>
      <path id="Arial-BoldMT-51" d="M 4153 581 
Q 4494 338 4894 194 
L 4553 -459 
Q 4344 -397 4144 -288 
Q 4100 -266 3528 119 
Q 3078 -78 2531 -78 
Q 1475 -78 876 544 
Q 278 1166 278 2291 
Q 278 3413 878 4036 
Q 1478 4659 2506 4659 
Q 3525 4659 4122 4036 
Q 4719 3413 4719 2291 
Q 4719 1697 4553 1247 
Q 4428 903 4153 581 
z
M 3409 1103 
Q 3588 1313 3677 1609 
Q 3766 1906 3766 2291 
Q 3766 3084 3416 3476 
Q 3066 3869 2500 3869 
Q 1934 3869 1582 3475 
Q 1231 3081 1231 2291 
Q 1231 1488 1582 1089 
Q 1934 691 2472 691 
Q 2672 691 2850 756 
Q 2569 941 2278 1044 
L 2538 1572 
Q 2994 1416 3409 1103 
z
" transform="scale(0.015625)"/>
      <path id="Arial-BoldMT-26" d="M 4519 559 
L 3988 -119 
Q 3597 72 3238 406 
Q 2959 156 2646 37 
Q 2334 -81 1903 -81 
Q 1047 -81 616 400 
Q 281 772 281 1256 
Q 281 1697 543 2048 
Q 806 2400 1328 2659 
Q 1094 2938 975 3189 
Q 856 3441 856 3666 
Q 856 4081 1189 4370 
Q 1522 4659 2138 4659 
Q 2731 4659 3065 4356 
Q 3400 4053 3400 3616 
Q 3400 3338 3234 3088 
Q 3069 2838 2566 2522 
L 3203 1681 
Q 3316 1881 3397 2203 
L 4191 2022 
Q 4072 1600 3984 1404 
Q 3897 1209 3797 1078 
Q 3944 941 4176 777 
Q 4409 613 4519 559 
z
M 2128 3050 
L 2366 3231 
Q 2628 3434 2628 3634 
Q 2628 3803 2501 3922 
Q 2375 4041 2159 4041 
Q 1950 4041 1831 3936 
Q 1713 3831 1713 3694 
Q 1713 3531 1913 3300 
L 2128 3050 
z
M 1784 2097 
Q 1481 1944 1331 1728 
Q 1181 1513 1181 1288 
Q 1181 1003 1367 823 
Q 1553 644 1866 644 
Q 2072 644 2262 725 
Q 2453 806 2678 994 
L 1784 2097 
z
" transform="scale(0.015625)"/>
      <path id="Arial-BoldMT-69" d="M 459 3769 
L 459 4581 
L 1338 4581 
L 1338 3769 
L 459 3769 
z
M 459 0 
L 459 3319 
L 1338 3319 
L 1338 0 
L 459 0 
z
" transform="scale(0.015625)"/>
      <path id="Arial-BoldMT-67" d="M 378 -219 
L 1381 -341 
Q 1406 -516 1497 -581 
Q 1622 -675 1891 -675 
Q 2234 -675 2406 -572 
Q 2522 -503 2581 -350 
Q 2622 -241 2622 53 
L 2622 538 
Q 2228 0 1628 0 
Q 959 0 569 566 
Q 263 1013 263 1678 
Q 263 2513 664 2953 
Q 1066 3394 1663 3394 
Q 2278 3394 2678 2853 
L 2678 3319 
L 3500 3319 
L 3500 341 
Q 3500 -247 3403 -537 
Q 3306 -828 3131 -993 
Q 2956 -1159 2664 -1253 
Q 2372 -1347 1925 -1347 
Q 1081 -1347 728 -1058 
Q 375 -769 375 -325 
Q 375 -281 378 -219 
z
M 1163 1728 
Q 1163 1200 1367 954 
Q 1572 709 1872 709 
Q 2194 709 2416 961 
Q 2638 1213 2638 1706 
Q 2638 2222 2425 2472 
Q 2213 2722 1888 2722 
Q 1572 2722 1367 2476 
Q 1163 2231 1163 1728 
z
" transform="scale(0.015625)"/>
      <path id="Arial-BoldMT-6e" d="M 3478 0 
L 2600 0 
L 2600 1694 
Q 2600 2231 2544 2389 
Q 2488 2547 2361 2634 
Q 2234 2722 2056 2722 
Q 1828 2722 1647 2597 
Q 1466 2472 1398 2265 
Q 1331 2059 1331 1503 
L 1331 0 
L 453 0 
L 453 3319 
L 1269 3319 
L 1269 2831 
Q 1703 3394 2363 3394 
Q 2653 3394 2893 3289 
Q 3134 3184 3257 3021 
Q 3381 2859 3429 2653 
Q 3478 2447 3478 2063 
L 3478 0 
z
" transform="scale(0.015625)"/>
      <path id="Arial-BoldMT-61" d="M 1116 2306 
L 319 2450 
Q 453 2931 781 3162 
Q 1109 3394 1756 3394 
Q 2344 3394 2631 3255 
Q 2919 3116 3036 2902 
Q 3153 2688 3153 2116 
L 3144 1091 
Q 3144 653 3186 445 
Q 3228 238 3344 0 
L 2475 0 
Q 2441 88 2391 259 
Q 2369 338 2359 363 
Q 2134 144 1878 34 
Q 1622 -75 1331 -75 
Q 819 -75 523 203 
Q 228 481 228 906 
Q 228 1188 362 1408 
Q 497 1628 739 1745 
Q 981 1863 1438 1950 
Q 2053 2066 2291 2166 
L 2291 2253 
Q 2291 2506 2166 2614 
Q 2041 2722 1694 2722 
Q 1459 2722 1328 2630 
Q 1197 2538 1116 2306 
z
M 2291 1594 
Q 2122 1538 1756 1459 
Q 1391 1381 1278 1306 
Q 1106 1184 1106 997 
Q 1106 813 1243 678 
Q 1381 544 1594 544 
Q 1831 544 2047 700 
Q 2206 819 2256 991 
Q 2291 1103 2291 1419 
L 2291 1594 
z
" transform="scale(0.015625)"/>
      <path id="Arial-BoldMT-6c" d="M 459 0 
L 459 4581 
L 1338 4581 
L 1338 0 
L 459 0 
z
" transform="scale(0.015625)"/>
      <path id="Arial-BoldMT-43" d="M 3397 1684 
L 4294 1400 
Q 4088 650 3608 286 
Q 3128 -78 2391 -78 
Q 1478 -78 890 545 
Q 303 1169 303 2250 
Q 303 3394 893 4026 
Q 1484 4659 2447 4659 
Q 3288 4659 3813 4163 
Q 4125 3869 4281 3319 
L 3366 3100 
Q 3284 3456 3026 3662 
Q 2769 3869 2400 3869 
Q 1891 3869 1573 3503 
Q 1256 3138 1256 2319 
Q 1256 1450 1568 1081 
Q 1881 713 2381 713 
Q 2750 713 3015 947 
Q 3281 1181 3397 1684 
z
" transform="scale(0.015625)"/>
      <path id="Arial-BoldMT-6f" d="M 256 1706 
Q 256 2144 472 2553 
Q 688 2963 1083 3178 
Q 1478 3394 1966 3394 
Q 2719 3394 3200 2905 
Q 3681 2416 3681 1669 
Q 3681 916 3195 420 
Q 2709 -75 1972 -75 
Q 1516 -75 1102 131 
Q 688 338 472 736 
Q 256 1134 256 1706 
z
M 1156 1659 
Q 1156 1166 1390 903 
Q 1625 641 1969 641 
Q 2313 641 2545 903 
Q 2778 1166 2778 1666 
Q 2778 2153 2545 2415 
Q 2313 2678 1969 2678 
Q 1625 2678 1390 2415 
Q 1156 2153 1156 1659 
z
" transform="scale(0.015625)"/>
      <path id="Arial-BoldMT-2e" d="M 459 0 
L 459 878 
L 1338 878 
L 1338 0 
L 459 0 
z
" transform="scale(0.015625)"/>
     </defs>
     <use xlink:href="#Arial-BoldMT-48"/>
     <use xlink:href="#Arial-BoldMT-51" transform="translate(72.216797 0)"/>
     <use xlink:href="#Arial-BoldMT-20" transform="translate(150 0)"/>
     <use xlink:href="#Arial-BoldMT-26" transform="translate(177.783203 0)"/>
     <use xlink:href="#Arial-BoldMT-20" transform="translate(250 0)"/>
     <use xlink:href="#Arial-BoldMT-53" transform="translate(277.783203 0)"/>
     <use xlink:href="#Arial-BoldMT-69" transform="translate(344.482422 0)"/>
     <use xlink:href="#Arial-BoldMT-67" transform="translate(372.265625 0)"/>
     <use xlink:href="#Arial-BoldMT-6e" transform="translate(433.349609 0)"/>
     <use xlink:href="#Arial-BoldMT-61" transform="translate(494.433594 0)"/>
     <use xlink:href="#Arial-BoldMT-6c" transform="translate(550.048828 0)"/>
     <use xlink:href="#Arial-BoldMT-20" transform="translate(577.832031 0)"/>
     <use xlink:href="#Arial-BoldMT-43" transform="translate(605.615234 0)"/>
     <use xlink:href="#Arial-BoldMT-6f" transform="translate(677.832031 0)"/>
     <use xlink:href="#Arial-BoldMT-2e" transform="translate(738.916016 0)"/>
    </g>
   </g>
   <g id="text_2">
    <!-- ISR &amp; Target -->
    <g style="fill: #ffffff" transform="translate(23.535446 330.849125) scale(0.08 -0.08)">
     <defs>
      <path id="Arial-BoldMT-72" d="M 1300 0 
L 422 0 
L 422 3319 
L 1238 3319 
L 1238 2847 
Q 1447 3181 1614 3287 
Q 1781 3394 1994 3394 
Q 2294 3394 2572 3228 
L 2300 2463 
Q 2078 2606 1888 2606 
Q 1703 2606 1575 2504 
Q 1447 2403 1373 2137 
Q 1300 1872 1300 1025 
L 1300 0 
z
" transform="scale(0.015625)"/>
      <path id="Arial-BoldMT-65" d="M 2381 1056 
L 3256 909 
Q 3088 428 2723 176 
Q 2359 -75 1813 -75 
Q 947 -75 531 491 
Q 203 944 203 1634 
Q 203 2459 634 2926 
Q 1066 3394 1725 3394 
Q 2466 3394 2894 2905 
Q 3322 2416 3303 1406 
L 1103 1406 
Q 1113 1016 1316 798 
Q 1519 581 1822 581 
Q 2028 581 2168 693 
Q 2309 806 2381 1056 
z
M 2431 1944 
Q 2422 2325 2234 2523 
Q 2047 2722 1778 2722 
Q 1491 2722 1303 2513 
Q 1116 2303 1119 1944 
L 2431 1944 
z
" transform="scale(0.015625)"/>
      <path id="Arial-BoldMT-74" d="M 1981 3319 
L 1981 2619 
L 1381 2619 
L 1381 1281 
Q 1381 875 1398 808 
Q 1416 741 1477 697 
Q 1538 653 1625 653 
Q 1747 653 1978 738 
L 2053 56 
Q 1747 -75 1359 -75 
Q 1122 -75 931 4 
Q 741 84 652 211 
Q 563 338 528 553 
Q 500 706 500 1172 
L 500 2619 
L 97 2619 
L 97 3319 
L 500 3319 
L 500 3978 
L 1381 4491 
L 1381 3319 
L 1981 3319 
z
" transform="scale(0.015625)"/>
     </defs>
     <use xlink:href="#Arial-BoldMT-49"/>
     <use xlink:href="#Arial-BoldMT-53" transform="translate(27.783203 0)"/>
     <use xlink:href="#Arial-BoldMT-52" transform="translate(94.482422 0)"/>
     <use xlink:href="#Arial-BoldMT-20" transform="translate(166.699219 0)"/>
     <use xlink:href="#Arial-BoldMT-26" transform="translate(194.482422 0)"/>
     <use xlink:href="#Arial-BoldMT-20" transform="translate(266.699219 0)"/>
     <use xlink:href="#Arial-BoldMT-54" transform="translate(294.482422 0)"/>
     <use xlink:href="#Arial-BoldMT-61" transform="translate(348.191406 0)"/>
     <use xlink:href="#Arial-BoldMT-72" transform="translate(403.806641 0)"/>
     <use xlink:href="#Arial-BoldMT-67" transform="translate(442.722656 0)"/>
     <use xlink:href="#Arial-BoldMT-65" transform="translate(503.806641 0)"/>
     <use xlink:href="#Arial-BoldMT-74" transform="translate(559.421875 0)"/>
    </g>
    <!-- Acquisition -->
    <g style="fill: #ffffff" transform="translate(25.467946 339.404375) scale(0.08 -0.08)">
     <defs>
      <path id="Arial-BoldMT-63" d="M 3353 2338 
L 2488 2181 
Q 2444 2441 2289 2572 
Q 2134 2703 1888 2703 
Q 1559 2703 1364 2476 
Q 1169 2250 1169 1719 
Q 1169 1128 1367 884 
Q 1566 641 1900 641 
Q 2150 641 2309 783 
Q 2469 925 2534 1272 
L 3397 1125 
Q 3263 531 2881 228 
Q 2500 -75 1859 -75 
Q 1131 -75 698 384 
Q 266 844 266 1656 
Q 266 2478 700 2936 
Q 1134 3394 1875 3394 
Q 2481 3394 2839 3133 
Q 3197 2872 3353 2338 
z
" transform="scale(0.015625)"/>
      <path id="Arial-BoldMT-71" d="M 2628 -1263 
L 2628 406 
Q 2456 184 2200 54 
Q 1944 -75 1647 -75 
Q 1081 -75 716 350 
Q 284 847 284 1697 
Q 284 2497 689 2945 
Q 1094 3394 1694 3394 
Q 2025 3394 2267 3253 
Q 2509 3113 2697 2828 
L 2697 3319 
L 3506 3319 
L 3506 -1263 
L 2628 -1263 
z
M 2656 1700 
Q 2656 2209 2448 2457 
Q 2241 2706 1928 2706 
Q 1609 2706 1395 2453 
Q 1181 2200 1181 1650 
Q 1181 1103 1387 861 
Q 1594 619 1897 619 
Q 2200 619 2428 891 
Q 2656 1163 2656 1700 
z
" transform="scale(0.015625)"/>
      <path id="Arial-BoldMT-75" d="M 2644 0 
L 2644 497 
Q 2463 231 2167 78 
Q 1872 -75 1544 -75 
Q 1209 -75 943 72 
Q 678 219 559 484 
Q 441 750 441 1219 
L 441 3319 
L 1319 3319 
L 1319 1794 
Q 1319 1094 1367 936 
Q 1416 778 1544 686 
Q 1672 594 1869 594 
Q 2094 594 2272 717 
Q 2450 841 2515 1023 
Q 2581 1206 2581 1919 
L 2581 3319 
L 3459 3319 
L 3459 0 
L 2644 0 
z
" transform="scale(0.015625)"/>
      <path id="Arial-BoldMT-73" d="M 150 947 
L 1031 1081 
Q 1088 825 1259 692 
Q 1431 559 1741 559 
Q 2081 559 2253 684 
Q 2369 772 2369 919 
Q 2369 1019 2306 1084 
Q 2241 1147 2013 1200 
Q 950 1434 666 1628 
Q 272 1897 272 2375 
Q 272 2806 612 3100 
Q 953 3394 1669 3394 
Q 2350 3394 2681 3172 
Q 3013 2950 3138 2516 
L 2309 2363 
Q 2256 2556 2107 2659 
Q 1959 2763 1684 2763 
Q 1338 2763 1188 2666 
Q 1088 2597 1088 2488 
Q 1088 2394 1175 2328 
Q 1294 2241 1995 2081 
Q 2697 1922 2975 1691 
Q 3250 1456 3250 1038 
Q 3250 581 2869 253 
Q 2488 -75 1741 -75 
Q 1063 -75 667 200 
Q 272 475 150 947 
z
" transform="scale(0.015625)"/>
     </defs>
     <use xlink:href="#Arial-BoldMT-41"/>
     <use xlink:href="#Arial-BoldMT-63" transform="translate(72.216797 0)"/>
     <use xlink:href="#Arial-BoldMT-71" transform="translate(127.832031 0)"/>
     <use xlink:href="#Arial-BoldMT-75" transform="translate(188.916016 0)"/>
     <use xlink:href="#Arial-BoldMT-69" transform="translate(250 0)"/>
     <use xlink:href="#Arial-BoldMT-73" transform="translate(277.783203 0)"/>
     <use xlink:href="#Arial-BoldMT-69" transform="translate(333.398438 0)"/>
     <use xlink:href="#Arial-BoldMT-74" transform="translate(361.181641 0)"/>
     <use xlink:href="#Arial-BoldMT-69" transform="translate(394.482422 0)"/>
     <use xlink:href="#Arial-BoldMT-6f" transform="translate(422.265625 0)"/>
     <use xlink:href="#Arial-BoldMT-6e" transform="translate(483.349609 0)"/>
    </g>
    <!-- Squadron -->
    <g style="fill: #ffffff" transform="translate(28.578571 347.971625) scale(0.08 -0.08)">
     <defs>
      <path id="Arial-BoldMT-64" d="M 3503 0 
L 2688 0 
L 2688 488 
Q 2484 203 2207 64 
Q 1931 -75 1650 -75 
Q 1078 -75 670 386 
Q 263 847 263 1672 
Q 263 2516 659 2955 
Q 1056 3394 1663 3394 
Q 2219 3394 2625 2931 
L 2625 4581 
L 3503 4581 
L 3503 0 
z
M 1159 1731 
Q 1159 1200 1306 963 
Q 1519 619 1900 619 
Q 2203 619 2415 876 
Q 2628 1134 2628 1647 
Q 2628 2219 2422 2470 
Q 2216 2722 1894 2722 
Q 1581 2722 1370 2473 
Q 1159 2225 1159 1731 
z
" transform="scale(0.015625)"/>
     </defs>
     <use xlink:href="#Arial-BoldMT-53"/>
     <use xlink:href="#Arial-BoldMT-71" transform="translate(66.699219 0)"/>
     <use xlink:href="#Arial-BoldMT-75" transform="translate(127.783203 0)"/>
     <use xlink:href="#Arial-BoldMT-61" transform="translate(188.867188 0)"/>
     <use xlink:href="#Arial-BoldMT-64" transform="translate(244.482422 0)"/>
     <use xlink:href="#Arial-BoldMT-72" transform="translate(305.566406 0)"/>
     <use xlink:href="#Arial-BoldMT-6f" transform="translate(344.482422 0)"/>
     <use xlink:href="#Arial-BoldMT-6e" transform="translate(405.566406 0)"/>
    </g>
    <!-- (12 MALE UAS) -->
    <g style="fill: #ffffff" transform="translate(18.131071 356.538875) scale(0.08 -0.08)">
     <defs>
      <path id="Arial-BoldMT-28" d="M 1916 -1347 
L 1313 -1347 
Q 834 -625 584 153 
Q 334 931 334 1659 
Q 334 2563 644 3369 
Q 913 4069 1325 4659 
L 1925 4659 
Q 1497 3713 1336 3048 
Q 1175 2384 1175 1641 
Q 1175 1128 1270 590 
Q 1366 53 1531 -431 
Q 1641 -750 1916 -1347 
z
" transform="scale(0.015625)"/>
      <path id="Arial-BoldMT-31" d="M 2519 0 
L 1641 0 
L 1641 3309 
Q 1159 2859 506 2644 
L 506 3441 
Q 850 3553 1253 3867 
Q 1656 4181 1806 4600 
L 2519 4600 
L 2519 0 
z
" transform="scale(0.015625)"/>
      <path id="Arial-BoldMT-32" d="M 3238 816 
L 3238 0 
L 159 0 
Q 209 463 459 877 
Q 709 1291 1447 1975 
Q 2041 2528 2175 2725 
Q 2356 2997 2356 3263 
Q 2356 3556 2198 3714 
Q 2041 3872 1763 3872 
Q 1488 3872 1325 3706 
Q 1163 3541 1138 3156 
L 263 3244 
Q 341 3969 753 4284 
Q 1166 4600 1784 4600 
Q 2463 4600 2850 4234 
Q 3238 3869 3238 3325 
Q 3238 3016 3127 2736 
Q 3016 2456 2775 2150 
Q 2616 1947 2200 1565 
Q 1784 1184 1673 1059 
Q 1563 934 1494 816 
L 3238 816 
z
" transform="scale(0.015625)"/>
      <path id="Arial-BoldMT-4c" d="M 491 0 
L 491 4544 
L 1416 4544 
L 1416 772 
L 3716 772 
L 3716 0 
L 491 0 
z
" transform="scale(0.015625)"/>
      <path id="Arial-BoldMT-55" d="M 459 4581 
L 1384 4581 
L 1384 2100 
Q 1384 1509 1419 1334 
Q 1478 1053 1701 883 
Q 1925 713 2313 713 
Q 2706 713 2906 873 
Q 3106 1034 3147 1268 
Q 3188 1503 3188 2047 
L 3188 4581 
L 4113 4581 
L 4113 2175 
Q 4113 1350 4038 1009 
Q 3963 669 3761 434 
Q 3559 200 3221 61 
Q 2884 -78 2341 -78 
Q 1684 -78 1345 73 
Q 1006 225 809 467 
Q 613 709 550 975 
Q 459 1369 459 2138 
L 459 4581 
z
" transform="scale(0.015625)"/>
      <path id="Arial-BoldMT-29" d="M 216 -1347 
Q 475 -791 581 -494 
Q 688 -197 778 190 
Q 869 578 912 926 
Q 956 1275 956 1641 
Q 956 2384 797 3048 
Q 638 3713 209 4659 
L 806 4659 
Q 1278 3988 1539 3234 
Q 1800 2481 1800 1706 
Q 1800 1053 1594 306 
Q 1359 -531 822 -1347 
L 216 -1347 
z
" transform="scale(0.015625)"/>
     </defs>
     <use xlink:href="#Arial-BoldMT-28"/>
     <use xlink:href="#Arial-BoldMT-31" transform="translate(33.300781 0)"/>
     <use xlink:href="#Arial-BoldMT-32" transform="translate(88.916016 0)"/>
     <use xlink:href="#Arial-BoldMT-20" transform="translate(144.53125 0)"/>
     <use xlink:href="#Arial-BoldMT-4d" transform="translate(172.314453 0)"/>
     <use xlink:href="#Arial-BoldMT-41" transform="translate(255.615234 0)"/>
     <use xlink:href="#Arial-BoldMT-4c" transform="translate(327.832031 0)"/>
     <use xlink:href="#Arial-BoldMT-45" transform="translate(388.916016 0)"/>
     <use xlink:href="#Arial-BoldMT-20" transform="translate(455.615234 0)"/>
     <use xlink:href="#Arial-BoldMT-55" transform="translate(483.398438 0)"/>
     <use xlink:href="#Arial-BoldMT-41" transform="translate(555.615234 0)"/>
     <use xlink:href="#Arial-BoldMT-53" transform="translate(627.832031 0)"/>
     <use xlink:href="#Arial-BoldMT-29" transform="translate(694.53125 0)"/>
    </g>
   </g>
   <g id="patch_8">
    <path d="M 502.707241 141.689896 
Q 275.936219 207.960166 50.774921 273.760019 
" style="fill: none; stroke: #000000; stroke-width: 1.5; stroke-linecap: round"/>
    <path d="M 55.175339 274.557717 
L 50.774921 273.760019 
L 54.05333 270.718303 
" style="fill: none; stroke: #000000; stroke-width: 1.5; stroke-linecap: round"/>
   </g>
   <g id="text_3">
    <!-- Electronic -->
    <g style="fill: #ffffff" transform="translate(239.00625 330.852875) scale(0.08 -0.08)">
     <use xlink:href="#Arial-BoldMT-45"/>
     <use xlink:href="#Arial-BoldMT-6c" transform="translate(66.699219 0)"/>
     <use xlink:href="#Arial-BoldMT-65" transform="translate(94.482422 0)"/>
     <use xlink:href="#Arial-BoldMT-63" transform="translate(150.097656 0)"/>
     <use xlink:href="#Arial-BoldMT-74" transform="translate(205.712891 0)"/>
     <use xlink:href="#Arial-BoldMT-72" transform="translate(239.013672 0)"/>
     <use xlink:href="#Arial-BoldMT-6f" transform="translate(277.929688 0)"/>
     <use xlink:href="#Arial-BoldMT-6e" transform="translate(339.013672 0)"/>
     <use xlink:href="#Arial-BoldMT-69" transform="translate(400.097656 0)"/>
     <use xlink:href="#Arial-BoldMT-63" transform="translate(427.880859 0)"/>
    </g>
    <!-- Warfare -->
    <g style="fill: #ffffff" transform="translate(243.600625 339.303125) scale(0.08 -0.08)">
     <defs>
      <path id="Arial-BoldMT-57" d="M 1116 0 
L 22 4581 
L 969 4581 
L 1659 1434 
L 2497 4581 
L 3597 4581 
L 4400 1381 
L 5103 4581 
L 6034 4581 
L 4922 0 
L 3941 0 
L 3028 3425 
L 2119 0 
L 1116 0 
z
" transform="scale(0.015625)"/>
      <path id="Arial-BoldMT-66" d="M 75 3319 
L 563 3319 
L 563 3569 
Q 563 3988 652 4194 
Q 741 4400 980 4529 
Q 1219 4659 1584 4659 
Q 1959 4659 2319 4547 
L 2200 3934 
Q 1991 3984 1797 3984 
Q 1606 3984 1523 3895 
Q 1441 3806 1441 3553 
L 1441 3319 
L 2097 3319 
L 2097 2628 
L 1441 2628 
L 1441 0 
L 563 0 
L 563 2628 
L 75 2628 
L 75 3319 
z
" transform="scale(0.015625)"/>
     </defs>
     <use xlink:href="#Arial-BoldMT-57"/>
     <use xlink:href="#Arial-BoldMT-61" transform="translate(90.634766 0)"/>
     <use xlink:href="#Arial-BoldMT-72" transform="translate(146.25 0)"/>
     <use xlink:href="#Arial-BoldMT-66" transform="translate(185.166016 0)"/>
     <use xlink:href="#Arial-BoldMT-61" transform="translate(218.466797 0)"/>
     <use xlink:href="#Arial-BoldMT-72" transform="translate(274.082031 0)"/>
     <use xlink:href="#Arial-BoldMT-65" transform="translate(312.998047 0)"/>
    </g>
    <!-- Squadron -->
    <g style="fill: #ffffff" transform="translate(239.68 347.870375) scale(0.08 -0.08)">
     <use xlink:href="#Arial-BoldMT-53"/>
     <use xlink:href="#Arial-BoldMT-71" transform="translate(66.699219 0)"/>
     <use xlink:href="#Arial-BoldMT-75" transform="translate(127.783203 0)"/>
     <use xlink:href="#Arial-BoldMT-61" transform="translate(188.867188 0)"/>
     <use xlink:href="#Arial-BoldMT-64" transform="translate(244.482422 0)"/>
     <use xlink:href="#Arial-BoldMT-72" transform="translate(305.566406 0)"/>
     <use xlink:href="#Arial-BoldMT-6f" transform="translate(344.482422 0)"/>
     <use xlink:href="#Arial-BoldMT-6e" transform="translate(405.566406 0)"/>
    </g>
    <!-- (24 EW Drones) -->
    <g style="fill: #ffffff" transform="translate(228.785625 356.437625) scale(0.08 -0.08)">
     <defs>
      <path id="Arial-BoldMT-34" d="M 1994 0 
L 1994 922 
L 119 922 
L 119 1691 
L 2106 4600 
L 2844 4600 
L 2844 1694 
L 3413 1694 
L 3413 922 
L 2844 922 
L 2844 0 
L 1994 0 
z
M 1994 1694 
L 1994 3259 
L 941 1694 
L 1994 1694 
z
" transform="scale(0.015625)"/>
      <path id="Arial-BoldMT-44" d="M 463 4581 
L 2153 4581 
Q 2725 4581 3025 4494 
Q 3428 4375 3715 4072 
Q 4003 3769 4153 3330 
Q 4303 2891 4303 2247 
Q 4303 1681 4163 1272 
Q 3991 772 3672 463 
Q 3431 228 3022 97 
Q 2716 0 2203 0 
L 463 0 
L 463 4581 
z
M 1388 3806 
L 1388 772 
L 2078 772 
Q 2466 772 2638 816 
Q 2863 872 3011 1006 
Q 3159 1141 3253 1448 
Q 3347 1756 3347 2288 
Q 3347 2819 3253 3103 
Q 3159 3388 2990 3547 
Q 2822 3706 2563 3763 
Q 2369 3806 1803 3806 
L 1388 3806 
z
" transform="scale(0.015625)"/>
     </defs>
     <use xlink:href="#Arial-BoldMT-28"/>
     <use xlink:href="#Arial-BoldMT-32" transform="translate(33.300781 0)"/>
     <use xlink:href="#Arial-BoldMT-34" transform="translate(88.916016 0)"/>
     <use xlink:href="#Arial-BoldMT-20" transform="translate(144.53125 0)"/>
     <use xlink:href="#Arial-BoldMT-45" transform="translate(172.314453 0)"/>
     <use xlink:href="#Arial-BoldMT-57" transform="translate(239.013672 0)"/>
     <use xlink:href="#Arial-BoldMT-20" transform="translate(333.398438 0)"/>
     <use xlink:href="#Arial-BoldMT-44" transform="translate(361.181641 0)"/>
     <use xlink:href="#Arial-BoldMT-72" transform="translate(433.398438 0)"/>
     <use xlink:href="#Arial-BoldMT-6f" transform="translate(472.314453 0)"/>
     <use xlink:href="#Arial-BoldMT-6e" transform="translate(533.398438 0)"/>
     <use xlink:href="#Arial-BoldMT-65" transform="translate(594.482422 0)"/>
     <use xlink:href="#Arial-BoldMT-73" transform="translate(650.097656 0)"/>
     <use xlink:href="#Arial-BoldMT-29" transform="translate(705.712891 0)"/>
    </g>
   </g>
   <g id="patch_9">
    <path d="M 502.875009 142.08047 
Q 381.48871 207.959344 261.576376 273.038265 
" style="fill: none; stroke: #000000; stroke-width: 1.5; stroke-linecap: round"/>
    <path d="M 266.04599 272.888075 
L 261.576376 273.038265 
L 264.137992 269.37246 
" style="fill: none; stroke: #000000; stroke-width: 1.5; stroke-linecap: round"/>
   </g>
   <g id="text_4">
    <!-- Heavy Strike -->
    <g style="fill: #ffffff" transform="translate(445.432054 335.07425) scale(0.08 -0.08)">
     <defs>
      <path id="Arial-BoldMT-76" d="M 1372 0 
L 34 3319 
L 956 3319 
L 1581 1625 
L 1763 1059 
Q 1834 1275 1853 1344 
Q 1897 1484 1947 1625 
L 2578 3319 
L 3481 3319 
L 2163 0 
L 1372 0 
z
" transform="scale(0.015625)"/>
      <path id="Arial-BoldMT-79" d="M 44 3319 
L 978 3319 
L 1772 963 
L 2547 3319 
L 3456 3319 
L 2284 125 
L 2075 -453 
Q 1959 -744 1854 -897 
Q 1750 -1050 1614 -1145 
Q 1478 -1241 1279 -1294 
Q 1081 -1347 831 -1347 
Q 578 -1347 334 -1294 
L 256 -606 
Q 463 -647 628 -647 
Q 934 -647 1081 -467 
Q 1228 -288 1306 -9 
L 44 3319 
z
" transform="scale(0.015625)"/>
      <path id="Arial-BoldMT-6b" d="M 428 0 
L 428 4581 
L 1306 4581 
L 1306 2150 
L 2334 3319 
L 3416 3319 
L 2281 2106 
L 3497 0 
L 2550 0 
L 1716 1491 
L 1306 1063 
L 1306 0 
L 428 0 
z
" transform="scale(0.015625)"/>
     </defs>
     <use xlink:href="#Arial-BoldMT-48"/>
     <use xlink:href="#Arial-BoldMT-65" transform="translate(72.216797 0)"/>
     <use xlink:href="#Arial-BoldMT-61" transform="translate(127.832031 0)"/>
     <use xlink:href="#Arial-BoldMT-76" transform="translate(183.447266 0)"/>
     <use xlink:href="#Arial-BoldMT-79" transform="translate(239.0625 0)"/>
     <use xlink:href="#Arial-BoldMT-20" transform="translate(294.677734 0)"/>
     <use xlink:href="#Arial-BoldMT-53" transform="translate(322.460938 0)"/>
     <use xlink:href="#Arial-BoldMT-74" transform="translate(389.160156 0)"/>
     <use xlink:href="#Arial-BoldMT-72" transform="translate(422.460938 0)"/>
     <use xlink:href="#Arial-BoldMT-69" transform="translate(461.376953 0)"/>
     <use xlink:href="#Arial-BoldMT-6b" transform="translate(489.160156 0)"/>
     <use xlink:href="#Arial-BoldMT-65" transform="translate(544.775391 0)"/>
    </g>
    <!-- Squadron -->
    <g style="fill: #ffffff" transform="translate(450.781429 343.7465) scale(0.08 -0.08)">
     <use xlink:href="#Arial-BoldMT-53"/>
     <use xlink:href="#Arial-BoldMT-71" transform="translate(66.699219 0)"/>
     <use xlink:href="#Arial-BoldMT-75" transform="translate(127.783203 0)"/>
     <use xlink:href="#Arial-BoldMT-61" transform="translate(188.867188 0)"/>
     <use xlink:href="#Arial-BoldMT-64" transform="translate(244.482422 0)"/>
     <use xlink:href="#Arial-BoldMT-72" transform="translate(305.566406 0)"/>
     <use xlink:href="#Arial-BoldMT-6f" transform="translate(344.482422 0)"/>
     <use xlink:href="#Arial-BoldMT-6e" transform="translate(405.566406 0)"/>
    </g>
    <!-- (48 Tube Launchers) -->
    <g style="fill: #ffffff" transform="translate(430.625804 352.31375) scale(0.08 -0.08)">
     <defs>
      <path id="Arial-BoldMT-38" d="M 1025 2472 
Q 684 2616 529 2867 
Q 375 3119 375 3419 
Q 375 3931 733 4265 
Q 1091 4600 1750 4600 
Q 2403 4600 2764 4265 
Q 3125 3931 3125 3419 
Q 3125 3100 2959 2851 
Q 2794 2603 2494 2472 
Q 2875 2319 3073 2025 
Q 3272 1731 3272 1347 
Q 3272 713 2867 316 
Q 2463 -81 1791 -81 
Q 1166 -81 750 247 
Q 259 634 259 1309 
Q 259 1681 443 1992 
Q 628 2303 1025 2472 
z
M 1206 3356 
Q 1206 3094 1354 2947 
Q 1503 2800 1750 2800 
Q 2000 2800 2150 2948 
Q 2300 3097 2300 3359 
Q 2300 3606 2151 3754 
Q 2003 3903 1759 3903 
Q 1506 3903 1356 3753 
Q 1206 3603 1206 3356 
z
M 1125 1394 
Q 1125 1031 1311 828 
Q 1497 625 1775 625 
Q 2047 625 2225 820 
Q 2403 1016 2403 1384 
Q 2403 1706 2222 1901 
Q 2041 2097 1763 2097 
Q 1441 2097 1283 1875 
Q 1125 1653 1125 1394 
z
" transform="scale(0.015625)"/>
      <path id="Arial-BoldMT-62" d="M 422 0 
L 422 4581 
L 1300 4581 
L 1300 2931 
Q 1706 3394 2263 3394 
Q 2869 3394 3266 2955 
Q 3663 2516 3663 1694 
Q 3663 844 3258 384 
Q 2853 -75 2275 -75 
Q 1991 -75 1714 67 
Q 1438 209 1238 488 
L 1238 0 
L 422 0 
z
M 1294 1731 
Q 1294 1216 1456 969 
Q 1684 619 2063 619 
Q 2353 619 2558 867 
Q 2763 1116 2763 1650 
Q 2763 2219 2556 2470 
Q 2350 2722 2028 2722 
Q 1713 2722 1503 2476 
Q 1294 2231 1294 1731 
z
" transform="scale(0.015625)"/>
      <path id="Arial-BoldMT-68" d="M 1334 4581 
L 1334 2897 
Q 1759 3394 2350 3394 
Q 2653 3394 2897 3281 
Q 3141 3169 3264 2994 
Q 3388 2819 3433 2606 
Q 3478 2394 3478 1947 
L 3478 0 
L 2600 0 
L 2600 1753 
Q 2600 2275 2550 2415 
Q 2500 2556 2373 2639 
Q 2247 2722 2056 2722 
Q 1838 2722 1666 2615 
Q 1494 2509 1414 2295 
Q 1334 2081 1334 1663 
L 1334 0 
L 456 0 
L 456 4581 
L 1334 4581 
z
" transform="scale(0.015625)"/>
     </defs>
     <use xlink:href="#Arial-BoldMT-28"/>
     <use xlink:href="#Arial-BoldMT-34" transform="translate(33.300781 0)"/>
     <use xlink:href="#Arial-BoldMT-38" transform="translate(88.916016 0)"/>
     <use xlink:href="#Arial-BoldMT-20" transform="translate(144.53125 0)"/>
     <use xlink:href="#Arial-BoldMT-54" transform="translate(172.314453 0)"/>
     <use xlink:href="#Arial-BoldMT-75" transform="translate(226.023438 0)"/>
     <use xlink:href="#Arial-BoldMT-62" transform="translate(287.107422 0)"/>
     <use xlink:href="#Arial-BoldMT-65" transform="translate(348.191406 0)"/>
     <use xlink:href="#Arial-BoldMT-20" transform="translate(403.806641 0)"/>
     <use xlink:href="#Arial-BoldMT-4c" transform="translate(431.589844 0)"/>
     <use xlink:href="#Arial-BoldMT-61" transform="translate(492.673828 0)"/>
     <use xlink:href="#Arial-BoldMT-75" transform="translate(548.289062 0)"/>
     <use xlink:href="#Arial-BoldMT-6e" transform="translate(609.373047 0)"/>
     <use xlink:href="#Arial-BoldMT-63" transform="translate(670.457031 0)"/>
     <use xlink:href="#Arial-BoldMT-68" transform="translate(726.072266 0)"/>
     <use xlink:href="#Arial-BoldMT-65" transform="translate(787.15625 0)"/>
     <use xlink:href="#Arial-BoldMT-72" transform="translate(842.771484 0)"/>
     <use xlink:href="#Arial-BoldMT-73" transform="translate(881.6875 0)"/>
     <use xlink:href="#Arial-BoldMT-29" transform="translate(937.302734 0)"/>
    </g>
   </g>
   <g id="patch_10">
    <path d="M 504.119984 143.065573 
Q 487.037692 207.961983 470.382299 271.236587 
" style="fill: none; stroke: #000000; stroke-width: 1.5; stroke-linecap: round"/>
    <path d="M 473.334629 267.877458 
L 470.382299 271.236587 
L 469.466393 266.859245 
" style="fill: none; stroke: #000000; stroke-width: 1.5; stroke-linecap: round"/>
   </g>
   <g id="text_5">
    <!-- Swarm Strike -->
    <g style="fill: #ffffff" transform="translate(655.202232 335.078) scale(0.08 -0.08)">
     <defs>
      <path id="Arial-BoldMT-77" d="M 1078 0 
L 28 3319 
L 881 3319 
L 1503 1144 
L 2075 3319 
L 2922 3319 
L 3475 1144 
L 4109 3319 
L 4975 3319 
L 3909 0 
L 3066 0 
L 2494 2134 
L 1931 0 
L 1078 0 
z
" transform="scale(0.015625)"/>
      <path id="Arial-BoldMT-6d" d="M 394 3319 
L 1203 3319 
L 1203 2866 
Q 1638 3394 2238 3394 
Q 2556 3394 2790 3262 
Q 3025 3131 3175 2866 
Q 3394 3131 3647 3262 
Q 3900 3394 4188 3394 
Q 4553 3394 4806 3245 
Q 5059 3097 5184 2809 
Q 5275 2597 5275 2122 
L 5275 0 
L 4397 0 
L 4397 1897 
Q 4397 2391 4306 2534 
Q 4184 2722 3931 2722 
Q 3747 2722 3584 2609 
Q 3422 2497 3350 2280 
Q 3278 2063 3278 1594 
L 3278 0 
L 2400 0 
L 2400 1819 
Q 2400 2303 2353 2443 
Q 2306 2584 2207 2653 
Q 2109 2722 1941 2722 
Q 1738 2722 1575 2612 
Q 1413 2503 1342 2297 
Q 1272 2091 1272 1613 
L 1272 0 
L 394 0 
L 394 3319 
z
" transform="scale(0.015625)"/>
     </defs>
     <use xlink:href="#Arial-BoldMT-53"/>
     <use xlink:href="#Arial-BoldMT-77" transform="translate(66.699219 0)"/>
     <use xlink:href="#Arial-BoldMT-61" transform="translate(144.482422 0)"/>
     <use xlink:href="#Arial-BoldMT-72" transform="translate(200.097656 0)"/>
     <use xlink:href="#Arial-BoldMT-6d" transform="translate(239.013672 0)"/>
     <use xlink:href="#Arial-BoldMT-20" transform="translate(327.929688 0)"/>
     <use xlink:href="#Arial-BoldMT-53" transform="translate(355.712891 0)"/>
     <use xlink:href="#Arial-BoldMT-74" transform="translate(422.412109 0)"/>
     <use xlink:href="#Arial-BoldMT-72" transform="translate(455.712891 0)"/>
     <use xlink:href="#Arial-BoldMT-69" transform="translate(494.628906 0)"/>
     <use xlink:href="#Arial-BoldMT-6b" transform="translate(522.412109 0)"/>
     <use xlink:href="#Arial-BoldMT-65" transform="translate(578.027344 0)"/>
    </g>
    <!-- Squadron -->
    <g style="fill: #ffffff" transform="translate(661.882857 343.64525) scale(0.08 -0.08)">
     <use xlink:href="#Arial-BoldMT-53"/>
     <use xlink:href="#Arial-BoldMT-71" transform="translate(66.699219 0)"/>
     <use xlink:href="#Arial-BoldMT-75" transform="translate(127.783203 0)"/>
     <use xlink:href="#Arial-BoldMT-61" transform="translate(188.867188 0)"/>
     <use xlink:href="#Arial-BoldMT-64" transform="translate(244.482422 0)"/>
     <use xlink:href="#Arial-BoldMT-72" transform="translate(305.566406 0)"/>
     <use xlink:href="#Arial-BoldMT-6f" transform="translate(344.482422 0)"/>
     <use xlink:href="#Arial-BoldMT-6e" transform="translate(405.566406 0)"/>
    </g>
    <!-- (12 MTLVs) -->
    <g style="fill: #ffffff" transform="translate(659.508482 352.2125) scale(0.08 -0.08)">
     <defs>
      <path id="Arial-BoldMT-56" d="M 1634 0 
L -3 4581 
L 1000 4581 
L 2159 1191 
L 3281 4581 
L 4263 4581 
L 2622 0 
L 1634 0 
z
" transform="scale(0.015625)"/>
     </defs>
     <use xlink:href="#Arial-BoldMT-28"/>
     <use xlink:href="#Arial-BoldMT-31" transform="translate(33.300781 0)"/>
     <use xlink:href="#Arial-BoldMT-32" transform="translate(88.916016 0)"/>
     <use xlink:href="#Arial-BoldMT-20" transform="translate(144.53125 0)"/>
     <use xlink:href="#Arial-BoldMT-4d" transform="translate(172.314453 0)"/>
     <use xlink:href="#Arial-BoldMT-54" transform="translate(255.615234 0)"/>
     <use xlink:href="#Arial-BoldMT-4c" transform="translate(316.699219 0)"/>
     <use xlink:href="#Arial-BoldMT-56" transform="translate(370.408203 0)"/>
     <use xlink:href="#Arial-BoldMT-73" transform="translate(437.107422 0)"/>
     <use xlink:href="#Arial-BoldMT-29" transform="translate(492.722656 0)"/>
    </g>
   </g>
   <g id="patch_11">
    <path d="M 506.221786 142.337454 
Q 592.58815 207.959409 677.619187 272.56677 
" style="fill: none; stroke: #000000; stroke-width: 1.5; stroke-linecap: round"/>
    <path d="M 675.644219 268.554351 
L 677.619187 272.56677 
L 673.224272 271.739293 
" style="fill: none; stroke: #000000; stroke-width: 1.5; stroke-linecap: round"/>
   </g>
   <g id="text_6">
    <!-- Logistics &amp; -->
    <g style="fill: #ffffff" transform="translate(870.092411 335.13275) scale(0.08 -0.08)">
     <use xlink:href="#Arial-BoldMT-4c"/>
     <use xlink:href="#Arial-BoldMT-6f" transform="translate(61.083984 0)"/>
     <use xlink:href="#Arial-BoldMT-67" transform="translate(122.167969 0)"/>
     <use xlink:href="#Arial-BoldMT-69" transform="translate(183.251953 0)"/>
     <use xlink:href="#Arial-BoldMT-73" transform="translate(211.035156 0)"/>
     <use xlink:href="#Arial-BoldMT-74" transform="translate(266.650391 0)"/>
     <use xlink:href="#Arial-BoldMT-69" transform="translate(299.951172 0)"/>
     <use xlink:href="#Arial-BoldMT-63" transform="translate(327.734375 0)"/>
     <use xlink:href="#Arial-BoldMT-73" transform="translate(383.349609 0)"/>
     <use xlink:href="#Arial-BoldMT-20" transform="translate(438.964844 0)"/>
     <use xlink:href="#Arial-BoldMT-26" transform="translate(466.748047 0)"/>
    </g>
    <!-- Maintenance -->
    <g style="fill: #ffffff" transform="translate(867.423036 343.688) scale(0.08 -0.08)">
     <use xlink:href="#Arial-BoldMT-4d"/>
     <use xlink:href="#Arial-BoldMT-61" transform="translate(83.300781 0)"/>
     <use xlink:href="#Arial-BoldMT-69" transform="translate(138.916016 0)"/>
     <use xlink:href="#Arial-BoldMT-6e" transform="translate(166.699219 0)"/>
     <use xlink:href="#Arial-BoldMT-74" transform="translate(227.783203 0)"/>
     <use xlink:href="#Arial-BoldMT-65" transform="translate(261.083984 0)"/>
     <use xlink:href="#Arial-BoldMT-6e" transform="translate(316.699219 0)"/>
     <use xlink:href="#Arial-BoldMT-61" transform="translate(377.783203 0)"/>
     <use xlink:href="#Arial-BoldMT-6e" transform="translate(433.398438 0)"/>
     <use xlink:href="#Arial-BoldMT-63" transform="translate(494.482422 0)"/>
     <use xlink:href="#Arial-BoldMT-65" transform="translate(550.097656 0)"/>
    </g>
    <!-- Company -->
    <g style="fill: #ffffff" transform="translate(873.425536 352.25525) scale(0.08 -0.08)">
     <defs>
      <path id="Arial-BoldMT-70" d="M 434 3319 
L 1253 3319 
L 1253 2831 
Q 1413 3081 1684 3237 
Q 1956 3394 2288 3394 
Q 2866 3394 3269 2941 
Q 3672 2488 3672 1678 
Q 3672 847 3265 386 
Q 2859 -75 2281 -75 
Q 2006 -75 1782 34 
Q 1559 144 1313 409 
L 1313 -1263 
L 434 -1263 
L 434 3319 
z
M 1303 1716 
Q 1303 1156 1525 889 
Q 1747 622 2066 622 
Q 2372 622 2575 867 
Q 2778 1113 2778 1672 
Q 2778 2194 2568 2447 
Q 2359 2700 2050 2700 
Q 1728 2700 1515 2451 
Q 1303 2203 1303 1716 
z
" transform="scale(0.015625)"/>
     </defs>
     <use xlink:href="#Arial-BoldMT-43"/>
     <use xlink:href="#Arial-BoldMT-6f" transform="translate(72.216797 0)"/>
     <use xlink:href="#Arial-BoldMT-6d" transform="translate(133.300781 0)"/>
     <use xlink:href="#Arial-BoldMT-70" transform="translate(222.216797 0)"/>
     <use xlink:href="#Arial-BoldMT-61" transform="translate(283.300781 0)"/>
     <use xlink:href="#Arial-BoldMT-6e" transform="translate(338.916016 0)"/>
     <use xlink:href="#Arial-BoldMT-79" transform="translate(400 0)"/>
    </g>
   </g>
   <g id="patch_12">
    <path d="M 506.522695 141.781676 
Q 698.141333 207.960584 888.174795 273.592023 
" style="fill: none; stroke: #000000; stroke-width: 1.5; stroke-linecap: round"/>
    <path d="M 885.046827 270.395804 
L 888.174795 273.592023 
L 883.741039 274.176666 
" style="fill: none; stroke: #000000; stroke-width: 1.5; stroke-linecap: round"/>
   </g>
   <g id="text_7">
    <g id="patch_13">
     <path d="M 407.098672 592.098734 
L 602.161328 592.098734 
Q 607.661328 592.098734 607.661328 586.598734 
L 607.661328 564.473266 
Q 607.661328 558.973266 602.161328 558.973266 
L 407.098672 558.973266 
Q 401.598672 558.973266 401.598672 564.473266 
L 401.598672 586.598734 
Q 401.598672 592.098734 407.098672 592.098734 
z
" style="fill: #ffffe0; stroke: #003366; stroke-width: 2; stroke-linejoin: miter"/>
    </g>
    <!-- Total Strength: 650-800 Personnel -->
    <g transform="translate(416.102344 572.480922) scale(0.11 -0.11)">
     <defs>
      <path id="Arial-BoldMT-3a" d="M 628 2441 
L 628 3319 
L 1506 3319 
L 1506 2441 
L 628 2441 
z
M 628 0 
L 628 878 
L 1506 878 
L 1506 0 
L 628 0 
z
" transform="scale(0.015625)"/>
      <path id="Arial-BoldMT-36" d="M 3247 3459 
L 2397 3366 
Q 2366 3628 2234 3753 
Q 2103 3878 1894 3878 
Q 1616 3878 1423 3628 
Q 1231 3378 1181 2588 
Q 1509 2975 1997 2975 
Q 2547 2975 2939 2556 
Q 3331 2138 3331 1475 
Q 3331 772 2918 347 
Q 2506 -78 1859 -78 
Q 1166 -78 719 461 
Q 272 1000 272 2228 
Q 272 3488 737 4044 
Q 1203 4600 1947 4600 
Q 2469 4600 2811 4308 
Q 3153 4016 3247 3459 
z
M 1256 1544 
Q 1256 1116 1453 883 
Q 1650 650 1903 650 
Q 2147 650 2309 840 
Q 2472 1031 2472 1466 
Q 2472 1913 2297 2120 
Q 2122 2328 1859 2328 
Q 1606 2328 1431 2129 
Q 1256 1931 1256 1544 
z
" transform="scale(0.015625)"/>
      <path id="Arial-BoldMT-35" d="M 284 1178 
L 1159 1269 
Q 1197 972 1381 798 
Q 1566 625 1806 625 
Q 2081 625 2272 848 
Q 2463 1072 2463 1522 
Q 2463 1944 2273 2155 
Q 2084 2366 1781 2366 
Q 1403 2366 1103 2031 
L 391 2134 
L 841 4519 
L 3163 4519 
L 3163 3697 
L 1506 3697 
L 1369 2919 
Q 1663 3066 1969 3066 
Q 2553 3066 2959 2641 
Q 3366 2216 3366 1538 
Q 3366 972 3038 528 
Q 2591 -78 1797 -78 
Q 1163 -78 763 262 
Q 363 603 284 1178 
z
" transform="scale(0.015625)"/>
      <path id="Arial-BoldMT-30" d="M 1756 4600 
Q 2422 4600 2797 4125 
Q 3244 3563 3244 2259 
Q 3244 959 2794 391 
Q 2422 -78 1756 -78 
Q 1088 -78 678 436 
Q 269 950 269 2269 
Q 269 3563 719 4131 
Q 1091 4600 1756 4600 
z
M 1756 3872 
Q 1597 3872 1472 3770 
Q 1347 3669 1278 3406 
Q 1188 3066 1188 2259 
Q 1188 1453 1269 1151 
Q 1350 850 1473 750 
Q 1597 650 1756 650 
Q 1916 650 2041 751 
Q 2166 853 2234 1116 
Q 2325 1453 2325 2259 
Q 2325 3066 2244 3367 
Q 2163 3669 2039 3770 
Q 1916 3872 1756 3872 
z
" transform="scale(0.015625)"/>
      <path id="Arial-BoldMT-2d" d="M 359 1222 
L 359 2100 
L 2084 2100 
L 2084 1222 
L 359 1222 
z
" transform="scale(0.015625)"/>
      <path id="Arial-BoldMT-50" d="M 466 0 
L 466 4581 
L 1950 4581 
Q 2794 4581 3050 4513 
Q 3444 4409 3709 4064 
Q 3975 3719 3975 3172 
Q 3975 2750 3822 2462 
Q 3669 2175 3433 2011 
Q 3197 1847 2953 1794 
Q 2622 1728 1994 1728 
L 1391 1728 
L 1391 0 
L 466 0 
z
M 1391 3806 
L 1391 2506 
L 1897 2506 
Q 2444 2506 2628 2578 
Q 2813 2650 2917 2803 
Q 3022 2956 3022 3159 
Q 3022 3409 2875 3571 
Q 2728 3734 2503 3775 
Q 2338 3806 1838 3806 
L 1391 3806 
z
" transform="scale(0.015625)"/>
     </defs>
     <use xlink:href="#Arial-BoldMT-54"/>
     <use xlink:href="#Arial-BoldMT-6f" transform="translate(53.708984 0)"/>
     <use xlink:href="#Arial-BoldMT-74" transform="translate(114.792969 0)"/>
     <use xlink:href="#Arial-BoldMT-61" transform="translate(148.09375 0)"/>
     <use xlink:href="#Arial-BoldMT-6c" transform="translate(203.708984 0)"/>
     <use xlink:href="#Arial-BoldMT-20" transform="translate(231.492188 0)"/>
     <use xlink:href="#Arial-BoldMT-53" transform="translate(259.275391 0)"/>
     <use xlink:href="#Arial-BoldMT-74" transform="translate(325.974609 0)"/>
     <use xlink:href="#Arial-BoldMT-72" transform="translate(359.275391 0)"/>
     <use xlink:href="#Arial-BoldMT-65" transform="translate(398.191406 0)"/>
     <use xlink:href="#Arial-BoldMT-6e" transform="translate(453.806641 0)"/>
     <use xlink:href="#Arial-BoldMT-67" transform="translate(514.890625 0)"/>
     <use xlink:href="#Arial-BoldMT-74" transform="translate(575.974609 0)"/>
     <use xlink:href="#Arial-BoldMT-68" transform="translate(609.275391 0)"/>
     <use xlink:href="#Arial-BoldMT-3a" transform="translate(670.359375 0)"/>
     <use xlink:href="#Arial-BoldMT-20" transform="translate(703.660156 0)"/>
     <use xlink:href="#Arial-BoldMT-36" transform="translate(731.443359 0)"/>
     <use xlink:href="#Arial-BoldMT-35" transform="translate(787.058594 0)"/>
     <use xlink:href="#Arial-BoldMT-30" transform="translate(842.673828 0)"/>
     <use xlink:href="#Arial-BoldMT-2d" transform="translate(898.289062 0)"/>
     <use xlink:href="#Arial-BoldMT-38" transform="translate(931.589844 0)"/>
     <use xlink:href="#Arial-BoldMT-30" transform="translate(987.205078 0)"/>
     <use xlink:href="#Arial-BoldMT-30" transform="translate(1042.820312 0)"/>
     <use xlink:href="#Arial-BoldMT-20" transform="translate(1098.435547 0)"/>
     <use xlink:href="#Arial-BoldMT-50" transform="translate(1126.21875 0)"/>
     <use xlink:href="#Arial-BoldMT-65" transform="translate(1192.917969 0)"/>
     <use xlink:href="#Arial-BoldMT-72" transform="translate(1248.533203 0)"/>
     <use xlink:href="#Arial-BoldMT-73" transform="translate(1287.449219 0)"/>
     <use xlink:href="#Arial-BoldMT-6f" transform="translate(1343.064453 0)"/>
     <use xlink:href="#Arial-BoldMT-6e" transform="translate(1404.148438 0)"/>
     <use xlink:href="#Arial-BoldMT-6e" transform="translate(1465.232422 0)"/>
     <use xlink:href="#Arial-BoldMT-65" transform="translate(1526.316406 0)"/>
     <use xlink:href="#Arial-BoldMT-6c" transform="translate(1581.931641 0)"/>
    </g>
    <!-- Total Munitions: ~1,500 Ready-to-Fire -->
    <g transform="translate(407.098672 584.283578) scale(0.11 -0.11)">
     <defs>
      <path id="Arial-BoldMT-7e" d="M 209 1622 
L 209 2431 
Q 606 2863 1134 2863 
Q 1331 2863 1497 2823 
Q 1663 2784 2092 2611 
Q 2522 2438 2675 2438 
Q 2850 2438 3079 2545 
Q 3309 2653 3528 2888 
L 3528 2044 
Q 3384 1894 3126 1762 
Q 2869 1631 2594 1631 
Q 2438 1631 2289 1668 
Q 2141 1706 1819 1847 
Q 1338 2056 1063 2056 
Q 625 2056 209 1622 
z
" transform="scale(0.015625)"/>
      <path id="Arial-BoldMT-2c" d="M 438 878 
L 1316 878 
L 1316 250 
Q 1316 -131 1250 -351 
Q 1184 -572 1001 -747 
Q 819 -922 538 -1022 
L 366 -659 
Q 631 -572 743 -419 
Q 856 -266 863 0 
L 438 0 
L 438 878 
z
" transform="scale(0.015625)"/>
      <path id="Arial-BoldMT-46" d="M 472 0 
L 472 4581 
L 3613 4581 
L 3613 3806 
L 1397 3806 
L 1397 2722 
L 3309 2722 
L 3309 1947 
L 1397 1947 
L 1397 0 
L 472 0 
z
" transform="scale(0.015625)"/>
     </defs>
     <use xlink:href="#Arial-BoldMT-54"/>
     <use xlink:href="#Arial-BoldMT-6f" transform="translate(53.708984 0)"/>
     <use xlink:href="#Arial-BoldMT-74" transform="translate(114.792969 0)"/>
     <use xlink:href="#Arial-BoldMT-61" transform="translate(148.09375 0)"/>
     <use xlink:href="#Arial-BoldMT-6c" transform="translate(203.708984 0)"/>
     <use xlink:href="#Arial-BoldMT-20" transform="translate(231.492188 0)"/>
     <use xlink:href="#Arial-BoldMT-4d" transform="translate(259.275391 0)"/>
     <use xlink:href="#Arial-BoldMT-75" transform="translate(342.576172 0)"/>
     <use xlink:href="#Arial-BoldMT-6e" transform="translate(403.660156 0)"/>
     <use xlink:href="#Arial-BoldMT-69" transform="translate(464.744141 0)"/>
     <use xlink:href="#Arial-BoldMT-74" transform="translate(492.527344 0)"/>
     <use xlink:href="#Arial-BoldMT-69" transform="translate(525.828125 0)"/>
     <use xlink:href="#Arial-BoldMT-6f" transform="translate(553.611328 0)"/>
     <use xlink:href="#Arial-BoldMT-6e" transform="translate(614.695312 0)"/>
     <use xlink:href="#Arial-BoldMT-73" transform="translate(675.779297 0)"/>
     <use xlink:href="#Arial-BoldMT-3a" transform="translate(731.394531 0)"/>
     <use xlink:href="#Arial-BoldMT-20" transform="translate(764.695312 0)"/>
     <use xlink:href="#Arial-BoldMT-7e" transform="translate(792.478516 0)"/>
     <use xlink:href="#Arial-BoldMT-31" transform="translate(850.876953 0)"/>
     <use xlink:href="#Arial-BoldMT-2c" transform="translate(906.492188 0)"/>
     <use xlink:href="#Arial-BoldMT-35" transform="translate(934.275391 0)"/>
     <use xlink:href="#Arial-BoldMT-30" transform="translate(989.890625 0)"/>
     <use xlink:href="#Arial-BoldMT-30" transform="translate(1045.505859 0)"/>
     <use xlink:href="#Arial-BoldMT-20" transform="translate(1101.121094 0)"/>
     <use xlink:href="#Arial-BoldMT-52" transform="translate(1128.904297 0)"/>
     <use xlink:href="#Arial-BoldMT-65" transform="translate(1201.121094 0)"/>
     <use xlink:href="#Arial-BoldMT-61" transform="translate(1256.736328 0)"/>
     <use xlink:href="#Arial-BoldMT-64" transform="translate(1312.351562 0)"/>
     <use xlink:href="#Arial-BoldMT-79" transform="translate(1373.435547 0)"/>
     <use xlink:href="#Arial-BoldMT-2d" transform="translate(1429.050781 0)"/>
     <use xlink:href="#Arial-BoldMT-74" transform="translate(1462.351562 0)"/>
     <use xlink:href="#Arial-BoldMT-6f" transform="translate(1495.652344 0)"/>
     <use xlink:href="#Arial-BoldMT-2d" transform="translate(1556.736328 0)"/>
     <use xlink:href="#Arial-BoldMT-46" transform="translate(1590.037109 0)"/>
     <use xlink:href="#Arial-BoldMT-69" transform="translate(1651.121094 0)"/>
     <use xlink:href="#Arial-BoldMT-72" transform="translate(1678.904297 0)"/>
     <use xlink:href="#Arial-BoldMT-65" transform="translate(1717.820312 0)"/>
    </g>
   </g>
   <g id="text_8">
    <!-- Figure 4.1: Shaktibaan Regiment Organizational Structure -->
    <g style="fill: #003366" transform="translate(312.494219 20.88) scale(0.14 -0.14)">
     <defs>
      <path id="Arial-BoldMT-4f" d="M 278 2263 
Q 278 2963 488 3438 
Q 644 3788 914 4066 
Q 1184 4344 1506 4478 
Q 1934 4659 2494 4659 
Q 3506 4659 4114 4031 
Q 4722 3403 4722 2284 
Q 4722 1175 4119 548 
Q 3516 -78 2506 -78 
Q 1484 -78 881 545 
Q 278 1169 278 2263 
z
M 1231 2294 
Q 1231 1516 1590 1114 
Q 1950 713 2503 713 
Q 3056 713 3411 1111 
Q 3766 1509 3766 2306 
Q 3766 3094 3420 3481 
Q 3075 3869 2503 3869 
Q 1931 3869 1581 3476 
Q 1231 3084 1231 2294 
z
" transform="scale(0.015625)"/>
      <path id="Arial-BoldMT-7a" d="M 106 0 
L 106 684 
L 1350 2113 
Q 1656 2463 1803 2609 
Q 1650 2600 1400 2597 
L 228 2591 
L 228 3319 
L 2972 3319 
L 2972 2697 
L 1703 1234 
L 1256 750 
Q 1622 772 1709 772 
L 3069 772 
L 3069 0 
L 106 0 
z
" transform="scale(0.015625)"/>
     </defs>
     <use xlink:href="#Arial-BoldMT-46"/>
     <use xlink:href="#Arial-BoldMT-69" transform="translate(61.083984 0)"/>
     <use xlink:href="#Arial-BoldMT-67" transform="translate(88.867188 0)"/>
     <use xlink:href="#Arial-BoldMT-75" transform="translate(149.951172 0)"/>
     <use xlink:href="#Arial-BoldMT-72" transform="translate(211.035156 0)"/>
     <use xlink:href="#Arial-BoldMT-65" transform="translate(249.951172 0)"/>
     <use xlink:href="#Arial-BoldMT-20" transform="translate(305.566406 0)"/>
     <use xlink:href="#Arial-BoldMT-34" transform="translate(333.349609 0)"/>
     <use xlink:href="#Arial-BoldMT-2e" transform="translate(388.964844 0)"/>
     <use xlink:href="#Arial-BoldMT-31" transform="translate(416.748047 0)"/>
     <use xlink:href="#Arial-BoldMT-3a" transform="translate(472.363281 0)"/>
     <use xlink:href="#Arial-BoldMT-20" transform="translate(505.664062 0)"/>
     <use xlink:href="#Arial-BoldMT-53" transform="translate(533.447266 0)"/>
     <use xlink:href="#Arial-BoldMT-68" transform="translate(600.146484 0)"/>
     <use xlink:href="#Arial-BoldMT-61" transform="translate(661.230469 0)"/>
     <use xlink:href="#Arial-BoldMT-6b" transform="translate(716.845703 0)"/>
     <use xlink:href="#Arial-BoldMT-74" transform="translate(772.460938 0)"/>
     <use xlink:href="#Arial-BoldMT-69" transform="translate(805.761719 0)"/>
     <use xlink:href="#Arial-BoldMT-62" transform="translate(833.544922 0)"/>
     <use xlink:href="#Arial-BoldMT-61" transform="translate(894.628906 0)"/>
     <use xlink:href="#Arial-BoldMT-61" transform="translate(950.244141 0)"/>
     <use xlink:href="#Arial-BoldMT-6e" transform="translate(1005.859375 0)"/>
     <use xlink:href="#Arial-BoldMT-20" transform="translate(1066.943359 0)"/>
     <use xlink:href="#Arial-BoldMT-52" transform="translate(1094.726562 0)"/>
     <use xlink:href="#Arial-BoldMT-65" transform="translate(1166.943359 0)"/>
     <use xlink:href="#Arial-BoldMT-67" transform="translate(1222.558594 0)"/>
     <use xlink:href="#Arial-BoldMT-69" transform="translate(1283.642578 0)"/>
     <use xlink:href="#Arial-BoldMT-6d" transform="translate(1311.425781 0)"/>
     <use xlink:href="#Arial-BoldMT-65" transform="translate(1400.341797 0)"/>
     <use xlink:href="#Arial-BoldMT-6e" transform="translate(1455.957031 0)"/>
     <use xlink:href="#Arial-BoldMT-74" transform="translate(1517.041016 0)"/>
     <use xlink:href="#Arial-BoldMT-20" transform="translate(1550.341797 0)"/>
     <use xlink:href="#Arial-BoldMT-4f" transform="translate(1578.125 0)"/>
     <use xlink:href="#Arial-BoldMT-72" transform="translate(1655.908203 0)"/>
     <use xlink:href="#Arial-BoldMT-67" transform="translate(1694.824219 0)"/>
     <use xlink:href="#Arial-BoldMT-61" transform="translate(1755.908203 0)"/>
     <use xlink:href="#Arial-BoldMT-6e" transform="translate(1811.523438 0)"/>
     <use xlink:href="#Arial-BoldMT-69" transform="translate(1872.607422 0)"/>
     <use xlink:href="#Arial-BoldMT-7a" transform="translate(1900.390625 0)"/>
     <use xlink:href="#Arial-BoldMT-61" transform="translate(1950.390625 0)"/>
     <use xlink:href="#Arial-BoldMT-74" transform="translate(2006.005859 0)"/>
     <use xlink:href="#Arial-BoldMT-69" transform="translate(2039.306641 0)"/>
     <use xlink:href="#Arial-BoldMT-6f" transform="translate(2067.089844 0)"/>
     <use xlink:href="#Arial-BoldMT-6e" transform="translate(2128.173828 0)"/>
     <use xlink:href="#Arial-BoldMT-61" transform="translate(2189.257812 0)"/>
     <use xlink:href="#Arial-BoldMT-6c" transform="translate(2244.873047 0)"/>
     <use xlink:href="#Arial-BoldMT-20" transform="translate(2272.65625 0)"/>
     <use xlink:href="#Arial-BoldMT-53" transform="translate(2300.439453 0)"/>
     <use xlink:href="#Arial-BoldMT-74" transform="translate(2367.138672 0)"/>
     <use xlink:href="#Arial-BoldMT-72" transform="translate(2400.439453 0)"/>
     <use xlink:href="#Arial-BoldMT-75" transform="translate(2439.355469 0)"/>
     <use xlink:href="#Arial-BoldMT-63" transform="translate(2500.439453 0)"/>
     <use xlink:href="#Arial-BoldMT-74" transform="translate(2556.054688 0)"/>
     <use xlink:href="#Arial-BoldMT-75" transform="translate(2589.355469 0)"/>
     <use xlink:href="#Arial-BoldMT-72" transform="translate(2650.439453 0)"/>
     <use xlink:href="#Arial-BoldMT-65" transform="translate(2689.355469 0)"/>
    </g>
   </g>
  </g>
 </g>
 <defs>
  <clipPath id="p0233d37254">
   <rect x="12.06" y="40.88" width="985.14" height="668.32"/>
  </clipPath>
 </defs>
</svg>
