<?xml version="1.0" encoding="UTF-8"?>
<svg id="Layer_1" xmlns="http://www.w3.org/2000/svg" version="1.1" viewBox="0 0 600 500">
  <!-- Generator: Adobe Illustrator 30.4.0, SVG Export Plug-In . SVG Version: 2.1.4 Build 226)  -->
  <defs>
    <style>
      .st0 {
        fill: #f60;
      }

      .st0, .st1, .st2, .st3 {
        stroke: #000;
      }

      .st0, .st2, .st3 {
        stroke-width: 2px;
      }

      .st4 {
        fill: #fff;
      }

      .st1 {
        fill: #06c;
      }

      .st1, .st5 {
        stroke-width: 1.5px;
      }

      .st2, .st5 {
        fill: none;
        stroke-linecap: round;
        stroke-linejoin: round;
      }

      .st3, .st6 {
        fill: #036;
      }

      .st5 {
        stroke: #f60;
      }
    </style>
  </defs>
  <line class="st5" x1="268.78" y1="274.54" x2="99.47" y2="373.83"/>
  <line class="st5" x1="322.6" y1="274.54" x2="509.54" y2="369.21"/>
  <path class="st1" d="M454.03,450.35h111.02c2.85,0,4.27-1.5,4.27-4.51v-72.13c0-3.01-1.42-4.51-4.27-4.51h-111.02c-2.85,0-4.27,1.5-4.27,4.51v72.13c0,3.01,1.42,4.51,4.27,4.51Z"/>
  <line class="st5" x1="303.73" y1="274.54" x2="303.73" y2="372.85"/>
  <path class="st3" d="M198.22,143.46h211.02c4.69,0,7.03-2.18,7.03-6.55v-65.54c0-4.37-2.34-6.55-7.03-6.55h-211.02c-4.69,0-7.03,2.18-7.03,6.55v65.54c0,4.37,2.34,6.55,7.03,6.55Z"/>
  <path class="st0" d="M198.22,274.54h211.02c4.69,0,7.03-2.18,7.03-6.55v-98.31c0-4.37-2.34-6.55-7.03-6.55h-211.02c-4.69,0-7.03,2.18-7.03,6.55v98.31c0,4.37,2.34,6.55,7.03,6.55Z"/>
  <path class="st1" d="M43.3,454.97h112.36c2.88,0,4.32-1.5,4.32-4.51v-72.13c0-3.01-1.44-4.51-4.32-4.51H43.3c-2.88,0-4.32,1.5-4.32,4.51v72.13c0,3.01,1.44,4.51,4.32,4.51Z"/>
  <path class="st1" d="M248.13,453.3h111.02c2.85,0,4.27-1.5,4.27-4.51v-72.13c0-3.01-1.42-4.51-4.27-4.51h-111.02c-2.85,0-4.27,1.5-4.27,4.51v72.13c0,3.01,1.42,4.51,4.27,4.51Z"/>
  <path id="Arial-BoldMT-49" class="st4" d="M245.42,101.31v-7.16h1.45v7.16h-1.45Z"/>
  <path id="Arial-BoldMT-4e" class="st4" d="M248.26,101.31v-7.16h1.41l2.93,4.78v-4.78h1.34v7.16h-1.45l-2.89-4.67v4.67h-1.34Z"/>
  <path id="Arial-BoldMT-46" class="st4" d="M255.47,101.31v-7.16h4.91v1.21h-3.46v1.69h2.99v1.21h-2.99v3.04h-1.45Z"/>
  <path id="Arial-BoldMT-41" class="st4" d="M267.48,101.31h-1.57l-.63-1.63h-2.86l-.59,1.63h-1.53l2.79-7.16h1.53l2.87,7.16ZM264.82,98.48l-.99-2.66-.97,2.66h1.95Z"/>
  <path id="Arial-BoldMT-4e1" data-name="Arial-BoldMT-4e" class="st4" d="M268.26,101.31v-7.16h1.41l2.93,4.78v-4.78h1.34v7.16h-1.45l-2.89-4.67v4.67h-1.34Z"/>
  <path id="Arial-BoldMT-54" class="st4" d="M277.08,101.31v-5.95h-2.12v-1.21h5.69v1.21h-2.12v5.95h-1.45Z"/>
  <path id="Arial-BoldMT-52" class="st4" d="M281.58,101.31v-7.16h3.04c.76,0,1.32.06,1.67.19.35.13.62.36.83.69.21.33.31.7.31,1.13,0,.54-.16.98-.48,1.33-.32.35-.79.57-1.42.66.31.18.57.38.77.6.2.22.48.6.82,1.16l.88,1.4h-1.73l-1.04-1.56c-.37-.56-.63-.91-.76-1.05s-.28-.24-.43-.3-.4-.08-.73-.08h-.29v2.99h-1.45ZM283.02,97.18h1.07c.69,0,1.13-.03,1.3-.09.17-.06.31-.16.41-.3.1-.14.15-.32.15-.54,0-.24-.06-.43-.19-.58-.13-.15-.31-.24-.54-.28-.12-.02-.47-.02-1.05-.02h-1.13v1.82Z"/>
  <path id="Arial-BoldMT-59" class="st4" d="M290.3,101.31v-3.01l-2.62-4.15h1.69l1.68,2.83,1.65-2.83h1.67l-2.63,4.15v3h-1.44Z"/>
  <path id="Arial-BoldMT-20" class="st4" d="M294.19,101.31"/>
  <path id="Arial-BoldMT-50" class="st4" d="M297.69,101.31v-7.16h2.32c.88,0,1.45.04,1.72.11.41.11.75.34,1.03.7.28.36.42.82.42,1.39,0,.44-.08.81-.24,1.11-.16.3-.36.53-.61.7-.25.17-.5.28-.75.34-.34.07-.84.1-1.5.1h-.94v2.7h-1.45ZM299.14,95.36v2.03h.79c.57,0,.95-.04,1.14-.11.19-.08.34-.19.45-.35.11-.16.16-.34.16-.56,0-.26-.08-.48-.23-.64-.15-.17-.35-.28-.58-.32-.17-.03-.52-.05-1.04-.05h-.7Z"/>
  <path id="Arial-BoldMT-4c" class="st4" d="M304.4,101.31v-7.1h1.45v5.89h3.59v1.21h-5.04Z"/>
  <path id="Arial-BoldMT-411" data-name="Arial-BoldMT-41" class="st4" d="M316.93,101.31h-1.57l-.63-1.63h-2.86l-.59,1.63h-1.53l2.79-7.16h1.53l2.87,7.16ZM314.27,98.48l-.99-2.66-.97,2.66h1.95Z"/>
  <path id="Arial-BoldMT-541" data-name="Arial-BoldMT-54" class="st4" d="M318.57,101.31v-5.95h-2.12v-1.21h5.69v1.21h-2.12v5.95h-1.45Z"/>
  <path id="Arial-BoldMT-4f" class="st4" d="M322.6,97.77c0-.73.11-1.34.33-1.84.16-.36.38-.69.67-.98.28-.29.59-.5.93-.64.45-.19.96-.28,1.54-.28,1.05,0,1.9.33,2.53.98.63.65.95,1.56.95,2.73s-.31,2.06-.94,2.71c-.63.65-1.47.98-2.52.98s-1.91-.32-2.54-.97c-.63-.65-.94-1.54-.94-2.68ZM324.09,97.73c0,.81.19,1.43.56,1.84.38.42.85.63,1.43.63s1.05-.21,1.42-.62c.37-.41.55-1.04.55-1.87s-.18-1.43-.54-1.84c-.36-.4-.84-.61-1.43-.61s-1.08.2-1.44.61c-.36.41-.55,1.02-.55,1.85Z"/>
  <path id="Arial-BoldMT-4f1" data-name="Arial-BoldMT-4f" class="st4" d="M330.37,97.77c0-.73.11-1.34.33-1.84.16-.36.38-.69.67-.98.28-.29.59-.5.93-.64.45-.19.96-.28,1.54-.28,1.05,0,1.9.33,2.53.98.63.65.95,1.56.95,2.73s-.31,2.06-.94,2.71c-.63.65-1.47.98-2.52.98s-1.91-.32-2.54-.97c-.63-.65-.94-1.54-.94-2.68ZM331.86,97.73c0,.81.19,1.43.56,1.84.38.42.85.63,1.43.63s1.05-.21,1.42-.62c.37-.41.55-1.04.55-1.87s-.18-1.43-.54-1.84c-.36-.4-.84-.61-1.43-.61s-1.08.2-1.44.61c-.36.41-.55,1.02-.55,1.85Z"/>
  <path id="Arial-BoldMT-4e2" data-name="Arial-BoldMT-4e" class="st4" d="M338.46,101.31v-7.16h1.41l2.93,4.78v-4.78h1.34v7.16h-1.45l-2.89-4.67v4.67h-1.34Z"/>
  <path id="Arial-BoldMT-201" data-name="Arial-BoldMT-20" class="st4" d="M344.94,101.31"/>
  <path id="Arial-BoldMT-48" class="st4" d="M348.45,101.31v-7.16h1.45v2.82h2.83v-2.82h1.45v7.16h-1.45v-3.13h-2.83v3.13h-1.45Z"/>
  <path id="Arial-BoldMT-51" class="st4" d="M361.43,100.4c.36.25.74.45,1.16.6l-.53,1.02c-.22-.06-.43-.15-.64-.27-.05-.02-.37-.23-.96-.64-.47.21-.99.31-1.56.31-1.1,0-1.96-.32-2.59-.97-.62-.65-.93-1.56-.93-2.73s.31-2.08.94-2.73c.63-.65,1.47-.97,2.54-.97s1.9.32,2.53.97c.62.65.93,1.56.93,2.73,0,.62-.09,1.16-.26,1.63-.13.36-.34.71-.63,1.04ZM360.27,99.59c.19-.22.33-.48.42-.79.09-.31.14-.66.14-1.07,0-.83-.18-1.44-.55-1.85-.36-.41-.84-.61-1.43-.61s-1.07.21-1.43.62c-.37.41-.55,1.03-.55,1.85s.18,1.46.55,1.88c.37.41.83.62,1.39.62.21,0,.41-.03.59-.1-.29-.19-.59-.34-.89-.45l.41-.83c.48.16.93.41,1.36.73Z"/>
  <path id="Arial-BoldMT-28" class="st4" d="M272.27,114.12h-.94c-.5-.75-.88-1.53-1.14-2.34-.26-.81-.39-1.59-.39-2.35,0-.94.16-1.83.48-2.67.28-.73.63-1.4,1.06-2.02h.94c-.45.99-.75,1.82-.92,2.52-.17.69-.25,1.42-.25,2.2,0,.53.05,1.08.15,1.64.1.56.24,1.09.41,1.6.11.33.32.81.6,1.43Z"/>
  <path id="Arial-BoldMT-33" class="st4" d="M272.98,110.12l1.33-.16c.04.34.16.6.34.78.19.18.41.27.68.27.28,0,.52-.11.71-.32.19-.22.29-.51.29-.87,0-.34-.09-.62-.28-.82-.19-.2-.41-.3-.68-.3-.18,0-.39.03-.63.1l.15-1.12c.37,0,.65-.07.85-.24.2-.17.29-.4.29-.68,0-.24-.07-.43-.22-.58-.14-.14-.33-.22-.57-.22s-.43.08-.6.24c-.17.16-.27.4-.3.71l-1.27-.21c.09-.43.22-.78.4-1.04.18-.26.42-.46.74-.61.32-.15.67-.22,1.07-.22.67,0,1.21.21,1.62.64.34.35.5.75.5,1.19,0,.63-.34,1.13-1.03,1.5.41.09.74.29.98.59.25.31.37.67.37,1.11,0,.63-.23,1.16-.69,1.61-.46.44-1.03.66-1.71.66-.65,0-1.19-.19-1.61-.56-.43-.37-.67-.86-.74-1.46Z"/>
  <path id="Arial-BoldMT-30" class="st4" d="M280.91,104.83c.69,0,1.24.25,1.63.74.47.59.7,1.56.7,2.92s-.23,2.33-.7,2.92c-.39.49-.93.73-1.62.73s-1.26-.27-1.68-.8c-.43-.54-.64-1.49-.64-2.86s.23-2.32.7-2.91c.39-.49.93-.73,1.62-.73ZM280.91,105.97c-.17,0-.31.05-.44.16-.13.11-.23.29-.3.57-.09.35-.14.95-.14,1.79s.04,1.42.13,1.73c.08.31.19.52.32.63.13.1.28.16.44.16s.32-.05.45-.16c.13-.11.23-.3.3-.57.09-.35.14-.95.14-1.79s-.04-1.42-.13-1.73c-.08-.31-.19-.52-.32-.63-.13-.11-.28-.16-.44-.16Z"/>
  <path id="Arial-BoldMT-202" data-name="Arial-BoldMT-20" class="st4" d="M283.73,112.02"/>
  <path id="Arial-BoldMT-501" data-name="Arial-BoldMT-50" class="st4" d="M287.23,112.02v-7.16h2.32c.88,0,1.45.04,1.72.11.41.11.75.34,1.03.7.28.36.42.82.42,1.39,0,.44-.08.81-.24,1.11-.16.3-.36.53-.61.7-.25.17-.5.28-.75.34-.34.07-.84.1-1.5.1h-.94v2.7h-1.45ZM288.68,106.07v2.03h.79c.57,0,.95-.04,1.14-.11.19-.08.34-.19.45-.35.11-.16.16-.34.16-.56,0-.26-.08-.48-.23-.64-.15-.17-.35-.28-.58-.32-.17-.03-.52-.05-1.04-.05h-.7Z"/>
  <path id="Arial-BoldMT-65" class="st4" d="M296.9,110.37l1.37.23c-.18.5-.45.88-.83,1.15-.38.26-.85.39-1.42.39-.9,0-1.57-.29-2-.88-.34-.47-.51-1.07-.51-1.79,0-.86.22-1.53.67-2.02.45-.49,1.02-.73,1.7-.73.77,0,1.38.25,1.83.76s.66,1.29.64,2.34h-3.44c.01.41.12.72.33.95.21.23.48.34.79.34.21,0,.39-.06.54-.18.15-.12.26-.31.33-.57ZM296.97,108.98c0-.4-.11-.7-.31-.9-.19-.21-.43-.31-.71-.31-.3,0-.55.11-.74.33-.19.22-.29.52-.29.89h2.05Z"/>
  <path id="Arial-BoldMT-72" class="st4" d="M300.77,112.02h-1.37v-5.19h1.28v.74c.22-.35.41-.58.59-.69.17-.11.37-.17.59-.17.31,0,.61.09.9.26l-.43,1.2c-.23-.15-.45-.22-.64-.22s-.36.05-.49.16c-.13.11-.24.3-.32.57-.08.28-.11.86-.11,1.74v1.6Z"/>
  <path id="Arial-BoldMT-73" class="st4" d="M302.86,110.54l1.38-.21c.06.27.18.47.36.61.18.14.43.21.75.21.35,0,.62-.07.8-.2.12-.09.18-.21.18-.37,0-.1-.03-.19-.1-.26-.07-.07-.22-.13-.46-.18-1.11-.24-1.81-.47-2.1-.67-.41-.28-.62-.67-.62-1.17,0-.45.18-.83.53-1.13.36-.31.91-.46,1.65-.46s1.24.12,1.58.35c.35.23.58.57.71,1.03l-1.3.24c-.06-.2-.16-.36-.32-.46-.15-.11-.37-.16-.66-.16-.36,0-.62.05-.78.15-.1.07-.16.16-.16.28,0,.1.05.18.14.25.12.09.55.22,1.28.39.73.17,1.24.37,1.53.61.29.24.43.58.43,1.02,0,.48-.2.88-.6,1.23-.4.34-.98.51-1.76.51-.71,0-1.27-.14-1.68-.43-.41-.29-.68-.68-.81-1.17Z"/>
  <path id="Arial-BoldMT-6f" class="st4" d="M308.59,109.35c0-.46.11-.9.34-1.32.23-.43.54-.75.95-.98.41-.23.87-.34,1.38-.34.78,0,1.43.25,1.93.76s.75,1.15.75,1.93-.25,1.43-.76,1.95c-.51.52-1.14.77-1.91.77-.48,0-.93-.11-1.36-.32-.43-.22-.76-.53-.98-.95-.23-.41-.34-.92-.34-1.52ZM310,109.43c0,.51.12.91.37,1.18.24.27.55.41.9.41s.66-.14.9-.41c.24-.27.36-.67.36-1.19s-.12-.9-.36-1.17c-.24-.27-.54-.41-.9-.41s-.66.14-.9.41c-.24.27-.37.67-.37,1.18Z"/>
  <path id="Arial-BoldMT-6e" class="st4" d="M319.73,112.02h-1.37v-2.65c0-.56-.03-.92-.09-1.09s-.15-.29-.29-.38c-.13-.09-.29-.14-.48-.14-.24,0-.45.07-.64.2s-.32.3-.39.52c-.07.21-.1.61-.1,1.19v2.35h-1.37v-5.19h1.28v.76c.45-.59,1.02-.88,1.71-.88.3,0,.58.05.83.16.25.11.44.25.57.42.13.17.22.36.27.58.05.21.08.52.08.92v3.22Z"/>
  <path id="Arial-BoldMT-6e1" data-name="Arial-BoldMT-6e" class="st4" d="M325.84,112.02h-1.37v-2.65c0-.56-.03-.92-.09-1.09s-.15-.29-.29-.38c-.13-.09-.29-.14-.48-.14-.24,0-.45.07-.64.2s-.32.3-.39.52c-.07.21-.1.61-.1,1.19v2.35h-1.37v-5.19h1.28v.76c.45-.59,1.02-.88,1.71-.88.3,0,.58.05.83.16.25.11.44.25.57.42.13.17.22.36.27.58.05.21.08.52.08.92v3.22Z"/>
  <path id="Arial-BoldMT-651" data-name="Arial-BoldMT-65" class="st4" d="M330.24,110.37l1.37.23c-.18.5-.45.88-.83,1.15-.38.26-.85.39-1.42.39-.9,0-1.57-.29-2-.88-.34-.47-.51-1.07-.51-1.79,0-.86.22-1.53.67-2.02.45-.49,1.02-.73,1.7-.73.77,0,1.38.25,1.83.76s.66,1.29.64,2.34h-3.44c.01.41.12.72.33.95.21.23.48.34.79.34.21,0,.39-.06.54-.18.15-.12.26-.31.33-.57ZM330.31,108.98c0-.4-.11-.7-.31-.9-.19-.21-.43-.31-.71-.31-.3,0-.55.11-.74.33-.19.22-.29.52-.29.89h2.05Z"/>
  <path id="Arial-BoldMT-6c" class="st4" d="M332.79,112.02v-7.16h1.37v7.16h-1.37Z"/>
  <path id="Arial-BoldMT-29" class="st4" d="M335.19,114.12c.27-.58.46-1.02.57-1.33.11-.31.21-.67.31-1.07.09-.4.16-.79.21-1.15.05-.36.07-.74.07-1.12,0-.77-.08-1.51-.25-2.2-.17-.69-.47-1.53-.92-2.52h.93c.49.7.87,1.44,1.15,2.23.27.78.41,1.58.41,2.39,0,.68-.11,1.41-.32,2.19-.24.87-.65,1.73-1.21,2.58h-.95Z"/>
  <path id="Arial-BoldMT-22" class="st4" d="M262.94,207.51l-.23-1.2v-1.09h1.34v1.09l-.2,1.2h-.91ZM264.92,207.51l-.23-1.2v-1.09h1.35v1.09l-.2,1.2h-.91Z"/>
  <path id="Arial-BoldMT-412" data-name="Arial-BoldMT-41" class="st4" d="M272.94,211.66h-1.41l-.56-1.46h-2.58l-.53,1.46h-1.38l2.51-6.44h1.38l2.58,6.44ZM270.55,209.11l-.89-2.39-.87,2.39h1.76Z"/>
  <path id="Arial-BoldMT-53" class="st4" d="M273.3,209.56l1.27-.12c.08.42.23.74.46.94.23.2.55.3.94.3.42,0,.73-.09.95-.27.21-.18.32-.38.32-.62,0-.15-.04-.28-.13-.39s-.25-.2-.47-.28c-.15-.05-.5-.15-1.04-.28-.7-.17-1.19-.39-1.47-.64-.4-.36-.59-.79-.59-1.3,0-.33.09-.64.28-.92.19-.29.45-.5.8-.65.35-.15.77-.22,1.27-.22.81,0,1.42.18,1.83.53s.62.83.64,1.42l-1.3.06c-.06-.33-.17-.57-.36-.71-.18-.15-.46-.22-.82-.22s-.67.08-.89.23c-.14.1-.21.23-.21.4,0,.15.06.28.19.39.16.14.56.28,1.2.43.63.15,1.1.3,1.4.46.3.16.54.38.71.65.17.28.26.62.26,1.03,0,.37-.1.71-.31,1.04-.2.32-.49.56-.87.72-.38.16-.84.23-1.4.23-.81,0-1.44-.19-1.88-.56-.44-.38-.7-.93-.78-1.65Z"/>
  <path id="Arial-BoldMT-481" data-name="Arial-BoldMT-48" class="st4" d="M279.64,211.66v-6.44h1.3v2.54h2.55v-2.54h1.3v6.44h-1.3v-2.82h-2.55v2.82h-1.3Z"/>
  <path id="Arial-BoldMT-4d" class="st4" d="M286.12,211.66v-6.44h1.95l1.17,4.39,1.16-4.39h1.95v6.44h-1.21v-5.07l-1.28,5.07h-1.25l-1.27-5.07v5.07h-1.21Z"/>
  <path id="Arial-BoldMT-491" data-name="Arial-BoldMT-49" class="st4" d="M293.59,211.66v-6.44h1.3v6.44h-1.3Z"/>
  <path id="Arial-BoldMT-221" data-name="Arial-BoldMT-22" class="st4" d="M296.2,207.51l-.23-1.2v-1.09h1.34v1.09l-.2,1.2h-.91ZM298.18,207.51l-.23-1.2v-1.09h1.35v1.09l-.2,1.2h-.91Z"/>
  <path id="Arial-BoldMT-203" data-name="Arial-BoldMT-20" class="st4" d="M299.74,211.66"/>
  <path id="Arial-BoldMT-45" class="st4" d="M302.9,211.66v-6.44h4.78v1.09h-3.48v1.43h3.23v1.09h-3.23v1.75h3.6v1.09h-4.9Z"/>
  <path id="Arial-BoldMT-4c1" data-name="Arial-BoldMT-4c" class="st4" d="M308.94,211.66v-6.39h1.3v5.3h3.23v1.09h-4.54Z"/>
  <path id="Arial-BoldMT-451" data-name="Arial-BoldMT-45" class="st4" d="M314.4,211.66v-6.44h4.78v1.09h-3.48v1.43h3.23v1.09h-3.23v1.75h3.6v1.09h-4.9Z"/>
  <path id="Arial-BoldMT-4d1" data-name="Arial-BoldMT-4d" class="st4" d="M320.38,211.66v-6.44h1.95l1.17,4.39,1.16-4.39h1.95v6.44h-1.21v-5.07l-1.28,5.07h-1.25l-1.27-5.07v5.07h-1.21Z"/>
  <path id="Arial-BoldMT-452" data-name="Arial-BoldMT-45" class="st4" d="M327.9,211.66v-6.44h4.78v1.09h-3.48v1.43h3.23v1.09h-3.23v1.75h3.6v1.09h-4.9Z"/>
  <path id="Arial-BoldMT-4e3" data-name="Arial-BoldMT-4e" class="st4" d="M333.92,211.66v-6.44h1.27l2.64,4.3v-4.3h1.21v6.44h-1.31l-2.6-4.2v4.2h-1.21Z"/>
  <path id="Arial-BoldMT-542" data-name="Arial-BoldMT-54" class="st4" d="M341.85,211.66v-5.35h-1.91v-1.09h5.12v1.09h-1.91v5.35h-1.3Z"/>
  <path id="Arial-BoldMT-31" class="st4" d="M251.58,221.17h-1.23v-4.65c-.45.42-.98.73-1.6.94v-1.12c.32-.11.67-.3,1.05-.6.38-.29.64-.64.78-1.03h1v6.47Z"/>
  <path id="Arial-BoldMT-204" data-name="Arial-BoldMT-20" class="st4" d="M253.04,221.17"/>
  <path id="Arial-BoldMT-4a" class="st4" d="M258.52,214.72h1.3v4.08c0,.53-.05.94-.14,1.23-.13.38-.36.68-.69.9-.33.23-.77.34-1.31.34-.64,0-1.13-.18-1.47-.53-.34-.36-.52-.88-.52-1.57l1.23-.14c.02.37.07.63.16.78.14.23.35.35.64.35s.5-.08.62-.25c.12-.17.18-.51.18-1.03v-4.16Z"/>
  <path id="Arial-BoldMT-43" class="st4" d="M265.32,218.8l1.26.4c-.19.7-.51,1.23-.96,1.57-.45.34-1.02.51-1.71.51-.86,0-1.56-.29-2.11-.88-.55-.59-.83-1.38-.83-2.4,0-1.07.28-1.91.83-2.5.55-.59,1.28-.89,2.19-.89.79,0,1.43.23,1.92.7.29.28.51.67.66,1.19l-1.29.31c-.08-.33-.24-.6-.48-.79-.24-.19-.53-.29-.88-.29-.48,0-.86.17-1.16.51-.3.34-.45.9-.45,1.67,0,.81.15,1.4.44,1.74.29.34.67.52,1.14.52.35,0,.64-.11.89-.33.25-.22.43-.56.54-1.04Z"/>
  <path id="Arial-BoldMT-4f2" data-name="Arial-BoldMT-4f" class="st4" d="M267.44,217.98c0-.66.1-1.21.3-1.65.15-.33.35-.62.6-.88.25-.26.53-.45.83-.58.4-.17.86-.25,1.39-.25.95,0,1.71.29,2.28.88.57.59.86,1.41.86,2.46s-.28,1.85-.85,2.44c-.57.59-1.32.88-2.27.88s-1.72-.29-2.29-.88c-.57-.59-.85-1.39-.85-2.42ZM268.78,217.94c0,.73.17,1.28.5,1.66.34.38.77.56,1.28.56s.94-.19,1.28-.56c.33-.37.5-.93.5-1.68s-.16-1.29-.49-1.65c-.32-.36-.75-.55-1.29-.55s-.97.18-1.3.55c-.33.37-.49.92-.49,1.66Z"/>
  <path id="Arial-BoldMT-205" data-name="Arial-BoldMT-20" class="st4" d="M274.05,221.17"/>
  <path id="Arial-BoldMT-2b" class="st4" d="M278.61,220.24v-1.67h-1.69v-1.16h1.69v-1.67h1.13v1.67h1.69v1.16h-1.69v1.67h-1.13Z"/>
  <path id="Arial-BoldMT-206" data-name="Arial-BoldMT-20" class="st4" d="M281.8,221.17"/>
  <path id="Arial-BoldMT-34" class="st4" d="M287.11,221.17v-1.3h-2.64v-1.08l2.79-4.09h1.04v4.09h.8v1.09h-.8v1.3h-1.2ZM287.11,218.78v-2.2l-1.48,2.2h1.48Z"/>
  <path id="Arial-BoldMT-207" data-name="Arial-BoldMT-20" class="st4" d="M289.31,221.17"/>
  <path id="Arial-BoldMT-502" data-name="Arial-BoldMT-50" class="st4" d="M292.47,221.17v-6.44h2.09c.79,0,1.31.03,1.55.1.37.1.68.31.93.63.25.32.37.74.37,1.25,0,.4-.07.73-.22,1-.14.27-.33.48-.55.63-.22.15-.45.26-.68.31-.31.06-.76.09-1.35.09h-.85v2.43h-1.3ZM293.77,215.81v1.83h.71c.51,0,.86-.03,1.03-.1.17-.07.31-.17.41-.32.1-.14.15-.31.15-.5,0-.23-.07-.43-.21-.58-.14-.15-.31-.25-.52-.29-.15-.03-.47-.04-.94-.04h-.63Z"/>
  <path id="Arial-BoldMT-69" class="st4" d="M298.46,215.87v-1.14h1.24v1.14h-1.24ZM298.46,221.17v-4.67h1.24v4.67h-1.24Z"/>
  <path id="Arial-BoldMT-6c1" data-name="Arial-BoldMT-6c" class="st4" d="M300.96,221.17v-6.44h1.24v6.44h-1.24Z"/>
  <path id="Arial-BoldMT-6f1" data-name="Arial-BoldMT-6f" class="st4" d="M303.17,218.77c0-.41.1-.81.3-1.19.2-.38.49-.68.86-.88.37-.2.78-.3,1.24-.3.71,0,1.28.23,1.74.69s.68,1.04.68,1.74-.23,1.29-.68,1.76c-.46.46-1.03.7-1.72.7-.43,0-.84-.1-1.22-.29-.39-.19-.68-.48-.89-.85-.2-.37-.3-.83-.3-1.36ZM304.44,218.83c0,.46.11.82.33,1.06.22.25.49.37.81.37s.59-.12.81-.37c.22-.25.33-.6.33-1.07s-.11-.81-.33-1.05c-.22-.25-.49-.37-.81-.37s-.59.12-.81.37c-.22.25-.33.6-.33,1.06Z"/>
  <path id="Arial-BoldMT-74" class="st4" d="M311.1,216.5v.98h-.84v1.88c0,.38,0,.6.02.67.02.06.05.11.11.16s.13.06.21.06c.11,0,.28-.04.5-.12l.11.96c-.29.12-.61.18-.98.18-.22,0-.42-.04-.6-.11-.18-.08-.31-.17-.39-.29-.08-.12-.14-.28-.17-.48-.03-.14-.04-.43-.04-.87v-2.03h-.57v-.98h.57v-.93l1.24-.72v1.65h.84Z"/>
  <path id="Arial-BoldMT-731" data-name="Arial-BoldMT-73" class="st4" d="M311.52,219.83l1.24-.19c.05.24.16.42.32.55.16.12.39.19.68.19.32,0,.56-.06.72-.18.11-.08.16-.19.16-.33,0-.09-.03-.17-.09-.23-.06-.06-.2-.11-.41-.16-1-.22-1.63-.42-1.89-.6-.37-.25-.55-.6-.55-1.05,0-.4.16-.74.48-1.02.32-.28.82-.41,1.49-.41s1.11.1,1.42.31c.31.21.53.52.64.92l-1.17.22c-.05-.18-.14-.32-.28-.42-.14-.1-.34-.15-.59-.15-.32,0-.56.05-.7.14-.09.06-.14.15-.14.25,0,.09.04.16.12.23.11.08.5.2,1.15.35.66.15,1.12.33,1.38.55.26.22.39.53.39.92,0,.43-.18.8-.54,1.1-.36.31-.89.46-1.59.46-.64,0-1.14-.13-1.51-.39-.37-.26-.61-.61-.73-1.05Z"/>
  <path id="Arial-BoldMT-208" data-name="Arial-BoldMT-20" class="st4" d="M316.31,221.17"/>
  <path id="Arial-BoldMT-2b1" data-name="Arial-BoldMT-2b" class="st4" d="M320.88,220.24v-1.67h-1.69v-1.16h1.69v-1.67h1.13v1.67h1.69v1.16h-1.69v1.67h-1.13Z"/>
  <path id="Arial-BoldMT-209" data-name="Arial-BoldMT-20" class="st4" d="M324.07,221.17"/>
  <path id="Arial-BoldMT-32" class="st4" d="M331.12,220.02v1.15h-4.33c.05-.43.19-.85.42-1.23.23-.39.7-.9,1.39-1.54.56-.52.9-.87,1.02-1.05.17-.25.25-.51.25-.76,0-.27-.07-.49-.22-.63-.15-.15-.35-.22-.61-.22s-.46.08-.62.23c-.15.15-.24.41-.26.77l-1.23-.12c.07-.68.3-1.17.69-1.46.39-.3.87-.44,1.45-.44.64,0,1.14.17,1.5.51.36.34.55.77.55,1.28,0,.29-.05.57-.16.83s-.27.54-.5.82c-.15.19-.42.46-.81.82-.39.36-.64.59-.74.71-.1.12-.19.23-.25.34h2.45Z"/>
  <path id="Arial-BoldMT-2010" data-name="Arial-BoldMT-20" class="st4" d="M331.58,221.17"/>
  <path id="Arial-BoldMT-543" data-name="Arial-BoldMT-54" class="st4" d="M336.18,221.17v-5.35h-1.91v-1.09h5.12v1.09h-1.91v5.35h-1.3Z"/>
  <path id="Arial-BoldMT-652" data-name="Arial-BoldMT-65" class="st4" d="M342.26,219.68l1.23.21c-.16.45-.41.79-.75,1.03-.34.24-.77.35-1.28.35-.81,0-1.41-.27-1.8-.8-.31-.42-.46-.96-.46-1.61,0-.77.2-1.38.61-1.82.41-.44.92-.66,1.53-.66.69,0,1.24.23,1.64.69s.59,1.16.58,2.11h-3.09c0,.37.11.65.3.86.19.2.43.31.71.31.19,0,.36-.05.49-.16.13-.11.23-.28.3-.51ZM342.33,218.43c0-.36-.1-.63-.28-.81-.18-.19-.39-.28-.64-.28-.27,0-.49.1-.67.29-.18.2-.26.46-.26.8h1.85Z"/>
  <path id="Arial-BoldMT-63" class="st4" d="M348.63,217.88l-1.22.22c-.04-.24-.13-.43-.28-.55s-.33-.18-.56-.18c-.31,0-.55.11-.74.32-.18.21-.27.57-.27,1.06,0,.55.09.95.28,1.17.19.23.44.34.75.34.23,0,.43-.07.58-.2.15-.13.26-.36.32-.69l1.21.21c-.13.56-.37.98-.73,1.26-.36.28-.84.43-1.44.43-.68,0-1.23-.22-1.63-.65-.41-.43-.61-1.03-.61-1.79s.2-1.37.61-1.8c.41-.43.96-.64,1.65-.64.57,0,1.02.12,1.36.37s.58.62.72,1.12Z"/>
  <path id="Arial-BoldMT-68" class="st4" d="M350.8,214.72v2.37c.4-.47.87-.7,1.43-.7.28,0,.54.05.77.16.23.11.4.24.52.4.12.16.2.35.24.55.04.2.06.51.06.93v2.74h-1.23v-2.47c0-.49-.02-.8-.07-.93-.05-.13-.13-.24-.25-.32-.12-.08-.27-.12-.45-.12-.2,0-.39.05-.55.15-.16.1-.28.25-.35.45s-.11.5-.11.89v2.34h-1.23v-6.44h1.23Z"/>
  <path id="Arial-BoldMT-732" data-name="Arial-BoldMT-73" class="st4" d="M354.63,219.83l1.24-.19c.05.24.16.42.32.55.16.12.39.19.68.19.32,0,.56-.06.72-.18.11-.08.16-.19.16-.33,0-.09-.03-.17-.09-.23-.06-.06-.2-.11-.41-.16-1-.22-1.63-.42-1.89-.6-.37-.25-.55-.6-.55-1.05,0-.4.16-.74.48-1.02.32-.28.82-.41,1.49-.41s1.11.1,1.42.31c.31.21.53.52.64.92l-1.17.22c-.05-.18-.14-.32-.28-.42-.14-.1-.34-.15-.59-.15-.32,0-.56.05-.7.14-.09.06-.14.15-.14.25,0,.09.04.16.12.23.11.08.5.2,1.15.35.66.15,1.12.33,1.38.55.26.22.39.53.39.92,0,.43-.18.8-.54,1.1-.36.31-.89.46-1.59.46-.64,0-1.14-.13-1.51-.39-.37-.26-.61-.61-.73-1.05Z"/>
  <path id="Arial-BoldMT-311" data-name="Arial-BoldMT-31" class="st4" d="M258.38,230.67h-1.23v-4.65c-.45.42-.98.73-1.6.94v-1.12c.32-.11.67-.3,1.05-.6.38-.29.64-.64.78-1.03h1v6.47Z"/>
  <path id="Arial-BoldMT-36" class="st4" d="M264.41,225.81l-1.2.13c-.03-.25-.11-.43-.23-.54-.12-.12-.28-.18-.48-.18-.26,0-.48.12-.66.35-.18.23-.29.72-.34,1.46.31-.36.69-.54,1.15-.54.52,0,.96.2,1.32.59.37.39.55.9.55,1.52,0,.66-.19,1.19-.58,1.59-.39.4-.88.6-1.49.6-.65,0-1.18-.25-1.6-.76-.42-.51-.63-1.33-.63-2.48s.22-2.03.65-2.55c.44-.52,1-.78,1.7-.78.49,0,.89.14,1.22.41s.52.67.61,1.19ZM261.61,228.5c0,.4.09.71.28.93.18.22.4.33.63.33s.42-.09.57-.27c.15-.18.23-.47.23-.88s-.08-.73-.25-.92c-.16-.2-.37-.29-.62-.29s-.44.09-.6.28c-.16.19-.25.46-.25.82Z"/>
  <path id="Arial-BoldMT-2011" data-name="Arial-BoldMT-20" class="st4" d="M264.85,230.67"/>
  <path id="Arial-BoldMT-461" data-name="Arial-BoldMT-46" class="st4" d="M268.01,230.67v-6.44h4.42v1.09h-3.12v1.52h2.69v1.09h-2.69v2.74h-1.3Z"/>
  <path id="Arial-BoldMT-503" data-name="Arial-BoldMT-50" class="st4" d="M273.5,230.67v-6.44h2.09c.79,0,1.31.03,1.55.1.37.1.68.31.93.63.25.32.37.74.37,1.25,0,.4-.07.73-.22,1-.14.27-.33.48-.55.63-.22.15-.45.26-.68.31-.31.06-.76.09-1.35.09h-.85v2.43h-1.3ZM274.8,225.32v1.83h.71c.51,0,.86-.03,1.03-.1.17-.07.31-.17.41-.32.1-.14.15-.31.15-.5,0-.23-.07-.43-.21-.58-.14-.15-.31-.25-.52-.29-.15-.03-.47-.04-.94-.04h-.63Z"/>
  <path id="Arial-BoldMT-56" class="st4" d="M281.15,230.67l-2.3-6.44h1.41l1.63,4.77,1.58-4.77h1.38l-2.31,6.44h-1.39Z"/>
  <path id="Arial-BoldMT-733" data-name="Arial-BoldMT-73" class="st4" d="M285.06,229.34l1.24-.19c.05.24.16.42.32.55.16.12.39.19.68.19.32,0,.56-.06.72-.18.11-.08.16-.19.16-.33,0-.09-.03-.17-.09-.23-.06-.06-.2-.11-.41-.16-1-.22-1.63-.42-1.89-.6-.37-.25-.55-.6-.55-1.05,0-.4.16-.74.48-1.02.32-.28.82-.41,1.49-.41s1.11.1,1.42.31c.31.21.53.52.64.92l-1.17.22c-.05-.18-.14-.32-.28-.42-.14-.1-.34-.15-.59-.15-.32,0-.56.05-.7.14-.09.06-.14.15-.14.25,0,.09.04.16.12.23.11.08.5.2,1.15.35.66.15,1.12.33,1.38.55.26.22.39.53.39.92,0,.43-.18.8-.54,1.1-.36.31-.89.46-1.59.46-.64,0-1.14-.13-1.51-.39-.37-.26-.61-.61-.73-1.05Z"/>
  <path id="Arial-BoldMT-2012" data-name="Arial-BoldMT-20" class="st4" d="M289.86,230.67"/>
  <path id="Arial-BoldMT-2b2" data-name="Arial-BoldMT-2b" class="st4" d="M294.42,229.75v-1.67h-1.69v-1.16h1.69v-1.67h1.13v1.67h1.69v1.16h-1.69v1.67h-1.13Z"/>
  <path id="Arial-BoldMT-2013" data-name="Arial-BoldMT-20" class="st4" d="M297.61,230.67"/>
  <path id="Arial-BoldMT-341" data-name="Arial-BoldMT-34" class="st4" d="M302.92,230.67v-1.3h-2.64v-1.08l2.79-4.09h1.04v4.09h.8v1.09h-.8v1.3h-1.2ZM302.92,228.29v-2.2l-1.48,2.2h1.48Z"/>
  <path id="Arial-BoldMT-2014" data-name="Arial-BoldMT-20" class="st4" d="M305.12,230.67"/>
  <path id="Arial-BoldMT-4d2" data-name="Arial-BoldMT-4d" class="st4" d="M308.26,230.67v-6.44h1.95l1.17,4.39,1.16-4.39h1.95v6.44h-1.21v-5.07l-1.28,5.07h-1.25l-1.27-5.07v5.07h-1.21Z"/>
  <path id="Arial-BoldMT-691" data-name="Arial-BoldMT-69" class="st4" d="M315.76,225.37v-1.14h1.24v1.14h-1.24ZM315.76,230.67v-4.67h1.24v4.67h-1.24Z"/>
  <path id="Arial-BoldMT-631" data-name="Arial-BoldMT-63" class="st4" d="M322.33,227.38l-1.22.22c-.04-.24-.13-.43-.28-.55s-.33-.18-.56-.18c-.31,0-.55.11-.74.32-.18.21-.27.57-.27,1.06,0,.55.09.95.28,1.17.19.23.44.34.75.34.23,0,.43-.07.58-.2.15-.13.26-.36.32-.69l1.21.21c-.13.56-.37.98-.73,1.26-.36.28-.84.43-1.44.43-.68,0-1.23-.22-1.63-.65-.41-.43-.61-1.03-.61-1.79s.2-1.37.61-1.8c.41-.43.96-.64,1.65-.64.57,0,1.02.12,1.36.37s.58.62.72,1.12Z"/>
  <path id="Arial-BoldMT-721" data-name="Arial-BoldMT-72" class="st4" d="M324.45,230.67h-1.23v-4.67h1.15v.66c.2-.31.37-.52.53-.62.16-.1.33-.15.53-.15.28,0,.55.08.81.23l-.38,1.08c-.21-.13-.4-.2-.58-.2s-.32.05-.44.14c-.12.09-.21.27-.28.52-.07.25-.1.77-.1,1.56v1.44Z"/>
  <path id="Arial-BoldMT-6f2" data-name="Arial-BoldMT-6f" class="st4" d="M326.49,228.27c0-.41.1-.81.3-1.19.2-.38.49-.68.86-.88.37-.2.78-.3,1.24-.3.71,0,1.28.23,1.74.69s.68,1.04.68,1.74-.23,1.29-.68,1.76c-.46.46-1.03.7-1.72.7-.43,0-.84-.1-1.22-.29-.39-.19-.68-.48-.89-.85-.2-.37-.3-.83-.3-1.36ZM327.75,228.34c0,.46.11.82.33,1.06.22.25.49.37.81.37s.59-.12.81-.37c.22-.25.33-.6.33-1.07s-.11-.81-.33-1.05c-.22-.25-.49-.37-.81-.37s-.59.12-.81.37c-.22.25-.33.6-.33,1.06Z"/>
  <path id="Arial-BoldMT-2d" class="st4" d="M332.13,228.95v-1.23h2.43v1.23h-2.43Z"/>
  <path id="Arial-BoldMT-4c2" data-name="Arial-BoldMT-4c" class="st4" d="M335.31,230.67v-6.39h1.3v5.3h3.23v1.09h-4.54Z"/>
  <path id="Arial-BoldMT-4d3" data-name="Arial-BoldMT-4d" class="st4" d="M340.76,230.67v-6.44h1.95l1.17,4.39,1.16-4.39h1.95v6.44h-1.21v-5.07l-1.28,5.07h-1.25l-1.27-5.07v5.07h-1.21Z"/>
  <path id="Arial-BoldMT-734" data-name="Arial-BoldMT-73" class="st4" d="M347.83,229.34l1.24-.19c.05.24.16.42.32.55.16.12.39.19.68.19.32,0,.56-.06.72-.18.11-.08.16-.19.16-.33,0-.09-.03-.17-.09-.23-.06-.06-.2-.11-.41-.16-1-.22-1.63-.42-1.89-.6-.37-.25-.55-.6-.55-1.05,0-.4.16-.74.48-1.02.32-.28.82-.41,1.49-.41s1.11.1,1.42.31c.31.21.53.52.64.92l-1.17.22c-.05-.18-.14-.32-.28-.42-.14-.1-.34-.15-.59-.15-.32,0-.56.05-.7.14-.09.06-.14.15-.14.25,0,.09.04.16.12.23.11.08.5.2,1.15.35.66.15,1.12.33,1.38.55.26.22.39.53.39.92,0,.43-.18.8-.54,1.1-.36.31-.89.46-1.59.46-.64,0-1.14-.13-1.51-.39-.37-.26-.61-.61-.73-1.05Z"/>
  <path id="Arial-BoldMT-531" data-name="Arial-BoldMT-53" class="st4" d="M77.65,408.54l1.27-.12c.08.42.23.74.46.94.23.2.55.3.94.3.42,0,.73-.09.95-.27.21-.18.32-.38.32-.62,0-.15-.04-.28-.13-.39s-.25-.2-.47-.28c-.15-.05-.5-.15-1.04-.28-.7-.17-1.19-.39-1.47-.64-.4-.36-.59-.79-.59-1.3,0-.33.09-.64.28-.92.19-.29.45-.5.8-.65.35-.15.77-.22,1.27-.22.81,0,1.42.18,1.83.53s.62.83.64,1.42l-1.3.06c-.06-.33-.17-.57-.36-.71-.18-.15-.46-.22-.82-.22s-.67.08-.89.23c-.14.1-.21.23-.21.4,0,.15.06.28.19.39.16.14.56.28,1.2.43.63.15,1.1.3,1.4.46.3.16.54.38.71.65.17.28.26.62.26,1.03,0,.37-.1.71-.31,1.04-.2.32-.49.56-.87.72-.38.16-.84.23-1.4.23-.81,0-1.44-.19-1.88-.56-.44-.38-.7-.93-.78-1.65Z"/>
  <path id="Arial-BoldMT-511" data-name="Arial-BoldMT-51" class="st4" d="M89.17,409.82c.32.23.67.41,1.04.54l-.48.92c-.2-.06-.39-.14-.58-.24-.04-.02-.33-.21-.87-.57-.42.18-.89.28-1.4.28-.99,0-1.77-.29-2.33-.87-.56-.58-.84-1.4-.84-2.46s.28-1.87.84-2.45c.56-.58,1.33-.88,2.29-.88s1.71.29,2.27.88c.56.58.84,1.4.84,2.45,0,.56-.08,1.05-.23,1.47-.12.32-.3.63-.56.94ZM88.13,409.09c.17-.2.29-.43.38-.71.08-.28.13-.6.13-.96,0-.74-.16-1.3-.49-1.67-.33-.37-.76-.55-1.29-.55s-.96.18-1.29.55c-.33.37-.49.92-.49,1.67s.16,1.32.49,1.69c.33.37.75.56,1.25.56.19,0,.36-.03.53-.09-.26-.17-.53-.31-.8-.41l.37-.74c.43.15.84.37,1.22.66Z"/>
  <path id="Arial-BoldMT-55" class="st4" d="M90.98,404.2h1.3v3.49c0,.55.02.91.05,1.08.06.26.19.47.4.63.21.16.5.24.86.24s.65-.07.83-.23c.19-.15.3-.34.34-.56.04-.22.06-.59.06-1.1v-3.56h1.3v3.38c0,.77-.04,1.32-.11,1.64-.07.32-.2.59-.39.81-.19.22-.44.39-.76.52-.32.13-.73.2-1.24.2-.62,0-1.08-.07-1.4-.21-.32-.14-.57-.33-.75-.55-.18-.23-.31-.47-.36-.71-.09-.37-.13-.91-.13-1.64v-3.44Z"/>
  <path id="Arial-BoldMT-413" data-name="Arial-BoldMT-41" class="st4" d="M103.3,410.64h-1.41l-.56-1.46h-2.58l-.53,1.46h-1.38l2.51-6.44h1.38l2.58,6.44ZM100.9,408.09l-.89-2.39-.87,2.39h1.76Z"/>
  <path id="Arial-BoldMT-44" class="st4" d="M103.98,404.2h2.38c.54,0,.95.04,1.23.12.38.11.7.31.97.59.27.28.48.63.62,1.04s.21.92.21,1.52c0,.53-.07.99-.2,1.37-.16.47-.39.85-.69,1.14-.23.22-.53.39-.91.51-.29.09-.67.14-1.15.14h-2.45v-6.44ZM105.28,405.29v4.27h.97c.36,0,.63-.02.79-.06.21-.05.39-.14.52-.27.14-.13.25-.33.34-.62.09-.29.13-.68.13-1.18s-.04-.88-.13-1.15c-.09-.27-.21-.48-.37-.62-.16-.15-.36-.25-.6-.3-.18-.04-.54-.06-1.07-.06h-.58Z"/>
  <path id="Arial-BoldMT-2015" data-name="Arial-BoldMT-20" class="st4" d="M109.83,410.64"/>
  <path id="Arial-BoldMT-312" data-name="Arial-BoldMT-31" class="st4" d="M115.87,410.64h-1.23v-4.65c-.45.42-.98.73-1.6.94v-1.12c.32-.11.67-.3,1.05-.6.38-.29.64-.64.78-1.03h1v6.47Z"/>
  <path id="Arial-BoldMT-313" data-name="Arial-BoldMT-31" class="st4" d="M72.86,420.15h-1.23v-4.65c-.45.42-.98.73-1.6.94v-1.12c.32-.11.67-.3,1.05-.6.38-.29.64-.64.78-1.03h1v6.47Z"/>
  <path id="Arial-BoldMT-301" data-name="Arial-BoldMT-30" class="st4" d="M76.8,413.68c.62,0,1.11.22,1.46.67.42.53.63,1.4.63,2.62s-.21,2.09-.63,2.63c-.35.44-.84.66-1.46.66s-1.13-.24-1.52-.72c-.38-.48-.58-1.34-.58-2.58s.21-2.09.63-2.62c.35-.44.83-.66,1.46-.66ZM76.8,414.7c-.15,0-.28.05-.4.14-.12.09-.21.27-.27.51-.08.32-.13.86-.13,1.61s.04,1.27.11,1.56c.08.28.17.47.29.56.12.09.25.14.4.14s.28-.05.4-.14c.12-.1.21-.27.27-.51.09-.32.13-.85.13-1.61s-.04-1.28-.11-1.56c-.08-.28-.17-.47-.29-.57-.12-.1-.25-.14-.4-.14Z"/>
  <path id="Arial-BoldMT-2016" data-name="Arial-BoldMT-20" class="st4" d="M79.33,420.15"/>
  <path id="Arial-BoldMT-504" data-name="Arial-BoldMT-50" class="st4" d="M82.49,420.15v-6.44h2.09c.79,0,1.31.03,1.55.1.37.1.68.31.93.63.25.32.37.74.37,1.25,0,.4-.07.73-.22,1-.14.27-.33.48-.55.63-.22.15-.45.26-.68.31-.31.06-.76.09-1.35.09h-.85v2.43h-1.3ZM83.79,414.79v1.83h.71c.51,0,.86-.03,1.03-.1.17-.07.31-.17.41-.32.1-.14.15-.31.15-.5,0-.23-.07-.43-.21-.58-.14-.15-.31-.25-.52-.29-.15-.03-.47-.04-.94-.04h-.63Z"/>
  <path id="Arial-BoldMT-653" data-name="Arial-BoldMT-65" class="st4" d="M91.18,418.66l1.23.21c-.16.45-.41.79-.75,1.03-.34.24-.77.35-1.28.35-.81,0-1.41-.27-1.8-.8-.31-.42-.46-.96-.46-1.61,0-.77.2-1.38.61-1.82.41-.44.92-.66,1.53-.66.69,0,1.24.23,1.64.69s.59,1.16.58,2.11h-3.09c0,.37.11.65.3.86.19.2.43.31.71.31.19,0,.36-.05.49-.16.13-.11.23-.28.3-.51ZM91.25,417.41c0-.36-.1-.63-.28-.81-.18-.19-.39-.28-.64-.28-.27,0-.49.1-.67.29-.18.2-.26.46-.26.8h1.85Z"/>
  <path id="Arial-BoldMT-722" data-name="Arial-BoldMT-72" class="st4" d="M94.67,420.15h-1.23v-4.67h1.15v.66c.2-.31.37-.52.53-.62.16-.1.33-.15.53-.15.28,0,.55.08.81.23l-.38,1.08c-.21-.13-.4-.2-.58-.2s-.32.05-.44.14c-.12.09-.21.27-.28.52-.07.25-.1.77-.1,1.56v1.44Z"/>
  <path id="Arial-BoldMT-735" data-name="Arial-BoldMT-73" class="st4" d="M96.55,418.81l1.24-.19c.05.24.16.42.32.55.16.12.39.19.68.19.32,0,.56-.06.72-.18.11-.08.16-.19.16-.33,0-.09-.03-.17-.09-.23-.06-.06-.2-.11-.41-.16-1-.22-1.63-.42-1.89-.6-.37-.25-.55-.6-.55-1.05,0-.4.16-.74.48-1.02.32-.28.82-.41,1.49-.41s1.11.1,1.42.31c.31.21.53.52.64.92l-1.17.22c-.05-.18-.14-.32-.28-.42-.14-.1-.34-.15-.59-.15-.32,0-.56.05-.7.14-.09.06-.14.15-.14.25,0,.09.04.16.12.23.11.08.5.2,1.15.35.66.15,1.12.33,1.38.55.26.22.39.53.39.92,0,.43-.18.8-.54,1.1-.36.31-.89.46-1.59.46-.64,0-1.14-.13-1.51-.39-.37-.26-.61-.61-.73-1.05Z"/>
  <path id="Arial-BoldMT-6f3" data-name="Arial-BoldMT-6f" class="st4" d="M101.71,417.75c0-.41.1-.81.3-1.19.2-.38.49-.68.86-.88.37-.2.78-.3,1.24-.3.71,0,1.28.23,1.74.69s.68,1.04.68,1.74-.23,1.29-.68,1.76c-.46.46-1.03.7-1.72.7-.43,0-.84-.1-1.22-.29-.39-.19-.68-.48-.89-.85-.2-.37-.3-.83-.3-1.36ZM102.97,417.81c0,.46.11.82.33,1.06.22.25.49.37.81.37s.59-.12.81-.37c.22-.25.33-.6.33-1.07s-.11-.81-.33-1.05c-.22-.25-.49-.37-.81-.37s-.59.12-.81.37c-.22.25-.33.6-.33,1.06Z"/>
  <path id="Arial-BoldMT-6e2" data-name="Arial-BoldMT-6e" class="st4" d="M111.74,420.15h-1.23v-2.38c0-.5-.03-.83-.08-.98s-.14-.26-.26-.34c-.12-.08-.26-.12-.43-.12-.21,0-.41.06-.58.18s-.29.27-.35.47c-.06.19-.09.55-.09,1.07v2.11h-1.23v-4.67h1.15v.69c.41-.53.92-.79,1.54-.79.27,0,.52.05.75.15.23.1.4.22.51.38.12.15.2.32.24.52.05.19.07.47.07.83v2.9Z"/>
  <path id="Arial-BoldMT-6e3" data-name="Arial-BoldMT-6e" class="st4" d="M117.24,420.15h-1.23v-2.38c0-.5-.03-.83-.08-.98s-.14-.26-.26-.34c-.12-.08-.26-.12-.43-.12-.21,0-.41.06-.58.18s-.29.27-.35.47c-.06.19-.09.55-.09,1.07v2.11h-1.23v-4.67h1.15v.69c.41-.53.92-.79,1.54-.79.27,0,.52.05.75.15.23.1.4.22.51.38.12.15.2.32.24.52.05.19.07.47.07.83v2.9Z"/>
  <path id="Arial-BoldMT-654" data-name="Arial-BoldMT-65" class="st4" d="M121.19,418.66l1.23.21c-.16.45-.41.79-.75,1.03-.34.24-.77.35-1.28.35-.81,0-1.41-.27-1.8-.8-.31-.42-.46-.96-.46-1.61,0-.77.2-1.38.61-1.82.41-.44.92-.66,1.53-.66.69,0,1.24.23,1.64.69s.59,1.16.58,2.11h-3.09c0,.37.11.65.3.86.19.2.43.31.71.31.19,0,.36-.05.49-.16.13-.11.23-.28.3-.51ZM121.26,417.41c0-.36-.1-.63-.28-.81-.18-.19-.39-.28-.64-.28-.27,0-.49.1-.67.29-.18.2-.26.46-.26.8h1.85Z"/>
  <path id="Arial-BoldMT-6c2" data-name="Arial-BoldMT-6c" class="st4" d="M123.49,420.15v-6.44h1.24v6.44h-1.24Z"/>
  <path id="Arial-BoldMT-342" data-name="Arial-BoldMT-34" class="st4" d="M70.88,429.65v-1.3h-2.64v-1.08l2.79-4.09h1.04v4.09h.8v1.09h-.8v1.3h-1.2ZM70.88,427.27v-2.2l-1.48,2.2h1.48Z"/>
  <path id="Arial-BoldMT-2017" data-name="Arial-BoldMT-20" class="st4" d="M73.08,429.65"/>
  <path id="Arial-BoldMT-462" data-name="Arial-BoldMT-46" class="st4" d="M76.24,429.65v-6.44h4.42v1.09h-3.12v1.52h2.69v1.09h-2.69v2.74h-1.3Z"/>
  <path id="Arial-BoldMT-505" data-name="Arial-BoldMT-50" class="st4" d="M81.73,429.65v-6.44h2.09c.79,0,1.31.03,1.55.1.37.1.68.31.93.63.25.32.37.74.37,1.25,0,.4-.07.73-.22,1-.14.27-.33.48-.55.63-.22.15-.45.26-.68.31-.31.06-.76.09-1.35.09h-.85v2.43h-1.3ZM83.03,424.3v1.83h.71c.51,0,.86-.03,1.03-.1.17-.07.31-.17.41-.32.1-.14.15-.31.15-.5,0-.23-.07-.43-.21-.58-.14-.15-.31-.25-.52-.29-.15-.03-.47-.04-.94-.04h-.63Z"/>
  <path id="Arial-BoldMT-561" data-name="Arial-BoldMT-56" class="st4" d="M89.38,429.65l-2.3-6.44h1.41l1.63,4.77,1.58-4.77h1.38l-2.31,6.44h-1.39Z"/>
  <path id="Arial-BoldMT-2018" data-name="Arial-BoldMT-20" class="st4" d="M93.08,429.65"/>
  <path id="Arial-BoldMT-441" data-name="Arial-BoldMT-44" class="st4" d="M96.24,423.21h2.38c.54,0,.95.04,1.23.12.38.11.7.31.97.59.27.28.48.63.62,1.04s.21.92.21,1.52c0,.53-.07.99-.2,1.37-.16.47-.39.85-.69,1.14-.23.22-.53.39-.91.51-.29.09-.67.14-1.15.14h-2.45v-6.44ZM97.54,424.3v4.27h.97c.36,0,.63-.02.79-.06.21-.05.39-.14.52-.27.14-.13.25-.33.34-.62.09-.29.13-.68.13-1.18s-.04-.88-.13-1.15c-.09-.27-.21-.48-.37-.62-.16-.15-.36-.25-.6-.3-.18-.04-.54-.06-1.07-.06h-.58Z"/>
  <path id="Arial-BoldMT-723" data-name="Arial-BoldMT-72" class="st4" d="M103.91,429.65h-1.23v-4.67h1.15v.66c.2-.31.37-.52.53-.62.16-.1.33-.15.53-.15.28,0,.55.08.81.23l-.38,1.08c-.21-.13-.4-.2-.58-.2s-.32.05-.44.14c-.12.09-.21.27-.28.52-.07.25-.1.77-.1,1.56v1.44Z"/>
  <path id="Arial-BoldMT-6f4" data-name="Arial-BoldMT-6f" class="st4" d="M105.95,427.25c0-.41.1-.81.3-1.19.2-.38.49-.68.86-.88.37-.2.78-.3,1.24-.3.71,0,1.28.23,1.74.69s.68,1.04.68,1.74-.23,1.29-.68,1.76c-.46.46-1.03.7-1.72.7-.43,0-.84-.1-1.22-.29-.39-.19-.68-.48-.89-.85-.2-.37-.3-.83-.3-1.36ZM107.21,427.32c0,.46.11.82.33,1.06.22.25.49.37.81.37s.59-.12.81-.37c.22-.25.33-.6.33-1.07s-.11-.81-.33-1.05c-.22-.25-.49-.37-.81-.37s-.59.12-.81.37c-.22.25-.33.6-.33,1.06Z"/>
  <path id="Arial-BoldMT-6e4" data-name="Arial-BoldMT-6e" class="st4" d="M115.98,429.65h-1.23v-2.38c0-.5-.03-.83-.08-.98s-.14-.26-.26-.34c-.12-.08-.26-.12-.43-.12-.21,0-.41.06-.58.18s-.29.27-.35.47c-.06.19-.09.55-.09,1.07v2.11h-1.23v-4.67h1.15v.69c.41-.53.92-.79,1.54-.79.27,0,.52.05.75.15.23.1.4.22.51.38.12.15.2.32.24.52.05.19.07.47.07.83v2.9Z"/>
  <path id="Arial-BoldMT-655" data-name="Arial-BoldMT-65" class="st4" d="M119.93,428.17l1.23.21c-.16.45-.41.79-.75,1.03-.34.24-.77.35-1.28.35-.81,0-1.41-.27-1.8-.8-.31-.42-.46-.96-.46-1.61,0-.77.2-1.38.61-1.82.41-.44.92-.66,1.53-.66.69,0,1.24.23,1.64.69s.59,1.16.58,2.11h-3.09c0,.37.11.65.3.86.19.2.43.31.71.31.19,0,.36-.05.49-.16.13-.11.23-.28.3-.51ZM120,426.92c0-.36-.1-.63-.28-.81-.18-.19-.39-.28-.64-.28-.27,0-.49.1-.67.29-.18.2-.26.46-.26.8h1.85Z"/>
  <path id="Arial-BoldMT-736" data-name="Arial-BoldMT-73" class="st4" d="M121.8,428.32l1.24-.19c.05.24.16.42.32.55.16.12.39.19.68.19.32,0,.56-.06.72-.18.11-.08.16-.19.16-.33,0-.09-.03-.17-.09-.23-.06-.06-.2-.11-.41-.16-1-.22-1.63-.42-1.89-.6-.37-.25-.55-.6-.55-1.05,0-.4.16-.74.48-1.02.32-.28.82-.41,1.49-.41s1.11.1,1.42.31c.31.21.53.52.64.92l-1.17.22c-.05-.18-.14-.32-.28-.42-.14-.1-.34-.15-.59-.15-.32,0-.56.05-.7.14-.09.06-.14.15-.14.25,0,.09.04.16.12.23.11.08.5.2,1.15.35.66.15,1.12.33,1.38.55.26.22.39.53.39.92,0,.43-.18.8-.54,1.1-.36.31-.89.46-1.59.46-.64,0-1.14-.13-1.51-.39-.37-.26-.61-.61-.73-1.05Z"/>
  <path id="Arial-BoldMT-532" data-name="Arial-BoldMT-53" class="st4" d="M293.53,404.87l1.27-.12c.08.42.23.74.46.94.23.2.55.3.94.3.42,0,.73-.09.95-.27.21-.18.32-.38.32-.62,0-.15-.04-.28-.13-.39s-.25-.2-.47-.28c-.15-.05-.5-.15-1.04-.28-.7-.17-1.19-.39-1.47-.64-.4-.36-.59-.79-.59-1.3,0-.33.09-.64.28-.92.19-.29.45-.5.8-.65.35-.15.77-.22,1.27-.22.81,0,1.42.18,1.83.53s.62.83.64,1.42l-1.3.06c-.06-.33-.17-.57-.36-.71-.18-.15-.46-.22-.82-.22s-.67.08-.89.23c-.14.1-.21.23-.21.4,0,.15.06.28.19.39.16.14.56.28,1.2.43.63.15,1.1.3,1.4.46.3.16.54.38.71.65.17.28.26.62.26,1.03,0,.37-.1.71-.31,1.04-.2.32-.49.56-.87.72-.38.16-.84.23-1.4.23-.81,0-1.44-.19-1.88-.56-.44-.38-.7-.93-.78-1.65Z"/>
  <path id="Arial-BoldMT-512" data-name="Arial-BoldMT-51" class="st4" d="M305.05,406.15c.32.23.67.41,1.04.54l-.48.92c-.2-.06-.39-.14-.58-.24-.04-.02-.33-.21-.87-.57-.42.18-.89.28-1.4.28-.99,0-1.77-.29-2.33-.87-.56-.58-.84-1.4-.84-2.46s.28-1.87.84-2.45c.56-.58,1.33-.88,2.29-.88s1.71.29,2.27.88c.56.58.84,1.4.84,2.45,0,.56-.08,1.05-.23,1.47-.12.32-.3.63-.56.94ZM304,405.42c.17-.2.29-.43.38-.71.08-.28.13-.6.13-.96,0-.74-.16-1.3-.49-1.67-.33-.37-.76-.55-1.29-.55s-.96.18-1.29.55c-.33.37-.49.92-.49,1.67s.16,1.32.49,1.69c.33.37.75.56,1.25.56.19,0,.36-.03.53-.09-.26-.17-.53-.31-.8-.41l.37-.74c.43.15.84.37,1.22.66Z"/>
  <path id="Arial-BoldMT-551" data-name="Arial-BoldMT-55" class="st4" d="M306.85,400.53h1.3v3.49c0,.55.02.91.05,1.08.06.26.19.47.4.63.21.16.5.24.86.24s.65-.07.83-.23c.19-.15.3-.34.34-.56.04-.22.06-.59.06-1.1v-3.56h1.3v3.38c0,.77-.04,1.32-.11,1.64-.07.32-.2.59-.39.81-.19.22-.44.39-.76.52-.32.13-.73.2-1.24.2-.62,0-1.08-.07-1.4-.21-.32-.14-.57-.33-.75-.55-.18-.23-.31-.47-.36-.71-.09-.37-.13-.91-.13-1.64v-3.44Z"/>
  <path id="Arial-BoldMT-414" data-name="Arial-BoldMT-41" class="st4" d="M319.17,406.97h-1.41l-.56-1.46h-2.58l-.53,1.46h-1.38l2.51-6.44h1.38l2.58,6.44ZM316.78,404.42l-.89-2.39-.87,2.39h1.76Z"/>
  <path id="Arial-BoldMT-442" data-name="Arial-BoldMT-44" class="st4" d="M319.86,400.53h2.38c.54,0,.95.04,1.23.12.38.11.7.31.97.59.27.28.48.63.62,1.04s.21.92.21,1.52c0,.53-.07.99-.2,1.37-.16.47-.39.85-.69,1.14-.23.22-.53.39-.91.51-.29.09-.67.14-1.15.14h-2.45v-6.44ZM321.16,401.62v4.27h.97c.36,0,.63-.02.79-.06.21-.05.39-.14.52-.27.14-.13.25-.33.34-.62.09-.29.13-.68.13-1.18s-.04-.88-.13-1.15c-.09-.27-.21-.48-.37-.62-.16-.15-.36-.25-.6-.3-.18-.04-.54-.06-1.07-.06h-.58Z"/>
  <path id="Arial-BoldMT-2019" data-name="Arial-BoldMT-20" class="st4" d="M325.71,406.97"/>
  <path id="Arial-BoldMT-321" data-name="Arial-BoldMT-32" class="st4" d="M332.76,405.82v1.15h-4.33c.05-.43.19-.85.42-1.23.23-.39.7-.9,1.39-1.54.56-.52.9-.87,1.02-1.05.17-.25.25-.51.25-.76,0-.27-.07-.49-.22-.63-.15-.15-.35-.22-.61-.22s-.46.08-.62.23c-.15.15-.24.41-.26.77l-1.23-.12c.07-.68.3-1.17.69-1.46.39-.3.87-.44,1.45-.44.64,0,1.14.17,1.5.51.36.34.55.77.55,1.28,0,.29-.05.57-.16.83s-.27.54-.5.82c-.15.19-.42.46-.81.82-.39.36-.64.59-.74.71-.1.12-.19.23-.25.34h2.45Z"/>
  <path id="Arial-BoldMT-314" data-name="Arial-BoldMT-31" class="st4" d="M288.74,416.48h-1.23v-4.65c-.45.42-.98.73-1.6.94v-1.12c.32-.11.67-.3,1.05-.6.38-.29.64-.64.78-1.03h1v6.47Z"/>
  <path id="Arial-BoldMT-302" data-name="Arial-BoldMT-30" class="st4" d="M292.67,410.01c.62,0,1.11.22,1.46.67.42.53.63,1.4.63,2.62s-.21,2.09-.63,2.63c-.35.44-.84.66-1.46.66s-1.13-.24-1.52-.72c-.38-.48-.58-1.34-.58-2.58s.21-2.09.63-2.62c.35-.44.83-.66,1.46-.66ZM292.67,411.03c-.15,0-.28.05-.4.14-.12.09-.21.27-.27.51-.08.32-.13.86-.13,1.61s.04,1.27.11,1.56c.08.28.17.47.29.56.12.09.25.14.4.14s.28-.05.4-.14c.12-.1.21-.27.27-.51.09-.32.13-.85.13-1.61s-.04-1.28-.11-1.56c-.08-.28-.17-.47-.29-.57-.12-.1-.25-.14-.4-.14Z"/>
  <path id="Arial-BoldMT-2020" data-name="Arial-BoldMT-20" class="st4" d="M295.21,416.48"/>
  <path id="Arial-BoldMT-506" data-name="Arial-BoldMT-50" class="st4" d="M298.36,416.48v-6.44h2.09c.79,0,1.31.03,1.55.1.37.1.68.31.93.63.25.32.37.74.37,1.25,0,.4-.07.73-.22,1-.14.27-.33.48-.55.63-.22.15-.45.26-.68.31-.31.06-.76.09-1.35.09h-.85v2.43h-1.3ZM299.66,411.13v1.83h.71c.51,0,.86-.03,1.03-.1.17-.07.31-.17.41-.32.1-.14.15-.31.15-.5,0-.23-.07-.43-.21-.58-.14-.15-.31-.25-.52-.29-.15-.03-.47-.04-.94-.04h-.63Z"/>
  <path id="Arial-BoldMT-656" data-name="Arial-BoldMT-65" class="st4" d="M307.06,414.99l1.23.21c-.16.45-.41.79-.75,1.03-.34.24-.77.35-1.28.35-.81,0-1.41-.27-1.8-.8-.31-.42-.46-.96-.46-1.61,0-.77.2-1.38.61-1.82.41-.44.92-.66,1.53-.66.69,0,1.24.23,1.64.69s.59,1.16.58,2.11h-3.09c0,.37.11.65.3.86.19.2.43.31.71.31.19,0,.36-.05.49-.16.13-.11.23-.28.3-.51ZM307.13,413.74c0-.36-.1-.63-.28-.81-.18-.19-.39-.28-.64-.28-.27,0-.49.1-.67.29-.18.2-.26.46-.26.8h1.85Z"/>
  <path id="Arial-BoldMT-724" data-name="Arial-BoldMT-72" class="st4" d="M310.54,416.48h-1.23v-4.67h1.15v.66c.2-.31.37-.52.53-.62.16-.1.33-.15.53-.15.28,0,.55.08.81.23l-.38,1.08c-.21-.13-.4-.2-.58-.2s-.32.05-.44.14c-.12.09-.21.27-.28.52-.07.25-.1.77-.1,1.56v1.44Z"/>
  <path id="Arial-BoldMT-737" data-name="Arial-BoldMT-73" class="st4" d="M312.43,415.15l1.24-.19c.05.24.16.42.32.55.16.12.39.19.68.19.32,0,.56-.06.72-.18.11-.08.16-.19.16-.33,0-.09-.03-.17-.09-.23-.06-.06-.2-.11-.41-.16-1-.22-1.63-.42-1.89-.6-.37-.25-.55-.6-.55-1.05,0-.4.16-.74.48-1.02.32-.28.82-.41,1.49-.41s1.11.1,1.42.31c.31.21.53.52.64.92l-1.17.22c-.05-.18-.14-.32-.28-.42-.14-.1-.34-.15-.59-.15-.32,0-.56.05-.7.14-.09.06-.14.15-.14.25,0,.09.04.16.12.23.11.08.5.2,1.15.35.66.15,1.12.33,1.38.55.26.22.39.53.39.92,0,.43-.18.8-.54,1.1-.36.31-.89.46-1.59.46-.64,0-1.14-.13-1.51-.39-.37-.26-.61-.61-.73-1.05Z"/>
  <path id="Arial-BoldMT-6f5" data-name="Arial-BoldMT-6f" class="st4" d="M317.58,414.08c0-.41.1-.81.3-1.19.2-.38.49-.68.86-.88.37-.2.78-.3,1.24-.3.71,0,1.28.23,1.74.69s.68,1.04.68,1.74-.23,1.29-.68,1.76c-.46.46-1.03.7-1.72.7-.43,0-.84-.1-1.22-.29-.39-.19-.68-.48-.89-.85-.2-.37-.3-.83-.3-1.36ZM318.85,414.14c0,.46.11.82.33,1.06.22.25.49.37.81.37s.59-.12.81-.37c.22-.25.33-.6.33-1.07s-.11-.81-.33-1.05c-.22-.25-.49-.37-.81-.37s-.59.12-.81.37c-.22.25-.33.6-.33,1.06Z"/>
  <path id="Arial-BoldMT-6e5" data-name="Arial-BoldMT-6e" class="st4" d="M327.61,416.48h-1.23v-2.38c0-.5-.03-.83-.08-.98s-.14-.26-.26-.34c-.12-.08-.26-.12-.43-.12-.21,0-.41.06-.58.18s-.29.27-.35.47c-.06.19-.09.55-.09,1.07v2.11h-1.23v-4.67h1.15v.69c.41-.53.92-.79,1.54-.79.27,0,.52.05.75.15.23.1.4.22.51.38.12.15.2.32.24.52.05.19.07.47.07.83v2.9Z"/>
  <path id="Arial-BoldMT-6e6" data-name="Arial-BoldMT-6e" class="st4" d="M333.11,416.48h-1.23v-2.38c0-.5-.03-.83-.08-.98s-.14-.26-.26-.34c-.12-.08-.26-.12-.43-.12-.21,0-.41.06-.58.18s-.29.27-.35.47c-.06.19-.09.55-.09,1.07v2.11h-1.23v-4.67h1.15v.69c.41-.53.92-.79,1.54-.79.27,0,.52.05.75.15.23.1.4.22.51.38.12.15.2.32.24.52.05.19.07.47.07.83v2.9Z"/>
  <path id="Arial-BoldMT-657" data-name="Arial-BoldMT-65" class="st4" d="M337.06,414.99l1.23.21c-.16.45-.41.79-.75,1.03-.34.24-.77.35-1.28.35-.81,0-1.41-.27-1.8-.8-.31-.42-.46-.96-.46-1.61,0-.77.2-1.38.61-1.82.41-.44.92-.66,1.53-.66.69,0,1.24.23,1.64.69s.59,1.16.58,2.11h-3.09c0,.37.11.65.3.86.19.2.43.31.71.31.19,0,.36-.05.49-.16.13-.11.23-.28.3-.51ZM337.13,413.74c0-.36-.1-.63-.28-.81-.18-.19-.39-.28-.64-.28-.27,0-.49.1-.67.29-.18.2-.26.46-.26.8h1.85Z"/>
  <path id="Arial-BoldMT-6c3" data-name="Arial-BoldMT-6c" class="st4" d="M271.55,417.17v-6.44h1.24v6.44h-1.24Z"/>
  <path id="Arial-BoldMT-343" data-name="Arial-BoldMT-34" class="st4" d="M286.75,425.98v-1.3h-2.64v-1.08l2.79-4.09h1.04v4.09h.8v1.09h-.8v1.3h-1.2ZM286.75,423.6v-2.2l-1.48,2.2h1.48Z"/>
  <path id="Arial-BoldMT-2021" data-name="Arial-BoldMT-20" class="st4" d="M288.95,425.98"/>
  <path id="Arial-BoldMT-463" data-name="Arial-BoldMT-46" class="st4" d="M292.12,425.98v-6.44h4.42v1.09h-3.12v1.52h2.69v1.09h-2.69v2.74h-1.3Z"/>
  <path id="Arial-BoldMT-507" data-name="Arial-BoldMT-50" class="st4" d="M297.61,425.98v-6.44h2.09c.79,0,1.31.03,1.55.1.37.1.68.31.93.63.25.32.37.74.37,1.25,0,.4-.07.73-.22,1-.14.27-.33.48-.55.63-.22.15-.45.26-.68.31-.31.06-.76.09-1.35.09h-.85v2.43h-1.3ZM298.91,420.63v1.83h.71c.51,0,.86-.03,1.03-.1.17-.07.31-.17.41-.32.1-.14.15-.31.15-.5,0-.23-.07-.43-.21-.58-.14-.15-.31-.25-.52-.29-.15-.03-.47-.04-.94-.04h-.63Z"/>
  <path id="Arial-BoldMT-562" data-name="Arial-BoldMT-56" class="st4" d="M305.25,425.98l-2.3-6.44h1.41l1.63,4.77,1.58-4.77h1.38l-2.31,6.44h-1.39Z"/>
  <path id="Arial-BoldMT-2022" data-name="Arial-BoldMT-20" class="st4" d="M308.96,425.98"/>
  <path id="Arial-BoldMT-443" data-name="Arial-BoldMT-44" class="st4" d="M312.11,419.54h2.38c.54,0,.95.04,1.23.12.38.11.7.31.97.59.27.28.48.63.62,1.04s.21.92.21,1.52c0,.53-.07.99-.2,1.37-.16.47-.39.85-.69,1.14-.23.22-.53.39-.91.51-.29.09-.67.14-1.15.14h-2.45v-6.44ZM313.41,420.63v4.27h.97c.36,0,.63-.02.79-.06.21-.05.39-.14.52-.27.14-.13.25-.33.34-.62.09-.29.13-.68.13-1.18s-.04-.88-.13-1.15c-.09-.27-.21-.48-.37-.62-.16-.15-.36-.25-.6-.3-.18-.04-.54-.06-1.07-.06h-.58Z"/>
  <path id="Arial-BoldMT-725" data-name="Arial-BoldMT-72" class="st4" d="M319.79,425.98h-1.23v-4.67h1.15v.66c.2-.31.37-.52.53-.62.16-.1.33-.15.53-.15.28,0,.55.08.81.23l-.38,1.08c-.21-.13-.4-.2-.58-.2s-.32.05-.44.14c-.12.09-.21.27-.28.52-.07.25-.1.77-.1,1.56v1.44Z"/>
  <path id="Arial-BoldMT-6f6" data-name="Arial-BoldMT-6f" class="st4" d="M321.82,423.58c0-.41.1-.81.3-1.19.2-.38.49-.68.86-.88.37-.2.78-.3,1.24-.3.71,0,1.28.23,1.74.69s.68,1.04.68,1.74-.23,1.29-.68,1.76c-.46.46-1.03.7-1.72.7-.43,0-.84-.1-1.22-.29-.39-.19-.68-.48-.89-.85-.2-.37-.3-.83-.3-1.36ZM323.09,423.65c0,.46.11.82.33,1.06.22.25.49.37.81.37s.59-.12.81-.37c.22-.25.33-.6.33-1.07s-.11-.81-.33-1.05c-.22-.25-.49-.37-.81-.37s-.59.12-.81.37c-.22.25-.33.6-.33,1.06Z"/>
  <path id="Arial-BoldMT-6e7" data-name="Arial-BoldMT-6e" class="st4" d="M331.85,425.98h-1.23v-2.38c0-.5-.03-.83-.08-.98s-.14-.26-.26-.34c-.12-.08-.26-.12-.43-.12-.21,0-.41.06-.58.18s-.29.27-.35.47c-.06.19-.09.55-.09,1.07v2.11h-1.23v-4.67h1.15v.69c.41-.53.92-.79,1.54-.79.27,0,.52.05.75.15.23.1.4.22.51.38.12.15.2.32.24.52.05.19.07.47.07.83v2.9Z"/>
  <path id="Arial-BoldMT-658" data-name="Arial-BoldMT-65" class="st4" d="M335.8,424.5l1.23.21c-.16.45-.41.79-.75,1.03-.34.24-.77.35-1.28.35-.81,0-1.41-.27-1.8-.8-.31-.42-.46-.96-.46-1.61,0-.77.2-1.38.61-1.82.41-.44.92-.66,1.53-.66.69,0,1.24.23,1.64.69s.59,1.16.58,2.11h-3.09c0,.37.11.65.3.86.19.2.43.31.71.31.19,0,.36-.05.49-.16.13-.11.23-.28.3-.51ZM335.88,423.25c0-.36-.1-.63-.28-.81-.18-.19-.39-.28-.64-.28-.27,0-.49.1-.67.29-.18.2-.26.46-.26.8h1.85Z"/>
  <path id="Arial-BoldMT-738" data-name="Arial-BoldMT-73" class="st4" d="M269.85,425.35l1.24-.19c.05.24.16.42.32.55.16.12.39.19.68.19.32,0,.56-.06.72-.18.11-.08.16-.19.16-.33,0-.09-.03-.17-.09-.23-.06-.06-.2-.11-.41-.16-1-.22-1.63-.42-1.89-.6-.37-.25-.55-.6-.55-1.05,0-.4.16-.74.48-1.02.32-.28.82-.41,1.49-.41s1.11.1,1.42.31c.31.21.53.52.64.92l-1.17.22c-.05-.18-.14-.32-.28-.42-.14-.1-.34-.15-.59-.15-.32,0-.56.05-.7.14-.09.06-.14.15-.14.25,0,.09.04.16.12.23.11.08.5.2,1.15.35.66.15,1.12.33,1.38.55.26.22.39.53.39.92,0,.43-.18.8-.54,1.1-.36.31-.89.46-1.59.46-.64,0-1.14-.13-1.51-.39-.37-.26-.61-.61-.73-1.05Z"/>
  <path id="Arial-BoldMT-533" data-name="Arial-BoldMT-53" class="st4" d="M493.06,401.57l1.27-.12c.08.42.23.74.46.94.23.2.55.3.94.3.42,0,.73-.09.95-.27.21-.18.32-.38.32-.62,0-.15-.04-.28-.13-.39s-.25-.2-.47-.28c-.15-.05-.5-.15-1.04-.28-.7-.17-1.19-.39-1.47-.64-.4-.36-.59-.79-.59-1.3,0-.33.09-.64.28-.92.19-.29.45-.5.8-.65.35-.15.77-.22,1.27-.22.81,0,1.42.18,1.83.53s.62.83.64,1.42l-1.3.06c-.06-.33-.17-.57-.36-.71-.18-.15-.46-.22-.82-.22s-.67.08-.89.23c-.14.1-.21.23-.21.4,0,.15.06.28.19.39.16.14.56.28,1.2.43.63.15,1.1.3,1.4.46.3.16.54.38.71.65.17.28.26.62.26,1.03,0,.37-.1.71-.31,1.04-.2.32-.49.56-.87.72-.38.16-.84.23-1.4.23-.81,0-1.44-.19-1.88-.56-.44-.38-.7-.93-.78-1.65Z"/>
  <path id="Arial-BoldMT-513" data-name="Arial-BoldMT-51" class="st4" d="M504.58,402.85c.32.23.67.41,1.04.54l-.48.92c-.2-.06-.39-.14-.58-.24-.04-.02-.33-.21-.87-.57-.42.18-.89.28-1.4.28-.99,0-1.77-.29-2.33-.87-.56-.58-.84-1.4-.84-2.46s.28-1.87.84-2.45c.56-.58,1.33-.88,2.29-.88s1.71.29,2.27.88c.56.58.84,1.4.84,2.45,0,.56-.08,1.05-.23,1.47-.12.32-.3.63-.56.94ZM503.54,402.11c.17-.2.29-.43.38-.71.08-.28.13-.6.13-.96,0-.74-.16-1.3-.49-1.67-.33-.37-.76-.55-1.29-.55s-.96.18-1.29.55c-.33.37-.49.92-.49,1.67s.16,1.32.49,1.69c.33.37.75.56,1.25.56.19,0,.36-.03.53-.09-.26-.17-.53-.31-.8-.41l.37-.74c.43.15.84.37,1.22.66Z"/>
  <path id="Arial-BoldMT-552" data-name="Arial-BoldMT-55" class="st4" d="M506.39,397.22h1.3v3.49c0,.55.02.91.05,1.08.06.26.19.47.4.63.21.16.5.24.86.24s.65-.07.83-.23c.19-.15.3-.34.34-.56.04-.22.06-.59.06-1.1v-3.56h1.3v3.38c0,.77-.04,1.32-.11,1.64-.07.32-.2.59-.39.81-.19.22-.44.39-.76.52-.32.13-.73.2-1.24.2-.62,0-1.08-.07-1.4-.21-.32-.14-.57-.33-.75-.55-.18-.23-.31-.47-.36-.71-.09-.37-.13-.91-.13-1.64v-3.44Z"/>
  <path id="Arial-BoldMT-415" data-name="Arial-BoldMT-41" class="st4" d="M518.71,403.66h-1.41l-.56-1.46h-2.58l-.53,1.46h-1.38l2.51-6.44h1.38l2.58,6.44ZM516.31,401.12l-.89-2.39-.87,2.39h1.76Z"/>
  <path id="Arial-BoldMT-444" data-name="Arial-BoldMT-44" class="st4" d="M519.39,397.22h2.38c.54,0,.95.04,1.23.12.38.11.7.31.97.59.27.28.48.63.62,1.04s.21.92.21,1.52c0,.53-.07.99-.2,1.37-.16.47-.39.85-.69,1.14-.23.22-.53.39-.91.51-.29.09-.67.14-1.15.14h-2.45v-6.44ZM520.69,398.31v4.27h.97c.36,0,.63-.02.79-.06.21-.05.39-.14.52-.27.14-.13.25-.33.34-.62.09-.29.13-.68.13-1.18s-.04-.88-.13-1.15c-.09-.27-.21-.48-.37-.62-.16-.15-.36-.25-.6-.3-.18-.04-.54-.06-1.07-.06h-.58Z"/>
  <path id="Arial-BoldMT-2023" data-name="Arial-BoldMT-20" class="st4" d="M525.24,403.66"/>
  <path id="Arial-BoldMT-331" data-name="Arial-BoldMT-33" class="st4" d="M528.08,401.95l1.2-.14c.04.3.14.54.31.7.17.16.37.24.61.24.26,0,.47-.1.64-.29.17-.19.26-.46.26-.78,0-.31-.08-.56-.25-.74-.17-.18-.37-.27-.61-.27-.16,0-.35.03-.57.09l.14-1.01c.33,0,.59-.06.76-.22.18-.15.26-.36.26-.61,0-.22-.06-.39-.19-.52-.13-.13-.3-.19-.51-.19s-.39.07-.54.22c-.15.15-.24.36-.27.64l-1.14-.19c.08-.39.2-.7.36-.93.16-.23.38-.42.67-.55.29-.13.61-.2.96-.2.61,0,1.09.19,1.46.58.3.32.45.67.45,1.07,0,.57-.31,1.02-.93,1.35.37.08.66.26.88.53.22.27.33.61.33,1,0,.57-.21,1.05-.62,1.45-.41.4-.93.6-1.54.6-.58,0-1.07-.17-1.45-.5-.38-.34-.61-.77-.67-1.32Z"/>
  <path id="Arial-BoldMT-315" data-name="Arial-BoldMT-31" class="st4" d="M488.27,413.17h-1.23v-4.65c-.45.42-.98.73-1.6.94v-1.12c.32-.11.67-.3,1.05-.6.38-.29.64-.64.78-1.03h1v6.47Z"/>
  <path id="Arial-BoldMT-303" data-name="Arial-BoldMT-30" class="st4" d="M492.21,406.7c.62,0,1.11.22,1.46.67.42.53.63,1.4.63,2.62s-.21,2.09-.63,2.63c-.35.44-.84.66-1.46.66s-1.13-.24-1.52-.72c-.38-.48-.58-1.34-.58-2.58s.21-2.09.63-2.62c.35-.44.83-.66,1.46-.66ZM492.21,407.73c-.15,0-.28.05-.4.14-.12.09-.21.27-.27.51-.08.32-.13.86-.13,1.61s.04,1.27.11,1.56c.08.28.17.47.29.56.12.09.25.14.4.14s.28-.05.4-.14c.12-.1.21-.27.27-.51.09-.32.13-.85.13-1.61s-.04-1.28-.11-1.56c-.08-.28-.17-.47-.29-.57-.12-.1-.25-.14-.4-.14Z"/>
  <path id="Arial-BoldMT-2024" data-name="Arial-BoldMT-20" class="st4" d="M494.74,413.17"/>
  <path id="Arial-BoldMT-508" data-name="Arial-BoldMT-50" class="st4" d="M497.9,413.17v-6.44h2.09c.79,0,1.31.03,1.55.1.37.1.68.31.93.63.25.32.37.74.37,1.25,0,.4-.07.73-.22,1-.14.27-.33.48-.55.63-.22.15-.45.26-.68.31-.31.06-.76.09-1.35.09h-.85v2.43h-1.3ZM499.2,407.82v1.83h.71c.51,0,.86-.03,1.03-.1.17-.07.31-.17.41-.32.1-.14.15-.31.15-.5,0-.23-.07-.43-.21-.58-.14-.15-.31-.25-.52-.29-.15-.03-.47-.04-.94-.04h-.63Z"/>
  <path id="Arial-BoldMT-659" data-name="Arial-BoldMT-65" class="st4" d="M506.59,411.69l1.23.21c-.16.45-.41.79-.75,1.03-.34.24-.77.35-1.28.35-.81,0-1.41-.27-1.8-.8-.31-.42-.46-.96-.46-1.61,0-.77.2-1.38.61-1.82.41-.44.92-.66,1.53-.66.69,0,1.24.23,1.64.69s.59,1.16.58,2.11h-3.09c0,.37.11.65.3.86.19.2.43.31.71.31.19,0,.36-.05.49-.16.13-.11.23-.28.3-.51ZM506.66,410.44c0-.36-.1-.63-.28-.81-.18-.19-.39-.28-.64-.28-.27,0-.49.1-.67.29-.18.2-.26.46-.26.8h1.85Z"/>
  <path id="Arial-BoldMT-726" data-name="Arial-BoldMT-72" class="st4" d="M510.08,413.17h-1.23v-4.67h1.15v.66c.2-.31.37-.52.53-.62.16-.1.33-.15.53-.15.28,0,.55.08.81.23l-.38,1.08c-.21-.13-.4-.2-.58-.2s-.32.05-.44.14c-.12.09-.21.27-.28.52-.07.25-.1.77-.1,1.56v1.44Z"/>
  <path id="Arial-BoldMT-739" data-name="Arial-BoldMT-73" class="st4" d="M511.96,411.84l1.24-.19c.05.24.16.42.32.55.16.12.39.19.68.19.32,0,.56-.06.72-.18.11-.08.16-.19.16-.33,0-.09-.03-.17-.09-.23-.06-.06-.2-.11-.41-.16-1-.22-1.63-.42-1.89-.6-.37-.25-.55-.6-.55-1.05,0-.4.16-.74.48-1.02.32-.28.82-.41,1.49-.41s1.11.1,1.42.31c.31.21.53.52.64.92l-1.17.22c-.05-.18-.14-.32-.28-.42-.14-.1-.34-.15-.59-.15-.32,0-.56.05-.7.14-.09.06-.14.15-.14.25,0,.09.04.16.12.23.11.08.5.2,1.15.35.66.15,1.12.33,1.38.55.26.22.39.53.39.92,0,.43-.18.8-.54,1.1-.36.31-.89.46-1.59.46-.64,0-1.14-.13-1.51-.39-.37-.26-.61-.61-.73-1.05Z"/>
  <path id="Arial-BoldMT-6f7" data-name="Arial-BoldMT-6f" class="st4" d="M517.12,410.77c0-.41.1-.81.3-1.19.2-.38.49-.68.86-.88.37-.2.78-.3,1.24-.3.71,0,1.28.23,1.74.69s.68,1.04.68,1.74-.23,1.29-.68,1.76c-.46.46-1.03.7-1.72.7-.43,0-.84-.1-1.22-.29-.39-.19-.68-.48-.89-.85-.2-.37-.3-.83-.3-1.36ZM518.38,410.84c0,.46.11.82.33,1.06.22.25.49.37.81.37s.59-.12.81-.37c.22-.25.33-.6.33-1.07s-.11-.81-.33-1.05c-.22-.25-.49-.37-.81-.37s-.59.12-.81.37c-.22.25-.33.6-.33,1.06Z"/>
  <path id="Arial-BoldMT-6e8" data-name="Arial-BoldMT-6e" class="st4" d="M527.15,413.17h-1.23v-2.38c0-.5-.03-.83-.08-.98s-.14-.26-.26-.34c-.12-.08-.26-.12-.43-.12-.21,0-.41.06-.58.18s-.29.27-.35.47c-.06.19-.09.55-.09,1.07v2.11h-1.23v-4.67h1.15v.69c.41-.53.92-.79,1.54-.79.27,0,.52.05.75.15.23.1.4.22.51.38.12.15.2.32.24.52.05.19.07.47.07.83v2.9Z"/>
  <path id="Arial-BoldMT-6e9" data-name="Arial-BoldMT-6e" class="st4" d="M532.64,413.17h-1.23v-2.38c0-.5-.03-.83-.08-.98s-.14-.26-.26-.34c-.12-.08-.26-.12-.43-.12-.21,0-.41.06-.58.18s-.29.27-.35.47c-.06.19-.09.55-.09,1.07v2.11h-1.23v-4.67h1.15v.69c.41-.53.92-.79,1.54-.79.27,0,.52.05.75.15.23.1.4.22.51.38.12.15.2.32.24.52.05.19.07.47.07.83v2.9Z"/>
  <path id="Arial-BoldMT-6510" data-name="Arial-BoldMT-65" class="st4" d="M536.6,411.69l1.23.21c-.16.45-.41.79-.75,1.03-.34.24-.77.35-1.28.35-.81,0-1.41-.27-1.8-.8-.31-.42-.46-.96-.46-1.61,0-.77.2-1.38.61-1.82.41-.44.92-.66,1.53-.66.69,0,1.24.23,1.64.69s.59,1.16.58,2.11h-3.09c0,.37.11.65.3.86.19.2.43.31.71.31.19,0,.36-.05.49-.16.13-.11.23-.28.3-.51ZM536.67,410.44c0-.36-.1-.63-.28-.81-.18-.19-.39-.28-.64-.28-.27,0-.49.1-.67.29-.18.2-.26.46-.26.8h1.85Z"/>
  <path id="Arial-BoldMT-6c4" data-name="Arial-BoldMT-6c" class="st4" d="M538.9,413.17v-6.44h1.24v6.44h-1.24Z"/>
  <path id="Arial-BoldMT-344" data-name="Arial-BoldMT-34" class="st4" d="M486.29,422.68v-1.3h-2.64v-1.08l2.79-4.09h1.04v4.09h.8v1.09h-.8v1.3h-1.2ZM486.29,420.3v-2.2l-1.48,2.2h1.48Z"/>
  <path id="Arial-BoldMT-2025" data-name="Arial-BoldMT-20" class="st4" d="M488.49,422.68"/>
  <path id="Arial-BoldMT-464" data-name="Arial-BoldMT-46" class="st4" d="M491.65,422.68v-6.44h4.42v1.09h-3.12v1.52h2.69v1.09h-2.69v2.74h-1.3Z"/>
  <path id="Arial-BoldMT-509" data-name="Arial-BoldMT-50" class="st4" d="M497.14,422.68v-6.44h2.09c.79,0,1.31.03,1.55.1.37.1.68.31.93.63.25.32.37.74.37,1.25,0,.4-.07.73-.22,1-.14.27-.33.48-.55.63-.22.15-.45.26-.68.31-.31.06-.76.09-1.35.09h-.85v2.43h-1.3ZM498.44,417.33v1.83h.71c.51,0,.86-.03,1.03-.1.17-.07.31-.17.41-.32.1-.14.15-.31.15-.5,0-.23-.07-.43-.21-.58-.14-.15-.31-.25-.52-.29-.15-.03-.47-.04-.94-.04h-.63Z"/>
  <path id="Arial-BoldMT-563" data-name="Arial-BoldMT-56" class="st4" d="M504.79,422.68l-2.3-6.44h1.41l1.63,4.77,1.58-4.77h1.38l-2.31,6.44h-1.39Z"/>
  <path id="Arial-BoldMT-2026" data-name="Arial-BoldMT-20" class="st4" d="M508.49,422.68"/>
  <path id="Arial-BoldMT-445" data-name="Arial-BoldMT-44" class="st4" d="M511.65,416.24h2.38c.54,0,.95.04,1.23.12.38.11.7.31.97.59.27.28.48.63.62,1.04s.21.92.21,1.52c0,.53-.07.99-.2,1.37-.16.47-.39.85-.69,1.14-.23.22-.53.39-.91.51-.29.09-.67.14-1.15.14h-2.45v-6.44ZM512.95,417.33v4.27h.97c.36,0,.63-.02.79-.06.21-.05.39-.14.52-.27.14-.13.25-.33.34-.62.09-.29.13-.68.13-1.18s-.04-.88-.13-1.15c-.09-.27-.21-.48-.37-.62-.16-.15-.36-.25-.6-.3-.18-.04-.54-.06-1.07-.06h-.58Z"/>
  <path id="Arial-BoldMT-727" data-name="Arial-BoldMT-72" class="st4" d="M519.32,422.68h-1.23v-4.67h1.15v.66c.2-.31.37-.52.53-.62.16-.1.33-.15.53-.15.28,0,.55.08.81.23l-.38,1.08c-.21-.13-.4-.2-.58-.2s-.32.05-.44.14c-.12.09-.21.27-.28.52-.07.25-.1.77-.1,1.56v1.44Z"/>
  <path id="Arial-BoldMT-6f8" data-name="Arial-BoldMT-6f" class="st4" d="M521.36,420.28c0-.41.1-.81.3-1.19.2-.38.49-.68.86-.88.37-.2.78-.3,1.24-.3.71,0,1.28.23,1.74.69s.68,1.04.68,1.74-.23,1.29-.68,1.76c-.46.46-1.03.7-1.72.7-.43,0-.84-.1-1.22-.29-.39-.19-.68-.48-.89-.85-.2-.37-.3-.83-.3-1.36ZM522.62,420.34c0,.46.11.82.33,1.06.22.25.49.37.81.37s.59-.12.81-.37c.22-.25.33-.6.33-1.07s-.11-.81-.33-1.05c-.22-.25-.49-.37-.81-.37s-.59.12-.81.37c-.22.25-.33.6-.33,1.06Z"/>
  <path id="Arial-BoldMT-6e10" data-name="Arial-BoldMT-6e" class="st4" d="M531.38,422.68h-1.23v-2.38c0-.5-.03-.83-.08-.98s-.14-.26-.26-.34c-.12-.08-.26-.12-.43-.12-.21,0-.41.06-.58.18s-.29.27-.35.47c-.06.19-.09.55-.09,1.07v2.11h-1.23v-4.67h1.15v.69c.41-.53.92-.79,1.54-.79.27,0,.52.05.75.15.23.1.4.22.51.38.12.15.2.32.24.52.05.19.07.47.07.83v2.9Z"/>
  <path id="Arial-BoldMT-6511" data-name="Arial-BoldMT-65" class="st4" d="M535.34,421.19l1.23.21c-.16.45-.41.79-.75,1.03-.34.24-.77.35-1.28.35-.81,0-1.41-.27-1.8-.8-.31-.42-.46-.96-.46-1.61,0-.77.2-1.38.61-1.82.41-.44.92-.66,1.53-.66.69,0,1.24.23,1.64.69s.59,1.16.58,2.11h-3.09c0,.37.11.65.3.86.19.2.43.31.71.31.19,0,.36-.05.49-.16.13-.11.23-.28.3-.51ZM535.41,419.94c0-.36-.1-.63-.28-.81-.18-.19-.39-.28-.64-.28-.27,0-.49.1-.67.29-.18.2-.26.46-.26.8h1.85Z"/>
  <path id="Arial-BoldMT-7310" data-name="Arial-BoldMT-73" class="st4" d="M537.21,421.35l1.24-.19c.05.24.16.42.32.55.16.12.39.19.68.19.32,0,.56-.06.72-.18.11-.08.16-.19.16-.33,0-.09-.03-.17-.09-.23-.06-.06-.2-.11-.41-.16-1-.22-1.63-.42-1.89-.6-.37-.25-.55-.6-.55-1.05,0-.4.16-.74.48-1.02.32-.28.82-.41,1.49-.41s1.11.1,1.42.31c.31.21.53.52.64.92l-1.17.22c-.05-.18-.14-.32-.28-.42-.14-.1-.34-.15-.59-.15-.32,0-.56.05-.7.14-.09.06-.14.15-.14.25,0,.09.04.16.12.23.11.08.5.2,1.15.35.66.15,1.12.33,1.38.55.26.22.39.53.39.92,0,.43-.18.8-.54,1.1-.36.31-.89.46-1.59.46-.64,0-1.14-.13-1.51-.39-.37-.26-.61-.61-.73-1.05Z"/>
  <path class="st2" d="M303.73,138.9v26.54"/>
  <path class="st2" d="M305.73,161.44l-2,4-2-4"/>
  <path id="Arial-BoldMT-416" data-name="Arial-BoldMT-41" class="st6" d="M131.45,34.07h-2.2l-.88-2.28h-4.01l-.83,2.28h-2.15l3.9-10.02h2.14l4.01,10.02ZM127.72,30.1l-1.38-3.72-1.35,3.72h2.73Z"/>
  <path id="Arial-BoldMT-7311" data-name="Arial-BoldMT-73" class="st6" d="M131.83,32l1.93-.29c.08.37.25.66.5.85.25.19.6.29,1.05.29.5,0,.87-.09,1.12-.27.17-.13.25-.3.25-.51,0-.15-.05-.27-.14-.36-.09-.09-.31-.18-.64-.25-1.55-.34-2.53-.65-2.95-.94-.57-.39-.86-.94-.86-1.63,0-.63.25-1.16.74-1.59.5-.43,1.27-.64,2.31-.64s1.73.16,2.21.49c.48.32.82.8,1,1.44l-1.81.33c-.08-.28-.22-.5-.44-.65-.22-.15-.52-.23-.93-.23-.5,0-.87.07-1.09.21-.15.1-.22.23-.22.39,0,.14.06.25.19.35.17.13.77.31,1.79.54,1.02.23,1.74.52,2.14.85.4.34.6.82.6,1.43,0,.67-.28,1.24-.83,1.72-.56.48-1.38.72-2.47.72-.99,0-1.77-.2-2.35-.6-.58-.4-.95-.95-1.13-1.63Z"/>
  <path id="Arial-BoldMT-681" data-name="Arial-BoldMT-68" class="st6" d="M142.2,24.05v3.68c.62-.72,1.36-1.09,2.22-1.09.44,0,.84.08,1.2.25.36.16.62.37.8.63.18.26.3.54.37.85.07.31.1.79.1,1.44v4.26h-1.92v-3.83c0-.76-.04-1.24-.11-1.45-.07-.21-.2-.37-.39-.49-.18-.12-.41-.18-.69-.18-.32,0-.6.08-.85.23-.25.15-.43.39-.55.7s-.18.77-.18,1.38v3.64h-1.92v-10.02h1.92Z"/>
  <path id="Arial-BoldMT-6d" class="st6" d="M148.7,26.81h1.77v.99c.63-.77,1.39-1.16,2.26-1.16.46,0,.87.1,1.21.29.34.19.62.48.84.87.32-.39.66-.68,1.03-.87.37-.19.76-.29,1.18-.29.53,0,.98.11,1.35.33.37.22.64.53.83.95.13.31.2.81.2,1.5v4.64h-1.92v-4.15c0-.72-.07-1.18-.2-1.39-.18-.27-.45-.41-.82-.41-.27,0-.52.08-.76.25-.24.16-.41.4-.51.72s-.16.82-.16,1.5v3.49h-1.92v-3.98c0-.71-.03-1.16-.1-1.37-.07-.21-.18-.36-.32-.46-.14-.1-.34-.15-.58-.15-.3,0-.56.08-.8.24-.24.16-.41.39-.51.69-.1.3-.15.8-.15,1.5v3.53h-1.92v-7.26Z"/>
  <path id="Arial-BoldMT-692" data-name="Arial-BoldMT-69" class="st6" d="M161.29,25.82v-1.78h1.92v1.78h-1.92ZM161.29,34.07v-7.26h1.92v7.26h-1.92Z"/>
  <path id="Arial-BoldMT-2027" data-name="Arial-BoldMT-20" class="st6" d="M164.18,34.07"/>
  <path id="Arial-BoldMT-5010" data-name="Arial-BoldMT-50" class="st6" d="M169.08,34.07v-10.02h3.25c1.23,0,2.03.05,2.41.15.57.15,1.06.48,1.44.98.39.5.58,1.15.58,1.95,0,.62-.11,1.13-.33,1.55-.22.42-.51.75-.85.99-.34.24-.69.4-1.05.47-.48.1-1.18.14-2.1.14h-1.32v3.78h-2.02ZM171.11,25.74v2.84h1.11c.8,0,1.33-.05,1.6-.16.27-.11.48-.27.63-.49.15-.22.23-.48.23-.78,0-.36-.11-.67-.32-.9-.21-.24-.49-.39-.81-.45-.24-.05-.73-.07-1.45-.07h-.98Z"/>
  <path id="Arial-BoldMT-6c5" data-name="Arial-BoldMT-6c" class="st6" d="M178.41,34.07v-10.02h1.92v10.02h-1.92Z"/>
  <path id="Arial-BoldMT-61" class="st6" d="M183.73,29.02l-1.74-.32c.2-.7.53-1.22,1.01-1.56.48-.34,1.19-.51,2.13-.51.86,0,1.5.1,1.91.3.42.2.72.46.89.77s.26.89.26,1.72l-.02,2.24c0,.64.03,1.11.09,1.41.06.3.18.63.35.97h-1.9c-.05-.13-.11-.32-.18-.57-.03-.12-.06-.19-.07-.23-.33.32-.68.56-1.05.72-.37.16-.77.24-1.2.24-.75,0-1.34-.2-1.77-.61-.43-.41-.65-.92-.65-1.54,0-.41.1-.78.29-1.1.2-.32.47-.57.82-.74.35-.17.86-.32,1.53-.45.9-.17,1.52-.33,1.87-.47v-.19c0-.37-.09-.63-.27-.79s-.53-.24-1.03-.24c-.34,0-.61.07-.8.2s-.35.37-.46.71ZM186.3,30.58c-.25.08-.64.18-1.17.3-.53.11-.88.23-1.05.33-.25.18-.38.4-.38.68s.1.5.3.7c.2.2.46.29.77.29.35,0,.68-.11.99-.34.23-.17.38-.39.46-.64.05-.16.08-.48.08-.94v-.38Z"/>
  <path id="Arial-BoldMT-741" data-name="Arial-BoldMT-74" class="st6" d="M193.41,26.81v1.53h-1.31v2.93c0,.59.01.94.04,1.03.03.1.08.18.17.24s.2.1.32.1c.18,0,.44-.06.77-.19l.16,1.49c-.45.19-.95.29-1.52.29-.35,0-.66-.06-.94-.17-.28-.12-.48-.27-.61-.45-.13-.19-.22-.43-.27-.75-.04-.22-.06-.67-.06-1.35v-3.17h-.88v-1.53h.88v-1.44l1.93-1.12v2.56h1.31Z"/>
  <path id="Arial-BoldMT-6f9" data-name="Arial-BoldMT-6f" class="st6" d="M194.3,30.34c0-.64.16-1.26.47-1.85.32-.6.76-1.05,1.34-1.37.58-.32,1.22-.47,1.93-.47,1.1,0,2,.36,2.7,1.07s1.05,1.61,1.05,2.7-.35,2.01-1.06,2.73c-.71.72-1.6,1.08-2.68,1.08-.67,0-1.3-.15-1.9-.45-.6-.3-1.06-.74-1.38-1.32-.32-.58-.47-1.29-.47-2.12ZM196.27,30.44c0,.72.17,1.27.51,1.65.34.38.76.57,1.27.57s.92-.19,1.26-.57c.34-.38.51-.94.51-1.67s-.17-1.26-.51-1.64c-.34-.38-.76-.58-1.26-.58s-.92.19-1.27.58c-.34.38-.51.93-.51,1.65Z"/>
  <path id="Arial-BoldMT-6f10" data-name="Arial-BoldMT-6f" class="st6" d="M202.85,30.34c0-.64.16-1.26.47-1.85.32-.6.76-1.05,1.34-1.37.58-.32,1.22-.47,1.93-.47,1.1,0,2,.36,2.7,1.07s1.05,1.61,1.05,2.7-.35,2.01-1.06,2.73c-.71.72-1.6,1.08-2.68,1.08-.67,0-1.3-.15-1.9-.45-.6-.3-1.06-.74-1.38-1.32-.32-.58-.47-1.29-.47-2.12ZM204.82,30.44c0,.72.17,1.27.51,1.65.34.38.76.57,1.27.57s.92-.19,1.26-.57c.34-.38.51-.94.51-1.67s-.17-1.26-.51-1.64c-.34-.38-.76-.58-1.26-.58s-.92.19-1.27.58c-.34.38-.51.93-.51,1.65Z"/>
  <path id="Arial-BoldMT-6e11" data-name="Arial-BoldMT-6e" class="st6" d="M218.45,34.07h-1.92v-3.71c0-.78-.04-1.29-.12-1.52s-.22-.41-.4-.54c-.19-.13-.41-.19-.67-.19-.33,0-.63.09-.89.27s-.45.42-.54.73c-.1.3-.15.86-.15,1.67v3.29h-1.92v-7.26h1.79v1.07c.63-.82,1.43-1.23,2.39-1.23.42,0,.81.08,1.16.23.35.15.62.35.8.59.18.24.31.5.38.81.07.3.11.73.11,1.29v4.51Z"/>
  <path id="Arial-BoldMT-2028" data-name="Arial-BoldMT-20" class="st6" d="M219.4,34.07"/>
  <path id="Arial-BoldMT-2d1" data-name="Arial-BoldMT-2d" class="st6" d="M224.07,31.4v-1.92h3.77v1.92h-3.77Z"/>
  <path id="Arial-BoldMT-2029" data-name="Arial-BoldMT-20" class="st6" d="M227.95,34.07"/>
  <path id="Arial-BoldMT-4f3" data-name="Arial-BoldMT-4f" class="st6" d="M232.45,29.12c0-1.02.15-1.88.46-2.57.23-.51.54-.97.93-1.37.39-.41.83-.71,1.3-.9.62-.26,1.34-.4,2.16-.4,1.48,0,2.66.46,3.54,1.37.89.92,1.33,2.19,1.33,3.82s-.44,2.88-1.32,3.8c-.88.91-2.06,1.37-3.53,1.37s-2.68-.45-3.55-1.36c-.88-.91-1.32-2.16-1.32-3.76ZM234.53,29.05c0,1.13.26,2,.79,2.58.53.58,1.19.88,2,.88s1.47-.29,1.99-.87c.52-.58.78-1.45.78-2.61s-.25-2.01-.76-2.57c-.5-.57-1.17-.85-2.01-.85s-1.51.29-2.02.86c-.51.57-.77,1.43-.77,2.59Z"/>
  <path id="Arial-BoldMT-728" data-name="Arial-BoldMT-72" class="st6" d="M245.57,34.07h-1.92v-7.26h1.79v1.03c.3-.49.58-.81.82-.96.24-.16.52-.23.83-.23.44,0,.86.12,1.26.36l-.6,1.67c-.32-.21-.62-.31-.9-.31s-.5.07-.68.22c-.19.15-.33.41-.44.8-.11.39-.16,1.2-.16,2.43v2.24Z"/>
  <path id="Arial-BoldMT-67" class="st6" d="M249,34.55l2.19.27c.04.26.12.43.25.53.18.14.47.21.86.21.5,0,.88-.08,1.13-.23.17-.1.3-.26.38-.49.06-.16.09-.45.09-.88v-1.06c-.57.78-1.3,1.18-2.17,1.18-.98,0-1.75-.41-2.32-1.24-.45-.65-.67-1.46-.67-2.43,0-1.22.29-2.15.88-2.79.59-.64,1.31-.96,2.19-.96s1.64.39,2.22,1.18v-1.02h1.8v6.51c0,.86-.07,1.5-.21,1.92-.14.42-.34.76-.6,1-.26.24-.6.43-1.02.57s-.96.21-1.62.21c-1.23,0-2.1-.21-2.62-.63-.51-.42-.77-.96-.77-1.6,0-.06,0-.14,0-.23ZM250.72,30.29c0,.77.15,1.33.45,1.69.3.36.67.54,1.1.54.47,0,.87-.18,1.19-.55s.49-.91.49-1.63-.16-1.31-.47-1.68c-.31-.36-.7-.55-1.17-.55s-.84.18-1.14.54c-.3.36-.45.9-.45,1.64Z"/>
  <path id="Arial-BoldMT-611" data-name="Arial-BoldMT-61" class="st6" d="M259.17,29.02l-1.74-.32c.2-.7.53-1.22,1.01-1.56.48-.34,1.19-.51,2.13-.51.86,0,1.5.1,1.91.3.42.2.72.46.89.77s.26.89.26,1.72l-.02,2.24c0,.64.03,1.11.09,1.41.06.3.18.63.35.97h-1.9c-.05-.13-.11-.32-.18-.57-.03-.12-.06-.19-.07-.23-.33.32-.68.56-1.05.72-.37.16-.77.24-1.2.24-.75,0-1.34-.2-1.77-.61-.43-.41-.65-.92-.65-1.54,0-.41.1-.78.29-1.1.2-.32.47-.57.82-.74.35-.17.86-.32,1.53-.45.9-.17,1.52-.33,1.87-.47v-.19c0-.37-.09-.63-.27-.79s-.53-.24-1.03-.24c-.34,0-.61.07-.8.2s-.35.37-.46.71ZM261.74,30.58c-.25.08-.64.18-1.17.3-.53.11-.88.23-1.05.33-.25.18-.38.4-.38.68s.1.5.3.7c.2.2.46.29.77.29.35,0,.68-.11.99-.34.23-.17.38-.39.46-.64.05-.16.08-.48.08-.94v-.38Z"/>
  <path id="Arial-BoldMT-6e12" data-name="Arial-BoldMT-6e" class="st6" d="M272.12,34.07h-1.92v-3.71c0-.78-.04-1.29-.12-1.52s-.22-.41-.4-.54c-.19-.13-.41-.19-.67-.19-.33,0-.63.09-.89.27s-.45.42-.54.73c-.1.3-.15.86-.15,1.67v3.29h-1.92v-7.26h1.79v1.07c.63-.82,1.43-1.23,2.39-1.23.42,0,.81.08,1.16.23.35.15.62.35.8.59.18.24.31.5.38.81.07.3.11.73.11,1.29v4.51Z"/>
  <path id="Arial-BoldMT-693" data-name="Arial-BoldMT-69" class="st6" d="M274.07,25.82v-1.78h1.92v1.78h-1.92ZM274.07,34.07v-7.26h1.92v7.26h-1.92Z"/>
  <path id="Arial-BoldMT-632" data-name="Arial-BoldMT-63" class="st6" d="M284.29,28.95l-1.89.34c-.06-.38-.21-.66-.44-.86s-.52-.29-.88-.29c-.48,0-.86.17-1.15.5-.28.33-.43.88-.43,1.66,0,.86.14,1.47.43,1.83.29.35.68.53,1.17.53.36,0,.66-.1.89-.31.23-.21.4-.56.49-1.07l1.89.32c-.2.87-.57,1.52-1.13,1.96-.56.44-1.3.66-2.24.66-1.06,0-1.91-.33-2.54-1-.63-.67-.95-1.6-.95-2.78s.32-2.13.95-2.8c.63-.67,1.49-1,2.57-1,.88,0,1.59.19,2.11.57s.9.96,1.12,1.74Z"/>
  <path id="Arial-BoldMT-2030" data-name="Arial-BoldMT-20" class="st6" d="M284.74,34.07"/>
  <path id="Arial-BoldMT-5011" data-name="Arial-BoldMT-50" class="st6" d="M289.65,34.07v-10.02h3.25c1.23,0,2.03.05,2.41.15.57.15,1.06.48,1.44.98.39.5.58,1.15.58,1.95,0,.62-.11,1.13-.33,1.55-.22.42-.51.75-.85.99-.34.24-.69.4-1.05.47-.48.1-1.18.14-2.1.14h-1.32v3.78h-2.02ZM291.67,25.74v2.84h1.11c.8,0,1.33-.05,1.6-.16.27-.11.48-.27.63-.49.15-.22.23-.48.23-.78,0-.36-.11-.67-.32-.9-.21-.24-.49-.39-.81-.45-.24-.05-.73-.07-1.45-.07h-.98Z"/>
  <path id="Arial-BoldMT-729" data-name="Arial-BoldMT-72" class="st6" d="M300.81,34.07h-1.92v-7.26h1.79v1.03c.3-.49.58-.81.82-.96.24-.16.52-.23.83-.23.44,0,.86.12,1.26.36l-.6,1.67c-.32-.21-.62-.31-.9-.31s-.5.07-.68.22c-.19.15-.33.41-.44.8-.11.39-.16,1.2-.16,2.43v2.24Z"/>
  <path id="Arial-BoldMT-6512" data-name="Arial-BoldMT-65" class="st6" d="M308.62,31.76l1.91.32c-.25.7-.63,1.24-1.17,1.6-.53.37-1.19.55-1.99.55-1.26,0-2.2-.41-2.8-1.24-.48-.66-.72-1.49-.72-2.5,0-1.2.31-2.15.94-2.83.63-.68,1.43-1.02,2.39-1.02,1.08,0,1.93.36,2.56,1.07s.92,1.81.89,3.28h-4.81c.01.57.17,1.01.47,1.33.3.32.67.47,1.11.47.3,0,.55-.08.76-.25.21-.16.36-.43.47-.79ZM308.73,29.82c-.01-.56-.16-.98-.43-1.27-.27-.29-.61-.44-1-.44-.42,0-.76.15-1.04.46-.27.31-.41.72-.4,1.24h2.87Z"/>
  <path id="Arial-BoldMT-633" data-name="Arial-BoldMT-63" class="st6" d="M318.54,28.95l-1.89.34c-.06-.38-.21-.66-.44-.86s-.52-.29-.88-.29c-.48,0-.86.17-1.15.5-.28.33-.43.88-.43,1.66,0,.86.14,1.47.43,1.83.29.35.68.53,1.17.53.36,0,.66-.1.89-.31.23-.21.4-.56.49-1.07l1.89.32c-.2.87-.57,1.52-1.13,1.96-.56.44-1.3.66-2.24.66-1.06,0-1.91-.33-2.54-1-.63-.67-.95-1.6-.95-2.78s.32-2.13.95-2.8c.63-.67,1.49-1,2.57-1,.88,0,1.59.19,2.11.57s.9.96,1.12,1.74Z"/>
  <path id="Arial-BoldMT-694" data-name="Arial-BoldMT-69" class="st6" d="M319.99,25.82v-1.78h1.92v1.78h-1.92ZM319.99,34.07v-7.26h1.92v7.26h-1.92Z"/>
  <path id="Arial-BoldMT-7312" data-name="Arial-BoldMT-73" class="st6" d="M323.21,32l1.93-.29c.08.37.25.66.5.85.25.19.6.29,1.05.29.5,0,.87-.09,1.12-.27.17-.13.25-.3.25-.51,0-.15-.05-.27-.14-.36-.09-.09-.31-.18-.64-.25-1.55-.34-2.53-.65-2.95-.94-.57-.39-.86-.94-.86-1.63,0-.63.25-1.16.74-1.59.5-.43,1.27-.64,2.31-.64s1.73.16,2.21.49c.48.32.82.8,1,1.44l-1.81.33c-.08-.28-.22-.5-.44-.65-.22-.15-.52-.23-.93-.23-.5,0-.87.07-1.09.21-.15.1-.22.23-.22.39,0,.14.06.25.19.35.17.13.77.31,1.79.54,1.02.23,1.74.52,2.14.85.4.34.6.82.6,1.43,0,.67-.28,1.24-.83,1.72-.56.48-1.38.72-2.47.72-.99,0-1.77-.2-2.35-.6-.58-.4-.95-.95-1.13-1.63Z"/>
  <path id="Arial-BoldMT-695" data-name="Arial-BoldMT-69" class="st6" d="M331.67,25.82v-1.78h1.92v1.78h-1.92ZM331.67,34.07v-7.26h1.92v7.26h-1.92Z"/>
  <path id="Arial-BoldMT-6f11" data-name="Arial-BoldMT-6f" class="st6" d="M335.11,30.34c0-.64.16-1.26.47-1.85.32-.6.76-1.05,1.34-1.37.58-.32,1.22-.47,1.93-.47,1.1,0,2,.36,2.7,1.07s1.05,1.61,1.05,2.7-.35,2.01-1.06,2.73c-.71.72-1.6,1.08-2.68,1.08-.67,0-1.3-.15-1.9-.45-.6-.3-1.06-.74-1.38-1.32-.32-.58-.47-1.29-.47-2.12ZM337.08,30.44c0,.72.17,1.27.51,1.65.34.38.76.57,1.27.57s.92-.19,1.26-.57c.34-.38.51-.94.51-1.67s-.17-1.26-.51-1.64c-.34-.38-.76-.58-1.26-.58s-.92.19-1.27.58c-.34.38-.51.93-.51,1.65Z"/>
  <path id="Arial-BoldMT-6e13" data-name="Arial-BoldMT-6e" class="st6" d="M350.71,34.07h-1.92v-3.71c0-.78-.04-1.29-.12-1.52s-.22-.41-.4-.54c-.19-.13-.41-.19-.67-.19-.33,0-.63.09-.89.27s-.45.42-.54.73c-.1.3-.15.86-.15,1.67v3.29h-1.92v-7.26h1.79v1.07c.63-.82,1.43-1.23,2.39-1.23.42,0,.81.08,1.16.23.35.15.62.35.8.59.18.24.31.5.38.81.07.3.11.73.11,1.29v4.51Z"/>
  <path id="Arial-BoldMT-2031" data-name="Arial-BoldMT-20" class="st6" d="M351.66,34.07"/>
  <path id="Arial-BoldMT-465" data-name="Arial-BoldMT-46" class="st6" d="M356.58,34.07v-10.02h6.87v1.7h-4.85v2.37h4.18v1.7h-4.18v4.26h-2.02Z"/>
  <path id="Arial-BoldMT-696" data-name="Arial-BoldMT-69" class="st6" d="M365.1,25.82v-1.78h1.92v1.78h-1.92ZM365.1,34.07v-7.26h1.92v7.26h-1.92Z"/>
  <path id="Arial-BoldMT-7210" data-name="Arial-BoldMT-72" class="st6" d="M370.83,34.07h-1.92v-7.26h1.79v1.03c.3-.49.58-.81.82-.96.24-.16.52-.23.83-.23.44,0,.86.12,1.26.36l-.6,1.67c-.32-.21-.62-.31-.9-.31s-.5.07-.68.22c-.19.15-.33.41-.44.8-.11.39-.16,1.2-.16,2.43v2.24Z"/>
  <path id="Arial-BoldMT-6513" data-name="Arial-BoldMT-65" class="st6" d="M378.65,31.76l1.91.32c-.25.7-.63,1.24-1.17,1.6-.53.37-1.19.55-1.99.55-1.26,0-2.2-.41-2.8-1.24-.48-.66-.72-1.49-.72-2.5,0-1.2.31-2.15.94-2.83.63-.68,1.43-1.02,2.39-1.02,1.08,0,1.93.36,2.56,1.07s.92,1.81.89,3.28h-4.81c.01.57.17,1.01.47,1.33.3.32.67.47,1.11.47.3,0,.55-.08.76-.25.21-.16.36-.43.47-.79ZM378.75,29.82c-.01-.56-.16-.98-.43-1.27-.27-.29-.61-.44-1-.44-.42,0-.76.15-1.04.46-.27.31-.41.72-.4,1.24h2.87Z"/>
  <path id="Arial-BoldMT-70" class="st6" d="M382.17,26.81h1.79v1.07c.23-.36.55-.66.94-.89.4-.23.84-.34,1.32-.34.84,0,1.56.33,2.15.99s.88,1.58.88,2.76-.3,2.15-.89,2.83c-.59.67-1.31,1.01-2.15,1.01-.4,0-.76-.08-1.09-.24-.33-.16-.67-.43-1.03-.82v3.66h-1.92v-10.02ZM384.07,30.32c0,.82.16,1.42.49,1.81s.72.58,1.18.58.82-.18,1.11-.54c.3-.36.44-.95.44-1.76,0-.76-.15-1.33-.46-1.7-.3-.37-.68-.55-1.13-.55s-.86.18-1.17.54c-.31.36-.46.9-.46,1.61Z"/>
  <path id="Arial-BoldMT-6f12" data-name="Arial-BoldMT-6f" class="st6" d="M390.33,30.34c0-.64.16-1.26.47-1.85.32-.6.76-1.05,1.34-1.37.58-.32,1.22-.47,1.93-.47,1.1,0,2,.36,2.7,1.07s1.05,1.61,1.05,2.7-.35,2.01-1.06,2.73c-.71.72-1.6,1.08-2.68,1.08-.67,0-1.3-.15-1.9-.45-.6-.3-1.06-.74-1.38-1.32-.32-.58-.47-1.29-.47-2.12ZM392.3,30.44c0,.72.17,1.27.51,1.65.34.38.76.57,1.27.57s.92-.19,1.26-.57c.34-.38.51-.94.51-1.67s-.17-1.26-.51-1.64c-.34-.38-.76-.58-1.26-.58s-.92.19-1.27.58c-.34.38-.51.93-.51,1.65Z"/>
  <path id="Arial-BoldMT-77" class="st6" d="M400.68,34.07l-2.3-7.26h1.87l1.36,4.76,1.25-4.76h1.85l1.21,4.76,1.39-4.76h1.89l-2.33,7.26h-1.84l-1.25-4.67-1.23,4.67h-1.87Z"/>
  <path id="Arial-BoldMT-6514" data-name="Arial-BoldMT-65" class="st6" d="M414.42,31.76l1.91.32c-.25.7-.63,1.24-1.17,1.6-.53.37-1.19.55-1.99.55-1.26,0-2.2-.41-2.8-1.24-.48-.66-.72-1.49-.72-2.5,0-1.2.31-2.15.94-2.83.63-.68,1.43-1.02,2.39-1.02,1.08,0,1.93.36,2.56,1.07s.92,1.81.89,3.28h-4.81c.01.57.17,1.01.47,1.33.3.32.67.47,1.11.47.3,0,.55-.08.76-.25.21-.16.36-.43.47-.79ZM414.53,29.82c-.01-.56-.16-.98-.43-1.27-.27-.29-.61-.44-1-.44-.42,0-.76.15-1.04.46-.27.31-.41.72-.4,1.24h2.87Z"/>
  <path id="Arial-BoldMT-7211" data-name="Arial-BoldMT-72" class="st6" d="M419.85,34.07h-1.92v-7.26h1.79v1.03c.3-.49.58-.81.82-.96.24-.16.52-.23.83-.23.44,0,.86.12,1.26.36l-.6,1.67c-.32-.21-.62-.31-.9-.31s-.5.07-.68.22c-.19.15-.33.41-.44.8-.11.39-.16,1.2-.16,2.43v2.24Z"/>
  <path id="Arial-BoldMT-2032" data-name="Arial-BoldMT-20" class="st6" d="M422.45,34.07"/>
  <path id="Arial-BoldMT-492" data-name="Arial-BoldMT-49" class="st6" d="M427.3,34.07v-10.02h2.02v10.02h-2.02Z"/>
  <path id="Arial-BoldMT-6e14" data-name="Arial-BoldMT-6e" class="st6" d="M437.84,34.07h-1.92v-3.71c0-.78-.04-1.29-.12-1.52s-.22-.41-.4-.54c-.19-.13-.41-.19-.67-.19-.33,0-.63.09-.89.27s-.45.42-.54.73c-.1.3-.15.86-.15,1.67v3.29h-1.92v-7.26h1.79v1.07c.63-.82,1.43-1.23,2.39-1.23.42,0,.81.08,1.16.23.35.15.62.35.8.59.18.24.31.5.38.81.07.3.11.73.11,1.29v4.51Z"/>
  <path id="Arial-BoldMT-742" data-name="Arial-BoldMT-74" class="st6" d="M443.12,26.81v1.53h-1.31v2.93c0,.59.01.94.04,1.03.03.1.08.18.17.24s.2.1.32.1c.18,0,.44-.06.77-.19l.16,1.49c-.45.19-.95.29-1.52.29-.35,0-.66-.06-.94-.17-.28-.12-.48-.27-.61-.45-.13-.19-.22-.43-.27-.75-.04-.22-.06-.67-.06-1.35v-3.17h-.88v-1.53h.88v-1.44l1.93-1.12v2.56h1.31Z"/>
  <path id="Arial-BoldMT-6515" data-name="Arial-BoldMT-65" class="st6" d="M448.65,31.76l1.91.32c-.25.7-.63,1.24-1.17,1.6-.53.37-1.19.55-1.99.55-1.26,0-2.2-.41-2.8-1.24-.48-.66-.72-1.49-.72-2.5,0-1.2.31-2.15.94-2.83.63-.68,1.43-1.02,2.39-1.02,1.08,0,1.93.36,2.56,1.07s.92,1.81.89,3.28h-4.81c.01.57.17,1.01.47,1.33.3.32.67.47,1.11.47.3,0,.55-.08.76-.25.21-.16.36-.43.47-.79ZM448.76,29.82c-.01-.56-.16-.98-.43-1.27-.27-.29-.61-.44-1-.44-.42,0-.76.15-1.04.46-.27.31-.41.72-.4,1.24h2.87Z"/>
  <path id="Arial-BoldMT-671" data-name="Arial-BoldMT-67" class="st6" d="M452.06,34.55l2.19.27c.04.26.12.43.25.53.18.14.47.21.86.21.5,0,.88-.08,1.13-.23.17-.1.3-.26.38-.49.06-.16.09-.45.09-.88v-1.06c-.57.78-1.3,1.18-2.17,1.18-.98,0-1.75-.41-2.32-1.24-.45-.65-.67-1.46-.67-2.43,0-1.22.29-2.15.88-2.79.59-.64,1.31-.96,2.19-.96s1.64.39,2.22,1.18v-1.02h1.8v6.51c0,.86-.07,1.5-.21,1.92-.14.42-.34.76-.6,1-.26.24-.6.43-1.02.57s-.96.21-1.62.21c-1.23,0-2.1-.21-2.62-.63-.51-.42-.77-.96-.77-1.6,0-.06,0-.14,0-.23ZM453.77,30.29c0,.77.15,1.33.45,1.69.3.36.67.54,1.1.54.47,0,.87-.18,1.19-.55s.49-.91.49-1.63-.16-1.31-.47-1.68c-.31-.36-.7-.55-1.17-.55s-.84.18-1.14.54c-.3.36-.45.9-.45,1.64Z"/>
  <path id="Arial-BoldMT-7212" data-name="Arial-BoldMT-72" class="st6" d="M462.63,34.07h-1.92v-7.26h1.79v1.03c.3-.49.58-.81.82-.96.24-.16.52-.23.83-.23.44,0,.86.12,1.26.36l-.6,1.67c-.32-.21-.62-.31-.9-.31s-.5.07-.68.22c-.19.15-.33.41-.44.8-.11.39-.16,1.2-.16,2.43v2.24Z"/>
  <path id="Arial-BoldMT-612" data-name="Arial-BoldMT-61" class="st6" d="M467.67,29.02l-1.74-.32c.2-.7.53-1.22,1.01-1.56.48-.34,1.19-.51,2.13-.51.86,0,1.5.1,1.91.3.42.2.72.46.89.77s.26.89.26,1.72l-.02,2.24c0,.64.03,1.11.09,1.41.06.3.18.63.35.97h-1.9c-.05-.13-.11-.32-.18-.57-.03-.12-.06-.19-.07-.23-.33.32-.68.56-1.05.72-.37.16-.77.24-1.2.24-.75,0-1.34-.2-1.77-.61-.43-.41-.65-.92-.65-1.54,0-.41.1-.78.29-1.1.2-.32.47-.57.82-.74.35-.17.86-.32,1.53-.45.9-.17,1.52-.33,1.87-.47v-.19c0-.37-.09-.63-.27-.79s-.53-.24-1.03-.24c-.34,0-.61.07-.8.2s-.35.37-.46.71ZM470.24,30.58c-.25.08-.64.18-1.17.3-.53.11-.88.23-1.05.33-.25.18-.38.4-.38.68s.1.5.3.7c.2.2.46.29.77.29.35,0,.68-.11.99-.34.23-.17.38-.39.46-.64.05-.16.08-.48.08-.94v-.38Z"/>
  <path id="Arial-BoldMT-743" data-name="Arial-BoldMT-74" class="st6" d="M477.35,26.81v1.53h-1.31v2.93c0,.59.01.94.04,1.03.03.1.08.18.17.24s.2.1.32.1c.18,0,.44-.06.77-.19l.16,1.49c-.45.19-.95.29-1.52.29-.35,0-.66-.06-.94-.17-.28-.12-.48-.27-.61-.45-.13-.19-.22-.43-.27-.75-.04-.22-.06-.67-.06-1.35v-3.17h-.88v-1.53h.88v-1.44l1.93-1.12v2.56h1.31Z"/>
  <path id="Arial-BoldMT-697" data-name="Arial-BoldMT-69" class="st6" d="M478.68,25.82v-1.78h1.92v1.78h-1.92ZM478.68,34.07v-7.26h1.92v7.26h-1.92Z"/>
  <path id="Arial-BoldMT-6f13" data-name="Arial-BoldMT-6f" class="st6" d="M482.13,30.34c0-.64.16-1.26.47-1.85.32-.6.76-1.05,1.34-1.37.58-.32,1.22-.47,1.93-.47,1.1,0,2,.36,2.7,1.07s1.05,1.61,1.05,2.7-.35,2.01-1.06,2.73c-.71.72-1.6,1.08-2.68,1.08-.67,0-1.3-.15-1.9-.45-.6-.3-1.06-.74-1.38-1.32-.32-.58-.47-1.29-.47-2.12ZM484.1,30.44c0,.72.17,1.27.51,1.65.34.38.76.57,1.27.57s.92-.19,1.26-.57c.34-.38.51-.94.51-1.67s-.17-1.26-.51-1.64c-.34-.38-.76-.58-1.26-.58s-.92.19-1.27.58c-.34.38-.51.93-.51,1.65Z"/>
  <path id="Arial-BoldMT-6e15" data-name="Arial-BoldMT-6e" class="st6" d="M497.73,34.07h-1.92v-3.71c0-.78-.04-1.29-.12-1.52s-.22-.41-.4-.54c-.19-.13-.41-.19-.67-.19-.33,0-.63.09-.89.27s-.45.42-.54.73c-.1.3-.15.86-.15,1.67v3.29h-1.92v-7.26h1.79v1.07c.63-.82,1.43-1.23,2.39-1.23.42,0,.81.08,1.16.23.35.15.62.35.8.59.18.24.31.5.38.81.07.3.11.73.11,1.29v4.51Z"/>
</svg>