<?xml version="1.0" encoding="UTF-8"?>
<svg id="Layer_1" xmlns="http://www.w3.org/2000/svg" version="1.1" xmlns:xlink="http://www.w3.org/1999/xlink" viewBox="0 0 864 504">
  <!-- Generator: Adobe Illustrator 30.4.0, SVG Export Plug-In . SVG Version: 2.1.4 Build 226)  -->
  <defs>
    <style>
      .st0, .st1, .st2, .st3, .st4, .st5, .st6, .st7 {
        fill: none;
      }

      .st0, .st1, .st8, .st3, .st5, .st9, .st6, .st7 {
        stroke-linejoin: round;
      }

      .st0, .st3, .st4, .st5, .st6, .st7 {
        stroke-linecap: square;
      }

      .st0, .st3, .st5, .st6, .st7 {
        stroke-width: 2.5px;
      }

      .st0, .st10 {
        stroke: #c00;
      }

      .st11 {
        fill: #666;
      }

      .st11, .st6 {
        stroke: #666;
      }

      .st12 {
        clip-path: url(#clippath-21);
      }

      .st13 {
        clip-path: url(#clippath-6);
      }

      .st14 {
        clip-path: url(#clippath-7);
      }

      .st15 {
        clip-path: url(#clippath-17);
      }

      .st16 {
        clip-path: url(#clippath-15);
      }

      .st17 {
        clip-path: url(#clippath-18);
      }

      .st18 {
        clip-path: url(#clippath-4);
      }

      .st19 {
        clip-path: url(#clippath-22);
      }

      .st1 {
        stroke: #b0b0b0;
        stroke-dasharray: 2.96 1.28;
        stroke-opacity: .3;
      }

      .st1, .st4, .st9 {
        stroke-width: .8px;
      }

      .st20 {
        isolation: isolate;
        opacity: .8;
        stroke: #ccc;
      }

      .st20, .st21 {
        fill: #fff;
      }

      .st22 {
        clip-path: url(#clippath-9);
      }

      .st23 {
        clip-path: url(#clippath-10);
      }

      .st24 {
        fill: #f60;
      }

      .st24, .st3 {
        stroke: #f60;
      }

      .st25 {
        clip-path: url(#clippath-11);
      }

      .st26 {
        fill: #06c;
      }

      .st26, .st5 {
        stroke: #06c;
      }

      .st27 {
        clip-path: url(#clippath-1);
      }

      .st8, .st28 {
        fill: #036;
      }

      .st8, .st7 {
        stroke: #036;
      }

      .st29 {
        clip-path: url(#clippath-5);
      }

      .st30 {
        clip-path: url(#clippath-20);
      }

      .st31 {
        clip-path: url(#clippath-8);
      }

      .st4, .st9 {
        stroke: #000;
      }

      .st32 {
        clip-path: url(#clippath-3);
      }

      .st33 {
        clip-path: url(#clippath-12);
      }

      .st34 {
        clip-path: url(#clippath-14);
      }

      .st10 {
        fill: #c00;
      }

      .st35 {
        clip-path: url(#clippath-19);
      }

      .st36 {
        clip-path: url(#clippath-16);
      }

      .st37 {
        clip-path: url(#clippath-2);
      }

      .st38 {
        clip-path: url(#clippath-13);
      }

      .st39 {
        clip-path: url(#clippath);
      }
    </style>
    <clipPath id="clippath">
      <rect class="st2" x="66.16" y="40.88" width="787.04" height="420.44"/>
    </clipPath>
    <clipPath id="clippath-1">
      <rect class="st2" x="66.16" y="40.88" width="787.04" height="420.44"/>
    </clipPath>
    <clipPath id="clippath-2">
      <rect class="st2" x="66.16" y="40.88" width="787.04" height="420.44"/>
    </clipPath>
    <clipPath id="clippath-3">
      <rect class="st2" x="66.16" y="40.88" width="787.04" height="420.44"/>
    </clipPath>
    <clipPath id="clippath-4">
      <rect class="st2" x="66.16" y="40.88" width="787.04" height="420.44"/>
    </clipPath>
    <clipPath id="clippath-5">
      <rect class="st2" x="66.16" y="40.88" width="787.04" height="420.44"/>
    </clipPath>
    <clipPath id="clippath-6">
      <rect class="st2" x="66.16" y="40.88" width="787.04" height="420.44"/>
    </clipPath>
    <clipPath id="clippath-7">
      <rect class="st2" x="66.16" y="40.88" width="787.04" height="420.44"/>
    </clipPath>
    <clipPath id="clippath-8">
      <rect class="st2" x="66.16" y="40.88" width="787.04" height="420.44"/>
    </clipPath>
    <clipPath id="clippath-9">
      <rect class="st2" x="66.16" y="40.88" width="787.04" height="420.44"/>
    </clipPath>
    <clipPath id="clippath-10">
      <rect class="st2" x="66.16" y="40.88" width="787.04" height="420.44"/>
    </clipPath>
    <clipPath id="clippath-11">
      <rect class="st2" x="66.16" y="40.88" width="787.04" height="420.44"/>
    </clipPath>
    <clipPath id="clippath-12">
      <rect class="st2" x="66.16" y="40.88" width="787.04" height="420.44"/>
    </clipPath>
    <clipPath id="clippath-13">
      <rect class="st2" x="66.16" y="40.88" width="787.04" height="420.44"/>
    </clipPath>
    <clipPath id="clippath-14">
      <rect class="st2" x="66.16" y="40.88" width="787.04" height="420.44"/>
    </clipPath>
    <clipPath id="clippath-15">
      <rect class="st2" x="66.16" y="40.88" width="787.04" height="420.44"/>
    </clipPath>
    <clipPath id="clippath-16">
      <rect class="st2" x="66.16" y="40.88" width="787.04" height="420.44"/>
    </clipPath>
    <clipPath id="clippath-17">
      <rect class="st2" x="66.16" y="40.88" width="787.04" height="420.44"/>
    </clipPath>
    <clipPath id="clippath-18">
      <rect class="st2" x="66.16" y="40.88" width="787.04" height="420.44"/>
    </clipPath>
    <clipPath id="clippath-19">
      <rect class="st2" x="66.16" y="40.88" width="787.04" height="420.44"/>
    </clipPath>
    <clipPath id="clippath-20">
      <rect class="st2" x="66.16" y="40.88" width="787.04" height="420.44"/>
    </clipPath>
    <clipPath id="clippath-21">
      <rect class="st2" x="66.16" y="40.88" width="787.04" height="420.44"/>
    </clipPath>
    <clipPath id="clippath-22">
      <rect class="st2" x="66.16" y="40.88" width="787.04" height="420.44"/>
    </clipPath>
  </defs>
  <path class="st21" d="M66.16,461.32h787.04V40.88H66.16v420.44Z"/>
  <g class="st39">
    <path class="st1" d="M101.93,461.32V40.88"/>
  </g>
  <path id="m9004d2a572" class="st9" d="M101.93,461.32v3.5"/>
  <path id="ArialMT-32" d="M95.85,474.63v.85h-4.73c0-.21.03-.42.1-.61.12-.32.31-.64.58-.95.27-.31.65-.67,1.15-1.08.78-.64,1.3-1.14,1.58-1.52.27-.37.41-.73.41-1.06s-.13-.64-.38-.88c-.25-.24-.57-.36-.97-.36-.42,0-.76.13-1.02.38-.25.25-.38.6-.39,1.05l-.9-.09c.06-.67.29-1.19.7-1.54.4-.35.95-.53,1.63-.53s1.23.19,1.63.57c.4.38.6.85.6,1.42,0,.29-.06.57-.18.85-.12.28-.31.57-.58.87s-.72.73-1.35,1.26c-.53.44-.87.74-1.02.9-.15.16-.27.32-.37.48h3.51Z"/>
  <path id="ArialMT-30" d="M96.79,471.95c0-.85.09-1.53.26-2.04.17-.52.43-.91.78-1.19.34-.28.78-.42,1.3-.42.38,0,.72.08,1.01.23.29.15.53.38.72.67.19.29.34.65.45,1.06.11.42.16.98.16,1.69,0,.84-.09,1.52-.26,2.03-.17.52-.43.91-.77,1.2-.34.28-.78.42-1.3.42-.69,0-1.23-.25-1.63-.74-.47-.6-.71-1.57-.71-2.91ZM97.69,471.95c0,1.18.14,1.96.41,2.35.28.39.61.58,1.02.58s.74-.2,1.02-.59.41-1.17.41-2.34-.14-1.96-.41-2.35c-.28-.39-.62-.58-1.03-.58s-.73.17-.97.51c-.3.44-.45,1.24-.45,2.42Z"/>
  <path id="ArialMT-321" data-name="ArialMT-32" d="M106.97,474.63v.85h-4.73c0-.21.03-.42.1-.61.12-.32.31-.64.58-.95.27-.31.65-.67,1.15-1.08.78-.64,1.3-1.14,1.58-1.52.27-.37.41-.73.41-1.06s-.13-.64-.38-.88c-.25-.24-.57-.36-.97-.36-.42,0-.76.13-1.02.38-.25.25-.38.6-.39,1.05l-.9-.09c.06-.67.29-1.19.7-1.54.4-.35.95-.53,1.63-.53s1.23.19,1.63.57c.4.38.6.85.6,1.42,0,.29-.06.57-.18.85-.12.28-.31.57-.58.87s-.72.73-1.35,1.26c-.53.44-.87.74-1.02.9-.15.16-.27.32-.37.48h3.51Z"/>
  <path id="ArialMT-301" data-name="ArialMT-30" d="M107.91,471.95c0-.85.09-1.53.26-2.04.17-.52.43-.91.78-1.19.34-.28.78-.42,1.3-.42.38,0,.72.08,1.01.23.29.15.53.38.72.67.19.29.34.65.45,1.06.11.42.16.98.16,1.69,0,.84-.09,1.52-.26,2.03-.17.52-.43.91-.77,1.2-.34.28-.78.42-1.3.42-.69,0-1.23-.25-1.63-.74-.47-.6-.71-1.57-.71-2.91ZM108.81,471.95c0,1.18.14,1.96.41,2.35.28.39.61.58,1.02.58s.74-.2,1.02-.59.41-1.17.41-2.34-.14-1.96-.41-2.35c-.28-.39-.62-.58-1.03-.58s-.73.17-.97.51c-.3.44-.45,1.24-.45,2.42Z"/>
  <g class="st27">
    <path class="st1" d="M221.18,461.32V40.88"/>
  </g>
  <path id="m9004d2a5721" data-name="m9004d2a572" class="st9" d="M221.18,461.32v3.5"/>
  <path id="ArialMT-322" data-name="ArialMT-32" d="M215.09,474.63v.85h-4.73c0-.21.03-.42.1-.61.12-.32.31-.64.58-.95.27-.31.65-.67,1.15-1.08.78-.64,1.3-1.14,1.58-1.52.27-.37.41-.73.41-1.06s-.13-.64-.38-.88c-.25-.24-.57-.36-.97-.36-.42,0-.76.13-1.02.38-.25.25-.38.6-.39,1.05l-.9-.09c.06-.67.29-1.19.7-1.54.4-.35.95-.53,1.63-.53s1.23.19,1.63.57c.4.38.6.85.6,1.42,0,.29-.06.57-.18.85-.12.28-.31.57-.58.87s-.72.73-1.35,1.26c-.53.44-.87.74-1.02.9-.15.16-.27.32-.37.48h3.51Z"/>
  <path id="ArialMT-302" data-name="ArialMT-30" d="M216.04,471.95c0-.85.09-1.53.26-2.04.17-.52.43-.91.78-1.19.34-.28.78-.42,1.3-.42.38,0,.72.08,1.01.23.29.15.53.38.72.67.19.29.34.65.45,1.06.11.42.16.98.16,1.69,0,.84-.09,1.52-.26,2.03-.17.52-.43.91-.77,1.2-.34.28-.78.42-1.3.42-.69,0-1.23-.25-1.63-.74-.47-.6-.71-1.57-.71-2.91ZM216.94,471.95c0,1.18.14,1.96.41,2.35.28.39.61.58,1.02.58s.74-.2,1.02-.59.41-1.17.41-2.34-.14-1.96-.41-2.35c-.28-.39-.62-.58-1.03-.58s-.73.17-.97.51c-.3.44-.45,1.24-.45,2.42Z"/>
  <path id="ArialMT-323" data-name="ArialMT-32" d="M226.22,474.63v.85h-4.73c0-.21.03-.42.1-.61.12-.32.31-.64.58-.95.27-.31.65-.67,1.15-1.08.78-.64,1.3-1.14,1.58-1.52.27-.37.41-.73.41-1.06s-.13-.64-.38-.88c-.25-.24-.57-.36-.97-.36-.42,0-.76.13-1.02.38-.25.25-.38.6-.39,1.05l-.9-.09c.06-.67.29-1.19.7-1.54.4-.35.95-.53,1.63-.53s1.23.19,1.63.57c.4.38.6.85.6,1.42,0,.29-.06.57-.18.85-.12.28-.31.57-.58.87s-.72.73-1.35,1.26c-.53.44-.87.74-1.02.9-.15.16-.27.32-.37.48h3.51Z"/>
  <path id="ArialMT-31" d="M230.47,475.48h-.88v-5.6c-.21.2-.49.4-.83.6s-.65.35-.93.45v-.85c.49-.23.92-.51,1.29-.84.37-.33.63-.65.78-.96h.57v7.19Z"/>
  <g class="st37">
    <path class="st1" d="M340.43,461.32V40.88"/>
  </g>
  <path id="m9004d2a5722" data-name="m9004d2a572" class="st9" d="M340.43,461.32v3.5"/>
  <path id="ArialMT-324" data-name="ArialMT-32" d="M334.34,474.63v.85h-4.73c0-.21.03-.42.1-.61.12-.32.31-.64.58-.95.27-.31.65-.67,1.15-1.08.78-.64,1.3-1.14,1.58-1.52.27-.37.41-.73.41-1.06s-.13-.64-.38-.88c-.25-.24-.57-.36-.97-.36-.42,0-.76.13-1.02.38-.25.25-.38.6-.39,1.05l-.9-.09c.06-.67.29-1.19.7-1.54.4-.35.95-.53,1.63-.53s1.23.19,1.63.57c.4.38.6.85.6,1.42,0,.29-.06.57-.18.85-.12.28-.31.57-.58.87s-.72.73-1.35,1.26c-.53.44-.87.74-1.02.9-.15.16-.27.32-.37.48h3.51Z"/>
  <path id="ArialMT-303" data-name="ArialMT-30" d="M335.29,471.95c0-.85.09-1.53.26-2.04.17-.52.43-.91.78-1.19.34-.28.78-.42,1.3-.42.38,0,.72.08,1.01.23.29.15.53.38.72.67.19.29.34.65.45,1.06.11.42.16.98.16,1.69,0,.84-.09,1.52-.26,2.03-.17.52-.43.91-.77,1.2-.34.28-.78.42-1.3.42-.69,0-1.23-.25-1.63-.74-.47-.6-.71-1.57-.71-2.91ZM336.19,471.95c0,1.18.14,1.96.41,2.35.28.39.61.58,1.02.58s.74-.2,1.02-.59.41-1.17.41-2.34-.14-1.96-.41-2.35c-.28-.39-.62-.58-1.03-.58s-.73.17-.97.51c-.3.44-.45,1.24-.45,2.42Z"/>
  <path id="ArialMT-325" data-name="ArialMT-32" d="M345.47,474.63v.85h-4.73c0-.21.03-.42.1-.61.12-.32.31-.64.58-.95.27-.31.65-.67,1.15-1.08.78-.64,1.3-1.14,1.58-1.52.27-.37.41-.73.41-1.06s-.13-.64-.38-.88c-.25-.24-.57-.36-.97-.36-.42,0-.76.13-1.02.38-.25.25-.38.6-.39,1.05l-.9-.09c.06-.67.29-1.19.7-1.54.4-.35.95-.53,1.63-.53s1.23.19,1.63.57c.4.38.6.85.6,1.42,0,.29-.06.57-.18.85-.12.28-.31.57-.58.87s-.72.73-1.35,1.26c-.53.44-.87.74-1.02.9-.15.16-.27.32-.37.48h3.51Z"/>
  <path id="ArialMT-326" data-name="ArialMT-32" d="M351.03,474.63v.85h-4.73c0-.21.03-.42.1-.61.12-.32.31-.64.58-.95.27-.31.65-.67,1.15-1.08.78-.64,1.3-1.14,1.58-1.52.27-.37.41-.73.41-1.06s-.13-.64-.38-.88c-.25-.24-.57-.36-.97-.36-.42,0-.76.13-1.02.38-.25.25-.38.6-.39,1.05l-.9-.09c.06-.67.29-1.19.7-1.54.4-.35.95-.53,1.63-.53s1.23.19,1.63.57c.4.38.6.85.6,1.42,0,.29-.06.57-.18.85-.12.28-.31.57-.58.87s-.72.73-1.35,1.26c-.53.44-.87.74-1.02.9-.15.16-.27.32-.37.48h3.51Z"/>
  <g class="st32">
    <path class="st1" d="M459.68,461.32V40.88"/>
  </g>
  <path id="m9004d2a5723" data-name="m9004d2a572" class="st9" d="M459.68,461.32v3.5"/>
  <path id="ArialMT-327" data-name="ArialMT-32" d="M453.59,474.63v.85h-4.73c0-.21.03-.42.1-.61.12-.32.31-.64.58-.95.27-.31.65-.67,1.15-1.08.78-.64,1.3-1.14,1.58-1.52.27-.37.41-.73.41-1.06s-.13-.64-.38-.88c-.25-.24-.57-.36-.97-.36-.42,0-.76.13-1.02.38-.25.25-.38.6-.39,1.05l-.9-.09c.06-.67.29-1.19.7-1.54.4-.35.95-.53,1.63-.53s1.23.19,1.63.57c.4.38.6.85.6,1.42,0,.29-.06.57-.18.85-.12.28-.31.57-.58.87s-.72.73-1.35,1.26c-.53.44-.87.74-1.02.9-.15.16-.27.32-.37.48h3.51Z"/>
  <path id="ArialMT-304" data-name="ArialMT-30" d="M454.53,471.95c0-.85.09-1.53.26-2.04.17-.52.43-.91.78-1.19.34-.28.78-.42,1.3-.42.38,0,.72.08,1.01.23.29.15.53.38.72.67.19.29.34.65.45,1.06.11.42.16.98.16,1.69,0,.84-.09,1.52-.26,2.03-.17.52-.43.91-.77,1.2-.34.28-.78.42-1.3.42-.69,0-1.23-.25-1.63-.74-.47-.6-.71-1.57-.71-2.91ZM455.44,471.95c0,1.18.14,1.96.41,2.35.28.39.61.58,1.02.58s.74-.2,1.02-.59.41-1.17.41-2.34-.14-1.96-.41-2.35c-.28-.39-.62-.58-1.03-.58s-.73.17-.97.51c-.3.44-.45,1.24-.45,2.42Z"/>
  <path id="ArialMT-328" data-name="ArialMT-32" d="M464.71,474.63v.85h-4.73c0-.21.03-.42.1-.61.12-.32.31-.64.58-.95.27-.31.65-.67,1.15-1.08.78-.64,1.3-1.14,1.58-1.52.27-.37.41-.73.41-1.06s-.13-.64-.38-.88c-.25-.24-.57-.36-.97-.36-.42,0-.76.13-1.02.38-.25.25-.38.6-.39,1.05l-.9-.09c.06-.67.29-1.19.7-1.54.4-.35.95-.53,1.63-.53s1.23.19,1.63.57c.4.38.6.85.6,1.42,0,.29-.06.57-.18.85-.12.28-.31.57-.58.87s-.72.73-1.35,1.26c-.53.44-.87.74-1.02.9-.15.16-.27.32-.37.48h3.51Z"/>
  <path id="ArialMT-33" d="M465.66,473.59l.88-.12c.1.5.27.86.52,1.08.24.22.54.33.89.33.41,0,.76-.14,1.05-.43.29-.29.43-.64.43-1.07s-.13-.74-.4-1c-.26-.26-.6-.39-1.01-.39-.17,0-.37.03-.62.1l.1-.77c.06,0,.11.01.14.01.38,0,.71-.1,1.01-.29.3-.2.45-.5.45-.9,0-.32-.11-.59-.33-.8-.22-.21-.5-.32-.84-.32s-.63.11-.85.32c-.23.21-.37.54-.44.97l-.88-.16c.11-.59.35-1.04.73-1.37.38-.32.86-.49,1.42-.49.39,0,.75.08,1.08.25.33.17.58.4.75.69.18.29.26.6.26.92,0,.31-.08.59-.25.84-.17.25-.41.46-.74.61.42.1.75.3.99.61.23.31.35.69.35,1.15,0,.63-.23,1.15-.68,1.59-.46.43-1.03.65-1.73.65-.63,0-1.15-.19-1.57-.56-.41-.38-.65-.86-.71-1.45Z"/>
  <g class="st18">
    <path class="st1" d="M578.93,461.32V40.88"/>
  </g>
  <path id="m9004d2a5724" data-name="m9004d2a572" class="st9" d="M578.93,461.32v3.5"/>
  <path id="ArialMT-329" data-name="ArialMT-32" d="M572.84,474.63v.85h-4.73c0-.21.03-.42.1-.61.12-.32.31-.64.58-.95.27-.31.65-.67,1.15-1.08.78-.64,1.3-1.14,1.58-1.52.27-.37.41-.73.41-1.06s-.13-.64-.38-.88c-.25-.24-.57-.36-.97-.36-.42,0-.76.13-1.02.38-.25.25-.38.6-.39,1.05l-.9-.09c.06-.67.29-1.19.7-1.54.4-.35.95-.53,1.63-.53s1.23.19,1.63.57c.4.38.6.85.6,1.42,0,.29-.06.57-.18.85-.12.28-.31.57-.58.87s-.72.73-1.35,1.26c-.53.44-.87.74-1.02.9-.15.16-.27.32-.37.48h3.51Z"/>
  <path id="ArialMT-305" data-name="ArialMT-30" d="M573.78,471.95c0-.85.09-1.53.26-2.04.17-.52.43-.91.78-1.19.34-.28.78-.42,1.3-.42.38,0,.72.08,1.01.23.29.15.53.38.72.67.19.29.34.65.45,1.06.11.42.16.98.16,1.69,0,.84-.09,1.52-.26,2.03-.17.52-.43.91-.77,1.2-.34.28-.78.42-1.3.42-.69,0-1.23-.25-1.63-.74-.47-.6-.71-1.57-.71-2.91ZM574.69,471.95c0,1.18.14,1.96.41,2.35.28.39.61.58,1.02.58s.74-.2,1.02-.59.41-1.17.41-2.34-.14-1.96-.41-2.35c-.28-.39-.62-.58-1.03-.58s-.73.17-.97.51c-.3.44-.45,1.24-.45,2.42Z"/>
  <path id="ArialMT-3210" data-name="ArialMT-32" d="M583.96,474.63v.85h-4.73c0-.21.03-.42.1-.61.12-.32.31-.64.58-.95.27-.31.65-.67,1.15-1.08.78-.64,1.3-1.14,1.58-1.52.27-.37.41-.73.41-1.06s-.13-.64-.38-.88c-.25-.24-.57-.36-.97-.36-.42,0-.76.13-1.02.38-.25.25-.38.6-.39,1.05l-.9-.09c.06-.67.29-1.19.7-1.54.4-.35.95-.53,1.63-.53s1.23.19,1.63.57c.4.38.6.85.6,1.42,0,.29-.06.57-.18.85-.12.28-.31.57-.58.87s-.72.73-1.35,1.26c-.53.44-.87.74-1.02.9-.15.16-.27.32-.37.48h3.51Z"/>
  <path id="ArialMT-34" d="M587.72,475.48v-1.71h-3.11v-.81l3.27-4.64h.72v4.64h.97v.81h-.97v1.71h-.88ZM587.72,472.96v-3.23l-2.24,3.23h2.24Z"/>
  <g class="st29">
    <path class="st1" d="M698.18,461.32V40.88"/>
  </g>
  <path id="m9004d2a5725" data-name="m9004d2a572" class="st9" d="M698.18,461.32v3.5"/>
  <path id="ArialMT-3211" data-name="ArialMT-32" d="M692.09,474.63v.85h-4.73c0-.21.03-.42.1-.61.12-.32.31-.64.58-.95.27-.31.65-.67,1.15-1.08.78-.64,1.3-1.14,1.58-1.52.27-.37.41-.73.41-1.06s-.13-.64-.38-.88c-.25-.24-.57-.36-.97-.36-.42,0-.76.13-1.02.38-.25.25-.38.6-.39,1.05l-.9-.09c.06-.67.29-1.19.7-1.54.4-.35.95-.53,1.63-.53s1.23.19,1.63.57c.4.38.6.85.6,1.42,0,.29-.06.57-.18.85-.12.28-.31.57-.58.87s-.72.73-1.35,1.26c-.53.44-.87.74-1.02.9-.15.16-.27.32-.37.48h3.51Z"/>
  <path id="ArialMT-306" data-name="ArialMT-30" d="M693.03,471.95c0-.85.09-1.53.26-2.04.17-.52.43-.91.78-1.19.34-.28.78-.42,1.3-.42.38,0,.72.08,1.01.23.29.15.53.38.72.67.19.29.34.65.45,1.06.11.42.16.98.16,1.69,0,.84-.09,1.52-.26,2.03-.17.52-.43.91-.77,1.2-.34.28-.78.42-1.3.42-.69,0-1.23-.25-1.63-.74-.47-.6-.71-1.57-.71-2.91ZM693.94,471.95c0,1.18.14,1.96.41,2.35.28.39.61.58,1.02.58s.74-.2,1.02-.59.41-1.17.41-2.34-.14-1.96-.41-2.35c-.28-.39-.62-.58-1.03-.58s-.73.17-.97.51c-.3.44-.45,1.24-.45,2.42Z"/>
  <path id="ArialMT-3212" data-name="ArialMT-32" d="M703.21,474.63v.85h-4.73c0-.21.03-.42.1-.61.12-.32.31-.64.58-.95.27-.31.65-.67,1.15-1.08.78-.64,1.3-1.14,1.58-1.52.27-.37.41-.73.41-1.06s-.13-.64-.38-.88c-.25-.24-.57-.36-.97-.36-.42,0-.76.13-1.02.38-.25.25-.38.6-.39,1.05l-.9-.09c.06-.67.29-1.19.7-1.54.4-.35.95-.53,1.63-.53s1.23.19,1.63.57c.4.38.6.85.6,1.42,0,.29-.06.57-.18.85-.12.28-.31.57-.58.87s-.72.73-1.35,1.26c-.53.44-.87.74-1.02.9-.15.16-.27.32-.37.48h3.51Z"/>
  <path id="ArialMT-35" d="M704.16,473.6l.92-.08c.07.45.23.79.48,1.01.25.23.55.34.9.34.42,0,.78-.16,1.07-.48.29-.32.44-.74.44-1.27s-.14-.9-.42-1.19c-.28-.29-.65-.44-1.11-.44-.28,0-.54.06-.77.19-.23.13-.41.29-.54.5l-.83-.11.69-3.68h3.56v.84h-2.86l-.38,1.92c.43-.3.88-.45,1.35-.45.63,0,1.15.22,1.58.65.43.43.65.99.65,1.67s-.19,1.21-.57,1.68c-.46.58-1.09.87-1.88.87-.65,0-1.18-.18-1.6-.55-.41-.36-.65-.85-.7-1.45Z"/>
  <g class="st13">
    <path class="st1" d="M817.43,461.32V40.88"/>
  </g>
  <path id="m9004d2a5726" data-name="m9004d2a572" class="st9" d="M817.43,461.32v3.5"/>
  <path id="ArialMT-3213" data-name="ArialMT-32" d="M811.34,474.63v.85h-4.73c0-.21.03-.42.1-.61.12-.32.31-.64.58-.95.27-.31.65-.67,1.15-1.08.78-.64,1.3-1.14,1.58-1.52.27-.37.41-.73.41-1.06s-.13-.64-.38-.88c-.25-.24-.57-.36-.97-.36-.42,0-.76.13-1.02.38-.25.25-.38.6-.39,1.05l-.9-.09c.06-.67.29-1.19.7-1.54.4-.35.95-.53,1.63-.53s1.23.19,1.63.57c.4.38.6.85.6,1.42,0,.29-.06.57-.18.85-.12.28-.31.57-.58.87s-.72.73-1.35,1.26c-.53.44-.87.74-1.02.9-.15.16-.27.32-.37.48h3.51Z"/>
  <path id="ArialMT-307" data-name="ArialMT-30" d="M812.28,471.95c0-.85.09-1.53.26-2.04.17-.52.43-.91.78-1.19.34-.28.78-.42,1.3-.42.38,0,.72.08,1.01.23.29.15.53.38.72.67.19.29.34.65.45,1.06.11.42.16.98.16,1.69,0,.84-.09,1.52-.26,2.03-.17.52-.43.91-.77,1.2-.34.28-.78.42-1.3.42-.69,0-1.23-.25-1.63-.74-.47-.6-.71-1.57-.71-2.91ZM813.18,471.95c0,1.18.14,1.96.41,2.35.28.39.61.58,1.02.58s.74-.2,1.02-.59.41-1.17.41-2.34-.14-1.96-.41-2.35c-.28-.39-.62-.58-1.03-.58s-.73.17-.97.51c-.3.44-.45,1.24-.45,2.42Z"/>
  <path id="ArialMT-3214" data-name="ArialMT-32" d="M822.46,474.63v.85h-4.73c0-.21.03-.42.1-.61.12-.32.31-.64.58-.95.27-.31.65-.67,1.15-1.08.78-.64,1.3-1.14,1.58-1.52.27-.37.41-.73.41-1.06s-.13-.64-.38-.88c-.25-.24-.57-.36-.97-.36-.42,0-.76.13-1.02.38-.25.25-.38.6-.39,1.05l-.9-.09c.06-.67.29-1.19.7-1.54.4-.35.95-.53,1.63-.53s1.23.19,1.63.57c.4.38.6.85.6,1.42,0,.29-.06.57-.18.85-.12.28-.31.57-.58.87s-.72.73-1.35,1.26c-.53.44-.87.74-1.02.9-.15.16-.27.32-.37.48h3.51Z"/>
  <path id="ArialMT-36" d="M827.96,470.07l-.87.07c-.08-.34-.19-.6-.33-.75-.24-.25-.53-.38-.88-.38-.28,0-.53.08-.74.23-.28.2-.49.5-.65.88-.16.39-.24.94-.25,1.65.21-.32.47-.56.78-.72s.63-.23.96-.23c.59,0,1.08.22,1.5.65.41.43.62.99.62,1.67,0,.45-.1.87-.29,1.25-.19.39-.46.68-.8.89-.34.21-.72.31-1.15.31-.73,0-1.33-.27-1.79-.81-.46-.54-.69-1.43-.69-2.66,0-1.38.26-2.39.77-3.02.45-.55,1.05-.82,1.8-.82.56,0,1.03.16,1.38.47.36.32.58.75.65,1.31ZM824.38,473.16c0,.3.06.59.19.87.13.28.31.49.54.63.23.14.47.22.73.22.37,0,.69-.15.96-.45.27-.3.4-.71.4-1.22s-.13-.88-.4-1.17c-.26-.29-.6-.43-1-.43s-.73.14-1.01.43c-.28.28-.41.66-.41,1.12Z"/>
  <path id="Arial-BoldMT-59" d="M450.13,490.05v-3.61l-3.15-4.97h2.03l2.02,3.4,1.98-3.4h2l-3.16,4.99v3.6h-1.73Z"/>
  <path id="Arial-BoldMT-65" d="M458.81,488.07l1.64.28c-.21.6-.54,1.06-1,1.37-.46.31-1.02.47-1.71.47-1.08,0-1.88-.35-2.4-1.06-.41-.57-.61-1.28-.61-2.14,0-1.03.27-1.84.81-2.42.54-.58,1.22-.88,2.05-.88.93,0,1.66.31,2.19.92s.79,1.55.77,2.81h-4.12c.01.49.15.87.4,1.14.25.27.57.41.95.41.26,0,.47-.07.65-.21.18-.14.31-.37.4-.68ZM458.9,486.41c-.01-.48-.13-.84-.37-1.09-.23-.25-.52-.37-.85-.37-.36,0-.66.13-.89.39-.23.26-.35.62-.34,1.07h2.46Z"/>
  <path id="Arial-BoldMT-61" d="M463.11,485.73l-1.49-.27c.17-.6.46-1.05.87-1.33.41-.29,1.02-.43,1.83-.43.73,0,1.28.09,1.64.26.36.17.61.39.76.66s.22.76.22,1.47l-.02,1.92c0,.55.03.95.08,1.21.05.26.15.54.3.83h-1.63c-.04-.11-.1-.27-.16-.49-.03-.1-.05-.16-.06-.19-.28.27-.58.48-.9.62-.32.14-.66.2-1.03.2-.64,0-1.15-.17-1.51-.52-.37-.35-.55-.79-.55-1.32,0-.35.08-.67.25-.94.17-.27.4-.49.71-.63.3-.15.74-.28,1.31-.38.77-.15,1.3-.28,1.6-.4v-.16c0-.32-.08-.54-.23-.68s-.45-.2-.88-.2c-.29,0-.52.06-.69.17s-.3.32-.4.61ZM465.31,487.07c-.21.07-.55.15-1,.25-.46.1-.75.19-.9.29-.21.15-.32.35-.32.58s.09.43.26.6c.17.17.39.25.66.25.3,0,.58-.1.85-.29.2-.15.33-.33.39-.55.04-.14.07-.41.07-.8v-.33Z"/>
  <path id="Arial-BoldMT-72" d="M470.13,490.05h-1.65v-6.22h1.53v.88c.26-.42.5-.69.7-.82.21-.13.45-.2.71-.2.37,0,.74.1,1.08.31l-.51,1.43c-.28-.18-.54-.27-.77-.27s-.43.06-.59.19c-.16.13-.29.36-.38.69-.09.33-.14,1.03-.14,2.08v1.92Z"/>
  <g class="st14">
    <path class="st1" d="M66.16,442.36h787.04"/>
  </g>
  <path id="m3cc3ee255a" class="st9" d="M66.16,442.36h-3.5"/>
  <path id="ArialMT-308" data-name="ArialMT-30" d="M54.01,442.41c0-.85.09-1.53.26-2.04.17-.52.43-.91.78-1.19.34-.28.78-.42,1.3-.42.38,0,.72.08,1.01.23.29.15.53.38.72.67.19.29.34.65.45,1.06.11.42.16.98.16,1.69,0,.84-.09,1.52-.26,2.03-.17.52-.43.91-.77,1.2-.34.28-.78.42-1.3.42-.69,0-1.23-.25-1.63-.74-.47-.6-.71-1.57-.71-2.91ZM54.92,442.41c0,1.18.14,1.96.41,2.35.28.39.61.58,1.02.58s.74-.2,1.02-.59.41-1.17.41-2.34-.14-1.96-.41-2.35c-.28-.39-.62-.58-1.03-.58s-.73.17-.97.51c-.3.44-.45,1.24-.45,2.42Z"/>
  <g class="st31">
    <path class="st1" d="M66.16,365.89h787.04"/>
  </g>
  <path id="m3cc3ee255a1" data-name="m3cc3ee255a" class="st9" d="M66.16,365.89h-3.5"/>
  <path id="ArialMT-351" data-name="ArialMT-35" d="M31.77,367.59l.92-.08c.07.45.23.79.48,1.01.25.23.55.34.9.34.42,0,.78-.16,1.07-.48.29-.32.44-.74.44-1.27s-.14-.9-.42-1.19c-.28-.29-.65-.44-1.11-.44-.28,0-.54.06-.77.19-.23.13-.41.29-.54.5l-.83-.11.69-3.68h3.56v.84h-2.86l-.38,1.92c.43-.3.88-.45,1.35-.45.63,0,1.15.22,1.58.65.43.43.65.99.65,1.67s-.19,1.21-.57,1.68c-.46.58-1.09.87-1.88.87-.65,0-1.18-.18-1.6-.55-.41-.36-.65-.85-.7-1.45Z"/>
  <path id="ArialMT-309" data-name="ArialMT-30" d="M37.33,365.94c0-.85.09-1.53.26-2.04.17-.52.43-.91.78-1.19.34-.28.78-.42,1.3-.42.38,0,.72.08,1.01.23.29.15.53.38.72.67.19.29.34.65.45,1.06.11.42.16.98.16,1.69,0,.84-.09,1.52-.26,2.03-.17.52-.43.91-.77,1.2-.34.28-.78.42-1.3.42-.69,0-1.23-.25-1.63-.74-.47-.6-.71-1.57-.71-2.91ZM38.23,365.94c0,1.18.14,1.96.41,2.35.28.39.61.58,1.02.58s.74-.2,1.02-.59.41-1.17.41-2.34-.14-1.96-.41-2.35c-.28-.39-.62-.58-1.03-.58s-.73.17-.97.51c-.3.44-.45,1.24-.45,2.42Z"/>
  <path id="ArialMT-3010" data-name="ArialMT-30" d="M42.89,365.94c0-.85.09-1.53.26-2.04.17-.52.43-.91.78-1.19.34-.28.78-.42,1.3-.42.38,0,.72.08,1.01.23.29.15.53.38.72.67.19.29.34.65.45,1.06.11.42.16.98.16,1.69,0,.84-.09,1.52-.26,2.03-.17.52-.43.91-.77,1.2-.34.28-.78.42-1.3.42-.69,0-1.23-.25-1.63-.74-.47-.6-.71-1.57-.71-2.91ZM43.8,365.94c0,1.18.14,1.96.41,2.35.28.39.61.58,1.02.58s.74-.2,1.02-.59.41-1.17.41-2.34-.14-1.96-.41-2.35c-.28-.39-.62-.58-1.03-.58s-.73.17-.97.51c-.3.44-.45,1.24-.45,2.42Z"/>
  <path id="ArialMT-3011" data-name="ArialMT-30" d="M48.45,365.94c0-.85.09-1.53.26-2.04.17-.52.43-.91.78-1.19.34-.28.78-.42,1.3-.42.38,0,.72.08,1.01.23.29.15.53.38.72.67.19.29.34.65.45,1.06.11.42.16.98.16,1.69,0,.84-.09,1.52-.26,2.03-.17.52-.43.91-.77,1.2-.34.28-.78.42-1.3.42-.69,0-1.23-.25-1.63-.74-.47-.6-.71-1.57-.71-2.91ZM49.36,365.94c0,1.18.14,1.96.41,2.35.28.39.61.58,1.02.58s.74-.2,1.02-.59.41-1.17.41-2.34-.14-1.96-.41-2.35c-.28-.39-.62-.58-1.03-.58s-.73.17-.97.51c-.3.44-.45,1.24-.45,2.42Z"/>
  <path id="ArialMT-3012" data-name="ArialMT-30" d="M54.02,365.94c0-.85.09-1.53.26-2.04.17-.52.43-.91.78-1.19.34-.28.78-.42,1.3-.42.38,0,.72.08,1.01.23.29.15.53.38.72.67.19.29.34.65.45,1.06.11.42.16.98.16,1.69,0,.84-.09,1.52-.26,2.03-.17.52-.43.91-.77,1.2-.34.28-.78.42-1.3.42-.69,0-1.23-.25-1.63-.74-.47-.6-.71-1.57-.71-2.91ZM54.92,365.94c0,1.18.14,1.96.41,2.35.28.39.61.58,1.02.58s.74-.2,1.02-.59.41-1.17.41-2.34-.14-1.96-.41-2.35c-.28-.39-.62-.58-1.03-.58s-.73.17-.97.51c-.3.44-.45,1.24-.45,2.42Z"/>
  <g class="st22">
    <path class="st1" d="M66.16,289.41h787.04"/>
  </g>
  <path id="m3cc3ee255a2" data-name="m3cc3ee255a" class="st9" d="M66.16,289.41h-3.5"/>
  <path id="ArialMT-311" data-name="ArialMT-31" d="M29.52,292.99h-.88v-5.6c-.21.2-.49.4-.83.6s-.65.35-.93.45v-.85c.49-.23.92-.51,1.29-.84.37-.33.63-.65.78-.96h.57v7.19Z"/>
  <path id="ArialMT-3013" data-name="ArialMT-30" d="M31.77,289.46c0-.85.09-1.53.26-2.04.17-.52.43-.91.78-1.19.34-.28.78-.42,1.3-.42.38,0,.72.08,1.01.23.29.15.53.38.72.67.19.29.34.65.45,1.06.11.42.16.98.16,1.69,0,.84-.09,1.52-.26,2.03-.17.52-.43.91-.77,1.2-.34.28-.78.42-1.3.42-.69,0-1.23-.25-1.63-.74-.47-.6-.71-1.57-.71-2.91ZM32.67,289.46c0,1.18.14,1.96.41,2.35.28.39.61.58,1.02.58s.74-.2,1.02-.59.41-1.17.41-2.34-.14-1.96-.41-2.35c-.28-.39-.62-.58-1.03-.58s-.73.17-.97.51c-.3.44-.45,1.24-.45,2.42Z"/>
  <path id="ArialMT-3014" data-name="ArialMT-30" d="M37.33,289.46c0-.85.09-1.53.26-2.04.17-.52.43-.91.78-1.19.34-.28.78-.42,1.3-.42.38,0,.72.08,1.01.23.29.15.53.38.72.67.19.29.34.65.45,1.06.11.42.16.98.16,1.69,0,.84-.09,1.52-.26,2.03-.17.52-.43.91-.77,1.2-.34.28-.78.42-1.3.42-.69,0-1.23-.25-1.63-.74-.47-.6-.71-1.57-.71-2.91ZM38.23,289.46c0,1.18.14,1.96.41,2.35.28.39.61.58,1.02.58s.74-.2,1.02-.59.41-1.17.41-2.34-.14-1.96-.41-2.35c-.28-.39-.62-.58-1.03-.58s-.73.17-.97.51c-.3.44-.45,1.24-.45,2.42Z"/>
  <path id="ArialMT-3015" data-name="ArialMT-30" d="M42.89,289.46c0-.85.09-1.53.26-2.04.17-.52.43-.91.78-1.19.34-.28.78-.42,1.3-.42.38,0,.72.08,1.01.23.29.15.53.38.72.67.19.29.34.65.45,1.06.11.42.16.98.16,1.69,0,.84-.09,1.52-.26,2.03-.17.52-.43.91-.77,1.2-.34.28-.78.42-1.3.42-.69,0-1.23-.25-1.63-.74-.47-.6-.71-1.57-.71-2.91ZM43.8,289.46c0,1.18.14,1.96.41,2.35.28.39.61.58,1.02.58s.74-.2,1.02-.59.41-1.17.41-2.34-.14-1.96-.41-2.35c-.28-.39-.62-.58-1.03-.58s-.73.17-.97.51c-.3.44-.45,1.24-.45,2.42Z"/>
  <path id="ArialMT-3016" data-name="ArialMT-30" d="M48.45,289.46c0-.85.09-1.53.26-2.04.17-.52.43-.91.78-1.19.34-.28.78-.42,1.3-.42.38,0,.72.08,1.01.23.29.15.53.38.72.67.19.29.34.65.45,1.06.11.42.16.98.16,1.69,0,.84-.09,1.52-.26,2.03-.17.52-.43.91-.77,1.2-.34.28-.78.42-1.3.42-.69,0-1.23-.25-1.63-.74-.47-.6-.71-1.57-.71-2.91ZM49.36,289.46c0,1.18.14,1.96.41,2.35.28.39.61.58,1.02.58s.74-.2,1.02-.59.41-1.17.41-2.34-.14-1.96-.41-2.35c-.28-.39-.62-.58-1.03-.58s-.73.17-.97.51c-.3.44-.45,1.24-.45,2.42Z"/>
  <path id="ArialMT-3017" data-name="ArialMT-30" d="M54.02,289.46c0-.85.09-1.53.26-2.04.17-.52.43-.91.78-1.19.34-.28.78-.42,1.3-.42.38,0,.72.08,1.01.23.29.15.53.38.72.67.19.29.34.65.45,1.06.11.42.16.98.16,1.69,0,.84-.09,1.52-.26,2.03-.17.52-.43.91-.77,1.2-.34.28-.78.42-1.3.42-.69,0-1.23-.25-1.63-.74-.47-.6-.71-1.57-.71-2.91ZM54.92,289.46c0,1.18.14,1.96.41,2.35.28.39.61.58,1.02.58s.74-.2,1.02-.59.41-1.17.41-2.34-.14-1.96-.41-2.35c-.28-.39-.62-.58-1.03-.58s-.73.17-.97.51c-.3.44-.45,1.24-.45,2.42Z"/>
  <g class="st23">
    <path class="st1" d="M66.16,212.94h787.04"/>
  </g>
  <path id="m3cc3ee255a3" data-name="m3cc3ee255a" class="st9" d="M66.16,212.94h-3.5"/>
  <path id="ArialMT-312" data-name="ArialMT-31" d="M29.52,216.52h-.88v-5.6c-.21.2-.49.4-.83.6s-.65.35-.93.45v-.85c.49-.23.92-.51,1.29-.84.37-.33.63-.65.78-.96h.57v7.19Z"/>
  <path id="ArialMT-352" data-name="ArialMT-35" d="M31.77,214.64l.92-.08c.07.45.23.79.48,1.01.25.23.55.34.9.34.42,0,.78-.16,1.07-.48.29-.32.44-.74.44-1.27s-.14-.9-.42-1.19c-.28-.29-.65-.44-1.11-.44-.28,0-.54.06-.77.19-.23.13-.41.29-.54.5l-.83-.11.69-3.68h3.56v.84h-2.86l-.38,1.92c.43-.3.88-.45,1.35-.45.63,0,1.15.22,1.58.65.43.43.65.99.65,1.67s-.19,1.21-.57,1.68c-.46.58-1.09.87-1.88.87-.65,0-1.18-.18-1.6-.55-.41-.36-.65-.85-.7-1.45Z"/>
  <path id="ArialMT-3018" data-name="ArialMT-30" d="M37.33,212.99c0-.85.09-1.53.26-2.04.17-.52.43-.91.78-1.19.34-.28.78-.42,1.3-.42.38,0,.72.08,1.01.23.29.15.53.38.72.67.19.29.34.65.45,1.06.11.42.16.98.16,1.69,0,.84-.09,1.52-.26,2.03-.17.52-.43.91-.77,1.2-.34.28-.78.42-1.3.42-.69,0-1.23-.25-1.63-.74-.47-.6-.71-1.57-.71-2.91ZM38.23,212.99c0,1.18.14,1.96.41,2.35.28.39.61.58,1.02.58s.74-.2,1.02-.59.41-1.17.41-2.34-.14-1.96-.41-2.35c-.28-.39-.62-.58-1.03-.58s-.73.17-.97.51c-.3.44-.45,1.24-.45,2.42Z"/>
  <path id="ArialMT-3019" data-name="ArialMT-30" d="M42.89,212.99c0-.85.09-1.53.26-2.04.17-.52.43-.91.78-1.19.34-.28.78-.42,1.3-.42.38,0,.72.08,1.01.23.29.15.53.38.72.67.19.29.34.65.45,1.06.11.42.16.98.16,1.69,0,.84-.09,1.52-.26,2.03-.17.52-.43.91-.77,1.2-.34.28-.78.42-1.3.42-.69,0-1.23-.25-1.63-.74-.47-.6-.71-1.57-.71-2.91ZM43.8,212.99c0,1.18.14,1.96.41,2.35.28.39.61.58,1.02.58s.74-.2,1.02-.59.41-1.17.41-2.34-.14-1.96-.41-2.35c-.28-.39-.62-.58-1.03-.58s-.73.17-.97.51c-.3.44-.45,1.24-.45,2.42Z"/>
  <path id="ArialMT-3020" data-name="ArialMT-30" d="M48.45,212.99c0-.85.09-1.53.26-2.04.17-.52.43-.91.78-1.19.34-.28.78-.42,1.3-.42.38,0,.72.08,1.01.23.29.15.53.38.72.67.19.29.34.65.45,1.06.11.42.16.98.16,1.69,0,.84-.09,1.52-.26,2.03-.17.52-.43.91-.77,1.2-.34.28-.78.42-1.3.42-.69,0-1.23-.25-1.63-.74-.47-.6-.71-1.57-.71-2.91ZM49.36,212.99c0,1.18.14,1.96.41,2.35.28.39.61.58,1.02.58s.74-.2,1.02-.59.41-1.17.41-2.34-.14-1.96-.41-2.35c-.28-.39-.62-.58-1.03-.58s-.73.17-.97.51c-.3.44-.45,1.24-.45,2.42Z"/>
  <path id="ArialMT-3021" data-name="ArialMT-30" d="M54.02,212.99c0-.85.09-1.53.26-2.04.17-.52.43-.91.78-1.19.34-.28.78-.42,1.3-.42.38,0,.72.08,1.01.23.29.15.53.38.72.67.19.29.34.65.45,1.06.11.42.16.98.16,1.69,0,.84-.09,1.52-.26,2.03-.17.52-.43.91-.77,1.2-.34.28-.78.42-1.3.42-.69,0-1.23-.25-1.63-.74-.47-.6-.71-1.57-.71-2.91ZM54.92,212.99c0,1.18.14,1.96.41,2.35.28.39.61.58,1.02.58s.74-.2,1.02-.59.41-1.17.41-2.34-.14-1.96-.41-2.35c-.28-.39-.62-.58-1.03-.58s-.73.17-.97.51c-.3.44-.45,1.24-.45,2.42Z"/>
  <g class="st25">
    <path class="st1" d="M66.16,136.47h787.04"/>
  </g>
  <path id="m3cc3ee255a4" data-name="m3cc3ee255a" class="st9" d="M66.16,136.47h-3.5"/>
  <path id="ArialMT-3215" data-name="ArialMT-32" d="M30.83,139.2v.85h-4.73c0-.21.03-.42.1-.61.12-.32.31-.64.58-.95.27-.31.65-.67,1.15-1.08.78-.64,1.3-1.14,1.58-1.52.27-.37.41-.73.41-1.06s-.13-.64-.38-.88c-.25-.24-.57-.36-.97-.36-.42,0-.76.13-1.02.38-.25.25-.38.6-.39,1.05l-.9-.09c.06-.67.29-1.19.7-1.54.4-.35.95-.53,1.63-.53s1.23.19,1.63.57c.4.38.6.85.6,1.42,0,.29-.06.57-.18.85-.12.28-.31.57-.58.87s-.72.73-1.35,1.26c-.53.44-.87.74-1.02.9-.15.16-.27.32-.37.48h3.51Z"/>
  <path id="ArialMT-3022" data-name="ArialMT-30" d="M31.77,136.51c0-.85.09-1.53.26-2.04.17-.52.43-.91.78-1.19.34-.28.78-.42,1.3-.42.38,0,.72.08,1.01.23.29.15.53.38.72.67.19.29.34.65.45,1.06.11.42.16.98.16,1.69,0,.84-.09,1.52-.26,2.03-.17.52-.43.91-.77,1.2-.34.28-.78.42-1.3.42-.69,0-1.23-.25-1.63-.74-.47-.6-.71-1.57-.71-2.91ZM32.67,136.51c0,1.18.14,1.96.41,2.35.28.39.61.58,1.02.58s.74-.2,1.02-.59.41-1.17.41-2.34-.14-1.96-.41-2.35c-.28-.39-.62-.58-1.03-.58s-.73.17-.97.51c-.3.44-.45,1.24-.45,2.42Z"/>
  <path id="ArialMT-3023" data-name="ArialMT-30" d="M37.33,136.51c0-.85.09-1.53.26-2.04.17-.52.43-.91.78-1.19.34-.28.78-.42,1.3-.42.38,0,.72.08,1.01.23.29.15.53.38.72.67.19.29.34.65.45,1.06.11.42.16.98.16,1.69,0,.84-.09,1.52-.26,2.03-.17.52-.43.91-.77,1.2-.34.28-.78.42-1.3.42-.69,0-1.23-.25-1.63-.74-.47-.6-.71-1.57-.71-2.91ZM38.23,136.51c0,1.18.14,1.96.41,2.35.28.39.61.58,1.02.58s.74-.2,1.02-.59.41-1.17.41-2.34-.14-1.96-.41-2.35c-.28-.39-.62-.58-1.03-.58s-.73.17-.97.51c-.3.44-.45,1.24-.45,2.42Z"/>
  <path id="ArialMT-3024" data-name="ArialMT-30" d="M42.89,136.51c0-.85.09-1.53.26-2.04.17-.52.43-.91.78-1.19.34-.28.78-.42,1.3-.42.38,0,.72.08,1.01.23.29.15.53.38.72.67.19.29.34.65.45,1.06.11.42.16.98.16,1.69,0,.84-.09,1.52-.26,2.03-.17.52-.43.91-.77,1.2-.34.28-.78.42-1.3.42-.69,0-1.23-.25-1.63-.74-.47-.6-.71-1.57-.71-2.91ZM43.8,136.51c0,1.18.14,1.96.41,2.35.28.39.61.58,1.02.58s.74-.2,1.02-.59.41-1.17.41-2.34-.14-1.96-.41-2.35c-.28-.39-.62-.58-1.03-.58s-.73.17-.97.51c-.3.44-.45,1.24-.45,2.42Z"/>
  <path id="ArialMT-3025" data-name="ArialMT-30" d="M48.45,136.51c0-.85.09-1.53.26-2.04.17-.52.43-.91.78-1.19.34-.28.78-.42,1.3-.42.38,0,.72.08,1.01.23.29.15.53.38.72.67.19.29.34.65.45,1.06.11.42.16.98.16,1.69,0,.84-.09,1.52-.26,2.03-.17.52-.43.91-.77,1.2-.34.28-.78.42-1.3.42-.69,0-1.23-.25-1.63-.74-.47-.6-.71-1.57-.71-2.91ZM49.36,136.51c0,1.18.14,1.96.41,2.35.28.39.61.58,1.02.58s.74-.2,1.02-.59.41-1.17.41-2.34-.14-1.96-.41-2.35c-.28-.39-.62-.58-1.03-.58s-.73.17-.97.51c-.3.44-.45,1.24-.45,2.42Z"/>
  <path id="ArialMT-3026" data-name="ArialMT-30" d="M54.02,136.51c0-.85.09-1.53.26-2.04.17-.52.43-.91.78-1.19.34-.28.78-.42,1.3-.42.38,0,.72.08,1.01.23.29.15.53.38.72.67.19.29.34.65.45,1.06.11.42.16.98.16,1.69,0,.84-.09,1.52-.26,2.03-.17.52-.43.91-.77,1.2-.34.28-.78.42-1.3.42-.69,0-1.23-.25-1.63-.74-.47-.6-.71-1.57-.71-2.91ZM54.92,136.51c0,1.18.14,1.96.41,2.35.28.39.61.58,1.02.58s.74-.2,1.02-.59.41-1.17.41-2.34-.14-1.96-.41-2.35c-.28-.39-.62-.58-1.03-.58s-.73.17-.97.51c-.3.44-.45,1.24-.45,2.42Z"/>
  <g class="st33">
    <path class="st1" d="M66.16,59.99h787.04"/>
  </g>
  <path id="m3cc3ee255a5" data-name="m3cc3ee255a" class="st9" d="M66.16,59.99h-3.5"/>
  <path id="ArialMT-3216" data-name="ArialMT-32" d="M30.83,62.72v.85h-4.73c0-.21.03-.42.1-.61.12-.32.31-.64.58-.95.27-.31.65-.67,1.15-1.08.78-.64,1.3-1.14,1.58-1.52.27-.37.41-.73.41-1.06s-.13-.64-.38-.88c-.25-.24-.57-.36-.97-.36-.42,0-.76.13-1.02.38-.25.25-.38.6-.39,1.05l-.9-.09c.06-.67.29-1.19.7-1.54.4-.35.95-.53,1.63-.53s1.23.19,1.63.57c.4.38.6.85.6,1.42,0,.29-.06.57-.18.85-.12.28-.31.57-.58.87s-.72.73-1.35,1.26c-.53.44-.87.74-1.02.9-.15.16-.27.32-.37.48h3.51Z"/>
  <path id="ArialMT-353" data-name="ArialMT-35" d="M31.77,61.69l.92-.08c.07.45.23.79.48,1.01.25.23.55.34.9.34.42,0,.78-.16,1.07-.48.29-.32.44-.74.44-1.27s-.14-.9-.42-1.19c-.28-.29-.65-.44-1.11-.44-.28,0-.54.06-.77.19-.23.13-.41.29-.54.5l-.83-.11.69-3.68h3.56v.84h-2.86l-.38,1.92c.43-.3.88-.45,1.35-.45.63,0,1.15.22,1.58.65.43.43.65.99.65,1.67s-.19,1.21-.57,1.68c-.46.58-1.09.87-1.88.87-.65,0-1.18-.18-1.6-.55-.41-.36-.65-.85-.7-1.45Z"/>
  <path id="ArialMT-3027" data-name="ArialMT-30" d="M37.33,60.04c0-.85.09-1.53.26-2.04.17-.52.43-.91.78-1.19.34-.28.78-.42,1.3-.42.38,0,.72.08,1.01.23.29.15.53.38.72.67.19.29.34.65.45,1.06.11.42.16.98.16,1.69,0,.84-.09,1.52-.26,2.03-.17.52-.43.91-.77,1.2-.34.28-.78.42-1.3.42-.69,0-1.23-.25-1.63-.74-.47-.6-.71-1.57-.71-2.91ZM38.23,60.04c0,1.18.14,1.96.41,2.35.28.39.61.58,1.02.58s.74-.2,1.02-.59.41-1.17.41-2.34-.14-1.96-.41-2.35c-.28-.39-.62-.58-1.03-.58s-.73.17-.97.51c-.3.44-.45,1.24-.45,2.42Z"/>
  <path id="ArialMT-3028" data-name="ArialMT-30" d="M42.89,60.04c0-.85.09-1.53.26-2.04.17-.52.43-.91.78-1.19.34-.28.78-.42,1.3-.42.38,0,.72.08,1.01.23.29.15.53.38.72.67.19.29.34.65.45,1.06.11.42.16.98.16,1.69,0,.84-.09,1.52-.26,2.03-.17.52-.43.91-.77,1.2-.34.28-.78.42-1.3.42-.69,0-1.23-.25-1.63-.74-.47-.6-.71-1.57-.71-2.91ZM43.8,60.04c0,1.18.14,1.96.41,2.35.28.39.61.58,1.02.58s.74-.2,1.02-.59.41-1.17.41-2.34-.14-1.96-.41-2.35c-.28-.39-.62-.58-1.03-.58s-.73.17-.97.51c-.3.44-.45,1.24-.45,2.42Z"/>
  <path id="ArialMT-3029" data-name="ArialMT-30" d="M48.45,60.04c0-.85.09-1.53.26-2.04.17-.52.43-.91.78-1.19.34-.28.78-.42,1.3-.42.38,0,.72.08,1.01.23.29.15.53.38.72.67.19.29.34.65.45,1.06.11.42.16.98.16,1.69,0,.84-.09,1.52-.26,2.03-.17.52-.43.91-.77,1.2-.34.28-.78.42-1.3.42-.69,0-1.23-.25-1.63-.74-.47-.6-.71-1.57-.71-2.91ZM49.36,60.04c0,1.18.14,1.96.41,2.35.28.39.61.58,1.02.58s.74-.2,1.02-.59.41-1.17.41-2.34-.14-1.96-.41-2.35c-.28-.39-.62-.58-1.03-.58s-.73.17-.97.51c-.3.44-.45,1.24-.45,2.42Z"/>
  <path id="ArialMT-3030" data-name="ArialMT-30" d="M54.02,60.04c0-.85.09-1.53.26-2.04.17-.52.43-.91.78-1.19.34-.28.78-.42,1.3-.42.38,0,.72.08,1.01.23.29.15.53.38.72.67.19.29.34.65.45,1.06.11.42.16.98.16,1.69,0,.84-.09,1.52-.26,2.03-.17.52-.43.91-.77,1.2-.34.28-.78.42-1.3.42-.69,0-1.23-.25-1.63-.74-.47-.6-.71-1.57-.71-2.91ZM54.92,60.04c0,1.18.14,1.96.41,2.35.28.39.61.58,1.02.58s.74-.2,1.02-.59.41-1.17.41-2.34-.14-1.96-.41-2.35c-.28-.39-.62-.58-1.03-.58s-.73.17-.97.51c-.3.44-.45,1.24-.45,2.42Z"/>
  <path id="Arial-BoldMT-41" d="M19.27,345.04v1.89l-1.95.75v3.43l1.95.71v1.84l-8.59-3.34v-1.84l8.59-3.44ZM15.87,348.24l-3.19,1.18,3.19,1.16v-2.34Z"/>
  <path id="Arial-BoldMT-6e" d="M19.27,338.48v1.65h-3.18c-.67,0-1.11.04-1.3.1s-.35.18-.46.34c-.11.16-.16.35-.16.57,0,.28.08.54.23.77s.36.38.62.47c.26.08.73.13,1.43.13h2.82v1.65h-6.22v-1.53h.91c-.7-.54-1.06-1.23-1.06-2.05,0-.36.07-.69.2-.99.13-.3.3-.53.5-.68.2-.16.43-.26.69-.32.26-.06.63-.09,1.11-.09h3.87Z"/>
  <path id="Arial-BoldMT-6e1" data-name="Arial-BoldMT-6e" d="M19.27,331.15v1.65h-3.18c-.67,0-1.11.04-1.3.1s-.35.18-.46.34c-.11.16-.16.35-.16.57,0,.28.08.54.23.77s.36.38.62.47c.26.08.73.13,1.43.13h2.82v1.65h-6.22v-1.53h.91c-.7-.54-1.06-1.23-1.06-2.05,0-.36.07-.69.2-.99.13-.3.3-.53.5-.68.2-.16.43-.26.69-.32.26-.06.63-.09,1.11-.09h3.87Z"/>
  <path id="Arial-BoldMT-75" d="M19.27,325.38h-.93c.33.23.59.52.79.89.19.37.29.76.29,1.17s-.09.79-.28,1.13c-.18.33-.44.57-.77.72-.33.15-.79.22-1.38.22h-3.94v-1.65h2.86c.87,0,1.41-.03,1.61-.09.2-.06.35-.17.47-.33s.17-.36.17-.61c0-.28-.08-.53-.23-.76-.16-.22-.35-.37-.57-.46-.23-.08-.79-.12-1.68-.12h-2.62v-1.65h6.22v1.53Z"/>
  <path id="Arial-BoldMT-611" data-name="Arial-BoldMT-61" d="M14.94,320.91l-.27,1.49c-.6-.17-1.05-.46-1.33-.87-.29-.41-.43-1.02-.43-1.83,0-.73.09-1.28.26-1.64.17-.36.39-.61.66-.76s.76-.22,1.47-.22l1.92.02c.55,0,.95-.03,1.21-.08.26-.05.54-.15.83-.3v1.63c-.11.04-.27.1-.49.16-.1.03-.16.05-.19.06.27.28.48.58.62.9.14.32.2.66.2,1.03,0,.64-.17,1.15-.52,1.51-.35.37-.79.55-1.32.55-.35,0-.67-.08-.94-.25-.27-.17-.49-.4-.63-.71-.15-.3-.28-.74-.38-1.31-.15-.77-.28-1.3-.4-1.6h-.16c-.32,0-.54.08-.68.23s-.2.45-.2.88c0,.29.06.52.17.69s.32.3.61.4ZM16.28,318.71c.07.21.15.55.25,1,.1.46.19.75.29.9.15.21.35.32.58.32s.43-.09.6-.26c.17-.17.25-.39.25-.66,0-.3-.1-.58-.29-.85-.15-.2-.33-.33-.55-.39-.14-.04-.41-.07-.8-.07h-.33Z"/>
  <path id="Arial-BoldMT-6c" d="M19.27,315.47h-8.59v-1.65h8.59v1.65Z"/>
  <path id="Arial-BoldMT-20" d="M19.27,313"/>
  <path id="Arial-BoldMT-50" d="M19.27,308.79h-8.59v-2.78c0-1.06.04-1.74.13-2.06.13-.49.41-.9.84-1.24.43-.33.99-.5,1.67-.5.53,0,.97.1,1.33.29.36.19.64.43.85.73.21.29.34.59.41.9.08.41.12,1.01.12,1.8v1.13h3.24v1.73ZM12.13,307.06h2.44v-.95c0-.68-.04-1.14-.13-1.37-.09-.23-.23-.41-.42-.54-.19-.13-.41-.2-.67-.2-.31,0-.57.09-.77.28-.2.18-.33.42-.38.7-.04.21-.06.62-.06,1.25v.84Z"/>
  <path id="Arial-BoldMT-721" data-name="Arial-BoldMT-72" d="M19.27,299.22v1.65h-6.22v-1.53h.88c-.42-.26-.69-.5-.82-.7-.13-.21-.2-.45-.2-.71,0-.37.1-.74.31-1.08l1.43.51c-.18.28-.27.54-.27.77s.06.43.19.59c.13.16.36.29.69.38.33.09,1.03.14,2.08.14h1.92Z"/>
  <path id="Arial-BoldMT-6f" d="M16.07,296.51c-.55,0-1.08-.13-1.59-.4-.51-.27-.9-.65-1.17-1.15-.27-.49-.4-1.05-.4-1.66,0-.94.31-1.71.92-2.31s1.38-.9,2.32-.9,1.72.3,2.34.91c.62.61.93,1.37.93,2.29,0,.57-.13,1.11-.39,1.63-.26.52-.64.91-1.13,1.18-.5.27-1.1.4-1.82.4ZM16.16,294.82c.62,0,1.09-.15,1.42-.44.33-.29.49-.66.49-1.09s-.16-.79-.49-1.08c-.33-.29-.81-.44-1.43-.44s-1.08.15-1.4.44c-.33.29-.49.65-.49,1.08s.16.79.49,1.09c.33.29.8.44,1.42.44Z"/>
  <path id="Arial-BoldMT-63" d="M14.88,283.37l.29,1.62c-.32.05-.57.18-.73.37s-.25.44-.25.75c0,.41.14.74.43.98.28.24.76.37,1.42.37.74,0,1.26-.12,1.57-.37.3-.25.46-.58.46-1,0-.31-.09-.57-.27-.77-.18-.2-.48-.34-.92-.42l.28-1.62c.74.17,1.3.49,1.68.97.38.48.57,1.12.57,1.92,0,.91-.29,1.64-.86,2.18-.58.54-1.37.81-2.38.81s-1.83-.27-2.4-.81c-.57-.54-.86-1.28-.86-2.2,0-.76.16-1.36.49-1.81s.82-.77,1.49-.96Z"/>
  <path id="Arial-BoldMT-751" data-name="Arial-BoldMT-75" d="M19.27,278.03h-.93c.33.23.59.52.79.89.19.37.29.76.29,1.17s-.09.79-.28,1.13c-.18.33-.44.57-.77.72-.33.15-.79.22-1.38.22h-3.94v-1.65h2.86c.87,0,1.41-.03,1.61-.09.2-.06.35-.17.47-.33s.17-.36.17-.61c0-.28-.08-.53-.23-.76-.16-.22-.35-.37-.57-.46-.23-.08-.79-.12-1.68-.12h-2.62v-1.65h6.22v1.53Z"/>
  <path id="Arial-BoldMT-722" data-name="Arial-BoldMT-72" d="M19.27,273.22v1.65h-6.22v-1.53h.88c-.42-.26-.69-.5-.82-.7-.13-.21-.2-.45-.2-.71,0-.37.1-.74.31-1.08l1.43.51c-.18.28-.27.54-.27.77s.06.43.19.59c.13.16.36.29.69.38.33.09,1.03.14,2.08.14h1.92Z"/>
  <path id="Arial-BoldMT-651" data-name="Arial-BoldMT-65" d="M17.29,266.52l.28-1.64c.6.21,1.06.54,1.37,1,.31.46.47,1.02.47,1.71,0,1.08-.35,1.88-1.06,2.4-.57.41-1.28.61-2.14.61-1.03,0-1.84-.27-2.42-.81-.58-.54-.88-1.22-.88-2.05,0-.93.31-1.66.92-2.19s1.55-.79,2.81-.77v4.12c.49-.01.87-.15,1.14-.4.27-.25.41-.57.41-.95,0-.26-.07-.47-.21-.65-.14-.18-.37-.31-.68-.4ZM15.62,266.43c-.48.01-.84.13-1.09.37-.25.23-.37.52-.37.85,0,.36.13.66.39.89.26.23.62.35,1.07.34v-2.46Z"/>
  <path id="Arial-BoldMT-6d" d="M13.04,263.58v-1.52h.85c-.66-.54-.99-1.19-.99-1.94,0-.4.08-.74.25-1.03.16-.29.41-.53.74-.72-.33-.27-.58-.57-.74-.88-.16-.32-.25-.65-.25-1.01,0-.46.09-.84.28-1.16.19-.32.46-.55.82-.71.26-.11.69-.17,1.29-.17h3.98v1.65h-3.56c-.62,0-1.02.06-1.19.17-.23.15-.35.39-.35.7,0,.23.07.45.21.65.14.2.35.35.62.44s.7.13,1.29.13h2.99v1.65h-3.41c-.61,0-1,.03-1.17.09-.18.06-.31.15-.39.27-.09.12-.13.29-.13.5,0,.25.07.48.21.69.14.2.33.35.59.44.26.09.69.13,1.28.13h3.02v1.65h-6.22Z"/>
  <path id="Arial-BoldMT-652" data-name="Arial-BoldMT-65" d="M17.29,249.18l.28-1.64c.6.21,1.06.54,1.37,1,.31.46.47,1.02.47,1.71,0,1.08-.35,1.88-1.06,2.4-.57.41-1.28.61-2.14.61-1.03,0-1.84-.27-2.42-.81-.58-.54-.88-1.22-.88-2.05,0-.93.31-1.66.92-2.19s1.55-.79,2.81-.77v4.12c.49-.01.87-.15,1.14-.4.27-.25.41-.57.41-.95,0-.26-.07-.47-.21-.65-.14-.18-.37-.31-.68-.4ZM15.62,249.09c-.48.01-.84.13-1.09.37-.25.23-.37.52-.37.85,0,.36.13.66.39.89.26.23.62.35,1.07.34v-2.46Z"/>
  <path id="Arial-BoldMT-6e2" data-name="Arial-BoldMT-6e" d="M19.27,240.45v1.65h-3.18c-.67,0-1.11.04-1.3.1s-.35.18-.46.34c-.11.16-.16.35-.16.57,0,.28.08.54.23.77s.36.38.62.47c.26.08.73.13,1.43.13h2.82v1.65h-6.22v-1.53h.91c-.7-.54-1.06-1.23-1.06-2.05,0-.36.07-.69.2-.99.13-.3.3-.53.5-.68.2-.16.43-.26.69-.32.26-.06.63-.09,1.11-.09h3.87Z"/>
  <path id="Arial-BoldMT-74" d="M13.04,235.93h1.31v1.12h2.51c.51,0,.8-.01.89-.03.08-.02.15-.07.21-.15s.08-.17.08-.28c0-.15-.05-.37-.16-.66l1.28-.14c.16.38.25.82.25,1.3,0,.3-.05.56-.15.8-.1.24-.23.41-.39.52-.16.11-.37.19-.64.23-.19.03-.58.05-1.16.05h-2.71v.76h-1.31v-.76h-1.24l-.96-1.65h2.2v-1.12Z"/>
  <path id="Arial-BoldMT-201" data-name="Arial-BoldMT-20" d="M19.27,235.64"/>
  <path id="Arial-BoldMT-56" d="M19.27,229.25l-8.59,3.07v-1.88l6.36-2.17-6.36-2.1v-1.84l8.59,3.08v1.85Z"/>
  <path id="Arial-BoldMT-6f1" data-name="Arial-BoldMT-6f" d="M16.07,224.71c-.55,0-1.08-.13-1.59-.4-.51-.27-.9-.65-1.17-1.15-.27-.49-.4-1.05-.4-1.66,0-.94.31-1.71.92-2.31s1.38-.9,2.32-.9,1.72.3,2.34.91c.62.61.93,1.37.93,2.29,0,.57-.13,1.11-.39,1.63-.26.52-.64.91-1.13,1.18-.5.27-1.1.4-1.82.4ZM16.16,223.02c.62,0,1.09-.15,1.42-.44.33-.29.49-.66.49-1.09s-.16-.79-.49-1.08c-.33-.29-.81-.44-1.43-.44s-1.08.15-1.4.44c-.33.29-.49.65-.49,1.08s.16.79.49,1.09c.33.29.8.44,1.42.44Z"/>
  <path id="Arial-BoldMT-6c1" data-name="Arial-BoldMT-6c" d="M19.27,217h-8.59v-1.65h8.59v1.65Z"/>
  <path id="Arial-BoldMT-752" data-name="Arial-BoldMT-75" d="M19.27,209.57h-.93c.33.23.59.52.79.89.19.37.29.76.29,1.17s-.09.79-.28,1.13c-.18.33-.44.57-.77.72-.33.15-.79.22-1.38.22h-3.94v-1.65h2.86c.87,0,1.41-.03,1.61-.09.2-.06.35-.17.47-.33s.17-.36.17-.61c0-.28-.08-.53-.23-.76-.16-.22-.35-.37-.57-.46-.23-.08-.79-.12-1.68-.12h-2.62v-1.65h6.22v1.53Z"/>
  <path id="Arial-BoldMT-6d1" data-name="Arial-BoldMT-6d" d="M13.04,206.46v-1.52h.85c-.66-.54-.99-1.19-.99-1.94,0-.4.08-.74.25-1.03.16-.29.41-.53.74-.72-.33-.27-.58-.57-.74-.88-.16-.32-.25-.65-.25-1.01,0-.46.09-.84.28-1.16.19-.32.46-.55.82-.71.26-.11.69-.17,1.29-.17h3.98v1.65h-3.56c-.62,0-1.02.06-1.19.17-.23.15-.35.39-.35.7,0,.23.07.45.21.65.14.2.35.35.62.44s.7.13,1.29.13h2.99v1.65h-3.41c-.61,0-1,.03-1.17.09-.18.06-.31.15-.39.27-.09.12-.13.29-.13.5,0,.25.07.48.21.69.14.2.33.35.59.44.26.09.69.13,1.28.13h3.02v1.65h-6.22Z"/>
  <path id="Arial-BoldMT-653" data-name="Arial-BoldMT-65" d="M17.29,192.06l.28-1.64c.6.21,1.06.54,1.37,1,.31.46.47,1.02.47,1.71,0,1.08-.35,1.88-1.06,2.4-.57.41-1.28.61-2.14.61-1.03,0-1.84-.27-2.42-.81-.58-.54-.88-1.22-.88-2.05,0-.93.31-1.66.92-2.19s1.55-.79,2.81-.77v4.12c.49-.01.87-.15,1.14-.4.27-.25.41-.57.41-.95,0-.26-.07-.47-.21-.65-.14-.18-.37-.31-.68-.4ZM15.62,191.97c-.48.01-.84.13-1.09.37-.25.23-.37.52-.37.85,0,.36.13.66.39.89.26.23.62.35,1.07.34v-2.46Z"/>
  <path id="Arial-BoldMT-202" data-name="Arial-BoldMT-20" d="M19.27,189.85"/>
  <path id="Arial-BoldMT-28" d="M21.79,182.93v1.13c-.9.6-1.84,1.05-2.81,1.37-.97.31-1.91.47-2.82.47-1.13,0-2.2-.19-3.21-.58-.88-.34-1.68-.76-2.42-1.28v-1.12c1.18.54,2.19.9,3.02,1.1.83.2,1.71.3,2.64.3.64,0,1.3-.06,1.97-.18.67-.12,1.31-.28,1.91-.49.4-.14.97-.38,1.72-.72Z"/>
  <path id="Arial-BoldMT-55" d="M10.68,181.66v-1.73h4.65c.74,0,1.22-.02,1.44-.07.35-.07.63-.25.85-.53.21-.28.32-.66.32-1.15s-.1-.86-.3-1.11c-.2-.25-.45-.4-.74-.45-.29-.05-.78-.08-1.46-.08h-4.75v-1.73h4.51c1.03,0,1.76.05,2.19.14.43.09.78.27,1.08.52.29.25.53.59.7,1.01.17.42.26.97.26,1.65,0,.82-.09,1.44-.28,1.87-.19.42-.44.76-.74,1-.3.25-.62.41-.95.49-.49.11-1.22.17-2.18.17h-4.58Z"/>
  <path id="Arial-BoldMT-6e3" data-name="Arial-BoldMT-6e" d="M19.27,167.34v1.65h-3.18c-.67,0-1.11.04-1.3.1s-.35.18-.46.34c-.11.16-.16.35-.16.57,0,.28.08.54.23.77s.36.38.62.47c.26.08.73.13,1.43.13h2.82v1.65h-6.22v-1.53h.91c-.7-.54-1.06-1.23-1.06-2.05,0-.36.07-.69.2-.99.13-.3.3-.53.5-.68.2-.16.43-.26.69-.32.26-.06.63-.09,1.11-.09h3.87Z"/>
  <path id="Arial-BoldMT-69" d="M12.2,165.67h-1.52v-1.65h1.52v1.65ZM19.27,165.67h-6.22v-1.65h6.22v1.65Z"/>
  <path id="Arial-BoldMT-741" data-name="Arial-BoldMT-74" d="M13.04,159.48h1.31v1.12h2.51c.51,0,.8-.01.89-.03.08-.02.15-.07.21-.15s.08-.17.08-.28c0-.15-.05-.37-.16-.66l1.28-.14c.16.38.25.82.25,1.3,0,.3-.05.56-.15.8-.1.24-.23.41-.39.52-.16.11-.37.19-.64.23-.19.03-.58.05-1.16.05h-2.71v.76h-1.31v-.76h-1.24l-.96-1.65h2.2v-1.12Z"/>
  <path id="Arial-BoldMT-73" d="M17.49,158.92l-.25-1.65c.32-.07.56-.21.73-.43.17-.21.25-.52.25-.9,0-.42-.08-.74-.23-.96-.11-.14-.26-.22-.44-.22-.13,0-.23.04-.31.12-.08.08-.15.26-.22.55-.29,1.33-.56,2.17-.8,2.53-.34.49-.8.74-1.4.74-.54,0-.99-.21-1.36-.64-.37-.43-.55-1.09-.55-1.98s.14-1.48.42-1.9c.28-.41.69-.7,1.23-.86l.29,1.55c-.24.07-.43.19-.55.38-.13.18-.19.45-.19.79,0,.43.06.74.18.93.09.12.2.19.33.19.12,0,.22-.05.3-.16.11-.15.26-.66.46-1.54.2-.88.44-1.49.73-1.84.29-.34.7-.52,1.22-.52.57,0,1.06.24,1.47.71.41.48.61,1.18.61,2.11,0,.85-.17,1.52-.52,2.01-.34.49-.81.82-1.4.97Z"/>
  <path id="Arial-BoldMT-29" d="M21.79,152.12c-.7-.32-1.23-.55-1.6-.68-.37-.13-.8-.26-1.28-.37-.48-.11-.94-.2-1.38-.25-.44-.05-.88-.08-1.34-.08-.93,0-1.81.1-2.64.3-.83.2-1.84.57-3.02,1.1v-1.12c.84-.59,1.73-1.05,2.67-1.37.94-.33,1.9-.49,2.86-.49.82,0,1.69.13,2.62.39,1.05.29,2.08.78,3.1,1.45v1.14Z"/>
  <g class="st38">
    <path class="st7" d="M101.93,441.6l119.25-1.07,119.25-1.99,119.25-3.82,119.25-10.71,119.25-19.88,119.25-38.24"/>
  </g>
  <g class="st34">
    <path id="m73cd211ad6" class="st8" d="M101.93,445.6c1.06,0,2.08-.42,2.83-1.17s1.17-1.77,1.17-2.83-.42-2.08-1.17-2.83-1.77-1.17-2.83-1.17-2.08.42-2.83,1.17-1.17,1.77-1.17,2.83.42,2.08,1.17,2.83,1.77,1.17,2.83,1.17Z"/>
    <path id="m73cd211ad61" data-name="m73cd211ad6" class="st8" d="M221.18,444.53c1.06,0,2.08-.42,2.83-1.17s1.17-1.77,1.17-2.83-.42-2.08-1.17-2.83-1.77-1.17-2.83-1.17-2.08.42-2.83,1.17-1.17,1.77-1.17,2.83.42,2.08,1.17,2.83,1.77,1.17,2.83,1.17Z"/>
    <path id="m73cd211ad62" data-name="m73cd211ad6" class="st8" d="M340.43,442.54c1.06,0,2.08-.42,2.83-1.17s1.17-1.77,1.17-2.83-.42-2.08-1.17-2.83-1.77-1.17-2.83-1.17-2.08.42-2.83,1.17-1.17,1.77-1.17,2.83.42,2.08,1.17,2.83,1.77,1.17,2.83,1.17Z"/>
    <path id="m73cd211ad63" data-name="m73cd211ad6" class="st8" d="M459.68,438.71c1.06,0,2.08-.42,2.83-1.17s1.17-1.77,1.17-2.83-.42-2.08-1.17-2.83-1.77-1.17-2.83-1.17-2.08.42-2.83,1.17-1.17,1.77-1.17,2.83.42,2.08,1.17,2.83,1.77,1.17,2.83,1.17Z"/>
    <path id="m73cd211ad64" data-name="m73cd211ad6" class="st8" d="M578.93,428.01c1.06,0,2.08-.42,2.83-1.17s1.17-1.77,1.17-2.83-.42-2.08-1.17-2.83-1.77-1.17-2.83-1.17-2.08.42-2.83,1.17-1.17,1.77-1.17,2.83.42,2.08,1.17,2.83,1.77,1.17,2.83,1.17Z"/>
    <path id="m73cd211ad65" data-name="m73cd211ad6" class="st8" d="M698.18,408.12c1.06,0,2.08-.42,2.83-1.17s1.17-1.77,1.17-2.83-.42-2.08-1.17-2.83-1.77-1.17-2.83-1.17-2.08.42-2.83,1.17-1.17,1.77-1.17,2.83.42,2.08,1.17,2.83,1.77,1.17,2.83,1.17Z"/>
    <path id="m73cd211ad66" data-name="m73cd211ad6" class="st8" d="M817.43,369.89c1.06,0,2.08-.42,2.83-1.17s1.17-1.77,1.17-2.83-.42-2.08-1.17-2.83-1.77-1.17-2.83-1.17-2.08.42-2.83,1.17-1.17,1.77-1.17,2.83.42,2.08,1.17,2.83,1.77,1.17,2.83,1.17Z"/>
  </g>
  <g class="st16">
    <path class="st0" d="M101.93,439.3l119.25-4.59,119.25-10.71,119.25-19.88,119.25-53.53,119.25-91.77,119.25-198.83"/>
  </g>
  <g class="st36">
    <path id="mea1775dd3f" class="st10" d="M97.93,443.3h8v-8h-8v8Z"/>
    <path id="mea1775dd3f1" data-name="mea1775dd3f" class="st10" d="M217.18,438.71h8v-8h-8v8Z"/>
    <path id="mea1775dd3f2" data-name="mea1775dd3f" class="st10" d="M336.43,428.01h8v-8h-8v8Z"/>
    <path id="mea1775dd3f3" data-name="mea1775dd3f" class="st10" d="M455.68,408.12h8v-8h-8v8Z"/>
    <path id="mea1775dd3f4" data-name="mea1775dd3f" class="st10" d="M574.93,354.59h8v-8h-8v8Z"/>
    <path id="mea1775dd3f5" data-name="mea1775dd3f" class="st10" d="M694.18,262.82h8v-8h-8v8Z"/>
    <path id="mea1775dd3f6" data-name="mea1775dd3f" class="st10" d="M813.43,63.99h8v-8h-8v8Z"/>
  </g>
  <g class="st15">
    <path class="st3" d="M101.93,442.21l119.25-.31,119.25-.76,119.25-1.84,119.25-9.18,119.25-26,119.25-84.12"/>
  </g>
  <g class="st17">
    <path id="m46c211cdd3" class="st24" d="M101.93,438.21l-4,8h8l-4-8Z"/>
    <path id="m46c211cdd31" data-name="m46c211cdd3" class="st24" d="M221.18,437.9l-4,8h8l-4-8Z"/>
    <path id="m46c211cdd32" data-name="m46c211cdd3" class="st24" d="M340.43,437.14l-4,8h8l-4-8Z"/>
    <path id="m46c211cdd33" data-name="m46c211cdd3" class="st24" d="M459.68,435.3l-4,8h8l-4-8Z"/>
    <path id="m46c211cdd34" data-name="m46c211cdd3" class="st24" d="M578.93,426.13l-4,8h8l-4-8Z"/>
    <path id="m46c211cdd35" data-name="m46c211cdd3" class="st24" d="M698.18,400.12l-4,8h8l-4-8Z"/>
    <path id="m46c211cdd36" data-name="m46c211cdd3" class="st24" d="M817.43,316l-4,8h8l-4-8Z"/>
  </g>
  <g class="st35">
    <path class="st5" d="M101.93,442.06l119.25-.61,119.25-1.38,119.25-3.82,119.25-9.18,119.25-15.29,119.25-30.59"/>
  </g>
  <g class="st30">
    <path id="m0a237c0dac" class="st26" d="M101.93,447.71l5.66-5.66-5.66-5.66-5.66,5.66,5.66,5.66Z"/>
    <path id="m0a237c0dac1" data-name="m0a237c0dac" class="st26" d="M221.18,447.1l5.66-5.66-5.66-5.66-5.66,5.66,5.66,5.66Z"/>
    <path id="m0a237c0dac2" data-name="m0a237c0dac" class="st26" d="M340.43,445.72l5.66-5.66-5.66-5.66-5.66,5.66,5.66,5.66Z"/>
    <path id="m0a237c0dac3" data-name="m0a237c0dac" class="st26" d="M459.68,441.9l5.66-5.66-5.66-5.66-5.66,5.66,5.66,5.66Z"/>
    <path id="m0a237c0dac4" data-name="m0a237c0dac" class="st26" d="M578.93,432.72l5.66-5.66-5.66-5.66-5.66,5.66,5.66,5.66Z"/>
    <path id="m0a237c0dac5" data-name="m0a237c0dac" class="st26" d="M698.18,417.43l5.66-5.66-5.66-5.66-5.66,5.66,5.66,5.66Z"/>
    <path id="m0a237c0dac6" data-name="m0a237c0dac" class="st26" d="M817.43,386.84l5.66-5.66-5.66-5.66-5.66,5.66,5.66,5.66Z"/>
  </g>
  <g class="st12">
    <path class="st6" d="M101.93,441.14l119.25-1.07,119.25-2.29,119.25-4.59,119.25-9.18,119.25-12.24,119.25-22.94"/>
  </g>
  <g class="st19">
    <path id="m103328097d" class="st11" d="M101.93,437.14l-3.8,2.76,1.45,4.47h4.7l1.45-4.47-3.8-2.76Z"/>
    <path id="m103328097d1" data-name="m103328097d" class="st11" d="M221.18,436.07l-3.8,2.76,1.45,4.47h4.7l1.45-4.47-3.8-2.76Z"/>
    <path id="m103328097d2" data-name="m103328097d" class="st11" d="M340.43,433.77l-3.8,2.76,1.45,4.47h4.7l1.45-4.47-3.8-2.76Z"/>
    <path id="m103328097d3" data-name="m103328097d" class="st11" d="M459.68,429.19l-3.8,2.76,1.45,4.47h4.7l1.45-4.47-3.8-2.76Z"/>
    <path id="m103328097d4" data-name="m103328097d" class="st11" d="M578.93,420.01l-3.8,2.76,1.45,4.47h4.7l1.45-4.47-3.8-2.76Z"/>
    <path id="m103328097d5" data-name="m103328097d" class="st11" d="M698.18,407.77l-3.8,2.76,1.45,4.47h4.7l1.45-4.47-3.8-2.76Z"/>
    <path id="m103328097d6" data-name="m103328097d" class="st11" d="M817.43,384.83l-3.8,2.76,1.45,4.47h4.7l1.45-4.47-3.8-2.76Z"/>
  </g>
  <path class="st4" d="M66.16,461.32V40.88"/>
  <path class="st4" d="M66.16,461.32h787.04"/>
  <path id="Arial-BoldMT-47" class="st28" d="M279.58,17.2v-1.69h4.36v3.99c-.42.41-1.04.77-1.84,1.08-.8.31-1.62.47-2.44.47-1.05,0-1.96-.22-2.74-.66-.78-.44-1.36-1.07-1.76-1.89-.39-.82-.59-1.71-.59-2.67,0-1.04.22-1.97.66-2.78s1.08-1.43,1.92-1.87c.64-.33,1.44-.5,2.4-.5,1.24,0,2.22.26,2.92.78.7.52,1.15,1.24,1.35,2.16l-2.01.38c-.14-.49-.41-.88-.8-1.16-.39-.29-.88-.43-1.46-.43-.88,0-1.59.28-2.11.84-.52.56-.78,1.39-.78,2.49,0,1.19.26,2.08.79,2.68.53.59,1.22.89,2.08.89.42,0,.85-.08,1.28-.25s.79-.37,1.1-.6v-1.27h-2.32Z"/>
  <path id="Arial-BoldMT-6c2" data-name="Arial-BoldMT-6c" class="st28" d="M285.79,20.88v-10.02h1.92v10.02h-1.92Z"/>
  <path id="Arial-BoldMT-6f2" data-name="Arial-BoldMT-6f" class="st28" d="M289.24,17.15c0-.64.16-1.26.47-1.85.32-.6.76-1.05,1.34-1.37.58-.32,1.22-.47,1.93-.47,1.1,0,2,.36,2.7,1.07s1.05,1.61,1.05,2.7-.35,2.01-1.06,2.73c-.71.72-1.6,1.08-2.68,1.08-.67,0-1.3-.15-1.9-.45-.6-.3-1.06-.74-1.38-1.32-.32-.58-.47-1.29-.47-2.12ZM291.21,17.25c0,.72.17,1.27.51,1.65.34.38.76.57,1.27.57s.92-.19,1.26-.57c.34-.38.51-.94.51-1.67s-.17-1.26-.51-1.64c-.34-.38-.76-.58-1.26-.58s-.92.19-1.27.58c-.34.38-.51.93-.51,1.65Z"/>
  <path id="Arial-BoldMT-62" class="st28" d="M298.15,20.88v-10.02h1.92v3.61c.59-.68,1.29-1.01,2.11-1.01.88,0,1.62.32,2.19.96s.87,1.56.87,2.76-.3,2.19-.89,2.87c-.59.67-1.31,1-2.15,1-.41,0-.82-.1-1.23-.31-.4-.21-.75-.51-1.04-.92v1.07h-1.79ZM300.06,17.09c0,.75.12,1.31.35,1.67.33.51.78.77,1.33.77.42,0,.78-.18,1.08-.54.3-.36.45-.93.45-1.71,0-.83-.15-1.43-.45-1.79-.3-.37-.69-.55-1.16-.55s-.84.18-1.15.54c-.3.36-.46.9-.46,1.63Z"/>
  <path id="Arial-BoldMT-612" data-name="Arial-BoldMT-61" class="st28" d="M308.22,15.84l-1.74-.32c.2-.7.53-1.22,1.01-1.56.48-.34,1.19-.51,2.13-.51.86,0,1.5.1,1.91.3.42.2.72.46.89.77s.26.89.26,1.72l-.02,2.24c0,.64.03,1.11.09,1.41.06.3.18.63.35.97h-1.9c-.05-.13-.11-.32-.18-.57-.03-.12-.06-.19-.07-.23-.33.32-.68.56-1.05.72-.37.16-.77.24-1.2.24-.75,0-1.34-.2-1.77-.61-.43-.41-.65-.92-.65-1.54,0-.41.1-.78.29-1.1.2-.32.47-.57.82-.74.35-.17.86-.32,1.53-.45.9-.17,1.52-.33,1.87-.47v-.19c0-.37-.09-.63-.27-.79s-.53-.24-1.03-.24c-.34,0-.61.07-.8.2s-.35.37-.46.71ZM310.79,17.39c-.25.08-.64.18-1.17.3-.53.11-.88.23-1.05.33-.25.18-.38.4-.38.68s.1.5.3.7c.2.2.46.29.77.29.35,0,.68-.11.99-.34.23-.17.38-.39.46-.64.05-.16.08-.48.08-.94v-.38Z"/>
  <path id="Arial-BoldMT-6c3" data-name="Arial-BoldMT-6c" class="st28" d="M314.57,20.88v-10.02h1.92v10.02h-1.92Z"/>
  <path id="Arial-BoldMT-203" data-name="Arial-BoldMT-20" class="st28" d="M317.46,20.88"/>
  <path id="Arial-BoldMT-4c" class="st28" d="M322.42,20.88v-9.94h2.02v8.25h5.03v1.69h-7.05Z"/>
  <path id="Arial-BoldMT-6f3" data-name="Arial-BoldMT-6f" class="st28" d="M330.46,17.15c0-.64.16-1.26.47-1.85.32-.6.76-1.05,1.34-1.37.58-.32,1.22-.47,1.93-.47,1.1,0,2,.36,2.7,1.07s1.05,1.61,1.05,2.7-.35,2.01-1.06,2.73c-.71.72-1.6,1.08-2.68,1.08-.67,0-1.3-.15-1.9-.45-.6-.3-1.06-.74-1.38-1.32-.32-.58-.47-1.29-.47-2.12ZM332.43,17.25c0,.72.17,1.27.51,1.65.34.38.76.57,1.27.57s.92-.19,1.26-.57c.34-.38.51-.94.51-1.67s-.17-1.26-.51-1.64c-.34-.38-.76-.58-1.26-.58s-.92.19-1.27.58c-.34.38-.51.93-.51,1.65Z"/>
  <path id="Arial-BoldMT-691" data-name="Arial-BoldMT-69" class="st28" d="M339.46,12.64v-1.78h1.92v1.78h-1.92ZM339.46,20.88v-7.26h1.92v7.26h-1.92Z"/>
  <path id="Arial-BoldMT-742" data-name="Arial-BoldMT-74" class="st28" d="M346.67,13.62v1.53h-1.31v2.93c0,.59.01.94.04,1.03.03.1.08.18.17.24s.2.1.32.1c.18,0,.44-.06.77-.19l.16,1.49c-.45.19-.95.29-1.52.29-.35,0-.66-.06-.94-.17-.28-.12-.48-.27-.61-.45-.13-.19-.22-.43-.27-.75-.04-.22-.06-.67-.06-1.35v-3.17h-.88v-1.53h.88v-1.44l1.93-1.12v2.56h1.31Z"/>
  <path id="Arial-BoldMT-654" data-name="Arial-BoldMT-65" class="st28" d="M352.21,18.57l1.91.32c-.25.7-.63,1.24-1.17,1.6-.53.37-1.19.55-1.99.55-1.26,0-2.2-.41-2.8-1.24-.48-.66-.72-1.49-.72-2.5,0-1.2.31-2.15.94-2.83.63-.68,1.43-1.02,2.39-1.02,1.08,0,1.93.36,2.56,1.07s.92,1.81.89,3.28h-4.81c.01.57.17,1.01.47,1.33.3.32.67.47,1.11.47.3,0,.55-.08.76-.25.21-.16.36-.43.47-.79ZM352.32,16.63c-.01-.56-.16-.98-.43-1.27-.27-.29-.61-.44-1-.44-.42,0-.76.15-1.04.46-.27.31-.41.72-.4,1.24h2.87Z"/>
  <path id="Arial-BoldMT-723" data-name="Arial-BoldMT-72" class="st28" d="M357.63,20.88h-1.92v-7.26h1.79v1.03c.3-.49.58-.81.82-.96.24-.16.52-.23.83-.23.44,0,.86.12,1.26.36l-.6,1.67c-.32-.21-.62-.31-.9-.31s-.5.07-.68.22c-.19.15-.33.41-.44.8-.11.39-.16,1.2-.16,2.43v2.24Z"/>
  <path id="Arial-BoldMT-692" data-name="Arial-BoldMT-69" class="st28" d="M361.24,12.64v-1.78h1.92v1.78h-1.92ZM361.24,20.88v-7.26h1.92v7.26h-1.92Z"/>
  <path id="Arial-BoldMT-6e4" data-name="Arial-BoldMT-6e" class="st28" d="M371.74,20.88h-1.92v-3.71c0-.78-.04-1.29-.12-1.52s-.22-.41-.4-.54c-.19-.13-.41-.19-.67-.19-.33,0-.63.09-.89.27s-.45.42-.54.73c-.1.3-.15.86-.15,1.67v3.29h-1.92v-7.26h1.79v1.07c.63-.82,1.43-1.23,2.39-1.23.42,0,.81.08,1.16.23.35.15.62.35.8.59.18.24.31.5.38.81.07.3.11.73.11,1.29v4.51Z"/>
  <path id="Arial-BoldMT-67" class="st28" d="M373.51,21.36l2.19.27c.04.26.12.43.25.53.18.14.47.21.86.21.5,0,.88-.08,1.13-.23.17-.1.3-.26.38-.49.06-.16.09-.45.09-.88v-1.06c-.57.78-1.3,1.18-2.17,1.18-.98,0-1.75-.41-2.32-1.24-.45-.65-.67-1.46-.67-2.43,0-1.22.29-2.15.88-2.79.59-.64,1.31-.96,2.19-.96s1.64.39,2.22,1.18v-1.02h1.8v6.51c0,.86-.07,1.5-.21,1.92-.14.42-.34.76-.6,1-.26.24-.6.43-1.02.57s-.96.21-1.62.21c-1.23,0-2.1-.21-2.62-.63-.51-.42-.77-.96-.77-1.6,0-.06,0-.14,0-.23ZM375.22,17.1c0,.77.15,1.33.45,1.69.3.36.67.54,1.1.54.47,0,.87-.18,1.19-.55s.49-.91.49-1.63-.16-1.31-.47-1.68c-.31-.36-.7-.55-1.17-.55s-.84.18-1.14.54c-.3.36-.45.9-.45,1.64Z"/>
  <path id="Arial-BoldMT-204" data-name="Arial-BoldMT-20" class="st28" d="M381.23,20.88"/>
  <path id="Arial-BoldMT-4d" class="st28" d="M386.11,20.88v-10.02h3.03l1.82,6.84,1.8-6.84h3.03v10.02h-1.88v-7.89l-1.99,7.89h-1.95l-1.98-7.89v7.89h-1.88Z"/>
  <path id="Arial-BoldMT-753" data-name="Arial-BoldMT-75" class="st28" d="M402.57,20.88v-1.09c-.26.39-.61.69-1.04.92-.43.22-.88.33-1.36.33s-.93-.11-1.31-.32c-.39-.21-.67-.51-.84-.9-.17-.39-.26-.92-.26-1.61v-4.59h1.92v3.34c0,1.02.04,1.65.11,1.88.07.23.2.41.39.55s.42.2.71.2c.33,0,.62-.09.88-.27.26-.18.44-.4.53-.67.1-.27.14-.92.14-1.96v-3.06h1.92v7.26h-1.78Z"/>
  <path id="Arial-BoldMT-6e5" data-name="Arial-BoldMT-6e" class="st28" d="M412.94,20.88h-1.92v-3.71c0-.78-.04-1.29-.12-1.52s-.22-.41-.4-.54c-.19-.13-.41-.19-.67-.19-.33,0-.63.09-.89.27s-.45.42-.54.73c-.1.3-.15.86-.15,1.67v3.29h-1.92v-7.26h1.79v1.07c.63-.82,1.43-1.23,2.39-1.23.42,0,.81.08,1.16.23.35.15.62.35.8.59.18.24.31.5.38.81.07.3.11.73.11,1.29v4.51Z"/>
  <path id="Arial-BoldMT-693" data-name="Arial-BoldMT-69" class="st28" d="M414.89,12.64v-1.78h1.92v1.78h-1.92ZM414.89,20.88v-7.26h1.92v7.26h-1.92Z"/>
  <path id="Arial-BoldMT-743" data-name="Arial-BoldMT-74" class="st28" d="M422.11,13.62v1.53h-1.31v2.93c0,.59.01.94.04,1.03.03.1.08.18.17.24s.2.1.32.1c.18,0,.44-.06.77-.19l.16,1.49c-.45.19-.95.29-1.52.29-.35,0-.66-.06-.94-.17-.28-.12-.48-.27-.61-.45-.13-.19-.22-.43-.27-.75-.04-.22-.06-.67-.06-1.35v-3.17h-.88v-1.53h.88v-1.44l1.93-1.12v2.56h1.31Z"/>
  <path id="Arial-BoldMT-694" data-name="Arial-BoldMT-69" class="st28" d="M423.44,12.64v-1.78h1.92v1.78h-1.92ZM423.44,20.88v-7.26h1.92v7.26h-1.92Z"/>
  <path id="Arial-BoldMT-6f4" data-name="Arial-BoldMT-6f" class="st28" d="M426.89,17.15c0-.64.16-1.26.47-1.85.32-.6.76-1.05,1.34-1.37.58-.32,1.22-.47,1.93-.47,1.1,0,2,.36,2.7,1.07s1.05,1.61,1.05,2.7-.35,2.01-1.06,2.73c-.71.72-1.6,1.08-2.68,1.08-.67,0-1.3-.15-1.9-.45-.6-.3-1.06-.74-1.38-1.32-.32-.58-.47-1.29-.47-2.12ZM428.86,17.25c0,.72.17,1.27.51,1.65.34.38.76.57,1.27.57s.92-.19,1.26-.57c.34-.38.51-.94.51-1.67s-.17-1.26-.51-1.64c-.34-.38-.76-.58-1.26-.58s-.92.19-1.27.58c-.34.38-.51.93-.51,1.65Z"/>
  <path id="Arial-BoldMT-6e6" data-name="Arial-BoldMT-6e" class="st28" d="M442.49,20.88h-1.92v-3.71c0-.78-.04-1.29-.12-1.52s-.22-.41-.4-.54c-.19-.13-.41-.19-.67-.19-.33,0-.63.09-.89.27s-.45.42-.54.73c-.1.3-.15.86-.15,1.67v3.29h-1.92v-7.26h1.79v1.07c.63-.82,1.43-1.23,2.39-1.23.42,0,.81.08,1.16.23.35.15.62.35.8.59.18.24.31.5.38.81.07.3.11.73.11,1.29v4.51Z"/>
  <path id="Arial-BoldMT-205" data-name="Arial-BoldMT-20" class="st28" d="M443.43,20.88"/>
  <path id="Arial-BoldMT-411" data-name="Arial-BoldMT-41" class="st28" d="M456.85,20.88h-2.2l-.88-2.28h-4.01l-.83,2.28h-2.15l3.9-10.02h2.14l4.01,10.02ZM453.13,16.91l-1.38-3.72-1.35,3.72h2.73Z"/>
  <path id="Arial-BoldMT-64" class="st28" d="M464.57,20.88h-1.78v-1.07c-.3.42-.65.72-1.05.93-.4.2-.81.3-1.22.3-.83,0-1.55-.34-2.14-1.01-.59-.67-.89-1.61-.89-2.81s.29-2.17.87-2.81c.58-.64,1.31-.96,2.2-.96.81,0,1.51.34,2.1,1.01v-3.61h1.92v10.02ZM459.44,17.09c0,.77.11,1.33.32,1.68.31.5.74.75,1.3.75.44,0,.82-.19,1.13-.56.31-.38.47-.94.47-1.69,0-.83-.15-1.43-.45-1.8-.3-.37-.69-.55-1.16-.55s-.84.18-1.15.54c-.31.36-.46.9-.46,1.62Z"/>
  <path id="Arial-BoldMT-6f5" data-name="Arial-BoldMT-6f" class="st28" d="M466.02,17.15c0-.64.16-1.26.47-1.85.32-.6.76-1.05,1.34-1.37.58-.32,1.22-.47,1.93-.47,1.1,0,2,.36,2.7,1.07s1.05,1.61,1.05,2.7-.35,2.01-1.06,2.73c-.71.72-1.6,1.08-2.68,1.08-.67,0-1.3-.15-1.9-.45-.6-.3-1.06-.74-1.38-1.32-.32-.58-.47-1.29-.47-2.12ZM467.99,17.25c0,.72.17,1.27.51,1.65.34.38.76.57,1.27.57s.92-.19,1.26-.57c.34-.38.51-.94.51-1.67s-.17-1.26-.51-1.64c-.34-.38-.76-.58-1.26-.58s-.92.19-1.27.58c-.34.38-.51.93-.51,1.65Z"/>
  <path id="Arial-BoldMT-70" class="st28" d="M474.96,13.62h1.79v1.07c.23-.36.55-.66.94-.89.4-.23.84-.34,1.32-.34.84,0,1.56.33,2.15.99s.88,1.58.88,2.76-.3,2.15-.89,2.83c-.59.67-1.31,1.01-2.15,1.01-.4,0-.76-.08-1.09-.24-.33-.16-.67-.43-1.03-.82v3.66h-1.92v-10.02ZM476.86,17.13c0,.82.16,1.42.49,1.81s.72.58,1.18.58.82-.18,1.11-.54c.3-.36.44-.95.44-1.76,0-.76-.15-1.33-.46-1.7-.3-.37-.68-.55-1.13-.55s-.86.18-1.17.54c-.31.36-.46.9-.46,1.61Z"/>
  <path id="Arial-BoldMT-744" data-name="Arial-BoldMT-74" class="st28" d="M486.89,13.62v1.53h-1.31v2.93c0,.59.01.94.04,1.03.03.1.08.18.17.24s.2.1.32.1c.18,0,.44-.06.77-.19l.16,1.49c-.45.19-.95.29-1.52.29-.35,0-.66-.06-.94-.17-.28-.12-.48-.27-.61-.45-.13-.19-.22-.43-.27-.75-.04-.22-.06-.67-.06-1.35v-3.17h-.88v-1.53h.88v-1.44l1.93-1.12v2.56h1.31Z"/>
  <path id="Arial-BoldMT-695" data-name="Arial-BoldMT-69" class="st28" d="M488.23,12.64v-1.78h1.92v1.78h-1.92ZM488.23,20.88v-7.26h1.92v7.26h-1.92Z"/>
  <path id="Arial-BoldMT-6f6" data-name="Arial-BoldMT-6f" class="st28" d="M491.67,17.15c0-.64.16-1.26.47-1.85.32-.6.76-1.05,1.34-1.37.58-.32,1.22-.47,1.93-.47,1.1,0,2,.36,2.7,1.07s1.05,1.61,1.05,2.7-.35,2.01-1.06,2.73c-.71.72-1.6,1.08-2.68,1.08-.67,0-1.3-.15-1.9-.45-.6-.3-1.06-.74-1.38-1.32-.32-.58-.47-1.29-.47-2.12ZM493.64,17.25c0,.72.17,1.27.51,1.65.34.38.76.57,1.27.57s.92-.19,1.26-.57c.34-.38.51-.94.51-1.67s-.17-1.26-.51-1.64c-.34-.38-.76-.58-1.26-.58s-.92.19-1.27.58c-.34.38-.51.93-.51,1.65Z"/>
  <path id="Arial-BoldMT-6e7" data-name="Arial-BoldMT-6e" class="st28" d="M507.27,20.88h-1.92v-3.71c0-.78-.04-1.29-.12-1.52s-.22-.41-.4-.54c-.19-.13-.41-.19-.67-.19-.33,0-.63.09-.89.27s-.45.42-.54.73c-.1.3-.15.86-.15,1.67v3.29h-1.92v-7.26h1.79v1.07c.63-.82,1.43-1.23,2.39-1.23.42,0,.81.08,1.16.23.35.15.62.35.8.59.18.24.31.5.38.81.07.3.11.73.11,1.29v4.51Z"/>
  <path id="Arial-BoldMT-206" data-name="Arial-BoldMT-20" class="st28" d="M508.22,20.88"/>
  <path id="Arial-BoldMT-54" class="st28" d="M515.38,20.88v-8.33h-2.97v-1.7h7.96v1.7h-2.97v8.33h-2.02Z"/>
  <path id="Arial-BoldMT-724" data-name="Arial-BoldMT-72" class="st28" d="M522.73,20.88h-1.92v-7.26h1.79v1.03c.3-.49.58-.81.82-.96.24-.16.52-.23.83-.23.44,0,.86.12,1.26.36l-.6,1.67c-.32-.21-.62-.31-.9-.31s-.5.07-.68.22c-.19.15-.33.41-.44.8-.11.39-.16,1.2-.16,2.43v2.24Z"/>
  <path id="Arial-BoldMT-655" data-name="Arial-BoldMT-65" class="st28" d="M530.54,18.57l1.91.32c-.25.7-.63,1.24-1.17,1.6-.53.37-1.19.55-1.99.55-1.26,0-2.2-.41-2.8-1.24-.48-.66-.72-1.49-.72-2.5,0-1.2.31-2.15.94-2.83.63-.68,1.43-1.02,2.39-1.02,1.08,0,1.93.36,2.56,1.07s.92,1.81.89,3.28h-4.81c.01.57.17,1.01.47,1.33.3.32.67.47,1.11.47.3,0,.55-.08.76-.25.21-.16.36-.43.47-.79ZM530.65,16.63c-.01-.56-.16-.98-.43-1.27-.27-.29-.61-.44-1-.44-.42,0-.76.15-1.04.46-.27.31-.41.72-.4,1.24h2.87Z"/>
  <path id="Arial-BoldMT-6e8" data-name="Arial-BoldMT-6e" class="st28" d="M540.73,20.88h-1.92v-3.71c0-.78-.04-1.29-.12-1.52s-.22-.41-.4-.54c-.19-.13-.41-.19-.67-.19-.33,0-.63.09-.89.27s-.45.42-.54.73c-.1.3-.15.86-.15,1.67v3.29h-1.92v-7.26h1.79v1.07c.63-.82,1.43-1.23,2.39-1.23.42,0,.81.08,1.16.23.35.15.62.35.8.59.18.24.31.5.38.81.07.3.11.73.11,1.29v4.51Z"/>
  <path id="Arial-BoldMT-641" data-name="Arial-BoldMT-64" class="st28" d="M549.34,20.88h-1.78v-1.07c-.3.42-.65.72-1.05.93-.4.2-.81.3-1.22.3-.83,0-1.55-.34-2.14-1.01-.59-.67-.89-1.61-.89-2.81s.29-2.17.87-2.81c.58-.64,1.31-.96,2.2-.96.81,0,1.51.34,2.1,1.01v-3.61h1.92v10.02ZM544.21,17.09c0,.77.11,1.33.32,1.68.31.5.74.75,1.3.75.44,0,.82-.19,1.13-.56.31-.38.47-.94.47-1.69,0-.83-.15-1.43-.45-1.8-.3-.37-.69-.55-1.16-.55s-.84.18-1.15.54c-.31.36-.46.9-.46,1.62Z"/>
  <path id="Arial-BoldMT-731" data-name="Arial-BoldMT-73" class="st28" d="M550.55,18.81l1.93-.29c.08.37.25.66.5.85.25.19.6.29,1.05.29.5,0,.87-.09,1.12-.27.17-.13.25-.3.25-.51,0-.15-.05-.27-.14-.36-.09-.09-.31-.18-.64-.25-1.55-.34-2.53-.65-2.95-.94-.57-.39-.86-.94-.86-1.63,0-.63.25-1.16.74-1.59.5-.43,1.27-.64,2.31-.64s1.73.16,2.21.49c.48.32.82.8,1,1.44l-1.81.33c-.08-.28-.22-.5-.44-.65-.22-.15-.52-.23-.93-.23-.5,0-.87.07-1.09.21-.15.1-.22.23-.22.39,0,.14.06.25.19.35.17.13.77.31,1.79.54,1.02.23,1.74.52,2.14.85.4.34.6.82.6,1.43,0,.67-.28,1.24-.83,1.72-.56.48-1.38.72-2.47.72-.99,0-1.77-.2-2.35-.6-.58-.4-.95-.95-1.13-1.63Z"/>
  <path id="Arial-BoldMT-207" data-name="Arial-BoldMT-20" class="st28" d="M558.01,20.88"/>
  <path id="Arial-BoldMT-281" data-name="Arial-BoldMT-28" class="st28" d="M566.09,23.83h-1.32c-.7-1.05-1.23-2.15-1.59-3.28-.36-1.13-.55-2.23-.55-3.29,0-1.32.23-2.57.68-3.74.39-1.02.89-1.96,1.49-2.82h1.31c-.62,1.38-1.05,2.55-1.29,3.52-.23.97-.35,1.99-.35,3.08,0,.75.07,1.51.21,2.3.14.78.33,1.53.57,2.23.16.47.44,1.13.84,2Z"/>
  <path id="Arial-BoldMT-32" class="st28" d="M573.65,19.1v1.79h-6.74c.07-.68.29-1.31.66-1.92.36-.6,1.09-1.4,2.16-2.4.87-.81,1.4-1.35,1.59-1.64.26-.4.4-.79.4-1.18,0-.43-.12-.76-.35-.99-.23-.23-.55-.35-.95-.35s-.72.12-.96.36c-.24.24-.37.64-.41,1.2l-1.91-.19c.11-1.06.47-1.82,1.07-2.28.6-.46,1.35-.69,2.26-.69.99,0,1.77.27,2.33.8.57.53.85,1.2.85,1.99,0,.45-.08.88-.24,1.29s-.42.84-.77,1.28c-.23.3-.65.72-1.26,1.28-.61.56-.99.92-1.15,1.11-.16.18-.29.36-.39.53h3.82Z"/>
  <path id="Arial-BoldMT-30" class="st28" d="M578.19,10.82c.97,0,1.73.35,2.28,1.04.65.82.98,2.18.98,4.08s-.33,3.26-.98,4.09c-.54.68-1.3,1.03-2.27,1.03s-1.76-.37-2.36-1.12c-.6-.75-.89-2.09-.89-4.01s.33-3.24.98-4.07c.54-.68,1.3-1.03,2.27-1.03ZM578.19,12.41c-.23,0-.44.07-.62.22-.18.15-.32.41-.42.8-.13.5-.2,1.33-.2,2.51s.06,1.98.18,2.42c.12.44.27.73.45.88.18.15.39.22.62.22s.44-.07.62-.22c.18-.15.32-.41.42-.8.13-.49.2-1.32.2-2.5s-.06-1.98-.18-2.42c-.12-.44-.27-.73-.45-.88-.18-.15-.39-.22-.62-.22Z"/>
  <path id="Arial-BoldMT-321" data-name="Arial-BoldMT-32" class="st28" d="M589.22,19.1v1.79h-6.74c.07-.68.29-1.31.66-1.92.36-.6,1.09-1.4,2.16-2.4.87-.81,1.4-1.35,1.59-1.64.26-.4.4-.79.4-1.18,0-.43-.12-.76-.35-.99-.23-.23-.55-.35-.95-.35s-.72.12-.96.36c-.24.24-.37.64-.41,1.2l-1.91-.19c.11-1.06.47-1.82,1.07-2.28.6-.46,1.35-.69,2.26-.69.99,0,1.77.27,2.33.8.57.53.85,1.2.85,1.99,0,.45-.08.88-.24,1.29s-.42.84-.77,1.28c-.23.3-.65.72-1.26,1.28-.61.56-.99.92-1.15,1.11-.16.18-.29.36-.39.53h3.82Z"/>
  <path id="Arial-BoldMT-301" data-name="Arial-BoldMT-30" class="st28" d="M593.76,10.82c.97,0,1.73.35,2.28,1.04.65.82.98,2.18.98,4.08s-.33,3.26-.98,4.09c-.54.68-1.3,1.03-2.27,1.03s-1.76-.37-2.36-1.12c-.6-.75-.89-2.09-.89-4.01s.33-3.24.98-4.07c.54-.68,1.3-1.03,2.27-1.03ZM593.76,12.41c-.23,0-.44.07-.62.22-.18.15-.32.41-.42.8-.13.5-.2,1.33-.2,2.51s.06,1.98.18,2.42c.12.44.27.73.45.88.18.15.39.22.62.22s.44-.07.62-.22c.18-.15.32-.41.42-.8.13-.49.2-1.32.2-2.5s-.06-1.98-.18-2.42c-.12-.44-.27-.73-.45-.88-.18-.15-.39-.22-.62-.22Z"/>
  <path id="Arial-BoldMT-2d" class="st28" d="M598.49,18.21v-1.92h3.77v1.92h-3.77Z"/>
  <path id="Arial-BoldMT-322" data-name="Arial-BoldMT-32" class="st28" d="M609.45,19.1v1.79h-6.74c.07-.68.29-1.31.66-1.92.36-.6,1.09-1.4,2.16-2.4.87-.81,1.4-1.35,1.59-1.64.26-.4.4-.79.4-1.18,0-.43-.12-.76-.35-.99-.23-.23-.55-.35-.95-.35s-.72.12-.96.36c-.24.24-.37.64-.41,1.2l-1.91-.19c.11-1.06.47-1.82,1.07-2.28.6-.46,1.35-.69,2.26-.69.99,0,1.77.27,2.33.8.57.53.85,1.2.85,1.99,0,.45-.08.88-.24,1.29s-.42.84-.77,1.28c-.23.3-.65.72-1.26,1.28-.61.56-.99.92-1.15,1.11-.16.18-.29.36-.39.53h3.82Z"/>
  <path id="Arial-BoldMT-302" data-name="Arial-BoldMT-30" class="st28" d="M614,10.82c.97,0,1.73.35,2.28,1.04.65.82.98,2.18.98,4.08s-.33,3.26-.98,4.09c-.54.68-1.3,1.03-2.27,1.03s-1.76-.37-2.36-1.12c-.6-.75-.89-2.09-.89-4.01s.33-3.24.98-4.07c.54-.68,1.3-1.03,2.27-1.03ZM614,12.41c-.23,0-.44.07-.62.22-.18.15-.32.41-.42.8-.13.5-.2,1.33-.2,2.51s.06,1.98.18,2.42c.12.44.27.73.45.88.18.15.39.22.62.22s.44-.07.62-.22c.18-.15.32-.41.42-.8.13-.49.2-1.32.2-2.5s-.06-1.98-.18-2.42c-.12-.44-.27-.73-.45-.88-.18-.15-.39-.22-.62-.22Z"/>
  <path id="Arial-BoldMT-323" data-name="Arial-BoldMT-32" class="st28" d="M625.03,19.1v1.79h-6.74c.07-.68.29-1.31.66-1.92.36-.6,1.09-1.4,2.16-2.4.87-.81,1.4-1.35,1.59-1.64.26-.4.4-.79.4-1.18,0-.43-.12-.76-.35-.99-.23-.23-.55-.35-.95-.35s-.72.12-.96.36c-.24.24-.37.64-.41,1.2l-1.91-.19c.11-1.06.47-1.82,1.07-2.28.6-.46,1.35-.69,2.26-.69.99,0,1.77.27,2.33.8.57.53.85,1.2.85,1.99,0,.45-.08.88-.24,1.29s-.42.84-.77,1.28c-.23.3-.65.72-1.26,1.28-.61.56-.99.92-1.15,1.11-.16.18-.29.36-.39.53h3.82Z"/>
  <path id="Arial-BoldMT-36" class="st28" d="M632.83,13.31l-1.86.2c-.05-.38-.16-.66-.36-.85-.19-.18-.44-.27-.74-.27-.41,0-.75.18-1.03.55-.28.36-.46,1.12-.53,2.28.48-.56,1.07-.85,1.79-.85.8,0,1.49.31,2.06.92.57.61.86,1.4.86,2.36,0,1.03-.3,1.85-.9,2.47-.6.62-1.37.93-2.32.93-1.01,0-1.84-.39-2.49-1.18-.65-.79-.98-2.07-.98-3.87s.34-3.16,1.02-3.97c.68-.81,1.56-1.22,2.65-1.22.76,0,1.39.21,1.89.64s.82,1.04.95,1.86ZM628.48,17.5c0,.62.14,1.11.43,1.45.29.34.62.51.98.51s.65-.14.89-.42c.24-.28.36-.74.36-1.37s-.13-1.13-.38-1.43c-.26-.3-.57-.46-.96-.46s-.68.15-.94.44c-.26.29-.38.72-.38,1.28Z"/>
  <path id="Arial-BoldMT-291" data-name="Arial-BoldMT-29" class="st28" d="M633.99,23.83c.38-.81.64-1.43.8-1.87.16-.43.3-.93.43-1.5.13-.57.23-1.1.29-1.61.06-.51.1-1.03.1-1.56,0-1.08-.12-2.11-.35-3.08-.23-.97-.66-2.14-1.29-3.52h1.31c.69.98,1.22,2.02,1.6,3.12.38,1.1.57,2.21.57,3.34,0,.95-.15,1.97-.45,3.06-.34,1.22-.91,2.43-1.69,3.62h-1.33Z"/>
  <path class="st20" d="M73.16,119.72h62.18c1.33,0,2-.67,2-2V47.88c0-1.33-.67-2-2-2h-62.18c-1.33,0-2,.67-2,2v69.84c0,1.33.67,2,2,2Z"/>
  <path class="st7" d="M75.16,53.54h20"/>
  <path id="m73cd211ad67" data-name="m73cd211ad6" class="st8" d="M85.16,57.54c1.06,0,2.08-.42,2.83-1.17s1.17-1.77,1.17-2.83-.42-2.08-1.17-2.83-1.77-1.17-2.83-1.17-2.08.42-2.83,1.17-1.17,1.77-1.17,2.83.42,2.08,1.17,2.83,1.77,1.17,2.83,1.17Z"/>
  <path id="ArialMT-55" d="M108.63,49.88h.95v4.14c0,.72-.08,1.29-.24,1.71-.16.42-.46.77-.88,1.03-.43.26-.98.4-1.67.4s-1.22-.12-1.65-.35c-.43-.23-.73-.57-.91-1s-.27-1.04-.27-1.79v-4.14h.95v4.13c0,.62.06,1.08.17,1.38.12.29.31.52.6.68.28.16.63.24,1.03.24.7,0,1.19-.16,1.49-.47.3-.32.45-.92.45-1.82v-4.13Z"/>
  <path id="ArialMT-53" d="M110.83,54.74l.89-.08c.04.36.14.65.3.88.16.23.4.41.72.56.33.14.69.21,1.1.21.36,0,.68-.05.96-.16.28-.11.48-.25.62-.44.14-.19.2-.39.2-.61s-.07-.42-.2-.59-.34-.31-.64-.42c-.19-.08-.62-.19-1.28-.35-.66-.16-1.12-.31-1.38-.45-.34-.18-.6-.4-.77-.67-.17-.27-.25-.56-.25-.89,0-.36.1-.7.31-1.01.21-.31.5-.55.9-.72.39-.16.83-.24,1.31-.24.53,0,1,.09,1.4.26.41.17.72.42.94.75.22.33.33.71.35,1.13l-.91.07c-.05-.45-.21-.79-.5-1.03-.28-.23-.7-.35-1.25-.35s-.99.11-1.25.32c-.26.21-.39.46-.39.76,0,.26.09.47.28.64.18.17.66.34,1.43.51.77.17,1.3.33,1.58.46.42.19.72.44.92.73.2.29.3.63.3,1.02s-.11.74-.33,1.08c-.22.34-.53.6-.94.79-.41.19-.87.28-1.38.28-.65,0-1.19-.09-1.63-.28-.44-.19-.78-.47-1.03-.85-.25-.38-.38-.81-.39-1.29Z"/>
  <path id="ArialMT-41" d="M117.04,57.04l2.75-7.16h1.02l2.93,7.16h-1.08l-.84-2.17h-2.99l-.79,2.17h-1ZM119.1,54.1h2.43l-.75-1.98c-.23-.6-.4-1.1-.51-1.48-.09.46-.22.92-.39,1.37l-.79,2.1Z"/>
  <path class="st0" d="M75.16,67.68h20"/>
  <path id="mea1775dd3f7" data-name="mea1775dd3f" class="st10" d="M81.16,71.68h8v-8h-8v8Z"/>
  <path id="ArialMT-43" d="M109.04,68.67l.95.24c-.2.78-.56,1.37-1.07,1.78-.52.41-1.15.61-1.89.61s-1.4-.16-1.88-.47c-.48-.31-.85-.77-1.1-1.37-.25-.6-.38-1.24-.38-1.92,0-.75.14-1.4.43-1.95.29-.56.69-.98,1.22-1.26.53-.29,1.1-.43,1.74-.43.72,0,1.32.18,1.81.55.49.36.83.88,1.02,1.54l-.93.22c-.17-.52-.41-.9-.72-1.14-.32-.24-.71-.36-1.19-.36-.55,0-1.01.13-1.38.4-.37.26-.63.62-.78,1.06-.15.44-.22.9-.22,1.37,0,.61.09,1.14.27,1.59.18.45.45.79.83,1.02.38.22.78.34,1.22.34.53,0,.98-.15,1.35-.46.37-.31.62-.76.75-1.36Z"/>
  <path id="ArialMT-68" d="M111.04,71.18v-7.16h.88v2.57c.41-.48.93-.71,1.55-.71.38,0,.72.08,1,.23.28.15.49.36.61.63s.18.65.18,1.16v3.29h-.88v-3.29c0-.44-.1-.76-.29-.96s-.46-.3-.81-.3c-.26,0-.51.07-.74.2-.23.13-.39.32-.49.55-.1.23-.15.55-.15.96v2.84h-.88Z"/>
  <path id="ArialMT-69" d="M116.61,65.04v-1.01h.88v1.01h-.88ZM116.61,71.18v-5.19h.88v5.19h-.88Z"/>
  <path id="ArialMT-6e" d="M118.82,71.18v-5.19h.79v.74c.38-.57.93-.85,1.65-.85.31,0,.6.06.86.17s.46.26.59.44.22.4.27.65c.03.16.05.45.05.85v3.19h-.88v-3.15c0-.36-.03-.63-.1-.8-.07-.18-.19-.32-.36-.42-.17-.11-.38-.16-.61-.16-.38,0-.7.12-.97.36s-.41.69-.41,1.35v2.83h-.88Z"/>
  <path id="ArialMT-61" d="M127.77,70.54c-.33.28-.64.47-.94.59-.3.11-.62.17-.97.17-.57,0-1.01-.14-1.31-.42s-.46-.63-.46-1.07c0-.25.06-.49.17-.7.12-.21.27-.38.45-.51s.4-.22.63-.29c.17-.05.43-.09.78-.13.71-.08,1.23-.18,1.57-.3,0-.12,0-.2,0-.23,0-.36-.08-.61-.25-.76-.22-.2-.56-.3-1-.3-.41,0-.72.07-.92.22s-.34.4-.44.77l-.86-.12c.08-.37.21-.66.39-.89.18-.23.44-.4.78-.52.34-.12.73-.18,1.18-.18s.8.05,1.08.16c.28.1.48.24.61.39.13.16.22.36.27.6.03.15.04.42.04.81v1.17c0,.82.02,1.33.06,1.55.04.22.11.42.22.62h-.92c-.09-.18-.15-.4-.18-.64ZM127.7,68.58c-.32.13-.8.24-1.44.33-.36.05-.62.11-.77.18-.15.06-.26.16-.35.28-.08.13-.12.26-.12.42,0,.23.09.43.27.59.18.16.44.23.78.23s.64-.07.9-.22c.26-.15.46-.35.58-.61.09-.2.14-.49.14-.88v-.32Z"/>
  <path class="st3" d="M75.16,81.83h20"/>
  <path id="m46c211cdd37" data-name="m46c211cdd3" class="st24" d="M85.16,77.83l-4,8h8l-4-8Z"/>
  <path id="ArialMT-49" d="M104.09,85.33v-7.16h.95v7.16h-.95Z"/>
  <path id="ArialMT-6e1" data-name="ArialMT-6e" d="M106.6,85.33v-5.19h.79v.74c.38-.57.93-.85,1.65-.85.31,0,.6.06.86.17s.46.26.59.44.22.4.27.65c.03.16.05.45.05.85v3.19h-.88v-3.15c0-.36-.03-.63-.1-.8-.07-.18-.19-.32-.36-.42-.17-.11-.38-.16-.61-.16-.38,0-.7.12-.97.36s-.41.69-.41,1.35v2.83h-.88Z"/>
  <path id="ArialMT-64" d="M115.52,85.33v-.65c-.33.51-.81.77-1.45.77-.41,0-.79-.11-1.14-.34s-.62-.55-.81-.95c-.19-.41-.28-.88-.28-1.41s.09-.99.26-1.41c.17-.42.43-.74.78-.97.35-.23.73-.34,1.16-.34.31,0,.59.07.83.2.24.13.44.3.6.51v-2.57h.87v7.16h-.82ZM112.74,82.74c0,.66.14,1.16.42,1.49.28.33.61.49.99.49s.71-.16.98-.47c.27-.31.4-.79.4-1.44,0-.71-.14-1.23-.41-1.56-.27-.33-.61-.5-1.01-.5s-.72.16-.98.48c-.26.32-.39.82-.39,1.51Z"/>
  <path id="ArialMT-691" data-name="ArialMT-69" d="M117.72,79.18v-1.01h.88v1.01h-.88ZM117.72,85.33v-5.19h.88v5.19h-.88Z"/>
  <path id="ArialMT-611" data-name="ArialMT-61" d="M123.33,84.69c-.33.28-.64.47-.94.59-.3.11-.62.17-.97.17-.57,0-1.01-.14-1.31-.42s-.46-.63-.46-1.07c0-.25.06-.49.17-.7.12-.21.27-.38.45-.51s.4-.22.63-.29c.17-.05.43-.09.78-.13.71-.08,1.23-.18,1.57-.3,0-.12,0-.2,0-.23,0-.36-.08-.61-.25-.76-.22-.2-.56-.3-1-.3-.41,0-.72.07-.92.22s-.34.4-.44.77l-.86-.12c.08-.37.21-.66.39-.89.18-.23.44-.4.78-.52.34-.12.73-.18,1.18-.18s.8.05,1.08.16c.28.1.48.24.61.39.13.16.22.36.27.6.03.15.04.42.04.81v1.17c0,.82.02,1.33.06,1.55.04.22.11.42.22.62h-.92c-.09-.18-.15-.4-.18-.64ZM123.25,82.73c-.32.13-.8.24-1.44.33-.36.05-.62.11-.77.18-.15.06-.26.16-.35.28-.08.13-.12.26-.12.42,0,.23.09.43.27.59.18.16.44.23.78.23s.64-.07.9-.22c.26-.15.46-.35.58-.61.09-.2.14-.49.14-.88v-.32Z"/>
  <path class="st5" d="M75.16,95.97h20"/>
  <path id="m0a237c0dac7" data-name="m0a237c0dac" class="st26" d="M85.16,101.63l5.66-5.66-5.66-5.66-5.66,5.66,5.66,5.66Z"/>
  <path id="ArialMT-54" d="M105.75,99.47v-6.31h-2.36v-.84h5.67v.84h-2.37v6.31h-.95Z"/>
  <path id="ArialMT-75" d="M112.95,99.47v-.76c-.4.59-.95.88-1.65.88-.31,0-.59-.06-.86-.18-.26-.12-.46-.27-.59-.44-.13-.18-.22-.4-.27-.65-.04-.17-.05-.45-.05-.82v-3.21h.88v2.88c0,.46.02.77.05.93.06.23.17.41.35.54.18.13.4.2.66.2s.51-.07.74-.2c.23-.14.39-.32.49-.55.1-.23.15-.57.15-1.01v-2.78h.88v5.19h-.79Z"/>
  <path id="ArialMT-72" d="M115.1,99.47v-5.19h.79v.79c.2-.37.39-.61.56-.73.17-.12.36-.18.56-.18.3,0,.6.09.9.28l-.3.82c-.21-.13-.43-.19-.64-.19-.19,0-.37.06-.52.17s-.26.28-.33.48c-.1.31-.15.65-.15,1.03v2.72h-.88Z"/>
  <path id="ArialMT-6b" d="M118.45,99.47v-7.16h.88v4.08l2.08-2.11h1.14l-1.98,1.92,2.18,3.26h-1.08l-1.71-2.65-.62.6v2.06h-.88Z"/>
  <path id="ArialMT-65" d="M126.99,97.8l.91.11c-.14.53-.41.94-.8,1.24-.39.29-.88.44-1.48.44-.76,0-1.36-.23-1.8-.7-.44-.47-.67-1.12-.67-1.97s.22-1.55.67-2.03c.45-.48,1.03-.72,1.75-.72s1.26.24,1.7.71.66,1.14.66,1.99c0,.05,0,.13,0,.23h-3.87c.03.57.19,1.01.48,1.31.29.3.65.45,1.08.45.32,0,.6-.08.83-.25.23-.17.41-.44.54-.81ZM124.11,96.38h2.9c-.04-.44-.15-.76-.33-.98-.28-.34-.64-.51-1.09-.51-.4,0-.74.13-1.02.4s-.43.63-.46,1.08Z"/>
  <path id="ArialMT-79" d="M128.97,101.47l-.1-.83c.19.05.36.08.5.08.2,0,.35-.03.47-.1.12-.06.21-.16.29-.27.06-.09.14-.31.27-.65.02-.05.04-.12.08-.22l-1.97-5.2h.95l1.08,3c.14.38.27.78.38,1.2.1-.4.22-.8.36-1.18l1.11-3.02h.88l-1.97,5.27c-.21.57-.38.96-.49,1.18-.16.29-.34.5-.54.64-.2.14-.44.2-.72.2-.17,0-.36-.04-.57-.11Z"/>
  <path class="st6" d="M75.16,110.24h20"/>
  <path id="m103328097d7" data-name="m103328097d" class="st11" d="M85.16,106.24l-3.8,2.76,1.45,4.47h4.7l1.45-4.47-3.8-2.76Z"/>
  <path id="ArialMT-491" data-name="ArialMT-49" d="M104.09,113.74v-7.16h.95v7.16h-.95Z"/>
  <path id="ArialMT-73" d="M106.24,112.19l.87-.14c.05.35.18.61.41.8.22.19.53.28.94.28s.7-.08.9-.25c.2-.16.29-.36.29-.58,0-.2-.09-.35-.26-.47-.12-.08-.42-.18-.9-.3-.64-.16-1.09-.3-1.34-.42s-.44-.28-.57-.49c-.13-.21-.19-.44-.19-.7,0-.23.05-.44.16-.64.11-.2.25-.36.43-.49.14-.1.32-.18.56-.25.24-.07.49-.11.76-.11.41,0,.76.06,1.07.18.31.12.54.28.68.48.15.2.25.47.3.8l-.86.12c-.04-.27-.15-.47-.34-.62-.19-.15-.45-.23-.79-.23-.4,0-.69.07-.86.2-.17.13-.26.29-.26.47,0,.11.04.22.11.31.07.09.18.17.34.23.09.03.35.11.78.22.62.17,1.06.3,1.3.41.25.11.44.26.58.46.14.2.21.45.21.75s-.09.57-.26.83c-.17.26-.42.46-.74.6-.32.14-.69.21-1.09.21-.67,0-1.19-.14-1.54-.42-.35-.28-.58-.7-.68-1.25Z"/>
  <path id="ArialMT-721" data-name="ArialMT-72" d="M111.59,113.74v-5.19h.79v.79c.2-.37.39-.61.56-.73.17-.12.36-.18.56-.18.3,0,.6.09.9.28l-.3.82c-.21-.13-.43-.19-.64-.19-.19,0-.37.06-.52.17s-.26.28-.33.48c-.1.31-.15.65-.15,1.03v2.72h-.88Z"/>
  <path id="ArialMT-612" data-name="ArialMT-61" d="M118.31,113.1c-.33.28-.64.47-.94.59-.3.11-.62.17-.97.17-.57,0-1.01-.14-1.31-.42s-.46-.63-.46-1.07c0-.25.06-.49.17-.7.12-.21.27-.38.45-.51s.4-.22.63-.29c.17-.05.43-.09.78-.13.71-.08,1.23-.18,1.57-.3,0-.12,0-.2,0-.23,0-.36-.08-.61-.25-.76-.22-.2-.56-.3-1-.3-.41,0-.72.07-.92.22s-.34.4-.44.77l-.86-.12c.08-.37.21-.66.39-.89.18-.23.44-.4.78-.52.34-.12.73-.18,1.18-.18s.8.05,1.08.16c.28.1.48.24.61.39.13.16.22.36.27.6.03.15.04.42.04.81v1.17c0,.82.02,1.33.06,1.55.04.22.11.42.22.62h-.92c-.09-.18-.15-.4-.18-.64ZM118.24,111.13c-.32.13-.8.24-1.44.33-.36.05-.62.11-.77.18-.15.06-.26.16-.35.28-.08.13-.12.26-.12.42,0,.23.09.43.27.59.18.16.44.23.78.23s.64-.07.9-.22c.26-.15.46-.35.58-.61.09-.2.14-.49.14-.88v-.32Z"/>
  <path id="ArialMT-651" data-name="ArialMT-65" d="M124.04,112.07l.91.11c-.14.53-.41.94-.8,1.24-.39.29-.88.44-1.48.44-.76,0-1.36-.23-1.8-.7-.44-.47-.67-1.12-.67-1.97s.22-1.55.67-2.03c.45-.48,1.03-.72,1.75-.72s1.26.24,1.7.71.66,1.14.66,1.99c0,.05,0,.13,0,.23h-3.87c.03.57.19,1.01.48,1.31.29.3.65.45,1.08.45.32,0,.6-.08.83-.25.23-.17.41-.44.54-.81ZM121.15,110.65h2.9c-.04-.44-.15-.76-.33-.98-.28-.34-.64-.51-1.09-.51-.4,0-.74.13-1.02.4s-.43.63-.46,1.08Z"/>
  <path id="ArialMT-6c" d="M126.03,113.74v-7.16h.88v7.16h-.88Z"/>
</svg>