<?xml version="1.0" encoding="utf-8" standalone="no"?>
<!DOCTYPE svg PUBLIC "-//W3C//DTD SVG 1.1//EN"
  "http://www.w3.org/Graphics/SVG/1.1/DTD/svg11.dtd">
<svg xmlns:xlink="http://www.w3.org/1999/xlink" width="1000.8pt" height="517.68pt" viewBox="0 0 1000.8 517.68" xmlns="http://www.w3.org/2000/svg" version="1.1">
 <metadata>
  <rdf:RDF xmlns:dc="http://purl.org/dc/elements/1.1/" xmlns:cc="http://creativecommons.org/ns#" xmlns:rdf="http://www.w3.org/1999/02/22-rdf-syntax-ns#">
   <cc:Work>
    <dc:type rdf:resource="http://purl.org/dc/dcmitype/StillImage"/>
    <dc:date>2026-07-03T06:23:44.331336</dc:date>
    <dc:format>image/svg+xml</dc:format>
    <dc:creator>
     <cc:Agent>
      <dc:title>Matplotlib v3.10.9, https://matplotlib.org/</dc:title>
     </cc:Agent>
    </dc:creator>
   </cc:Work>
  </rdf:RDF>
 </metadata>
 <defs>
  <style type="text/css">*{stroke-linejoin: round; stroke-linecap: butt}</style>
 </defs>
 <g id="figure_1">
  <g id="patch_1">
   <path d="M 0 517.68 
L 1000.8 517.68 
L 1000.8 0 
L 0 0 
z
" style="fill: #ffffff"/>
  </g>
  <g id="axes_1">
   <g id="patch_2">
    <path d="M 55.98 330.739375 
C 62.448304 330.739375 68.652553 326.951654 73.226334 320.210413 
C 77.800116 313.469172 80.37 304.324804 80.37 294.79125 
C 80.37 285.257696 77.800116 276.113328 73.226334 269.372087 
C 68.652553 262.630846 62.448304 258.843125 55.98 258.843125 
C 49.511696 258.843125 43.307447 262.630846 38.733666 269.372087 
C 34.159884 276.113328 31.59 285.257696 31.59 294.79125 
C 31.59 304.324804 34.159884 313.469172 38.733666 320.210413 
C 43.307447 326.951654 49.511696 330.739375 55.98 330.739375 
z
" clip-path="url(#p36d1c9b3a2)" style="fill: #003366; stroke: #000000; stroke-width: 2; stroke-linejoin: miter"/>
   </g>
   <g id="patch_3">
    <path d="M 129.15 330.739375 
C 135.618304 330.739375 141.822553 326.951654 146.396334 320.210413 
C 150.970116 313.469172 153.54 304.324804 153.54 294.79125 
C 153.54 285.257696 150.970116 276.113328 146.396334 269.372087 
C 141.822553 262.630846 135.618304 258.843125 129.15 258.843125 
C 122.681696 258.843125 116.477447 262.630846 111.903666 269.372087 
C 107.329884 276.113328 104.76 285.257696 104.76 294.79125 
C 104.76 304.324804 107.329884 313.469172 111.903666 320.210413 
C 116.477447 326.951654 122.681696 330.739375 129.15 330.739375 
z
" clip-path="url(#p36d1c9b3a2)" style="fill: #003366; stroke: #000000; stroke-width: 2; stroke-linejoin: miter"/>
   </g>
   <g id="patch_4">
    <path d="M 202.32 330.739375 
C 208.788304 330.739375 214.992553 326.951654 219.566334 320.210413 
C 224.140116 313.469172 226.71 304.324804 226.71 294.79125 
C 226.71 285.257696 224.140116 276.113328 219.566334 269.372087 
C 214.992553 262.630846 208.788304 258.843125 202.32 258.843125 
C 195.851696 258.843125 189.647447 262.630846 185.073666 269.372087 
C 180.499884 276.113328 177.93 285.257696 177.93 294.79125 
C 177.93 304.324804 180.499884 313.469172 185.073666 320.210413 
C 189.647447 326.951654 195.851696 330.739375 202.32 330.739375 
z
" clip-path="url(#p36d1c9b3a2)" style="fill: #003366; stroke: #000000; stroke-width: 2; stroke-linejoin: miter"/>
   </g>
   <g id="patch_5">
    <path d="M 275.49 330.739375 
C 281.958304 330.739375 288.162553 326.951654 292.736334 320.210413 
C 297.310116 313.469172 299.88 304.324804 299.88 294.79125 
C 299.88 285.257696 297.310116 276.113328 292.736334 269.372087 
C 288.162553 262.630846 281.958304 258.843125 275.49 258.843125 
C 269.021696 258.843125 262.817447 262.630846 258.243666 269.372087 
C 253.669884 276.113328 251.1 285.257696 251.1 294.79125 
C 251.1 304.324804 253.669884 313.469172 258.243666 320.210413 
C 262.817447 326.951654 269.021696 330.739375 275.49 330.739375 
z
" clip-path="url(#p36d1c9b3a2)" style="fill: #003366; stroke: #000000; stroke-width: 2; stroke-linejoin: miter"/>
   </g>
   <g id="patch_6">
    <path d="M 348.66 330.739375 
C 355.128304 330.739375 361.332553 326.951654 365.906334 320.210413 
C 370.480116 313.469172 373.05 304.324804 373.05 294.79125 
C 373.05 285.257696 370.480116 276.113328 365.906334 269.372087 
C 361.332553 262.630846 355.128304 258.843125 348.66 258.843125 
C 342.191696 258.843125 335.987447 262.630846 331.413666 269.372087 
C 326.839884 276.113328 324.27 285.257696 324.27 294.79125 
C 324.27 304.324804 326.839884 313.469172 331.413666 320.210413 
C 335.987447 326.951654 342.191696 330.739375 348.66 330.739375 
z
" clip-path="url(#p36d1c9b3a2)" style="fill: #003366; stroke: #000000; stroke-width: 2; stroke-linejoin: miter"/>
   </g>
   <g id="patch_7">
    <path d="M 421.83 330.739375 
C 428.298304 330.739375 434.502553 326.951654 439.076334 320.210413 
C 443.650116 313.469172 446.22 304.324804 446.22 294.79125 
C 446.22 285.257696 443.650116 276.113328 439.076334 269.372087 
C 434.502553 262.630846 428.298304 258.843125 421.83 258.843125 
C 415.361696 258.843125 409.157447 262.630846 404.583666 269.372087 
C 400.009884 276.113328 397.44 285.257696 397.44 294.79125 
C 397.44 304.324804 400.009884 313.469172 404.583666 320.210413 
C 409.157447 326.951654 415.361696 330.739375 421.83 330.739375 
z
" clip-path="url(#p36d1c9b3a2)" style="fill: #003366; stroke: #000000; stroke-width: 2; stroke-linejoin: miter"/>
   </g>
   <g id="text_1">
    <!-- Find -->
    <g style="fill: #ffffff" transform="translate(46.484297 297.124219) scale(0.09 -0.09)">
     <defs>
      <path id="Arial-BoldMT-46" d="M 472 0 
L 472 4581 
L 3613 4581 
L 3613 3806 
L 1397 3806 
L 1397 2722 
L 3309 2722 
L 3309 1947 
L 1397 1947 
L 1397 0 
L 472 0 
z
" transform="scale(0.015625)"/>
      <path id="Arial-BoldMT-69" d="M 459 3769 
L 459 4581 
L 1338 4581 
L 1338 3769 
L 459 3769 
z
M 459 0 
L 459 3319 
L 1338 3319 
L 1338 0 
L 459 0 
z
" transform="scale(0.015625)"/>
      <path id="Arial-BoldMT-6e" d="M 3478 0 
L 2600 0 
L 2600 1694 
Q 2600 2231 2544 2389 
Q 2488 2547 2361 2634 
Q 2234 2722 2056 2722 
Q 1828 2722 1647 2597 
Q 1466 2472 1398 2265 
Q 1331 2059 1331 1503 
L 1331 0 
L 453 0 
L 453 3319 
L 1269 3319 
L 1269 2831 
Q 1703 3394 2363 3394 
Q 2653 3394 2893 3289 
Q 3134 3184 3257 3021 
Q 3381 2859 3429 2653 
Q 3478 2447 3478 2063 
L 3478 0 
z
" transform="scale(0.015625)"/>
      <path id="Arial-BoldMT-64" d="M 3503 0 
L 2688 0 
L 2688 488 
Q 2484 203 2207 64 
Q 1931 -75 1650 -75 
Q 1078 -75 670 386 
Q 263 847 263 1672 
Q 263 2516 659 2955 
Q 1056 3394 1663 3394 
Q 2219 3394 2625 2931 
L 2625 4581 
L 3503 4581 
L 3503 0 
z
M 1159 1731 
Q 1159 1200 1306 963 
Q 1519 619 1900 619 
Q 2203 619 2415 876 
Q 2628 1134 2628 1647 
Q 2628 2219 2422 2470 
Q 2216 2722 1894 2722 
Q 1581 2722 1370 2473 
Q 1159 2225 1159 1731 
z
" transform="scale(0.015625)"/>
     </defs>
     <use xlink:href="#Arial-BoldMT-46"/>
     <use xlink:href="#Arial-BoldMT-69" transform="translate(61.083984 0)"/>
     <use xlink:href="#Arial-BoldMT-6e" transform="translate(88.867188 0)"/>
     <use xlink:href="#Arial-BoldMT-64" transform="translate(149.951172 0)"/>
    </g>
   </g>
   <g id="patch_8">
    <path d="M 82.367765 294.79125 
Q 92.564815 294.79125 100.525797 294.79125 
" style="fill: none; stroke: #000000; stroke-width: 2; stroke-linecap: round"/>
    <path d="M 96.525797 292.79125 
L 100.525797 294.79125 
L 96.525797 296.79125 
" style="fill: none; stroke: #000000; stroke-width: 2; stroke-linecap: round"/>
   </g>
   <g id="text_2">
    <!-- Fix -->
    <g style="fill: #ffffff" transform="translate(122.648906 297.124219) scale(0.09 -0.09)">
     <defs>
      <path id="Arial-BoldMT-78" d="M 38 0 
L 1234 1709 
L 88 3319 
L 1159 3319 
L 1747 2406 
L 2366 3319 
L 3397 3319 
L 2272 1747 
L 3500 0 
L 2422 0 
L 1747 1028 
L 1066 0 
L 38 0 
z
" transform="scale(0.015625)"/>
     </defs>
     <use xlink:href="#Arial-BoldMT-46"/>
     <use xlink:href="#Arial-BoldMT-69" transform="translate(61.083984 0)"/>
     <use xlink:href="#Arial-BoldMT-78" transform="translate(88.867188 0)"/>
    </g>
   </g>
   <g id="patch_9">
    <path d="M 155.537765 294.79125 
Q 165.734815 294.79125 173.695797 294.79125 
" style="fill: none; stroke: #000000; stroke-width: 2; stroke-linecap: round"/>
    <path d="M 169.695797 292.79125 
L 173.695797 294.79125 
L 169.695797 296.79125 
" style="fill: none; stroke: #000000; stroke-width: 2; stroke-linecap: round"/>
   </g>
   <g id="text_3">
    <!-- Track -->
    <g style="fill: #ffffff" transform="translate(190.560234 297.124219) scale(0.09 -0.09)">
     <defs>
      <path id="Arial-BoldMT-54" d="M 1497 0 
L 1497 3806 
L 138 3806 
L 138 4581 
L 3778 4581 
L 3778 3806 
L 2422 3806 
L 2422 0 
L 1497 0 
z
" transform="scale(0.015625)"/>
      <path id="Arial-BoldMT-72" d="M 1300 0 
L 422 0 
L 422 3319 
L 1238 3319 
L 1238 2847 
Q 1447 3181 1614 3287 
Q 1781 3394 1994 3394 
Q 2294 3394 2572 3228 
L 2300 2463 
Q 2078 2606 1888 2606 
Q 1703 2606 1575 2504 
Q 1447 2403 1373 2137 
Q 1300 1872 1300 1025 
L 1300 0 
z
" transform="scale(0.015625)"/>
      <path id="Arial-BoldMT-61" d="M 1116 2306 
L 319 2450 
Q 453 2931 781 3162 
Q 1109 3394 1756 3394 
Q 2344 3394 2631 3255 
Q 2919 3116 3036 2902 
Q 3153 2688 3153 2116 
L 3144 1091 
Q 3144 653 3186 445 
Q 3228 238 3344 0 
L 2475 0 
Q 2441 88 2391 259 
Q 2369 338 2359 363 
Q 2134 144 1878 34 
Q 1622 -75 1331 -75 
Q 819 -75 523 203 
Q 228 481 228 906 
Q 228 1188 362 1408 
Q 497 1628 739 1745 
Q 981 1863 1438 1950 
Q 2053 2066 2291 2166 
L 2291 2253 
Q 2291 2506 2166 2614 
Q 2041 2722 1694 2722 
Q 1459 2722 1328 2630 
Q 1197 2538 1116 2306 
z
M 2291 1594 
Q 2122 1538 1756 1459 
Q 1391 1381 1278 1306 
Q 1106 1184 1106 997 
Q 1106 813 1243 678 
Q 1381 544 1594 544 
Q 1831 544 2047 700 
Q 2206 819 2256 991 
Q 2291 1103 2291 1419 
L 2291 1594 
z
" transform="scale(0.015625)"/>
      <path id="Arial-BoldMT-63" d="M 3353 2338 
L 2488 2181 
Q 2444 2441 2289 2572 
Q 2134 2703 1888 2703 
Q 1559 2703 1364 2476 
Q 1169 2250 1169 1719 
Q 1169 1128 1367 884 
Q 1566 641 1900 641 
Q 2150 641 2309 783 
Q 2469 925 2534 1272 
L 3397 1125 
Q 3263 531 2881 228 
Q 2500 -75 1859 -75 
Q 1131 -75 698 384 
Q 266 844 266 1656 
Q 266 2478 700 2936 
Q 1134 3394 1875 3394 
Q 2481 3394 2839 3133 
Q 3197 2872 3353 2338 
z
" transform="scale(0.015625)"/>
      <path id="Arial-BoldMT-6b" d="M 428 0 
L 428 4581 
L 1306 4581 
L 1306 2150 
L 2334 3319 
L 3416 3319 
L 2281 2106 
L 3497 0 
L 2550 0 
L 1716 1491 
L 1306 1063 
L 1306 0 
L 428 0 
z
" transform="scale(0.015625)"/>
     </defs>
     <use xlink:href="#Arial-BoldMT-54"/>
     <use xlink:href="#Arial-BoldMT-72" transform="translate(55.583984 0)"/>
     <use xlink:href="#Arial-BoldMT-61" transform="translate(94.5 0)"/>
     <use xlink:href="#Arial-BoldMT-63" transform="translate(150.115234 0)"/>
     <use xlink:href="#Arial-BoldMT-6b" transform="translate(205.730469 0)"/>
    </g>
   </g>
   <g id="patch_10">
    <path d="M 228.707765 294.79125 
Q 238.904815 294.79125 246.865797 294.79125 
" style="fill: none; stroke: #000000; stroke-width: 2; stroke-linecap: round"/>
    <path d="M 242.865797 292.79125 
L 246.865797 294.79125 
L 242.865797 296.79125 
" style="fill: none; stroke: #000000; stroke-width: 2; stroke-linecap: round"/>
   </g>
   <g id="text_4">
    <!-- Target -->
    <g style="fill: #ffffff" transform="translate(262.070156 297.065156) scale(0.09 -0.09)">
     <defs>
      <path id="Arial-BoldMT-67" d="M 378 -219 
L 1381 -341 
Q 1406 -516 1497 -581 
Q 1622 -675 1891 -675 
Q 2234 -675 2406 -572 
Q 2522 -503 2581 -350 
Q 2622 -241 2622 53 
L 2622 538 
Q 2228 0 1628 0 
Q 959 0 569 566 
Q 263 1013 263 1678 
Q 263 2513 664 2953 
Q 1066 3394 1663 3394 
Q 2278 3394 2678 2853 
L 2678 3319 
L 3500 3319 
L 3500 341 
Q 3500 -247 3403 -537 
Q 3306 -828 3131 -993 
Q 2956 -1159 2664 -1253 
Q 2372 -1347 1925 -1347 
Q 1081 -1347 728 -1058 
Q 375 -769 375 -325 
Q 375 -281 378 -219 
z
M 1163 1728 
Q 1163 1200 1367 954 
Q 1572 709 1872 709 
Q 2194 709 2416 961 
Q 2638 1213 2638 1706 
Q 2638 2222 2425 2472 
Q 2213 2722 1888 2722 
Q 1572 2722 1367 2476 
Q 1163 2231 1163 1728 
z
" transform="scale(0.015625)"/>
      <path id="Arial-BoldMT-65" d="M 2381 1056 
L 3256 909 
Q 3088 428 2723 176 
Q 2359 -75 1813 -75 
Q 947 -75 531 491 
Q 203 944 203 1634 
Q 203 2459 634 2926 
Q 1066 3394 1725 3394 
Q 2466 3394 2894 2905 
Q 3322 2416 3303 1406 
L 1103 1406 
Q 1113 1016 1316 798 
Q 1519 581 1822 581 
Q 2028 581 2168 693 
Q 2309 806 2381 1056 
z
M 2431 1944 
Q 2422 2325 2234 2523 
Q 2047 2722 1778 2722 
Q 1491 2722 1303 2513 
Q 1116 2303 1119 1944 
L 2431 1944 
z
" transform="scale(0.015625)"/>
      <path id="Arial-BoldMT-74" d="M 1981 3319 
L 1981 2619 
L 1381 2619 
L 1381 1281 
Q 1381 875 1398 808 
Q 1416 741 1477 697 
Q 1538 653 1625 653 
Q 1747 653 1978 738 
L 2053 56 
Q 1747 -75 1359 -75 
Q 1122 -75 931 4 
Q 741 84 652 211 
Q 563 338 528 553 
Q 500 706 500 1172 
L 500 2619 
L 97 2619 
L 97 3319 
L 500 3319 
L 500 3978 
L 1381 4491 
L 1381 3319 
L 1981 3319 
z
" transform="scale(0.015625)"/>
     </defs>
     <use xlink:href="#Arial-BoldMT-54"/>
     <use xlink:href="#Arial-BoldMT-61" transform="translate(53.708984 0)"/>
     <use xlink:href="#Arial-BoldMT-72" transform="translate(109.324219 0)"/>
     <use xlink:href="#Arial-BoldMT-67" transform="translate(148.240234 0)"/>
     <use xlink:href="#Arial-BoldMT-65" transform="translate(209.324219 0)"/>
     <use xlink:href="#Arial-BoldMT-74" transform="translate(264.939453 0)"/>
    </g>
   </g>
   <g id="patch_11">
    <path d="M 301.877765 294.79125 
Q 312.074815 294.79125 320.035797 294.79125 
" style="fill: none; stroke: #000000; stroke-width: 2; stroke-linecap: round"/>
    <path d="M 316.035797 292.79125 
L 320.035797 294.79125 
L 316.035797 296.79125 
" style="fill: none; stroke: #000000; stroke-width: 2; stroke-linecap: round"/>
   </g>
   <g id="text_5">
    <!-- Engage -->
    <g style="fill: #ffffff" transform="translate(332.407969 297.065156) scale(0.09 -0.09)">
     <defs>
      <path id="Arial-BoldMT-45" d="M 466 0 
L 466 4581 
L 3863 4581 
L 3863 3806 
L 1391 3806 
L 1391 2791 
L 3691 2791 
L 3691 2019 
L 1391 2019 
L 1391 772 
L 3950 772 
L 3950 0 
L 466 0 
z
" transform="scale(0.015625)"/>
     </defs>
     <use xlink:href="#Arial-BoldMT-45"/>
     <use xlink:href="#Arial-BoldMT-6e" transform="translate(66.699219 0)"/>
     <use xlink:href="#Arial-BoldMT-67" transform="translate(127.783203 0)"/>
     <use xlink:href="#Arial-BoldMT-61" transform="translate(188.867188 0)"/>
     <use xlink:href="#Arial-BoldMT-67" transform="translate(244.482422 0)"/>
     <use xlink:href="#Arial-BoldMT-65" transform="translate(305.566406 0)"/>
    </g>
   </g>
   <g id="patch_12">
    <path d="M 375.047765 294.79125 
Q 385.244815 294.79125 393.205797 294.79125 
" style="fill: none; stroke: #000000; stroke-width: 2; stroke-linecap: round"/>
    <path d="M 389.205797 292.79125 
L 393.205797 294.79125 
L 389.205797 296.79125 
" style="fill: none; stroke: #000000; stroke-width: 2; stroke-linecap: round"/>
   </g>
   <g id="text_6">
    <!-- Assess -->
    <g style="fill: #ffffff" transform="translate(406.068047 297.124219) scale(0.09 -0.09)">
     <defs>
      <path id="Arial-BoldMT-41" d="M 4597 0 
L 3591 0 
L 3191 1041 
L 1359 1041 
L 981 0 
L 0 0 
L 1784 4581 
L 2763 4581 
L 4597 0 
z
M 2894 1813 
L 2263 3513 
L 1644 1813 
L 2894 1813 
z
" transform="scale(0.015625)"/>
      <path id="Arial-BoldMT-73" d="M 150 947 
L 1031 1081 
Q 1088 825 1259 692 
Q 1431 559 1741 559 
Q 2081 559 2253 684 
Q 2369 772 2369 919 
Q 2369 1019 2306 1084 
Q 2241 1147 2013 1200 
Q 950 1434 666 1628 
Q 272 1897 272 2375 
Q 272 2806 612 3100 
Q 953 3394 1669 3394 
Q 2350 3394 2681 3172 
Q 3013 2950 3138 2516 
L 2309 2363 
Q 2256 2556 2107 2659 
Q 1959 2763 1684 2763 
Q 1338 2763 1188 2666 
Q 1088 2597 1088 2488 
Q 1088 2394 1175 2328 
Q 1294 2241 1995 2081 
Q 2697 1922 2975 1691 
Q 3250 1456 3250 1038 
Q 3250 581 2869 253 
Q 2488 -75 1741 -75 
Q 1063 -75 667 200 
Q 272 475 150 947 
z
" transform="scale(0.015625)"/>
     </defs>
     <use xlink:href="#Arial-BoldMT-41"/>
     <use xlink:href="#Arial-BoldMT-73" transform="translate(72.216797 0)"/>
     <use xlink:href="#Arial-BoldMT-73" transform="translate(127.832031 0)"/>
     <use xlink:href="#Arial-BoldMT-65" transform="translate(183.447266 0)"/>
     <use xlink:href="#Arial-BoldMT-73" transform="translate(239.0625 0)"/>
     <use xlink:href="#Arial-BoldMT-73" transform="translate(294.677734 0)"/>
    </g>
   </g>
   <g id="text_7">
    <!-- Traditional Kill Chain -->
    <g style="fill: #003366" transform="translate(191.430937 60.251625) scale(0.12 -0.12)">
     <defs>
      <path id="Arial-BoldMT-6f" d="M 256 1706 
Q 256 2144 472 2553 
Q 688 2963 1083 3178 
Q 1478 3394 1966 3394 
Q 2719 3394 3200 2905 
Q 3681 2416 3681 1669 
Q 3681 916 3195 420 
Q 2709 -75 1972 -75 
Q 1516 -75 1102 131 
Q 688 338 472 736 
Q 256 1134 256 1706 
z
M 1156 1659 
Q 1156 1166 1390 903 
Q 1625 641 1969 641 
Q 2313 641 2545 903 
Q 2778 1166 2778 1666 
Q 2778 2153 2545 2415 
Q 2313 2678 1969 2678 
Q 1625 2678 1390 2415 
Q 1156 2153 1156 1659 
z
" transform="scale(0.015625)"/>
      <path id="Arial-BoldMT-6c" d="M 459 0 
L 459 4581 
L 1338 4581 
L 1338 0 
L 459 0 
z
" transform="scale(0.015625)"/>
      <path id="Arial-BoldMT-20" transform="scale(0.015625)"/>
      <path id="Arial-BoldMT-4b" d="M 478 0 
L 478 4581 
L 1403 4581 
L 1403 2547 
L 3272 4581 
L 4516 4581 
L 2791 2797 
L 4609 0 
L 3413 0 
L 2153 2150 
L 1403 1384 
L 1403 0 
L 478 0 
z
" transform="scale(0.015625)"/>
      <path id="Arial-BoldMT-43" d="M 3397 1684 
L 4294 1400 
Q 4088 650 3608 286 
Q 3128 -78 2391 -78 
Q 1478 -78 890 545 
Q 303 1169 303 2250 
Q 303 3394 893 4026 
Q 1484 4659 2447 4659 
Q 3288 4659 3813 4163 
Q 4125 3869 4281 3319 
L 3366 3100 
Q 3284 3456 3026 3662 
Q 2769 3869 2400 3869 
Q 1891 3869 1573 3503 
Q 1256 3138 1256 2319 
Q 1256 1450 1568 1081 
Q 1881 713 2381 713 
Q 2750 713 3015 947 
Q 3281 1181 3397 1684 
z
" transform="scale(0.015625)"/>
      <path id="Arial-BoldMT-68" d="M 1334 4581 
L 1334 2897 
Q 1759 3394 2350 3394 
Q 2653 3394 2897 3281 
Q 3141 3169 3264 2994 
Q 3388 2819 3433 2606 
Q 3478 2394 3478 1947 
L 3478 0 
L 2600 0 
L 2600 1753 
Q 2600 2275 2550 2415 
Q 2500 2556 2373 2639 
Q 2247 2722 2056 2722 
Q 1838 2722 1666 2615 
Q 1494 2509 1414 2295 
Q 1334 2081 1334 1663 
L 1334 0 
L 456 0 
L 456 4581 
L 1334 4581 
z
" transform="scale(0.015625)"/>
     </defs>
     <use xlink:href="#Arial-BoldMT-54"/>
     <use xlink:href="#Arial-BoldMT-72" transform="translate(55.583984 0)"/>
     <use xlink:href="#Arial-BoldMT-61" transform="translate(94.5 0)"/>
     <use xlink:href="#Arial-BoldMT-64" transform="translate(150.115234 0)"/>
     <use xlink:href="#Arial-BoldMT-69" transform="translate(211.199219 0)"/>
     <use xlink:href="#Arial-BoldMT-74" transform="translate(238.982422 0)"/>
     <use xlink:href="#Arial-BoldMT-69" transform="translate(272.283203 0)"/>
     <use xlink:href="#Arial-BoldMT-6f" transform="translate(300.066406 0)"/>
     <use xlink:href="#Arial-BoldMT-6e" transform="translate(361.150391 0)"/>
     <use xlink:href="#Arial-BoldMT-61" transform="translate(422.234375 0)"/>
     <use xlink:href="#Arial-BoldMT-6c" transform="translate(477.849609 0)"/>
     <use xlink:href="#Arial-BoldMT-20" transform="translate(505.632812 0)"/>
     <use xlink:href="#Arial-BoldMT-4b" transform="translate(533.416016 0)"/>
     <use xlink:href="#Arial-BoldMT-69" transform="translate(605.632812 0)"/>
     <use xlink:href="#Arial-BoldMT-6c" transform="translate(633.416016 0)"/>
     <use xlink:href="#Arial-BoldMT-6c" transform="translate(661.199219 0)"/>
     <use xlink:href="#Arial-BoldMT-20" transform="translate(688.982422 0)"/>
     <use xlink:href="#Arial-BoldMT-43" transform="translate(716.765625 0)"/>
     <use xlink:href="#Arial-BoldMT-68" transform="translate(788.982422 0)"/>
     <use xlink:href="#Arial-BoldMT-61" transform="translate(850.066406 0)"/>
     <use xlink:href="#Arial-BoldMT-69" transform="translate(905.681641 0)"/>
     <use xlink:href="#Arial-BoldMT-6e" transform="translate(933.464844 0)"/>
    </g>
    <!-- (Linear, Sequential) -->
    <g style="fill: #003366" transform="translate(195.758438 73.1025) scale(0.12 -0.12)">
     <defs>
      <path id="Arial-BoldMT-28" d="M 1916 -1347 
L 1313 -1347 
Q 834 -625 584 153 
Q 334 931 334 1659 
Q 334 2563 644 3369 
Q 913 4069 1325 4659 
L 1925 4659 
Q 1497 3713 1336 3048 
Q 1175 2384 1175 1641 
Q 1175 1128 1270 590 
Q 1366 53 1531 -431 
Q 1641 -750 1916 -1347 
z
" transform="scale(0.015625)"/>
      <path id="Arial-BoldMT-4c" d="M 491 0 
L 491 4544 
L 1416 4544 
L 1416 772 
L 3716 772 
L 3716 0 
L 491 0 
z
" transform="scale(0.015625)"/>
      <path id="Arial-BoldMT-2c" d="M 438 878 
L 1316 878 
L 1316 250 
Q 1316 -131 1250 -351 
Q 1184 -572 1001 -747 
Q 819 -922 538 -1022 
L 366 -659 
Q 631 -572 743 -419 
Q 856 -266 863 0 
L 438 0 
L 438 878 
z
" transform="scale(0.015625)"/>
      <path id="Arial-BoldMT-53" d="M 231 1491 
L 1131 1578 
Q 1213 1125 1461 912 
Q 1709 700 2131 700 
Q 2578 700 2804 889 
Q 3031 1078 3031 1331 
Q 3031 1494 2936 1608 
Q 2841 1722 2603 1806 
Q 2441 1863 1863 2006 
Q 1119 2191 819 2459 
Q 397 2838 397 3381 
Q 397 3731 595 4036 
Q 794 4341 1167 4500 
Q 1541 4659 2069 4659 
Q 2931 4659 3367 4281 
Q 3803 3903 3825 3272 
L 2900 3231 
Q 2841 3584 2645 3739 
Q 2450 3894 2059 3894 
Q 1656 3894 1428 3728 
Q 1281 3622 1281 3444 
Q 1281 3281 1419 3166 
Q 1594 3019 2269 2859 
Q 2944 2700 3267 2529 
Q 3591 2359 3773 2064 
Q 3956 1769 3956 1334 
Q 3956 941 3737 597 
Q 3519 253 3119 86 
Q 2719 -81 2122 -81 
Q 1253 -81 787 320 
Q 322 722 231 1491 
z
" transform="scale(0.015625)"/>
      <path id="Arial-BoldMT-71" d="M 2628 -1263 
L 2628 406 
Q 2456 184 2200 54 
Q 1944 -75 1647 -75 
Q 1081 -75 716 350 
Q 284 847 284 1697 
Q 284 2497 689 2945 
Q 1094 3394 1694 3394 
Q 2025 3394 2267 3253 
Q 2509 3113 2697 2828 
L 2697 3319 
L 3506 3319 
L 3506 -1263 
L 2628 -1263 
z
M 2656 1700 
Q 2656 2209 2448 2457 
Q 2241 2706 1928 2706 
Q 1609 2706 1395 2453 
Q 1181 2200 1181 1650 
Q 1181 1103 1387 861 
Q 1594 619 1897 619 
Q 2200 619 2428 891 
Q 2656 1163 2656 1700 
z
" transform="scale(0.015625)"/>
      <path id="Arial-BoldMT-75" d="M 2644 0 
L 2644 497 
Q 2463 231 2167 78 
Q 1872 -75 1544 -75 
Q 1209 -75 943 72 
Q 678 219 559 484 
Q 441 750 441 1219 
L 441 3319 
L 1319 3319 
L 1319 1794 
Q 1319 1094 1367 936 
Q 1416 778 1544 686 
Q 1672 594 1869 594 
Q 2094 594 2272 717 
Q 2450 841 2515 1023 
Q 2581 1206 2581 1919 
L 2581 3319 
L 3459 3319 
L 3459 0 
L 2644 0 
z
" transform="scale(0.015625)"/>
      <path id="Arial-BoldMT-29" d="M 216 -1347 
Q 475 -791 581 -494 
Q 688 -197 778 190 
Q 869 578 912 926 
Q 956 1275 956 1641 
Q 956 2384 797 3048 
Q 638 3713 209 4659 
L 806 4659 
Q 1278 3988 1539 3234 
Q 1800 2481 1800 1706 
Q 1800 1053 1594 306 
Q 1359 -531 822 -1347 
L 216 -1347 
z
" transform="scale(0.015625)"/>
     </defs>
     <use xlink:href="#Arial-BoldMT-28"/>
     <use xlink:href="#Arial-BoldMT-4c" transform="translate(33.300781 0)"/>
     <use xlink:href="#Arial-BoldMT-69" transform="translate(94.384766 0)"/>
     <use xlink:href="#Arial-BoldMT-6e" transform="translate(122.167969 0)"/>
     <use xlink:href="#Arial-BoldMT-65" transform="translate(183.251953 0)"/>
     <use xlink:href="#Arial-BoldMT-61" transform="translate(238.867188 0)"/>
     <use xlink:href="#Arial-BoldMT-72" transform="translate(294.482422 0)"/>
     <use xlink:href="#Arial-BoldMT-2c" transform="translate(327.898438 0)"/>
     <use xlink:href="#Arial-BoldMT-20" transform="translate(355.681641 0)"/>
     <use xlink:href="#Arial-BoldMT-53" transform="translate(383.464844 0)"/>
     <use xlink:href="#Arial-BoldMT-65" transform="translate(450.164062 0)"/>
     <use xlink:href="#Arial-BoldMT-71" transform="translate(505.779297 0)"/>
     <use xlink:href="#Arial-BoldMT-75" transform="translate(566.863281 0)"/>
     <use xlink:href="#Arial-BoldMT-65" transform="translate(627.947266 0)"/>
     <use xlink:href="#Arial-BoldMT-6e" transform="translate(683.5625 0)"/>
     <use xlink:href="#Arial-BoldMT-74" transform="translate(744.646484 0)"/>
     <use xlink:href="#Arial-BoldMT-69" transform="translate(777.947266 0)"/>
     <use xlink:href="#Arial-BoldMT-61" transform="translate(805.730469 0)"/>
     <use xlink:href="#Arial-BoldMT-6c" transform="translate(861.345703 0)"/>
     <use xlink:href="#Arial-BoldMT-29" transform="translate(889.128906 0)"/>
    </g>
   </g>
  </g>
  <g id="axes_2">
   <g id="patch_13">
    <path d="M 603.36 222.895 
C 609.828304 222.895 616.032553 219.107279 620.606334 212.366038 
C 625.180116 205.624797 627.75 196.480429 627.75 186.946875 
C 627.75 177.413321 625.180116 168.268953 620.606334 161.527712 
C 616.032553 154.786471 609.828304 150.99875 603.36 150.99875 
C 596.891696 150.99875 590.687447 154.786471 586.113666 161.527712 
C 581.539884 168.268953 578.97 177.413321 578.97 186.946875 
C 578.97 196.480429 581.539884 205.624797 586.113666 212.366038 
C 590.687447 219.107279 596.891696 222.895 603.36 222.895 
z
" clip-path="url(#p6f064d82f9)" style="fill: #0066cc; stroke: #000000; stroke-width: 2; stroke-linejoin: miter"/>
   </g>
   <g id="patch_14">
    <path d="M 749.7 186.946875 
C 756.168304 186.946875 762.372553 183.159154 766.946334 176.417913 
C 771.520116 169.676672 774.09 160.532304 774.09 150.99875 
C 774.09 141.465196 771.520116 132.320828 766.946334 125.579587 
C 762.372553 118.838346 756.168304 115.050625 749.7 115.050625 
C 743.231696 115.050625 737.027447 118.838346 732.453666 125.579587 
C 727.879884 132.320828 725.31 141.465196 725.31 150.99875 
C 725.31 160.532304 727.879884 169.676672 732.453666 176.417913 
C 737.027447 183.159154 743.231696 186.946875 749.7 186.946875 
z
" clip-path="url(#p6f064d82f9)" style="fill: #003366; stroke: #000000; stroke-width: 2; stroke-linejoin: miter"/>
   </g>
   <g id="patch_15">
    <path d="M 896.04 222.895 
C 902.508304 222.895 908.712553 219.107279 913.286334 212.366038 
C 917.860116 205.624797 920.43 196.480429 920.43 186.946875 
C 920.43 177.413321 917.860116 168.268953 913.286334 161.527712 
C 908.712553 154.786471 902.508304 150.99875 896.04 150.99875 
C 889.571696 150.99875 883.367447 154.786471 878.793666 161.527712 
C 874.219884 168.268953 871.65 177.413321 871.65 186.946875 
C 871.65 196.480429 874.219884 205.624797 878.793666 212.366038 
C 883.367447 219.107279 889.571696 222.895 896.04 222.895 
z
" clip-path="url(#p6f064d82f9)" style="fill: #cc0000; stroke: #000000; stroke-width: 2; stroke-linejoin: miter"/>
   </g>
   <g id="patch_16">
    <path d="M 603.36 438.58375 
C 609.828304 438.58375 616.032553 434.796029 620.606334 428.054788 
C 625.180116 421.313547 627.75 412.169179 627.75 402.635625 
C 627.75 393.102071 625.180116 383.957703 620.606334 377.216462 
C 616.032553 370.475221 609.828304 366.6875 603.36 366.6875 
C 596.891696 366.6875 590.687447 370.475221 586.113666 377.216462 
C 581.539884 383.957703 578.97 393.102071 578.97 402.635625 
C 578.97 412.169179 581.539884 421.313547 586.113666 428.054788 
C 590.687447 434.796029 596.891696 438.58375 603.36 438.58375 
z
" clip-path="url(#p6f064d82f9)" style="fill: #0099ff; stroke: #000000; stroke-width: 2; stroke-linejoin: miter"/>
   </g>
   <g id="patch_17">
    <path d="M 749.7 474.531875 
C 756.168304 474.531875 762.372553 470.744154 766.946334 464.002913 
C 771.520116 457.261672 774.09 448.117304 774.09 438.58375 
C 774.09 429.050196 771.520116 419.905828 766.946334 413.164587 
C 762.372553 406.423346 756.168304 402.635625 749.7 402.635625 
C 743.231696 402.635625 737.027447 406.423346 732.453666 413.164587 
C 727.879884 419.905828 725.31 429.050196 725.31 438.58375 
C 725.31 448.117304 727.879884 457.261672 732.453666 464.002913 
C 737.027447 470.744154 743.231696 474.531875 749.7 474.531875 
z
" clip-path="url(#p6f064d82f9)" style="fill: #ff6600; stroke: #000000; stroke-width: 2; stroke-linejoin: miter"/>
   </g>
   <g id="patch_18">
    <path d="M 896.04 438.58375 
C 902.508304 438.58375 908.712553 434.796029 913.286334 428.054788 
C 917.860116 421.313547 920.43 412.169179 920.43 402.635625 
C 920.43 393.102071 917.860116 383.957703 913.286334 377.216462 
C 908.712553 370.475221 902.508304 366.6875 896.04 366.6875 
C 889.571696 366.6875 883.367447 370.475221 878.793666 377.216462 
C 874.219884 383.957703 871.65 393.102071 871.65 402.635625 
C 871.65 412.169179 874.219884 421.313547 878.793666 428.054788 
C 883.367447 434.796029 889.571696 438.58375 896.04 438.58375 
z
" clip-path="url(#p6f064d82f9)" style="fill: #666666; stroke: #000000; stroke-width: 2; stroke-linejoin: miter"/>
   </g>
   <g id="patch_19">
    <path d="M 749.7 330.739375 
C 756.168304 330.739375 762.372553 326.951654 766.946334 320.210413 
C 771.520116 313.469172 774.09 304.324804 774.09 294.79125 
C 774.09 285.257696 771.520116 276.113328 766.946334 269.372087 
C 762.372553 262.630846 756.168304 258.843125 749.7 258.843125 
C 743.231696 258.843125 737.027447 262.630846 732.453666 269.372087 
C 727.879884 276.113328 725.31 285.257696 725.31 294.79125 
C 725.31 304.324804 727.879884 313.469172 732.453666 320.210413 
C 737.027447 326.951654 743.231696 330.739375 749.7 330.739375 
z
" clip-path="url(#p6f064d82f9)" style="fill: #003366; stroke: #000000; stroke-width: 2; stroke-linejoin: miter"/>
   </g>
   <g id="line2d_1">
    <path d="M 603.36 186.946875 
L 749.7 150.99875 
" clip-path="url(#p6f064d82f9)" style="fill: none; stroke: #0099ff; stroke-opacity: 0.5; stroke-linecap: square"/>
   </g>
   <g id="line2d_2">
    <path d="M 603.36 186.946875 
L 603.36 402.635625 
" clip-path="url(#p6f064d82f9)" style="fill: none; stroke: #0099ff; stroke-opacity: 0.5; stroke-linecap: square"/>
   </g>
   <g id="line2d_3">
    <path d="M 603.36 186.946875 
L 749.7 438.58375 
" clip-path="url(#p6f064d82f9)" style="fill: none; stroke: #0099ff; stroke-opacity: 0.5; stroke-linecap: square"/>
   </g>
   <g id="line2d_4">
    <path d="M 603.36 186.946875 
L 896.04 402.635625 
" clip-path="url(#p6f064d82f9)" style="fill: none; stroke: #0099ff; stroke-opacity: 0.5; stroke-linecap: square"/>
   </g>
   <g id="line2d_5">
    <path d="M 749.7 150.99875 
L 896.04 186.946875 
" clip-path="url(#p6f064d82f9)" style="fill: none; stroke: #0099ff; stroke-opacity: 0.5; stroke-linecap: square"/>
   </g>
   <g id="line2d_6">
    <path d="M 749.7 150.99875 
L 896.04 402.635625 
" clip-path="url(#p6f064d82f9)" style="fill: none; stroke: #0099ff; stroke-opacity: 0.5; stroke-linecap: square"/>
   </g>
   <g id="line2d_7">
    <path d="M 749.7 150.99875 
L 749.7 294.79125 
" clip-path="url(#p6f064d82f9)" style="fill: none; stroke: #0099ff; stroke-opacity: 0.5; stroke-linecap: square"/>
   </g>
   <g id="line2d_8">
    <path d="M 896.04 186.946875 
L 603.36 402.635625 
" clip-path="url(#p6f064d82f9)" style="fill: none; stroke: #0099ff; stroke-opacity: 0.5; stroke-linecap: square"/>
   </g>
   <g id="line2d_9">
    <path d="M 896.04 186.946875 
L 749.7 438.58375 
" clip-path="url(#p6f064d82f9)" style="fill: none; stroke: #0099ff; stroke-opacity: 0.5; stroke-linecap: square"/>
   </g>
   <g id="line2d_10">
    <path d="M 603.36 402.635625 
L 749.7 438.58375 
" clip-path="url(#p6f064d82f9)" style="fill: none; stroke: #0099ff; stroke-opacity: 0.5; stroke-linecap: square"/>
   </g>
   <g id="line2d_11">
    <path d="M 603.36 402.635625 
L 896.04 402.635625 
" clip-path="url(#p6f064d82f9)" style="fill: none; stroke: #0099ff; stroke-opacity: 0.5; stroke-linecap: square"/>
   </g>
   <g id="line2d_12">
    <path d="M 603.36 402.635625 
L 749.7 294.79125 
" clip-path="url(#p6f064d82f9)" style="fill: none; stroke: #0099ff; stroke-opacity: 0.5; stroke-linecap: square"/>
   </g>
   <g id="line2d_13">
    <path d="M 749.7 438.58375 
L 896.04 402.635625 
" clip-path="url(#p6f064d82f9)" style="fill: none; stroke: #0099ff; stroke-opacity: 0.5; stroke-linecap: square"/>
   </g>
   <g id="line2d_14">
    <path d="M 749.7 438.58375 
L 749.7 294.79125 
" clip-path="url(#p6f064d82f9)" style="fill: none; stroke: #0099ff; stroke-opacity: 0.5; stroke-linecap: square"/>
   </g>
   <g id="text_8">
    <!-- Sensor -->
    <g style="fill: #ffffff" transform="translate(589.8 189.020625) scale(0.08 -0.08)">
     <use xlink:href="#Arial-BoldMT-53"/>
     <use xlink:href="#Arial-BoldMT-65" transform="translate(66.699219 0)"/>
     <use xlink:href="#Arial-BoldMT-6e" transform="translate(122.314453 0)"/>
     <use xlink:href="#Arial-BoldMT-73" transform="translate(183.398438 0)"/>
     <use xlink:href="#Arial-BoldMT-6f" transform="translate(239.013672 0)"/>
     <use xlink:href="#Arial-BoldMT-72" transform="translate(300.097656 0)"/>
    </g>
   </g>
   <g id="text_9">
    <!-- C2 Node -->
    <g style="fill: #ffffff" transform="translate(733.47625 153.0725) scale(0.08 -0.08)">
     <defs>
      <path id="Arial-BoldMT-32" d="M 3238 816 
L 3238 0 
L 159 0 
Q 209 463 459 877 
Q 709 1291 1447 1975 
Q 2041 2528 2175 2725 
Q 2356 2997 2356 3263 
Q 2356 3556 2198 3714 
Q 2041 3872 1763 3872 
Q 1488 3872 1325 3706 
Q 1163 3541 1138 3156 
L 263 3244 
Q 341 3969 753 4284 
Q 1166 4600 1784 4600 
Q 2463 4600 2850 4234 
Q 3238 3869 3238 3325 
Q 3238 3016 3127 2736 
Q 3016 2456 2775 2150 
Q 2616 1947 2200 1565 
Q 1784 1184 1673 1059 
Q 1563 934 1494 816 
L 3238 816 
z
" transform="scale(0.015625)"/>
      <path id="Arial-BoldMT-4e" d="M 475 0 
L 475 4581 
L 1375 4581 
L 3250 1522 
L 3250 4581 
L 4109 4581 
L 4109 0 
L 3181 0 
L 1334 2988 
L 1334 0 
L 475 0 
z
" transform="scale(0.015625)"/>
     </defs>
     <use xlink:href="#Arial-BoldMT-43"/>
     <use xlink:href="#Arial-BoldMT-32" transform="translate(72.216797 0)"/>
     <use xlink:href="#Arial-BoldMT-20" transform="translate(127.832031 0)"/>
     <use xlink:href="#Arial-BoldMT-4e" transform="translate(155.615234 0)"/>
     <use xlink:href="#Arial-BoldMT-6f" transform="translate(227.832031 0)"/>
     <use xlink:href="#Arial-BoldMT-64" transform="translate(288.916016 0)"/>
     <use xlink:href="#Arial-BoldMT-65" transform="translate(350 0)"/>
    </g>
   </g>
   <g id="text_10">
    <!-- Shooter -->
    <g style="fill: #ffffff" transform="translate(880.929375 189.020625) scale(0.08 -0.08)">
     <use xlink:href="#Arial-BoldMT-53"/>
     <use xlink:href="#Arial-BoldMT-68" transform="translate(66.699219 0)"/>
     <use xlink:href="#Arial-BoldMT-6f" transform="translate(127.783203 0)"/>
     <use xlink:href="#Arial-BoldMT-6f" transform="translate(188.867188 0)"/>
     <use xlink:href="#Arial-BoldMT-74" transform="translate(249.951172 0)"/>
     <use xlink:href="#Arial-BoldMT-65" transform="translate(283.251953 0)"/>
     <use xlink:href="#Arial-BoldMT-72" transform="translate(338.867188 0)"/>
    </g>
   </g>
   <g id="text_11">
    <!-- ISR -->
    <g style="fill: #ffffff" transform="translate(596.691875 404.709375) scale(0.08 -0.08)">
     <defs>
      <path id="Arial-BoldMT-49" d="M 438 0 
L 438 4581 
L 1363 4581 
L 1363 0 
L 438 0 
z
" transform="scale(0.015625)"/>
      <path id="Arial-BoldMT-52" d="M 469 0 
L 469 4581 
L 2416 4581 
Q 3150 4581 3483 4457 
Q 3816 4334 4016 4018 
Q 4216 3703 4216 3297 
Q 4216 2781 3912 2445 
Q 3609 2109 3006 2022 
Q 3306 1847 3501 1637 
Q 3697 1428 4028 894 
L 4588 0 
L 3481 0 
L 2813 997 
Q 2456 1531 2325 1670 
Q 2194 1809 2047 1861 
Q 1900 1913 1581 1913 
L 1394 1913 
L 1394 0 
L 469 0 
z
M 1394 2644 
L 2078 2644 
Q 2744 2644 2909 2700 
Q 3075 2756 3169 2893 
Q 3263 3031 3263 3238 
Q 3263 3469 3139 3611 
Q 3016 3753 2791 3791 
Q 2678 3806 2116 3806 
L 1394 3806 
L 1394 2644 
z
" transform="scale(0.015625)"/>
     </defs>
     <use xlink:href="#Arial-BoldMT-49"/>
     <use xlink:href="#Arial-BoldMT-53" transform="translate(27.783203 0)"/>
     <use xlink:href="#Arial-BoldMT-52" transform="translate(94.482422 0)"/>
    </g>
   </g>
   <g id="text_12">
    <!-- LM -->
    <g style="fill: #ffffff" transform="translate(743.925 440.6575) scale(0.08 -0.08)">
     <defs>
      <path id="Arial-BoldMT-4d" d="M 453 0 
L 453 4581 
L 1838 4581 
L 2669 1456 
L 3491 4581 
L 4878 4581 
L 4878 0 
L 4019 0 
L 4019 3606 
L 3109 0 
L 2219 0 
L 1313 3606 
L 1313 0 
L 453 0 
z
" transform="scale(0.015625)"/>
     </defs>
     <use xlink:href="#Arial-BoldMT-4c"/>
     <use xlink:href="#Arial-BoldMT-4d" transform="translate(61.083984 0)"/>
    </g>
   </g>
   <g id="text_13">
    <!-- Artillery -->
    <g style="fill: #ffffff" transform="translate(880.923125 404.656875) scale(0.08 -0.08)">
     <defs>
      <path id="Arial-BoldMT-79" d="M 44 3319 
L 978 3319 
L 1772 963 
L 2547 3319 
L 3456 3319 
L 2284 125 
L 2075 -453 
Q 1959 -744 1854 -897 
Q 1750 -1050 1614 -1145 
Q 1478 -1241 1279 -1294 
Q 1081 -1347 831 -1347 
Q 578 -1347 334 -1294 
L 256 -606 
Q 463 -647 628 -647 
Q 934 -647 1081 -467 
Q 1228 -288 1306 -9 
L 44 3319 
z
" transform="scale(0.015625)"/>
     </defs>
     <use xlink:href="#Arial-BoldMT-41"/>
     <use xlink:href="#Arial-BoldMT-72" transform="translate(72.216797 0)"/>
     <use xlink:href="#Arial-BoldMT-74" transform="translate(111.132812 0)"/>
     <use xlink:href="#Arial-BoldMT-69" transform="translate(144.433594 0)"/>
     <use xlink:href="#Arial-BoldMT-6c" transform="translate(172.216797 0)"/>
     <use xlink:href="#Arial-BoldMT-6c" transform="translate(200 0)"/>
     <use xlink:href="#Arial-BoldMT-65" transform="translate(227.783203 0)"/>
     <use xlink:href="#Arial-BoldMT-72" transform="translate(283.398438 0)"/>
     <use xlink:href="#Arial-BoldMT-79" transform="translate(322.314453 0)"/>
    </g>
   </g>
   <g id="text_14">
    <!-- AI Router -->
    <g style="fill: #ffffff" transform="translate(731.700625 296.865) scale(0.08 -0.08)">
     <use xlink:href="#Arial-BoldMT-41"/>
     <use xlink:href="#Arial-BoldMT-49" transform="translate(72.216797 0)"/>
     <use xlink:href="#Arial-BoldMT-20" transform="translate(100 0)"/>
     <use xlink:href="#Arial-BoldMT-52" transform="translate(127.783203 0)"/>
     <use xlink:href="#Arial-BoldMT-6f" transform="translate(200 0)"/>
     <use xlink:href="#Arial-BoldMT-75" transform="translate(261.083984 0)"/>
     <use xlink:href="#Arial-BoldMT-74" transform="translate(322.167969 0)"/>
     <use xlink:href="#Arial-BoldMT-65" transform="translate(355.46875 0)"/>
     <use xlink:href="#Arial-BoldMT-72" transform="translate(411.083984 0)"/>
    </g>
   </g>
   <g id="text_15">
    <!-- Modern Kill Web -->
    <g style="fill: #003366" transform="translate(702.809063 60.251625) scale(0.12 -0.12)">
     <defs>
      <path id="Arial-BoldMT-57" d="M 1116 0 
L 22 4581 
L 969 4581 
L 1659 1434 
L 2497 4581 
L 3597 4581 
L 4400 1381 
L 5103 4581 
L 6034 4581 
L 4922 0 
L 3941 0 
L 3028 3425 
L 2119 0 
L 1116 0 
z
" transform="scale(0.015625)"/>
      <path id="Arial-BoldMT-62" d="M 422 0 
L 422 4581 
L 1300 4581 
L 1300 2931 
Q 1706 3394 2263 3394 
Q 2869 3394 3266 2955 
Q 3663 2516 3663 1694 
Q 3663 844 3258 384 
Q 2853 -75 2275 -75 
Q 1991 -75 1714 67 
Q 1438 209 1238 488 
L 1238 0 
L 422 0 
z
M 1294 1731 
Q 1294 1216 1456 969 
Q 1684 619 2063 619 
Q 2353 619 2558 867 
Q 2763 1116 2763 1650 
Q 2763 2219 2556 2470 
Q 2350 2722 2028 2722 
Q 1713 2722 1503 2476 
Q 1294 2231 1294 1731 
z
" transform="scale(0.015625)"/>
     </defs>
     <use xlink:href="#Arial-BoldMT-4d"/>
     <use xlink:href="#Arial-BoldMT-6f" transform="translate(83.300781 0)"/>
     <use xlink:href="#Arial-BoldMT-64" transform="translate(144.384766 0)"/>
     <use xlink:href="#Arial-BoldMT-65" transform="translate(205.46875 0)"/>
     <use xlink:href="#Arial-BoldMT-72" transform="translate(261.083984 0)"/>
     <use xlink:href="#Arial-BoldMT-6e" transform="translate(300 0)"/>
     <use xlink:href="#Arial-BoldMT-20" transform="translate(361.083984 0)"/>
     <use xlink:href="#Arial-BoldMT-4b" transform="translate(388.867188 0)"/>
     <use xlink:href="#Arial-BoldMT-69" transform="translate(461.083984 0)"/>
     <use xlink:href="#Arial-BoldMT-6c" transform="translate(488.867188 0)"/>
     <use xlink:href="#Arial-BoldMT-6c" transform="translate(516.650391 0)"/>
     <use xlink:href="#Arial-BoldMT-20" transform="translate(544.433594 0)"/>
     <use xlink:href="#Arial-BoldMT-57" transform="translate(572.216797 0)"/>
     <use xlink:href="#Arial-BoldMT-65" transform="translate(664.851562 0)"/>
     <use xlink:href="#Arial-BoldMT-62" transform="translate(720.466797 0)"/>
    </g>
    <!-- (Dynamic, Multi-Node) -->
    <g style="fill: #003366" transform="translate(686.37 73.1025) scale(0.12 -0.12)">
     <defs>
      <path id="Arial-BoldMT-44" d="M 463 4581 
L 2153 4581 
Q 2725 4581 3025 4494 
Q 3428 4375 3715 4072 
Q 4003 3769 4153 3330 
Q 4303 2891 4303 2247 
Q 4303 1681 4163 1272 
Q 3991 772 3672 463 
Q 3431 228 3022 97 
Q 2716 0 2203 0 
L 463 0 
L 463 4581 
z
M 1388 3806 
L 1388 772 
L 2078 772 
Q 2466 772 2638 816 
Q 2863 872 3011 1006 
Q 3159 1141 3253 1448 
Q 3347 1756 3347 2288 
Q 3347 2819 3253 3103 
Q 3159 3388 2990 3547 
Q 2822 3706 2563 3763 
Q 2369 3806 1803 3806 
L 1388 3806 
z
" transform="scale(0.015625)"/>
      <path id="Arial-BoldMT-6d" d="M 394 3319 
L 1203 3319 
L 1203 2866 
Q 1638 3394 2238 3394 
Q 2556 3394 2790 3262 
Q 3025 3131 3175 2866 
Q 3394 3131 3647 3262 
Q 3900 3394 4188 3394 
Q 4553 3394 4806 3245 
Q 5059 3097 5184 2809 
Q 5275 2597 5275 2122 
L 5275 0 
L 4397 0 
L 4397 1897 
Q 4397 2391 4306 2534 
Q 4184 2722 3931 2722 
Q 3747 2722 3584 2609 
Q 3422 2497 3350 2280 
Q 3278 2063 3278 1594 
L 3278 0 
L 2400 0 
L 2400 1819 
Q 2400 2303 2353 2443 
Q 2306 2584 2207 2653 
Q 2109 2722 1941 2722 
Q 1738 2722 1575 2612 
Q 1413 2503 1342 2297 
Q 1272 2091 1272 1613 
L 1272 0 
L 394 0 
L 394 3319 
z
" transform="scale(0.015625)"/>
      <path id="Arial-BoldMT-2d" d="M 359 1222 
L 359 2100 
L 2084 2100 
L 2084 1222 
L 359 1222 
z
" transform="scale(0.015625)"/>
     </defs>
     <use xlink:href="#Arial-BoldMT-28"/>
     <use xlink:href="#Arial-BoldMT-44" transform="translate(33.300781 0)"/>
     <use xlink:href="#Arial-BoldMT-79" transform="translate(105.517578 0)"/>
     <use xlink:href="#Arial-BoldMT-6e" transform="translate(161.132812 0)"/>
     <use xlink:href="#Arial-BoldMT-61" transform="translate(222.216797 0)"/>
     <use xlink:href="#Arial-BoldMT-6d" transform="translate(277.832031 0)"/>
     <use xlink:href="#Arial-BoldMT-69" transform="translate(366.748047 0)"/>
     <use xlink:href="#Arial-BoldMT-63" transform="translate(394.53125 0)"/>
     <use xlink:href="#Arial-BoldMT-2c" transform="translate(450.146484 0)"/>
     <use xlink:href="#Arial-BoldMT-20" transform="translate(477.929688 0)"/>
     <use xlink:href="#Arial-BoldMT-4d" transform="translate(505.712891 0)"/>
     <use xlink:href="#Arial-BoldMT-75" transform="translate(589.013672 0)"/>
     <use xlink:href="#Arial-BoldMT-6c" transform="translate(650.097656 0)"/>
     <use xlink:href="#Arial-BoldMT-74" transform="translate(677.880859 0)"/>
     <use xlink:href="#Arial-BoldMT-69" transform="translate(711.181641 0)"/>
     <use xlink:href="#Arial-BoldMT-2d" transform="translate(738.964844 0)"/>
     <use xlink:href="#Arial-BoldMT-4e" transform="translate(772.265625 0)"/>
     <use xlink:href="#Arial-BoldMT-6f" transform="translate(844.482422 0)"/>
     <use xlink:href="#Arial-BoldMT-64" transform="translate(905.566406 0)"/>
     <use xlink:href="#Arial-BoldMT-65" transform="translate(966.650391 0)"/>
     <use xlink:href="#Arial-BoldMT-29" transform="translate(1022.265625 0)"/>
    </g>
   </g>
  </g>
  <g id="text_16">
   <!-- Figure 4.4: Evolution from Linear Kill Chain to Dynamic Kill Web -->
   <g style="fill: #003366" transform="translate(287.399844 17.391563) scale(0.14 -0.14)">
    <defs>
     <path id="Arial-BoldMT-34" d="M 1994 0 
L 1994 922 
L 119 922 
L 119 1691 
L 2106 4600 
L 2844 4600 
L 2844 1694 
L 3413 1694 
L 3413 922 
L 2844 922 
L 2844 0 
L 1994 0 
z
M 1994 1694 
L 1994 3259 
L 941 1694 
L 1994 1694 
z
" transform="scale(0.015625)"/>
     <path id="Arial-BoldMT-2e" d="M 459 0 
L 459 878 
L 1338 878 
L 1338 0 
L 459 0 
z
" transform="scale(0.015625)"/>
     <path id="Arial-BoldMT-3a" d="M 628 2441 
L 628 3319 
L 1506 3319 
L 1506 2441 
L 628 2441 
z
M 628 0 
L 628 878 
L 1506 878 
L 1506 0 
L 628 0 
z
" transform="scale(0.015625)"/>
     <path id="Arial-BoldMT-76" d="M 1372 0 
L 34 3319 
L 956 3319 
L 1581 1625 
L 1763 1059 
Q 1834 1275 1853 1344 
Q 1897 1484 1947 1625 
L 2578 3319 
L 3481 3319 
L 2163 0 
L 1372 0 
z
" transform="scale(0.015625)"/>
     <path id="Arial-BoldMT-66" d="M 75 3319 
L 563 3319 
L 563 3569 
Q 563 3988 652 4194 
Q 741 4400 980 4529 
Q 1219 4659 1584 4659 
Q 1959 4659 2319 4547 
L 2200 3934 
Q 1991 3984 1797 3984 
Q 1606 3984 1523 3895 
Q 1441 3806 1441 3553 
L 1441 3319 
L 2097 3319 
L 2097 2628 
L 1441 2628 
L 1441 0 
L 563 0 
L 563 2628 
L 75 2628 
L 75 3319 
z
" transform="scale(0.015625)"/>
    </defs>
    <use xlink:href="#Arial-BoldMT-46"/>
    <use xlink:href="#Arial-BoldMT-69" transform="translate(61.083984 0)"/>
    <use xlink:href="#Arial-BoldMT-67" transform="translate(88.867188 0)"/>
    <use xlink:href="#Arial-BoldMT-75" transform="translate(149.951172 0)"/>
    <use xlink:href="#Arial-BoldMT-72" transform="translate(211.035156 0)"/>
    <use xlink:href="#Arial-BoldMT-65" transform="translate(249.951172 0)"/>
    <use xlink:href="#Arial-BoldMT-20" transform="translate(305.566406 0)"/>
    <use xlink:href="#Arial-BoldMT-34" transform="translate(333.349609 0)"/>
    <use xlink:href="#Arial-BoldMT-2e" transform="translate(388.964844 0)"/>
    <use xlink:href="#Arial-BoldMT-34" transform="translate(416.748047 0)"/>
    <use xlink:href="#Arial-BoldMT-3a" transform="translate(472.363281 0)"/>
    <use xlink:href="#Arial-BoldMT-20" transform="translate(505.664062 0)"/>
    <use xlink:href="#Arial-BoldMT-45" transform="translate(533.447266 0)"/>
    <use xlink:href="#Arial-BoldMT-76" transform="translate(600.146484 0)"/>
    <use xlink:href="#Arial-BoldMT-6f" transform="translate(655.761719 0)"/>
    <use xlink:href="#Arial-BoldMT-6c" transform="translate(716.845703 0)"/>
    <use xlink:href="#Arial-BoldMT-75" transform="translate(744.628906 0)"/>
    <use xlink:href="#Arial-BoldMT-74" transform="translate(805.712891 0)"/>
    <use xlink:href="#Arial-BoldMT-69" transform="translate(839.013672 0)"/>
    <use xlink:href="#Arial-BoldMT-6f" transform="translate(866.796875 0)"/>
    <use xlink:href="#Arial-BoldMT-6e" transform="translate(927.880859 0)"/>
    <use xlink:href="#Arial-BoldMT-20" transform="translate(988.964844 0)"/>
    <use xlink:href="#Arial-BoldMT-66" transform="translate(1016.748047 0)"/>
    <use xlink:href="#Arial-BoldMT-72" transform="translate(1050.048828 0)"/>
    <use xlink:href="#Arial-BoldMT-6f" transform="translate(1088.964844 0)"/>
    <use xlink:href="#Arial-BoldMT-6d" transform="translate(1150.048828 0)"/>
    <use xlink:href="#Arial-BoldMT-20" transform="translate(1238.964844 0)"/>
    <use xlink:href="#Arial-BoldMT-4c" transform="translate(1266.748047 0)"/>
    <use xlink:href="#Arial-BoldMT-69" transform="translate(1327.832031 0)"/>
    <use xlink:href="#Arial-BoldMT-6e" transform="translate(1355.615234 0)"/>
    <use xlink:href="#Arial-BoldMT-65" transform="translate(1416.699219 0)"/>
    <use xlink:href="#Arial-BoldMT-61" transform="translate(1472.314453 0)"/>
    <use xlink:href="#Arial-BoldMT-72" transform="translate(1527.929688 0)"/>
    <use xlink:href="#Arial-BoldMT-20" transform="translate(1566.845703 0)"/>
    <use xlink:href="#Arial-BoldMT-4b" transform="translate(1594.628906 0)"/>
    <use xlink:href="#Arial-BoldMT-69" transform="translate(1666.845703 0)"/>
    <use xlink:href="#Arial-BoldMT-6c" transform="translate(1694.628906 0)"/>
    <use xlink:href="#Arial-BoldMT-6c" transform="translate(1722.412109 0)"/>
    <use xlink:href="#Arial-BoldMT-20" transform="translate(1750.195312 0)"/>
    <use xlink:href="#Arial-BoldMT-43" transform="translate(1777.978516 0)"/>
    <use xlink:href="#Arial-BoldMT-68" transform="translate(1850.195312 0)"/>
    <use xlink:href="#Arial-BoldMT-61" transform="translate(1911.279297 0)"/>
    <use xlink:href="#Arial-BoldMT-69" transform="translate(1966.894531 0)"/>
    <use xlink:href="#Arial-BoldMT-6e" transform="translate(1994.677734 0)"/>
    <use xlink:href="#Arial-BoldMT-20" transform="translate(2055.761719 0)"/>
    <use xlink:href="#Arial-BoldMT-74" transform="translate(2083.544922 0)"/>
    <use xlink:href="#Arial-BoldMT-6f" transform="translate(2116.845703 0)"/>
    <use xlink:href="#Arial-BoldMT-20" transform="translate(2177.929688 0)"/>
    <use xlink:href="#Arial-BoldMT-44" transform="translate(2205.712891 0)"/>
    <use xlink:href="#Arial-BoldMT-79" transform="translate(2277.929688 0)"/>
    <use xlink:href="#Arial-BoldMT-6e" transform="translate(2333.544922 0)"/>
    <use xlink:href="#Arial-BoldMT-61" transform="translate(2394.628906 0)"/>
    <use xlink:href="#Arial-BoldMT-6d" transform="translate(2450.244141 0)"/>
    <use xlink:href="#Arial-BoldMT-69" transform="translate(2539.160156 0)"/>
    <use xlink:href="#Arial-BoldMT-63" transform="translate(2566.943359 0)"/>
    <use xlink:href="#Arial-BoldMT-20" transform="translate(2622.558594 0)"/>
    <use xlink:href="#Arial-BoldMT-4b" transform="translate(2650.341797 0)"/>
    <use xlink:href="#Arial-BoldMT-69" transform="translate(2722.558594 0)"/>
    <use xlink:href="#Arial-BoldMT-6c" transform="translate(2750.341797 0)"/>
    <use xlink:href="#Arial-BoldMT-6c" transform="translate(2778.125 0)"/>
    <use xlink:href="#Arial-BoldMT-20" transform="translate(2805.908203 0)"/>
    <use xlink:href="#Arial-BoldMT-57" transform="translate(2833.691406 0)"/>
    <use xlink:href="#Arial-BoldMT-65" transform="translate(2926.326172 0)"/>
    <use xlink:href="#Arial-BoldMT-62" transform="translate(2981.941406 0)"/>
   </g>
  </g>
 </g>
 <defs>
  <clipPath id="p36d1c9b3a2">
   <rect x="7.2" y="79.1025" width="487.8" height="431.3775"/>
  </clipPath>
  <clipPath id="p6f064d82f9">
   <rect x="505.8" y="79.1025" width="487.8" height="431.3775"/>
  </clipPath>
 </defs>
</svg>
