<?xml version="1.0" encoding="utf-8" standalone="no"?>
<!DOCTYPE svg PUBLIC "-//W3C//DTD SVG 1.1//EN"
  "http://www.w3.org/Graphics/SVG/1.1/DTD/svg11.dtd">
<svg xmlns:xlink="http://www.w3.org/1999/xlink" width="852.75383pt" height="359.396094pt" viewBox="0 0 852.75383 359.396094" xmlns="http://www.w3.org/2000/svg" version="1.1">
 <title>04 Regulatory Timeline</title>
 <metadata>
  <rdf:RDF xmlns:dc="http://purl.org/dc/elements/1.1/" xmlns:cc="http://creativecommons.org/ns#" xmlns:rdf="http://www.w3.org/1999/02/22-rdf-syntax-ns#">
   <cc:Work>
    <dc:type rdf:resource="http://purl.org/dc/dcmitype/StillImage"/>
    <dc:title>04 Regulatory Timeline</dc:title>
    <dc:date>2026-07-09T01:46:44.219547</dc:date>
    <dc:format>image/svg+xml</dc:format>
    <dc:creator>
     <cc:Agent>
      <dc:title>Techadyant Industry Intelligence</dc:title>
     </cc:Agent>
    </dc:creator>
   </cc:Work>
  </rdf:RDF>
 </metadata>
 <defs>
  <style type="text/css">*{stroke-linejoin: round; stroke-linecap: butt}</style>
 </defs>
 <g id="figure_1">
  <g id="patch_1">
   <path d="M 0 359.396094 
L 852.75383 359.396094 
L 852.75383 0 
L 0 0 
z
" style="fill: #ffffff"/>
  </g>
  <g id="axes_1">
   <g id="patch_2">
    <path d="M 10.8 331.917969 
L 841.95383 331.917969 
L 841.95383 40.677969 
L 10.8 40.677969 
z
" style="fill: #ffffff"/>
   </g>
   <g id="line2d_1">
    <path d="M 10.8 186.297969 
L 841.95383 186.297969 
" clip-path="url(#pba422c85a4)" style="fill: none; stroke: #0b1c2c; stroke-width: 2; stroke-linecap: square"/>
   </g>
   <g id="matplotlib.axis_1">
    <g id="xtick_1">
     <g id="line2d_2">
      <defs>
       <path id="m9b0f750469" d="M 0 0 
L 0 3.5 
" style="stroke: #000000; stroke-width: 0.8"/>
      </defs>
      <g>
       <use xlink:href="#m9b0f750469" x="72.694434" y="331.917969" style="stroke: #000000; stroke-width: 0.8"/>
      </g>
     </g>
     <g id="text_1">
      <!-- 2018 -->
      <g style="fill: #3d4a5c" transform="translate(59.969434 346.516406) scale(0.1 -0.1)">
       <defs>
        <path id="DejaVuSans-32" d="M 1228 531 
L 3431 531 
L 3431 0 
L 469 0 
L 469 531 
Q 828 903 1448 1529 
Q 2069 2156 2228 2338 
Q 2531 2678 2651 2914 
Q 2772 3150 2772 3378 
Q 2772 3750 2511 3984 
Q 2250 4219 1831 4219 
Q 1534 4219 1204 4116 
Q 875 4013 500 3803 
L 500 4441 
Q 881 4594 1212 4672 
Q 1544 4750 1819 4750 
Q 2544 4750 2975 4387 
Q 3406 4025 3406 3419 
Q 3406 3131 3298 2873 
Q 3191 2616 2906 2266 
Q 2828 2175 2409 1742 
Q 1991 1309 1228 531 
z
" transform="scale(0.015625)"/>
        <path id="DejaVuSans-30" d="M 2034 4250 
Q 1547 4250 1301 3770 
Q 1056 3291 1056 2328 
Q 1056 1369 1301 889 
Q 1547 409 2034 409 
Q 2525 409 2770 889 
Q 3016 1369 3016 2328 
Q 3016 3291 2770 3770 
Q 2525 4250 2034 4250 
z
M 2034 4750 
Q 2819 4750 3233 4129 
Q 3647 3509 3647 2328 
Q 3647 1150 3233 529 
Q 2819 -91 2034 -91 
Q 1250 -91 836 529 
Q 422 1150 422 2328 
Q 422 3509 836 4129 
Q 1250 4750 2034 4750 
z
" transform="scale(0.015625)"/>
        <path id="DejaVuSans-31" d="M 794 531 
L 1825 531 
L 1825 4091 
L 703 3866 
L 703 4441 
L 1819 4666 
L 2450 4666 
L 2450 531 
L 3481 531 
L 3481 0 
L 794 0 
L 794 531 
z
" transform="scale(0.015625)"/>
        <path id="DejaVuSans-38" d="M 2034 2216 
Q 1584 2216 1326 1975 
Q 1069 1734 1069 1313 
Q 1069 891 1326 650 
Q 1584 409 2034 409 
Q 2484 409 2743 651 
Q 3003 894 3003 1313 
Q 3003 1734 2745 1975 
Q 2488 2216 2034 2216 
z
M 1403 2484 
Q 997 2584 770 2862 
Q 544 3141 544 3541 
Q 544 4100 942 4425 
Q 1341 4750 2034 4750 
Q 2731 4750 3128 4425 
Q 3525 4100 3525 3541 
Q 3525 3141 3298 2862 
Q 3072 2584 2669 2484 
Q 3125 2378 3379 2068 
Q 3634 1759 3634 1313 
Q 3634 634 3220 271 
Q 2806 -91 2034 -91 
Q 1263 -91 848 271 
Q 434 634 434 1313 
Q 434 1759 690 2068 
Q 947 2378 1403 2484 
z
M 1172 3481 
Q 1172 3119 1398 2916 
Q 1625 2713 2034 2713 
Q 2441 2713 2670 2916 
Q 2900 3119 2900 3481 
Q 2900 3844 2670 4047 
Q 2441 4250 2034 4250 
Q 1625 4250 1398 4047 
Q 1172 3844 1172 3481 
z
" transform="scale(0.015625)"/>
       </defs>
       <use xlink:href="#DejaVuSans-32"/>
       <use xlink:href="#DejaVuSans-30" x="63.623047"/>
       <use xlink:href="#DejaVuSans-31" x="127.246094"/>
       <use xlink:href="#DejaVuSans-38" x="190.869141"/>
      </g>
     </g>
    </g>
    <g id="xtick_2">
     <g id="line2d_3">
      <g>
       <use xlink:href="#m9b0f750469" x="161.115054" y="331.917969" style="stroke: #000000; stroke-width: 0.8"/>
      </g>
     </g>
     <g id="text_2">
      <!-- 2019 -->
      <g style="fill: #3d4a5c" transform="translate(148.390054 346.516406) scale(0.1 -0.1)">
       <defs>
        <path id="DejaVuSans-39" d="M 703 97 
L 703 672 
Q 941 559 1184 500 
Q 1428 441 1663 441 
Q 2288 441 2617 861 
Q 2947 1281 2994 2138 
Q 2813 1869 2534 1725 
Q 2256 1581 1919 1581 
Q 1219 1581 811 2004 
Q 403 2428 403 3163 
Q 403 3881 828 4315 
Q 1253 4750 1959 4750 
Q 2769 4750 3195 4129 
Q 3622 3509 3622 2328 
Q 3622 1225 3098 567 
Q 2575 -91 1691 -91 
Q 1453 -91 1209 -44 
Q 966 3 703 97 
z
M 1959 2075 
Q 2384 2075 2632 2365 
Q 2881 2656 2881 3163 
Q 2881 3666 2632 3958 
Q 2384 4250 1959 4250 
Q 1534 4250 1286 3958 
Q 1038 3666 1038 3163 
Q 1038 2656 1286 2365 
Q 1534 2075 1959 2075 
z
" transform="scale(0.015625)"/>
       </defs>
       <use xlink:href="#DejaVuSans-32"/>
       <use xlink:href="#DejaVuSans-30" x="63.623047"/>
       <use xlink:href="#DejaVuSans-31" x="127.246094"/>
       <use xlink:href="#DejaVuSans-39" x="190.869141"/>
      </g>
     </g>
    </g>
    <g id="xtick_3">
     <g id="line2d_4">
      <g>
       <use xlink:href="#m9b0f750469" x="337.956295" y="331.917969" style="stroke: #000000; stroke-width: 0.8"/>
      </g>
     </g>
     <g id="text_3">
      <!-- 2021 -->
      <g style="fill: #3d4a5c" transform="translate(325.231295 346.516406) scale(0.1 -0.1)">
       <use xlink:href="#DejaVuSans-32"/>
       <use xlink:href="#DejaVuSans-30" x="63.623047"/>
       <use xlink:href="#DejaVuSans-32" x="127.246094"/>
       <use xlink:href="#DejaVuSans-31" x="190.869141"/>
      </g>
     </g>
    </g>
    <g id="xtick_4">
     <g id="line2d_5">
      <g>
       <use xlink:href="#m9b0f750469" x="337.956295" y="331.917969" style="stroke: #000000; stroke-width: 0.8"/>
      </g>
     </g>
     <g id="text_4">
      <!-- 2021 -->
      <g style="fill: #3d4a5c" transform="translate(325.231295 346.516406) scale(0.1 -0.1)">
       <use xlink:href="#DejaVuSans-32"/>
       <use xlink:href="#DejaVuSans-30" x="63.623047"/>
       <use xlink:href="#DejaVuSans-32" x="127.246094"/>
       <use xlink:href="#DejaVuSans-31" x="190.869141"/>
      </g>
     </g>
    </g>
    <g id="xtick_5">
     <g id="line2d_6">
      <g>
       <use xlink:href="#m9b0f750469" x="426.376915" y="331.917969" style="stroke: #000000; stroke-width: 0.8"/>
      </g>
     </g>
     <g id="text_5">
      <!-- 2022 -->
      <g style="fill: #3d4a5c" transform="translate(413.651915 346.516406) scale(0.1 -0.1)">
       <use xlink:href="#DejaVuSans-32"/>
       <use xlink:href="#DejaVuSans-30" x="63.623047"/>
       <use xlink:href="#DejaVuSans-32" x="127.246094"/>
       <use xlink:href="#DejaVuSans-32" x="190.869141"/>
      </g>
     </g>
    </g>
    <g id="xtick_6">
     <g id="line2d_7">
      <g>
       <use xlink:href="#m9b0f750469" x="426.376915" y="331.917969" style="stroke: #000000; stroke-width: 0.8"/>
      </g>
     </g>
     <g id="text_6">
      <!-- 2022 -->
      <g style="fill: #3d4a5c" transform="translate(413.651915 346.516406) scale(0.1 -0.1)">
       <use xlink:href="#DejaVuSans-32"/>
       <use xlink:href="#DejaVuSans-30" x="63.623047"/>
       <use xlink:href="#DejaVuSans-32" x="127.246094"/>
       <use xlink:href="#DejaVuSans-32" x="190.869141"/>
      </g>
     </g>
    </g>
    <g id="xtick_7">
     <g id="line2d_8">
      <g>
       <use xlink:href="#m9b0f750469" x="514.797535" y="331.917969" style="stroke: #000000; stroke-width: 0.8"/>
      </g>
     </g>
     <g id="text_7">
      <!-- 2023 -->
      <g style="fill: #3d4a5c" transform="translate(502.072535 346.516406) scale(0.1 -0.1)">
       <defs>
        <path id="DejaVuSans-33" d="M 2597 2516 
Q 3050 2419 3304 2112 
Q 3559 1806 3559 1356 
Q 3559 666 3084 287 
Q 2609 -91 1734 -91 
Q 1441 -91 1130 -33 
Q 819 25 488 141 
L 488 750 
Q 750 597 1062 519 
Q 1375 441 1716 441 
Q 2309 441 2620 675 
Q 2931 909 2931 1356 
Q 2931 1769 2642 2001 
Q 2353 2234 1838 2234 
L 1294 2234 
L 1294 2753 
L 1863 2753 
Q 2328 2753 2575 2939 
Q 2822 3125 2822 3475 
Q 2822 3834 2567 4026 
Q 2313 4219 1838 4219 
Q 1578 4219 1281 4162 
Q 984 4106 628 3988 
L 628 4550 
Q 988 4650 1302 4700 
Q 1616 4750 1894 4750 
Q 2613 4750 3031 4423 
Q 3450 4097 3450 3541 
Q 3450 3153 3228 2886 
Q 3006 2619 2597 2516 
z
" transform="scale(0.015625)"/>
       </defs>
       <use xlink:href="#DejaVuSans-32"/>
       <use xlink:href="#DejaVuSans-30" x="63.623047"/>
       <use xlink:href="#DejaVuSans-32" x="127.246094"/>
       <use xlink:href="#DejaVuSans-33" x="190.869141"/>
      </g>
     </g>
    </g>
    <g id="xtick_8">
     <g id="line2d_9">
      <g>
       <use xlink:href="#m9b0f750469" x="603.218155" y="331.917969" style="stroke: #000000; stroke-width: 0.8"/>
      </g>
     </g>
     <g id="text_8">
      <!-- 2024 -->
      <g style="fill: #3d4a5c" transform="translate(590.493155 346.516406) scale(0.1 -0.1)">
       <defs>
        <path id="DejaVuSans-34" d="M 2419 4116 
L 825 1625 
L 2419 1625 
L 2419 4116 
z
M 2253 4666 
L 3047 4666 
L 3047 1625 
L 3713 1625 
L 3713 1100 
L 3047 1100 
L 3047 0 
L 2419 0 
L 2419 1100 
L 313 1100 
L 313 1709 
L 2253 4666 
z
" transform="scale(0.015625)"/>
       </defs>
       <use xlink:href="#DejaVuSans-32"/>
       <use xlink:href="#DejaVuSans-30" x="63.623047"/>
       <use xlink:href="#DejaVuSans-32" x="127.246094"/>
       <use xlink:href="#DejaVuSans-34" x="190.869141"/>
      </g>
     </g>
    </g>
    <g id="xtick_9">
     <g id="line2d_10">
      <g>
       <use xlink:href="#m9b0f750469" x="691.638775" y="331.917969" style="stroke: #000000; stroke-width: 0.8"/>
      </g>
     </g>
     <g id="text_9">
      <!-- 2025 -->
      <g style="fill: #3d4a5c" transform="translate(678.913775 346.516406) scale(0.1 -0.1)">
       <defs>
        <path id="DejaVuSans-35" d="M 691 4666 
L 3169 4666 
L 3169 4134 
L 1269 4134 
L 1269 2991 
Q 1406 3038 1543 3061 
Q 1681 3084 1819 3084 
Q 2600 3084 3056 2656 
Q 3513 2228 3513 1497 
Q 3513 744 3044 326 
Q 2575 -91 1722 -91 
Q 1428 -91 1123 -41 
Q 819 9 494 109 
L 494 744 
Q 775 591 1075 516 
Q 1375 441 1709 441 
Q 2250 441 2565 725 
Q 2881 1009 2881 1497 
Q 2881 1984 2565 2268 
Q 2250 2553 1709 2553 
Q 1456 2553 1204 2497 
Q 953 2441 691 2322 
L 691 4666 
z
" transform="scale(0.015625)"/>
       </defs>
       <use xlink:href="#DejaVuSans-32"/>
       <use xlink:href="#DejaVuSans-30" x="63.623047"/>
       <use xlink:href="#DejaVuSans-32" x="127.246094"/>
       <use xlink:href="#DejaVuSans-35" x="190.869141"/>
      </g>
     </g>
    </g>
    <g id="xtick_10">
     <g id="line2d_11">
      <g>
       <use xlink:href="#m9b0f750469" x="780.059396" y="331.917969" style="stroke: #000000; stroke-width: 0.8"/>
      </g>
     </g>
     <g id="text_10">
      <!-- 2026 -->
      <g style="fill: #3d4a5c" transform="translate(767.334396 346.516406) scale(0.1 -0.1)">
       <defs>
        <path id="DejaVuSans-36" d="M 2113 2584 
Q 1688 2584 1439 2293 
Q 1191 2003 1191 1497 
Q 1191 994 1439 701 
Q 1688 409 2113 409 
Q 2538 409 2786 701 
Q 3034 994 3034 1497 
Q 3034 2003 2786 2293 
Q 2538 2584 2113 2584 
z
M 3366 4563 
L 3366 3988 
Q 3128 4100 2886 4159 
Q 2644 4219 2406 4219 
Q 1781 4219 1451 3797 
Q 1122 3375 1075 2522 
Q 1259 2794 1537 2939 
Q 1816 3084 2150 3084 
Q 2853 3084 3261 2657 
Q 3669 2231 3669 1497 
Q 3669 778 3244 343 
Q 2819 -91 2113 -91 
Q 1303 -91 875 529 
Q 447 1150 447 2328 
Q 447 3434 972 4092 
Q 1497 4750 2381 4750 
Q 2619 4750 2861 4703 
Q 3103 4656 3366 4563 
z
" transform="scale(0.015625)"/>
       </defs>
       <use xlink:href="#DejaVuSans-32"/>
       <use xlink:href="#DejaVuSans-30" x="63.623047"/>
       <use xlink:href="#DejaVuSans-32" x="127.246094"/>
       <use xlink:href="#DejaVuSans-36" x="190.869141"/>
      </g>
     </g>
    </g>
   </g>
   <g id="matplotlib.axis_2"/>
   <g id="line2d_12">
    <path d="M 72.694434 186.297969 
L 72.694434 131.690469 
" clip-path="url(#pba422c85a4)" style="fill: none; stroke-dasharray: 3.7,1.6; stroke-dashoffset: 0; stroke: #7b8794"/>
   </g>
   <g id="line2d_13">
    <path d="M 161.115054 186.297969 
L 161.115054 240.905469 
" clip-path="url(#pba422c85a4)" style="fill: none; stroke-dasharray: 3.7,1.6; stroke-dashoffset: 0; stroke: #7b8794"/>
   </g>
   <g id="line2d_14">
    <path d="M 337.956295 186.297969 
L 337.956295 131.690469 
" clip-path="url(#pba422c85a4)" style="fill: none; stroke-dasharray: 3.7,1.6; stroke-dashoffset: 0; stroke: #7b8794"/>
   </g>
   <g id="line2d_15">
    <path d="M 337.956295 186.297969 
L 337.956295 240.905469 
" clip-path="url(#pba422c85a4)" style="fill: none; stroke-dasharray: 3.7,1.6; stroke-dashoffset: 0; stroke: #7b8794"/>
   </g>
   <g id="line2d_16">
    <path d="M 426.376915 186.297969 
L 426.376915 240.905469 
" clip-path="url(#pba422c85a4)" style="fill: none; stroke-dasharray: 3.7,1.6; stroke-dashoffset: 0; stroke: #7b8794"/>
   </g>
   <g id="line2d_17">
    <path d="M 426.376915 186.297969 
L 426.376915 131.690469 
" clip-path="url(#pba422c85a4)" style="fill: none; stroke-dasharray: 3.7,1.6; stroke-dashoffset: 0; stroke: #7b8794"/>
   </g>
   <g id="line2d_18">
    <path d="M 514.797535 186.297969 
L 514.797535 240.905469 
" clip-path="url(#pba422c85a4)" style="fill: none; stroke-dasharray: 3.7,1.6; stroke-dashoffset: 0; stroke: #7b8794"/>
   </g>
   <g id="line2d_19">
    <path d="M 603.218155 186.297969 
L 603.218155 131.690469 
" clip-path="url(#pba422c85a4)" style="fill: none; stroke-dasharray: 3.7,1.6; stroke-dashoffset: 0; stroke: #7b8794"/>
   </g>
   <g id="line2d_20">
    <path d="M 691.638775 186.297969 
L 691.638775 240.905469 
" clip-path="url(#pba422c85a4)" style="fill: none; stroke-dasharray: 3.7,1.6; stroke-dashoffset: 0; stroke: #7b8794"/>
   </g>
   <g id="line2d_21">
    <path d="M 780.059396 186.297969 
L 780.059396 131.690469 
" clip-path="url(#pba422c85a4)" style="fill: none; stroke-dasharray: 3.7,1.6; stroke-dashoffset: 0; stroke: #7b8794"/>
   </g>
   <g id="line2d_22">
    <defs>
     <path id="md297903517" d="M 0 5.5 
C 1.458617 5.5 2.857689 4.920485 3.889087 3.889087 
C 4.920485 2.857689 5.5 1.458617 5.5 0 
C 5.5 -1.458617 4.920485 -2.857689 3.889087 -3.889087 
C 2.857689 -4.920485 1.458617 -5.5 0 -5.5 
C -1.458617 -5.5 -2.857689 -4.920485 -3.889087 -3.889087 
C -4.920485 -2.857689 -5.5 -1.458617 -5.5 0 
C -5.5 1.458617 -4.920485 2.857689 -3.889087 3.889087 
C -2.857689 4.920485 -1.458617 5.5 0 5.5 
z
" style="stroke: #00a9e0"/>
    </defs>
    <g clip-path="url(#pba422c85a4)">
     <use xlink:href="#md297903517" x="72.694434" y="186.297969" style="fill: #00a9e0; stroke: #00a9e0"/>
    </g>
   </g>
   <g id="text_11">
    <!-- DGCA draft drone rules -->
    <g style="fill: #0b1c2c" transform="translate(16.988887 120.338188) scale(0.085 -0.085)">
     <defs>
      <path id="DejaVuSans-Bold-44" d="M 1791 3756 
L 1791 909 
L 2222 909 
Q 2959 909 3348 1275 
Q 3738 1641 3738 2338 
Q 3738 3031 3350 3393 
Q 2963 3756 2222 3756 
L 1791 3756 
z
M 588 4666 
L 1856 4666 
Q 2919 4666 3439 4514 
Q 3959 4363 4331 4000 
Q 4659 3684 4818 3271 
Q 4978 2859 4978 2338 
Q 4978 1809 4818 1395 
Q 4659 981 4331 666 
Q 3956 303 3431 151 
Q 2906 0 1856 0 
L 588 0 
L 588 4666 
z
" transform="scale(0.015625)"/>
      <path id="DejaVuSans-Bold-47" d="M 4781 347 
Q 4331 128 3847 18 
Q 3363 -91 2847 -91 
Q 1681 -91 1000 561 
Q 319 1213 319 2328 
Q 319 3456 1012 4103 
Q 1706 4750 2913 4750 
Q 3378 4750 3804 4662 
Q 4231 4575 4609 4403 
L 4609 3438 
Q 4219 3659 3833 3768 
Q 3447 3878 3059 3878 
Q 2341 3878 1952 3476 
Q 1563 3075 1563 2328 
Q 1563 1588 1938 1184 
Q 2313 781 3003 781 
Q 3191 781 3352 804 
Q 3513 828 3641 878 
L 3641 1784 
L 2906 1784 
L 2906 2591 
L 4781 2591 
L 4781 347 
z
" transform="scale(0.015625)"/>
      <path id="DejaVuSans-Bold-43" d="M 4288 256 
Q 3956 84 3597 -3 
Q 3238 -91 2847 -91 
Q 1681 -91 1000 561 
Q 319 1213 319 2328 
Q 319 3447 1000 4098 
Q 1681 4750 2847 4750 
Q 3238 4750 3597 4662 
Q 3956 4575 4288 4403 
L 4288 3438 
Q 3953 3666 3628 3772 
Q 3303 3878 2944 3878 
Q 2300 3878 1931 3465 
Q 1563 3053 1563 2328 
Q 1563 1606 1931 1193 
Q 2300 781 2944 781 
Q 3303 781 3628 887 
Q 3953 994 4288 1222 
L 4288 256 
z
" transform="scale(0.015625)"/>
      <path id="DejaVuSans-Bold-41" d="M 3419 850 
L 1538 850 
L 1241 0 
L 31 0 
L 1759 4666 
L 3194 4666 
L 4922 0 
L 3713 0 
L 3419 850 
z
M 1838 1716 
L 3116 1716 
L 2478 3572 
L 1838 1716 
z
" transform="scale(0.015625)"/>
      <path id="DejaVuSans-Bold-20" transform="scale(0.015625)"/>
      <path id="DejaVuSans-Bold-64" d="M 2919 2988 
L 2919 4863 
L 4044 4863 
L 4044 0 
L 2919 0 
L 2919 506 
Q 2688 197 2409 53 
Q 2131 -91 1766 -91 
Q 1119 -91 703 423 
Q 288 938 288 1747 
Q 288 2556 703 3070 
Q 1119 3584 1766 3584 
Q 2128 3584 2408 3439 
Q 2688 3294 2919 2988 
z
M 2181 722 
Q 2541 722 2730 984 
Q 2919 1247 2919 1747 
Q 2919 2247 2730 2509 
Q 2541 2772 2181 2772 
Q 1825 2772 1636 2509 
Q 1447 2247 1447 1747 
Q 1447 1247 1636 984 
Q 1825 722 2181 722 
z
" transform="scale(0.015625)"/>
      <path id="DejaVuSans-Bold-72" d="M 3138 2547 
Q 2991 2616 2845 2648 
Q 2700 2681 2553 2681 
Q 2122 2681 1889 2404 
Q 1656 2128 1656 1613 
L 1656 0 
L 538 0 
L 538 3500 
L 1656 3500 
L 1656 2925 
Q 1872 3269 2151 3426 
Q 2431 3584 2822 3584 
Q 2878 3584 2943 3579 
Q 3009 3575 3134 3559 
L 3138 2547 
z
" transform="scale(0.015625)"/>
      <path id="DejaVuSans-Bold-61" d="M 2106 1575 
Q 1756 1575 1579 1456 
Q 1403 1338 1403 1106 
Q 1403 894 1545 773 
Q 1688 653 1941 653 
Q 2256 653 2472 879 
Q 2688 1106 2688 1447 
L 2688 1575 
L 2106 1575 
z
M 3816 1997 
L 3816 0 
L 2688 0 
L 2688 519 
Q 2463 200 2181 54 
Q 1900 -91 1497 -91 
Q 953 -91 614 226 
Q 275 544 275 1050 
Q 275 1666 698 1953 
Q 1122 2241 2028 2241 
L 2688 2241 
L 2688 2328 
Q 2688 2594 2478 2717 
Q 2269 2841 1825 2841 
Q 1466 2841 1156 2769 
Q 847 2697 581 2553 
L 581 3406 
Q 941 3494 1303 3539 
Q 1666 3584 2028 3584 
Q 2975 3584 3395 3211 
Q 3816 2838 3816 1997 
z
" transform="scale(0.015625)"/>
      <path id="DejaVuSans-Bold-66" d="M 2841 4863 
L 2841 4128 
L 2222 4128 
Q 1984 4128 1890 4042 
Q 1797 3956 1797 3744 
L 1797 3500 
L 2753 3500 
L 2753 2700 
L 1797 2700 
L 1797 0 
L 678 0 
L 678 2700 
L 122 2700 
L 122 3500 
L 678 3500 
L 678 3744 
Q 678 4316 997 4589 
Q 1316 4863 1984 4863 
L 2841 4863 
z
" transform="scale(0.015625)"/>
      <path id="DejaVuSans-Bold-74" d="M 1759 4494 
L 1759 3500 
L 2913 3500 
L 2913 2700 
L 1759 2700 
L 1759 1216 
Q 1759 972 1856 886 
Q 1953 800 2241 800 
L 2816 800 
L 2816 0 
L 1856 0 
Q 1194 0 917 276 
Q 641 553 641 1216 
L 641 2700 
L 84 2700 
L 84 3500 
L 641 3500 
L 641 4494 
L 1759 4494 
z
" transform="scale(0.015625)"/>
      <path id="DejaVuSans-Bold-6f" d="M 2203 2784 
Q 1831 2784 1636 2517 
Q 1441 2250 1441 1747 
Q 1441 1244 1636 976 
Q 1831 709 2203 709 
Q 2569 709 2762 976 
Q 2956 1244 2956 1747 
Q 2956 2250 2762 2517 
Q 2569 2784 2203 2784 
z
M 2203 3584 
Q 3106 3584 3614 3096 
Q 4122 2609 4122 1747 
Q 4122 884 3614 396 
Q 3106 -91 2203 -91 
Q 1297 -91 786 396 
Q 275 884 275 1747 
Q 275 2609 786 3096 
Q 1297 3584 2203 3584 
z
" transform="scale(0.015625)"/>
      <path id="DejaVuSans-Bold-6e" d="M 4056 2131 
L 4056 0 
L 2931 0 
L 2931 347 
L 2931 1631 
Q 2931 2084 2911 2256 
Q 2891 2428 2841 2509 
Q 2775 2619 2662 2680 
Q 2550 2741 2406 2741 
Q 2056 2741 1856 2470 
Q 1656 2200 1656 1722 
L 1656 0 
L 538 0 
L 538 3500 
L 1656 3500 
L 1656 2988 
Q 1909 3294 2193 3439 
Q 2478 3584 2822 3584 
Q 3428 3584 3742 3212 
Q 4056 2841 4056 2131 
z
" transform="scale(0.015625)"/>
      <path id="DejaVuSans-Bold-65" d="M 4031 1759 
L 4031 1441 
L 1416 1441 
Q 1456 1047 1700 850 
Q 1944 653 2381 653 
Q 2734 653 3104 758 
Q 3475 863 3866 1075 
L 3866 213 
Q 3469 63 3072 -14 
Q 2675 -91 2278 -91 
Q 1328 -91 801 392 
Q 275 875 275 1747 
Q 275 2603 792 3093 
Q 1309 3584 2216 3584 
Q 3041 3584 3536 3087 
Q 4031 2591 4031 1759 
z
M 2881 2131 
Q 2881 2450 2695 2645 
Q 2509 2841 2209 2841 
Q 1884 2841 1681 2658 
Q 1478 2475 1428 2131 
L 2881 2131 
z
" transform="scale(0.015625)"/>
      <path id="DejaVuSans-Bold-75" d="M 500 1363 
L 500 3500 
L 1625 3500 
L 1625 3150 
Q 1625 2866 1622 2436 
Q 1619 2006 1619 1863 
Q 1619 1441 1641 1255 
Q 1663 1069 1716 984 
Q 1784 875 1895 815 
Q 2006 756 2150 756 
Q 2500 756 2700 1025 
Q 2900 1294 2900 1772 
L 2900 3500 
L 4019 3500 
L 4019 0 
L 2900 0 
L 2900 506 
Q 2647 200 2364 54 
Q 2081 -91 1741 -91 
Q 1134 -91 817 281 
Q 500 653 500 1363 
z
" transform="scale(0.015625)"/>
      <path id="DejaVuSans-Bold-6c" d="M 538 4863 
L 1656 4863 
L 1656 0 
L 538 0 
L 538 4863 
z
" transform="scale(0.015625)"/>
      <path id="DejaVuSans-Bold-73" d="M 3272 3391 
L 3272 2541 
Q 2913 2691 2578 2766 
Q 2244 2841 1947 2841 
Q 1628 2841 1473 2761 
Q 1319 2681 1319 2516 
Q 1319 2381 1436 2309 
Q 1553 2238 1856 2203 
L 2053 2175 
Q 2913 2066 3209 1816 
Q 3506 1566 3506 1031 
Q 3506 472 3093 190 
Q 2681 -91 1863 -91 
Q 1516 -91 1145 -36 
Q 775 19 384 128 
L 384 978 
Q 719 816 1070 734 
Q 1422 653 1784 653 
Q 2113 653 2278 743 
Q 2444 834 2444 1013 
Q 2444 1163 2330 1236 
Q 2216 1309 1875 1350 
L 1678 1375 
Q 931 1469 631 1722 
Q 331 1975 331 2491 
Q 331 3047 712 3315 
Q 1094 3584 1881 3584 
Q 2191 3584 2531 3537 
Q 2872 3491 3272 3391 
z
" transform="scale(0.015625)"/>
     </defs>
     <use xlink:href="#DejaVuSans-Bold-44"/>
     <use xlink:href="#DejaVuSans-Bold-47" x="83.007812"/>
     <use xlink:href="#DejaVuSans-Bold-43" x="165.087891"/>
     <use xlink:href="#DejaVuSans-Bold-41" x="238.476562"/>
     <use xlink:href="#DejaVuSans-Bold-20" x="315.869141"/>
     <use xlink:href="#DejaVuSans-Bold-64" x="350.683594"/>
     <use xlink:href="#DejaVuSans-Bold-72" x="422.265625"/>
     <use xlink:href="#DejaVuSans-Bold-61" x="471.582031"/>
     <use xlink:href="#DejaVuSans-Bold-66" x="539.0625"/>
     <use xlink:href="#DejaVuSans-Bold-74" x="582.568359"/>
     <use xlink:href="#DejaVuSans-Bold-20" x="630.371094"/>
     <use xlink:href="#DejaVuSans-Bold-64" x="665.185547"/>
     <use xlink:href="#DejaVuSans-Bold-72" x="736.767578"/>
     <use xlink:href="#DejaVuSans-Bold-6f" x="786.083984"/>
     <use xlink:href="#DejaVuSans-Bold-6e" x="854.785156"/>
     <use xlink:href="#DejaVuSans-Bold-65" x="925.976562"/>
     <use xlink:href="#DejaVuSans-Bold-20" x="993.798828"/>
     <use xlink:href="#DejaVuSans-Bold-72" x="1028.613281"/>
     <use xlink:href="#DejaVuSans-Bold-75" x="1077.929688"/>
     <use xlink:href="#DejaVuSans-Bold-6c" x="1149.121094"/>
     <use xlink:href="#DejaVuSans-Bold-65" x="1183.398438"/>
     <use xlink:href="#DejaVuSans-Bold-73" x="1251.220703"/>
    </g>
    <!-- (first regulatory attempt) -->
    <g style="fill: #0b1c2c" transform="translate(11.3842 129.856328) scale(0.085 -0.085)">
     <defs>
      <path id="DejaVuSans-Bold-28" d="M 2413 -844 
L 1484 -844 
Q 1006 -72 778 623 
Q 550 1319 550 2003 
Q 550 2688 779 3389 
Q 1009 4091 1484 4856 
L 2413 4856 
Q 2013 4116 1813 3408 
Q 1613 2700 1613 2009 
Q 1613 1319 1811 609 
Q 2009 -100 2413 -844 
z
" transform="scale(0.015625)"/>
      <path id="DejaVuSans-Bold-69" d="M 538 3500 
L 1656 3500 
L 1656 0 
L 538 0 
L 538 3500 
z
M 538 4863 
L 1656 4863 
L 1656 3950 
L 538 3950 
L 538 4863 
z
" transform="scale(0.015625)"/>
      <path id="DejaVuSans-Bold-67" d="M 2919 594 
Q 2688 288 2409 144 
Q 2131 0 1766 0 
Q 1125 0 706 504 
Q 288 1009 288 1791 
Q 288 2575 706 3076 
Q 1125 3578 1766 3578 
Q 2131 3578 2409 3434 
Q 2688 3291 2919 2981 
L 2919 3500 
L 4044 3500 
L 4044 353 
Q 4044 -491 3511 -936 
Q 2978 -1381 1966 -1381 
Q 1638 -1381 1331 -1331 
Q 1025 -1281 716 -1178 
L 716 -306 
Q 1009 -475 1290 -558 
Q 1572 -641 1856 -641 
Q 2406 -641 2662 -400 
Q 2919 -159 2919 353 
L 2919 594 
z
M 2181 2772 
Q 1834 2772 1640 2515 
Q 1447 2259 1447 1791 
Q 1447 1309 1634 1061 
Q 1822 813 2181 813 
Q 2531 813 2725 1069 
Q 2919 1325 2919 1791 
Q 2919 2259 2725 2515 
Q 2531 2772 2181 2772 
z
" transform="scale(0.015625)"/>
      <path id="DejaVuSans-Bold-79" d="M 78 3500 
L 1197 3500 
L 2138 1125 
L 2938 3500 
L 4056 3500 
L 2584 -331 
Q 2363 -916 2067 -1148 
Q 1772 -1381 1288 -1381 
L 641 -1381 
L 641 -647 
L 991 -647 
Q 1275 -647 1404 -556 
Q 1534 -466 1606 -231 
L 1638 -134 
L 78 3500 
z
" transform="scale(0.015625)"/>
      <path id="DejaVuSans-Bold-6d" d="M 3781 2919 
Q 3994 3244 4286 3414 
Q 4578 3584 4928 3584 
Q 5531 3584 5847 3212 
Q 6163 2841 6163 2131 
L 6163 0 
L 5038 0 
L 5038 1825 
Q 5041 1866 5042 1909 
Q 5044 1953 5044 2034 
Q 5044 2406 4934 2573 
Q 4825 2741 4581 2741 
Q 4263 2741 4089 2478 
Q 3916 2216 3909 1719 
L 3909 0 
L 2784 0 
L 2784 1825 
Q 2784 2406 2684 2573 
Q 2584 2741 2328 2741 
Q 2006 2741 1831 2477 
Q 1656 2213 1656 1722 
L 1656 0 
L 531 0 
L 531 3500 
L 1656 3500 
L 1656 2988 
Q 1863 3284 2130 3434 
Q 2397 3584 2719 3584 
Q 3081 3584 3359 3409 
Q 3638 3234 3781 2919 
z
" transform="scale(0.015625)"/>
      <path id="DejaVuSans-Bold-70" d="M 1656 506 
L 1656 -1331 
L 538 -1331 
L 538 3500 
L 1656 3500 
L 1656 2988 
Q 1888 3294 2169 3439 
Q 2450 3584 2816 3584 
Q 3463 3584 3878 3070 
Q 4294 2556 4294 1747 
Q 4294 938 3878 423 
Q 3463 -91 2816 -91 
Q 2450 -91 2169 54 
Q 1888 200 1656 506 
z
M 2400 2772 
Q 2041 2772 1848 2508 
Q 1656 2244 1656 1747 
Q 1656 1250 1848 986 
Q 2041 722 2400 722 
Q 2759 722 2948 984 
Q 3138 1247 3138 1747 
Q 3138 2247 2948 2509 
Q 2759 2772 2400 2772 
z
" transform="scale(0.015625)"/>
      <path id="DejaVuSans-Bold-29" d="M 513 -844 
Q 913 -100 1113 609 
Q 1313 1319 1313 2009 
Q 1313 2700 1113 3408 
Q 913 4116 513 4856 
L 1441 4856 
Q 1916 4091 2145 3389 
Q 2375 2688 2375 2003 
Q 2375 1319 2147 623 
Q 1919 -72 1441 -844 
L 513 -844 
z
" transform="scale(0.015625)"/>
     </defs>
     <use xlink:href="#DejaVuSans-Bold-28"/>
     <use xlink:href="#DejaVuSans-Bold-66" x="45.703125"/>
     <use xlink:href="#DejaVuSans-Bold-69" x="89.208984"/>
     <use xlink:href="#DejaVuSans-Bold-72" x="123.486328"/>
     <use xlink:href="#DejaVuSans-Bold-73" x="172.802734"/>
     <use xlink:href="#DejaVuSans-Bold-74" x="232.324219"/>
     <use xlink:href="#DejaVuSans-Bold-20" x="280.126953"/>
     <use xlink:href="#DejaVuSans-Bold-72" x="314.941406"/>
     <use xlink:href="#DejaVuSans-Bold-65" x="364.257812"/>
     <use xlink:href="#DejaVuSans-Bold-67" x="432.080078"/>
     <use xlink:href="#DejaVuSans-Bold-75" x="503.662109"/>
     <use xlink:href="#DejaVuSans-Bold-6c" x="574.853516"/>
     <use xlink:href="#DejaVuSans-Bold-61" x="609.130859"/>
     <use xlink:href="#DejaVuSans-Bold-74" x="676.611328"/>
     <use xlink:href="#DejaVuSans-Bold-6f" x="724.414062"/>
     <use xlink:href="#DejaVuSans-Bold-72" x="793.115234"/>
     <use xlink:href="#DejaVuSans-Bold-79" x="842.431641"/>
     <use xlink:href="#DejaVuSans-Bold-20" x="907.617188"/>
     <use xlink:href="#DejaVuSans-Bold-61" x="942.431641"/>
     <use xlink:href="#DejaVuSans-Bold-74" x="1009.912109"/>
     <use xlink:href="#DejaVuSans-Bold-74" x="1057.714844"/>
     <use xlink:href="#DejaVuSans-Bold-65" x="1105.517578"/>
     <use xlink:href="#DejaVuSans-Bold-6d" x="1173.339844"/>
     <use xlink:href="#DejaVuSans-Bold-70" x="1277.539062"/>
     <use xlink:href="#DejaVuSans-Bold-74" x="1349.121094"/>
     <use xlink:href="#DejaVuSans-Bold-29" x="1396.923828"/>
    </g>
   </g>
   <g id="line2d_23">
    <g clip-path="url(#pba422c85a4)">
     <use xlink:href="#md297903517" x="161.115054" y="186.297969" style="fill: #00a9e0; stroke: #00a9e0"/>
    </g>
   </g>
   <g id="text_12">
    <!-- Digital Sky platform -->
    <g style="fill: #0b1c2c" transform="translate(112.966539 247.364141) scale(0.085 -0.085)">
     <defs>
      <path id="DejaVuSans-Bold-53" d="M 3834 4519 
L 3834 3531 
Q 3450 3703 3084 3790 
Q 2719 3878 2394 3878 
Q 1963 3878 1756 3759 
Q 1550 3641 1550 3391 
Q 1550 3203 1689 3098 
Q 1828 2994 2194 2919 
L 2706 2816 
Q 3484 2659 3812 2340 
Q 4141 2022 4141 1434 
Q 4141 663 3683 286 
Q 3225 -91 2284 -91 
Q 1841 -91 1394 -6 
Q 947 78 500 244 
L 500 1259 
Q 947 1022 1364 901 
Q 1781 781 2169 781 
Q 2563 781 2772 912 
Q 2981 1044 2981 1288 
Q 2981 1506 2839 1625 
Q 2697 1744 2272 1838 
L 1806 1941 
Q 1106 2091 782 2419 
Q 459 2747 459 3303 
Q 459 4000 909 4375 
Q 1359 4750 2203 4750 
Q 2588 4750 2994 4692 
Q 3400 4634 3834 4519 
z
" transform="scale(0.015625)"/>
      <path id="DejaVuSans-Bold-6b" d="M 538 4863 
L 1656 4863 
L 1656 2216 
L 2944 3500 
L 4244 3500 
L 2534 1894 
L 4378 0 
L 3022 0 
L 1656 1459 
L 1656 0 
L 538 0 
L 538 4863 
z
" transform="scale(0.015625)"/>
     </defs>
     <use xlink:href="#DejaVuSans-Bold-44"/>
     <use xlink:href="#DejaVuSans-Bold-69" x="83.007812"/>
     <use xlink:href="#DejaVuSans-Bold-67" x="117.285156"/>
     <use xlink:href="#DejaVuSans-Bold-69" x="188.867188"/>
     <use xlink:href="#DejaVuSans-Bold-74" x="223.144531"/>
     <use xlink:href="#DejaVuSans-Bold-61" x="270.947266"/>
     <use xlink:href="#DejaVuSans-Bold-6c" x="338.427734"/>
     <use xlink:href="#DejaVuSans-Bold-20" x="372.705078"/>
     <use xlink:href="#DejaVuSans-Bold-53" x="407.519531"/>
     <use xlink:href="#DejaVuSans-Bold-6b" x="479.541016"/>
     <use xlink:href="#DejaVuSans-Bold-79" x="546.044922"/>
     <use xlink:href="#DejaVuSans-Bold-20" x="611.230469"/>
     <use xlink:href="#DejaVuSans-Bold-70" x="646.044922"/>
     <use xlink:href="#DejaVuSans-Bold-6c" x="717.626953"/>
     <use xlink:href="#DejaVuSans-Bold-61" x="751.904297"/>
     <use xlink:href="#DejaVuSans-Bold-74" x="819.384766"/>
     <use xlink:href="#DejaVuSans-Bold-66" x="867.1875"/>
     <use xlink:href="#DejaVuSans-Bold-6f" x="910.693359"/>
     <use xlink:href="#DejaVuSans-Bold-72" x="979.394531"/>
     <use xlink:href="#DejaVuSans-Bold-6d" x="1028.710938"/>
    </g>
    <!-- launched -->
    <g style="fill: #0b1c2c" transform="translate(139.26939 256.948688) scale(0.085 -0.085)">
     <defs>
      <path id="DejaVuSans-Bold-63" d="M 3366 3391 
L 3366 2478 
Q 3138 2634 2908 2709 
Q 2678 2784 2431 2784 
Q 1963 2784 1702 2511 
Q 1441 2238 1441 1747 
Q 1441 1256 1702 982 
Q 1963 709 2431 709 
Q 2694 709 2930 787 
Q 3166 866 3366 1019 
L 3366 103 
Q 3103 6 2833 -42 
Q 2563 -91 2291 -91 
Q 1344 -91 809 395 
Q 275 881 275 1747 
Q 275 2613 809 3098 
Q 1344 3584 2291 3584 
Q 2566 3584 2833 3536 
Q 3100 3488 3366 3391 
z
" transform="scale(0.015625)"/>
      <path id="DejaVuSans-Bold-68" d="M 4056 2131 
L 4056 0 
L 2931 0 
L 2931 347 
L 2931 1625 
Q 2931 2084 2911 2256 
Q 2891 2428 2841 2509 
Q 2775 2619 2662 2680 
Q 2550 2741 2406 2741 
Q 2056 2741 1856 2470 
Q 1656 2200 1656 1722 
L 1656 0 
L 538 0 
L 538 4863 
L 1656 4863 
L 1656 2988 
Q 1909 3294 2193 3439 
Q 2478 3584 2822 3584 
Q 3428 3584 3742 3212 
Q 4056 2841 4056 2131 
z
" transform="scale(0.015625)"/>
     </defs>
     <use xlink:href="#DejaVuSans-Bold-6c"/>
     <use xlink:href="#DejaVuSans-Bold-61" x="34.277344"/>
     <use xlink:href="#DejaVuSans-Bold-75" x="101.757812"/>
     <use xlink:href="#DejaVuSans-Bold-6e" x="172.949219"/>
     <use xlink:href="#DejaVuSans-Bold-63" x="244.140625"/>
     <use xlink:href="#DejaVuSans-Bold-68" x="303.417969"/>
     <use xlink:href="#DejaVuSans-Bold-65" x="374.609375"/>
     <use xlink:href="#DejaVuSans-Bold-64" x="442.431641"/>
    </g>
   </g>
   <g id="line2d_24">
    <g clip-path="url(#pba422c85a4)">
     <use xlink:href="#md297903517" x="337.956295" y="186.297969" style="fill: #00a9e0; stroke: #00a9e0"/>
    </g>
   </g>
   <g id="text_13">
    <!-- UAS Rules 2021 -->
    <g style="fill: #0b1c2c" transform="translate(300.333834 120.404594) scale(0.085 -0.085)">
     <defs>
      <path id="DejaVuSans-Bold-55" d="M 588 4666 
L 1791 4666 
L 1791 1869 
Q 1791 1291 1980 1042 
Q 2169 794 2597 794 
Q 3028 794 3217 1042 
Q 3406 1291 3406 1869 
L 3406 4666 
L 4609 4666 
L 4609 1869 
Q 4609 878 4112 393 
Q 3616 -91 2597 -91 
Q 1581 -91 1084 393 
Q 588 878 588 1869 
L 588 4666 
z
" transform="scale(0.015625)"/>
      <path id="DejaVuSans-Bold-52" d="M 2297 2597 
Q 2675 2597 2839 2737 
Q 3003 2878 3003 3200 
Q 3003 3519 2839 3656 
Q 2675 3794 2297 3794 
L 1791 3794 
L 1791 2597 
L 2297 2597 
z
M 1791 1766 
L 1791 0 
L 588 0 
L 588 4666 
L 2425 4666 
Q 3347 4666 3776 4356 
Q 4206 4047 4206 3378 
Q 4206 2916 3982 2619 
Q 3759 2322 3309 2181 
Q 3556 2125 3751 1926 
Q 3947 1728 4147 1325 
L 4800 0 
L 3519 0 
L 2950 1159 
Q 2778 1509 2601 1637 
Q 2425 1766 2131 1766 
L 1791 1766 
z
" transform="scale(0.015625)"/>
      <path id="DejaVuSans-Bold-32" d="M 1844 884 
L 3897 884 
L 3897 0 
L 506 0 
L 506 884 
L 2209 2388 
Q 2438 2594 2547 2791 
Q 2656 2988 2656 3200 
Q 2656 3528 2436 3728 
Q 2216 3928 1850 3928 
Q 1569 3928 1234 3808 
Q 900 3688 519 3450 
L 519 4475 
Q 925 4609 1322 4679 
Q 1719 4750 2100 4750 
Q 2938 4750 3402 4381 
Q 3866 4013 3866 3353 
Q 3866 2972 3669 2642 
Q 3472 2313 2841 1759 
L 1844 884 
z
" transform="scale(0.015625)"/>
      <path id="DejaVuSans-Bold-30" d="M 2944 2338 
Q 2944 3213 2780 3570 
Q 2616 3928 2228 3928 
Q 1841 3928 1675 3570 
Q 1509 3213 1509 2338 
Q 1509 1453 1675 1090 
Q 1841 728 2228 728 
Q 2613 728 2778 1090 
Q 2944 1453 2944 2338 
z
M 4147 2328 
Q 4147 1169 3647 539 
Q 3147 -91 2228 -91 
Q 1306 -91 806 539 
Q 306 1169 306 2328 
Q 306 3491 806 4120 
Q 1306 4750 2228 4750 
Q 3147 4750 3647 4120 
Q 4147 3491 4147 2328 
z
" transform="scale(0.015625)"/>
      <path id="DejaVuSans-Bold-31" d="M 750 831 
L 1813 831 
L 1813 3847 
L 722 3622 
L 722 4441 
L 1806 4666 
L 2950 4666 
L 2950 831 
L 4013 831 
L 4013 0 
L 750 0 
L 750 831 
z
" transform="scale(0.015625)"/>
     </defs>
     <use xlink:href="#DejaVuSans-Bold-55"/>
     <use xlink:href="#DejaVuSans-Bold-41" x="78.076172"/>
     <use xlink:href="#DejaVuSans-Bold-53" x="155.46875"/>
     <use xlink:href="#DejaVuSans-Bold-20" x="227.490234"/>
     <use xlink:href="#DejaVuSans-Bold-52" x="262.304688"/>
     <use xlink:href="#DejaVuSans-Bold-75" x="339.306641"/>
     <use xlink:href="#DejaVuSans-Bold-6c" x="410.498047"/>
     <use xlink:href="#DejaVuSans-Bold-65" x="444.775391"/>
     <use xlink:href="#DejaVuSans-Bold-73" x="512.597656"/>
     <use xlink:href="#DejaVuSans-Bold-20" x="572.119141"/>
     <use xlink:href="#DejaVuSans-Bold-32" x="606.933594"/>
     <use xlink:href="#DejaVuSans-Bold-30" x="676.513672"/>
     <use xlink:href="#DejaVuSans-Bold-32" x="746.09375"/>
     <use xlink:href="#DejaVuSans-Bold-31" x="815.673828"/>
    </g>
    <!-- (restrictive) -->
    <g style="fill: #0b1c2c" transform="translate(309.318599 129.922734) scale(0.085 -0.085)">
     <defs>
      <path id="DejaVuSans-Bold-76" d="M 97 3500 
L 1216 3500 
L 2088 1081 
L 2956 3500 
L 4078 3500 
L 2700 0 
L 1472 0 
L 97 3500 
z
" transform="scale(0.015625)"/>
     </defs>
     <use xlink:href="#DejaVuSans-Bold-28"/>
     <use xlink:href="#DejaVuSans-Bold-72" x="45.703125"/>
     <use xlink:href="#DejaVuSans-Bold-65" x="95.019531"/>
     <use xlink:href="#DejaVuSans-Bold-73" x="162.841797"/>
     <use xlink:href="#DejaVuSans-Bold-74" x="222.363281"/>
     <use xlink:href="#DejaVuSans-Bold-72" x="270.166016"/>
     <use xlink:href="#DejaVuSans-Bold-69" x="319.482422"/>
     <use xlink:href="#DejaVuSans-Bold-63" x="353.759766"/>
     <use xlink:href="#DejaVuSans-Bold-74" x="413.037109"/>
     <use xlink:href="#DejaVuSans-Bold-69" x="460.839844"/>
     <use xlink:href="#DejaVuSans-Bold-76" x="495.117188"/>
     <use xlink:href="#DejaVuSans-Bold-65" x="560.302734"/>
     <use xlink:href="#DejaVuSans-Bold-29" x="628.125"/>
    </g>
   </g>
   <g id="line2d_25">
    <g clip-path="url(#pba422c85a4)">
     <use xlink:href="#md297903517" x="337.956295" y="186.297969" style="fill: #00a9e0; stroke: #00a9e0"/>
    </g>
   </g>
   <g id="text_14">
    <!-- New Drone Rules 2021 -->
    <g style="fill: #0b1c2c" transform="translate(283.704381 247.364141) scale(0.085 -0.085)">
     <defs>
      <path id="DejaVuSans-Bold-4e" d="M 588 4666 
L 1931 4666 
L 3628 1466 
L 3628 4666 
L 4769 4666 
L 4769 0 
L 3425 0 
L 1728 3200 
L 1728 0 
L 588 0 
L 588 4666 
z
" transform="scale(0.015625)"/>
      <path id="DejaVuSans-Bold-77" d="M 225 3500 
L 1313 3500 
L 1900 1088 
L 2491 3500 
L 3425 3500 
L 4013 1113 
L 4603 3500 
L 5691 3500 
L 4769 0 
L 3547 0 
L 2956 2406 
L 2369 0 
L 1147 0 
L 225 3500 
z
" transform="scale(0.015625)"/>
     </defs>
     <use xlink:href="#DejaVuSans-Bold-4e"/>
     <use xlink:href="#DejaVuSans-Bold-65" x="83.691406"/>
     <use xlink:href="#DejaVuSans-Bold-77" x="151.513672"/>
     <use xlink:href="#DejaVuSans-Bold-20" x="243.896484"/>
     <use xlink:href="#DejaVuSans-Bold-44" x="278.710938"/>
     <use xlink:href="#DejaVuSans-Bold-72" x="361.71875"/>
     <use xlink:href="#DejaVuSans-Bold-6f" x="411.035156"/>
     <use xlink:href="#DejaVuSans-Bold-6e" x="479.736328"/>
     <use xlink:href="#DejaVuSans-Bold-65" x="550.927734"/>
     <use xlink:href="#DejaVuSans-Bold-20" x="618.75"/>
     <use xlink:href="#DejaVuSans-Bold-52" x="653.564453"/>
     <use xlink:href="#DejaVuSans-Bold-75" x="730.566406"/>
     <use xlink:href="#DejaVuSans-Bold-6c" x="801.757812"/>
     <use xlink:href="#DejaVuSans-Bold-65" x="836.035156"/>
     <use xlink:href="#DejaVuSans-Bold-73" x="903.857422"/>
     <use xlink:href="#DejaVuSans-Bold-20" x="963.378906"/>
     <use xlink:href="#DejaVuSans-Bold-32" x="998.193359"/>
     <use xlink:href="#DejaVuSans-Bold-30" x="1067.773438"/>
     <use xlink:href="#DejaVuSans-Bold-32" x="1137.353516"/>
     <use xlink:href="#DejaVuSans-Bold-31" x="1206.933594"/>
    </g>
    <!-- (liberalised, Aug) -->
    <g style="fill: #0b1c2c" transform="translate(296.450396 256.882281) scale(0.085 -0.085)">
     <defs>
      <path id="DejaVuSans-Bold-62" d="M 2400 722 
Q 2759 722 2948 984 
Q 3138 1247 3138 1747 
Q 3138 2247 2948 2509 
Q 2759 2772 2400 2772 
Q 2041 2772 1848 2508 
Q 1656 2244 1656 1747 
Q 1656 1250 1848 986 
Q 2041 722 2400 722 
z
M 1656 2988 
Q 1888 3294 2169 3439 
Q 2450 3584 2816 3584 
Q 3463 3584 3878 3070 
Q 4294 2556 4294 1747 
Q 4294 938 3878 423 
Q 3463 -91 2816 -91 
Q 2450 -91 2169 54 
Q 1888 200 1656 506 
L 1656 0 
L 538 0 
L 538 4863 
L 1656 4863 
L 1656 2988 
z
" transform="scale(0.015625)"/>
      <path id="DejaVuSans-Bold-2c" d="M 653 1209 
L 1778 1209 
L 1778 256 
L 1006 -909 
L 341 -909 
L 653 256 
L 653 1209 
z
" transform="scale(0.015625)"/>
     </defs>
     <use xlink:href="#DejaVuSans-Bold-28"/>
     <use xlink:href="#DejaVuSans-Bold-6c" x="45.703125"/>
     <use xlink:href="#DejaVuSans-Bold-69" x="79.980469"/>
     <use xlink:href="#DejaVuSans-Bold-62" x="114.257812"/>
     <use xlink:href="#DejaVuSans-Bold-65" x="185.839844"/>
     <use xlink:href="#DejaVuSans-Bold-72" x="253.662109"/>
     <use xlink:href="#DejaVuSans-Bold-61" x="302.978516"/>
     <use xlink:href="#DejaVuSans-Bold-6c" x="370.458984"/>
     <use xlink:href="#DejaVuSans-Bold-69" x="404.736328"/>
     <use xlink:href="#DejaVuSans-Bold-73" x="439.013672"/>
     <use xlink:href="#DejaVuSans-Bold-65" x="498.535156"/>
     <use xlink:href="#DejaVuSans-Bold-64" x="566.357422"/>
     <use xlink:href="#DejaVuSans-Bold-2c" x="637.939453"/>
     <use xlink:href="#DejaVuSans-Bold-20" x="675.927734"/>
     <use xlink:href="#DejaVuSans-Bold-41" x="710.742188"/>
     <use xlink:href="#DejaVuSans-Bold-75" x="788.134766"/>
     <use xlink:href="#DejaVuSans-Bold-67" x="859.326172"/>
     <use xlink:href="#DejaVuSans-Bold-29" x="930.908203"/>
    </g>
   </g>
   <g id="line2d_26">
    <g clip-path="url(#pba422c85a4)">
     <use xlink:href="#md297903517" x="426.376915" y="186.297969" style="fill: #00a9e0; stroke: #00a9e0"/>
    </g>
   </g>
   <g id="text_15">
    <!-- Drone Airspace Map -->
    <g style="fill: #0b1c2c" transform="translate(378.142735 247.364141) scale(0.085 -0.085)">
     <defs>
      <path id="DejaVuSans-Bold-4d" d="M 588 4666 
L 2119 4666 
L 3181 2169 
L 4250 4666 
L 5778 4666 
L 5778 0 
L 4641 0 
L 4641 3413 
L 3566 897 
L 2803 897 
L 1728 3413 
L 1728 0 
L 588 0 
L 588 4666 
z
" transform="scale(0.015625)"/>
     </defs>
     <use xlink:href="#DejaVuSans-Bold-44"/>
     <use xlink:href="#DejaVuSans-Bold-72" x="83.007812"/>
     <use xlink:href="#DejaVuSans-Bold-6f" x="132.324219"/>
     <use xlink:href="#DejaVuSans-Bold-6e" x="201.025391"/>
     <use xlink:href="#DejaVuSans-Bold-65" x="272.216797"/>
     <use xlink:href="#DejaVuSans-Bold-20" x="340.039062"/>
     <use xlink:href="#DejaVuSans-Bold-41" x="374.853516"/>
     <use xlink:href="#DejaVuSans-Bold-69" x="452.246094"/>
     <use xlink:href="#DejaVuSans-Bold-72" x="486.523438"/>
     <use xlink:href="#DejaVuSans-Bold-73" x="535.839844"/>
     <use xlink:href="#DejaVuSans-Bold-70" x="595.361328"/>
     <use xlink:href="#DejaVuSans-Bold-61" x="666.943359"/>
     <use xlink:href="#DejaVuSans-Bold-63" x="734.423828"/>
     <use xlink:href="#DejaVuSans-Bold-65" x="793.701172"/>
     <use xlink:href="#DejaVuSans-Bold-20" x="861.523438"/>
     <use xlink:href="#DejaVuSans-Bold-4d" x="896.337891"/>
     <use xlink:href="#DejaVuSans-Bold-61" x="995.849609"/>
     <use xlink:href="#DejaVuSans-Bold-70" x="1063.330078"/>
    </g>
    <!-- released -->
    <g style="fill: #0b1c2c" transform="translate(405.736524 256.882281) scale(0.085 -0.085)">
     <use xlink:href="#DejaVuSans-Bold-72"/>
     <use xlink:href="#DejaVuSans-Bold-65" x="49.316406"/>
     <use xlink:href="#DejaVuSans-Bold-6c" x="117.138672"/>
     <use xlink:href="#DejaVuSans-Bold-65" x="151.416016"/>
     <use xlink:href="#DejaVuSans-Bold-61" x="219.238281"/>
     <use xlink:href="#DejaVuSans-Bold-73" x="286.71875"/>
     <use xlink:href="#DejaVuSans-Bold-65" x="346.240234"/>
     <use xlink:href="#DejaVuSans-Bold-64" x="414.0625"/>
    </g>
   </g>
   <g id="line2d_27">
    <g clip-path="url(#pba422c85a4)">
     <use xlink:href="#md297903517" x="426.376915" y="186.297969" style="fill: #00a9e0; stroke: #00a9e0"/>
    </g>
   </g>
   <g id="text_16">
    <!-- PLI scheme notified -->
    <g style="fill: #0b1c2c" transform="translate(379.081056 120.404594) scale(0.085 -0.085)">
     <defs>
      <path id="DejaVuSans-Bold-50" d="M 588 4666 
L 2584 4666 
Q 3475 4666 3951 4270 
Q 4428 3875 4428 3144 
Q 4428 2409 3951 2014 
Q 3475 1619 2584 1619 
L 1791 1619 
L 1791 0 
L 588 0 
L 588 4666 
z
M 1791 3794 
L 1791 2491 
L 2456 2491 
Q 2806 2491 2997 2661 
Q 3188 2831 3188 3144 
Q 3188 3456 2997 3625 
Q 2806 3794 2456 3794 
L 1791 3794 
z
" transform="scale(0.015625)"/>
      <path id="DejaVuSans-Bold-4c" d="M 588 4666 
L 1791 4666 
L 1791 909 
L 3903 909 
L 3903 0 
L 588 0 
L 588 4666 
z
" transform="scale(0.015625)"/>
      <path id="DejaVuSans-Bold-49" d="M 588 4666 
L 1791 4666 
L 1791 0 
L 588 0 
L 588 4666 
z
" transform="scale(0.015625)"/>
     </defs>
     <use xlink:href="#DejaVuSans-Bold-50"/>
     <use xlink:href="#DejaVuSans-Bold-4c" x="73.291016"/>
     <use xlink:href="#DejaVuSans-Bold-49" x="137.011719"/>
     <use xlink:href="#DejaVuSans-Bold-20" x="174.21875"/>
     <use xlink:href="#DejaVuSans-Bold-73" x="209.033203"/>
     <use xlink:href="#DejaVuSans-Bold-63" x="268.554688"/>
     <use xlink:href="#DejaVuSans-Bold-68" x="327.832031"/>
     <use xlink:href="#DejaVuSans-Bold-65" x="399.023438"/>
     <use xlink:href="#DejaVuSans-Bold-6d" x="466.845703"/>
     <use xlink:href="#DejaVuSans-Bold-65" x="571.044922"/>
     <use xlink:href="#DejaVuSans-Bold-20" x="638.867188"/>
     <use xlink:href="#DejaVuSans-Bold-6e" x="673.681641"/>
     <use xlink:href="#DejaVuSans-Bold-6f" x="744.873047"/>
     <use xlink:href="#DejaVuSans-Bold-74" x="813.574219"/>
     <use xlink:href="#DejaVuSans-Bold-69" x="861.376953"/>
     <use xlink:href="#DejaVuSans-Bold-66" x="895.654297"/>
     <use xlink:href="#DejaVuSans-Bold-69" x="939.160156"/>
     <use xlink:href="#DejaVuSans-Bold-65" x="973.4375"/>
     <use xlink:href="#DejaVuSans-Bold-64" x="1041.259766"/>
    </g>
    <!-- (INR 120 Cr) -->
    <g style="fill: #0b1c2c" transform="translate(397.036641 129.922734) scale(0.085 -0.085)">
     <use xlink:href="#DejaVuSans-Bold-28"/>
     <use xlink:href="#DejaVuSans-Bold-49" x="45.703125"/>
     <use xlink:href="#DejaVuSans-Bold-4e" x="82.910156"/>
     <use xlink:href="#DejaVuSans-Bold-52" x="166.601562"/>
     <use xlink:href="#DejaVuSans-Bold-20" x="243.603516"/>
     <use xlink:href="#DejaVuSans-Bold-31" x="278.417969"/>
     <use xlink:href="#DejaVuSans-Bold-32" x="347.998047"/>
     <use xlink:href="#DejaVuSans-Bold-30" x="417.578125"/>
     <use xlink:href="#DejaVuSans-Bold-20" x="487.158203"/>
     <use xlink:href="#DejaVuSans-Bold-43" x="521.972656"/>
     <use xlink:href="#DejaVuSans-Bold-72" x="595.361328"/>
     <use xlink:href="#DejaVuSans-Bold-29" x="644.677734"/>
    </g>
   </g>
   <g id="line2d_28">
    <g clip-path="url(#pba422c85a4)">
     <use xlink:href="#md297903517" x="514.797535" y="186.297969" style="fill: #00a9e0; stroke: #00a9e0"/>
    </g>
   </g>
   <g id="text_17">
    <!-- BVLOS sandbox -->
    <g style="fill: #0b1c2c" transform="translate(477.563551 247.364141) scale(0.085 -0.085)">
     <defs>
      <path id="DejaVuSans-Bold-42" d="M 2456 2859 
Q 2741 2859 2887 2984 
Q 3034 3109 3034 3353 
Q 3034 3594 2887 3720 
Q 2741 3847 2456 3847 
L 1791 3847 
L 1791 2859 
L 2456 2859 
z
M 2497 819 
Q 2859 819 3042 972 
Q 3225 1125 3225 1434 
Q 3225 1738 3044 1889 
Q 2863 2041 2497 2041 
L 1791 2041 
L 1791 819 
L 2497 819 
z
M 3616 2497 
Q 4003 2384 4215 2081 
Q 4428 1778 4428 1338 
Q 4428 663 3972 331 
Q 3516 0 2584 0 
L 588 0 
L 588 4666 
L 2394 4666 
Q 3366 4666 3802 4372 
Q 4238 4078 4238 3431 
Q 4238 3091 4078 2852 
Q 3919 2613 3616 2497 
z
" transform="scale(0.015625)"/>
      <path id="DejaVuSans-Bold-56" d="M 31 4666 
L 1241 4666 
L 2478 1222 
L 3713 4666 
L 4922 4666 
L 3194 0 
L 1759 0 
L 31 4666 
z
" transform="scale(0.015625)"/>
      <path id="DejaVuSans-Bold-4f" d="M 2719 3878 
Q 2169 3878 1866 3472 
Q 1563 3066 1563 2328 
Q 1563 1594 1866 1187 
Q 2169 781 2719 781 
Q 3272 781 3575 1187 
Q 3878 1594 3878 2328 
Q 3878 3066 3575 3472 
Q 3272 3878 2719 3878 
z
M 2719 4750 
Q 3844 4750 4481 4106 
Q 5119 3463 5119 2328 
Q 5119 1197 4481 553 
Q 3844 -91 2719 -91 
Q 1597 -91 958 553 
Q 319 1197 319 2328 
Q 319 3463 958 4106 
Q 1597 4750 2719 4750 
z
" transform="scale(0.015625)"/>
      <path id="DejaVuSans-Bold-78" d="M 1422 1791 
L 159 3500 
L 1344 3500 
L 2059 2463 
L 2784 3500 
L 3969 3500 
L 2706 1797 
L 4031 0 
L 2847 0 
L 2059 1106 
L 1281 0 
L 97 0 
L 1422 1791 
z
" transform="scale(0.015625)"/>
     </defs>
     <use xlink:href="#DejaVuSans-Bold-42"/>
     <use xlink:href="#DejaVuSans-Bold-56" x="72.220703"/>
     <use xlink:href="#DejaVuSans-Bold-4c" x="149.613281"/>
     <use xlink:href="#DejaVuSans-Bold-4f" x="209.708984"/>
     <use xlink:href="#DejaVuSans-Bold-53" x="294.71875"/>
     <use xlink:href="#DejaVuSans-Bold-20" x="366.740234"/>
     <use xlink:href="#DejaVuSans-Bold-73" x="401.554688"/>
     <use xlink:href="#DejaVuSans-Bold-61" x="461.076172"/>
     <use xlink:href="#DejaVuSans-Bold-6e" x="528.556641"/>
     <use xlink:href="#DejaVuSans-Bold-64" x="599.748047"/>
     <use xlink:href="#DejaVuSans-Bold-62" x="671.330078"/>
     <use xlink:href="#DejaVuSans-Bold-6f" x="742.912109"/>
     <use xlink:href="#DejaVuSans-Bold-78" x="811.613281"/>
    </g>
    <!-- trials expanded -->
    <g style="fill: #0b1c2c" transform="translate(477.353043 256.882281) scale(0.085 -0.085)">
     <use xlink:href="#DejaVuSans-Bold-74"/>
     <use xlink:href="#DejaVuSans-Bold-72" x="47.802734"/>
     <use xlink:href="#DejaVuSans-Bold-69" x="97.119141"/>
     <use xlink:href="#DejaVuSans-Bold-61" x="131.396484"/>
     <use xlink:href="#DejaVuSans-Bold-6c" x="198.876953"/>
     <use xlink:href="#DejaVuSans-Bold-73" x="233.154297"/>
     <use xlink:href="#DejaVuSans-Bold-20" x="292.675781"/>
     <use xlink:href="#DejaVuSans-Bold-65" x="327.490234"/>
     <use xlink:href="#DejaVuSans-Bold-78" x="395.3125"/>
     <use xlink:href="#DejaVuSans-Bold-70" x="459.814453"/>
     <use xlink:href="#DejaVuSans-Bold-61" x="531.396484"/>
     <use xlink:href="#DejaVuSans-Bold-6e" x="598.876953"/>
     <use xlink:href="#DejaVuSans-Bold-64" x="670.068359"/>
     <use xlink:href="#DejaVuSans-Bold-65" x="741.650391"/>
     <use xlink:href="#DejaVuSans-Bold-64" x="809.472656"/>
    </g>
   </g>
   <g id="line2d_29">
    <g clip-path="url(#pba422c85a4)">
     <use xlink:href="#md297903517" x="603.218155" y="186.297969" style="fill: #00a9e0; stroke: #00a9e0"/>
    </g>
   </g>
   <g id="text_18">
    <!-- Traffic Mgmt (UTM) -->
    <g style="fill: #0b1c2c" transform="translate(556.993429 120.338188) scale(0.085 -0.085)">
     <defs>
      <path id="DejaVuSans-Bold-54" d="M 31 4666 
L 4331 4666 
L 4331 3756 
L 2784 3756 
L 2784 0 
L 1581 0 
L 1581 3756 
L 31 3756 
L 31 4666 
z
" transform="scale(0.015625)"/>
     </defs>
     <use xlink:href="#DejaVuSans-Bold-54"/>
     <use xlink:href="#DejaVuSans-Bold-72" x="57.212891"/>
     <use xlink:href="#DejaVuSans-Bold-61" x="106.529297"/>
     <use xlink:href="#DejaVuSans-Bold-66" x="174.009766"/>
     <use xlink:href="#DejaVuSans-Bold-66" x="217.515625"/>
     <use xlink:href="#DejaVuSans-Bold-69" x="261.021484"/>
     <use xlink:href="#DejaVuSans-Bold-63" x="295.298828"/>
     <use xlink:href="#DejaVuSans-Bold-20" x="354.576172"/>
     <use xlink:href="#DejaVuSans-Bold-4d" x="389.390625"/>
     <use xlink:href="#DejaVuSans-Bold-67" x="488.902344"/>
     <use xlink:href="#DejaVuSans-Bold-6d" x="560.484375"/>
     <use xlink:href="#DejaVuSans-Bold-74" x="664.683594"/>
     <use xlink:href="#DejaVuSans-Bold-20" x="712.486328"/>
     <use xlink:href="#DejaVuSans-Bold-28" x="747.300781"/>
     <use xlink:href="#DejaVuSans-Bold-55" x="793.003906"/>
     <use xlink:href="#DejaVuSans-Bold-54" x="874.205078"/>
     <use xlink:href="#DejaVuSans-Bold-4d" x="942.417969"/>
     <use xlink:href="#DejaVuSans-Bold-29" x="1041.929688"/>
    </g>
    <!-- framework draft -->
    <g style="fill: #0b1c2c" transform="translate(563.960108 129.922734) scale(0.085 -0.085)">
     <use xlink:href="#DejaVuSans-Bold-66"/>
     <use xlink:href="#DejaVuSans-Bold-72" x="43.505859"/>
     <use xlink:href="#DejaVuSans-Bold-61" x="92.822266"/>
     <use xlink:href="#DejaVuSans-Bold-6d" x="160.302734"/>
     <use xlink:href="#DejaVuSans-Bold-65" x="264.501953"/>
     <use xlink:href="#DejaVuSans-Bold-77" x="332.324219"/>
     <use xlink:href="#DejaVuSans-Bold-6f" x="424.707031"/>
     <use xlink:href="#DejaVuSans-Bold-72" x="493.408203"/>
     <use xlink:href="#DejaVuSans-Bold-6b" x="542.724609"/>
     <use xlink:href="#DejaVuSans-Bold-20" x="609.228516"/>
     <use xlink:href="#DejaVuSans-Bold-64" x="644.042969"/>
     <use xlink:href="#DejaVuSans-Bold-72" x="715.625"/>
     <use xlink:href="#DejaVuSans-Bold-61" x="764.941406"/>
     <use xlink:href="#DejaVuSans-Bold-66" x="832.421875"/>
     <use xlink:href="#DejaVuSans-Bold-74" x="875.927734"/>
    </g>
   </g>
   <g id="line2d_30">
    <g clip-path="url(#pba422c85a4)">
     <use xlink:href="#md297903517" x="691.638775" y="186.297969" style="fill: #00a9e0; stroke: #00a9e0"/>
    </g>
   </g>
   <g id="text_19">
    <!-- BVLOS certification -->
    <g style="fill: #0b1c2c" transform="translate(645.459869 247.364141) scale(0.085 -0.085)">
     <use xlink:href="#DejaVuSans-Bold-42"/>
     <use xlink:href="#DejaVuSans-Bold-56" x="72.220703"/>
     <use xlink:href="#DejaVuSans-Bold-4c" x="149.613281"/>
     <use xlink:href="#DejaVuSans-Bold-4f" x="209.708984"/>
     <use xlink:href="#DejaVuSans-Bold-53" x="294.71875"/>
     <use xlink:href="#DejaVuSans-Bold-20" x="366.740234"/>
     <use xlink:href="#DejaVuSans-Bold-63" x="401.554688"/>
     <use xlink:href="#DejaVuSans-Bold-65" x="460.832031"/>
     <use xlink:href="#DejaVuSans-Bold-72" x="528.654297"/>
     <use xlink:href="#DejaVuSans-Bold-74" x="577.970703"/>
     <use xlink:href="#DejaVuSans-Bold-69" x="625.773438"/>
     <use xlink:href="#DejaVuSans-Bold-66" x="660.050781"/>
     <use xlink:href="#DejaVuSans-Bold-69" x="703.556641"/>
     <use xlink:href="#DejaVuSans-Bold-63" x="737.833984"/>
     <use xlink:href="#DejaVuSans-Bold-61" x="797.111328"/>
     <use xlink:href="#DejaVuSans-Bold-74" x="864.591797"/>
     <use xlink:href="#DejaVuSans-Bold-69" x="912.394531"/>
     <use xlink:href="#DejaVuSans-Bold-6f" x="946.671875"/>
     <use xlink:href="#DejaVuSans-Bold-6e" x="1015.373047"/>
    </g>
    <!-- pathway notified -->
    <g style="fill: #0b1c2c" transform="translate(651.095768 256.882281) scale(0.085 -0.085)">
     <use xlink:href="#DejaVuSans-Bold-70"/>
     <use xlink:href="#DejaVuSans-Bold-61" x="71.582031"/>
     <use xlink:href="#DejaVuSans-Bold-74" x="139.0625"/>
     <use xlink:href="#DejaVuSans-Bold-68" x="186.865234"/>
     <use xlink:href="#DejaVuSans-Bold-77" x="258.056641"/>
     <use xlink:href="#DejaVuSans-Bold-61" x="350.439453"/>
     <use xlink:href="#DejaVuSans-Bold-79" x="414.794922"/>
     <use xlink:href="#DejaVuSans-Bold-20" x="479.980469"/>
     <use xlink:href="#DejaVuSans-Bold-6e" x="514.794922"/>
     <use xlink:href="#DejaVuSans-Bold-6f" x="585.986328"/>
     <use xlink:href="#DejaVuSans-Bold-74" x="654.6875"/>
     <use xlink:href="#DejaVuSans-Bold-69" x="702.490234"/>
     <use xlink:href="#DejaVuSans-Bold-66" x="736.767578"/>
     <use xlink:href="#DejaVuSans-Bold-69" x="780.273438"/>
     <use xlink:href="#DejaVuSans-Bold-65" x="814.550781"/>
     <use xlink:href="#DejaVuSans-Bold-64" x="882.373047"/>
    </g>
   </g>
   <g id="line2d_31">
    <g clip-path="url(#pba422c85a4)">
     <use xlink:href="#md297903517" x="780.059396" y="186.297969" style="fill: #00a9e0; stroke: #00a9e0"/>
    </g>
   </g>
   <g id="text_20">
    <!--  drone corridor -->
    <g style="fill: #0b1c2c" transform="translate(743.988849 120.338188) scale(0.085 -0.085)">
     <use xlink:href="#DejaVuSans-Bold-20"/>
     <use xlink:href="#DejaVuSans-Bold-64" x="34.814453"/>
     <use xlink:href="#DejaVuSans-Bold-72" x="106.396484"/>
     <use xlink:href="#DejaVuSans-Bold-6f" x="155.712891"/>
     <use xlink:href="#DejaVuSans-Bold-6e" x="224.414062"/>
     <use xlink:href="#DejaVuSans-Bold-65" x="295.605469"/>
     <use xlink:href="#DejaVuSans-Bold-20" x="363.427734"/>
     <use xlink:href="#DejaVuSans-Bold-63" x="398.242188"/>
     <use xlink:href="#DejaVuSans-Bold-6f" x="457.519531"/>
     <use xlink:href="#DejaVuSans-Bold-72" x="526.220703"/>
     <use xlink:href="#DejaVuSans-Bold-72" x="575.537109"/>
     <use xlink:href="#DejaVuSans-Bold-69" x="624.853516"/>
     <use xlink:href="#DejaVuSans-Bold-64" x="659.130859"/>
     <use xlink:href="#DejaVuSans-Bold-6f" x="730.712891"/>
     <use xlink:href="#DejaVuSans-Bold-72" x="799.414062"/>
    </g>
    <!-- policy expected -->
    <g style="fill: #0b1c2c" transform="translate(742.389786 129.856328) scale(0.085 -0.085)">
     <use xlink:href="#DejaVuSans-Bold-70"/>
     <use xlink:href="#DejaVuSans-Bold-6f" x="71.582031"/>
     <use xlink:href="#DejaVuSans-Bold-6c" x="140.283203"/>
     <use xlink:href="#DejaVuSans-Bold-69" x="174.560547"/>
     <use xlink:href="#DejaVuSans-Bold-63" x="208.837891"/>
     <use xlink:href="#DejaVuSans-Bold-79" x="268.115234"/>
     <use xlink:href="#DejaVuSans-Bold-20" x="333.300781"/>
     <use xlink:href="#DejaVuSans-Bold-65" x="368.115234"/>
     <use xlink:href="#DejaVuSans-Bold-78" x="435.9375"/>
     <use xlink:href="#DejaVuSans-Bold-70" x="500.439453"/>
     <use xlink:href="#DejaVuSans-Bold-65" x="572.021484"/>
     <use xlink:href="#DejaVuSans-Bold-63" x="639.84375"/>
     <use xlink:href="#DejaVuSans-Bold-74" x="699.121094"/>
     <use xlink:href="#DejaVuSans-Bold-65" x="746.923828"/>
     <use xlink:href="#DejaVuSans-Bold-64" x="814.746094"/>
    </g>
   </g>
   <g id="text_21">
    <!-- India Cargo Drone Regulatory Timeline, 2018–2026 -->
    <g style="fill: #0b1c2c" transform="translate(239.606524 20.677969) scale(0.13 -0.13)">
     <defs>
      <path id="DejaVuSans-Bold-38" d="M 2228 2088 
Q 1891 2088 1709 1903 
Q 1528 1719 1528 1375 
Q 1528 1031 1709 848 
Q 1891 666 2228 666 
Q 2563 666 2741 848 
Q 2919 1031 2919 1375 
Q 2919 1722 2741 1905 
Q 2563 2088 2228 2088 
z
M 1350 2484 
Q 925 2613 709 2878 
Q 494 3144 494 3541 
Q 494 4131 934 4440 
Q 1375 4750 2228 4750 
Q 3075 4750 3515 4442 
Q 3956 4134 3956 3541 
Q 3956 3144 3739 2878 
Q 3522 2613 3097 2484 
Q 3572 2353 3814 2058 
Q 4056 1763 4056 1313 
Q 4056 619 3595 264 
Q 3134 -91 2228 -91 
Q 1319 -91 855 264 
Q 391 619 391 1313 
Q 391 1763 633 2058 
Q 875 2353 1350 2484 
z
M 1631 3419 
Q 1631 3141 1786 2991 
Q 1941 2841 2228 2841 
Q 2509 2841 2662 2991 
Q 2816 3141 2816 3419 
Q 2816 3697 2662 3845 
Q 2509 3994 2228 3994 
Q 1941 3994 1786 3844 
Q 1631 3694 1631 3419 
z
" transform="scale(0.015625)"/>
      <path id="DejaVuSans-Bold-2013" d="M 344 2156 
L 2856 2156 
L 2856 1350 
L 344 1350 
L 344 2156 
z
" transform="scale(0.015625)"/>
      <path id="DejaVuSans-Bold-36" d="M 2316 2303 
Q 2000 2303 1842 2098 
Q 1684 1894 1684 1484 
Q 1684 1075 1842 870 
Q 2000 666 2316 666 
Q 2634 666 2792 870 
Q 2950 1075 2950 1484 
Q 2950 1894 2792 2098 
Q 2634 2303 2316 2303 
z
M 3803 4544 
L 3803 3681 
Q 3506 3822 3243 3889 
Q 2981 3956 2731 3956 
Q 2194 3956 1894 3657 
Q 1594 3359 1544 2772 
Q 1750 2925 1990 3001 
Q 2231 3078 2516 3078 
Q 3231 3078 3670 2659 
Q 4109 2241 4109 1563 
Q 4109 813 3618 361 
Q 3128 -91 2303 -91 
Q 1394 -91 895 523 
Q 397 1138 397 2266 
Q 397 3422 980 4083 
Q 1563 4744 2578 4744 
Q 2900 4744 3203 4694 
Q 3506 4644 3803 4544 
z
" transform="scale(0.015625)"/>
     </defs>
     <use xlink:href="#DejaVuSans-Bold-49"/>
     <use xlink:href="#DejaVuSans-Bold-6e" x="37.207031"/>
     <use xlink:href="#DejaVuSans-Bold-64" x="108.398438"/>
     <use xlink:href="#DejaVuSans-Bold-69" x="179.980469"/>
     <use xlink:href="#DejaVuSans-Bold-61" x="214.257812"/>
     <use xlink:href="#DejaVuSans-Bold-20" x="281.738281"/>
     <use xlink:href="#DejaVuSans-Bold-43" x="316.552734"/>
     <use xlink:href="#DejaVuSans-Bold-61" x="389.941406"/>
     <use xlink:href="#DejaVuSans-Bold-72" x="457.421875"/>
     <use xlink:href="#DejaVuSans-Bold-67" x="506.738281"/>
     <use xlink:href="#DejaVuSans-Bold-6f" x="578.320312"/>
     <use xlink:href="#DejaVuSans-Bold-20" x="647.021484"/>
     <use xlink:href="#DejaVuSans-Bold-44" x="681.835938"/>
     <use xlink:href="#DejaVuSans-Bold-72" x="764.84375"/>
     <use xlink:href="#DejaVuSans-Bold-6f" x="814.160156"/>
     <use xlink:href="#DejaVuSans-Bold-6e" x="882.861328"/>
     <use xlink:href="#DejaVuSans-Bold-65" x="954.052734"/>
     <use xlink:href="#DejaVuSans-Bold-20" x="1021.875"/>
     <use xlink:href="#DejaVuSans-Bold-52" x="1056.689453"/>
     <use xlink:href="#DejaVuSans-Bold-65" x="1133.691406"/>
     <use xlink:href="#DejaVuSans-Bold-67" x="1201.513672"/>
     <use xlink:href="#DejaVuSans-Bold-75" x="1273.095703"/>
     <use xlink:href="#DejaVuSans-Bold-6c" x="1344.287109"/>
     <use xlink:href="#DejaVuSans-Bold-61" x="1378.564453"/>
     <use xlink:href="#DejaVuSans-Bold-74" x="1446.044922"/>
     <use xlink:href="#DejaVuSans-Bold-6f" x="1493.847656"/>
     <use xlink:href="#DejaVuSans-Bold-72" x="1562.548828"/>
     <use xlink:href="#DejaVuSans-Bold-79" x="1611.865234"/>
     <use xlink:href="#DejaVuSans-Bold-20" x="1677.050781"/>
     <use xlink:href="#DejaVuSans-Bold-54" x="1711.865234"/>
     <use xlink:href="#DejaVuSans-Bold-69" x="1780.078125"/>
     <use xlink:href="#DejaVuSans-Bold-6d" x="1814.355469"/>
     <use xlink:href="#DejaVuSans-Bold-65" x="1918.554688"/>
     <use xlink:href="#DejaVuSans-Bold-6c" x="1986.376953"/>
     <use xlink:href="#DejaVuSans-Bold-69" x="2020.654297"/>
     <use xlink:href="#DejaVuSans-Bold-6e" x="2054.931641"/>
     <use xlink:href="#DejaVuSans-Bold-65" x="2126.123047"/>
     <use xlink:href="#DejaVuSans-Bold-2c" x="2193.945312"/>
     <use xlink:href="#DejaVuSans-Bold-20" x="2231.933594"/>
     <use xlink:href="#DejaVuSans-Bold-32" x="2266.748047"/>
     <use xlink:href="#DejaVuSans-Bold-30" x="2336.328125"/>
     <use xlink:href="#DejaVuSans-Bold-31" x="2405.908203"/>
     <use xlink:href="#DejaVuSans-Bold-38" x="2475.488281"/>
     <use xlink:href="#DejaVuSans-Bold-2013" x="2545.068359"/>
     <use xlink:href="#DejaVuSans-Bold-32" x="2595.068359"/>
     <use xlink:href="#DejaVuSans-Bold-30" x="2664.648438"/>
     <use xlink:href="#DejaVuSans-Bold-32" x="2734.228516"/>
     <use xlink:href="#DejaVuSans-Bold-36" x="2803.808594"/>
    </g>
   </g>
  </g>
 </g>
 <defs>
  <clipPath id="pba422c85a4">
   <rect x="10.8" y="40.677969" width="831.15383" height="291.24"/>
  </clipPath>
 </defs>
</svg>
