<?xml version="1.0" encoding="utf-8" standalone="no"?>
<!DOCTYPE svg PUBLIC "-//W3C//DTD SVG 1.1//EN"
  "http://www.w3.org/Graphics/SVG/1.1/DTD/svg11.dtd">
<svg xmlns:xlink="http://www.w3.org/1999/xlink" width="791.733437pt" height="394.994219pt" viewBox="0 0 791.733437 394.994219" xmlns="http://www.w3.org/2000/svg" version="1.1">
 <title>09 Scenarios</title>
 <metadata>
  <rdf:RDF xmlns:dc="http://purl.org/dc/elements/1.1/" xmlns:cc="http://creativecommons.org/ns#" xmlns:rdf="http://www.w3.org/1999/02/22-rdf-syntax-ns#">
   <cc:Work>
    <dc:type rdf:resource="http://purl.org/dc/dcmitype/StillImage"/>
    <dc:title>09 Scenarios</dc:title>
    <dc:date>2026-07-09T01:46:45.722419</dc:date>
    <dc:format>image/svg+xml</dc:format>
    <dc:creator>
     <cc:Agent>
      <dc:title>Techadyant Industry Intelligence</dc:title>
     </cc:Agent>
    </dc:creator>
   </cc:Work>
  </rdf:RDF>
 </metadata>
 <defs>
  <style type="text/css">*{stroke-linejoin: round; stroke-linecap: butt}</style>
 </defs>
 <g id="figure_1">
  <g id="patch_1">
   <path d="M 0 394.994219 
L 791.733437 394.994219 
L 791.733437 0 
L 0 0 
z
" style="fill: #ffffff"/>
  </g>
  <g id="axes_1">
   <g id="patch_2">
    <path d="M 66.803438 353.837969 
L 780.933437 353.837969 
L 780.933437 35.677969 
L 66.803438 35.677969 
z
" style="fill: #ffffff"/>
   </g>
   <g id="matplotlib.axis_1">
    <g id="xtick_1">
     <g id="line2d_1">
      <defs>
       <path id="m51327ac998" d="M 0 0 
L 0 3.5 
" style="stroke: #3d4a5c; stroke-width: 0.8"/>
      </defs>
      <g>
       <use xlink:href="#m51327ac998" x="87.014664" y="353.837969" style="fill: #3d4a5c; stroke: #3d4a5c; stroke-width: 0.8"/>
      </g>
     </g>
     <g id="text_1">
      <!-- 2026 -->
      <g style="fill: #3d4a5c" transform="translate(75.562164 367.676562) scale(0.09 -0.09)">
       <defs>
        <path id="DejaVuSans-32" d="M 1228 531 
L 3431 531 
L 3431 0 
L 469 0 
L 469 531 
Q 828 903 1448 1529 
Q 2069 2156 2228 2338 
Q 2531 2678 2651 2914 
Q 2772 3150 2772 3378 
Q 2772 3750 2511 3984 
Q 2250 4219 1831 4219 
Q 1534 4219 1204 4116 
Q 875 4013 500 3803 
L 500 4441 
Q 881 4594 1212 4672 
Q 1544 4750 1819 4750 
Q 2544 4750 2975 4387 
Q 3406 4025 3406 3419 
Q 3406 3131 3298 2873 
Q 3191 2616 2906 2266 
Q 2828 2175 2409 1742 
Q 1991 1309 1228 531 
z
" transform="scale(0.015625)"/>
        <path id="DejaVuSans-30" d="M 2034 4250 
Q 1547 4250 1301 3770 
Q 1056 3291 1056 2328 
Q 1056 1369 1301 889 
Q 1547 409 2034 409 
Q 2525 409 2770 889 
Q 3016 1369 3016 2328 
Q 3016 3291 2770 3770 
Q 2525 4250 2034 4250 
z
M 2034 4750 
Q 2819 4750 3233 4129 
Q 3647 3509 3647 2328 
Q 3647 1150 3233 529 
Q 2819 -91 2034 -91 
Q 1250 -91 836 529 
Q 422 1150 422 2328 
Q 422 3509 836 4129 
Q 1250 4750 2034 4750 
z
" transform="scale(0.015625)"/>
        <path id="DejaVuSans-36" d="M 2113 2584 
Q 1688 2584 1439 2293 
Q 1191 2003 1191 1497 
Q 1191 994 1439 701 
Q 1688 409 2113 409 
Q 2538 409 2786 701 
Q 3034 994 3034 1497 
Q 3034 2003 2786 2293 
Q 2538 2584 2113 2584 
z
M 3366 4563 
L 3366 3988 
Q 3128 4100 2886 4159 
Q 2644 4219 2406 4219 
Q 1781 4219 1451 3797 
Q 1122 3375 1075 2522 
Q 1259 2794 1537 2939 
Q 1816 3084 2150 3084 
Q 2853 3084 3261 2657 
Q 3669 2231 3669 1497 
Q 3669 778 3244 343 
Q 2819 -91 2113 -91 
Q 1303 -91 875 529 
Q 447 1150 447 2328 
Q 447 3434 972 4092 
Q 1497 4750 2381 4750 
Q 2619 4750 2861 4703 
Q 3103 4656 3366 4563 
z
" transform="scale(0.015625)"/>
       </defs>
       <use xlink:href="#DejaVuSans-32"/>
       <use xlink:href="#DejaVuSans-30" x="63.623047"/>
       <use xlink:href="#DejaVuSans-32" x="127.246094"/>
       <use xlink:href="#DejaVuSans-36" x="190.869141"/>
      </g>
     </g>
    </g>
    <g id="xtick_2">
     <g id="line2d_2">
      <g>
       <use xlink:href="#m51327ac998" x="221.756173" y="353.837969" style="fill: #3d4a5c; stroke: #3d4a5c; stroke-width: 0.8"/>
      </g>
     </g>
     <g id="text_2">
      <!-- 2028 -->
      <g style="fill: #3d4a5c" transform="translate(210.303673 367.676562) scale(0.09 -0.09)">
       <defs>
        <path id="DejaVuSans-38" d="M 2034 2216 
Q 1584 2216 1326 1975 
Q 1069 1734 1069 1313 
Q 1069 891 1326 650 
Q 1584 409 2034 409 
Q 2484 409 2743 651 
Q 3003 894 3003 1313 
Q 3003 1734 2745 1975 
Q 2488 2216 2034 2216 
z
M 1403 2484 
Q 997 2584 770 2862 
Q 544 3141 544 3541 
Q 544 4100 942 4425 
Q 1341 4750 2034 4750 
Q 2731 4750 3128 4425 
Q 3525 4100 3525 3541 
Q 3525 3141 3298 2862 
Q 3072 2584 2669 2484 
Q 3125 2378 3379 2068 
Q 3634 1759 3634 1313 
Q 3634 634 3220 271 
Q 2806 -91 2034 -91 
Q 1263 -91 848 271 
Q 434 634 434 1313 
Q 434 1759 690 2068 
Q 947 2378 1403 2484 
z
M 1172 3481 
Q 1172 3119 1398 2916 
Q 1625 2713 2034 2713 
Q 2441 2713 2670 2916 
Q 2900 3119 2900 3481 
Q 2900 3844 2670 4047 
Q 2441 4250 2034 4250 
Q 1625 4250 1398 4047 
Q 1172 3844 1172 3481 
z
" transform="scale(0.015625)"/>
       </defs>
       <use xlink:href="#DejaVuSans-32"/>
       <use xlink:href="#DejaVuSans-30" x="63.623047"/>
       <use xlink:href="#DejaVuSans-32" x="127.246094"/>
       <use xlink:href="#DejaVuSans-38" x="190.869141"/>
      </g>
     </g>
    </g>
    <g id="xtick_3">
     <g id="line2d_3">
      <g>
       <use xlink:href="#m51327ac998" x="356.497683" y="353.837969" style="fill: #3d4a5c; stroke: #3d4a5c; stroke-width: 0.8"/>
      </g>
     </g>
     <g id="text_3">
      <!-- 2030 -->
      <g style="fill: #3d4a5c" transform="translate(345.045183 367.676562) scale(0.09 -0.09)">
       <defs>
        <path id="DejaVuSans-33" d="M 2597 2516 
Q 3050 2419 3304 2112 
Q 3559 1806 3559 1356 
Q 3559 666 3084 287 
Q 2609 -91 1734 -91 
Q 1441 -91 1130 -33 
Q 819 25 488 141 
L 488 750 
Q 750 597 1062 519 
Q 1375 441 1716 441 
Q 2309 441 2620 675 
Q 2931 909 2931 1356 
Q 2931 1769 2642 2001 
Q 2353 2234 1838 2234 
L 1294 2234 
L 1294 2753 
L 1863 2753 
Q 2328 2753 2575 2939 
Q 2822 3125 2822 3475 
Q 2822 3834 2567 4026 
Q 2313 4219 1838 4219 
Q 1578 4219 1281 4162 
Q 984 4106 628 3988 
L 628 4550 
Q 988 4650 1302 4700 
Q 1616 4750 1894 4750 
Q 2613 4750 3031 4423 
Q 3450 4097 3450 3541 
Q 3450 3153 3228 2886 
Q 3006 2619 2597 2516 
z
" transform="scale(0.015625)"/>
       </defs>
       <use xlink:href="#DejaVuSans-32"/>
       <use xlink:href="#DejaVuSans-30" x="63.623047"/>
       <use xlink:href="#DejaVuSans-33" x="127.246094"/>
       <use xlink:href="#DejaVuSans-30" x="190.869141"/>
      </g>
     </g>
    </g>
    <g id="xtick_4">
     <g id="line2d_4">
      <g>
       <use xlink:href="#m51327ac998" x="491.239192" y="353.837969" style="fill: #3d4a5c; stroke: #3d4a5c; stroke-width: 0.8"/>
      </g>
     </g>
     <g id="text_4">
      <!-- 2032 -->
      <g style="fill: #3d4a5c" transform="translate(479.786692 367.676562) scale(0.09 -0.09)">
       <use xlink:href="#DejaVuSans-32"/>
       <use xlink:href="#DejaVuSans-30" x="63.623047"/>
       <use xlink:href="#DejaVuSans-33" x="127.246094"/>
       <use xlink:href="#DejaVuSans-32" x="190.869141"/>
      </g>
     </g>
    </g>
    <g id="xtick_5">
     <g id="line2d_5">
      <g>
       <use xlink:href="#m51327ac998" x="625.980702" y="353.837969" style="fill: #3d4a5c; stroke: #3d4a5c; stroke-width: 0.8"/>
      </g>
     </g>
     <g id="text_5">
      <!-- 2034 -->
      <g style="fill: #3d4a5c" transform="translate(614.528202 367.676562) scale(0.09 -0.09)">
       <defs>
        <path id="DejaVuSans-34" d="M 2419 4116 
L 825 1625 
L 2419 1625 
L 2419 4116 
z
M 2253 4666 
L 3047 4666 
L 3047 1625 
L 3713 1625 
L 3713 1100 
L 3047 1100 
L 3047 0 
L 2419 0 
L 2419 1100 
L 313 1100 
L 313 1709 
L 2253 4666 
z
" transform="scale(0.015625)"/>
       </defs>
       <use xlink:href="#DejaVuSans-32"/>
       <use xlink:href="#DejaVuSans-30" x="63.623047"/>
       <use xlink:href="#DejaVuSans-33" x="127.246094"/>
       <use xlink:href="#DejaVuSans-34" x="190.869141"/>
      </g>
     </g>
    </g>
    <g id="xtick_6">
     <g id="line2d_6">
      <g>
       <use xlink:href="#m51327ac998" x="760.722211" y="353.837969" style="fill: #3d4a5c; stroke: #3d4a5c; stroke-width: 0.8"/>
      </g>
     </g>
     <g id="text_6">
      <!-- 2036 -->
      <g style="fill: #3d4a5c" transform="translate(749.269711 367.676562) scale(0.09 -0.09)">
       <use xlink:href="#DejaVuSans-32"/>
       <use xlink:href="#DejaVuSans-30" x="63.623047"/>
       <use xlink:href="#DejaVuSans-33" x="127.246094"/>
       <use xlink:href="#DejaVuSans-36" x="190.869141"/>
      </g>
     </g>
    </g>
    <g id="text_7">
     <!-- Year -->
     <g style="fill: #3d4a5c" transform="translate(410.233594 381.906562) scale(0.11 -0.11)">
      <defs>
       <path id="DejaVuSans-Bold-59" d="M -63 4666 
L 1253 4666 
L 2316 3003 
L 3378 4666 
L 4697 4666 
L 2919 1966 
L 2919 0 
L 1716 0 
L 1716 1966 
L -63 4666 
z
" transform="scale(0.015625)"/>
       <path id="DejaVuSans-Bold-65" d="M 4031 1759 
L 4031 1441 
L 1416 1441 
Q 1456 1047 1700 850 
Q 1944 653 2381 653 
Q 2734 653 3104 758 
Q 3475 863 3866 1075 
L 3866 213 
Q 3469 63 3072 -14 
Q 2675 -91 2278 -91 
Q 1328 -91 801 392 
Q 275 875 275 1747 
Q 275 2603 792 3093 
Q 1309 3584 2216 3584 
Q 3041 3584 3536 3087 
Q 4031 2591 4031 1759 
z
M 2881 2131 
Q 2881 2450 2695 2645 
Q 2509 2841 2209 2841 
Q 1884 2841 1681 2658 
Q 1478 2475 1428 2131 
L 2881 2131 
z
" transform="scale(0.015625)"/>
       <path id="DejaVuSans-Bold-61" d="M 2106 1575 
Q 1756 1575 1579 1456 
Q 1403 1338 1403 1106 
Q 1403 894 1545 773 
Q 1688 653 1941 653 
Q 2256 653 2472 879 
Q 2688 1106 2688 1447 
L 2688 1575 
L 2106 1575 
z
M 3816 1997 
L 3816 0 
L 2688 0 
L 2688 519 
Q 2463 200 2181 54 
Q 1900 -91 1497 -91 
Q 953 -91 614 226 
Q 275 544 275 1050 
Q 275 1666 698 1953 
Q 1122 2241 2028 2241 
L 2688 2241 
L 2688 2328 
Q 2688 2594 2478 2717 
Q 2269 2841 1825 2841 
Q 1466 2841 1156 2769 
Q 847 2697 581 2553 
L 581 3406 
Q 941 3494 1303 3539 
Q 1666 3584 2028 3584 
Q 2975 3584 3395 3211 
Q 3816 2838 3816 1997 
z
" transform="scale(0.015625)"/>
       <path id="DejaVuSans-Bold-72" d="M 3138 2547 
Q 2991 2616 2845 2648 
Q 2700 2681 2553 2681 
Q 2122 2681 1889 2404 
Q 1656 2128 1656 1613 
L 1656 0 
L 538 0 
L 538 3500 
L 1656 3500 
L 1656 2925 
Q 1872 3269 2151 3426 
Q 2431 3584 2822 3584 
Q 2878 3584 2943 3579 
Q 3009 3575 3134 3559 
L 3138 2547 
z
" transform="scale(0.015625)"/>
      </defs>
      <use xlink:href="#DejaVuSans-Bold-59"/>
      <use xlink:href="#DejaVuSans-Bold-65" x="63.287109"/>
      <use xlink:href="#DejaVuSans-Bold-61" x="131.109375"/>
      <use xlink:href="#DejaVuSans-Bold-72" x="198.589844"/>
     </g>
    </g>
   </g>
   <g id="matplotlib.axis_2">
    <g id="ytick_1">
     <g id="line2d_7">
      <path d="M 66.803438 353.837969 
L 780.933437 353.837969 
" clip-path="url(#p3a62474108)" style="fill: none; stroke: #c8d0da; stroke-opacity: 0.25; stroke-width: 0.6; stroke-linecap: square"/>
     </g>
     <g id="line2d_8">
      <defs>
       <path id="m7355fd4e48" d="M 0 0 
L -3.5 0 
" style="stroke: #3d4a5c; stroke-width: 0.8"/>
      </defs>
      <g>
       <use xlink:href="#m7355fd4e48" x="66.803438" y="353.837969" style="fill: #3d4a5c; stroke: #3d4a5c; stroke-width: 0.8"/>
      </g>
     </g>
     <g id="text_8">
      <!-- 0 -->
      <g style="fill: #3d4a5c" transform="translate(54.077188 357.257266) scale(0.09 -0.09)">
       <use xlink:href="#DejaVuSans-30"/>
      </g>
     </g>
    </g>
    <g id="ytick_2">
     <g id="line2d_9">
      <path d="M 66.803438 314.067969 
L 780.933437 314.067969 
" clip-path="url(#p3a62474108)" style="fill: none; stroke: #c8d0da; stroke-opacity: 0.25; stroke-width: 0.6; stroke-linecap: square"/>
     </g>
     <g id="line2d_10">
      <g>
       <use xlink:href="#m7355fd4e48" x="66.803438" y="314.067969" style="fill: #3d4a5c; stroke: #3d4a5c; stroke-width: 0.8"/>
      </g>
     </g>
     <g id="text_9">
      <!-- 20000 -->
      <g style="fill: #3d4a5c" transform="translate(31.172188 317.487266) scale(0.09 -0.09)">
       <use xlink:href="#DejaVuSans-32"/>
       <use xlink:href="#DejaVuSans-30" x="63.623047"/>
       <use xlink:href="#DejaVuSans-30" x="127.246094"/>
       <use xlink:href="#DejaVuSans-30" x="190.869141"/>
       <use xlink:href="#DejaVuSans-30" x="254.492188"/>
      </g>
     </g>
    </g>
    <g id="ytick_3">
     <g id="line2d_11">
      <path d="M 66.803438 274.297969 
L 780.933437 274.297969 
" clip-path="url(#p3a62474108)" style="fill: none; stroke: #c8d0da; stroke-opacity: 0.25; stroke-width: 0.6; stroke-linecap: square"/>
     </g>
     <g id="line2d_12">
      <g>
       <use xlink:href="#m7355fd4e48" x="66.803438" y="274.297969" style="fill: #3d4a5c; stroke: #3d4a5c; stroke-width: 0.8"/>
      </g>
     </g>
     <g id="text_10">
      <!-- 40000 -->
      <g style="fill: #3d4a5c" transform="translate(31.172188 277.717266) scale(0.09 -0.09)">
       <use xlink:href="#DejaVuSans-34"/>
       <use xlink:href="#DejaVuSans-30" x="63.623047"/>
       <use xlink:href="#DejaVuSans-30" x="127.246094"/>
       <use xlink:href="#DejaVuSans-30" x="190.869141"/>
       <use xlink:href="#DejaVuSans-30" x="254.492188"/>
      </g>
     </g>
    </g>
    <g id="ytick_4">
     <g id="line2d_13">
      <path d="M 66.803438 234.527969 
L 780.933437 234.527969 
" clip-path="url(#p3a62474108)" style="fill: none; stroke: #c8d0da; stroke-opacity: 0.25; stroke-width: 0.6; stroke-linecap: square"/>
     </g>
     <g id="line2d_14">
      <g>
       <use xlink:href="#m7355fd4e48" x="66.803438" y="234.527969" style="fill: #3d4a5c; stroke: #3d4a5c; stroke-width: 0.8"/>
      </g>
     </g>
     <g id="text_11">
      <!-- 60000 -->
      <g style="fill: #3d4a5c" transform="translate(31.172188 237.947266) scale(0.09 -0.09)">
       <use xlink:href="#DejaVuSans-36"/>
       <use xlink:href="#DejaVuSans-30" x="63.623047"/>
       <use xlink:href="#DejaVuSans-30" x="127.246094"/>
       <use xlink:href="#DejaVuSans-30" x="190.869141"/>
       <use xlink:href="#DejaVuSans-30" x="254.492188"/>
      </g>
     </g>
    </g>
    <g id="ytick_5">
     <g id="line2d_15">
      <path d="M 66.803438 194.757969 
L 780.933437 194.757969 
" clip-path="url(#p3a62474108)" style="fill: none; stroke: #c8d0da; stroke-opacity: 0.25; stroke-width: 0.6; stroke-linecap: square"/>
     </g>
     <g id="line2d_16">
      <g>
       <use xlink:href="#m7355fd4e48" x="66.803438" y="194.757969" style="fill: #3d4a5c; stroke: #3d4a5c; stroke-width: 0.8"/>
      </g>
     </g>
     <g id="text_12">
      <!-- 80000 -->
      <g style="fill: #3d4a5c" transform="translate(31.172188 198.177266) scale(0.09 -0.09)">
       <use xlink:href="#DejaVuSans-38"/>
       <use xlink:href="#DejaVuSans-30" x="63.623047"/>
       <use xlink:href="#DejaVuSans-30" x="127.246094"/>
       <use xlink:href="#DejaVuSans-30" x="190.869141"/>
       <use xlink:href="#DejaVuSans-30" x="254.492188"/>
      </g>
     </g>
    </g>
    <g id="ytick_6">
     <g id="line2d_17">
      <path d="M 66.803438 154.987969 
L 780.933437 154.987969 
" clip-path="url(#p3a62474108)" style="fill: none; stroke: #c8d0da; stroke-opacity: 0.25; stroke-width: 0.6; stroke-linecap: square"/>
     </g>
     <g id="line2d_18">
      <g>
       <use xlink:href="#m7355fd4e48" x="66.803438" y="154.987969" style="fill: #3d4a5c; stroke: #3d4a5c; stroke-width: 0.8"/>
      </g>
     </g>
     <g id="text_13">
      <!-- 100000 -->
      <g style="fill: #3d4a5c" transform="translate(25.445938 158.407266) scale(0.09 -0.09)">
       <defs>
        <path id="DejaVuSans-31" d="M 794 531 
L 1825 531 
L 1825 4091 
L 703 3866 
L 703 4441 
L 1819 4666 
L 2450 4666 
L 2450 531 
L 3481 531 
L 3481 0 
L 794 0 
L 794 531 
z
" transform="scale(0.015625)"/>
       </defs>
       <use xlink:href="#DejaVuSans-31"/>
       <use xlink:href="#DejaVuSans-30" x="63.623047"/>
       <use xlink:href="#DejaVuSans-30" x="127.246094"/>
       <use xlink:href="#DejaVuSans-30" x="190.869141"/>
       <use xlink:href="#DejaVuSans-30" x="254.492188"/>
       <use xlink:href="#DejaVuSans-30" x="318.115234"/>
      </g>
     </g>
    </g>
    <g id="ytick_7">
     <g id="line2d_19">
      <path d="M 66.803438 115.217969 
L 780.933437 115.217969 
" clip-path="url(#p3a62474108)" style="fill: none; stroke: #c8d0da; stroke-opacity: 0.25; stroke-width: 0.6; stroke-linecap: square"/>
     </g>
     <g id="line2d_20">
      <g>
       <use xlink:href="#m7355fd4e48" x="66.803438" y="115.217969" style="fill: #3d4a5c; stroke: #3d4a5c; stroke-width: 0.8"/>
      </g>
     </g>
     <g id="text_14">
      <!-- 120000 -->
      <g style="fill: #3d4a5c" transform="translate(25.445938 118.637266) scale(0.09 -0.09)">
       <use xlink:href="#DejaVuSans-31"/>
       <use xlink:href="#DejaVuSans-32" x="63.623047"/>
       <use xlink:href="#DejaVuSans-30" x="127.246094"/>
       <use xlink:href="#DejaVuSans-30" x="190.869141"/>
       <use xlink:href="#DejaVuSans-30" x="254.492188"/>
       <use xlink:href="#DejaVuSans-30" x="318.115234"/>
      </g>
     </g>
    </g>
    <g id="ytick_8">
     <g id="line2d_21">
      <path d="M 66.803438 75.447969 
L 780.933437 75.447969 
" clip-path="url(#p3a62474108)" style="fill: none; stroke: #c8d0da; stroke-opacity: 0.25; stroke-width: 0.6; stroke-linecap: square"/>
     </g>
     <g id="line2d_22">
      <g>
       <use xlink:href="#m7355fd4e48" x="66.803438" y="75.447969" style="fill: #3d4a5c; stroke: #3d4a5c; stroke-width: 0.8"/>
      </g>
     </g>
     <g id="text_15">
      <!-- 140000 -->
      <g style="fill: #3d4a5c" transform="translate(25.445938 78.867266) scale(0.09 -0.09)">
       <use xlink:href="#DejaVuSans-31"/>
       <use xlink:href="#DejaVuSans-34" x="63.623047"/>
       <use xlink:href="#DejaVuSans-30" x="127.246094"/>
       <use xlink:href="#DejaVuSans-30" x="190.869141"/>
       <use xlink:href="#DejaVuSans-30" x="254.492188"/>
       <use xlink:href="#DejaVuSans-30" x="318.115234"/>
      </g>
     </g>
    </g>
    <g id="ytick_9">
     <g id="line2d_23">
      <path d="M 66.803438 35.677969 
L 780.933437 35.677969 
" clip-path="url(#p3a62474108)" style="fill: none; stroke: #c8d0da; stroke-opacity: 0.25; stroke-width: 0.6; stroke-linecap: square"/>
     </g>
     <g id="line2d_24">
      <g>
       <use xlink:href="#m7355fd4e48" x="66.803438" y="35.677969" style="fill: #3d4a5c; stroke: #3d4a5c; stroke-width: 0.8"/>
      </g>
     </g>
     <g id="text_16">
      <!-- 160000 -->
      <g style="fill: #3d4a5c" transform="translate(25.445938 39.097266) scale(0.09 -0.09)">
       <use xlink:href="#DejaVuSans-31"/>
       <use xlink:href="#DejaVuSans-36" x="63.623047"/>
       <use xlink:href="#DejaVuSans-30" x="127.246094"/>
       <use xlink:href="#DejaVuSans-30" x="190.869141"/>
       <use xlink:href="#DejaVuSans-30" x="254.492188"/>
       <use xlink:href="#DejaVuSans-30" x="318.115234"/>
      </g>
     </g>
    </g>
    <g id="text_17">
     <!-- Cumulative active fleet (units) -->
     <g style="fill: #3d4a5c" transform="translate(19.158281 289.343359) rotate(-90) scale(0.11 -0.11)">
      <defs>
       <path id="DejaVuSans-Bold-43" d="M 4288 256 
Q 3956 84 3597 -3 
Q 3238 -91 2847 -91 
Q 1681 -91 1000 561 
Q 319 1213 319 2328 
Q 319 3447 1000 4098 
Q 1681 4750 2847 4750 
Q 3238 4750 3597 4662 
Q 3956 4575 4288 4403 
L 4288 3438 
Q 3953 3666 3628 3772 
Q 3303 3878 2944 3878 
Q 2300 3878 1931 3465 
Q 1563 3053 1563 2328 
Q 1563 1606 1931 1193 
Q 2300 781 2944 781 
Q 3303 781 3628 887 
Q 3953 994 4288 1222 
L 4288 256 
z
" transform="scale(0.015625)"/>
       <path id="DejaVuSans-Bold-75" d="M 500 1363 
L 500 3500 
L 1625 3500 
L 1625 3150 
Q 1625 2866 1622 2436 
Q 1619 2006 1619 1863 
Q 1619 1441 1641 1255 
Q 1663 1069 1716 984 
Q 1784 875 1895 815 
Q 2006 756 2150 756 
Q 2500 756 2700 1025 
Q 2900 1294 2900 1772 
L 2900 3500 
L 4019 3500 
L 4019 0 
L 2900 0 
L 2900 506 
Q 2647 200 2364 54 
Q 2081 -91 1741 -91 
Q 1134 -91 817 281 
Q 500 653 500 1363 
z
" transform="scale(0.015625)"/>
       <path id="DejaVuSans-Bold-6d" d="M 3781 2919 
Q 3994 3244 4286 3414 
Q 4578 3584 4928 3584 
Q 5531 3584 5847 3212 
Q 6163 2841 6163 2131 
L 6163 0 
L 5038 0 
L 5038 1825 
Q 5041 1866 5042 1909 
Q 5044 1953 5044 2034 
Q 5044 2406 4934 2573 
Q 4825 2741 4581 2741 
Q 4263 2741 4089 2478 
Q 3916 2216 3909 1719 
L 3909 0 
L 2784 0 
L 2784 1825 
Q 2784 2406 2684 2573 
Q 2584 2741 2328 2741 
Q 2006 2741 1831 2477 
Q 1656 2213 1656 1722 
L 1656 0 
L 531 0 
L 531 3500 
L 1656 3500 
L 1656 2988 
Q 1863 3284 2130 3434 
Q 2397 3584 2719 3584 
Q 3081 3584 3359 3409 
Q 3638 3234 3781 2919 
z
" transform="scale(0.015625)"/>
       <path id="DejaVuSans-Bold-6c" d="M 538 4863 
L 1656 4863 
L 1656 0 
L 538 0 
L 538 4863 
z
" transform="scale(0.015625)"/>
       <path id="DejaVuSans-Bold-74" d="M 1759 4494 
L 1759 3500 
L 2913 3500 
L 2913 2700 
L 1759 2700 
L 1759 1216 
Q 1759 972 1856 886 
Q 1953 800 2241 800 
L 2816 800 
L 2816 0 
L 1856 0 
Q 1194 0 917 276 
Q 641 553 641 1216 
L 641 2700 
L 84 2700 
L 84 3500 
L 641 3500 
L 641 4494 
L 1759 4494 
z
" transform="scale(0.015625)"/>
       <path id="DejaVuSans-Bold-69" d="M 538 3500 
L 1656 3500 
L 1656 0 
L 538 0 
L 538 3500 
z
M 538 4863 
L 1656 4863 
L 1656 3950 
L 538 3950 
L 538 4863 
z
" transform="scale(0.015625)"/>
       <path id="DejaVuSans-Bold-76" d="M 97 3500 
L 1216 3500 
L 2088 1081 
L 2956 3500 
L 4078 3500 
L 2700 0 
L 1472 0 
L 97 3500 
z
" transform="scale(0.015625)"/>
       <path id="DejaVuSans-Bold-20" transform="scale(0.015625)"/>
       <path id="DejaVuSans-Bold-63" d="M 3366 3391 
L 3366 2478 
Q 3138 2634 2908 2709 
Q 2678 2784 2431 2784 
Q 1963 2784 1702 2511 
Q 1441 2238 1441 1747 
Q 1441 1256 1702 982 
Q 1963 709 2431 709 
Q 2694 709 2930 787 
Q 3166 866 3366 1019 
L 3366 103 
Q 3103 6 2833 -42 
Q 2563 -91 2291 -91 
Q 1344 -91 809 395 
Q 275 881 275 1747 
Q 275 2613 809 3098 
Q 1344 3584 2291 3584 
Q 2566 3584 2833 3536 
Q 3100 3488 3366 3391 
z
" transform="scale(0.015625)"/>
       <path id="DejaVuSans-Bold-66" d="M 2841 4863 
L 2841 4128 
L 2222 4128 
Q 1984 4128 1890 4042 
Q 1797 3956 1797 3744 
L 1797 3500 
L 2753 3500 
L 2753 2700 
L 1797 2700 
L 1797 0 
L 678 0 
L 678 2700 
L 122 2700 
L 122 3500 
L 678 3500 
L 678 3744 
Q 678 4316 997 4589 
Q 1316 4863 1984 4863 
L 2841 4863 
z
" transform="scale(0.015625)"/>
       <path id="DejaVuSans-Bold-28" d="M 2413 -844 
L 1484 -844 
Q 1006 -72 778 623 
Q 550 1319 550 2003 
Q 550 2688 779 3389 
Q 1009 4091 1484 4856 
L 2413 4856 
Q 2013 4116 1813 3408 
Q 1613 2700 1613 2009 
Q 1613 1319 1811 609 
Q 2009 -100 2413 -844 
z
" transform="scale(0.015625)"/>
       <path id="DejaVuSans-Bold-6e" d="M 4056 2131 
L 4056 0 
L 2931 0 
L 2931 347 
L 2931 1631 
Q 2931 2084 2911 2256 
Q 2891 2428 2841 2509 
Q 2775 2619 2662 2680 
Q 2550 2741 2406 2741 
Q 2056 2741 1856 2470 
Q 1656 2200 1656 1722 
L 1656 0 
L 538 0 
L 538 3500 
L 1656 3500 
L 1656 2988 
Q 1909 3294 2193 3439 
Q 2478 3584 2822 3584 
Q 3428 3584 3742 3212 
Q 4056 2841 4056 2131 
z
" transform="scale(0.015625)"/>
       <path id="DejaVuSans-Bold-73" d="M 3272 3391 
L 3272 2541 
Q 2913 2691 2578 2766 
Q 2244 2841 1947 2841 
Q 1628 2841 1473 2761 
Q 1319 2681 1319 2516 
Q 1319 2381 1436 2309 
Q 1553 2238 1856 2203 
L 2053 2175 
Q 2913 2066 3209 1816 
Q 3506 1566 3506 1031 
Q 3506 472 3093 190 
Q 2681 -91 1863 -91 
Q 1516 -91 1145 -36 
Q 775 19 384 128 
L 384 978 
Q 719 816 1070 734 
Q 1422 653 1784 653 
Q 2113 653 2278 743 
Q 2444 834 2444 1013 
Q 2444 1163 2330 1236 
Q 2216 1309 1875 1350 
L 1678 1375 
Q 931 1469 631 1722 
Q 331 1975 331 2491 
Q 331 3047 712 3315 
Q 1094 3584 1881 3584 
Q 2191 3584 2531 3537 
Q 2872 3491 3272 3391 
z
" transform="scale(0.015625)"/>
       <path id="DejaVuSans-Bold-29" d="M 513 -844 
Q 913 -100 1113 609 
Q 1313 1319 1313 2009 
Q 1313 2700 1113 3408 
Q 913 4116 513 4856 
L 1441 4856 
Q 1916 4091 2145 3389 
Q 2375 2688 2375 2003 
Q 2375 1319 2147 623 
Q 1919 -72 1441 -844 
L 513 -844 
z
" transform="scale(0.015625)"/>
      </defs>
      <use xlink:href="#DejaVuSans-Bold-43"/>
      <use xlink:href="#DejaVuSans-Bold-75" x="73.388672"/>
      <use xlink:href="#DejaVuSans-Bold-6d" x="144.580078"/>
      <use xlink:href="#DejaVuSans-Bold-75" x="248.779297"/>
      <use xlink:href="#DejaVuSans-Bold-6c" x="319.970703"/>
      <use xlink:href="#DejaVuSans-Bold-61" x="354.248047"/>
      <use xlink:href="#DejaVuSans-Bold-74" x="421.728516"/>
      <use xlink:href="#DejaVuSans-Bold-69" x="469.53125"/>
      <use xlink:href="#DejaVuSans-Bold-76" x="503.808594"/>
      <use xlink:href="#DejaVuSans-Bold-65" x="568.994141"/>
      <use xlink:href="#DejaVuSans-Bold-20" x="636.816406"/>
      <use xlink:href="#DejaVuSans-Bold-61" x="671.630859"/>
      <use xlink:href="#DejaVuSans-Bold-63" x="739.111328"/>
      <use xlink:href="#DejaVuSans-Bold-74" x="798.388672"/>
      <use xlink:href="#DejaVuSans-Bold-69" x="846.191406"/>
      <use xlink:href="#DejaVuSans-Bold-76" x="880.46875"/>
      <use xlink:href="#DejaVuSans-Bold-65" x="945.654297"/>
      <use xlink:href="#DejaVuSans-Bold-20" x="1013.476562"/>
      <use xlink:href="#DejaVuSans-Bold-66" x="1048.291016"/>
      <use xlink:href="#DejaVuSans-Bold-6c" x="1091.796875"/>
      <use xlink:href="#DejaVuSans-Bold-65" x="1126.074219"/>
      <use xlink:href="#DejaVuSans-Bold-65" x="1193.896484"/>
      <use xlink:href="#DejaVuSans-Bold-74" x="1261.71875"/>
      <use xlink:href="#DejaVuSans-Bold-20" x="1309.521484"/>
      <use xlink:href="#DejaVuSans-Bold-28" x="1344.335938"/>
      <use xlink:href="#DejaVuSans-Bold-75" x="1390.039062"/>
      <use xlink:href="#DejaVuSans-Bold-6e" x="1461.230469"/>
      <use xlink:href="#DejaVuSans-Bold-69" x="1532.421875"/>
      <use xlink:href="#DejaVuSans-Bold-74" x="1566.699219"/>
      <use xlink:href="#DejaVuSans-Bold-73" x="1614.501953"/>
      <use xlink:href="#DejaVuSans-Bold-29" x="1674.023438"/>
     </g>
    </g>
   </g>
   <g id="PolyCollection_1">
    <defs>
     <path id="mad6add48f6" d="M 87.014664 -43.94015 
L 87.014664 -42.051075 
L 154.385419 -42.9459 
L 221.756173 -44.33785 
L 289.126928 -46.1275 
L 356.497683 -48.5137 
L 423.868437 -51.49645 
L 491.239192 -55.2746 
L 558.609947 -59.6493 
L 625.980702 -64.8194 
L 693.351456 -70.58605 
L 693.351456 -323.52325 
L 693.351456 -323.52325 
L 625.980702 -247.96025 
L 558.609947 -188.30525 
L 491.239192 -142.56975 
L 423.868437 -107.771 
L 356.497683 -82.91475 
L 289.126928 -66.0125 
L 221.756173 -54.67805 
L 154.385419 -47.7183 
L 87.014664 -43.94015 
z
" style="stroke: #00a9e0; stroke-opacity: 0.08"/>
    </defs>
    <g clip-path="url(#p3a62474108)">
     <use xlink:href="#mad6add48f6" x="0" y="394.994219" style="fill: #00a9e0; fill-opacity: 0.08; stroke: #00a9e0; stroke-opacity: 0.08"/>
    </g>
   </g>
   <g id="line2d_25">
    <path d="M 87.014664 352.943144 
L 154.385419 352.048319 
L 221.756173 350.656369 
L 289.126928 348.866719 
L 356.497683 346.480519 
L 423.868437 343.497769 
L 491.239192 339.719619 
L 558.609947 335.344919 
L 625.980702 330.174819 
L 693.351456 324.408169 
" clip-path="url(#p3a62474108)" style="fill: none; stroke: #e8a317; stroke-width: 2.2; stroke-linecap: square"/>
    <defs>
     <path id="m8f1a61af88" d="M -3 3 
L 3 3 
L 3 -3 
L -3 -3 
z
" style="stroke: #e8a317; stroke-linejoin: miter"/>
    </defs>
    <g clip-path="url(#p3a62474108)">
     <use xlink:href="#m8f1a61af88" x="87.014664" y="352.943144" style="fill: #e8a317; stroke: #e8a317; stroke-linejoin: miter"/>
     <use xlink:href="#m8f1a61af88" x="154.385419" y="352.048319" style="fill: #e8a317; stroke: #e8a317; stroke-linejoin: miter"/>
     <use xlink:href="#m8f1a61af88" x="221.756173" y="350.656369" style="fill: #e8a317; stroke: #e8a317; stroke-linejoin: miter"/>
     <use xlink:href="#m8f1a61af88" x="289.126928" y="348.866719" style="fill: #e8a317; stroke: #e8a317; stroke-linejoin: miter"/>
     <use xlink:href="#m8f1a61af88" x="356.497683" y="346.480519" style="fill: #e8a317; stroke: #e8a317; stroke-linejoin: miter"/>
     <use xlink:href="#m8f1a61af88" x="423.868437" y="343.497769" style="fill: #e8a317; stroke: #e8a317; stroke-linejoin: miter"/>
     <use xlink:href="#m8f1a61af88" x="491.239192" y="339.719619" style="fill: #e8a317; stroke: #e8a317; stroke-linejoin: miter"/>
     <use xlink:href="#m8f1a61af88" x="558.609947" y="335.344919" style="fill: #e8a317; stroke: #e8a317; stroke-linejoin: miter"/>
     <use xlink:href="#m8f1a61af88" x="625.980702" y="330.174819" style="fill: #e8a317; stroke: #e8a317; stroke-linejoin: miter"/>
     <use xlink:href="#m8f1a61af88" x="693.351456" y="324.408169" style="fill: #e8a317; stroke: #e8a317; stroke-linejoin: miter"/>
    </g>
   </g>
   <g id="line2d_26">
    <path d="M 87.014664 352.147744 
L 154.385419 350.159244 
L 221.756173 346.977644 
L 289.126928 342.304669 
L 356.497683 335.742619 
L 423.868437 326.595519 
L 491.239192 314.465669 
L 558.609947 298.557669 
L 625.980702 278.672669 
L 693.351456 254.015269 
" clip-path="url(#p3a62474108)" style="fill: none; stroke: #0b1c2c; stroke-width: 2.5; stroke-linecap: square"/>
    <defs>
     <path id="m0777e7b6d2" d="M 0 3.5 
C 0.928211 3.5 1.81853 3.131218 2.474874 2.474874 
C 3.131218 1.81853 3.5 0.928211 3.5 0 
C 3.5 -0.928211 3.131218 -1.81853 2.474874 -2.474874 
C 1.81853 -3.131218 0.928211 -3.5 0 -3.5 
C -0.928211 -3.5 -1.81853 -3.131218 -2.474874 -2.474874 
C -3.131218 -1.81853 -3.5 -0.928211 -3.5 0 
C -3.5 0.928211 -3.131218 1.81853 -2.474874 2.474874 
C -1.81853 3.131218 -0.928211 3.5 0 3.5 
z
" style="stroke: #0b1c2c"/>
    </defs>
    <g clip-path="url(#p3a62474108)">
     <use xlink:href="#m0777e7b6d2" x="87.014664" y="352.147744" style="fill: #0b1c2c; stroke: #0b1c2c"/>
     <use xlink:href="#m0777e7b6d2" x="154.385419" y="350.159244" style="fill: #0b1c2c; stroke: #0b1c2c"/>
     <use xlink:href="#m0777e7b6d2" x="221.756173" y="346.977644" style="fill: #0b1c2c; stroke: #0b1c2c"/>
     <use xlink:href="#m0777e7b6d2" x="289.126928" y="342.304669" style="fill: #0b1c2c; stroke: #0b1c2c"/>
     <use xlink:href="#m0777e7b6d2" x="356.497683" y="335.742619" style="fill: #0b1c2c; stroke: #0b1c2c"/>
     <use xlink:href="#m0777e7b6d2" x="423.868437" y="326.595519" style="fill: #0b1c2c; stroke: #0b1c2c"/>
     <use xlink:href="#m0777e7b6d2" x="491.239192" y="314.465669" style="fill: #0b1c2c; stroke: #0b1c2c"/>
     <use xlink:href="#m0777e7b6d2" x="558.609947" y="298.557669" style="fill: #0b1c2c; stroke: #0b1c2c"/>
     <use xlink:href="#m0777e7b6d2" x="625.980702" y="278.672669" style="fill: #0b1c2c; stroke: #0b1c2c"/>
     <use xlink:href="#m0777e7b6d2" x="693.351456" y="254.015269" style="fill: #0b1c2c; stroke: #0b1c2c"/>
    </g>
   </g>
   <g id="line2d_27">
    <path d="M 87.014664 351.054069 
L 154.385419 347.275919 
L 221.756173 340.316169 
L 289.126928 328.981719 
L 356.497683 312.079469 
L 423.868437 287.223219 
L 491.239192 252.424469 
L 558.609947 206.688969 
L 625.980702 147.033969 
L 693.351456 71.470969 
" clip-path="url(#p3a62474108)" style="fill: none; stroke: #00a9e0; stroke-width: 2.5; stroke-linecap: square"/>
    <defs>
     <path id="m28add715a0" d="M 0 -3.5 
L -3.5 3.5 
L 3.5 3.5 
z
" style="stroke: #00a9e0; stroke-linejoin: miter"/>
    </defs>
    <g clip-path="url(#p3a62474108)">
     <use xlink:href="#m28add715a0" x="87.014664" y="351.054069" style="fill: #00a9e0; stroke: #00a9e0; stroke-linejoin: miter"/>
     <use xlink:href="#m28add715a0" x="154.385419" y="347.275919" style="fill: #00a9e0; stroke: #00a9e0; stroke-linejoin: miter"/>
     <use xlink:href="#m28add715a0" x="221.756173" y="340.316169" style="fill: #00a9e0; stroke: #00a9e0; stroke-linejoin: miter"/>
     <use xlink:href="#m28add715a0" x="289.126928" y="328.981719" style="fill: #00a9e0; stroke: #00a9e0; stroke-linejoin: miter"/>
     <use xlink:href="#m28add715a0" x="356.497683" y="312.079469" style="fill: #00a9e0; stroke: #00a9e0; stroke-linejoin: miter"/>
     <use xlink:href="#m28add715a0" x="423.868437" y="287.223219" style="fill: #00a9e0; stroke: #00a9e0; stroke-linejoin: miter"/>
     <use xlink:href="#m28add715a0" x="491.239192" y="252.424469" style="fill: #00a9e0; stroke: #00a9e0; stroke-linejoin: miter"/>
     <use xlink:href="#m28add715a0" x="558.609947" y="206.688969" style="fill: #00a9e0; stroke: #00a9e0; stroke-linejoin: miter"/>
     <use xlink:href="#m28add715a0" x="625.980702" y="147.033969" style="fill: #00a9e0; stroke: #00a9e0; stroke-linejoin: miter"/>
     <use xlink:href="#m28add715a0" x="693.351456" y="71.470969" style="fill: #00a9e0; stroke: #00a9e0; stroke-linejoin: miter"/>
    </g>
   </g>
   <g id="patch_3">
    <path d="M 66.803438 353.837969 
L 66.803438 35.677969 
" style="fill: none; stroke: #7b8794; stroke-width: 0.8; stroke-linejoin: miter; stroke-linecap: square"/>
   </g>
   <g id="patch_4">
    <path d="M 66.803437 353.837969 
L 780.933437 353.837969 
" style="fill: none; stroke: #7b8794; stroke-width: 0.8; stroke-linejoin: miter; stroke-linecap: square"/>
   </g>
   <g id="text_18">
    <!--   14,800 -->
    <g style="fill: #e8a317" transform="translate(703.45707 326.891606) scale(0.09 -0.09)">
     <defs>
      <path id="DejaVuSans-Bold-31" d="M 750 831 
L 1813 831 
L 1813 3847 
L 722 3622 
L 722 4441 
L 1806 4666 
L 2950 4666 
L 2950 831 
L 4013 831 
L 4013 0 
L 750 0 
L 750 831 
z
" transform="scale(0.015625)"/>
      <path id="DejaVuSans-Bold-34" d="M 2356 3675 
L 1038 1722 
L 2356 1722 
L 2356 3675 
z
M 2156 4666 
L 3494 4666 
L 3494 1722 
L 4159 1722 
L 4159 850 
L 3494 850 
L 3494 0 
L 2356 0 
L 2356 850 
L 288 850 
L 288 1881 
L 2156 4666 
z
" transform="scale(0.015625)"/>
      <path id="DejaVuSans-Bold-2c" d="M 653 1209 
L 1778 1209 
L 1778 256 
L 1006 -909 
L 341 -909 
L 653 256 
L 653 1209 
z
" transform="scale(0.015625)"/>
      <path id="DejaVuSans-Bold-38" d="M 2228 2088 
Q 1891 2088 1709 1903 
Q 1528 1719 1528 1375 
Q 1528 1031 1709 848 
Q 1891 666 2228 666 
Q 2563 666 2741 848 
Q 2919 1031 2919 1375 
Q 2919 1722 2741 1905 
Q 2563 2088 2228 2088 
z
M 1350 2484 
Q 925 2613 709 2878 
Q 494 3144 494 3541 
Q 494 4131 934 4440 
Q 1375 4750 2228 4750 
Q 3075 4750 3515 4442 
Q 3956 4134 3956 3541 
Q 3956 3144 3739 2878 
Q 3522 2613 3097 2484 
Q 3572 2353 3814 2058 
Q 4056 1763 4056 1313 
Q 4056 619 3595 264 
Q 3134 -91 2228 -91 
Q 1319 -91 855 264 
Q 391 619 391 1313 
Q 391 1763 633 2058 
Q 875 2353 1350 2484 
z
M 1631 3419 
Q 1631 3141 1786 2991 
Q 1941 2841 2228 2841 
Q 2509 2841 2662 2991 
Q 2816 3141 2816 3419 
Q 2816 3697 2662 3845 
Q 2509 3994 2228 3994 
Q 1941 3994 1786 3844 
Q 1631 3694 1631 3419 
z
" transform="scale(0.015625)"/>
      <path id="DejaVuSans-Bold-30" d="M 2944 2338 
Q 2944 3213 2780 3570 
Q 2616 3928 2228 3928 
Q 1841 3928 1675 3570 
Q 1509 3213 1509 2338 
Q 1509 1453 1675 1090 
Q 1841 728 2228 728 
Q 2613 728 2778 1090 
Q 2944 1453 2944 2338 
z
M 4147 2328 
Q 4147 1169 3647 539 
Q 3147 -91 2228 -91 
Q 1306 -91 806 539 
Q 306 1169 306 2328 
Q 306 3491 806 4120 
Q 1306 4750 2228 4750 
Q 3147 4750 3647 4120 
Q 4147 3491 4147 2328 
z
" transform="scale(0.015625)"/>
     </defs>
     <use xlink:href="#DejaVuSans-Bold-20"/>
     <use xlink:href="#DejaVuSans-Bold-20" x="34.814453"/>
     <use xlink:href="#DejaVuSans-Bold-31" x="69.628906"/>
     <use xlink:href="#DejaVuSans-Bold-34" x="139.208984"/>
     <use xlink:href="#DejaVuSans-Bold-2c" x="208.789062"/>
     <use xlink:href="#DejaVuSans-Bold-38" x="246.777344"/>
     <use xlink:href="#DejaVuSans-Bold-30" x="316.357422"/>
     <use xlink:href="#DejaVuSans-Bold-30" x="385.9375"/>
    </g>
   </g>
   <g id="text_19">
    <!--   50,200 -->
    <g style="fill: #0b1c2c" transform="translate(703.45707 256.498706) scale(0.09 -0.09)">
     <defs>
      <path id="DejaVuSans-Bold-35" d="M 678 4666 
L 3669 4666 
L 3669 3781 
L 1638 3781 
L 1638 3059 
Q 1775 3097 1914 3117 
Q 2053 3138 2203 3138 
Q 3056 3138 3531 2711 
Q 4006 2284 4006 1522 
Q 4006 766 3489 337 
Q 2972 -91 2053 -91 
Q 1656 -91 1267 -14 
Q 878 63 494 219 
L 494 1166 
Q 875 947 1217 837 
Q 1559 728 1863 728 
Q 2300 728 2551 942 
Q 2803 1156 2803 1522 
Q 2803 1891 2551 2103 
Q 2300 2316 1863 2316 
Q 1603 2316 1309 2248 
Q 1016 2181 678 2041 
L 678 4666 
z
" transform="scale(0.015625)"/>
      <path id="DejaVuSans-Bold-32" d="M 1844 884 
L 3897 884 
L 3897 0 
L 506 0 
L 506 884 
L 2209 2388 
Q 2438 2594 2547 2791 
Q 2656 2988 2656 3200 
Q 2656 3528 2436 3728 
Q 2216 3928 1850 3928 
Q 1569 3928 1234 3808 
Q 900 3688 519 3450 
L 519 4475 
Q 925 4609 1322 4679 
Q 1719 4750 2100 4750 
Q 2938 4750 3402 4381 
Q 3866 4013 3866 3353 
Q 3866 2972 3669 2642 
Q 3472 2313 2841 1759 
L 1844 884 
z
" transform="scale(0.015625)"/>
     </defs>
     <use xlink:href="#DejaVuSans-Bold-20"/>
     <use xlink:href="#DejaVuSans-Bold-20" x="34.814453"/>
     <use xlink:href="#DejaVuSans-Bold-35" x="69.628906"/>
     <use xlink:href="#DejaVuSans-Bold-30" x="139.208984"/>
     <use xlink:href="#DejaVuSans-Bold-2c" x="208.789062"/>
     <use xlink:href="#DejaVuSans-Bold-32" x="246.777344"/>
     <use xlink:href="#DejaVuSans-Bold-30" x="316.357422"/>
     <use xlink:href="#DejaVuSans-Bold-30" x="385.9375"/>
    </g>
   </g>
   <g id="text_20">
    <!--   142,000 -->
    <g style="fill: #007ba8" transform="translate(703.45707 73.954406) scale(0.09 -0.09)">
     <use xlink:href="#DejaVuSans-Bold-20"/>
     <use xlink:href="#DejaVuSans-Bold-20" x="34.814453"/>
     <use xlink:href="#DejaVuSans-Bold-31" x="69.628906"/>
     <use xlink:href="#DejaVuSans-Bold-34" x="139.208984"/>
     <use xlink:href="#DejaVuSans-Bold-32" x="208.789062"/>
     <use xlink:href="#DejaVuSans-Bold-2c" x="278.369141"/>
     <use xlink:href="#DejaVuSans-Bold-30" x="316.357422"/>
     <use xlink:href="#DejaVuSans-Bold-30" x="385.9375"/>
     <use xlink:href="#DejaVuSans-Bold-30" x="455.517578"/>
    </g>
   </g>
   <g id="text_21">
    <!-- India Cargo Drone Fleet — Three Scenarios, 2026–2035 -->
    <g style="fill: #0b1c2c" transform="translate(222.330859 20.677969) scale(0.13 -0.13)">
     <defs>
      <path id="DejaVuSans-Bold-49" d="M 588 4666 
L 1791 4666 
L 1791 0 
L 588 0 
L 588 4666 
z
" transform="scale(0.015625)"/>
      <path id="DejaVuSans-Bold-64" d="M 2919 2988 
L 2919 4863 
L 4044 4863 
L 4044 0 
L 2919 0 
L 2919 506 
Q 2688 197 2409 53 
Q 2131 -91 1766 -91 
Q 1119 -91 703 423 
Q 288 938 288 1747 
Q 288 2556 703 3070 
Q 1119 3584 1766 3584 
Q 2128 3584 2408 3439 
Q 2688 3294 2919 2988 
z
M 2181 722 
Q 2541 722 2730 984 
Q 2919 1247 2919 1747 
Q 2919 2247 2730 2509 
Q 2541 2772 2181 2772 
Q 1825 2772 1636 2509 
Q 1447 2247 1447 1747 
Q 1447 1247 1636 984 
Q 1825 722 2181 722 
z
" transform="scale(0.015625)"/>
      <path id="DejaVuSans-Bold-67" d="M 2919 594 
Q 2688 288 2409 144 
Q 2131 0 1766 0 
Q 1125 0 706 504 
Q 288 1009 288 1791 
Q 288 2575 706 3076 
Q 1125 3578 1766 3578 
Q 2131 3578 2409 3434 
Q 2688 3291 2919 2981 
L 2919 3500 
L 4044 3500 
L 4044 353 
Q 4044 -491 3511 -936 
Q 2978 -1381 1966 -1381 
Q 1638 -1381 1331 -1331 
Q 1025 -1281 716 -1178 
L 716 -306 
Q 1009 -475 1290 -558 
Q 1572 -641 1856 -641 
Q 2406 -641 2662 -400 
Q 2919 -159 2919 353 
L 2919 594 
z
M 2181 2772 
Q 1834 2772 1640 2515 
Q 1447 2259 1447 1791 
Q 1447 1309 1634 1061 
Q 1822 813 2181 813 
Q 2531 813 2725 1069 
Q 2919 1325 2919 1791 
Q 2919 2259 2725 2515 
Q 2531 2772 2181 2772 
z
" transform="scale(0.015625)"/>
      <path id="DejaVuSans-Bold-6f" d="M 2203 2784 
Q 1831 2784 1636 2517 
Q 1441 2250 1441 1747 
Q 1441 1244 1636 976 
Q 1831 709 2203 709 
Q 2569 709 2762 976 
Q 2956 1244 2956 1747 
Q 2956 2250 2762 2517 
Q 2569 2784 2203 2784 
z
M 2203 3584 
Q 3106 3584 3614 3096 
Q 4122 2609 4122 1747 
Q 4122 884 3614 396 
Q 3106 -91 2203 -91 
Q 1297 -91 786 396 
Q 275 884 275 1747 
Q 275 2609 786 3096 
Q 1297 3584 2203 3584 
z
" transform="scale(0.015625)"/>
      <path id="DejaVuSans-Bold-44" d="M 1791 3756 
L 1791 909 
L 2222 909 
Q 2959 909 3348 1275 
Q 3738 1641 3738 2338 
Q 3738 3031 3350 3393 
Q 2963 3756 2222 3756 
L 1791 3756 
z
M 588 4666 
L 1856 4666 
Q 2919 4666 3439 4514 
Q 3959 4363 4331 4000 
Q 4659 3684 4818 3271 
Q 4978 2859 4978 2338 
Q 4978 1809 4818 1395 
Q 4659 981 4331 666 
Q 3956 303 3431 151 
Q 2906 0 1856 0 
L 588 0 
L 588 4666 
z
" transform="scale(0.015625)"/>
      <path id="DejaVuSans-Bold-46" d="M 588 4666 
L 3834 4666 
L 3834 3756 
L 1791 3756 
L 1791 2888 
L 3713 2888 
L 3713 1978 
L 1791 1978 
L 1791 0 
L 588 0 
L 588 4666 
z
" transform="scale(0.015625)"/>
      <path id="DejaVuSans-Bold-2014" d="M 344 2156 
L 6056 2156 
L 6056 1350 
L 344 1350 
L 344 2156 
z
" transform="scale(0.015625)"/>
      <path id="DejaVuSans-Bold-54" d="M 31 4666 
L 4331 4666 
L 4331 3756 
L 2784 3756 
L 2784 0 
L 1581 0 
L 1581 3756 
L 31 3756 
L 31 4666 
z
" transform="scale(0.015625)"/>
      <path id="DejaVuSans-Bold-68" d="M 4056 2131 
L 4056 0 
L 2931 0 
L 2931 347 
L 2931 1625 
Q 2931 2084 2911 2256 
Q 2891 2428 2841 2509 
Q 2775 2619 2662 2680 
Q 2550 2741 2406 2741 
Q 2056 2741 1856 2470 
Q 1656 2200 1656 1722 
L 1656 0 
L 538 0 
L 538 4863 
L 1656 4863 
L 1656 2988 
Q 1909 3294 2193 3439 
Q 2478 3584 2822 3584 
Q 3428 3584 3742 3212 
Q 4056 2841 4056 2131 
z
" transform="scale(0.015625)"/>
      <path id="DejaVuSans-Bold-53" d="M 3834 4519 
L 3834 3531 
Q 3450 3703 3084 3790 
Q 2719 3878 2394 3878 
Q 1963 3878 1756 3759 
Q 1550 3641 1550 3391 
Q 1550 3203 1689 3098 
Q 1828 2994 2194 2919 
L 2706 2816 
Q 3484 2659 3812 2340 
Q 4141 2022 4141 1434 
Q 4141 663 3683 286 
Q 3225 -91 2284 -91 
Q 1841 -91 1394 -6 
Q 947 78 500 244 
L 500 1259 
Q 947 1022 1364 901 
Q 1781 781 2169 781 
Q 2563 781 2772 912 
Q 2981 1044 2981 1288 
Q 2981 1506 2839 1625 
Q 2697 1744 2272 1838 
L 1806 1941 
Q 1106 2091 782 2419 
Q 459 2747 459 3303 
Q 459 4000 909 4375 
Q 1359 4750 2203 4750 
Q 2588 4750 2994 4692 
Q 3400 4634 3834 4519 
z
" transform="scale(0.015625)"/>
      <path id="DejaVuSans-Bold-36" d="M 2316 2303 
Q 2000 2303 1842 2098 
Q 1684 1894 1684 1484 
Q 1684 1075 1842 870 
Q 2000 666 2316 666 
Q 2634 666 2792 870 
Q 2950 1075 2950 1484 
Q 2950 1894 2792 2098 
Q 2634 2303 2316 2303 
z
M 3803 4544 
L 3803 3681 
Q 3506 3822 3243 3889 
Q 2981 3956 2731 3956 
Q 2194 3956 1894 3657 
Q 1594 3359 1544 2772 
Q 1750 2925 1990 3001 
Q 2231 3078 2516 3078 
Q 3231 3078 3670 2659 
Q 4109 2241 4109 1563 
Q 4109 813 3618 361 
Q 3128 -91 2303 -91 
Q 1394 -91 895 523 
Q 397 1138 397 2266 
Q 397 3422 980 4083 
Q 1563 4744 2578 4744 
Q 2900 4744 3203 4694 
Q 3506 4644 3803 4544 
z
" transform="scale(0.015625)"/>
      <path id="DejaVuSans-Bold-2013" d="M 344 2156 
L 2856 2156 
L 2856 1350 
L 344 1350 
L 344 2156 
z
" transform="scale(0.015625)"/>
      <path id="DejaVuSans-Bold-33" d="M 2981 2516 
Q 3453 2394 3698 2092 
Q 3944 1791 3944 1325 
Q 3944 631 3412 270 
Q 2881 -91 1863 -91 
Q 1503 -91 1142 -33 
Q 781 25 428 141 
L 428 1069 
Q 766 900 1098 814 
Q 1431 728 1753 728 
Q 2231 728 2486 893 
Q 2741 1059 2741 1369 
Q 2741 1688 2480 1852 
Q 2219 2016 1709 2016 
L 1228 2016 
L 1228 2791 
L 1734 2791 
Q 2188 2791 2409 2933 
Q 2631 3075 2631 3366 
Q 2631 3634 2415 3781 
Q 2200 3928 1806 3928 
Q 1516 3928 1219 3862 
Q 922 3797 628 3669 
L 628 4550 
Q 984 4650 1334 4700 
Q 1684 4750 2022 4750 
Q 2931 4750 3382 4451 
Q 3834 4153 3834 3553 
Q 3834 3144 3618 2883 
Q 3403 2622 2981 2516 
z
" transform="scale(0.015625)"/>
     </defs>
     <use xlink:href="#DejaVuSans-Bold-49"/>
     <use xlink:href="#DejaVuSans-Bold-6e" x="37.207031"/>
     <use xlink:href="#DejaVuSans-Bold-64" x="108.398438"/>
     <use xlink:href="#DejaVuSans-Bold-69" x="179.980469"/>
     <use xlink:href="#DejaVuSans-Bold-61" x="214.257812"/>
     <use xlink:href="#DejaVuSans-Bold-20" x="281.738281"/>
     <use xlink:href="#DejaVuSans-Bold-43" x="316.552734"/>
     <use xlink:href="#DejaVuSans-Bold-61" x="389.941406"/>
     <use xlink:href="#DejaVuSans-Bold-72" x="457.421875"/>
     <use xlink:href="#DejaVuSans-Bold-67" x="506.738281"/>
     <use xlink:href="#DejaVuSans-Bold-6f" x="578.320312"/>
     <use xlink:href="#DejaVuSans-Bold-20" x="647.021484"/>
     <use xlink:href="#DejaVuSans-Bold-44" x="681.835938"/>
     <use xlink:href="#DejaVuSans-Bold-72" x="764.84375"/>
     <use xlink:href="#DejaVuSans-Bold-6f" x="814.160156"/>
     <use xlink:href="#DejaVuSans-Bold-6e" x="882.861328"/>
     <use xlink:href="#DejaVuSans-Bold-65" x="954.052734"/>
     <use xlink:href="#DejaVuSans-Bold-20" x="1021.875"/>
     <use xlink:href="#DejaVuSans-Bold-46" x="1056.689453"/>
     <use xlink:href="#DejaVuSans-Bold-6c" x="1125"/>
     <use xlink:href="#DejaVuSans-Bold-65" x="1159.277344"/>
     <use xlink:href="#DejaVuSans-Bold-65" x="1227.099609"/>
     <use xlink:href="#DejaVuSans-Bold-74" x="1294.921875"/>
     <use xlink:href="#DejaVuSans-Bold-20" x="1342.724609"/>
     <use xlink:href="#DejaVuSans-Bold-2014" x="1377.539062"/>
     <use xlink:href="#DejaVuSans-Bold-20" x="1477.539062"/>
     <use xlink:href="#DejaVuSans-Bold-54" x="1512.353516"/>
     <use xlink:href="#DejaVuSans-Bold-68" x="1580.566406"/>
     <use xlink:href="#DejaVuSans-Bold-72" x="1651.757812"/>
     <use xlink:href="#DejaVuSans-Bold-65" x="1701.074219"/>
     <use xlink:href="#DejaVuSans-Bold-65" x="1768.896484"/>
     <use xlink:href="#DejaVuSans-Bold-20" x="1836.71875"/>
     <use xlink:href="#DejaVuSans-Bold-53" x="1871.533203"/>
     <use xlink:href="#DejaVuSans-Bold-63" x="1943.554688"/>
     <use xlink:href="#DejaVuSans-Bold-65" x="2002.832031"/>
     <use xlink:href="#DejaVuSans-Bold-6e" x="2070.654297"/>
     <use xlink:href="#DejaVuSans-Bold-61" x="2141.845703"/>
     <use xlink:href="#DejaVuSans-Bold-72" x="2209.326172"/>
     <use xlink:href="#DejaVuSans-Bold-69" x="2258.642578"/>
     <use xlink:href="#DejaVuSans-Bold-6f" x="2292.919922"/>
     <use xlink:href="#DejaVuSans-Bold-73" x="2361.621094"/>
     <use xlink:href="#DejaVuSans-Bold-2c" x="2421.142578"/>
     <use xlink:href="#DejaVuSans-Bold-20" x="2459.130859"/>
     <use xlink:href="#DejaVuSans-Bold-32" x="2493.945312"/>
     <use xlink:href="#DejaVuSans-Bold-30" x="2563.525391"/>
     <use xlink:href="#DejaVuSans-Bold-32" x="2633.105469"/>
     <use xlink:href="#DejaVuSans-Bold-36" x="2702.685547"/>
     <use xlink:href="#DejaVuSans-Bold-2013" x="2772.265625"/>
     <use xlink:href="#DejaVuSans-Bold-32" x="2822.265625"/>
     <use xlink:href="#DejaVuSans-Bold-30" x="2891.845703"/>
     <use xlink:href="#DejaVuSans-Bold-33" x="2961.425781"/>
     <use xlink:href="#DejaVuSans-Bold-35" x="3031.005859"/>
    </g>
   </g>
   <g id="legend_1">
    <g id="line2d_28">
     <path d="M 75.353438 48.121484 
L 84.853438 48.121484 
L 94.353438 48.121484 
" style="fill: none; stroke: #e8a317; stroke-width: 2.2; stroke-linecap: square"/>
     <g>
      <use xlink:href="#m8f1a61af88" x="84.853438" y="48.121484" style="fill: #e8a317; stroke: #e8a317; stroke-linejoin: miter"/>
     </g>
    </g>
    <g id="text_22">
     <!-- Conservative — slow regulation -->
     <g transform="translate(101.953438 51.446484) scale(0.095 -0.095)">
      <defs>
       <path id="DejaVuSans-43" d="M 4122 4306 
L 4122 3641 
Q 3803 3938 3442 4084 
Q 3081 4231 2675 4231 
Q 1875 4231 1450 3742 
Q 1025 3253 1025 2328 
Q 1025 1406 1450 917 
Q 1875 428 2675 428 
Q 3081 428 3442 575 
Q 3803 722 4122 1019 
L 4122 359 
Q 3791 134 3420 21 
Q 3050 -91 2638 -91 
Q 1578 -91 968 557 
Q 359 1206 359 2328 
Q 359 3453 968 4101 
Q 1578 4750 2638 4750 
Q 3056 4750 3426 4639 
Q 3797 4528 4122 4306 
z
" transform="scale(0.015625)"/>
       <path id="DejaVuSans-6f" d="M 1959 3097 
Q 1497 3097 1228 2736 
Q 959 2375 959 1747 
Q 959 1119 1226 758 
Q 1494 397 1959 397 
Q 2419 397 2687 759 
Q 2956 1122 2956 1747 
Q 2956 2369 2687 2733 
Q 2419 3097 1959 3097 
z
M 1959 3584 
Q 2709 3584 3137 3096 
Q 3566 2609 3566 1747 
Q 3566 888 3137 398 
Q 2709 -91 1959 -91 
Q 1206 -91 779 398 
Q 353 888 353 1747 
Q 353 2609 779 3096 
Q 1206 3584 1959 3584 
z
" transform="scale(0.015625)"/>
       <path id="DejaVuSans-6e" d="M 3513 2113 
L 3513 0 
L 2938 0 
L 2938 2094 
Q 2938 2591 2744 2837 
Q 2550 3084 2163 3084 
Q 1697 3084 1428 2787 
Q 1159 2491 1159 1978 
L 1159 0 
L 581 0 
L 581 3500 
L 1159 3500 
L 1159 2956 
Q 1366 3272 1645 3428 
Q 1925 3584 2291 3584 
Q 2894 3584 3203 3211 
Q 3513 2838 3513 2113 
z
" transform="scale(0.015625)"/>
       <path id="DejaVuSans-73" d="M 2834 3397 
L 2834 2853 
Q 2591 2978 2328 3040 
Q 2066 3103 1784 3103 
Q 1356 3103 1142 2972 
Q 928 2841 928 2578 
Q 928 2378 1081 2264 
Q 1234 2150 1697 2047 
L 1894 2003 
Q 2506 1872 2764 1633 
Q 3022 1394 3022 966 
Q 3022 478 2636 193 
Q 2250 -91 1575 -91 
Q 1294 -91 989 -36 
Q 684 19 347 128 
L 347 722 
Q 666 556 975 473 
Q 1284 391 1588 391 
Q 1994 391 2212 530 
Q 2431 669 2431 922 
Q 2431 1156 2273 1281 
Q 2116 1406 1581 1522 
L 1381 1569 
Q 847 1681 609 1914 
Q 372 2147 372 2553 
Q 372 3047 722 3315 
Q 1072 3584 1716 3584 
Q 2034 3584 2315 3537 
Q 2597 3491 2834 3397 
z
" transform="scale(0.015625)"/>
       <path id="DejaVuSans-65" d="M 3597 1894 
L 3597 1613 
L 953 1613 
Q 991 1019 1311 708 
Q 1631 397 2203 397 
Q 2534 397 2845 478 
Q 3156 559 3463 722 
L 3463 178 
Q 3153 47 2828 -22 
Q 2503 -91 2169 -91 
Q 1331 -91 842 396 
Q 353 884 353 1716 
Q 353 2575 817 3079 
Q 1281 3584 2069 3584 
Q 2775 3584 3186 3129 
Q 3597 2675 3597 1894 
z
M 3022 2063 
Q 3016 2534 2758 2815 
Q 2500 3097 2075 3097 
Q 1594 3097 1305 2825 
Q 1016 2553 972 2059 
L 3022 2063 
z
" transform="scale(0.015625)"/>
       <path id="DejaVuSans-72" d="M 2631 2963 
Q 2534 3019 2420 3045 
Q 2306 3072 2169 3072 
Q 1681 3072 1420 2755 
Q 1159 2438 1159 1844 
L 1159 0 
L 581 0 
L 581 3500 
L 1159 3500 
L 1159 2956 
Q 1341 3275 1631 3429 
Q 1922 3584 2338 3584 
Q 2397 3584 2469 3576 
Q 2541 3569 2628 3553 
L 2631 2963 
z
" transform="scale(0.015625)"/>
       <path id="DejaVuSans-76" d="M 191 3500 
L 800 3500 
L 1894 563 
L 2988 3500 
L 3597 3500 
L 2284 0 
L 1503 0 
L 191 3500 
z
" transform="scale(0.015625)"/>
       <path id="DejaVuSans-61" d="M 2194 1759 
Q 1497 1759 1228 1600 
Q 959 1441 959 1056 
Q 959 750 1161 570 
Q 1363 391 1709 391 
Q 2188 391 2477 730 
Q 2766 1069 2766 1631 
L 2766 1759 
L 2194 1759 
z
M 3341 1997 
L 3341 0 
L 2766 0 
L 2766 531 
Q 2569 213 2275 61 
Q 1981 -91 1556 -91 
Q 1019 -91 701 211 
Q 384 513 384 1019 
Q 384 1609 779 1909 
Q 1175 2209 1959 2209 
L 2766 2209 
L 2766 2266 
Q 2766 2663 2505 2880 
Q 2244 3097 1772 3097 
Q 1472 3097 1187 3025 
Q 903 2953 641 2809 
L 641 3341 
Q 956 3463 1253 3523 
Q 1550 3584 1831 3584 
Q 2591 3584 2966 3190 
Q 3341 2797 3341 1997 
z
" transform="scale(0.015625)"/>
       <path id="DejaVuSans-74" d="M 1172 4494 
L 1172 3500 
L 2356 3500 
L 2356 3053 
L 1172 3053 
L 1172 1153 
Q 1172 725 1289 603 
Q 1406 481 1766 481 
L 2356 481 
L 2356 0 
L 1766 0 
Q 1100 0 847 248 
Q 594 497 594 1153 
L 594 3053 
L 172 3053 
L 172 3500 
L 594 3500 
L 594 4494 
L 1172 4494 
z
" transform="scale(0.015625)"/>
       <path id="DejaVuSans-69" d="M 603 3500 
L 1178 3500 
L 1178 0 
L 603 0 
L 603 3500 
z
M 603 4863 
L 1178 4863 
L 1178 4134 
L 603 4134 
L 603 4863 
z
" transform="scale(0.015625)"/>
       <path id="DejaVuSans-20" transform="scale(0.015625)"/>
       <path id="DejaVuSans-2014" d="M 313 1978 
L 6088 1978 
L 6088 1528 
L 313 1528 
L 313 1978 
z
" transform="scale(0.015625)"/>
       <path id="DejaVuSans-6c" d="M 603 4863 
L 1178 4863 
L 1178 0 
L 603 0 
L 603 4863 
z
" transform="scale(0.015625)"/>
       <path id="DejaVuSans-77" d="M 269 3500 
L 844 3500 
L 1563 769 
L 2278 3500 
L 2956 3500 
L 3675 769 
L 4391 3500 
L 4966 3500 
L 4050 0 
L 3372 0 
L 2619 2869 
L 1863 0 
L 1184 0 
L 269 3500 
z
" transform="scale(0.015625)"/>
       <path id="DejaVuSans-67" d="M 2906 1791 
Q 2906 2416 2648 2759 
Q 2391 3103 1925 3103 
Q 1463 3103 1205 2759 
Q 947 2416 947 1791 
Q 947 1169 1205 825 
Q 1463 481 1925 481 
Q 2391 481 2648 825 
Q 2906 1169 2906 1791 
z
M 3481 434 
Q 3481 -459 3084 -895 
Q 2688 -1331 1869 -1331 
Q 1566 -1331 1297 -1286 
Q 1028 -1241 775 -1147 
L 775 -588 
Q 1028 -725 1275 -790 
Q 1522 -856 1778 -856 
Q 2344 -856 2625 -561 
Q 2906 -266 2906 331 
L 2906 616 
Q 2728 306 2450 153 
Q 2172 0 1784 0 
Q 1141 0 747 490 
Q 353 981 353 1791 
Q 353 2603 747 3093 
Q 1141 3584 1784 3584 
Q 2172 3584 2450 3431 
Q 2728 3278 2906 2969 
L 2906 3500 
L 3481 3500 
L 3481 434 
z
" transform="scale(0.015625)"/>
       <path id="DejaVuSans-75" d="M 544 1381 
L 544 3500 
L 1119 3500 
L 1119 1403 
Q 1119 906 1312 657 
Q 1506 409 1894 409 
Q 2359 409 2629 706 
Q 2900 1003 2900 1516 
L 2900 3500 
L 3475 3500 
L 3475 0 
L 2900 0 
L 2900 538 
Q 2691 219 2414 64 
Q 2138 -91 1772 -91 
Q 1169 -91 856 284 
Q 544 659 544 1381 
z
M 1991 3584 
L 1991 3584 
z
" transform="scale(0.015625)"/>
      </defs>
      <use xlink:href="#DejaVuSans-43"/>
      <use xlink:href="#DejaVuSans-6f" x="69.824219"/>
      <use xlink:href="#DejaVuSans-6e" x="131.005859"/>
      <use xlink:href="#DejaVuSans-73" x="194.384766"/>
      <use xlink:href="#DejaVuSans-65" x="246.484375"/>
      <use xlink:href="#DejaVuSans-72" x="308.007812"/>
      <use xlink:href="#DejaVuSans-76" x="349.121094"/>
      <use xlink:href="#DejaVuSans-61" x="408.300781"/>
      <use xlink:href="#DejaVuSans-74" x="469.580078"/>
      <use xlink:href="#DejaVuSans-69" x="508.789062"/>
      <use xlink:href="#DejaVuSans-76" x="536.572266"/>
      <use xlink:href="#DejaVuSans-65" x="595.751953"/>
      <use xlink:href="#DejaVuSans-20" x="657.275391"/>
      <use xlink:href="#DejaVuSans-2014" x="689.0625"/>
      <use xlink:href="#DejaVuSans-20" x="789.0625"/>
      <use xlink:href="#DejaVuSans-73" x="820.849609"/>
      <use xlink:href="#DejaVuSans-6c" x="872.949219"/>
      <use xlink:href="#DejaVuSans-6f" x="900.732422"/>
      <use xlink:href="#DejaVuSans-77" x="961.914062"/>
      <use xlink:href="#DejaVuSans-20" x="1043.701172"/>
      <use xlink:href="#DejaVuSans-72" x="1075.488281"/>
      <use xlink:href="#DejaVuSans-65" x="1114.351562"/>
      <use xlink:href="#DejaVuSans-67" x="1175.875"/>
      <use xlink:href="#DejaVuSans-75" x="1239.351562"/>
      <use xlink:href="#DejaVuSans-6c" x="1302.730469"/>
      <use xlink:href="#DejaVuSans-61" x="1330.513672"/>
      <use xlink:href="#DejaVuSans-74" x="1391.792969"/>
      <use xlink:href="#DejaVuSans-69" x="1431.001953"/>
      <use xlink:href="#DejaVuSans-6f" x="1458.785156"/>
      <use xlink:href="#DejaVuSans-6e" x="1519.966797"/>
     </g>
    </g>
    <g id="line2d_29">
     <path d="M 75.353438 62.065703 
L 84.853438 62.065703 
L 94.353438 62.065703 
" style="fill: none; stroke: #0b1c2c; stroke-width: 2.5; stroke-linecap: square"/>
     <g>
      <use xlink:href="#m0777e7b6d2" x="84.853438" y="62.065703" style="fill: #0b1c2c; stroke: #0b1c2c"/>
     </g>
    </g>
    <g id="text_23">
     <!-- Base Case — steady BVLOS adoption -->
     <g transform="translate(101.953438 65.390703) scale(0.095 -0.095)">
      <defs>
       <path id="DejaVuSans-42" d="M 1259 2228 
L 1259 519 
L 2272 519 
Q 2781 519 3026 730 
Q 3272 941 3272 1375 
Q 3272 1813 3026 2020 
Q 2781 2228 2272 2228 
L 1259 2228 
z
M 1259 4147 
L 1259 2741 
L 2194 2741 
Q 2656 2741 2882 2914 
Q 3109 3088 3109 3444 
Q 3109 3797 2882 3972 
Q 2656 4147 2194 4147 
L 1259 4147 
z
M 628 4666 
L 2241 4666 
Q 2963 4666 3353 4366 
Q 3744 4066 3744 3513 
Q 3744 3084 3544 2831 
Q 3344 2578 2956 2516 
Q 3422 2416 3680 2098 
Q 3938 1781 3938 1306 
Q 3938 681 3513 340 
Q 3088 0 2303 0 
L 628 0 
L 628 4666 
z
" transform="scale(0.015625)"/>
       <path id="DejaVuSans-64" d="M 2906 2969 
L 2906 4863 
L 3481 4863 
L 3481 0 
L 2906 0 
L 2906 525 
Q 2725 213 2448 61 
Q 2172 -91 1784 -91 
Q 1150 -91 751 415 
Q 353 922 353 1747 
Q 353 2572 751 3078 
Q 1150 3584 1784 3584 
Q 2172 3584 2448 3432 
Q 2725 3281 2906 2969 
z
M 947 1747 
Q 947 1113 1208 752 
Q 1469 391 1925 391 
Q 2381 391 2643 752 
Q 2906 1113 2906 1747 
Q 2906 2381 2643 2742 
Q 2381 3103 1925 3103 
Q 1469 3103 1208 2742 
Q 947 2381 947 1747 
z
" transform="scale(0.015625)"/>
       <path id="DejaVuSans-79" d="M 2059 -325 
Q 1816 -950 1584 -1140 
Q 1353 -1331 966 -1331 
L 506 -1331 
L 506 -850 
L 844 -850 
Q 1081 -850 1212 -737 
Q 1344 -625 1503 -206 
L 1606 56 
L 191 3500 
L 800 3500 
L 1894 763 
L 2988 3500 
L 3597 3500 
L 2059 -325 
z
" transform="scale(0.015625)"/>
       <path id="DejaVuSans-56" d="M 1831 0 
L 50 4666 
L 709 4666 
L 2188 738 
L 3669 4666 
L 4325 4666 
L 2547 0 
L 1831 0 
z
" transform="scale(0.015625)"/>
       <path id="DejaVuSans-4c" d="M 628 4666 
L 1259 4666 
L 1259 531 
L 3531 531 
L 3531 0 
L 628 0 
L 628 4666 
z
" transform="scale(0.015625)"/>
       <path id="DejaVuSans-4f" d="M 2522 4238 
Q 1834 4238 1429 3725 
Q 1025 3213 1025 2328 
Q 1025 1447 1429 934 
Q 1834 422 2522 422 
Q 3209 422 3611 934 
Q 4013 1447 4013 2328 
Q 4013 3213 3611 3725 
Q 3209 4238 2522 4238 
z
M 2522 4750 
Q 3503 4750 4090 4092 
Q 4678 3434 4678 2328 
Q 4678 1225 4090 567 
Q 3503 -91 2522 -91 
Q 1538 -91 948 565 
Q 359 1222 359 2328 
Q 359 3434 948 4092 
Q 1538 4750 2522 4750 
z
" transform="scale(0.015625)"/>
       <path id="DejaVuSans-53" d="M 3425 4513 
L 3425 3897 
Q 3066 4069 2747 4153 
Q 2428 4238 2131 4238 
Q 1616 4238 1336 4038 
Q 1056 3838 1056 3469 
Q 1056 3159 1242 3001 
Q 1428 2844 1947 2747 
L 2328 2669 
Q 3034 2534 3370 2195 
Q 3706 1856 3706 1288 
Q 3706 609 3251 259 
Q 2797 -91 1919 -91 
Q 1588 -91 1214 -16 
Q 841 59 441 206 
L 441 856 
Q 825 641 1194 531 
Q 1563 422 1919 422 
Q 2459 422 2753 634 
Q 3047 847 3047 1241 
Q 3047 1584 2836 1778 
Q 2625 1972 2144 2069 
L 1759 2144 
Q 1053 2284 737 2584 
Q 422 2884 422 3419 
Q 422 4038 858 4394 
Q 1294 4750 2059 4750 
Q 2388 4750 2728 4690 
Q 3069 4631 3425 4513 
z
" transform="scale(0.015625)"/>
       <path id="DejaVuSans-70" d="M 1159 525 
L 1159 -1331 
L 581 -1331 
L 581 3500 
L 1159 3500 
L 1159 2969 
Q 1341 3281 1617 3432 
Q 1894 3584 2278 3584 
Q 2916 3584 3314 3078 
Q 3713 2572 3713 1747 
Q 3713 922 3314 415 
Q 2916 -91 2278 -91 
Q 1894 -91 1617 61 
Q 1341 213 1159 525 
z
M 3116 1747 
Q 3116 2381 2855 2742 
Q 2594 3103 2138 3103 
Q 1681 3103 1420 2742 
Q 1159 2381 1159 1747 
Q 1159 1113 1420 752 
Q 1681 391 2138 391 
Q 2594 391 2855 752 
Q 3116 1113 3116 1747 
z
" transform="scale(0.015625)"/>
      </defs>
      <use xlink:href="#DejaVuSans-42"/>
      <use xlink:href="#DejaVuSans-61" x="68.603516"/>
      <use xlink:href="#DejaVuSans-73" x="129.882812"/>
      <use xlink:href="#DejaVuSans-65" x="181.982422"/>
      <use xlink:href="#DejaVuSans-20" x="243.505859"/>
      <use xlink:href="#DejaVuSans-43" x="275.292969"/>
      <use xlink:href="#DejaVuSans-61" x="345.117188"/>
      <use xlink:href="#DejaVuSans-73" x="406.396484"/>
      <use xlink:href="#DejaVuSans-65" x="458.496094"/>
      <use xlink:href="#DejaVuSans-20" x="520.019531"/>
      <use xlink:href="#DejaVuSans-2014" x="551.806641"/>
      <use xlink:href="#DejaVuSans-20" x="651.806641"/>
      <use xlink:href="#DejaVuSans-73" x="683.59375"/>
      <use xlink:href="#DejaVuSans-74" x="735.693359"/>
      <use xlink:href="#DejaVuSans-65" x="774.902344"/>
      <use xlink:href="#DejaVuSans-61" x="836.425781"/>
      <use xlink:href="#DejaVuSans-64" x="897.705078"/>
      <use xlink:href="#DejaVuSans-79" x="961.181641"/>
      <use xlink:href="#DejaVuSans-20" x="1020.361328"/>
      <use xlink:href="#DejaVuSans-42" x="1052.148438"/>
      <use xlink:href="#DejaVuSans-56" x="1117.626953"/>
      <use xlink:href="#DejaVuSans-4c" x="1186.035156"/>
      <use xlink:href="#DejaVuSans-4f" x="1238.123047"/>
      <use xlink:href="#DejaVuSans-53" x="1316.833984"/>
      <use xlink:href="#DejaVuSans-20" x="1380.310547"/>
      <use xlink:href="#DejaVuSans-61" x="1412.097656"/>
      <use xlink:href="#DejaVuSans-64" x="1473.376953"/>
      <use xlink:href="#DejaVuSans-6f" x="1536.853516"/>
      <use xlink:href="#DejaVuSans-70" x="1598.035156"/>
      <use xlink:href="#DejaVuSans-74" x="1661.511719"/>
      <use xlink:href="#DejaVuSans-69" x="1700.720703"/>
      <use xlink:href="#DejaVuSans-6f" x="1728.503906"/>
      <use xlink:href="#DejaVuSans-6e" x="1789.685547"/>
     </g>
    </g>
    <g id="line2d_30">
     <path d="M 75.353438 76.009922 
L 84.853438 76.009922 
L 94.353438 76.009922 
" style="fill: none; stroke: #00a9e0; stroke-width: 2.5; stroke-linecap: square"/>
     <g>
      <use xlink:href="#m28add715a0" x="84.853438" y="76.009922" style="fill: #00a9e0; stroke: #00a9e0; stroke-linejoin: miter"/>
     </g>
    </g>
    <g id="text_24">
     <!-- Accelerated — large-scale logistics+healthcare -->
     <g transform="translate(101.953438 79.334922) scale(0.095 -0.095)">
      <defs>
       <path id="DejaVuSans-41" d="M 2188 4044 
L 1331 1722 
L 3047 1722 
L 2188 4044 
z
M 1831 4666 
L 2547 4666 
L 4325 0 
L 3669 0 
L 3244 1197 
L 1141 1197 
L 716 0 
L 50 0 
L 1831 4666 
z
" transform="scale(0.015625)"/>
       <path id="DejaVuSans-63" d="M 3122 3366 
L 3122 2828 
Q 2878 2963 2633 3030 
Q 2388 3097 2138 3097 
Q 1578 3097 1268 2742 
Q 959 2388 959 1747 
Q 959 1106 1268 751 
Q 1578 397 2138 397 
Q 2388 397 2633 464 
Q 2878 531 3122 666 
L 3122 134 
Q 2881 22 2623 -34 
Q 2366 -91 2075 -91 
Q 1284 -91 818 406 
Q 353 903 353 1747 
Q 353 2603 823 3093 
Q 1294 3584 2113 3584 
Q 2378 3584 2631 3529 
Q 2884 3475 3122 3366 
z
" transform="scale(0.015625)"/>
       <path id="DejaVuSans-2d" d="M 313 2009 
L 1997 2009 
L 1997 1497 
L 313 1497 
L 313 2009 
z
" transform="scale(0.015625)"/>
       <path id="DejaVuSans-2b" d="M 2944 4013 
L 2944 2272 
L 4684 2272 
L 4684 1741 
L 2944 1741 
L 2944 0 
L 2419 0 
L 2419 1741 
L 678 1741 
L 678 2272 
L 2419 2272 
L 2419 4013 
L 2944 4013 
z
" transform="scale(0.015625)"/>
       <path id="DejaVuSans-68" d="M 3513 2113 
L 3513 0 
L 2938 0 
L 2938 2094 
Q 2938 2591 2744 2837 
Q 2550 3084 2163 3084 
Q 1697 3084 1428 2787 
Q 1159 2491 1159 1978 
L 1159 0 
L 581 0 
L 581 4863 
L 1159 4863 
L 1159 2956 
Q 1366 3272 1645 3428 
Q 1925 3584 2291 3584 
Q 2894 3584 3203 3211 
Q 3513 2838 3513 2113 
z
" transform="scale(0.015625)"/>
      </defs>
      <use xlink:href="#DejaVuSans-41"/>
      <use xlink:href="#DejaVuSans-63" x="66.658203"/>
      <use xlink:href="#DejaVuSans-63" x="121.638672"/>
      <use xlink:href="#DejaVuSans-65" x="176.619141"/>
      <use xlink:href="#DejaVuSans-6c" x="238.142578"/>
      <use xlink:href="#DejaVuSans-65" x="265.925781"/>
      <use xlink:href="#DejaVuSans-72" x="327.449219"/>
      <use xlink:href="#DejaVuSans-61" x="368.5625"/>
      <use xlink:href="#DejaVuSans-74" x="429.841797"/>
      <use xlink:href="#DejaVuSans-65" x="469.050781"/>
      <use xlink:href="#DejaVuSans-64" x="530.574219"/>
      <use xlink:href="#DejaVuSans-20" x="594.050781"/>
      <use xlink:href="#DejaVuSans-2014" x="625.837891"/>
      <use xlink:href="#DejaVuSans-20" x="725.837891"/>
      <use xlink:href="#DejaVuSans-6c" x="757.625"/>
      <use xlink:href="#DejaVuSans-61" x="785.408203"/>
      <use xlink:href="#DejaVuSans-72" x="846.6875"/>
      <use xlink:href="#DejaVuSans-67" x="886.050781"/>
      <use xlink:href="#DejaVuSans-65" x="949.527344"/>
      <use xlink:href="#DejaVuSans-2d" x="1011.050781"/>
      <use xlink:href="#DejaVuSans-73" x="1047.134766"/>
      <use xlink:href="#DejaVuSans-63" x="1099.234375"/>
      <use xlink:href="#DejaVuSans-61" x="1154.214844"/>
      <use xlink:href="#DejaVuSans-6c" x="1215.494141"/>
      <use xlink:href="#DejaVuSans-65" x="1243.277344"/>
      <use xlink:href="#DejaVuSans-20" x="1304.800781"/>
      <use xlink:href="#DejaVuSans-6c" x="1336.587891"/>
      <use xlink:href="#DejaVuSans-6f" x="1364.371094"/>
      <use xlink:href="#DejaVuSans-67" x="1425.552734"/>
      <use xlink:href="#DejaVuSans-69" x="1489.029297"/>
      <use xlink:href="#DejaVuSans-73" x="1516.8125"/>
      <use xlink:href="#DejaVuSans-74" x="1568.912109"/>
      <use xlink:href="#DejaVuSans-69" x="1608.121094"/>
      <use xlink:href="#DejaVuSans-63" x="1635.904297"/>
      <use xlink:href="#DejaVuSans-73" x="1690.884766"/>
      <use xlink:href="#DejaVuSans-2b" x="1742.984375"/>
      <use xlink:href="#DejaVuSans-68" x="1826.773438"/>
      <use xlink:href="#DejaVuSans-65" x="1890.152344"/>
      <use xlink:href="#DejaVuSans-61" x="1951.675781"/>
      <use xlink:href="#DejaVuSans-6c" x="2012.955078"/>
      <use xlink:href="#DejaVuSans-74" x="2040.738281"/>
      <use xlink:href="#DejaVuSans-68" x="2079.947266"/>
      <use xlink:href="#DejaVuSans-63" x="2143.326172"/>
      <use xlink:href="#DejaVuSans-61" x="2198.306641"/>
      <use xlink:href="#DejaVuSans-72" x="2259.585938"/>
      <use xlink:href="#DejaVuSans-65" x="2298.449219"/>
     </g>
    </g>
   </g>
  </g>
 </g>
 <defs>
  <clipPath id="p3a62474108">
   <rect x="66.803438" y="35.677969" width="714.13" height="318.16"/>
  </clipPath>
 </defs>
</svg>
