<?xml version="1.0" encoding="utf-8" standalone="no"?>
<!DOCTYPE svg PUBLIC "-//W3C//DTD SVG 1.1//EN"
  "http://www.w3.org/Graphics/SVG/1.1/DTD/svg11.dtd">
<svg xmlns:xlink="http://www.w3.org/1999/xlink" width="791.202777pt" height="467.080156pt" viewBox="0 0 791.202777 467.080156" xmlns="http://www.w3.org/2000/svg" version="1.1">
 <title>15 Player Map</title>
 <metadata>
  <rdf:RDF xmlns:dc="http://purl.org/dc/elements/1.1/" xmlns:cc="http://creativecommons.org/ns#" xmlns:rdf="http://www.w3.org/1999/02/22-rdf-syntax-ns#">
   <cc:Work>
    <dc:type rdf:resource="http://purl.org/dc/dcmitype/StillImage"/>
    <dc:title>15 Player Map</dc:title>
    <dc:date>2026-07-09T01:46:47.410215</dc:date>
    <dc:format>image/svg+xml</dc:format>
    <dc:creator>
     <cc:Agent>
      <dc:title>Techadyant Industry Intelligence</dc:title>
     </cc:Agent>
    </dc:creator>
   </cc:Work>
  </rdf:RDF>
 </metadata>
 <defs>
  <style type="text/css">*{stroke-linejoin: round; stroke-linecap: butt}</style>
 </defs>
 <g id="figure_1">
  <g id="patch_1">
   <path d="M 0 467.080156 
L 791.202777 467.080156 
L 791.202777 0 
L 0 0 
z
" style="fill: #ffffff"/>
  </g>
  <g id="axes_1">
   <g id="patch_2">
    <path d="M 48.371875 425.837969 
L 774.676527 425.837969 
L 774.676527 35.677969 
L 48.371875 35.677969 
z
" style="fill: #ffffff"/>
   </g>
   <g id="matplotlib.axis_1">
    <g id="xtick_1">
     <g id="line2d_1">
      <defs>
       <path id="m98ac578dad" d="M 0 0 
L 0 3.5 
" style="stroke: #3d4a5c; stroke-width: 0.8"/>
      </defs>
      <g>
       <use xlink:href="#m98ac578dad" x="48.371875" y="425.837969" style="fill: #3d4a5c; stroke: #3d4a5c; stroke-width: 0.8"/>
      </g>
     </g>
     <g id="text_1">
      <!-- 0 -->
      <g style="fill: #3d4a5c" transform="translate(45.50875 439.676563) scale(0.09 -0.09)">
       <defs>
        <path id="DejaVuSans-30" d="M 2034 4250 
Q 1547 4250 1301 3770 
Q 1056 3291 1056 2328 
Q 1056 1369 1301 889 
Q 1547 409 2034 409 
Q 2525 409 2770 889 
Q 3016 1369 3016 2328 
Q 3016 3291 2770 3770 
Q 2525 4250 2034 4250 
z
M 2034 4750 
Q 2819 4750 3233 4129 
Q 3647 3509 3647 2328 
Q 3647 1150 3233 529 
Q 2819 -91 2034 -91 
Q 1250 -91 836 529 
Q 422 1150 422 2328 
Q 422 3509 836 4129 
Q 1250 4750 2034 4750 
z
" transform="scale(0.015625)"/>
       </defs>
       <use xlink:href="#DejaVuSans-30"/>
      </g>
     </g>
    </g>
    <g id="xtick_2">
     <g id="line2d_2">
      <g>
       <use xlink:href="#m98ac578dad" x="193.632805" y="425.837969" style="fill: #3d4a5c; stroke: #3d4a5c; stroke-width: 0.8"/>
      </g>
     </g>
     <g id="text_2">
      <!-- 2 -->
      <g style="fill: #3d4a5c" transform="translate(190.76968 439.676563) scale(0.09 -0.09)">
       <defs>
        <path id="DejaVuSans-32" d="M 1228 531 
L 3431 531 
L 3431 0 
L 469 0 
L 469 531 
Q 828 903 1448 1529 
Q 2069 2156 2228 2338 
Q 2531 2678 2651 2914 
Q 2772 3150 2772 3378 
Q 2772 3750 2511 3984 
Q 2250 4219 1831 4219 
Q 1534 4219 1204 4116 
Q 875 4013 500 3803 
L 500 4441 
Q 881 4594 1212 4672 
Q 1544 4750 1819 4750 
Q 2544 4750 2975 4387 
Q 3406 4025 3406 3419 
Q 3406 3131 3298 2873 
Q 3191 2616 2906 2266 
Q 2828 2175 2409 1742 
Q 1991 1309 1228 531 
z
" transform="scale(0.015625)"/>
       </defs>
       <use xlink:href="#DejaVuSans-32"/>
      </g>
     </g>
    </g>
    <g id="xtick_3">
     <g id="line2d_3">
      <g>
       <use xlink:href="#m98ac578dad" x="338.893736" y="425.837969" style="fill: #3d4a5c; stroke: #3d4a5c; stroke-width: 0.8"/>
      </g>
     </g>
     <g id="text_3">
      <!-- 4 -->
      <g style="fill: #3d4a5c" transform="translate(336.030611 439.676563) scale(0.09 -0.09)">
       <defs>
        <path id="DejaVuSans-34" d="M 2419 4116 
L 825 1625 
L 2419 1625 
L 2419 4116 
z
M 2253 4666 
L 3047 4666 
L 3047 1625 
L 3713 1625 
L 3713 1100 
L 3047 1100 
L 3047 0 
L 2419 0 
L 2419 1100 
L 313 1100 
L 313 1709 
L 2253 4666 
z
" transform="scale(0.015625)"/>
       </defs>
       <use xlink:href="#DejaVuSans-34"/>
      </g>
     </g>
    </g>
    <g id="xtick_4">
     <g id="line2d_4">
      <g>
       <use xlink:href="#m98ac578dad" x="484.154666" y="425.837969" style="fill: #3d4a5c; stroke: #3d4a5c; stroke-width: 0.8"/>
      </g>
     </g>
     <g id="text_4">
      <!-- 6 -->
      <g style="fill: #3d4a5c" transform="translate(481.291541 439.676563) scale(0.09 -0.09)">
       <defs>
        <path id="DejaVuSans-36" d="M 2113 2584 
Q 1688 2584 1439 2293 
Q 1191 2003 1191 1497 
Q 1191 994 1439 701 
Q 1688 409 2113 409 
Q 2538 409 2786 701 
Q 3034 994 3034 1497 
Q 3034 2003 2786 2293 
Q 2538 2584 2113 2584 
z
M 3366 4563 
L 3366 3988 
Q 3128 4100 2886 4159 
Q 2644 4219 2406 4219 
Q 1781 4219 1451 3797 
Q 1122 3375 1075 2522 
Q 1259 2794 1537 2939 
Q 1816 3084 2150 3084 
Q 2853 3084 3261 2657 
Q 3669 2231 3669 1497 
Q 3669 778 3244 343 
Q 2819 -91 2113 -91 
Q 1303 -91 875 529 
Q 447 1150 447 2328 
Q 447 3434 972 4092 
Q 1497 4750 2381 4750 
Q 2619 4750 2861 4703 
Q 3103 4656 3366 4563 
z
" transform="scale(0.015625)"/>
       </defs>
       <use xlink:href="#DejaVuSans-36"/>
      </g>
     </g>
    </g>
    <g id="xtick_5">
     <g id="line2d_5">
      <g>
       <use xlink:href="#m98ac578dad" x="629.415596" y="425.837969" style="fill: #3d4a5c; stroke: #3d4a5c; stroke-width: 0.8"/>
      </g>
     </g>
     <g id="text_5">
      <!-- 8 -->
      <g style="fill: #3d4a5c" transform="translate(626.552471 439.676563) scale(0.09 -0.09)">
       <defs>
        <path id="DejaVuSans-38" d="M 2034 2216 
Q 1584 2216 1326 1975 
Q 1069 1734 1069 1313 
Q 1069 891 1326 650 
Q 1584 409 2034 409 
Q 2484 409 2743 651 
Q 3003 894 3003 1313 
Q 3003 1734 2745 1975 
Q 2488 2216 2034 2216 
z
M 1403 2484 
Q 997 2584 770 2862 
Q 544 3141 544 3541 
Q 544 4100 942 4425 
Q 1341 4750 2034 4750 
Q 2731 4750 3128 4425 
Q 3525 4100 3525 3541 
Q 3525 3141 3298 2862 
Q 3072 2584 2669 2484 
Q 3125 2378 3379 2068 
Q 3634 1759 3634 1313 
Q 3634 634 3220 271 
Q 2806 -91 2034 -91 
Q 1263 -91 848 271 
Q 434 634 434 1313 
Q 434 1759 690 2068 
Q 947 2378 1403 2484 
z
M 1172 3481 
Q 1172 3119 1398 2916 
Q 1625 2713 2034 2713 
Q 2441 2713 2670 2916 
Q 2900 3119 2900 3481 
Q 2900 3844 2670 4047 
Q 2441 4250 2034 4250 
Q 1625 4250 1398 4047 
Q 1172 3844 1172 3481 
z
" transform="scale(0.015625)"/>
       </defs>
       <use xlink:href="#DejaVuSans-38"/>
      </g>
     </g>
    </g>
    <g id="xtick_6">
     <g id="line2d_6">
      <g>
       <use xlink:href="#m98ac578dad" x="774.676527" y="425.837969" style="fill: #3d4a5c; stroke: #3d4a5c; stroke-width: 0.8"/>
      </g>
     </g>
     <g id="text_6">
      <!-- 10 -->
      <g style="fill: #3d4a5c" transform="translate(768.950277 439.676563) scale(0.09 -0.09)">
       <defs>
        <path id="DejaVuSans-31" d="M 794 531 
L 1825 531 
L 1825 4091 
L 703 3866 
L 703 4441 
L 1819 4666 
L 2450 4666 
L 2450 531 
L 3481 531 
L 3481 0 
L 794 0 
L 794 531 
z
" transform="scale(0.015625)"/>
       </defs>
       <use xlink:href="#DejaVuSans-31"/>
       <use xlink:href="#DejaVuSans-30" x="63.623047"/>
      </g>
     </g>
    </g>
    <g id="text_7">
     <!-- Operational maturity index (0–10) -->
     <g style="fill: #3d4a5c" transform="translate(306.135607 453.906563) scale(0.11 -0.11)">
      <defs>
       <path id="DejaVuSans-Bold-4f" d="M 2719 3878 
Q 2169 3878 1866 3472 
Q 1563 3066 1563 2328 
Q 1563 1594 1866 1187 
Q 2169 781 2719 781 
Q 3272 781 3575 1187 
Q 3878 1594 3878 2328 
Q 3878 3066 3575 3472 
Q 3272 3878 2719 3878 
z
M 2719 4750 
Q 3844 4750 4481 4106 
Q 5119 3463 5119 2328 
Q 5119 1197 4481 553 
Q 3844 -91 2719 -91 
Q 1597 -91 958 553 
Q 319 1197 319 2328 
Q 319 3463 958 4106 
Q 1597 4750 2719 4750 
z
" transform="scale(0.015625)"/>
       <path id="DejaVuSans-Bold-70" d="M 1656 506 
L 1656 -1331 
L 538 -1331 
L 538 3500 
L 1656 3500 
L 1656 2988 
Q 1888 3294 2169 3439 
Q 2450 3584 2816 3584 
Q 3463 3584 3878 3070 
Q 4294 2556 4294 1747 
Q 4294 938 3878 423 
Q 3463 -91 2816 -91 
Q 2450 -91 2169 54 
Q 1888 200 1656 506 
z
M 2400 2772 
Q 2041 2772 1848 2508 
Q 1656 2244 1656 1747 
Q 1656 1250 1848 986 
Q 2041 722 2400 722 
Q 2759 722 2948 984 
Q 3138 1247 3138 1747 
Q 3138 2247 2948 2509 
Q 2759 2772 2400 2772 
z
" transform="scale(0.015625)"/>
       <path id="DejaVuSans-Bold-65" d="M 4031 1759 
L 4031 1441 
L 1416 1441 
Q 1456 1047 1700 850 
Q 1944 653 2381 653 
Q 2734 653 3104 758 
Q 3475 863 3866 1075 
L 3866 213 
Q 3469 63 3072 -14 
Q 2675 -91 2278 -91 
Q 1328 -91 801 392 
Q 275 875 275 1747 
Q 275 2603 792 3093 
Q 1309 3584 2216 3584 
Q 3041 3584 3536 3087 
Q 4031 2591 4031 1759 
z
M 2881 2131 
Q 2881 2450 2695 2645 
Q 2509 2841 2209 2841 
Q 1884 2841 1681 2658 
Q 1478 2475 1428 2131 
L 2881 2131 
z
" transform="scale(0.015625)"/>
       <path id="DejaVuSans-Bold-72" d="M 3138 2547 
Q 2991 2616 2845 2648 
Q 2700 2681 2553 2681 
Q 2122 2681 1889 2404 
Q 1656 2128 1656 1613 
L 1656 0 
L 538 0 
L 538 3500 
L 1656 3500 
L 1656 2925 
Q 1872 3269 2151 3426 
Q 2431 3584 2822 3584 
Q 2878 3584 2943 3579 
Q 3009 3575 3134 3559 
L 3138 2547 
z
" transform="scale(0.015625)"/>
       <path id="DejaVuSans-Bold-61" d="M 2106 1575 
Q 1756 1575 1579 1456 
Q 1403 1338 1403 1106 
Q 1403 894 1545 773 
Q 1688 653 1941 653 
Q 2256 653 2472 879 
Q 2688 1106 2688 1447 
L 2688 1575 
L 2106 1575 
z
M 3816 1997 
L 3816 0 
L 2688 0 
L 2688 519 
Q 2463 200 2181 54 
Q 1900 -91 1497 -91 
Q 953 -91 614 226 
Q 275 544 275 1050 
Q 275 1666 698 1953 
Q 1122 2241 2028 2241 
L 2688 2241 
L 2688 2328 
Q 2688 2594 2478 2717 
Q 2269 2841 1825 2841 
Q 1466 2841 1156 2769 
Q 847 2697 581 2553 
L 581 3406 
Q 941 3494 1303 3539 
Q 1666 3584 2028 3584 
Q 2975 3584 3395 3211 
Q 3816 2838 3816 1997 
z
" transform="scale(0.015625)"/>
       <path id="DejaVuSans-Bold-74" d="M 1759 4494 
L 1759 3500 
L 2913 3500 
L 2913 2700 
L 1759 2700 
L 1759 1216 
Q 1759 972 1856 886 
Q 1953 800 2241 800 
L 2816 800 
L 2816 0 
L 1856 0 
Q 1194 0 917 276 
Q 641 553 641 1216 
L 641 2700 
L 84 2700 
L 84 3500 
L 641 3500 
L 641 4494 
L 1759 4494 
z
" transform="scale(0.015625)"/>
       <path id="DejaVuSans-Bold-69" d="M 538 3500 
L 1656 3500 
L 1656 0 
L 538 0 
L 538 3500 
z
M 538 4863 
L 1656 4863 
L 1656 3950 
L 538 3950 
L 538 4863 
z
" transform="scale(0.015625)"/>
       <path id="DejaVuSans-Bold-6f" d="M 2203 2784 
Q 1831 2784 1636 2517 
Q 1441 2250 1441 1747 
Q 1441 1244 1636 976 
Q 1831 709 2203 709 
Q 2569 709 2762 976 
Q 2956 1244 2956 1747 
Q 2956 2250 2762 2517 
Q 2569 2784 2203 2784 
z
M 2203 3584 
Q 3106 3584 3614 3096 
Q 4122 2609 4122 1747 
Q 4122 884 3614 396 
Q 3106 -91 2203 -91 
Q 1297 -91 786 396 
Q 275 884 275 1747 
Q 275 2609 786 3096 
Q 1297 3584 2203 3584 
z
" transform="scale(0.015625)"/>
       <path id="DejaVuSans-Bold-6e" d="M 4056 2131 
L 4056 0 
L 2931 0 
L 2931 347 
L 2931 1631 
Q 2931 2084 2911 2256 
Q 2891 2428 2841 2509 
Q 2775 2619 2662 2680 
Q 2550 2741 2406 2741 
Q 2056 2741 1856 2470 
Q 1656 2200 1656 1722 
L 1656 0 
L 538 0 
L 538 3500 
L 1656 3500 
L 1656 2988 
Q 1909 3294 2193 3439 
Q 2478 3584 2822 3584 
Q 3428 3584 3742 3212 
Q 4056 2841 4056 2131 
z
" transform="scale(0.015625)"/>
       <path id="DejaVuSans-Bold-6c" d="M 538 4863 
L 1656 4863 
L 1656 0 
L 538 0 
L 538 4863 
z
" transform="scale(0.015625)"/>
       <path id="DejaVuSans-Bold-20" transform="scale(0.015625)"/>
       <path id="DejaVuSans-Bold-6d" d="M 3781 2919 
Q 3994 3244 4286 3414 
Q 4578 3584 4928 3584 
Q 5531 3584 5847 3212 
Q 6163 2841 6163 2131 
L 6163 0 
L 5038 0 
L 5038 1825 
Q 5041 1866 5042 1909 
Q 5044 1953 5044 2034 
Q 5044 2406 4934 2573 
Q 4825 2741 4581 2741 
Q 4263 2741 4089 2478 
Q 3916 2216 3909 1719 
L 3909 0 
L 2784 0 
L 2784 1825 
Q 2784 2406 2684 2573 
Q 2584 2741 2328 2741 
Q 2006 2741 1831 2477 
Q 1656 2213 1656 1722 
L 1656 0 
L 531 0 
L 531 3500 
L 1656 3500 
L 1656 2988 
Q 1863 3284 2130 3434 
Q 2397 3584 2719 3584 
Q 3081 3584 3359 3409 
Q 3638 3234 3781 2919 
z
" transform="scale(0.015625)"/>
       <path id="DejaVuSans-Bold-75" d="M 500 1363 
L 500 3500 
L 1625 3500 
L 1625 3150 
Q 1625 2866 1622 2436 
Q 1619 2006 1619 1863 
Q 1619 1441 1641 1255 
Q 1663 1069 1716 984 
Q 1784 875 1895 815 
Q 2006 756 2150 756 
Q 2500 756 2700 1025 
Q 2900 1294 2900 1772 
L 2900 3500 
L 4019 3500 
L 4019 0 
L 2900 0 
L 2900 506 
Q 2647 200 2364 54 
Q 2081 -91 1741 -91 
Q 1134 -91 817 281 
Q 500 653 500 1363 
z
" transform="scale(0.015625)"/>
       <path id="DejaVuSans-Bold-79" d="M 78 3500 
L 1197 3500 
L 2138 1125 
L 2938 3500 
L 4056 3500 
L 2584 -331 
Q 2363 -916 2067 -1148 
Q 1772 -1381 1288 -1381 
L 641 -1381 
L 641 -647 
L 991 -647 
Q 1275 -647 1404 -556 
Q 1534 -466 1606 -231 
L 1638 -134 
L 78 3500 
z
" transform="scale(0.015625)"/>
       <path id="DejaVuSans-Bold-64" d="M 2919 2988 
L 2919 4863 
L 4044 4863 
L 4044 0 
L 2919 0 
L 2919 506 
Q 2688 197 2409 53 
Q 2131 -91 1766 -91 
Q 1119 -91 703 423 
Q 288 938 288 1747 
Q 288 2556 703 3070 
Q 1119 3584 1766 3584 
Q 2128 3584 2408 3439 
Q 2688 3294 2919 2988 
z
M 2181 722 
Q 2541 722 2730 984 
Q 2919 1247 2919 1747 
Q 2919 2247 2730 2509 
Q 2541 2772 2181 2772 
Q 1825 2772 1636 2509 
Q 1447 2247 1447 1747 
Q 1447 1247 1636 984 
Q 1825 722 2181 722 
z
" transform="scale(0.015625)"/>
       <path id="DejaVuSans-Bold-78" d="M 1422 1791 
L 159 3500 
L 1344 3500 
L 2059 2463 
L 2784 3500 
L 3969 3500 
L 2706 1797 
L 4031 0 
L 2847 0 
L 2059 1106 
L 1281 0 
L 97 0 
L 1422 1791 
z
" transform="scale(0.015625)"/>
       <path id="DejaVuSans-Bold-28" d="M 2413 -844 
L 1484 -844 
Q 1006 -72 778 623 
Q 550 1319 550 2003 
Q 550 2688 779 3389 
Q 1009 4091 1484 4856 
L 2413 4856 
Q 2013 4116 1813 3408 
Q 1613 2700 1613 2009 
Q 1613 1319 1811 609 
Q 2009 -100 2413 -844 
z
" transform="scale(0.015625)"/>
       <path id="DejaVuSans-Bold-30" d="M 2944 2338 
Q 2944 3213 2780 3570 
Q 2616 3928 2228 3928 
Q 1841 3928 1675 3570 
Q 1509 3213 1509 2338 
Q 1509 1453 1675 1090 
Q 1841 728 2228 728 
Q 2613 728 2778 1090 
Q 2944 1453 2944 2338 
z
M 4147 2328 
Q 4147 1169 3647 539 
Q 3147 -91 2228 -91 
Q 1306 -91 806 539 
Q 306 1169 306 2328 
Q 306 3491 806 4120 
Q 1306 4750 2228 4750 
Q 3147 4750 3647 4120 
Q 4147 3491 4147 2328 
z
" transform="scale(0.015625)"/>
       <path id="DejaVuSans-Bold-2013" d="M 344 2156 
L 2856 2156 
L 2856 1350 
L 344 1350 
L 344 2156 
z
" transform="scale(0.015625)"/>
       <path id="DejaVuSans-Bold-31" d="M 750 831 
L 1813 831 
L 1813 3847 
L 722 3622 
L 722 4441 
L 1806 4666 
L 2950 4666 
L 2950 831 
L 4013 831 
L 4013 0 
L 750 0 
L 750 831 
z
" transform="scale(0.015625)"/>
       <path id="DejaVuSans-Bold-29" d="M 513 -844 
Q 913 -100 1113 609 
Q 1313 1319 1313 2009 
Q 1313 2700 1113 3408 
Q 913 4116 513 4856 
L 1441 4856 
Q 1916 4091 2145 3389 
Q 2375 2688 2375 2003 
Q 2375 1319 2147 623 
Q 1919 -72 1441 -844 
L 513 -844 
z
" transform="scale(0.015625)"/>
      </defs>
      <use xlink:href="#DejaVuSans-Bold-4f"/>
      <use xlink:href="#DejaVuSans-Bold-70" x="85.009766"/>
      <use xlink:href="#DejaVuSans-Bold-65" x="156.591797"/>
      <use xlink:href="#DejaVuSans-Bold-72" x="224.414062"/>
      <use xlink:href="#DejaVuSans-Bold-61" x="273.730469"/>
      <use xlink:href="#DejaVuSans-Bold-74" x="341.210938"/>
      <use xlink:href="#DejaVuSans-Bold-69" x="389.013672"/>
      <use xlink:href="#DejaVuSans-Bold-6f" x="423.291016"/>
      <use xlink:href="#DejaVuSans-Bold-6e" x="491.992188"/>
      <use xlink:href="#DejaVuSans-Bold-61" x="563.183594"/>
      <use xlink:href="#DejaVuSans-Bold-6c" x="630.664062"/>
      <use xlink:href="#DejaVuSans-Bold-20" x="664.941406"/>
      <use xlink:href="#DejaVuSans-Bold-6d" x="699.755859"/>
      <use xlink:href="#DejaVuSans-Bold-61" x="803.955078"/>
      <use xlink:href="#DejaVuSans-Bold-74" x="871.435547"/>
      <use xlink:href="#DejaVuSans-Bold-75" x="919.238281"/>
      <use xlink:href="#DejaVuSans-Bold-72" x="990.429688"/>
      <use xlink:href="#DejaVuSans-Bold-69" x="1039.746094"/>
      <use xlink:href="#DejaVuSans-Bold-74" x="1074.023438"/>
      <use xlink:href="#DejaVuSans-Bold-79" x="1121.826172"/>
      <use xlink:href="#DejaVuSans-Bold-20" x="1187.011719"/>
      <use xlink:href="#DejaVuSans-Bold-69" x="1221.826172"/>
      <use xlink:href="#DejaVuSans-Bold-6e" x="1256.103516"/>
      <use xlink:href="#DejaVuSans-Bold-64" x="1327.294922"/>
      <use xlink:href="#DejaVuSans-Bold-65" x="1398.876953"/>
      <use xlink:href="#DejaVuSans-Bold-78" x="1466.699219"/>
      <use xlink:href="#DejaVuSans-Bold-20" x="1531.201172"/>
      <use xlink:href="#DejaVuSans-Bold-28" x="1566.015625"/>
      <use xlink:href="#DejaVuSans-Bold-30" x="1611.71875"/>
      <use xlink:href="#DejaVuSans-Bold-2013" x="1681.298828"/>
      <use xlink:href="#DejaVuSans-Bold-31" x="1731.298828"/>
      <use xlink:href="#DejaVuSans-Bold-30" x="1800.878906"/>
      <use xlink:href="#DejaVuSans-Bold-29" x="1870.458984"/>
     </g>
    </g>
   </g>
   <g id="matplotlib.axis_2">
    <g id="ytick_1">
     <g id="line2d_7">
      <path d="M 48.371875 405.673075 
L 774.676527 405.673075 
" clip-path="url(#p5a0080dee8)" style="fill: none; stroke: #c8d0da; stroke-opacity: 0.25; stroke-width: 0.6; stroke-linecap: square"/>
     </g>
     <g id="line2d_8">
      <defs>
       <path id="m00ddeed601" d="M 0 0 
L -3.5 0 
" style="stroke: #3d4a5c; stroke-width: 0.8"/>
      </defs>
      <g>
       <use xlink:href="#m00ddeed601" x="48.371875" y="405.673075" style="fill: #3d4a5c; stroke: #3d4a5c; stroke-width: 0.8"/>
      </g>
     </g>
     <g id="text_8">
      <!-- $\mathdefault{10^{0}}$ -->
      <g style="fill: #3d4a5c" transform="translate(25.531875 409.092372) scale(0.09 -0.09)">
       <use xlink:href="#DejaVuSans-31" transform="translate(0 0.765625)"/>
       <use xlink:href="#DejaVuSans-30" transform="translate(63.623047 0.765625)"/>
       <use xlink:href="#DejaVuSans-30" transform="translate(128.203125 39.046875) scale(0.7)"/>
      </g>
     </g>
    </g>
    <g id="ytick_2">
     <g id="line2d_9">
      <path d="M 48.371875 197.594541 
L 774.676527 197.594541 
" clip-path="url(#p5a0080dee8)" style="fill: none; stroke: #c8d0da; stroke-opacity: 0.25; stroke-width: 0.6; stroke-linecap: square"/>
     </g>
     <g id="line2d_10">
      <g>
       <use xlink:href="#m00ddeed601" x="48.371875" y="197.594541" style="fill: #3d4a5c; stroke: #3d4a5c; stroke-width: 0.8"/>
      </g>
     </g>
     <g id="text_9">
      <!-- $\mathdefault{10^{1}}$ -->
      <g style="fill: #3d4a5c" transform="translate(25.531875 201.013838) scale(0.09 -0.09)">
       <use xlink:href="#DejaVuSans-31" transform="translate(0 0.684375)"/>
       <use xlink:href="#DejaVuSans-30" transform="translate(63.623047 0.684375)"/>
       <use xlink:href="#DejaVuSans-31" transform="translate(128.203125 38.965625) scale(0.7)"/>
      </g>
     </g>
    </g>
    <g id="ytick_3">
     <g id="line2d_11">
      <defs>
       <path id="m72161a48d0" d="M 0 0 
L -2 0 
" style="stroke: #000000; stroke-width: 0.6"/>
      </defs>
      <g>
       <use xlink:href="#m72161a48d0" x="48.371875" y="425.837969" style="stroke: #000000; stroke-width: 0.6"/>
      </g>
     </g>
    </g>
    <g id="ytick_4">
     <g id="line2d_12">
      <g>
       <use xlink:href="#m72161a48d0" x="48.371875" y="415.194227" style="stroke: #000000; stroke-width: 0.6"/>
      </g>
     </g>
    </g>
    <g id="ytick_5">
     <g id="line2d_13">
      <g>
       <use xlink:href="#m72161a48d0" x="48.371875" y="343.035195" style="stroke: #000000; stroke-width: 0.6"/>
      </g>
     </g>
    </g>
    <g id="ytick_6">
     <g id="line2d_14">
      <g>
       <use xlink:href="#m72161a48d0" x="48.371875" y="306.394384" style="stroke: #000000; stroke-width: 0.6"/>
      </g>
     </g>
    </g>
    <g id="ytick_7">
     <g id="line2d_15">
      <g>
       <use xlink:href="#m72161a48d0" x="48.371875" y="280.397315" style="stroke: #000000; stroke-width: 0.6"/>
      </g>
     </g>
    </g>
    <g id="ytick_8">
     <g id="line2d_16">
      <g>
       <use xlink:href="#m72161a48d0" x="48.371875" y="260.232421" style="stroke: #000000; stroke-width: 0.6"/>
      </g>
     </g>
    </g>
    <g id="ytick_9">
     <g id="line2d_17">
      <g>
       <use xlink:href="#m72161a48d0" x="48.371875" y="243.756503" style="stroke: #000000; stroke-width: 0.6"/>
      </g>
     </g>
    </g>
    <g id="ytick_10">
     <g id="line2d_18">
      <g>
       <use xlink:href="#m72161a48d0" x="48.371875" y="229.826313" style="stroke: #000000; stroke-width: 0.6"/>
      </g>
     </g>
    </g>
    <g id="ytick_11">
     <g id="line2d_19">
      <g>
       <use xlink:href="#m72161a48d0" x="48.371875" y="217.759434" style="stroke: #000000; stroke-width: 0.6"/>
      </g>
     </g>
    </g>
    <g id="ytick_12">
     <g id="line2d_20">
      <g>
       <use xlink:href="#m72161a48d0" x="48.371875" y="207.115692" style="stroke: #000000; stroke-width: 0.6"/>
      </g>
     </g>
    </g>
    <g id="ytick_13">
     <g id="line2d_21">
      <g>
       <use xlink:href="#m72161a48d0" x="48.371875" y="134.95666" style="stroke: #000000; stroke-width: 0.6"/>
      </g>
     </g>
    </g>
    <g id="ytick_14">
     <g id="line2d_22">
      <g>
       <use xlink:href="#m72161a48d0" x="48.371875" y="98.315849" style="stroke: #000000; stroke-width: 0.6"/>
      </g>
     </g>
    </g>
    <g id="ytick_15">
     <g id="line2d_23">
      <g>
       <use xlink:href="#m72161a48d0" x="48.371875" y="72.31878" style="stroke: #000000; stroke-width: 0.6"/>
      </g>
     </g>
    </g>
    <g id="ytick_16">
     <g id="line2d_24">
      <g>
       <use xlink:href="#m72161a48d0" x="48.371875" y="52.153886" style="stroke: #000000; stroke-width: 0.6"/>
      </g>
     </g>
    </g>
    <g id="ytick_17">
     <g id="line2d_25">
      <g>
       <use xlink:href="#m72161a48d0" x="48.371875" y="35.677969" style="stroke: #000000; stroke-width: 0.6"/>
      </g>
     </g>
    </g>
    <g id="text_10">
     <!-- Cumulative funding raised (USD M, log) -->
     <g style="fill: #3d4a5c" transform="translate(19.158281 353.688125) rotate(-90) scale(0.11 -0.11)">
      <defs>
       <path id="DejaVuSans-Bold-43" d="M 4288 256 
Q 3956 84 3597 -3 
Q 3238 -91 2847 -91 
Q 1681 -91 1000 561 
Q 319 1213 319 2328 
Q 319 3447 1000 4098 
Q 1681 4750 2847 4750 
Q 3238 4750 3597 4662 
Q 3956 4575 4288 4403 
L 4288 3438 
Q 3953 3666 3628 3772 
Q 3303 3878 2944 3878 
Q 2300 3878 1931 3465 
Q 1563 3053 1563 2328 
Q 1563 1606 1931 1193 
Q 2300 781 2944 781 
Q 3303 781 3628 887 
Q 3953 994 4288 1222 
L 4288 256 
z
" transform="scale(0.015625)"/>
       <path id="DejaVuSans-Bold-76" d="M 97 3500 
L 1216 3500 
L 2088 1081 
L 2956 3500 
L 4078 3500 
L 2700 0 
L 1472 0 
L 97 3500 
z
" transform="scale(0.015625)"/>
       <path id="DejaVuSans-Bold-66" d="M 2841 4863 
L 2841 4128 
L 2222 4128 
Q 1984 4128 1890 4042 
Q 1797 3956 1797 3744 
L 1797 3500 
L 2753 3500 
L 2753 2700 
L 1797 2700 
L 1797 0 
L 678 0 
L 678 2700 
L 122 2700 
L 122 3500 
L 678 3500 
L 678 3744 
Q 678 4316 997 4589 
Q 1316 4863 1984 4863 
L 2841 4863 
z
" transform="scale(0.015625)"/>
       <path id="DejaVuSans-Bold-67" d="M 2919 594 
Q 2688 288 2409 144 
Q 2131 0 1766 0 
Q 1125 0 706 504 
Q 288 1009 288 1791 
Q 288 2575 706 3076 
Q 1125 3578 1766 3578 
Q 2131 3578 2409 3434 
Q 2688 3291 2919 2981 
L 2919 3500 
L 4044 3500 
L 4044 353 
Q 4044 -491 3511 -936 
Q 2978 -1381 1966 -1381 
Q 1638 -1381 1331 -1331 
Q 1025 -1281 716 -1178 
L 716 -306 
Q 1009 -475 1290 -558 
Q 1572 -641 1856 -641 
Q 2406 -641 2662 -400 
Q 2919 -159 2919 353 
L 2919 594 
z
M 2181 2772 
Q 1834 2772 1640 2515 
Q 1447 2259 1447 1791 
Q 1447 1309 1634 1061 
Q 1822 813 2181 813 
Q 2531 813 2725 1069 
Q 2919 1325 2919 1791 
Q 2919 2259 2725 2515 
Q 2531 2772 2181 2772 
z
" transform="scale(0.015625)"/>
       <path id="DejaVuSans-Bold-73" d="M 3272 3391 
L 3272 2541 
Q 2913 2691 2578 2766 
Q 2244 2841 1947 2841 
Q 1628 2841 1473 2761 
Q 1319 2681 1319 2516 
Q 1319 2381 1436 2309 
Q 1553 2238 1856 2203 
L 2053 2175 
Q 2913 2066 3209 1816 
Q 3506 1566 3506 1031 
Q 3506 472 3093 190 
Q 2681 -91 1863 -91 
Q 1516 -91 1145 -36 
Q 775 19 384 128 
L 384 978 
Q 719 816 1070 734 
Q 1422 653 1784 653 
Q 2113 653 2278 743 
Q 2444 834 2444 1013 
Q 2444 1163 2330 1236 
Q 2216 1309 1875 1350 
L 1678 1375 
Q 931 1469 631 1722 
Q 331 1975 331 2491 
Q 331 3047 712 3315 
Q 1094 3584 1881 3584 
Q 2191 3584 2531 3537 
Q 2872 3491 3272 3391 
z
" transform="scale(0.015625)"/>
       <path id="DejaVuSans-Bold-55" d="M 588 4666 
L 1791 4666 
L 1791 1869 
Q 1791 1291 1980 1042 
Q 2169 794 2597 794 
Q 3028 794 3217 1042 
Q 3406 1291 3406 1869 
L 3406 4666 
L 4609 4666 
L 4609 1869 
Q 4609 878 4112 393 
Q 3616 -91 2597 -91 
Q 1581 -91 1084 393 
Q 588 878 588 1869 
L 588 4666 
z
" transform="scale(0.015625)"/>
       <path id="DejaVuSans-Bold-53" d="M 3834 4519 
L 3834 3531 
Q 3450 3703 3084 3790 
Q 2719 3878 2394 3878 
Q 1963 3878 1756 3759 
Q 1550 3641 1550 3391 
Q 1550 3203 1689 3098 
Q 1828 2994 2194 2919 
L 2706 2816 
Q 3484 2659 3812 2340 
Q 4141 2022 4141 1434 
Q 4141 663 3683 286 
Q 3225 -91 2284 -91 
Q 1841 -91 1394 -6 
Q 947 78 500 244 
L 500 1259 
Q 947 1022 1364 901 
Q 1781 781 2169 781 
Q 2563 781 2772 912 
Q 2981 1044 2981 1288 
Q 2981 1506 2839 1625 
Q 2697 1744 2272 1838 
L 1806 1941 
Q 1106 2091 782 2419 
Q 459 2747 459 3303 
Q 459 4000 909 4375 
Q 1359 4750 2203 4750 
Q 2588 4750 2994 4692 
Q 3400 4634 3834 4519 
z
" transform="scale(0.015625)"/>
       <path id="DejaVuSans-Bold-44" d="M 1791 3756 
L 1791 909 
L 2222 909 
Q 2959 909 3348 1275 
Q 3738 1641 3738 2338 
Q 3738 3031 3350 3393 
Q 2963 3756 2222 3756 
L 1791 3756 
z
M 588 4666 
L 1856 4666 
Q 2919 4666 3439 4514 
Q 3959 4363 4331 4000 
Q 4659 3684 4818 3271 
Q 4978 2859 4978 2338 
Q 4978 1809 4818 1395 
Q 4659 981 4331 666 
Q 3956 303 3431 151 
Q 2906 0 1856 0 
L 588 0 
L 588 4666 
z
" transform="scale(0.015625)"/>
       <path id="DejaVuSans-Bold-4d" d="M 588 4666 
L 2119 4666 
L 3181 2169 
L 4250 4666 
L 5778 4666 
L 5778 0 
L 4641 0 
L 4641 3413 
L 3566 897 
L 2803 897 
L 1728 3413 
L 1728 0 
L 588 0 
L 588 4666 
z
" transform="scale(0.015625)"/>
       <path id="DejaVuSans-Bold-2c" d="M 653 1209 
L 1778 1209 
L 1778 256 
L 1006 -909 
L 341 -909 
L 653 256 
L 653 1209 
z
" transform="scale(0.015625)"/>
      </defs>
      <use xlink:href="#DejaVuSans-Bold-43"/>
      <use xlink:href="#DejaVuSans-Bold-75" x="73.388672"/>
      <use xlink:href="#DejaVuSans-Bold-6d" x="144.580078"/>
      <use xlink:href="#DejaVuSans-Bold-75" x="248.779297"/>
      <use xlink:href="#DejaVuSans-Bold-6c" x="319.970703"/>
      <use xlink:href="#DejaVuSans-Bold-61" x="354.248047"/>
      <use xlink:href="#DejaVuSans-Bold-74" x="421.728516"/>
      <use xlink:href="#DejaVuSans-Bold-69" x="469.53125"/>
      <use xlink:href="#DejaVuSans-Bold-76" x="503.808594"/>
      <use xlink:href="#DejaVuSans-Bold-65" x="568.994141"/>
      <use xlink:href="#DejaVuSans-Bold-20" x="636.816406"/>
      <use xlink:href="#DejaVuSans-Bold-66" x="671.630859"/>
      <use xlink:href="#DejaVuSans-Bold-75" x="715.136719"/>
      <use xlink:href="#DejaVuSans-Bold-6e" x="786.328125"/>
      <use xlink:href="#DejaVuSans-Bold-64" x="857.519531"/>
      <use xlink:href="#DejaVuSans-Bold-69" x="929.101562"/>
      <use xlink:href="#DejaVuSans-Bold-6e" x="963.378906"/>
      <use xlink:href="#DejaVuSans-Bold-67" x="1034.570312"/>
      <use xlink:href="#DejaVuSans-Bold-20" x="1106.152344"/>
      <use xlink:href="#DejaVuSans-Bold-72" x="1140.966797"/>
      <use xlink:href="#DejaVuSans-Bold-61" x="1190.283203"/>
      <use xlink:href="#DejaVuSans-Bold-69" x="1257.763672"/>
      <use xlink:href="#DejaVuSans-Bold-73" x="1292.041016"/>
      <use xlink:href="#DejaVuSans-Bold-65" x="1351.5625"/>
      <use xlink:href="#DejaVuSans-Bold-64" x="1419.384766"/>
      <use xlink:href="#DejaVuSans-Bold-20" x="1490.966797"/>
      <use xlink:href="#DejaVuSans-Bold-28" x="1525.78125"/>
      <use xlink:href="#DejaVuSans-Bold-55" x="1571.484375"/>
      <use xlink:href="#DejaVuSans-Bold-53" x="1652.685547"/>
      <use xlink:href="#DejaVuSans-Bold-44" x="1724.707031"/>
      <use xlink:href="#DejaVuSans-Bold-20" x="1807.714844"/>
      <use xlink:href="#DejaVuSans-Bold-4d" x="1842.529297"/>
      <use xlink:href="#DejaVuSans-Bold-2c" x="1942.041016"/>
      <use xlink:href="#DejaVuSans-Bold-20" x="1980.029297"/>
      <use xlink:href="#DejaVuSans-Bold-6c" x="2014.84375"/>
      <use xlink:href="#DejaVuSans-Bold-6f" x="2049.121094"/>
      <use xlink:href="#DejaVuSans-Bold-67" x="2117.822266"/>
      <use xlink:href="#DejaVuSans-Bold-29" x="2189.404297"/>
     </g>
    </g>
   </g>
   <g id="PathCollection_1">
    <defs>
     <path id="m4e123155b0" d="M 0 8.944272 
C 2.372049 8.944272 4.647264 8.001847 6.324555 6.324555 
C 8.001847 4.647264 8.944272 2.372049 8.944272 0 
C 8.944272 -2.372049 8.001847 -4.647264 6.324555 -6.324555 
C 4.647264 -8.001847 2.372049 -8.944272 0 -8.944272 
C -2.372049 -8.944272 -4.647264 -8.001847 -6.324555 -6.324555 
C -8.001847 -4.647264 -8.944272 -2.372049 -8.944272 0 
C -8.944272 2.372049 -8.001847 4.647264 -6.324555 6.324555 
C -4.647264 8.001847 -2.372049 8.944272 0 8.944272 
z
" style="stroke: #ffffff; stroke-opacity: 0.75; stroke-width: 1.5"/>
    </defs>
    <g clip-path="url(#p5a0080dee8)">
     <use xlink:href="#m4e123155b0" x="593.100364" y="61.675038" style="fill: #0b1c2c; fill-opacity: 0.75; stroke: #ffffff; stroke-opacity: 0.75; stroke-width: 1.5"/>
    </g>
   </g>
   <g id="PathCollection_2">
    <defs>
     <path id="m878183a17a" d="M 0 8.3666 
C 2.218848 8.3666 4.347117 7.485042 5.91608 5.91608 
C 7.485042 4.347117 8.3666 2.218848 8.3666 0 
C 8.3666 -2.218848 7.485042 -4.347117 5.91608 -5.91608 
C 4.347117 -7.485042 2.218848 -8.3666 0 -8.3666 
C -2.218848 -8.3666 -4.347117 -7.485042 -5.91608 -5.91608 
C -7.485042 -4.347117 -8.3666 -2.218848 -8.3666 0 
C -8.3666 2.218848 -7.485042 4.347117 -5.91608 5.91608 
C -4.347117 7.485042 -2.218848 8.3666 0 8.3666 
z
" style="stroke: #ffffff; stroke-opacity: 0.75; stroke-width: 1.5"/>
    </defs>
    <g clip-path="url(#p5a0080dee8)">
     <use xlink:href="#m878183a17a" x="556.785131" y="92.483673" style="fill: #0b1c2c; fill-opacity: 0.75; stroke: #ffffff; stroke-opacity: 0.75; stroke-width: 1.5"/>
    </g>
   </g>
   <g id="PathCollection_3">
    <defs>
     <path id="mcb718bdd2c" d="M 0 6.708204 
C 1.779036 6.708204 3.485448 6.001385 4.743416 4.743416 
C 6.001385 3.485448 6.708204 1.779036 6.708204 0 
C 6.708204 -1.779036 6.001385 -3.485448 4.743416 -4.743416 
C 3.485448 -6.001385 1.779036 -6.708204 0 -6.708204 
C -1.779036 -6.708204 -3.485448 -6.001385 -4.743416 -4.743416 
C -6.001385 -3.485448 -6.708204 -1.779036 -6.708204 0 
C -6.708204 1.779036 -6.001385 3.485448 -4.743416 4.743416 
C -3.485448 6.001385 -1.779036 6.708204 0 6.708204 
z
" style="stroke: #ffffff; stroke-opacity: 0.75; stroke-width: 1.5"/>
    </defs>
    <g clip-path="url(#p5a0080dee8)">
     <use xlink:href="#mcb718bdd2c" x="447.839433" y="181.118623" style="fill: #00a9e0; fill-opacity: 0.75; stroke: #ffffff; stroke-opacity: 0.75; stroke-width: 1.5"/>
    </g>
   </g>
   <g id="PathCollection_4">
    <defs>
     <path id="m1b5db1d478" d="M 0 6.123724 
C 1.624031 6.123724 3.181764 5.47849 4.330127 4.330127 
C 5.47849 3.181764 6.123724 1.624031 6.123724 0 
C 6.123724 -1.624031 5.47849 -3.181764 4.330127 -4.330127 
C 3.181764 -5.47849 1.624031 -6.123724 0 -6.123724 
C -1.624031 -6.123724 -3.181764 -5.47849 -4.330127 -4.330127 
C -5.47849 -3.181764 -6.123724 -1.624031 -6.123724 0 
C -6.123724 1.624031 -5.47849 3.181764 -4.330127 4.330127 
C -3.181764 5.47849 -1.624031 6.123724 0 6.123724 
z
" style="stroke: #ffffff; stroke-opacity: 0.75; stroke-width: 1.5"/>
    </defs>
    <g clip-path="url(#p5a0080dee8)">
     <use xlink:href="#m1b5db1d478" x="411.524201" y="207.115692" style="fill: #00a9e0; fill-opacity: 0.75; stroke: #ffffff; stroke-opacity: 0.75; stroke-width: 1.5"/>
    </g>
   </g>
   <g id="PathCollection_5">
    <defs>
     <path id="md260933097" d="M 0 5.700877 
C 1.51189 5.700877 2.962061 5.100197 4.031129 4.031129 
C 5.100197 2.962061 5.700877 1.51189 5.700877 0 
C 5.700877 -1.51189 5.100197 -2.962061 4.031129 -4.031129 
C 2.962061 -5.100197 1.51189 -5.700877 0 -5.700877 
C -1.51189 -5.700877 -2.962061 -5.100197 -4.031129 -4.031129 
C -5.100197 -2.962061 -5.700877 -1.51189 -5.700877 0 
C -5.700877 1.51189 -5.100197 2.962061 -4.031129 4.031129 
C -2.962061 5.100197 -1.51189 5.700877 0 5.700877 
z
" style="stroke: #ffffff; stroke-opacity: 0.75; stroke-width: 1.5"/>
    </defs>
    <g clip-path="url(#p5a0080dee8)">
     <use xlink:href="#md260933097" x="375.208968" y="229.826313" style="fill: #00a9e0; fill-opacity: 0.75; stroke: #ffffff; stroke-opacity: 0.75; stroke-width: 1.5"/>
    </g>
   </g>
   <g id="PathCollection_6">
    <defs>
     <path id="m32c2c34355" d="M 0 5.91608 
C 1.568963 5.91608 3.073876 5.292724 4.1833 4.1833 
C 5.292724 3.073876 5.91608 1.568963 5.91608 0 
C 5.91608 -1.568963 5.292724 -3.073876 4.1833 -4.1833 
C 3.073876 -5.292724 1.568963 -5.91608 0 -5.91608 
C -1.568963 -5.91608 -3.073876 -5.292724 -4.1833 -4.1833 
C -5.292724 -3.073876 -5.91608 -1.568963 -5.91608 0 
C -5.91608 1.568963 -5.292724 3.073876 -4.1833 4.1833 
C -3.073876 5.292724 -1.568963 5.91608 0 5.91608 
z
" style="stroke: #ffffff; stroke-opacity: 0.75; stroke-width: 1.5"/>
    </defs>
    <g clip-path="url(#p5a0080dee8)">
     <use xlink:href="#m32c2c34355" x="484.154666" y="217.759434" style="fill: #3e6b96; fill-opacity: 0.75; stroke: #ffffff; stroke-opacity: 0.75; stroke-width: 1.5"/>
    </g>
   </g>
   <g id="PathCollection_7">
    <defs>
     <path id="mee8a9b9608" d="M 0 5 
C 1.326016 5 2.597899 4.473168 3.535534 3.535534 
C 4.473168 2.597899 5 1.326016 5 0 
C 5 -1.326016 4.473168 -2.597899 3.535534 -3.535534 
C 2.597899 -4.473168 1.326016 -5 0 -5 
C -1.326016 -5 -2.597899 -4.473168 -3.535534 -3.535534 
C -4.473168 -2.597899 -5 -1.326016 -5 0 
C -5 1.326016 -4.473168 2.597899 -3.535534 3.535534 
C -2.597899 4.473168 -1.326016 5 0 5 
z
" style="stroke: #ffffff; stroke-opacity: 0.75; stroke-width: 1.5"/>
    </defs>
    <g clip-path="url(#p5a0080dee8)">
     <use xlink:href="#mee8a9b9608" x="338.893736" y="260.232421" style="fill: #e8a317; fill-opacity: 0.75; stroke: #ffffff; stroke-opacity: 0.75; stroke-width: 1.5"/>
    </g>
   </g>
   <g id="PathCollection_8">
    <defs>
     <path id="mfe6306c056" d="M 0 4.472136 
C 1.186024 4.472136 2.323632 4.000923 3.162278 3.162278 
C 4.000923 2.323632 4.472136 1.186024 4.472136 0 
C 4.472136 -1.186024 4.000923 -2.323632 3.162278 -3.162278 
C 2.323632 -4.000923 1.186024 -4.472136 0 -4.472136 
C -1.186024 -4.472136 -2.323632 -4.000923 -3.162278 -3.162278 
C -4.000923 -2.323632 -4.472136 -1.186024 -4.472136 0 
C -4.472136 1.186024 -4.000923 2.323632 -3.162278 3.162278 
C -2.323632 4.000923 -1.186024 4.472136 0 4.472136 
z
" style="stroke: #ffffff; stroke-opacity: 0.75; stroke-width: 1.5"/>
    </defs>
    <g clip-path="url(#p5a0080dee8)">
     <use xlink:href="#mfe6306c056" x="302.578503" y="306.394384" style="fill: #e8a317; fill-opacity: 0.75; stroke: #ffffff; stroke-opacity: 0.75; stroke-width: 1.5"/>
    </g>
   </g>
   <g id="PathCollection_9">
    <defs>
     <path id="m2bf70e33b5" d="M 0 5.477226 
C 1.452577 5.477226 2.845856 4.900111 3.872983 3.872983 
C 4.900111 2.845856 5.477226 1.452577 5.477226 0 
C 5.477226 -1.452577 4.900111 -2.845856 3.872983 -3.872983 
C 2.845856 -4.900111 1.452577 -5.477226 0 -5.477226 
C -1.452577 -5.477226 -2.845856 -4.900111 -3.872983 -3.872983 
C -4.900111 -2.845856 -5.477226 -1.452577 -5.477226 0 
C -5.477226 1.452577 -4.900111 2.845856 -3.872983 3.872983 
C -2.845856 4.900111 -1.452577 5.477226 0 5.477226 
z
" style="stroke: #ffffff; stroke-opacity: 0.75; stroke-width: 1.5"/>
    </defs>
    <g clip-path="url(#p5a0080dee8)">
     <use xlink:href="#m2bf70e33b5" x="447.839433" y="243.756503" style="fill: #2e8b57; fill-opacity: 0.75; stroke: #ffffff; stroke-opacity: 0.75; stroke-width: 1.5"/>
    </g>
   </g>
   <g id="PathCollection_10">
    <defs>
     <path id="m95eaddddd3" d="M 0 3.872983 
C 1.027127 3.872983 2.012324 3.464901 2.738613 2.738613 
C 3.464901 2.012324 3.872983 1.027127 3.872983 0 
C 3.872983 -1.027127 3.464901 -2.012324 2.738613 -2.738613 
C 2.012324 -3.464901 1.027127 -3.872983 0 -3.872983 
C -1.027127 -3.872983 -2.012324 -3.464901 -2.738613 -2.738613 
C -3.464901 -2.012324 -3.872983 -1.027127 -3.872983 0 
C -3.872983 1.027127 -3.464901 2.012324 -2.738613 2.738613 
C -2.012324 3.464901 -1.027127 3.872983 0 3.872983 
z
" style="stroke: #ffffff; stroke-opacity: 0.75; stroke-width: 1.5"/>
    </defs>
    <g clip-path="url(#p5a0080dee8)">
     <use xlink:href="#m95eaddddd3" x="266.26327" y="343.035195" style="fill: #e8a317; fill-opacity: 0.75; stroke: #ffffff; stroke-opacity: 0.75; stroke-width: 1.5"/>
    </g>
   </g>
   <g id="PathCollection_11">
    <defs>
     <path id="m558506440d" d="M 0 3.535534 
C 0.937635 3.535534 1.836992 3.163008 2.5 2.5 
C 3.163008 1.836992 3.535534 0.937635 3.535534 0 
C 3.535534 -0.937635 3.163008 -1.836992 2.5 -2.5 
C 1.836992 -3.163008 0.937635 -3.535534 0 -3.535534 
C -0.937635 -3.535534 -1.836992 -3.163008 -2.5 -2.5 
C -3.163008 -1.836992 -3.535534 -0.937635 -3.535534 0 
C -3.535534 0.937635 -3.163008 1.836992 -2.5 2.5 
C -1.836992 3.163008 -0.937635 3.535534 0 3.535534 
z
" style="stroke: #ffffff; stroke-opacity: 0.75; stroke-width: 1.5"/>
    </defs>
    <g clip-path="url(#p5a0080dee8)">
     <use xlink:href="#m558506440d" x="229.948038" y="369.032264" style="fill: #7b8794; fill-opacity: 0.75; stroke: #ffffff; stroke-opacity: 0.75; stroke-width: 1.5"/>
    </g>
   </g>
   <g id="PathCollection_12">
    <defs>
     <path id="m9c9811fb8c" d="M 0 3.354102 
C 0.889518 3.354102 1.742724 3.000693 2.371708 2.371708 
C 3.000693 1.742724 3.354102 0.889518 3.354102 0 
C 3.354102 -0.889518 3.000693 -1.742724 2.371708 -2.371708 
C 1.742724 -3.000693 0.889518 -3.354102 0 -3.354102 
C -0.889518 -3.354102 -1.742724 -3.000693 -2.371708 -2.371708 
C -3.000693 -1.742724 -3.354102 -0.889518 -3.354102 0 
C -3.354102 0.889518 -3.000693 1.742724 -2.371708 2.371708 
C -1.742724 3.000693 -0.889518 3.354102 0 3.354102 
z
" style="stroke: #ffffff; stroke-opacity: 0.75; stroke-width: 1.5"/>
    </defs>
    <g clip-path="url(#p5a0080dee8)">
     <use xlink:href="#m9c9811fb8c" x="193.632805" y="389.197158" style="fill: #7b8794; fill-opacity: 0.75; stroke: #ffffff; stroke-opacity: 0.75; stroke-width: 1.5"/>
    </g>
   </g>
   <g id="line2d_26">
    <path d="M 411.524201 425.837969 
L 411.524201 35.677969 
" clip-path="url(#p5a0080dee8)" style="fill: none; stroke-dasharray: 3.7,1.6; stroke-dashoffset: 0; stroke: #c8d0da"/>
   </g>
   <g id="line2d_27">
    <path d="M 48.371875 197.594541 
L 774.676527 197.594541 
" clip-path="url(#p5a0080dee8)" style="fill: none; stroke-dasharray: 3.7,1.6; stroke-dashoffset: 0; stroke: #c8d0da"/>
   </g>
   <g id="patch_3">
    <path d="M 48.371875 425.837969 
L 48.371875 35.677969 
" style="fill: none; stroke: #7b8794; stroke-width: 0.8; stroke-linejoin: miter; stroke-linecap: square"/>
   </g>
   <g id="patch_4">
    <path d="M 48.371875 425.837969 
L 774.676527 425.837969 
" style="fill: none; stroke: #7b8794; stroke-width: 0.8; stroke-linejoin: miter; stroke-linecap: square"/>
   </g>
   <g id="text_11">
    <!-- ideaForge -->
    <g style="fill: #0b1c2c" transform="translate(569.176848 59.540174) scale(0.085 -0.085)">
     <defs>
      <path id="DejaVuSans-Bold-46" d="M 588 4666 
L 3834 4666 
L 3834 3756 
L 1791 3756 
L 1791 2888 
L 3713 2888 
L 3713 1978 
L 1791 1978 
L 1791 0 
L 588 0 
L 588 4666 
z
" transform="scale(0.015625)"/>
     </defs>
     <use xlink:href="#DejaVuSans-Bold-69"/>
     <use xlink:href="#DejaVuSans-Bold-64" x="34.277344"/>
     <use xlink:href="#DejaVuSans-Bold-65" x="105.859375"/>
     <use xlink:href="#DejaVuSans-Bold-61" x="173.681641"/>
     <use xlink:href="#DejaVuSans-Bold-46" x="241.162109"/>
     <use xlink:href="#DejaVuSans-Bold-6f" x="305.472656"/>
     <use xlink:href="#DejaVuSans-Bold-72" x="374.173828"/>
     <use xlink:href="#DejaVuSans-Bold-67" x="423.490234"/>
     <use xlink:href="#DejaVuSans-Bold-65" x="495.072266"/>
    </g>
   </g>
   <g id="text_12">
    <!-- Garuda Aerospace -->
    <g style="fill: #0b1c2c" transform="translate(512.888608 90.293332) scale(0.085 -0.085)">
     <defs>
      <path id="DejaVuSans-Bold-47" d="M 4781 347 
Q 4331 128 3847 18 
Q 3363 -91 2847 -91 
Q 1681 -91 1000 561 
Q 319 1213 319 2328 
Q 319 3456 1012 4103 
Q 1706 4750 2913 4750 
Q 3378 4750 3804 4662 
Q 4231 4575 4609 4403 
L 4609 3438 
Q 4219 3659 3833 3768 
Q 3447 3878 3059 3878 
Q 2341 3878 1952 3476 
Q 1563 3075 1563 2328 
Q 1563 1588 1938 1184 
Q 2313 781 3003 781 
Q 3191 781 3352 804 
Q 3513 828 3641 878 
L 3641 1784 
L 2906 1784 
L 2906 2591 
L 4781 2591 
L 4781 347 
z
" transform="scale(0.015625)"/>
      <path id="DejaVuSans-Bold-41" d="M 3419 850 
L 1538 850 
L 1241 0 
L 31 0 
L 1759 4666 
L 3194 4666 
L 4922 0 
L 3713 0 
L 3419 850 
z
M 1838 1716 
L 3116 1716 
L 2478 3572 
L 1838 1716 
z
" transform="scale(0.015625)"/>
      <path id="DejaVuSans-Bold-63" d="M 3366 3391 
L 3366 2478 
Q 3138 2634 2908 2709 
Q 2678 2784 2431 2784 
Q 1963 2784 1702 2511 
Q 1441 2238 1441 1747 
Q 1441 1256 1702 982 
Q 1963 709 2431 709 
Q 2694 709 2930 787 
Q 3166 866 3366 1019 
L 3366 103 
Q 3103 6 2833 -42 
Q 2563 -91 2291 -91 
Q 1344 -91 809 395 
Q 275 881 275 1747 
Q 275 2613 809 3098 
Q 1344 3584 2291 3584 
Q 2566 3584 2833 3536 
Q 3100 3488 3366 3391 
z
" transform="scale(0.015625)"/>
     </defs>
     <use xlink:href="#DejaVuSans-Bold-47"/>
     <use xlink:href="#DejaVuSans-Bold-61" x="82.080078"/>
     <use xlink:href="#DejaVuSans-Bold-72" x="149.560547"/>
     <use xlink:href="#DejaVuSans-Bold-75" x="198.876953"/>
     <use xlink:href="#DejaVuSans-Bold-64" x="270.068359"/>
     <use xlink:href="#DejaVuSans-Bold-61" x="341.650391"/>
     <use xlink:href="#DejaVuSans-Bold-20" x="409.130859"/>
     <use xlink:href="#DejaVuSans-Bold-41" x="443.945312"/>
     <use xlink:href="#DejaVuSans-Bold-65" x="521.337891"/>
     <use xlink:href="#DejaVuSans-Bold-72" x="589.160156"/>
     <use xlink:href="#DejaVuSans-Bold-6f" x="638.476562"/>
     <use xlink:href="#DejaVuSans-Bold-73" x="707.177734"/>
     <use xlink:href="#DejaVuSans-Bold-70" x="766.699219"/>
     <use xlink:href="#DejaVuSans-Bold-61" x="838.28125"/>
     <use xlink:href="#DejaVuSans-Bold-63" x="905.761719"/>
     <use xlink:href="#DejaVuSans-Bold-65" x="965.039062"/>
    </g>
   </g>
   <g id="text_13">
    <!-- Throttle Aerospace -->
    <g style="fill: #0b1c2c" transform="translate(401.98791 178.228298) scale(0.085 -0.085)">
     <defs>
      <path id="DejaVuSans-Bold-54" d="M 31 4666 
L 4331 4666 
L 4331 3756 
L 2784 3756 
L 2784 0 
L 1581 0 
L 1581 3756 
L 31 3756 
L 31 4666 
z
" transform="scale(0.015625)"/>
      <path id="DejaVuSans-Bold-68" d="M 4056 2131 
L 4056 0 
L 2931 0 
L 2931 347 
L 2931 1625 
Q 2931 2084 2911 2256 
Q 2891 2428 2841 2509 
Q 2775 2619 2662 2680 
Q 2550 2741 2406 2741 
Q 2056 2741 1856 2470 
Q 1656 2200 1656 1722 
L 1656 0 
L 538 0 
L 538 4863 
L 1656 4863 
L 1656 2988 
Q 1909 3294 2193 3439 
Q 2478 3584 2822 3584 
Q 3428 3584 3742 3212 
Q 4056 2841 4056 2131 
z
" transform="scale(0.015625)"/>
     </defs>
     <use xlink:href="#DejaVuSans-Bold-54"/>
     <use xlink:href="#DejaVuSans-Bold-68" x="68.212891"/>
     <use xlink:href="#DejaVuSans-Bold-72" x="139.404297"/>
     <use xlink:href="#DejaVuSans-Bold-6f" x="188.720703"/>
     <use xlink:href="#DejaVuSans-Bold-74" x="257.421875"/>
     <use xlink:href="#DejaVuSans-Bold-74" x="305.224609"/>
     <use xlink:href="#DejaVuSans-Bold-6c" x="353.027344"/>
     <use xlink:href="#DejaVuSans-Bold-65" x="387.304688"/>
     <use xlink:href="#DejaVuSans-Bold-20" x="455.126953"/>
     <use xlink:href="#DejaVuSans-Bold-41" x="489.941406"/>
     <use xlink:href="#DejaVuSans-Bold-65" x="567.333984"/>
     <use xlink:href="#DejaVuSans-Bold-72" x="635.15625"/>
     <use xlink:href="#DejaVuSans-Bold-6f" x="684.472656"/>
     <use xlink:href="#DejaVuSans-Bold-73" x="753.173828"/>
     <use xlink:href="#DejaVuSans-Bold-70" x="812.695312"/>
     <use xlink:href="#DejaVuSans-Bold-61" x="884.277344"/>
     <use xlink:href="#DejaVuSans-Bold-63" x="951.757812"/>
     <use xlink:href="#DejaVuSans-Bold-65" x="1011.035156"/>
    </g>
   </g>
   <g id="text_14">
    <!-- Redwing Labs -->
    <g style="fill: #0b1c2c" transform="translate(378.248693 203.787842) scale(0.085 -0.085)">
     <defs>
      <path id="DejaVuSans-Bold-52" d="M 2297 2597 
Q 2675 2597 2839 2737 
Q 3003 2878 3003 3200 
Q 3003 3519 2839 3656 
Q 2675 3794 2297 3794 
L 1791 3794 
L 1791 2597 
L 2297 2597 
z
M 1791 1766 
L 1791 0 
L 588 0 
L 588 4666 
L 2425 4666 
Q 3347 4666 3776 4356 
Q 4206 4047 4206 3378 
Q 4206 2916 3982 2619 
Q 3759 2322 3309 2181 
Q 3556 2125 3751 1926 
Q 3947 1728 4147 1325 
L 4800 0 
L 3519 0 
L 2950 1159 
Q 2778 1509 2601 1637 
Q 2425 1766 2131 1766 
L 1791 1766 
z
" transform="scale(0.015625)"/>
      <path id="DejaVuSans-Bold-77" d="M 225 3500 
L 1313 3500 
L 1900 1088 
L 2491 3500 
L 3425 3500 
L 4013 1113 
L 4603 3500 
L 5691 3500 
L 4769 0 
L 3547 0 
L 2956 2406 
L 2369 0 
L 1147 0 
L 225 3500 
z
" transform="scale(0.015625)"/>
      <path id="DejaVuSans-Bold-4c" d="M 588 4666 
L 1791 4666 
L 1791 909 
L 3903 909 
L 3903 0 
L 588 0 
L 588 4666 
z
" transform="scale(0.015625)"/>
      <path id="DejaVuSans-Bold-62" d="M 2400 722 
Q 2759 722 2948 984 
Q 3138 1247 3138 1747 
Q 3138 2247 2948 2509 
Q 2759 2772 2400 2772 
Q 2041 2772 1848 2508 
Q 1656 2244 1656 1747 
Q 1656 1250 1848 986 
Q 2041 722 2400 722 
z
M 1656 2988 
Q 1888 3294 2169 3439 
Q 2450 3584 2816 3584 
Q 3463 3584 3878 3070 
Q 4294 2556 4294 1747 
Q 4294 938 3878 423 
Q 3463 -91 2816 -91 
Q 2450 -91 2169 54 
Q 1888 200 1656 506 
L 1656 0 
L 538 0 
L 538 4863 
L 1656 4863 
L 1656 2988 
z
" transform="scale(0.015625)"/>
     </defs>
     <use xlink:href="#DejaVuSans-Bold-52"/>
     <use xlink:href="#DejaVuSans-Bold-65" x="77.001953"/>
     <use xlink:href="#DejaVuSans-Bold-64" x="144.824219"/>
     <use xlink:href="#DejaVuSans-Bold-77" x="216.40625"/>
     <use xlink:href="#DejaVuSans-Bold-69" x="308.789062"/>
     <use xlink:href="#DejaVuSans-Bold-6e" x="343.066406"/>
     <use xlink:href="#DejaVuSans-Bold-67" x="414.257812"/>
     <use xlink:href="#DejaVuSans-Bold-20" x="485.839844"/>
     <use xlink:href="#DejaVuSans-Bold-4c" x="520.654297"/>
     <use xlink:href="#DejaVuSans-Bold-61" x="584.375"/>
     <use xlink:href="#DejaVuSans-Bold-62" x="651.855469"/>
     <use xlink:href="#DejaVuSans-Bold-73" x="723.4375"/>
    </g>
   </g>
   <g id="text_15">
    <!-- TechEagle -->
    <g style="fill: #0b1c2c" transform="translate(351.292093 226.076185) scale(0.085 -0.085)">
     <defs>
      <path id="DejaVuSans-Bold-45" d="M 588 4666 
L 3834 4666 
L 3834 3756 
L 1791 3756 
L 1791 2888 
L 3713 2888 
L 3713 1978 
L 1791 1978 
L 1791 909 
L 3903 909 
L 3903 0 
L 588 0 
L 588 4666 
z
" transform="scale(0.015625)"/>
     </defs>
     <use xlink:href="#DejaVuSans-Bold-54"/>
     <use xlink:href="#DejaVuSans-Bold-65" x="54.962891"/>
     <use xlink:href="#DejaVuSans-Bold-63" x="122.785156"/>
     <use xlink:href="#DejaVuSans-Bold-68" x="182.0625"/>
     <use xlink:href="#DejaVuSans-Bold-45" x="253.253906"/>
     <use xlink:href="#DejaVuSans-Bold-61" x="321.564453"/>
     <use xlink:href="#DejaVuSans-Bold-67" x="389.044922"/>
     <use xlink:href="#DejaVuSans-Bold-6c" x="460.626953"/>
     <use xlink:href="#DejaVuSans-Bold-65" x="494.904297"/>
    </g>
   </g>
   <g id="text_16">
    <!-- Skylark Drones -->
    <g style="fill: #0b1c2c" transform="translate(447.789275 214.246595) scale(0.085 -0.085)">
     <defs>
      <path id="DejaVuSans-Bold-6b" d="M 538 4863 
L 1656 4863 
L 1656 2216 
L 2944 3500 
L 4244 3500 
L 2534 1894 
L 4378 0 
L 3022 0 
L 1656 1459 
L 1656 0 
L 538 0 
L 538 4863 
z
" transform="scale(0.015625)"/>
     </defs>
     <use xlink:href="#DejaVuSans-Bold-53"/>
     <use xlink:href="#DejaVuSans-Bold-6b" x="72.021484"/>
     <use xlink:href="#DejaVuSans-Bold-79" x="138.525391"/>
     <use xlink:href="#DejaVuSans-Bold-6c" x="203.710938"/>
     <use xlink:href="#DejaVuSans-Bold-61" x="237.988281"/>
     <use xlink:href="#DejaVuSans-Bold-72" x="305.46875"/>
     <use xlink:href="#DejaVuSans-Bold-6b" x="354.785156"/>
     <use xlink:href="#DejaVuSans-Bold-20" x="421.289062"/>
     <use xlink:href="#DejaVuSans-Bold-44" x="456.103516"/>
     <use xlink:href="#DejaVuSans-Bold-72" x="539.111328"/>
     <use xlink:href="#DejaVuSans-Bold-6f" x="588.427734"/>
     <use xlink:href="#DejaVuSans-Bold-6e" x="657.128906"/>
     <use xlink:href="#DejaVuSans-Bold-65" x="728.320312"/>
     <use xlink:href="#DejaVuSans-Bold-73" x="796.142578"/>
    </g>
   </g>
   <g id="text_17">
    <!-- Aarav Unmanned -->
    <g style="fill: #0b1c2c" transform="translate(297.773658 255.793536) scale(0.085 -0.085)">
     <use xlink:href="#DejaVuSans-Bold-41"/>
     <use xlink:href="#DejaVuSans-Bold-61" x="77.392578"/>
     <use xlink:href="#DejaVuSans-Bold-72" x="144.873047"/>
     <use xlink:href="#DejaVuSans-Bold-61" x="194.189453"/>
     <use xlink:href="#DejaVuSans-Bold-76" x="261.669922"/>
     <use xlink:href="#DejaVuSans-Bold-20" x="326.855469"/>
     <use xlink:href="#DejaVuSans-Bold-55" x="361.669922"/>
     <use xlink:href="#DejaVuSans-Bold-6e" x="442.871094"/>
     <use xlink:href="#DejaVuSans-Bold-6d" x="514.0625"/>
     <use xlink:href="#DejaVuSans-Bold-61" x="618.261719"/>
     <use xlink:href="#DejaVuSans-Bold-6e" x="685.742188"/>
     <use xlink:href="#DejaVuSans-Bold-6e" x="756.933594"/>
     <use xlink:href="#DejaVuSans-Bold-65" x="828.125"/>
     <use xlink:href="#DejaVuSans-Bold-64" x="895.947266"/>
    </g>
   </g>
   <g id="text_18">
    <!-- DCM Shriram Ind. -->
    <g style="fill: #0b1c2c" transform="translate(260.448386 290.69947) scale(0.085 -0.085)">
     <defs>
      <path id="DejaVuSans-Bold-49" d="M 588 4666 
L 1791 4666 
L 1791 0 
L 588 0 
L 588 4666 
z
" transform="scale(0.015625)"/>
      <path id="DejaVuSans-Bold-2e" d="M 653 1209 
L 1778 1209 
L 1778 0 
L 653 0 
L 653 1209 
z
" transform="scale(0.015625)"/>
     </defs>
     <use xlink:href="#DejaVuSans-Bold-44"/>
     <use xlink:href="#DejaVuSans-Bold-43" x="83.007812"/>
     <use xlink:href="#DejaVuSans-Bold-4d" x="156.396484"/>
     <use xlink:href="#DejaVuSans-Bold-20" x="255.908203"/>
     <use xlink:href="#DejaVuSans-Bold-53" x="290.722656"/>
     <use xlink:href="#DejaVuSans-Bold-68" x="362.744141"/>
     <use xlink:href="#DejaVuSans-Bold-72" x="433.935547"/>
     <use xlink:href="#DejaVuSans-Bold-69" x="483.251953"/>
     <use xlink:href="#DejaVuSans-Bold-72" x="517.529297"/>
     <use xlink:href="#DejaVuSans-Bold-61" x="566.845703"/>
     <use xlink:href="#DejaVuSans-Bold-6d" x="634.326172"/>
     <use xlink:href="#DejaVuSans-Bold-20" x="738.525391"/>
     <use xlink:href="#DejaVuSans-Bold-49" x="773.339844"/>
     <use xlink:href="#DejaVuSans-Bold-6e" x="810.546875"/>
     <use xlink:href="#DejaVuSans-Bold-64" x="881.738281"/>
     <use xlink:href="#DejaVuSans-Bold-2e" x="953.320312"/>
    </g>
    <!-- Indrones -->
    <g style="fill: #0b1c2c" transform="translate(281.476589 300.217611) scale(0.085 -0.085)">
     <use xlink:href="#DejaVuSans-Bold-49"/>
     <use xlink:href="#DejaVuSans-Bold-6e" x="37.207031"/>
     <use xlink:href="#DejaVuSans-Bold-64" x="108.398438"/>
     <use xlink:href="#DejaVuSans-Bold-72" x="179.980469"/>
     <use xlink:href="#DejaVuSans-Bold-6f" x="229.296875"/>
     <use xlink:href="#DejaVuSans-Bold-6e" x="297.998047"/>
     <use xlink:href="#DejaVuSans-Bold-65" x="369.189453"/>
     <use xlink:href="#DejaVuSans-Bold-73" x="437.011719"/>
    </g>
   </g>
   <g id="text_19">
    <!-- IoTechWorld -->
    <g style="fill: #0b1c2c" transform="translate(418.526386 230.239222) scale(0.085 -0.085)">
     <defs>
      <path id="DejaVuSans-Bold-57" d="M 191 4666 
L 1344 4666 
L 2150 1275 
L 2950 4666 
L 4109 4666 
L 4909 1275 
L 5716 4666 
L 6859 4666 
L 5759 0 
L 4372 0 
L 3525 3547 
L 2688 0 
L 1300 0 
L 191 4666 
z
" transform="scale(0.015625)"/>
     </defs>
     <use xlink:href="#DejaVuSans-Bold-49"/>
     <use xlink:href="#DejaVuSans-Bold-6f" x="37.207031"/>
     <use xlink:href="#DejaVuSans-Bold-54" x="105.908203"/>
     <use xlink:href="#DejaVuSans-Bold-65" x="160.871094"/>
     <use xlink:href="#DejaVuSans-Bold-63" x="228.693359"/>
     <use xlink:href="#DejaVuSans-Bold-68" x="287.970703"/>
     <use xlink:href="#DejaVuSans-Bold-57" x="359.162109"/>
     <use xlink:href="#DejaVuSans-Bold-6f" x="465.839844"/>
     <use xlink:href="#DejaVuSans-Bold-72" x="534.541016"/>
     <use xlink:href="#DejaVuSans-Bold-6c" x="583.857422"/>
     <use xlink:href="#DejaVuSans-Bold-64" x="618.134766"/>
    </g>
    <!-- Aviation -->
    <g style="fill: #0b1c2c" transform="translate(428.175215 239.757363) scale(0.085 -0.085)">
     <use xlink:href="#DejaVuSans-Bold-41"/>
     <use xlink:href="#DejaVuSans-Bold-76" x="73.767578"/>
     <use xlink:href="#DejaVuSans-Bold-69" x="138.953125"/>
     <use xlink:href="#DejaVuSans-Bold-61" x="173.230469"/>
     <use xlink:href="#DejaVuSans-Bold-74" x="240.710938"/>
     <use xlink:href="#DejaVuSans-Bold-69" x="288.513672"/>
     <use xlink:href="#DejaVuSans-Bold-6f" x="322.791016"/>
     <use xlink:href="#DejaVuSans-Bold-6e" x="391.492188"/>
    </g>
   </g>
   <g id="text_20">
    <!-- Curvo Labs -->
    <g style="fill: #0b1c2c" transform="translate(239.705419 334.732033) scale(0.085 -0.085)">
     <use xlink:href="#DejaVuSans-Bold-43"/>
     <use xlink:href="#DejaVuSans-Bold-75" x="73.388672"/>
     <use xlink:href="#DejaVuSans-Bold-72" x="144.580078"/>
     <use xlink:href="#DejaVuSans-Bold-76" x="193.896484"/>
     <use xlink:href="#DejaVuSans-Bold-6f" x="259.082031"/>
     <use xlink:href="#DejaVuSans-Bold-20" x="327.783203"/>
     <use xlink:href="#DejaVuSans-Bold-4c" x="362.597656"/>
     <use xlink:href="#DejaVuSans-Bold-61" x="426.318359"/>
     <use xlink:href="#DejaVuSans-Bold-62" x="493.798828"/>
     <use xlink:href="#DejaVuSans-Bold-73" x="565.380859"/>
    </g>
   </g>
   <g id="text_21">
    <!-- BlueCop -->
    <g style="fill: #0b1c2c" transform="translate(210.262569 358.6516) scale(0.085 -0.085)">
     <defs>
      <path id="DejaVuSans-Bold-42" d="M 2456 2859 
Q 2741 2859 2887 2984 
Q 3034 3109 3034 3353 
Q 3034 3594 2887 3720 
Q 2741 3847 2456 3847 
L 1791 3847 
L 1791 2859 
L 2456 2859 
z
M 2497 819 
Q 2859 819 3042 972 
Q 3225 1125 3225 1434 
Q 3225 1738 3044 1889 
Q 2863 2041 2497 2041 
L 1791 2041 
L 1791 819 
L 2497 819 
z
M 3616 2497 
Q 4003 2384 4215 2081 
Q 4428 1778 4428 1338 
Q 4428 663 3972 331 
Q 3516 0 2584 0 
L 588 0 
L 588 4666 
L 2394 4666 
Q 3366 4666 3802 4372 
Q 4238 4078 4238 3431 
Q 4238 3091 4078 2852 
Q 3919 2613 3616 2497 
z
" transform="scale(0.015625)"/>
     </defs>
     <use xlink:href="#DejaVuSans-Bold-42"/>
     <use xlink:href="#DejaVuSans-Bold-6c" x="76.220703"/>
     <use xlink:href="#DejaVuSans-Bold-75" x="110.498047"/>
     <use xlink:href="#DejaVuSans-Bold-65" x="181.689453"/>
     <use xlink:href="#DejaVuSans-Bold-43" x="249.511719"/>
     <use xlink:href="#DejaVuSans-Bold-6f" x="322.900391"/>
     <use xlink:href="#DejaVuSans-Bold-70" x="391.601562"/>
    </g>
   </g>
   <g id="text_22">
    <!-- AeroMage -->
    <g style="fill: #0b1c2c" transform="translate(169.423079 376.719275) scale(0.085 -0.085)">
     <use xlink:href="#DejaVuSans-Bold-41"/>
     <use xlink:href="#DejaVuSans-Bold-65" x="77.392578"/>
     <use xlink:href="#DejaVuSans-Bold-72" x="145.214844"/>
     <use xlink:href="#DejaVuSans-Bold-6f" x="194.53125"/>
     <use xlink:href="#DejaVuSans-Bold-4d" x="263.232422"/>
     <use xlink:href="#DejaVuSans-Bold-61" x="362.744141"/>
     <use xlink:href="#DejaVuSans-Bold-67" x="430.224609"/>
     <use xlink:href="#DejaVuSans-Bold-65" x="501.806641"/>
    </g>
   </g>
   <g id="text_23">
    <!-- LEADERS -->
    <g style="fill: #0b1c2c; opacity: 0.6" transform="translate(606.476143 74.307628) scale(0.09 -0.09)">
     <use xlink:href="#DejaVuSans-Bold-4c"/>
     <use xlink:href="#DejaVuSans-Bold-45" x="63.720703"/>
     <use xlink:href="#DejaVuSans-Bold-41" x="132.03125"/>
     <use xlink:href="#DejaVuSans-Bold-44" x="209.423828"/>
     <use xlink:href="#DejaVuSans-Bold-45" x="292.431641"/>
     <use xlink:href="#DejaVuSans-Bold-52" x="360.742188"/>
     <use xlink:href="#DejaVuSans-Bold-53" x="437.744141"/>
    </g>
    <!-- (funded + mature) -->
    <g style="fill: #0b1c2c; opacity: 0.6" transform="translate(582.188096 84.385659) scale(0.09 -0.09)">
     <defs>
      <path id="DejaVuSans-Bold-2b" d="M 3053 4013 
L 3053 2375 
L 4684 2375 
L 4684 1638 
L 3053 1638 
L 3053 0 
L 2309 0 
L 2309 1638 
L 678 1638 
L 678 2375 
L 2309 2375 
L 2309 4013 
L 3053 4013 
z
" transform="scale(0.015625)"/>
     </defs>
     <use xlink:href="#DejaVuSans-Bold-28"/>
     <use xlink:href="#DejaVuSans-Bold-66" x="45.703125"/>
     <use xlink:href="#DejaVuSans-Bold-75" x="89.208984"/>
     <use xlink:href="#DejaVuSans-Bold-6e" x="160.400391"/>
     <use xlink:href="#DejaVuSans-Bold-64" x="231.591797"/>
     <use xlink:href="#DejaVuSans-Bold-65" x="303.173828"/>
     <use xlink:href="#DejaVuSans-Bold-64" x="370.996094"/>
     <use xlink:href="#DejaVuSans-Bold-20" x="442.578125"/>
     <use xlink:href="#DejaVuSans-Bold-2b" x="477.392578"/>
     <use xlink:href="#DejaVuSans-Bold-20" x="561.181641"/>
     <use xlink:href="#DejaVuSans-Bold-6d" x="595.996094"/>
     <use xlink:href="#DejaVuSans-Bold-61" x="700.195312"/>
     <use xlink:href="#DejaVuSans-Bold-74" x="767.675781"/>
     <use xlink:href="#DejaVuSans-Bold-75" x="815.478516"/>
     <use xlink:href="#DejaVuSans-Bold-72" x="886.669922"/>
     <use xlink:href="#DejaVuSans-Bold-65" x="935.986328"/>
     <use xlink:href="#DejaVuSans-Bold-29" x="1003.808594"/>
    </g>
   </g>
   <g id="text_24">
    <!-- EMERGING -->
    <g style="fill: #00a9e0; opacity: 0.6" transform="translate(166.714368 74.307628) scale(0.09 -0.09)">
     <defs>
      <path id="DejaVuSans-Bold-4e" d="M 588 4666 
L 1931 4666 
L 3628 1466 
L 3628 4666 
L 4769 4666 
L 4769 0 
L 3425 0 
L 1728 3200 
L 1728 0 
L 588 0 
L 588 4666 
z
" transform="scale(0.015625)"/>
     </defs>
     <use xlink:href="#DejaVuSans-Bold-45"/>
     <use xlink:href="#DejaVuSans-Bold-4d" x="68.310547"/>
     <use xlink:href="#DejaVuSans-Bold-45" x="167.822266"/>
     <use xlink:href="#DejaVuSans-Bold-52" x="236.132812"/>
     <use xlink:href="#DejaVuSans-Bold-47" x="313.134766"/>
     <use xlink:href="#DejaVuSans-Bold-49" x="395.214844"/>
     <use xlink:href="#DejaVuSans-Bold-4e" x="432.421875"/>
     <use xlink:href="#DejaVuSans-Bold-47" x="516.113281"/>
    </g>
    <!-- (funded + early) -->
    <g style="fill: #00a9e0; opacity: 0.6" transform="translate(151.972649 84.385659) scale(0.09 -0.09)">
     <use xlink:href="#DejaVuSans-Bold-28"/>
     <use xlink:href="#DejaVuSans-Bold-66" x="45.703125"/>
     <use xlink:href="#DejaVuSans-Bold-75" x="89.208984"/>
     <use xlink:href="#DejaVuSans-Bold-6e" x="160.400391"/>
     <use xlink:href="#DejaVuSans-Bold-64" x="231.591797"/>
     <use xlink:href="#DejaVuSans-Bold-65" x="303.173828"/>
     <use xlink:href="#DejaVuSans-Bold-64" x="370.996094"/>
     <use xlink:href="#DejaVuSans-Bold-20" x="442.578125"/>
     <use xlink:href="#DejaVuSans-Bold-2b" x="477.392578"/>
     <use xlink:href="#DejaVuSans-Bold-20" x="561.181641"/>
     <use xlink:href="#DejaVuSans-Bold-65" x="595.996094"/>
     <use xlink:href="#DejaVuSans-Bold-61" x="663.818359"/>
     <use xlink:href="#DejaVuSans-Bold-72" x="731.298828"/>
     <use xlink:href="#DejaVuSans-Bold-6c" x="780.615234"/>
     <use xlink:href="#DejaVuSans-Bold-79" x="814.892578"/>
     <use xlink:href="#DejaVuSans-Bold-29" x="880.078125"/>
    </g>
   </g>
   <g id="text_25">
    <!-- CHALLENGERS -->
    <g style="fill: #e8a317; opacity: 0.6" transform="translate(592.816534 358.954233) scale(0.09 -0.09)">
     <defs>
      <path id="DejaVuSans-Bold-48" d="M 588 4666 
L 1791 4666 
L 1791 2888 
L 3566 2888 
L 3566 4666 
L 4769 4666 
L 4769 0 
L 3566 0 
L 3566 1978 
L 1791 1978 
L 1791 0 
L 588 0 
L 588 4666 
z
" transform="scale(0.015625)"/>
     </defs>
     <use xlink:href="#DejaVuSans-Bold-43"/>
     <use xlink:href="#DejaVuSans-Bold-48" x="73.388672"/>
     <use xlink:href="#DejaVuSans-Bold-41" x="157.080078"/>
     <use xlink:href="#DejaVuSans-Bold-4c" x="234.472656"/>
     <use xlink:href="#DejaVuSans-Bold-4c" x="298.193359"/>
     <use xlink:href="#DejaVuSans-Bold-45" x="361.914062"/>
     <use xlink:href="#DejaVuSans-Bold-4e" x="430.224609"/>
     <use xlink:href="#DejaVuSans-Bold-47" x="513.916016"/>
     <use xlink:href="#DejaVuSans-Bold-45" x="595.996094"/>
     <use xlink:href="#DejaVuSans-Bold-52" x="664.306641"/>
     <use xlink:href="#DejaVuSans-Bold-53" x="741.308594"/>
    </g>
    <!-- (mature + bootstrapped) -->
    <g style="fill: #e8a317; opacity: 0.6" transform="translate(565.691378 369.032264) scale(0.09 -0.09)">
     <use xlink:href="#DejaVuSans-Bold-28"/>
     <use xlink:href="#DejaVuSans-Bold-6d" x="45.703125"/>
     <use xlink:href="#DejaVuSans-Bold-61" x="149.902344"/>
     <use xlink:href="#DejaVuSans-Bold-74" x="217.382812"/>
     <use xlink:href="#DejaVuSans-Bold-75" x="265.185547"/>
     <use xlink:href="#DejaVuSans-Bold-72" x="336.376953"/>
     <use xlink:href="#DejaVuSans-Bold-65" x="385.693359"/>
     <use xlink:href="#DejaVuSans-Bold-20" x="453.515625"/>
     <use xlink:href="#DejaVuSans-Bold-2b" x="488.330078"/>
     <use xlink:href="#DejaVuSans-Bold-20" x="572.119141"/>
     <use xlink:href="#DejaVuSans-Bold-62" x="606.933594"/>
     <use xlink:href="#DejaVuSans-Bold-6f" x="678.515625"/>
     <use xlink:href="#DejaVuSans-Bold-6f" x="747.216797"/>
     <use xlink:href="#DejaVuSans-Bold-74" x="815.917969"/>
     <use xlink:href="#DejaVuSans-Bold-73" x="863.720703"/>
     <use xlink:href="#DejaVuSans-Bold-74" x="923.242188"/>
     <use xlink:href="#DejaVuSans-Bold-72" x="971.044922"/>
     <use xlink:href="#DejaVuSans-Bold-61" x="1020.361328"/>
     <use xlink:href="#DejaVuSans-Bold-70" x="1087.841797"/>
     <use xlink:href="#DejaVuSans-Bold-70" x="1159.423828"/>
     <use xlink:href="#DejaVuSans-Bold-65" x="1231.005859"/>
     <use xlink:href="#DejaVuSans-Bold-64" x="1298.828125"/>
     <use xlink:href="#DejaVuSans-Bold-29" x="1370.410156"/>
    </g>
   </g>
   <g id="text_26">
    <!-- STARTERS -->
    <g style="fill: #7b8794; opacity: 0.6" transform="translate(168.076321 358.954233) scale(0.09 -0.09)">
     <use xlink:href="#DejaVuSans-Bold-53"/>
     <use xlink:href="#DejaVuSans-Bold-54" x="72.021484"/>
     <use xlink:href="#DejaVuSans-Bold-41" x="132.484375"/>
     <use xlink:href="#DejaVuSans-Bold-52" x="209.876953"/>
     <use xlink:href="#DejaVuSans-Bold-54" x="282.378906"/>
     <use xlink:href="#DejaVuSans-Bold-45" x="350.591797"/>
     <use xlink:href="#DejaVuSans-Bold-52" x="418.902344"/>
     <use xlink:href="#DejaVuSans-Bold-53" x="495.904297"/>
    </g>
    <!-- (early + bootstrapped) -->
    <g style="fill: #7b8794; opacity: 0.6" transform="translate(135.47593 369.032264) scale(0.09 -0.09)">
     <use xlink:href="#DejaVuSans-Bold-28"/>
     <use xlink:href="#DejaVuSans-Bold-65" x="45.703125"/>
     <use xlink:href="#DejaVuSans-Bold-61" x="113.525391"/>
     <use xlink:href="#DejaVuSans-Bold-72" x="181.005859"/>
     <use xlink:href="#DejaVuSans-Bold-6c" x="230.322266"/>
     <use xlink:href="#DejaVuSans-Bold-79" x="264.599609"/>
     <use xlink:href="#DejaVuSans-Bold-20" x="329.785156"/>
     <use xlink:href="#DejaVuSans-Bold-2b" x="364.599609"/>
     <use xlink:href="#DejaVuSans-Bold-20" x="448.388672"/>
     <use xlink:href="#DejaVuSans-Bold-62" x="483.203125"/>
     <use xlink:href="#DejaVuSans-Bold-6f" x="554.785156"/>
     <use xlink:href="#DejaVuSans-Bold-6f" x="623.486328"/>
     <use xlink:href="#DejaVuSans-Bold-74" x="692.1875"/>
     <use xlink:href="#DejaVuSans-Bold-73" x="739.990234"/>
     <use xlink:href="#DejaVuSans-Bold-74" x="799.511719"/>
     <use xlink:href="#DejaVuSans-Bold-72" x="847.314453"/>
     <use xlink:href="#DejaVuSans-Bold-61" x="896.630859"/>
     <use xlink:href="#DejaVuSans-Bold-70" x="964.111328"/>
     <use xlink:href="#DejaVuSans-Bold-70" x="1035.693359"/>
     <use xlink:href="#DejaVuSans-Bold-65" x="1107.275391"/>
     <use xlink:href="#DejaVuSans-Bold-64" x="1175.097656"/>
     <use xlink:href="#DejaVuSans-Bold-29" x="1246.679688"/>
    </g>
   </g>
   <g id="text_27">
    <!-- India Cargo Drone Player Map — Maturity vs Funding, 2025 -->
    <g style="fill: #0b1c2c" transform="translate(194.66592 20.677969) scale(0.13 -0.13)">
     <defs>
      <path id="DejaVuSans-Bold-50" d="M 588 4666 
L 2584 4666 
Q 3475 4666 3951 4270 
Q 4428 3875 4428 3144 
Q 4428 2409 3951 2014 
Q 3475 1619 2584 1619 
L 1791 1619 
L 1791 0 
L 588 0 
L 588 4666 
z
M 1791 3794 
L 1791 2491 
L 2456 2491 
Q 2806 2491 2997 2661 
Q 3188 2831 3188 3144 
Q 3188 3456 2997 3625 
Q 2806 3794 2456 3794 
L 1791 3794 
z
" transform="scale(0.015625)"/>
      <path id="DejaVuSans-Bold-2014" d="M 344 2156 
L 6056 2156 
L 6056 1350 
L 344 1350 
L 344 2156 
z
" transform="scale(0.015625)"/>
      <path id="DejaVuSans-Bold-32" d="M 1844 884 
L 3897 884 
L 3897 0 
L 506 0 
L 506 884 
L 2209 2388 
Q 2438 2594 2547 2791 
Q 2656 2988 2656 3200 
Q 2656 3528 2436 3728 
Q 2216 3928 1850 3928 
Q 1569 3928 1234 3808 
Q 900 3688 519 3450 
L 519 4475 
Q 925 4609 1322 4679 
Q 1719 4750 2100 4750 
Q 2938 4750 3402 4381 
Q 3866 4013 3866 3353 
Q 3866 2972 3669 2642 
Q 3472 2313 2841 1759 
L 1844 884 
z
" transform="scale(0.015625)"/>
      <path id="DejaVuSans-Bold-35" d="M 678 4666 
L 3669 4666 
L 3669 3781 
L 1638 3781 
L 1638 3059 
Q 1775 3097 1914 3117 
Q 2053 3138 2203 3138 
Q 3056 3138 3531 2711 
Q 4006 2284 4006 1522 
Q 4006 766 3489 337 
Q 2972 -91 2053 -91 
Q 1656 -91 1267 -14 
Q 878 63 494 219 
L 494 1166 
Q 875 947 1217 837 
Q 1559 728 1863 728 
Q 2300 728 2551 942 
Q 2803 1156 2803 1522 
Q 2803 1891 2551 2103 
Q 2300 2316 1863 2316 
Q 1603 2316 1309 2248 
Q 1016 2181 678 2041 
L 678 4666 
z
" transform="scale(0.015625)"/>
     </defs>
     <use xlink:href="#DejaVuSans-Bold-49"/>
     <use xlink:href="#DejaVuSans-Bold-6e" x="37.207031"/>
     <use xlink:href="#DejaVuSans-Bold-64" x="108.398438"/>
     <use xlink:href="#DejaVuSans-Bold-69" x="179.980469"/>
     <use xlink:href="#DejaVuSans-Bold-61" x="214.257812"/>
     <use xlink:href="#DejaVuSans-Bold-20" x="281.738281"/>
     <use xlink:href="#DejaVuSans-Bold-43" x="316.552734"/>
     <use xlink:href="#DejaVuSans-Bold-61" x="389.941406"/>
     <use xlink:href="#DejaVuSans-Bold-72" x="457.421875"/>
     <use xlink:href="#DejaVuSans-Bold-67" x="506.738281"/>
     <use xlink:href="#DejaVuSans-Bold-6f" x="578.320312"/>
     <use xlink:href="#DejaVuSans-Bold-20" x="647.021484"/>
     <use xlink:href="#DejaVuSans-Bold-44" x="681.835938"/>
     <use xlink:href="#DejaVuSans-Bold-72" x="764.84375"/>
     <use xlink:href="#DejaVuSans-Bold-6f" x="814.160156"/>
     <use xlink:href="#DejaVuSans-Bold-6e" x="882.861328"/>
     <use xlink:href="#DejaVuSans-Bold-65" x="954.052734"/>
     <use xlink:href="#DejaVuSans-Bold-20" x="1021.875"/>
     <use xlink:href="#DejaVuSans-Bold-50" x="1056.689453"/>
     <use xlink:href="#DejaVuSans-Bold-6c" x="1129.980469"/>
     <use xlink:href="#DejaVuSans-Bold-61" x="1164.257812"/>
     <use xlink:href="#DejaVuSans-Bold-79" x="1228.613281"/>
     <use xlink:href="#DejaVuSans-Bold-65" x="1293.798828"/>
     <use xlink:href="#DejaVuSans-Bold-72" x="1361.621094"/>
     <use xlink:href="#DejaVuSans-Bold-20" x="1410.9375"/>
     <use xlink:href="#DejaVuSans-Bold-4d" x="1445.751953"/>
     <use xlink:href="#DejaVuSans-Bold-61" x="1545.263672"/>
     <use xlink:href="#DejaVuSans-Bold-70" x="1612.744141"/>
     <use xlink:href="#DejaVuSans-Bold-20" x="1684.326172"/>
     <use xlink:href="#DejaVuSans-Bold-2014" x="1719.140625"/>
     <use xlink:href="#DejaVuSans-Bold-20" x="1819.140625"/>
     <use xlink:href="#DejaVuSans-Bold-4d" x="1853.955078"/>
     <use xlink:href="#DejaVuSans-Bold-61" x="1953.466797"/>
     <use xlink:href="#DejaVuSans-Bold-74" x="2020.947266"/>
     <use xlink:href="#DejaVuSans-Bold-75" x="2068.75"/>
     <use xlink:href="#DejaVuSans-Bold-72" x="2139.941406"/>
     <use xlink:href="#DejaVuSans-Bold-69" x="2189.257812"/>
     <use xlink:href="#DejaVuSans-Bold-74" x="2223.535156"/>
     <use xlink:href="#DejaVuSans-Bold-79" x="2271.337891"/>
     <use xlink:href="#DejaVuSans-Bold-20" x="2336.523438"/>
     <use xlink:href="#DejaVuSans-Bold-76" x="2371.337891"/>
     <use xlink:href="#DejaVuSans-Bold-73" x="2436.523438"/>
     <use xlink:href="#DejaVuSans-Bold-20" x="2496.044922"/>
     <use xlink:href="#DejaVuSans-Bold-46" x="2530.859375"/>
     <use xlink:href="#DejaVuSans-Bold-75" x="2594.169922"/>
     <use xlink:href="#DejaVuSans-Bold-6e" x="2665.361328"/>
     <use xlink:href="#DejaVuSans-Bold-64" x="2736.552734"/>
     <use xlink:href="#DejaVuSans-Bold-69" x="2808.134766"/>
     <use xlink:href="#DejaVuSans-Bold-6e" x="2842.412109"/>
     <use xlink:href="#DejaVuSans-Bold-67" x="2913.603516"/>
     <use xlink:href="#DejaVuSans-Bold-2c" x="2985.185547"/>
     <use xlink:href="#DejaVuSans-Bold-20" x="3023.173828"/>
     <use xlink:href="#DejaVuSans-Bold-32" x="3057.988281"/>
     <use xlink:href="#DejaVuSans-Bold-30" x="3127.568359"/>
     <use xlink:href="#DejaVuSans-Bold-32" x="3197.148438"/>
     <use xlink:href="#DejaVuSans-Bold-35" x="3266.728516"/>
    </g>
   </g>
  </g>
 </g>
 <defs>
  <clipPath id="p5a0080dee8">
   <rect x="48.371875" y="35.677969" width="726.304652" height="390.16"/>
  </clipPath>
 </defs>
</svg>
