<?xml version="1.0" encoding="utf-8" standalone="no"?>
<!DOCTYPE svg PUBLIC "-//W3C//DTD SVG 1.1//EN"
  "http://www.w3.org/Graphics/SVG/1.1/DTD/svg11.dtd">
<svg xmlns:xlink="http://www.w3.org/1999/xlink" width="791.800937pt" height="466.614297pt" viewBox="0 0 791.800937 466.614297" xmlns="http://www.w3.org/2000/svg" version="1.1">
 <title>17 Opportunity Matrix</title>
 <metadata>
  <rdf:RDF xmlns:dc="http://purl.org/dc/elements/1.1/" xmlns:cc="http://creativecommons.org/ns#" xmlns:rdf="http://www.w3.org/1999/02/22-rdf-syntax-ns#">
   <cc:Work>
    <dc:type rdf:resource="http://purl.org/dc/dcmitype/StillImage"/>
    <dc:title>17 Opportunity Matrix</dc:title>
    <dc:date>2026-07-09T01:46:48.102548</dc:date>
    <dc:format>image/svg+xml</dc:format>
    <dc:creator>
     <cc:Agent>
      <dc:title>Techadyant Industry Intelligence</dc:title>
     </cc:Agent>
    </dc:creator>
   </cc:Work>
  </rdf:RDF>
 </metadata>
 <defs>
  <style type="text/css">*{stroke-linejoin: round; stroke-linecap: butt}</style>
 </defs>
 <g id="figure_1">
  <g id="patch_1">
   <path d="M -0 466.614297 
L 791.800937 466.614297 
L 791.800937 0 
L -0 0 
z
" style="fill: #ffffff"/>
  </g>
  <g id="axes_1">
   <g id="patch_2">
    <path d="M 55.350938 425.458047 
L 781.000937 425.458047 
L 781.000937 35.298047 
L 55.350938 35.298047 
z
" style="fill: #ffffff"/>
   </g>
   <g id="matplotlib.axis_1">
    <g id="xtick_1">
     <g id="line2d_1">
      <defs>
       <path id="m69c2d467d2" d="M 0 0 
L 0 3.5 
" style="stroke: #3d4a5c; stroke-width: 0.8"/>
      </defs>
      <g>
       <use xlink:href="#m69c2d467d2" x="73.492188" y="425.458047" style="fill: #3d4a5c; stroke: #3d4a5c; stroke-width: 0.8"/>
      </g>
     </g>
     <g id="text_1">
      <!-- 2.5 -->
      <g style="fill: #3d4a5c" transform="translate(66.335781 439.296641) scale(0.09 -0.09)">
       <defs>
        <path id="DejaVuSans-32" d="M 1228 531 
L 3431 531 
L 3431 0 
L 469 0 
L 469 531 
Q 828 903 1448 1529 
Q 2069 2156 2228 2338 
Q 2531 2678 2651 2914 
Q 2772 3150 2772 3378 
Q 2772 3750 2511 3984 
Q 2250 4219 1831 4219 
Q 1534 4219 1204 4116 
Q 875 4013 500 3803 
L 500 4441 
Q 881 4594 1212 4672 
Q 1544 4750 1819 4750 
Q 2544 4750 2975 4387 
Q 3406 4025 3406 3419 
Q 3406 3131 3298 2873 
Q 3191 2616 2906 2266 
Q 2828 2175 2409 1742 
Q 1991 1309 1228 531 
z
" transform="scale(0.015625)"/>
        <path id="DejaVuSans-2e" d="M 684 794 
L 1344 794 
L 1344 0 
L 684 0 
L 684 794 
z
" transform="scale(0.015625)"/>
        <path id="DejaVuSans-35" d="M 691 4666 
L 3169 4666 
L 3169 4134 
L 1269 4134 
L 1269 2991 
Q 1406 3038 1543 3061 
Q 1681 3084 1819 3084 
Q 2600 3084 3056 2656 
Q 3513 2228 3513 1497 
Q 3513 744 3044 326 
Q 2575 -91 1722 -91 
Q 1428 -91 1123 -41 
Q 819 9 494 109 
L 494 744 
Q 775 591 1075 516 
Q 1375 441 1709 441 
Q 2250 441 2565 725 
Q 2881 1009 2881 1497 
Q 2881 1984 2565 2268 
Q 2250 2553 1709 2553 
Q 1456 2553 1204 2497 
Q 953 2441 691 2322 
L 691 4666 
z
" transform="scale(0.015625)"/>
       </defs>
       <use xlink:href="#DejaVuSans-32"/>
       <use xlink:href="#DejaVuSans-2e" x="63.623047"/>
       <use xlink:href="#DejaVuSans-35" x="95.410156"/>
      </g>
     </g>
    </g>
    <g id="xtick_2">
     <g id="line2d_2">
      <g>
       <use xlink:href="#m69c2d467d2" x="164.198438" y="425.458047" style="fill: #3d4a5c; stroke: #3d4a5c; stroke-width: 0.8"/>
      </g>
     </g>
     <g id="text_2">
      <!-- 5.0 -->
      <g style="fill: #3d4a5c" transform="translate(157.042031 439.296641) scale(0.09 -0.09)">
       <defs>
        <path id="DejaVuSans-30" d="M 2034 4250 
Q 1547 4250 1301 3770 
Q 1056 3291 1056 2328 
Q 1056 1369 1301 889 
Q 1547 409 2034 409 
Q 2525 409 2770 889 
Q 3016 1369 3016 2328 
Q 3016 3291 2770 3770 
Q 2525 4250 2034 4250 
z
M 2034 4750 
Q 2819 4750 3233 4129 
Q 3647 3509 3647 2328 
Q 3647 1150 3233 529 
Q 2819 -91 2034 -91 
Q 1250 -91 836 529 
Q 422 1150 422 2328 
Q 422 3509 836 4129 
Q 1250 4750 2034 4750 
z
" transform="scale(0.015625)"/>
       </defs>
       <use xlink:href="#DejaVuSans-35"/>
       <use xlink:href="#DejaVuSans-2e" x="63.623047"/>
       <use xlink:href="#DejaVuSans-30" x="95.410156"/>
      </g>
     </g>
    </g>
    <g id="xtick_3">
     <g id="line2d_3">
      <g>
       <use xlink:href="#m69c2d467d2" x="254.904687" y="425.458047" style="fill: #3d4a5c; stroke: #3d4a5c; stroke-width: 0.8"/>
      </g>
     </g>
     <g id="text_3">
      <!-- 7.5 -->
      <g style="fill: #3d4a5c" transform="translate(247.748281 439.296641) scale(0.09 -0.09)">
       <defs>
        <path id="DejaVuSans-37" d="M 525 4666 
L 3525 4666 
L 3525 4397 
L 1831 0 
L 1172 0 
L 2766 4134 
L 525 4134 
L 525 4666 
z
" transform="scale(0.015625)"/>
       </defs>
       <use xlink:href="#DejaVuSans-37"/>
       <use xlink:href="#DejaVuSans-2e" x="63.623047"/>
       <use xlink:href="#DejaVuSans-35" x="95.410156"/>
      </g>
     </g>
    </g>
    <g id="xtick_4">
     <g id="line2d_4">
      <g>
       <use xlink:href="#m69c2d467d2" x="345.610937" y="425.458047" style="fill: #3d4a5c; stroke: #3d4a5c; stroke-width: 0.8"/>
      </g>
     </g>
     <g id="text_4">
      <!-- 10.0 -->
      <g style="fill: #3d4a5c" transform="translate(335.591406 439.296641) scale(0.09 -0.09)">
       <defs>
        <path id="DejaVuSans-31" d="M 794 531 
L 1825 531 
L 1825 4091 
L 703 3866 
L 703 4441 
L 1819 4666 
L 2450 4666 
L 2450 531 
L 3481 531 
L 3481 0 
L 794 0 
L 794 531 
z
" transform="scale(0.015625)"/>
       </defs>
       <use xlink:href="#DejaVuSans-31"/>
       <use xlink:href="#DejaVuSans-30" x="63.623047"/>
       <use xlink:href="#DejaVuSans-2e" x="127.246094"/>
       <use xlink:href="#DejaVuSans-30" x="159.033203"/>
      </g>
     </g>
    </g>
    <g id="xtick_5">
     <g id="line2d_5">
      <g>
       <use xlink:href="#m69c2d467d2" x="436.317187" y="425.458047" style="fill: #3d4a5c; stroke: #3d4a5c; stroke-width: 0.8"/>
      </g>
     </g>
     <g id="text_5">
      <!-- 12.5 -->
      <g style="fill: #3d4a5c" transform="translate(426.297656 439.296641) scale(0.09 -0.09)">
       <use xlink:href="#DejaVuSans-31"/>
       <use xlink:href="#DejaVuSans-32" x="63.623047"/>
       <use xlink:href="#DejaVuSans-2e" x="127.246094"/>
       <use xlink:href="#DejaVuSans-35" x="159.033203"/>
      </g>
     </g>
    </g>
    <g id="xtick_6">
     <g id="line2d_6">
      <g>
       <use xlink:href="#m69c2d467d2" x="527.023438" y="425.458047" style="fill: #3d4a5c; stroke: #3d4a5c; stroke-width: 0.8"/>
      </g>
     </g>
     <g id="text_6">
      <!-- 15.0 -->
      <g style="fill: #3d4a5c" transform="translate(517.003906 439.296641) scale(0.09 -0.09)">
       <use xlink:href="#DejaVuSans-31"/>
       <use xlink:href="#DejaVuSans-35" x="63.623047"/>
       <use xlink:href="#DejaVuSans-2e" x="127.246094"/>
       <use xlink:href="#DejaVuSans-30" x="159.033203"/>
      </g>
     </g>
    </g>
    <g id="xtick_7">
     <g id="line2d_7">
      <g>
       <use xlink:href="#m69c2d467d2" x="617.729688" y="425.458047" style="fill: #3d4a5c; stroke: #3d4a5c; stroke-width: 0.8"/>
      </g>
     </g>
     <g id="text_7">
      <!-- 17.5 -->
      <g style="fill: #3d4a5c" transform="translate(607.710156 439.296641) scale(0.09 -0.09)">
       <use xlink:href="#DejaVuSans-31"/>
       <use xlink:href="#DejaVuSans-37" x="63.623047"/>
       <use xlink:href="#DejaVuSans-2e" x="127.246094"/>
       <use xlink:href="#DejaVuSans-35" x="159.033203"/>
      </g>
     </g>
    </g>
    <g id="xtick_8">
     <g id="line2d_8">
      <g>
       <use xlink:href="#m69c2d467d2" x="708.435938" y="425.458047" style="fill: #3d4a5c; stroke: #3d4a5c; stroke-width: 0.8"/>
      </g>
     </g>
     <g id="text_8">
      <!-- 20.0 -->
      <g style="fill: #3d4a5c" transform="translate(698.416406 439.296641) scale(0.09 -0.09)">
       <use xlink:href="#DejaVuSans-32"/>
       <use xlink:href="#DejaVuSans-30" x="63.623047"/>
       <use xlink:href="#DejaVuSans-2e" x="127.246094"/>
       <use xlink:href="#DejaVuSans-30" x="159.033203"/>
      </g>
     </g>
    </g>
    <g id="text_9">
     <!-- Time-to-revenue (months) -->
     <g style="fill: #3d4a5c" transform="translate(336.599766 453.526641) scale(0.11 -0.11)">
      <defs>
       <path id="DejaVuSans-Bold-54" d="M 31 4666 
L 4331 4666 
L 4331 3756 
L 2784 3756 
L 2784 0 
L 1581 0 
L 1581 3756 
L 31 3756 
L 31 4666 
z
" transform="scale(0.015625)"/>
       <path id="DejaVuSans-Bold-69" d="M 538 3500 
L 1656 3500 
L 1656 0 
L 538 0 
L 538 3500 
z
M 538 4863 
L 1656 4863 
L 1656 3950 
L 538 3950 
L 538 4863 
z
" transform="scale(0.015625)"/>
       <path id="DejaVuSans-Bold-6d" d="M 3781 2919 
Q 3994 3244 4286 3414 
Q 4578 3584 4928 3584 
Q 5531 3584 5847 3212 
Q 6163 2841 6163 2131 
L 6163 0 
L 5038 0 
L 5038 1825 
Q 5041 1866 5042 1909 
Q 5044 1953 5044 2034 
Q 5044 2406 4934 2573 
Q 4825 2741 4581 2741 
Q 4263 2741 4089 2478 
Q 3916 2216 3909 1719 
L 3909 0 
L 2784 0 
L 2784 1825 
Q 2784 2406 2684 2573 
Q 2584 2741 2328 2741 
Q 2006 2741 1831 2477 
Q 1656 2213 1656 1722 
L 1656 0 
L 531 0 
L 531 3500 
L 1656 3500 
L 1656 2988 
Q 1863 3284 2130 3434 
Q 2397 3584 2719 3584 
Q 3081 3584 3359 3409 
Q 3638 3234 3781 2919 
z
" transform="scale(0.015625)"/>
       <path id="DejaVuSans-Bold-65" d="M 4031 1759 
L 4031 1441 
L 1416 1441 
Q 1456 1047 1700 850 
Q 1944 653 2381 653 
Q 2734 653 3104 758 
Q 3475 863 3866 1075 
L 3866 213 
Q 3469 63 3072 -14 
Q 2675 -91 2278 -91 
Q 1328 -91 801 392 
Q 275 875 275 1747 
Q 275 2603 792 3093 
Q 1309 3584 2216 3584 
Q 3041 3584 3536 3087 
Q 4031 2591 4031 1759 
z
M 2881 2131 
Q 2881 2450 2695 2645 
Q 2509 2841 2209 2841 
Q 1884 2841 1681 2658 
Q 1478 2475 1428 2131 
L 2881 2131 
z
" transform="scale(0.015625)"/>
       <path id="DejaVuSans-Bold-2d" d="M 347 2297 
L 2309 2297 
L 2309 1388 
L 347 1388 
L 347 2297 
z
" transform="scale(0.015625)"/>
       <path id="DejaVuSans-Bold-74" d="M 1759 4494 
L 1759 3500 
L 2913 3500 
L 2913 2700 
L 1759 2700 
L 1759 1216 
Q 1759 972 1856 886 
Q 1953 800 2241 800 
L 2816 800 
L 2816 0 
L 1856 0 
Q 1194 0 917 276 
Q 641 553 641 1216 
L 641 2700 
L 84 2700 
L 84 3500 
L 641 3500 
L 641 4494 
L 1759 4494 
z
" transform="scale(0.015625)"/>
       <path id="DejaVuSans-Bold-6f" d="M 2203 2784 
Q 1831 2784 1636 2517 
Q 1441 2250 1441 1747 
Q 1441 1244 1636 976 
Q 1831 709 2203 709 
Q 2569 709 2762 976 
Q 2956 1244 2956 1747 
Q 2956 2250 2762 2517 
Q 2569 2784 2203 2784 
z
M 2203 3584 
Q 3106 3584 3614 3096 
Q 4122 2609 4122 1747 
Q 4122 884 3614 396 
Q 3106 -91 2203 -91 
Q 1297 -91 786 396 
Q 275 884 275 1747 
Q 275 2609 786 3096 
Q 1297 3584 2203 3584 
z
" transform="scale(0.015625)"/>
       <path id="DejaVuSans-Bold-72" d="M 3138 2547 
Q 2991 2616 2845 2648 
Q 2700 2681 2553 2681 
Q 2122 2681 1889 2404 
Q 1656 2128 1656 1613 
L 1656 0 
L 538 0 
L 538 3500 
L 1656 3500 
L 1656 2925 
Q 1872 3269 2151 3426 
Q 2431 3584 2822 3584 
Q 2878 3584 2943 3579 
Q 3009 3575 3134 3559 
L 3138 2547 
z
" transform="scale(0.015625)"/>
       <path id="DejaVuSans-Bold-76" d="M 97 3500 
L 1216 3500 
L 2088 1081 
L 2956 3500 
L 4078 3500 
L 2700 0 
L 1472 0 
L 97 3500 
z
" transform="scale(0.015625)"/>
       <path id="DejaVuSans-Bold-6e" d="M 4056 2131 
L 4056 0 
L 2931 0 
L 2931 347 
L 2931 1631 
Q 2931 2084 2911 2256 
Q 2891 2428 2841 2509 
Q 2775 2619 2662 2680 
Q 2550 2741 2406 2741 
Q 2056 2741 1856 2470 
Q 1656 2200 1656 1722 
L 1656 0 
L 538 0 
L 538 3500 
L 1656 3500 
L 1656 2988 
Q 1909 3294 2193 3439 
Q 2478 3584 2822 3584 
Q 3428 3584 3742 3212 
Q 4056 2841 4056 2131 
z
" transform="scale(0.015625)"/>
       <path id="DejaVuSans-Bold-75" d="M 500 1363 
L 500 3500 
L 1625 3500 
L 1625 3150 
Q 1625 2866 1622 2436 
Q 1619 2006 1619 1863 
Q 1619 1441 1641 1255 
Q 1663 1069 1716 984 
Q 1784 875 1895 815 
Q 2006 756 2150 756 
Q 2500 756 2700 1025 
Q 2900 1294 2900 1772 
L 2900 3500 
L 4019 3500 
L 4019 0 
L 2900 0 
L 2900 506 
Q 2647 200 2364 54 
Q 2081 -91 1741 -91 
Q 1134 -91 817 281 
Q 500 653 500 1363 
z
" transform="scale(0.015625)"/>
       <path id="DejaVuSans-Bold-20" transform="scale(0.015625)"/>
       <path id="DejaVuSans-Bold-28" d="M 2413 -844 
L 1484 -844 
Q 1006 -72 778 623 
Q 550 1319 550 2003 
Q 550 2688 779 3389 
Q 1009 4091 1484 4856 
L 2413 4856 
Q 2013 4116 1813 3408 
Q 1613 2700 1613 2009 
Q 1613 1319 1811 609 
Q 2009 -100 2413 -844 
z
" transform="scale(0.015625)"/>
       <path id="DejaVuSans-Bold-68" d="M 4056 2131 
L 4056 0 
L 2931 0 
L 2931 347 
L 2931 1625 
Q 2931 2084 2911 2256 
Q 2891 2428 2841 2509 
Q 2775 2619 2662 2680 
Q 2550 2741 2406 2741 
Q 2056 2741 1856 2470 
Q 1656 2200 1656 1722 
L 1656 0 
L 538 0 
L 538 4863 
L 1656 4863 
L 1656 2988 
Q 1909 3294 2193 3439 
Q 2478 3584 2822 3584 
Q 3428 3584 3742 3212 
Q 4056 2841 4056 2131 
z
" transform="scale(0.015625)"/>
       <path id="DejaVuSans-Bold-73" d="M 3272 3391 
L 3272 2541 
Q 2913 2691 2578 2766 
Q 2244 2841 1947 2841 
Q 1628 2841 1473 2761 
Q 1319 2681 1319 2516 
Q 1319 2381 1436 2309 
Q 1553 2238 1856 2203 
L 2053 2175 
Q 2913 2066 3209 1816 
Q 3506 1566 3506 1031 
Q 3506 472 3093 190 
Q 2681 -91 1863 -91 
Q 1516 -91 1145 -36 
Q 775 19 384 128 
L 384 978 
Q 719 816 1070 734 
Q 1422 653 1784 653 
Q 2113 653 2278 743 
Q 2444 834 2444 1013 
Q 2444 1163 2330 1236 
Q 2216 1309 1875 1350 
L 1678 1375 
Q 931 1469 631 1722 
Q 331 1975 331 2491 
Q 331 3047 712 3315 
Q 1094 3584 1881 3584 
Q 2191 3584 2531 3537 
Q 2872 3491 3272 3391 
z
" transform="scale(0.015625)"/>
       <path id="DejaVuSans-Bold-29" d="M 513 -844 
Q 913 -100 1113 609 
Q 1313 1319 1313 2009 
Q 1313 2700 1113 3408 
Q 913 4116 513 4856 
L 1441 4856 
Q 1916 4091 2145 3389 
Q 2375 2688 2375 2003 
Q 2375 1319 2147 623 
Q 1919 -72 1441 -844 
L 513 -844 
z
" transform="scale(0.015625)"/>
      </defs>
      <use xlink:href="#DejaVuSans-Bold-54"/>
      <use xlink:href="#DejaVuSans-Bold-69" x="68.212891"/>
      <use xlink:href="#DejaVuSans-Bold-6d" x="102.490234"/>
      <use xlink:href="#DejaVuSans-Bold-65" x="206.689453"/>
      <use xlink:href="#DejaVuSans-Bold-2d" x="274.511719"/>
      <use xlink:href="#DejaVuSans-Bold-74" x="316.015625"/>
      <use xlink:href="#DejaVuSans-Bold-6f" x="363.818359"/>
      <use xlink:href="#DejaVuSans-Bold-2d" x="432.519531"/>
      <use xlink:href="#DejaVuSans-Bold-72" x="474.023438"/>
      <use xlink:href="#DejaVuSans-Bold-65" x="523.339844"/>
      <use xlink:href="#DejaVuSans-Bold-76" x="591.162109"/>
      <use xlink:href="#DejaVuSans-Bold-65" x="656.347656"/>
      <use xlink:href="#DejaVuSans-Bold-6e" x="724.169922"/>
      <use xlink:href="#DejaVuSans-Bold-75" x="795.361328"/>
      <use xlink:href="#DejaVuSans-Bold-65" x="866.552734"/>
      <use xlink:href="#DejaVuSans-Bold-20" x="934.375"/>
      <use xlink:href="#DejaVuSans-Bold-28" x="969.189453"/>
      <use xlink:href="#DejaVuSans-Bold-6d" x="1014.892578"/>
      <use xlink:href="#DejaVuSans-Bold-6f" x="1119.091797"/>
      <use xlink:href="#DejaVuSans-Bold-6e" x="1187.792969"/>
      <use xlink:href="#DejaVuSans-Bold-74" x="1258.984375"/>
      <use xlink:href="#DejaVuSans-Bold-68" x="1306.787109"/>
      <use xlink:href="#DejaVuSans-Bold-73" x="1377.978516"/>
      <use xlink:href="#DejaVuSans-Bold-29" x="1437.5"/>
     </g>
    </g>
   </g>
   <g id="matplotlib.axis_2">
    <g id="ytick_1">
     <g id="line2d_9">
      <path d="M 55.350938 395.445739 
L 781.000937 395.445739 
" clip-path="url(#p4da6f0ec00)" style="fill: none; stroke: #c8d0da; stroke-opacity: 0.25; stroke-width: 0.6; stroke-linecap: square"/>
     </g>
     <g id="line2d_10">
      <defs>
       <path id="meabcb985ba" d="M 0 0 
L -3.5 0 
" style="stroke: #3d4a5c; stroke-width: 0.8"/>
      </defs>
      <g>
       <use xlink:href="#meabcb985ba" x="55.350938" y="395.445739" style="fill: #3d4a5c; stroke: #3d4a5c; stroke-width: 0.8"/>
      </g>
     </g>
     <g id="text_10">
      <!-- 200 -->
      <g style="fill: #3d4a5c" transform="translate(31.172187 398.865036) scale(0.09 -0.09)">
       <use xlink:href="#DejaVuSans-32"/>
       <use xlink:href="#DejaVuSans-30" x="63.623047"/>
       <use xlink:href="#DejaVuSans-30" x="127.246094"/>
      </g>
     </g>
    </g>
    <g id="ytick_2">
     <g id="line2d_11">
      <path d="M 55.350938 335.421124 
L 781.000937 335.421124 
" clip-path="url(#p4da6f0ec00)" style="fill: none; stroke: #c8d0da; stroke-opacity: 0.25; stroke-width: 0.6; stroke-linecap: square"/>
     </g>
     <g id="line2d_12">
      <g>
       <use xlink:href="#meabcb985ba" x="55.350938" y="335.421124" style="fill: #3d4a5c; stroke: #3d4a5c; stroke-width: 0.8"/>
      </g>
     </g>
     <g id="text_11">
      <!-- 400 -->
      <g style="fill: #3d4a5c" transform="translate(31.172187 338.840421) scale(0.09 -0.09)">
       <defs>
        <path id="DejaVuSans-34" d="M 2419 4116 
L 825 1625 
L 2419 1625 
L 2419 4116 
z
M 2253 4666 
L 3047 4666 
L 3047 1625 
L 3713 1625 
L 3713 1100 
L 3047 1100 
L 3047 0 
L 2419 0 
L 2419 1100 
L 313 1100 
L 313 1709 
L 2253 4666 
z
" transform="scale(0.015625)"/>
       </defs>
       <use xlink:href="#DejaVuSans-34"/>
       <use xlink:href="#DejaVuSans-30" x="63.623047"/>
       <use xlink:href="#DejaVuSans-30" x="127.246094"/>
      </g>
     </g>
    </g>
    <g id="ytick_3">
     <g id="line2d_13">
      <path d="M 55.350938 275.396508 
L 781.000937 275.396508 
" clip-path="url(#p4da6f0ec00)" style="fill: none; stroke: #c8d0da; stroke-opacity: 0.25; stroke-width: 0.6; stroke-linecap: square"/>
     </g>
     <g id="line2d_14">
      <g>
       <use xlink:href="#meabcb985ba" x="55.350938" y="275.396508" style="fill: #3d4a5c; stroke: #3d4a5c; stroke-width: 0.8"/>
      </g>
     </g>
     <g id="text_12">
      <!-- 600 -->
      <g style="fill: #3d4a5c" transform="translate(31.172187 278.815805) scale(0.09 -0.09)">
       <defs>
        <path id="DejaVuSans-36" d="M 2113 2584 
Q 1688 2584 1439 2293 
Q 1191 2003 1191 1497 
Q 1191 994 1439 701 
Q 1688 409 2113 409 
Q 2538 409 2786 701 
Q 3034 994 3034 1497 
Q 3034 2003 2786 2293 
Q 2538 2584 2113 2584 
z
M 3366 4563 
L 3366 3988 
Q 3128 4100 2886 4159 
Q 2644 4219 2406 4219 
Q 1781 4219 1451 3797 
Q 1122 3375 1075 2522 
Q 1259 2794 1537 2939 
Q 1816 3084 2150 3084 
Q 2853 3084 3261 2657 
Q 3669 2231 3669 1497 
Q 3669 778 3244 343 
Q 2819 -91 2113 -91 
Q 1303 -91 875 529 
Q 447 1150 447 2328 
Q 447 3434 972 4092 
Q 1497 4750 2381 4750 
Q 2619 4750 2861 4703 
Q 3103 4656 3366 4563 
z
" transform="scale(0.015625)"/>
       </defs>
       <use xlink:href="#DejaVuSans-36"/>
       <use xlink:href="#DejaVuSans-30" x="63.623047"/>
       <use xlink:href="#DejaVuSans-30" x="127.246094"/>
      </g>
     </g>
    </g>
    <g id="ytick_4">
     <g id="line2d_15">
      <path d="M 55.350938 215.371893 
L 781.000937 215.371893 
" clip-path="url(#p4da6f0ec00)" style="fill: none; stroke: #c8d0da; stroke-opacity: 0.25; stroke-width: 0.6; stroke-linecap: square"/>
     </g>
     <g id="line2d_16">
      <g>
       <use xlink:href="#meabcb985ba" x="55.350938" y="215.371893" style="fill: #3d4a5c; stroke: #3d4a5c; stroke-width: 0.8"/>
      </g>
     </g>
     <g id="text_13">
      <!-- 800 -->
      <g style="fill: #3d4a5c" transform="translate(31.172187 218.79119) scale(0.09 -0.09)">
       <defs>
        <path id="DejaVuSans-38" d="M 2034 2216 
Q 1584 2216 1326 1975 
Q 1069 1734 1069 1313 
Q 1069 891 1326 650 
Q 1584 409 2034 409 
Q 2484 409 2743 651 
Q 3003 894 3003 1313 
Q 3003 1734 2745 1975 
Q 2488 2216 2034 2216 
z
M 1403 2484 
Q 997 2584 770 2862 
Q 544 3141 544 3541 
Q 544 4100 942 4425 
Q 1341 4750 2034 4750 
Q 2731 4750 3128 4425 
Q 3525 4100 3525 3541 
Q 3525 3141 3298 2862 
Q 3072 2584 2669 2484 
Q 3125 2378 3379 2068 
Q 3634 1759 3634 1313 
Q 3634 634 3220 271 
Q 2806 -91 2034 -91 
Q 1263 -91 848 271 
Q 434 634 434 1313 
Q 434 1759 690 2068 
Q 947 2378 1403 2484 
z
M 1172 3481 
Q 1172 3119 1398 2916 
Q 1625 2713 2034 2713 
Q 2441 2713 2670 2916 
Q 2900 3119 2900 3481 
Q 2900 3844 2670 4047 
Q 2441 4250 2034 4250 
Q 1625 4250 1398 4047 
Q 1172 3844 1172 3481 
z
" transform="scale(0.015625)"/>
       </defs>
       <use xlink:href="#DejaVuSans-38"/>
       <use xlink:href="#DejaVuSans-30" x="63.623047"/>
       <use xlink:href="#DejaVuSans-30" x="127.246094"/>
      </g>
     </g>
    </g>
    <g id="ytick_5">
     <g id="line2d_17">
      <path d="M 55.350938 155.347278 
L 781.000937 155.347278 
" clip-path="url(#p4da6f0ec00)" style="fill: none; stroke: #c8d0da; stroke-opacity: 0.25; stroke-width: 0.6; stroke-linecap: square"/>
     </g>
     <g id="line2d_18">
      <g>
       <use xlink:href="#meabcb985ba" x="55.350938" y="155.347278" style="fill: #3d4a5c; stroke: #3d4a5c; stroke-width: 0.8"/>
      </g>
     </g>
     <g id="text_14">
      <!-- 1000 -->
      <g style="fill: #3d4a5c" transform="translate(25.445938 158.766575) scale(0.09 -0.09)">
       <use xlink:href="#DejaVuSans-31"/>
       <use xlink:href="#DejaVuSans-30" x="63.623047"/>
       <use xlink:href="#DejaVuSans-30" x="127.246094"/>
       <use xlink:href="#DejaVuSans-30" x="190.869141"/>
      </g>
     </g>
    </g>
    <g id="ytick_6">
     <g id="line2d_19">
      <path d="M 55.350938 95.322662 
L 781.000937 95.322662 
" clip-path="url(#p4da6f0ec00)" style="fill: none; stroke: #c8d0da; stroke-opacity: 0.25; stroke-width: 0.6; stroke-linecap: square"/>
     </g>
     <g id="line2d_20">
      <g>
       <use xlink:href="#meabcb985ba" x="55.350938" y="95.322662" style="fill: #3d4a5c; stroke: #3d4a5c; stroke-width: 0.8"/>
      </g>
     </g>
     <g id="text_15">
      <!-- 1200 -->
      <g style="fill: #3d4a5c" transform="translate(25.445938 98.741959) scale(0.09 -0.09)">
       <use xlink:href="#DejaVuSans-31"/>
       <use xlink:href="#DejaVuSans-32" x="63.623047"/>
       <use xlink:href="#DejaVuSans-30" x="127.246094"/>
       <use xlink:href="#DejaVuSans-30" x="190.869141"/>
      </g>
     </g>
    </g>
    <g id="ytick_7">
     <g id="line2d_21">
      <path d="M 55.350938 35.298047 
L 781.000937 35.298047 
" clip-path="url(#p4da6f0ec00)" style="fill: none; stroke: #c8d0da; stroke-opacity: 0.25; stroke-width: 0.6; stroke-linecap: square"/>
     </g>
     <g id="line2d_22">
      <g>
       <use xlink:href="#meabcb985ba" x="55.350938" y="35.298047" style="fill: #3d4a5c; stroke: #3d4a5c; stroke-width: 0.8"/>
      </g>
     </g>
     <g id="text_16">
      <!-- 1400 -->
      <g style="fill: #3d4a5c" transform="translate(25.445938 38.717344) scale(0.09 -0.09)">
       <use xlink:href="#DejaVuSans-31"/>
       <use xlink:href="#DejaVuSans-34" x="63.623047"/>
       <use xlink:href="#DejaVuSans-30" x="127.246094"/>
       <use xlink:href="#DejaVuSans-30" x="190.869141"/>
      </g>
     </g>
    </g>
    <g id="text_17">
     <!-- TAM in 2030 (INR Crore) -->
     <g style="fill: #3d4a5c" transform="translate(19.158281 305.081797) rotate(-90) scale(0.11 -0.11)">
      <defs>
       <path id="DejaVuSans-Bold-41" d="M 3419 850 
L 1538 850 
L 1241 0 
L 31 0 
L 1759 4666 
L 3194 4666 
L 4922 0 
L 3713 0 
L 3419 850 
z
M 1838 1716 
L 3116 1716 
L 2478 3572 
L 1838 1716 
z
" transform="scale(0.015625)"/>
       <path id="DejaVuSans-Bold-4d" d="M 588 4666 
L 2119 4666 
L 3181 2169 
L 4250 4666 
L 5778 4666 
L 5778 0 
L 4641 0 
L 4641 3413 
L 3566 897 
L 2803 897 
L 1728 3413 
L 1728 0 
L 588 0 
L 588 4666 
z
" transform="scale(0.015625)"/>
       <path id="DejaVuSans-Bold-32" d="M 1844 884 
L 3897 884 
L 3897 0 
L 506 0 
L 506 884 
L 2209 2388 
Q 2438 2594 2547 2791 
Q 2656 2988 2656 3200 
Q 2656 3528 2436 3728 
Q 2216 3928 1850 3928 
Q 1569 3928 1234 3808 
Q 900 3688 519 3450 
L 519 4475 
Q 925 4609 1322 4679 
Q 1719 4750 2100 4750 
Q 2938 4750 3402 4381 
Q 3866 4013 3866 3353 
Q 3866 2972 3669 2642 
Q 3472 2313 2841 1759 
L 1844 884 
z
" transform="scale(0.015625)"/>
       <path id="DejaVuSans-Bold-30" d="M 2944 2338 
Q 2944 3213 2780 3570 
Q 2616 3928 2228 3928 
Q 1841 3928 1675 3570 
Q 1509 3213 1509 2338 
Q 1509 1453 1675 1090 
Q 1841 728 2228 728 
Q 2613 728 2778 1090 
Q 2944 1453 2944 2338 
z
M 4147 2328 
Q 4147 1169 3647 539 
Q 3147 -91 2228 -91 
Q 1306 -91 806 539 
Q 306 1169 306 2328 
Q 306 3491 806 4120 
Q 1306 4750 2228 4750 
Q 3147 4750 3647 4120 
Q 4147 3491 4147 2328 
z
" transform="scale(0.015625)"/>
       <path id="DejaVuSans-Bold-33" d="M 2981 2516 
Q 3453 2394 3698 2092 
Q 3944 1791 3944 1325 
Q 3944 631 3412 270 
Q 2881 -91 1863 -91 
Q 1503 -91 1142 -33 
Q 781 25 428 141 
L 428 1069 
Q 766 900 1098 814 
Q 1431 728 1753 728 
Q 2231 728 2486 893 
Q 2741 1059 2741 1369 
Q 2741 1688 2480 1852 
Q 2219 2016 1709 2016 
L 1228 2016 
L 1228 2791 
L 1734 2791 
Q 2188 2791 2409 2933 
Q 2631 3075 2631 3366 
Q 2631 3634 2415 3781 
Q 2200 3928 1806 3928 
Q 1516 3928 1219 3862 
Q 922 3797 628 3669 
L 628 4550 
Q 984 4650 1334 4700 
Q 1684 4750 2022 4750 
Q 2931 4750 3382 4451 
Q 3834 4153 3834 3553 
Q 3834 3144 3618 2883 
Q 3403 2622 2981 2516 
z
" transform="scale(0.015625)"/>
       <path id="DejaVuSans-Bold-49" d="M 588 4666 
L 1791 4666 
L 1791 0 
L 588 0 
L 588 4666 
z
" transform="scale(0.015625)"/>
       <path id="DejaVuSans-Bold-4e" d="M 588 4666 
L 1931 4666 
L 3628 1466 
L 3628 4666 
L 4769 4666 
L 4769 0 
L 3425 0 
L 1728 3200 
L 1728 0 
L 588 0 
L 588 4666 
z
" transform="scale(0.015625)"/>
       <path id="DejaVuSans-Bold-52" d="M 2297 2597 
Q 2675 2597 2839 2737 
Q 3003 2878 3003 3200 
Q 3003 3519 2839 3656 
Q 2675 3794 2297 3794 
L 1791 3794 
L 1791 2597 
L 2297 2597 
z
M 1791 1766 
L 1791 0 
L 588 0 
L 588 4666 
L 2425 4666 
Q 3347 4666 3776 4356 
Q 4206 4047 4206 3378 
Q 4206 2916 3982 2619 
Q 3759 2322 3309 2181 
Q 3556 2125 3751 1926 
Q 3947 1728 4147 1325 
L 4800 0 
L 3519 0 
L 2950 1159 
Q 2778 1509 2601 1637 
Q 2425 1766 2131 1766 
L 1791 1766 
z
" transform="scale(0.015625)"/>
       <path id="DejaVuSans-Bold-43" d="M 4288 256 
Q 3956 84 3597 -3 
Q 3238 -91 2847 -91 
Q 1681 -91 1000 561 
Q 319 1213 319 2328 
Q 319 3447 1000 4098 
Q 1681 4750 2847 4750 
Q 3238 4750 3597 4662 
Q 3956 4575 4288 4403 
L 4288 3438 
Q 3953 3666 3628 3772 
Q 3303 3878 2944 3878 
Q 2300 3878 1931 3465 
Q 1563 3053 1563 2328 
Q 1563 1606 1931 1193 
Q 2300 781 2944 781 
Q 3303 781 3628 887 
Q 3953 994 4288 1222 
L 4288 256 
z
" transform="scale(0.015625)"/>
      </defs>
      <use xlink:href="#DejaVuSans-Bold-54"/>
      <use xlink:href="#DejaVuSans-Bold-41" x="60.462891"/>
      <use xlink:href="#DejaVuSans-Bold-4d" x="137.855469"/>
      <use xlink:href="#DejaVuSans-Bold-20" x="237.367188"/>
      <use xlink:href="#DejaVuSans-Bold-69" x="272.181641"/>
      <use xlink:href="#DejaVuSans-Bold-6e" x="306.458984"/>
      <use xlink:href="#DejaVuSans-Bold-20" x="377.650391"/>
      <use xlink:href="#DejaVuSans-Bold-32" x="412.464844"/>
      <use xlink:href="#DejaVuSans-Bold-30" x="482.044922"/>
      <use xlink:href="#DejaVuSans-Bold-33" x="551.625"/>
      <use xlink:href="#DejaVuSans-Bold-30" x="621.205078"/>
      <use xlink:href="#DejaVuSans-Bold-20" x="690.785156"/>
      <use xlink:href="#DejaVuSans-Bold-28" x="725.599609"/>
      <use xlink:href="#DejaVuSans-Bold-49" x="771.302734"/>
      <use xlink:href="#DejaVuSans-Bold-4e" x="808.509766"/>
      <use xlink:href="#DejaVuSans-Bold-52" x="892.201172"/>
      <use xlink:href="#DejaVuSans-Bold-20" x="969.203125"/>
      <use xlink:href="#DejaVuSans-Bold-43" x="1004.017578"/>
      <use xlink:href="#DejaVuSans-Bold-72" x="1077.40625"/>
      <use xlink:href="#DejaVuSans-Bold-6f" x="1126.722656"/>
      <use xlink:href="#DejaVuSans-Bold-72" x="1195.423828"/>
      <use xlink:href="#DejaVuSans-Bold-65" x="1244.740234"/>
      <use xlink:href="#DejaVuSans-Bold-29" x="1312.5625"/>
     </g>
    </g>
   </g>
   <g id="PathCollection_1">
    <defs>
     <path id="m8a2fbac26f" d="M 0 10.606602 
C 2.812904 10.606602 5.510977 9.489023 7.5 7.5 
C 9.489023 5.510977 10.606602 2.812904 10.606602 0 
C 10.606602 -2.812904 9.489023 -5.510977 7.5 -7.5 
C 5.510977 -9.489023 2.812904 -10.606602 0 -10.606602 
C -2.812904 -10.606602 -5.510977 -9.489023 -7.5 -7.5 
C -9.489023 -5.510977 -10.606602 -2.812904 -10.606602 0 
C -10.606602 2.812904 -9.489023 5.510977 -7.5 7.5 
C -5.510977 9.489023 -2.812904 10.606602 0 10.606602 
z
" style="stroke: #ffffff; stroke-opacity: 0.75; stroke-width: 1.5"/>
    </defs>
    <g clip-path="url(#p4da6f0ec00)">
     <use xlink:href="#m8a2fbac26f" x="309.328438" y="95.322662" style="fill: #0b1c2c; fill-opacity: 0.75; stroke: #ffffff; stroke-opacity: 0.75; stroke-width: 1.5"/>
    </g>
   </g>
   <g id="PathCollection_2">
    <defs>
     <path id="m66b3197308" d="M 0 9.486833 
C 2.515938 9.486833 4.929167 8.48724 6.708204 6.708204 
C 8.48724 4.929167 9.486833 2.515938 9.486833 0 
C 9.486833 -2.515938 8.48724 -4.929167 6.708204 -6.708204 
C 4.929167 -8.48724 2.515938 -9.486833 0 -9.486833 
C -2.515938 -9.486833 -4.929167 -8.48724 -6.708204 -6.708204 
C -8.48724 -4.929167 -9.486833 -2.515938 -9.486833 0 
C -9.486833 2.515938 -8.48724 4.929167 -6.708204 6.708204 
C -4.929167 8.48724 -2.515938 9.486833 0 9.486833 
z
" style="stroke: #ffffff; stroke-opacity: 0.75; stroke-width: 1.5"/>
    </defs>
    <g clip-path="url(#p4da6f0ec00)">
     <use xlink:href="#m66b3197308" x="418.175937" y="200.365739" style="fill: #0b1c2c; fill-opacity: 0.75; stroke: #ffffff; stroke-opacity: 0.75; stroke-width: 1.5"/>
    </g>
   </g>
   <g id="PathCollection_3">
    <defs>
     <path id="mc33f67a33d" d="M 0 10.606602 
C 2.812904 10.606602 5.510977 9.489023 7.5 7.5 
C 9.489023 5.510977 10.606602 2.812904 10.606602 0 
C 10.606602 -2.812904 9.489023 -5.510977 7.5 -7.5 
C 5.510977 -9.489023 2.812904 -10.606602 0 -10.606602 
C -2.812904 -10.606602 -5.510977 -9.489023 -7.5 -7.5 
C -9.489023 -5.510977 -10.606602 -2.812904 -10.606602 0 
C -10.606602 2.812904 -9.489023 5.510977 -7.5 7.5 
C -5.510977 9.489023 -2.812904 10.606602 0 10.606602 
z
" style="stroke: #ffffff; stroke-opacity: 0.75; stroke-width: 1.5"/>
    </defs>
    <g clip-path="url(#p4da6f0ec00)">
     <use xlink:href="#mc33f67a33d" x="635.870938" y="170.353431" style="fill: #00a9e0; fill-opacity: 0.75; stroke: #ffffff; stroke-opacity: 0.75; stroke-width: 1.5"/>
    </g>
   </g>
   <g id="PathCollection_4">
    <defs>
     <path id="med9cb1485e" d="M 0 9.486833 
C 2.515938 9.486833 4.929167 8.48724 6.708204 6.708204 
C 8.48724 4.929167 9.486833 2.515938 9.486833 0 
C 9.486833 -2.515938 8.48724 -4.929167 6.708204 -6.708204 
C 4.929167 -8.48724 2.515938 -9.486833 0 -9.486833 
C -2.515938 -9.486833 -4.929167 -8.48724 -6.708204 -6.708204 
C -8.48724 -4.929167 -9.486833 -2.515938 -9.486833 0 
C -9.486833 2.515938 -8.48724 4.929167 -6.708204 6.708204 
C -4.929167 8.48724 -2.515938 9.486833 0 9.486833 
z
" style="stroke: #ffffff; stroke-opacity: 0.75; stroke-width: 1.5"/>
    </defs>
    <g clip-path="url(#p4da6f0ec00)">
     <use xlink:href="#med9cb1485e" x="273.045937" y="275.396508" style="fill: #00a9e0; fill-opacity: 0.75; stroke: #ffffff; stroke-opacity: 0.75; stroke-width: 1.5"/>
    </g>
   </g>
   <g id="PathCollection_5">
    <defs>
     <path id="m9e5e9f1e7c" d="M 0 8.215838 
C 2.178866 8.215838 4.268784 7.350166 5.809475 5.809475 
C 7.350166 4.268784 8.215838 2.178866 8.215838 0 
C 8.215838 -2.178866 7.350166 -4.268784 5.809475 -5.809475 
C 4.268784 -7.350166 2.178866 -8.215838 0 -8.215838 
C -2.178866 -8.215838 -4.268784 -7.350166 -5.809475 -5.809475 
C -7.350166 -4.268784 -8.215838 -2.178866 -8.215838 0 
C -8.215838 2.178866 -7.350166 4.268784 -5.809475 5.809475 
C -4.268784 7.350166 -2.178866 8.215838 0 8.215838 
z
" style="stroke: #ffffff; stroke-opacity: 0.75; stroke-width: 1.5"/>
    </defs>
    <g clip-path="url(#p4da6f0ec00)">
     <use xlink:href="#m9e5e9f1e7c" x="200.480937" y="311.411278" style="fill: #3e6b96; fill-opacity: 0.75; stroke: #ffffff; stroke-opacity: 0.75; stroke-width: 1.5"/>
    </g>
   </g>
   <g id="PathCollection_6">
    <defs>
     <path id="m5384e6af21" d="M 0 9.486833 
C 2.515938 9.486833 4.929167 8.48724 6.708204 6.708204 
C 8.48724 4.929167 9.486833 2.515938 9.486833 0 
C 9.486833 -2.515938 8.48724 -4.929167 6.708204 -6.708204 
C 4.929167 -8.48724 2.515938 -9.486833 0 -9.486833 
C -2.515938 -9.486833 -4.929167 -8.48724 -6.708204 -6.708204 
C -8.48724 -4.929167 -9.486833 -2.515938 -9.486833 0 
C -9.486833 2.515938 -8.48724 4.929167 -6.708204 6.708204 
C -4.929167 8.48724 -2.515938 9.486833 0 9.486833 
z
" style="stroke: #ffffff; stroke-opacity: 0.75; stroke-width: 1.5"/>
    </defs>
    <g clip-path="url(#p4da6f0ec00)">
     <use xlink:href="#m5384e6af21" x="490.740937" y="239.381739" style="fill: #e8a317; fill-opacity: 0.75; stroke: #ffffff; stroke-opacity: 0.75; stroke-width: 1.5"/>
    </g>
   </g>
   <g id="PathCollection_7">
    <defs>
     <path id="m1ee3e17d3c" d="M 0 8.215838 
C 2.178866 8.215838 4.268784 7.350166 5.809475 5.809475 
C 7.350166 4.268784 8.215838 2.178866 8.215838 0 
C 8.215838 -2.178866 7.350166 -4.268784 5.809475 -5.809475 
C 4.268784 -7.350166 2.178866 -8.215838 0 -8.215838 
C -2.178866 -8.215838 -4.268784 -7.350166 -5.809475 -5.809475 
C -7.350166 -4.268784 -8.215838 -2.178866 -8.215838 0 
C -8.215838 2.178866 -7.350166 4.268784 -5.809475 5.809475 
C -4.268784 7.350166 -2.178866 8.215838 0 8.215838 
z
" style="stroke: #ffffff; stroke-opacity: 0.75; stroke-width: 1.5"/>
    </defs>
    <g clip-path="url(#p4da6f0ec00)">
     <use xlink:href="#m1ee3e17d3c" x="309.328438" y="341.423585" style="fill: #2e8b57; fill-opacity: 0.75; stroke: #ffffff; stroke-opacity: 0.75; stroke-width: 1.5"/>
    </g>
   </g>
   <g id="PathCollection_8">
    <g clip-path="url(#p4da6f0ec00)">
     <use xlink:href="#m66b3197308" x="563.305938" y="293.403893" style="fill: #0b1c2c; fill-opacity: 0.75; stroke: #ffffff; stroke-opacity: 0.75; stroke-width: 1.5"/>
    </g>
   </g>
   <g id="PathCollection_9">
    <defs>
     <path id="m6a869e6837" d="M 0 8.215838 
C 2.178866 8.215838 4.268784 7.350166 5.809475 5.809475 
C 7.350166 4.268784 8.215838 2.178866 8.215838 0 
C 8.215838 -2.178866 7.350166 -4.268784 5.809475 -5.809475 
C 4.268784 -7.350166 2.178866 -8.215838 0 -8.215838 
C -2.178866 -8.215838 -4.268784 -7.350166 -5.809475 -5.809475 
C -7.350166 -4.268784 -8.215838 -2.178866 -8.215838 0 
C -8.215838 2.178866 -7.350166 4.268784 -5.809475 5.809475 
C -4.268784 7.350166 -2.178866 8.215838 0 8.215838 
z
" style="stroke: #ffffff; stroke-opacity: 0.75; stroke-width: 1.5"/>
    </defs>
    <g clip-path="url(#p4da6f0ec00)">
     <use xlink:href="#m6a869e6837" x="418.175937" y="329.418662" style="fill: #e8a317; fill-opacity: 0.75; stroke: #ffffff; stroke-opacity: 0.75; stroke-width: 1.5"/>
    </g>
   </g>
   <g id="PathCollection_10">
    <defs>
     <path id="m538cf412e1" d="M 0 6.708204 
C 1.779036 6.708204 3.485448 6.001385 4.743416 4.743416 
C 6.001385 3.485448 6.708204 1.779036 6.708204 0 
C 6.708204 -1.779036 6.001385 -3.485448 4.743416 -4.743416 
C 3.485448 -6.001385 1.779036 -6.708204 0 -6.708204 
C -1.779036 -6.708204 -3.485448 -6.001385 -4.743416 -4.743416 
C -6.001385 -3.485448 -6.708204 -1.779036 -6.708204 0 
C -6.708204 1.779036 -6.001385 3.485448 -4.743416 4.743416 
C -3.485448 6.001385 -1.779036 6.708204 0 6.708204 
z
" style="stroke: #ffffff; stroke-opacity: 0.75; stroke-width: 1.5"/>
    </defs>
    <g clip-path="url(#p4da6f0ec00)">
     <use xlink:href="#m538cf412e1" x="273.045937" y="371.435893" style="fill: #3d4a5c; fill-opacity: 0.75; stroke: #ffffff; stroke-opacity: 0.75; stroke-width: 1.5"/>
    </g>
   </g>
   <g id="PathCollection_11">
    <defs>
     <path id="m951adce91e" d="M 0 6.708204 
C 1.779036 6.708204 3.485448 6.001385 4.743416 4.743416 
C 6.001385 3.485448 6.708204 1.779036 6.708204 0 
C 6.708204 -1.779036 6.001385 -3.485448 4.743416 -4.743416 
C 3.485448 -6.001385 1.779036 -6.708204 0 -6.708204 
C -1.779036 -6.708204 -3.485448 -6.001385 -4.743416 -4.743416 
C -6.001385 -3.485448 -6.708204 -1.779036 -6.708204 0 
C -6.708204 1.779036 -6.001385 3.485448 -4.743416 4.743416 
C -3.485448 6.001385 -1.779036 6.708204 0 6.708204 
z
" style="stroke: #ffffff; stroke-opacity: 0.75; stroke-width: 1.5"/>
    </defs>
    <g clip-path="url(#p4da6f0ec00)">
     <use xlink:href="#m951adce91e" x="200.480937" y="389.443278" style="fill: #7b8794; fill-opacity: 0.75; stroke: #ffffff; stroke-opacity: 0.75; stroke-width: 1.5"/>
    </g>
   </g>
   <g id="PathCollection_12">
    <defs>
     <path id="me7f5745007" d="M 0 8.215838 
C 2.178866 8.215838 4.268784 7.350166 5.809475 5.809475 
C 7.350166 4.268784 8.215838 2.178866 8.215838 0 
C 8.215838 -2.178866 7.350166 -4.268784 5.809475 -5.809475 
C 4.268784 -7.350166 2.178866 -8.215838 0 -8.215838 
C -2.178866 -8.215838 -4.268784 -7.350166 -5.809475 -5.809475 
C -7.350166 -4.268784 -8.215838 -2.178866 -8.215838 0 
C -8.215838 2.178866 -7.350166 4.268784 -5.809475 5.809475 
C -4.268784 7.350166 -2.178866 8.215838 0 8.215838 
z
" style="stroke: #ffffff; stroke-opacity: 0.75; stroke-width: 1.5"/>
    </defs>
    <g clip-path="url(#p4da6f0ec00)">
     <use xlink:href="#me7f5745007" x="345.610937" y="302.407585" style="fill: #00a9e0; fill-opacity: 0.75; stroke: #ffffff; stroke-opacity: 0.75; stroke-width: 1.5"/>
    </g>
   </g>
   <g id="PathCollection_13">
    <defs>
     <path id="m157bc3fc5f" d="M 0 6.708204 
C 1.779036 6.708204 3.485448 6.001385 4.743416 4.743416 
C 6.001385 3.485448 6.708204 1.779036 6.708204 0 
C 6.708204 -1.779036 6.001385 -3.485448 4.743416 -4.743416 
C 3.485448 -6.001385 1.779036 -6.708204 0 -6.708204 
C -1.779036 -6.708204 -3.485448 -6.001385 -4.743416 -4.743416 
C -6.001385 -3.485448 -6.708204 -1.779036 -6.708204 0 
C -6.708204 1.779036 -6.001385 3.485448 -4.743416 4.743416 
C -3.485448 6.001385 -1.779036 6.708204 0 6.708204 
z
" style="stroke: #ffffff; stroke-opacity: 0.75; stroke-width: 1.5"/>
    </defs>
    <g clip-path="url(#p4da6f0ec00)">
     <use xlink:href="#m157bc3fc5f" x="309.328438" y="353.428508" style="fill: #2e8b57; fill-opacity: 0.75; stroke: #ffffff; stroke-opacity: 0.75; stroke-width: 1.5"/>
    </g>
   </g>
   <g id="PathCollection_14">
    <defs>
     <path id="m6e5f11ef41" d="M 0 9.486833 
C 2.515938 9.486833 4.929167 8.48724 6.708204 6.708204 
C 8.48724 4.929167 9.486833 2.515938 9.486833 0 
C 9.486833 -2.515938 8.48724 -4.929167 6.708204 -6.708204 
C 4.929167 -8.48724 2.515938 -9.486833 0 -9.486833 
C -2.515938 -9.486833 -4.929167 -8.48724 -6.708204 -6.708204 
C -8.48724 -4.929167 -9.486833 -2.515938 -9.486833 0 
C -9.486833 2.515938 -8.48724 4.929167 -6.708204 6.708204 
C -4.929167 8.48724 -2.515938 9.486833 0 9.486833 
z
" style="stroke: #ffffff; stroke-opacity: 0.75; stroke-width: 1.5"/>
    </defs>
    <g clip-path="url(#p4da6f0ec00)">
     <use xlink:href="#m6e5f11ef41" x="527.023438" y="251.386662" style="fill: #3e6b96; fill-opacity: 0.75; stroke: #ffffff; stroke-opacity: 0.75; stroke-width: 1.5"/>
    </g>
   </g>
   <g id="PathCollection_15">
    <g clip-path="url(#p4da6f0ec00)">
     <use xlink:href="#m8a2fbac26f" x="635.870938" y="125.33497" style="fill: #0b1c2c; fill-opacity: 0.75; stroke: #ffffff; stroke-opacity: 0.75; stroke-width: 1.5"/>
    </g>
   </g>
   <g id="line2d_23">
    <path d="M 418.175937 425.458047 
L 418.175937 35.298047 
" clip-path="url(#p4da6f0ec00)" style="fill: none; stroke-dasharray: 3.7,1.6; stroke-dashoffset: 0; stroke: #c8d0da"/>
   </g>
   <g id="line2d_24">
    <path d="M 55.350938 275.396508 
L 781.000937 275.396508 
" clip-path="url(#p4da6f0ec00)" style="fill: none; stroke-dasharray: 3.7,1.6; stroke-dashoffset: 0; stroke: #c8d0da"/>
   </g>
   <g id="patch_3">
    <path d="M 55.350938 425.458047 
L 55.350938 35.298047 
" style="fill: none; stroke: #7b8794; stroke-width: 0.8; stroke-linejoin: miter; stroke-linecap: square"/>
   </g>
   <g id="patch_4">
    <path d="M 55.350938 425.458047 
L 781.000937 425.458047 
" style="fill: none; stroke: #7b8794; stroke-width: 0.8; stroke-linejoin: miter; stroke-linecap: square"/>
   </g>
   <g id="text_18">
    <!-- UTM SaaS -->
    <g style="fill: #0b1c2c" transform="translate(285.411563 84.551236) scale(0.085 -0.085)">
     <defs>
      <path id="DejaVuSans-Bold-55" d="M 588 4666 
L 1791 4666 
L 1791 1869 
Q 1791 1291 1980 1042 
Q 2169 794 2597 794 
Q 3028 794 3217 1042 
Q 3406 1291 3406 1869 
L 3406 4666 
L 4609 4666 
L 4609 1869 
Q 4609 878 4112 393 
Q 3616 -91 2597 -91 
Q 1581 -91 1084 393 
Q 588 878 588 1869 
L 588 4666 
z
" transform="scale(0.015625)"/>
      <path id="DejaVuSans-Bold-53" d="M 3834 4519 
L 3834 3531 
Q 3450 3703 3084 3790 
Q 2719 3878 2394 3878 
Q 1963 3878 1756 3759 
Q 1550 3641 1550 3391 
Q 1550 3203 1689 3098 
Q 1828 2994 2194 2919 
L 2706 2816 
Q 3484 2659 3812 2340 
Q 4141 2022 4141 1434 
Q 4141 663 3683 286 
Q 3225 -91 2284 -91 
Q 1841 -91 1394 -6 
Q 947 78 500 244 
L 500 1259 
Q 947 1022 1364 901 
Q 1781 781 2169 781 
Q 2563 781 2772 912 
Q 2981 1044 2981 1288 
Q 2981 1506 2839 1625 
Q 2697 1744 2272 1838 
L 1806 1941 
Q 1106 2091 782 2419 
Q 459 2747 459 3303 
Q 459 4000 909 4375 
Q 1359 4750 2203 4750 
Q 2588 4750 2994 4692 
Q 3400 4634 3834 4519 
z
" transform="scale(0.015625)"/>
      <path id="DejaVuSans-Bold-61" d="M 2106 1575 
Q 1756 1575 1579 1456 
Q 1403 1338 1403 1106 
Q 1403 894 1545 773 
Q 1688 653 1941 653 
Q 2256 653 2472 879 
Q 2688 1106 2688 1447 
L 2688 1575 
L 2106 1575 
z
M 3816 1997 
L 3816 0 
L 2688 0 
L 2688 519 
Q 2463 200 2181 54 
Q 1900 -91 1497 -91 
Q 953 -91 614 226 
Q 275 544 275 1050 
Q 275 1666 698 1953 
Q 1122 2241 2028 2241 
L 2688 2241 
L 2688 2328 
Q 2688 2594 2478 2717 
Q 2269 2841 1825 2841 
Q 1466 2841 1156 2769 
Q 847 2697 581 2553 
L 581 3406 
Q 941 3494 1303 3539 
Q 1666 3584 2028 3584 
Q 2975 3584 3395 3211 
Q 3816 2838 3816 1997 
z
" transform="scale(0.015625)"/>
     </defs>
     <use xlink:href="#DejaVuSans-Bold-55"/>
     <use xlink:href="#DejaVuSans-Bold-54" x="81.201172"/>
     <use xlink:href="#DejaVuSans-Bold-4d" x="149.414062"/>
     <use xlink:href="#DejaVuSans-Bold-20" x="248.925781"/>
     <use xlink:href="#DejaVuSans-Bold-53" x="283.740234"/>
     <use xlink:href="#DejaVuSans-Bold-61" x="355.761719"/>
     <use xlink:href="#DejaVuSans-Bold-61" x="423.242188"/>
     <use xlink:href="#DejaVuSans-Bold-53" x="490.722656"/>
    </g>
   </g>
   <g id="text_19">
    <!-- MRO hub -->
    <g style="fill: #0b1c2c" transform="translate(396.48832 189.594313) scale(0.085 -0.085)">
     <defs>
      <path id="DejaVuSans-Bold-4f" d="M 2719 3878 
Q 2169 3878 1866 3472 
Q 1563 3066 1563 2328 
Q 1563 1594 1866 1187 
Q 2169 781 2719 781 
Q 3272 781 3575 1187 
Q 3878 1594 3878 2328 
Q 3878 3066 3575 3472 
Q 3272 3878 2719 3878 
z
M 2719 4750 
Q 3844 4750 4481 4106 
Q 5119 3463 5119 2328 
Q 5119 1197 4481 553 
Q 3844 -91 2719 -91 
Q 1597 -91 958 553 
Q 319 1197 319 2328 
Q 319 3463 958 4106 
Q 1597 4750 2719 4750 
z
" transform="scale(0.015625)"/>
      <path id="DejaVuSans-Bold-62" d="M 2400 722 
Q 2759 722 2948 984 
Q 3138 1247 3138 1747 
Q 3138 2247 2948 2509 
Q 2759 2772 2400 2772 
Q 2041 2772 1848 2508 
Q 1656 2244 1656 1747 
Q 1656 1250 1848 986 
Q 2041 722 2400 722 
z
M 1656 2988 
Q 1888 3294 2169 3439 
Q 2450 3584 2816 3584 
Q 3463 3584 3878 3070 
Q 4294 2556 4294 1747 
Q 4294 938 3878 423 
Q 3463 -91 2816 -91 
Q 2450 -91 2169 54 
Q 1888 200 1656 506 
L 1656 0 
L 538 0 
L 538 4863 
L 1656 4863 
L 1656 2988 
z
" transform="scale(0.015625)"/>
     </defs>
     <use xlink:href="#DejaVuSans-Bold-4d"/>
     <use xlink:href="#DejaVuSans-Bold-52" x="99.511719"/>
     <use xlink:href="#DejaVuSans-Bold-4f" x="176.513672"/>
     <use xlink:href="#DejaVuSans-Bold-20" x="261.523438"/>
     <use xlink:href="#DejaVuSans-Bold-68" x="296.337891"/>
     <use xlink:href="#DejaVuSans-Bold-75" x="367.529297"/>
     <use xlink:href="#DejaVuSans-Bold-62" x="438.720703"/>
    </g>
   </g>
   <g id="text_20">
    <!-- Drone ports -->
    <g style="fill: #0b1c2c" transform="translate(607.320898 159.582005) scale(0.085 -0.085)">
     <defs>
      <path id="DejaVuSans-Bold-44" d="M 1791 3756 
L 1791 909 
L 2222 909 
Q 2959 909 3348 1275 
Q 3738 1641 3738 2338 
Q 3738 3031 3350 3393 
Q 2963 3756 2222 3756 
L 1791 3756 
z
M 588 4666 
L 1856 4666 
Q 2919 4666 3439 4514 
Q 3959 4363 4331 4000 
Q 4659 3684 4818 3271 
Q 4978 2859 4978 2338 
Q 4978 1809 4818 1395 
Q 4659 981 4331 666 
Q 3956 303 3431 151 
Q 2906 0 1856 0 
L 588 0 
L 588 4666 
z
" transform="scale(0.015625)"/>
      <path id="DejaVuSans-Bold-70" d="M 1656 506 
L 1656 -1331 
L 538 -1331 
L 538 3500 
L 1656 3500 
L 1656 2988 
Q 1888 3294 2169 3439 
Q 2450 3584 2816 3584 
Q 3463 3584 3878 3070 
Q 4294 2556 4294 1747 
Q 4294 938 3878 423 
Q 3463 -91 2816 -91 
Q 2450 -91 2169 54 
Q 1888 200 1656 506 
z
M 2400 2772 
Q 2041 2772 1848 2508 
Q 1656 2244 1656 1747 
Q 1656 1250 1848 986 
Q 2041 722 2400 722 
Q 2759 722 2948 984 
Q 3138 1247 3138 1747 
Q 3138 2247 2948 2509 
Q 2759 2772 2400 2772 
z
" transform="scale(0.015625)"/>
     </defs>
     <use xlink:href="#DejaVuSans-Bold-44"/>
     <use xlink:href="#DejaVuSans-Bold-72" x="83.007812"/>
     <use xlink:href="#DejaVuSans-Bold-6f" x="132.324219"/>
     <use xlink:href="#DejaVuSans-Bold-6e" x="201.025391"/>
     <use xlink:href="#DejaVuSans-Bold-65" x="272.216797"/>
     <use xlink:href="#DejaVuSans-Bold-20" x="340.039062"/>
     <use xlink:href="#DejaVuSans-Bold-70" x="374.853516"/>
     <use xlink:href="#DejaVuSans-Bold-6f" x="446.435547"/>
     <use xlink:href="#DejaVuSans-Bold-72" x="515.136719"/>
     <use xlink:href="#DejaVuSans-Bold-74" x="564.453125"/>
     <use xlink:href="#DejaVuSans-Bold-73" x="612.255859"/>
    </g>
   </g>
   <g id="text_21">
    <!-- Battery swapping -->
    <g style="fill: #0b1c2c" transform="translate(230.714609 264.558675) scale(0.085 -0.085)">
     <defs>
      <path id="DejaVuSans-Bold-42" d="M 2456 2859 
Q 2741 2859 2887 2984 
Q 3034 3109 3034 3353 
Q 3034 3594 2887 3720 
Q 2741 3847 2456 3847 
L 1791 3847 
L 1791 2859 
L 2456 2859 
z
M 2497 819 
Q 2859 819 3042 972 
Q 3225 1125 3225 1434 
Q 3225 1738 3044 1889 
Q 2863 2041 2497 2041 
L 1791 2041 
L 1791 819 
L 2497 819 
z
M 3616 2497 
Q 4003 2384 4215 2081 
Q 4428 1778 4428 1338 
Q 4428 663 3972 331 
Q 3516 0 2584 0 
L 588 0 
L 588 4666 
L 2394 4666 
Q 3366 4666 3802 4372 
Q 4238 4078 4238 3431 
Q 4238 3091 4078 2852 
Q 3919 2613 3616 2497 
z
" transform="scale(0.015625)"/>
      <path id="DejaVuSans-Bold-79" d="M 78 3500 
L 1197 3500 
L 2138 1125 
L 2938 3500 
L 4056 3500 
L 2584 -331 
Q 2363 -916 2067 -1148 
Q 1772 -1381 1288 -1381 
L 641 -1381 
L 641 -647 
L 991 -647 
Q 1275 -647 1404 -556 
Q 1534 -466 1606 -231 
L 1638 -134 
L 78 3500 
z
" transform="scale(0.015625)"/>
      <path id="DejaVuSans-Bold-77" d="M 225 3500 
L 1313 3500 
L 1900 1088 
L 2491 3500 
L 3425 3500 
L 4013 1113 
L 4603 3500 
L 5691 3500 
L 4769 0 
L 3547 0 
L 2956 2406 
L 2369 0 
L 1147 0 
L 225 3500 
z
" transform="scale(0.015625)"/>
      <path id="DejaVuSans-Bold-67" d="M 2919 594 
Q 2688 288 2409 144 
Q 2131 0 1766 0 
Q 1125 0 706 504 
Q 288 1009 288 1791 
Q 288 2575 706 3076 
Q 1125 3578 1766 3578 
Q 2131 3578 2409 3434 
Q 2688 3291 2919 2981 
L 2919 3500 
L 4044 3500 
L 4044 353 
Q 4044 -491 3511 -936 
Q 2978 -1381 1966 -1381 
Q 1638 -1381 1331 -1331 
Q 1025 -1281 716 -1178 
L 716 -306 
Q 1009 -475 1290 -558 
Q 1572 -641 1856 -641 
Q 2406 -641 2662 -400 
Q 2919 -159 2919 353 
L 2919 594 
z
M 2181 2772 
Q 1834 2772 1640 2515 
Q 1447 2259 1447 1791 
Q 1447 1309 1634 1061 
Q 1822 813 2181 813 
Q 2531 813 2725 1069 
Q 2919 1325 2919 1791 
Q 2919 2259 2725 2515 
Q 2531 2772 2181 2772 
z
" transform="scale(0.015625)"/>
     </defs>
     <use xlink:href="#DejaVuSans-Bold-42"/>
     <use xlink:href="#DejaVuSans-Bold-61" x="76.220703"/>
     <use xlink:href="#DejaVuSans-Bold-74" x="143.701172"/>
     <use xlink:href="#DejaVuSans-Bold-74" x="191.503906"/>
     <use xlink:href="#DejaVuSans-Bold-65" x="239.306641"/>
     <use xlink:href="#DejaVuSans-Bold-72" x="307.128906"/>
     <use xlink:href="#DejaVuSans-Bold-79" x="356.445312"/>
     <use xlink:href="#DejaVuSans-Bold-20" x="421.630859"/>
     <use xlink:href="#DejaVuSans-Bold-73" x="456.445312"/>
     <use xlink:href="#DejaVuSans-Bold-77" x="515.966797"/>
     <use xlink:href="#DejaVuSans-Bold-61" x="608.349609"/>
     <use xlink:href="#DejaVuSans-Bold-70" x="675.830078"/>
     <use xlink:href="#DejaVuSans-Bold-70" x="747.412109"/>
     <use xlink:href="#DejaVuSans-Bold-69" x="818.994141"/>
     <use xlink:href="#DejaVuSans-Bold-6e" x="853.271484"/>
     <use xlink:href="#DejaVuSans-Bold-67" x="924.462891"/>
    </g>
   </g>
   <g id="text_22">
    <!-- Fleet mgmt SaaS -->
    <g style="fill: #0b1c2c" transform="translate(159.57668 300.573445) scale(0.085 -0.085)">
     <defs>
      <path id="DejaVuSans-Bold-46" d="M 588 4666 
L 3834 4666 
L 3834 3756 
L 1791 3756 
L 1791 2888 
L 3713 2888 
L 3713 1978 
L 1791 1978 
L 1791 0 
L 588 0 
L 588 4666 
z
" transform="scale(0.015625)"/>
      <path id="DejaVuSans-Bold-6c" d="M 538 4863 
L 1656 4863 
L 1656 0 
L 538 0 
L 538 4863 
z
" transform="scale(0.015625)"/>
     </defs>
     <use xlink:href="#DejaVuSans-Bold-46"/>
     <use xlink:href="#DejaVuSans-Bold-6c" x="68.310547"/>
     <use xlink:href="#DejaVuSans-Bold-65" x="102.587891"/>
     <use xlink:href="#DejaVuSans-Bold-65" x="170.410156"/>
     <use xlink:href="#DejaVuSans-Bold-74" x="238.232422"/>
     <use xlink:href="#DejaVuSans-Bold-20" x="286.035156"/>
     <use xlink:href="#DejaVuSans-Bold-6d" x="320.849609"/>
     <use xlink:href="#DejaVuSans-Bold-67" x="425.048828"/>
     <use xlink:href="#DejaVuSans-Bold-6d" x="496.630859"/>
     <use xlink:href="#DejaVuSans-Bold-74" x="600.830078"/>
     <use xlink:href="#DejaVuSans-Bold-20" x="648.632812"/>
     <use xlink:href="#DejaVuSans-Bold-53" x="683.447266"/>
     <use xlink:href="#DejaVuSans-Bold-61" x="755.46875"/>
     <use xlink:href="#DejaVuSans-Bold-61" x="822.949219"/>
     <use xlink:href="#DejaVuSans-Bold-53" x="890.429688"/>
    </g>
   </g>
   <g id="text_23">
    <!-- Cold-chain payloads -->
    <g style="fill: #0b1c2c" transform="translate(442.7 228.543906) scale(0.085 -0.085)">
     <defs>
      <path id="DejaVuSans-Bold-64" d="M 2919 2988 
L 2919 4863 
L 4044 4863 
L 4044 0 
L 2919 0 
L 2919 506 
Q 2688 197 2409 53 
Q 2131 -91 1766 -91 
Q 1119 -91 703 423 
Q 288 938 288 1747 
Q 288 2556 703 3070 
Q 1119 3584 1766 3584 
Q 2128 3584 2408 3439 
Q 2688 3294 2919 2988 
z
M 2181 722 
Q 2541 722 2730 984 
Q 2919 1247 2919 1747 
Q 2919 2247 2730 2509 
Q 2541 2772 2181 2772 
Q 1825 2772 1636 2509 
Q 1447 2247 1447 1747 
Q 1447 1247 1636 984 
Q 1825 722 2181 722 
z
" transform="scale(0.015625)"/>
      <path id="DejaVuSans-Bold-63" d="M 3366 3391 
L 3366 2478 
Q 3138 2634 2908 2709 
Q 2678 2784 2431 2784 
Q 1963 2784 1702 2511 
Q 1441 2238 1441 1747 
Q 1441 1256 1702 982 
Q 1963 709 2431 709 
Q 2694 709 2930 787 
Q 3166 866 3366 1019 
L 3366 103 
Q 3103 6 2833 -42 
Q 2563 -91 2291 -91 
Q 1344 -91 809 395 
Q 275 881 275 1747 
Q 275 2613 809 3098 
Q 1344 3584 2291 3584 
Q 2566 3584 2833 3536 
Q 3100 3488 3366 3391 
z
" transform="scale(0.015625)"/>
     </defs>
     <use xlink:href="#DejaVuSans-Bold-43"/>
     <use xlink:href="#DejaVuSans-Bold-6f" x="73.388672"/>
     <use xlink:href="#DejaVuSans-Bold-6c" x="142.089844"/>
     <use xlink:href="#DejaVuSans-Bold-64" x="176.367188"/>
     <use xlink:href="#DejaVuSans-Bold-2d" x="247.949219"/>
     <use xlink:href="#DejaVuSans-Bold-63" x="289.453125"/>
     <use xlink:href="#DejaVuSans-Bold-68" x="348.730469"/>
     <use xlink:href="#DejaVuSans-Bold-61" x="419.921875"/>
     <use xlink:href="#DejaVuSans-Bold-69" x="487.402344"/>
     <use xlink:href="#DejaVuSans-Bold-6e" x="521.679688"/>
     <use xlink:href="#DejaVuSans-Bold-20" x="592.871094"/>
     <use xlink:href="#DejaVuSans-Bold-70" x="627.685547"/>
     <use xlink:href="#DejaVuSans-Bold-61" x="699.267578"/>
     <use xlink:href="#DejaVuSans-Bold-79" x="763.623047"/>
     <use xlink:href="#DejaVuSans-Bold-6c" x="828.808594"/>
     <use xlink:href="#DejaVuSans-Bold-6f" x="863.085938"/>
     <use xlink:href="#DejaVuSans-Bold-61" x="931.787109"/>
     <use xlink:href="#DejaVuSans-Bold-64" x="999.267578"/>
     <use xlink:href="#DejaVuSans-Bold-73" x="1070.849609"/>
    </g>
   </g>
   <g id="text_24">
    <!-- Pilot training -->
    <g style="fill: #0b1c2c" transform="translate(277.866484 330.585752) scale(0.085 -0.085)">
     <defs>
      <path id="DejaVuSans-Bold-50" d="M 588 4666 
L 2584 4666 
Q 3475 4666 3951 4270 
Q 4428 3875 4428 3144 
Q 4428 2409 3951 2014 
Q 3475 1619 2584 1619 
L 1791 1619 
L 1791 0 
L 588 0 
L 588 4666 
z
M 1791 3794 
L 1791 2491 
L 2456 2491 
Q 2806 2491 2997 2661 
Q 3188 2831 3188 3144 
Q 3188 3456 2997 3625 
Q 2806 3794 2456 3794 
L 1791 3794 
z
" transform="scale(0.015625)"/>
     </defs>
     <use xlink:href="#DejaVuSans-Bold-50"/>
     <use xlink:href="#DejaVuSans-Bold-69" x="73.291016"/>
     <use xlink:href="#DejaVuSans-Bold-6c" x="107.568359"/>
     <use xlink:href="#DejaVuSans-Bold-6f" x="141.845703"/>
     <use xlink:href="#DejaVuSans-Bold-74" x="210.546875"/>
     <use xlink:href="#DejaVuSans-Bold-20" x="258.349609"/>
     <use xlink:href="#DejaVuSans-Bold-74" x="293.164062"/>
     <use xlink:href="#DejaVuSans-Bold-72" x="340.966797"/>
     <use xlink:href="#DejaVuSans-Bold-61" x="390.283203"/>
     <use xlink:href="#DejaVuSans-Bold-69" x="457.763672"/>
     <use xlink:href="#DejaVuSans-Bold-6e" x="492.041016"/>
     <use xlink:href="#DejaVuSans-Bold-69" x="563.232422"/>
     <use xlink:href="#DejaVuSans-Bold-6e" x="597.509766"/>
     <use xlink:href="#DejaVuSans-Bold-67" x="668.701172"/>
    </g>
   </g>
   <g id="text_25">
    <!-- BVLOS comms -->
    <g style="fill: #0b1c2c" transform="translate(529.41418 282.632466) scale(0.085 -0.085)">
     <defs>
      <path id="DejaVuSans-Bold-56" d="M 31 4666 
L 1241 4666 
L 2478 1222 
L 3713 4666 
L 4922 4666 
L 3194 0 
L 1759 0 
L 31 4666 
z
" transform="scale(0.015625)"/>
      <path id="DejaVuSans-Bold-4c" d="M 588 4666 
L 1791 4666 
L 1791 909 
L 3903 909 
L 3903 0 
L 588 0 
L 588 4666 
z
" transform="scale(0.015625)"/>
     </defs>
     <use xlink:href="#DejaVuSans-Bold-42"/>
     <use xlink:href="#DejaVuSans-Bold-56" x="72.220703"/>
     <use xlink:href="#DejaVuSans-Bold-4c" x="149.613281"/>
     <use xlink:href="#DejaVuSans-Bold-4f" x="209.708984"/>
     <use xlink:href="#DejaVuSans-Bold-53" x="294.71875"/>
     <use xlink:href="#DejaVuSans-Bold-20" x="366.740234"/>
     <use xlink:href="#DejaVuSans-Bold-63" x="401.554688"/>
     <use xlink:href="#DejaVuSans-Bold-6f" x="460.832031"/>
     <use xlink:href="#DejaVuSans-Bold-6d" x="529.533203"/>
     <use xlink:href="#DejaVuSans-Bold-6d" x="633.732422"/>
     <use xlink:href="#DejaVuSans-Bold-73" x="737.931641"/>
    </g>
   </g>
   <g id="text_26">
    <!-- Insurance products -->
    <g style="fill: #0b1c2c" transform="translate(371.93793 318.647236) scale(0.085 -0.085)">
     <use xlink:href="#DejaVuSans-Bold-49"/>
     <use xlink:href="#DejaVuSans-Bold-6e" x="37.207031"/>
     <use xlink:href="#DejaVuSans-Bold-73" x="108.398438"/>
     <use xlink:href="#DejaVuSans-Bold-75" x="167.919922"/>
     <use xlink:href="#DejaVuSans-Bold-72" x="239.111328"/>
     <use xlink:href="#DejaVuSans-Bold-61" x="288.427734"/>
     <use xlink:href="#DejaVuSans-Bold-6e" x="355.908203"/>
     <use xlink:href="#DejaVuSans-Bold-63" x="427.099609"/>
     <use xlink:href="#DejaVuSans-Bold-65" x="486.376953"/>
     <use xlink:href="#DejaVuSans-Bold-20" x="554.199219"/>
     <use xlink:href="#DejaVuSans-Bold-70" x="589.013672"/>
     <use xlink:href="#DejaVuSans-Bold-72" x="660.595703"/>
     <use xlink:href="#DejaVuSans-Bold-6f" x="709.912109"/>
     <use xlink:href="#DejaVuSans-Bold-64" x="778.613281"/>
     <use xlink:href="#DejaVuSans-Bold-75" x="850.195312"/>
     <use xlink:href="#DejaVuSans-Bold-63" x="921.386719"/>
     <use xlink:href="#DejaVuSans-Bold-74" x="980.664062"/>
     <use xlink:href="#DejaVuSans-Bold-73" x="1028.466797"/>
    </g>
   </g>
   <g id="text_27">
    <!-- Precision packaging -->
    <g style="fill: #0b1c2c" transform="translate(224.87418 360.59806) scale(0.085 -0.085)">
     <defs>
      <path id="DejaVuSans-Bold-6b" d="M 538 4863 
L 1656 4863 
L 1656 2216 
L 2944 3500 
L 4244 3500 
L 2534 1894 
L 4378 0 
L 3022 0 
L 1656 1459 
L 1656 0 
L 538 0 
L 538 4863 
z
" transform="scale(0.015625)"/>
     </defs>
     <use xlink:href="#DejaVuSans-Bold-50"/>
     <use xlink:href="#DejaVuSans-Bold-72" x="73.291016"/>
     <use xlink:href="#DejaVuSans-Bold-65" x="122.607422"/>
     <use xlink:href="#DejaVuSans-Bold-63" x="190.429688"/>
     <use xlink:href="#DejaVuSans-Bold-69" x="249.707031"/>
     <use xlink:href="#DejaVuSans-Bold-73" x="283.984375"/>
     <use xlink:href="#DejaVuSans-Bold-69" x="343.505859"/>
     <use xlink:href="#DejaVuSans-Bold-6f" x="377.783203"/>
     <use xlink:href="#DejaVuSans-Bold-6e" x="446.484375"/>
     <use xlink:href="#DejaVuSans-Bold-20" x="517.675781"/>
     <use xlink:href="#DejaVuSans-Bold-70" x="552.490234"/>
     <use xlink:href="#DejaVuSans-Bold-61" x="624.072266"/>
     <use xlink:href="#DejaVuSans-Bold-63" x="691.552734"/>
     <use xlink:href="#DejaVuSans-Bold-6b" x="750.830078"/>
     <use xlink:href="#DejaVuSans-Bold-61" x="817.333984"/>
     <use xlink:href="#DejaVuSans-Bold-67" x="884.814453"/>
     <use xlink:href="#DejaVuSans-Bold-69" x="956.396484"/>
     <use xlink:href="#DejaVuSans-Bold-6e" x="990.673828"/>
     <use xlink:href="#DejaVuSans-Bold-67" x="1061.865234"/>
    </g>
   </g>
   <g id="text_28">
    <!-- Regulatory compliance svc -->
    <g style="fill: #0b1c2c" transform="translate(136.217617 378.605445) scale(0.085 -0.085)">
     <use xlink:href="#DejaVuSans-Bold-52"/>
     <use xlink:href="#DejaVuSans-Bold-65" x="77.001953"/>
     <use xlink:href="#DejaVuSans-Bold-67" x="144.824219"/>
     <use xlink:href="#DejaVuSans-Bold-75" x="216.40625"/>
     <use xlink:href="#DejaVuSans-Bold-6c" x="287.597656"/>
     <use xlink:href="#DejaVuSans-Bold-61" x="321.875"/>
     <use xlink:href="#DejaVuSans-Bold-74" x="389.355469"/>
     <use xlink:href="#DejaVuSans-Bold-6f" x="437.158203"/>
     <use xlink:href="#DejaVuSans-Bold-72" x="505.859375"/>
     <use xlink:href="#DejaVuSans-Bold-79" x="555.175781"/>
     <use xlink:href="#DejaVuSans-Bold-20" x="620.361328"/>
     <use xlink:href="#DejaVuSans-Bold-63" x="655.175781"/>
     <use xlink:href="#DejaVuSans-Bold-6f" x="714.453125"/>
     <use xlink:href="#DejaVuSans-Bold-6d" x="783.154297"/>
     <use xlink:href="#DejaVuSans-Bold-70" x="887.353516"/>
     <use xlink:href="#DejaVuSans-Bold-6c" x="958.935547"/>
     <use xlink:href="#DejaVuSans-Bold-69" x="993.212891"/>
     <use xlink:href="#DejaVuSans-Bold-61" x="1027.490234"/>
     <use xlink:href="#DejaVuSans-Bold-6e" x="1094.970703"/>
     <use xlink:href="#DejaVuSans-Bold-63" x="1166.162109"/>
     <use xlink:href="#DejaVuSans-Bold-65" x="1225.439453"/>
     <use xlink:href="#DejaVuSans-Bold-20" x="1293.261719"/>
     <use xlink:href="#DejaVuSans-Bold-73" x="1328.076172"/>
     <use xlink:href="#DejaVuSans-Bold-76" x="1387.597656"/>
     <use xlink:href="#DejaVuSans-Bold-63" x="1452.783203"/>
    </g>
   </g>
   <g id="text_29">
    <!-- Payload integrators -->
    <g style="fill: #0b1c2c" transform="translate(298.35625 291.569752) scale(0.085 -0.085)">
     <use xlink:href="#DejaVuSans-Bold-50"/>
     <use xlink:href="#DejaVuSans-Bold-61" x="70.666016"/>
     <use xlink:href="#DejaVuSans-Bold-79" x="135.021484"/>
     <use xlink:href="#DejaVuSans-Bold-6c" x="200.207031"/>
     <use xlink:href="#DejaVuSans-Bold-6f" x="234.484375"/>
     <use xlink:href="#DejaVuSans-Bold-61" x="303.185547"/>
     <use xlink:href="#DejaVuSans-Bold-64" x="370.666016"/>
     <use xlink:href="#DejaVuSans-Bold-20" x="442.248047"/>
     <use xlink:href="#DejaVuSans-Bold-69" x="477.0625"/>
     <use xlink:href="#DejaVuSans-Bold-6e" x="511.339844"/>
     <use xlink:href="#DejaVuSans-Bold-74" x="582.53125"/>
     <use xlink:href="#DejaVuSans-Bold-65" x="630.333984"/>
     <use xlink:href="#DejaVuSans-Bold-67" x="698.15625"/>
     <use xlink:href="#DejaVuSans-Bold-72" x="769.738281"/>
     <use xlink:href="#DejaVuSans-Bold-61" x="819.054688"/>
     <use xlink:href="#DejaVuSans-Bold-74" x="886.535156"/>
     <use xlink:href="#DejaVuSans-Bold-6f" x="934.337891"/>
     <use xlink:href="#DejaVuSans-Bold-72" x="1003.039062"/>
     <use xlink:href="#DejaVuSans-Bold-73" x="1052.355469"/>
    </g>
   </g>
   <g id="text_30">
    <!-- Ground handling -->
    <g style="fill: #0b1c2c" transform="translate(269.309375 342.590675) scale(0.085 -0.085)">
     <defs>
      <path id="DejaVuSans-Bold-47" d="M 4781 347 
Q 4331 128 3847 18 
Q 3363 -91 2847 -91 
Q 1681 -91 1000 561 
Q 319 1213 319 2328 
Q 319 3456 1012 4103 
Q 1706 4750 2913 4750 
Q 3378 4750 3804 4662 
Q 4231 4575 4609 4403 
L 4609 3438 
Q 4219 3659 3833 3768 
Q 3447 3878 3059 3878 
Q 2341 3878 1952 3476 
Q 1563 3075 1563 2328 
Q 1563 1588 1938 1184 
Q 2313 781 3003 781 
Q 3191 781 3352 804 
Q 3513 828 3641 878 
L 3641 1784 
L 2906 1784 
L 2906 2591 
L 4781 2591 
L 4781 347 
z
" transform="scale(0.015625)"/>
     </defs>
     <use xlink:href="#DejaVuSans-Bold-47"/>
     <use xlink:href="#DejaVuSans-Bold-72" x="82.080078"/>
     <use xlink:href="#DejaVuSans-Bold-6f" x="131.396484"/>
     <use xlink:href="#DejaVuSans-Bold-75" x="200.097656"/>
     <use xlink:href="#DejaVuSans-Bold-6e" x="271.289062"/>
     <use xlink:href="#DejaVuSans-Bold-64" x="342.480469"/>
     <use xlink:href="#DejaVuSans-Bold-20" x="414.0625"/>
     <use xlink:href="#DejaVuSans-Bold-68" x="448.876953"/>
     <use xlink:href="#DejaVuSans-Bold-61" x="520.068359"/>
     <use xlink:href="#DejaVuSans-Bold-6e" x="587.548828"/>
     <use xlink:href="#DejaVuSans-Bold-64" x="658.740234"/>
     <use xlink:href="#DejaVuSans-Bold-6c" x="730.322266"/>
     <use xlink:href="#DejaVuSans-Bold-69" x="764.599609"/>
     <use xlink:href="#DejaVuSans-Bold-6e" x="798.876953"/>
     <use xlink:href="#DejaVuSans-Bold-67" x="870.068359"/>
    </g>
   </g>
   <g id="text_31">
    <!-- Drone traffic mgmt -->
    <g style="fill: #0b1c2c" transform="translate(481.012539 240.548829) scale(0.085 -0.085)">
     <defs>
      <path id="DejaVuSans-Bold-66" d="M 2841 4863 
L 2841 4128 
L 2222 4128 
Q 1984 4128 1890 4042 
Q 1797 3956 1797 3744 
L 1797 3500 
L 2753 3500 
L 2753 2700 
L 1797 2700 
L 1797 0 
L 678 0 
L 678 2700 
L 122 2700 
L 122 3500 
L 678 3500 
L 678 3744 
Q 678 4316 997 4589 
Q 1316 4863 1984 4863 
L 2841 4863 
z
" transform="scale(0.015625)"/>
     </defs>
     <use xlink:href="#DejaVuSans-Bold-44"/>
     <use xlink:href="#DejaVuSans-Bold-72" x="83.007812"/>
     <use xlink:href="#DejaVuSans-Bold-6f" x="132.324219"/>
     <use xlink:href="#DejaVuSans-Bold-6e" x="201.025391"/>
     <use xlink:href="#DejaVuSans-Bold-65" x="272.216797"/>
     <use xlink:href="#DejaVuSans-Bold-20" x="340.039062"/>
     <use xlink:href="#DejaVuSans-Bold-74" x="374.853516"/>
     <use xlink:href="#DejaVuSans-Bold-72" x="422.65625"/>
     <use xlink:href="#DejaVuSans-Bold-61" x="471.972656"/>
     <use xlink:href="#DejaVuSans-Bold-66" x="539.453125"/>
     <use xlink:href="#DejaVuSans-Bold-66" x="582.958984"/>
     <use xlink:href="#DejaVuSans-Bold-69" x="626.464844"/>
     <use xlink:href="#DejaVuSans-Bold-63" x="660.742188"/>
     <use xlink:href="#DejaVuSans-Bold-20" x="720.019531"/>
     <use xlink:href="#DejaVuSans-Bold-6d" x="754.833984"/>
     <use xlink:href="#DejaVuSans-Bold-67" x="859.033203"/>
     <use xlink:href="#DejaVuSans-Bold-6d" x="930.615234"/>
     <use xlink:href="#DejaVuSans-Bold-74" x="1034.814453"/>
    </g>
   </g>
   <g id="text_32">
    <!-- Components mfg -->
    <g style="fill: #0b1c2c" transform="translate(595.147969 114.497137) scale(0.085 -0.085)">
     <use xlink:href="#DejaVuSans-Bold-43"/>
     <use xlink:href="#DejaVuSans-Bold-6f" x="73.388672"/>
     <use xlink:href="#DejaVuSans-Bold-6d" x="142.089844"/>
     <use xlink:href="#DejaVuSans-Bold-70" x="246.289062"/>
     <use xlink:href="#DejaVuSans-Bold-6f" x="317.871094"/>
     <use xlink:href="#DejaVuSans-Bold-6e" x="386.572266"/>
     <use xlink:href="#DejaVuSans-Bold-65" x="457.763672"/>
     <use xlink:href="#DejaVuSans-Bold-6e" x="525.585938"/>
     <use xlink:href="#DejaVuSans-Bold-74" x="596.777344"/>
     <use xlink:href="#DejaVuSans-Bold-73" x="644.580078"/>
     <use xlink:href="#DejaVuSans-Bold-20" x="704.101562"/>
     <use xlink:href="#DejaVuSans-Bold-6d" x="738.916016"/>
     <use xlink:href="#DejaVuSans-Bold-66" x="843.115234"/>
     <use xlink:href="#DejaVuSans-Bold-67" x="886.621094"/>
    </g>
   </g>
   <g id="text_33">
    <!-- QUICK WINS -->
    <g style="fill: #2e8b57; opacity: 0.7" transform="translate(133.044375 55.232323) scale(0.09 -0.09)">
     <defs>
      <path id="DejaVuSans-Bold-51" d="M 2847 -84 
L 2753 -84 
Q 1600 -84 959 553 
Q 319 1191 319 2328 
Q 319 3463 958 4106 
Q 1597 4750 2719 4750 
Q 3853 4750 4486 4112 
Q 5119 3475 5119 2328 
Q 5119 1541 4783 972 
Q 4447 403 3816 116 
L 4756 -934 
L 3609 -934 
L 2847 -84 
z
M 2719 3878 
Q 2169 3878 1866 3472 
Q 1563 3066 1563 2328 
Q 1563 1578 1859 1179 
Q 2156 781 2719 781 
Q 3272 781 3575 1187 
Q 3878 1594 3878 2328 
Q 3878 3066 3575 3472 
Q 3272 3878 2719 3878 
z
" transform="scale(0.015625)"/>
      <path id="DejaVuSans-Bold-4b" d="M 588 4666 
L 1791 4666 
L 1791 2963 
L 3525 4666 
L 4922 4666 
L 2675 2456 
L 5153 0 
L 3647 0 
L 1791 1838 
L 1791 0 
L 588 0 
L 588 4666 
z
" transform="scale(0.015625)"/>
      <path id="DejaVuSans-Bold-57" d="M 191 4666 
L 1344 4666 
L 2150 1275 
L 2950 4666 
L 4109 4666 
L 4909 1275 
L 5716 4666 
L 6859 4666 
L 5759 0 
L 4372 0 
L 3525 3547 
L 2688 0 
L 1300 0 
L 191 4666 
z
" transform="scale(0.015625)"/>
     </defs>
     <use xlink:href="#DejaVuSans-Bold-51"/>
     <use xlink:href="#DejaVuSans-Bold-55" x="85.009766"/>
     <use xlink:href="#DejaVuSans-Bold-49" x="166.210938"/>
     <use xlink:href="#DejaVuSans-Bold-43" x="203.417969"/>
     <use xlink:href="#DejaVuSans-Bold-4b" x="276.806641"/>
     <use xlink:href="#DejaVuSans-Bold-20" x="354.296875"/>
     <use xlink:href="#DejaVuSans-Bold-57" x="389.111328"/>
     <use xlink:href="#DejaVuSans-Bold-49" x="499.414062"/>
     <use xlink:href="#DejaVuSans-Bold-4e" x="536.621094"/>
     <use xlink:href="#DejaVuSans-Bold-53" x="620.3125"/>
    </g>
    <!-- (small TAM, fast TTR) -->
    <g style="fill: #2e8b57; opacity: 0.7" transform="translate(109.975547 65.310355) scale(0.09 -0.09)">
     <defs>
      <path id="DejaVuSans-Bold-2c" d="M 653 1209 
L 1778 1209 
L 1778 256 
L 1006 -909 
L 341 -909 
L 653 256 
L 653 1209 
z
" transform="scale(0.015625)"/>
     </defs>
     <use xlink:href="#DejaVuSans-Bold-28"/>
     <use xlink:href="#DejaVuSans-Bold-73" x="45.703125"/>
     <use xlink:href="#DejaVuSans-Bold-6d" x="105.224609"/>
     <use xlink:href="#DejaVuSans-Bold-61" x="209.423828"/>
     <use xlink:href="#DejaVuSans-Bold-6c" x="276.904297"/>
     <use xlink:href="#DejaVuSans-Bold-6c" x="311.181641"/>
     <use xlink:href="#DejaVuSans-Bold-20" x="345.458984"/>
     <use xlink:href="#DejaVuSans-Bold-54" x="380.273438"/>
     <use xlink:href="#DejaVuSans-Bold-41" x="440.736328"/>
     <use xlink:href="#DejaVuSans-Bold-4d" x="518.128906"/>
     <use xlink:href="#DejaVuSans-Bold-2c" x="617.640625"/>
     <use xlink:href="#DejaVuSans-Bold-20" x="655.628906"/>
     <use xlink:href="#DejaVuSans-Bold-66" x="690.443359"/>
     <use xlink:href="#DejaVuSans-Bold-61" x="733.949219"/>
     <use xlink:href="#DejaVuSans-Bold-73" x="801.429688"/>
     <use xlink:href="#DejaVuSans-Bold-74" x="860.951172"/>
     <use xlink:href="#DejaVuSans-Bold-20" x="908.753906"/>
     <use xlink:href="#DejaVuSans-Bold-54" x="943.568359"/>
     <use xlink:href="#DejaVuSans-Bold-54" x="1014.03125"/>
     <use xlink:href="#DejaVuSans-Bold-52" x="1082.244141"/>
     <use xlink:href="#DejaVuSans-Bold-29" x="1159.246094"/>
    </g>
   </g>
   <g id="text_34">
    <!-- STRATEGIC BETS -->
    <g style="fill: #0b1c2c; opacity: 0.7" transform="translate(630.048906 55.232323) scale(0.09 -0.09)">
     <defs>
      <path id="DejaVuSans-Bold-45" d="M 588 4666 
L 3834 4666 
L 3834 3756 
L 1791 3756 
L 1791 2888 
L 3713 2888 
L 3713 1978 
L 1791 1978 
L 1791 909 
L 3903 909 
L 3903 0 
L 588 0 
L 588 4666 
z
" transform="scale(0.015625)"/>
     </defs>
     <use xlink:href="#DejaVuSans-Bold-53"/>
     <use xlink:href="#DejaVuSans-Bold-54" x="72.021484"/>
     <use xlink:href="#DejaVuSans-Bold-52" x="140.234375"/>
     <use xlink:href="#DejaVuSans-Bold-41" x="217.236328"/>
     <use xlink:href="#DejaVuSans-Bold-54" x="286.878906"/>
     <use xlink:href="#DejaVuSans-Bold-45" x="355.091797"/>
     <use xlink:href="#DejaVuSans-Bold-47" x="423.402344"/>
     <use xlink:href="#DejaVuSans-Bold-49" x="505.482422"/>
     <use xlink:href="#DejaVuSans-Bold-43" x="542.689453"/>
     <use xlink:href="#DejaVuSans-Bold-20" x="616.078125"/>
     <use xlink:href="#DejaVuSans-Bold-42" x="650.892578"/>
     <use xlink:href="#DejaVuSans-Bold-45" x="727.113281"/>
     <use xlink:href="#DejaVuSans-Bold-54" x="795.423828"/>
     <use xlink:href="#DejaVuSans-Bold-53" x="863.636719"/>
    </g>
    <!-- (large TAM, slow TTR) -->
    <g style="fill: #0b1c2c; opacity: 0.7" transform="translate(616.701484 65.310355) scale(0.09 -0.09)">
     <use xlink:href="#DejaVuSans-Bold-28"/>
     <use xlink:href="#DejaVuSans-Bold-6c" x="45.703125"/>
     <use xlink:href="#DejaVuSans-Bold-61" x="79.980469"/>
     <use xlink:href="#DejaVuSans-Bold-72" x="147.460938"/>
     <use xlink:href="#DejaVuSans-Bold-67" x="196.777344"/>
     <use xlink:href="#DejaVuSans-Bold-65" x="268.359375"/>
     <use xlink:href="#DejaVuSans-Bold-20" x="336.181641"/>
     <use xlink:href="#DejaVuSans-Bold-54" x="370.996094"/>
     <use xlink:href="#DejaVuSans-Bold-41" x="431.458984"/>
     <use xlink:href="#DejaVuSans-Bold-4d" x="508.851562"/>
     <use xlink:href="#DejaVuSans-Bold-2c" x="608.363281"/>
     <use xlink:href="#DejaVuSans-Bold-20" x="646.351562"/>
     <use xlink:href="#DejaVuSans-Bold-73" x="681.166016"/>
     <use xlink:href="#DejaVuSans-Bold-6c" x="740.6875"/>
     <use xlink:href="#DejaVuSans-Bold-6f" x="774.964844"/>
     <use xlink:href="#DejaVuSans-Bold-77" x="843.666016"/>
     <use xlink:href="#DejaVuSans-Bold-20" x="936.048828"/>
     <use xlink:href="#DejaVuSans-Bold-54" x="970.863281"/>
     <use xlink:href="#DejaVuSans-Bold-54" x="1041.326172"/>
     <use xlink:href="#DejaVuSans-Bold-52" x="1109.539062"/>
     <use xlink:href="#DejaVuSans-Bold-29" x="1186.541016"/>
    </g>
   </g>
   <g id="text_35">
    <!-- NICHE PLAYS -->
    <g style="fill: #7b8794; opacity: 0.7" transform="translate(131.335078 385.367708) scale(0.09 -0.09)">
     <defs>
      <path id="DejaVuSans-Bold-48" d="M 588 4666 
L 1791 4666 
L 1791 2888 
L 3566 2888 
L 3566 4666 
L 4769 4666 
L 4769 0 
L 3566 0 
L 3566 1978 
L 1791 1978 
L 1791 0 
L 588 0 
L 588 4666 
z
" transform="scale(0.015625)"/>
      <path id="DejaVuSans-Bold-59" d="M -63 4666 
L 1253 4666 
L 2316 3003 
L 3378 4666 
L 4697 4666 
L 2919 1966 
L 2919 0 
L 1716 0 
L 1716 1966 
L -63 4666 
z
" transform="scale(0.015625)"/>
     </defs>
     <use xlink:href="#DejaVuSans-Bold-4e"/>
     <use xlink:href="#DejaVuSans-Bold-49" x="83.691406"/>
     <use xlink:href="#DejaVuSans-Bold-43" x="120.898438"/>
     <use xlink:href="#DejaVuSans-Bold-48" x="194.287109"/>
     <use xlink:href="#DejaVuSans-Bold-45" x="277.978516"/>
     <use xlink:href="#DejaVuSans-Bold-20" x="346.289062"/>
     <use xlink:href="#DejaVuSans-Bold-50" x="381.103516"/>
     <use xlink:href="#DejaVuSans-Bold-4c" x="454.394531"/>
     <use xlink:href="#DejaVuSans-Bold-41" x="518.115234"/>
     <use xlink:href="#DejaVuSans-Bold-59" x="585.882812"/>
     <use xlink:href="#DejaVuSans-Bold-53" x="658.294922"/>
    </g>
    <!-- (small TAM, fast TTR) -->
    <g style="fill: #7b8794; opacity: 0.7" transform="translate(109.975547 395.445739) scale(0.09 -0.09)">
     <use xlink:href="#DejaVuSans-Bold-28"/>
     <use xlink:href="#DejaVuSans-Bold-73" x="45.703125"/>
     <use xlink:href="#DejaVuSans-Bold-6d" x="105.224609"/>
     <use xlink:href="#DejaVuSans-Bold-61" x="209.423828"/>
     <use xlink:href="#DejaVuSans-Bold-6c" x="276.904297"/>
     <use xlink:href="#DejaVuSans-Bold-6c" x="311.181641"/>
     <use xlink:href="#DejaVuSans-Bold-20" x="345.458984"/>
     <use xlink:href="#DejaVuSans-Bold-54" x="380.273438"/>
     <use xlink:href="#DejaVuSans-Bold-41" x="440.736328"/>
     <use xlink:href="#DejaVuSans-Bold-4d" x="518.128906"/>
     <use xlink:href="#DejaVuSans-Bold-2c" x="617.640625"/>
     <use xlink:href="#DejaVuSans-Bold-20" x="655.628906"/>
     <use xlink:href="#DejaVuSans-Bold-66" x="690.443359"/>
     <use xlink:href="#DejaVuSans-Bold-61" x="733.949219"/>
     <use xlink:href="#DejaVuSans-Bold-73" x="801.429688"/>
     <use xlink:href="#DejaVuSans-Bold-74" x="860.951172"/>
     <use xlink:href="#DejaVuSans-Bold-20" x="908.753906"/>
     <use xlink:href="#DejaVuSans-Bold-54" x="943.568359"/>
     <use xlink:href="#DejaVuSans-Bold-54" x="1014.03125"/>
     <use xlink:href="#DejaVuSans-Bold-52" x="1082.244141"/>
     <use xlink:href="#DejaVuSans-Bold-29" x="1159.246094"/>
    </g>
   </g>
   <g id="text_36">
    <!-- PATIENCE PLAYS -->
    <g style="fill: #e8a317; opacity: 0.7" transform="translate(630.890547 385.367708) scale(0.09 -0.09)">
     <use xlink:href="#DejaVuSans-Bold-50"/>
     <use xlink:href="#DejaVuSans-Bold-41" x="64.166016"/>
     <use xlink:href="#DejaVuSans-Bold-54" x="133.808594"/>
     <use xlink:href="#DejaVuSans-Bold-49" x="202.021484"/>
     <use xlink:href="#DejaVuSans-Bold-45" x="239.228516"/>
     <use xlink:href="#DejaVuSans-Bold-4e" x="307.539062"/>
     <use xlink:href="#DejaVuSans-Bold-43" x="391.230469"/>
     <use xlink:href="#DejaVuSans-Bold-45" x="464.619141"/>
     <use xlink:href="#DejaVuSans-Bold-20" x="532.929688"/>
     <use xlink:href="#DejaVuSans-Bold-50" x="567.744141"/>
     <use xlink:href="#DejaVuSans-Bold-4c" x="641.035156"/>
     <use xlink:href="#DejaVuSans-Bold-41" x="704.755859"/>
     <use xlink:href="#DejaVuSans-Bold-59" x="772.523438"/>
     <use xlink:href="#DejaVuSans-Bold-53" x="844.935547"/>
    </g>
    <!-- (large TAM, slow TTR) -->
    <g style="fill: #e8a317; opacity: 0.7" transform="translate(616.701484 395.445739) scale(0.09 -0.09)">
     <use xlink:href="#DejaVuSans-Bold-28"/>
     <use xlink:href="#DejaVuSans-Bold-6c" x="45.703125"/>
     <use xlink:href="#DejaVuSans-Bold-61" x="79.980469"/>
     <use xlink:href="#DejaVuSans-Bold-72" x="147.460938"/>
     <use xlink:href="#DejaVuSans-Bold-67" x="196.777344"/>
     <use xlink:href="#DejaVuSans-Bold-65" x="268.359375"/>
     <use xlink:href="#DejaVuSans-Bold-20" x="336.181641"/>
     <use xlink:href="#DejaVuSans-Bold-54" x="370.996094"/>
     <use xlink:href="#DejaVuSans-Bold-41" x="431.458984"/>
     <use xlink:href="#DejaVuSans-Bold-4d" x="508.851562"/>
     <use xlink:href="#DejaVuSans-Bold-2c" x="608.363281"/>
     <use xlink:href="#DejaVuSans-Bold-20" x="646.351562"/>
     <use xlink:href="#DejaVuSans-Bold-73" x="681.166016"/>
     <use xlink:href="#DejaVuSans-Bold-6c" x="740.6875"/>
     <use xlink:href="#DejaVuSans-Bold-6f" x="774.964844"/>
     <use xlink:href="#DejaVuSans-Bold-77" x="843.666016"/>
     <use xlink:href="#DejaVuSans-Bold-20" x="936.048828"/>
     <use xlink:href="#DejaVuSans-Bold-54" x="970.863281"/>
     <use xlink:href="#DejaVuSans-Bold-54" x="1041.326172"/>
     <use xlink:href="#DejaVuSans-Bold-52" x="1109.539062"/>
     <use xlink:href="#DejaVuSans-Bold-29" x="1186.541016"/>
    </g>
   </g>
   <g id="text_37">
    <!-- Hidden Opportunity Surfaces — Priority Matrix (bubble size = moat strength) -->
    <g style="fill: #0b1c2c" transform="translate(145.392734 20.298047) scale(0.125 -0.125)">
     <defs>
      <path id="DejaVuSans-Bold-2014" d="M 344 2156 
L 6056 2156 
L 6056 1350 
L 344 1350 
L 344 2156 
z
" transform="scale(0.015625)"/>
      <path id="DejaVuSans-Bold-78" d="M 1422 1791 
L 159 3500 
L 1344 3500 
L 2059 2463 
L 2784 3500 
L 3969 3500 
L 2706 1797 
L 4031 0 
L 2847 0 
L 2059 1106 
L 1281 0 
L 97 0 
L 1422 1791 
z
" transform="scale(0.015625)"/>
      <path id="DejaVuSans-Bold-7a" d="M 366 3500 
L 3419 3500 
L 3419 2719 
L 1575 800 
L 3419 800 
L 3419 0 
L 288 0 
L 288 781 
L 2131 2700 
L 366 2700 
L 366 3500 
z
" transform="scale(0.015625)"/>
      <path id="DejaVuSans-Bold-3d" d="M 678 3084 
L 4684 3084 
L 4684 2350 
L 678 2350 
L 678 3084 
z
M 678 1663 
L 4684 1663 
L 4684 922 
L 678 922 
L 678 1663 
z
" transform="scale(0.015625)"/>
     </defs>
     <use xlink:href="#DejaVuSans-Bold-48"/>
     <use xlink:href="#DejaVuSans-Bold-69" x="83.691406"/>
     <use xlink:href="#DejaVuSans-Bold-64" x="117.96875"/>
     <use xlink:href="#DejaVuSans-Bold-64" x="189.550781"/>
     <use xlink:href="#DejaVuSans-Bold-65" x="261.132812"/>
     <use xlink:href="#DejaVuSans-Bold-6e" x="328.955078"/>
     <use xlink:href="#DejaVuSans-Bold-20" x="400.146484"/>
     <use xlink:href="#DejaVuSans-Bold-4f" x="434.960938"/>
     <use xlink:href="#DejaVuSans-Bold-70" x="519.970703"/>
     <use xlink:href="#DejaVuSans-Bold-70" x="591.552734"/>
     <use xlink:href="#DejaVuSans-Bold-6f" x="663.134766"/>
     <use xlink:href="#DejaVuSans-Bold-72" x="731.835938"/>
     <use xlink:href="#DejaVuSans-Bold-74" x="781.152344"/>
     <use xlink:href="#DejaVuSans-Bold-75" x="828.955078"/>
     <use xlink:href="#DejaVuSans-Bold-6e" x="900.146484"/>
     <use xlink:href="#DejaVuSans-Bold-69" x="971.337891"/>
     <use xlink:href="#DejaVuSans-Bold-74" x="1005.615234"/>
     <use xlink:href="#DejaVuSans-Bold-79" x="1053.417969"/>
     <use xlink:href="#DejaVuSans-Bold-20" x="1118.603516"/>
     <use xlink:href="#DejaVuSans-Bold-53" x="1153.417969"/>
     <use xlink:href="#DejaVuSans-Bold-75" x="1225.439453"/>
     <use xlink:href="#DejaVuSans-Bold-72" x="1296.630859"/>
     <use xlink:href="#DejaVuSans-Bold-66" x="1345.947266"/>
     <use xlink:href="#DejaVuSans-Bold-61" x="1389.453125"/>
     <use xlink:href="#DejaVuSans-Bold-63" x="1456.933594"/>
     <use xlink:href="#DejaVuSans-Bold-65" x="1516.210938"/>
     <use xlink:href="#DejaVuSans-Bold-73" x="1584.033203"/>
     <use xlink:href="#DejaVuSans-Bold-20" x="1643.554688"/>
     <use xlink:href="#DejaVuSans-Bold-2014" x="1678.369141"/>
     <use xlink:href="#DejaVuSans-Bold-20" x="1778.369141"/>
     <use xlink:href="#DejaVuSans-Bold-50" x="1813.183594"/>
     <use xlink:href="#DejaVuSans-Bold-72" x="1886.474609"/>
     <use xlink:href="#DejaVuSans-Bold-69" x="1935.791016"/>
     <use xlink:href="#DejaVuSans-Bold-6f" x="1970.068359"/>
     <use xlink:href="#DejaVuSans-Bold-72" x="2038.769531"/>
     <use xlink:href="#DejaVuSans-Bold-69" x="2088.085938"/>
     <use xlink:href="#DejaVuSans-Bold-74" x="2122.363281"/>
     <use xlink:href="#DejaVuSans-Bold-79" x="2170.166016"/>
     <use xlink:href="#DejaVuSans-Bold-20" x="2235.351562"/>
     <use xlink:href="#DejaVuSans-Bold-4d" x="2270.166016"/>
     <use xlink:href="#DejaVuSans-Bold-61" x="2369.677734"/>
     <use xlink:href="#DejaVuSans-Bold-74" x="2437.158203"/>
     <use xlink:href="#DejaVuSans-Bold-72" x="2484.960938"/>
     <use xlink:href="#DejaVuSans-Bold-69" x="2534.277344"/>
     <use xlink:href="#DejaVuSans-Bold-78" x="2568.554688"/>
     <use xlink:href="#DejaVuSans-Bold-20" x="2633.056641"/>
     <use xlink:href="#DejaVuSans-Bold-28" x="2667.871094"/>
     <use xlink:href="#DejaVuSans-Bold-62" x="2713.574219"/>
     <use xlink:href="#DejaVuSans-Bold-75" x="2785.15625"/>
     <use xlink:href="#DejaVuSans-Bold-62" x="2856.347656"/>
     <use xlink:href="#DejaVuSans-Bold-62" x="2927.929688"/>
     <use xlink:href="#DejaVuSans-Bold-6c" x="2999.511719"/>
     <use xlink:href="#DejaVuSans-Bold-65" x="3033.789062"/>
     <use xlink:href="#DejaVuSans-Bold-20" x="3101.611328"/>
     <use xlink:href="#DejaVuSans-Bold-73" x="3136.425781"/>
     <use xlink:href="#DejaVuSans-Bold-69" x="3195.947266"/>
     <use xlink:href="#DejaVuSans-Bold-7a" x="3230.224609"/>
     <use xlink:href="#DejaVuSans-Bold-65" x="3288.427734"/>
     <use xlink:href="#DejaVuSans-Bold-20" x="3356.25"/>
     <use xlink:href="#DejaVuSans-Bold-3d" x="3391.064453"/>
     <use xlink:href="#DejaVuSans-Bold-20" x="3474.853516"/>
     <use xlink:href="#DejaVuSans-Bold-6d" x="3509.667969"/>
     <use xlink:href="#DejaVuSans-Bold-6f" x="3613.867188"/>
     <use xlink:href="#DejaVuSans-Bold-61" x="3682.568359"/>
     <use xlink:href="#DejaVuSans-Bold-74" x="3750.048828"/>
     <use xlink:href="#DejaVuSans-Bold-20" x="3797.851562"/>
     <use xlink:href="#DejaVuSans-Bold-73" x="3832.666016"/>
     <use xlink:href="#DejaVuSans-Bold-74" x="3892.1875"/>
     <use xlink:href="#DejaVuSans-Bold-72" x="3939.990234"/>
     <use xlink:href="#DejaVuSans-Bold-65" x="3989.306641"/>
     <use xlink:href="#DejaVuSans-Bold-6e" x="4057.128906"/>
     <use xlink:href="#DejaVuSans-Bold-67" x="4128.320312"/>
     <use xlink:href="#DejaVuSans-Bold-74" x="4199.902344"/>
     <use xlink:href="#DejaVuSans-Bold-68" x="4247.705078"/>
     <use xlink:href="#DejaVuSans-Bold-29" x="4318.896484"/>
    </g>
   </g>
  </g>
 </g>
 <defs>
  <clipPath id="p4da6f0ec00">
   <rect x="55.350938" y="35.298047" width="725.65" height="390.16"/>
  </clipPath>
 </defs>
</svg>
