<?xml version="1.0" encoding="utf-8" standalone="no"?>
<!DOCTYPE svg PUBLIC "-//W3C//DTD SVG 1.1//EN"
  "http://www.w3.org/Graphics/SVG/1.1/DTD/svg11.dtd">
<svg xmlns:xlink="http://www.w3.org/1999/xlink" width="827.920625pt" height="395.130708pt" viewBox="0 0 827.920625 395.130708" xmlns="http://www.w3.org/2000/svg" version="1.1">
 <title>18 Payload Matrix</title>
 <metadata>
  <rdf:RDF xmlns:dc="http://purl.org/dc/elements/1.1/" xmlns:cc="http://creativecommons.org/ns#" xmlns:rdf="http://www.w3.org/1999/02/22-rdf-syntax-ns#">
   <cc:Work>
    <dc:type rdf:resource="http://purl.org/dc/dcmitype/StillImage"/>
    <dc:title>18 Payload Matrix</dc:title>
    <dc:date>2026-07-09T01:46:48.404892</dc:date>
    <dc:format>image/svg+xml</dc:format>
    <dc:creator>
     <cc:Agent>
      <dc:title>Techadyant Industry Intelligence</dc:title>
     </cc:Agent>
    </dc:creator>
   </cc:Work>
  </rdf:RDF>
 </metadata>
 <defs>
  <style type="text/css">*{stroke-linejoin: round; stroke-linecap: butt}</style>
 </defs>
 <g id="figure_1">
  <g id="patch_1">
   <path d="M 0 395.130708 
L 827.920625 395.130708 
L 827.920625 0 
L 0 0 
z
" style="fill: #ffffff"/>
  </g>
  <g id="axes_1">
   <g id="patch_2">
    <path d="M 49.710625 349.840686 
L 817.120625 349.840686 
L 817.120625 35.677969 
L 49.710625 35.677969 
z
" style="fill: #ffffff"/>
   </g>
   <g id="matplotlib.axis_1">
    <g id="xtick_1">
     <g id="line2d_1">
      <defs>
       <path id="m1a3a520cb6" d="M 0 0 
L 0 3.5 
" style="stroke: #3d4a5c; stroke-width: 0.8"/>
      </defs>
      <g>
       <use xlink:href="#m1a3a520cb6" x="110.431618" y="349.840686" style="fill: #3d4a5c; stroke: #3d4a5c; stroke-width: 0.8"/>
      </g>
     </g>
     <g id="text_1">
      <!-- Healthcare -->
      <g style="fill: #3d4a5c" transform="translate(63.696887 380.043912) rotate(-20) scale(0.09 -0.09)">
       <defs>
        <path id="DejaVuSans-48" d="M 628 4666 
L 1259 4666 
L 1259 2753 
L 3553 2753 
L 3553 4666 
L 4184 4666 
L 4184 0 
L 3553 0 
L 3553 2222 
L 1259 2222 
L 1259 0 
L 628 0 
L 628 4666 
z
" transform="scale(0.015625)"/>
        <path id="DejaVuSans-65" d="M 3597 1894 
L 3597 1613 
L 953 1613 
Q 991 1019 1311 708 
Q 1631 397 2203 397 
Q 2534 397 2845 478 
Q 3156 559 3463 722 
L 3463 178 
Q 3153 47 2828 -22 
Q 2503 -91 2169 -91 
Q 1331 -91 842 396 
Q 353 884 353 1716 
Q 353 2575 817 3079 
Q 1281 3584 2069 3584 
Q 2775 3584 3186 3129 
Q 3597 2675 3597 1894 
z
M 3022 2063 
Q 3016 2534 2758 2815 
Q 2500 3097 2075 3097 
Q 1594 3097 1305 2825 
Q 1016 2553 972 2059 
L 3022 2063 
z
" transform="scale(0.015625)"/>
        <path id="DejaVuSans-61" d="M 2194 1759 
Q 1497 1759 1228 1600 
Q 959 1441 959 1056 
Q 959 750 1161 570 
Q 1363 391 1709 391 
Q 2188 391 2477 730 
Q 2766 1069 2766 1631 
L 2766 1759 
L 2194 1759 
z
M 3341 1997 
L 3341 0 
L 2766 0 
L 2766 531 
Q 2569 213 2275 61 
Q 1981 -91 1556 -91 
Q 1019 -91 701 211 
Q 384 513 384 1019 
Q 384 1609 779 1909 
Q 1175 2209 1959 2209 
L 2766 2209 
L 2766 2266 
Q 2766 2663 2505 2880 
Q 2244 3097 1772 3097 
Q 1472 3097 1187 3025 
Q 903 2953 641 2809 
L 641 3341 
Q 956 3463 1253 3523 
Q 1550 3584 1831 3584 
Q 2591 3584 2966 3190 
Q 3341 2797 3341 1997 
z
" transform="scale(0.015625)"/>
        <path id="DejaVuSans-6c" d="M 603 4863 
L 1178 4863 
L 1178 0 
L 603 0 
L 603 4863 
z
" transform="scale(0.015625)"/>
        <path id="DejaVuSans-74" d="M 1172 4494 
L 1172 3500 
L 2356 3500 
L 2356 3053 
L 1172 3053 
L 1172 1153 
Q 1172 725 1289 603 
Q 1406 481 1766 481 
L 2356 481 
L 2356 0 
L 1766 0 
Q 1100 0 847 248 
Q 594 497 594 1153 
L 594 3053 
L 172 3053 
L 172 3500 
L 594 3500 
L 594 4494 
L 1172 4494 
z
" transform="scale(0.015625)"/>
        <path id="DejaVuSans-68" d="M 3513 2113 
L 3513 0 
L 2938 0 
L 2938 2094 
Q 2938 2591 2744 2837 
Q 2550 3084 2163 3084 
Q 1697 3084 1428 2787 
Q 1159 2491 1159 1978 
L 1159 0 
L 581 0 
L 581 4863 
L 1159 4863 
L 1159 2956 
Q 1366 3272 1645 3428 
Q 1925 3584 2291 3584 
Q 2894 3584 3203 3211 
Q 3513 2838 3513 2113 
z
" transform="scale(0.015625)"/>
        <path id="DejaVuSans-63" d="M 3122 3366 
L 3122 2828 
Q 2878 2963 2633 3030 
Q 2388 3097 2138 3097 
Q 1578 3097 1268 2742 
Q 959 2388 959 1747 
Q 959 1106 1268 751 
Q 1578 397 2138 397 
Q 2388 397 2633 464 
Q 2878 531 3122 666 
L 3122 134 
Q 2881 22 2623 -34 
Q 2366 -91 2075 -91 
Q 1284 -91 818 406 
Q 353 903 353 1747 
Q 353 2603 823 3093 
Q 1294 3584 2113 3584 
Q 2378 3584 2631 3529 
Q 2884 3475 3122 3366 
z
" transform="scale(0.015625)"/>
        <path id="DejaVuSans-72" d="M 2631 2963 
Q 2534 3019 2420 3045 
Q 2306 3072 2169 3072 
Q 1681 3072 1420 2755 
Q 1159 2438 1159 1844 
L 1159 0 
L 581 0 
L 581 3500 
L 1159 3500 
L 1159 2956 
Q 1341 3275 1631 3429 
Q 1922 3584 2338 3584 
Q 2397 3584 2469 3576 
Q 2541 3569 2628 3553 
L 2631 2963 
z
" transform="scale(0.015625)"/>
       </defs>
       <use xlink:href="#DejaVuSans-48"/>
       <use xlink:href="#DejaVuSans-65" x="75.195312"/>
       <use xlink:href="#DejaVuSans-61" x="136.71875"/>
       <use xlink:href="#DejaVuSans-6c" x="197.998047"/>
       <use xlink:href="#DejaVuSans-74" x="225.78125"/>
       <use xlink:href="#DejaVuSans-68" x="264.990234"/>
       <use xlink:href="#DejaVuSans-63" x="328.369141"/>
       <use xlink:href="#DejaVuSans-61" x="383.349609"/>
       <use xlink:href="#DejaVuSans-72" x="444.628906"/>
       <use xlink:href="#DejaVuSans-65" x="483.492188"/>
      </g>
     </g>
    </g>
    <g id="xtick_2">
     <g id="line2d_2">
      <g>
       <use xlink:href="#m1a3a520cb6" x="182.205842" y="349.840686" style="fill: #3d4a5c; stroke: #3d4a5c; stroke-width: 0.8"/>
      </g>
     </g>
     <g id="text_2">
      <!-- E-commerce -->
      <g style="fill: #3d4a5c" transform="translate(128.525607 382.571868) rotate(-20) scale(0.09 -0.09)">
       <defs>
        <path id="DejaVuSans-45" d="M 628 4666 
L 3578 4666 
L 3578 4134 
L 1259 4134 
L 1259 2753 
L 3481 2753 
L 3481 2222 
L 1259 2222 
L 1259 531 
L 3634 531 
L 3634 0 
L 628 0 
L 628 4666 
z
" transform="scale(0.015625)"/>
        <path id="DejaVuSans-2d" d="M 313 2009 
L 1997 2009 
L 1997 1497 
L 313 1497 
L 313 2009 
z
" transform="scale(0.015625)"/>
        <path id="DejaVuSans-6f" d="M 1959 3097 
Q 1497 3097 1228 2736 
Q 959 2375 959 1747 
Q 959 1119 1226 758 
Q 1494 397 1959 397 
Q 2419 397 2687 759 
Q 2956 1122 2956 1747 
Q 2956 2369 2687 2733 
Q 2419 3097 1959 3097 
z
M 1959 3584 
Q 2709 3584 3137 3096 
Q 3566 2609 3566 1747 
Q 3566 888 3137 398 
Q 2709 -91 1959 -91 
Q 1206 -91 779 398 
Q 353 888 353 1747 
Q 353 2609 779 3096 
Q 1206 3584 1959 3584 
z
" transform="scale(0.015625)"/>
        <path id="DejaVuSans-6d" d="M 3328 2828 
Q 3544 3216 3844 3400 
Q 4144 3584 4550 3584 
Q 5097 3584 5394 3201 
Q 5691 2819 5691 2113 
L 5691 0 
L 5113 0 
L 5113 2094 
Q 5113 2597 4934 2840 
Q 4756 3084 4391 3084 
Q 3944 3084 3684 2787 
Q 3425 2491 3425 1978 
L 3425 0 
L 2847 0 
L 2847 2094 
Q 2847 2600 2669 2842 
Q 2491 3084 2119 3084 
Q 1678 3084 1418 2786 
Q 1159 2488 1159 1978 
L 1159 0 
L 581 0 
L 581 3500 
L 1159 3500 
L 1159 2956 
Q 1356 3278 1631 3431 
Q 1906 3584 2284 3584 
Q 2666 3584 2933 3390 
Q 3200 3197 3328 2828 
z
" transform="scale(0.015625)"/>
       </defs>
       <use xlink:href="#DejaVuSans-45"/>
       <use xlink:href="#DejaVuSans-2d" x="63.183594"/>
       <use xlink:href="#DejaVuSans-63" x="99.267578"/>
       <use xlink:href="#DejaVuSans-6f" x="154.248047"/>
       <use xlink:href="#DejaVuSans-6d" x="215.429688"/>
       <use xlink:href="#DejaVuSans-6d" x="312.841797"/>
       <use xlink:href="#DejaVuSans-65" x="410.253906"/>
       <use xlink:href="#DejaVuSans-72" x="471.777344"/>
       <use xlink:href="#DejaVuSans-63" x="510.640625"/>
       <use xlink:href="#DejaVuSans-65" x="565.621094"/>
      </g>
     </g>
    </g>
    <g id="xtick_3">
     <g id="line2d_3">
      <g>
       <use xlink:href="#m1a3a520cb6" x="253.980066" y="349.840686" style="fill: #3d4a5c; stroke: #3d4a5c; stroke-width: 0.8"/>
      </g>
     </g>
     <g id="text_3">
      <!-- Industrial -->
      <g style="fill: #3d4a5c" transform="translate(213.676796 377.703051) rotate(-20) scale(0.09 -0.09)">
       <defs>
        <path id="DejaVuSans-49" d="M 628 4666 
L 1259 4666 
L 1259 0 
L 628 0 
L 628 4666 
z
" transform="scale(0.015625)"/>
        <path id="DejaVuSans-6e" d="M 3513 2113 
L 3513 0 
L 2938 0 
L 2938 2094 
Q 2938 2591 2744 2837 
Q 2550 3084 2163 3084 
Q 1697 3084 1428 2787 
Q 1159 2491 1159 1978 
L 1159 0 
L 581 0 
L 581 3500 
L 1159 3500 
L 1159 2956 
Q 1366 3272 1645 3428 
Q 1925 3584 2291 3584 
Q 2894 3584 3203 3211 
Q 3513 2838 3513 2113 
z
" transform="scale(0.015625)"/>
        <path id="DejaVuSans-64" d="M 2906 2969 
L 2906 4863 
L 3481 4863 
L 3481 0 
L 2906 0 
L 2906 525 
Q 2725 213 2448 61 
Q 2172 -91 1784 -91 
Q 1150 -91 751 415 
Q 353 922 353 1747 
Q 353 2572 751 3078 
Q 1150 3584 1784 3584 
Q 2172 3584 2448 3432 
Q 2725 3281 2906 2969 
z
M 947 1747 
Q 947 1113 1208 752 
Q 1469 391 1925 391 
Q 2381 391 2643 752 
Q 2906 1113 2906 1747 
Q 2906 2381 2643 2742 
Q 2381 3103 1925 3103 
Q 1469 3103 1208 2742 
Q 947 2381 947 1747 
z
" transform="scale(0.015625)"/>
        <path id="DejaVuSans-75" d="M 544 1381 
L 544 3500 
L 1119 3500 
L 1119 1403 
Q 1119 906 1312 657 
Q 1506 409 1894 409 
Q 2359 409 2629 706 
Q 2900 1003 2900 1516 
L 2900 3500 
L 3475 3500 
L 3475 0 
L 2900 0 
L 2900 538 
Q 2691 219 2414 64 
Q 2138 -91 1772 -91 
Q 1169 -91 856 284 
Q 544 659 544 1381 
z
M 1991 3584 
L 1991 3584 
z
" transform="scale(0.015625)"/>
        <path id="DejaVuSans-73" d="M 2834 3397 
L 2834 2853 
Q 2591 2978 2328 3040 
Q 2066 3103 1784 3103 
Q 1356 3103 1142 2972 
Q 928 2841 928 2578 
Q 928 2378 1081 2264 
Q 1234 2150 1697 2047 
L 1894 2003 
Q 2506 1872 2764 1633 
Q 3022 1394 3022 966 
Q 3022 478 2636 193 
Q 2250 -91 1575 -91 
Q 1294 -91 989 -36 
Q 684 19 347 128 
L 347 722 
Q 666 556 975 473 
Q 1284 391 1588 391 
Q 1994 391 2212 530 
Q 2431 669 2431 922 
Q 2431 1156 2273 1281 
Q 2116 1406 1581 1522 
L 1381 1569 
Q 847 1681 609 1914 
Q 372 2147 372 2553 
Q 372 3047 722 3315 
Q 1072 3584 1716 3584 
Q 2034 3584 2315 3537 
Q 2597 3491 2834 3397 
z
" transform="scale(0.015625)"/>
        <path id="DejaVuSans-69" d="M 603 3500 
L 1178 3500 
L 1178 0 
L 603 0 
L 603 3500 
z
M 603 4863 
L 1178 4863 
L 1178 4134 
L 603 4134 
L 603 4863 
z
" transform="scale(0.015625)"/>
       </defs>
       <use xlink:href="#DejaVuSans-49"/>
       <use xlink:href="#DejaVuSans-6e" x="29.492188"/>
       <use xlink:href="#DejaVuSans-64" x="92.871094"/>
       <use xlink:href="#DejaVuSans-75" x="156.347656"/>
       <use xlink:href="#DejaVuSans-73" x="219.726562"/>
       <use xlink:href="#DejaVuSans-74" x="271.826172"/>
       <use xlink:href="#DejaVuSans-72" x="311.035156"/>
       <use xlink:href="#DejaVuSans-69" x="352.148438"/>
       <use xlink:href="#DejaVuSans-61" x="379.931641"/>
       <use xlink:href="#DejaVuSans-6c" x="441.210938"/>
      </g>
     </g>
    </g>
    <g id="xtick_4">
     <g id="line2d_4">
      <g>
       <use xlink:href="#m1a3a520cb6" x="325.754289" y="349.840686" style="fill: #3d4a5c; stroke: #3d4a5c; stroke-width: 0.8"/>
      </g>
     </g>
     <g id="text_4">
      <!-- Mining -->
      <g style="fill: #3d4a5c" transform="translate(297.029501 373.488828) rotate(-20) scale(0.09 -0.09)">
       <defs>
        <path id="DejaVuSans-4d" d="M 628 4666 
L 1569 4666 
L 2759 1491 
L 3956 4666 
L 4897 4666 
L 4897 0 
L 4281 0 
L 4281 4097 
L 3078 897 
L 2444 897 
L 1241 4097 
L 1241 0 
L 628 0 
L 628 4666 
z
" transform="scale(0.015625)"/>
        <path id="DejaVuSans-67" d="M 2906 1791 
Q 2906 2416 2648 2759 
Q 2391 3103 1925 3103 
Q 1463 3103 1205 2759 
Q 947 2416 947 1791 
Q 947 1169 1205 825 
Q 1463 481 1925 481 
Q 2391 481 2648 825 
Q 2906 1169 2906 1791 
z
M 3481 434 
Q 3481 -459 3084 -895 
Q 2688 -1331 1869 -1331 
Q 1566 -1331 1297 -1286 
Q 1028 -1241 775 -1147 
L 775 -588 
Q 1028 -725 1275 -790 
Q 1522 -856 1778 -856 
Q 2344 -856 2625 -561 
Q 2906 -266 2906 331 
L 2906 616 
Q 2728 306 2450 153 
Q 2172 0 1784 0 
Q 1141 0 747 490 
Q 353 981 353 1791 
Q 353 2603 747 3093 
Q 1141 3584 1784 3584 
Q 2172 3584 2450 3431 
Q 2728 3278 2906 2969 
L 2906 3500 
L 3481 3500 
L 3481 434 
z
" transform="scale(0.015625)"/>
       </defs>
       <use xlink:href="#DejaVuSans-4d"/>
       <use xlink:href="#DejaVuSans-69" x="86.279297"/>
       <use xlink:href="#DejaVuSans-6e" x="114.0625"/>
       <use xlink:href="#DejaVuSans-69" x="177.441406"/>
       <use xlink:href="#DejaVuSans-6e" x="205.224609"/>
       <use xlink:href="#DejaVuSans-67" x="268.603516"/>
      </g>
     </g>
    </g>
    <g id="xtick_5">
     <g id="line2d_5">
      <g>
       <use xlink:href="#m1a3a520cb6" x="397.528513" y="349.840686" style="fill: #3d4a5c; stroke: #3d4a5c; stroke-width: 0.8"/>
      </g>
     </g>
     <g id="text_5">
      <!-- Energy -->
      <g style="fill: #3d4a5c" transform="translate(367.277459 374.044344) rotate(-20) scale(0.09 -0.09)">
       <defs>
        <path id="DejaVuSans-79" d="M 2059 -325 
Q 1816 -950 1584 -1140 
Q 1353 -1331 966 -1331 
L 506 -1331 
L 506 -850 
L 844 -850 
Q 1081 -850 1212 -737 
Q 1344 -625 1503 -206 
L 1606 56 
L 191 3500 
L 800 3500 
L 1894 763 
L 2988 3500 
L 3597 3500 
L 2059 -325 
z
" transform="scale(0.015625)"/>
       </defs>
       <use xlink:href="#DejaVuSans-45"/>
       <use xlink:href="#DejaVuSans-6e" x="63.183594"/>
       <use xlink:href="#DejaVuSans-65" x="126.5625"/>
       <use xlink:href="#DejaVuSans-72" x="188.085938"/>
       <use xlink:href="#DejaVuSans-67" x="227.449219"/>
       <use xlink:href="#DejaVuSans-79" x="290.925781"/>
      </g>
     </g>
    </g>
    <g id="xtick_6">
     <g id="line2d_6">
      <g>
       <use xlink:href="#m1a3a520cb6" x="469.302737" y="349.840686" style="fill: #3d4a5c; stroke: #3d4a5c; stroke-width: 0.8"/>
      </g>
     </g>
     <g id="text_6">
      <!-- Oil &amp; Gas -->
      <g style="fill: #3d4a5c" transform="translate(429.193719 377.632349) rotate(-20) scale(0.09 -0.09)">
       <defs>
        <path id="DejaVuSans-4f" d="M 2522 4238 
Q 1834 4238 1429 3725 
Q 1025 3213 1025 2328 
Q 1025 1447 1429 934 
Q 1834 422 2522 422 
Q 3209 422 3611 934 
Q 4013 1447 4013 2328 
Q 4013 3213 3611 3725 
Q 3209 4238 2522 4238 
z
M 2522 4750 
Q 3503 4750 4090 4092 
Q 4678 3434 4678 2328 
Q 4678 1225 4090 567 
Q 3503 -91 2522 -91 
Q 1538 -91 948 565 
Q 359 1222 359 2328 
Q 359 3434 948 4092 
Q 1538 4750 2522 4750 
z
" transform="scale(0.015625)"/>
        <path id="DejaVuSans-20" transform="scale(0.015625)"/>
        <path id="DejaVuSans-26" d="M 1556 2509 
Q 1272 2256 1139 2004 
Q 1006 1753 1006 1478 
Q 1006 1022 1337 719 
Q 1669 416 2169 416 
Q 2466 416 2725 514 
Q 2984 613 3213 813 
L 1556 2509 
z
M 1997 2859 
L 3584 1234 
Q 3769 1513 3872 1830 
Q 3975 2147 3994 2503 
L 4575 2503 
Q 4538 2091 4375 1687 
Q 4213 1284 3922 891 
L 4794 0 
L 4006 0 
L 3559 459 
Q 3234 181 2878 45 
Q 2522 -91 2113 -91 
Q 1359 -91 881 339 
Q 403 769 403 1441 
Q 403 1841 612 2192 
Q 822 2544 1241 2853 
Q 1091 3050 1012 3245 
Q 934 3441 934 3628 
Q 934 4134 1281 4442 
Q 1628 4750 2203 4750 
Q 2463 4750 2720 4694 
Q 2978 4638 3244 4525 
L 3244 3956 
Q 2972 4103 2725 4179 
Q 2478 4256 2266 4256 
Q 1938 4256 1733 4082 
Q 1528 3909 1528 3634 
Q 1528 3475 1620 3314 
Q 1713 3153 1997 2859 
z
" transform="scale(0.015625)"/>
        <path id="DejaVuSans-47" d="M 3809 666 
L 3809 1919 
L 2778 1919 
L 2778 2438 
L 4434 2438 
L 4434 434 
Q 4069 175 3628 42 
Q 3188 -91 2688 -91 
Q 1594 -91 976 548 
Q 359 1188 359 2328 
Q 359 3472 976 4111 
Q 1594 4750 2688 4750 
Q 3144 4750 3555 4637 
Q 3966 4525 4313 4306 
L 4313 3634 
Q 3963 3931 3569 4081 
Q 3175 4231 2741 4231 
Q 1884 4231 1454 3753 
Q 1025 3275 1025 2328 
Q 1025 1384 1454 906 
Q 1884 428 2741 428 
Q 3075 428 3337 486 
Q 3600 544 3809 666 
z
" transform="scale(0.015625)"/>
       </defs>
       <use xlink:href="#DejaVuSans-4f"/>
       <use xlink:href="#DejaVuSans-69" x="78.710938"/>
       <use xlink:href="#DejaVuSans-6c" x="106.494141"/>
       <use xlink:href="#DejaVuSans-20" x="134.277344"/>
       <use xlink:href="#DejaVuSans-26" x="166.064453"/>
       <use xlink:href="#DejaVuSans-20" x="244.042969"/>
       <use xlink:href="#DejaVuSans-47" x="275.830078"/>
       <use xlink:href="#DejaVuSans-61" x="353.320312"/>
       <use xlink:href="#DejaVuSans-73" x="414.599609"/>
      </g>
     </g>
    </g>
    <g id="xtick_7">
     <g id="line2d_7">
      <g>
       <use xlink:href="#m1a3a520cb6" x="541.076961" y="349.840686" style="fill: #3d4a5c; stroke: #3d4a5c; stroke-width: 0.8"/>
      </g>
     </g>
     <g id="text_7">
      <!-- Ports -->
      <g style="fill: #3d4a5c" transform="translate(519.271247 370.970491) rotate(-20) scale(0.09 -0.09)">
       <defs>
        <path id="DejaVuSans-50" d="M 1259 4147 
L 1259 2394 
L 2053 2394 
Q 2494 2394 2734 2622 
Q 2975 2850 2975 3272 
Q 2975 3691 2734 3919 
Q 2494 4147 2053 4147 
L 1259 4147 
z
M 628 4666 
L 2053 4666 
Q 2838 4666 3239 4311 
Q 3641 3956 3641 3272 
Q 3641 2581 3239 2228 
Q 2838 1875 2053 1875 
L 1259 1875 
L 1259 0 
L 628 0 
L 628 4666 
z
" transform="scale(0.015625)"/>
       </defs>
       <use xlink:href="#DejaVuSans-50"/>
       <use xlink:href="#DejaVuSans-6f" x="56.677734"/>
       <use xlink:href="#DejaVuSans-72" x="117.859375"/>
       <use xlink:href="#DejaVuSans-74" x="158.972656"/>
       <use xlink:href="#DejaVuSans-73" x="198.181641"/>
      </g>
     </g>
    </g>
    <g id="xtick_8">
     <g id="line2d_8">
      <g>
       <use xlink:href="#m1a3a520cb6" x="612.851184" y="349.840686" style="fill: #3d4a5c; stroke: #3d4a5c; stroke-width: 0.8"/>
      </g>
     </g>
     <g id="text_8">
      <!-- Agriculture -->
      <g style="fill: #3d4a5c" transform="translate(565.705484 380.193492) rotate(-20) scale(0.09 -0.09)">
       <defs>
        <path id="DejaVuSans-41" d="M 2188 4044 
L 1331 1722 
L 3047 1722 
L 2188 4044 
z
M 1831 4666 
L 2547 4666 
L 4325 0 
L 3669 0 
L 3244 1197 
L 1141 1197 
L 716 0 
L 50 0 
L 1831 4666 
z
" transform="scale(0.015625)"/>
       </defs>
       <use xlink:href="#DejaVuSans-41"/>
       <use xlink:href="#DejaVuSans-67" x="68.408203"/>
       <use xlink:href="#DejaVuSans-72" x="131.884766"/>
       <use xlink:href="#DejaVuSans-69" x="172.998047"/>
       <use xlink:href="#DejaVuSans-63" x="200.78125"/>
       <use xlink:href="#DejaVuSans-75" x="255.761719"/>
       <use xlink:href="#DejaVuSans-6c" x="319.140625"/>
       <use xlink:href="#DejaVuSans-74" x="346.923828"/>
       <use xlink:href="#DejaVuSans-75" x="386.132812"/>
       <use xlink:href="#DejaVuSans-72" x="449.511719"/>
       <use xlink:href="#DejaVuSans-65" x="488.375"/>
      </g>
     </g>
    </g>
    <g id="xtick_9">
     <g id="line2d_9">
      <g>
       <use xlink:href="#m1a3a520cb6" x="684.625408" y="349.840686" style="fill: #3d4a5c; stroke: #3d4a5c; stroke-width: 0.8"/>
      </g>
     </g>
     <g id="text_9">
      <!-- Railways -->
      <g style="fill: #3d4a5c" transform="translate(646.90688 376.762282) rotate(-20) scale(0.09 -0.09)">
       <defs>
        <path id="DejaVuSans-52" d="M 2841 2188 
Q 3044 2119 3236 1894 
Q 3428 1669 3622 1275 
L 4263 0 
L 3584 0 
L 2988 1197 
Q 2756 1666 2539 1819 
Q 2322 1972 1947 1972 
L 1259 1972 
L 1259 0 
L 628 0 
L 628 4666 
L 2053 4666 
Q 2853 4666 3247 4331 
Q 3641 3997 3641 3322 
Q 3641 2881 3436 2590 
Q 3231 2300 2841 2188 
z
M 1259 4147 
L 1259 2491 
L 2053 2491 
Q 2509 2491 2742 2702 
Q 2975 2913 2975 3322 
Q 2975 3731 2742 3939 
Q 2509 4147 2053 4147 
L 1259 4147 
z
" transform="scale(0.015625)"/>
        <path id="DejaVuSans-77" d="M 269 3500 
L 844 3500 
L 1563 769 
L 2278 3500 
L 2956 3500 
L 3675 769 
L 4391 3500 
L 4966 3500 
L 4050 0 
L 3372 0 
L 2619 2869 
L 1863 0 
L 1184 0 
L 269 3500 
z
" transform="scale(0.015625)"/>
       </defs>
       <use xlink:href="#DejaVuSans-52"/>
       <use xlink:href="#DejaVuSans-61" x="67.232422"/>
       <use xlink:href="#DejaVuSans-69" x="128.511719"/>
       <use xlink:href="#DejaVuSans-6c" x="156.294922"/>
       <use xlink:href="#DejaVuSans-77" x="184.078125"/>
       <use xlink:href="#DejaVuSans-61" x="265.865234"/>
       <use xlink:href="#DejaVuSans-79" x="327.144531"/>
       <use xlink:href="#DejaVuSans-73" x="386.324219"/>
      </g>
     </g>
    </g>
    <g id="xtick_10">
     <g id="line2d_10">
      <g>
       <use xlink:href="#m1a3a520cb6" x="756.399632" y="349.840686" style="fill: #3d4a5c; stroke: #3d4a5c; stroke-width: 0.8"/>
      </g>
     </g>
     <g id="text_10">
      <!-- Smart City -->
      <g style="fill: #3d4a5c" transform="translate(710.913664 379.589399) rotate(-20) scale(0.09 -0.09)">
       <defs>
        <path id="DejaVuSans-53" d="M 3425 4513 
L 3425 3897 
Q 3066 4069 2747 4153 
Q 2428 4238 2131 4238 
Q 1616 4238 1336 4038 
Q 1056 3838 1056 3469 
Q 1056 3159 1242 3001 
Q 1428 2844 1947 2747 
L 2328 2669 
Q 3034 2534 3370 2195 
Q 3706 1856 3706 1288 
Q 3706 609 3251 259 
Q 2797 -91 1919 -91 
Q 1588 -91 1214 -16 
Q 841 59 441 206 
L 441 856 
Q 825 641 1194 531 
Q 1563 422 1919 422 
Q 2459 422 2753 634 
Q 3047 847 3047 1241 
Q 3047 1584 2836 1778 
Q 2625 1972 2144 2069 
L 1759 2144 
Q 1053 2284 737 2584 
Q 422 2884 422 3419 
Q 422 4038 858 4394 
Q 1294 4750 2059 4750 
Q 2388 4750 2728 4690 
Q 3069 4631 3425 4513 
z
" transform="scale(0.015625)"/>
        <path id="DejaVuSans-43" d="M 4122 4306 
L 4122 3641 
Q 3803 3938 3442 4084 
Q 3081 4231 2675 4231 
Q 1875 4231 1450 3742 
Q 1025 3253 1025 2328 
Q 1025 1406 1450 917 
Q 1875 428 2675 428 
Q 3081 428 3442 575 
Q 3803 722 4122 1019 
L 4122 359 
Q 3791 134 3420 21 
Q 3050 -91 2638 -91 
Q 1578 -91 968 557 
Q 359 1206 359 2328 
Q 359 3453 968 4101 
Q 1578 4750 2638 4750 
Q 3056 4750 3426 4639 
Q 3797 4528 4122 4306 
z
" transform="scale(0.015625)"/>
       </defs>
       <use xlink:href="#DejaVuSans-53"/>
       <use xlink:href="#DejaVuSans-6d" x="63.476562"/>
       <use xlink:href="#DejaVuSans-61" x="160.888672"/>
       <use xlink:href="#DejaVuSans-72" x="222.167969"/>
       <use xlink:href="#DejaVuSans-74" x="263.28125"/>
       <use xlink:href="#DejaVuSans-20" x="302.490234"/>
       <use xlink:href="#DejaVuSans-43" x="334.277344"/>
       <use xlink:href="#DejaVuSans-69" x="404.101562"/>
       <use xlink:href="#DejaVuSans-74" x="431.884766"/>
       <use xlink:href="#DejaVuSans-79" x="471.09375"/>
      </g>
     </g>
    </g>
   </g>
   <g id="matplotlib.axis_2">
    <g id="ytick_1">
     <g id="line2d_11">
      <path d="M 49.710625 349.840686 
L 817.120625 349.840686 
" clip-path="url(#pcd52b4e977)" style="fill: none; stroke: #c8d0da; stroke-opacity: 0.25; stroke-width: 0.6; stroke-linecap: square"/>
     </g>
     <g id="line2d_12">
      <defs>
       <path id="mfdf9304229" d="M 0 0 
L -3.5 0 
" style="stroke: #3d4a5c; stroke-width: 0.8"/>
      </defs>
      <g>
       <use xlink:href="#mfdf9304229" x="49.710625" y="349.840686" style="fill: #3d4a5c; stroke: #3d4a5c; stroke-width: 0.8"/>
      </g>
     </g>
     <g id="text_11">
      <!-- 0 -->
      <g style="fill: #3d4a5c" transform="translate(36.984375 353.259982) scale(0.09 -0.09)">
       <defs>
        <path id="DejaVuSans-30" d="M 2034 4250 
Q 1547 4250 1301 3770 
Q 1056 3291 1056 2328 
Q 1056 1369 1301 889 
Q 1547 409 2034 409 
Q 2525 409 2770 889 
Q 3016 1369 3016 2328 
Q 3016 3291 2770 3770 
Q 2525 4250 2034 4250 
z
M 2034 4750 
Q 2819 4750 3233 4129 
Q 3647 3509 3647 2328 
Q 3647 1150 3233 529 
Q 2819 -91 2034 -91 
Q 1250 -91 836 529 
Q 422 1150 422 2328 
Q 422 3509 836 4129 
Q 1250 4750 2034 4750 
z
" transform="scale(0.015625)"/>
       </defs>
       <use xlink:href="#DejaVuSans-30"/>
      </g>
     </g>
    </g>
    <g id="ytick_2">
     <g id="line2d_13">
      <path d="M 49.710625 304.960297 
L 817.120625 304.960297 
" clip-path="url(#pcd52b4e977)" style="fill: none; stroke: #c8d0da; stroke-opacity: 0.25; stroke-width: 0.6; stroke-linecap: square"/>
     </g>
     <g id="line2d_14">
      <g>
       <use xlink:href="#mfdf9304229" x="49.710625" y="304.960297" style="fill: #3d4a5c; stroke: #3d4a5c; stroke-width: 0.8"/>
      </g>
     </g>
     <g id="text_12">
      <!-- 20 -->
      <g style="fill: #3d4a5c" transform="translate(31.258125 308.379594) scale(0.09 -0.09)">
       <defs>
        <path id="DejaVuSans-32" d="M 1228 531 
L 3431 531 
L 3431 0 
L 469 0 
L 469 531 
Q 828 903 1448 1529 
Q 2069 2156 2228 2338 
Q 2531 2678 2651 2914 
Q 2772 3150 2772 3378 
Q 2772 3750 2511 3984 
Q 2250 4219 1831 4219 
Q 1534 4219 1204 4116 
Q 875 4013 500 3803 
L 500 4441 
Q 881 4594 1212 4672 
Q 1544 4750 1819 4750 
Q 2544 4750 2975 4387 
Q 3406 4025 3406 3419 
Q 3406 3131 3298 2873 
Q 3191 2616 2906 2266 
Q 2828 2175 2409 1742 
Q 1991 1309 1228 531 
z
" transform="scale(0.015625)"/>
       </defs>
       <use xlink:href="#DejaVuSans-32"/>
       <use xlink:href="#DejaVuSans-30" x="63.623047"/>
      </g>
     </g>
    </g>
    <g id="ytick_3">
     <g id="line2d_15">
      <path d="M 49.710625 260.079909 
L 817.120625 260.079909 
" clip-path="url(#pcd52b4e977)" style="fill: none; stroke: #c8d0da; stroke-opacity: 0.25; stroke-width: 0.6; stroke-linecap: square"/>
     </g>
     <g id="line2d_16">
      <g>
       <use xlink:href="#mfdf9304229" x="49.710625" y="260.079909" style="fill: #3d4a5c; stroke: #3d4a5c; stroke-width: 0.8"/>
      </g>
     </g>
     <g id="text_13">
      <!-- 40 -->
      <g style="fill: #3d4a5c" transform="translate(31.258125 263.499206) scale(0.09 -0.09)">
       <defs>
        <path id="DejaVuSans-34" d="M 2419 4116 
L 825 1625 
L 2419 1625 
L 2419 4116 
z
M 2253 4666 
L 3047 4666 
L 3047 1625 
L 3713 1625 
L 3713 1100 
L 3047 1100 
L 3047 0 
L 2419 0 
L 2419 1100 
L 313 1100 
L 313 1709 
L 2253 4666 
z
" transform="scale(0.015625)"/>
       </defs>
       <use xlink:href="#DejaVuSans-34"/>
       <use xlink:href="#DejaVuSans-30" x="63.623047"/>
      </g>
     </g>
    </g>
    <g id="ytick_4">
     <g id="line2d_17">
      <path d="M 49.710625 215.199521 
L 817.120625 215.199521 
" clip-path="url(#pcd52b4e977)" style="fill: none; stroke: #c8d0da; stroke-opacity: 0.25; stroke-width: 0.6; stroke-linecap: square"/>
     </g>
     <g id="line2d_18">
      <g>
       <use xlink:href="#mfdf9304229" x="49.710625" y="215.199521" style="fill: #3d4a5c; stroke: #3d4a5c; stroke-width: 0.8"/>
      </g>
     </g>
     <g id="text_14">
      <!-- 60 -->
      <g style="fill: #3d4a5c" transform="translate(31.258125 218.618818) scale(0.09 -0.09)">
       <defs>
        <path id="DejaVuSans-36" d="M 2113 2584 
Q 1688 2584 1439 2293 
Q 1191 2003 1191 1497 
Q 1191 994 1439 701 
Q 1688 409 2113 409 
Q 2538 409 2786 701 
Q 3034 994 3034 1497 
Q 3034 2003 2786 2293 
Q 2538 2584 2113 2584 
z
M 3366 4563 
L 3366 3988 
Q 3128 4100 2886 4159 
Q 2644 4219 2406 4219 
Q 1781 4219 1451 3797 
Q 1122 3375 1075 2522 
Q 1259 2794 1537 2939 
Q 1816 3084 2150 3084 
Q 2853 3084 3261 2657 
Q 3669 2231 3669 1497 
Q 3669 778 3244 343 
Q 2819 -91 2113 -91 
Q 1303 -91 875 529 
Q 447 1150 447 2328 
Q 447 3434 972 4092 
Q 1497 4750 2381 4750 
Q 2619 4750 2861 4703 
Q 3103 4656 3366 4563 
z
" transform="scale(0.015625)"/>
       </defs>
       <use xlink:href="#DejaVuSans-36"/>
       <use xlink:href="#DejaVuSans-30" x="63.623047"/>
      </g>
     </g>
    </g>
    <g id="ytick_5">
     <g id="line2d_19">
      <path d="M 49.710625 170.319133 
L 817.120625 170.319133 
" clip-path="url(#pcd52b4e977)" style="fill: none; stroke: #c8d0da; stroke-opacity: 0.25; stroke-width: 0.6; stroke-linecap: square"/>
     </g>
     <g id="line2d_20">
      <g>
       <use xlink:href="#mfdf9304229" x="49.710625" y="170.319133" style="fill: #3d4a5c; stroke: #3d4a5c; stroke-width: 0.8"/>
      </g>
     </g>
     <g id="text_15">
      <!-- 80 -->
      <g style="fill: #3d4a5c" transform="translate(31.258125 173.73843) scale(0.09 -0.09)">
       <defs>
        <path id="DejaVuSans-38" d="M 2034 2216 
Q 1584 2216 1326 1975 
Q 1069 1734 1069 1313 
Q 1069 891 1326 650 
Q 1584 409 2034 409 
Q 2484 409 2743 651 
Q 3003 894 3003 1313 
Q 3003 1734 2745 1975 
Q 2488 2216 2034 2216 
z
M 1403 2484 
Q 997 2584 770 2862 
Q 544 3141 544 3541 
Q 544 4100 942 4425 
Q 1341 4750 2034 4750 
Q 2731 4750 3128 4425 
Q 3525 4100 3525 3541 
Q 3525 3141 3298 2862 
Q 3072 2584 2669 2484 
Q 3125 2378 3379 2068 
Q 3634 1759 3634 1313 
Q 3634 634 3220 271 
Q 2806 -91 2034 -91 
Q 1263 -91 848 271 
Q 434 634 434 1313 
Q 434 1759 690 2068 
Q 947 2378 1403 2484 
z
M 1172 3481 
Q 1172 3119 1398 2916 
Q 1625 2713 2034 2713 
Q 2441 2713 2670 2916 
Q 2900 3119 2900 3481 
Q 2900 3844 2670 4047 
Q 2441 4250 2034 4250 
Q 1625 4250 1398 4047 
Q 1172 3844 1172 3481 
z
" transform="scale(0.015625)"/>
       </defs>
       <use xlink:href="#DejaVuSans-38"/>
       <use xlink:href="#DejaVuSans-30" x="63.623047"/>
      </g>
     </g>
    </g>
    <g id="ytick_6">
     <g id="line2d_21">
      <path d="M 49.710625 125.438745 
L 817.120625 125.438745 
" clip-path="url(#pcd52b4e977)" style="fill: none; stroke: #c8d0da; stroke-opacity: 0.25; stroke-width: 0.6; stroke-linecap: square"/>
     </g>
     <g id="line2d_22">
      <g>
       <use xlink:href="#mfdf9304229" x="49.710625" y="125.438745" style="fill: #3d4a5c; stroke: #3d4a5c; stroke-width: 0.8"/>
      </g>
     </g>
     <g id="text_16">
      <!-- 100 -->
      <g style="fill: #3d4a5c" transform="translate(25.531875 128.858042) scale(0.09 -0.09)">
       <defs>
        <path id="DejaVuSans-31" d="M 794 531 
L 1825 531 
L 1825 4091 
L 703 3866 
L 703 4441 
L 1819 4666 
L 2450 4666 
L 2450 531 
L 3481 531 
L 3481 0 
L 794 0 
L 794 531 
z
" transform="scale(0.015625)"/>
       </defs>
       <use xlink:href="#DejaVuSans-31"/>
       <use xlink:href="#DejaVuSans-30" x="63.623047"/>
       <use xlink:href="#DejaVuSans-30" x="127.246094"/>
      </g>
     </g>
    </g>
    <g id="ytick_7">
     <g id="line2d_23">
      <path d="M 49.710625 80.558357 
L 817.120625 80.558357 
" clip-path="url(#pcd52b4e977)" style="fill: none; stroke: #c8d0da; stroke-opacity: 0.25; stroke-width: 0.6; stroke-linecap: square"/>
     </g>
     <g id="line2d_24">
      <g>
       <use xlink:href="#mfdf9304229" x="49.710625" y="80.558357" style="fill: #3d4a5c; stroke: #3d4a5c; stroke-width: 0.8"/>
      </g>
     </g>
     <g id="text_17">
      <!-- 120 -->
      <g style="fill: #3d4a5c" transform="translate(25.531875 83.977654) scale(0.09 -0.09)">
       <use xlink:href="#DejaVuSans-31"/>
       <use xlink:href="#DejaVuSans-32" x="63.623047"/>
       <use xlink:href="#DejaVuSans-30" x="127.246094"/>
      </g>
     </g>
    </g>
    <g id="ytick_8">
     <g id="line2d_25">
      <path d="M 49.710625 35.677969 
L 817.120625 35.677969 
" clip-path="url(#pcd52b4e977)" style="fill: none; stroke: #c8d0da; stroke-opacity: 0.25; stroke-width: 0.6; stroke-linecap: square"/>
     </g>
     <g id="line2d_26">
      <g>
       <use xlink:href="#mfdf9304229" x="49.710625" y="35.677969" style="fill: #3d4a5c; stroke: #3d4a5c; stroke-width: 0.8"/>
      </g>
     </g>
     <g id="text_18">
      <!-- 140 -->
      <g style="fill: #3d4a5c" transform="translate(25.531875 39.097266) scale(0.09 -0.09)">
       <use xlink:href="#DejaVuSans-31"/>
       <use xlink:href="#DejaVuSans-34" x="63.623047"/>
       <use xlink:href="#DejaVuSans-30" x="127.246094"/>
      </g>
     </g>
    </g>
    <g id="text_19">
     <!-- Payload (kg) / Range (km) -->
     <g style="fill: #3d4a5c" transform="translate(19.158281 273.318858) rotate(-90) scale(0.11 -0.11)">
      <defs>
       <path id="DejaVuSans-Bold-50" d="M 588 4666 
L 2584 4666 
Q 3475 4666 3951 4270 
Q 4428 3875 4428 3144 
Q 4428 2409 3951 2014 
Q 3475 1619 2584 1619 
L 1791 1619 
L 1791 0 
L 588 0 
L 588 4666 
z
M 1791 3794 
L 1791 2491 
L 2456 2491 
Q 2806 2491 2997 2661 
Q 3188 2831 3188 3144 
Q 3188 3456 2997 3625 
Q 2806 3794 2456 3794 
L 1791 3794 
z
" transform="scale(0.015625)"/>
       <path id="DejaVuSans-Bold-61" d="M 2106 1575 
Q 1756 1575 1579 1456 
Q 1403 1338 1403 1106 
Q 1403 894 1545 773 
Q 1688 653 1941 653 
Q 2256 653 2472 879 
Q 2688 1106 2688 1447 
L 2688 1575 
L 2106 1575 
z
M 3816 1997 
L 3816 0 
L 2688 0 
L 2688 519 
Q 2463 200 2181 54 
Q 1900 -91 1497 -91 
Q 953 -91 614 226 
Q 275 544 275 1050 
Q 275 1666 698 1953 
Q 1122 2241 2028 2241 
L 2688 2241 
L 2688 2328 
Q 2688 2594 2478 2717 
Q 2269 2841 1825 2841 
Q 1466 2841 1156 2769 
Q 847 2697 581 2553 
L 581 3406 
Q 941 3494 1303 3539 
Q 1666 3584 2028 3584 
Q 2975 3584 3395 3211 
Q 3816 2838 3816 1997 
z
" transform="scale(0.015625)"/>
       <path id="DejaVuSans-Bold-79" d="M 78 3500 
L 1197 3500 
L 2138 1125 
L 2938 3500 
L 4056 3500 
L 2584 -331 
Q 2363 -916 2067 -1148 
Q 1772 -1381 1288 -1381 
L 641 -1381 
L 641 -647 
L 991 -647 
Q 1275 -647 1404 -556 
Q 1534 -466 1606 -231 
L 1638 -134 
L 78 3500 
z
" transform="scale(0.015625)"/>
       <path id="DejaVuSans-Bold-6c" d="M 538 4863 
L 1656 4863 
L 1656 0 
L 538 0 
L 538 4863 
z
" transform="scale(0.015625)"/>
       <path id="DejaVuSans-Bold-6f" d="M 2203 2784 
Q 1831 2784 1636 2517 
Q 1441 2250 1441 1747 
Q 1441 1244 1636 976 
Q 1831 709 2203 709 
Q 2569 709 2762 976 
Q 2956 1244 2956 1747 
Q 2956 2250 2762 2517 
Q 2569 2784 2203 2784 
z
M 2203 3584 
Q 3106 3584 3614 3096 
Q 4122 2609 4122 1747 
Q 4122 884 3614 396 
Q 3106 -91 2203 -91 
Q 1297 -91 786 396 
Q 275 884 275 1747 
Q 275 2609 786 3096 
Q 1297 3584 2203 3584 
z
" transform="scale(0.015625)"/>
       <path id="DejaVuSans-Bold-64" d="M 2919 2988 
L 2919 4863 
L 4044 4863 
L 4044 0 
L 2919 0 
L 2919 506 
Q 2688 197 2409 53 
Q 2131 -91 1766 -91 
Q 1119 -91 703 423 
Q 288 938 288 1747 
Q 288 2556 703 3070 
Q 1119 3584 1766 3584 
Q 2128 3584 2408 3439 
Q 2688 3294 2919 2988 
z
M 2181 722 
Q 2541 722 2730 984 
Q 2919 1247 2919 1747 
Q 2919 2247 2730 2509 
Q 2541 2772 2181 2772 
Q 1825 2772 1636 2509 
Q 1447 2247 1447 1747 
Q 1447 1247 1636 984 
Q 1825 722 2181 722 
z
" transform="scale(0.015625)"/>
       <path id="DejaVuSans-Bold-20" transform="scale(0.015625)"/>
       <path id="DejaVuSans-Bold-28" d="M 2413 -844 
L 1484 -844 
Q 1006 -72 778 623 
Q 550 1319 550 2003 
Q 550 2688 779 3389 
Q 1009 4091 1484 4856 
L 2413 4856 
Q 2013 4116 1813 3408 
Q 1613 2700 1613 2009 
Q 1613 1319 1811 609 
Q 2009 -100 2413 -844 
z
" transform="scale(0.015625)"/>
       <path id="DejaVuSans-Bold-6b" d="M 538 4863 
L 1656 4863 
L 1656 2216 
L 2944 3500 
L 4244 3500 
L 2534 1894 
L 4378 0 
L 3022 0 
L 1656 1459 
L 1656 0 
L 538 0 
L 538 4863 
z
" transform="scale(0.015625)"/>
       <path id="DejaVuSans-Bold-67" d="M 2919 594 
Q 2688 288 2409 144 
Q 2131 0 1766 0 
Q 1125 0 706 504 
Q 288 1009 288 1791 
Q 288 2575 706 3076 
Q 1125 3578 1766 3578 
Q 2131 3578 2409 3434 
Q 2688 3291 2919 2981 
L 2919 3500 
L 4044 3500 
L 4044 353 
Q 4044 -491 3511 -936 
Q 2978 -1381 1966 -1381 
Q 1638 -1381 1331 -1331 
Q 1025 -1281 716 -1178 
L 716 -306 
Q 1009 -475 1290 -558 
Q 1572 -641 1856 -641 
Q 2406 -641 2662 -400 
Q 2919 -159 2919 353 
L 2919 594 
z
M 2181 2772 
Q 1834 2772 1640 2515 
Q 1447 2259 1447 1791 
Q 1447 1309 1634 1061 
Q 1822 813 2181 813 
Q 2531 813 2725 1069 
Q 2919 1325 2919 1791 
Q 2919 2259 2725 2515 
Q 2531 2772 2181 2772 
z
" transform="scale(0.015625)"/>
       <path id="DejaVuSans-Bold-29" d="M 513 -844 
Q 913 -100 1113 609 
Q 1313 1319 1313 2009 
Q 1313 2700 1113 3408 
Q 913 4116 513 4856 
L 1441 4856 
Q 1916 4091 2145 3389 
Q 2375 2688 2375 2003 
Q 2375 1319 2147 623 
Q 1919 -72 1441 -844 
L 513 -844 
z
" transform="scale(0.015625)"/>
       <path id="DejaVuSans-Bold-2f" d="M 1644 4666 
L 2338 4666 
L 691 -594 
L 0 -594 
L 1644 4666 
z
" transform="scale(0.015625)"/>
       <path id="DejaVuSans-Bold-52" d="M 2297 2597 
Q 2675 2597 2839 2737 
Q 3003 2878 3003 3200 
Q 3003 3519 2839 3656 
Q 2675 3794 2297 3794 
L 1791 3794 
L 1791 2597 
L 2297 2597 
z
M 1791 1766 
L 1791 0 
L 588 0 
L 588 4666 
L 2425 4666 
Q 3347 4666 3776 4356 
Q 4206 4047 4206 3378 
Q 4206 2916 3982 2619 
Q 3759 2322 3309 2181 
Q 3556 2125 3751 1926 
Q 3947 1728 4147 1325 
L 4800 0 
L 3519 0 
L 2950 1159 
Q 2778 1509 2601 1637 
Q 2425 1766 2131 1766 
L 1791 1766 
z
" transform="scale(0.015625)"/>
       <path id="DejaVuSans-Bold-6e" d="M 4056 2131 
L 4056 0 
L 2931 0 
L 2931 347 
L 2931 1631 
Q 2931 2084 2911 2256 
Q 2891 2428 2841 2509 
Q 2775 2619 2662 2680 
Q 2550 2741 2406 2741 
Q 2056 2741 1856 2470 
Q 1656 2200 1656 1722 
L 1656 0 
L 538 0 
L 538 3500 
L 1656 3500 
L 1656 2988 
Q 1909 3294 2193 3439 
Q 2478 3584 2822 3584 
Q 3428 3584 3742 3212 
Q 4056 2841 4056 2131 
z
" transform="scale(0.015625)"/>
       <path id="DejaVuSans-Bold-65" d="M 4031 1759 
L 4031 1441 
L 1416 1441 
Q 1456 1047 1700 850 
Q 1944 653 2381 653 
Q 2734 653 3104 758 
Q 3475 863 3866 1075 
L 3866 213 
Q 3469 63 3072 -14 
Q 2675 -91 2278 -91 
Q 1328 -91 801 392 
Q 275 875 275 1747 
Q 275 2603 792 3093 
Q 1309 3584 2216 3584 
Q 3041 3584 3536 3087 
Q 4031 2591 4031 1759 
z
M 2881 2131 
Q 2881 2450 2695 2645 
Q 2509 2841 2209 2841 
Q 1884 2841 1681 2658 
Q 1478 2475 1428 2131 
L 2881 2131 
z
" transform="scale(0.015625)"/>
       <path id="DejaVuSans-Bold-6d" d="M 3781 2919 
Q 3994 3244 4286 3414 
Q 4578 3584 4928 3584 
Q 5531 3584 5847 3212 
Q 6163 2841 6163 2131 
L 6163 0 
L 5038 0 
L 5038 1825 
Q 5041 1866 5042 1909 
Q 5044 1953 5044 2034 
Q 5044 2406 4934 2573 
Q 4825 2741 4581 2741 
Q 4263 2741 4089 2478 
Q 3916 2216 3909 1719 
L 3909 0 
L 2784 0 
L 2784 1825 
Q 2784 2406 2684 2573 
Q 2584 2741 2328 2741 
Q 2006 2741 1831 2477 
Q 1656 2213 1656 1722 
L 1656 0 
L 531 0 
L 531 3500 
L 1656 3500 
L 1656 2988 
Q 1863 3284 2130 3434 
Q 2397 3584 2719 3584 
Q 3081 3584 3359 3409 
Q 3638 3234 3781 2919 
z
" transform="scale(0.015625)"/>
      </defs>
      <use xlink:href="#DejaVuSans-Bold-50"/>
      <use xlink:href="#DejaVuSans-Bold-61" x="70.666016"/>
      <use xlink:href="#DejaVuSans-Bold-79" x="135.021484"/>
      <use xlink:href="#DejaVuSans-Bold-6c" x="200.207031"/>
      <use xlink:href="#DejaVuSans-Bold-6f" x="234.484375"/>
      <use xlink:href="#DejaVuSans-Bold-61" x="303.185547"/>
      <use xlink:href="#DejaVuSans-Bold-64" x="370.666016"/>
      <use xlink:href="#DejaVuSans-Bold-20" x="442.248047"/>
      <use xlink:href="#DejaVuSans-Bold-28" x="477.0625"/>
      <use xlink:href="#DejaVuSans-Bold-6b" x="522.765625"/>
      <use xlink:href="#DejaVuSans-Bold-67" x="589.269531"/>
      <use xlink:href="#DejaVuSans-Bold-29" x="660.851562"/>
      <use xlink:href="#DejaVuSans-Bold-20" x="706.554688"/>
      <use xlink:href="#DejaVuSans-Bold-2f" x="741.369141"/>
      <use xlink:href="#DejaVuSans-Bold-20" x="777.892578"/>
      <use xlink:href="#DejaVuSans-Bold-52" x="812.707031"/>
      <use xlink:href="#DejaVuSans-Bold-61" x="889.708984"/>
      <use xlink:href="#DejaVuSans-Bold-6e" x="957.189453"/>
      <use xlink:href="#DejaVuSans-Bold-67" x="1028.380859"/>
      <use xlink:href="#DejaVuSans-Bold-65" x="1099.962891"/>
      <use xlink:href="#DejaVuSans-Bold-20" x="1167.785156"/>
      <use xlink:href="#DejaVuSans-Bold-28" x="1202.599609"/>
      <use xlink:href="#DejaVuSans-Bold-6b" x="1248.302734"/>
      <use xlink:href="#DejaVuSans-Bold-6d" x="1314.806641"/>
      <use xlink:href="#DejaVuSans-Bold-29" x="1419.005859"/>
     </g>
    </g>
   </g>
   <g id="patch_3">
    <path d="M 84.592898 349.840686 
L 110.431618 349.840686 
L 110.431618 345.352647 
L 84.592898 345.352647 
z
" clip-path="url(#pcd52b4e977)" style="fill: #0b1c2c"/>
   </g>
   <g id="patch_4">
    <path d="M 156.367121 349.840686 
L 182.205842 349.840686 
L 182.205842 343.108627 
L 156.367121 343.108627 
z
" clip-path="url(#pcd52b4e977)" style="fill: #0b1c2c"/>
   </g>
   <g id="patch_5">
    <path d="M 228.141345 349.840686 
L 253.980066 349.840686 
L 253.980066 338.620588 
L 228.141345 338.620588 
z
" clip-path="url(#pcd52b4e977)" style="fill: #0b1c2c"/>
   </g>
   <g id="patch_6">
    <path d="M 299.915569 349.840686 
L 325.754289 349.840686 
L 325.754289 331.88853 
L 299.915569 331.88853 
z
" clip-path="url(#pcd52b4e977)" style="fill: #0b1c2c"/>
   </g>
   <g id="patch_7">
    <path d="M 371.689793 349.840686 
L 397.528513 349.840686 
L 397.528513 336.376569 
L 371.689793 336.376569 
z
" clip-path="url(#pcd52b4e977)" style="fill: #0b1c2c"/>
   </g>
   <g id="patch_8">
    <path d="M 443.464016 349.840686 
L 469.302737 349.840686 
L 469.302737 334.13255 
L 443.464016 334.13255 
z
" clip-path="url(#pcd52b4e977)" style="fill: #0b1c2c"/>
   </g>
   <g id="patch_9">
    <path d="M 515.23824 349.840686 
L 541.076961 349.840686 
L 541.076961 322.912453 
L 515.23824 322.912453 
z
" clip-path="url(#pcd52b4e977)" style="fill: #0b1c2c"/>
   </g>
   <g id="patch_10">
    <path d="M 587.012464 349.840686 
L 612.851184 349.840686 
L 612.851184 338.620588 
L 587.012464 338.620588 
z
" clip-path="url(#pcd52b4e977)" style="fill: #0b1c2c"/>
   </g>
   <g id="patch_11">
    <path d="M 658.786687 349.840686 
L 684.625408 349.840686 
L 684.625408 340.864608 
L 658.786687 340.864608 
z
" clip-path="url(#pcd52b4e977)" style="fill: #0b1c2c"/>
   </g>
   <g id="patch_12">
    <path d="M 730.560911 349.840686 
L 756.399632 349.840686 
L 756.399632 343.108627 
L 730.560911 343.108627 
z
" clip-path="url(#pcd52b4e977)" style="fill: #0b1c2c"/>
   </g>
   <g id="patch_13">
    <path d="M 110.431618 349.840686 
L 136.270339 349.840686 
L 136.270339 215.199521 
L 110.431618 215.199521 
z
" clip-path="url(#pcd52b4e977)" style="fill: #00a9e0"/>
   </g>
   <g id="patch_14">
    <path d="M 182.205842 349.840686 
L 208.044563 349.840686 
L 208.044563 293.7402 
L 182.205842 293.7402 
z
" clip-path="url(#pcd52b4e977)" style="fill: #00a9e0"/>
   </g>
   <g id="patch_15">
    <path d="M 253.980066 349.840686 
L 279.818786 349.840686 
L 279.818786 338.620588 
L 253.980066 338.620588 
z
" clip-path="url(#pcd52b4e977)" style="fill: #00a9e0"/>
   </g>
   <g id="patch_16">
    <path d="M 325.754289 349.840686 
L 351.59301 349.840686 
L 351.59301 282.520103 
L 325.754289 282.520103 
z
" clip-path="url(#pcd52b4e977)" style="fill: #00a9e0"/>
   </g>
   <g id="patch_17">
    <path d="M 397.528513 349.840686 
L 423.367234 349.840686 
L 423.367234 170.319133 
L 397.528513 170.319133 
z
" clip-path="url(#pcd52b4e977)" style="fill: #00a9e0"/>
   </g>
   <g id="patch_18">
    <path d="M 469.302737 349.840686 
L 495.141457 349.840686 
L 495.141457 237.639715 
L 469.302737 237.639715 
z
" clip-path="url(#pcd52b4e977)" style="fill: #00a9e0"/>
   </g>
   <g id="patch_19">
    <path d="M 541.076961 349.840686 
L 566.915681 349.840686 
L 566.915681 331.88853 
L 541.076961 331.88853 
z
" clip-path="url(#pcd52b4e977)" style="fill: #00a9e0"/>
   </g>
   <g id="patch_20">
    <path d="M 612.851184 349.840686 
L 638.689905 349.840686 
L 638.689905 271.300006 
L 612.851184 271.300006 
z
" clip-path="url(#pcd52b4e977)" style="fill: #00a9e0"/>
   </g>
   <g id="patch_21">
    <path d="M 684.625408 349.840686 
L 710.464129 349.840686 
L 710.464129 80.558357 
L 684.625408 80.558357 
z
" clip-path="url(#pcd52b4e977)" style="fill: #00a9e0"/>
   </g>
   <g id="patch_22">
    <path d="M 756.399632 349.840686 
L 782.238352 349.840686 
L 782.238352 316.180394 
L 756.399632 316.180394 
z
" clip-path="url(#pcd52b4e977)" style="fill: #00a9e0"/>
   </g>
   <g id="patch_23">
    <path d="M 49.710625 349.840686 
L 49.710625 35.677969 
" style="fill: none; stroke: #7b8794; stroke-width: 0.8; stroke-linejoin: miter; stroke-linecap: square"/>
   </g>
   <g id="patch_24">
    <path d="M 49.710625 349.840686 
L 817.120625 349.840686 
" style="fill: none; stroke: #7b8794; stroke-width: 0.8; stroke-linejoin: miter; stroke-linecap: square"/>
   </g>
   <g id="text_20">
    <!-- 2kg -->
    <g style="fill: #3d4a5c" transform="translate(88.686867 340.152477) scale(0.085 -0.085)">
     <defs>
      <path id="DejaVuSans-Bold-32" d="M 1844 884 
L 3897 884 
L 3897 0 
L 506 0 
L 506 884 
L 2209 2388 
Q 2438 2594 2547 2791 
Q 2656 2988 2656 3200 
Q 2656 3528 2436 3728 
Q 2216 3928 1850 3928 
Q 1569 3928 1234 3808 
Q 900 3688 519 3450 
L 519 4475 
Q 925 4609 1322 4679 
Q 1719 4750 2100 4750 
Q 2938 4750 3402 4381 
Q 3866 4013 3866 3353 
Q 3866 2972 3669 2642 
Q 3472 2313 2841 1759 
L 1844 884 
z
" transform="scale(0.015625)"/>
     </defs>
     <use xlink:href="#DejaVuSans-Bold-32"/>
     <use xlink:href="#DejaVuSans-Bold-6b" x="69.580078"/>
     <use xlink:href="#DejaVuSans-Bold-67" x="136.083984"/>
    </g>
   </g>
   <g id="text_21">
    <!-- 3kg -->
    <g style="fill: #3d4a5c" transform="translate(160.461091 337.908458) scale(0.085 -0.085)">
     <defs>
      <path id="DejaVuSans-Bold-33" d="M 2981 2516 
Q 3453 2394 3698 2092 
Q 3944 1791 3944 1325 
Q 3944 631 3412 270 
Q 2881 -91 1863 -91 
Q 1503 -91 1142 -33 
Q 781 25 428 141 
L 428 1069 
Q 766 900 1098 814 
Q 1431 728 1753 728 
Q 2231 728 2486 893 
Q 2741 1059 2741 1369 
Q 2741 1688 2480 1852 
Q 2219 2016 1709 2016 
L 1228 2016 
L 1228 2791 
L 1734 2791 
Q 2188 2791 2409 2933 
Q 2631 3075 2631 3366 
Q 2631 3634 2415 3781 
Q 2200 3928 1806 3928 
Q 1516 3928 1219 3862 
Q 922 3797 628 3669 
L 628 4550 
Q 984 4650 1334 4700 
Q 1684 4750 2022 4750 
Q 2931 4750 3382 4451 
Q 3834 4153 3834 3553 
Q 3834 3144 3618 2883 
Q 3403 2622 2981 2516 
z
" transform="scale(0.015625)"/>
     </defs>
     <use xlink:href="#DejaVuSans-Bold-33"/>
     <use xlink:href="#DejaVuSans-Bold-6b" x="69.580078"/>
     <use xlink:href="#DejaVuSans-Bold-67" x="136.083984"/>
    </g>
   </g>
   <g id="text_22">
    <!-- 5kg -->
    <g style="fill: #3d4a5c" transform="translate(232.235315 333.420419) scale(0.085 -0.085)">
     <defs>
      <path id="DejaVuSans-Bold-35" d="M 678 4666 
L 3669 4666 
L 3669 3781 
L 1638 3781 
L 1638 3059 
Q 1775 3097 1914 3117 
Q 2053 3138 2203 3138 
Q 3056 3138 3531 2711 
Q 4006 2284 4006 1522 
Q 4006 766 3489 337 
Q 2972 -91 2053 -91 
Q 1656 -91 1267 -14 
Q 878 63 494 219 
L 494 1166 
Q 875 947 1217 837 
Q 1559 728 1863 728 
Q 2300 728 2551 942 
Q 2803 1156 2803 1522 
Q 2803 1891 2551 2103 
Q 2300 2316 1863 2316 
Q 1603 2316 1309 2248 
Q 1016 2181 678 2041 
L 678 4666 
z
" transform="scale(0.015625)"/>
     </defs>
     <use xlink:href="#DejaVuSans-Bold-35"/>
     <use xlink:href="#DejaVuSans-Bold-6b" x="69.580078"/>
     <use xlink:href="#DejaVuSans-Bold-67" x="136.083984"/>
    </g>
   </g>
   <g id="text_23">
    <!-- 8kg -->
    <g style="fill: #3d4a5c" transform="translate(304.009539 326.688361) scale(0.085 -0.085)">
     <defs>
      <path id="DejaVuSans-Bold-38" d="M 2228 2088 
Q 1891 2088 1709 1903 
Q 1528 1719 1528 1375 
Q 1528 1031 1709 848 
Q 1891 666 2228 666 
Q 2563 666 2741 848 
Q 2919 1031 2919 1375 
Q 2919 1722 2741 1905 
Q 2563 2088 2228 2088 
z
M 1350 2484 
Q 925 2613 709 2878 
Q 494 3144 494 3541 
Q 494 4131 934 4440 
Q 1375 4750 2228 4750 
Q 3075 4750 3515 4442 
Q 3956 4134 3956 3541 
Q 3956 3144 3739 2878 
Q 3522 2613 3097 2484 
Q 3572 2353 3814 2058 
Q 4056 1763 4056 1313 
Q 4056 619 3595 264 
Q 3134 -91 2228 -91 
Q 1319 -91 855 264 
Q 391 619 391 1313 
Q 391 1763 633 2058 
Q 875 2353 1350 2484 
z
M 1631 3419 
Q 1631 3141 1786 2991 
Q 1941 2841 2228 2841 
Q 2509 2841 2662 2991 
Q 2816 3141 2816 3419 
Q 2816 3697 2662 3845 
Q 2509 3994 2228 3994 
Q 1941 3994 1786 3844 
Q 1631 3694 1631 3419 
z
" transform="scale(0.015625)"/>
     </defs>
     <use xlink:href="#DejaVuSans-Bold-38"/>
     <use xlink:href="#DejaVuSans-Bold-6b" x="69.580078"/>
     <use xlink:href="#DejaVuSans-Bold-67" x="136.083984"/>
    </g>
   </g>
   <g id="text_24">
    <!-- 6kg -->
    <g style="fill: #3d4a5c" transform="translate(375.783762 331.176399) scale(0.085 -0.085)">
     <defs>
      <path id="DejaVuSans-Bold-36" d="M 2316 2303 
Q 2000 2303 1842 2098 
Q 1684 1894 1684 1484 
Q 1684 1075 1842 870 
Q 2000 666 2316 666 
Q 2634 666 2792 870 
Q 2950 1075 2950 1484 
Q 2950 1894 2792 2098 
Q 2634 2303 2316 2303 
z
M 3803 4544 
L 3803 3681 
Q 3506 3822 3243 3889 
Q 2981 3956 2731 3956 
Q 2194 3956 1894 3657 
Q 1594 3359 1544 2772 
Q 1750 2925 1990 3001 
Q 2231 3078 2516 3078 
Q 3231 3078 3670 2659 
Q 4109 2241 4109 1563 
Q 4109 813 3618 361 
Q 3128 -91 2303 -91 
Q 1394 -91 895 523 
Q 397 1138 397 2266 
Q 397 3422 980 4083 
Q 1563 4744 2578 4744 
Q 2900 4744 3203 4694 
Q 3506 4644 3803 4544 
z
" transform="scale(0.015625)"/>
     </defs>
     <use xlink:href="#DejaVuSans-Bold-36"/>
     <use xlink:href="#DejaVuSans-Bold-6b" x="69.580078"/>
     <use xlink:href="#DejaVuSans-Bold-67" x="136.083984"/>
    </g>
   </g>
   <g id="text_25">
    <!-- 7kg -->
    <g style="fill: #3d4a5c" transform="translate(447.557986 328.93238) scale(0.085 -0.085)">
     <defs>
      <path id="DejaVuSans-Bold-37" d="M 428 4666 
L 3944 4666 
L 3944 3988 
L 2125 0 
L 953 0 
L 2675 3781 
L 428 3781 
L 428 4666 
z
" transform="scale(0.015625)"/>
     </defs>
     <use xlink:href="#DejaVuSans-Bold-37"/>
     <use xlink:href="#DejaVuSans-Bold-6b" x="69.580078"/>
     <use xlink:href="#DejaVuSans-Bold-67" x="136.083984"/>
    </g>
   </g>
   <g id="text_26">
    <!-- 12kg -->
    <g style="fill: #3d4a5c" transform="translate(516.375139 317.712283) scale(0.085 -0.085)">
     <defs>
      <path id="DejaVuSans-Bold-31" d="M 750 831 
L 1813 831 
L 1813 3847 
L 722 3622 
L 722 4441 
L 1806 4666 
L 2950 4666 
L 2950 831 
L 4013 831 
L 4013 0 
L 750 0 
L 750 831 
z
" transform="scale(0.015625)"/>
     </defs>
     <use xlink:href="#DejaVuSans-Bold-31"/>
     <use xlink:href="#DejaVuSans-Bold-32" x="69.580078"/>
     <use xlink:href="#DejaVuSans-Bold-6b" x="139.160156"/>
     <use xlink:href="#DejaVuSans-Bold-67" x="205.664062"/>
    </g>
   </g>
   <g id="text_27">
    <!-- 5kg -->
    <g style="fill: #3d4a5c" transform="translate(591.106433 333.420419) scale(0.085 -0.085)">
     <use xlink:href="#DejaVuSans-Bold-35"/>
     <use xlink:href="#DejaVuSans-Bold-6b" x="69.580078"/>
     <use xlink:href="#DejaVuSans-Bold-67" x="136.083984"/>
    </g>
   </g>
   <g id="text_28">
    <!-- 4kg -->
    <g style="fill: #3d4a5c" transform="translate(662.880657 335.664438) scale(0.085 -0.085)">
     <defs>
      <path id="DejaVuSans-Bold-34" d="M 2356 3675 
L 1038 1722 
L 2356 1722 
L 2356 3675 
z
M 2156 4666 
L 3494 4666 
L 3494 1722 
L 4159 1722 
L 4159 850 
L 3494 850 
L 3494 0 
L 2356 0 
L 2356 850 
L 288 850 
L 288 1881 
L 2156 4666 
z
" transform="scale(0.015625)"/>
     </defs>
     <use xlink:href="#DejaVuSans-Bold-34"/>
     <use xlink:href="#DejaVuSans-Bold-6b" x="69.580078"/>
     <use xlink:href="#DejaVuSans-Bold-67" x="136.083984"/>
    </g>
   </g>
   <g id="text_29">
    <!-- 3kg -->
    <g style="fill: #3d4a5c" transform="translate(734.654881 337.908458) scale(0.085 -0.085)">
     <use xlink:href="#DejaVuSans-Bold-33"/>
     <use xlink:href="#DejaVuSans-Bold-6b" x="69.580078"/>
     <use xlink:href="#DejaVuSans-Bold-67" x="136.083984"/>
    </g>
   </g>
   <g id="text_30">
    <!-- 60km -->
    <g style="fill: #3d4a5c" transform="translate(110.181955 210.065758) scale(0.085 -0.085)">
     <defs>
      <path id="DejaVuSans-Bold-30" d="M 2944 2338 
Q 2944 3213 2780 3570 
Q 2616 3928 2228 3928 
Q 1841 3928 1675 3570 
Q 1509 3213 1509 2338 
Q 1509 1453 1675 1090 
Q 1841 728 2228 728 
Q 2613 728 2778 1090 
Q 2944 1453 2944 2338 
z
M 4147 2328 
Q 4147 1169 3647 539 
Q 3147 -91 2228 -91 
Q 1306 -91 806 539 
Q 306 1169 306 2328 
Q 306 3491 806 4120 
Q 1306 4750 2228 4750 
Q 3147 4750 3647 4120 
Q 4147 3491 4147 2328 
z
" transform="scale(0.015625)"/>
     </defs>
     <use xlink:href="#DejaVuSans-Bold-36"/>
     <use xlink:href="#DejaVuSans-Bold-30" x="69.580078"/>
     <use xlink:href="#DejaVuSans-Bold-6b" x="139.160156"/>
     <use xlink:href="#DejaVuSans-Bold-6d" x="205.664062"/>
    </g>
   </g>
   <g id="text_31">
    <!-- 25km -->
    <g style="fill: #3d4a5c" transform="translate(181.956179 288.606437) scale(0.085 -0.085)">
     <use xlink:href="#DejaVuSans-Bold-32"/>
     <use xlink:href="#DejaVuSans-Bold-35" x="69.580078"/>
     <use xlink:href="#DejaVuSans-Bold-6b" x="139.160156"/>
     <use xlink:href="#DejaVuSans-Bold-6d" x="205.664062"/>
    </g>
   </g>
   <g id="text_32">
    <!-- 5km -->
    <g style="fill: #3d4a5c" transform="translate(256.687473 333.486825) scale(0.085 -0.085)">
     <use xlink:href="#DejaVuSans-Bold-35"/>
     <use xlink:href="#DejaVuSans-Bold-6b" x="69.580078"/>
     <use xlink:href="#DejaVuSans-Bold-6d" x="136.083984"/>
    </g>
   </g>
   <g id="text_33">
    <!-- 30km -->
    <g style="fill: #3d4a5c" transform="translate(325.504626 277.38634) scale(0.085 -0.085)">
     <use xlink:href="#DejaVuSans-Bold-33"/>
     <use xlink:href="#DejaVuSans-Bold-30" x="69.580078"/>
     <use xlink:href="#DejaVuSans-Bold-6b" x="139.160156"/>
     <use xlink:href="#DejaVuSans-Bold-6d" x="205.664062"/>
    </g>
   </g>
   <g id="text_34">
    <!-- 80km -->
    <g style="fill: #3d4a5c" transform="translate(397.27885 165.18537) scale(0.085 -0.085)">
     <use xlink:href="#DejaVuSans-Bold-38"/>
     <use xlink:href="#DejaVuSans-Bold-30" x="69.580078"/>
     <use xlink:href="#DejaVuSans-Bold-6b" x="139.160156"/>
     <use xlink:href="#DejaVuSans-Bold-6d" x="205.664062"/>
    </g>
   </g>
   <g id="text_35">
    <!-- 50km -->
    <g style="fill: #3d4a5c" transform="translate(469.053074 232.505952) scale(0.085 -0.085)">
     <use xlink:href="#DejaVuSans-Bold-35"/>
     <use xlink:href="#DejaVuSans-Bold-30" x="69.580078"/>
     <use xlink:href="#DejaVuSans-Bold-6b" x="139.160156"/>
     <use xlink:href="#DejaVuSans-Bold-6d" x="205.664062"/>
    </g>
   </g>
   <g id="text_36">
    <!-- 8km -->
    <g style="fill: #3d4a5c" transform="translate(543.784368 326.754767) scale(0.085 -0.085)">
     <use xlink:href="#DejaVuSans-Bold-38"/>
     <use xlink:href="#DejaVuSans-Bold-6b" x="69.580078"/>
     <use xlink:href="#DejaVuSans-Bold-6d" x="136.083984"/>
    </g>
   </g>
   <g id="text_37">
    <!-- 35km -->
    <g style="fill: #3d4a5c" transform="translate(612.601521 266.166243) scale(0.085 -0.085)">
     <use xlink:href="#DejaVuSans-Bold-33"/>
     <use xlink:href="#DejaVuSans-Bold-35" x="69.580078"/>
     <use xlink:href="#DejaVuSans-Bold-6b" x="139.160156"/>
     <use xlink:href="#DejaVuSans-Bold-6d" x="205.664062"/>
    </g>
   </g>
   <g id="text_38">
    <!-- 120km -->
    <g style="fill: #3d4a5c" transform="translate(681.418675 75.424593) scale(0.085 -0.085)">
     <use xlink:href="#DejaVuSans-Bold-31"/>
     <use xlink:href="#DejaVuSans-Bold-32" x="69.580078"/>
     <use xlink:href="#DejaVuSans-Bold-30" x="139.160156"/>
     <use xlink:href="#DejaVuSans-Bold-6b" x="208.740234"/>
     <use xlink:href="#DejaVuSans-Bold-6d" x="275.244141"/>
    </g>
   </g>
   <g id="text_39">
    <!-- 15km -->
    <g style="fill: #3d4a5c" transform="translate(756.149969 311.046631) scale(0.085 -0.085)">
     <use xlink:href="#DejaVuSans-Bold-31"/>
     <use xlink:href="#DejaVuSans-Bold-35" x="69.580078"/>
     <use xlink:href="#DejaVuSans-Bold-6b" x="139.160156"/>
     <use xlink:href="#DejaVuSans-Bold-6d" x="205.664062"/>
    </g>
   </g>
   <g id="text_40">
    <!-- Payload &amp; Range Requirements by Ecosystem, 2026 (Base Case) -->
    <g style="fill: #0b1c2c" transform="translate(197.031953 20.677969) scale(0.13 -0.13)">
     <defs>
      <path id="DejaVuSans-Bold-26" d="M 2497 3097 
L 3775 1691 
Q 3941 1909 4027 2181 
Q 4113 2453 4128 2797 
L 5100 2797 
Q 5053 2228 4879 1784 
Q 4706 1341 4397 1006 
L 5313 0 
L 3988 0 
L 3681 341 
Q 3353 122 2990 15 
Q 2628 -91 2222 -91 
Q 1400 -91 892 342 
Q 384 775 384 1459 
Q 384 1916 607 2267 
Q 831 2619 1338 2950 
Q 1206 3116 1143 3281 
Q 1081 3447 1081 3628 
Q 1081 4138 1478 4444 
Q 1875 4750 2534 4750 
Q 2819 4750 3126 4704 
Q 3434 4659 3769 4569 
L 3769 3700 
Q 3475 3850 3212 3922 
Q 2950 3994 2700 3994 
Q 2459 3994 2326 3901 
Q 2194 3809 2194 3641 
Q 2194 3534 2270 3398 
Q 2347 3263 2497 3097 
z
M 1875 2322 
Q 1672 2175 1569 1989 
Q 1466 1803 1466 1581 
Q 1466 1222 1731 969 
Q 1997 716 2369 716 
Q 2578 716 2759 780 
Q 2941 844 3097 972 
L 1875 2322 
z
" transform="scale(0.015625)"/>
      <path id="DejaVuSans-Bold-71" d="M 2181 2772 
Q 1825 2772 1636 2509 
Q 1447 2247 1447 1747 
Q 1447 1247 1636 984 
Q 1825 722 2181 722 
Q 2541 722 2730 984 
Q 2919 1247 2919 1747 
Q 2919 2247 2730 2509 
Q 2541 2772 2181 2772 
z
M 2919 506 
Q 2688 197 2409 53 
Q 2131 -91 1766 -91 
Q 1119 -91 703 423 
Q 288 938 288 1747 
Q 288 2556 703 3067 
Q 1119 3578 1766 3578 
Q 2131 3578 2409 3434 
Q 2688 3291 2919 2981 
L 2919 3500 
L 4044 3500 
L 4044 -1331 
L 2919 -1331 
L 2919 506 
z
" transform="scale(0.015625)"/>
      <path id="DejaVuSans-Bold-75" d="M 500 1363 
L 500 3500 
L 1625 3500 
L 1625 3150 
Q 1625 2866 1622 2436 
Q 1619 2006 1619 1863 
Q 1619 1441 1641 1255 
Q 1663 1069 1716 984 
Q 1784 875 1895 815 
Q 2006 756 2150 756 
Q 2500 756 2700 1025 
Q 2900 1294 2900 1772 
L 2900 3500 
L 4019 3500 
L 4019 0 
L 2900 0 
L 2900 506 
Q 2647 200 2364 54 
Q 2081 -91 1741 -91 
Q 1134 -91 817 281 
Q 500 653 500 1363 
z
" transform="scale(0.015625)"/>
      <path id="DejaVuSans-Bold-69" d="M 538 3500 
L 1656 3500 
L 1656 0 
L 538 0 
L 538 3500 
z
M 538 4863 
L 1656 4863 
L 1656 3950 
L 538 3950 
L 538 4863 
z
" transform="scale(0.015625)"/>
      <path id="DejaVuSans-Bold-72" d="M 3138 2547 
Q 2991 2616 2845 2648 
Q 2700 2681 2553 2681 
Q 2122 2681 1889 2404 
Q 1656 2128 1656 1613 
L 1656 0 
L 538 0 
L 538 3500 
L 1656 3500 
L 1656 2925 
Q 1872 3269 2151 3426 
Q 2431 3584 2822 3584 
Q 2878 3584 2943 3579 
Q 3009 3575 3134 3559 
L 3138 2547 
z
" transform="scale(0.015625)"/>
      <path id="DejaVuSans-Bold-74" d="M 1759 4494 
L 1759 3500 
L 2913 3500 
L 2913 2700 
L 1759 2700 
L 1759 1216 
Q 1759 972 1856 886 
Q 1953 800 2241 800 
L 2816 800 
L 2816 0 
L 1856 0 
Q 1194 0 917 276 
Q 641 553 641 1216 
L 641 2700 
L 84 2700 
L 84 3500 
L 641 3500 
L 641 4494 
L 1759 4494 
z
" transform="scale(0.015625)"/>
      <path id="DejaVuSans-Bold-73" d="M 3272 3391 
L 3272 2541 
Q 2913 2691 2578 2766 
Q 2244 2841 1947 2841 
Q 1628 2841 1473 2761 
Q 1319 2681 1319 2516 
Q 1319 2381 1436 2309 
Q 1553 2238 1856 2203 
L 2053 2175 
Q 2913 2066 3209 1816 
Q 3506 1566 3506 1031 
Q 3506 472 3093 190 
Q 2681 -91 1863 -91 
Q 1516 -91 1145 -36 
Q 775 19 384 128 
L 384 978 
Q 719 816 1070 734 
Q 1422 653 1784 653 
Q 2113 653 2278 743 
Q 2444 834 2444 1013 
Q 2444 1163 2330 1236 
Q 2216 1309 1875 1350 
L 1678 1375 
Q 931 1469 631 1722 
Q 331 1975 331 2491 
Q 331 3047 712 3315 
Q 1094 3584 1881 3584 
Q 2191 3584 2531 3537 
Q 2872 3491 3272 3391 
z
" transform="scale(0.015625)"/>
      <path id="DejaVuSans-Bold-62" d="M 2400 722 
Q 2759 722 2948 984 
Q 3138 1247 3138 1747 
Q 3138 2247 2948 2509 
Q 2759 2772 2400 2772 
Q 2041 2772 1848 2508 
Q 1656 2244 1656 1747 
Q 1656 1250 1848 986 
Q 2041 722 2400 722 
z
M 1656 2988 
Q 1888 3294 2169 3439 
Q 2450 3584 2816 3584 
Q 3463 3584 3878 3070 
Q 4294 2556 4294 1747 
Q 4294 938 3878 423 
Q 3463 -91 2816 -91 
Q 2450 -91 2169 54 
Q 1888 200 1656 506 
L 1656 0 
L 538 0 
L 538 4863 
L 1656 4863 
L 1656 2988 
z
" transform="scale(0.015625)"/>
      <path id="DejaVuSans-Bold-45" d="M 588 4666 
L 3834 4666 
L 3834 3756 
L 1791 3756 
L 1791 2888 
L 3713 2888 
L 3713 1978 
L 1791 1978 
L 1791 909 
L 3903 909 
L 3903 0 
L 588 0 
L 588 4666 
z
" transform="scale(0.015625)"/>
      <path id="DejaVuSans-Bold-63" d="M 3366 3391 
L 3366 2478 
Q 3138 2634 2908 2709 
Q 2678 2784 2431 2784 
Q 1963 2784 1702 2511 
Q 1441 2238 1441 1747 
Q 1441 1256 1702 982 
Q 1963 709 2431 709 
Q 2694 709 2930 787 
Q 3166 866 3366 1019 
L 3366 103 
Q 3103 6 2833 -42 
Q 2563 -91 2291 -91 
Q 1344 -91 809 395 
Q 275 881 275 1747 
Q 275 2613 809 3098 
Q 1344 3584 2291 3584 
Q 2566 3584 2833 3536 
Q 3100 3488 3366 3391 
z
" transform="scale(0.015625)"/>
      <path id="DejaVuSans-Bold-2c" d="M 653 1209 
L 1778 1209 
L 1778 256 
L 1006 -909 
L 341 -909 
L 653 256 
L 653 1209 
z
" transform="scale(0.015625)"/>
      <path id="DejaVuSans-Bold-42" d="M 2456 2859 
Q 2741 2859 2887 2984 
Q 3034 3109 3034 3353 
Q 3034 3594 2887 3720 
Q 2741 3847 2456 3847 
L 1791 3847 
L 1791 2859 
L 2456 2859 
z
M 2497 819 
Q 2859 819 3042 972 
Q 3225 1125 3225 1434 
Q 3225 1738 3044 1889 
Q 2863 2041 2497 2041 
L 1791 2041 
L 1791 819 
L 2497 819 
z
M 3616 2497 
Q 4003 2384 4215 2081 
Q 4428 1778 4428 1338 
Q 4428 663 3972 331 
Q 3516 0 2584 0 
L 588 0 
L 588 4666 
L 2394 4666 
Q 3366 4666 3802 4372 
Q 4238 4078 4238 3431 
Q 4238 3091 4078 2852 
Q 3919 2613 3616 2497 
z
" transform="scale(0.015625)"/>
      <path id="DejaVuSans-Bold-43" d="M 4288 256 
Q 3956 84 3597 -3 
Q 3238 -91 2847 -91 
Q 1681 -91 1000 561 
Q 319 1213 319 2328 
Q 319 3447 1000 4098 
Q 1681 4750 2847 4750 
Q 3238 4750 3597 4662 
Q 3956 4575 4288 4403 
L 4288 3438 
Q 3953 3666 3628 3772 
Q 3303 3878 2944 3878 
Q 2300 3878 1931 3465 
Q 1563 3053 1563 2328 
Q 1563 1606 1931 1193 
Q 2300 781 2944 781 
Q 3303 781 3628 887 
Q 3953 994 4288 1222 
L 4288 256 
z
" transform="scale(0.015625)"/>
     </defs>
     <use xlink:href="#DejaVuSans-Bold-50"/>
     <use xlink:href="#DejaVuSans-Bold-61" x="70.666016"/>
     <use xlink:href="#DejaVuSans-Bold-79" x="135.021484"/>
     <use xlink:href="#DejaVuSans-Bold-6c" x="200.207031"/>
     <use xlink:href="#DejaVuSans-Bold-6f" x="234.484375"/>
     <use xlink:href="#DejaVuSans-Bold-61" x="303.185547"/>
     <use xlink:href="#DejaVuSans-Bold-64" x="370.666016"/>
     <use xlink:href="#DejaVuSans-Bold-20" x="442.248047"/>
     <use xlink:href="#DejaVuSans-Bold-26" x="477.0625"/>
     <use xlink:href="#DejaVuSans-Bold-20" x="564.269531"/>
     <use xlink:href="#DejaVuSans-Bold-52" x="599.083984"/>
     <use xlink:href="#DejaVuSans-Bold-61" x="676.085938"/>
     <use xlink:href="#DejaVuSans-Bold-6e" x="743.566406"/>
     <use xlink:href="#DejaVuSans-Bold-67" x="814.757812"/>
     <use xlink:href="#DejaVuSans-Bold-65" x="886.339844"/>
     <use xlink:href="#DejaVuSans-Bold-20" x="954.162109"/>
     <use xlink:href="#DejaVuSans-Bold-52" x="988.976562"/>
     <use xlink:href="#DejaVuSans-Bold-65" x="1065.978516"/>
     <use xlink:href="#DejaVuSans-Bold-71" x="1133.800781"/>
     <use xlink:href="#DejaVuSans-Bold-75" x="1205.382812"/>
     <use xlink:href="#DejaVuSans-Bold-69" x="1276.574219"/>
     <use xlink:href="#DejaVuSans-Bold-72" x="1310.851562"/>
     <use xlink:href="#DejaVuSans-Bold-65" x="1360.167969"/>
     <use xlink:href="#DejaVuSans-Bold-6d" x="1427.990234"/>
     <use xlink:href="#DejaVuSans-Bold-65" x="1532.189453"/>
     <use xlink:href="#DejaVuSans-Bold-6e" x="1600.011719"/>
     <use xlink:href="#DejaVuSans-Bold-74" x="1671.203125"/>
     <use xlink:href="#DejaVuSans-Bold-73" x="1719.005859"/>
     <use xlink:href="#DejaVuSans-Bold-20" x="1778.527344"/>
     <use xlink:href="#DejaVuSans-Bold-62" x="1813.341797"/>
     <use xlink:href="#DejaVuSans-Bold-79" x="1884.923828"/>
     <use xlink:href="#DejaVuSans-Bold-20" x="1950.109375"/>
     <use xlink:href="#DejaVuSans-Bold-45" x="1984.923828"/>
     <use xlink:href="#DejaVuSans-Bold-63" x="2053.234375"/>
     <use xlink:href="#DejaVuSans-Bold-6f" x="2112.511719"/>
     <use xlink:href="#DejaVuSans-Bold-73" x="2181.212891"/>
     <use xlink:href="#DejaVuSans-Bold-79" x="2240.734375"/>
     <use xlink:href="#DejaVuSans-Bold-73" x="2305.919922"/>
     <use xlink:href="#DejaVuSans-Bold-74" x="2365.441406"/>
     <use xlink:href="#DejaVuSans-Bold-65" x="2413.244141"/>
     <use xlink:href="#DejaVuSans-Bold-6d" x="2481.066406"/>
     <use xlink:href="#DejaVuSans-Bold-2c" x="2585.265625"/>
     <use xlink:href="#DejaVuSans-Bold-20" x="2623.253906"/>
     <use xlink:href="#DejaVuSans-Bold-32" x="2658.068359"/>
     <use xlink:href="#DejaVuSans-Bold-30" x="2727.648438"/>
     <use xlink:href="#DejaVuSans-Bold-32" x="2797.228516"/>
     <use xlink:href="#DejaVuSans-Bold-36" x="2866.808594"/>
     <use xlink:href="#DejaVuSans-Bold-20" x="2936.388672"/>
     <use xlink:href="#DejaVuSans-Bold-28" x="2971.203125"/>
     <use xlink:href="#DejaVuSans-Bold-42" x="3016.90625"/>
     <use xlink:href="#DejaVuSans-Bold-61" x="3093.126953"/>
     <use xlink:href="#DejaVuSans-Bold-73" x="3160.607422"/>
     <use xlink:href="#DejaVuSans-Bold-65" x="3220.128906"/>
     <use xlink:href="#DejaVuSans-Bold-20" x="3287.951172"/>
     <use xlink:href="#DejaVuSans-Bold-43" x="3322.765625"/>
     <use xlink:href="#DejaVuSans-Bold-61" x="3396.154297"/>
     <use xlink:href="#DejaVuSans-Bold-73" x="3463.634766"/>
     <use xlink:href="#DejaVuSans-Bold-65" x="3523.15625"/>
     <use xlink:href="#DejaVuSans-Bold-29" x="3590.978516"/>
    </g>
   </g>
   <g id="legend_1">
    <g id="patch_25">
     <path d="M 680.058125 52.276406 
L 700.058125 52.276406 
L 700.058125 45.276406 
L 680.058125 45.276406 
z
" style="fill: #0b1c2c"/>
    </g>
    <g id="text_41">
     <!-- Typical payload (kg) -->
     <g transform="translate(708.058125 52.276406) scale(0.1 -0.1)">
      <defs>
       <path id="DejaVuSans-54" d="M -19 4666 
L 3928 4666 
L 3928 4134 
L 2272 4134 
L 2272 0 
L 1638 0 
L 1638 4134 
L -19 4134 
L -19 4666 
z
" transform="scale(0.015625)"/>
       <path id="DejaVuSans-70" d="M 1159 525 
L 1159 -1331 
L 581 -1331 
L 581 3500 
L 1159 3500 
L 1159 2969 
Q 1341 3281 1617 3432 
Q 1894 3584 2278 3584 
Q 2916 3584 3314 3078 
Q 3713 2572 3713 1747 
Q 3713 922 3314 415 
Q 2916 -91 2278 -91 
Q 1894 -91 1617 61 
Q 1341 213 1159 525 
z
M 3116 1747 
Q 3116 2381 2855 2742 
Q 2594 3103 2138 3103 
Q 1681 3103 1420 2742 
Q 1159 2381 1159 1747 
Q 1159 1113 1420 752 
Q 1681 391 2138 391 
Q 2594 391 2855 752 
Q 3116 1113 3116 1747 
z
" transform="scale(0.015625)"/>
       <path id="DejaVuSans-28" d="M 1984 4856 
Q 1566 4138 1362 3434 
Q 1159 2731 1159 2009 
Q 1159 1288 1364 580 
Q 1569 -128 1984 -844 
L 1484 -844 
Q 1016 -109 783 600 
Q 550 1309 550 2009 
Q 550 2706 781 3412 
Q 1013 4119 1484 4856 
L 1984 4856 
z
" transform="scale(0.015625)"/>
       <path id="DejaVuSans-6b" d="M 581 4863 
L 1159 4863 
L 1159 1991 
L 2875 3500 
L 3609 3500 
L 1753 1863 
L 3688 0 
L 2938 0 
L 1159 1709 
L 1159 0 
L 581 0 
L 581 4863 
z
" transform="scale(0.015625)"/>
       <path id="DejaVuSans-29" d="M 513 4856 
L 1013 4856 
Q 1481 4119 1714 3412 
Q 1947 2706 1947 2009 
Q 1947 1309 1714 600 
Q 1481 -109 1013 -844 
L 513 -844 
Q 928 -128 1133 580 
Q 1338 1288 1338 2009 
Q 1338 2731 1133 3434 
Q 928 4138 513 4856 
z
" transform="scale(0.015625)"/>
      </defs>
      <use xlink:href="#DejaVuSans-54"/>
      <use xlink:href="#DejaVuSans-79" x="45.458984"/>
      <use xlink:href="#DejaVuSans-70" x="104.638672"/>
      <use xlink:href="#DejaVuSans-69" x="168.115234"/>
      <use xlink:href="#DejaVuSans-63" x="195.898438"/>
      <use xlink:href="#DejaVuSans-61" x="250.878906"/>
      <use xlink:href="#DejaVuSans-6c" x="312.158203"/>
      <use xlink:href="#DejaVuSans-20" x="339.941406"/>
      <use xlink:href="#DejaVuSans-70" x="371.728516"/>
      <use xlink:href="#DejaVuSans-61" x="435.205078"/>
      <use xlink:href="#DejaVuSans-79" x="496.484375"/>
      <use xlink:href="#DejaVuSans-6c" x="555.664062"/>
      <use xlink:href="#DejaVuSans-6f" x="583.447266"/>
      <use xlink:href="#DejaVuSans-61" x="644.628906"/>
      <use xlink:href="#DejaVuSans-64" x="705.908203"/>
      <use xlink:href="#DejaVuSans-20" x="769.384766"/>
      <use xlink:href="#DejaVuSans-28" x="801.171875"/>
      <use xlink:href="#DejaVuSans-6b" x="840.185547"/>
      <use xlink:href="#DejaVuSans-67" x="898.095703"/>
      <use xlink:href="#DejaVuSans-29" x="961.572266"/>
     </g>
    </g>
    <g id="patch_26">
     <path d="M 680.058125 66.954531 
L 700.058125 66.954531 
L 700.058125 59.954531 
L 680.058125 59.954531 
z
" style="fill: #00a9e0"/>
    </g>
    <g id="text_42">
     <!-- Typical range (km) -->
     <g transform="translate(708.058125 66.954531) scale(0.1 -0.1)">
      <use xlink:href="#DejaVuSans-54"/>
      <use xlink:href="#DejaVuSans-79" x="45.458984"/>
      <use xlink:href="#DejaVuSans-70" x="104.638672"/>
      <use xlink:href="#DejaVuSans-69" x="168.115234"/>
      <use xlink:href="#DejaVuSans-63" x="195.898438"/>
      <use xlink:href="#DejaVuSans-61" x="250.878906"/>
      <use xlink:href="#DejaVuSans-6c" x="312.158203"/>
      <use xlink:href="#DejaVuSans-20" x="339.941406"/>
      <use xlink:href="#DejaVuSans-72" x="371.728516"/>
      <use xlink:href="#DejaVuSans-61" x="412.841797"/>
      <use xlink:href="#DejaVuSans-6e" x="474.121094"/>
      <use xlink:href="#DejaVuSans-67" x="537.5"/>
      <use xlink:href="#DejaVuSans-65" x="600.976562"/>
      <use xlink:href="#DejaVuSans-20" x="662.5"/>
      <use xlink:href="#DejaVuSans-28" x="694.287109"/>
      <use xlink:href="#DejaVuSans-6b" x="733.300781"/>
      <use xlink:href="#DejaVuSans-6d" x="791.210938"/>
      <use xlink:href="#DejaVuSans-29" x="888.623047"/>
     </g>
    </g>
   </g>
  </g>
 </g>
 <defs>
  <clipPath id="pcd52b4e977">
   <rect x="49.710625" y="35.677969" width="767.41" height="314.162717"/>
  </clipPath>
 </defs>
</svg>
