<?xml version="1.0" encoding="UTF-8"?>
<svg xmlns="http://www.w3.org/2000/svg" version="1.1" viewBox="0 0 1400 660">
  <!-- Generator: Adobe Illustrator 30.4.0, SVG Export Plug-In . SVG Version: 2.1.4 Build 226)  -->
  <defs>
    <style>
      .st0, .st1, .st2, .st3, .st4, .st5, .st6 {
        fill: #4a5567;
      }

      .st7 {
        stroke: #0f1828;
        stroke-width: 2px;
      }

      .st7, .st8, .st9, .st10 {
        fill: none;
      }

      .st1 {
        font-size: 17px;
      }

      .st1, .st11, .st12, .st13, .st2, .st3, .st14, .st4, .st5, .st6, .st15, .st16 {
        isolation: isolate;
      }

      .st1, .st2, .st4, .st5, .st6 {
        font-family: ArialMT, Arial;
      }

      .st11 {
        font-size: 29px;
      }

      .st11, .st12, .st13, .st3, .st15, .st16 {
        font-family: Arial-BoldMT, Arial;
        font-weight: 700;
      }

      .st11, .st15, .st16 {
        fill: #0f1828;
      }

      .st8 {
        stroke: #c9a84c;
      }

      .st8, .st9, .st10 {
        stroke-width: 3px;
      }

      .st12, .st13, .st3, .st15 {
        font-size: 15px;
      }

      .st12, .st17, .st14 {
        fill: #c9a84c;
      }

      .st18 {
        fill: #fbf9f4;
      }

      .st13, .st19 {
        fill: #2bc5b4;
      }

      .st2 {
        font-size: 13px;
      }

      .st14 {
        font-family: Arial-ItalicMT, Arial;
        font-style: italic;
      }

      .st14, .st5 {
        font-size: 12px;
      }

      .st4 {
        font-size: 14px;
      }

      .st6 {
        font-size: 19px;
      }

      .st9 {
        stroke: #2bc5b4;
      }

      .st10 {
        stroke: #4a5567;
      }

      .st16 {
        font-size: 16px;
      }
    </style>
  </defs>
  <g id="Layer_2">
    <rect class="st18" x="-2.43" y="-.28" width="1402.43" height="660.28"/>
  </g>
  <g id="Layer_1">
    <text class="st2" transform="translate(1235.5781 33.8918)"><tspan x="0" y="0">Techadyant Labs · 2026</tspan></text>
    <text class="st11" transform="translate(18.67 48.35)"><tspan x="0" y="0">Three scenarios to 2035</tspan></text>
    <text class="st6" transform="translate(22.68 84.65)"><tspan x="0" y="0">India&apos;s midstream position under conservative, accelerated and breakthrough paths</tspan></text>
    <text class="st5" transform="translate(18.12 646.99)"><tspan x="0" y="0">Source: Techadyant Labs scenario model; NMM; IEA; IESA.</tspan></text>
    <text class="st14" transform="translate(1172.5045 646.9886)"><tspan x="0" y="0">illustrative, conditional on assumptions</tspan></text>
    <line class="st7" x1="94.22" y1="574.17" x2="994.22" y2="574.17"/>
    <line class="st7" x1="94.22" y1="574.17" x2="94.22" y2="134.17"/>
    <text class="st4" transform="translate(78.64 600.17)"><tspan x="0" y="0">2026</tspan></text>
    <text class="st4" transform="translate(528.64 600.17)"><tspan x="0" y="0">2030</tspan></text>
    <text class="st4" transform="translate(978.64 600.17)"><tspan x="0" y="0">2035</tspan></text>
    <text class="st1" transform="translate(72.48 473.17) rotate(-90)"><tspan x="0" y="0">midstream capability →</tspan></text>
    <path class="st9" d="M94.22,539.17l450-88,450-251"/>
    <circle class="st19" cx="994.22" cy="200.17" r="6"/>
    <text class="st13" transform="translate(919.6 178.3)"><tspan x="0" y="0">Breakthrough (10%)</tspan></text>
    <path class="st8" d="M94.22,539.17l450-62,450-145"/>
    <circle class="st17" cx="994.22" cy="332.17" r="6"/>
    <text class="st12" transform="translate(929.6 309.25)"><tspan x="0" y="0">Accelerated (30%)</tspan></text>
    <path class="st10" d="M94.22,539.17l450-35,450-71"/>
    <circle class="st0" cx="994.22" cy="433.17" r="6"/>
    <text class="st3" transform="translate(920.7 409.17)"><tspan x="0" y="0">Conservative (60%)</tspan></text>
    <text class="st16" transform="translate(1079.2406 502.1714)"><tspan x="0" y="0">Probability-weighted</tspan></text>
    <text class="st4" transform="translate(1079.2406 532.1714)"><tspan x="0" y="0">A credible, partial midstream node —</tspan></text>
    <text class="st4" transform="translate(1079.2406 554.1714)"><tspan x="0" y="0">more capable than today, useful to the</tspan></text>
    <text class="st4" transform="translate(1079.2406 576.1714)"><tspan x="0" y="0">bloc, but not a China substitute.</tspan></text>
    <rect class="st0" x="1078.38" y="420.17" width="18" height="18" rx="3" ry="3"/>
    <text class="st15" transform="translate(1106.3841 435.1715)"><tspan x="0" y="0">Conservative</tspan></text>
    <text class="st2" transform="translate(1078.3841 458.1715)"><tspan x="0" y="0">meaningful fraction of demand; Gujarat-led</tspan></text>
    <rect class="st17" x="1074.38" y="323.17" width="18" height="18" rx="3" ry="3"/>
    <text class="st15" transform="translate(1102.3843 338.1713)"><tspan x="0" y="0">Accelerated</tspan></text>
    <text class="st2" transform="translate(1074.3843 361.1713)"><tspan x="0" y="0">at scale; 2nd cluster; cells cross over</tspan></text>
    <rect class="st19" x="1075.38" y="173.17" width="18" height="18" rx="3" ry="3"/>
    <text class="st15" transform="translate(1103.3841 188.1713)"><tspan x="0" y="0">Breakthrough</tspan></text>
    <text class="st2" transform="translate(1075.3841 211.1713)"><tspan x="0" y="0">global alternate; heavy-REE; a champion</tspan></text>
  </g>
</svg>