<?xml version="1.0" encoding="UTF-8"?>
<svg xmlns="http://www.w3.org/2000/svg" version="1.1" viewBox="0 0 1300 720">
  <!-- Generator: Adobe Illustrator 30.4.0, SVG Export Plug-In . SVG Version: 2.1.4 Build 226)  -->
  <defs>
    <style>
      .st0, .st1, .st2, .st3, .st4, .st5, .st6 {
        fill: #4a5567;
      }

      .st1, .st2, .st7, .st3, .st8, .st4, .st9, .st6, .st10, .st11 {
        isolation: isolate;
      }

      .st1, .st2, .st3, .st8, .st4 {
        font-family: ArialMT, Arial;
      }

      .st1, .st10 {
        font-size: 15px;
      }

      .st2, .st9 {
        font-size: 17px;
      }

      .st7 {
        font-size: 29px;
      }

      .st7, .st8, .st10 {
        fill: #0f1828;
      }

      .st7, .st9, .st10, .st11 {
        font-family: Arial-BoldMT, Arial;
        font-weight: 700;
      }

      .st12 {
        stroke: #2bc5b4;
        stroke-dasharray: 10 8;
        stroke-width: 3px;
      }

      .st12, .st13 {
        fill: none;
      }

      .st14 {
        fill: #fbf9f4;
      }

      .st15 {
        fill: #fff;
      }

      .st3 {
        font-size: 13px;
      }

      .st16 {
        stroke: #c8443b;
      }

      .st16, .st5 {
        fill-opacity: .12;
        stroke-width: 1.2px;
      }

      .st16, .st9 {
        fill: #c8443b;
      }

      .st8 {
        font-size: 18px;
      }

      .st4 {
        font-size: 12px;
      }

      .st17, .st11 {
        fill: #2bc5b4;
      }

      .st5 {
        stroke: #4a5567;
      }

      .st6 {
        font-family: Arial-ItalicMT, Arial;
        font-size: 14px;
        font-style: italic;
      }

      .st11 {
        font-size: 21px;
      }
    </style>
  </defs>
  <g id="Layer_2">
    <rect class="st14" x="1.16" y="-2.54" width="1301.84" height="720.17"/>
  </g>
  <g id="Layer_1">
    <circle class="st15" cx="447.35" cy="408.57" r="205"/>
    <rect class="st5" x="863.73" y="243.34" width="380" height="50" rx="5" ry="5"/>
    <rect class="st5" x="863.73" y="313.34" width="380" height="50" rx="5" ry="5"/>
    <rect class="st16" x="863.73" y="383.34" width="380" height="50" rx="5" ry="5"/>
    <rect class="st16" x="863.73" y="453.34" width="380" height="50" rx="5" ry="5"/>
    <rect class="st5" x="863.73" y="523.34" width="380" height="50" rx="5" ry="5"/>
    <circle class="st12" cx="447.35" cy="408.77" r="210"/>
    <circle class="st17" cx="447.35" cy="198.77" r="14"/>
    <circle class="st17" cx="647.35" cy="343.77" r="14"/>
    <circle class="st17" cx="570.35" cy="578.77" r="14"/>
    <circle class="st17" cx="324.35" cy="578.77" r="14"/>
    <circle class="st17" cx="247.35" cy="343.77" r="14"/>
    <path class="st13" d=""/>
    <path class="st0" d="M1048.48,508.09l5.25,10.5,5.25-10.5h-10.5Z"/>
    <path class="st0" d="M1162.93,412.14" marker-end="url(#a12)"/>
    <path class="st13" d=""/>
    <path class="st0" d="M1048.48,438.09l5.25,10.5,5.25-10.5h-10.5Z"/>
    <path class="st0" d="M1092.93,412.14" marker-end="url(#a12)"/>
    <path class="st13" d=""/>
    <path class="st0" d="M1048.48,368.09l5.25,10.5,5.25-10.5h-10.5Z"/>
    <path class="st0" d="M1022.93,412.14" marker-end="url(#a12)"/>
    <path class="st13" d=""/>
    <path class="st0" d="M1048.48,298.09l5.25,10.5,5.25-10.5h-10.5Z"/>
    <path class="st0" d="M952.93,412.14" marker-end="url(#a12)"/>
  </g>
  <g id="Layer_3">
    <text class="st3" transform="translate(1101.7986 47.6005)"><tspan x="0" y="0">Techadyant Labs · 2026</tspan></text>
    <text class="st7" transform="translate(38.16 47.6)"><tspan x="0" y="0">The circular shortcut</tspan></text>
    <text class="st2" transform="translate(36.82 94.02)"><tspan x="0" y="0">Recycling recovers already-separated material — bypassing China&apos;s hardest chokepoint</tspan></text>
    <text class="st4" transform="translate(31.69 690.26)"><tspan x="0" y="0">Source: Techadyant Labs analysis; Strategic Mineral Recovery Initiative (2025).</tspan></text>
    <text class="st10" transform="translate(387.6 157)"><tspan x="0" y="0">Products in use</tspan></text>
    <text class="st1" transform="translate(342.83 179)"><tspan x="0" y="0">motors, EVs, drives, electronics</tspan></text>
    <text class="st10" transform="translate(671.86 330)"><tspan x="0" y="0">End of life</tspan></text>
    <text class="st1" transform="translate(672.95 353.21)"><tspan x="0" y="0">collection &amp; sorting</tspan></text>
    <text class="st10" transform="translate(584.86 598)"><tspan x="0" y="0">Recovery</tspan></text>
    <text class="st1" transform="translate(567.86 620)"><tspan x="0" y="0">magnet &amp; metal extraction</tspan></text>
    <text class="st10" transform="translate(198.66 598)"><tspan x="0" y="0">Re-processing</tspan></text>
    <text class="st1" transform="translate(148.46 620)"><tspan x="0" y="0">avoids primary separation</tspan></text>
    <text class="st10" transform="translate(119.16 321)"><tspan x="0" y="0">New magnets</tspan></text>
    <text class="st10" transform="translate(134.98 339)"><tspan x="0" y="0">&amp; materials</tspan></text>
    <text class="st1" transform="translate(97.47 361)"><tspan x="0" y="0">back into hardware</tspan></text>
    <text class="st11" transform="translate(391.47 398)"><tspan x="0" y="0">CIRCULAR</tspan></text>
    <text class="st2" transform="translate(342.17 431)"><tspan x="0" y="0">recovered = pre-separated</tspan></text>
    <text class="st9" transform="translate(860.24 188.57)"><tspan x="0" y="0">vs the primary chain</tspan></text>
    <text class="st8" transform="translate(876.24 272.57)"><tspan x="0" y="0">Mine ore</tspan></text>
    <text class="st8" transform="translate(876.24 346.57)"><tspan x="0" y="0">Crack &amp; leach</tspan></text>
    <text class="st8" transform="translate(876.24 414.57)"><tspan x="0" y="0">Remove thorium (waste)</tspan></text>
    <text class="st8" transform="translate(876.24 484.57)"><tspan x="0" y="0">Solvent extraction ×100s</tspan></text>
    <text class="st8" transform="translate(876.24 554.57)"><tspan x="0" y="0">Separated oxide</tspan></text>
    <text class="st6" transform="translate(860.24 628.57)"><tspan x="0" y="0">Recycling skips the two hardest, most China-concentrated steps.</tspan></text>
  </g>
</svg>