<?xml version="1.0" encoding="UTF-8"?>
<svg xmlns="http://www.w3.org/2000/svg" version="1.1" viewBox="0 0 1450 800">
  <!-- Generator: Adobe Illustrator 30.4.0, SVG Export Plug-In . SVG Version: 2.1.4 Build 226)  -->
  <defs>
    <style>
      .st0, .st1, .st2, .st3, .st4, .st5, .st6, .st7, .st8, .st9, .st10, .st11, .st12 {
        isolation: isolate;
      }

      .st0, .st2, .st3, .st4, .st5, .st7, .st8, .st11 {
        font-weight: 700;
      }

      .st0, .st2, .st4, .st7, .st8, .st11 {
        font-family: Arial-BoldMT, Arial;
      }

      .st0, .st4, .st11, .st12 {
        fill: #0f1828;
      }

      .st0, .st5 {
        font-size: 21px;
      }

      .st1 {
        font-size: 15px;
      }

      .st1, .st6, .st10 {
        fill: #4a5567;
      }

      .st1, .st6, .st10, .st12 {
        font-family: ArialMT, Arial;
      }

      .st2, .st13 {
        fill: #c8443b;
      }

      .st2, .st12 {
        font-size: 22px;
      }

      .st3, .st5 {
        font-family: CourierNewPS-BoldMT, 'Courier New';
      }

      .st3, .st8 {
        fill: #087c6b;
      }

      .st3, .st11 {
        font-size: 19px;
      }

      .st4 {
        font-size: 29px;
      }

      .st14 {
        fill: #fbf9f4;
      }

      .st5 {
        fill: #9a7d20;
      }

      .st6 {
        font-size: 13px;
      }

      .st7 {
        fill: #896713;
      }

      .st7, .st8 {
        font-size: 20px;
      }

      .st9 {
        font-family: Arial-ItalicMT, Arial;
        font-style: italic;
      }

      .st9, .st10 {
        font-size: 12px;
      }

      .st9, .st15 {
        fill: #c9a84c;
      }

      .st13 {
        fill-opacity: .1;
        stroke: #c8443b;
        stroke-width: 1.5px;
      }

      .st15 {
        stroke: #c9a84c;
      }

      .st15, .st16 {
        fill-opacity: .12;
        stroke-width: 1.3px;
      }

      .st16 {
        fill: #2bc5b4;
        stroke: #2bc5b4;
      }
    </style>
  </defs>
  <g id="Layer_1">
    <rect class="st14" x="0" width="1453.06" height="800"/>
    <rect class="st16" x="41.25" y="159" width="440" height="96" rx="8" ry="8"/>
    <rect class="st16" x="41.25" y="279" width="440" height="96" rx="8" ry="8"/>
    <rect class="st16" x="41.25" y="399" width="440" height="96" rx="8" ry="8"/>
    <rect class="st16" x="41.25" y="519" width="440" height="96" rx="8" ry="8"/>
    <rect class="st16" x="41.25" y="639" width="440" height="96" rx="8" ry="8"/>
    <rect class="st15" x="901.25" y="159" width="540" height="96" rx="8" ry="8"/>
    <rect class="st15" x="901.25" y="279" width="540" height="96" rx="8" ry="8"/>
    <rect class="st15" x="901.25" y="399" width="540" height="96" rx="8" ry="8"/>
    <rect class="st15" x="901.25" y="519" width="540" height="96" rx="8" ry="8"/>
    <rect class="st15" x="901.25" y="639" width="540" height="96" rx="8" ry="8"/>
    <rect class="st13" x="521.25" y="279" width="340" height="300" rx="10" ry="10"/>
  </g>
  <g id="Layer_2">
    <text class="st6" transform="translate(1274.7 29.6418)"><tspan x="0" y="0">Techadyant Labs · 2026</tspan></text>
    <text class="st4" transform="translate(16.4 38.3)"><tspan x="0" y="0">The capital stack of the mineral transition</tspan></text>
    <text class="st1" transform="translate(16.4 67.3)"><tspan x="0" y="0">Who pays — India&apos;s domestic schemes and allied financing</tspan></text>
    <text class="st10" transform="translate(16.58 773.78)"><tspan x="0" y="0">Source: PIB; CHIPS Act; CFR; SEC filings; Techadyant Labs analysis.</tspan></text>
    <text class="st9" transform="translate(1171.2526 773.7838)"><tspan x="0" y="0">outlays as announced, mixed years/currencies</tspan></text>
    <text class="st8" transform="translate(126.5 135)"><tspan x="0" y="0">INDIA — domestic outlays</tspan></text>
    <text class="st11" transform="translate(59.76 198.23)"><tspan x="0" y="0">ISM (semiconductors)</tspan></text>
    <text class="st3" transform="translate(59.76 228.23)"><tspan x="0" y="0">₹76,000 cr + ₹8,000 cr FY27</tspan></text>
    <text class="st11" transform="translate(59.76 318.23)"><tspan x="0" y="0">ECMS (components)</tspan></text>
    <text class="st3" transform="translate(59.76 348.23)"><tspan x="0" y="0">₹22,919 cr</tspan></text>
    <text class="st11" transform="translate(59.76 438.23)"><tspan x="0" y="0">ACC PLI (battery cells)</tspan></text>
    <text class="st3" transform="translate(59.76 468.23)"><tspan x="0" y="0">₹18,100 cr</tspan></text>
    <text class="st11" transform="translate(59.76 558.23)"><tspan x="0" y="0">NCMM (minerals)</tspan></text>
    <text class="st3" transform="translate(59.76 588.23)"><tspan x="0" y="0">₹16,300 cr (₹34,300 cr total)</tspan></text>
    <text class="st11" transform="translate(59.76 678.23)"><tspan x="0" y="0">REPM (magnets)</tspan></text>
    <text class="st3" transform="translate(59.76 708.23)"><tspan x="0" y="0">₹7,280 cr</tspan></text>
    <text class="st7" transform="translate(946.72 135)"><tspan x="0" y="0">US / ALLIANCE — financing the non-China chain</tspan></text>
    <text class="st0" transform="translate(930.37 196)"><tspan x="0" y="0">CHIPS Act (semiconductors)</tspan></text>
    <text class="st5" transform="translate(930.37 226)"><tspan x="0" y="0">$52 bn</tspan></text>
    <text class="st0" transform="translate(930.37 316)"><tspan x="0" y="0">CHIPS → critical minerals (floated)</tspan></text>
    <text class="st5" transform="translate(930.37 346)"><tspan x="0" y="0">$2 bn</tspan></text>
    <text class="st0" transform="translate(930.37 436)"><tspan x="0" y="0">USA Rare Earth (CHIPS)</tspan></text>
    <text class="st5" transform="translate(930.37 466)"><tspan x="0" y="0">$277 m + $1.3 bn loan</tspan></text>
    <text class="st0" transform="translate(930.37 556)"><tspan x="0" y="0">US magnet recycling/mfg (Nov 2025)</tspan></text>
    <text class="st5" transform="translate(930.37 586)"><tspan x="0" y="0">$1.4 bn</tspan></text>
    <text class="st0" transform="translate(930.37 676)"><tspan x="0" y="0">MP Materials (DoD)</tspan></text>
    <text class="st5" transform="translate(930.37 706)"><tspan x="0" y="0">$400 m + $150 m</tspan></text>
    <text class="st2" transform="translate(567.98 329.23)"><tspan x="0" y="0">THE FINANCING GAP</tspan></text>
    <text class="st12" transform="translate(584.44 365.23)"><tspan x="0" y="0">Patient capital for the</tspan></text>
    <text class="st12" transform="translate(589.89 399.23)"><tspan x="0" y="0">decade of subscale</tspan></text>
    <text class="st12" transform="translate(580.19 433.23)"><tspan x="0" y="0">midstream economics:</tspan></text>
    <text class="st12" transform="translate(589.25 467.23)"><tspan x="0" y="0">floor prices, offtake,</tspan></text>
    <text class="st12" transform="translate(591.83 501.23)"><tspan x="0" y="0">blended finance —</tspan></text>
    <text class="st12" transform="translate(574.73 535.23)"><tspan x="0" y="0">still largely unstructured.</tspan></text>
  </g>
</svg>