<?xml version="1.0" encoding="UTF-8"?>
<svg xmlns="http://www.w3.org/2000/svg" version="1.1" viewBox="0 0 1100 940">
  <!-- Generator: Adobe Illustrator 30.4.0, SVG Export Plug-In . SVG Version: 2.1.4 Build 226)  -->
  <defs>
    <style>
      .st0, .st1, .st2, .st3, .st4, .st5, .st6, .st7, .st8, .st9, .st10, .st11, .st12 {
        isolation: isolate;
      }

      .st0, .st13, .st14, .st9, .st10 {
        fill: #fff;
      }

      .st0, .st2, .st4, .st5, .st8, .st9, .st10, .st11, .st12 {
        font-family: Arial-BoldMT, Arial;
        font-weight: 700;
      }

      .st0, .st5, .st6 {
        font-size: 14px;
      }

      .st1 {
        font-size: 15px;
      }

      .st1, .st15, .st3, .st16, .st6, .st7, .st17 {
        fill: #4a5567;
      }

      .st1, .st3, .st6, .st7 {
        font-family: ArialMT, Arial;
      }

      .st13, .st18, .st19, .st20, .st17, .st21 {
        stroke-miterlimit: 3.64;
      }

      .st13, .st14 {
        stroke-width: .41px;
      }

      .st13, .st14, .st20 {
        stroke: #c9a84c;
      }

      .st15, .st22, .st23, .st16, .st24, .st25, .st17, .st21 {
        stroke: #fff;
      }

      .st15, .st23, .st25 {
        stroke-width: 3.62px;
      }

      .st2 {
        font-size: 29px;
      }

      .st2, .st4, .st5, .st11, .st12 {
        fill: #0f1828;
      }

      .st22, .st16, .st24 {
        stroke-width: 1.5px;
      }

      .st22, .st25 {
        fill: #2bc5b4;
      }

      .st18 {
        stroke: #4a5567;
        stroke-dasharray: 4.94 2.47;
      }

      .st18, .st19, .st20 {
        fill: none;
        stroke-width: 2.96px;
      }

      .st26 {
        fill: #fbf9f4;
      }

      .st19 {
        stroke: #2bc5b4;
      }

      .st14 {
        stroke-linejoin: round;
      }

      .st3 {
        font-size: 13px;
      }

      .st23, .st24, .st21 {
        fill: #c9a84c;
      }

      .st27 {
        fill-opacity: .1;
        stroke: #c8443b;
        stroke-width: 1.06px;
      }

      .st27, .st8 {
        fill: #c8443b;
      }

      .st4, .st9 {
        font-size: 27.15px;
      }

      .st7 {
        font-size: 12px;
      }

      .st8 {
        font-size: 19px;
      }

      .st17, .st21 {
        stroke-width: .99px;
      }

      .st10 {
        font-size: 19.83px;
      }

      .st11 {
        font-size: 17px;
      }

      .st12 {
        font-size: 16px;
      }
    </style>
  </defs>
  <g id="Layer_2">
    <rect class="st26" x="5.49" width="1094.51" height="940"/>
  </g>
  <g id="Layer_1">
    <text class="st3" transform="translate(942.75 25.02)"><tspan x="0" y="0">Techadyant Labs · 2026</tspan></text>
    <text class="st2" transform="translate(9.71 50)"><tspan x="0" y="0">India&apos;s hardware clusters — and which chokepoint each holds</tspan></text>
    <text class="st1" transform="translate(9.71 79)"><tspan x="0" y="0">The map of who is winning what: assembly, design, and the missing midstream</tspan></text>
    <text class="st7" transform="translate(9.71 890)"><tspan x="0" y="0">Source: CSIS; Invest India; state policies. India outline: Techadyant canonical asset.</tspan></text>
    <g id="india-map">
      <path id="path3907" class="st14" d="M110.2,741.43c1.46,0,2.2-.74,2.2-.74,0,0,1.46-3.19,1.71-.99s-.25,3.19-.25,3.93,1.46,2.2,0,2.7-1.71,1.71-2.7.25-.99-5.15-.99-5.15h.02Z"/>
      <path id="path3909" class="st14" d="M107.26,749.54s-.99-.74-1.23.49-.74,1.71-.25,2.96c.49,1.23,1.23,1.23,2.7,1.97s3.19,0,3.19,0l-.25-2.7-2.96-2.7h-1.23l.03-.03Z"/>
      <path id="path3911" class="st14" d="M116.36,758.87c.25.99,1.23,1.71,1.23,1.71l-.49,1.97,2.7.74s1.23-.74.99-1.97-.25-1.97-1.23-2.45c-.99-.49-3.19,0-3.19,0h0Z"/>
      <path id="path3913" class="st14" d="M130.85,757.41v2.7l1.97.99,1.46-1.23s.49-1.71-.49-1.97c-.99-.25-2.96-.49-2.96-.49h0l.02.02Z"/>
      <path id="path3915" class="st14" d="M112.42,767.23l-.49,2.2,1.46.74,1.46.25-.49,1.46s-.25,1.23,1.23,1.71c1.46.49,2.2.25,2.2.25l-.49-2.2.25-1.23"/>
      <path id="path3917" class="st14" d="M111.68,768.45l2.45,2.45s.25,1.97,1.23,2.7c.99.74,2.7,0,2.7,0,0,0,.25-1.46,0-2.45s0-1.71,0-1.71c0,0,0-.74-1.46-1.23s-1.23-1.71-2.2-1.97-2.2,1.46-2.7,2.2h0l-.02.02Z"/>
      <path id="path3919" class="st14" d="M138.45,764.04c-.49,1.23-.74,4.43.99,4.18,1.71-.25,1.71.74,2.45-.74.74-1.46,1.23-1.97,1.23-3.44s-.25-3.93-1.71-2.7-2.96,2.7-2.96,2.7h0Z"/>
      <path id="path3921" class="st14" d="M131.33,768.45s-.74,2.2.74,2.45c1.46.25,2.45,1.71,2.45,0s.99-3.19-.49-3.19-2.7.74-2.7.74h0Z"/>
      <path id="path3923" class="st14" d="M130.36,773.62c0,1.46-.25,2.96,1.23,2.96s2.7-.49,2.7-1.46-.25-1.71-1.23-1.71-2.7.25-2.7.25h0v-.03Z"/>
      <path id="path3925" class="st14" d="M119.79,776.32s-.49,1.71.99,1.97,3.44-.99,3.19-1.97c-.25-.99-3.93-1.23-3.93-1.23l-.25,1.23h0Z"/>
      <path id="path3927" class="st14" d="M114.87,779.01c.49,1.71,1.71,4.92,2.96,3.69,1.23-1.23,1.97-2.96,1.97-2.96l-3.69-2.45-1.23,1.71h0l-.02.02Z"/>
      <path id="path3929" class="st14" d="M124.94,781.48c1.46,1.23,3.44,1.71,3.69.74s1.71-1.46.49-2.2-3.19-1.97-3.44-.74c-.25,1.23-.74,2.2-.74,2.2h0Z"/>
      <path id="path3931" class="st14" d="M153.69,783.19c1.46,2.2,3.19,2.96,3.19,2.96,0,0,1.71.49,1.97-1.46.25-1.97,2.7-1.97-.25-3.44s-1.71-3.44-3.44-1.46c-1.71,1.97-1.46,3.44-1.46,3.44h0l-.02-.03Z"/>
      <path id="path3933" class="st14" d="M127.64,786.16c.25,2.2,1.46,3.44,2.45,2.2s2.7-2.96,1.23-3.19-3.69.49-3.69.99Z"/>
      <path id="path3935" class="st14" d="M126.43,794.25c1.71-2.2,3.19-2.2,1.23-2.96-1.97-.74-2.7-2.96-3.19-.99-.49,1.97-1.23,1.97-1.71,2.7-.49.74-.49.99.74,2.7s.99,2.7,2.45,2.45c1.46-.25,2.2.99,1.97-.99s-1.46-2.96-1.46-2.96h0l-.03.05Z"/>
      <path id="path3937" class="st14" d="M119.3,797.69c.25,1.23,3.69.99,3.69,0s.99-1.97-.74-2.45c-1.71-.49-4.92-.49-4.43,1.23s1.46,1.23,1.46,1.23h0l.02-.02Z"/>
      <path id="path3939" class="st14" d="M117.33,798.68c-.25,1.71.25,4.18,1.23,3.44s3.44-1.46,1.71-2.45-2.96-.99-2.96-.99h.02Z"/>
      <path id="path3943" class="st14" d="M151.73,800.65c0,1.71-.74,3.19,1.71,3.19s3.69,1.23,3.19-.74-1.46-3.44-1.46-3.44c0,0-2.7.25-3.44.99h0Z"/>
      <path id="path3945" class="st14" d="M131.08,830.62c1.23,2.45,2.2,2.45,2.7,1.23s1.46-.25.49-2.2-1.97-3.19-1.97-3.19c0,0-1.71-.25-2.7.99s-1.71,3.19-1.71,3.19h3.19v-.02Z"/>
      <path id="path3947" class="st14" d="M134.04,842.43c.74,1.71,1.97,2.96,1.97,2.96,0,0,1.71-.99,1.71-2.2s1.46-.49,0-1.97c-1.46-1.46-3.44.99-3.69,1.23h0v-.02Z"/>
      <path id="path3904" class="st14" d="M595.35,352.84l-4.13,6.19.94,4.69s-1.69-.38-2.63-.56-3.75-.76-3.75-.76c0,0-1.88,1.32-2.63,1.88s-4.69.76-4.69.76l-1.88.56s-1.32.94-2.63.56c-1.32-.38-2.45-.76-3.19-.18-.76.56.38,1.88-2.45,2.07-2.81.18-7.14,1.32-7.88.56-.76-.76-3.75-3.55-3.75-3.55l-2.25-.18-2.07,1.69s-2.07,0-2.63,1.14.38,2.07-.76,1.88c-1.14-.18-3.01-.76-3.01-.76l-1.14,1.14-2.81,1.51-6.38,6.94s1.51,9.2,2.25,9.56c.76.38,4.87,2.25,4.87,2.25,0,0,1.51.18,1.51,1.88s-1.14.94-.94,3.01c.18,2.07.94,4.31.94,4.31l1.14,2.63,21.59-6.19,30.97,1.51-3.37,8.82,1.88,3.55s3.75,2.25,4.69,2.63,1.88.94,1.88.94l-2.25.18s-3.37.18-2.45,1.69c.92,1.51,2.25,2.25,2.45,3.19s0,1.88,0,1.88c0,0-2.45-.38-2.63,2.25s-.18,4.31-.18,4.31l3.93,8.46s11.63.38,12.57-.76,5.07-5.45,6.57-9.2,6.38-15.39,6.19-22.9c-.18-7.52,6.76-15.76,11.83-23.84,5.07-8.08,14.46-20.27,18.22-22.33s11.83-8.08,11.83-8.08c0,0,9.02-7.88,9.2-8.82s-3.01-8.08-3.01-8.08l-.18-11.25s-10.7-2.25-15.39.76-20.65,11.25-29.65,15.2c-9.02,3.95-17.84,11.63-20.27,12.39s-14.46,4.51-14.46,4.51h0l.05-.05Z"/>
      <path id="path3901" class="st14" d="M655.04,353.8l1.32-3.19,2.07-.56,1.32-.18.38-.38,1.88-1.32s.76-1.32,1.32-2.45-.38-1.69,1.14-1.88,3.55-.38,3.55-.38c0,0-.38-.38.56-.76s2.81-.56,2.81-.56c0,0,1.51-.94,2.25-1.69.76-.76,2.45-1.88,2.45-1.88l-1.14-1.32-3.37-2.63s-2.07-2.07-1.88-3.37c.18-1.32.76-2.63,1.51-4.31s1.69-3.37,1.69-3.37c0,0,.18-1.32-.94-1.32s-2.45-.18-3.93.38-2.63.94-2.63.94l-1.14,2.45s-1.32,1.32-3.19.94-2.45-.38-3.19.56c-.76.94-1.14,1.69-2.25,2.25s-1.32,1.51-3.37,1.51-2.45-.38-2.81.94.76,1.51-.94,1.88c-1.69.38-3.55-.94-3.75,0-.18.94,1.88,2.63-.56,2.63s-5.82-.56-6.94.56-2.63,2.81-3.19,4.13-4.13,3.75-4.51,4.69-.38,2.25-1.88,3.37-1.51,2.45-1.51,2.45c0,0-1.14,1.69-1.51,2.45s-2.63,1.32-4.31,1.32-3.37-.38-5.07,0-2.45,1.88-2.45,1.88c0,0-1.88-.18-3.55-.76s-2.63-2.25-6.01-1.51c-3.37.76-2.07.38-4.51,1.51-2.45,1.14-1.51,1.32-3.55,1.69-2.07.38-3.37,1.32-3.37,1.32,0,0-1.69-.56-1.69-1.32s.51-4.94.94-6.38c.79-2.68-3.01-2.81-5.45-3.19s-5.45.38-6.19-.18c-.76-.56-1.69-2.81-1.14-3.75s-.56-6.76-.18-7.52,3.19.18,4.31,1.32,2.25,3.19,4.51,2.07-.56-2.07,3.37-2.63,3.93-.56,6.19-.56,5.63-1.69,5.63-2.45.38-2.45-.38-3.55c-.76-1.14-3.19-.38-.76-1.69s3.01-2.63,3.75-3.19c.76-.56-.56-1.32,1.51-2.07,2.07-.76,6.01-1.69,6.01-1.69,0,0,1.32-1.69,1.14-2.63s-.18-3.55.76-4.13,1.32-2.81,2.81-3.01,2.07.56,3.75.76.18-.76,3.37-1.51c3.19-.76,3.37-1.14,3.37-1.14,0,0,.94-1.32,2.45-3.37s2.07-1.32,2.63-3.19.18-3.19,1.69-4.31,2.81-1.14,4.69-3.37,1.88-5.45,3.55-5.07,1.88,1.69,2.63,2.63,4.51,3.01,7.14,3.01,3.55.94,5.25,1.32,4.69-1.14,4.87-2.45,1.51-3.01,2.81-4.31,5.63-4.31,7.14-4.31,2.63-1.51,3.19,0,1.14,2.81,1.14,2.81l3.19.56,1.51.76s.56,1.88-.76,2.81-3.19,2.25-3.19,2.25l-.94,2.81s.76,1.32,1.69.18-.56-.94,1.14-1.69,3.55-1.32,3.55-1.32c0,0,1.32,2.07,1.88,3.37.56,1.32,1.88,3.19,2.25,3.93.38.76-.76,3.75-1.51,4.69s-3.19,2.63-3.19,2.63l-2.07,2.25,4.31-.94s3.19-.56,4.13-.56,2.63.76,3.55,1.51c.94.76,1.14,1.14,2.45.94,1.32-.18.94-.94,2.81-.56s2.45,1.51,3.75,1.69,3.37,0,3.37,0c0,0,.76-.38.18,1.88s-1.51,2.07-.76,2.81c.76.76,1.32-.38,1.51,1.69.18,2.07-1.32,4.51-1.32,4.51l-3.55,3.55-3.55,2.25s-2.25,1.32-.94,2.63.76,3.19,3.37,4.69c2.63,1.51,2.07,1.32,3.01,2.81s1.51,3.37.76,3.93-4.13.18-5.45,0-1.88-1.69-3.19-2.81-.56-3.55-2.45-2.63-1.14,1.14-2.81,2.07-1.32.94-2.63.76c-1.32-.18-1.88,1.14-1.88,1.14,0,0-3.01.76-3.93.94s-1.51-.56-2.63,2.25,1.32,3.01-2.25,4.87-2.63.56-4.31,3.01-5.45,3.19-5.45,4.69,1.51.94-.18,2.25c-4.28,3.32-6.57.94-6.94.18s-4.13-9.76-4.13-9.76h-.07l.03-.02Z"/>
      <path id="path3788" class="st14" d="M481.83,491.36s.76,1.23.86,2.58c.1,1.37.43,3.11.61,3.39s.56.99,1.74.99,2.73-.1,2.91.1c.18.18-.23.48.56.94.81.48,1.69.53,1.69.53,0,0,.48.71.71,1.42.23.71.33,1.65,1.23,1.79s1.65-.05,2.17-.61,1.51-.53,2.2.1,1.65,2.48,2.68,2.73,2.4,1.04,2.76.81.23-.56,1.23-.99c.99-.43.61-1.65,1.97-.18,1.37,1.46,1.37,1.61,1.97,1.51.61-.1,4.71-.43,4.61-1.32-.1-.9-.86-2.86-.48-3.72s1.74-1.93,2.45-1.69,2.12,1.04,2.02,1.56-.76,1.79-.48,2.53c.28.76,1.09,1.79,2.35,1.09s3.39.53,4.43-.86c1.04-1.37,2.53-2.12,3.11-3.14.56-1.04,1.18-1.37,1.97-.53.81.86,3.95,2.2,4.66,1.79s1.61-.86,1.84-1.51,0-2.76.05-3.62,1.09-1.93.76-3.11-.99-2.12-1.61-3.47c-.61-1.37-1.23-1.84-1.23-2.73s.15-4.52-.56-5.56-1.46-.48-1.69-2.07c-.23-1.61.53-2.53.38-3.52s-.05-2.3-.33-3.57-1.65-1.56-1.18-2.58,1.89-1.51,1.97-2.4c.1-.9-.23-3.67-1.32-3.82-1.09-.15-4.76-.66-4.57-1.23.18-.56,1.04-1.28,1.14-1.74.1-.48.9-4.2-.76-5.18-1.65-.99-3.82,0-4.61-2.48-.81-2.48-.23-3.57.66-4.76s1.84-1.09,2.63-2.53.66-2.07.43-3.44-.71-4.33-.48-4.94c.23-.61.43-1.74-.66-2.12s-9.61.1-10.22-1.28-3.34-4.23-3.52-5.69c-.18-1.46-.23-3.44.1-3.85.33-.43.15-.81,1.84-.94s3.44-.33,3.44-1.32.18-3.62.71-4.61-.1-1.61,1.65-1.79,3.11-1.14,3.85-1.28c.76-.15,4.28.18,4.76.15s3.01-1.09,2.45-3.29-.56-3.67-1.56-3.95c-.99-.28-3.39-.23-3.39-1.37s.18-2.91-1.18-2.91-2.81.66-3.67.53c-.86-.15-3.72-1.46-3.57-2.25s.23-1.32-.81-1.89c-1.04-.56-3.47-2.4-3.85-2.68s-2.68-1.46-2.91-1.69-.38-.33-.66-.05c-.2.2,2.17-2.06,2.32-3.64.07-.72-1.61-1.42-1.97-1.46-.2-.03,7.88-6.1,5.71-4.03-.82.77,2.07-.07,2.7-1.78.36-.95-1.56-2.44-1.42-3.44.07-.44,3.37,6.73,6.52,8.41.54.3,2.48.72,2.45-.12-.03-.86-2.06-3.01-1.53-3.67.48-.59,2.88,1.09,3.93,1.09s.81-1.65,1.42-1.56c1.97.25,4.21,5.82,6.35,6.96,2.29,1.18,4.46.23,6.22.58,2.78.54.54-4.03,1.58-2.99.84.86.54-1.83.67-3.37.07-.86-1.79-2.55-1.27-2.76.46-.21,1.61-.26.33-1.51-.77-.76-.69-2.22-.12-1.93,1.18.63,1.04-1.58,1.02-1.78-.02-.99-2.42-1.84,2.35-1.09.76.12-.2-.58-.63-1.91-.58-1.76.08-4.41-1.14-4.76-.86-.25-2.91.12-3.93-.49-1.6-.95-2.27-2.95-4.49-3.14-1.33-.12-2.6,2.34-4.03,2.3-1.76-.02-3.59-2.25-5.41-2.29-8.08-.16-16.22,1.88-19.45,3.08-.79.3-.67,3.24.39,3.42.81.13.25,1.58.03,2.71-.44,2.48-.46,5.61-.77,6.07-1.15,1.73-9.66,5.92-9.53,8.31.07,1.1,2.55,2.9,4.16,3.57.39.16,3.06-.53,2.76-.21-1.79,1.96-.69.38-.69.54,0,1.46.94,1.05.9,1.38-.05.76.15,4.28-.61,6.55-.76,2.25-2.35,14.17-.9,17.84,1.46,3.67-5.13,19.4-7.14,20.47-2.02,1.09-7.14,8.75-10.83,9.03-3.67.28-10.04.86-10.65,2.58s-1.28,6.07-2.86,5.41-7.57-.38-8.85,1.04-3.06,12.47-1.09,14.12,9.33-2.17,12,.05,6.83,8.05,6.68,8.98,4.43,9.23,4.43,9.23h0v-.03h.1Z"/>
      <path id="path3791" class="st14" d="M512.07,512.14s.35,1.1,1.05.05,1.76-1.25,1.37-2.25c-.39-1-.3-1.42-.71-1.91s-.39-2.3-1.3-1.15c-.9,1.15-.71,1.86-1.2,2.67s-1.42.39-.71,1.37c.71.95,1.51,1.25,1.51,1.25h0l-.02-.02Z"/>
      <path id="path3797" class="st14" d="M514.93,508.98c.05.49.3,1.1.21,2.06-.1.95.05,1.65.44,2.01s1.96.21,2.06-.05.44-.35.26-1.2c-.21-.86-.1-.49-.49-1.51-.39-1-.9-1.42-1.1-1.46s-1.37.15-1.37.15h0l-.02.02Z"/>
      <path id="path3800" class="st14" d="M519.76,507.47c-.39.61-.39.05-.81,1.1s-.86,1.05-.39,2.06c.44,1-.54,1.81.49,1.42s1.37-.61,1.56-1.2c.21-.61.61-.3.3-1.37s-.9-1.96-.9-1.96l-.26-.05h.02Z"/>
      <path id="path3803" class="st14" d="M522.42,507.32c-.35,1.05-.21,0-.44,1.3-.26,1.3.05,1.15-.15,2.2-.21,1.05-.05,1.61.35,1.96s-.39,1.1.54.49c.95-.61,1.05-.39,1.15-1.81s.3-.81.1-2.3-1.56-1.86-1.56-1.86h0l.02.02Z"/>
      <path id="path3806" class="st14" d="M526.49,505c-.66.54-1.25.39-1.1,1.86s0,.95.71,2.62.61,2.06.95,2.62,1.51,2.01,1.76,1.3c.26-.71.44-1.2.61-2.06.15-.86.66-1,.44-2.01-.21-1-.44-1.2-.9-2.4-.44-1.2-2.47-1.91-2.47-1.91h0v-.02Z"/>
      <path id="path3808" class="st14" d="M532.08,505.31c.44.21,1.05.44,1.15,1.42.1.95.3,1.86.95,2.06s1.05-1.05,1.61.3.35,2.71-.3,2.86c-.66.15-3.62-.15-4.03-.9s-.26-1.25-.86-2.12-.9-1.25-.95-2.01-.21-1.25.71-1.25,1.71-.35,1.71-.35h0Z"/>
      <path id="path4071" class="st14" d="M523.93,505.05c1.78-.51,1.51-1.61,1.51-1.61,0,0-1.18.35-1.51.77s-.59.86-.59.86h.59v-.02Z"/>
      <path id="path3898" class="st14" d="M630.41,408.52c-.81-1.33-4.64-5.84-5.97-6.78s-1.86-3.04-1.73-3.85c.13-.81.13-2.25-.81-3.32s-1.73-.54-1.05-1.86,1.18-1.33,1.86-1.73,1.99,0,2.12-1.18-.26-1.46.39-2.4c.67-.92,1.73-1.05,1.99-1.86s.67-1.86,1.05-2.65c.39-.81,1.05-1.86,1.99-1.46.92.39,2.12.92,2.91,1.05.81.13.92-1.05.67-1.6s-.92-.13-.39-1.18c.54-1.05.81-1.33.67-1.73s-.81-1.46-.67-2.25c.13-.81.26-1.05.92-1.6.67-.54.13-1.6,1.33-2.52,1.18-.92,1.46-2.65,1.46-3.46s0-2.4.54-2.65c.54-.26,1.86-.54,2.25-.13s1.73.92,1.99.26-.13-1.6.54-3.04,3.19-3.04,4.38-4.25c1.18-1.18,3.04-2.52,4.38-3.72,1.33-1.18,4.38-3.59,4.38-3.59,0,0,.39-1.18,1.46-.39s2.25,1.33,2.25,1.99-.54.67-.54,2.12.26,1.6.81,1.73.92.92.81,1.86c-.13.92-1.46,1.05-.26,2.4s1.99,1.6,2.52,1.05c.54-.54,1.33-.81,1.33-.81,0,0,.39.13.13,1.46s-1.86,1.33-2.4,1.99c-.54.67-2.78,2.25-2.65,3.46s1.6,4.11,1.6,4.11c0,0,.54,3.46.54,3.98s1.33,1.99,1.33,2.65-1.46,3.85-1.73,4.92-.39,4.77-.39,4.77c0,0-.54,2.91-1.18,3.72-.67.81-3.32,4.11-3.32,4.11,0,0-3.98,1.99-4.64,2.65s-20.83,9.69-20.83,9.69h0l-.05.02Z"/>
      <path id="path3895" class="st14" d="M623.25,440.78c2.52-1.05,8.36-2.25,9.02-3.59.67-1.33,1.18-1.86,1.99-1.05s1.73,1.46,2.4,1.73-.13-1.18,2.78-.54c2.91.67,3.72,1.46,3.72,1.46,0,0,3.19-1.33,3.32-2.12s-.13-1.18-.39-1.99-1.18-1.73-.13-2.52,1.86-3.98,2.12-4.51.81-3.85.81-3.85c0,0,1.73-.92,1.86-1.99.13-1.05,1.05-4.51,1.05-4.51l2.12-2.91,1.46-4.38-.67-4.25-1.33-1.86h-1.05l-1.05-3.59,2.12-2.12.54-1.18.13-.92-2.12-1.46s-.54-2.78,0-3.59,1.18-1.6,1.18-1.6l-1.46-1.33s-.81.67-1.33,1.6-1.73,1.99-2.78,3.19c-1.05,1.18-.67,1.73-1.73,1.99s-2.78.54-2.65-.54c.13-1.05-.67-1.33-.81-.81s-1.05,1.46-1.18.92-.39-.67-1.33-.92c-.92-.26-3.19-.67-4.64,0s-1.99,1.46-1.73,2.12c.26.67,1.18,1.05.39,1.86-.81.81-1.6.92-1.73,1.86-.13.92-.81,2.12-.81,2.78s.92,1.46-.39,1.05c-1.33-.39-1.86-1.46-3.04-1.46s-1.99-.13-2.4.39c-.39.54-.67,1.18-.67,1.6s-.39,1.86-.39,1.86c0,0-.81.39-.81.81s.26.67-.54,1.05c-.81.39-1.18,1.46-1.18,1.86v3.19c0,1.05-.92,1.86-1.73,2.65-.81.81-1.18,1.73-1.05,2.65s1.33,1.73.26,3.04c-1.05,1.33-1.6,2.78-1.6,2.78v2.4c0,.92-1.18,2.91-.92,5.31s6.37,9.43,6.37,9.43h.02Z"/>
      <path id="path3892" class="st14" d="M599.77,434.67c1.05,0,3.32-.39,4.38-1.73s.13-2.4,1.73-2.52.92,1.46,1.86,1.99c.92.54,1.6,0,2.65-.92,1.05-.92,1.18-.67,1.18-2.12s-1.33-1.86,0-3.04,3.04-2.91,3.04-2.91c0,0,.39,1.33.54,2.52s1.33,1.46,1.73.39c.39-1.05,1.05-1.73,1.05-1.73,0,0,.81.81.81,2.25s-.67,3.32-.39,5.18.92,2.4,2.4,2.4,2.91-.81,2.91-.81c0,0,.92,0,1.6.39s.67-.92,1.86,1.05c1.18,1.99,1.86.67,2.12,2.52.26,1.86,1.18,5.18,1.18,5.18,0,0-.39,4.25-.39,5.18s.13,2.12-.54,2.91c-.67.81-1.46.81-.81,2.12.67,1.33,2.65.67,2.12,4.77-.54,4.11-.54,4.38-.54,4.38,0,0-2.4,1.73-4.25,2.12s-3.32.54-3.04,2.12,1.6,3.72,1.6,3.72c0,0,.26.92.39,2.52s1.05,3.32,1.18,3.72.54,1.86.54,3.19v3.32s.67,4.25.54,4.92c-.13.67-1.18,1.18-1.86,2.52s-2.12,3.85-2.12,4.51-.39,2.78-1.86,1.86-3.85-2.4-3.85-2.4l-1.18,1.73s-1.86,1.33-2.4.92c-.54-.39-1.73-3.04-1.73-3.04l.39-4.38s-.92-2.78-.81-3.59-.39-3.59-.54-4.64-.54-3.59-.54-4.77.13-2.52-1.05-3.59c-1.18-1.05-3.46-4.25-3.19-4.92s1.99-5.31,1.99-5.31c0,0-2.12-3.32-2.52-4.25s-1.73-2.91-1.46-4.11.13-3.32-.54-3.72-1.99-1.46-1.86-2.52c.13-1.05,1.6-1.86.13-1.86s-3.04-6.24-3.04-6.24l.54-5.31h.05Z"/>
      <path id="path3889" class="st14" d="M601.49,447.27l.26-1.05c.26-1.05.81-.54.81-1.99s-.92-2.25,0-1.86,1.86-1.05,1.73-1.99c-.13-.92-.26-1.05-.92-1.86s-.67-2.52-.39-3.59c.26-1.05,1.33-.67.13-1.99-1.18-1.33-1.18.26-1.33-2.52s-.26-1.86-.67-3.04-.54-2.78-1.33-1.86c-.81.92-3.32,1.18-3.85,1.05-.54-.13-1.05-.81-1.6,0s.26,4.92.13,5.45c-.13.54-2.91-.13-2.91-.13,0,0-1.46-.26-1.86.26s-2.12,1.6-2.12,1.6l-1.18,1.73s-2.52.81-3.32.92c-.81.13-2.12.54-2.52,1.33s-1.86,3.72-1.86,4.25.67,1.6-.13,2.52-1.46,3.04-1.33,3.59c.13.54,0,3.32.39,3.85s2.52,2.91,2.65,3.59,1.6,5.45,1.46,6.1c-.13.67.81,3.85.81,3.85,0,0,2.65.13,2.65-.39v-3.04s1.46.67,1.86,1.46c.39.81.54,3.85,1.18,4.11s3.85,1.05,4.51.67c.67-.39,2.12-3.04,2.25-3.72s-.13-4.11-.54-5.05c-.39-.92-1.86-1.18-.67-2.25s1.99-1.73,2.4-2.65,1.33-5.58,1.33-5.58c0,0,.26-1.33,1.33-1.18s2.65-.54,2.65-.54h0l.02-.03Z"/>
      <path id="path3886" class="st14" d="M545.34,399.62s1.33,1.73,1.73.92,1.46-1.33,1.05-2.4-1.18-1.6-1.33-2.4-.67-1.99-.13-2.52,1.6-2.52,1.6-2.52c0,0-.67-.92.26-.92s1.46.26,2.65,0c1.18-.26,1.05-.26,1.73-.92.67-.67.81-1.18,2.25-1.18s1.05,0,2.25-.54c1.18-.54,2.25-.67,2.4.54.13,1.18-.67,1.46.39,1.73,1.05.26,1.05-.67,1.99-1.6.92-.92,1.6-1.6,1.73-1.05s.54,2.78.54,2.78c0,0-.13,1.05,1.05.67,1.18-.39,1.73-1.46,2.91-.81,1.18.67,2.52.92,3.04.81.54-.13,1.33-.13,1.33-.81s-.54-.81.81-1.05c1.33-.26,1.73.54,1.73-.39s.39-2.65.39-2.65c0,0,2.25-.39,2.25.26s.26,1.33.26,1.33c0,0,.81.92,1.33-.39.54-1.33,0-1.73,1.99-1.73s2.12.92,3.04-.54,2.4-3.85,3.32-3.32,2.4,1.86,2.4,2.65-.92,1.33-.13,1.86c.81.54,1.46,1.05.54,1.73-.92.67-1.99,0-1.33,1.46.67,1.46,1.05,1.46,1.05,2.4s.54.81,1.73.26,2.25-1.73,3.98-.92,1.05,1.18,2.25,1.6,2.25-.13,2.52,1.18c.26,1.33.39,2.78-.39,3.72-.81.92-1.73,1.6.39,1.46s2.25-1.46,2.65-.13c.26.89.49,1.6.67,2.12.26.81.81,1.05.54,1.86s-.39,1.99-1.6,2.65-1.33.54-1.99,1.6-.81,2.12-1.33,2.12-.13-1.05-1.73-.81c-1.6.26-1.33,1.86-.92,2.4s.26-.92-2.78-.39-2.91-.92-3.85.39c-.92,1.33,1.33,1.46-1.05,1.99-2.4.54-7.17-.39-8.23-.39s-4.11-1.99-4.92-1.73-.26,1.46-2.4,1.86-5.58.13-6.1-.26c-.54-.39-1.46-2.91-2.52-.92-1.05,1.99-.26,1.99-2.4,2.25-2.12.26-2.52.39-4.25.13s-1.99-.54-3.59-.81-1.86.13-2.65.13-2.65-1.33-3.85-1.6-2.52.54-3.59-.13c-1.05-.67-1.18-1.46-1.46-2.91-.26-1.46-1.6-1.86-.13-3.19s2.25-1.33,2.12-2.4c-.13-1.05-.26-2.52-.26-2.52h-.05l.05-.02Z"/>
      <path id="path3883" class="st14" d="M521.65,369.33c1.68.21,1.33,3.47,4.39.61,5.41-5.05-3.18,1.42-6.45-8.82-.13-.54,1.05-2.12,1.05-2.12,0,0,1.86-1.33.92-2.91-.92-1.6-2.12-1.05-2.4-2.91s1.05-3.72,1.05-4.38.92-5.05.92-5.05l-2.91-5.45s-2.12-1.6-4.25-1.46-3.32,1.86-4.25,2.4-3.46,1.6-5.05,1.86-3.32-.13-3.19,1.6,1.99,2.4,2.25,3.32.26,3.04-.54,3.72-2.12,3.32-1.99,3.98,1.05,5.05.39,5.84c-.67.81-1.05,3.72-1.18,4.11s1.05,1.86,2.25,3.85c5.71,11.81-1.46,2.4,5.05,3.95,3.01.71,1.91.67,3.52.18,3.5-1.07,2.65,1.23,4.03-.71.82-1.17,2.24.39,4.72.05.86-.12.39-1.43,1.56-1.65h.02l.07-.02Z"/>
      <path id="path3880" class="st14" d="M190.53,733.11l-2.3,1.43s2.02,3.42,2.16,3.59,3.87,10.37,4.39,11.06c.53.67,3.67,4.51,4.51,4.95s2.24,1.12,3.31,2.58,4.03,4.48,4.23,4.67c.2.2.56,1.46,1.04,2.71.48,1.23,1.12,3.92,1.12,3.92,0,0,2.83,4.08,3.27,5.31s1.4,2.91,1.79,3.64c.39.72,1.18,2.4,1,3.55-.2,1.15-.28,2.16.16,2.75s.25,2.07.81,3.47c.56,1.4,1.4,4.11,1.93,4.92.53.81,2.35,4.08,2.63,4.71.28.64,1.04.56,1.71.72s1.74,1.74,1.74,2.24-.25,1.74-1.04,1.46-1.18-.48-1.43-.28.25,3.67,1.23,5.74c1,2.07,1.93,4.87,1.96,4.99s.36,5.35.76,6.66.56,3.47,1.32,4.31,1.23,1.56,1.04,2.44-.64,2.35.53,3.7c1.15,1.37,2.4,2.99,2.75,3.7.36.72-.03,2.44,1.23,3.67s4.23,3.52,4.39,3.55c.16.03,4.15,3.98,5.55,4.23,1.4.25,1.84.25,2.12.95.28.72-.39,1.71.28,2.4s3.47,3.67,4.39,3.92,2.2-.25,2.2-.25c0,0,2.2-1.15,2.71-2.24s.81-13.61.64-14.17.91-3.7,1.84-4.87,3.19-7.42,3.31-7.93c.12-.53-1-8.74-1-8.74l-1.32-18.23-11.9-21.79s-13.13-8.21-13.13-8.54-3.14-8.66-3.14-8.66c0,0-12.88-4.54-13.13-4.71s-7.26-10.05-7.65-10.22-12.95-7.75-12.95-7.75l-5,.39h-.07Z"/>
      <path id="path3877" class="st14" d="M229.71,762.12c0,.08.08,1.33.15,1.42s.35.9.41,1.63.05,1.23-.05,1.79c-.08.56-.51.77.08,1.37s.48.35.79.86c.33.51,1.56,1,1.61,1.32.05.3.59.48,1,.72s1.61.67,1.88,1.15c.26.49-.15,1.12.08,1.74s1.56,1.97,1.97,2.27,1.51,1.04,1.74,1.2.49-.15.67.72.43,2.02.2,2.27-.86.64-1.14,1.1-.41.77-.2,1.18.44.84.97,1.07c.51.23,2.68,1.25,3.42,1.55.72.3,1.14.44,1.33.87s.54,1.91.33,2.17-1.15,1.27-1.51,1.43-1.28.48-1.33.87c-.05.41,1.14,1.91,1.12,2.6s.2,1.97-.08,2.83-1.14,1.37-.33,2.65,1.51.94,1.91,1.42c.39.48.64.79.86.92s.95.23,1.55-.33,2.81-1.35,3.32-1.69.97-.87,1.51-.71,1.28.41,1.76.72c.48.33,1.14,1.4.97,1.63s-.77,1.1-1.09,1.4c-.33.3-1.33.28-.99,1.12.35.84.92,1.63,1.05,2.19s-.08,2.6-.39,3.36-.63,1.51-.43,1.97c.2.44.54,1.15.48,1.37s-.08,1.2-.69,1.96-1.04,1.42-1.18,1.88-.28,1.55.08,1.6,1.07.39,1.71-.41c.64-.79.99-1.12,1.33-1.12s1.6.92,1.89,1.4.54.49.56,1.15c.02.67.33,3.37-.58,4.03-.91.67-1.71,1.07-1.97,1.69s-.63,3.36-.67,4.11c-.05.77-.23,1.35-1.07,1.97s-1.4.58-1.63,1.35-.08,1.76.41,2.35,1.33.86,1.4,1.69.13,2.27-.49,2.63-1,.43-1.27,1.04c-.26.59.16,1.2.49,1.65s1.15,1.63,1.15,2.27-.28,1.61-.76,2.3-1.51,2.35-1.51,2.8.41,1.63.51,1.69c.12.07,1.51-.71,2.25.3s-.02,1.89,1.46,2.12,2.07.58,2.86.71,2.24.54,2.73.39,3.64-2.45,4.2-2.68,3.8-2.3,4.56-3.03,4.2-2.45,4.62-2.45,2.83-.12,3.23-1.42c.39-1.32.44-4.26.69-4.85s.44-5.43.43-5.94c-.02-.49,1.37-3.64,1.37-3.64,0,0,2.63-2.12,3.39-2.32s2.48,0,3.75-.07,2.91-1.04,3.88-1.42,5-.26,6.12-.41c1.12-.15,4.76-.3,5.13-.79.39-.49,1.27-.99.69-1.83s-.97-2.27-2.47-3.55-2.17-1.46-2.25-2.02c-.08-.56,1.76-6.02,2.4-6.58s2.39-2.24,3.16-3.04,3.11-3.16,3.14-3.93c.02-.77-.72-1.6-.87-2.11s2.32-4.39,3.04-4.39,2.75-.33,3.42,0,4.57.72,5.4.63,5.51-1.2,6.24-1.76c.71-.56,1.35-.36.43-1.56-.92-1.2-1.09-3.75-1.12-4.79-.02-1.04.56-6.06-.08-6.88s-.95-3.67-.91-4.2c.05-.51.69-3.47.43-4.16s-.69-2.86-1.2-4-1.48-3.42-1.35-3.78c.13-.36,1.15-1.6,1.55-1.99.39-.41.16-.26-.26-1.43s-.91-1.51-1.04-1.91-.02-2.99.49-3.31c.51-.33,1.07-3.7,1.2-4.03s.59-3.37,1.88-3.78c1.27-.41,2.91-.92,3.44-1.68s2.47-3.39,2.58-3.67,0-2.27-.35-2.6-1.89-2.11-1.84-2.45.07-.2,1.15-.67,4.39-2.83,4.54-3.59.86-3.01.86-3.01c0,0,2.3-2.63,2.32-3.55.02-.9.12-5.04-.02-5.4s-.28-3.09-1.55-4.48c-1.27-1.37-1.55-1.51-2.6-2.07s-3.6-.9-4.11-.82-5.1,4.03-5.63,4.49-5.4,1.05-6.45.97-5.38.71-5.66.84c-.28.13-.86,4.21-1.43,4.21s-5.68.72-6.07.79-9.77-1.05-9.99-.63-4.67,2.63-4.67,3.75-.33,5.87-.76,5.89c-.43.02-7.26-.3-7.73-.64s-2.71-2.19-3.14-2.19-4.57-2.4-6.24-1.12c-1.65,1.28-3.75,3.98-4.54,4.54s-4.57,1.65-4.77,1.91.58,7.5-.71,8.18-2.11,2.63-1.6,3.31c.51.69,5.2,4.08,4,4.79s-3.37,1.33-3.95,2.11-1.14,2.95-1.14,2.95c0,0-9.99,0-11.21-.07s-3.55-.21-3.83,1.51-.48,3.32-1,3.23c-.54-.12-8.74-2.67-9.89-3.03s-1.93-.16-1.93-.16h0l-.07.03.02.05Z"/>
      <path id="path3874" class="st14" d="M278.22,733.81s.12,2.5.59,3.27c.49.77,1.91.99,2.57,1.25s2.07.71,2.24,1.37.99,1.58,1.58,1.58,1.42-.33,1.42-.33c0,0-.12-1.69-.12-2.12s.92-.49,1.25-.16.99.66,1.2.66.33-1.1.38-1.84c.05-.77-.16-.82.38-1.46.54-.66.54-1.14.87-1.63s.99-.33.59-1.25c-.38-.92-.87-1.69-.87-1.69,0,0,.05,0,.71-.21s1.74-.59,2.07-1.46c.33-.87-.26-1.74.66-1.14s.49.59,3.21,1.2c2.73.61,4.36,1.04,5.07.59s.92-.87,2.07-.99,1.96-.12,2.62-.05c.66.05,3.09-1.42,3.6-1.91s.71-.59.87-1.1c.16-.49-.54-1.1.38-1.58.92-.49,2.12-1.46,2.83-.87.71.59,1.2.54,2.07.49s1.14-.38,1.96.33.54,1.63,1.51,1.74c.99.12,1.63-.33,2.24-1.42.59-1.1.33-1.69,1.32-2.07s1.42-1.25,1.74-1.96-.33-1.37.66-1.32,1.79-.12,2.17-.26-.16-.05,0-1.04.16-1.04.87-.87,1.25,0,1.09-.38-.66-1.96-.66-2.29.87-1.58,1.58-1.04,3.04,2.02,3.27,1.51c.21-.49-.44-4.31-.71-5.23s-.38-1.79-1.37-3.54-1.37-2.45-1.91-3.42c-.54-.99-1.46-3.75-1.51-3.98s.16-1.14,1.2-1.84c1.04-.71,1.84-1.91,1.96-2.24s-1.37-7.08-1.51-7.68c-.16-.59-2.57-7.14-2.5-7.68s-.71-5.99-.26-6.27,2.67-2.02,3.16-2.73,1.37-1.96,1.63-2.5,1.37-3.16,1.58-3.54,4.85-4.25,5.82-4.25,4.25-.38,5.12.44,1.14,1.91,1.74,2.24,2.5,1.32,3.16.33,3.09-5,3.93-5.61c.82-.59,1.69-.16,1.63-2.07-.05-1.91.05-2.17,1.32-2.57,1.25-.38,1.46-5.94,1.69-6.22.21-.26,2.67-1.37,3.42-1.46s3.37,2.07,3.82,2.29,2.88-.05,3.65-.16,4.31-1.14,4.31-1.14c0,0,3.16-2.12,4.41-2.17s3.75-1.51,4.41-1.96,1.58-1.69,2.24-1.91.99-1.2.99-3.21-1.09-4.52-1.2-5.71c-.12-1.2-.66-3.87.12-3.87s9.53-5.56,10.19-6.27,1.79-.87,2.83-1.04c1.04-.16,1.51-.87,2.12-1.32s2.12-.26,2.67-.54c.54-.26,6.81-5.89,6.81-5.89,0,0,.87-4.08.92-4.9s.26-3.16,1.04-3.65,4.36-4.2,6.37-4.95c2.02-.77,9.31-4.9,9.91-5.94s3.65-5.33,4.36-6.15,5.12-5.89,5.71-6.65c.59-.77,1.37-.99,1.69-3.37.33-2.4,2.45-3.16.59-3.54s-12.19,2.24-13.34,2.24-7.24-6.37-11.81-4.46c-4.57,1.91-14.43,9.97-16.83,11.6s-8.18,4.9-9.53,5.23-12.8,11.06-13.02,11.22-9.26,8.11-10.45,8.21c-1.2.12-4.41-1.58-4.74-2.07-.33-.49-12.08-10.19-12.85-11.88s-10.56-7.47-12.92-7.85-4.57-.33-4.57-.33c0,0-6.1-14.69-5.89-15.47s-1.09-6.04-5-6.32c-3.93-.26-7.4-.71-10.51-.54-3.09.16-16.22-5-17.59-5.23s-8.82-1.37-9.76,1.14-5.99,9.76-8,10.63-7.73,4.31-7.95,6.37c-.21,2.07-1.63,10.02-2.67,11.06s-3.93,8.11-3.37,9.26c.54,1.14-2.5,19.4-2.02,20.65s-.99,23.04-2.29,23.69c-1.32.66-2.12,8.21-1.51,9.31s-9.97,4.85-9.64,7.47-3.09,16.72-3.37,17.75c-.26,1.04-4.2,15.3-3.32,17.49s5.07,16.06,5.07,17.49,10.73,7.47,13.77,7.03c3.04-.44,22.66,16.67,22.66,16.67h0v-.03h-.07Z"/>
      <path id="path3871" class="st14" d="M163.19,656.84l-3.27,3.19s.91,1.37,1.28,2.06,1.07,3.04,1.51,3.65c.46.61,0,1.28.67,1.51s1.89,0,2.58.23,1.14.54,1.14.54l-2.96.99.3,2.2s1.83,1.83,2.2,2.44.67,1.07,1.14,2.35,1.07,2.5,1.51,3.19,1.14.99,2.06,2.2.3,2.44.91,2.9,2.44.38,4.03-.46c1.6-.84,6.78-19.4,6.61-20.01s-10.04-7.91-10.58-7.85-9.2.84-9.2.84h0l.07.02Z"/>
      <path id="path3865" class="st14" d="M330.25,584.85s-1.1,1.93,1.1,3.44c2.22,1.51,4.15.71,5.96,1.32,1.83.61,2.53.61,2.93,1.32s.3.71.82,1.1c.51.39.3.1.61,1.32s-.1,2.02,1.32,3.14c1.42,1.1,1.1.3,2.02,1s1.1,1.42.39,1.51-1.83-.1-1.83.82-.1,2.44,1,1.83c1.1-.61,1.22-1.22,1.83-1.42s1.83-1.22,1.51-.21-.71,1.32.51,1.32,1.83-.71,1.93,0-.91.81-1.22,1.71-.3.81.21,1.42,1.22.71,1.1,1.93c-.1,1.22-.71,1.42.1,2.63.82,1.22,1.22,2.93,2.12,1.93s.71-1.71,1.61-1.42,2.22.21,4.15,1c1.93.82,1.61,1.32,3.54.21s16.37-21.84,19.81-23.65-1.61-16.27,4.25-18.69c5.86-2.44,9-11.22,8.9-12.23s-3.93-4.34-4.54-4.76-1.32-6.68-1.42-8.79c-.1-2.12-.91-5.76,0-7.29s2.12-6.78,2.53-6.98,12.03-.71,13.34-1.51,17.57-22.54,18.18-24.16,7.88-19.5,8.79-21.33-3.32-12.42-3.54-13.85c-.21-1.42-2.22-16.08-3.83-16.68s-15.96-4.54-18.18-4.64c-2.22-.1-10.61-.39-15.37.3s-27.69,4.85-28.5,6.98c-.82,2.12-.91,12.54-1.32,15.06s-28.7,59.73-28.7,59.73c0,0-3.44,32.14-3.32,33.55.1,1.42,1.22,23.04,1.22,23.04h-.03Z"/>
      <path id="path3868" class="st14" d="M259.99,595.69c1.07.26,2.95,1.42,2.95,1.42,0,0,.89.35,1.07.89.18.54.26,1.25.18,2.48-.08,1.25-.18,1.79.44,2.95s.72,2.4.72,3.47.35,2.68-.63,3.21c-.99.54-.72,1.96-1.79,1.96s-1.96,0-2.14.99-1.15,1.96.89,2.4c2.06.44,1.69-.26,2.06.44s2.68,1.25,3.55,1.15-.99,2.58-1.69,2.76c-.72.18-1.51.18-2.14.99s-2.14,1.88-2.48,2.4c-.35.54-.89,1.25-1.51,1.96-.63.72.08,1.69.81,1.88s1.15.54,1.07,1.15c-.08.63-.99,1.51-.81,2.14s1.15,1.33.63,1.79-1.61.99-1.33,2.06.89,1.15.54,2.68.35,2.14.08,2.48-1.96,1.61-2.95,2.58-1.61,2.06-1.15,2.4,2.68,1.33,2.95,1.51,1.15-.63,1.79-.54c.63.08.89.99,2.06,1.15,1.15.18,1.79.54,1.25.89s-2.22.63-2.32,1.42-.63,1.79-.63,3.65.35,2.95-.35,3.47c-.72.54-2.4,1.69-3.39,1.33s-1.88.08-2.22-.89c-.35-.99-.89-1.61-1.42-1.33s-2.95-.18-3.55.63c-.63.81-1.69,1.33-1.42,2.22.26.89,1.69,1.51,1.61,2.48s-.18.99.18,1.61c.35.63.89.81.26,1.51s-2.06,3.65-3.03,3.75c-.99.08-2.48-.26-1.15.81s2.4.35,2.76,2.06c.35,1.69,1.25,2.76,1.69,3.03s1.15,4.64-.18,4.72-3.39.99-4.46.63-1.96-.89-3.13-.99c-1.15-.08-2.14.35-2.14,1.07s.08,1.15.99,1.79c.89.63,2.32,1.15,1.96,2.22-.35,1.07.44,1.42-.72,2.06-1.15.63-1.51,2.76-1.61,3.75s-.81,2.06,0,2.76,1.96,1.61,2.95,1.69,1.33.99,1.33.99c0,0-1.33.26-1.42,1.25s1.33,3.29,2.48,3.47,3.39.81,3.39.81c0,0,.18-1.88.18-2.4s1.07-1.42,1.88-.54c.81.89,2.48,1.88,3.13,2.14s1.42.08,1.51-.63,0-1.51.72-1.33,1.33.63,1.88,1.25,1.69,1.25,1.07,2.22c-.63.99-.35,1.25-.89,1.42-.54.18-.99-.18-1.88-.35s-1.79,0-1.79.72,1.25,2.14,1.61,2.68c.35.54.72,1.69.72,2.4s-1.33.63-2.14-.81-4.9-.35-6.34-2.06c-1.42-1.69-2.06-2.14-3.03-2.76-.99-.63-1.96-1.61-2.14-1.15s.89,1.25,1.07,2.95,1.15,2.4,1.15,2.4c0,0,1.07,1.15.63,1.79-.44.63-1.15,1.42-1.15,2.06s.35,1.79.35,1.79c0,0,3.47.35,3.55,0s.63-.26.35-1.51-.89-1.42-.81-1.96c.08-.54,1.15-.99,1.61-.26.44.72,2.22,1.96,3.13,1.96s3.21,1.25,3.55,1.42c.35.18.89,1.07.99,1.61.08.54,1.42,1.25,2.06.35s1.79-.99,2.22-1.15,1.07-.26,1.96-.26.54-.54.89-.99.18,0,.89-1.07,1.51-2.58,1.51-2.58c0,0,.18.54.81,1.33.63.81.89,1.07,2.06,1.25,1.15.18,1.79-.72,2.68-.63s1.88.18,1.96,1.07-.35,1.25-.54,2.06c-.18.81.63,2.48,1.88,3.39,1.25.89,1.33.81,2.58.72,1.25-.08,2.22,0,2.22,0,0,0,.35,1.07.35,1.96s-.26,2.58.18,3.47.63,1.79,2.14,1.69c1.51-.08,2.22-.08,2.22-.08,0,0,1.15.81.72,1.33s-.63,1.33-.81,2.14-.08,1.33-.63,2.4-.44,1.96-2.06,2.68-2.76,1.07-2.95,1.33-.72.54-.99,1.25-1.42,2.14-1.79,2.32-2.76-.54-3.47-.63-1.61-.89-3.39-.99-2.4.08-2.68.54-.08,1.51-1.15,1.88-1.15,1.33-1.96,1.88-.72.44-1.79.54-1.96,1.25-1.96,2.58.99,1.51,1.25,2.4.08,2.4-1.33,3.47-2.4,1.69-2.32,2.58,1.25.99,3.55,1.15,3.21-.08,3.29.26-.63,3.13-1.25,3.55-.99,1.15-.99,1.15c0,0-.18.08-.99.54s-1.33.81-2.22.81-1.25-.54-1.96,1.07c-.72,1.61-1.07,2.4-1.51,2.68s-1.42-.44-2.86-.72-4.9.89-5.43,1.25c-.54.35-1.25-.63-1.96-.63s-3.03-.35-3.93.72-.99,1.61-1.25,2.86c-.26,1.25.63,1.69-.81,1.33s-4.1-.44-4.46-.81c-.35-.35-2.4-1.51-3.13-1.61-.72-.08-1.33-.54-1.79.08s-.54,1.15-1.33,1.07-1.07-.72-1.69-1.79-1.61-3.03-3.29-2.95-2.14-.99-2.32-2.22c-.18-1.25-1.42-2.22-2.22-1.69s-2.48.89-3.47.54-2.32.18-2.32-1.07.72-1.88-.54-2.22-2.22.44-3.65-.63-1.69-1.69-2.32-2.48c-.63-.81-1.25-1.96-2.4-2.86-1.15-.89-2.06-.18-2.06-1.51s-.26-3.03-.44-3.65-.81-.08-1.42-.81c-.63-.72-.54-1.33-.63-1.88-.08-.54-.54-1.15-.99-.81-.44.35-.89.89-1.25.44-.35-.44-.08-.54-.63-.99-.54-.44-.54-.72-1.42-1.07s-1.33-.08-1.79-.72c-.44-.63-.72-2.14-1.42-2.22-.72-.08-3.75.72-4.28.72s-2.06-.99-2.06-.99c0,0-3.03-5.35-3.03-7.14s-1.15-9.54-1.15-10.43-.72-1.96-.08-3.39c.63-1.42-1.88-4.64-1.69-5.89s-1.25-4.1-2.32-5.79-.54-2.76-.26-3.55-.35-.54-.81-1.79c-.44-1.25-.44-5.27-1.88-5.79s-1.69.26-1.69-.89,1.25-1.61.89-2.4c-.35-.81-1.42-2.14-2.4-2.48s-1.69-.44-1.79-1.15.72-.35,1.25-1.25c.54-.89,0-1.33.44-1.88s1.61-.72,1.61-.72c0,0,.89-.89.99-1.61.08-.72.08-1.61.08-2.32s-.18-3.39.08-4.2.08-.54.54-1.15.99-.89.44-1.88-1.33-.63-.63-1.61,1.07-1.25,1.15-1.69c.08-.44.72-.44.08-1.69-.63-1.25-1.42-3.55-1.88-3.55s-.89-.18-1.42.08c-.54.26-1.42,1.69-1.96-.08-.54-1.79,3.39-8.38,3.75-9.89s-.89-10.43-.89-11.32-.44-4.82,4.01-4.9c4.46-.08,7.14-.26,9.1-1.51s13.11-10.17,15.42-10.51,6.15-7.31,9.18-7.67,5.79.18,10.33.44,9.81-3.65,10.96-6.07,7.49-9.44,9.44-10.17,8.56-3.75,9.02-4.36c.44-.63,2.48-1.61,2.95-1.79s3.55,3.55,3.55,3.55l-.35-.44h0l-.02.07Z"/>
      <path id="path3832" class="st14" d="M360.66,608.04c.3.54.44,2.3.66,2.68,1,1.63-.18,0,.15.08.39.08,3.24-1.42,4.11-1.42s2.4-.58,3.06-1.37,1.42-1.96,2.45-1.99c1.02-.05,1.91-.13,2.58-.26.67-.13,1.46-1.91,2.12-2.12s2.62-.63,3.6-.35c.97.26,1.99.97,2.62,1.33s.97.39,1.15.13.31-.84.81-1.42,1.37-.39,1.42-1.37-.08-1.65-.26-2.07-.35-1.28-.35-2.12.35-.94.26-1.6c-.08-.67-.89-.84-.08-1.86s1.28-1.99,1.69-2.3c.39-.31,1.51-.35,1.6-.08s.76,2.58,1.23,2.88c.49.31,1.33,1.86,1.33,2.67s.94.39.94.39c0,0,.26-.49,1.42-1.02s1.91-.31,2.4-1.51.76-1.78,1.65-1.46c.89.31,1.46.81,2.07.94.63.13,1.73.63,2.3.39.58-.21,1.07-1.02,1.07-1.02,0,0-1.37-.58-1.28-1.23s.89-.76.97-1.56-.97-1.69-.81-3.06c.18-1.37.54-1.51,1.6-1.86s3.47-1.83,4.21-2.85,1.33-1.78,1.33-2.58-.26-1.73-.13-1.96c.13-.21.67.08,1.02-.35.35-.44.58-1.37.58-1.65s-.63-.67.49-1.1c1.1-.44,1.33-.08,1.86.21.54.31,1.2.08,1.65-.71.44-.81.71-1.28.71-1.28,0,0,.39.21.67.97s-.18,1.78.44,2.58c.63.81,1.37,1.2,1.46.71.08-.49.31-1.2.31-1.2,0,0,.26.81,1.02,1.69s1.1,1.2,1.56,1.86c.44.67,1.73,1.15,3.6,1.02,1.86-.13,2.85-.13,4.36-.21s2.25-.26,2.85-.84c.58-.58,1.78-.97,2.25-2.12s.39-2.88,1.91-3.06,2.8-1.42,3.82-1.33,3.06-.31,3.72-1.69c.67-1.37,1.6-2.48,2.75-3.55s3.69-1.02,4.49-2.67,2.4-1.1,2.58-2.07.76-2.71-.49-2.88c-1.23-.18-2.85.26-3.24-.58s-.26-1.46.54-1.91,3.6-2.4,4.03-2.45c.44-.05.35,1.78.39,2.04s.39,2.3,1.6,2.53,1.86-.18,3.09-.67,2.85-1.07,3.98-1.83c1.15-.76,7.54-3.5,10.55-4.61,3.01-1.1,6.02-3.64,6.96-4.97s4.21-5.05,4.61-5.15c.39-.08,1.86-1.86,1.96-2.88.08-1.02-.71-1.96-.49-3.06s1.96-2.58,2.3-2.93,1.37-1.83,1.69-2.25-.39-2.17-.39-2.62.26-1.69.54-2.2c.26-.54-.05-1.46-.39-2.04-.35-.58-3.85-3.09-3.5-4.87s1.2-2.25,1.99-3.24,2.71-2.48,3.42-3.27,1.42-1.37,2.4-1.42,1.99-.76,3.47-1.37c1.46-.63.35-1.1,2.85-1.33,2.48-.21,3.85.05,5.59-.63s2.48-.63,1.99-1.23.21-1.1-.58-2.4c-.81-1.28-1.91-2.96-3.82-2.96s-10.33-2.45-10.83-2.71-9.41-7.85-11.17-8.21c-1.78-.35-11.9-5.89-13.31-5.28s-4.39,6.65-4.66,7.27-17.84-5.46-20.85-6.48c-3.01-1.02-13.89-1.28-13.94-1.46s-1.37,3.42-2.17,3.47-3.85.26-3.85.26c0,0-1.23.12-1.45.56s1.18,4.39-.15,4.61c-.56.1-2.65,2.3-4.76,2.07-1.18-.13-2.22.63-4.2,2.17-.51.39.51,2.04-.02,2.48-.35.28.67.3.26.53-.72.41-.77-.44-1.69-.15-1.43.48,3.16,5.2.13,4.49-.21-.05-.84,2.12-1.69,1.79-.41-.16-1.61-.39-1.89.58-.77,2.68-1.18,3.13-1.91,3.65-1.18.86.76,5.46-1.14,4.21-.2-.12,2.81,1.18,2.45,1.91-.31.64-1.35-.49-2.32.16-.67.44-.02,1.46-.66,2.17-.31.35-.81.07-1.32.49-.9.74-1.86,5.43-1.89,3.97,0-.23-.9-.07-1.56-.51-.58-.38-1.02-1.33-1.91-1.79-1.42-.74-1.43,1.4-3.23.84-.66-.21-1.78.07-2.5-.16-1.05-.35-2.5,2.01-2.76,3.47-.26,1.46-.28,3.9-1.61,2.71-.46-.41-.18,1.88-.64,1.18-.28-.39,1.43,2.16.58,2.53-.95.43-1.88-1.28-3.39-.72-1.63.61,1.53,3.57.08,4.71-.41.31.05,2.02.21,3.42.12,1.07,1.09,2.9.31,2.86-.71-.02,1.33,2.98,0,1.83-.67-.59.26,1.84.61,3.6.15.74-.12,1.88.26,3.32.31,1.27,3.83,1.63,3.7,2.14-.07.21,4.72.15,3.93.16-.35,0,.13,1.79-.39,2.8-.21.39,1,1.51.49,1.61-.21.05-1.45.89-2.07.67-.69-.23-2.95-.38-2.24-1.1.36-.38-1.33,0-1.84-.58-.56-.61-3.01.81-3.37.18-.39-.67-1.91-3.34-1.99-3.41-1.02-.71-5.33-.77-6.12-1.42-.53-.41-1.25.16-1.76.21-.59.07-2.02.21-2.37.72-.43.64.3,1.69-.12,2.35-.56.9,1.84,1.84,2.01,2.06.26.35,3.47.58,3.78,1.84.13.59-.23,1.37-.76,2.09-.35.49,1.48.95,1.1,1.32-.16.15-.25,1.56-.44,3.04-.12.9,2.99,1.93,2.73,2.58-.15.36,2.17,1.46,1.37,1.61-.67.12.23,5.56-1.2,5.25-.51-.12,2.63,1.56,2.37,2.68-.25,1-.1,2.63-1.43,2.99-.64.16-1.37,3.37-2.35,3.16-.58-.13.21,1.96-1.91,1.84-.94.31-3.78-1.55-2.53-.95s.2.3-.56,1.5c.58,1.3,2.96,1.28,1.18,2.17-.77.38-2.17,3.9-4.2,4.95-2.68,1.4-4.1,2.45-4.67,3.04-.26.26-1.23-.54-1.81.49-1.56,2.83-.67,4.79-.67,4.79l-.44,2.39-1.81,1.93-.07-.03-.05-.05Z"/>
      <path id="path3822" class="st14" d="M146.88,547.24c1.18,1.42,2.48,3.92,3.92,4.39,1.42.48,6.42,2.37,7.47,2.02,1.07-.35,2.25-5.1,1.55-6.42s-2.02-4.76-4.16-5.46c-2.14-.72-6.53,1.18-7.37,2.25-.82,1.07-1.42,3.21-1.42,3.21h.02Z"/>
      <path id="path3819" class="st14" d="M158.33,547.58l-.35,2.68s-1,.95-1.25.82-2.07-1-2.55-1.18-2.14-.89-2.62-.77c-.48.12-.54.12-1.73-.25-1.18-.35-3.69-.41-3.98-.41s-3.03-1.37-3.03-1.37c0,0-.72,3.27-.72,3.55s-.89,3.21-1.3,4.03-1.61,3.37-1.61,3.37l1.07,4.28c.07.25,1.61,1.73,1.61,1.96s-.12,1.3-.3,1.73c-.18.41-.48,2.02-.3,2.25.18.25,2.14,1.37,2.14,1.37l-1.25,2.07s-.12,3.62-.12,4.16.12,5.46.59,5.1c.48-.35,2.07-3.32,2.37-3.62s2.8-.59,2.8-.59c0,0,1.14,1.18.3,1.73-.82.54-2.37.59-2.62.77-.25.18-.18,2.07.07,2.44s1,1.14.48,1.25-3.14.41-3.37,1.18c-.25.77.59,3.69.95,4.44.35.77,1.18,2.14.89,2.25s-1.55,1-1.55,1c0,0-.82.82,1.18,3.03s2.07,3.37,1.96,4.44.07,2.48.82,3.69c.77,1.18,1.25,2.62,2.37,5.17,1.14,2.55.72,4.51.82,6.06.12,1.55-.89,2.91-.41,3.75.48.82,2.14,1,2.2,1.55s-1.42.41-.95,2.2,1.3,2.48,1.42,3.14-.77,6.83,0,8.79,1,3.62.82,5.64,1.74,8.19,2.52,9.44c.77,1.25,1.3,2.8,1.37,3.8s.35,3.5,1.37,4.21,1.84,2.02,1.84,2.62,1.37.82,2.2.59,2.44-.54,3.03-1.48c.59-.95,1.18-1,1.18-1,0,0,1.79,2.73,2.44,3.14s2.37,1.42,3.32.77c.95-.66,1.18-1.66,1.96-2.55s.95-1.79,1.96-1.37,3.32-.07,3.85-.54,1.79-1.37,2.14-3.03-.3-2.3-.25-3.03,1.18-.54,1.37-1.84.12-2.91-1-3.27c-1.14-.35-2.02-2.14-2.07-2.91-.07-.77-.95-1.61-1.61-2.62s-.12-2.07,1.14-2.02,2.8.41,3.69-.48,1.84-.66,2.62-.3c.77.35,2.37.66,3.03-.54.66-1.18.82-1.84,2.25-2.3,1.42-.48,3.44-.48,3.92-.59.48-.12.59-2.44.89-3.8s.72-1.3,2.2-.41,1.89,2.44,4.16,1.79c2.25-.66,2.48-1.48,3.5-2.14s6.94-.35,7.54-.59,2.14,0,1.84-1.66c-.3-1.66-1.25-2.3-1.25-3.32s.48-.18.48-1.89-.72-1-.89-2.68c-.18-1.66-.35-2.48.95-1.96s2.07,1.84,3.75,2.25c1.66.41,2.48.66,4.28.3,1.79-.35,2.2-.07,2.85.35.66.41,1.48,1.07,2.8.48,1.3-.59,2.14-.59,3.03-.25s2.62,1.07,2.96.12,2.07-1.61.25-1.96-2.55-2.25-2.2-3.27c.35-1,1.42-1.61,1.79-2.02s2.37-2.2,2.62-3.21c.25-1,.77-.35.77-.35,0,0,0,.66.12,1.25s1.48.18,1.84-.41.77-.25.82.66c.07.89-.12,2.2.82,1.3.95-.89,1.3-1.73,1.61-3.21s-.82-1.66.59-1.73c1.42-.07,2.68.72,2.85-.18.18-.89.07-1.96-.12-2.62s.48-1.61.77-2.2-.07-1.61,2.37-2.2,2.73-.18,3.62-1.84,2.85-4.87,3.5-5.05,1.07-1.14,1.55.82.95,4.03,1.96,4.03,1,.59,1.96-.95,1.66-3.69,2.14-4.51,1.79-.3,2.37-1.66-.18-1,.82-2.48,1.61-.59,2.37-1.66c.77-1.07-.59-1.55.95-1.89s1.55.48,1.61-.41.54-1.48-.07-2.2-3.27-2.85-2.91-4.21c.35-1.37.89-1.37,1.14-1.66.25-.3.82-1.48,1.25-2.55s1.25-1.73,1.42-2.02c.18-.3-.07.3,1.42,1.25,1.48.95,2.48,1.55,3.37,1.42s1.73-.59,1.96-1.61c.25-1-.25-1.66.3-2.37s1.42-.25,2.14-1.37c.72-1.14.72-1.79.3-2.44-.41-.66.35-1,.72-1.61.35-.59,1.89-3.09,1.25-3.69s-1.18-1.55-.82-1.96,1.61,0,2.14.59.89,1.25,1.73.07,1.25-1.42,2.2-.82,1.96.41,3.09.66,1.55-.18,2.2,1.55-.3,2.73,2.14,3.21,2.8.59,3.55,1.14,1.25.95,2.3,1.37c1.07.41,1.89,1.18,2.25.59.35-.59.41-1.37.41-2.2s1.66-.54,2.55,0,2.25,1.42,4.1,1.07,2.2-1,3.8-1.25,2.48-.66,3.55.54,2.8,2.37,2.8,3.14-.18,3.03-.48,4.76c-.3,1.73-.95,1.48-1,2.8-.07,1.3.41.82.95,2.14.54,1.3.07,2.3.54,3.5s.35,1.96.66,3.03c.3,1.07-.07,1.79,2.25,1.96,2.3.18,4.03.25,4.76-.41s1.25-.59,2.02-1.25,1.3-1.89.95-3.32c-.35-1.42-.82-1.37-.25-2.44s.82-2.2.77-2.85c-.07-.66,1.07-.48,1.48-.72s0-1.14.54-2.14,1.79-1.37,2.2-2.14,2.07-.3,2.8.25,1.79,2.55,3.21,1.61,1.96-1.42,2.2-2.48.41-2.68,1.37-3.27.77-1.25.12-1.79-1.66-1.25-2.68-1.25-3.62-1.89-3.92-2.96-.3-1.48-.82-1.66-1.55-.12-2.37.3-1.79,0-1.61-.59.89,0,1.42-.89.77-1.07.82-2.07.77-1.61,1.3-2.44,1.79-.72.72-1.55-1.42-1.14-1.96-2.07-.25-.95-1.18-1-2.37.07-1.61-.89,1.55-.82,2.55-1.37,1.89-.41,2.2-.72.48-1.73.41-3.09c-.07-1.37.89-2.91.12-3.5s-2.68-.82-2.96-1.07-.89-.48-.12-.95c.77-.48,1.79-.89,1.79-1.96s.54-.89-.89-2.96-2.02-3.09-2.2-4.64-.54-2.25.18-3.03,1.07-1.37,2.3-2.02,1.96-.82,2.3-1.61,1.25-5.35-.25-6.12c-1.48-.77-2.14.72-4.64-2.73-2.48-3.44-.41-6.12-5.23-4.51s-7.31,4.51-12.18,2.73c-4.87-1.79-9.08-4.82-11.95-3.69-2.86,1.14-4.92,2.14-9.61,2.44-4.69.3-22.03,3.44-24.88,1.48-2.85-1.96-8.61-6.58-10.33-6.58s-12.18-.77-14.13.66-4.1,3.98-5.28,6.06c-1.18,2.07-17.52,7.31-26.31,2.44-8.79-4.87-11.47-5.89-15.32-6.83-3.85-.94-5.71-7.06-9.81-8.67s0-3.03-2.44-1.84c-2.44,1.18-7.54,3.09-9.44,3.8s-6.83-.77-6.53,3.27,1.66,10.4,1.37,11.47-4.39,4.69-5.51,6.06,2.91,9.74,2.07,10.4c-.82.66-6.12-4.21-8.08-.25s-2.8,9.26-3.32,10.63-1.37,4.69-1.37,4.69h0l.05-.03-.03.1Z"/>
      <path id="path3785" class="st14" d="M402.6,445.78c.26.16,2.07.66,3.16,2.04s3.08,3.7,3.85,4.33.54-.35,1.25,1.07,1.42,2.95,2.04,3.74.54,1.46,1.63,1.73,1.84-.18,2.17-.82c.31-.63,1.32-1.25,1.74-.48s1.63,1.74,1.28,2.98-1.15,1.94-1.46,2.73-.49,1.04.21,1.73.72,1.35.56,2.5.31,3.67,1,4.26c.69.59,1.66,2.35,1.84,2.42s1.15-.1,2.53-.1,2.25-.12,2.48.21c.21.35.97.31.31,1.07s-.87.35-.94,1,.54,1.46-.41,2.22-1.89.97-1.89,2.22-.82,2.04-1.66,2.39c-.86.35-3.29.82-3.54,1.14s.12,1.18.66,1.45,2.01.87,2.73.48,3.8-1.04,4.16-.49-.66,1.74-1.46,1.84-2.42.26-2.8.86-.41,1.15-.28,1.37c.12.21.49.12.69.21.18.1.69-.38,1.66.86s1.89,3.08,3.09,3.36c1.23.28,4.59.03,4.95-.69s.87-.94,1.97-.66c1.09.28,3.16.28,3.46-.31s.35-1.18,1.53-1.07,2.57.82,3.29.56,1.23-1.46,1.46-1.63,1.56-.26,1.63.38.82,3.52.44,5.05-.07,4.01.66,4.59c.72.56,1.37,1.23,1.83,1.37.44.16,1.73-.21,1.73-.66s.63-.69,1.07-.63,1.42-.38,1.74-.76,1.45-.69,1.63-.41.54.82,1.35.63c.82-.18,1.73-.63,2.22-.21.49.41,2.17,1.84,2.48,1.53s1.46-1.73,1.63-1.84.82-.38.77,0-.66.69-.72.86.18.54.35.76.12.44-.21.86c-.35.41-.56,1-.26.97s1.18-.56,1.35-.82.59.07.82.16,1.04.1,1.61-.31c.56-.41,1.35-1.18,1.37-2.35.03-1.15-.07-2.42.28-3.54.35-1.14.77-.76.44-1.51s-.97-2.35-.97-2.76,0-2.86.38-2.98,1.91.1,2.17.48.1.86,1.89,1c1.79.16,2.14,1.79,2.5,2.39s.86,1.45,1.42,1.53,1.37-.49,1.37-.87.41-1.35,1.14-.87.94,1.28,2.42,1.61c1.46.31,2.25.56,2.29.69.03.12.76.21,1.35.18s1.15.03,1.09-.54c-.07-.56-.35-.77,0-1.15s1.07-.38.97-1.45-.03-1.69-.9-1.94-1.37-1.32-1.15-1.69c.21-.38.82-.66.63-1.37s-.69-1.09-1.53-.9c-.86.18-1.53-.54-1.04-1.14s1.14-.48,1.14-1.37.35-.77-.41-1.32-1.46-.07-1.42-1.25.18-1.23.49-1.84c.31-.63.87-.87.38-1.25s-1.23-1.04-1.45-.76-.03.66-.97.38-2.07-.48-2.6-.87-.56-1.14-.21-1.61.72-.38.48-1.42-.31-1.45-.26-1.97-.12-1.07-.87-1.09c-.76-.03-1.35-.21-2.11.12-.76.35-.59,1.07-1.94.86s-3.83-.48-4.64-1.28-.9-1.37-1.84-1.42-1.04.21-1.53-1.04-.48-1.89-1.09-1.56-.97,1.28-1.45,1.09c-.48-.18-.76-.54-.77-.86s-.56-2.22.07-3.16,1.45-2.12,1.97-2.45c.54-.31,1.69-2.17,2.57-2.11s2.2.35,2.63.76c.44.41,1.37.86,1.94.69s2.48-2.25,2.76-2.8.82-1.18.48-1.69-.77-.28-.54-.77c.26-.49,1.23-.69,1.42-.9s.87-.94,1.66-1.15,1.04-.63,1.61-.69c.56-.07,1.83-.16,2.48.31s1.94,1.25,2.39,1.04,1.07-1.09,1-1.66c-.07-.56,1.07-1.46,1.46-1.97s1.63-.38,1.94-.26,2.01-.28,2.35-.9-.12-.66.56-1.23c.69-.56,1.73-.03,1.94.03.21.07,1.18.03.77-1-.41-1.04-.35-2.48.07-3.04s1.46-.21,1.84-.97.82-1.45.94-1.07.16,1.69.48,1.83,1.18-.38,1.25-.82.48-.48.87-.9.86-.59.86-.9.18-1.09.41-1.51c.21-.41.48-.86.77-.76s1.04-.07.97-.56-.41-.59-.18-1.45c.21-.86.59-1.07.77-1.42s.66-1.25.82-2.35.16-1.37.56-1.94,1.53-2.81,1.74-3.57.28-1.45.31-1.89-.12-3.98-.12-4.71-.28-.54-.1-1.79.44-1.51-.18-2.12-.48-1.14-1.63-1.37c-1.15-.26-2.01.49-3.01.97s-1.69-2.12-7.68,3.14c-5.99,5.27-2.91,5.79-3.64,7.34s-.31,5.74-1.73,5.61-2.6-1.15-3.24.31-7.06,2.29-9.1.49c-2.04-1.79-3.24-2.17-4.51-3.7-1.28-1.53-11.98-4.64-13.81-1.69-1.83,2.95-5.96,7.06-8.13,7.09s-5.58.16-8.16-.1-7.65,1.42-12.41-.26c-4.77-1.66-7.59-2.57-9.13-1.61-1.53.97-3.16,3.67-4.26,3.26-1.09-.41-10.7-7.21-11.67-2.2-.97,5,.03,12.29.03,12.29h0l.03-.07.03.07Z"/>
      <path id="path3013" class="st14" d="M403.62,435.74l3.29.03s.33-.49,1.4-.03c1.05.46.03.77,2.06.94s1.5-.26,2.58.33,2.3,1.23,3.39.46.69-1.96,1.27-2.73c.56-.77,1.96-.86,2.4.3s-.59,2.55.77,2.58,1.17.13,2.02-.46c.86-.59.3-.13,1.63-.23s1.43-.49,1.76-1.18,1.04-1.18,1.14-.36-.59,1.63-.03,2.32.72.1.94,1.3.13,2.25,1.23,2.76c1.09.49,2.32.3,2.3-.77-.03-1.05-.44-2.19.86-1.76s1.18,1.17,1.99,1.3.9,1.14,1.33-.44-.63-2.06,1.14-3.04,2.17-1.63,2.93.16.54,3.19,1.99,3.82c1.46.63,1.76,1.3,1.66-.23s-1.23-1.96,1-1.73,2.3.67,2.8-.56-.49-1.76,1.63-1.83,3.69.36,4.49-.49-.3-.95,2.06-.95,3.09.82,3.49.03c.39-.81.13-1.17.1-1.96-.03-.81.23-1.86.9-2.25s1.63-1.04,1.89-1.4.67-.63.94-.36-.16.1.36,1.05-.59,1.09.9,1.27,2.22.46,2.32.16.03-.33.1-1.4c.07-1.05.33-1.76.59-1.14s-.69.46.54,1.37,1.17.94,1.63,1.04.39-.77.46.46.72,1.69,1.04,1.76c.3.07.44.13.44.94s.07,1.23.69.81.82-2.19,1.37-.82-.23,1.17.23,2.3-.72.81,1.27,2.06,2.55,1.6,2.76,1.63c.2.03.95-1.05,1.6-1.69s.82-.05,1.18-2.04.81-2.39.95-2.39.86.13,1.3.69.56,1.63,1.09.44,1.27-2.67,1.56-2.63c.3.03.56.26.63.95s.3,1.73.94,1.63c.63-.1,1.37-.26,1.53-1.23s.2-1.46.39-1.73c.2-.26,1.33.56,1.76,1.05.44.49,1.6.72,1.66.13.07-.59-.16-5.74-.2-6.29-.03-.54.13-1.37.36-1.69s1.23-.95.94-1.79c-.3-.82-1.04-.49-.86-1.63s-.33-1.43.56-1.33,1.37.67,1.93-.1c.56-.77.1-1.18.69-1.96.59-.77,1.53-.59,2.35-.56s1.56-.16,1.76-.67c.2-.49,1.46-.39,1.93-.95s.69-.82.56-1.4c-.13-.56-.49-.13-.49-1.23s1.04-1.4.72-2.55c-.3-1.17-1.04-1.27-1.04-2.93s.1-3.16.69-3.98c.59-.82,1.53-1.6,2.35-1.69s1.69.26,2.12-.16,1.05-.86,1.04-1.33c-.03-.46.13-1.63-.67-2.09s-2.19-.95-2.73-1.63-1.23-2.63-1.18-2.99-.56-1.05-1.27-1.4c-.69-.33-1.4-1.96-.9-2.96s.33-1.23.86-1.43c.54-.2,1.3-3.03,1.17-3.95-.13-.94-.13-1.66-.86-2.44s-1.3-1.33-2.81-1.09c-1.53.23-3.52.59-4.66,1.23s-2.53.77-3.55.59c-1.04-.16-2.25,0-3.88.03s-1.86.91-3.03-.36-2.53-2.4-3.16-2.9c-.63-.49-3.65-.23-4.03.49s-1.17,1.99-2.09,1.63c-.94-.36-2.63-.56-3.29-.33s-.81,2.17-2.53.2c-1.73-1.96-2.12-2.22-3.03-2.86s-2.4-.36-3.04,0-.72,1.6-1.93.2c-1.18-1.4-2.45-1.79-2.81-1.56s-1.96,1.86-2.3,1.86-1.6-1.33-1.6-1.6-1.14-.95-2.02-2.35-2.4-2.67-3.26-2.4-2.22.94-3.19,1.27-3.49,1.3-4.67,0-.56-1.89-2.93-2.68c-2.35-.81-6.61-1.17-7.39-1.76s-1.37-.33-1.46-2.12,1.46-3.98-.67-5.61-3.59-2.12-3.75-2.17c-.16-.03-2.35,1.14-3.19.44s-.2-.54-1.69-2.02-2.48-2.63-4.03-1.99-4.39.44-5.61,1.27-3.36.13-1.6,1.89,1.23,1.4,2.02,3.36,2.4,13.02,3.46,13.69-.36,1.18-1.5,2.73-1.27,4.39,0,5.51.1,3.55,1.23,5.55.1,3.49,3.98,5.38,0,5.51-1.66,5.38-6.17,4.11-6.04,4.82c.13.69-4.08,2.76-3.72,3.69.36.94-6.45,8.87-6.22,10.65s.67,8.01,1.69,9.51c1.04,1.5,1.5,5.41,1.5,5.41h0v-.05.02Z"/>
      <path id="path3805" class="st14" d="M393.81,448l-1.6,4.29-.63,1.12-3.82.31h-.79s2.07,1.91,3.19,2.53,1.28,1.91,1.28,1.91l-.48.79-1.74,2.07s-1.28-.48-2.07-1.12-2.22-.95-2.22-.48-.63,1.12-1.43,1.12-2.07,1.28-2.07,1.28c0,0-1.12-.31-2.53-.95s-2.07-.95-2.7-.95-1.74-.63-2.39-1.43c-.63-.79-1.6-.95-1.6,0s-.31,2.7-1.91,2.39-1.43,1.12-2.22-.48-1.91-2.53-1.91-2.53l.16,1.74s1.28,1.28,1.43,2.07c.16.79.63,1.43,0,2.39-.63.95-2.39,1.6-2.53,2.39s1.28,1.74,2.39.79,2.86-1.91,3.65-1.12,2.22.63,2.86,2.53,0,2.7,1.74,2.39,3.19-1.91,3.82-.95,0,1.28,1.12,2.39,1.12.95,0,2.07-1.28,1.6-1.43,2.86-.48,1.91-1.91,1.6-2.39-.48-3.34,0-1.91-.31-1.91.48,1.12.79,0,1.74-3.98.16-3.03,1.91,3.03,2.53,3.19,3.19-1.74,1.43-3.34,1.28-2.07,2.7-1.74,2.86-.48.16-1.43.63-.79,1.43-1.74,1.43-.48-.95-2.07-.48-.79.31-1.12,1.28c-.31.95-.48,1.6-2.39.95-1.91-.63-.48-1.28-2.07-1.28s-2.39-.48-1.91.79c.48,1.28,1.28,2.07.95,2.86-.31.79-1.91.63-1.91.63l-1.12,1.91h-1.12s-.63-.48-.48.95-.95,2.39-1.74,2.07-1.91-.48-2.22.79c-.31,1.28,0,2.86-.95,3.19s-1.43,1.12-.63,1.74c.79.63,2.22-.16,1.43.79-.79.95-.95.95-2.07,1.74s1.28,2.07,0,4.44-1.28,1.28-1.28,3.34.48,2.07-.63,3.5-1.74,1.74-1.74,1.74c0,0-.31-1.74-.31-2.53s.48-2.22-1.74-2.07-3.5,1.91-3.65.16,1.43-2.86,0-4.13c-1.43-1.28-.79-3.03-3.19-2.86-2.39.16-6.2.95-7.47,1.74s-2.22.79-4.13.48c-1.91-.31-1.74-2.07-4.29-.79s-2.22.79-3.34-.16-2.39-.79-3.82-1.6c-1.43-.79-3.03-2.07-3.65-1.6s.95,2.22-1.6,2.22-4.44-1.12-5.41.79-.31,3.34-1.12,3.5c-.79.16-3.5,1.28-5.89.31-2.39-.95-1.12-1.6-4.29-2.7s-4.61-1.12-6.04.79-1.91,1.74-3.98,2.53-1.74,1.12-4.29.95-4.13-1.12-5.41,0-2.7.63-3.5-.63c-.79-1.28-2.07-1.74-1.12-2.39.95-.63,2.22-.16,2.7-.79s1.6,0,.63-2.22.31-3.19-1.12-3.82-4.77-2.39-6.04-.95c-1.28,1.43.95,2.7-2.39,2.39-3.34-.31-6.52-1.91-7.8,0s-1.6,1.91-2.53,3.34-1.43.95-1.43,1.91.48,1.12-.95,2.22-1.74-.31-1.91,2.39,2.39,3.34-.95,3.82-3.03.16-3.65,1.6.31,2.22-1.12,1.6-2.39-1.43-4.13-.79c-1.74.63-1.12,1.28-1.12-2.39s-1.28-6.04-5.1-5.73c-3.82.31-3.5.95-5.1.16s-2.22-1.28-3.34-.31c-1.12.95-2.86.48-6.04,0s-1.91.95-3.5,1.12-1.12-.31-1.6-2.07.31-1.28-1.28-2.86-1.28-1.74-3.03-2.22-2.86.63-3.98.63-.79.16-1.91-1.43-2.7-.79-3.5-2.39c-.79-1.6,1.43-3.82,0-5.25s-1.91.31-2.07-1.43c-.16-1.74.16-3.98-1.28-3.03s-1.43,4.13-3.82,3.65-1.74,2.86-5.41.16c-3.65-2.7-5.1-25.29-3.34-28.15,1.74-2.86,12.08-16.55,13.05-18.46.95-1.91.31-13.2.31-13.2,0,0-.31-32.28,2.22-32.93s25.6,3.5,27.84,3.82c2.22.31,17.01-28.8,20.52-30.23s24.34-9.54,24.34-9.54c0,0,40.87-15.58,43.59-8.42,2.72,7.16-3.82,31.02-1.12,34.67s17.01,4.44,24.19,6.2c7.16,1.74,14.32,6.68,19.25,8.59,4.94,1.91,10.98-1.6,14.15.31s27.03-1.28,27.68,4.44c.63,5.73,2.07,12.74,2.39,17.01.31,4.29-1.28,10.98-1.28,10.98h.02l.02.05Z"/>
      <path id="path3802" class="st14" d="M408.7,360.31c.31.31,1.07,1.14,1.89,1s1.56-.49,1.94-.18,1.32,2.07,1.18,3.57-.18,4.57,1.74,5.27,3.26-.26,4.2,1.18c.94,1.45.63,1.56,1.18,2.57s1.07.76,1.25,1.32.63,1.37,1.07,1.74,1.18,1.45-.07,2.01-1.45.76-2.95.18-2.07-.12-2.39.26-.87,1.69-2.12,2.12-1.74.87-.69,1.69,3.14.87,3.95,1.63,1.45,3.19.94,3.95-1.51,1.25-2.63,1.25-1.69-.38-1.56.26,1.63,2.32,3.08,3.52,1.69,1.45,3.19,1.74,3.19,1.74,4.13,2.45,3.26,2.01,4.2,2.01,2.01.94,1.56,1.69c-.44.76-.18,1.94-1.83,1.63-1.63-.31-7.09-.76-7.77-.49-.69.26-1.94-.12-2.45-.26-.49-.12-3.19.18-3.75,1.94s-1.56,2.5-2.19,3.82-.07,1.51-.94,2.12c-.87.63-2.07.12-2.7,0s-1.32-.49-1.37.69.12,3.14-.76,3.7-2.19.26-2.5,1.18-.31,1.51-1.14,2.12c-.82.63-1.51.69-1.37,1.89s-.87,3.75.12,5.76,2.95,5,3.52,5.76c.56.76,1.63,2.45.69,3.19s-1.56.38-1.63,1.56.44,3.26,0,4.01-1.32,1.83-1.18,3.82c.12,2.01.44,2.81.07,3.08s-4.01,2.5-3.64,3.14,1.14.18,1.18,1.07c.07.87-.87,1.74-2.25,1.56s-3.26,0-4.26-.12-.87.44-1.32-.18-.56-.76-1.51-.76-1-.44-1.74-1.07-1.56-1.07-1.94-1.69-.69-2.63-.18-3.32c.49-.69,0-1.51.82-1.83s1.18-.38,2.07-.87,1.18-.69.94-.82-1-.26-2.01-.31-1.56.18-1.56-1.18.31-2.07,0-2.5-.07-1.63.31-2.07c.38-.44-.38-.44-.26-1.07.12-.63,1.56-1.14,1.63-1.45s-.56-.44-1.94-1.32-1.83-1.45-2.12-.87-.49,1.63-1.63.94-1.25-1.89-2.25-1.37c-1,.49-.94,1.25-.94,1.94s.12,1.56-.82.94-1.37-1.69-2.32-2.01c-.94-.31,0,.69-1.18-1.32s-.76-2.45-2.32-2.45-2.01.38-2.5-.26-.38.12-1.89-1.51-1.45-1.89-3.08-2.01-1.45-.49-2.63-1.32-1.18-.69-2.19-.69-1.14-.87-1.07-1.25,1.32-1.89.12-1.63-1.25.76-1.69,1-1.94.82-2.81.18c-.87-.63-1.51-1.56-2.12-.76-.63.82-.76,1.45-.49,2.07s-.26.44-.63,1-.44.49,0,1.18,1,1.32,0,1.63-2.63.38-3.95,0-3.14-.12-4.08-.12-1.94-.82-1.83-1.74.44-.87.76-1.69.94-1.69.69-1.94-.63-.87-.63-.87c0,0-.56-.26-1.14.31s-1,.49-1.56.69c-.56.18-1.25.38-.87,1.18s1.32,1.25.38,1.37-1.63.49-1.83-.44c-.18-.94.76-1.94-.56-1.63s-1.94.31-1.89.76-.12.49-.31.87-.12.63-.12.94-.87,1.14-1.51.31.12-1.63-1.51-.87-2.95,1.14-2.63-.18,1.07-.94,1.37-2.25c.31-1.32-.56-4.08-1.32-5s-.63-1.56-1.25-1.83c-.63-.26-1.63-.26-1.69.31-.07.56.38.87-.44.82s-.26-.49-1.63-.38c-1.37.12-2.25.87-2.12,1.37s-.56,1.32-1.25,1.45-2.01-.56-2.07.31.38,2.88.07,3.46-2.95.49-4.2.31-1.25-.38-2.32-.94-1.32.49-1.32.49c0,0-.07.49-.82,1-.76.49-.56.07-1.14.12-.56.07-.94.87-.94.87,0,0-1.18-.07-1.14-1.56.07-1.51.76-1.32,1.32-1.74s2.25-.63,1-1.45-2.39-1.51-2.76-.76-.38.49-1.25,1-1.14.76-.82,1.25c.31.49-1.18.94-1.89.69-.69-.26-.56.56-.82.94s-.63.38-.76-.12.38-1.18-.49-.87-.94.76-1.45-.56c-.49-1.32-.94-3.08-1.51-2.45s-1.74,1.63-2.32,1.74-1.18-.26-.82-.69,1-.26.69-1.14-.56-1.07-.82-1.51-.76-1.94.63-2.25,2.12.12,1.94-.76c-.18-.87,0-.76-.44-1.18s-.69-2.07-1.25-1.83-1,.18-.94,1.25-.38.76-.94,1c-.56.26-.44.82-.31,1.32s-.07,1.94-1.14,1.94-1.45.07-2.19-1.07c-.76-1.14-.87-1.56-1.37-.82s-.56,1.45-.87,1.83-.94-.12-1.45.76c-.49.87-1.25,1.69-.94,2.01.31.31,1.69.49,2.57,1.18s2.07,1.94,2.07,1.94c0,0-.07,1.07-.18,1.74-.12.69-.49,2.07.26,2.76s2.19,2.01,2.39,2.5.26.56-.07,1.32.26,3.14.63,3.46,1.56.49,1.74.18,1.37.31,1.37,1.51-.38,2.19.18,2.88-.18,2.12-.38,2.95c-.18.82-1.25,2.25-1.32,2.7s-.87,1.74-.87,1.74c0,0-1-1.32-1.69-1.51s-1.51.31-1.51.31c0,0-1.37-.94-2.19-2.25s-1.37-2.19-1.94-2.32-1.56.44-1.74.94-1.25,2.45-1.69,2.39c-.44-.07-.63-2.19-.63-3.01s-4.26-4.01-3.52-5.76,1.25-2.01.76-2.7-.82.63-1.18-1.18,0-1.45-.38-2.19c-.38-.76-.76-.69-.76-1.37s.87-1.07,1.51-1.32,1.83-1.25,2.32-1.94,1.18-.94,1.18-2.32-.18-1.69.07-2.32.07-.87-.31-1.45-1.25-2.81-.76-3.75,1-2.32,1.56-3.37,1.83-2.25,2.57-2.07c.76.18,2.07.76,2.88.49s3.37-1.25,3.75-1.83,1.18-.87.76-1.63-1.89-.31-1.32-1.63,1.18-1.37,1.74-1.51,1.51,0,1.51-.49,0-.63-.07-1.37c-.07-.76.38-1.25.82-2.12s1.51-1.32,1.45-2.19-.49-1.07-.63-1.89,1-1.74,1.51-2.88,1.25-.63,1.74-1.51,1.51-1.32.56-3.26-1.51-2.39-1.89-3.32.12-2.01-1.32-3.01-3.14-2.01-3.88-2.19-.69-.69-1.51-1.07-.82-1.18-2.39-.94c-1.56.26-1.18.94-1.89.82-.69-.12-.94-.69-2.19-1.25s-1.89-1.25-3.26-.26-1.18,1.83-3.14,1.94-3.37.94-4.71.94-5.89-.44-5.89-.44c0,0-8.03,2.88-8.9,1.14s-1.51-9.02-1.56-10.22c-.07-1.18-3.95-16.87-3.52-17.8s3.95-7.83,3.95-8.21,2.07-7.39.31-9.66-5.27-12.54-5.27-13.48-1.32-17.05-1.32-17.05c0,0-.31-2.19-.18-2.7s1.18-13.61,2.39-13.67c1.18-.07,9.21-2.5,10.73-1.37s5.82.12,6.89,4.26c1.07,4.13.07,11.16,1.56,11.4,1.51.26,3.19-5.58,6.45-4.77s5.76,3.88,7.27,5.64,6.45,3.19,8.41,5.08c1.94,1.89,4.64,9.84,4.64,9.84,0,0,14.79,8.03,15.11,8.03s4.51.87,4.51.87c0,0,5.15,4.26,5.96,4.71s3.37,1.94,3.7,2.01,1.69-1.51,1.83-2.01c.12-.49.87-1.07,1.89-.18s3.19,3.7,3.75,4.33,1.32,1.32,3.26,1.69,4.39.87,4.39.87c0,0,4.95,4.08,5.58,4.51s1.14,1.07,2.19,1.14c1.07.07,1.74.44,2.07,1.14s.87,1.51,1.83,2.76c.94,1.25,2.07,1.07,2.95,1.83s1,1.63,2.07,2.19,2.5.69,3.95.49c1.45-.18,6.63.94,8.28,1.94s2.39,3.32,3.88,3.26c1.51-.07,3.75-.26,4.44-.38s2.81.26,3.01.76,1.14,4.57,1.94,4.64c.82.07,6.63-.12,7.83.82,1.18.94,1.37,2.45,2.57,2.01,1.18-.44,1.63-1.56,2.01-2.19s2.57-1.45,3.95-1.18,3.52.94,3.52.94h.02l.07.05Z"/>
      <path id="path3799" class="st14" d="M186.78,471.33s.12.95-.07,2.02.12,1.69,1.07,2.42,1.35.63,1.35,1.79-1.12,2.58-1.23,3.26c-.12.67-.39,2.07-1,2.58-.63.51-.12,1.56-1.46,1.28s-1.56-.63-2.25-.28-1.23,1.63-1.18,2.07-.12.51-.39.95.07.9.91,1.56,1.12,1.28,1.18,1.79-.56,1.51-1.56,1.35-1.4-.95-1.97-1.18-1.79,0-1.74.67.63,3.65,1.35,4.72,1.23,2.02,1.18,2.81-.39,2.98-.39,3.42-.28,1-.95,1-1.12-.12-1.35.21c-.21.35-.12,1.18-.63,1.46s-1.79.39-1.79.39c0,0,.16,1.4.51,1.79s.67.07.39,1,.12,1.74-.72,1.84-1.69.39-1.46,1.4c.21,1,.16,1.91.72,2.14.56.21,1.07.35,1.84-.07s1-.56,2.35-.51.84-.12,2.19-.12,1.23.63,2.42-.12,2.14-.84,2.47-.56.63.79.56,1.35.16,1.07-.63,1.28-2.42.21-3.7.39-2.81.72-3.37,1.28-.51,2.02-1.07,2.47-1.46,1.74-2.53,1.69-1.28-.84-1.4-.12,0,2.25-.72,2.25-1.74.12-2.47.35c-.72.21-1.97.21-1.4.67.56.44,2.53.9,2.91,1.12s.63-.07,1.56,1.69,2.14,2.19,2.14,2.98.35,1.63.07,2.53-1.18,2.47-1.56,3.19c-.39.72,0,1.46-.44,1.91s-2.58,1.12-3.6.84c-1-.28-1.84-.44-2.42-.51s-1.46-.63-1.74-1.4.16-1.28-.67-1.51c-.84-.21-2.42.39-2.63,1.18s.07,1.28.67,1.84c.63.56,1.4,2.19.67,3.03-.72.84-1.51,1.63-1.4,2.47s.39,2.98-.63,3.7c-1,.72-4.1,2.07-4.61,1.69-.51-.39-1.4-.67-1.4-1.28s-.63-1.35-1.28-1.07c-.67.28-1.46-.12-.51-.95.95-.84,2.25-.16,1.91-.95s-1.4-1.23-2.86-.84-.72.51-1.91,1.35-2.47.79-2.75,1.23-1,.51-.35,1.23,1.4,1.07,1.28,1.4,1.18.95-1.12.84-2.58-.07-3.7-.72c-1.12-.67-.12-.56-1.35-.72s-2.02-.51-1.69-1.28c.35-.79,2.47-3.19,2.81-3.77.35-.56,1.07-2.02,1.07-2.58s-1.4-3.26-1.46-4.49-1.51-6.45-1.97-7.36-.56-1.51-.79-2.07c-.21-.56-1.51-1.91-2.14-3.6-.63-1.69-.28-3.03.07-3.19s1.23-.12,2.02-1.12.44-1.69.39-2.7.21-1.63,1.84-1.97c1.63-.35,3.26-.56,2.91-1.51s-.16-1.4-1.84-1.4-3.47,1.18-4.77.21-1.56-2.35-1.4-2.75,2.58-1.23,2.58-1.23c0,0,1.07-1.69.91-2.07-.16-.39.07-1-.84-1.23s-2.14.95-2.81-.07c-.67-1-.44-4.54.39-5s3.7-.67,3.7-1.28-1.23-2.07-2.42-2.25-3.54-.07-3.54-.07l-.79,1.51s-1.18,3.26-1.4,3.54-1.91,2.63-1.46,3.47,1.12,3.37,1.07,3.82c-.07.44-1,1.51-1.18,2.07s1.12,3.37,1.12,3.37c0,0,.84,2.25.51,2.86-.35.63-2.81,2.98-3.47,3.7s-1.91,3.14-2.25,3.93-.51,1.97-2.14,2.14c-1.63.16-1.28-.67-3.93,1.79s-2.53,1.23-4.72,1.79-3.32.72-4.26,1.74c-.95,1-3.82,1.91-6.01,2.3s-3.7,1.97-5.23,1.12c-1.51-.84-2.3,0-3.09.56s-2.7.79-4.05.35-2.07-2.07-4.05-2.3c-1.97-.21-3.32.16-3.32.16,0,0-2.86-1.84-3.54-3.32-.67-1.46-3.88-3.19-5.51-5-1.63-1.79-4.16-3.65-5.79-7.8-1.63-4.16-2.63-4.16-2.91-4.33s-1.51-1.74-3.37-3.93c-1.84-2.19-9.94-10.27-9.94-10.27,0,0-3.65-2.53-4.1-3.65s-1.18-6.63-1.18-7.47-.16-2.47,1.18-2.81,4.33-.95,4.82-.56,1.46,3.42,1.79,3.82,1.84.63,2.3.35,2.07-.63,2.47-.63.16-.95,1.07-1.23c.9-.28,1.69.67,3.03.84s1.07,0,2.02-.67c.95-.67,3.09-1.35,4.49-1.4,1.4-.07,1.97-1.12,2.3-1.46s1.69-.39,2.86-.35c1.18.07,4.05-.28,4.49-1.35s.79-1.69,1.74-2.53c.95-.84,1.84-1.35,2.42-2.14.56-.79,2.75-2.25,3.37-2.35.63-.12,1.28-.51,1.51-1.56.21-1.07.79-1.4-.12-2.02s-2.81-1.56-3.14-.84-.16,2.42-.16,2.42c0,0-.72.16-1.63.79-.91.63-1.79.51-2.7.07s-1.18-1-2.07-.44-2.19,1.28-1.79,1.79-.28,1.63-.9,1.74-5.05-.44-6.29-.84c-1.23-.39-1.69.44-1.74,1.18-.07.72-.56,1.56-1.56,1.56s-7.47-.56-8.42-1.23-5.73-3.42-7.52-4.16-8.19-5.73-8.64-6.12-1.46-2.07-1.97-3.19-3.77-4.44-3.77-4.44c0,0-1.56-1.12-1.07-1.97.51-.84.9-1.18,1.12-2.02s2.81-1.97,3.77-2.3,4.44-1.84,4.54-2.42.21-1.84-.72-1.84-3.26.79-3.88,1.23-1.51,1.51-2.19,2.07-3.19,2.35-3.93,2.7-1.69,1.56-2.7.67c-1-.9-2.3-1.79-1.69-2.47.63-.67,1.84-.67,1.97-1.84.12-1.18-.44-2.25-.44-2.98s1.63-4.66,2.14-4.82,5.56.95,6.29,1.18,3.7.95,4.33.63,2.25-4.66,2.02-5.84c-.21-1.18-1-2.19-.39-2.86.63-.67,2.63-1.28,3.09-.79.44.51.51,1.35,1.46,1.51.95.16,2.25-.07,2.58.39s1.35-.63,2.19-.67,1.07.84,2.3,1.12,3.98.35,5.38-.39c1.4-.72,1.84-1.28,3.47-.51s2.63,2.3,4.1,2.7c1.46.39,2.53,1.56,3.7,1.69s2.63,1.18,3.7.39c1.07-.79.95-2.02,1.69-3.14.72-1.12,2.81-1.07,4.95-1.4s4.33-.07,5.61-1.18c1.28-1.12,2.07-.72,2.35-.28s-.12,3.54.84,4.26,2.35,1.23,3.03,1.12c.67-.12,1.56-1,2.07-1.79.51-.79,2.25-1.4,3.37-1.4s2.58.21,1.56-.67-2.47-1.97-2.42-2.98,1.74-3.26,1.74-3.26c0,0,.28-2.47-.28-3.09s-1.63-1.4-.95-2.35c.67-.95-3.47-3.19,2.07-2.81,5.55.38,5.17-.12,9.21.16s27.81-3.82,29.37-2.98,8.87-1.23,12.13,4.38,5.45,17.85,7.59,20.78c2.14,2.91,3.82,8.92,4.89,10.45s15.22,10.17,15.22,10.84-.07,4.1-.07,4.1h.07l.05.07Z"/>
      <path id="path7865" class="st14" d="M145.05,535.17s.79-.9.82-1.04c.02-.12,2.24-.63,2.24-.63,0,0,.41.44.38.64-.02.21-.48,1.12.08,1.61.56.49,1.18.86,1.05,1.33-.12.48-.58,1.56-.94,1.12s-1.42-.79-1.56-.63c-.15.18-.77.89-.97.74-.21-.15-.64-.18-.64-.86s-.54-1.6-.49-1.76c.02-.18.02-.56.02-.56h0l.02.02Z"/>
      <path id="path3796" class="st14" d="M255.74,348.02l5.31,4.52.69.79.1,1.09-.2,1.28s-.3,3.64.3,4.52,1.37,1.37,1.56.59c.2-.79.69-1.18,1.28-.89s.59-.1,1.68.89,1.78,1.28,1.88,1.97-.1.89.3,1.78,1.37.69.79,1.56-1.68,1.97-2.25,1.97-1.97,0-1.28.69l.69.69s1.09-.2.69.69.79.89,1.46.89,1.09-.89,1.18.2-.79,1.88-1.28,2.07-2.55-.2-3.34-.1-1.46-.3-1.56.89c-.1,1.18.2,2.55.2,2.55,0,0,1.09-.2,1.37-.89s.49-.59,2.07-.69c1.56-.1,1.78-.3,2.35-.69s1.09-1.28,2.45-.69,1.88.1,2.86,0,1.37-.59,1.56.2.1,1.18-.49,1.68-.69.49-.2,1.46c.49.99,1.18,2.07-.99,2.17s-2.35.39-2.96.99c-.59.59-.79.99-1.97,1.18s-1.78.59-1.78.59c0,0,.49.79,0,1.28s0-.49-1.28.2-2.55,1.28-2.96,1.28-1.56-1.37-3.24.59.1,2.35-1.78,3.04-4.92,1.37-5.31,2.07c-.39.69-.59,1.46-1.28,1.78s-2.67.49-3.14.89c-.49.39,0,1.37-.39,2.25s-.2.79-.79,1.28-.2.69-.89,1.18-.99.3-2.76.49-2.67.59-2.76,1.46c-.1.89-.2,2.35-1.28,3.24s-.59,1.97,0,3.14-.49,3.04,1.18,4.13,3.44,1.88,4.82,3.04c1.38,1.17,1.37,1.97,3.34,1.97s2.67.79,3.75,0,1.37-.79,2.67-.59,1.46.89,1.88.1,1.09-2.76,1.78-2.96.79-.99,1.37-.2c.59.79.1,1.37.3,2.67s.3,1.37.89,1.68,1.18.69.69,1.28-1.09-.2-.69.89.89,1.37.49,1.78-1.56,1.09-2.25.69-1.56-.79-1.97-.69c-.39.1-2.76,1.28-3.93,1.37-1.18.1-2.55-.49-3.64.1s-1.68,2.96-1.28,3.44c.39.49.69.99.2,1.56-.49.59-1.37.1-.89.99s1.56.49,2.67,1.18,1.97,1.97,1.88,3.93.3,3.34-.79,3.44-2.86,0-3.75-.59-1.56-1.37-1.68-.79c-.1.59-.49.49.2,1.46.69.99.79.79.69,1.78s-.39,1.09-.3,1.97-.99.39.39,1.09,1.68,1.09,1.37,2.25c-.3,1.18-.49,1.68-.49,2.45s-.99,1.88-1.28,1.37,0-1.18-.79-1.28-1.18.2-1.97-.89-.39-1.88-.3-2.35.39-2.07-1.09-.89-2.17,2.17-2.07,2.76-.99.99-1.46.3c-.49-.69-.89-1.88-2.76-1.68s-4.13.59-4.43.1.39-1.56-.69-1.88c-1.09-.3-1.97.1-1.97,1.28s.59,2.25,0,3.24-2.55,2.67-3.44,2.96.3.79-.99,1.88-1.68,2.07-2.35,2.07-2.25-1.28-2.86-1.09-.49,1.09-.49,1.88-.39,1.46-1.09.89-.79-.99-1.56-.69-.59.1-1.18-.69-.59-1.88-1.46-2.17c-.89-.3-1.88-.49-.99-1.09s1.88-.2,2.76-.69c.89-.49.99-1.37,1.78-1.37s1.97.59,1.97,1.09,1.28,1.18,1.78-.3c.49-1.46.69-.49.2-2.17-.49-1.68-.99-2.07-.49-2.96.49-.89,2.45-1.18,2.17-1.88s-2.76-.99-2.76-2.55.3-2.17.79-1.88,2.45.49,2.96-.59,1.09-1.18,0-2.45-1.09-1.56-1.09-3.14.3-2.67-.49-2.55l-.79.1s-1.09,1.09-2.07.79-.99-.2-1.46.49c-.33.46-.84.63-1.56.49-1.09-.2-.59-.49-1.56.3s-1.28.99-2.07.2-1.37-1.18-2.55-1.18-1.78.39-2.25-.1-.89-2.45-.59-2.86,1.56-.99,1.97-.69c.39.3.59.99,1.46.59.89-.39,1.46-.49,1.18-.89s-1.37-.2-2.07-.79c-.69-.59-1.18-.89-.69-1.18l.49-.3s.89.3,1.28-.2.59-2.55.3-2.67-4.33.49-4.33.49c0,0-1.56,2.07-1.78,2.76-.2.69-.69,1.56-1.68,1.56s-2.07.79-2.76-.3-1.97-1.46-1.97-1.46c0,0-.59,1.18.1,1.78s.99,1.37,1.78,1.68c.79.3,1.09,1.09.39,1.88s-.2,1.09-1.37,1.09-2.67.49-2.76,1.28-.2,1.09-.79,1.78c-.59.69-.2,1.09.59,2.07s1.78.99.99,2.76-1.68,1.37-.99,2.55,1.37,1.28,2.07,1.46c.69.2-.69,1.56.39,3.14s1.68,1.46,1.56,2.17c-.1.69-.2,1.56-.79,2.55-.59.99-1.37,1.97-.49,3.04.89,1.09,1.78,1.68,1.09,2.55s-.99,1.56-.69,2.25c.3.69-.69,1.56-1.56,1.88-.89.3-1.46.89-1.56,1.37s-1.28.59-2.86.79-3.34,1.68-3.34,2.55-.59,1.37-.59,1.68.49.2,1.46.49c.99.3,1.78-.39,2.45.69.69,1.09,1.37,2.07.79,2.55s-2.17.69-3.04,1.09-1.09-.2-2.55.59-1.97,1.28-3.04,1.37c-1.09.1-1.46.2-2.17-.69s-1.37-1.37-2.35-1.88-1.37.1-1.37-1.09-.39-1.46-.99-1.88c-.59-.39-.39-.2-.99-1.18s-1.28-.1-1.37-.99-1.18-1.28-1.18-1.28c0,0-.89-.2-1.28.59s-.99,2.35-1.88,1.28-2.17-1.97-2.96-2.55c-.79-.59-.2-2.45-.39-3.75-.2-1.28.2-1.78-1.28-2.45-1.46-.69-2.17,0-3.24-.89s-2.76-2.76-2.76-3.75,1.09-1.56,1.56-2.07c.49-.49-.1-2.55-.39-3.14s-.89-1.18-1.18-2.35-.49-1.68-.49-1.68l-1.28.99-.49,2.07-.99.59s-.89-.89-.89-1.68.2-1.18-.3-1.97-.99-1.28-1.18-1.68-.69-2.07-.1-2.35,1.37-.49,1.68-.89c.3-.39-.59-1.97-.79-2.35s-1.46-3.83-1.88-4.43c-.39-.59-.2,1.09-.49,1.68s-.79,2.35-1.18,2.67-2.17,1.78-2.67,1.56c-.49-.2-2.07-.3-2.76-.59s-2.07-1.37-2.45-1.46-2.45-2.07-2.86-2.35-.89.39-.89.69-3.64-1.78-4.72-1.68-2.17-.2-1.18-.79,2.35-.39,2.45-.99c.1-.59.39-1.28-.89-1.28s-4.52,0-5.61-.39-3.64.79-3.83,0-1.28-1.78-1.37-.99c-.1.79.79,1.97-.39,1.56s-1.46-.59-2.45-.99-1.68-.2-2.17-.69-3.14-.69-4.23-.3c-1.09.39-3.34,1.46-4.72,1.18s-2.35.49-2.45-.49c-.1-.99.59-2.17-.69-1.88s-2.45,1.68-3.75,1.78-3.24-5.81-3.04-6.99-3.14-5.22-3.14-6.1-2.45-5.02-1.68-5.81c.79-.79,2.35-2.17,2.07-3.04s-1.46-1.56-2.86-.99c-1.37.59-4.33,2.17-5.31.69s-5.81-5.91-5.81-6.78-1.68-5.41-1.18-6.01c.49-.59,4.03-8.08,4.03-8.46s-.99-2.67-.79-3.04c.2-.39-.49-1.09-1.18-1.09s-3.04.69-3.75.3c-.69-.39-1.68-1.78-2.67-1.97s-2.76,1.18-4.23-.69-3.75-6.01-3.75-7.87-.1-3.14.49-4.52c.59-1.37,2.35-3.14,3.14-3.64s7.87-6.3,8.36-6.89c.49-.59,7.39-8.95,8.18-10.23s7.77-4.13,9.05-3.75c1.28.39,2.45,1.37,2.45,1.88s-.39,2.86,0,3.93c.39,1.09,1.28,1.78,1.28,2.35s.1,1.78.59,1.78,2.17-.69,2.96-1.37c.79-.69.99-1.09,4.43-1.18s2.86-.79,5.71-1.09c2.86-.3,4.92.49,6.3.59,1.37.1,4.23-.1,4.62-1.09s.69-.69.99-2.35.79-3.14,2.07-3.93,4.13-1.78,5.31-3.64,1.56-6.58,3.14-7.67c1.56-1.09,2.07-.99,3.04-2.07s1.18-1.88,1.37-2.76,1.28-1.56,3.24-1.37,4.62-.39,5.12-.99,5.71-6.99,5.91-7.87c.2-.89.49-.59.79-1.56.3-.99,1.18-1.97,1.78-3.04s2.67-2.45,2.67-3.14,2.96-11.52,3.64-11.9,3.14-.99,6.01-1.37.79-.99,2.76-1.56.1-.1,4.23.1,10.63.3,13.39.39c2.76.1,5.02.2,5.12,4.52s.59,7.09,2.35,8.18c1.78,1.09,28.33,13.97,27.64,19.98-.69,6.01,10.33,17.21,14.46,15.45,4.13-1.78,9.35,8.46,9.35,8.46h0l-.03.03.16-.05Z"/>
      <path id="path3793" class="st14" d="M256.02,322.63c.39.15,2.91.54,2.91.54l.49.58s.1.25.15.44.44,1.12.44,1.12c0,0,.15.54-.05.77s-.15.54-.15.54c0,0,.63.3.87.58.25.3.44,1.12.39,1.32s.63.54.87,1.02.1.39.44,1.02c.35.63.72.58,1.12,1.12.39.54.97,1.12.87,1.69s-.25,1.32-.3,1.56-.3,1.94-.58,2.24c-.3.3-13.56.63-13.66.15s1.79-8.03,1.79-8.46,1.02-3.83,1.22-4.23c.2-.39,3.16-1.99,3.16-1.99h0l-.02-.02Z"/>
      <path id="path3790" class="st14" d="M192.61,291.94c.36.21,3.03,1.51,3.03,1.51l1.3.36s.94.15,1,.72.44,1.79-.58,2.39c-1,.58-1.6,1.09-1.6,1.45s1,1.09,1.66,1.09,2.6-.15,2.6-.15c0,0,1.3,0,.64.86-.64.86-1.74,1.09-1.74,1.09,0,0-1.3,2.6-.94,3.75s-.36,1.51-.72,1.37-1,.64-.79,1.09,1,.21,1.45,1.15.44,1.79,1.09,1.74c.64-.07,3.24-1.79,4.69-1.15s2.75,2.24,3.54,2.68,2.09,1.66,3.83,1.23,2.09-.64,2.53-.94,1.3,0,1.79,1.09c.51,1.09,3.03,3.39,3.09,5.78s.21,3.32.86,4.2c.64.86-.07.94.44,2.24s1.15,1.3,1,2.45.72,3.75,1.6,4.33c.86.58.36.21,1.37,1.66s.64,2.53,2.45,2.75,2.45,1.51,2.96,2.17,1.51,2.24,1.09,3.32-1.09.3-.94,1.51.51,1.6.72,2.17.64.15-.3,1.3-.51,2.53.21,3.09c.72.58,2.75,1.15,3.98,1s1.94-.79,1.6-1.23c-.36-.44-1.37-.36-1.09-1.88s.3-1.6.3-1.6c0,0-.86-.58.51-.79s2.68.72,2.68.72c0,0,.79-.3.86-.94s.21-1.3.07-1.66-.36-.36-.86-.79c-.51-.44-.79-.58-.72-.86s1.15-1.09,1.6-.64.58.86,1.37,1.74,1.09.86,1.6,1.88.3,1.3,1,1.66,2.02.36,2.24-.07.3-.94.3-1.51.36-1,1-1.37.21-.44.79-.72c.58-.3.51-.3,1.09-.44.58-.15.79-.64,1.23-1.15s.72-.15,1.3.51c.58.64.36.3.79,1.37.44,1.09.64,1.09.94,1.6.3.51.21,1.23.21,1.88s.21,1.15.36,1.51.72.51.15.86c-.58.36-1.23-.15-1.6,1s-.64,1.37-.3,1.94c.36.58.44,1.09.44,1.66s-.36,1.51.15,1.94c.51.44,1.09.79,1.6.3s.79-1.09.94-1.45c.15-.36.64-.3.72.51s-.72,1.37,0,1.51,1.66.21,1.74-.58.36-.51.21-1.3.07-1.15-.72-1.37-2.3-.44-1.3-1c1-.58,2.24-.58,2.6-.21s1.45.58,2.45.51,1.37.58,1.45-.15.3-.72-.15-1.3-1.79-.86-.79-1.6.94-.21,1.45-.72.64-.94.86-1.51-.36-.58.58-.79,1.6-.21,1.79-.51c.21-.3.72-1.23.36-1.79-.36-.58-1.3-1.74-1.37-2.9s.79-1.15.64-2.02-.21-1.15.07-1.6.86-.64.3-1.37-.64-.72-1-1.37-.36-1.45-.36-1.45c0,0-1.09,0-1.3.72-.21.72.3,1.66-.44,1.45-.72-.21-2.24-.79-3.03-1.37s-1.94-1.37-2.3-.94c-.36.44-.64,1.23-1.23,1.6s-1.51,1.45-1.88.3-.07-1.45-.51-2.17-1.51,0-.64-1.45,1.3-1.3,1.88-1.79c.58-.51.31-1.09-.03-1.88s.33-1.79.33-2.81.07-1.45.79-1.6.86-.15,1.94-.21,1.51-.3,1.3-.72-.79-.58-.94-1.09c-.15-.51-.07-4.33-.15-4.92s-.51-1.23-.3-2.68-.44-1.37-.64-2.6.21-1.37-.15-3.32-.72-1.37-1.09-2.75c-.36-1.37.58-4.99.51-5.71s.07-.79,1.3-3.47,1-2.3,1.37-3.75,1.09-2.02,2.24-3.47,3.39-2.96,4.11-3.39,3.98-2.96,3.47-4.33-3.69,0-5.92-3.09-1.09-6.22-4.05-7.29-9.25.94-10.12,1.23-1.79,3.69-1.74,4.33-2.39,1.94-5.48,3.75-7.08,1.37-7.44,4.84-37.63,3.24-37.91,3.39-3.39,3.47-3.39,3.47h-.03l.08-.05Z"/>
      <path id="path3787" class="st14" d="M266.44,278.06l.41,3.7-.82,1.65-.63,1.86,1.65,1.86h2.68l1.65,1.86h1.23l-.21,2.07-.82,1.65-.41,3.29v2.9c0,1.23-.63,2.68-.63,3.7s-.21,1.65,1.45,1.23,1.65-1.86,2.68-1.65,1.45,2.9,1.45,2.9l2.07.82,1.45-2.48s1.23-.21,1.23-.82-.21-3.92-.21-4.33,1.45-.21,1.45-.21l.41,1.65s.82.63,1.86.82,2.68,2.9,2.68,2.9c0,0,1.04.41.63,1.23s-1.86,2.68-.21,2.9,2.9.21,2.9.21c0,0,.21,1.04,1.45,0s1.86-1.65,1.86-.21v2.07l2.68.63s1.65.82.21.82-2.9.82-2.9.82c0,0,0,3.09,1.45,3.29s3.09-.21,1.45,1.04-1.65,2.27-1.65,2.27l3.7-.21s0,.21,1.04.21,1.86.21,2.07,1.23.82,2.48,2.48,3.09c1.65.63,3.29,1.65,3.5.82s.82-.63.82.21-2.07,1.23.82,2.27,6.4.63,6.4.63l1.45-1.86s.82.21.82,1.65,1.86,2.68,2.48,2.68,2.48.41,2.07-.63-1.04-1.65.41-1.65.21-2.48.21-2.48l2.48-.82,1.45-2.9.82-3.5s1.86-2.48,1.23-3.29c-.63-.82-1.45-.63-1.45-2.07s.21-1.65,1.23-2.68,1.86-3.92,1.86-5.15.21-1.45,1.45-2.07,2.48-1.23,2.68-2.07,0-2.27,0-2.27h3.09s2.27-3.5,3.5-4.54-2.48-1.04.63-1.04,4.33-.41,4.11-1.45-.63-3.29-.63-3.29l-4.54-.63s-1.45-.82-1.86-2.07-.82-2.27-2.07-2.27-3.92-.21-3.92-.21c0,0-2.27-.21-3.29-1.04s-2.07-.82-2.07-.82l-.41-3.5-1.45-2.48-2.9-1.04s-2.27-1.04-3.29-1.45-2.07-1.86-2.07-1.86c0,0-1.86-1.45-3.5-1.23s-4.11.82-4.33,0-1.23-1.45-1.86-2.48-1.86-1.65-1.86-1.65v-2.27l-2.48-2.48s0-2.48-1.23-2.68-2.9,0-2.9,0c0,0-1.86,1.86-2.07,2.9s.63,2.68-.41,2.48c-1.04-.21-4.54-3.09-6.81-4.11-2.27-1.04-6.6-2.48-8.05-2.27s-19.19,7.85-18.77,9.48,2.9,12.37,2.9,12.37h-.07l.07.08Z"/>
      <path id="path3784" class="st14" d="M257.44,271.44l-.97,2.48s-1.1.69-1.65.97-1.79-.28-1.79-.28c0,0-1.51-1.65-2.07-1.51s-1.65.28-1.1,1.1,1.79,1.79,1.79,1.79l.54,2.48s-1.51.82-2.48,1.1-1.79.13-1.79.13c0,0-.41.54-.69,1.1s-2.91,1.1-2.91,1.1c0,0,.54.54.69,1.38s.28.69,0,1.93.28,2.2-.54,2.48-2.48.28-2.91-.54-1.23-2.48-1.23-1.65-.69,1.23-1.23.97c-.54-.28-1.23-1.79-1.79-.28-.54,1.51-1.23,4.56-2.07,5.38s-.41,1.65-.82,2.91c-.41,1.23,1.38,2.76-1.79,2.07s-4.97-1.1-6.91-1.65-1.65-.41-2.48,0c-.82.41-2.35.69-3.32.54s-.97,0-1.38.82-1.51,1.65-1.51,1.65c0,0-1.38,1.1-1.38,1.65s-.82,1.79-1.93,1.23c-1.1-.54-.97-.54-1.51-1.93s.41-2.48-.28-3.59.13-.28-1.38-.54-2.07-.13-2.35-1.23.13-.54-1.1-1.38c-1.23-.82.13-.13-1.79-1.1s-2.63-1.65-2.76-1.1-.54,2.27-2.63,1.99c-2.07-.28-2.35-2.55-2.76-1.32s0,2.48-1.1,2.76-3.18-.28-3.87-.28-.69.41-2.07.41-.13-.82-1.93-.54-1.65.13-2.48.28-3.18.28-4.15-.41-2.35-1.93-1.79-2.07,2.48-.97,2.48-.97c0,0,1.23-3.04.82-4.69s-1.38-1.51-.41-2.63,2.07-1.51,2.91-2.63c.82-1.1.54-1.38,1.93-2.48s2.76-.69,3.18-2.76,2.35-4.28,2.48-5.25,1.38-2.35,2.63-2.63c1.23-.28,2.2-.69,2.2-.69,0,0-.97-1.79-1.23-3.04-.28-1.23-.54-2.35.82-3.32s2.48-1.93,1.51-3.74-1.79-2.35-2.2-4.56-1.23-.82-.41-2.48c.82-1.65,2.76-5.1,3.46-5.38s1.79-.41,3.04-.54.69-.97,2.63-1.93c1.93-.97,4.56-1.93,5.66-1.79s4.28-1.1,4.43-2.07c.13-.97,1.23-2.35,0-3.32s-2.2-1.38-2.2-1.38c0,0,1.65-6.07,2.2-6.5.54-.41,7.88-1.23,9.53-1.51s9.12-2.07,9.25-1.51.82,16.16.82,19.61,4.84,7.47,8.98,10.09c4.15,2.63,9.66,7.19,10.65,10.09s2.63,8.7,2.63,8.7h0l-.05.02Z"/>
      <path id="path3781" class="st14" d="M226.5,222.28l2.76,3.18s.28,1.51.28,2.35-1.1,2.2-1.1,2.2c0,0-1.23.41-1.79.97s-2.07.54-2.2,2.2-.69,1.51-.54,3.18,0,1.38.97,1.93,4.01,1.93,4.28,2.63c.28.69.97.54,1.38,1.23s.13,1.65-.41,2.2.82,4.84,1.65,6.07,1.23.28,1.38,2.48c.13,2.2.28,2.35,1.38,3.32s1.38,1.1,2.63,1.1,1.38-.69,1.93-1.23,1.1-1.79,1.23-.97-.41,1.65.28,2.35,2.35,1.51,2.63,2.48c.28.97,1.65.41,2.2.41s.97,0,.97,1.23-.41-.41-.41,2.07-.97,4.56-.13,4.97.28-.41,2.07-.54,2.2,1.38,2.2,1.38c0,0,.28.82,1.23.54.97-.28.82-.13,2.35,1.1s1.23,1.38,2.2,1.79,1.38.54,1.51,1.23,0,4.56.28,5.25-.41,1.23.13,1.65.97-.13,1.51-.28c.54-.13.69.13,1.51.41s1.38-.28,2.35-.54c.97-.28.82.97,1.38,1.38s1.65.69,2.2.13,0,0,1.79-.69,3.18-.54,2.91-2.07c-.28-1.51,0-3.32-.82-4.28-.82-.97-1.79-2.07-1.38-2.76s2.91-1.38,3.18-2.07c.28-.69-.41-2.48-.54-3.18s0-1.23,1.1-2.07,1.93-1.51,2.63-1.79,1.65-.69,2.63-1.51.82-.54,2.35-1.38c1.51-.82,2.48.41,3.04-.82.54-1.23.97-1.51,1.65-.69s2.35,2.35,2.35,2.35c0,0,0,1.51.97.28s1.38-1.23,2.35-.54,2.2,1.23,4.01,1.1-.13-4.84-.13-4.84l-.41-1.1,2.35-2.35s-3.04-4.56-3.04-5.66.69-1.93.82-2.76c.13-.82-1.23-3.74-1.23-3.74,0,0-1.79-.54-1.79-1.65s.13-1.79-.41-2.48-1.79-1.51-1.79-1.51l-.54-1.51v-4.84l.28-2.63,1.79-5.25-9.81-9.81s-7.47-4.01-11.06-4.28c-3.59-.28-10.5-.69-14.36-1.65-3.87-.97-12.03-1.23-12.03-1.23,0,0-10.78,3.59-13.39,4.84-2.63,1.23-3.74,12.7-3.74,12.7h-.07Z"/>
      <path id="path3778" class="st14" d="M213.36,232.35l1.33-.77s1.17-1.71,1.09-2.34,2.11.71,2.48,1.25.23.54,1.17.16c.94-.39,1.48-.31,1.48.54s.31,1.33,1,.31.16-1.4,2.11-2.42,3.52-1.48,4.21-2.25c.71-.77,1.25-1.33,1.4-1.65.16-.31,1.71-2.73,1-4.76s-1.25-3.19-1.17-3.65c.07-.46.31.71-.16-.46s-2.42-3.04-.46-2.42,1.94.94,2.65,1.25.46-1.33,1.94-1.71,1.71.16,2.96-.39c1.25-.54,1.09,1.4,2.25-1.25s2.34-2.73,3.98-3.59,1.25-1.71,2.96-.54.86,2.19,3.13,1c2.25-1.17,1.65-2.58,2.25-1.4.63,1.17.86,1.79,2.48,3.52s.23,2.11,2.48,2.73,2.11.77,4.05,1.79,3.04,1,3.59,1.48,1.09.63,1.33-.46,1-1,2.02-.94,1.65,1.4,2.34-.23c.71-1.65.94-4.67,2.02-3.19s.39,2.19,1.71,2.58c1.33.39,1.65-1.48,1.88.31s.16,1.94-.46,2.02-1.4.71-.16,1,1.65.39,1.65,1.17-1.09.86-.07,1.65,1.65.39,1.88,1-.23,2.11-.07,2.48,0,2.19,1.48.07,2.34-1.94,2.58-2.42-1.65-1,.63-1.25,2.25-.39,2.88-.86,1.65-2.19,1.25-.07-.23,2.81-.94,3.42c-.71.63-.54,1.09-.86,2.42s-1.17,2.34.23,2.48,2.25-.23,3.42-.71,2.96,0,2.96,0c0,0,1.88.71,2.73,2.88.86,2.19.39,2.81,1.65,3.52s2.48,1.4,3.65,1.09,2.34-1.17,2.42-2.11c.07-.94,1.33-1.56,2.34-2.11s.54-2.34,2.34-2.19,2.11.71,2.58.71,2.58-1.48,3.36-3.04.94-2.96.46-3.75c-.46-.77-3.42-5.07-3.75-5.69s-2.42-2.11-1.48-2.81,2.65-3.04,2.11-4.21c-.54-1.17-.77-1.71-2.48-1.94s-3.82-.77-4.76-.77-2.11.07-2.88-.31c-.77-.39-1.33-1.17-1.48-2.34s-.86-2.81-.23-3.65.77-2.02,1.65-2.88c.86-.86,2.42-.63,1.79-2.19-.63-1.56-.77-1.71-1.09-2.73s-.54-1.25-1.4-1.09-.94-1.88-.86-2.19c.07-.31-1.09-1.48.16-2.02,1.25-.54,4.67.71,5.23.77s3.82,1.65,4.67,1.48,1.48-1.09,1.79-1.94-.23-1.4,1.33-2.11,1-3.19,1.56-4.59,1-3.27,1.17-3.59,2.81.31,3.82-.71,1.33-1.48,1.17-2.65-1.33-1.71,0-1.94,3.04.46,4.21-.23,1.79-1.25,1.94-2.58c.16-1.33-.16-1.09.23-3.27s.94-2.73,1.09-3.82.71-2.65,1.65-4.59,2.42-3.13,2.25-4.36.31-3.9-.54-4.84-5.92-5.15-7.11-6.01-1.79-1.65-3.65-1.65-2.58.39-3.52-.71c-.94-1.09-.86-1.65-1.88-1.65s-2.19.54-2.73-1.09c-.54-1.65.07-2.88-1.25-2.34-1.33.54-2.34,2.19-3.04,2.19s-2.81.94-3.52,1.4-1.25,2.58-2.48,1.4-2.25-2.34-3.75-2.02c-1.48.31-2.58,1.79-2.58,1.79,0,0-1.94.46-4.59.94s-2.96.71-4.36,1.48-.77,1.71-2.81,2.88-3.42,2.19-4.29,2.19-2.81-.31-3.13.54c-.31.86-.39,1.33-1.65.77s-1.33-.46-2.02.07-2.88,1.56-3.82,1-.07-.94-.71-2.65c-.63-1.71-3.13-5.3-3.9-5.61s-1.79-1.09-4.76-.54-3.52,1.48-4.44.77-2.96-3.13-3.36-5.15c-.39-2.02.23-4.21-.86-5.07-1.09-.86-2.19-.46-3.13-1.09s-3.36-5.53-5.84-5.23-1.65.31-3.75-.94-2.02,0-2.88-1.4-.46-.63-1.71-2.58-1.88-1.56-3.52-3.13-1-1.33-2.25-2.96c-1.25-1.65-.63-1.94-2.11-3.13-1.48-1.17-3.04-1.79-2.81-2.73s.54-2.58-.71-2.58-1.17-1.17-2.42,0-.39,2.11-2.11,1.56-.23-1.94-2.42-.71c-2.19,1.25-1.33,3.13-2.88,1.88s-2.34-2.42-3.36-3.19c-1-.77-2.02-1.48-3.04-.07s1.4,4.36-1.56,2.73c-2.96-1.65-1.56-3.19-3.19-2.02s-1.4,1.56-2.19,2.19-3.9-.16-4.84,1.25c-.94,1.4,0,3.52-1.33,2.11s-.77-1.48-1.94-1.94-2.96-2.73-3.9-1.25-1.88,2.02-1.17,2.81,2.58,1.65,2.81,2.25,1.65,2.25-.63,2.19-3.9-2.42-5.69-2.42-3.52.16-4.44.54-1.79-.31-3.59.31c-1.79.63-2.88,1.09-3.52,2.65-.63,1.56-1.56,2.19-2.34,2.42s-2.48-1.4-2.25,1.09.23,3.27-.71,3.65-1.17-.63-2.65,1c-1.48,1.65-.94.86-3.04,2.48-2.11,1.65-2.81,2.58-1.56,4.92s1.48,2.34,1.48,3.19-1.65,3.52.63,4.13,3.98.16,5.84.16,2.19-2.25,4.67.54,4.59,4.29,5.23,5.23c.63.94,1.79,2.42,2.25,2.73.46.31,1,1.33,1.79.63.77-.71,1.94-1.33,1.94-1.33,0,0,1.25-.46,1.25.46s-.77,2.58-.39,3.27c.39.71,1.88,3.98,3.59,4.84s3.36,1.48,4.76,2.02,2.25.31,1.4,1.79c-.86,1.48-2.81,5.61-4.67,5.92-1.88.31-2.58-.77-4.05.31s-2.19,2.11-2.73,3.13-3.65,2.25-4.36,2.48-1,1.48-.23,2.58,1.33,1.65.86,2.48-1.09.39-1,1.09c.07.71,1.4,2.81,1.56,3.82s-.23,2.25-.54,3.36-.77,3.36,0,4.21,1.33,1.65,1.4,2.73-.54,1.09.16,2.96,1.17,3.9.23,4.92-1.25.94-1.09,2.02.23,2.81.23,4.13-1.25,3.27-.71,4.59,3.75,4.44,4.92,4.67,3.27,1.48,5.07,1.48,2.25.46,3.98,1.65c1.71,1.17,1.33,2.48,3.59,3.27s3.59,1.25,4.67,1.25,2.11-.39,2.11.54-.94,2.88.07,4.05,1.71,1.88,3.27,2.42,2.73.86,3.59.86.63-.94,1.94,0c1.33.94,1.33,1.17,1.94,1.33.63.16,1.79.23,1.79.23h.12v.05Z"/>
      <path id="path3121" class="st14" d="M103.78,534.42s-.35-.21-.63-1.04c-.26-.81-1.07-1.74-.99-2.37s3.62-2.55,3.36-3.44c-.26-.9,3.18.26,3.31.94s-1.07.99.31,2.16,2.16,1.69,1.56,2.24c-.58.54-4.71,1.93-5.55,2.02-.86.08-1.38-.49-1.38-.49h0v-.02Z"/>
      <path id="path4015" class="st14" d="M249.52,272.56s-1.04.59-1.18.95-1.33.15-.53,1.42,1.25,1.42,1.69,1.63,1.25,1.1,1.69.3.95-.74,1.33-.59.74.53.82-.3.67-1.42,0-1.93c-.67-.53-1.99-.67-2.29-1.04s-1.56-.44-1.56-.44h.02Z"/>
      <path id="path4067" class="st13" d="M529.69,504.88c.16-.35-.86-1.51-1.43-1.51s-2.96-.59-1.61.59,3.23,1.35,3.23,1.35l-.16-.43h-.02Z"/>
      <path id="path4069" class="st13" d="M531.82,503.27c-.59.59-1.94.43-.77,1.02s1.78.43,1.78.43l.08-1.1-1.1-.35h.02Z"/>
      <path id="path4073" class="st13" d="M520.81,505.98c-.94.94.26,1.51.86,1.35s1.86-.67,1.86-.67c0,0,.51-.59-.16-.77-.67-.16-2.12-.35-2.12-.35l-.43.43h0v.02Z"/>
      <path id="path4075" class="st13" d="M514.8,507.17c2.45.67,2.45.59,2.45.59,0,0,1.69-.08,1.61-.67s.26-.77-.08-.77-1.78-.26-2.45,0-1.78.86-1.51.86h-.02Z"/>
      <path id="path4077" class="st13" d="M513.11,504.37c.08,1.27.59,1.51.59,1.51,0,0,.67.08.59-.51s-.35-1.35-.35-1.35l-.86.35h.02Z"/>
    </g>
    <line class="st20" x1="257.63" y1="323.52" x2="275.01" y2="348.25"/>
    <line class="st19" x1="133.12" y1="479.02" x2="126.69" y2="501.25"/>
    <line class="st18" x1="133.58" y1="508.12" x2="141.81" y2="527.87"/>
    <line class="st20" x1="146.88" y1="578.27" x2="161.64" y2="598.51"/>
    <line class="st19" x1="298.94" y1="600.22" x2="402.11" y2="608.74"/>
    <line class="st20" x1="257.34" y1="727.4" x2="329.03" y2="724.99"/>
    <line class="st18" x1="232.65" y1="800.46" x2="278.38" y2="754.94"/>
    <circle class="st21" cx="257.63" cy="323.52" r="5.59"/>
    <circle class="st21" cx="275.01" cy="348.25" r="5.59"/>
    <circle class="st21" cx="133.12" cy="479.02" r="5.59"/>
    <circle class="st21" cx="126.69" cy="501.25" r="5.59"/>
    <circle class="st17" cx="133.58" cy="508.12" r="5.59"/>
    <circle class="st17" cx="141.81" cy="527.87" r="5.59"/>
    <circle class="st21" cx="146.88" cy="578.27" r="5.59"/>
    <circle class="st21" cx="161.64" cy="598.51" r="5.59"/>
    <circle class="st21" cx="298.94" cy="600.22" r="5.59"/>
    <circle class="st21" cx="402.11" cy="608.74" r="5.59"/>
    <circle class="st21" cx="257.34" cy="727.4" r="5.59"/>
    <circle class="st21" cx="329.03" cy="724.99" r="5.59"/>
    <circle class="st17" cx="250.41" cy="761.52" r="5.59"/>
    <circle class="st17" cx="278.38" cy="754.94" r="5.59"/>
    <circle class="st17" cx="231.69" cy="801.99" r="5.59"/>
    <circle class="st23" cx="257.82" cy="324.33" r="23.53"/>
    <text class="st4" transform="translate(250.27 333.38)"><tspan x="0" y="0">1</tspan></text>
    <circle class="st25" cx="127.5" cy="501.71" r="23.53"/>
    <text class="st9" transform="translate(119.95 510.76)"><tspan x="0" y="0">2</tspan></text>
    <circle class="st23" cx="161.89" cy="597.64" r="23.53"/>
    <text class="st4" transform="translate(154.34 606.69)"><tspan x="0" y="0">3</tspan></text>
    <circle class="st25" cx="299.45" cy="599.45" r="23.53"/>
    <text class="st9" transform="translate(291.9 608.5)"><tspan x="0" y="0">4</tspan></text>
    <circle class="st15" cx="257.82" cy="727.96" r="23.53"/>
    <text class="st9" transform="translate(250.27 737.01)"><tspan x="0" y="0">5</tspan></text>
    <circle class="st23" cx="328.41" cy="724.34" r="23.53"/>
    <text class="st4" transform="translate(320.86 733.39)"><tspan x="0" y="0">6</tspan></text>
    <circle class="st15" cx="232.21" cy="770.87" r="23.53"/>
    <text class="st10" transform="translate(225.69 778.58) scale(1.37 1)"><tspan x="0" y="0">7</tspan></text>
    <text class="st11" transform="translate(727.64 180.42)"><tspan x="0" y="0">The cluster map</tspan></text>
    <circle class="st24" cx="743.64" cy="216.42" r="14"/>
    <text class="st5" transform="translate(739.74 221.42)"><tspan x="0" y="0">1</tspan></text>
    <text class="st12" transform="translate(771.64 212.42)"><tspan x="0" y="0">Delhi · Jewar / Noida</tspan></text>
    <text class="st6" transform="translate(771.64 234.42)"><tspan x="0" y="0">Mobile assembly — C4</tspan></text>
    <circle class="st22" cx="743.64" cy="288.42" r="14"/>
    <text class="st0" transform="translate(739.74 293.42)"><tspan x="0" y="0">2</tspan></text>
    <text class="st12" transform="translate(771.64 284.42)"><tspan x="0" y="0">Gujarat: Dholera–Sanand</tspan></text>
    <text class="st6" transform="translate(771.64 306.42)"><tspan x="0" y="0">Semiconductor cluster </tspan><tspan x="0" y="16.8">— best placed to host the midstream</tspan></text>
    <circle class="st24" cx="743.64" cy="360.42" r="14"/>
    <text class="st5" transform="translate(739.74 365.42)"><tspan x="0" y="0">3</tspan></text>
    <text class="st12" transform="translate(771.64 356.42)"><tspan x="0" y="0">Mumbai–Pune</tspan></text>
    <text class="st6" transform="translate(771.64 378.42)"><tspan x="0" y="0">Finance &amp; industrial — C4</tspan></text>
    <circle class="st22" cx="743.64" cy="432.42" r="14"/>
    <text class="st0" transform="translate(739.74 437.42)"><tspan x="0" y="0">4</tspan></text>
    <text class="st12" transform="translate(771.64 428.42)"><tspan x="0" y="0">Hyderabad–Visakhapatnam</tspan></text>
    <text class="st6" transform="translate(771.64 450.42)"><tspan x="0" y="0">Design &amp; coastal build-out — rising</tspan></text>
    <circle class="st16" cx="743.64" cy="504.42" r="14"/>
    <text class="st0" transform="translate(739.74 509.42)"><tspan x="0" y="0">5</tspan></text>
    <text class="st12" transform="translate(771.64 500.42)"><tspan x="0" y="0">Bengaluru</tspan></text>
    <text class="st6" transform="translate(771.64 522.42)"><tspan x="0" y="0">Chip DESIGN — outside the material chain</tspan></text>
    <circle class="st24" cx="743.64" cy="576.42" r="14"/>
    <text class="st5" transform="translate(739.74 581.42)"><tspan x="0" y="0">6</tspan></text>
    <text class="st12" transform="translate(771.64 572.42)"><tspan x="0" y="0">Chennai</tspan></text>
    <text class="st6" transform="translate(771.64 594.42)"><tspan x="0" y="0">EMS / electronics export — C4</tspan></text>
    <circle class="st16" cx="743.64" cy="648.42" r="14"/>
    <text class="st0" transform="translate(739.74 653.42)"><tspan x="0" y="0">7</tspan></text>
    <text class="st12" transform="translate(771.64 644.42)"><tspan x="0" y="0">Coimbatore–Salem</tspan></text>
    <text class="st6" transform="translate(771.64 666.42)"><tspan x="0" y="0">Tier-2 specialised R&amp;D</tspan></text>
    <rect class="st27" x="604.29" y="750.33" width="353.88" height="87.16" rx="6.34" ry="6.34"/>
    <text class="st8" transform="translate(620.29 788.33)"><tspan x="0" y="0">No cluster yet hosts the separation </tspan><tspan x="0" y="22.8">/ magnet midstream at scale.</tspan></text>
  </g>
</svg>