<?xml version="1.0" encoding="UTF-8"?>
<svg xmlns="http://www.w3.org/2000/svg" version="1.1" viewBox="0 0 1500 500">
  <!-- Generator: Adobe Illustrator 30.4.0, SVG Export Plug-In . SVG Version: 2.1.4 Build 226)  -->
  <defs>
    <style>
      .st0 {
        fill: #c9a84c;
        stroke: #fbf9f4;
      }

      .st0, .st1 {
        stroke-width: 3px;
      }

      .st2 {
        font-size: 17px;
      }

      .st2, .st3, .st4, .st5, .st6, .st7, .st8 {
        isolation: isolate;
      }

      .st2, .st4, .st5, .st6 {
        fill: #4a5567;
        font-family: ArialMT, Arial;
      }

      .st3 {
        font-size: 29px;
      }

      .st3, .st7, .st8 {
        font-family: Arial-BoldMT, Arial;
        font-weight: 700;
      }

      .st3, .st8 {
        fill: #0f1828;
      }

      .st1 {
        fill: none;
        stroke: #c9a84c;
      }

      .st9 {
        fill: #fbf9f4;
      }

      .st4 {
        font-size: 13px;
      }

      .st5, .st8 {
        font-size: 16px;
      }

      .st10 {
        fill: #fff;
        stroke: #606060;
        stroke-miterlimit: 10;
        stroke-width: .25px;
      }

      .st6 {
        font-size: 12px;
      }

      .st7 {
        fill: #af7e1b;
        font-size: 20px;
      }
    </style>
  </defs>
  <g id="Layer_2">
    <rect class="st9" x="-5.23" y=".2" width="1506.02" height="499.8"/>
  </g>
  <g id="Layer_3">
    <rect class="st10" x="24.25" y="96.59" width="1447.73" height="325.3"/>
  </g>
  <g id="Layer_1">
    <text class="st4" transform="translate(1333.8016 42.2891)"><tspan x="0" y="0">Techadyant Labs · 2026</tspan></text>
    <text class="st3" transform="translate(25.55 46.29)"><tspan x="0" y="0">Three years of architecture, one signature</tspan></text>
    <text class="st2" transform="translate(25.55 75.29)"><tspan x="0" y="0">The India–US critical-minerals partnership, 2023–2026</tspan></text>
    <text class="st6" transform="translate(23.69 452.08)"><tspan x="0" y="0">Source: US State Department; MEA; PIB; Business Standard. Techadyant Labs analysis.</tspan></text>
    <line class="st1" x1="90" y1="260" x2="1410" y2="260"/>
    <circle class="st0" cx="116.4" cy="260" r="11"/>
    <text class="st7" transform="translate(75.02 147)"><tspan x="0" y="0">Jun 2023</tspan></text>
    <text class="st8" transform="translate(66.34 198)"><tspan x="0" y="0">India joins the</tspan></text>
    <text class="st8" transform="translate(55.43 217)"><tspan x="0" y="0">Minerals Security</tspan></text>
    <text class="st8" transform="translate(74.5 236)"><tspan x="0" y="0">Partnership</tspan></text>
    <text class="st5" transform="translate(53.62 316)"><tspan x="0" y="0">Only developing-</tspan></text>
    <text class="st5" transform="translate(55.44 334)"><tspan x="0" y="0">country member</tspan></text>
    <circle class="st0" cx="538.8" cy="260" r="11"/>
    <text class="st7" transform="translate(497.42 147)"><tspan x="0" y="0">Feb 2025</tspan></text>
    <text class="st8" transform="translate(482.13 198)"><tspan x="0" y="0">TRUST initiative</tspan></text>
    <text class="st8" transform="translate(462.69 217)"><tspan x="0" y="0">(Modi–Trump summit)</tspan></text>
    <text class="st5" transform="translate(473.15 316)"><tspan x="0" y="0">Critical minerals a</tspan></text>
    <text class="st5" transform="translate(481.13 334)"><tspan x="0" y="0">&apos;shared priority&apos;</tspan></text>
    <circle class="st0" cx="882" cy="260" r="11"/>
    <text class="st7" transform="translate(840.62 147)"><tspan x="0" y="0">Feb 2026</tspan></text>
    <text class="st8" transform="translate(821.94 198)"><tspan x="0" y="0">MSP reorganised</tspan></text>
    <text class="st8" transform="translate(839.34 217)"><tspan x="0" y="0">into FORGE</tspan></text>
    <text class="st5" transform="translate(817.42 316)"><tspan x="0" y="0">Coalition matures</tspan></text>
    <text class="st5" transform="translate(824.29 334)"><tspan x="0" y="0">toward delivery</tspan></text>
    <circle class="st0" cx="1357.2" cy="260" r="11"/>
    <text class="st7" transform="translate(1302.5779 147)"><tspan x="0" y="0">26 May 2026</tspan></text>
    <text class="st8" transform="translate(1293.5105 198)"><tspan x="0" y="0">India–US minerals</tspan></text>
    <text class="st8" transform="translate(1294.2932 217)"><tspan x="0" y="0">framework signed</tspan></text>
    <text class="st5" transform="translate(1287.2009 316)"><tspan x="0" y="0">Mining, processing,</tspan></text>
    <text class="st5" transform="translate(1282.51 334)"><tspan x="0" y="0">recycling, investment</tspan></text>
  </g>
</svg>