<?xml version="1.0" encoding="UTF-8"?>
<svg xmlns="http://www.w3.org/2000/svg" version="1.1" viewBox="0 0 1400 800">
  <!-- Generator: Adobe Illustrator 30.4.0, SVG Export Plug-In . SVG Version: 2.1.4 Build 226)  -->
  <defs>
    <style>
      .st0 {
        fill: #e8e5dd;
        fill-opacity: .6;
      }

      .st1, .st2, .st3, .st4, .st5, .st6, .st7, .st8, .st9, .st10, .st11 {
        isolation: isolate;
      }

      .st1, .st3, .st4, .st6, .st7, .st10 {
        font-family: ArialMT, Arial;
      }

      .st1, .st3, .st7 {
        fill: #4a5567;
      }

      .st1, .st4 {
        font-size: 17px;
      }

      .st2 {
        font-size: 29px;
      }

      .st2, .st4, .st8, .st9, .st10, .st11 {
        fill: #0f1828;
      }

      .st2, .st9, .st11 {
        font-family: Arial-BoldMT, Arial;
        font-weight: 700;
      }

      .st12 {
        fill: #fbf9f4;
      }

      .st3 {
        font-size: 13px;
      }

      .st5, .st7 {
        font-size: 12px;
      }

      .st5, .st13 {
        fill: #c9a84c;
      }

      .st14 {
        fill: #c8443b;
        fill-opacity: .85;
      }

      .st6 {
        fill: #fff;
      }

      .st6, .st8, .st10 {
        font-size: 22px;
      }

      .st8, .st15 {
        font-family: MyriadPro-Regular, 'Myriad Pro';
      }

      .st13 {
        fill-opacity: .7;
      }

      .st16 {
        font-family: Arial-ItalicMT, Arial;
        font-style: italic;
      }

      .st9 {
        font-size: 15px;
      }

      .st11 {
        font-size: 16px;
      }
    </style>
  </defs>
  <g id="Layer_2">
    <rect class="st12" width="1405.01" height="800"/>
  </g>
  <g id="Layer_1">
    <text class="st3" transform="translate(1254.7749 25.9197)"><tspan x="0" y="0">Techadyant Labs · 2026</tspan></text>
    <text class="st2" transform="translate(27.28 40.97)"><tspan x="0" y="0">The shared dependency matrix</tspan></text>
    <text class="st1" transform="translate(27.28 78.97)"><tspan x="0" y="0">One small set of minerals gates every strategic sector — and India processes almost none</tspan></text>
    <text class="st7" transform="translate(10.24 791.41)"><tspan x="0" y="0">Source: Techadyant Labs analysis; IEA; USGS.</tspan></text>
    <text class="st5" transform="translate(1180.548 785.1817)"><tspan class="st16" x="0" y="0">● high </tspan><tspan class="st15" x="36.6" y="0">◐</tspan><tspan class="st16" x="42.6" y="0" xml:space="preserve"> medium ○ low/none exposure</tspan></text>
    <text class="st9" transform="translate(207.88 123.41)"><tspan x="0" y="0">Nd / Pr</tspan></text>
    <text class="st9" transform="translate(357.16 123.41)"><tspan x="0" y="0">Dy / Tb</tspan></text>
    <text class="st9" transform="translate(504.99 123.41)"><tspan x="0" y="0">Gallium</tspan></text>
    <text class="st9" transform="translate(642.71 123.41)"><tspan x="0" y="0">Germanium</tspan></text>
    <text class="st9" transform="translate(805.36 123.41)"><tspan x="0" y="0">Lithium</tspan></text>
    <text class="st9" transform="translate(958.61 123.41)"><tspan x="0" y="0">Cobalt</tspan></text>
    <text class="st9" transform="translate(1102.105 123.4097)"><tspan x="0" y="0">Graphite</tspan></text>
    <text class="st9" transform="translate(1256.0818 123.4097)"><tspan x="0" y="0">Copper</tspan></text>
    <text class="st11" transform="translate(28.14 189.91)"><tspan x="0" y="0">Semiconductors</tspan></text>
    <rect class="st13" x="159.83" y="141.41" width="142" height="87" rx="4" ry="4"/>
    <text class="st8" transform="translate(222.58 192.91)"><tspan x="0" y="0">◐</tspan></text>
    <rect class="st13" x="309.83" y="141.41" width="142" height="87" rx="4" ry="4"/>
    <text class="st8" transform="translate(372.58 192.91)"><tspan x="0" y="0">◐</tspan></text>
    <rect class="st14" x="459.83" y="141.41" width="142" height="87" rx="4" ry="4"/>
    <text class="st6" transform="translate(524.19 192.91)"><tspan x="0" y="0">●</tspan></text>
    <rect class="st14" x="609.83" y="141.41" width="142" height="87" rx="4" ry="4"/>
    <text class="st6" transform="translate(674.19 192.91)"><tspan x="0" y="0">●</tspan></text>
    <rect class="st0" x="759.83" y="141.41" width="142" height="87" rx="4" ry="4"/>
    <text class="st10" transform="translate(824.19 192.91)"><tspan x="0" y="0">○</tspan></text>
    <rect class="st0" x="909.83" y="141.41" width="142" height="87" rx="4" ry="4"/>
    <text class="st10" transform="translate(974.19 192.91)"><tspan x="0" y="0">○</tspan></text>
    <rect class="st0" x="1059.83" y="141.41" width="142" height="87" rx="4" ry="4"/>
    <text class="st10" transform="translate(1124.1877 192.9097)"><tspan x="0" y="0">○</tspan></text>
    <rect class="st13" x="1209.83" y="141.41" width="142" height="87" rx="4" ry="4"/>
    <text class="st8" transform="translate(1272.5818 192.9097)"><tspan x="0" y="0">◐</tspan></text>
    <text class="st11" transform="translate(62.36 284.91)"><tspan x="0" y="0">Electronics</tspan></text>
    <rect class="st13" x="159.83" y="236.41" width="142" height="87" rx="4" ry="4"/>
    <text class="st8" transform="translate(222.58 287.91)"><tspan x="0" y="0">◐</tspan></text>
    <rect class="st0" x="309.83" y="236.41" width="142" height="87" rx="4" ry="4"/>
    <text class="st10" transform="translate(374.19 287.91)"><tspan x="0" y="0">○</tspan></text>
    <rect class="st13" x="459.83" y="236.41" width="142" height="87" rx="4" ry="4"/>
    <text class="st8" transform="translate(522.58 287.91)"><tspan x="0" y="0">◐</tspan></text>
    <rect class="st13" x="609.83" y="236.41" width="142" height="87" rx="4" ry="4"/>
    <text class="st8" transform="translate(672.58 287.91)"><tspan x="0" y="0">◐</tspan></text>
    <rect class="st13" x="759.83" y="236.41" width="142" height="87" rx="4" ry="4"/>
    <text class="st8" transform="translate(822.58 287.91)"><tspan x="0" y="0">◐</tspan></text>
    <rect class="st13" x="909.83" y="236.41" width="142" height="87" rx="4" ry="4"/>
    <text class="st8" transform="translate(972.58 287.91)"><tspan x="0" y="0">◐</tspan></text>
    <rect class="st13" x="1059.83" y="236.41" width="142" height="87" rx="4" ry="4"/>
    <text class="st8" transform="translate(1122.5818 287.9097)"><tspan x="0" y="0">◐</tspan></text>
    <rect class="st14" x="1209.83" y="236.41" width="142" height="87" rx="4" ry="4"/>
    <text class="st6" transform="translate(1274.1877 287.9097)"><tspan x="0" y="0">●</tspan></text>
    <text class="st11" transform="translate(83.36 379.91)"><tspan x="0" y="0">Defence</tspan></text>
    <rect class="st14" x="159.83" y="331.41" width="142" height="87" rx="4" ry="4"/>
    <text class="st6" transform="translate(224.19 382.91)"><tspan x="0" y="0">●</tspan></text>
    <rect class="st14" x="309.83" y="331.41" width="142" height="87" rx="4" ry="4"/>
    <text class="st6" transform="translate(374.19 382.91)"><tspan x="0" y="0">●</tspan></text>
    <rect class="st14" x="459.83" y="331.41" width="142" height="87" rx="4" ry="4"/>
    <text class="st6" transform="translate(524.19 382.91)"><tspan x="0" y="0">●</tspan></text>
    <rect class="st13" x="609.83" y="331.41" width="142" height="87" rx="4" ry="4"/>
    <text class="st8" transform="translate(672.58 382.91)"><tspan x="0" y="0">◐</tspan></text>
    <rect class="st13" x="759.83" y="331.41" width="142" height="87" rx="4" ry="4"/>
    <text class="st8" transform="translate(822.58 382.91)"><tspan x="0" y="0">◐</tspan></text>
    <rect class="st13" x="909.83" y="331.41" width="142" height="87" rx="4" ry="4"/>
    <text class="st8" transform="translate(972.58 382.91)"><tspan x="0" y="0">◐</tspan></text>
    <rect class="st0" x="1059.83" y="331.41" width="142" height="87" rx="4" ry="4"/>
    <text class="st10" transform="translate(1124.1877 382.9096)"><tspan x="0" y="0">○</tspan></text>
    <rect class="st13" x="1209.83" y="331.41" width="142" height="87" rx="4" ry="4"/>
    <text class="st8" transform="translate(1272.5818 382.9096)"><tspan x="0" y="0">◐</tspan></text>
    <text class="st11" transform="translate(28.09 474.91)"><tspan x="0" y="0">Electric vehicles</tspan></text>
    <rect class="st14" x="159.83" y="426.41" width="142" height="87" rx="4" ry="4"/>
    <text class="st6" transform="translate(224.19 477.91)"><tspan x="0" y="0">●</tspan></text>
    <rect class="st14" x="309.83" y="426.41" width="142" height="87" rx="4" ry="4"/>
    <text class="st6" transform="translate(374.19 477.91)"><tspan x="0" y="0">●</tspan></text>
    <rect class="st0" x="459.83" y="426.41" width="142" height="87" rx="4" ry="4"/>
    <text class="st10" transform="translate(524.19 477.91)"><tspan x="0" y="0">○</tspan></text>
    <rect class="st0" x="609.83" y="426.41" width="142" height="87" rx="4" ry="4"/>
    <text class="st10" transform="translate(674.19 477.91)"><tspan x="0" y="0">○</tspan></text>
    <rect class="st14" x="759.83" y="426.41" width="142" height="87" rx="4" ry="4"/>
    <text class="st6" transform="translate(824.19 477.91)"><tspan x="0" y="0">●</tspan></text>
    <rect class="st14" x="909.83" y="426.41" width="142" height="87" rx="4" ry="4"/>
    <text class="st6" transform="translate(974.19 477.91)"><tspan x="0" y="0">●</tspan></text>
    <rect class="st14" x="1059.83" y="426.41" width="142" height="87" rx="4" ry="4"/>
    <text class="st6" transform="translate(1124.1877 477.9096)"><tspan x="0" y="0">●</tspan></text>
    <rect class="st14" x="1209.83" y="426.41" width="142" height="87" rx="4" ry="4"/>
    <text class="st6" transform="translate(1274.1877 477.9096)"><tspan x="0" y="0">●</tspan></text>
    <text class="st11" transform="translate(52.26 569.91)"><tspan x="0" y="0">Energy / grid</tspan></text>
    <rect class="st14" x="159.83" y="521.41" width="142" height="87" rx="4" ry="4"/>
    <text class="st6" transform="translate(224.19 572.91)"><tspan x="0" y="0">●</tspan></text>
    <rect class="st13" x="309.83" y="521.41" width="142" height="87" rx="4" ry="4"/>
    <text class="st8" transform="translate(372.58 572.91)"><tspan x="0" y="0">◐</tspan></text>
    <rect class="st13" x="459.83" y="521.41" width="142" height="87" rx="4" ry="4"/>
    <text class="st8" transform="translate(522.58 572.91)"><tspan x="0" y="0">◐</tspan></text>
    <rect class="st0" x="609.83" y="521.41" width="142" height="87" rx="4" ry="4"/>
    <text class="st10" transform="translate(674.19 572.91)"><tspan x="0" y="0">○</tspan></text>
    <rect class="st14" x="759.83" y="521.41" width="142" height="87" rx="4" ry="4"/>
    <text class="st6" transform="translate(824.19 572.91)"><tspan x="0" y="0">●</tspan></text>
    <rect class="st13" x="909.83" y="521.41" width="142" height="87" rx="4" ry="4"/>
    <text class="st8" transform="translate(972.58 572.91)"><tspan x="0" y="0">◐</tspan></text>
    <rect class="st14" x="1059.83" y="521.41" width="142" height="87" rx="4" ry="4"/>
    <text class="st6" transform="translate(1124.1877 572.9096)"><tspan x="0" y="0">●</tspan></text>
    <rect class="st14" x="1209.83" y="521.41" width="142" height="87" rx="4" ry="4"/>
    <text class="st6" transform="translate(1274.1877 572.9096)"><tspan x="0" y="0">●</tspan></text>
    <text class="st11" transform="translate(41.35 664.91)"><tspan x="0" y="0">AI datacentres</tspan></text>
    <rect class="st13" x="159.83" y="616.41" width="142" height="87" rx="4" ry="4"/>
    <text class="st8" transform="translate(222.58 667.91)"><tspan x="0" y="0">◐</tspan></text>
    <rect class="st13" x="309.83" y="616.41" width="142" height="87" rx="4" ry="4"/>
    <text class="st8" transform="translate(372.58 667.91)"><tspan x="0" y="0">◐</tspan></text>
    <rect class="st13" x="459.83" y="616.41" width="142" height="87" rx="4" ry="4"/>
    <text class="st8" transform="translate(522.58 667.91)"><tspan x="0" y="0">◐</tspan></text>
    <rect class="st14" x="609.83" y="616.41" width="142" height="87" rx="4" ry="4"/>
    <text class="st6" transform="translate(674.19 667.91)"><tspan x="0" y="0">●</tspan></text>
    <rect class="st13" x="759.83" y="616.41" width="142" height="87" rx="4" ry="4"/>
    <text class="st8" transform="translate(822.58 667.91)"><tspan x="0" y="0">◐</tspan></text>
    <rect class="st0" x="909.83" y="616.41" width="142" height="87" rx="4" ry="4"/>
    <text class="st10" transform="translate(974.19 667.91)"><tspan x="0" y="0">○</tspan></text>
    <rect class="st13" x="1059.83" y="616.41" width="142" height="87" rx="4" ry="4"/>
    <text class="st8" transform="translate(1122.5818 667.9096)"><tspan x="0" y="0">◐</tspan></text>
    <rect class="st14" x="1209.83" y="616.41" width="142" height="87" rx="4" ry="4"/>
    <text class="st6" transform="translate(1274.1877 667.9096)"><tspan x="0" y="0">●</tspan></text>
    <text class="st4" transform="translate(155.83 751.41)"><tspan x="0" y="0">Because the dependencies are shared, the midstream that serves one sector serves all — the case for building it once, at scale.</tspan></text>
  </g>
</svg>