<?xml version="1.0" encoding="UTF-8"?>
<svg xmlns="http://www.w3.org/2000/svg" version="1.1" viewBox="0 0 1500 700">
  <!-- Generator: Adobe Illustrator 30.4.0, SVG Export Plug-In . SVG Version: 2.1.4 Build 226)  -->
  <defs>
    <style>
      .st0, .st1, .st2, .st3 {
        fill: #4a5567;
      }

      .st1 {
        font-size: 17px;
      }

      .st1, .st4, .st2, .st3, .st5, .st6, .st7, .st8 {
        isolation: isolate;
      }

      .st1, .st2, .st3, .st6 {
        font-family: ArialMT, Arial;
      }

      .st4 {
        font-size: 29px;
      }

      .st4, .st5, .st7, .st8 {
        font-family: Arial-BoldMT, Arial;
        font-weight: 700;
      }

      .st4, .st6, .st7, .st8 {
        fill: #0f1828;
      }

      .st9 {
        fill: #c9a84c;
      }

      .st9, .st10, .st11 {
        fill-opacity: .9;
      }

      .st12 {
        fill: #fbf9f4;
      }

      .st2 {
        font-size: 13px;
      }

      .st13 {
        fill: none;
      }

      .st10 {
        fill: #e8e5dd;
      }

      .st11 {
        fill: #2bc5b4;
      }

      .st3 {
        font-size: 12px;
      }

      .st5, .st7 {
        font-size: 19px;
      }

      .st5, .st14, .st15 {
        fill: #c8443b;
      }

      .st6 {
        font-size: 16px;
      }

      .st8 {
        font-size: 15px;
      }

      .st14 {
        fill-opacity: .1;
        stroke: #c8443b;
        stroke-width: 1.5px;
      }
    </style>
  </defs>
  <g id="Layer_2">
    <rect class="st12" x="2.69" width="1493.29" height="700.2"/>
  </g>
  <g id="Layer_1">
    <text class="st2" transform="translate(1308.126 70.9232)"><tspan x="0" y="0">Techadyant Labs · 2026</tspan></text>
    <text class="st4" transform="translate(35.69 91.69)"><tspan x="0" y="0">The semiconductor chain, and where the minerals enter</tspan></text>
    <text class="st1" transform="translate(35.69 120.69)"><tspan x="0" y="0">India is strong at the ends, exposed in the material layer beneath</tspan></text>
    <text class="st3" transform="translate(50.18 665.3)"><tspan x="0" y="0">Source: Techadyant Labs analysis; CSIS; USITC.</tspan></text>
    <rect class="st11" x="41.69" y="171.69" width="330" height="210" rx="8" ry="8"/>
    <text class="st7" transform="translate(162.26 211.69)"><tspan x="0" y="0">DESIGN</tspan></text>
    <text class="st6" transform="translate(146.9 243.69)"><tspan x="0" y="0">IP &amp; EDA tools</tspan></text>
    <text class="st8" transform="translate(146.13 341.69)"><tspan x="0" y="0">India: STRONG</tspan></text>
    <path class="st13" d=""/>
    <path class="st0" d="M381.94,267.94l17.5,8.75-17.5,8.75v-17.5Z"/>
    <path class="st0" d="M397.69,276.69" marker-end="url(#a7)"/>
    <rect class="st9" x="401.69" y="171.69" width="330" height="210" rx="8" ry="8"/>
    <text class="st7" transform="translate(502.48 211.69)"><tspan x="0" y="0">FABRICATION</tspan></text>
    <text class="st6" transform="translate(505.25 243.69)"><tspan x="0" y="0">Wafer patterning,</tspan></text>
    <text class="st6" transform="translate(509.65 265.69)"><tspan x="0" y="0">etch, deposition</tspan></text>
    <text class="st8" transform="translate(515.86 341.69)"><tspan x="0" y="0">India: building</tspan></text>
    <text class="st8" transform="translate(510.79 361.69)"><tspan x="0" y="0">(28nm, Dholera)</tspan></text>
    <path class="st13" d=""/>
    <path class="st0" d="M741.94,267.94l17.5,8.75-17.5,8.75v-17.5Z"/>
    <path class="st0" d="M757.69,276.69" marker-end="url(#a7)"/>
    <rect class="st11" x="761.69" y="171.69" width="330" height="210" rx="8" ry="8"/>
    <text class="st7" transform="translate(842.75 211.69)"><tspan x="0" y="0">ASSEMBLY / TEST</tspan></text>
    <text class="st6" transform="translate(852.92 243.69)"><tspan x="0" y="0">Dice, bond, package,</tspan></text>
    <text class="st6" transform="translate(876.82 265.69)"><tspan x="0" y="0">verify (OSAT)</tspan></text>
    <text class="st8" transform="translate(873.13 341.69)"><tspan x="0" y="0">India: STRONG</tspan></text>
    <text class="st8" transform="translate(871.96 361.69)"><tspan x="0" y="0">(Sanand, Surat)</tspan></text>
    <path class="st13" d=""/>
    <path class="st0" d="M1101.94,267.94l17.5,8.75-17.5,8.75v-17.5Z"/>
    <path class="st0" d="M1117.69,276.69" marker-end="url(#a7)"/>
    <rect class="st10" x="1121.69" y="171.69" width="330" height="210" rx="8" ry="8"/>
    <text class="st7" transform="translate(1217.0186 211.6868)"><tspan x="0" y="0">END PRODUCT</tspan></text>
    <text class="st6" transform="translate(1234.718 243.6868)"><tspan x="0" y="0">Chip in device</tspan></text>
    <text class="st8" transform="translate(1227.2732 341.6867)"><tspan x="0" y="0">India: assembles</tspan></text>
    <rect class="st14" x="41.69" y="451.69" width="1410" height="150" rx="8" ry="8"/>
    <text class="st5" transform="translate(65.69 485.69)"><tspan x="0" y="0">THE MATERIAL LAYER (C2–C3) — almost entirely imported</tspan></text>
    <text class="st6" transform="translate(65.69 523.69)"><tspan x="0" y="0">• Silicon wafers — China ~75–79%</tspan></text>
    <text class="st6" transform="translate(535.69 523.69)"><tspan x="0" y="0">• Gallium (GaN/GaAs) — China ~98%</tspan></text>
    <text class="st6" transform="translate(1005.6868 523.6868)"><tspan x="0" y="0">• Germanium — India 100% imported</tspan></text>
    <text class="st6" transform="translate(65.69 555.69)"><tspan x="0" y="0">• Electronic gases &amp; photoresist — concentrated</tspan></text>
    <text class="st6" transform="translate(535.69 555.69)"><tspan x="0" y="0">• Rare-earth magnets in the tools — China-dominant</tspan></text>
    <path class="st13" d=""/>
    <path class="st15" d="M561.44,415.87l5.25-10.5,5.25,10.5h-10.5Z"/>
    <path class="st15" d="M566.69,387.69" marker-end="url(#a7b)"/>
    <path class="st13" d=""/>
    <path class="st15" d="M924.59,417.09l5.25-10.5,5.25,10.5h-10.5Z"/>
    <path class="st15" d="M926.69,387.69" marker-end="url(#a7b)"/>
  </g>
</svg>