<?xml version="1.0" encoding="UTF-8"?>
<svg xmlns="http://www.w3.org/2000/svg" version="1.1" viewBox="0 0 1400 550">
  <!-- Generator: Adobe Illustrator 30.4.0, SVG Export Plug-In . SVG Version: 2.1.4 Build 226)  -->
  <defs>
    <style>
      .st0 {
        stroke: #0f1828;
        stroke-width: 2px;
      }

      .st0, .st1, .st2, .st3 {
        fill: none;
      }

      .st4, .st5, .st6, .st7, .st8, .st9, .st10, .st11, .st12 {
        isolation: isolate;
      }

      .st4, .st13, .st8, .st9, .st10 {
        fill: #4a5567;
        font-family: ArialMT, Arial;
      }

      .st4, .st6, .st7, .st11, .st14 {
        font-size: 17px;
      }

      .st5 {
        font-size: 29px;
      }

      .st5, .st6, .st7, .st11, .st14, .st12 {
        font-weight: 700;
      }

      .st5, .st6, .st11, .st14 {
        fill: #0f1828;
      }

      .st5, .st6, .st11, .st14, .st12 {
        font-family: Arial-BoldMT, Arial;
      }

      .st1 {
        stroke: #c9a84c;
      }

      .st1, .st2, .st3 {
        stroke-width: 1.5px;
      }

      .st13, .st9 {
        font-size: 16px;
      }

      .st15 {
        fill: #fbf9f4;
      }

      .st6 {
        letter-spacing: .04em;
      }

      .st7 {
        font-family: CourierNewPS-BoldMT, 'Courier New';
      }

      .st7, .st16 {
        fill: #c8443b;
      }

      .st8 {
        font-size: 13px;
      }

      .st2 {
        stroke: #c8443b;
      }

      .st17 {
        fill: #c9a84c;
      }

      .st10 {
        font-size: 12px;
      }

      .st18 {
        fill: #2bc5b4;
      }

      .st3 {
        stroke: #2bc5b4;
      }

      .st12 {
        fill: #fff;
        font-size: 18px;
      }
    </style>
  </defs>
  <g id="Layer_2">
    <rect class="st15" y="4.42" width="1400" height="548.5"/>
  </g>
  <g id="Layer_1">
    <text class="st8" transform="translate(1241.1145 42.5928)"><tspan x="0" y="0">Techadyant Labs · 2026</tspan></text>
    <text class="st5" transform="translate(20 42.59)"><tspan x="0" y="0">Proof of leverage: the 2024–25 export-control episode</tspan></text>
    <text class="st4" transform="translate(20 71.59)"><tspan x="0" y="0">China&apos;s controls on gallium, germanium, antimony and rare earths — and the price response</tspan></text>
    <text class="st10" transform="translate(22.12 525.2)"><tspan x="0" y="0">Source: China MOFCOM notices; Fastmarkets; Stimson Center; CSET. Techadyant Labs analysis.</tspan></text>
    <line class="st0" x1="13.8" y1="252.91" x2="1373.8" y2="252.91"/>
    <circle class="st18" cx="95.4" cy="252.91" r="9"/>
    <line class="st3" x1="95.4" y1="252.91" x2="95.4" y2="222.91"/>
    <text class="st11" transform="translate(63.8 216.91)"><tspan x="0" y="0">Jul 2023</tspan></text>
    <text class="st9" transform="translate(65.11 179.91)"><tspan x="0" y="0">Ga &amp; Ge</tspan></text>
    <text class="st9" transform="translate(44.15 197.91)"><tspan x="0" y="0">licensing begins</tspan></text>
    <circle class="st16" cx="421.8" cy="252.91" r="9"/>
    <line class="st2" x1="421.8" y1="252.91" x2="421.8" y2="282.91"/>
    <text class="st14" transform="translate(387.28 302.91)"><tspan x="0" y="0">Dec 2024</tspan></text>
    <text class="st13" transform="translate(373.29 324.91)"><tspan x="0" y="0">Full export BAN</tspan></text>
    <text class="st13" transform="translate(364.61 342.91)"><tspan x="0" y="0">to US: Ga, Ge, Sb,</tspan></text>
    <text class="st13" transform="translate(389.53 360.91)"><tspan x="0" y="0">superhard</tspan></text>
    <circle class="st16" cx="802.6" cy="252.91" r="9"/>
    <line class="st2" x1="802.6" y1="252.91" x2="802.6" y2="222.91"/>
    <text class="st11" transform="translate(769.33 216.91)"><tspan x="0" y="0">Oct 2025</tspan></text>
    <text class="st9" transform="translate(743.59 161.91)"><tspan x="0" y="0">Controls on REE +</tspan></text>
    <text class="st9" transform="translate(732.2 179.91)"><tspan x="0" y="0">processing equipment;</tspan></text>
    <text class="st9" transform="translate(765.09 197.91)"><tspan x="0" y="0">heavy REE</tspan></text>
    <circle class="st17" cx="1074.6" cy="252.91" r="9"/>
    <line class="st1" x1="1074.6" y1="252.91" x2="1074.6" y2="282.91"/>
    <text class="st14" transform="translate(1039.6655 302.9139)"><tspan x="0" y="0">Nov 2025</tspan></text>
    <text class="st13" transform="translate(1010.5275 324.9139)"><tspan x="0" y="0">Bans SUSPENDED</tspan></text>
    <text class="st13" transform="translate(1032.5507 342.9139)"><tspan x="0" y="0">to Nov 2026</tspan></text>
    <text class="st13" transform="translate(1025.3398 360.9139)"><tspan x="0" y="0">(bilateral talks)</tspan></text>
    <circle class="st18" cx="1305.8" cy="252.91" r="9"/>
    <line class="st3" x1="1305.8" y1="252.91" x2="1305.8" y2="222.91"/>
    <text class="st11" transform="translate(1270.4443 216.9139)"><tspan x="0" y="0">May 2026</tspan></text>
    <text class="st9" transform="translate(1241.9184 179.9139)"><tspan x="0" y="0">India–US framework</tspan></text>
    <text class="st9" transform="translate(1281.6484 197.9139)"><tspan x="0" y="0">signed</tspan></text>
    <text class="st6" transform="translate(20.85 432.23)"><tspan x="0" y="0">PRICE IMPACT THROUGH 2025</tspan></text>
    <rect class="st16" x="20.85" y="452.23" width="323.56" height="34" rx="3" ry="3"/>
    <text class="st12" transform="translate(28.85 475.23)"><tspan x="0" y="0">Gallium</tspan></text>
    <text class="st7" transform="translate(357.69 474.46)"><tspan x="0" y="0">+365%</tspan></text>
    <rect class="st16" x="467.11" y="452.23" width="353.98" height="34" rx="3" ry="3"/>
    <text class="st12" transform="translate(476.85 475.23)"><tspan x="0" y="0">Germanium</tspan></text>
    <text class="st7" transform="translate(834.05 474.23)"><tspan x="0" y="0">+400%</tspan></text>
    <rect class="st16" x="935.07" y="451.89" width="387.17" height="34" rx="3" ry="3"/>
    <text class="st12" transform="translate(945.85 475.23)"><tspan x="0" y="0">Antimony</tspan></text>
    <text class="st7" transform="translate(1334.6729 473.2288)"><tspan x="0" y="0">+437%</tspan></text>
  </g>
</svg>