<?xml version="1.0" encoding="UTF-8"?>
<svg id="Layer_1" xmlns="http://www.w3.org/2000/svg" version="1.1" viewBox="0 0 850 700">
  <!-- Generator: Adobe Illustrator 30.4.0, SVG Export Plug-In . SVG Version: 2.1.4 Build 226)  -->
  <defs>
    <style>
      .st0 {
        fill: #c9a84c;
        fill-opacity: .18;
        stroke: #c9a84c;
      }

      .st1, .st2, .st3, .st4, .st5, .st6, .st7, .st8 {
        isolation: isolate;
      }

      .st1, .st4, .st5, .st6 {
        font-family: ArialMT, Arial;
      }

      .st1, .st5, .st6 {
        fill: #4a5567;
      }

      .st1, .st8 {
        font-size: 15px;
      }

      .st2, .st3, .st7, .st8 {
        font-family: Arial-BoldMT, Arial;
        font-weight: 700;
      }

      .st2, .st9 {
        fill: #2bc5b4;
      }

      .st2, .st7 {
        font-size: 19px;
      }

      .st3 {
        font-size: 29px;
      }

      .st3, .st4, .st8 {
        fill: #0f1828;
      }

      .st10 {
        fill: #fbf9f4;
      }

      .st4 {
        font-size: 14px;
      }

      .st5 {
        font-size: 13px;
      }

      .st11 {
        stroke: #c8443b;
      }

      .st11, .st9 {
        fill-opacity: .1;
        stroke-width: 1.32px;
      }

      .st11, .st7 {
        fill: #c8443b;
      }

      .st6 {
        font-size: 12px;
      }

      .st9 {
        stroke: #2bc5b4;
      }
    </style>
  </defs>
  <rect class="st10" x="1.82" y=".01" width="848.18" height="699.98"/>
  <text class="st5" transform="translate(696.23 33.3)"><tspan x="0" y="0">Techadyant Labs · 2026</tspan></text>
  <text class="st3" transform="translate(39 57.3)"><tspan x="0" y="0">The emerging technology bloc</tspan></text>
  <text class="st1" transform="translate(39 86.3)"><tspan x="0" y="0">A division of labour — and the layer that has not yet moved</tspan></text>
  <text class="st6" transform="translate(49.23 678.97)"><tspan x="0" y="0">Source: Techadyant Labs analysis; Rhodium; MSP/FORGE.</tspan></text>
  <rect class="st11" x="39" y="116.3" width="360" height="508.67" rx="8.78" ry="8.78"/>
  <text class="st7" transform="translate(159.72 152.3)"><tspan x="0" y="0">CHINA BLOC</tspan></text>
  <text class="st5" transform="translate(151.45 176.3)"><tspan x="0" y="0">retains the sticky layers</tspan></text>
  <text class="st4" transform="translate(59 222.3)"><tspan x="0" y="0">• Processing &amp; refining (C2) ~90%</tspan></text>
  <text class="st4" transform="translate(59 268.3)"><tspan x="0" y="0">• Heavy-REE separation ~99%</tspan></text>
  <text class="st4" transform="translate(59 314.3)"><tspan x="0" y="0">• Magnets &amp; materials (C3)</tspan></text>
  <text class="st4" transform="translate(59 360.3)"><tspan x="0" y="0">• Much component manufacture</tspan></text>
  <text class="st4" transform="translate(59 406.3)"><tspan x="0" y="0">• Large assembly base</tspan></text>
  <rect class="st9" x="451" y="116.3" width="360" height="508.67" rx="8.78" ry="8.78"/>
  <text class="st2" transform="translate(537.77 152.3)"><tspan x="0" y="0">DEMOCRATIC BLOC</tspan></text>
  <text class="st5" transform="translate(582.22 176.3)"><tspan x="0" y="0">division of labour</tspan></text>
  <text class="st8" transform="translate(471 216.3)"><tspan x="0" y="0">US</tspan></text>
  <text class="st5" transform="translate(471 238.3)"><tspan x="0" y="0">capital · demand · frontier design/equipment</tspan></text>
  <text class="st8" transform="translate(471 268.3)"><tspan x="0" y="0">Japan</tspan></text>
  <text class="st5" transform="translate(471 290.3)"><tspan x="0" y="0">processing &amp; magnet technology</tspan></text>
  <text class="st8" transform="translate(471 328.11)"><tspan x="0" y="0">Australia</tspan></text>
  <text class="st5" transform="translate(471 350.11)"><tspan x="0" y="0">reserves &amp; mining</tspan></text>
  <text class="st8" transform="translate(471 388.04)"><tspan x="0" y="0">Korea/Taiwan</tspan></text>
  <text class="st5" transform="translate(471 410.04)"><tspan x="0" y="0">fabrication &amp; components</tspan></text>
  <text class="st8" transform="translate(471 454.49)"><tspan x="0" y="0">Europe</tspan></text>
  <text class="st5" transform="translate(471 476.49)"><tspan x="0" y="0">equipment &amp; regulation</tspan></text>
  <text class="st8" transform="translate(482.14 546)"><tspan x="0" y="0">India</tspan></text>
  <text class="st5" transform="translate(482.14 568)"><tspan x="0" y="0">scale · workforce · market · potential midstream</tspan></text>
  <rect class="st0" x="471" y="524" width="320" height="54" rx="6" ry="6"/>
  <text class="st5" transform="translate(152.29 658.97)"><tspan x="0" y="0">Assembly relocates fast →</tspan></text>
  <text class="st5" transform="translate(555.97 658.97)"><tspan x="0" y="0">Processing has barely moved</tspan></text>
</svg>