<?xml version="1.0" encoding="UTF-8"?>
<svg id="Layer_1" xmlns="http://www.w3.org/2000/svg" version="1.1" viewBox="0 0 1500 600">
  <!-- Generator: Adobe Illustrator 30.4.0, SVG Export Plug-In . SVG Version: 2.1.4 Build 226)  -->
  <defs>
    <style>
      .st0 {
        stroke: #4a5567;
        stroke-width: 1.5px;
      }

      .st0, .st1, .st2, .st3, .st4, .st5, .st6 {
        fill: #4a5567;
      }

      .st0, .st7, .st8, .st9 {
        fill-opacity: .14;
      }

      .st2 {
        font-size: 17px;
      }

      .st2, .st10, .st3, .st11, .st12, .st13, .st4, .st14, .st5, .st15, .st16, .st6 {
        isolation: isolate;
      }

      .st2, .st3, .st12, .st13, .st4, .st14 {
        font-family: ArialMT, Arial;
      }

      .st10 {
        font-size: 29px;
      }

      .st10, .st11, .st12, .st13, .st14, .st9 {
        fill: #0f1828;
      }

      .st10, .st11, .st5, .st15, .st16 {
        font-family: Arial-BoldMT, Arial;
        font-weight: 700;
      }

      .st17 {
        fill: #fbf9f4;
      }

      .st7 {
        fill: #2bc5b4;
        stroke: #2bc5b4;
      }

      .st7, .st8 {
        stroke-width: 1.34px;
      }

      .st3 {
        font-size: 13px;
      }

      .st11, .st5, .st15, .st16 {
        font-size: 22px;
      }

      .st12 {
        font-size: 18.56px;
      }

      .st13 {
        font-size: 19.75px;
      }

      .st8 {
        fill: #c9a84c;
        stroke: #c9a84c;
      }

      .st4 {
        font-size: 12px;
      }

      .st14 {
        font-size: 19.34px;
      }

      .st9 {
        stroke: #0f1828;
        stroke-width: 1.54px;
      }

      .st15 {
        fill: #876510;
      }

      .st16 {
        fill: #149986;
      }

      .st6 {
        font-family: Arial-ItalicMT, Arial;
        font-size: 15px;
        font-style: italic;
      }
    </style>
  </defs>
  <g id="Layer_2">
    <rect class="st17" y="0" width="1500" height="600.15"/>
  </g>
  <rect class="st7" x="30" y="118" width="440" height="241" rx="8" ry="8"/>
  <rect class="st8" x="1030" y="118" width="440" height="241" rx="8" ry="8"/>
  <rect class="st9" x="510" y="118" width="480" height="241" rx="8" ry="8"/>
  <rect class="st0" x="510" y="409" width="480" height="90" rx="8" ry="8"/>
  <path class="st0" d="M0,0"/>
  <path class="st1" d="M487.4,232l14,7-14,7v-14Z"/>
  <path class="st1" d="M0,0"/>
  <path class="st1" d="M1006.4,232l14,7-14,7v-14Z"/>
  <path class="st1" d="M1030,239" marker-end="url(#are)"/>
  <path class="st1" d="M0,0"/>
  <path class="st1" d="M751.4,381l-7,14-7-14h14Z"/>
  <path class="st1" d="M750,409" marker-end="url(#are)"/>
  <text class="st3" transform="translate(1328.345 28.4689)"><tspan x="0" y="0">Techadyant Labs · 2026</tspan></text>
  <text class="st10" transform="translate(29.61 55)"><tspan x="0" y="0">The alliance ecosystem</tspan></text>
  <text class="st2" transform="translate(29.61 84)"><tspan x="0" y="0">Who sits inside the India–US critical-minerals framework</tspan></text>
  <text class="st4" transform="translate(16 578.87)"><tspan x="0" y="0">Source: US State Department; MEA; PIB; company filings. Techadyant Labs analysis.</tspan></text>
  <text class="st16" transform="translate(211.81 153.36)"><tspan x="0" y="0">INDIA</tspan></text>
  <text class="st14" transform="translate(125.88 202.03)"><tspan x="0" y="0">Ministry of Mines · MeitY</tspan></text>
  <text class="st14" transform="translate(112.97 235.19)"><tspan x="0" y="0">Ministry of Heavy Industries</tspan></text>
  <text class="st14" transform="translate(115.99 268.34)"><tspan x="0" y="0">IREL (separation mandate)</tspan></text>
  <text class="st14" transform="translate(129.62 301.49)"><tspan x="0" y="0">REPM scheme entrants</tspan></text>
  <text class="st14" transform="translate(118.87 334.64)"><tspan x="0" y="0">NCMM · ₹16,300 cr outlay</tspan></text>
  <text class="st15" transform="translate(1164.8199 153.9571)"><tspan x="0" y="0">UNITED STATES</tspan></text>
  <text class="st13" transform="translate(1163.2991 204.6945)"><tspan x="0" y="0">Dept of State · DoD</tspan></text>
  <text class="st13" transform="translate(1118.4915 238.5475)"><tspan x="0" y="0">MP Materials · Lynas (offtake)</tspan></text>
  <text class="st13" transform="translate(1138.0364 272.4001)"><tspan x="0" y="0">Defence-magnet demand</tspan></text>
  <text class="st13" transform="translate(1139.1545 306.2526)"><tspan x="0" y="0">Capital &amp; floor-price tools</tspan></text>
  <text class="st13" transform="translate(1150.1136 340.1052)"><tspan x="0" y="0">Processing technology</tspan></text>
  <text class="st11" transform="translate(625.62 165.4)"><tspan x="0" y="0">SHARED FRAMEWORK</tspan></text>
  <text class="st12" transform="translate(647.18 204.71)"><tspan x="0" y="0">TRUST initiative (2025)</tspan></text>
  <text class="st12" transform="translate(632.05 236.52)"><tspan x="0" y="0">Strategic Mineral Recovery</tspan></text>
  <text class="st12" transform="translate(661.96 268.34)"><tspan x="0" y="0">Mining · Processing</tspan></text>
  <text class="st12" transform="translate(649.59 300.15)"><tspan x="0" y="0">Recycling · Investment</tspan></text>
  <text class="st12" transform="translate(658.32 331.97)"><tspan x="0" y="0">Signed 26 May 2026</tspan></text>
  <text class="st5" transform="translate(611.32 441.4)"><tspan x="0" y="0">QUAD / BLOC PARTNERS</tspan></text>
  <text class="st14" transform="translate(556.71 477.4)"><tspan x="0" y="0">Japan — magnet tech · Australia — reserves</tspan></text>
  <text class="st6" transform="translate(391.64 536.4)"><tspan x="0" y="0">The test: does the shared framework transfer processing technology and offtake — not just exploration?</tspan></text>
</svg>