<?xml version="1.0" encoding="UTF-8"?>
<svg xmlns="http://www.w3.org/2000/svg" version="1.1" viewBox="0 0 1550 600">
  <!-- Generator: Adobe Illustrator 30.4.0, SVG Export Plug-In . SVG Version: 2.1.4 Build 226)  -->
  <defs>
    <style>
      .st0, .st1, .st2, .st3, .st4 {
        fill: #4a5567;
      }

      .st5 {
        stroke: #2bc5b4;
      }

      .st5, .st6, .st7, .st8 {
        stroke-width: 1.4px;
      }

      .st5, .st6, .st7, .st8, .st9 {
        fill: #fff;
      }

      .st1 {
        font-size: 17px;
      }

      .st1, .st10, .st2, .st3, .st9, .st11, .st4 {
        isolation: isolate;
      }

      .st1, .st2, .st3 {
        font-family: ArialMT, Arial;
      }

      .st10 {
        font-size: 29px;
      }

      .st10, .st9, .st11 {
        font-family: Arial-BoldMT, Arial;
        font-weight: 700;
      }

      .st10, .st11 {
        fill: #0f1828;
      }

      .st12 {
        fill: #c9a84c;
      }

      .st12, .st13, .st14, .st15 {
        fill-opacity: .9;
      }

      .st16 {
        fill: #fbf9f4;
      }

      .st6 {
        stroke: #c8443b;
      }

      .st2, .st4 {
        font-size: 13px;
      }

      .st17 {
        fill: none;
      }

      .st7 {
        stroke: #c9a84c;
      }

      .st13 {
        fill: #e8e5dd;
      }

      .st14 {
        fill: #c8443b;
      }

      .st8 {
        stroke: #e8e5dd;
      }

      .st15 {
        fill: #2bc5b4;
      }

      .st3 {
        font-size: 12px;
      }

      .st9, .st11 {
        font-size: 16px;
      }

      .st4 {
        font-family: Arial-ItalicMT, Arial;
        font-style: italic;
      }
    </style>
  </defs>
  <g id="Layer_2">
    <rect class="st16" y=".81" width="1554.71" height="602.41"/>
  </g>
  <g id="Layer_1">
    <text class="st2" transform="translate(1392.5355 36.0098)"><tspan x="0" y="0">Techadyant Labs · 2026</tspan></text>
    <text class="st10" transform="translate(41.8 36.01)"><tspan x="0" y="0">The corporate ecosystem of the alliance</tspan></text>
    <text class="st1" transform="translate(41.8 65.01)"><tspan x="0" y="0">Who builds each chokepoint — Indian and global players</tspan></text>
    <text class="st3" transform="translate(19 580)"><tspan x="0" y="0">Source: company filings; PIB; Techadyant Labs analysis.</tspan></text>
    <rect class="st13" x="55" y="85.01" width="350" height="60" rx="8" ry="8"/>
    <text class="st11" transform="translate(178.43 122.01)"><tspan x="0" y="0">C1 Extraction</tspan></text>
    <rect class="st8" x="55" y="175.01" width="350" height="74" rx="6" ry="6"/>
    <text class="st11" transform="translate(169.7 219.01)"><tspan x="0" y="0">IREL (monazite)</tspan></text>
    <rect class="st8" x="55" y="267.01" width="350" height="74" rx="6" ry="6"/>
    <text class="st11" transform="translate(199.32 311.01)"><tspan x="0" y="0">Vedanta</tspan></text>
    <rect class="st8" x="55" y="359.01" width="350" height="74" rx="6" ry="6"/>
    <text class="st11" transform="translate(157.09 403.01)"><tspan x="0" y="0">GMDC / state PSUs</tspan></text>
    <rect class="st8" x="55" y="451.01" width="350" height="74" rx="6" ry="6"/>
    <text class="st11" transform="translate(163.46 495.01)"><tspan x="0" y="0">KABIL (overseas)</tspan></text>
    <path class="st17" d=""/>
    <path class="st0" d="M410.4,338.01l14,7-14,7v-14Z"/>
    <path class="st0" d="M423,345.01" marker-end="url(#ace)"/>
    <rect class="st14" x="425" y="85.01" width="350" height="60" rx="8" ry="8"/>
    <text class="st9" transform="translate(510.21 122.01)"><tspan x="0" y="0">C2 Separation / refining</tspan></text>
    <rect class="st6" x="425" y="175.01" width="350" height="74" rx="6" ry="6"/>
    <text class="st11" transform="translate(581.78 219.01)"><tspan x="0" y="0">IREL</tspan></text>
    <rect class="st6" x="425" y="267.01" width="350" height="74" rx="6" ry="6"/>
    <text class="st11" transform="translate(490.2 311.01)"><tspan x="0" y="0">(new private entrants — gap)</tspan></text>
    <rect class="st6" x="425" y="359.01" width="350" height="74" rx="6" ry="6"/>
    <text class="st11" transform="translate(548.12 403.01)"><tspan x="0" y="0">MP Materials*</tspan></text>
    <rect class="st6" x="425" y="451.01" width="350" height="74" rx="6" ry="6"/>
    <text class="st11" transform="translate(574.06 495.01)"><tspan x="0" y="0">Lynas*</tspan></text>
    <path class="st17" d=""/>
    <path class="st0" d="M780.4,338.01l14,7-14,7v-14Z"/>
    <path class="st0" d="M793,345.01" marker-end="url(#ace)"/>
    <rect class="st12" x="795" y="85.01" width="350" height="60" rx="8" ry="8"/>
    <text class="st11" transform="translate(879.75 122.01)"><tspan x="0" y="0">C3 Magnets &amp; materials</tspan></text>
    <rect class="st7" x="795" y="175.01" width="350" height="74" rx="6" ry="6"/>
    <text class="st11" transform="translate(880.64 219.01)"><tspan x="0" y="0">REPM-scheme entrants</tspan></text>
    <rect class="st7" x="795" y="267.01" width="350" height="74" rx="6" ry="6"/>
    <text class="st11" transform="translate(900.64 311.01)"><tspan x="0" y="0">Neo Performance*</tspan></text>
    <rect class="st7" x="795" y="359.01" width="350" height="74" rx="6" ry="6"/>
    <text class="st11" transform="translate(899.77 403.01)"><tspan x="0" y="0">Shin-Etsu* / Japan</tspan></text>
    <rect class="st7" x="795" y="451.01" width="350" height="74" rx="6" ry="6"/>
    <text class="st11" transform="translate(903.32 495.01)"><tspan x="0" y="0">Vedanta (Ga/Ge?)</tspan></text>
    <path class="st17" d=""/>
    <path class="st0" d="M1150.4,338.01l14,7-14,7v-14Z"/>
    <path class="st0" d="M1163,345.01" marker-end="url(#ace)"/>
    <rect class="st15" x="1165" y="85.01" width="350" height="60" rx="8" ry="8"/>
    <text class="st11" transform="translate(1279.5391 122.0103)"><tspan x="0" y="0">C4 Downstream</tspan></text>
    <rect class="st5" x="1165" y="175.01" width="350" height="74" rx="6" ry="6"/>
    <text class="st11" transform="translate(1278.793 219.0103)"><tspan x="0" y="0">Tata Electronics</tspan></text>
    <rect class="st5" x="1165" y="267.01" width="350" height="74" rx="6" ry="6"/>
    <text class="st11" transform="translate(1273.7773 311.0103)"><tspan x="0" y="0">Micron / Foxconn</tspan></text>
    <rect class="st5" x="1165" y="359.01" width="350" height="74" rx="6" ry="6"/>
    <text class="st11" transform="translate(1276.4062 403.0103)"><tspan x="0" y="0">Ola / cell-makers</tspan></text>
    <rect class="st5" x="1165" y="451.01" width="350" height="74" rx="6" ry="6"/>
    <text class="st11" transform="translate(1255.6953 495.0103)"><tspan x="0" y="0">HAL / DRDO (defence)</tspan></text>
    <text class="st4" transform="translate(35 560)"><tspan x="0" y="0">* global benchmark / potential technology partner. The C2 lane is the thinnest — India&apos;s structural gap.</tspan></text>
  </g>
</svg>