<?xml version="1.0" encoding="UTF-8"?>
<svg xmlns="http://www.w3.org/2000/svg" version="1.1" viewBox="0 0 1600 940">
  <!-- Generator: Adobe Illustrator 30.4.0, SVG Export Plug-In . SVG Version: 2.1.4 Build 226)  -->
  <defs>
    <style>
      .st0 {
        stroke: #2bc5b4;
        stroke-width: 1.17px;
      }

      .st0, .st1, .st2 {
        fill-opacity: .12;
      }

      .st0, .st3 {
        fill: #2bc5b4;
      }

      .st4, .st5, .st6, .st7, .st8, .st9, .st10, .st11 {
        isolation: isolate;
      }

      .st4, .st7, .st8 {
        fill: #4a5567;
      }

      .st4, .st7, .st8, .st9 {
        font-family: ArialMT, Arial;
      }

      .st4, .st9 {
        font-size: 15px;
      }

      .st5 {
        font-size: 29px;
      }

      .st5, .st6, .st9, .st12, .st11 {
        fill: #0f1828;
      }

      .st5, .st6, .st10, .st11 {
        font-family: Arial-BoldMT, Arial;
        font-weight: 700;
      }

      .st6 {
        font-size: 18px;
      }

      .st13 {
        fill: #fbf9f4;
      }

      .st7 {
        font-size: 13px;
      }

      .st14, .st2 {
        fill: #c9a84c;
      }

      .st1 {
        stroke: #c8443b;
        stroke-width: 1.23px;
      }

      .st1, .st15 {
        fill: #c8443b;
      }

      .st8 {
        font-size: 12px;
      }

      .st10, .st16, .st17, .st18 {
        fill: #fff;
      }

      .st10, .st11 {
        font-size: 16px;
      }

      .st16 {
        stroke-width: .93px;
      }

      .st16, .st17, .st18 {
        stroke: #4a5567;
        stroke-opacity: .2;
      }

      .st17 {
        stroke-width: .94px;
      }

      .st2 {
        stroke: #c9a84c;
        stroke-width: 1.21px;
      }

      .st18 {
        stroke-width: .9px;
      }
    </style>
  </defs>
  <g id="Layer_2">
    <rect class="st13" x="-.41" y="-.4" width="1600" height="940"/>
  </g>
  <g id="Layer_1">
    <rect class="st3" x="380" y="150" width="380" height="44" rx="6" ry="6"/>
    <rect class="st14" x="780" y="150" width="380" height="44" rx="6" ry="6"/>
    <rect class="st12" x="1180" y="150" width="380" height="44" rx="6" ry="6"/>
    <rect class="st1" x="64" y="210" width="300" height="199.36" rx="5.66" ry="5.66"/>
    <rect class="st17" x="380" y="210" width="380" height="199.36" rx="5.66" ry="5.66"/>
    <circle class="st15" cx="398" cy="244" r="4"/>
    <circle class="st15" cx="398" cy="284" r="4"/>
    <circle class="st15" cx="398" cy="324" r="4"/>
    <circle class="st15" cx="398" cy="364" r="4"/>
    <rect class="st17" x="780" y="210" width="380" height="199.36" rx="5.66" ry="5.66"/>
    <circle class="st15" cx="798" cy="244" r="4"/>
    <circle class="st15" cx="798" cy="284" r="4"/>
    <rect class="st17" x="1180" y="210" width="380" height="199.36" rx="5.66" ry="5.66"/>
    <circle class="st15" cx="1198" cy="244" r="4"/>
    <circle class="st15" cx="1198" cy="284" r="4"/>
    <rect class="st2" x="64" y="450" width="300" height="195.5" rx="5.61" ry="5.61"/>
    <rect class="st16" x="380" y="450" width="380" height="195.5" rx="5.61" ry="5.61"/>
    <circle class="st14" cx="398" cy="484" r="4"/>
    <circle class="st14" cx="398" cy="524" r="4"/>
    <rect class="st16" x="780" y="450" width="380" height="195.5" rx="5.61" ry="5.61"/>
    <circle class="st14" cx="798" cy="484" r="4"/>
    <circle class="st14" cx="798" cy="524" r="4"/>
    <rect class="st16" x="1180" y="450" width="380" height="195.5" rx="5.61" ry="5.61"/>
    <circle class="st14" cx="1198" cy="484" r="4"/>
    <circle class="st14" cx="1198" cy="524" r="4"/>
    <rect class="st0" x="64" y="690" width="300" height="180.81" rx="5.39" ry="5.39"/>
    <rect class="st18" x="380" y="690" width="380" height="180.81" rx="5.39" ry="5.39"/>
    <circle class="st3" cx="398" cy="724" r="4"/>
    <circle class="st3" cx="398" cy="764" r="4"/>
    <rect class="st18" x="780" y="690" width="380" height="180.81" rx="5.39" ry="5.39"/>
    <circle class="st3" cx="798" cy="724" r="4"/>
    <circle class="st3" cx="798" cy="764" r="4"/>
    <rect class="st18" x="1180" y="690" width="380" height="180.81" rx="5.39" ry="5.39"/>
    <circle class="st3" cx="1198" cy="724" r="4"/>
  </g>
  <g id="Layer_3">
    <text class="st7" transform="translate(1418.2339 45.9999)"><tspan x="0" y="0">Techadyant Labs · 2026</tspan></text>
    <text class="st5" transform="translate(61 70)"><tspan x="0" y="0">The strategic roadmap</tspan></text>
    <text class="st4" transform="translate(61 99)"><tspan x="0" y="0">Reweighting policy from the ends to the middle, 2026–2035</tspan></text>
    <text class="st8" transform="translate(61 910)"><tspan x="0" y="0">Source: Techadyant Labs policy synthesis.</tspan></text>
    <text class="st11" transform="translate(509.65 179)"><tspan x="0" y="0">NEAR · to 2029</tspan></text>
    <text class="st11" transform="translate(899.88 179)"><tspan x="0" y="0">MEDIUM · to 2032</tspan></text>
    <text class="st10" transform="translate(1309.2109 178.9999)"><tspan x="0" y="0">LONG · to 2035</tspan></text>
    <text class="st6" transform="translate(146.94 298.52)"><tspan x="0" y="0">C2 Separation</tspan></text>
    <text class="st6" transform="translate(160.86 324.84)"><tspan x="0" y="0">&amp; refining</tspan></text>
    <text class="st9" transform="translate(409 249)"><tspan x="0" y="0">Reweight NCMM to processing</tspan></text>
    <text class="st9" transform="translate(409 289)"><tspan x="0" y="0">Designated processing zones</tspan></text>
    <text class="st9" transform="translate(409 329)"><tspan x="0" y="0">Accelerate IREL expansion</tspan></text>
    <text class="st9" transform="translate(409 369)"><tspan x="0" y="0">Strategic reserves</tspan></text>
    <text class="st9" transform="translate(809 249)"><tspan x="0" y="0">Private separation online</tspan></text>
    <text class="st9" transform="translate(809 289)"><tspan x="0" y="0">Recycling at scale</tspan></text>
    <text class="st9" transform="translate(1209 248.9999)"><tspan x="0" y="0">Indigenous separation tech</tspan></text>
    <text class="st9" transform="translate(1209 288.9999)"><tspan x="0" y="0">Some heavy-REE capacity</tspan></text>
    <text class="st6" transform="translate(157.15 536.75)"><tspan x="0" y="0">C3 Magnets</tspan></text>
    <text class="st6" transform="translate(159.15 560.75)"><tspan x="0" y="0">&amp; materials</tspan></text>
    <text class="st9" transform="translate(409 490)"><tspan x="0" y="0">Demand aggregation + floor prices</tspan></text>
    <text class="st9" transform="translate(409 530)"><tspan x="0" y="0">Redesign cell incentive</tspan></text>
    <text class="st9" transform="translate(809 490)"><tspan x="0" y="0">Magnet capacity to scale</tspan></text>
    <text class="st9" transform="translate(809 530)"><tspan x="0" y="0">e-gas &amp; Ga/Ge recovery</tspan></text>
    <text class="st9" transform="translate(1209 490)"><tspan x="0" y="0">Export position in magnets</tspan></text>
    <text class="st9" transform="translate(1209 530)"><tspan x="0" y="0">An Indian midstream champion</tspan></text>
    <text class="st6" transform="translate(168.3 787.59)"><tspan x="0" y="0">Enablers</tspan></text>
    <text class="st9" transform="translate(409 729)"><tspan x="0" y="0">Alliance: tech transfer + offtake</tspan></text>
    <text class="st9" transform="translate(409 769)"><tspan x="0" y="0">Workforce pipeline begins</tspan></text>
    <text class="st9" transform="translate(809 729)"><tspan x="0" y="0">First process-skilled cohorts</tspan></text>
    <text class="st9" transform="translate(809 769)"><tspan x="0" y="0">MSME supplier ecosystem</tspan></text>
    <text class="st9" transform="translate(1209 729)"><tspan x="0" y="0">Materials-and-process workforce at scale</tspan></text>
  </g>
</svg>