<?xml version="1.0" encoding="UTF-8"?>
<svg xmlns="http://www.w3.org/2000/svg" version="1.1" viewBox="0 0 1400 720">
  <!-- Generator: Adobe Illustrator 30.4.0, SVG Export Plug-In . SVG Version: 2.1.4 Build 226)  -->
  <defs>
    <style>
      .st0, .st1, .st2, .st3, .st4 {
        fill: #4a5567;
      }

      .st1 {
        font-size: 17px;
      }

      .st1, .st5, .st6, .st2, .st7, .st3, .st8, .st4, .st9 {
        isolation: isolate;
      }

      .st1, .st6, .st2, .st3, .st4 {
        font-family: ArialMT, Arial;
      }

      .st5 {
        font-size: 29px;
      }

      .st5, .st7, .st8, .st9 {
        font-family: Arial-BoldMT, Arial;
        font-weight: 700;
      }

      .st5, .st10, .st9 {
        fill: #0f1828;
      }

      .st11 {
        stroke: #c9a84c;
      }

      .st11, .st12 {
        fill: #c9a84c;
      }

      .st11, .st13 {
        fill-opacity: .12;
        stroke-width: 1.2px;
      }

      .st14 {
        fill: #fbf9f4;
      }

      .st6 {
        fill: #2bc5b4;
        font-size: 15px;
      }

      .st2 {
        font-size: 13px;
      }

      .st15, .st16 {
        fill: none;
      }

      .st13 {
        stroke: #c8443b;
      }

      .st13, .st17 {
        fill: #c8443b;
      }

      .st7 {
        font-size: 20px;
      }

      .st7, .st8 {
        fill: #fff;
      }

      .st3 {
        font-size: 12px;
      }

      .st8, .st4, .st9 {
        font-size: 19px;
      }

      .st16 {
        stroke: #4a5567;
        stroke-width: 1.6px;
      }
    </style>
  </defs>
  <g id="Layer_2">
    <rect class="st14" y="-1" width="1398.89" height="721"/>
  </g>
  <g id="Layer_1">
    <rect class="st10" x="556.02" y="84.94" width="300" height="90" rx="10" ry="10"/>
    <rect class="st17" x="26.02" y="244.94" width="540" height="46" rx="6" ry="6"/>
    <rect class="st13" x="26.02" y="314.94" width="540" height="62" rx="6" ry="6"/>
    <path class="st15" d=""/>
    <path class="st0" d="M287.12,382.44l-4.5,9-4.5-9h9Z"/>
    <path class="st0" d="M767.66,104.94" marker-end="url(#a16)"/>
    <rect class="st13" x="26.02" y="396.94" width="540" height="62" rx="6" ry="6"/>
    <path class="st15" d=""/>
    <path class="st0" d="M286.62,464.44l-4.5,9-4.5-9h9Z"/>
    <path class="st0" d="M702.42,14.54" marker-end="url(#a16)"/>
    <rect class="st13" x="26.02" y="478.94" width="540" height="62" rx="6" ry="6"/>
    <path class="st15" d=""/>
    <path class="st0" d="M286.62,546.44l-4.5,9-4.5-9h9Z"/>
    <path class="st0" d="M620.42,14.54" marker-end="url(#a16)"/>
    <rect class="st13" x="26.02" y="560.94" width="540" height="62" rx="6" ry="6"/>
    <rect class="st12" x="846.02" y="244.94" width="540" height="46" rx="6" ry="6"/>
    <rect class="st11" x="846.02" y="314.94" width="540" height="62" rx="6" ry="6"/>
    <path class="st15" d=""/>
    <path class="st0" d="M1120.52,382.44l-4.5,9-4.5-9h9Z"/>
    <path class="st0" d="M778.4,799.6" marker-end="url(#a16)"/>
    <rect class="st11" x="846.02" y="396.94" width="540" height="62" rx="6" ry="6"/>
    <path class="st15" d=""/>
    <path class="st0" d="M1120.52,546.44l-4.5,9-4.5-9h9Z"/>
    <path class="st0" d="M696.4,799.6" marker-end="url(#a16)"/>
    <rect class="st11" x="846.02" y="478.94" width="540" height="62" rx="6" ry="6"/>
    <path class="st15" d=""/>
    <path class="st0" d="M1120.52,464.44l-4.5,9-4.5-9h9Z"/>
    <path class="st0" d="M614.4,799.6" marker-end="url(#a16)"/>
    <rect class="st11" x="846.02" y="560.94" width="540" height="62" rx="6" ry="6"/>
    <line class="st16" x1="626.02" y1="174.94" x2="296.02" y2="244.94"/>
    <line class="st16" x1="786.02" y1="174.94" x2="1116.02" y2="244.94"/>
  </g>
  <g id="Layer_3">
    <text class="st2" transform="translate(1241.43 35.1701)"><tspan x="0" y="0">Techadyant Labs · 2026</tspan></text>
    <text class="st5" transform="translate(26.02 35.17)"><tspan x="0" y="0">The electric vehicle&apos;s double dependency</tspan></text>
    <text class="st4" transform="translate(26.02 64.17)"><tspan x="0" y="0">One product, two imported chains — magnets and battery materials</tspan></text>
    <text class="st3" transform="translate(18.25 692.94)"><tspan x="0" y="0">Source: IEEFA-JMK; WRI India; Techadyant Labs analysis.</tspan></text>
    <text class="st7" transform="translate(605.42 122.17)"><tspan x="0" y="0">ELECTRIC VEHICLE</tspan></text>
    <text class="st6" transform="translate(581.44 149.17)"><tspan x="0" y="0">India: assembles &amp; makes packs (C4)</tspan></text>
    <text class="st8" transform="translate(185.89 275.17)"><tspan x="0" y="0">TRACTION MOTOR (C3)</tspan></text>
    <text class="st9" transform="translate(216.91 343.44)"><tspan x="0" y="0">Rare-earth ore</tspan></text>
    <text class="st1" transform="translate(218.55 367.44)"><tspan x="0" y="0">C1 — distributed</tspan></text>
    <text class="st9" transform="translate(170.2 425.44)"><tspan x="0" y="0">Separation (China ~90%)</tspan></text>
    <text class="st1" transform="translate(200.6 449.44)"><tspan x="0" y="0">C2 — India near-zero</tspan></text>
    <text class="st9" transform="translate(214.82 507.44)"><tspan x="0" y="0">NdFeB magnet</tspan></text>
    <text class="st1" transform="translate(190.2 531.44)"><tspan x="0" y="0">C3 — ₹7,280 cr scheme</tspan></text>
    <text class="st9" transform="translate(255.48 589.44)"><tspan x="0" y="0">Motor</tspan></text>
    <text class="st1" transform="translate(214.77 613.44)"><tspan x="0" y="0">C4 — India builds</tspan></text>
    <text class="st8" transform="translate(1034.0134 275.1701)"><tspan x="0" y="0">BATTERY (C2–C3)</tspan></text>
    <text class="st9" transform="translate(1032.1058 343.4395)"><tspan x="0" y="0">Li, Ni, Co, graphite</tspan></text>
    <text class="st1" transform="translate(1058.8646 367.4395)"><tspan x="0" y="0">C1 — imported</tspan></text>
    <text class="st9" transform="translate(1025.7831 425.4395)"><tspan x="0" y="0">Refining (China-led)</tspan></text>
    <text class="st1" transform="translate(1034.7631 449.4395)"><tspan x="0" y="0">C2 — India near-zero</tspan></text>
    <text class="st9" transform="translate(1098.601 507.4395)"><tspan x="0" y="0">Cell</tspan></text>
    <text class="st1" transform="translate(1019.1742 531.4395)"><tspan x="0" y="0">C3 — 1.4 of 50 GWh built</tspan></text>
    <text class="st9" transform="translate(1093.8373 589.4395)"><tspan x="0" y="0">Pack</tspan></text>
    <text class="st1" transform="translate(1044.6952 613.4395)"><tspan x="0" y="0">C4 — tens of GWh</tspan></text>
  </g>
</svg>