<?xml version="1.0" encoding="UTF-8"?>
<svg xmlns="http://www.w3.org/2000/svg" version="1.1" viewBox="0 0 1500 520">
  <!-- Generator: Adobe Illustrator 30.4.0, SVG Export Plug-In . SVG Version: 2.1.4 Build 226)  -->
  <defs>
    <style>
      .st0, .st1, .st2, .st3 {
        fill: #4a5567;
      }

      .st4, .st1, .st5, .st6, .st2, .st7, .st3, .st8, .st9, .st10 {
        isolation: isolate;
      }

      .st4, .st1, .st6, .st2, .st7, .st3 {
        font-family: ArialMT, Arial;
      }

      .st4, .st7 {
        font-size: 18px;
      }

      .st4, .st8 {
        fill: #fff;
      }

      .st1, .st9 {
        font-size: 17px;
      }

      .st5 {
        font-size: 29px;
      }

      .st5, .st6, .st7, .st10 {
        fill: #0f1828;
      }

      .st5, .st8, .st9, .st10 {
        font-family: Arial-BoldMT, Arial;
        font-weight: 700;
      }

      .st11 {
        fill: #c9a84c;
      }

      .st11, .st12, .st13 {
        fill-opacity: .9;
      }

      .st14 {
        fill: #fbf9f4;
      }

      .st6 {
        font-size: 14px;
      }

      .st2 {
        font-size: 13px;
      }

      .st15, .st16 {
        fill: none;
      }

      .st16 {
        stroke: #c8443b;
        stroke-width: 2px;
      }

      .st12, .st9 {
        fill: #c8443b;
      }

      .st13 {
        fill: #2bc5b4;
      }

      .st3 {
        font-size: 12px;
      }

      .st8, .st10 {
        font-size: 19px;
      }
    </style>
  </defs>
  <g id="Layer_1">
    <rect class="st14" x=".8" width="1499.2" height="520"/>
    <rect class="st13" x="20" y="250" width="190" height="150" rx="8" ry="8"/>
    <path class="st15" d=""/>
    <path class="st0" d="M214.25,316.25l17.5,8.75-17.5,8.75v-17.5Z"/>
    <path class="st0" d="M230,325" marker-end="url(#a10)"/>
    <rect class="st11" x="232" y="250" width="190" height="150" rx="8" ry="8"/>
    <path class="st15" d=""/>
    <path class="st0" d="M426.25,316.25l17.5,8.75-17.5,8.75v-17.5Z"/>
    <path class="st0" d="M442,325" marker-end="url(#a10)"/>
    <rect class="st12" x="444" y="250" width="190" height="150" rx="8" ry="8"/>
    <path class="st15" d=""/>
    <path class="st0" d="M638.25,316.25l17.5,8.75-17.5,8.75v-17.5Z"/>
    <path class="st0" d="M654,325" marker-end="url(#a10)"/>
    <rect class="st12" x="656" y="250" width="190" height="150" rx="8" ry="8"/>
    <path class="st15" d=""/>
    <path class="st0" d="M850.25,316.25l17.5,8.75-17.5,8.75v-17.5Z"/>
    <path class="st0" d="M866,325" marker-end="url(#a10)"/>
    <rect class="st11" x="868" y="250" width="190" height="150" rx="8" ry="8"/>
    <path class="st15" d=""/>
    <path class="st0" d="M1062.25,316.25l17.5,8.75-17.5,8.75v-17.5Z"/>
    <path class="st0" d="M1078,325" marker-end="url(#a10)"/>
    <rect class="st11" x="1080" y="250" width="190" height="150" rx="8" ry="8"/>
    <path class="st15" d=""/>
    <path class="st0" d="M1274.25,316.25l17.5,8.75-17.5,8.75v-17.5Z"/>
    <path class="st0" d="M1290,325" marker-end="url(#a10)"/>
    <rect class="st13" x="1292" y="250" width="190" height="150" rx="8" ry="8"/>
    <path class="st16" d="M444,220v-14h614v14"/>
  </g>
  <g id="Layer_2">
    <text class="st2" transform="translate(1328.7576 29.2244)"><tspan x="0" y="0">Techadyant Labs · 2026</tspan></text>
    <text class="st5" transform="translate(22.43 44.28)"><tspan x="0" y="0">Why the middle is hard: the separation train</tspan></text>
    <text class="st1" transform="translate(22.43 78.28)"><tspan x="0" y="0">From beach-sand ore to magnet-grade oxide — hundreds of stages, radioactive waste, decade-long build</tspan></text>
    <text class="st3" transform="translate(9.43 638.28)"><tspan x="0" y="0">Source: Techadyant Labs analysis; IBM Minerals Yearbook; IREL.</tspan></text>
    <text class="st10" transform="translate(65.21 298.28)"><tspan x="0" y="0">Monazite</tspan></text>
    <text class="st10" transform="translate(55.42 322.28)"><tspan x="0" y="0">beach sand</tspan></text>
    <text class="st7" transform="translate(64.09 384.28)"><tspan x="0" y="0">mining / C1</tspan></text>
    <text class="st10" transform="translate(277.2 298.28)"><tspan x="0" y="0">Cracking &amp;</tspan></text>
    <text class="st10" transform="translate(286.98 322.28)"><tspan x="0" y="0">leaching</tspan></text>
    <text class="st7" transform="translate(265.08 384.28)"><tspan x="0" y="0">chemical attack</tspan></text>
    <text class="st8" transform="translate(502.43 298.28)"><tspan x="0" y="0">Thorium</tspan></text>
    <text class="st8" transform="translate(503.75 322.28)"><tspan x="0" y="0">removal</tspan></text>
    <text class="st4" transform="translate(472.07 384.28)"><tspan x="0" y="0">radioactive waste</tspan></text>
    <text class="st8" transform="translate(717.54 298.28)"><tspan x="0" y="0">Solvent</tspan></text>
    <text class="st8" transform="translate(708.2 322.28)"><tspan x="0" y="0">extraction</tspan></text>
    <text class="st4" transform="translate(672.4 384.28)"><tspan x="0" y="0">100s of stages · C2</tspan></text>
    <text class="st10" transform="translate(919.75 298.28)"><tspan x="0" y="0">Separated</tspan></text>
    <text class="st10" transform="translate(933.09 322.28)"><tspan x="0" y="0">oxides</tspan></text>
    <text class="st7" transform="translate(920.09 384.28)"><tspan x="0" y="0">Nd, Pr, Dy…</tspan></text>
    <text class="st10" transform="translate(1141.9815 298.2754)"><tspan x="0" y="0">Metal &amp;</tspan></text>
    <text class="st10" transform="translate(1152.2003 322.2754)"><tspan x="0" y="0">alloy</tspan></text>
    <text class="st7" transform="translate(1143.7481 384.2754)"><tspan x="0" y="0">reduction</tspan></text>
    <text class="st10" transform="translate(1350.4229 298.2754)"><tspan x="0" y="0">Sintered</tspan></text>
    <text class="st10" transform="translate(1353.9815 322.2754)"><tspan x="0" y="0">magnet</tspan></text>
    <text class="st7" transform="translate(1341.7549 384.2754)"><tspan x="0" y="0">NdFeB · C3</tspan></text>
    <text class="st9" transform="translate(451.46 192.28)"><tspan x="0" y="0">The binding chokepoint — chemistry, waste, economics — China ~85–92%</tspan></text>
    <text class="st6" transform="translate(15.43 468.28)"><tspan x="0" y="0">India today: ~4,000 t/yr oxide, ~400 t/yr NdPr (IREL). Plan: ~13,000 t oxide, ~900 t NdPr by early 2030s — modest against demand.</tspan></text>
  </g>
</svg>