<?xml version="1.0" encoding="UTF-8"?>
<svg xmlns="http://www.w3.org/2000/svg" version="1.1" viewBox="0 0 1400 750">
  <!-- Generator: Adobe Illustrator 30.4.0, SVG Export Plug-In . SVG Version: 2.1.4 Build 226)  -->
  <defs>
    <style>
      .st0, .st1, .st2, .st3, .st4, .st5, .st6, .st7, .st8, .st9, .st10, .st11, .st12 {
        isolation: isolate;
      }

      .st0, .st2, .st3, .st6, .st13, .st8, .st12 {
        fill: #0f1828;
      }

      .st0, .st9 {
        font-family: Arial-ItalicMT, Arial;
        font-size: 17px;
        font-style: italic;
      }

      .st1 {
        font-size: 15px;
      }

      .st1, .st4, .st7, .st10, .st11, .st12 {
        font-family: ArialMT, Arial;
      }

      .st1, .st4, .st7, .st11 {
        fill: #4a5567;
      }

      .st2 {
        font-family: CourierNewPS-BoldMT, 'Courier New';
      }

      .st2, .st3, .st5, .st6, .st8 {
        font-weight: 700;
      }

      .st2, .st8 {
        font-size: 20.14px;
      }

      .st3 {
        font-size: 29px;
      }

      .st3, .st5, .st6, .st8 {
        font-family: Arial-BoldMT, Arial;
      }

      .st14 {
        fill: #c9a84c;
      }

      .st14, .st15, .st16 {
        fill-opacity: .9;
      }

      .st17 {
        fill: #fbf9f4;
      }

      .st4 {
        font-size: 13px;
      }

      .st5, .st6, .st10, .st12 {
        font-size: 20px;
      }

      .st5, .st9, .st10 {
        fill: #fff;
      }

      .st15 {
        fill: #c8443b;
      }

      .st16 {
        fill: #2bc5b4;
      }

      .st13 {
        fill-opacity: .06;
        stroke: #0f1828;
        stroke-width: 1.14px;
      }

      .st7 {
        font-size: 12px;
      }

      .st11 {
        font-size: 15.67px;
      }
    </style>
  </defs>
  <g id="Layer_3">
    <rect class="st17" width="1400.19" height="748.09"/>
  </g>
  <g id="Layer_1">
    <rect class="st15" x="37.47" y="107.53" width="848.27" height="106" rx="7" ry="7"/>
    <rect class="st14" x="37.47" y="227.53" width="848.27" height="106" rx="7" ry="7"/>
    <rect class="st14" x="37.47" y="347.53" width="848.27" height="106" rx="7" ry="7"/>
    <rect class="st16" x="37.47" y="467.53" width="848.27" height="106" rx="7" ry="7"/>
    <rect class="st16" x="37.47" y="587.53" width="848.27" height="106" rx="7" ry="7"/>
    <rect class="st13" x="940.19" y="107.53" width="433.33" height="586" rx="8" ry="8"/>
  </g>
  <g id="Layer_2">
    <text class="st4" transform="translate(1214.0782 55.1848)"><tspan x="0" y="0">Techadyant Labs · 2026</tspan></text>
    <text class="st3" transform="translate(15.98 59.41)"><tspan x="0" y="0">The AI data-centre, layer by layer</tspan></text>
    <text class="st1" transform="translate(15.98 88.41)"><tspan x="0" y="0">~60–75 tonnes of minerals per megawatt — almost all imported by India</tspan></text>
    <text class="st7" transform="translate(20.6 727.61)"><tspan x="0" y="0">Source: IEA; WEF; Oregon Group; Avendus. Techadyant Labs analysis.</tspan></text>
    <text class="st5" transform="translate(43.98 155.41)"><tspan x="0" y="0">Accelerators (GPUs)</tspan></text>
    <text class="st10" transform="translate(43.98 185.41)"><tspan x="0" y="0">Silicon · gallium · rare metals</tspan></text>
    <text class="st9" transform="translate(625.38 166.41)"><tspan x="0" y="0">H100-class &gt;700 W each</tspan></text>
    <text class="st6" transform="translate(43.98 275.41)"><tspan x="0" y="0">Power delivery</tspan></text>
    <text class="st12" transform="translate(43.98 305.41)"><tspan x="0" y="0">Copper bus-bars · gallium converters · tantalum caps</tspan></text>
    <text class="st0" transform="translate(671.24 286.41)"><tspan x="0" y="0">copper backbone</tspan></text>
    <text class="st6" transform="translate(43.98 395.41)"><tspan x="0" y="0">Cooling</tspan></text>
    <text class="st12" transform="translate(43.98 425.41)"><tspan x="0" y="0">Copper · aluminium · specialty REE</tspan></text>
    <text class="st0" transform="translate(594.41 406.41)"><tspan x="0" y="0">binding constraint at AI density</tspan></text>
    <text class="st6" transform="translate(43.98 515.41)"><tspan x="0" y="0">Storage &amp; motors</tspan></text>
    <text class="st12" transform="translate(43.98 545.41)"><tspan x="0" y="0">Rare-earth magnets</tspan></text>
    <text class="st0" transform="translate(704.51 526.41)"><tspan x="0" y="0">fans, drives</tspan></text>
    <text class="st6" transform="translate(43.98 635.41)"><tspan x="0" y="0">Facility shell &amp; ops</tspan></text>
    <text class="st12" transform="translate(43.98 665.41)"><tspan x="0" y="0">Construction · grid tie-in</tspan></text>
    <text class="st0" transform="translate(657.3 646.41)"><tspan x="0" y="0">INDIA can build this</tspan></text>
    <text class="st8" transform="translate(948.7 164.24) scale(1.01 1)"><tspan x="0" y="0">India build-out, 2025→2030</tspan></text>
    <text class="st11" transform="translate(948.7 214.6) scale(1.01 1)"><tspan x="0" y="0">DC capacity</tspan></text>
    <text class="st2" transform="translate(948.7 243.69) scale(1.01 1)"><tspan x="0" y="0">1.6 → ~5 GW</tspan></text>
    <text class="st11" transform="translate(948.7 306.35) scale(1.01 1)"><tspan x="0" y="0">GPUs deployed</tspan></text>
    <text class="st2" transform="translate(948.7 335.45) scale(1.01 1)"><tspan x="0" y="0">650,000–700,000</tspan></text>
    <text class="st11" transform="translate(948.7 398.11) scale(1.01 1)"><tspan x="0" y="0">Investment</tspan></text>
    <text class="st2" transform="translate(948.7 427.2) scale(1.01 1)"><tspan x="0" y="0">$23–25 billion</tspan></text>
    <text class="st11" transform="translate(948.7 489.87) scale(1.01 1)"><tspan x="0" y="0">By 2030 adds to global</tspan></text>
    <text class="st2" transform="translate(948.7 518.96) scale(1.01 1)"><tspan x="0" y="0">+11% Ga · +3% REE · +2% Cu</tspan></text>
    <text class="st11" transform="translate(948.7 581.62) scale(1.01 1)"><tspan x="0" y="0">India captures</tspan></text>
    <text class="st2" transform="translate(948.7 610.72) scale(1.01 1)"><tspan x="0" y="0">facilities (C4); imports the rest</tspan></text>
  </g>
</svg>