<?xml version="1.0" encoding="UTF-8"?>
<svg xmlns="http://www.w3.org/2000/svg" version="1.1" viewBox="0 0 1400 700">
  <!-- Generator: Adobe Illustrator 30.4.0, SVG Export Plug-In . SVG Version: 2.1.4 Build 226)  -->
  <defs>
    <style>
      .st0 {
        font-size: 18px;
      }

      .st0, .st1, .st2, .st3, .st4, .st5, .st6, .st7, .st8 {
        isolation: isolate;
      }

      .st0, .st2, .st4, .st5, .st8 {
        font-family: ArialMT, Arial;
      }

      .st0, .st2, .st4, .st8 {
        fill: #4a5567;
      }

      .st1 {
        font-size: 29px;
      }

      .st1, .st5, .st6, .st7 {
        fill: #0f1828;
      }

      .st1, .st6, .st7 {
        font-weight: 700;
      }

      .st1, .st7 {
        font-family: Arial-BoldMT, Arial;
      }

      .st9 {
        fill: #fbf9f4;
      }

      .st2 {
        font-size: 13px;
      }

      .st3 {
        fill: #c9a84c;
        font-family: Arial-ItalicMT, Arial;
        font-style: italic;
      }

      .st3, .st4 {
        font-size: 12px;
      }

      .st5 {
        font-size: 16px;
      }

      .st6 {
        font-family: CourierNewPS-BoldMT, 'Courier New';
        font-size: 42px;
      }

      .st10 {
        stroke: #2bc5b4;
      }

      .st10, .st11, .st12, .st13 {
        fill: none;
        stroke-width: 57px;
      }

      .st11 {
        stroke: #c9a84c;
      }

      .st12 {
        stroke: #e8e5dd;
      }

      .st13 {
        stroke: #c8443b;
      }

      .st7 {
        font-size: 17px;
      }

      .st8 {
        font-size: 20px;
      }
    </style>
  </defs>
  <g id="Layer_2">
    <rect class="st9" width="1398.99" height="697.79"/>
  </g>
  <g id="Layer_1">
    <text class="st2" transform="translate(1156.1888 66.4702)"><tspan x="0" y="0">Techadyant Labs · 2026</tspan></text>
    <text class="st1" transform="translate(60.31 66.47)"><tspan x="0" y="0">China&apos;s grip is on processing, not mining</tspan></text>
    <text class="st0" transform="translate(60.31 95.47)"><tspan x="0" y="0">Approximate Chinese share of global supply, rare earths, 2024</tspan></text>
    <text class="st4" transform="translate(61.67 676.41)"><tspan x="0" y="0">Source: IEA; USGS-derived estimates; China Briefing. Techadyant Labs analysis.</tspan></text>
    <text class="st3" transform="translate(1240.5347 674.9271)"><tspan x="0" y="0">Indicative shares</tspan></text>
    <circle class="st12" cx="230" cy="315" r="121.5"/>
    <path class="st10" d="M230,193.5c67.1.01,121.49,54.42,121.48,121.52s-54.42,121.49-121.52,121.48c-49.84,0-94.62-30.46-112.96-76.8"/>
    <text class="st6" transform="translate(192.19 313)"><tspan x="0" y="0">69%</tspan></text>
    <text class="st8" transform="translate(169.42 345)"><tspan x="0" y="0">Mine Output</tspan></text>
    <text class="st7" transform="translate(202.62 509)"><tspan x="0" y="0">Mining</tspan></text>
    <circle class="st12" cx="700" cy="315" r="121.5"/>
    <path class="st11" d="M700,193.5c67.1,0,121.5,54.39,121.51,121.49,0,67.1-54.39,121.5-121.49,121.51s-121.5-54.39-121.51-121.49c0-38.9,18.62-75.45,50.09-98.31"/>
    <text class="st6" transform="translate(662.19 313)"><tspan x="0" y="0">90%</tspan></text>
    <text class="st8" transform="translate(642.15 345)"><tspan x="0" y="0">Processing</tspan></text>
    <text class="st7" transform="translate(614.05 509)"><tspan x="0" y="0">Separation &amp; refining</tspan></text>
    <circle class="st12" cx="1170" cy="315" r="121.5"/>
    <path class="st13" d="M1170,193.5c67.1.33,121.23,55,120.89,122.1-.33,67.1-55,121.23-122.1,120.89-67.1-.33-121.23-55-120.89-122.1.32-64.15,50.46-117,114.5-120.69"/>
    <text class="st6" transform="translate(1132.1938 313)"><tspan x="0" y="0">99%</tspan></text>
    <text class="st8" transform="translate(1101.1289 345)"><tspan x="0" y="0">Dy, Tb Refining</tspan></text>
    <text class="st7" transform="translate(1098.6465 509)"><tspan x="0" y="0">Heavy rare earths</tspan></text>
    <text class="st5" transform="translate(369.66 576.99)"><tspan x="0" y="0">The leverage rises as you move from the mine to the magnet — exactly the steps India lacks.</tspan></text>
  </g>
</svg>