<?xml version="1.0" encoding="UTF-8"?>
<svg xmlns="http://www.w3.org/2000/svg" version="1.1" viewBox="0 0 1300 800">
  <!-- Generator: Adobe Illustrator 30.4.0, SVG Export Plug-In . SVG Version: 2.1.4 Build 226)  -->
  <defs>
    <style>
      .st0 {
        stroke: #0f1828;
        stroke-width: 2px;
      }

      .st0, .st1 {
        fill: none;
      }

      .st2, .st3, .st4, .st5, .st6, .st7, .st8, .st9 {
        isolation: isolate;
      }

      .st2, .st4, .st5, .st6, .st7 {
        font-family: ArialMT, Arial;
      }

      .st2, .st4, .st6 {
        fill: #4a5567;
      }

      .st2, .st5 {
        font-size: 17px;
      }

      .st3 {
        font-size: 29px;
      }

      .st3, .st5, .st10, .st7, .st9 {
        fill: #0f1828;
      }

      .st3, .st8, .st9 {
        font-weight: 700;
      }

      .st3, .st9 {
        font-family: Arial-BoldMT, Arial;
      }

      .st11 {
        fill: #fbf9f4;
      }

      .st4 {
        font-size: 13px;
      }

      .st12, .st8 {
        fill: #c9a84c;
      }

      .st13 {
        fill: #2bc5b4;
        fill-opacity: .25;
      }

      .st6 {
        font-size: 12px;
      }

      .st7, .st8 {
        font-size: 16px;
      }

      .st8 {
        font-family: CourierNewPS-BoldMT, 'Courier New';
      }

      .st9 {
        font-size: 15px;
      }
    </style>
  </defs>
  <g id="Layer_2">
    <rect class="st11" x="-2.35" y="-.42" width="1302.35" height="800.42"/>
  </g>
  <g id="Layer_1">
    <rect class="st13" x="713.61" y="292.55" width="240" height="336" rx="4" ry="4"/>
    <text class="st4" transform="translate(1130.4128 58.5545)"><tspan x="0" y="0">Techadyant Labs · 2026</tspan></text>
    <text class="st3" transform="translate(17.61 58.55)"><tspan x="0" y="0">India in the next industrial age</tspan></text>
    <text class="st2" transform="translate(17.61 87.55)"><tspan x="0" y="0">The trajectory the alliance makes possible — from assembler to credible node</tspan></text>
    <text class="st6" transform="translate(29.09 766.08)"><tspan x="0" y="0">Source: Techadyant Labs synthesis.</tspan></text>
    <rect class="st13" x="93.61" y="376.55" width="240" height="252" rx="4" ry="4"/>
    <rect class="st10" x="93.61" y="460.55" width="240" height="168" rx="4" ry="4"/>
    <path class="st1" d=""/>
    <path class="st12" d="M1138.81,374.55l24,12-24,12v-24Z"/>
    <path class="st12" d="M1158.01,386.55" marker-end="url(#au)"/>
    <text class="st8" transform="translate(199.21 360.55)"><tspan x="0" y="0">2→3</tspan></text>
    <text class="st9" transform="translate(165.27 656.55)"><tspan x="0" y="0">C1 Extraction</tspan></text>
    <rect class="st13" x="403.61" y="376.55" width="240" height="252" rx="4" ry="4"/>
    <rect class="st10" x="403.61" y="544.55" width="240" height="84" rx="4" ry="4"/>
    <path class="st1" d=""/>
    <path class="st12" d="M980.61,502.55l24,12-24,12v-24Z"/>
    <path class="st12" d="M848.01,386.55" marker-end="url(#au)"/>
    <text class="st8" transform="translate(509.21 360.55)"><tspan x="0" y="0">1→3</tspan></text>
    <text class="st9" transform="translate(473.18 656.55)"><tspan x="0" y="0">C2 Separation</tspan></text>
    <rect class="st10" x="713.61" y="460.55" width="240" height="168" rx="4" ry="4"/>
    <path class="st1" d=""/>
    <path class="st12" d="M666.61,502.55l24,12-24,12v-24Z"/>
    <path class="st12" d="M538.01,302.55" marker-end="url(#au)"/>
    <text class="st8" transform="translate(819.21 276.55)"><tspan x="0" y="0">2→4</tspan></text>
    <text class="st9" transform="translate(752.33 656.55)"><tspan x="0" y="0">C3 Magnets / materials</tspan></text>
    <rect class="st13" x="1023.61" y="208.55" width="240" height="420" rx="4" ry="4"/>
    <rect class="st10" x="1023.61" y="292.55" width="240" height="336" rx="4" ry="4"/>
    <path class="st1" d=""/>
    <path class="st12" d="M352.61,502.55l24,12-24,12v-24Z"/>
    <path class="st12" d="M237.44,232.78" marker-end="url(#au)"/>
    <text class="st8" transform="translate(1129.2121 192.5542)"><tspan x="0" y="0">4→5</tspan></text>
    <text class="st9" transform="translate(1086.9323 656.5542)"><tspan x="0" y="0">C4 Downstream</tspan></text>
    <line class="st0" x1="93.61" y1="628.55" x2="1263.61" y2="628.55"/>
    <rect class="st10" x="103.04" y="152.78" width="22" height="22"/>
    <text class="st7" transform="translate(133.04 169.78)"><tspan x="0" y="0">India today (score /5)</tspan></text>
    <rect class="st13" x="363.04" y="152.78" width="22" height="22"/>
    <text class="st7" transform="translate(393.04 169.78)"><tspan x="0" y="0">Achievable by 2035 (accelerated path)</tspan></text>
    <text class="st5" transform="translate(93.61 718.55)"><tspan x="0" y="0">The gains that matter are in the middle (C2–C3). The alliance is the instrument; the midstream is the prize.</tspan></text>
  </g>
</svg>