<?xml version="1.0" encoding="UTF-8"?>
<svg xmlns="http://www.w3.org/2000/svg" version="1.1" viewBox="0 0 1400 860">
  <!-- Generator: Adobe Illustrator 30.4.0, SVG Export Plug-In . SVG Version: 2.1.4 Build 226)  -->
  <defs>
    <style>
      .st0 {
        font-size: 15px;
      }

      .st0, .st1, .st2, .st3, .st4, .st5, .st6, .st7, .st8, .st9 {
        isolation: isolate;
      }

      .st0, .st3, .st5 {
        fill: #4a5567;
        font-family: ArialMT, Arial;
      }

      .st1 {
        font-family: Arial-ItalicMT, Arial;
        font-size: 14px;
        font-style: italic;
      }

      .st1, .st2, .st4, .st8, .st9 {
        fill: #0f1828;
      }

      .st2 {
        font-size: 29px;
      }

      .st2, .st4, .st6, .st7, .st8, .st9 {
        font-weight: 700;
      }

      .st2, .st7, .st8, .st9 {
        font-family: Arial-BoldMT, Arial;
      }

      .st10 {
        fill: #fbf9f4;
      }

      .st11, .st12, .st13 {
        fill: #e8e5dd;
      }

      .st11, .st13 {
        fill-opacity: .43;
      }

      .st3, .st7, .st9 {
        font-size: 13px;
      }

      .st4, .st6 {
        font-family: CourierNewPS-BoldMT, 'Courier New';
        font-size: 19px;
      }

      .st14, .st15, .st13 {
        stroke: #2bc5b4;
        stroke-width: 2.5px;
      }

      .st14, .st16, .st17 {
        fill: #c8443b;
      }

      .st14, .st17 {
        fill-opacity: .82;
      }

      .st15, .st18, .st19 {
        fill: #c9a84c;
      }

      .st15, .st19 {
        fill-opacity: .56;
      }

      .st12 {
        fill-opacity: .3;
      }

      .st5 {
        font-size: 12px;
      }

      .st6 {
        fill: #fff;
      }

      .st7 {
        fill: #2bc5b4;
      }

      .st16 {
        fill-opacity: .95;
      }

      .st8 {
        font-size: 13.5px;
      }

      .st18 {
        fill-opacity: .69;
      }
    </style>
  </defs>
  <g id="Layer_2">
    <rect class="st10" y="-.4" width="1400" height="860"/>
  </g>
  <g id="Layer_1">
    <text class="st3" transform="translate(1248.3785 46.4539)"><tspan x="0" y="0">Techadyant Labs · 2026</tspan></text>
    <text class="st2" transform="translate(24.75 68.69)"><tspan x="0" y="0">India against its peers, by chokepoint</tspan></text>
    <text class="st0" transform="translate(24.75 97.69)"><tspan x="0" y="0">Capability score 0–5 across the value chain (indicative)</tspan></text>
    <text class="st5" transform="translate(24.75 819.55)"><tspan x="0" y="0">Source: IEA; USGS; Techadyant Labs analysis.</tspan></text>
    <text class="st9" transform="translate(196.59 156.45)"><tspan x="0" y="0">China</tspan></text>
    <text class="st9" transform="translate(368.09 156.45)"><tspan x="0" y="0">Taiwan</tspan></text>
    <text class="st9" transform="translate(538.27 156.45)"><tspan x="0" y="0">S. Korea</tspan></text>
    <text class="st9" transform="translate(720.86 156.45)"><tspan x="0" y="0">Japan</tspan></text>
    <text class="st7" transform="translate(899.48 156.45)"><tspan x="0" y="0">India</tspan></text>
    <text class="st9" transform="translate(1064.4761 156.4539)"><tspan x="0" y="0">Vietnam</tspan></text>
    <text class="st9" transform="translate(1234.306 156.4539)"><tspan x="0" y="0">Indonesia</tspan></text>
    <text class="st8" transform="translate(24.12 230.45)"><tspan x="0" y="0">C1 Extraction</tspan></text>
    <rect class="st17" x="131.14" y="174.45" width="167" height="102" rx="4" ry="4"/>
    <text class="st6" transform="translate(208.94 232.45)"><tspan x="0" y="0">4</tspan></text>
    <rect class="st12" x="306.14" y="174.45" width="167" height="102" rx="4" ry="4"/>
    <text class="st4" transform="translate(383.94 232.45)"><tspan x="0" y="0">0</tspan></text>
    <rect class="st12" x="481.14" y="174.45" width="167" height="102" rx="4" ry="4"/>
    <text class="st4" transform="translate(558.94 232.45)"><tspan x="0" y="0">0</tspan></text>
    <rect class="st11" x="656.14" y="174.45" width="167" height="102" rx="4" ry="4"/>
    <text class="st4" transform="translate(733.94 232.45)"><tspan x="0" y="0">1</tspan></text>
    <rect class="st15" x="831.14" y="174.45" width="167" height="102" rx="4" ry="4"/>
    <text class="st4" transform="translate(908.94 232.45)"><tspan x="0" y="0">2</tspan></text>
    <rect class="st11" x="1006.14" y="174.45" width="167" height="102" rx="4" ry="4"/>
    <text class="st4" transform="translate(1083.9437 232.4539)"><tspan x="0" y="0">1</tspan></text>
    <rect class="st18" x="1181.14" y="174.45" width="167" height="102" rx="4" ry="4"/>
    <text class="st4" transform="translate(1258.9437 232.4539)"><tspan x="0" y="0">3</tspan></text>
    <text class="st8" transform="translate(20.37 340.45)"><tspan x="0" y="0">C2 Separation</tspan></text>
    <rect class="st16" x="131.14" y="284.45" width="167" height="102" rx="4" ry="4"/>
    <text class="st6" transform="translate(208.94 342.45)"><tspan x="0" y="0">5</tspan></text>
    <rect class="st19" x="306.14" y="284.45" width="167" height="102" rx="4" ry="4"/>
    <text class="st4" transform="translate(383.94 342.45)"><tspan x="0" y="0">2</tspan></text>
    <rect class="st19" x="481.14" y="284.45" width="167" height="102" rx="4" ry="4"/>
    <text class="st4" transform="translate(558.94 342.45)"><tspan x="0" y="0">2</tspan></text>
    <rect class="st17" x="656.14" y="284.45" width="167" height="102" rx="4" ry="4"/>
    <text class="st6" transform="translate(733.94 342.45)"><tspan x="0" y="0">4</tspan></text>
    <rect class="st13" x="831.14" y="284.45" width="167" height="102" rx="4" ry="4"/>
    <text class="st4" transform="translate(908.94 342.45)"><tspan x="0" y="0">1</tspan></text>
    <rect class="st11" x="1006.14" y="284.45" width="167" height="102" rx="4" ry="4"/>
    <text class="st4" transform="translate(1083.9437 342.4539)"><tspan x="0" y="0">1</tspan></text>
    <rect class="st19" x="1181.14" y="284.45" width="167" height="102" rx="4" ry="4"/>
    <text class="st4" transform="translate(1258.9437 342.4539)"><tspan x="0" y="0">2</tspan></text>
    <text class="st8" transform="translate(3.87 450.45)"><tspan x="0" y="0">C3 Magnets/mat.</tspan></text>
    <rect class="st16" x="131.14" y="394.45" width="167" height="102" rx="4" ry="4"/>
    <text class="st6" transform="translate(208.94 452.45)"><tspan x="0" y="0">5</tspan></text>
    <rect class="st19" x="306.14" y="394.45" width="167" height="102" rx="4" ry="4"/>
    <text class="st4" transform="translate(383.94 452.45)"><tspan x="0" y="0">2</tspan></text>
    <rect class="st18" x="481.14" y="394.45" width="167" height="102" rx="4" ry="4"/>
    <text class="st4" transform="translate(558.94 452.45)"><tspan x="0" y="0">3</tspan></text>
    <rect class="st16" x="656.14" y="394.45" width="167" height="102" rx="4" ry="4"/>
    <text class="st6" transform="translate(733.94 452.45)"><tspan x="0" y="0">5</tspan></text>
    <rect class="st15" x="831.14" y="394.45" width="167" height="102" rx="4" ry="4"/>
    <text class="st4" transform="translate(908.94 452.45)"><tspan x="0" y="0">2</tspan></text>
    <rect class="st11" x="1006.14" y="394.45" width="167" height="102" rx="4" ry="4"/>
    <text class="st4" transform="translate(1083.9437 452.4539)"><tspan x="0" y="0">1</tspan></text>
    <rect class="st11" x="1181.14" y="394.45" width="167" height="102" rx="4" ry="4"/>
    <text class="st4" transform="translate(1258.9437 452.4539)"><tspan x="0" y="0">1</tspan></text>
    <text class="st8" transform="translate(26.86 560.45)"><tspan x="0" y="0">C4 Assembly</tspan></text>
    <rect class="st16" x="131.14" y="504.45" width="167" height="102" rx="4" ry="4"/>
    <text class="st6" transform="translate(208.94 562.45)"><tspan x="0" y="0">5</tspan></text>
    <rect class="st16" x="306.14" y="504.45" width="167" height="102" rx="4" ry="4"/>
    <text class="st6" transform="translate(383.94 562.45)"><tspan x="0" y="0">5</tspan></text>
    <rect class="st16" x="481.14" y="504.45" width="167" height="102" rx="4" ry="4"/>
    <text class="st6" transform="translate(558.94 562.45)"><tspan x="0" y="0">5</tspan></text>
    <rect class="st17" x="656.14" y="504.45" width="167" height="102" rx="4" ry="4"/>
    <text class="st6" transform="translate(733.94 562.45)"><tspan x="0" y="0">4</tspan></text>
    <rect class="st14" x="831.14" y="504.45" width="167" height="102" rx="4" ry="4"/>
    <text class="st6" transform="translate(908.94 562.45)"><tspan x="0" y="0">4</tspan></text>
    <rect class="st17" x="1006.14" y="504.45" width="167" height="102" rx="4" ry="4"/>
    <text class="st6" transform="translate(1083.9437 562.4539)"><tspan x="0" y="0">4</tspan></text>
    <rect class="st18" x="1181.14" y="504.45" width="167" height="102" rx="4" ry="4"/>
    <text class="st4" transform="translate(1258.9437 562.4539)"><tspan x="0" y="0">3</tspan></text>
    <text class="st8" transform="translate(33.9 670.45)"><tspan x="0" y="0">Chip design</tspan></text>
    <rect class="st18" x="131.14" y="614.45" width="167" height="102" rx="4" ry="4"/>
    <text class="st4" transform="translate(208.94 672.45)"><tspan x="0" y="0">3</tspan></text>
    <rect class="st16" x="306.14" y="614.45" width="167" height="102" rx="4" ry="4"/>
    <text class="st6" transform="translate(383.94 672.45)"><tspan x="0" y="0">5</tspan></text>
    <rect class="st17" x="481.14" y="614.45" width="167" height="102" rx="4" ry="4"/>
    <text class="st6" transform="translate(558.94 672.45)"><tspan x="0" y="0">4</tspan></text>
    <rect class="st17" x="656.14" y="614.45" width="167" height="102" rx="4" ry="4"/>
    <text class="st6" transform="translate(733.94 672.45)"><tspan x="0" y="0">4</tspan></text>
    <rect class="st14" x="831.14" y="614.45" width="167" height="102" rx="4" ry="4"/>
    <text class="st6" transform="translate(908.94 672.45)"><tspan x="0" y="0">4</tspan></text>
    <rect class="st19" x="1006.14" y="614.45" width="167" height="102" rx="4" ry="4"/>
    <text class="st4" transform="translate(1083.9437 672.4539)"><tspan x="0" y="0">2</tspan></text>
    <rect class="st11" x="1181.14" y="614.45" width="167" height="102" rx="4" ry="4"/>
    <text class="st4" transform="translate(1258.9437 672.4539)"><tspan x="0" y="0">1</tspan></text>
    <text class="st1" transform="translate(127.14 760.45)"><tspan x="0" y="0">India (outlined) leads peers on assembly and design but trails every advanced peer on C2 separation — the benchmark gap to close.</tspan></text>
  </g>
</svg>