<?xml version="1.0" encoding="UTF-8"?>
<svg xmlns="http://www.w3.org/2000/svg" version="1.1" viewBox="0 0 1480 700">
  <!-- Generator: Adobe Illustrator 30.4.0, SVG Export Plug-In . SVG Version: 2.1.4 Build 226)  -->
  <defs>
    <style>
      .st0, .st1, .st2, .st3, .st4, .st5, .st6, .st7, .st8, .st9, .st10, .st11 {
        isolation: isolate;
      }

      .st0, .st2, .st12, .st9 {
        fill: #0f1828;
      }

      .st0, .st2, .st9, .st10 {
        font-family: Arial-BoldMT, Arial;
        font-weight: 700;
      }

      .st0, .st11 {
        font-size: 21px;
      }

      .st1 {
        font-size: 17px;
      }

      .st1, .st3, .st4, .st5, .st6, .st8, .st11 {
        font-family: ArialMT, Arial;
      }

      .st1, .st3, .st4, .st6, .st7, .st11 {
        fill: #4a5567;
      }

      .st13 {
        fill: #c8443b;
      }

      .st13, .st14 {
        stroke: #c8443b;
      }

      .st13, .st15, .st16 {
        fill-opacity: .12;
        stroke-width: 1.3px;
      }

      .st2 {
        font-size: 29px;
      }

      .st17 {
        fill: #fbf9f4;
      }

      .st3 {
        font-size: 13px;
      }

      .st14, .st18, .st19 {
        fill: none;
        stroke-width: 1.6px;
      }

      .st4 {
        font-size: 12px;
      }

      .st18, .st15 {
        stroke: #c9a84c;
      }

      .st5, .st8 {
        font-size: 20px;
      }

      .st5, .st16 {
        fill: #2bc5b4;
      }

      .st6, .st9 {
        font-size: 19px;
      }

      .st7 {
        font-family: Arial-ItalicMT, Arial;
        font-size: 14px;
        font-style: italic;
      }

      .st8 {
        opacity: .8;
      }

      .st8, .st10 {
        fill: #fff;
      }

      .st10 {
        font-size: 22px;
      }

      .st19, .st16 {
        stroke: #2bc5b4;
      }

      .st15 {
        fill: #c9a84c;
      }
    </style>
  </defs>
  <g id="Layer_1">
    <rect class="st17" x="4.05" y="2.61" width="1475.9" height="700"/>
    <rect class="st12" x="590" y="270" width="300" height="140" rx="10" ry="10"/>
    <line class="st14" x1="330" y1="153" x2="590" y2="340"/>
    <rect class="st13" x="10" y="120" width="320" height="66" rx="6" ry="6"/>
    <line class="st14" x1="330" y1="353" x2="590" y2="340"/>
    <rect class="st13" x="10" y="320" width="320" height="66" rx="6" ry="6"/>
    <line class="st18" x1="330" y1="553" x2="590" y2="340"/>
    <rect class="st15" x="10" y="520" width="320" height="66" rx="6" ry="6"/>
    <line class="st14" x1="1150" y1="153" x2="890" y2="340"/>
    <rect class="st13" x="1150" y="120" width="320" height="66" rx="6" ry="6"/>
    <line class="st18" x1="1150" y1="353" x2="890" y2="340"/>
    <rect class="st15" x="1150" y="320" width="320" height="66" rx="6" ry="6"/>
    <line class="st19" x1="1150" y1="553" x2="890" y2="340"/>
    <rect class="st16" x="1150" y="520" width="320" height="66" rx="6" ry="6"/>
  </g>
  <g id="Layer_2">
    <text class="st3" transform="translate(1329.0002 23.7136)"><tspan x="0" y="0">Techadyant Labs · 2026</tspan></text>
    <text class="st2" transform="translate(11.55 38.76)"><tspan x="0" y="0">India&apos;s drone paradox</tspan></text>
    <text class="st1" transform="translate(11.55 67.76)"><tspan x="0" y="0">Build the platform (C4) — import the magnets that make it fly (C3)</tspan></text>
    <text class="st4" transform="translate(10 685.84)"><tspan x="0" y="0">Source: IDRW (DRDO roadmap); BharatShakti; Techadyant Labs analysis.</tspan></text>
    <text class="st10" transform="translate(613.62 315)"><tspan x="0" y="0">AUTONOMOUS DRONE</tspan></text>
    <text class="st5" transform="translate(624.6 356)"><tspan x="0" y="0">India: assembles (C4)</tspan></text>
    <text class="st8" transform="translate(626.63 382)"><tspan x="0" y="0">the dependency is inside</tspan></text>
    <text class="st9" transform="translate(23.66 147)"><tspan x="0" y="0">Propulsion motors</tspan></text>
    <text class="st6" transform="translate(23.66 169)"><tspan x="0" y="0">NdFeB magnets · imported</tspan></text>
    <text class="st9" transform="translate(23.66 347)"><tspan x="0" y="0">Actuators / gimbals</tspan></text>
    <text class="st6" transform="translate(23.66 369)"><tspan x="0" y="0">RE magnets · imported</tspan></text>
    <text class="st9" transform="translate(23.66 547)"><tspan x="0" y="0">Battery</tspan></text>
    <text class="st6" transform="translate(23.66 569)"><tspan x="0" y="0">Li-ion cells · imported</tspan></text>
    <text class="st0" transform="translate(1163.6567 146.9999)"><tspan x="0" y="0">Sensors / EO-IR</tspan></text>
    <text class="st11" transform="translate(1163.6567 168.9999)"><tspan x="0" y="0">Ge optics · imported</tspan></text>
    <text class="st0" transform="translate(1163.6567 347)"><tspan x="0" y="0">Comms / RF</tspan></text>
    <text class="st11" transform="translate(1163.6567 369)"><tspan x="0" y="0">GaN devices · imported</tspan></text>
    <text class="st0" transform="translate(1163.6567 547)"><tspan x="0" y="0">Airframe / software</tspan></text>
    <text class="st11" transform="translate(1163.6567 569)"><tspan x="0" y="0">domestic (C4)</tspan></text>
    <text class="st7" transform="translate(382.02 646.79)"><tspan x="0" y="0">DRDO advanced-magnet roadmap (2015–2035) targets the dependency at the materials layer — a long-horizon fix.</tspan></text>
  </g>
</svg>