<?xml version="1.0" encoding="UTF-8"?>
<svg id="Layer_1" xmlns="http://www.w3.org/2000/svg" version="1.1" xmlns:xlink="http://www.w3.org/1999/xlink" viewBox="0 0 711.36 462.06">
  <!-- Generator: Adobe Illustrator 30.4.0, SVG Export Plug-In . SVG Version: 2.1.4 Build 226)  -->
  <defs>
    <style>
      .st0 {
        clip-path: url(#clippath-6);
      }

      .st1 {
        clip-path: url(#clippath-7);
      }

      .st2 {
        clip-path: url(#clippath-4);
      }

      .st3 {
        font-size: 10px;
      }

      .st3, .st4, .st5, .st6 {
        fill: #fbf9f4;
      }

      .st3, .st7, .st8, .st9, .st10, .st11, .st12, .st5 {
        isolation: isolate;
      }

      .st3, .st8, .st9, .st10, .st11, .st5 {
        font-family: ArialMT, Arial;
      }

      .st13 {
        clip-path: url(#clippath-9);
      }

      .st14 {
        clip-path: url(#clippath-10);
      }

      .st15 {
        fill: #fff;
      }

      .st7, .st8, .st11 {
        font-size: 8px;
      }

      .st7, .st11, .st12 {
        fill: #4a5567;
      }

      .st7, .st12 {
        font-family: Arial-ItalicMT, Arial;
        font-style: italic;
      }

      .st16 {
        clip-path: url(#clippath-11);
      }

      .st8 {
        fill: #c0c5cc;
      }

      .st17 {
        fill: none;
      }

      .st18 {
        clip-path: url(#clippath-1);
      }

      .st9 {
        font-size: 9.5px;
      }

      .st9, .st10, .st19 {
        fill: #0f1828;
      }

      .st20 {
        clip-path: url(#clippath-5);
      }

      .st21 {
        clip-path: url(#clippath-8);
      }

      .st10 {
        font-size: 15px;
      }

      .st22 {
        clip-path: url(#clippath-3);
      }

      .st23 {
        fill: #e8e5dd;
      }

      .st23, .st6 {
        stroke: #c0c5cc;
        stroke-width: .3px;
      }

      .st24 {
        clip-path: url(#clippath-12);
      }

      .st25 {
        clip-path: url(#clippath-2);
      }

      .st12 {
        font-size: 10.5px;
      }

      .st26 {
        clip-path: url(#clippath);
      }

      .st5 {
        font-size: 8.5px;
      }
    </style>
    <clipPath id="clippath">
      <rect class="st17" x="58.68" y="50.72" width="613.8" height="360.36"/>
    </clipPath>
    <clipPath id="clippath-1">
      <rect class="st17" x="58.68" y="50.72" width="613.8" height="360.36"/>
    </clipPath>
    <clipPath id="clippath-2">
      <rect class="st17" x="58.68" y="50.72" width="613.8" height="360.36"/>
    </clipPath>
    <clipPath id="clippath-3">
      <rect class="st17" x="58.68" y="50.72" width="613.8" height="360.36"/>
    </clipPath>
    <clipPath id="clippath-4">
      <rect class="st17" x="58.68" y="50.72" width="613.8" height="360.36"/>
    </clipPath>
    <clipPath id="clippath-5">
      <rect class="st17" x="58.68" y="50.72" width="613.8" height="360.36"/>
    </clipPath>
    <clipPath id="clippath-6">
      <rect class="st17" x="58.68" y="50.72" width="613.8" height="360.36"/>
    </clipPath>
    <clipPath id="clippath-7">
      <rect class="st17" x="58.68" y="50.72" width="613.8" height="360.36"/>
    </clipPath>
    <clipPath id="clippath-8">
      <rect class="st17" x="58.68" y="50.72" width="613.8" height="360.36"/>
    </clipPath>
    <clipPath id="clippath-9">
      <rect class="st17" x="58.68" y="50.72" width="613.8" height="360.36"/>
    </clipPath>
    <clipPath id="clippath-10">
      <rect class="st17" x="58.68" y="50.72" width="613.8" height="360.36"/>
    </clipPath>
    <clipPath id="clippath-11">
      <rect class="st17" x="58.68" y="50.72" width="613.8" height="360.36"/>
    </clipPath>
    <clipPath id="clippath-12">
      <rect class="st17" x="58.68" y="50.72" width="613.8" height="360.36"/>
    </clipPath>
  </defs>
  <path class="st4" d="M0,462.06h711.36V0H0v462.06Z"/>
  <rect class="st15" x="58.68" y="50.72" width="613.8" height="360.36"/>
  <g class="st26">
    <path class="st19" d="M69.94,101.09h95.73v-38.75h-95.73v38.75h0Z"/>
  </g>
  <g class="st18">
    <path class="st19" d="M171.3,101.09h76.02v-38.75h-76.02v38.75h0Z"/>
  </g>
  <g class="st25">
    <path class="st19" d="M250.14,101.09h76.02v-38.75h-76.02v38.75h0Z"/>
  </g>
  <g class="st22">
    <path class="st19" d="M328.98,101.09h76.02s0,0,0,0v-38.75s0,0,0,0h-76.02v38.75h0Z"/>
  </g>
  <g class="st2">
    <path class="st19" d="M407.81,101.09h76.02v-38.75h-76.02v38.75h0Z"/>
  </g>
  <g class="st20">
    <path class="st19" d="M486.65,101.09h76.02v-38.75h-76.02v38.75h0Z"/>
  </g>
  <g class="st0">
    <path class="st19" d="M565.49,101.09h76.02v-38.75h-76.02v38.75h0Z"/>
  </g>
  <g class="st1">
    <path class="st6" d="M69.94,139.84h565.93v-38.75H69.94v38.75Z"/>
  </g>
  <g class="st21">
    <path class="st23" d="M69.94,178.59h565.93v-38.75H69.94v38.75Z"/>
  </g>
  <g class="st13">
    <path class="st6" d="M69.94,217.34h565.93v-38.75H69.94v38.75Z"/>
  </g>
  <g class="st14">
    <path class="st23" d="M69.94,256.09h565.93v-38.75H69.94v38.75Z"/>
  </g>
  <g class="st16">
    <path class="st6" d="M69.94,294.83h565.93v-38.75H69.94v38.75Z"/>
  </g>
  <g class="st24">
    <path class="st23" d="M69.94,333.58h565.93v-38.75H69.94v38.75Z"/>
  </g>
  <path class="st6" d="M69.94,372.33h565.93v-38.75H69.94v38.75Z"/>
  <text class="st3" transform="translate(102.66 84.48)"><tspan x="0" y="0">State</tspan></text>
  <text class="st5" transform="translate(184.38 79.3)"><tspan x="0" y="0">Electronics</tspan></text>
  <text class="st5" transform="translate(179.11 88.82)"><tspan x="0" y="0">exports FY25</tspan></text>
  <text class="st5" transform="translate(261.3 79.27)"><tspan x="0" y="0">Operational</tspan></text>
  <text class="st5" transform="translate(261.36 88.79)"><tspan x="0" y="0">DC capacity</tspan></text>
  <text class="st5" transform="translate(334.45 79.27)"><tspan x="0" y="0">Headline semi</tspan></text>
  <text class="st5" transform="translate(335.91 88.79)"><tspan x="0" y="0">project capex</tspan></text>
  <text class="st5" transform="translate(418.53 79.27)"><tspan x="0" y="0">Hyperscaler</tspan></text>
  <text class="st5" transform="translate(430.78 88.86)"><tspan x="0" y="0">anchor</tspan></text>
  <text class="st5" transform="translate(511.66 79.3)"><tspan x="0" y="0">Water</tspan></text>
  <text class="st5" transform="translate(506.69 88.82)"><tspan x="0" y="0">position</tspan></text>
  <text class="st5" transform="translate(590.29 79.3)"><tspan x="0" y="0">Talent</tspan></text>
  <text class="st5" transform="translate(590.88 88.82)"><tspan x="0" y="0">depth</tspan></text>
  <text class="st9" transform="translate(88.15 123.09)"><tspan x="0" y="0">Tamil Nadu</tspan></text>
  <text class="st11" transform="translate(182.42 122.67)"><tspan x="0" y="0">$14.65 B (#1)</tspan></text>
  <text class="st11" transform="translate(269.89 122.67)"><tspan x="0" y="0">~202 MW</tspan></text>
  <text class="st11" transform="translate(364.4 122.67)"><tspan x="0" y="0">—</tspan></text>
  <text class="st11" transform="translate(415.97 122.67)"><tspan x="0" y="0">Foxconn iPhone</tspan></text>
  <text class="st11" transform="translate(508.78 122.67)"><tspan x="0" y="0">Stressed</tspan></text>
  <text class="st11" transform="translate(563.48 122.67)"><tspan x="0" y="0">High (Chennai+CBE)</tspan></text>
  <text class="st9" transform="translate(90.15 161.84)"><tspan x="0" y="0">Karnataka</tspan></text>
  <text class="st11" transform="translate(187.51 161.42)"><tspan x="0" y="0">$7.8 B (#2)</tspan></text>
  <text class="st11" transform="translate(263.61 161.42)"><tspan x="0" y="0">107–182 MW</tspan></text>
  <text class="st11" transform="translate(364.4 161.42)"><tspan x="0" y="0">—</tspan></text>
  <text class="st11" transform="translate(415.36 161.42)"><tspan x="0" y="0">Major GCC base</tspan></text>
  <text class="st11" transform="translate(496.72 161.42)"><tspan x="0" y="0">Over-exploited</tspan></text>
  <text class="st11" transform="translate(561.07 161.42)"><tspan x="0" y="0">Very high (Bengaluru)</tspan></text>
  <text class="st9" transform="translate(80.35 200.58)"><tspan x="0" y="0">Uttar Pradesh</tspan></text>
  <text class="st11" transform="translate(184.97 200.17)"><tspan x="0" y="0">$5.26 B (#3)</tspan></text>
  <text class="st11" transform="translate(270.53 200.17)"><tspan x="0" y="0">Moderate</tspan></text>
  <text class="st11" transform="translate(326.42 200.17)"><tspan x="0" y="0">HCL-Foxconn Rs 3.7k</tspan></text>
  <text class="st11" transform="translate(413.93 200.17)"><tspan x="0" y="0">EMC 2.0 + Jewar</tspan></text>
  <text class="st11" transform="translate(512.08 200.17)"><tspan x="0" y="0">Critical</tspan></text>
  <text class="st11" transform="translate(585.88 200.17)"><tspan x="0" y="0">Moderate</tspan></text>
  <text class="st9" transform="translate(97.88 239.3)"><tspan x="0" y="0">Gujarat</tspan></text>
  <text class="st11" transform="translate(206.72 238.92)"><tspan x="0" y="0">—</tspan></text>
  <text class="st11" transform="translate(275.01 238.92)"><tspan x="0" y="0">Modest</tspan></text>
  <text class="st11" transform="translate(335.2 238.92)"><tspan x="0" y="0">Rs ~1.25 lakh cr</tspan></text>
  <text class="st11" transform="translate(407.15 238.92)"><tspan x="0" y="0">Tata-PSMC + Micron</tspan></text>
  <text class="st11" transform="translate(501.22 238.92)"><tspan x="0" y="0">Semi-critical</tspan></text>
  <text class="st11" transform="translate(585.88 238.92)"><tspan x="0" y="0">Moderate</tspan></text>
  <text class="st9" transform="translate(90.57 278.04)"><tspan x="0" y="0">Telangana</tspan></text>
  <text class="st11" transform="translate(206.72 277.67)"><tspan x="0" y="0">—</tspan></text>
  <text class="st11" transform="translate(256.14 277.67)"><tspan x="0" y="0">152–859 MW [D]</tspan></text>
  <text class="st11" transform="translate(364.4 277.67)"><tspan x="0" y="0">—</tspan></text>
  <text class="st11" transform="translate(404.94 277.67)"><tspan x="0" y="0">AWS + MSFT magnet</tspan></text>
  <text class="st11" transform="translate(496.72 277.67)"><tspan x="0" y="0">Over-exploited</tspan></text>
  <text class="st11" transform="translate(595.71 277.67)"><tspan x="0" y="0">High</tspan></text>
  <text class="st9" transform="translate(74.91 316.83)"><tspan x="0" y="0">Andhra Pradesh</tspan></text>
  <text class="st11" transform="translate(206.72 316.42)"><tspan x="0" y="0">—</tspan></text>
  <text class="st11" transform="translate(256.85 316.42)"><tspan x="0" y="0">~200 MW (pipe)</tspan></text>
  <text class="st11" transform="translate(346.93 316.42)"><tspan x="0" y="0">ASIP (part)</tspan></text>
  <text class="st11" transform="translate(411.36 316.42)"><tspan x="0" y="0">Google-Adani 15B</tspan></text>
  <text class="st11" transform="translate(504.12 316.42)"><tspan x="0" y="0">Favourable</tspan></text>
  <text class="st11" transform="translate(585.88 316.42)"><tspan x="0" y="0">Moderate</tspan></text>
  <text class="st9" transform="translate(83.71 355.58)"><tspan x="0" y="0">Maharashtra</tspan></text>
  <text class="st11" transform="translate(206.72 355.16)"><tspan x="0" y="0">—</tspan></text>
  <text class="st11" transform="translate(259.06 355.16)"><tspan x="0" y="0">~289 MW (NM)</tspan></text>
  <text class="st11" transform="translate(364.4 355.16)"><tspan x="0" y="0">—</tspan></text>
  <text class="st11" transform="translate(420.97 355.16)"><tspan x="0" y="0">AWS Mumbai</tspan></text>
  <text class="st11" transform="translate(508.78 355.16)"><tspan x="0" y="0">Stressed</tspan></text>
  <text class="st11" transform="translate(562.11 355.16)"><tspan x="0" y="0">High (Pune+Mumbai)</tspan></text>
  <text class="st10" transform="translate(7.2 24.68)"><tspan x="0" y="0">State-by-state snapshot — endowments and binding constraints</tspan></text>
  <text class="st12" transform="translate(7.2 41)"><tspan x="0" y="0">FY25 electronics exports and operational/announced AI-infrastructure positioning</tspan></text>
  <text class="st8" transform="translate(564.51 13.28)"><tspan x="0" y="0">Figure 15 · Techadyant Labs · 2026</tspan></text>
  <text class="st7" transform="translate(7.2 453.2)"><tspan x="0" y="0">Source: IBEF/ESC FY25; CBRE India DC Market Update; PIB ISM filings; CGWB; Techadyant Labs.</tspan></text>
</svg>