<?xml version="1.0" encoding="UTF-8"?>
<svg id="Layer_1" xmlns="http://www.w3.org/2000/svg" version="1.1" xmlns:xlink="http://www.w3.org/1999/xlink" viewBox="0 0 729.54 394.38">
  <!-- Generator: Adobe Illustrator 30.4.0, SVG Export Plug-In . SVG Version: 2.1.4 Build 226)  -->
  <defs>
    <style>
      .st0 {
        fill: #e4d3a6;
      }

      .st0, .st1, .st2, .st3, .st4, .st5 {
        stroke: #fbf9f4;
        stroke-width: 2px;
      }

      .st6 {
        stroke-dasharray: 1 1.65;
      }

      .st6, .st7, .st8, .st9, .st10 {
        fill: none;
      }

      .st6, .st11, .st12, .st13, .st9, .st10 {
        stroke-linejoin: round;
      }

      .st6, .st10 {
        stroke: #c0c5cc;
      }

      .st1, .st11 {
        fill: #c9a84c;
      }

      .st7, .st12, .st9 {
        stroke: #0f1828;
      }

      .st7, .st13, .st10 {
        stroke-width: .8px;
      }

      .st7, .st9 {
        stroke-linecap: square;
      }

      .st14 {
        clip-path: url(#clippath-6);
      }

      .st15 {
        clip-path: url(#clippath-7);
      }

      .st11 {
        fill-opacity: .6;
        stroke: #c9a84c;
        stroke-opacity: .6;
      }

      .st16 {
        clip-path: url(#clippath-15);
      }

      .st17 {
        clip-path: url(#clippath-4);
      }

      .st18 {
        clip-path: url(#clippath-9);
      }

      .st19 {
        clip-path: url(#clippath-10);
      }

      .st20 {
        font-size: 11px;
      }

      .st20, .st21, .st22, .st23, .st24, .st25, .st26, .st27, .st28 {
        isolation: isolate;
      }

      .st20, .st12, .st23, .st24, .st25, .st26 {
        fill: #0f1828;
      }

      .st20, .st22, .st23, .st24, .st25, .st26, .st28 {
        font-family: ArialMT, Arial;
      }

      .st29 {
        fill: #fbf9f4;
      }

      .st30 {
        fill: #fff;
      }

      .st21, .st13, .st4, .st27, .st28 {
        fill: #4a5567;
      }

      .st21, .st22 {
        font-size: 8px;
      }

      .st21, .st27 {
        font-family: Arial-ItalicMT, Arial;
        font-style: italic;
      }

      .st13 {
        stroke: #4a5567;
      }

      .st2 {
        fill: #2bc5b4;
      }

      .st31 {
        clip-path: url(#clippath-11);
      }

      .st22, .st3 {
        fill: #c0c5cc;
      }

      .st23 {
        font-size: 9px;
      }

      .st32 {
        clip-path: url(#clippath-1);
      }

      .st24 {
        font-size: 9.5px;
      }

      .st9 {
        stroke-width: 2.5px;
      }

      .st33 {
        clip-path: url(#clippath-5);
      }

      .st34 {
        clip-path: url(#clippath-8);
      }

      .st25 {
        font-size: 15px;
      }

      .st35 {
        clip-path: url(#clippath-3);
      }

      .st36 {
        clip-path: url(#clippath-12);
      }

      .st37 {
        clip-path: url(#clippath-14);
      }

      .st26, .st28 {
        font-size: 10px;
      }

      .st10 {
        stroke-dasharray: 2.96 1.28;
        stroke-opacity: .4;
      }

      .st38 {
        clip-path: url(#clippath-2);
      }

      .st39 {
        clip-path: url(#clippath-13);
      }

      .st5 {
        fill: #95e2d9;
      }

      .st27 {
        font-size: 10.5px;
      }

      .st40 {
        clip-path: url(#clippath);
      }
    </style>
    <clipPath id="clippath">
      <rect class="st8" x="58.68" y="68.72" width="325.5" height="285.12"/>
    </clipPath>
    <clipPath id="clippath-1">
      <rect class="st8" x="58.68" y="68.72" width="325.5" height="285.12"/>
    </clipPath>
    <clipPath id="clippath-2">
      <rect class="st8" x="58.68" y="68.72" width="325.5" height="285.12"/>
    </clipPath>
    <clipPath id="clippath-3">
      <rect class="st8" x="58.68" y="68.72" width="325.5" height="285.12"/>
    </clipPath>
    <clipPath id="clippath-4">
      <rect class="st8" x="58.68" y="68.72" width="325.5" height="285.12"/>
    </clipPath>
    <clipPath id="clippath-5">
      <rect class="st8" x="58.68" y="68.72" width="325.5" height="285.12"/>
    </clipPath>
    <clipPath id="clippath-6">
      <rect class="st8" x="58.68" y="68.72" width="325.5" height="285.12"/>
    </clipPath>
    <clipPath id="clippath-7">
      <rect class="st8" x="58.68" y="68.72" width="325.5" height="285.12"/>
    </clipPath>
    <clipPath id="clippath-8">
      <rect class="st8" x="58.68" y="68.72" width="325.5" height="285.12"/>
    </clipPath>
    <clipPath id="clippath-9">
      <rect class="st8" x="58.68" y="68.72" width="325.5" height="285.12"/>
    </clipPath>
    <clipPath id="clippath-10">
      <rect class="st8" x="58.68" y="68.72" width="325.5" height="285.12"/>
    </clipPath>
    <clipPath id="clippath-11">
      <rect class="st8" x="58.68" y="68.72" width="325.5" height="285.12"/>
    </clipPath>
    <clipPath id="clippath-12">
      <rect class="st8" x="58.68" y="68.72" width="325.5" height="285.12"/>
    </clipPath>
    <clipPath id="clippath-13">
      <rect class="st8" x="58.68" y="68.72" width="325.5" height="285.12"/>
    </clipPath>
    <clipPath id="clippath-14">
      <rect class="st8" x="58.68" y="68.72" width="325.5" height="285.12"/>
    </clipPath>
    <clipPath id="clippath-15">
      <rect class="st8" x="58.68" y="68.72" width="325.5" height="285.12"/>
    </clipPath>
  </defs>
  <path class="st29" d="M0,394.38h729.54V0H0v394.38Z"/>
  <path class="st30" d="M58.68,353.84h325.5V68.72H58.68v285.12Z"/>
  <g class="st40">
    <path id="m42785e7ecf" class="st11" d="M73.48,205.58v148.26h295.91V108.64h0l-59.18,17.11-59.18,20.53-59.18,13.69-59.18,22.81-59.18,22.81Z"/>
  </g>
  <g class="st32">
    <path class="st10" d="M73.48,353.84V68.72"/>
  </g>
  <path id="mc6de2e1916" class="st13" d="M73.48,353.84v3.5"/>
  <text class="st28" transform="translate(60.75 368.44)"><tspan x="0" y="0">2020</tspan></text>
  <g class="st38">
    <path class="st10" d="M132.66,353.84V68.72"/>
  </g>
  <path id="mc6de2e19161" data-name="mc6de2e1916" class="st13" d="M132.66,353.84v3.5"/>
  <text class="st28" transform="translate(119.93 368.44)"><tspan x="0" y="0">2022</tspan></text>
  <g class="st35">
    <path class="st10" d="M191.84,353.84V68.72"/>
  </g>
  <path id="mc6de2e19162" data-name="mc6de2e1916" class="st13" d="M191.84,353.84v3.5"/>
  <text class="st28" transform="translate(179.11 368.44)"><tspan x="0" y="0">2024</tspan></text>
  <g class="st17">
    <path class="st10" d="M251.02,353.84V68.72"/>
  </g>
  <path id="mc6de2e19163" data-name="mc6de2e1916" class="st13" d="M251.02,353.84v3.5"/>
  <text class="st28" transform="translate(238.3 368.44)"><tspan x="0" y="0">2026</tspan></text>
  <g class="st33">
    <path class="st10" d="M310.2,353.84V68.72"/>
  </g>
  <path id="mc6de2e19164" data-name="mc6de2e1916" class="st13" d="M310.2,353.84v3.5"/>
  <text class="st28" transform="translate(297.48 368.44)"><tspan x="0" y="0">2028</tspan></text>
  <g class="st14">
    <path class="st10" d="M369.38,353.84V68.72"/>
  </g>
  <path id="mc6de2e19165" data-name="mc6de2e1916" class="st13" d="M369.38,353.84v3.5"/>
  <text class="st28" transform="translate(356.66 368.44)"><tspan x="0" y="0">2030</tspan></text>
  <text class="st20" transform="translate(209.78 382.88)"><tspan x="0" y="0">Year</tspan></text>
  <g class="st15">
    <path class="st10" d="M58.68,353.84h325.5"/>
  </g>
  <path id="m8554a6dcc6" class="st13" d="M58.68,353.84h-3.5"/>
  <text class="st28" transform="translate(45.32 357.64)"><tspan x="0" y="0">0</tspan></text>
  <g class="st34">
    <path class="st10" d="M58.68,296.81h325.5"/>
  </g>
  <path id="m8554a6dcc61" data-name="m8554a6dcc6" class="st13" d="M58.68,296.81h-3.5"/>
  <text class="st28" transform="translate(32.59 300.61)"><tspan x="0" y="0">500</tspan></text>
  <g class="st18">
    <path class="st10" d="M58.68,239.79h325.5"/>
  </g>
  <path id="m8554a6dcc62" data-name="m8554a6dcc6" class="st13" d="M58.68,239.79h-3.5"/>
  <text class="st28" transform="translate(26.23 243.59)"><tspan x="0" y="0">1000</tspan></text>
  <g class="st19">
    <path class="st10" d="M58.68,182.77h325.5"/>
  </g>
  <path id="m8554a6dcc63" data-name="m8554a6dcc6" class="st13" d="M58.68,182.77h-3.5"/>
  <text class="st28" transform="translate(26.23 186.57)"><tspan x="0" y="0">1500</tspan></text>
  <g class="st31">
    <path class="st10" d="M58.68,125.74h325.5"/>
  </g>
  <path id="m8554a6dcc64" data-name="m8554a6dcc6" class="st13" d="M58.68,125.74h-3.5"/>
  <text class="st28" transform="translate(26.23 129.54)"><tspan x="0" y="0">2000</tspan></text>
  <g class="st36">
    <path class="st10" d="M58.68,68.72h325.5"/>
  </g>
  <path id="m8554a6dcc65" data-name="m8554a6dcc6" class="st13" d="M58.68,68.72h-3.5"/>
  <text class="st28" transform="translate(26.23 72.52)"><tspan x="0" y="0">2500</tspan></text>
  <text class="st20" transform="translate(19.94 269.65) rotate(-90)"><tspan x="0" y="0">GCCs in India (count)</tspan></text>
  <g class="st39">
    <path class="st9" d="M73.48,205.58l59.18-22.81,59.18-22.81,59.18-13.69,59.18-20.53,59.18-17.11"/>
  </g>
  <g class="st37">
    <path id="m20bd6888ed" class="st12" d="M73.48,208.58c.8,0,1.56-.32,2.12-.88.56-.56.88-1.33.88-2.12s-.32-1.56-.88-2.12c-.56-.56-1.33-.88-2.12-.88s-1.56.32-2.12.88c-.56.56-.88,1.33-.88,2.12s.32,1.56.88,2.12c.56.56,1.33.88,2.12.88Z"/>
    <path id="m20bd6888ed1" data-name="m20bd6888ed" class="st12" d="M132.66,185.77c.8,0,1.56-.32,2.12-.88.56-.56.88-1.33.88-2.12s-.32-1.56-.88-2.12c-.56-.56-1.33-.88-2.12-.88s-1.56.32-2.12.88c-.56.56-.88,1.33-.88,2.12s.32,1.56.88,2.12c.56.56,1.33.88,2.12.88Z"/>
    <path id="m20bd6888ed2" data-name="m20bd6888ed" class="st12" d="M191.84,162.96c.8,0,1.56-.32,2.12-.88.56-.56.88-1.33.88-2.12s-.32-1.56-.88-2.12c-.56-.56-1.33-.88-2.12-.88s-1.56.32-2.12.88c-.56.56-.88,1.33-.88,2.12s.32,1.56.88,2.12c.56.56,1.33.88,2.12.88Z"/>
    <path id="m20bd6888ed3" data-name="m20bd6888ed" class="st12" d="M251.02,149.27c.8,0,1.56-.32,2.12-.88.56-.56.88-1.33.88-2.12s-.32-1.56-.88-2.12c-.56-.56-1.33-.88-2.12-.88s-1.56.32-2.12.88c-.56.56-.88,1.33-.88,2.12s.32,1.56.88,2.12c.56.56,1.33.88,2.12.88Z"/>
    <path id="m20bd6888ed4" data-name="m20bd6888ed" class="st12" d="M310.2,128.74c.8,0,1.56-.32,2.12-.88.56-.56.88-1.33.88-2.12s-.32-1.56-.88-2.12c-.56-.56-1.33-.88-2.12-.88s-1.56.32-2.12.88c-.56.56-.88,1.33-.88,2.12s.32,1.56.88,2.12c.56.56,1.33.88,2.12.88Z"/>
    <path id="m20bd6888ed5" data-name="m20bd6888ed" class="st12" d="M369.38,111.64c.8,0,1.56-.32,2.12-.88.56-.56.88-1.33.88-2.12s-.32-1.56-.88-2.12c-.56-.56-1.33-.88-2.12-.88s-1.56.32-2.12.88c-.56.56-.88,1.33-.88,2.12s.32,1.56.88,2.12c.56.56,1.33.88,2.12.88Z"/>
  </g>
  <g class="st16">
    <path class="st6" d="M251.02,353.84V68.72"/>
  </g>
  <path class="st7" d="M58.68,353.84V68.72"/>
  <path class="st7" d="M58.68,353.84h325.5"/>
  <text class="st24" transform="translate(58.45 198.73)"><tspan x="0" y="0">1,300</tspan></text>
  <text class="st24" transform="translate(117.63 175.92)"><tspan x="0" y="0">1,500</tspan></text>
  <text class="st24" transform="translate(176.81 153.11)"><tspan x="0" y="0">1,700</tspan></text>
  <text class="st24" transform="translate(236 139.43)"><tspan x="0" y="0">1,820</tspan></text>
  <text class="st24" transform="translate(295.18 118.9)"><tspan x="0" y="0">2,000</tspan></text>
  <text class="st24" transform="translate(354.36 101.79)"><tspan x="0" y="0">2,150</tspan></text>
  <text class="st26" transform="translate(41.55 62.72)"><tspan x="0" y="0">GCC count trajectory (NASSCOM working figures + 2030 target)</tspan></text>
  <path class="st1" d="M648.84,262.19c8.85-16.09,13.35-34.21,13.06-52.57-.29-18.36-5.36-36.33-14.7-52.14-9.35-15.81-22.65-28.9-38.6-38-15.95-9.1-34-13.88-52.36-13.88v105.68l92.61,50.91Z"/>
  <path class="st2" d="M505.32,303.89c24.55,13.5,53.49,16.69,80.4,8.88,26.91-7.82,49.63-26.02,63.13-50.57l-92.61-50.91-50.91,92.61Z"/>
  <path class="st0" d="M450.76,217.92c1.12,17.76,6.71,34.96,16.24,49.99s22.72,27.41,38.32,35.98l50.91-92.61-105.47,6.64Z"/>
  <path class="st5" d="M479.19,138.94c-9.88,10.52-17.5,22.96-22.4,36.55-4.89,13.58-6.95,28.03-6.04,42.43l105.47-6.64-77.04-72.34Z"/>
  <path class="st4" d="M523.57,110.77c-8.43,2.74-16.48,6.53-23.97,11.28-7.49,4.75-14.34,10.42-20.41,16.89l77.04,72.34-32.66-100.51Z"/>
  <path class="st3" d="M556.23,105.6c-5.54,0-11.06.44-16.53,1.3-5.47.87-10.86,2.16-16.13,3.87l32.66,100.51v-105.68Z"/>
  <text class="st23" transform="translate(669.94 141.48)"><tspan x="0" y="0">Karnataka</tspan></text>
  <text class="st23" transform="translate(669.94 151.56)"><tspan x="0" y="0">33%</tspan></text>
  <text class="st23" transform="translate(593.09 335.58)"><tspan x="0" y="0">Maharashtra</tspan></text>
  <text class="st23" transform="translate(593.09 345.66)"><tspan x="0" y="0">25%</tspan></text>
  <text class="st23" transform="translate(388.5 279.51)"><tspan x="0" y="0">Tamil Nadu</tspan></text>
  <text class="st23" transform="translate(423.15 289.59)"><tspan x="0" y="0">16%</tspan></text>
  <text class="st23" transform="translate(380.32 163.94)"><tspan x="0" y="0">Telangana</tspan></text>
  <text class="st23" transform="translate(410.4 174.09)"><tspan x="0" y="0">13%</tspan></text>
  <text class="st23" transform="translate(447.19 97.19)"><tspan x="0" y="0">NCR/UP</tspan></text>
  <text class="st23" transform="translate(470.17 107.26)"><tspan x="0" y="0">8%</tspan></text>
  <text class="st23" transform="translate(506.66 78.25)"><tspan x="0" y="0">Other</tspan></text>
  <text class="st23" transform="translate(520.28 88.33)"><tspan x="0" y="0">5%</tspan></text>
  <text class="st26" transform="translate(442.49 62.72)"><tspan x="0" y="0">Approximate state share of GCCs (2025)</tspan></text>
  <text class="st25" transform="translate(7.2 24.68)"><tspan x="0" y="0">India&apos;s GCC explosion: trajectory and state-level concentration</tspan></text>
  <text class="st27" transform="translate(7.2 39.12)"><tspan x="0" y="0">~1,700 GCCs today; 2,100+ NASSCOM working target by 2030; Karnataka + Maharashtra ≈ 58% of base</tspan></text>
  <text class="st22" transform="translate(564.51 13.28)"><tspan x="0" y="0">Figure 18 · Techadyant Labs · 2026</tspan></text>
  <text class="st21" transform="translate(7.2 385.52)"><tspan x="0" y="0">Source: NASSCOM India GCC Landscape Report; EY GCC Pulse 2025; state IT department releases.</tspan></text>
</svg>