<?xml version="1.0" encoding="utf-8" standalone="no"?>
<!DOCTYPE svg PUBLIC "-//W3C//DTD SVG 1.1//EN"
  "http://www.w3.org/Graphics/SVG/1.1/DTD/svg11.dtd">
<svg xmlns:xlink="http://www.w3.org/1999/xlink" width="711.36pt" height="529.7425pt" viewBox="0 0 711.36 529.7425" xmlns="http://www.w3.org/2000/svg" version="1.1">
 <metadata>
  <rdf:RDF xmlns:dc="http://purl.org/dc/elements/1.1/" xmlns:cc="http://creativecommons.org/ns#" xmlns:rdf="http://www.w3.org/1999/02/22-rdf-syntax-ns#">
   <cc:Work>
    <dc:type rdf:resource="http://purl.org/dc/dcmitype/StillImage"/>
    <dc:date>2026-05-28T09:33:23.074826</dc:date>
    <dc:format>image/svg+xml</dc:format>
    <dc:creator>
     <cc:Agent>
      <dc:title>Matplotlib v3.10.8, https://matplotlib.org/</dc:title>
     </cc:Agent>
    </dc:creator>
   </cc:Work>
  </rdf:RDF>
 </metadata>
 <defs>
  <style type="text/css">*{stroke-linejoin: round; stroke-linecap: butt}</style>
 </defs>
 <g id="figure_1">
  <g id="patch_1">
   <path d="M 0 529.7425 
L 711.36 529.7425 
L 711.36 0 
L 0 0 
z
" style="fill: #fbf9f4"/>
  </g>
  <g id="axes_1">
   <g id="patch_2">
    <path d="M 493.56 272.47875 
C 493.56 245.532133 488.252104 218.847538 477.94008 193.95211 
C 467.628056 169.056682 452.512447 146.434574 433.458311 127.380439 
C 414.404176 108.326303 391.782068 93.210694 366.88664 82.89867 
C 341.991212 72.586646 315.306617 67.27875 288.36 67.27875 
C 261.413383 67.27875 234.728788 72.586646 209.83336 82.89867 
C 184.937932 93.210694 162.315824 108.326303 143.261689 127.380439 
C 124.207553 146.434574 109.091944 169.056682 98.77992 193.95211 
C 88.467896 218.847538 83.16 245.532133 83.16 272.47875 
C 83.16 299.425367 88.467896 326.109962 98.77992 351.00539 
C 109.091944 375.900818 124.207553 398.522926 143.261689 417.577061 
C 162.315824 436.631197 184.937932 451.746806 209.83336 462.05883 
C 234.728788 472.370854 261.413383 477.67875 288.36 477.67875 
C 315.306617 477.67875 341.991212 472.370854 366.88664 462.05883 
C 391.782068 451.746806 414.404176 436.631197 433.458311 417.577061 
C 452.512447 398.522926 467.628056 375.900818 477.94008 351.00539 
C 488.252104 326.109962 493.56 299.425367 493.56 272.47875 
M 288.36 272.47875 
C 288.36 272.47875 288.36 272.47875 288.36 272.47875 
C 288.36 272.47875 288.36 272.47875 288.36 272.47875 
C 288.36 272.47875 288.36 272.47875 288.36 272.47875 
C 288.36 272.47875 288.36 272.47875 288.36 272.47875 
C 288.36 272.47875 288.36 272.47875 288.36 272.47875 
C 288.36 272.47875 288.36 272.47875 288.36 272.47875 
C 288.36 272.47875 288.36 272.47875 288.36 272.47875 
C 288.36 272.47875 288.36 272.47875 288.36 272.47875 
C 288.36 272.47875 288.36 272.47875 288.36 272.47875 
C 288.36 272.47875 288.36 272.47875 288.36 272.47875 
C 288.36 272.47875 288.36 272.47875 288.36 272.47875 
C 288.36 272.47875 288.36 272.47875 288.36 272.47875 
C 288.36 272.47875 288.36 272.47875 288.36 272.47875 
C 288.36 272.47875 288.36 272.47875 288.36 272.47875 
C 288.36 272.47875 288.36 272.47875 288.36 272.47875 
C 288.36 272.47875 288.36 272.47875 288.36 272.47875 
z
" style="fill: #fbf9f4"/>
   </g>
   <g id="patch_3">
    <path d="M 432 272.47875 
L 329.4 201.395385 
L 216.54 148.082861 
L 206.28 272.47875 
L 185.76 450.187163 
L 329.4 343.562115 
z
" clip-path="url(#p2828e8a79c)" style="fill: #0f1828; opacity: 0.1; stroke: #0f1828; stroke-linejoin: miter"/>
   </g>
   <g id="patch_4">
    <path d="M 370.44 272.47875 
L 390.96 94.770337 
L 226.8 165.853702 
L 185.76 272.47875 
L 226.8 379.103798 
L 380.7 432.416322 
z
" clip-path="url(#p2828e8a79c)" style="fill: #c9a84c; opacity: 0.04; stroke: #c9a84c; stroke-linejoin: miter"/>
   </g>
   <g id="patch_5">
    <path d="M 432 272.47875 
L 390.96 94.770337 
L 226.8 165.853702 
L 103.68 272.47875 
L 216.54 396.874639 
L 380.7 432.416322 
z
" clip-path="url(#p2828e8a79c)" style="fill: #2bc5b4; opacity: 0.04; stroke: #2bc5b4; stroke-linejoin: miter"/>
   </g>
   <g id="patch_6">
    <path d="M 411.48 272.47875 
L 349.92 165.853702 
L 237.06 183.624544 
L 103.68 272.47875 
L 237.06 361.332956 
L 390.96 450.187163 
z
" clip-path="url(#p2828e8a79c)" style="fill: #4a5567; opacity: 0.04; stroke: #4a5567; stroke-linejoin: miter"/>
   </g>
   <g id="patch_7">
    <path d="M 411.48 272.47875 
L 360.18 148.082861 
L 216.54 148.082861 
L 165.24 272.47875 
L 237.06 361.332956 
L 360.18 396.874639 
z
" clip-path="url(#p2828e8a79c)" style="fill: #e4d3a6; opacity: 0.04; stroke: #e4d3a6; stroke-linejoin: miter"/>
   </g>
   <g id="patch_8">
    <path d="M 432 272.47875 
L 329.4 201.395385 
L 196.02 112.541178 
L 83.16 272.47875 
L 247.32 343.562115 
L 380.7 432.416322 
z
" clip-path="url(#p2828e8a79c)" style="fill: #c8443b; opacity: 0.04; stroke: #c8443b; stroke-linejoin: miter"/>
   </g>
   <g id="matplotlib.axis_1">
    <g id="xtick_1">
     <g id="line2d_1">
      <path d="M 288.36 272.47875 
L 493.56 272.47875 
" clip-path="url(#p2828e8a79c)" style="fill: none; stroke-dasharray: 2.96,1.28; stroke-dashoffset: 0; stroke: #c0c5cc; stroke-opacity: 0.5; stroke-width: 0.8"/>
     </g>
     <g id="text_1">
      <text x="479.33" y="269.78" font-family="Arial, Helvetica, sans-serif" font-size="9.5" fill="#4a5567">Data-centre</text>
      <text x="487.51" y="280.42" font-family="Arial, Helvetica, sans-serif" font-size="9.5" fill="#4a5567">capacity</text>
     </g>
    </g>
    <g id="xtick_2">
     <g id="line2d_2">
      <path d="M 288.36 272.47875 
L 390.96 94.770337 
" clip-path="url(#p2828e8a79c)" style="fill: none; stroke-dasharray: 2.96,1.28; stroke-dashoffset: 0; stroke: #c0c5cc; stroke-opacity: 0.5; stroke-width: 0.8"/>
     </g>
     <g id="text_2">
      <text x="362.19" y="79.95" font-family="Arial, Helvetica, sans-serif" font-size="9.5" fill="#4a5567">Semiconductor</text>
      <text x="372.35" y="90.59" font-family="Arial, Helvetica, sans-serif" font-size="9.5" fill="#4a5567">ecosystem</text>
     </g>
    </g>
    <g id="xtick_3">
     <g id="line2d_3">
      <path d="M 288.36 272.47875 
L 185.76 94.770337 
" clip-path="url(#p2828e8a79c)" style="fill: none; stroke-dasharray: 2.96,1.28; stroke-dashoffset: 0; stroke: #c0c5cc; stroke-opacity: 0.5; stroke-width: 0.8"/>
     </g>
     <g id="text_3">
      <text x="156.92" y="79.95" font-family="Arial, Helvetica, sans-serif" font-size="9.5" fill="#4a5567">Energy &amp;</text>
      <text x="150.31" y="90.59" font-family="Arial, Helvetica, sans-serif" font-size="9.5" fill="#4a5567">cooling cost</text>
     </g>
    </g>
    <g id="xtick_4">
     <g id="line2d_4">
      <path d="M 288.36 272.47875 
L 83.16 272.47875 
" clip-path="url(#p2828e8a79c)" style="fill: none; stroke-dasharray: 2.96,1.28; stroke-dashoffset: 0; stroke: #c0c5cc; stroke-opacity: 0.5; stroke-width: 0.8"/>
     </g>
     <g id="text_4">
      <text x="39.23" y="269.78" font-family="Arial, Helvetica, sans-serif" font-size="9.5" fill="#4a5567">Sovereign AI</text>
      <text x="38.78" y="280.42" font-family="Arial, Helvetica, sans-serif" font-size="9.5" fill="#4a5567">commitment</text>
     </g>
    </g>
    <g id="xtick_5">
     <g id="line2d_5">
      <path d="M 288.36 272.47875 
L 185.76 450.187163 
" clip-path="url(#p2828e8a79c)" style="fill: none; stroke-dasharray: 2.96,1.28; stroke-dashoffset: 0; stroke: #c0c5cc; stroke-opacity: 0.5; stroke-width: 0.8"/>
     </g>
     <g id="text_5">
      <text x="154.77" y="459.61" font-family="Arial, Helvetica, sans-serif" font-size="9.5" fill="#4a5567">Workforce</text>
      <text x="145.97" y="470.25" font-family="Arial, Helvetica, sans-serif" font-size="9.5" fill="#4a5567">scale &amp; depth</text>
     </g>
    </g>
    <g id="xtick_6">
     <g id="line2d_6">
      <path d="M 288.36 272.47875 
L 390.96 450.187163 
" clip-path="url(#p2828e8a79c)" style="fill: none; stroke-dasharray: 2.96,1.28; stroke-dashoffset: 0; stroke: #c0c5cc; stroke-opacity: 0.5; stroke-width: 0.8"/>
     </g>
     <g id="text_6">
      <text x="374.35" y="459.61" font-family="Arial, Helvetica, sans-serif" font-size="9.5" fill="#4a5567">Per-capita</text>
      <text x="377.37" y="470.25" font-family="Arial, Helvetica, sans-serif" font-size="9.5" fill="#4a5567">intensity</text>
     </g>
    </g>
   </g>
   <g id="matplotlib.axis_2">
    <g id="ytick_1">
     <g id="line2d_7">
      <path d="M 329.4 272.47875 
C 329.4 267.089427 328.338421 261.752508 326.276016 256.773422 
C 324.213611 251.794336 321.190489 247.269915 317.379662 243.459088 
C 313.568835 239.648261 309.044414 236.625139 304.065328 234.562734 
C 299.086242 232.500329 293.749323 231.43875 288.36 231.43875 
C 282.970677 231.43875 277.633758 232.500329 272.654672 234.562734 
C 267.675586 236.625139 263.151165 239.648261 259.340338 243.459088 
C 255.529511 247.269915 252.506389 251.794336 250.443984 256.773422 
C 248.381579 261.752508 247.32 267.089427 247.32 272.47875 
C 247.32 277.868073 248.381579 283.204992 250.443984 288.184078 
C 252.506389 293.163164 255.529511 297.687585 259.340338 301.498412 
C 263.151165 305.309239 267.675586 308.332361 272.654672 310.394766 
C 277.633758 312.457171 282.970677 313.51875 288.36 313.51875 
C 293.749323 313.51875 299.086242 312.457171 304.065328 310.394766 
C 309.044414 308.332361 313.568835 305.309239 317.379662 301.498412 
C 321.190489 297.687585 324.213611 293.163164 326.276016 288.184078 
C 328.338421 283.204992 329.4 277.868073 329.4 272.47875 
" clip-path="url(#p2828e8a79c)" style="fill: none; stroke-dasharray: 2.96,1.28; stroke-dashoffset: 0; stroke: #c0c5cc; stroke-opacity: 0.5; stroke-width: 0.8"/>
     </g>
     <g id="text_7">
      <text x="326.28" y="255.11" font-family="Arial, Helvetica, sans-serif" font-size="8.0" fill="#4a5567">2</text>
     </g>
    </g>
    <g id="ytick_2">
     <g id="line2d_8">
      <path d="M 370.44 272.47875 
C 370.44 261.700103 368.316842 251.026265 364.192032 241.068094 
C 360.067222 231.109923 354.020979 222.06108 346.399325 214.439425 
C 338.77767 206.817771 329.728827 200.771528 319.770656 196.646718 
C 309.812485 192.521908 299.138647 190.39875 288.36 190.39875 
C 277.581353 190.39875 266.907515 192.521908 256.949344 196.646718 
C 246.991173 200.771528 237.94233 206.817771 230.320675 214.439425 
C 222.699021 222.06108 216.652778 231.109923 212.527968 241.068094 
C 208.403158 251.026265 206.28 261.700103 206.28 272.47875 
C 206.28 283.257397 208.403158 293.931235 212.527968 303.889406 
C 216.652778 313.847577 222.699021 322.89642 230.320675 330.518075 
C 237.94233 338.139729 246.991173 344.185972 256.949344 348.310782 
C 266.907515 352.435592 277.581353 354.55875 288.36 354.55875 
C 299.138647 354.55875 309.812485 352.435592 319.770656 348.310782 
C 329.728827 344.185972 338.77767 338.139729 346.399325 330.518075 
C 354.020979 322.89642 360.067222 313.847577 364.192032 303.889406 
C 368.316842 293.931235 370.44 283.257397 370.44 272.47875 
" clip-path="url(#p2828e8a79c)" style="fill: none; stroke-dasharray: 2.96,1.28; stroke-dashoffset: 0; stroke: #c0c5cc; stroke-opacity: 0.5; stroke-width: 0.8"/>
     </g>
     <g id="text_8">
      <text x="364.19" y="239.40" font-family="Arial, Helvetica, sans-serif" font-size="8.0" fill="#4a5567">4</text>
     </g>
    </g>
    <g id="ytick_3">
     <g id="line2d_9">
      <path d="M 411.48 272.47875 
C 411.48 256.31078 408.295262 240.300023 402.108048 225.362766 
C 395.920834 210.425509 386.851468 196.852245 375.418987 185.419763 
C 363.986505 173.987282 350.413241 164.917916 335.475984 158.730702 
C 320.538727 152.543488 304.52797 149.35875 288.36 149.35875 
C 272.19203 149.35875 256.181273 152.543488 241.244016 158.730702 
C 226.306759 164.917916 212.733495 173.987282 201.301013 185.419763 
C 189.868532 196.852245 180.799166 210.425509 174.611952 225.362766 
C 168.424738 240.300023 165.24 256.31078 165.24 272.47875 
C 165.24 288.64672 168.424738 304.657477 174.611952 319.594734 
C 180.799166 334.531991 189.868532 348.105255 201.301013 359.537737 
C 212.733495 370.970218 226.306759 380.039584 241.244016 386.226798 
C 256.181273 392.414012 272.19203 395.59875 288.36 395.59875 
C 304.52797 395.59875 320.538727 392.414012 335.475984 386.226798 
C 350.413241 380.039584 363.986505 370.970218 375.418987 359.537737 
C 386.851468 348.105255 395.920834 334.531991 402.108048 319.594734 
C 408.295262 304.657477 411.48 288.64672 411.48 272.47875 
" clip-path="url(#p2828e8a79c)" style="fill: none; stroke-dasharray: 2.96,1.28; stroke-dashoffset: 0; stroke: #c0c5cc; stroke-opacity: 0.5; stroke-width: 0.8"/>
     </g>
     <g id="text_9">
      <text x="402.11" y="223.70" font-family="Arial, Helvetica, sans-serif" font-size="8.0" fill="#4a5567">6</text>
     </g>
    </g>
    <g id="ytick_4">
     <g id="line2d_10">
      <path d="M 452.52 272.47875 
C 452.52 250.921456 448.273683 229.57378 440.024064 209.657438 
C 431.774445 189.741095 419.681958 171.643409 404.438649 156.400101 
C 389.195341 141.156792 371.097655 129.064305 351.181312 120.814686 
C 331.26497 112.565067 309.917294 108.31875 288.36 108.31875 
C 266.802706 108.31875 245.45503 112.565067 225.538688 120.814686 
C 205.622345 129.064305 187.524659 141.156792 172.281351 156.400101 
C 157.038042 171.643409 144.945555 189.741095 136.695936 209.657438 
C 128.446317 229.57378 124.2 250.921456 124.2 272.47875 
C 124.2 294.036044 128.446317 315.38372 136.695936 335.300062 
C 144.945555 355.216405 157.038042 373.314091 172.281351 388.557399 
C 187.524659 403.800708 205.622345 415.893195 225.538688 424.142814 
C 245.45503 432.392433 266.802706 436.63875 288.36 436.63875 
C 309.917294 436.63875 331.26497 432.392433 351.181312 424.142814 
C 371.097655 415.893195 389.195341 403.800708 404.438649 388.557399 
C 419.681958 373.314091 431.774445 355.216405 440.024064 335.300062 
C 448.273683 315.38372 452.52 294.036044 452.52 272.47875 
" clip-path="url(#p2828e8a79c)" style="fill: none; stroke-dasharray: 2.96,1.28; stroke-dashoffset: 0; stroke: #c0c5cc; stroke-opacity: 0.5; stroke-width: 0.8"/>
     </g>
     <g id="text_10">
      <text x="440.02" y="207.99" font-family="Arial, Helvetica, sans-serif" font-size="8.0" fill="#4a5567">8</text>
     </g>
    </g>
    <g id="ytick_5">
     <g id="line2d_11">
      <path d="M 493.56 272.47875 
C 493.56 245.532133 488.252104 218.847538 477.94008 193.95211 
C 467.628056 169.056682 452.512447 146.434574 433.458311 127.380439 
C 414.404176 108.326303 391.782068 93.210694 366.88664 82.89867 
C 341.991212 72.586646 315.306617 67.27875 288.36 67.27875 
C 261.413383 67.27875 234.728788 72.586646 209.83336 82.89867 
C 184.937932 93.210694 162.315824 108.326303 143.261689 127.380439 
C 124.207553 146.434574 109.091944 169.056682 98.77992 193.95211 
C 88.467896 218.847538 83.16 245.532133 83.16 272.47875 
C 83.16 299.425367 88.467896 326.109962 98.77992 351.00539 
C 109.091944 375.900818 124.207553 398.522926 143.261689 417.577061 
C 162.315824 436.631197 184.937932 451.746806 209.83336 462.05883 
C 234.728788 472.370854 261.413383 477.67875 288.36 477.67875 
C 315.306617 477.67875 341.991212 472.370854 366.88664 462.05883 
C 391.782068 451.746806 414.404176 436.631197 433.458311 417.577061 
C 452.512447 398.522926 467.628056 375.900818 477.94008 351.00539 
C 488.252104 326.109962 493.56 299.425367 493.56 272.47875 
" clip-path="url(#p2828e8a79c)" style="fill: none; stroke-dasharray: 2.96,1.28; stroke-dashoffset: 0; stroke: #c0c5cc; stroke-opacity: 0.5; stroke-width: 0.8"/>
     </g>
     <g id="text_11">
      <text x="477.94" y="192.29" font-family="Arial, Helvetica, sans-serif" font-size="8.0" fill="#4a5567">10</text>
     </g>
    </g>
   </g>
   <g id="line2d_12">
    <path d="M 432 272.47875 
L 329.4 201.395385 
L 216.54 148.082861 
L 206.28 272.47875 
L 185.76 450.187163 
L 329.4 343.562115 
L 432 272.47875 
" clip-path="url(#p2828e8a79c)" style="fill: none; stroke: #0f1828; stroke-width: 2; stroke-linecap: square"/>
   </g>
   <g id="line2d_13">
    <path d="M 370.44 272.47875 
L 390.96 94.770337 
L 226.8 165.853702 
L 185.76 272.47875 
L 226.8 379.103798 
L 380.7 432.416322 
L 370.44 272.47875 
" clip-path="url(#p2828e8a79c)" style="fill: none; stroke: #c9a84c; stroke-opacity: 0.7; stroke-width: 1.4; stroke-linecap: square"/>
   </g>
   <g id="line2d_14">
    <path d="M 432 272.47875 
L 390.96 94.770337 
L 226.8 165.853702 
L 103.68 272.47875 
L 216.54 396.874639 
L 380.7 432.416322 
L 432 272.47875 
" clip-path="url(#p2828e8a79c)" style="fill: none; stroke: #2bc5b4; stroke-opacity: 0.7; stroke-width: 1.4; stroke-linecap: square"/>
   </g>
   <g id="line2d_15">
    <path d="M 411.48 272.47875 
L 349.92 165.853702 
L 237.06 183.624544 
L 103.68 272.47875 
L 237.06 361.332956 
L 390.96 450.187163 
L 411.48 272.47875 
" clip-path="url(#p2828e8a79c)" style="fill: none; stroke: #4a5567; stroke-opacity: 0.7; stroke-width: 1.4; stroke-linecap: square"/>
   </g>
   <g id="line2d_16">
    <path d="M 411.48 272.47875 
L 360.18 148.082861 
L 216.54 148.082861 
L 165.24 272.47875 
L 237.06 361.332956 
L 360.18 396.874639 
L 411.48 272.47875 
" clip-path="url(#p2828e8a79c)" style="fill: none; stroke: #e4d3a6; stroke-opacity: 0.7; stroke-width: 1.4; stroke-linecap: square"/>
   </g>
   <g id="line2d_17">
    <path d="M 432 272.47875 
L 329.4 201.395385 
L 196.02 112.541178 
L 83.16 272.47875 
L 247.32 343.562115 
L 380.7 432.416322 
L 432 272.47875 
" clip-path="url(#p2828e8a79c)" style="fill: none; stroke: #c8443b; stroke-opacity: 0.7; stroke-width: 1.4; stroke-linecap: square"/>
   </g>
   <g id="patch_9">
    <path d="M 493.56 272.47875 
C 493.56 245.532133 488.252104 218.847538 477.94008 193.95211 
C 467.628056 169.056682 452.512447 146.434574 433.458311 127.380439 
C 414.404176 108.326303 391.782068 93.210694 366.88664 82.89867 
C 341.991212 72.586646 315.306617 67.27875 288.36 67.27875 
C 261.413383 67.27875 234.728788 72.586646 209.83336 82.89867 
C 184.937932 93.210694 162.315824 108.326303 143.261689 127.380439 
C 124.207553 146.434574 109.091944 169.056682 98.77992 193.95211 
C 88.467896 218.847538 83.16 245.532133 83.16 272.47875 
C 83.16 299.425367 88.467896 326.109962 98.77992 351.00539 
C 109.091944 375.900818 124.207553 398.522926 143.261689 417.577061 
C 162.315824 436.631197 184.937932 451.746806 209.83336 462.05883 
C 234.728788 472.370854 261.413383 477.67875 288.36 477.67875 
C 315.306617 477.67875 341.991212 472.370854 366.88664 462.05883 
C 391.782068 451.746806 414.404176 436.631197 433.458311 417.577061 
C 452.512447 398.522926 467.628056 375.900818 477.94008 351.00539 
C 488.252104 326.109962 493.56 299.425367 493.56 272.47875 
" style="fill: none; stroke: #0f1828; stroke-width: 0.8; stroke-linejoin: miter; stroke-linecap: square"/>
   </g>
   <g id="legend_1">
    <g id="line2d_18">
     <path d="M 549.374063 58.547344 
L 558.374063 58.547344 
L 567.374063 58.547344 
" style="fill: none; stroke: #0f1828; stroke-width: 2; stroke-linecap: square"/>
    </g>
    <g id="text_12">
     <text x="574.57" y="61.70" font-family="Arial, Helvetica, sans-serif" font-size="9.0" fill="#0f1828">India</text>
    </g>
    <g id="line2d_19">
     <path d="M 549.374063 71.757656 
L 558.374063 71.757656 
L 567.374063 71.757656 
" style="fill: none; stroke: #c9a84c; stroke-opacity: 0.7; stroke-width: 1.4; stroke-linecap: square"/>
    </g>
    <g id="text_13">
     <text x="574.57" y="74.91" font-family="Arial, Helvetica, sans-serif" font-size="9.0" fill="#0f1828">Taiwan</text>
    </g>
    <g id="line2d_20">
     <path d="M 549.374063 84.967969 
L 558.374063 84.967969 
L 567.374063 84.967969 
" style="fill: none; stroke: #2bc5b4; stroke-opacity: 0.7; stroke-width: 1.4; stroke-linecap: square"/>
    </g>
    <g id="text_14">
     <text x="574.57" y="88.12" font-family="Arial, Helvetica, sans-serif" font-size="9.0" fill="#0f1828">South Korea</text>
    </g>
    <g id="line2d_21">
     <path d="M 549.374063 98.178281 
L 558.374063 98.178281 
L 567.374063 98.178281 
" style="fill: none; stroke: #4a5567; stroke-opacity: 0.7; stroke-width: 1.4; stroke-linecap: square"/>
    </g>
    <g id="text_15">
     <text x="574.57" y="101.33" font-family="Arial, Helvetica, sans-serif" font-size="9.0" fill="#0f1828">Singapore</text>
    </g>
    <g id="line2d_22">
     <path d="M 549.374063 111.388594 
L 558.374063 111.388594 
L 567.374063 111.388594 
" style="fill: none; stroke: #e4d3a6; stroke-opacity: 0.7; stroke-width: 1.4; stroke-linecap: square"/>
    </g>
    <g id="text_16">
     <text x="574.57" y="114.54" font-family="Arial, Helvetica, sans-serif" font-size="9.0" fill="#0f1828">Malaysia</text>
    </g>
    <g id="line2d_23">
     <path d="M 549.374063 124.598906 
L 558.374063 124.598906 
L 567.374063 124.598906 
" style="fill: none; stroke: #c8443b; stroke-opacity: 0.7; stroke-width: 1.4; stroke-linecap: square"/>
    </g>
    <g id="text_17">
     <text x="574.57" y="127.75" font-family="Arial, Helvetica, sans-serif" font-size="9.0" fill="#0f1828">UAE</text>
    </g>
   </g>
  </g>
  <g id="text_18">
   <text x="7.20" y="24.68" font-family="Arial, Helvetica, sans-serif" font-size="15.0" fill="#0f1828">India in global context — six-axis benchmark</text>
  </g>
  <g id="text_19">
   <text x="7.20" y="34.88" font-family="Arial, Helvetica, sans-serif" font-size="10.5" font-style="italic" fill="#4a5567">Indicative scoring (0–10) vs six comparable AI-infrastructure economies</text>
  </g>
  <g id="text_20">
   <text x="564.51" y="13.28" font-family="Arial, Helvetica, sans-serif" font-size="8.0" fill="#c0c5cc">Figure 24 · Techadyant Labs · 2026</text>
  </g>
  <g id="text_21">
   <text x="7.20" y="520.88" font-family="Arial, Helvetica, sans-serif" font-size="8.0" font-style="italic" fill="#4a5567">Source: Techadyant Labs synthesis from CEEW, IEA, TrendForce, SemiAnalysis, government investment programs.</text>
  </g>
  <g id="text_22">
   <text x="665.11" y="520.88" font-family="Arial, Helvetica, sans-serif" font-size="8.0" font-style="italic" fill="#c9a84c">Indicative</text>
  </g>
 </g>
 <defs>
  <clipPath id="p2828e8a79c">
   <path d="M 493.56 272.47875 
C 493.56 245.532133 488.252104 218.847538 477.94008 193.95211 
C 467.628056 169.056682 452.512447 146.434574 433.458311 127.380439 
C 414.404176 108.326303 391.782068 93.210694 366.88664 82.89867 
C 341.991212 72.586646 315.306617 67.27875 288.36 67.27875 
C 261.413383 67.27875 234.728788 72.586646 209.83336 82.89867 
C 184.937932 93.210694 162.315824 108.326303 143.261689 127.380439 
C 124.207553 146.434574 109.091944 169.056682 98.77992 193.95211 
C 88.467896 218.847538 83.16 245.532133 83.16 272.47875 
C 83.16 299.425367 88.467896 326.109962 98.77992 351.00539 
C 109.091944 375.900818 124.207553 398.522926 143.261689 417.577061 
C 162.315824 436.631197 184.937932 451.746806 209.83336 462.05883 
C 234.728788 472.370854 261.413383 477.67875 288.36 477.67875 
C 315.306617 477.67875 341.991212 472.370854 366.88664 462.05883 
C 391.782068 451.746806 414.404176 436.631197 433.458311 417.577061 
C 452.512447 398.522926 467.628056 375.900818 477.94008 351.00539 
C 488.252104 326.109962 493.56 299.425367 493.56 272.47875 
M 288.36 272.47875 
C 288.36 272.47875 288.36 272.47875 288.36 272.47875 
C 288.36 272.47875 288.36 272.47875 288.36 272.47875 
C 288.36 272.47875 288.36 272.47875 288.36 272.47875 
C 288.36 272.47875 288.36 272.47875 288.36 272.47875 
C 288.36 272.47875 288.36 272.47875 288.36 272.47875 
C 288.36 272.47875 288.36 272.47875 288.36 272.47875 
C 288.36 272.47875 288.36 272.47875 288.36 272.47875 
C 288.36 272.47875 288.36 272.47875 288.36 272.47875 
C 288.36 272.47875 288.36 272.47875 288.36 272.47875 
C 288.36 272.47875 288.36 272.47875 288.36 272.47875 
C 288.36 272.47875 288.36 272.47875 288.36 272.47875 
C 288.36 272.47875 288.36 272.47875 288.36 272.47875 
C 288.36 272.47875 288.36 272.47875 288.36 272.47875 
C 288.36 272.47875 288.36 272.47875 288.36 272.47875 
C 288.36 272.47875 288.36 272.47875 288.36 272.47875 
C 288.36 272.47875 288.36 272.47875 288.36 272.47875 
z
"/>
  </clipPath>
 </defs>
</svg>
