<?xml version="1.0" encoding="UTF-8"?>
<svg id="Layer_1" xmlns="http://www.w3.org/2000/svg" version="1.1" xmlns:xlink="http://www.w3.org/1999/xlink" viewBox="0 0 711.36 450">
  <!-- Generator: Adobe Illustrator 30.4.0, SVG Export Plug-In . SVG Version: 2.1.4 Build 226)  -->
  <defs>
    <style>
      .st0, .st1, .st2, .st3, .st4, .st5 {
        fill: #c9a84c;
      }

      .st0, .st6 {
        fill-opacity: .25;
      }

      .st7 {
        clip-path: url(#clippath-21);
      }

      .st8 {
        clip-path: url(#clippath-6);
      }

      .st9 {
        clip-path: url(#clippath-7);
      }

      .st10 {
        clip-path: url(#clippath-17);
      }

      .st1, .st11, .st12, .st13 {
        fill-opacity: .2;
      }

      .st14 {
        clip-path: url(#clippath-15);
      }

      .st15 {
        clip-path: url(#clippath-18);
      }

      .st16 {
        clip-path: url(#clippath-4);
      }

      .st17 {
        clip-path: url(#clippath-22);
      }

      .st18 {
        clip-path: url(#clippath-23);
      }

      .st2, .st19, .st20, .st21, .st22, .st23, .st24 {
        stroke: #0f1828;
        stroke-width: .5px;
      }

      .st19, .st25, .st26, .st6, .st13 {
        fill: #0f1828;
      }

      .st27 {
        clip-path: url(#clippath-9);
      }

      .st28 {
        clip-path: url(#clippath-10);
      }

      .st11, .st29, .st20 {
        fill: #878b95;
      }

      .st30, .st31, .st32 {
        fill: #fbf9f4;
      }

      .st33 {
        clip-path: url(#clippath-25);
      }

      .st34, .st35 {
        font-size: 8px;
      }

      .st34, .st35, .st31, .st25, .st26, .st36 {
        isolation: isolate;
      }

      .st34, .st36 {
        fill: #4a5567;
        font-family: Arial-ItalicMT, Arial;
        font-style: italic;
      }

      .st37 {
        clip-path: url(#clippath-27);
      }

      .st38 {
        clip-path: url(#clippath-11);
      }

      .st35 {
        fill: #c0c5cc;
      }

      .st35, .st39, .st31, .st25, .st32, .st26 {
        font-family: ArialMT, Arial;
      }

      .st39 {
        fill: #231f20;
      }

      .st39, .st31, .st32 {
        font-size: 12px;
      }

      .st40 {
        fill: none;
      }

      .st41 {
        clip-path: url(#clippath-1);
      }

      .st42 {
        clip-path: url(#clippath-5);
      }

      .st43 {
        clip-path: url(#clippath-20);
      }

      .st44 {
        clip-path: url(#clippath-8);
      }

      .st25 {
        font-size: 15px;
      }

      .st45 {
        clip-path: url(#clippath-3);
      }

      .st46 {
        clip-path: url(#clippath-26);
      }

      .st29 {
        fill-opacity: .15;
      }

      .st47 {
        clip-path: url(#clippath-12);
      }

      .st48, .st21, .st12, .st49, .st50 {
        fill: #2bc5b4;
      }

      .st48, .st5 {
        fill-opacity: .3;
      }

      .st51 {
        clip-path: url(#clippath-14);
      }

      .st26 {
        font-size: 10px;
      }

      .st52 {
        clip-path: url(#clippath-19);
      }

      .st22 {
        fill: #e4d3a6;
      }

      .st53 {
        clip-path: url(#clippath-16);
      }

      .st54 {
        clip-path: url(#clippath-2);
      }

      .st3, .st50 {
        fill-opacity: .1;
      }

      .st55 {
        clip-path: url(#clippath-13);
      }

      .st23 {
        fill: #c8443b;
      }

      .st24 {
        fill: #95e2d9;
      }

      .st49 {
        fill-opacity: .4;
      }

      .st56 {
        clip-path: url(#clippath-24);
      }

      .st36 {
        font-size: 10.5px;
      }

      .st57 {
        clip-path: url(#clippath);
      }

      .st4 {
        fill-opacity: .18;
      }
    </style>
    <clipPath id="clippath">
      <rect class="st40" x="58.68" y="53.65" width="613.8" height="388.08"/>
    </clipPath>
    <clipPath id="clippath-1">
      <rect class="st40" x="58.68" y="53.65" width="613.8" height="388.08"/>
    </clipPath>
    <clipPath id="clippath-2">
      <rect class="st40" x="58.68" y="53.65" width="613.8" height="388.08"/>
    </clipPath>
    <clipPath id="clippath-3">
      <rect class="st40" x="58.68" y="53.65" width="613.8" height="388.08"/>
    </clipPath>
    <clipPath id="clippath-4">
      <rect class="st40" x="58.68" y="53.65" width="613.8" height="388.08"/>
    </clipPath>
    <clipPath id="clippath-5">
      <rect class="st40" x="58.68" y="53.65" width="613.8" height="388.08"/>
    </clipPath>
    <clipPath id="clippath-6">
      <rect class="st40" x="58.68" y="53.65" width="613.8" height="388.08"/>
    </clipPath>
    <clipPath id="clippath-7">
      <rect class="st40" x="58.68" y="53.65" width="613.8" height="388.08"/>
    </clipPath>
    <clipPath id="clippath-8">
      <rect class="st40" x="58.68" y="53.65" width="613.8" height="388.08"/>
    </clipPath>
    <clipPath id="clippath-9">
      <rect class="st40" x="58.68" y="53.65" width="613.8" height="388.08"/>
    </clipPath>
    <clipPath id="clippath-10">
      <rect class="st40" x="58.68" y="53.65" width="613.8" height="388.08"/>
    </clipPath>
    <clipPath id="clippath-11">
      <rect class="st40" x="58.68" y="53.65" width="613.8" height="388.08"/>
    </clipPath>
    <clipPath id="clippath-12">
      <rect class="st40" x="58.68" y="53.65" width="613.8" height="388.08"/>
    </clipPath>
    <clipPath id="clippath-13">
      <rect class="st40" x="58.68" y="53.65" width="613.8" height="388.08"/>
    </clipPath>
    <clipPath id="clippath-14">
      <rect class="st40" x="58.68" y="53.65" width="613.8" height="388.08"/>
    </clipPath>
    <clipPath id="clippath-15">
      <rect class="st40" x="58.68" y="53.65" width="613.8" height="388.08"/>
    </clipPath>
    <clipPath id="clippath-16">
      <rect class="st40" x="58.68" y="53.65" width="613.8" height="388.08"/>
    </clipPath>
    <clipPath id="clippath-17">
      <rect class="st40" x="58.68" y="53.65" width="613.8" height="388.08"/>
    </clipPath>
    <clipPath id="clippath-18">
      <rect class="st40" x="58.68" y="53.65" width="613.8" height="388.08"/>
    </clipPath>
    <clipPath id="clippath-19">
      <rect class="st40" x="58.68" y="53.65" width="613.8" height="388.08"/>
    </clipPath>
    <clipPath id="clippath-20">
      <rect class="st40" x="58.68" y="53.65" width="613.8" height="388.08"/>
    </clipPath>
    <clipPath id="clippath-21">
      <rect class="st40" x="58.68" y="53.65" width="613.8" height="388.08"/>
    </clipPath>
    <clipPath id="clippath-22">
      <rect class="st40" x="58.68" y="53.65" width="613.8" height="388.08"/>
    </clipPath>
    <clipPath id="clippath-23">
      <rect class="st40" x="58.68" y="53.65" width="613.8" height="388.08"/>
    </clipPath>
    <clipPath id="clippath-24">
      <rect class="st40" x="58.68" y="53.65" width="613.8" height="388.08"/>
    </clipPath>
    <clipPath id="clippath-25">
      <rect class="st40" x="58.68" y="53.65" width="613.8" height="388.08"/>
    </clipPath>
    <clipPath id="clippath-26">
      <rect class="st40" x="58.68" y="53.65" width="613.8" height="388.08"/>
    </clipPath>
    <clipPath id="clippath-27">
      <rect class="st40" x="58.68" y="53.65" width="613.8" height="388.08"/>
    </clipPath>
  </defs>
  <path class="st30" d="M0,450h711.36V0H0v450Z"/>
  <g class="st57">
    <path class="st2" d="M77.09,210.04h110.48c1.23,0,1.84-.39,1.84-1.16v-116.42c0-.78-.61-1.16-1.84-1.16h-110.48c-1.23,0-1.84.39-1.84,1.16v116.42c0,.78.61,1.16,1.84,1.16Z"/>
  </g>
  <g class="st41">
    <path class="st19" d="M77.09,314.83h110.48c1.23,0,1.84-.39,1.84-1.16v-93.14c0-.78-.61-1.16-1.84-1.16h-110.48c-1.23,0-1.84.39-1.84,1.16v93.14c0,.78.61,1.16,1.84,1.16Z"/>
  </g>
  <g class="st54">
    <path class="st21" d="M77.09,423.49h110.48c1.23,0,1.84-.39,1.84-1.16v-77.62c0-.78-.61-1.16-1.84-1.16h-110.48c-1.23,0-1.84.39-1.84,1.16v77.62c0,.78.61,1.16,1.84,1.16Z"/>
  </g>
  <g class="st45">
    <path class="st2" d="M304.2,188.7h122.76c1.23,0,1.84-.39,1.84-1.16v-97.02c0-.78-.61-1.16-1.84-1.16h-122.76c-1.23,0-1.84.39-1.84,1.16v97.02c0,.78.61,1.16,1.84,1.16Z"/>
  </g>
  <g class="st16">
    <path class="st21" d="M304.2,291.54h122.76c1.23,0,1.84-.39,1.84-1.16v-85.38c0-.78-.61-1.16-1.84-1.16h-122.76c-1.23,0-1.84.39-1.84,1.16v85.38c0,.78.61,1.16,1.84,1.16Z"/>
  </g>
  <g class="st42">
    <path class="st20" d="M304.2,388.56h122.76c1.23,0,1.84-.39,1.84-1.16v-62.09c0-.78-.61-1.16-1.84-1.16h-122.76c-1.23,0-1.84.39-1.84,1.16v62.09c0,.78.61,1.16,1.84,1.16Z"/>
  </g>
  <g class="st8">
    <path class="st2" d="M540.51,146.01h116.62c1.23,0,1.84-.39,1.84-1.16v-58.21c0-.78-.61-1.16-1.84-1.16h-116.62c-1.23,0-1.84.39-1.84,1.16v58.21c0,.78.61,1.16,1.84,1.16Z"/>
  </g>
  <g class="st9">
    <path class="st22" d="M540.51,198.4h116.62c1.23,0,1.84-.39,1.84-1.16v-54.33c0-.78-.61-1.16-1.84-1.16h-116.62c-1.23,0-1.84.39-1.84,1.16v54.33c0,.78.61,1.16,1.84,1.16Z"/>
  </g>
  <g class="st44">
    <path class="st21" d="M540.51,250.79h116.62c1.23,0,1.84-.39,1.84-1.16v-50.45c0-.78-.61-1.16-1.84-1.16h-116.62c-1.23,0-1.84.39-1.84,1.16v50.45c0,.78.61,1.16,1.84,1.16Z"/>
  </g>
  <g class="st27">
    <path class="st24" d="M540.51,293.48h116.62c1.23,0,1.84-.39,1.84-1.16v-42.69c0-.78-.61-1.16-1.84-1.16h-116.62c-1.23,0-1.84.39-1.84,1.16v42.69c0,.78.61,1.16,1.84,1.16Z"/>
  </g>
  <g class="st28">
    <path class="st19" d="M540.51,341.99h116.62c1.23,0,1.84-.39,1.84-1.16v-46.57c0-.78-.61-1.16-1.84-1.16h-116.62c-1.23,0-1.84.39-1.84,1.16v46.57c0,.78.61,1.16,1.84,1.16Z"/>
  </g>
  <g class="st38">
    <path class="st23" d="M540.51,407.96h116.62c1.23,0,1.84-.39,1.84-1.16v-69.85c0-.78-.61-1.16-1.84-1.16h-116.62c-1.23,0-1.84.39-1.84,1.16v69.85c0,.78.61,1.16,1.84,1.16Z"/>
  </g>
  <g class="st47">
    <path id="m1135c64067" class="st0" d="M187.58,123.5v54.33h2.38s2.38-.05,2.38-.05l2.38-.06,2.38-.08,2.38-.11,2.38-.13,2.38-.15,2.38-.17,2.38-.19,2.38-.21,2.38-.23,2.38-.25,2.38-.27,2.38-.28,2.38-.3,2.38-.31,2.38-.33,2.38-.34,2.38-.35,2.38-.35,2.38-.36,2.38-.37,2.38-.37,2.38-.37,2.38-.37,2.38-.37,2.38-.37,2.38-.37,2.38-.36,2.38-.35,2.38-.35,2.38-.34,2.38-.33,2.38-.31,2.38-.3,2.38-.28,2.38-.27,2.38-.25,2.38-.23,2.38-.21,2.38-.19,2.38-.17,2.38-.15,2.38-.13,2.38-.11,2.38-.08,2.38-.06,2.38-.04h2.38v-54.34h-2.38s-2.38.05-2.38.05l-2.38.06-2.38.08-2.38.11-2.38.13-2.38.15-2.38.17-2.38.19-2.38.21-2.38.23-2.38.25-2.38.27-2.38.28-2.38.3-2.38.31-2.38.33-2.38.34-2.38.35-2.38.35-2.38.36-2.38.37-2.38.37-2.38.37-2.38.37-2.38.37-2.38.37-2.38.37-2.38.36-2.38.35-2.38.35-2.38.34-2.38.33-2.38.31-2.38.3-2.38.28-2.38.27-2.38.25-2.38.23-2.38.21-2.38.19-2.38.17-2.38.15-2.38.13-2.38.11-2.38.08-2.38.06-2.38.04h-2.38Z"/>
  </g>
  <g class="st55">
    <path id="m8a10ebc696" class="st3" d="M187.58,142.91v15.52l2.38.1,2.38.3,2.38.5,2.38.69,2.38.88,2.38,1.07,2.38,1.26,2.38,1.44,2.38,1.61,2.38,1.78,2.38,1.94,2.38,2.09,2.38,2.23,2.38,2.37,2.38,2.49,2.38,2.61,2.38,2.71,2.38,2.8,2.38,2.88,2.38,2.95,2.38,3.01,2.38,3.05,2.38,3.08,2.38,3.1,2.38,3.11,2.38,3.1,2.38,3.08,2.38,3.05,2.38,3.01,2.38,2.95,2.38,2.88,2.38,2.8,2.38,2.71,2.38,2.61,2.38,2.49,2.38,2.37,2.38,2.23,2.38,2.09,2.38,1.94,2.38,1.78,2.38,1.61,2.38,1.44,2.38,1.26,2.38,1.07,2.38.88,2.38.69,2.38.5,2.38.3,2.38.1v-15.52h0l-2.38-.1-2.38-.3-2.38-.5-2.38-.69-2.38-.88-2.38-1.07-2.38-1.26-2.38-1.44-2.38-1.61-2.38-1.78-2.38-1.94-2.38-2.09-2.38-2.23-2.38-2.37-2.38-2.49-2.38-2.61-2.38-2.71-2.38-2.8-2.38-2.88-2.38-2.95-2.38-3.01-2.38-3.05-2.38-3.08-2.38-3.1-2.38-3.11-2.38-3.1-2.38-3.08-2.38-3.05-2.38-3.01-2.38-2.95-2.38-2.88-2.38-2.8-2.38-2.71-2.38-2.61-2.38-2.49-2.38-2.37-2.38-2.23-2.38-2.09-2.38-1.94-2.38-1.78-2.38-1.61-2.38-1.44-2.38-1.26-2.38-1.07-2.38-.88-2.38-.69-2.38-.5-2.38-.3-2.38-.1Z"/>
  </g>
  <g class="st51">
    <path id="md0adeb89db" class="st6" d="M187.58,243.81v46.57l2.38-.13,2.38-.39,2.38-.66,2.38-.91,2.38-1.17,2.38-1.42,2.38-1.66,2.38-1.9,2.38-2.13,2.38-2.35,2.38-2.56,2.38-2.76,2.38-2.95,2.38-3.13,2.38-3.29,2.38-3.44,2.38-3.58,2.38-3.7,2.38-3.8,2.38-3.9,2.38-3.97,2.38-4.03,2.38-4.07,2.38-4.1,2.38-4.1,2.38-4.1,2.38-4.07,2.38-4.03,2.38-3.97,2.38-3.9,2.38-3.8,2.38-3.7,2.38-3.58,2.38-3.44,2.38-3.29,2.38-3.13,2.38-2.95,2.38-2.76,2.38-2.56,2.38-2.35,2.38-2.13,2.38-1.9,2.38-1.66,2.38-1.42,2.38-1.17,2.38-.91,2.38-.66,2.38-.39,2.38-.13v-46.57h0l-2.38.13-2.38.39-2.38.66-2.38.91-2.38,1.17-2.38,1.42-2.38,1.66-2.38,1.9-2.38,2.13-2.38,2.35-2.38,2.56-2.38,2.76-2.38,2.95-2.38,3.13-2.38,3.29-2.38,3.44-2.38,3.58-2.38,3.7-2.38,3.8-2.38,3.9-2.38,3.97-2.38,4.03-2.38,4.07-2.38,4.1-2.38,4.1-2.38,4.1-2.38,4.07-2.38,4.03-2.38,3.97-2.38,3.9-2.38,3.8-2.38,3.7-2.38,3.58-2.38,3.44-2.38,3.29-2.38,3.13-2.38,2.95-2.38,2.76-2.38,2.56-2.38,2.35-2.38,2.13-2.38,1.9-2.38,1.66-2.38,1.42-2.38,1.17-2.38.91-2.38.66-2.38.39-2.38.13Z"/>
  </g>
  <g class="st14">
    <path id="mb5595c0dbb" class="st13" d="M187.58,255.45v23.28l2.38.09,2.38.27,2.38.46,2.38.64,2.38.81,2.38.99,2.38,1.16,2.38,1.32,2.38,1.48,2.38,1.64,2.38,1.78,2.38,1.92,2.38,2.06,2.38,2.18,2.38,2.29,2.38,2.4,2.38,2.49,2.38,2.58,2.38,2.65,2.38,2.72,2.38,2.77,2.38,2.81,2.38,2.84,2.38,2.85,2.38,2.86,2.38,2.85,2.38,2.84,2.38,2.81,2.38,2.77,2.38,2.72,2.38,2.65,2.38,2.58,2.38,2.49,2.38,2.4,2.38,2.29,2.38,2.18,2.38,2.06,2.38,1.92,2.38,1.78,2.38,1.64,2.38,1.48,2.38,1.32,2.38,1.16,2.38.99,2.38.81,2.38.64,2.38.46,2.38.27,2.38.09v-23.28h0l-2.38-.09-2.38-.27-2.38-.46-2.38-.64-2.38-.81-2.38-.99-2.38-1.16-2.38-1.32-2.38-1.48-2.38-1.64-2.38-1.78-2.38-1.92-2.38-2.06-2.38-2.18-2.38-2.29-2.38-2.4-2.38-2.49-2.38-2.58-2.38-2.65-2.38-2.72-2.38-2.77-2.38-2.81-2.38-2.84-2.38-2.85-2.38-2.86-2.38-2.85-2.38-2.84-2.38-2.81-2.38-2.77-2.38-2.72-2.38-2.65-2.38-2.58-2.38-2.49-2.38-2.4-2.38-2.29-2.38-2.18-2.38-2.06-2.38-1.92-2.38-1.78-2.38-1.64-2.38-1.48-2.38-1.32-2.38-1.16-2.38-.99-2.38-.81-2.38-.64-2.38-.46-2.38-.27-2.38-.09Z"/>
  </g>
  <g class="st53">
    <path id="mfb2f5e67a2" class="st49" d="M187.58,356.35v54.33l2.38-.14,2.38-.42,2.38-.69,2.38-.97,2.38-1.24,2.38-1.5,2.38-1.76,2.38-2.01,2.38-2.26,2.38-2.49,2.38-2.71,2.38-2.93,2.38-3.13,2.38-3.31,2.38-3.49,2.38-3.65,2.38-3.79,2.38-3.92,2.38-4.04,2.38-4.13,2.38-4.21,2.38-4.27,2.38-4.32,2.38-4.34,2.38-4.35,2.38-4.34,2.38-4.32,2.38-4.27,2.38-4.21,2.38-4.13,2.38-4.04,2.38-3.92,2.38-3.79,2.38-3.65,2.38-3.49,2.38-3.31,2.38-3.13,2.38-2.93,2.38-2.71,2.38-2.49,2.38-2.26,2.38-2.01,2.38-1.76,2.38-1.5,2.38-1.24,2.38-.97,2.38-.69,2.38-.42,2.38-.14v-54.33h0l-2.38.14-2.38.42-2.38.69-2.38.97-2.38,1.24-2.38,1.5-2.38,1.76-2.38,2.01-2.38,2.26-2.38,2.49-2.38,2.71-2.38,2.93-2.38,3.13-2.38,3.31-2.38,3.49-2.38,3.65-2.38,3.79-2.38,3.92-2.38,4.04-2.38,4.13-2.38,4.21-2.38,4.27-2.38,4.32-2.38,4.34-2.38,4.35-2.38,4.34-2.38,4.32-2.38,4.27-2.38,4.21-2.38,4.13-2.38,4.04-2.38,3.92-2.38,3.79-2.38,3.65-2.38,3.49-2.38,3.31-2.38,3.13-2.38,2.93-2.38,2.71-2.38,2.49-2.38,2.26-2.38,2.01-2.38,1.76-2.38,1.5-2.38,1.24-2.38.97-2.38.69-2.38.42-2.38.14Z"/>
  </g>
  <g class="st10">
    <path id="m4af659c0c2" class="st50" d="M187.58,375.75v15.52l2.38-.03,2.38-.08,2.38-.14,2.38-.19,2.38-.25,2.38-.3,2.38-.35,2.38-.4,2.38-.45,2.38-.5,2.38-.54,2.38-.59,2.38-.63,2.38-.66,2.38-.7,2.38-.73,2.38-.76,2.38-.78,2.38-.81,2.38-.83,2.38-.84,2.38-.85,2.38-.86,2.38-.87,2.38-.87,2.38-.87,2.38-.86,2.38-.85,2.38-.84,2.38-.83,2.38-.81,2.38-.78,2.38-.76,2.38-.73,2.38-.7,2.38-.66,2.38-.63,2.38-.59,2.38-.54,2.38-.5,2.38-.45,2.38-.4,2.38-.35,2.38-.3,2.38-.25,2.38-.19,2.38-.14,2.38-.08,2.38-.03v-15.52h0l-2.38.03-2.38.08-2.38.14-2.38.19-2.38.25-2.38.3-2.38.35-2.38.4-2.38.45-2.38.5-2.38.54-2.38.59-2.38.63-2.38.66-2.38.7-2.38.73-2.38.76-2.38.78-2.38.81-2.38.83-2.38.84-2.38.85-2.38.86-2.38.87-2.38.87-2.38.87-2.38.86-2.38.85-2.38.84-2.38.83-2.38.81-2.38.78-2.38.76-2.38.73-2.38.7-2.38.66-2.38.63-2.38.59-2.38.54-2.38.5-2.38.45-2.38.4-2.38.35-2.38.3-2.38.25-2.38.19-2.38.14-2.38.08-2.38.03Z"/>
  </g>
  <g class="st15">
    <path id="m3ce0f5151c" class="st0" d="M426.96,123.5v31.05l2.32-.02,2.32-.07,2.32-.12,2.32-.17,2.32-.21,2.32-.26,2.32-.3,2.32-.35,2.32-.39,2.32-.43,2.32-.47,2.32-.5,2.32-.54,2.32-.57,2.32-.6,2.32-.63,2.32-.65,2.32-.67,2.32-.69,2.32-.71,2.32-.72,2.32-.73,2.32-.74,2.32-.74,2.32-.75,2.32-.74,2.32-.74,2.32-.73,2.32-.72,2.32-.71,2.32-.69,2.32-.67,2.32-.65,2.32-.63,2.32-.6,2.32-.57,2.32-.54,2.32-.5,2.32-.47,2.32-.43,2.32-.39,2.32-.35,2.32-.3,2.32-.26,2.32-.21,2.32-.17,2.32-.12,2.32-.07,2.32-.02v-31.05h0l-2.32.02-2.32.07-2.32.12-2.32.17-2.32.21-2.32.26-2.32.3-2.32.35-2.32.39-2.32.43-2.32.47-2.32.5-2.32.54-2.32.57-2.32.6-2.32.63-2.32.65-2.32.67-2.32.69-2.32.71-2.32.72-2.32.73-2.32.74-2.32.74-2.32.75-2.32.74-2.32.74-2.32.73-2.32.72-2.32.71-2.32.69-2.32.67-2.32.65-2.32.63-2.32.6-2.32.57-2.32.54-2.32.5-2.32.47-2.32.43-2.32.39-2.32.35-2.32.3-2.32.26-2.32.21-2.32.17-2.32.12-2.32.07-2.32.02Z"/>
  </g>
  <g class="st52">
    <path id="m7cc509881e" class="st5" d="M426.96,123.5v31.05l2.32.03,2.32.1,2.32.16,2.32.22,2.32.28,2.32.34,2.32.4,2.32.46,2.32.52,2.32.57,2.32.62,2.32.67,2.32.71,2.32.76,2.32.8,2.32.83,2.32.87,2.32.9,2.32.92,2.32.94,2.32.96,2.32.98,2.32.99,2.32.99,2.32,1,2.32.99,2.32.99,2.32.98,2.32.96,2.32.94,2.32.92,2.32.9,2.32.87,2.32.83,2.32.8,2.32.76,2.32.71,2.32.67,2.32.62,2.32.57,2.32.52,2.32.46,2.32.4,2.32.34,2.32.28,2.32.22,2.32.16,2.32.1,2.32.03v-31.05h0l-2.32-.03-2.32-.1-2.32-.16-2.32-.22-2.32-.28-2.32-.34-2.32-.4-2.32-.46-2.32-.52-2.32-.57-2.32-.62-2.32-.67-2.32-.71-2.32-.76-2.32-.8-2.32-.83-2.32-.87-2.32-.9-2.32-.92-2.32-.94-2.32-.96-2.32-.98-2.32-.99-2.32-.99-2.32-1-2.32-.99-2.32-.99-2.32-.98-2.32-.96-2.32-.94-2.32-.92-2.32-.9-2.32-.87-2.32-.83-2.32-.8-2.32-.76-2.32-.71-2.32-.67-2.32-.62-2.32-.57-2.32-.52-2.32-.46-2.32-.4-2.32-.34-2.32-.28-2.32-.22-2.32-.16-2.32-.1-2.32-.03Z"/>
  </g>
  <g class="st43">
    <path id="m3095f44564" class="st0" d="M426.96,127.38v23.28l2.32.09,2.32.26,2.32.44,2.32.61,2.32.78,2.32.95,2.32,1.11,2.32,1.27,2.32,1.42,2.32,1.57,2.32,1.71,2.32,1.84,2.32,1.97,2.32,2.08,2.32,2.19,2.32,2.29,2.32,2.38,2.32,2.47,2.32,2.54,2.32,2.6,2.32,2.65,2.32,2.69,2.32,2.71,2.32,2.73,2.32,2.74,2.32,2.73,2.32,2.71,2.32,2.69,2.32,2.65,2.32,2.6,2.32,2.54,2.32,2.47,2.32,2.38,2.32,2.29,2.32,2.19,2.32,2.08,2.32,1.97,2.32,1.84,2.32,1.71,2.32,1.57,2.32,1.42,2.32,1.27,2.32,1.11,2.32.95,2.32.78,2.32.61,2.32.44,2.32.26,2.32.09v-23.28h0l-2.32-.09-2.32-.26-2.32-.44-2.32-.61-2.32-.78-2.32-.95-2.32-1.11-2.32-1.27-2.32-1.42-2.32-1.57-2.32-1.71-2.32-1.84-2.32-1.97-2.32-2.08-2.32-2.19-2.32-2.29-2.32-2.38-2.32-2.47-2.32-2.54-2.32-2.6-2.32-2.65-2.32-2.69-2.32-2.71-2.32-2.73-2.32-2.74-2.32-2.73-2.32-2.71-2.32-2.69-2.32-2.65-2.32-2.6-2.32-2.54-2.32-2.47-2.32-2.38-2.32-2.29-2.32-2.19-2.32-2.08-2.32-1.97-2.32-1.84-2.32-1.71-2.32-1.57-2.32-1.42-2.32-1.27-2.32-1.11-2.32-.95-2.32-.78-2.32-.61-2.32-.44-2.32-.26-2.32-.09Z"/>
  </g>
  <g class="st7">
    <path id="m5fa2f019d7" class="st1" d="M426.96,127.38v23.28l2.32.18,2.32.55,2.32.91,2.32,1.27,2.32,1.63,2.32,1.98,2.32,2.32,2.32,2.65,2.32,2.97,2.32,3.27,2.32,3.57,2.32,3.85,2.32,4.11,2.32,4.36,2.32,4.59,2.32,4.8,2.32,4.99,2.32,5.16,2.32,5.3,2.32,5.43,2.32,5.53,2.32,5.62,2.32,5.67,2.32,5.71,2.32,5.72,2.32,5.71,2.32,5.67,2.32,5.62,2.32,5.53,2.32,5.43,2.32,5.3,2.32,5.16,2.32,4.99,2.32,4.8,2.32,4.59,2.32,4.36,2.32,4.11,2.32,3.85,2.32,3.57,2.32,3.27,2.32,2.97,2.32,2.65,2.32,2.32,2.32,1.98,2.32,1.63,2.32,1.27,2.32.91,2.32.55,2.32.18v-23.28h0l-2.32-.18-2.32-.55-2.32-.91-2.32-1.27-2.32-1.63-2.32-1.98-2.32-2.32-2.32-2.65-2.32-2.97-2.32-3.27-2.32-3.57-2.32-3.85-2.32-4.11-2.32-4.36-2.32-4.59-2.32-4.8-2.32-4.99-2.32-5.16-2.32-5.3-2.32-5.43-2.32-5.53-2.32-5.62-2.32-5.67-2.32-5.71-2.32-5.72-2.32-5.71-2.32-5.67-2.32-5.62-2.32-5.53-2.32-5.43-2.32-5.3-2.32-5.16-2.32-4.99-2.32-4.8-2.32-4.59-2.32-4.36-2.32-4.11-2.32-3.85-2.32-3.57-2.32-3.27-2.32-2.97-2.32-2.65-2.32-2.32-2.32-1.98-2.32-1.63-2.32-1.27-2.32-.91-2.32-.55-2.32-.18Z"/>
  </g>
  <g class="st17">
    <path id="m61c7fa2f4a" class="st4" d="M426.96,127.38v23.28l2.32.24,2.32.72,2.32,1.19,2.32,1.66,2.32,2.12,2.32,2.58,2.32,3.02,2.32,3.45,2.32,3.87,2.32,4.27,2.32,4.65,2.32,5.02,2.32,5.36,2.32,5.68,2.32,5.98,2.32,6.25,2.32,6.5,2.32,6.72,2.32,6.92,2.32,7.08,2.32,7.22,2.32,7.33,2.32,7.4,2.32,7.45,2.32,7.46,2.32,7.45,2.32,7.4,2.32,7.33,2.32,7.22,2.32,7.08,2.32,6.92,2.32,6.72,2.32,6.5,2.32,6.25,2.32,5.98,2.32,5.68,2.32,5.36,2.32,5.02,2.32,4.65,2.32,4.27,2.32,3.87,2.32,3.45,2.32,3.02,2.32,2.58,2.32,2.12,2.32,1.66,2.32,1.19,2.32.72,2.32.24v-23.28h0l-2.32-.24-2.32-.72-2.32-1.19-2.32-1.66-2.32-2.12-2.32-2.58-2.32-3.02-2.32-3.45-2.32-3.87-2.32-4.27-2.32-4.65-2.32-5.02-2.32-5.36-2.32-5.68-2.32-5.98-2.32-6.25-2.32-6.5-2.32-6.72-2.32-6.92-2.32-7.08-2.32-7.22-2.32-7.33-2.32-7.4-2.32-7.45-2.32-7.46-2.32-7.45-2.32-7.4-2.32-7.33-2.32-7.22-2.32-7.08-2.32-6.92-2.32-6.72-2.32-6.5-2.32-6.25-2.32-5.98-2.32-5.68-2.32-5.36-2.32-5.02-2.32-4.65-2.32-4.27-2.32-3.87-2.32-3.45-2.32-3.02-2.32-2.58-2.32-2.12-2.32-1.66-2.32-1.19-2.32-.72-2.32-.24Z"/>
  </g>
  <g class="st18">
    <path id="m73f08828bc" class="st48" d="M426.96,236.05v23.28l2.32.02,2.32.07,2.32.12,2.32.17,2.32.21,2.32.26,2.32.3,2.32.35,2.32.39,2.32.43,2.32.47,2.32.5,2.32.54,2.32.57,2.32.6,2.32.63,2.32.65,2.32.67,2.32.69,2.32.71,2.32.72,2.32.73,2.32.74,2.32.74,2.32.75,2.32.74,2.32.74,2.32.73,2.32.72,2.32.71,2.32.69,2.32.67,2.32.65,2.32.63,2.32.6,2.32.57,2.32.54,2.32.5,2.32.47,2.32.43,2.32.39,2.32.35,2.32.3,2.32.26,2.32.21,2.32.17,2.32.12,2.32.07,2.32.02v-23.28h0l-2.32-.02-2.32-.07-2.32-.12-2.32-.17-2.32-.21-2.32-.26-2.32-.3-2.32-.35-2.32-.39-2.32-.43-2.32-.47-2.32-.5-2.32-.54-2.32-.57-2.32-.6-2.32-.63-2.32-.65-2.32-.67-2.32-.69-2.32-.71-2.32-.72-2.32-.73-2.32-.74-2.32-.74-2.32-.75-2.32-.74-2.32-.74-2.32-.73-2.32-.72-2.32-.71-2.32-.69-2.32-.67-2.32-.65-2.32-.63-2.32-.6-2.32-.57-2.32-.54-2.32-.5-2.32-.47-2.32-.43-2.32-.39-2.32-.35-2.32-.3-2.32-.26-2.32-.21-2.32-.17-2.32-.12-2.32-.07-2.32-.02Z"/>
  </g>
  <g class="st56">
    <path id="mba1cc0a086" class="st12" d="M426.96,239.93v15.52l2.32-.02,2.32-.07,2.32-.12,2.32-.17,2.32-.21,2.32-.26,2.32-.3,2.32-.35,2.32-.39,2.32-.43,2.32-.47,2.32-.5,2.32-.54,2.32-.57,2.32-.6,2.32-.63,2.32-.65,2.32-.67,2.32-.69,2.32-.71,2.32-.72,2.32-.73,2.32-.74,2.32-.74,2.32-.75,2.32-.74,2.32-.74,2.32-.73,2.32-.72,2.32-.71,2.32-.69,2.32-.67,2.32-.65,2.32-.63,2.32-.6,2.32-.57,2.32-.54,2.32-.5,2.32-.47,2.32-.43,2.32-.39,2.32-.35,2.32-.3,2.32-.26,2.32-.21,2.32-.17,2.32-.12,2.32-.07,2.32-.02v-15.52h0l-2.32.02-2.32.07-2.32.12-2.32.17-2.32.21-2.32.26-2.32.3-2.32.35-2.32.39-2.32.43-2.32.47-2.32.5-2.32.54-2.32.57-2.32.6-2.32.63-2.32.65-2.32.67-2.32.69-2.32.71-2.32.72-2.32.73-2.32.74-2.32.74-2.32.75-2.32.74-2.32.74-2.32.73-2.32.72-2.32.71-2.32.69-2.32.67-2.32.65-2.32.63-2.32.6-2.32.57-2.32.54-2.32.5-2.32.47-2.32.43-2.32.39-2.32.35-2.32.3-2.32.26-2.32.21-2.32.17-2.32.12-2.32.07-2.32.02Z"/>
  </g>
  <g class="st33">
    <path id="m63c4593ede" class="st49" d="M426.96,228.28v38.81l2.32.13,2.32.38,2.32.64,2.32.89,2.32,1.13,2.32,1.37,2.32,1.61,2.32,1.84,2.32,2.06,2.32,2.28,2.32,2.48,2.32,2.68,2.32,2.86,2.32,3.03,2.32,3.19,2.32,3.34,2.32,3.47,2.32,3.59,2.32,3.69,2.32,3.78,2.32,3.85,2.32,3.91,2.32,3.95,2.32,3.97,2.32,3.98,2.32,3.97,2.32,3.95,2.32,3.91,2.32,3.85,2.32,3.78,2.32,3.69,2.32,3.59,2.32,3.47,2.32,3.34,2.32,3.19,2.32,3.03,2.32,2.86,2.32,2.68,2.32,2.48,2.32,2.28,2.32,2.06,2.32,1.84,2.32,1.61,2.32,1.37,2.32,1.13,2.32.89,2.32.64,2.32.38,2.32.13v-38.81h0l-2.32-.13-2.32-.38-2.32-.64-2.32-.89-2.32-1.13-2.32-1.37-2.32-1.61-2.32-1.84-2.32-2.06-2.32-2.28-2.32-2.48-2.32-2.68-2.32-2.86-2.32-3.03-2.32-3.19-2.32-3.34-2.32-3.47-2.32-3.59-2.32-3.69-2.32-3.78-2.32-3.85-2.32-3.91-2.32-3.95-2.32-3.97-2.32-3.98-2.32-3.97-2.32-3.95-2.32-3.91-2.32-3.85-2.32-3.78-2.32-3.69-2.32-3.59-2.32-3.47-2.32-3.34-2.32-3.19-2.32-3.03-2.32-2.86-2.32-2.68-2.32-2.48-2.32-2.28-2.32-2.06-2.32-1.84-2.32-1.61-2.32-1.37-2.32-1.13-2.32-.89-2.32-.64-2.32-.38-2.32-.13Z"/>
  </g>
  <g class="st46">
    <path id="m6e055e15de" class="st29" d="M426.96,348.59v15.52l2.32-.14,2.32-.41,2.32-.67,2.32-.94,2.32-1.2,2.32-1.46,2.32-1.71,2.32-1.96,2.32-2.19,2.32-2.42,2.32-2.64,2.32-2.84,2.32-3.04,2.32-3.22,2.32-3.39,2.32-3.54,2.32-3.68,2.32-3.81,2.32-3.92,2.32-4.01,2.32-4.09,2.32-4.15,2.32-4.19,2.32-4.22,2.32-4.23,2.32-4.22,2.32-4.19,2.32-4.15,2.32-4.09,2.32-4.01,2.32-3.92,2.32-3.81,2.32-3.68,2.32-3.54,2.32-3.39,2.32-3.22,2.32-3.04,2.32-2.84,2.32-2.64,2.32-2.42,2.32-2.19,2.32-1.96,2.32-1.71,2.32-1.46,2.32-1.2,2.32-.94,2.32-.67,2.32-.41,2.32-.14v-15.52h0l-2.32.14-2.32.41-2.32.67-2.32.94-2.32,1.2-2.32,1.46-2.32,1.71-2.32,1.96-2.32,2.19-2.32,2.42-2.32,2.64-2.32,2.84-2.32,3.04-2.32,3.22-2.32,3.39-2.32,3.54-2.32,3.68-2.32,3.81-2.32,3.92-2.32,4.01-2.32,4.09-2.32,4.15-2.32,4.19-2.32,4.22-2.32,4.23-2.32,4.22-2.32,4.19-2.32,4.15-2.32,4.09-2.32,4.01-2.32,3.92-2.32,3.81-2.32,3.68-2.32,3.54-2.32,3.39-2.32,3.22-2.32,3.04-2.32,2.84-2.32,2.64-2.32,2.42-2.32,2.19-2.32,1.96-2.32,1.71-2.32,1.46-2.32,1.2-2.32.94-2.32.67-2.32.41-2.32.14Z"/>
  </g>
  <g class="st37">
    <path id="m01249be1ab" class="st11" d="M426.96,348.59v15.52l2.32-.04,2.32-.12,2.32-.2,2.32-.28,2.32-.35,2.32-.43,2.32-.5,2.32-.58,2.32-.64,2.32-.71,2.32-.78,2.32-.84,2.32-.89,2.32-.95,2.32-1,2.32-1.04,2.32-1.08,2.32-1.12,2.32-1.15,2.32-1.18,2.32-1.2,2.32-1.22,2.32-1.23,2.32-1.24,2.32-1.24,2.32-1.24,2.32-1.23,2.32-1.22,2.32-1.2,2.32-1.18,2.32-1.15,2.32-1.12,2.32-1.08,2.32-1.04,2.32-1,2.32-.95,2.32-.89,2.32-.84,2.32-.78,2.32-.71,2.32-.64,2.32-.58,2.32-.5,2.32-.43,2.32-.35,2.32-.28,2.32-.2,2.32-.12,2.32-.04v-15.52h0l-2.32.04-2.32.12-2.32.2-2.32.28-2.32.35-2.32.43-2.32.5-2.32.58-2.32.64-2.32.71-2.32.78-2.32.84-2.32.89-2.32.95-2.32,1-2.32,1.04-2.32,1.08-2.32,1.12-2.32,1.15-2.32,1.18-2.32,1.2-2.32,1.22-2.32,1.23-2.32,1.24-2.32,1.24-2.32,1.24-2.32,1.23-2.32,1.22-2.32,1.2-2.32,1.18-2.32,1.15-2.32,1.12-2.32,1.08-2.32,1.04-2.32,1-2.32.95-2.32.89-2.32.84-2.32.78-2.32.71-2.32.64-2.32.58-2.32.5-2.32.43-2.32.35-2.32.28-2.32.2-2.32.12-2.32.04Z"/>
  </g>
  <text class="st31" transform="translate(80.15 143.15)"><tspan x="0" y="0">Hyperscaler capex </tspan><tspan x="18.84" y="14.4">(USD 50B+)</tspan></text>
  <text class="st32" transform="translate(86.92 261.4)"><tspan x="0" y="0">Indian operators </tspan><tspan x="12.52" y="14.4">(USD 30B+)</tspan></text>
  <text class="st32" transform="translate(81.5 381.5)"><tspan x="0" y="0">ISM fiscal support</tspan><tspan x="11.34" y="14.4" xml:space="preserve"> (Rs 1.65L cr)</tspan></text>
  <text class="st32" transform="translate(329.9 130.11)"><tspan x="0" y="0">Data centres </tspan><tspan x="4.68" y="14.4">(4.5–9 GW)</tspan></text>
  <text class="st32" transform="translate(335.87 243.69)"><tspan x="0" y="0">Semi fab </tspan><tspan x="-13.66" y="14.4">/ OSAT cluster</tspan></text>
  <text class="st32" transform="translate(341.84 352.8)"><tspan x="0" y="0">Power /</tspan><tspan x="-13.68" y="14.4" xml:space="preserve"> RE / cooling</tspan></text>
  <text class="st32" transform="translate(571.61 107.66)"><tspan x="0" y="0">Industrial </tspan><tspan x="-12.34" y="14.4">AI deployment</tspan></text>
  <text class="st39" transform="translate(581.68 166.07)"><tspan x="0" y="0">GCC </tspan><tspan x="-35.53" y="14.4">+ services revenue</tspan></text>
  <text class="st32" transform="translate(576.51 217.99)"><tspan x="0" y="0">Indian </tspan><tspan x="-29.68" y="14.4">equipment &amp; EPC</tspan></text>
  <text class="st39" transform="translate(572.87 267.63)"><tspan x="0" y="0">Specialty </tspan><tspan x="-19.34" y="14.4">gases / materials</tspan></text>
  <text class="st32" transform="translate(568.15 312.52)"><tspan x="0" y="0">Real-estate </tspan><tspan x="-5.17" y="14.4">+ construction</tspan></text>
  <text class="st32" transform="translate(553.91 368.58)"><tspan x="0" y="0">Imported (WFE, </tspan><tspan x="4.67" y="14.4">HBM, CoWoS)</tspan></text>
  <text class="st26" transform="translate(81 69.17)"><tspan x="0" y="0">CAPITAL SOURCES</tspan></text>
  <text class="st26" transform="translate(295.87 69.17)"><tspan x="0" y="0">INFRASTRUCTURE LAYER</tspan></text>
  <text class="st26" transform="translate(524.58 69.17)"><tspan x="0" y="0">ECONOMIC BENEFICIARIES</tspan></text>
  <text class="st25" transform="translate(7.2 24.73)"><tspan x="0" y="0">Capital flow — from announced capex to economic beneficiaries</tspan></text>
  <text class="st36" transform="translate(7.2 44.49)"><tspan x="0" y="0">Schematic Sankey; band widths approximate cumulative 2026–2030 flow magnitudes</tspan></text>
  <text class="st35" transform="translate(564.51 13.33)"><tspan x="0" y="0">Figure 25 · Techadyant Labs · 2026</tspan></text>
  <text class="st34" transform="translate(7.93 441.73)"><tspan x="0" y="0">Source: Techadyant Labs analysis integrating CEEW DC roll-up, hyperscaler announcements, ISM project filings.</tspan></text>
</svg>