<?xml version="1.0" encoding="utf-8" standalone="no"?>
<!DOCTYPE svg PUBLIC "-//W3C//DTD SVG 1.1//EN"
  "http://www.w3.org/Graphics/SVG/1.1/DTD/svg11.dtd">
<svg xmlns:xlink="http://www.w3.org/1999/xlink" width="711.36pt" height="495.9025pt" viewBox="0 0 711.36 495.9025" xmlns="http://www.w3.org/2000/svg" version="1.1">
 <metadata>
  <rdf:RDF xmlns:dc="http://purl.org/dc/elements/1.1/" xmlns:cc="http://creativecommons.org/ns#" xmlns:rdf="http://www.w3.org/1999/02/22-rdf-syntax-ns#">
   <cc:Work>
    <dc:type rdf:resource="http://purl.org/dc/dcmitype/StillImage"/>
    <dc:date>2026-05-28T09:33:23.673089</dc:date>
    <dc:format>image/svg+xml</dc:format>
    <dc:creator>
     <cc:Agent>
      <dc:title>Matplotlib v3.10.8, https://matplotlib.org/</dc:title>
     </cc:Agent>
    </dc:creator>
   </cc:Work>
  </rdf:RDF>
 </metadata>
 <defs>
  <style type="text/css">*{stroke-linejoin: round; stroke-linecap: butt}</style>
 </defs>
 <g id="figure_1">
  <g id="patch_1">
   <path d="M 0 495.9025 
L 711.36 495.9025 
L 711.36 0 
L 0 0 
z
" style="fill: #fbf9f4"/>
  </g>
  <g id="axes_1">
   <g id="patch_2">
    <path d="M 77.094 209.99499 
L 187.578 209.99499 
Q 189.4194 209.99499 189.4194 208.83075 
L 189.4194 92.40675 
Q 189.4194 91.24251 187.578 91.24251 
L 77.094 91.24251 
Q 75.2526 91.24251 75.2526 92.40675 
L 75.2526 208.83075 
Q 75.2526 209.99499 77.094 209.99499 
z
" clip-path="url(#pdba3ff0023)" style="fill: #c9a84c; stroke: #0f1828; stroke-width: 0.5; stroke-linejoin: miter"/>
   </g>
   <g id="patch_3">
    <path d="M 77.094 314.77659 
L 187.578 314.77659 
Q 189.4194 314.77659 189.4194 313.61235 
L 189.4194 220.47315 
Q 189.4194 219.30891 187.578 219.30891 
L 77.094 219.30891 
Q 75.2526 219.30891 75.2526 220.47315 
L 75.2526 313.61235 
Q 75.2526 314.77659 77.094 314.77659 
z
" clip-path="url(#pdba3ff0023)" style="fill: #0f1828; stroke: #0f1828; stroke-width: 0.5; stroke-linejoin: miter"/>
   </g>
   <g id="patch_4">
    <path d="M 77.094 423.43899 
L 187.578 423.43899 
Q 189.4194 423.43899 189.4194 422.27475 
L 189.4194 344.65875 
Q 189.4194 343.49451 187.578 343.49451 
L 77.094 343.49451 
Q 75.2526 343.49451 75.2526 344.65875 
L 75.2526 422.27475 
Q 75.2526 423.43899 77.094 423.43899 
z
" clip-path="url(#pdba3ff0023)" style="fill: #2bc5b4; stroke: #0f1828; stroke-width: 0.5; stroke-linejoin: miter"/>
   </g>
   <g id="patch_5">
    <path d="M 304.2 188.65059 
L 426.96 188.65059 
Q 428.8014 188.65059 428.8014 187.48635 
L 428.8014 90.46635 
Q 428.8014 89.30211 426.96 89.30211 
L 304.2 89.30211 
Q 302.3586 89.30211 302.3586 90.46635 
L 302.3586 187.48635 
Q 302.3586 188.65059 304.2 188.65059 
z
" clip-path="url(#pdba3ff0023)" style="fill: #c9a84c; stroke: #0f1828; stroke-width: 0.5; stroke-linejoin: miter"/>
   </g>
   <g id="patch_6">
    <path d="M 304.2 291.49179 
L 426.96 291.49179 
Q 428.8014 291.49179 428.8014 290.32755 
L 428.8014 204.94995 
Q 428.8014 203.78571 426.96 203.78571 
L 304.2 203.78571 
Q 302.3586 203.78571 302.3586 204.94995 
L 302.3586 290.32755 
Q 302.3586 291.49179 304.2 291.49179 
z
" clip-path="url(#pdba3ff0023)" style="fill: #2bc5b4; stroke: #0f1828; stroke-width: 0.5; stroke-linejoin: miter"/>
   </g>
   <g id="patch_7">
    <path d="M 304.2 388.51179 
L 426.96 388.51179 
Q 428.8014 388.51179 428.8014 387.34755 
L 428.8014 325.25475 
Q 428.8014 324.09051 426.96 324.09051 
L 304.2 324.09051 
Q 302.3586 324.09051 302.3586 325.25475 
L 302.3586 387.34755 
Q 302.3586 388.51179 304.2 388.51179 
z
" clip-path="url(#pdba3ff0023)" style="fill: #878b95; stroke: #0f1828; stroke-width: 0.5; stroke-linejoin: miter"/>
   </g>
   <g id="patch_8">
    <path d="M 540.513 145.96179 
L 657.135 145.96179 
Q 658.9764 145.96179 658.9764 144.79755 
L 658.9764 86.58555 
Q 658.9764 85.42131 657.135 85.42131 
L 540.513 85.42131 
Q 538.6716 85.42131 538.6716 86.58555 
L 538.6716 144.79755 
Q 538.6716 145.96179 540.513 145.96179 
z
" clip-path="url(#pdba3ff0023)" style="fill: #c9a84c; stroke: #0f1828; stroke-width: 0.5; stroke-linejoin: miter"/>
   </g>
   <g id="patch_9">
    <path d="M 540.513 198.35259 
L 657.135 198.35259 
Q 658.9764 198.35259 658.9764 197.18835 
L 658.9764 142.85715 
Q 658.9764 141.69291 657.135 141.69291 
L 540.513 141.69291 
Q 538.6716 141.69291 538.6716 142.85715 
L 538.6716 197.18835 
Q 538.6716 198.35259 540.513 198.35259 
z
" clip-path="url(#pdba3ff0023)" style="fill: #e4d3a6; stroke: #0f1828; stroke-width: 0.5; stroke-linejoin: miter"/>
   </g>
   <g id="patch_10">
    <path d="M 540.513 250.74339 
L 657.135 250.74339 
Q 658.9764 250.74339 658.9764 249.57915 
L 658.9764 199.12875 
Q 658.9764 197.96451 657.135 197.96451 
L 540.513 197.96451 
Q 538.6716 197.96451 538.6716 199.12875 
L 538.6716 249.57915 
Q 538.6716 250.74339 540.513 250.74339 
z
" clip-path="url(#pdba3ff0023)" style="fill: #2bc5b4; stroke: #0f1828; stroke-width: 0.5; stroke-linejoin: miter"/>
   </g>
   <g id="patch_11">
    <path d="M 540.513 293.43219 
L 657.135 293.43219 
Q 658.9764 293.43219 658.9764 292.26795 
L 658.9764 249.57915 
Q 658.9764 248.41491 657.135 248.41491 
L 540.513 248.41491 
Q 538.6716 248.41491 538.6716 249.57915 
L 538.6716 292.26795 
Q 538.6716 293.43219 540.513 293.43219 
z
" clip-path="url(#pdba3ff0023)" style="fill: #95e2d9; stroke: #0f1828; stroke-width: 0.5; stroke-linejoin: miter"/>
   </g>
   <g id="patch_12">
    <path d="M 540.513 341.94219 
L 657.135 341.94219 
Q 658.9764 341.94219 658.9764 340.77795 
L 658.9764 294.20835 
Q 658.9764 293.04411 657.135 293.04411 
L 540.513 293.04411 
Q 538.6716 293.04411 538.6716 294.20835 
L 538.6716 340.77795 
Q 538.6716 341.94219 540.513 341.94219 
z
" clip-path="url(#pdba3ff0023)" style="fill: #0f1828; stroke: #0f1828; stroke-width: 0.5; stroke-linejoin: miter"/>
   </g>
   <g id="patch_13">
    <path d="M 540.513 407.91579 
L 657.135 407.91579 
Q 658.9764 407.91579 658.9764 406.75155 
L 658.9764 336.89715 
Q 658.9764 335.73291 657.135 335.73291 
L 540.513 335.73291 
Q 538.6716 335.73291 538.6716 336.89715 
L 538.6716 406.75155 
Q 538.6716 407.91579 540.513 407.91579 
z
" clip-path="url(#pdba3ff0023)" style="fill: #c8443b; stroke: #0f1828; stroke-width: 0.5; stroke-linejoin: miter"/>
   </g>
   <g id="FillBetweenPolyCollection_1">
    <defs>
     <path id="m1135c64067" d="M 187.578 -372.44935 
L 187.578 -318.11815 
L 189.958041 -318.13011 
L 192.338082 -318.165942 
L 194.718122 -318.225498 
L 197.098163 -318.308533 
L 199.478204 -318.414707 
L 201.858245 -318.543582 
L 204.238286 -318.69463 
L 206.618327 -318.86723 
L 208.998367 -319.060672 
L 211.378408 -319.274161 
L 213.758449 -319.506821 
L 216.13849 -319.757695 
L 218.518531 -320.025752 
L 220.898571 -320.309891 
L 223.278612 -320.608944 
L 225.658653 -320.921683 
L 228.038694 -321.246822 
L 230.418735 -321.583025 
L 232.798776 -321.928911 
L 235.178816 -322.283058 
L 237.558857 -322.644011 
L 239.938898 -323.010287 
L 242.318939 -323.380381 
L 244.69898 -323.752771 
L 247.07902 -324.125929 
L 249.459061 -324.498319 
L 251.839102 -324.868413 
L 254.219143 -325.234689 
L 256.599184 -325.595642 
L 258.979224 -325.949789 
L 261.359265 -326.295675 
L 263.739306 -326.631878 
L 266.119347 -326.957017 
L 268.499388 -327.269756 
L 270.879429 -327.568809 
L 273.259469 -327.852948 
L 275.63951 -328.121005 
L 278.019551 -328.371879 
L 280.399592 -328.604539 
L 282.779633 -328.818028 
L 285.159673 -329.01147 
L 287.539714 -329.18407 
L 289.919755 -329.335118 
L 292.299796 -329.463993 
L 294.679837 -329.570167 
L 297.059878 -329.653202 
L 299.439918 -329.712758 
L 301.819959 -329.74859 
L 304.2 -329.76055 
L 304.2 -384.09175 
L 304.2 -384.09175 
L 301.819959 -384.07979 
L 299.439918 -384.043958 
L 297.059878 -383.984402 
L 294.679837 -383.901367 
L 292.299796 -383.795193 
L 289.919755 -383.666318 
L 287.539714 -383.51527 
L 285.159673 -383.34267 
L 282.779633 -383.149228 
L 280.399592 -382.935739 
L 278.019551 -382.703079 
L 275.63951 -382.452205 
L 273.259469 -382.184148 
L 270.879429 -381.900009 
L 268.499388 -381.600956 
L 266.119347 -381.288217 
L 263.739306 -380.963078 
L 261.359265 -380.626875 
L 258.979224 -380.280989 
L 256.599184 -379.926842 
L 254.219143 -379.565889 
L 251.839102 -379.199613 
L 249.459061 -378.829519 
L 247.07902 -378.457129 
L 244.69898 -378.083971 
L 242.318939 -377.711581 
L 239.938898 -377.341487 
L 237.558857 -376.975211 
L 235.178816 -376.614258 
L 232.798776 -376.260111 
L 230.418735 -375.914225 
L 228.038694 -375.578022 
L 225.658653 -375.252883 
L 223.278612 -374.940144 
L 220.898571 -374.641091 
L 218.518531 -374.356952 
L 216.13849 -374.088895 
L 213.758449 -373.838021 
L 211.378408 -373.605361 
L 208.998367 -373.391872 
L 206.618327 -373.19843 
L 204.238286 -373.02583 
L 201.858245 -372.874782 
L 199.478204 -372.745907 
L 197.098163 -372.639733 
L 194.718122 -372.556698 
L 192.338082 -372.497142 
L 189.958041 -372.46131 
L 187.578 -372.44935 
z
"/>
    </defs>
    <g clip-path="url(#pdba3ff0023)">
     <use xlink:href="#m1135c64067" x="0" y="495.9025" style="fill: #c9a84c; fill-opacity: 0.25"/>
    </g>
   </g>
   <g id="FillBetweenPolyCollection_2">
    <defs>
     <path id="m8a10ebc696" d="M 187.578 -353.04535 
L 187.578 -337.52215 
L 189.958041 -337.422481 
L 192.338082 -337.123884 
L 194.718122 -336.627585 
L 197.098163 -335.935624 
L 199.478204 -335.050844 
L 201.858245 -333.976882 
L 204.238286 -332.71815 
L 206.618327 -331.27982 
L 208.998367 -329.667804 
L 211.378408 -327.888725 
L 213.758449 -325.949893 
L 216.13849 -323.859277 
L 218.518531 -321.625466 
L 220.898571 -319.25764 
L 223.278612 -316.765529 
L 225.658653 -314.159373 
L 228.038694 -311.449882 
L 230.418735 -308.64819 
L 232.798776 -305.765809 
L 235.178816 -302.814583 
L 237.558857 -299.806641 
L 239.938898 -296.754341 
L 242.318939 -293.670227 
L 244.69898 -290.566972 
L 247.07902 -287.457328 
L 249.459061 -284.354073 
L 251.839102 -281.269959 
L 254.219143 -278.217659 
L 256.599184 -275.209717 
L 258.979224 -272.258491 
L 261.359265 -269.37611 
L 263.739306 -266.574418 
L 266.119347 -263.864927 
L 268.499388 -261.258771 
L 270.879429 -258.76666 
L 273.259469 -256.398834 
L 275.63951 -254.165023 
L 278.019551 -252.074407 
L 280.399592 -250.135575 
L 282.779633 -248.356496 
L 285.159673 -246.74448 
L 287.539714 -245.30615 
L 289.919755 -244.047418 
L 292.299796 -242.973456 
L 294.679837 -242.088676 
L 297.059878 -241.396715 
L 299.439918 -240.900416 
L 301.819959 -240.601819 
L 304.2 -240.50215 
L 304.2 -256.02535 
L 304.2 -256.02535 
L 301.819959 -256.125019 
L 299.439918 -256.423616 
L 297.059878 -256.919915 
L 294.679837 -257.611876 
L 292.299796 -258.496656 
L 289.919755 -259.570618 
L 287.539714 -260.82935 
L 285.159673 -262.26768 
L 282.779633 -263.879696 
L 280.399592 -265.658775 
L 278.019551 -267.597607 
L 275.63951 -269.688223 
L 273.259469 -271.922034 
L 270.879429 -274.28986 
L 268.499388 -276.781971 
L 266.119347 -279.388127 
L 263.739306 -282.097618 
L 261.359265 -284.89931 
L 258.979224 -287.781691 
L 256.599184 -290.732917 
L 254.219143 -293.740859 
L 251.839102 -296.793159 
L 249.459061 -299.877273 
L 247.07902 -302.980528 
L 244.69898 -306.090172 
L 242.318939 -309.193427 
L 239.938898 -312.277541 
L 237.558857 -315.329841 
L 235.178816 -318.337783 
L 232.798776 -321.289009 
L 230.418735 -324.17139 
L 228.038694 -326.973082 
L 225.658653 -329.682573 
L 223.278612 -332.288729 
L 220.898571 -334.78084 
L 218.518531 -337.148666 
L 216.13849 -339.382477 
L 213.758449 -341.473093 
L 211.378408 -343.411925 
L 208.998367 -345.191004 
L 206.618327 -346.80302 
L 204.238286 -348.24135 
L 201.858245 -349.500082 
L 199.478204 -350.574044 
L 197.098163 -351.458824 
L 194.718122 -352.150785 
L 192.338082 -352.647084 
L 189.958041 -352.945681 
L 187.578 -353.04535 
z
"/>
    </defs>
    <g clip-path="url(#pdba3ff0023)">
     <use xlink:href="#m8a10ebc696" x="0" y="495.9025" style="fill: #c9a84c; fill-opacity: 0.1"/>
    </g>
   </g>
   <g id="FillBetweenPolyCollection_3">
    <defs>
     <path id="md0adeb89db" d="M 187.578 -252.14455 
L 187.578 -205.57495 
L 189.958041 -205.706513 
L 192.338082 -206.100662 
L 194.718122 -206.755776 
L 197.098163 -207.669165 
L 199.478204 -208.837074 
L 201.858245 -210.254704 
L 204.238286 -211.91623 
L 206.618327 -213.814825 
L 208.998367 -215.942687 
L 211.378408 -218.291071 
L 213.758449 -220.850329 
L 216.13849 -223.609942 
L 218.518531 -226.558573 
L 220.898571 -229.684103 
L 223.278612 -232.973689 
L 225.658653 -236.413815 
L 228.038694 -239.990343 
L 230.418735 -243.688577 
L 232.798776 -247.49332 
L 235.178816 -251.388938 
L 237.558857 -255.359423 
L 239.938898 -259.388458 
L 242.318939 -263.459488 
L 244.69898 -267.555785 
L 247.07902 -271.660515 
L 249.459061 -275.756812 
L 251.839102 -279.827842 
L 254.219143 -283.856877 
L 256.599184 -287.827362 
L 258.979224 -291.72298 
L 261.359265 -295.527723 
L 263.739306 -299.225957 
L 266.119347 -302.802485 
L 268.499388 -306.242611 
L 270.879429 -309.532197 
L 273.259469 -312.657727 
L 275.63951 -315.606358 
L 278.019551 -318.365971 
L 280.399592 -320.925229 
L 282.779633 -323.273613 
L 285.159673 -325.401475 
L 287.539714 -327.30007 
L 289.919755 -328.961596 
L 292.299796 -330.379226 
L 294.679837 -331.547135 
L 297.059878 -332.460524 
L 299.439918 -333.115638 
L 301.819959 -333.509787 
L 304.2 -333.64135 
L 304.2 -380.21095 
L 304.2 -380.21095 
L 301.819959 -380.079387 
L 299.439918 -379.685238 
L 297.059878 -379.030124 
L 294.679837 -378.116735 
L 292.299796 -376.948826 
L 289.919755 -375.531196 
L 287.539714 -373.86967 
L 285.159673 -371.971075 
L 282.779633 -369.843213 
L 280.399592 -367.494829 
L 278.019551 -364.935571 
L 275.63951 -362.175958 
L 273.259469 -359.227327 
L 270.879429 -356.101797 
L 268.499388 -352.812211 
L 266.119347 -349.372085 
L 263.739306 -345.795557 
L 261.359265 -342.097323 
L 258.979224 -338.29258 
L 256.599184 -334.396962 
L 254.219143 -330.426477 
L 251.839102 -326.397442 
L 249.459061 -322.326412 
L 247.07902 -318.230115 
L 244.69898 -314.125385 
L 242.318939 -310.029088 
L 239.938898 -305.958058 
L 237.558857 -301.929023 
L 235.178816 -297.958538 
L 232.798776 -294.06292 
L 230.418735 -290.258177 
L 228.038694 -286.559943 
L 225.658653 -282.983415 
L 223.278612 -279.543289 
L 220.898571 -276.253703 
L 218.518531 -273.128173 
L 216.13849 -270.179542 
L 213.758449 -267.419929 
L 211.378408 -264.860671 
L 208.998367 -262.512287 
L 206.618327 -260.384425 
L 204.238286 -258.48583 
L 201.858245 -256.824304 
L 199.478204 -255.406674 
L 197.098163 -254.238765 
L 194.718122 -253.325376 
L 192.338082 -252.670262 
L 189.958041 -252.276113 
L 187.578 -252.14455 
z
"/>
    </defs>
    <g clip-path="url(#pdba3ff0023)">
     <use xlink:href="#md0adeb89db" x="0" y="495.9025" style="fill: #0f1828; fill-opacity: 0.25"/>
    </g>
   </g>
   <g id="FillBetweenPolyCollection_4">
    <defs>
     <path id="mb5595c0dbb" d="M 187.578 -240.50215 
L 187.578 -217.21735 
L 189.958041 -217.125655 
L 192.338082 -216.850945 
L 194.718122 -216.39435 
L 197.098163 -215.757746 
L 199.478204 -214.943749 
L 201.858245 -213.955703 
L 204.238286 -212.79767 
L 206.618327 -211.474407 
L 208.998367 -209.991352 
L 211.378408 -208.354599 
L 213.758449 -206.570874 
L 216.13849 -204.647507 
L 218.518531 -202.592401 
L 220.898571 -200.414001 
L 223.278612 -198.121259 
L 225.658653 -195.723596 
L 228.038694 -193.230864 
L 230.418735 -190.653307 
L 232.798776 -188.001516 
L 235.178816 -185.286389 
L 237.558857 -182.519081 
L 239.938898 -179.710966 
L 242.318939 -176.873581 
L 244.69898 -174.018586 
L 247.07902 -171.157714 
L 249.459061 -168.302719 
L 251.839102 -165.465334 
L 254.219143 -162.657219 
L 256.599184 -159.889911 
L 258.979224 -157.174784 
L 261.359265 -154.522993 
L 263.739306 -151.945436 
L 266.119347 -149.452704 
L 268.499388 -147.055041 
L 270.879429 -144.762299 
L 273.259469 -142.583899 
L 275.63951 -140.528793 
L 278.019551 -138.605426 
L 280.399592 -136.821701 
L 282.779633 -135.184948 
L 285.159673 -133.701893 
L 287.539714 -132.37863 
L 289.919755 -131.220597 
L 292.299796 -130.232551 
L 294.679837 -129.418554 
L 297.059878 -128.78195 
L 299.439918 -128.325355 
L 301.819959 -128.050645 
L 304.2 -127.95895 
L 304.2 -151.24375 
L 304.2 -151.24375 
L 301.819959 -151.335445 
L 299.439918 -151.610155 
L 297.059878 -152.06675 
L 294.679837 -152.703354 
L 292.299796 -153.517351 
L 289.919755 -154.505397 
L 287.539714 -155.66343 
L 285.159673 -156.986693 
L 282.779633 -158.469748 
L 280.399592 -160.106501 
L 278.019551 -161.890226 
L 275.63951 -163.813593 
L 273.259469 -165.868699 
L 270.879429 -168.047099 
L 268.499388 -170.339841 
L 266.119347 -172.737504 
L 263.739306 -175.230236 
L 261.359265 -177.807793 
L 258.979224 -180.459584 
L 256.599184 -183.174711 
L 254.219143 -185.942019 
L 251.839102 -188.750134 
L 249.459061 -191.587519 
L 247.07902 -194.442514 
L 244.69898 -197.303386 
L 242.318939 -200.158381 
L 239.938898 -202.995766 
L 237.558857 -205.803881 
L 235.178816 -208.571189 
L 232.798776 -211.286316 
L 230.418735 -213.938107 
L 228.038694 -216.515664 
L 225.658653 -219.008396 
L 223.278612 -221.406059 
L 220.898571 -223.698801 
L 218.518531 -225.877201 
L 216.13849 -227.932307 
L 213.758449 -229.855674 
L 211.378408 -231.639399 
L 208.998367 -233.276152 
L 206.618327 -234.759207 
L 204.238286 -236.08247 
L 201.858245 -237.240503 
L 199.478204 -238.228549 
L 197.098163 -239.042546 
L 194.718122 -239.67915 
L 192.338082 -240.135745 
L 189.958041 -240.410455 
L 187.578 -240.50215 
z
"/>
    </defs>
    <g clip-path="url(#pdba3ff0023)">
     <use xlink:href="#mb5595c0dbb" x="0" y="495.9025" style="fill: #0f1828; fill-opacity: 0.2"/>
    </g>
   </g>
   <g id="FillBetweenPolyCollection_5">
    <defs>
     <path id="mfb2f5e67a2" d="M 187.578 -139.60135 
L 187.578 -85.27015 
L 189.958041 -85.409687 
L 192.338082 -85.827723 
L 194.718122 -86.522541 
L 197.098163 -87.491287 
L 199.478204 -88.729978 
L 201.858245 -90.233525 
L 204.238286 -91.99575 
L 206.618327 -94.009412 
L 208.998367 -96.266234 
L 211.378408 -98.756945 
L 213.758449 -101.471309 
L 216.13849 -104.398172 
L 218.518531 -107.525507 
L 220.898571 -110.840464 
L 223.278612 -114.329419 
L 225.658653 -117.978037 
L 228.038694 -121.771325 
L 230.418735 -125.693694 
L 232.798776 -129.729028 
L 235.178816 -133.860743 
L 237.558857 -138.071863 
L 239.938898 -142.345083 
L 242.318939 -146.662842 
L 244.69898 -151.007399 
L 247.07902 -155.360901 
L 249.459061 -159.705458 
L 251.839102 -164.023217 
L 254.219143 -168.296437 
L 256.599184 -172.507557 
L 258.979224 -176.639272 
L 261.359265 -180.674606 
L 263.739306 -184.596975 
L 266.119347 -188.390263 
L 268.499388 -192.038881 
L 270.879429 -195.527836 
L 273.259469 -198.842793 
L 275.63951 -201.970128 
L 278.019551 -204.896991 
L 280.399592 -207.611355 
L 282.779633 -210.102066 
L 285.159673 -212.358888 
L 287.539714 -214.37255 
L 289.919755 -216.134775 
L 292.299796 -217.638322 
L 294.679837 -218.877013 
L 297.059878 -219.845759 
L 299.439918 -220.540577 
L 301.819959 -220.958613 
L 304.2 -221.09815 
L 304.2 -275.42935 
L 304.2 -275.42935 
L 301.819959 -275.289813 
L 299.439918 -274.871777 
L 297.059878 -274.176959 
L 294.679837 -273.208213 
L 292.299796 -271.969522 
L 289.919755 -270.465975 
L 287.539714 -268.70375 
L 285.159673 -266.690088 
L 282.779633 -264.433266 
L 280.399592 -261.942555 
L 278.019551 -259.228191 
L 275.63951 -256.301328 
L 273.259469 -253.173993 
L 270.879429 -249.859036 
L 268.499388 -246.370081 
L 266.119347 -242.721463 
L 263.739306 -238.928175 
L 261.359265 -235.005806 
L 258.979224 -230.970472 
L 256.599184 -226.838757 
L 254.219143 -222.627637 
L 251.839102 -218.354417 
L 249.459061 -214.036658 
L 247.07902 -209.692101 
L 244.69898 -205.338599 
L 242.318939 -200.994042 
L 239.938898 -196.676283 
L 237.558857 -192.403063 
L 235.178816 -188.191943 
L 232.798776 -184.060228 
L 230.418735 -180.024894 
L 228.038694 -176.102525 
L 225.658653 -172.309237 
L 223.278612 -168.660619 
L 220.898571 -165.171664 
L 218.518531 -161.856707 
L 216.13849 -158.729372 
L 213.758449 -155.802509 
L 211.378408 -153.088145 
L 208.998367 -150.597434 
L 206.618327 -148.340612 
L 204.238286 -146.32695 
L 201.858245 -144.564725 
L 199.478204 -143.061178 
L 197.098163 -141.822487 
L 194.718122 -140.853741 
L 192.338082 -140.158923 
L 189.958041 -139.740887 
L 187.578 -139.60135 
z
"/>
    </defs>
    <g clip-path="url(#pdba3ff0023)">
     <use xlink:href="#mfb2f5e67a2" x="0" y="495.9025" style="fill: #2bc5b4; fill-opacity: 0.4"/>
    </g>
   </g>
   <g id="FillBetweenPolyCollection_6">
    <defs>
     <path id="m4af659c0c2" d="M 187.578 -120.19735 
L 187.578 -104.67415 
L 189.958041 -104.702057 
L 192.338082 -104.785665 
L 194.718122 -104.924628 
L 197.098163 -105.118377 
L 199.478204 -105.366116 
L 201.858245 -105.666825 
L 204.238286 -106.01927 
L 206.618327 -106.422002 
L 208.998367 -106.873367 
L 211.378408 -107.371509 
L 213.758449 -107.914382 
L 216.13849 -108.499754 
L 218.518531 -109.125221 
L 220.898571 -109.788213 
L 223.278612 -110.486004 
L 225.658653 -111.215727 
L 228.038694 -111.974385 
L 230.418735 -112.758859 
L 232.798776 -113.565926 
L 235.178816 -114.392269 
L 237.558857 -115.234493 
L 239.938898 -116.089137 
L 242.318939 -116.952688 
L 244.69898 -117.8216 
L 247.07902 -118.6923 
L 249.459061 -119.561212 
L 251.839102 -120.424763 
L 254.219143 -121.279407 
L 256.599184 -122.121631 
L 258.979224 -122.947974 
L 261.359265 -123.755041 
L 263.739306 -124.539515 
L 266.119347 -125.298173 
L 268.499388 -126.027896 
L 270.879429 -126.725687 
L 273.259469 -127.388679 
L 275.63951 -128.014146 
L 278.019551 -128.599518 
L 280.399592 -129.142391 
L 282.779633 -129.640533 
L 285.159673 -130.091898 
L 287.539714 -130.49463 
L 289.919755 -130.847075 
L 292.299796 -131.147784 
L 294.679837 -131.395523 
L 297.059878 -131.589272 
L 299.439918 -131.728235 
L 301.819959 -131.811843 
L 304.2 -131.83975 
L 304.2 -147.36295 
L 304.2 -147.36295 
L 301.819959 -147.335043 
L 299.439918 -147.251435 
L 297.059878 -147.112472 
L 294.679837 -146.918723 
L 292.299796 -146.670984 
L 289.919755 -146.370275 
L 287.539714 -146.01783 
L 285.159673 -145.615098 
L 282.779633 -145.163733 
L 280.399592 -144.665591 
L 278.019551 -144.122718 
L 275.63951 -143.537346 
L 273.259469 -142.911879 
L 270.879429 -142.248887 
L 268.499388 -141.551096 
L 266.119347 -140.821373 
L 263.739306 -140.062715 
L 261.359265 -139.278241 
L 258.979224 -138.471174 
L 256.599184 -137.644831 
L 254.219143 -136.802607 
L 251.839102 -135.947963 
L 249.459061 -135.084412 
L 247.07902 -134.2155 
L 244.69898 -133.3448 
L 242.318939 -132.475888 
L 239.938898 -131.612337 
L 237.558857 -130.757693 
L 235.178816 -129.915469 
L 232.798776 -129.089126 
L 230.418735 -128.282059 
L 228.038694 -127.497585 
L 225.658653 -126.738927 
L 223.278612 -126.009204 
L 220.898571 -125.311413 
L 218.518531 -124.648421 
L 216.13849 -124.022954 
L 213.758449 -123.437582 
L 211.378408 -122.894709 
L 208.998367 -122.396567 
L 206.618327 -121.945202 
L 204.238286 -121.54247 
L 201.858245 -121.190025 
L 199.478204 -120.889316 
L 197.098163 -120.641577 
L 194.718122 -120.447828 
L 192.338082 -120.308865 
L 189.958041 -120.225257 
L 187.578 -120.19735 
z
"/>
    </defs>
    <g clip-path="url(#pdba3ff0023)">
     <use xlink:href="#m4af659c0c2" x="0" y="495.9025" style="fill: #2bc5b4; fill-opacity: 0.1"/>
    </g>
   </g>
   <g id="FillBetweenPolyCollection_7">
    <defs>
     <path id="m3ce0f5151c" d="M 426.96 -372.44935 
L 426.96 -341.40295 
L 429.277408 -341.426871 
L 431.594816 -341.498534 
L 433.912224 -341.617646 
L 436.229633 -341.783716 
L 438.547041 -341.996063 
L 440.864449 -342.253814 
L 443.181857 -342.55591 
L 445.499265 -342.901109 
L 447.816673 -343.287993 
L 450.134082 -343.714972 
L 452.45149 -344.180292 
L 454.768898 -344.68204 
L 457.086306 -345.218154 
L 459.403714 -345.786432 
L 461.721122 -346.384539 
L 464.038531 -347.010016 
L 466.355939 -347.660294 
L 468.673347 -348.3327 
L 470.990755 -349.024472 
L 473.308163 -349.732766 
L 475.625571 -350.454672 
L 477.94298 -351.187224 
L 480.260388 -351.927412 
L 482.577796 -352.672193 
L 484.895204 -353.418507 
L 487.212612 -354.163288 
L 489.53002 -354.903476 
L 491.847429 -355.636028 
L 494.164837 -356.357934 
L 496.482245 -357.066228 
L 498.799653 -357.758 
L 501.117061 -358.430406 
L 503.434469 -359.080684 
L 505.751878 -359.706161 
L 508.069286 -360.304268 
L 510.386694 -360.872546 
L 512.704102 -361.40866 
L 515.02151 -361.910408 
L 517.338918 -362.375728 
L 519.656327 -362.802707 
L 521.973735 -363.189591 
L 524.291143 -363.53479 
L 526.608551 -363.836886 
L 528.925959 -364.094637 
L 531.243367 -364.306984 
L 533.560776 -364.473054 
L 535.878184 -364.592166 
L 538.195592 -364.663829 
L 540.513 -364.68775 
L 540.513 -395.73415 
L 540.513 -395.73415 
L 538.195592 -395.710229 
L 535.878184 -395.638566 
L 533.560776 -395.519454 
L 531.243367 -395.353384 
L 528.925959 -395.141037 
L 526.608551 -394.883286 
L 524.291143 -394.58119 
L 521.973735 -394.235991 
L 519.656327 -393.849107 
L 517.338918 -393.422128 
L 515.02151 -392.956808 
L 512.704102 -392.45506 
L 510.386694 -391.918946 
L 508.069286 -391.350668 
L 505.751878 -390.752561 
L 503.434469 -390.127084 
L 501.117061 -389.476806 
L 498.799653 -388.8044 
L 496.482245 -388.112628 
L 494.164837 -387.404334 
L 491.847429 -386.682428 
L 489.53002 -385.949876 
L 487.212612 -385.209688 
L 484.895204 -384.464907 
L 482.577796 -383.718593 
L 480.260388 -382.973812 
L 477.94298 -382.233624 
L 475.625571 -381.501072 
L 473.308163 -380.779166 
L 470.990755 -380.070872 
L 468.673347 -379.3791 
L 466.355939 -378.706694 
L 464.038531 -378.056416 
L 461.721122 -377.430939 
L 459.403714 -376.832832 
L 457.086306 -376.264554 
L 454.768898 -375.72844 
L 452.45149 -375.226692 
L 450.134082 -374.761372 
L 447.816673 -374.334393 
L 445.499265 -373.947509 
L 443.181857 -373.60231 
L 440.864449 -373.300214 
L 438.547041 -373.042463 
L 436.229633 -372.830116 
L 433.912224 -372.664046 
L 431.594816 -372.544934 
L 429.277408 -372.473271 
L 426.96 -372.44935 
z
"/>
    </defs>
    <g clip-path="url(#pdba3ff0023)">
     <use xlink:href="#m3ce0f5151c" x="0" y="495.9025" style="fill: #c9a84c; fill-opacity: 0.25"/>
    </g>
   </g>
   <g id="FillBetweenPolyCollection_8">
    <defs>
     <path id="m7cc509881e" d="M 426.96 -372.44935 
L 426.96 -341.40295 
L 429.277408 -341.371056 
L 431.594816 -341.275505 
L 433.912224 -341.116689 
L 436.229633 -340.895262 
L 438.547041 -340.612132 
L 440.864449 -340.268464 
L 443.181857 -339.86567 
L 445.499265 -339.405405 
L 447.816673 -338.889559 
L 450.134082 -338.320254 
L 452.45149 -337.699828 
L 454.768898 -337.030831 
L 457.086306 -336.316011 
L 459.403714 -335.558307 
L 461.721122 -334.760831 
L 464.038531 -333.926862 
L 466.355939 -333.059824 
L 468.673347 -332.163283 
L 470.990755 -331.240921 
L 473.308163 -330.296529 
L 475.625571 -329.333987 
L 477.94298 -328.357251 
L 480.260388 -327.370335 
L 482.577796 -326.377293 
L 484.895204 -325.382207 
L 487.212612 -324.389165 
L 489.53002 -323.402249 
L 491.847429 -322.425513 
L 494.164837 -321.462971 
L 496.482245 -320.518579 
L 498.799653 -319.596217 
L 501.117061 -318.699676 
L 503.434469 -317.832638 
L 505.751878 -316.998669 
L 508.069286 -316.201193 
L 510.386694 -315.443489 
L 512.704102 -314.728669 
L 515.02151 -314.059672 
L 517.338918 -313.439246 
L 519.656327 -312.869941 
L 521.973735 -312.354095 
L 524.291143 -311.89383 
L 526.608551 -311.491036 
L 528.925959 -311.147368 
L 531.243367 -310.864238 
L 533.560776 -310.642811 
L 535.878184 -310.483995 
L 538.195592 -310.388444 
L 540.513 -310.35655 
L 540.513 -341.40295 
L 540.513 -341.40295 
L 538.195592 -341.434844 
L 535.878184 -341.530395 
L 533.560776 -341.689211 
L 531.243367 -341.910638 
L 528.925959 -342.193768 
L 526.608551 -342.537436 
L 524.291143 -342.94023 
L 521.973735 -343.400495 
L 519.656327 -343.916341 
L 517.338918 -344.485646 
L 515.02151 -345.106072 
L 512.704102 -345.775069 
L 510.386694 -346.489889 
L 508.069286 -347.247593 
L 505.751878 -348.045069 
L 503.434469 -348.879038 
L 501.117061 -349.746076 
L 498.799653 -350.642617 
L 496.482245 -351.564979 
L 494.164837 -352.509371 
L 491.847429 -353.471913 
L 489.53002 -354.448649 
L 487.212612 -355.435565 
L 484.895204 -356.428607 
L 482.577796 -357.423693 
L 480.260388 -358.416735 
L 477.94298 -359.403651 
L 475.625571 -360.380387 
L 473.308163 -361.342929 
L 470.990755 -362.287321 
L 468.673347 -363.209683 
L 466.355939 -364.106224 
L 464.038531 -364.973262 
L 461.721122 -365.807231 
L 459.403714 -366.604707 
L 457.086306 -367.362411 
L 454.768898 -368.077231 
L 452.45149 -368.746228 
L 450.134082 -369.366654 
L 447.816673 -369.935959 
L 445.499265 -370.451805 
L 443.181857 -370.91207 
L 440.864449 -371.314864 
L 438.547041 -371.658532 
L 436.229633 -371.941662 
L 433.912224 -372.163089 
L 431.594816 -372.321905 
L 429.277408 -372.417456 
L 426.96 -372.44935 
z
"/>
    </defs>
    <g clip-path="url(#pdba3ff0023)">
     <use xlink:href="#m7cc509881e" x="0" y="495.9025" style="fill: #c9a84c; fill-opacity: 0.3"/>
    </g>
   </g>
   <g id="FillBetweenPolyCollection_9">
    <defs>
     <path id="m3095f44564" d="M 426.96 -368.56855 
L 426.96 -345.28375 
L 429.277408 -345.196041 
L 431.594816 -344.933276 
L 433.912224 -344.496533 
L 436.229633 -343.887607 
L 438.547041 -343.109001 
L 440.864449 -342.163914 
L 443.181857 -341.05623 
L 445.499265 -339.7905 
L 447.816673 -338.371925 
L 450.134082 -336.806336 
L 452.45149 -335.100164 
L 454.768898 -333.260422 
L 457.086306 -331.294668 
L 459.403714 -329.210981 
L 461.721122 -327.017924 
L 464.038531 -324.724507 
L 466.355939 -322.340155 
L 468.673347 -319.874665 
L 470.990755 -317.33817 
L 473.308163 -314.741091 
L 475.625571 -312.094102 
L 477.94298 -309.408078 
L 480.260388 -306.694058 
L 482.577796 -303.963193 
L 484.895204 -301.226707 
L 487.212612 -298.495842 
L 489.53002 -295.781822 
L 491.847429 -293.095798 
L 494.164837 -290.448809 
L 496.482245 -287.85173 
L 498.799653 -285.315235 
L 501.117061 -282.849745 
L 503.434469 -280.465393 
L 505.751878 -278.171976 
L 508.069286 -275.978919 
L 510.386694 -273.895232 
L 512.704102 -271.929478 
L 515.02151 -270.089736 
L 517.338918 -268.383564 
L 519.656327 -266.817975 
L 521.973735 -265.3994 
L 524.291143 -264.13367 
L 526.608551 -263.025986 
L 528.925959 -262.080899 
L 531.243367 -261.302293 
L 533.560776 -260.693367 
L 535.878184 -260.256624 
L 538.195592 -259.993859 
L 540.513 -259.90615 
L 540.513 -283.19095 
L 540.513 -283.19095 
L 538.195592 -283.278659 
L 535.878184 -283.541424 
L 533.560776 -283.978167 
L 531.243367 -284.587093 
L 528.925959 -285.365699 
L 526.608551 -286.310786 
L 524.291143 -287.41847 
L 521.973735 -288.6842 
L 519.656327 -290.102775 
L 517.338918 -291.668364 
L 515.02151 -293.374536 
L 512.704102 -295.214278 
L 510.386694 -297.180032 
L 508.069286 -299.263719 
L 505.751878 -301.456776 
L 503.434469 -303.750193 
L 501.117061 -306.134545 
L 498.799653 -308.600035 
L 496.482245 -311.13653 
L 494.164837 -313.733609 
L 491.847429 -316.380598 
L 489.53002 -319.066622 
L 487.212612 -321.780642 
L 484.895204 -324.511507 
L 482.577796 -327.247993 
L 480.260388 -329.978858 
L 477.94298 -332.692878 
L 475.625571 -335.378902 
L 473.308163 -338.025891 
L 470.990755 -340.62297 
L 468.673347 -343.159465 
L 466.355939 -345.624955 
L 464.038531 -348.009307 
L 461.721122 -350.302724 
L 459.403714 -352.495781 
L 457.086306 -354.579468 
L 454.768898 -356.545222 
L 452.45149 -358.384964 
L 450.134082 -360.091136 
L 447.816673 -361.656725 
L 445.499265 -363.0753 
L 443.181857 -364.34103 
L 440.864449 -365.448714 
L 438.547041 -366.393801 
L 436.229633 -367.172407 
L 433.912224 -367.781333 
L 431.594816 -368.218076 
L 429.277408 -368.480841 
L 426.96 -368.56855 
z
"/>
    </defs>
    <g clip-path="url(#pdba3ff0023)">
     <use xlink:href="#m3095f44564" x="0" y="495.9025" style="fill: #c9a84c; fill-opacity: 0.25"/>
    </g>
   </g>
   <g id="FillBetweenPolyCollection_10">
    <defs>
     <path id="m5fa2f019d7" d="M 426.96 -368.56855 
L 426.96 -345.28375 
L 429.277408 -345.100359 
L 431.594816 -344.55094 
L 433.912224 -343.63775 
L 436.229633 -342.364542 
L 438.547041 -340.736547 
L 440.864449 -338.760457 
L 443.181857 -336.44439 
L 445.499265 -333.797863 
L 447.816673 -330.831753 
L 450.134082 -327.558248 
L 452.45149 -323.990798 
L 454.768898 -320.144064 
L 457.086306 -316.033852 
L 459.403714 -311.677052 
L 461.721122 -307.091568 
L 464.038531 -302.296241 
L 466.355939 -297.310778 
L 468.673347 -292.155664 
L 470.990755 -286.852082 
L 473.308163 -281.421827 
L 475.625571 -275.887213 
L 477.94298 -270.270981 
L 480.260388 -264.596212 
L 482.577796 -258.886223 
L 484.895204 -253.164477 
L 487.212612 -247.454488 
L 489.53002 -241.779719 
L 491.847429 -236.163487 
L 494.164837 -230.628873 
L 496.482245 -225.198618 
L 498.799653 -219.895036 
L 501.117061 -214.739922 
L 503.434469 -209.754459 
L 505.751878 -204.959132 
L 508.069286 -200.373648 
L 510.386694 -196.016848 
L 512.704102 -191.906636 
L 515.02151 -188.059902 
L 517.338918 -184.492452 
L 519.656327 -181.218947 
L 521.973735 -178.252837 
L 524.291143 -175.60631 
L 526.608551 -173.290243 
L 528.925959 -171.314153 
L 531.243367 -169.686158 
L 533.560776 -168.41295 
L 535.878184 -167.49976 
L 538.195592 -166.950341 
L 540.513 -166.76695 
L 540.513 -190.05175 
L 540.513 -190.05175 
L 538.195592 -190.235141 
L 535.878184 -190.78456 
L 533.560776 -191.69775 
L 531.243367 -192.970958 
L 528.925959 -194.598953 
L 526.608551 -196.575043 
L 524.291143 -198.89111 
L 521.973735 -201.537637 
L 519.656327 -204.503747 
L 517.338918 -207.777252 
L 515.02151 -211.344702 
L 512.704102 -215.191436 
L 510.386694 -219.301648 
L 508.069286 -223.658448 
L 505.751878 -228.243932 
L 503.434469 -233.039259 
L 501.117061 -238.024722 
L 498.799653 -243.179836 
L 496.482245 -248.483418 
L 494.164837 -253.913673 
L 491.847429 -259.448287 
L 489.53002 -265.064519 
L 487.212612 -270.739288 
L 484.895204 -276.449277 
L 482.577796 -282.171023 
L 480.260388 -287.881012 
L 477.94298 -293.555781 
L 475.625571 -299.172013 
L 473.308163 -304.706627 
L 470.990755 -310.136882 
L 468.673347 -315.440464 
L 466.355939 -320.595578 
L 464.038531 -325.581041 
L 461.721122 -330.376368 
L 459.403714 -334.961852 
L 457.086306 -339.318652 
L 454.768898 -343.428864 
L 452.45149 -347.275598 
L 450.134082 -350.843048 
L 447.816673 -354.116553 
L 445.499265 -357.082663 
L 443.181857 -359.72919 
L 440.864449 -362.045257 
L 438.547041 -364.021347 
L 436.229633 -365.649342 
L 433.912224 -366.92255 
L 431.594816 -367.83574 
L 429.277408 -368.385159 
L 426.96 -368.56855 
z
"/>
    </defs>
    <g clip-path="url(#pdba3ff0023)">
     <use xlink:href="#m5fa2f019d7" x="0" y="495.9025" style="fill: #c9a84c; fill-opacity: 0.2"/>
    </g>
   </g>
   <g id="FillBetweenPolyCollection_11">
    <defs>
     <path id="m61c7fa2f4a" d="M 426.96 -368.56855 
L 426.96 -345.28375 
L 429.277408 -345.044544 
L 431.594816 -344.327911 
L 433.912224 -343.136793 
L 436.229633 -341.476087 
L 438.547041 -339.352616 
L 440.864449 -336.775107 
L 443.181857 -333.754149 
L 445.499265 -330.302159 
L 447.816673 -326.43332 
L 450.134082 -322.16353 
L 452.45149 -317.510334 
L 454.768898 -312.492855 
L 457.086306 -307.131709 
L 459.403714 -301.448927 
L 461.721122 -295.46786 
L 464.038531 -289.213086 
L 466.355939 -282.710308 
L 468.673347 -275.986246 
L 470.990755 -269.068531 
L 473.308163 -261.98559 
L 475.625571 -254.766527 
L 477.94298 -247.441008 
L 480.260388 -240.039135 
L 482.577796 -232.591323 
L 484.895204 -225.128177 
L 487.212612 -217.680365 
L 489.53002 -210.278492 
L 491.847429 -202.952973 
L 494.164837 -195.73391 
L 496.482245 -188.650969 
L 498.799653 -181.733254 
L 501.117061 -175.009192 
L 503.434469 -168.506414 
L 505.751878 -162.25164 
L 508.069286 -156.270573 
L 510.386694 -150.587791 
L 512.704102 -145.226645 
L 515.02151 -140.209166 
L 517.338918 -135.55597 
L 519.656327 -131.28618 
L 521.973735 -127.417341 
L 524.291143 -123.965351 
L 526.608551 -120.944393 
L 528.925959 -118.366884 
L 531.243367 -116.243413 
L 533.560776 -114.582707 
L 535.878184 -113.391589 
L 538.195592 -112.674956 
L 540.513 -112.43575 
L 540.513 -135.72055 
L 540.513 -135.72055 
L 538.195592 -135.959756 
L 535.878184 -136.676389 
L 533.560776 -137.867507 
L 531.243367 -139.528213 
L 528.925959 -141.651684 
L 526.608551 -144.229193 
L 524.291143 -147.250151 
L 521.973735 -150.702141 
L 519.656327 -154.57098 
L 517.338918 -158.84077 
L 515.02151 -163.493966 
L 512.704102 -168.511445 
L 510.386694 -173.872591 
L 508.069286 -179.555373 
L 505.751878 -185.53644 
L 503.434469 -191.791214 
L 501.117061 -198.293992 
L 498.799653 -205.018054 
L 496.482245 -211.935769 
L 494.164837 -219.01871 
L 491.847429 -226.237773 
L 489.53002 -233.563292 
L 487.212612 -240.965165 
L 484.895204 -248.412977 
L 482.577796 -255.876123 
L 480.260388 -263.323935 
L 477.94298 -270.725808 
L 475.625571 -278.051327 
L 473.308163 -285.27039 
L 470.990755 -292.353331 
L 468.673347 -299.271046 
L 466.355939 -305.995108 
L 464.038531 -312.497886 
L 461.721122 -318.75266 
L 459.403714 -324.733727 
L 457.086306 -330.416509 
L 454.768898 -335.777655 
L 452.45149 -340.795134 
L 450.134082 -345.44833 
L 447.816673 -349.71812 
L 445.499265 -353.586959 
L 443.181857 -357.038949 
L 440.864449 -360.059907 
L 438.547041 -362.637416 
L 436.229633 -364.760887 
L 433.912224 -366.421593 
L 431.594816 -367.612711 
L 429.277408 -368.329344 
L 426.96 -368.56855 
z
"/>
    </defs>
    <g clip-path="url(#pdba3ff0023)">
     <use xlink:href="#m61c7fa2f4a" x="0" y="495.9025" style="fill: #c9a84c; fill-opacity: 0.18"/>
    </g>
   </g>
   <g id="FillBetweenPolyCollection_12">
    <defs>
     <path id="m73f08828bc" d="M 426.96 -259.90615 
L 426.96 -236.62135 
L 429.277408 -236.597429 
L 431.594816 -236.525766 
L 433.912224 -236.406654 
L 436.229633 -236.240584 
L 438.547041 -236.028237 
L 440.864449 -235.770486 
L 443.181857 -235.46839 
L 445.499265 -235.123191 
L 447.816673 -234.736307 
L 450.134082 -234.309328 
L 452.45149 -233.844008 
L 454.768898 -233.34226 
L 457.086306 -232.806146 
L 459.403714 -232.237868 
L 461.721122 -231.639761 
L 464.038531 -231.014284 
L 466.355939 -230.364006 
L 468.673347 -229.6916 
L 470.990755 -228.999828 
L 473.308163 -228.291534 
L 475.625571 -227.569628 
L 477.94298 -226.837076 
L 480.260388 -226.096888 
L 482.577796 -225.352107 
L 484.895204 -224.605793 
L 487.212612 -223.861012 
L 489.53002 -223.120824 
L 491.847429 -222.388272 
L 494.164837 -221.666366 
L 496.482245 -220.958072 
L 498.799653 -220.2663 
L 501.117061 -219.593894 
L 503.434469 -218.943616 
L 505.751878 -218.318139 
L 508.069286 -217.720032 
L 510.386694 -217.151754 
L 512.704102 -216.61564 
L 515.02151 -216.113892 
L 517.338918 -215.648572 
L 519.656327 -215.221593 
L 521.973735 -214.834709 
L 524.291143 -214.48951 
L 526.608551 -214.187414 
L 528.925959 -213.929663 
L 531.243367 -213.717316 
L 533.560776 -213.551246 
L 535.878184 -213.432134 
L 538.195592 -213.360471 
L 540.513 -213.33655 
L 540.513 -236.62135 
L 540.513 -236.62135 
L 538.195592 -236.645271 
L 535.878184 -236.716934 
L 533.560776 -236.836046 
L 531.243367 -237.002116 
L 528.925959 -237.214463 
L 526.608551 -237.472214 
L 524.291143 -237.77431 
L 521.973735 -238.119509 
L 519.656327 -238.506393 
L 517.338918 -238.933372 
L 515.02151 -239.398692 
L 512.704102 -239.90044 
L 510.386694 -240.436554 
L 508.069286 -241.004832 
L 505.751878 -241.602939 
L 503.434469 -242.228416 
L 501.117061 -242.878694 
L 498.799653 -243.5511 
L 496.482245 -244.242872 
L 494.164837 -244.951166 
L 491.847429 -245.673072 
L 489.53002 -246.405624 
L 487.212612 -247.145812 
L 484.895204 -247.890593 
L 482.577796 -248.636907 
L 480.260388 -249.381688 
L 477.94298 -250.121876 
L 475.625571 -250.854428 
L 473.308163 -251.576334 
L 470.990755 -252.284628 
L 468.673347 -252.9764 
L 466.355939 -253.648806 
L 464.038531 -254.299084 
L 461.721122 -254.924561 
L 459.403714 -255.522668 
L 457.086306 -256.090946 
L 454.768898 -256.62706 
L 452.45149 -257.128808 
L 450.134082 -257.594128 
L 447.816673 -258.021107 
L 445.499265 -258.407991 
L 443.181857 -258.75319 
L 440.864449 -259.055286 
L 438.547041 -259.313037 
L 436.229633 -259.525384 
L 433.912224 -259.691454 
L 431.594816 -259.810566 
L 429.277408 -259.882229 
L 426.96 -259.90615 
z
"/>
    </defs>
    <g clip-path="url(#pdba3ff0023)">
     <use xlink:href="#m73f08828bc" x="0" y="495.9025" style="fill: #2bc5b4; fill-opacity: 0.3"/>
    </g>
   </g>
   <g id="FillBetweenPolyCollection_13">
    <defs>
     <path id="mba1cc0a086" d="M 426.96 -256.02535 
L 426.96 -240.50215 
L 429.277408 -240.526071 
L 431.594816 -240.597734 
L 433.912224 -240.716846 
L 436.229633 -240.882916 
L 438.547041 -241.095263 
L 440.864449 -241.353014 
L 443.181857 -241.65511 
L 445.499265 -242.000309 
L 447.816673 -242.387193 
L 450.134082 -242.814172 
L 452.45149 -243.279492 
L 454.768898 -243.78124 
L 457.086306 -244.317354 
L 459.403714 -244.885632 
L 461.721122 -245.483739 
L 464.038531 -246.109216 
L 466.355939 -246.759494 
L 468.673347 -247.4319 
L 470.990755 -248.123672 
L 473.308163 -248.831966 
L 475.625571 -249.553872 
L 477.94298 -250.286424 
L 480.260388 -251.026612 
L 482.577796 -251.771393 
L 484.895204 -252.517707 
L 487.212612 -253.262488 
L 489.53002 -254.002676 
L 491.847429 -254.735228 
L 494.164837 -255.457134 
L 496.482245 -256.165428 
L 498.799653 -256.8572 
L 501.117061 -257.529606 
L 503.434469 -258.179884 
L 505.751878 -258.805361 
L 508.069286 -259.403468 
L 510.386694 -259.971746 
L 512.704102 -260.50786 
L 515.02151 -261.009608 
L 517.338918 -261.474928 
L 519.656327 -261.901907 
L 521.973735 -262.288791 
L 524.291143 -262.63399 
L 526.608551 -262.936086 
L 528.925959 -263.193837 
L 531.243367 -263.406184 
L 533.560776 -263.572254 
L 535.878184 -263.691366 
L 538.195592 -263.763029 
L 540.513 -263.78695 
L 540.513 -279.31015 
L 540.513 -279.31015 
L 538.195592 -279.286229 
L 535.878184 -279.214566 
L 533.560776 -279.095454 
L 531.243367 -278.929384 
L 528.925959 -278.717037 
L 526.608551 -278.459286 
L 524.291143 -278.15719 
L 521.973735 -277.811991 
L 519.656327 -277.425107 
L 517.338918 -276.998128 
L 515.02151 -276.532808 
L 512.704102 -276.03106 
L 510.386694 -275.494946 
L 508.069286 -274.926668 
L 505.751878 -274.328561 
L 503.434469 -273.703084 
L 501.117061 -273.052806 
L 498.799653 -272.3804 
L 496.482245 -271.688628 
L 494.164837 -270.980334 
L 491.847429 -270.258428 
L 489.53002 -269.525876 
L 487.212612 -268.785688 
L 484.895204 -268.040907 
L 482.577796 -267.294593 
L 480.260388 -266.549812 
L 477.94298 -265.809624 
L 475.625571 -265.077072 
L 473.308163 -264.355166 
L 470.990755 -263.646872 
L 468.673347 -262.9551 
L 466.355939 -262.282694 
L 464.038531 -261.632416 
L 461.721122 -261.006939 
L 459.403714 -260.408832 
L 457.086306 -259.840554 
L 454.768898 -259.30444 
L 452.45149 -258.802692 
L 450.134082 -258.337372 
L 447.816673 -257.910393 
L 445.499265 -257.523509 
L 443.181857 -257.17831 
L 440.864449 -256.876214 
L 438.547041 -256.618463 
L 436.229633 -256.406116 
L 433.912224 -256.240046 
L 431.594816 -256.120934 
L 429.277408 -256.049271 
L 426.96 -256.02535 
z
"/>
    </defs>
    <g clip-path="url(#pdba3ff0023)">
     <use xlink:href="#mba1cc0a086" x="0" y="495.9025" style="fill: #2bc5b4; fill-opacity: 0.2"/>
    </g>
   </g>
   <g id="FillBetweenPolyCollection_14">
    <defs>
     <path id="m63c4593ede" d="M 426.96 -267.66775 
L 426.96 -228.85975 
L 429.277408 -228.732174 
L 431.594816 -228.349969 
L 433.912224 -227.714706 
L 436.229633 -226.828996 
L 438.547041 -225.696479 
L 440.864449 -224.321807 
L 443.181857 -222.71063 
L 445.499265 -220.869568 
L 447.816673 -218.806187 
L 450.134082 -216.528966 
L 452.45149 -214.047262 
L 454.768898 -211.371273 
L 457.086306 -208.511995 
L 459.403714 -205.481178 
L 461.721122 -202.291275 
L 464.038531 -198.955396 
L 466.355939 -195.487248 
L 468.673347 -191.901081 
L 470.990755 -188.211633 
L 473.308163 -184.434065 
L 475.625571 -180.583898 
L 477.94298 -176.676954 
L 480.260388 -172.729289 
L 482.577796 -168.757122 
L 484.895204 -164.776778 
L 487.212612 -160.804611 
L 489.53002 -156.856946 
L 491.847429 -152.950002 
L 494.164837 -149.099835 
L 496.482245 -145.322267 
L 498.799653 -141.632819 
L 501.117061 -138.046652 
L 503.434469 -134.578504 
L 505.751878 -131.242625 
L 508.069286 -128.052722 
L 510.386694 -125.021905 
L 512.704102 -122.162627 
L 515.02151 -119.486638 
L 517.338918 -117.004934 
L 519.656327 -114.727713 
L 521.973735 -112.664332 
L 524.291143 -110.82327 
L 526.608551 -109.212093 
L 528.925959 -107.837421 
L 531.243367 -106.704904 
L 533.560776 -105.819194 
L 535.878184 -105.183931 
L 538.195592 -104.801726 
L 540.513 -104.67415 
L 540.513 -143.48215 
L 540.513 -143.48215 
L 538.195592 -143.609726 
L 535.878184 -143.991931 
L 533.560776 -144.627194 
L 531.243367 -145.512904 
L 528.925959 -146.645421 
L 526.608551 -148.020093 
L 524.291143 -149.63127 
L 521.973735 -151.472332 
L 519.656327 -153.535713 
L 517.338918 -155.812934 
L 515.02151 -158.294638 
L 512.704102 -160.970627 
L 510.386694 -163.829905 
L 508.069286 -166.860722 
L 505.751878 -170.050625 
L 503.434469 -173.386504 
L 501.117061 -176.854652 
L 498.799653 -180.440819 
L 496.482245 -184.130267 
L 494.164837 -187.907835 
L 491.847429 -191.758002 
L 489.53002 -195.664946 
L 487.212612 -199.612611 
L 484.895204 -203.584778 
L 482.577796 -207.565122 
L 480.260388 -211.537289 
L 477.94298 -215.484954 
L 475.625571 -219.391898 
L 473.308163 -223.242065 
L 470.990755 -227.019633 
L 468.673347 -230.709081 
L 466.355939 -234.295248 
L 464.038531 -237.763396 
L 461.721122 -241.099275 
L 459.403714 -244.289178 
L 457.086306 -247.319995 
L 454.768898 -250.179273 
L 452.45149 -252.855262 
L 450.134082 -255.336966 
L 447.816673 -257.614187 
L 445.499265 -259.677568 
L 443.181857 -261.51863 
L 440.864449 -263.129807 
L 438.547041 -264.504479 
L 436.229633 -265.636996 
L 433.912224 -266.522706 
L 431.594816 -267.157969 
L 429.277408 -267.540174 
L 426.96 -267.66775 
z
"/>
    </defs>
    <g clip-path="url(#pdba3ff0023)">
     <use xlink:href="#m63c4593ede" x="0" y="495.9025" style="fill: #2bc5b4; fill-opacity: 0.4"/>
    </g>
   </g>
   <g id="FillBetweenPolyCollection_15">
    <defs>
     <path id="m6e055e15de" d="M 426.96 -147.36295 
L 426.96 -131.83975 
L 429.277408 -131.9753 
L 431.594816 -132.381392 
L 433.912224 -133.056359 
L 436.229633 -133.997426 
L 438.547041 -135.200726 
L 440.864449 -136.661315 
L 443.181857 -138.37319 
L 445.499265 -140.329318 
L 447.816673 -142.521661 
L 450.134082 -144.941208 
L 452.45149 -147.578019 
L 454.768898 -150.421257 
L 457.086306 -153.45924 
L 459.403714 -156.679483 
L 461.721122 -160.068754 
L 464.038531 -163.613126 
L 466.355939 -167.298034 
L 468.673347 -171.108336 
L 470.990755 -175.028374 
L 473.308163 -179.042041 
L 475.625571 -183.132843 
L 477.94298 -187.28397 
L 480.260388 -191.478365 
L 482.577796 -195.698792 
L 484.895204 -199.927908 
L 487.212612 -204.148335 
L 489.53002 -208.34273 
L 491.847429 -212.493857 
L 494.164837 -216.584659 
L 496.482245 -220.598326 
L 498.799653 -224.518364 
L 501.117061 -228.328666 
L 503.434469 -232.013574 
L 505.751878 -235.557946 
L 508.069286 -238.947217 
L 510.386694 -242.16746 
L 512.704102 -245.205443 
L 515.02151 -248.048681 
L 517.338918 -250.685492 
L 519.656327 -253.105039 
L 521.973735 -255.297382 
L 524.291143 -257.25351 
L 526.608551 -258.965385 
L 528.925959 -260.425974 
L 531.243367 -261.629274 
L 533.560776 -262.570341 
L 535.878184 -263.245308 
L 538.195592 -263.6514 
L 540.513 -263.78695 
L 540.513 -279.31015 
L 540.513 -279.31015 
L 538.195592 -279.1746 
L 535.878184 -278.768508 
L 533.560776 -278.093541 
L 531.243367 -277.152474 
L 528.925959 -275.949174 
L 526.608551 -274.488585 
L 524.291143 -272.77671 
L 521.973735 -270.820582 
L 519.656327 -268.628239 
L 517.338918 -266.208692 
L 515.02151 -263.571881 
L 512.704102 -260.728643 
L 510.386694 -257.69066 
L 508.069286 -254.470417 
L 505.751878 -251.081146 
L 503.434469 -247.536774 
L 501.117061 -243.851866 
L 498.799653 -240.041564 
L 496.482245 -236.121526 
L 494.164837 -232.107859 
L 491.847429 -228.017057 
L 489.53002 -223.86593 
L 487.212612 -219.671535 
L 484.895204 -215.451108 
L 482.577796 -211.221992 
L 480.260388 -207.001565 
L 477.94298 -202.80717 
L 475.625571 -198.656043 
L 473.308163 -194.565241 
L 470.990755 -190.551574 
L 468.673347 -186.631536 
L 466.355939 -182.821234 
L 464.038531 -179.136326 
L 461.721122 -175.591954 
L 459.403714 -172.202683 
L 457.086306 -168.98244 
L 454.768898 -165.944457 
L 452.45149 -163.101219 
L 450.134082 -160.464408 
L 447.816673 -158.044861 
L 445.499265 -155.852518 
L 443.181857 -153.89639 
L 440.864449 -152.184515 
L 438.547041 -150.723926 
L 436.229633 -149.520626 
L 433.912224 -148.579559 
L 431.594816 -147.904592 
L 429.277408 -147.4985 
L 426.96 -147.36295 
z
"/>
    </defs>
    <g clip-path="url(#pdba3ff0023)">
     <use xlink:href="#m6e055e15de" x="0" y="495.9025" style="fill: #878b95; fill-opacity: 0.15"/>
    </g>
   </g>
   <g id="FillBetweenPolyCollection_16">
    <defs>
     <path id="m01249be1ab" d="M 426.96 -147.36295 
L 426.96 -131.83975 
L 429.277408 -131.879618 
L 431.594816 -131.999057 
L 433.912224 -132.197576 
L 436.229633 -132.47436 
L 438.547041 -132.828272 
L 440.864449 -133.257857 
L 443.181857 -133.76135 
L 445.499265 -134.336682 
L 447.816673 -134.981488 
L 450.134082 -135.69312 
L 452.45149 -136.468653 
L 454.768898 -137.304899 
L 457.086306 -138.198424 
L 459.403714 -139.145554 
L 461.721122 -140.142398 
L 464.038531 -141.184861 
L 466.355939 -142.268657 
L 468.673347 -143.389334 
L 470.990755 -144.542286 
L 473.308163 -145.722777 
L 475.625571 -146.925954 
L 477.94298 -148.146874 
L 480.260388 -149.380519 
L 482.577796 -150.621821 
L 484.895204 -151.865679 
L 487.212612 -153.106981 
L 489.53002 -154.340626 
L 491.847429 -155.561546 
L 494.164837 -156.764723 
L 496.482245 -157.945214 
L 498.799653 -159.098166 
L 501.117061 -160.218843 
L 503.434469 -161.302639 
L 505.751878 -162.345102 
L 508.069286 -163.341946 
L 510.386694 -164.289076 
L 512.704102 -165.182601 
L 515.02151 -166.018847 
L 517.338918 -166.79438 
L 519.656327 -167.506012 
L 521.973735 -168.150818 
L 524.291143 -168.72615 
L 526.608551 -169.229643 
L 528.925959 -169.659228 
L 531.243367 -170.01314 
L 533.560776 -170.289924 
L 535.878184 -170.488443 
L 538.195592 -170.607882 
L 540.513 -170.64775 
L 540.513 -186.17095 
L 540.513 -186.17095 
L 538.195592 -186.131082 
L 535.878184 -186.011643 
L 533.560776 -185.813124 
L 531.243367 -185.53634 
L 528.925959 -185.182428 
L 526.608551 -184.752843 
L 524.291143 -184.24935 
L 521.973735 -183.674018 
L 519.656327 -183.029212 
L 517.338918 -182.31758 
L 515.02151 -181.542047 
L 512.704102 -180.705801 
L 510.386694 -179.812276 
L 508.069286 -178.865146 
L 505.751878 -177.868302 
L 503.434469 -176.825839 
L 501.117061 -175.742043 
L 498.799653 -174.621366 
L 496.482245 -173.468414 
L 494.164837 -172.287923 
L 491.847429 -171.084746 
L 489.53002 -169.863826 
L 487.212612 -168.630181 
L 484.895204 -167.388879 
L 482.577796 -166.145021 
L 480.260388 -164.903719 
L 477.94298 -163.670074 
L 475.625571 -162.449154 
L 473.308163 -161.245977 
L 470.990755 -160.065486 
L 468.673347 -158.912534 
L 466.355939 -157.791857 
L 464.038531 -156.708061 
L 461.721122 -155.665598 
L 459.403714 -154.668754 
L 457.086306 -153.721624 
L 454.768898 -152.828099 
L 452.45149 -151.991853 
L 450.134082 -151.21632 
L 447.816673 -150.504688 
L 445.499265 -149.859882 
L 443.181857 -149.28455 
L 440.864449 -148.781057 
L 438.547041 -148.351472 
L 436.229633 -147.99756 
L 433.912224 -147.720776 
L 431.594816 -147.522257 
L 429.277408 -147.402818 
L 426.96 -147.36295 
z
"/>
    </defs>
    <g clip-path="url(#pdba3ff0023)">
     <use xlink:href="#m01249be1ab" x="0" y="495.9025" style="fill: #878b95; fill-opacity: 0.2"/>
    </g>
   </g>
   <g id="text_1">
    <text x="58.50" y="152.93" font-family="Arial, Helvetica, sans-serif" font-size="8.5" fill="#fbf9f4">Hyperscaler capex (USD 50B+)</text>
   </g>
   <g id="text_2">
    <text x="62.87" y="269.39" font-family="Arial, Helvetica, sans-serif" font-size="8.5" fill="#fbf9f4">Indian operators (USD 30B+)</text>
   </g>
   <g id="text_3">
    <text x="57.21" y="385.81" font-family="Arial, Helvetica, sans-serif" font-size="8.5" fill="#fbf9f4">ISM fiscal support (Rs 1.65L cr)</text>
   </g>
   <g id="text_4">
    <text x="307.21" y="141.32" font-family="Arial, Helvetica, sans-serif" font-size="8.5" fill="#fbf9f4">Data centres (4.5–9 GW)</text>
   </g>
   <g id="text_5">
    <text x="309.45" y="249.98" font-family="Arial, Helvetica, sans-serif" font-size="8.5" fill="#fbf9f4">Semi fab / OSAT cluster</text>
   </g>
   <g id="text_6">
    <text x="318.10" y="358.61" font-family="Arial, Helvetica, sans-serif" font-size="8.5" fill="#fbf9f4">Power / RE / cooling</text>
   </g>
   <g id="text_7">
    <text x="539.40" y="118.00" font-family="Arial, Helvetica, sans-serif" font-size="8.5" fill="#fbf9f4">Industrial AI deployment</text>
   </g>
   <g id="text_8">
    <text x="541.87" y="172.37" font-family="Arial, Helvetica, sans-serif" font-size="8.5" fill="#fbf9f4">GCC + services revenue</text>
   </g>
   <g id="text_9">
    <text x="540.73" y="226.70" font-family="Arial, Helvetica, sans-serif" font-size="8.5" fill="#fbf9f4">Indian equipment &amp; EPC</text>
   </g>
   <g id="text_10">
    <text x="534.27" y="273.24" font-family="Arial, Helvetica, sans-serif" font-size="8.5" fill="#fbf9f4">Specialty gases / materials</text>
   </g>
   <g id="text_11">
    <text x="534.73" y="319.84" font-family="Arial, Helvetica, sans-serif" font-size="8.5" fill="#fbf9f4">Real-estate + construction</text>
   </g>
   <g id="text_12">
    <text x="527.18" y="374.17" font-family="Arial, Helvetica, sans-serif" font-size="8.5" fill="#fbf9f4">Imported (WFE, HBM, CoWoS)</text>
   </g>
   <g id="text_13">
    <text x="81.00" y="69.12" font-family="Arial, Helvetica, sans-serif" font-size="10.0" fill="#0f1828">CAPITAL SOURCES</text>
   </g>
   <g id="text_14">
    <text x="295.87" y="69.12" font-family="Arial, Helvetica, sans-serif" font-size="10.0" fill="#0f1828">INFRASTRUCTURE LAYER</text>
   </g>
   <g id="text_15">
    <text x="524.58" y="69.12" font-family="Arial, Helvetica, sans-serif" font-size="10.0" fill="#0f1828">ECONOMIC BENEFICIARIES</text>
   </g>
  </g>
  <g id="text_16">
   <text x="7.20" y="24.68" font-family="Arial, Helvetica, sans-serif" font-size="15.0" fill="#0f1828">Capital flow — from announced capex to economic beneficiaries</text>
  </g>
  <g id="text_17">
   <text x="7.20" y="33.44" font-family="Arial, Helvetica, sans-serif" font-size="10.5" font-style="italic" fill="#4a5567">Schematic Sankey; band widths approximate cumulative 2026–2030 flow magnitudes</text>
  </g>
  <g id="text_18">
   <text x="564.51" y="13.28" font-family="Arial, Helvetica, sans-serif" font-size="8.0" fill="#c0c5cc">Figure 25 · Techadyant Labs · 2026</text>
  </g>
  <g id="text_19">
   <text x="7.20" y="487.04" font-family="Arial, Helvetica, sans-serif" font-size="8.0" font-style="italic" fill="#4a5567">Source: Techadyant Labs analysis integrating CEEW DC roll-up, hyperscaler announcements, ISM project filings.</text>
  </g>
 </g>
 <defs>
  <clipPath id="pdba3ff0023">
   <rect x="58.68" y="53.59875" width="613.8" height="388.08"/>
  </clipPath>
 </defs>
</svg>
