<?xml version="1.0" encoding="UTF-8"?>
<svg xmlns="http://www.w3.org/2000/svg" version="1.1" viewBox="0 0 600 500">
  <!-- Generator: Adobe Illustrator 30.4.0, SVG Export Plug-In . SVG Version: 2.1.4 Build 226)  -->
  <defs>
    <style>
      .st0 {
        fill: #e4d3a6;
      }

      .st0, .st1, .st2, .st3, .st4, .st5, .st6, .st7, .st8, .st9, .st10, .st11, .st12, .st13 {
        isolation: isolate;
      }

      .st0, .st5, .st10, .st11, .st12 {
        opacity: .55;
        stroke: #fff;
      }

      .st14 {
        stroke: #c9a84c;
      }

      .st14, .st15 {
        fill: none;
        stroke-linecap: round;
        stroke-linejoin: round;
        stroke-width: 2px;
      }

      .st1 {
        fill: #916f1c;
      }

      .st1, .st3, .st4, .st6, .st7, .st8, .st9 {
        font-family: ArialMT, Arial;
      }

      .st1, .st4, .st9 {
        font-size: 10px;
      }

      .st16, .st7 {
        fill: #fbf9f4;
      }

      .st2, .st3 {
        font-size: 8px;
      }

      .st2, .st13 {
        fill: #4a5567;
        font-family: Arial-ItalicMT, Arial;
        font-style: italic;
      }

      .st3, .st5 {
        fill: #c0c5cc;
      }

      .st4 {
        fill: #177a6c;
      }

      .st6 {
        font-size: 15px;
      }

      .st6, .st9, .st12 {
        fill: #0f1828;
      }

      .st7, .st8 {
        font-size: 11px;
      }

      .st8 {
        fill: #231f20;
      }

      .st10 {
        fill: #c9a84c;
      }

      .st15 {
        stroke: #2bc5b4;
      }

      .st11 {
        fill: #95e2d9;
      }

      .st13 {
        font-size: 10.5px;
      }
    </style>
  </defs>
  <g id="Layer_2">
    <path class="st16" d="M-.42,500h600.42V-1.49H-.42v501.49Z"/>
  </g>
  <g id="Layer_1">
    <path class="st14" d="M282.79,269.84H79.46"/>
    <path class="st14" d="M278.79,267.84l4,2-4,2"/>
    <path class="st15" d="M522.29,269.84h-203.33"/>
    <path class="st15" d="M518.29,267.84l4,2-4,2"/>
    <path class="st5" d="M301.99,479.41c55.58,0,108.88-22.08,148.18-61.38,39.3-39.3,61.38-92.61,61.38-148.18s-22.08-108.88-61.38-148.18c-39.3-39.3-92.61-61.38-148.18-61.38s-108.88,22.08-148.18,61.38c-39.3,39.3-61.38,92.61-61.38,148.18s22.08,108.88,61.38,148.18c39.3,39.3,92.61,61.38,148.18,61.38Z"/>
    <path class="st0" d="M301.99,429.51c42.34,0,82.96-16.82,112.9-46.77s46.77-70.56,46.77-112.9-16.82-82.96-46.77-112.9-70.56-46.77-112.9-46.77-82.96,16.82-112.9,46.77-46.77,70.56-46.77,112.9,16.82,82.96,46.77,112.9,70.56,46.77,112.9,46.77Z"/>
    <path class="st11" d="M301.99,379.61c29.11,0,57.03-11.57,77.62-32.15s32.15-48.51,32.15-77.62-11.57-57.03-32.15-77.62-48.51-32.15-77.62-32.15-57.03,11.57-77.62,32.15-32.15,48.51-32.15,77.62,11.57,57.03,32.15,77.62,48.51,32.15,77.62,32.15Z"/>
    <path class="st10" d="M301.99,329.72c15.88,0,31.11-6.31,42.34-17.54s17.54-26.46,17.54-42.34-6.31-31.11-17.54-42.34-26.46-17.54-42.34-17.54-31.11,6.31-42.34,17.54-17.54,26.46-17.54,42.34,6.31,31.11,17.54,42.34,26.46,17.54,42.34,17.54Z"/>
    <path class="st12" d="M301.99,294.79c6.62,0,12.96-2.63,17.64-7.31,4.68-4.68,7.31-11.02,7.31-17.64s-2.63-12.96-7.31-17.64-11.02-7.31-17.64-7.31-12.96,2.63-17.64,7.31c-4.68,4.68-7.31,11.02-7.31,17.64s2.63,12.96,7.31,17.64,11.02,7.31,17.64,7.31Z"/>
    <text class="st7" transform="translate(280.79 271.84)"><tspan x="0" y="0">Compute</tspan></text>
    <text class="st8" transform="translate(284.79 189.57)"><tspan x="0" y="0">Power</tspan></text>
    <text class="st8" transform="translate(286.6 90.22)"><tspan x="0" y="0">Fibre</tspan></text>
    <text class="st6" transform="translate(4.68 19.38)"><tspan x="0" y="0">AI Industrial Dependency Map — four concentric rings</tspan></text>
    <text class="st13" transform="translate(3.73 39.23)"><tspan x="0" y="0">Capital flows inward, value flows outward; corridors capturing rings 2-3 capture most macro value</tspan></text>
    <text class="st3" transform="translate(461.69 13.73)"><tspan x="0" y="0">Figure 16 · Techadyant Labs · 2026</tspan></text>
    <text class="st2" transform="translate(17.03 486.27)"><tspan x="0" y="0">Source: Techadyant Labs framework.</tspan></text>
    <text class="st8" transform="translate(287.5 232.64)"><tspan x="0" y="0">Semi</tspan></text>
    <text class="st8" transform="translate(285.64 143.35)"><tspan x="0" y="0">Water</tspan></text>
  </g>
  <g id="Layer_3">
    <text class="st9" transform="translate(320.96 89.22)"><tspan x="0" y="0">4 · Second-order multiplier</tspan></text>
    <text class="st9" transform="translate(324.25 141.35)"><tspan x="0" y="0">3 · Application-layer demand</tspan></text>
    <text class="st9" transform="translate(325.96 189.69)"><tspan x="0" y="0">2 · Operational ecosystem</tspan></text>
    <text class="st9" transform="translate(325.96 232.51)"><tspan x="0" y="0">1 · Direct supply chain</tspan></text>
    <text class="st1" transform="translate(68.91 263.83)"><tspan x="0" y="0">CAPITAL FLOWS IN</tspan></text>
    <text class="st4" transform="translate(447.7 263.83)"><tspan x="0" y="0">VALUE FLOWS OUT</tspan></text>
  </g>
</svg>