<?xml version="1.0" encoding="utf-8" standalone="no"?>
<!DOCTYPE svg PUBLIC "-//W3C//DTD SVG 1.1//EN"
  "http://www.w3.org/Graphics/SVG/1.1/DTD/svg11.dtd">
<svg xmlns:xlink="http://www.w3.org/1999/xlink" width="736.253437pt" height="462.0625pt" viewBox="0 0 736.253437 462.0625" xmlns="http://www.w3.org/2000/svg" version="1.1">
 <metadata>
  <rdf:RDF xmlns:dc="http://purl.org/dc/elements/1.1/" xmlns:cc="http://creativecommons.org/ns#" xmlns:rdf="http://www.w3.org/1999/02/22-rdf-syntax-ns#">
   <cc:Work>
    <dc:type rdf:resource="http://purl.org/dc/dcmitype/StillImage"/>
    <dc:date>2026-05-28T09:01:31.583592</dc:date>
    <dc:format>image/svg+xml</dc:format>
    <dc:creator>
     <cc:Agent>
      <dc:title>Matplotlib v3.10.8, https://matplotlib.org/</dc:title>
     </cc:Agent>
    </dc:creator>
   </cc:Work>
  </rdf:RDF>
 </metadata>
 <defs>
  <style type="text/css">*{stroke-linejoin: round; stroke-linecap: butt}</style>
 </defs>
 <g id="figure_1">
  <g id="patch_1">
   <path d="M 0 462.0625 
L 736.253437 462.0625 
L 736.253437 0 
L 0 0 
z
" style="fill: #fbf9f4"/>
  </g>
  <g id="axes_1">
   <g id="patch_2">
    <path d="M 47.933438 406.39875 
L 657.773438 406.39875 
L 657.773438 64.75875 
L 47.933438 64.75875 
z
" style="fill: #fbf9f4"/>
   </g>
   <g id="matplotlib.axis_1">
    <g id="xtick_1">
     <g id="line2d_1">
      <path d="M 47.933438 406.39875 
L 47.933438 64.75875 
" clip-path="url(#p8d17470ec7)" style="fill: none; stroke-dasharray: 2.96,1.28; stroke-dashoffset: 0; stroke: #c0c5cc; stroke-opacity: 0.4; stroke-width: 0.8"/>
     </g>
     <g id="line2d_2">
      <defs>
       <path id="m915a476800" d="M 0 0 
L 0 3.5 
" style="stroke: #4a5567; stroke-width: 0.8"/>
      </defs>
      <g>
       <use xlink:href="#m915a476800" x="47.933438" y="406.39875" style="fill: #4a5567; stroke: #4a5567; stroke-width: 0.8"/>
      </g>
     </g>
     <g id="text_1">
      <text x="35.21" y="421.00" font-family="Arial, Helvetica, sans-serif" font-size="10.0" fill="#4a5567">2020</text>
     </g>
    </g>
    <g id="xtick_2">
     <g id="line2d_3">
      <path d="M 115.693437 406.39875 
L 115.693437 64.75875 
" clip-path="url(#p8d17470ec7)" style="fill: none; stroke-dasharray: 2.96,1.28; stroke-dashoffset: 0; stroke: #c0c5cc; stroke-opacity: 0.4; stroke-width: 0.8"/>
     </g>
     <g id="line2d_4">
      <g>
       <use xlink:href="#m915a476800" x="115.693437" y="406.39875" style="fill: #4a5567; stroke: #4a5567; stroke-width: 0.8"/>
      </g>
     </g>
     <g id="text_2">
      <text x="102.97" y="421.00" font-family="Arial, Helvetica, sans-serif" font-size="10.0" fill="#4a5567">2022</text>
     </g>
    </g>
    <g id="xtick_3">
     <g id="line2d_5">
      <path d="M 183.453438 406.39875 
L 183.453438 64.75875 
" clip-path="url(#p8d17470ec7)" style="fill: none; stroke-dasharray: 2.96,1.28; stroke-dashoffset: 0; stroke: #c0c5cc; stroke-opacity: 0.4; stroke-width: 0.8"/>
     </g>
     <g id="line2d_6">
      <g>
       <use xlink:href="#m915a476800" x="183.453438" y="406.39875" style="fill: #4a5567; stroke: #4a5567; stroke-width: 0.8"/>
      </g>
     </g>
     <g id="text_3">
      <text x="170.73" y="421.00" font-family="Arial, Helvetica, sans-serif" font-size="10.0" fill="#4a5567">2024</text>
     </g>
    </g>
    <g id="xtick_4">
     <g id="line2d_7">
      <path d="M 251.213438 406.39875 
L 251.213438 64.75875 
" clip-path="url(#p8d17470ec7)" style="fill: none; stroke-dasharray: 2.96,1.28; stroke-dashoffset: 0; stroke: #c0c5cc; stroke-opacity: 0.4; stroke-width: 0.8"/>
     </g>
     <g id="line2d_8">
      <g>
       <use xlink:href="#m915a476800" x="251.213438" y="406.39875" style="fill: #4a5567; stroke: #4a5567; stroke-width: 0.8"/>
      </g>
     </g>
     <g id="text_4">
      <text x="238.49" y="421.00" font-family="Arial, Helvetica, sans-serif" font-size="10.0" fill="#4a5567">2026</text>
     </g>
    </g>
    <g id="xtick_5">
     <g id="line2d_9">
      <path d="M 318.973437 406.39875 
L 318.973437 64.75875 
" clip-path="url(#p8d17470ec7)" style="fill: none; stroke-dasharray: 2.96,1.28; stroke-dashoffset: 0; stroke: #c0c5cc; stroke-opacity: 0.4; stroke-width: 0.8"/>
     </g>
     <g id="line2d_10">
      <g>
       <use xlink:href="#m915a476800" x="318.973437" y="406.39875" style="fill: #4a5567; stroke: #4a5567; stroke-width: 0.8"/>
      </g>
     </g>
     <g id="text_5">
      <text x="306.25" y="421.00" font-family="Arial, Helvetica, sans-serif" font-size="10.0" fill="#4a5567">2028</text>
     </g>
    </g>
    <g id="xtick_6">
     <g id="line2d_11">
      <path d="M 386.733438 406.39875 
L 386.733438 64.75875 
" clip-path="url(#p8d17470ec7)" style="fill: none; stroke-dasharray: 2.96,1.28; stroke-dashoffset: 0; stroke: #c0c5cc; stroke-opacity: 0.4; stroke-width: 0.8"/>
     </g>
     <g id="line2d_12">
      <g>
       <use xlink:href="#m915a476800" x="386.733438" y="406.39875" style="fill: #4a5567; stroke: #4a5567; stroke-width: 0.8"/>
      </g>
     </g>
     <g id="text_6">
      <text x="374.01" y="421.00" font-family="Arial, Helvetica, sans-serif" font-size="10.0" fill="#4a5567">2030</text>
     </g>
    </g>
    <g id="xtick_7">
     <g id="line2d_13">
      <path d="M 454.493438 406.39875 
L 454.493438 64.75875 
" clip-path="url(#p8d17470ec7)" style="fill: none; stroke-dasharray: 2.96,1.28; stroke-dashoffset: 0; stroke: #c0c5cc; stroke-opacity: 0.4; stroke-width: 0.8"/>
     </g>
     <g id="line2d_14">
      <g>
       <use xlink:href="#m915a476800" x="454.493438" y="406.39875" style="fill: #4a5567; stroke: #4a5567; stroke-width: 0.8"/>
      </g>
     </g>
     <g id="text_7">
      <text x="441.77" y="421.00" font-family="Arial, Helvetica, sans-serif" font-size="10.0" fill="#4a5567">2032</text>
     </g>
    </g>
    <g id="xtick_8">
     <g id="line2d_15">
      <path d="M 522.253437 406.39875 
L 522.253437 64.75875 
" clip-path="url(#p8d17470ec7)" style="fill: none; stroke-dasharray: 2.96,1.28; stroke-dashoffset: 0; stroke: #c0c5cc; stroke-opacity: 0.4; stroke-width: 0.8"/>
     </g>
     <g id="line2d_16">
      <g>
       <use xlink:href="#m915a476800" x="522.253437" y="406.39875" style="fill: #4a5567; stroke: #4a5567; stroke-width: 0.8"/>
      </g>
     </g>
     <g id="text_8">
      <text x="509.53" y="421.00" font-family="Arial, Helvetica, sans-serif" font-size="10.0" fill="#4a5567">2034</text>
     </g>
    </g>
    <g id="xtick_9">
     <g id="line2d_17">
      <path d="M 590.013438 406.39875 
L 590.013438 64.75875 
" clip-path="url(#p8d17470ec7)" style="fill: none; stroke-dasharray: 2.96,1.28; stroke-dashoffset: 0; stroke: #c0c5cc; stroke-opacity: 0.4; stroke-width: 0.8"/>
     </g>
     <g id="line2d_18">
      <g>
       <use xlink:href="#m915a476800" x="590.013438" y="406.39875" style="fill: #4a5567; stroke: #4a5567; stroke-width: 0.8"/>
      </g>
     </g>
     <g id="text_9">
      <text x="577.29" y="421.00" font-family="Arial, Helvetica, sans-serif" font-size="10.0" fill="#4a5567">2036</text>
     </g>
    </g>
    <g id="xtick_10">
     <g id="line2d_19">
      <path d="M 657.773438 406.39875 
L 657.773438 64.75875 
" clip-path="url(#p8d17470ec7)" style="fill: none; stroke-dasharray: 2.96,1.28; stroke-dashoffset: 0; stroke: #c0c5cc; stroke-opacity: 0.4; stroke-width: 0.8"/>
     </g>
     <g id="line2d_20">
      <g>
       <use xlink:href="#m915a476800" x="657.773438" y="406.39875" style="fill: #4a5567; stroke: #4a5567; stroke-width: 0.8"/>
      </g>
     </g>
     <g id="text_10">
      <text x="645.05" y="421.00" font-family="Arial, Helvetica, sans-serif" font-size="10.0" fill="#4a5567">2038</text>
     </g>
    </g>
    <g id="text_11">
     <text x="341.21" y="435.44" font-family="Arial, Helvetica, sans-serif" font-size="11.0" fill="#0f1828">Year</text>
    </g>
   </g>
   <g id="matplotlib.axis_2">
    <g id="ytick_1">
     <g id="line2d_21">
      <path d="M 47.933438 406.39875 
L 657.773438 406.39875 
" clip-path="url(#p8d17470ec7)" style="fill: none; stroke-dasharray: 2.96,1.28; stroke-dashoffset: 0; stroke: #c0c5cc; stroke-opacity: 0.4; stroke-width: 0.8"/>
     </g>
     <g id="line2d_22">
      <defs>
       <path id="m97d505ed86" d="M 0 0 
L -3.5 0 
" style="stroke: #4a5567; stroke-width: 0.8"/>
      </defs>
      <g>
       <use xlink:href="#m97d505ed86" x="47.933438" y="406.39875" style="fill: #4a5567; stroke: #4a5567; stroke-width: 0.8"/>
      </g>
     </g>
     <g id="text_12">
      <text x="34.57" y="410.20" font-family="Arial, Helvetica, sans-serif" font-size="10.0" fill="#4a5567">0</text>
     </g>
    </g>
    <g id="ytick_2">
     <g id="line2d_23">
      <path d="M 47.933438 341.324464 
L 657.773438 341.324464 
" clip-path="url(#p8d17470ec7)" style="fill: none; stroke-dasharray: 2.96,1.28; stroke-dashoffset: 0; stroke: #c0c5cc; stroke-opacity: 0.4; stroke-width: 0.8"/>
     </g>
     <g id="line2d_24">
      <g>
       <use xlink:href="#m97d505ed86" x="47.933438" y="341.324464" style="fill: #4a5567; stroke: #4a5567; stroke-width: 0.8"/>
      </g>
     </g>
     <g id="text_13">
      <text x="28.21" y="345.12" font-family="Arial, Helvetica, sans-serif" font-size="10.0" fill="#4a5567">20</text>
     </g>
    </g>
    <g id="ytick_3">
     <g id="line2d_25">
      <path d="M 47.933438 276.250179 
L 657.773438 276.250179 
" clip-path="url(#p8d17470ec7)" style="fill: none; stroke-dasharray: 2.96,1.28; stroke-dashoffset: 0; stroke: #c0c5cc; stroke-opacity: 0.4; stroke-width: 0.8"/>
     </g>
     <g id="line2d_26">
      <g>
       <use xlink:href="#m97d505ed86" x="47.933438" y="276.250179" style="fill: #4a5567; stroke: #4a5567; stroke-width: 0.8"/>
      </g>
     </g>
     <g id="text_14">
      <text x="28.21" y="280.05" font-family="Arial, Helvetica, sans-serif" font-size="10.0" fill="#4a5567">40</text>
     </g>
    </g>
    <g id="ytick_4">
     <g id="line2d_27">
      <path d="M 47.933438 211.175893 
L 657.773438 211.175893 
" clip-path="url(#p8d17470ec7)" style="fill: none; stroke-dasharray: 2.96,1.28; stroke-dashoffset: 0; stroke: #c0c5cc; stroke-opacity: 0.4; stroke-width: 0.8"/>
     </g>
     <g id="line2d_28">
      <g>
       <use xlink:href="#m97d505ed86" x="47.933438" y="211.175893" style="fill: #4a5567; stroke: #4a5567; stroke-width: 0.8"/>
      </g>
     </g>
     <g id="text_15">
      <text x="28.21" y="214.98" font-family="Arial, Helvetica, sans-serif" font-size="10.0" fill="#4a5567">60</text>
     </g>
    </g>
    <g id="ytick_5">
     <g id="line2d_29">
      <path d="M 47.933438 146.101607 
L 657.773438 146.101607 
" clip-path="url(#p8d17470ec7)" style="fill: none; stroke-dasharray: 2.96,1.28; stroke-dashoffset: 0; stroke: #c0c5cc; stroke-opacity: 0.4; stroke-width: 0.8"/>
     </g>
     <g id="line2d_30">
      <g>
       <use xlink:href="#m97d505ed86" x="47.933438" y="146.101607" style="fill: #4a5567; stroke: #4a5567; stroke-width: 0.8"/>
      </g>
     </g>
     <g id="text_16">
      <text x="28.21" y="149.90" font-family="Arial, Helvetica, sans-serif" font-size="10.0" fill="#4a5567">80</text>
     </g>
    </g>
    <g id="ytick_6">
     <g id="line2d_31">
      <path d="M 47.933438 81.027321 
L 657.773438 81.027321 
" clip-path="url(#p8d17470ec7)" style="fill: none; stroke-dasharray: 2.96,1.28; stroke-dashoffset: 0; stroke: #c0c5cc; stroke-opacity: 0.4; stroke-width: 0.8"/>
     </g>
     <g id="line2d_32">
      <g>
       <use xlink:href="#m97d505ed86" x="47.933438" y="81.027321" style="fill: #4a5567; stroke: #4a5567; stroke-width: 0.8"/>
      </g>
     </g>
     <g id="text_17">
      <text x="21.85" y="84.83" font-family="Arial, Helvetica, sans-serif" font-size="10.0" fill="#4a5567">100</text>
     </g>
    </g>
    <g id="text_18">
     <text x="15.56" y="393.41" transform="rotate(-90.0 15.56 393.41)" font-family="Arial, Helvetica, sans-serif" font-size="11.0" fill="#0f1828">Adoption (% of sector firms with production AI use cases)</text>
    </g>
   </g>
   <g id="line2d_33">
    <path d="M 47.933438 399.451238 
L 58.304866 397.443304 
L 68.676295 394.876047 
L 79.047723 391.607238 
L 89.419152 387.467056 
L 99.79058 382.258101 
L 110.162009 375.759231 
L 120.533437 367.735366 
L 130.904866 357.955589 
L 141.276295 346.221271 
L 151.647723 332.404046 
L 162.019152 316.489866 
L 172.39058 298.620481 
L 182.762009 279.119342 
L 193.133438 258.48823 
L 203.504866 237.366535 
L 213.876295 216.456969 
L 224.247723 196.434599 
L 234.619152 177.86325 
L 244.99058 161.140127 
L 255.362009 146.47791 
L 265.733438 133.920442 
L 276.104866 123.379694 
L 286.476295 114.680109 
L 296.847723 107.599725 
L 307.219152 101.90242 
L 317.59058 97.359886 
L 327.962009 93.764483 
L 338.333438 90.935187 
L 348.704866 88.718898 
L 359.076295 86.989001 
L 369.447723 85.64252 
L 379.819152 84.596751 
L 390.19058 83.785908 
L 400.562009 83.158038 
L 410.933438 82.672347 
L 421.304866 82.296933 
L 431.676295 82.006933 
L 442.047723 81.78302 
L 452.419152 81.610195 
L 462.79058 81.47684 
L 473.162009 81.373962 
L 483.533438 81.29461 
L 493.904866 81.233412 
L 504.276295 81.186218 
L 514.647723 81.149828 
L 525.019152 81.121769 
L 535.39058 81.100135 
L 545.762009 81.083456 
L 556.133438 81.070597 
" clip-path="url(#p8d17470ec7)" style="fill: none; stroke: #0f1828; stroke-width: 2.2; stroke-linecap: square"/>
   </g>
   <g id="line2d_34">
    <path d="M 47.933438 395.890729 
L 58.304866 392.897386 
L 68.676295 389.098204 
L 79.047723 384.305694 
L 89.419152 378.306647 
L 99.79058 370.869479 
L 110.162009 361.759034 
L 120.533437 350.76092 
L 130.904866 337.716078 
L 141.276295 322.563348 
L 151.647723 305.383208 
L 162.019152 286.431065 
L 172.39058 266.146004 
L 182.762009 245.12405 
L 193.133438 224.054866 
L 203.504866 203.634284 
L 213.876295 184.475182 
L 224.247723 167.03996 
L 234.619152 151.608703 
L 244.99058 138.28368 
L 255.362009 127.020179 
L 265.733438 117.66962 
L 276.104866 110.022775 
L 286.476295 103.845625 
L 296.847723 98.905065 
L 307.219152 94.984874 
L 317.59058 91.893916 
L 327.962009 89.468908 
L 338.333438 87.573804 
L 348.704866 86.097338 
L 359.076295 84.949771 
L 369.447723 84.05949 
L 379.819152 83.369804 
L 390.19058 82.836111 
L 400.562009 82.423485 
L 410.933438 82.104675 
L 421.304866 81.858478 
L 431.676295 81.66843 
L 442.047723 81.521772 
L 452.419152 81.408623 
L 462.79058 81.321344 
L 473.162009 81.254028 
L 483.533438 81.202116 
L 493.904866 81.162086 
L 504.276295 81.131221 
L 514.647723 81.107423 
L 525.019152 81.089075 
L 535.39058 81.074929 
L 545.762009 81.064023 
L 556.133438 81.055615 
" clip-path="url(#p8d17470ec7)" style="fill: none; stroke: #c9a84c; stroke-width: 2.2; stroke-linecap: square"/>
   </g>
   <g id="line2d_35">
    <path d="M 47.933438 403.993754 
L 58.304866 403.42427 
L 68.676295 402.721472 
L 79.047723 401.854961 
L 89.419152 400.787827 
L 99.79058 399.47548 
L 110.162009 397.864377 
L 120.533437 395.890729 
L 130.904866 393.479268 
L 141.276295 390.542277 
L 151.647723 386.979114 
L 162.019152 382.676629 
L 172.39058 377.510918 
L 182.762009 371.351022 
L 193.133438 364.06517 
L 203.504866 355.530088 
L 213.876295 345.643583 
L 224.247723 334.34 
L 234.619152 321.607254 
L 244.99058 307.503009 
L 255.362009 292.166636 
L 265.733438 275.823181 
L 276.104866 258.776297 
L 286.476295 241.389112 
L 296.847723 224.054866 
L 307.219152 207.162058 
L 317.59058 191.060466 
L 327.962009 176.034165 
L 338.333438 162.285548 
L 348.704866 149.931415 
L 359.076295 139.009421 
L 369.447723 129.491522 
L 379.819152 121.300687 
L 390.19058 114.327693 
L 400.562009 108.445903 
L 410.933438 103.522988 
L 421.304866 99.429375 
L 431.676295 96.043758 
L 442.047723 93.256213 
L 452.419152 90.969552 
L 462.79058 89.099448 
L 473.162009 87.573804 
L 483.533438 86.331689 
L 493.904866 85.322075 
L 504.276295 84.502541 
L 514.647723 83.838023 
L 525.019152 83.299675 
L 535.39058 82.863852 
L 545.762009 82.511234 
L 556.133438 82.226068 
" clip-path="url(#p8d17470ec7)" style="fill: none; stroke: #2bc5b4; stroke-width: 2.2; stroke-linecap: square"/>
   </g>
   <g id="line2d_36">
    <path d="M 47.933438 403.742883 
L 58.304866 403.212641 
L 68.676295 402.577791 
L 79.047723 401.818242 
L 89.419152 400.910283 
L 99.79058 399.826033 
L 110.162009 398.532857 
L 120.533437 396.992756 
L 130.904866 395.161784 
L 141.276295 392.98952 
L 151.647723 390.418689 
L 162.019152 387.385017 
L 172.39058 383.817462 
L 182.762009 379.638995 
L 193.133438 374.76811 
L 203.504866 369.121294 
L 213.876295 362.616643 
L 224.247723 355.178771 
L 234.619152 346.745009 
L 244.99058 337.272713 
L 255.362009 326.747196 
L 265.733438 315.189468 
L 276.104866 302.662684 
L 286.476295 289.275985 
L 296.847723 275.184515 
L 307.219152 260.584751 
L 317.59058 245.705006 
L 327.962009 230.791854 
L 338.333438 216.094081 
L 348.704866 201.846333 
L 359.076295 188.254695 
L 369.447723 175.485994 
L 379.819152 163.66182 
L 390.19058 152.857351 
L 400.562009 143.104291 
L 410.933438 134.396746 
L 421.304866 126.698742 
L 431.676295 119.9522 
L 442.047723 114.084466 
L 452.419152 109.014839 
L 462.79058 104.659833 
L 473.162009 100.937119 
L 483.533438 97.76829 
L 493.904866 95.080606 
L 504.276295 92.807947 
L 514.647723 90.891172 
L 525.019152 89.278061 
L 535.39058 87.922989 
L 545.762009 86.786427 
L 556.133438 85.834369 
" clip-path="url(#p8d17470ec7)" style="fill: none; stroke: #878b95; stroke-width: 2.2; stroke-linecap: square"/>
   </g>
   <g id="line2d_37">
    <path d="M 47.933438 403.933332 
L 58.304866 403.395563 
L 68.676295 402.741821 
L 79.047723 401.947736 
L 89.419152 400.984121 
L 99.79058 399.816169 
L 110.162009 398.402582 
L 120.533437 396.694673 
L 130.904866 394.635491 
L 141.276295 392.159065 
L 151.647723 389.189906 
L 162.019152 385.64294 
L 172.39058 381.424146 
L 182.762009 376.432205 
L 193.133438 370.561507 
L 203.504866 363.706905 
L 213.876295 355.770478 
L 224.247723 346.670406 
L 234.619152 336.351683 
L 244.99058 324.797894 
L 255.362009 312.042651 
L 265.733438 298.178737 
L 276.104866 283.362682 
L 286.476295 267.812745 
L 296.847723 251.799151 
L 307.219152 235.62692 
L 317.59058 219.613326 
L 327.962009 204.063389 
L 338.333438 189.247334 
L 348.704866 175.38342 
L 359.076295 162.628177 
L 369.447723 151.074388 
L 379.819152 140.755665 
L 390.19058 131.655593 
L 400.562009 123.719166 
L 410.933438 116.864564 
L 421.304866 110.993867 
L 431.676295 106.001925 
L 442.047723 101.783132 
L 452.419152 98.236165 
L 462.79058 95.267006 
L 473.162009 92.790581 
L 483.533438 90.731399 
L 493.904866 89.023489 
L 504.276295 87.609902 
L 514.647723 86.44195 
L 525.019152 85.478335 
L 535.39058 84.68425 
L 545.762009 84.030509 
L 556.133438 83.492739 
" clip-path="url(#p8d17470ec7)" style="fill: none; stroke: #e4d3a6; stroke-width: 2.2; stroke-linecap: square"/>
   </g>
   <g id="line2d_38">
    <path d="M 47.933438 403.392525 
L 58.304866 402.847287 
L 68.676295 402.204446 
L 79.047723 401.447036 
L 89.419152 400.555341 
L 99.79058 399.506525 
L 110.162009 398.274247 
L 120.533437 396.828268 
L 130.904866 395.134075 
L 141.276295 393.152551 
L 151.647723 390.839731 
L 162.019152 388.146701 
L 172.39058 385.019714 
L 182.762009 381.400608 
L 193.133438 377.22764 
L 203.504866 372.436835 
L 213.876295 366.963982 
L 224.247723 360.747357 
L 234.619152 353.731233 
L 244.99058 345.870142 
L 255.362009 337.133733 
L 265.733438 327.51195 
L 276.104866 317.020035 
L 286.476295 305.702769 
L 296.847723 293.637211 
L 307.219152 280.933269 
L 317.59058 267.731558 
L 327.962009 254.19835 
L 338.333438 240.517834 
L 348.704866 226.882377 
L 359.076295 213.481827 
L 369.447723 200.493126 
L 379.819152 188.071381 
L 390.19058 176.343331 
L 400.562009 165.403644 
L 410.933438 155.3141 
L 421.304866 146.105245 
L 431.676295 137.779925 
L 442.047723 130.317968 
L 452.419152 123.681334 
L 462.79058 117.819193 
L 473.162009 112.672534 
L 483.533438 108.178084 
L 493.904866 104.271449 
L 504.276295 100.88949 
L 514.647723 97.971999 
L 525.019152 95.4628 
L 535.39058 93.310371 
L 545.762009 91.468107 
L 556.133438 89.894328 
" clip-path="url(#p8d17470ec7)" style="fill: none; stroke: #95e2d9; stroke-width: 2.2; stroke-linecap: square"/>
   </g>
   <g id="line2d_39">
    <path d="M 47.933438 403.160718 
L 58.304866 402.743665 
L 68.676295 402.273585 
L 79.047723 401.743923 
L 89.419152 401.147364 
L 99.79058 400.475764 
L 110.162009 399.720064 
L 120.533437 398.870218 
L 130.904866 397.91511 
L 141.276295 396.842476 
L 151.647723 395.638827 
L 162.019152 394.289388 
L 172.39058 392.778037 
L 182.762009 391.087277 
L 193.133438 389.19822 
L 203.504866 387.090613 
L 213.876295 384.742906 
L 224.247723 382.13237 
L 234.619152 379.235288 
L 244.99058 376.027221 
L 255.362009 372.483364 
L 265.733438 368.57901 
L 276.104866 364.290123 
L 286.476295 359.594029 
L 296.847723 354.470221 
L 307.219152 348.901275 
L 317.59058 342.873846 
L 327.962009 336.379724 
L 338.333438 329.416892 
L 348.704866 321.990538 
L 359.076295 314.113942 
L 369.447723 305.809166 
L 379.819152 297.10746 
L 390.19058 288.04933 
L 400.562009 278.684184 
L 410.933438 269.06956 
L 421.304866 259.269904 
L 431.676295 249.35497 
L 442.047723 239.397897 
L 452.419152 229.473069 
L 462.79058 219.653918 
L 473.162009 210.010765 
L 483.533438 200.608866 
L 493.904866 191.506759 
L 504.276295 182.75499 
L 514.647723 174.395281 
L 525.019152 166.460122 
L 535.39058 158.972783 
L 545.762009 151.94768 
L 556.133438 145.391032 
" clip-path="url(#p8d17470ec7)" style="fill: none; stroke: #4a5567; stroke-width: 2.2; stroke-linecap: square"/>
   </g>
   <g id="line2d_40">
    <path d="M 47.933438 399.943281 
L 58.304866 399.335835 
L 68.676295 398.672615 
L 79.047723 397.948769 
L 89.419152 397.159081 
L 99.79058 396.297946 
L 110.162009 395.359355 
L 120.533437 394.336885 
L 130.904866 393.223682 
L 141.276295 392.012459 
L 151.647723 390.695485 
L 162.019152 389.264593 
L 172.39058 387.711186 
L 182.762009 386.026253 
L 193.133438 384.200396 
L 203.504866 382.22387 
L 213.876295 380.08663 
L 224.247723 377.778396 
L 234.619152 375.288736 
L 244.99058 372.607164 
L 255.362009 369.723259 
L 265.733438 366.626802 
L 276.104866 363.307937 
L 286.476295 359.757349 
L 296.847723 355.966471 
L 307.219152 351.927693 
L 317.59058 347.634608 
L 327.962009 343.082249 
L 338.333438 338.267351 
L 348.704866 333.188594 
L 359.076295 327.846856 
L 369.447723 322.245434 
L 379.819152 316.390244 
L 390.19058 310.28998 
L 400.562009 303.956227 
L 410.933438 297.403509 
L 421.304866 290.649277 
L 431.676295 283.713812 
L 442.047723 276.620065 
L 452.419152 269.393402 
L 462.79058 262.061287 
L 473.162009 254.652886 
L 483.533438 247.198625 
L 493.904866 239.729692 
L 504.276295 232.277524 
L 514.647723 224.873273 
L 525.019152 217.547297 
L 535.39058 210.328662 
L 545.762009 203.244703 
L 556.133438 196.320635 
" clip-path="url(#p8d17470ec7)" style="fill: none; stroke: #c8443b; stroke-width: 2.2; stroke-linecap: square"/>
   </g>
   <g id="line2d_41">
    <path d="M 251.213438 406.39875 
L 251.213438 64.75875 
" clip-path="url(#p8d17470ec7)" style="fill: none; stroke-dasharray: 3.7,1.6; stroke-dashoffset: 0; stroke: #c0c5cc"/>
   </g>
   <g id="patch_3">
    <path d="M 47.933438 406.39875 
L 47.933438 64.75875 
" style="fill: none; stroke: #0f1828; stroke-width: 0.8; stroke-linejoin: miter; stroke-linecap: square"/>
   </g>
   <g id="patch_4">
    <path d="M 47.933438 406.39875 
L 657.773438 406.39875 
" style="fill: none; stroke: #0f1828; stroke-width: 0.8; stroke-linejoin: miter; stroke-linecap: square"/>
   </g>
   <g id="text_19">
    <text x="566.30" y="83.55" font-family="Arial, Helvetica, sans-serif" font-size="9.0" fill="#0f1828">BFSI / fintech</text>
   </g>
   <g id="text_20">
    <text x="566.30" y="83.54" font-family="Arial, Helvetica, sans-serif" font-size="9.0" fill="#c9a84c">Tier-1 IT-services / GCCs</text>
   </g>
   <g id="text_21">
    <text x="566.30" y="84.71" font-family="Arial, Helvetica, sans-serif" font-size="9.0" fill="#2bc5b4">Auto / OEMs</text>
   </g>
   <g id="text_22">
    <text x="566.30" y="88.32" font-family="Arial, Helvetica, sans-serif" font-size="9.0" fill="#878b95">Pharma</text>
   </g>
   <g id="text_23">
    <text x="566.30" y="85.94" font-family="Arial, Helvetica, sans-serif" font-size="9.0" fill="#e4d3a6">Manufacturing (Tier-1)</text>
   </g>
   <g id="text_24">
    <text x="566.30" y="92.34" font-family="Arial, Helvetica, sans-serif" font-size="9.0" fill="#95e2d9">Logistics</text>
   </g>
   <g id="text_25">
    <text x="566.30" y="147.84" font-family="Arial, Helvetica, sans-serif" font-size="9.0" fill="#4a5567">MSME / long tail</text>
   </g>
   <g id="text_26">
    <text x="566.30" y="198.77" font-family="Arial, Helvetica, sans-serif" font-size="9.0" fill="#c8443b">Agriculture / informal</text>
   </g>
   <g id="text_27">
    <text x="254.60" y="103.75" font-family="Arial, Helvetica, sans-serif" font-size="8.5" font-style="italic" fill="#4a5567">Present</text>
    <text x="254.60" y="113.27" font-family="Arial, Helvetica, sans-serif" font-size="8.5" font-style="italic" fill="#4a5567">(May 2026)</text>
   </g>
  </g>
  <g id="text_28">
   <text x="32.09" y="24.68" font-family="Arial, Helvetica, sans-serif" font-size="15.0" fill="#0f1828">Industrial AI Adoption Readiness Curve — Indian sectors 2020–2035</text>
  </g>
  <g id="text_29">
   <text x="32.09" y="32.00" font-family="Arial, Helvetica, sans-serif" font-size="10.5" font-style="italic" fill="#4a5567">S-curve adoption trajectory; BFSI and Tier-1 services lead; MSME and agriculture trail</text>
  </g>
  <g id="text_30">
   <text x="589.40" y="13.28" font-family="Arial, Helvetica, sans-serif" font-size="8.0" fill="#c0c5cc">Figure 17 · Techadyant Labs · 2026</text>
  </g>
  <g id="text_31">
   <text x="32.09" y="453.20" font-family="Arial, Helvetica, sans-serif" font-size="8.0" font-style="italic" fill="#4a5567">Source: CII-Protiviti 2025; EY-CII Nov 2025; EY GCC Pulse 2025; Techadyant Labs interpolation.</text>
  </g>
  <g id="text_32">
   <text x="690.00" y="453.20" font-family="Arial, Helvetica, sans-serif" font-size="8.0" font-style="italic" fill="#c9a84c">Indicative</text>
  </g>
 </g>
 <defs>
  <clipPath id="p8d17470ec7">
   <rect x="47.933438" y="64.75875" width="609.84" height="341.64"/>
  </clipPath>
 </defs>
</svg>
