<?xml version="1.0" encoding="UTF-8"?>
<svg id="Layer_1" xmlns="http://www.w3.org/2000/svg" version="1.1" xmlns:xlink="http://www.w3.org/1999/xlink" viewBox="0 0 750 414.69">
  <!-- Generator: Adobe Illustrator 30.4.0, SVG Export Plug-In . SVG Version: 2.1.4 Build 226)  -->
  <defs>
    <style>
      .st0 {
        stroke-linecap: square;
      }

      .st0, .st1, .st2, .st3, .st4 {
        stroke: #0f1828;
      }

      .st0, .st5, .st6 {
        stroke-width: .8px;
      }

      .st0, .st7, .st6 {
        fill: none;
      }

      .st8 {
        clip-path: url(#clippath-6);
      }

      .st9 {
        clip-path: url(#clippath-7);
      }

      .st10 {
        clip-path: url(#clippath-4);
      }

      .st1 {
        fill: #c9a84c;
      }

      .st1, .st2, .st3, .st4 {
        stroke-width: .5px;
      }

      .st2, .st11, .st12 {
        fill: #0f1828;
      }

      .st13 {
        clip-path: url(#clippath-9);
      }

      .st14 {
        clip-path: url(#clippath-10);
      }

      .st3, .st15, .st5, .st16, .st17, .st18 {
        fill: #4a5567;
      }

      .st11 {
        font-size: 11px;
      }

      .st11, .st15, .st19, .st12, .st16, .st17, .st18 {
        isolation: isolate;
      }

      .st11, .st19, .st12, .st17, .st18 {
        font-family: ArialMT, Arial;
      }

      .st20 {
        fill: #fbf9f4;
      }

      .st21 {
        fill: #fff;
      }

      .st15, .st19 {
        font-size: 8px;
      }

      .st15, .st16 {
        font-family: Arial-ItalicMT, Arial;
        font-style: italic;
      }

      .st5 {
        stroke: #4a5567;
      }

      .st5, .st6 {
        stroke-linejoin: round;
      }

      .st22 {
        clip-path: url(#clippath-11);
      }

      .st19 {
        fill: #c0c5cc;
      }

      .st23 {
        clip-path: url(#clippath-1);
      }

      .st24 {
        clip-path: url(#clippath-5);
      }

      .st25 {
        clip-path: url(#clippath-8);
      }

      .st12 {
        font-size: 15px;
      }

      .st26 {
        clip-path: url(#clippath-3);
      }

      .st27 {
        clip-path: url(#clippath-12);
      }

      .st28 {
        clip-path: url(#clippath-14);
      }

      .st4 {
        fill: #2bc5b4;
      }

      .st6 {
        stroke: #c0c5cc;
        stroke-dasharray: 2.96 1.28;
        stroke-opacity: .4;
      }

      .st29 {
        clip-path: url(#clippath-2);
      }

      .st30 {
        clip-path: url(#clippath-13);
      }

      .st16 {
        font-size: 10.5px;
      }

      .st31 {
        clip-path: url(#clippath);
      }

      .st17 {
        font-size: 10px;
      }

      .st18 {
        font-size: 9.5px;
      }
    </style>
    <clipPath id="clippath">
      <rect class="st7" x="102.24" y="59.21" width="617.76" height="304.85"/>
    </clipPath>
    <clipPath id="clippath-1">
      <rect class="st7" x="102.24" y="59.21" width="617.76" height="304.85"/>
    </clipPath>
    <clipPath id="clippath-2">
      <rect class="st7" x="102.24" y="59.21" width="617.76" height="304.85"/>
    </clipPath>
    <clipPath id="clippath-3">
      <rect class="st7" x="102.24" y="59.21" width="617.76" height="304.85"/>
    </clipPath>
    <clipPath id="clippath-4">
      <rect class="st7" x="102.24" y="59.21" width="617.76" height="304.85"/>
    </clipPath>
    <clipPath id="clippath-5">
      <rect class="st7" x="102.24" y="59.21" width="617.76" height="304.85"/>
    </clipPath>
    <clipPath id="clippath-6">
      <rect class="st7" x="102.24" y="59.21" width="617.76" height="304.85"/>
    </clipPath>
    <clipPath id="clippath-7">
      <rect class="st7" x="102.24" y="59.21" width="617.76" height="304.85"/>
    </clipPath>
    <clipPath id="clippath-8">
      <rect class="st7" x="102.24" y="59.21" width="617.76" height="304.85"/>
    </clipPath>
    <clipPath id="clippath-9">
      <rect class="st7" x="102.24" y="59.21" width="617.76" height="304.85"/>
    </clipPath>
    <clipPath id="clippath-10">
      <rect class="st7" x="102.24" y="59.21" width="617.76" height="304.85"/>
    </clipPath>
    <clipPath id="clippath-11">
      <rect class="st7" x="102.24" y="59.21" width="617.76" height="304.85"/>
    </clipPath>
    <clipPath id="clippath-12">
      <rect class="st7" x="102.24" y="59.21" width="617.76" height="304.85"/>
    </clipPath>
    <clipPath id="clippath-13">
      <rect class="st7" x="102.24" y="59.21" width="617.76" height="304.85"/>
    </clipPath>
    <clipPath id="clippath-14">
      <rect class="st7" x="102.24" y="59.21" width="617.76" height="304.85"/>
    </clipPath>
  </defs>
  <path class="st20" d="M0,414.69h752.01V0H0v414.69Z"/>
  <path class="st21" d="M102.24,364.06h617.76V59.21H102.24v304.85Z"/>
  <g class="st31">
    <path class="st2" d="M102.24,73.07h301.75v33.5H102.24v-33.5Z"/>
  </g>
  <g class="st23">
    <path class="st2" d="M102.24,133.98h487.08v33.5H102.24v-33.5Z"/>
  </g>
  <g class="st29">
    <path class="st1" d="M102.24,194.89h356.4v33.5H102.24v-33.5Z"/>
  </g>
  <g class="st26">
    <path class="st4" d="M102.24,255.8h356.4v33.5H102.24v-33.5Z"/>
  </g>
  <g class="st10">
    <path class="st3" d="M102.24,316.71h47.52v33.5h-47.52v-33.5Z"/>
  </g>
  <g class="st24">
    <path class="st6" d="M102.24,364.06V59.21"/>
  </g>
  <path id="mbe74167dc4" class="st5" d="M102.24,364.06v3.5"/>
  <text class="st17" transform="translate(99.06 378.66)"><tspan x="0" y="0">0</tspan></text>
  <g class="st8">
    <path class="st6" d="M221.04,364.06V59.21"/>
  </g>
  <path id="mbe74167dc41" data-name="mbe74167dc4" class="st5" d="M221.04,364.06v3.5"/>
  <text class="st17" transform="translate(217.86 378.66)"><tspan x="0" y="0">5</tspan></text>
  <g class="st9">
    <path class="st6" d="M339.84,364.06V59.21"/>
  </g>
  <path id="mbe74167dc42" data-name="mbe74167dc4" class="st5" d="M339.84,364.06v3.5"/>
  <text class="st17" transform="translate(333.48 378.66)"><tspan x="0" y="0">10</tspan></text>
  <g class="st25">
    <path class="st6" d="M458.64,364.06V59.21"/>
  </g>
  <path id="mbe74167dc43" data-name="mbe74167dc4" class="st5" d="M458.64,364.06v3.5"/>
  <text class="st17" transform="translate(452.28 378.66)"><tspan x="0" y="0">15</tspan></text>
  <g class="st13">
    <path class="st6" d="M577.44,364.06V59.21"/>
  </g>
  <path id="mbe74167dc44" data-name="mbe74167dc4" class="st5" d="M577.44,364.06v3.5"/>
  <text class="st17" transform="translate(571.08 378.66)"><tspan x="0" y="0">20</tspan></text>
  <g class="st14">
    <path class="st6" d="M696.24,364.06V59.21"/>
  </g>
  <path id="mbe74167dc45" data-name="mbe74167dc4" class="st5" d="M696.24,364.06v3.5"/>
  <text class="st17" transform="translate(689.88 378.66)"><tspan x="0" y="0">25</tspan></text>
  <text class="st11" transform="translate(302.59 393.1)"><tspan x="0" y="0">USD billions (cumulative through 2030)</tspan></text>
  <g class="st22">
    <path class="st6" d="M102.24,89.82h617.76"/>
  </g>
  <path id="m48b9135401" class="st5" d="M102.24,89.82h-3.5"/>
  <text class="st17" transform="translate(72.71 93.62)"><tspan x="0" y="0">AWS</tspan></text>
  <g class="st27">
    <path class="st6" d="M102.24,150.73h617.76"/>
  </g>
  <path id="m48b91354011" data-name="m48b9135401" class="st5" d="M102.24,150.73h-3.5"/>
  <text class="st17" transform="translate(49.74 154.53)"><tspan x="0" y="0">Microsoft</tspan></text>
  <g class="st30">
    <path class="st6" d="M102.24,211.64h617.76"/>
  </g>
  <path id="m48b91354012" data-name="m48b9135401" class="st5" d="M102.24,211.64h-3.5"/>
  <text class="st17" transform="translate(13.15 210.6)"><tspan x="0" y="0">Reliance–NVIDIA</tspan></text>
  <text class="st17" transform="translate(39.56 221.8)"><tspan x="0" y="0">(Jamnagar)</tspan></text>
  <g class="st28">
    <path class="st6" d="M102.24,272.55h617.76"/>
  </g>
  <path id="m48b91354013" data-name="m48b9135401" class="st5" d="M102.24,272.55h-3.5"/>
  <text class="st17" transform="translate(59.97 271.51)"><tspan x="0" y="0">Google</tspan></text>
  <text class="st17" transform="translate(9.85 282.71)"><tspan x="0" y="0">(Visakhapatnam)</tspan></text>
  <rect class="st7" x="102.24" y="59.21" width="617.76" height="304.85"/>
  <path class="st6" d="M102.24,333.46h617.76"/>
  <path id="m48b91354014" data-name="m48b9135401" class="st5" d="M102.24,333.46h-3.5"/>
  <text class="st17" transform="translate(62.7 337.26)"><tspan x="0" y="0">Oracle</tspan></text>
  <path class="st0" d="M102.24,364.06V59.21"/>
  <path class="st0" d="M102.24,364.06h617.76"/>
  <text class="st18" transform="translate(411.12 92.44)"><tspan x="0" y="0">$12.7B · Mumbai + Hyderabad</tspan></text>
  <text class="st18" transform="translate(596.45 153.35)"><tspan x="0" y="0">$20.5B · Hyderabad </tspan><tspan x="0" y="11.4">+ Chennai + Pune + Bengaluru</tspan></text>
  <text class="st18" transform="translate(465.77 214.26)"><tspan x="0" y="0">$15.0B · Jamnagar (1–2 GW)</tspan></text>
  <text class="st18" transform="translate(465.77 275.17)"><tspan x="0" y="0">$15.0B · Visakhapatnam (3 campuses)</tspan></text>
  <text class="st18" transform="translate(156.89 336.08)"><tspan x="0" y="0">$2.0B · Mumbai (Asia-South 1)</tspan></text>
  <text class="st12" transform="translate(7.2 24.68)"><tspan x="0" y="0">Hyperscaler India commitments through 2030</tspan></text>
  <text class="st16" transform="translate(7.2 41.98)"><tspan x="0" y="0">Cumulative announced capital expenditure, USD billions</tspan></text>
  <text class="st19" transform="translate(569.6 13.28)"><tspan x="0" y="0">Figure 4 · Techadyant Labs · 2026</tspan></text>
  <text class="st15" transform="translate(7.2 405.82)"><tspan x="0" y="0">Source: AWS Jan 2025 release; Microsoft Dec 2025; NVIDIA-Reliance Oct 2024; Google Oct 2025; Oracle Dec 2025.</tspan></text>
</svg>