<?xml version="1.0" encoding="UTF-8"?>
<svg xmlns="http://www.w3.org/2000/svg" version="1.1" viewBox="0 0 700 462.06">
  <!-- Generator: Adobe Illustrator 30.4.0, SVG Export Plug-In . SVG Version: 2.1.4 Build 226)  -->
  <defs>
    <style>
      .st0 {
        fill: #e4d3a6;
      }

      .st0, .st1, .st2, .st3, .st4 {
        stroke: #fbf9f4;
        stroke-width: 2px;
      }

      .st1, .st5, .st6 {
        fill: #c9a84c;
      }

      .st7 {
        fill: #fbf9f4;
      }

      .st8 {
        fill: #fff;
      }

      .st9, .st10, .st11, .st5, .st6, .st12, .st13, .st14, .st15 {
        isolation: isolate;
      }

      .st9, .st10, .st5 {
        font-size: 8px;
      }

      .st9, .st5, .st12, .st15 {
        font-family: Arial-ItalicMT, Arial;
        font-style: italic;
      }

      .st9, .st12, .st15 {
        fill: #4a5567;
      }

      .st2 {
        fill: #2bc5b4;
      }

      .st10, .st11, .st6, .st13, .st14 {
        font-family: ArialMT, Arial;
      }

      .st10, .st3 {
        fill: #c0c5cc;
      }

      .st11 {
        font-size: 9px;
      }

      .st11, .st13, .st14 {
        fill: #0f1828;
      }

      .st6 {
        font-size: 10px;
      }

      .st16 {
        fill: none;
        stroke: #c0c5cc;
        stroke-linecap: round;
        stroke-linejoin: round;
        stroke-width: .7px;
      }

      .st12 {
        font-size: 12px;
      }

      .st13 {
        font-size: 15px;
      }

      .st14 {
        font-size: 16px;
      }

      .st4 {
        fill: #95e2d9;
      }

      .st15 {
        font-size: 10.5px;
      }
    </style>
  </defs>
  <g id="Layer_2">
    <path class="st7" d="M1.23,463.36h698.77V1.3H1.23v462.06Z"/>
  </g>
  <g id="Layer_3">
    <path class="st3" d="M249.51,365.33c19.48,18.29,43.14,31.54,68.91,38.59,25.77,7.05,52.88,7.69,78.95,1.86,26.07-5.83,50.33-17.95,70.65-35.3,20.32-17.35,36.08-39.41,45.92-64.26,9.84-24.84,13.45-51.72,10.51-78.27s-12.32-52-27.34-74.09c-15.02-22.1-35.22-40.19-58.83-52.69-23.61-12.5-49.93-19.04-76.65-19.04v163.8l-112.13,119.41Z"/>
    <path class="st1" d="M223.33,158.15c-20.42,32.18-28.98,70.49-24.21,108.3s22.6,72.79,50.38,98.88l112.13-119.41-138.3-87.77Z"/>
    <path class="st2" d="M265.36,113.4c-8.33,6.05-16.08,12.88-23.13,20.39-7.05,7.51-13.38,15.66-18.9,24.36l138.3,87.77-96.28-132.52Z"/>
    <path class="st4" d="M301.34,93.62c-6.38,2.53-12.6,5.45-18.61,8.76-6.01,3.31-11.82,6.99-17.37,11.02l96.28,132.52-60.3-152.3Z"/>
    <path class="st0" d="M361.64,82.12c-10.3,0-20.58.97-30.69,2.9-10.12,1.93-20.03,4.81-29.61,8.6l60.3,152.3V82.12Z"/>
    <circle class="st8" cx="363.71" cy="240.99" r="71.22"/>
  </g>
  <g id="Layer_1">
    <text class="st11" transform="translate(551.52 356.14)"><tspan x="0" y="0">62% · Wafer-fab equipment</tspan></text>
    <text class="st11" transform="translate(551.52 366.22)"><tspan x="0" y="0">(ASML, AMAT, Lam, TEL, KLA)</tspan></text>
    <text class="st11" transform="translate(551.52 376.3)"><tspan x="0" y="0">— mostly imported</tspan></text>
    <path class="st16" d="M156.08,270.33c30.5,1.31,61,2.62,91.51,3.93"/>
    <text class="st11" transform="translate(21.95 256.9)"><tspan x="0" y="0">22% · Facility / civil construction</tspan></text>
    <text class="st11" transform="translate(57.9 269.4)"><tspan x="0" y="0">(L&amp;T-class EPC, MEP)</tspan></text>
    <text class="st11" transform="translate(112.43 279.48)"><tspan x="0" y="0">— Indian</tspan></text>
    <path class="st16" d="M209.04,147.08c25.09,4.63,50.19,9.25,75.28,13.88"/>
    <text class="st11" transform="translate(109.62 139.79)"><tspan x="0" y="0">6% · Specialty gases</tspan></text>
    <text class="st11" transform="translate(122.41 150.87)"><tspan x="0" y="0">(Linde India, Inox)</tspan></text>
    <text class="st11" transform="translate(137.76 160.95)"><tspan x="0" y="0">— Indian + JV</tspan></text>
    <path class="st16" d="M236.18,103.57c27.53,10.21,55.06,20.42,82.59,30.62"/>
    <text class="st11" transform="translate(133.84 88.93)"><tspan x="0" y="0">4% · Ultrapure water systems</tspan></text>
    <text class="st11" transform="translate(215.1 100.39)"><tspan x="0" y="0">— Indian</tspan></text>
    <text class="st11" transform="translate(380.9 62.05)"><tspan x="0" y="0">6% · Logistics, ancillary, operating</tspan></text>
    <text class="st11" transform="translate(381.24 73.96)"><tspan x="0" y="0">workforce — Indian</tspan></text>
    <text class="st14" transform="translate(318.07 231.03)"><tspan x="0" y="0">Rs 91,000 cr</tspan></text>
    <text class="st12" transform="translate(321.57 254.35)"><tspan x="0" y="0">Tata–PSMC fab</tspan></text>
    <text class="st6" transform="translate(332.2 281.48)"><tspan x="0" y="0">~Rs 20–30k cr</tspan></text>
    <text class="st6" transform="translate(334.66 295.45)"><tspan x="0" y="0">lands in India</tspan></text>
    <text class="st13" transform="translate(29.33 24.68)"><tspan x="0" y="0">Tata–PSMC fab capex: where the Rs 91,000 crore goes</tspan></text>
    <text class="st15" transform="translate(29.33 43)"><tspan x="0" y="0">Indicative share by line item; equipment OEMs capture two-thirds offshore</tspan></text>
    <text class="st10" transform="translate(546.92 27.83)"><tspan x="0" y="0">Figure 8 · Techadyant Labs · 2026</tspan></text>
    <text class="st9" transform="translate(29.33 453.2)"><tspan x="0" y="0">Source: McKinsey fab-economics 2024; Yole WFE 2024; ASML–Tata partnership May 2026; Construction Physics.</tspan></text>
    <text class="st5" transform="translate(643.25 454.88)"><tspan x="0" y="0">Indicative</tspan></text>
    <line class="st16" x1="510.35" y1="297.21" x2="583.49" y2="343.13"/>
    <line class="st16" x1="371" y1="70.41" x2="352.27" y2="124.38"/>
  </g>
</svg>