<?xml version="1.0" encoding="utf-8" standalone="no"?>
<!DOCTYPE svg PUBLIC "-//W3C//DTD SVG 1.1//EN"
  "http://www.w3.org/Graphics/SVG/1.1/DTD/svg11.dtd">
<svg xmlns:xlink="http://www.w3.org/1999/xlink" width="711.36pt" height="495.9025pt" viewBox="0 0 711.36 495.9025" xmlns="http://www.w3.org/2000/svg" version="1.1">
 <metadata>
  <rdf:RDF xmlns:dc="http://purl.org/dc/elements/1.1/" xmlns:cc="http://creativecommons.org/ns#" xmlns:rdf="http://www.w3.org/1999/02/22-rdf-syntax-ns#">
   <cc:Work>
    <dc:type rdf:resource="http://purl.org/dc/dcmitype/StillImage"/>
    <dc:date>2026-05-28T09:02:41.669523</dc:date>
    <dc:format>image/svg+xml</dc:format>
    <dc:creator>
     <cc:Agent>
      <dc:title>Matplotlib v3.10.8, https://matplotlib.org/</dc:title>
     </cc:Agent>
    </dc:creator>
   </cc:Work>
  </rdf:RDF>
 </metadata>
 <defs>
  <style type="text/css">*{stroke-linejoin: round; stroke-linecap: butt}</style>
 </defs>
 <g id="figure_1">
  <g id="patch_1">
   <path d="M 0 495.9025 
L 711.36 495.9025 
L 711.36 0 
L 0 0 
z
" style="fill: #fbf9f4"/>
  </g>
  <g id="axes_1">
   <g id="patch_2">
    <path d="M 89.37 175.01235 
L 611.1 175.01235 
Q 613.5552 175.01235 613.5552 172.79475 
L 613.5552 111.81075 
Q 613.5552 109.59315 611.1 109.59315 
L 89.37 109.59315 
Q 86.9148 109.59315 86.9148 111.81075 
L 86.9148 172.79475 
Q 86.9148 175.01235 89.37 175.01235 
z
" clip-path="url(#p5c831b363c)" style="fill: #c9a84c; opacity: 0.35; stroke: #c9a84c; stroke-width: 1.5; stroke-linejoin: miter"/>
   </g>
   <g id="patch_3">
    <path d="M 469.926 163.36995 
L 604.962 163.36995 
Q 606.8034 163.36995 606.8034 161.70675 
L 606.8034 122.89875 
Q 606.8034 121.23555 604.962 121.23555 
L 469.926 121.23555 
Q 468.0846 121.23555 468.0846 122.89875 
L 468.0846 161.70675 
Q 468.0846 163.36995 469.926 163.36995 
z
" clip-path="url(#p5c831b363c)" style="fill: #fbf9f4; stroke: #c9a84c; stroke-width: 1.2; stroke-linejoin: miter"/>
   </g>
   <g id="patch_4">
    <path d="M 89.37 258.17235 
L 611.1 258.17235 
Q 613.5552 258.17235 613.5552 255.95475 
L 613.5552 194.97075 
Q 613.5552 192.75315 611.1 192.75315 
L 89.37 192.75315 
Q 86.9148 192.75315 86.9148 194.97075 
L 86.9148 255.95475 
Q 86.9148 258.17235 89.37 258.17235 
z
" clip-path="url(#p5c831b363c)" style="fill: #2bc5b4; opacity: 0.35; stroke: #2bc5b4; stroke-width: 1.5; stroke-linejoin: miter"/>
   </g>
   <g id="patch_5">
    <path d="M 469.926 246.52995 
L 604.962 246.52995 
Q 606.8034 246.52995 606.8034 244.86675 
L 606.8034 206.05875 
Q 606.8034 204.39555 604.962 204.39555 
L 469.926 204.39555 
Q 468.0846 204.39555 468.0846 206.05875 
L 468.0846 244.86675 
Q 468.0846 246.52995 469.926 246.52995 
z
" clip-path="url(#p5c831b363c)" style="fill: #fbf9f4; stroke: #2bc5b4; stroke-width: 1.2; stroke-linejoin: miter"/>
   </g>
   <g id="patch_6">
    <path d="M 89.37 341.33235 
L 611.1 341.33235 
Q 613.5552 341.33235 613.5552 339.11475 
L 613.5552 278.13075 
Q 613.5552 275.91315 611.1 275.91315 
L 89.37 275.91315 
Q 86.9148 275.91315 86.9148 278.13075 
L 86.9148 339.11475 
Q 86.9148 341.33235 89.37 341.33235 
z
" clip-path="url(#p5c831b363c)" style="fill: #e4d3a6; opacity: 0.35; stroke: #e4d3a6; stroke-width: 1.5; stroke-linejoin: miter"/>
   </g>
   <g id="patch_7">
    <path d="M 469.926 329.68995 
L 604.962 329.68995 
Q 606.8034 329.68995 606.8034 328.02675 
L 606.8034 289.21875 
Q 606.8034 287.55555 604.962 287.55555 
L 469.926 287.55555 
Q 468.0846 287.55555 468.0846 289.21875 
L 468.0846 328.02675 
Q 468.0846 329.68995 469.926 329.68995 
z
" clip-path="url(#p5c831b363c)" style="fill: #fbf9f4; stroke: #e4d3a6; stroke-width: 1.2; stroke-linejoin: miter"/>
   </g>
   <g id="patch_8">
    <path d="M 89.37 424.49235 
L 611.1 424.49235 
Q 613.5552 424.49235 613.5552 422.27475 
L 613.5552 361.29075 
Q 613.5552 359.07315 611.1 359.07315 
L 89.37 359.07315 
Q 86.9148 359.07315 86.9148 361.29075 
L 86.9148 422.27475 
Q 86.9148 424.49235 89.37 424.49235 
z
" clip-path="url(#p5c831b363c)" style="fill: #4a5567; opacity: 0.35; stroke: #4a5567; stroke-width: 1.5; stroke-linejoin: miter"/>
   </g>
   <g id="patch_9">
    <path d="M 469.926 412.84995 
L 604.962 412.84995 
Q 606.8034 412.84995 606.8034 411.18675 
L 606.8034 372.37875 
Q 606.8034 370.71555 604.962 370.71555 
L 469.926 370.71555 
Q 468.0846 370.71555 468.0846 372.37875 
L 468.0846 411.18675 
Q 468.0846 412.84995 469.926 412.84995 
z
" clip-path="url(#p5c831b363c)" style="fill: #fbf9f4; stroke: #4a5567; stroke-width: 1.2; stroke-linejoin: miter"/>
   </g>
   <g id="text_1">
    <text x="101.65" y="124.56" font-family="Arial, Helvetica, sans-serif" font-size="12.0" fill="#0f1828">DESIGN</text>
   </g>
   <g id="text_2">
    <text x="101.65" y="143.41" font-family="Arial, Helvetica, sans-serif" font-size="8.5" font-style="italic" fill="#0f1828">Chip architects · ML researchers · LLM engineers · EDA · compiler engineers</text>
   </g>
   <g id="text_3">
    <text x="101.65" y="160.04" font-family="Arial, Helvetica, sans-serif" font-size="7.5" fill="#4a5567">Bengaluru · Hyderabad · Noida · Pune</text>
   </g>
   <g id="text_4">
    <text x="413.27" y="144.48" font-family="Arial, Helvetica, sans-serif" font-size="8.0" fill="#0f1828">~60k semi designers + ~100–150k AI design engineers</text>
   </g>
   <g id="text_5">
    <text x="101.65" y="207.72" font-family="Arial, Helvetica, sans-serif" font-size="12.0" fill="#0f1828">INFRASTRUCTURE</text>
   </g>
   <g id="text_6">
    <text x="101.65" y="226.57" font-family="Arial, Helvetica, sans-serif" font-size="8.5" font-style="italic" fill="#0f1828">DC engineers · MEP · MLOps · AIOps · cloud-native · cybersecurity</text>
   </g>
   <g id="text_7">
    <text x="101.65" y="243.20" font-family="Arial, Helvetica, sans-serif" font-size="7.5" fill="#4a5567">All seven corridors</text>
   </g>
   <g id="text_8">
    <text x="453.34" y="227.64" font-family="Arial, Helvetica, sans-serif" font-size="8.0" fill="#0f1828">~200–300k today → 700k–1M by 2030</text>
   </g>
   <g id="text_9">
    <text x="101.65" y="290.88" font-family="Arial, Helvetica, sans-serif" font-size="12.0" fill="#0f1828">APPLICATION</text>
   </g>
   <g id="text_10">
    <text x="101.65" y="309.73" font-family="Arial, Helvetica, sans-serif" font-size="8.5" font-style="italic" fill="#0f1828">Industrial-AI · healthcare-AI · BFSI-AI · retail-AI · ag-AI · ed-tech</text>
   </g>
   <g id="text_11">
    <text x="101.65" y="326.36" font-family="Arial, Helvetica, sans-serif" font-size="7.5" fill="#4a5567">Distributed nationally</text>
   </g>
   <g id="text_12">
    <text x="461.56" y="310.80" font-family="Arial, Helvetica, sans-serif" font-size="8.0" fill="#0f1828">~500–800k today → 2–3M by 2030</text>
   </g>
   <g id="text_13">
    <text x="101.65" y="374.04" font-family="Arial, Helvetica, sans-serif" font-size="12.0" fill="#0f1828">GOVERNANCE</text>
   </g>
   <g id="text_14">
    <text x="101.65" y="392.89" font-family="Arial, Helvetica, sans-serif" font-size="8.5" font-style="italic" fill="#0f1828">AI ethics · policy · risk · audit · safety · regulatory affairs</text>
   </g>
   <g id="text_15">
    <text x="101.65" y="409.52" font-family="Arial, Helvetica, sans-serif" font-size="7.5" fill="#4a5567">NCR · Bengaluru · Mumbai (concentrated)</text>
   </g>
   <g id="text_16">
    <text x="442.55" y="393.96" font-family="Arial, Helvetica, sans-serif" font-size="8.0" fill="#0f1828">Low thousands today → 100–200k by 2030</text>
   </g>
   <g id="patch_10">
    <path d="M 641.79 423.050484 
Q 641.79 275.36117 641.79 130.466941 
" style="fill: none; stroke: #c9a84c; stroke-width: 2.5; stroke-linecap: round"/>
    <path d="M 639.79 134.466941 
L 641.79 130.466941 
L 643.79 134.466941 
" style="fill: none; stroke: #c9a84c; stroke-width: 2.5; stroke-linecap: round"/>
   </g>
   <g id="text_17">
    <text x="644.86" y="267.76" font-family="Arial, Helvetica, sans-serif" font-size="9.0" fill="#c9a84c">VALUE</text>
    <text x="644.86" y="277.84" font-family="Arial, Helvetica, sans-serif" font-size="9.0" fill="#c9a84c">FLOWS</text>
    <text x="644.86" y="287.92" font-family="Arial, Helvetica, sans-serif" font-size="9.0" fill="#c9a84c">UP</text>
   </g>
  </g>
  <g id="text_18">
   <text x="7.20" y="24.68" font-family="Arial, Helvetica, sans-serif" font-size="15.0" fill="#0f1828">The four-layer Talent Stack — India</text>
  </g>
  <g id="text_19">
   <text x="7.20" y="33.44" font-family="Arial, Helvetica, sans-serif" font-size="10.5" font-style="italic" fill="#4a5567">Each layer has distinct demand dynamics, education requirements and policy levers</text>
  </g>
  <g id="text_20">
   <text x="564.51" y="13.28" font-family="Arial, Helvetica, sans-serif" font-size="8.0" fill="#c0c5cc">Figure 19 · Techadyant Labs · 2026</text>
  </g>
  <g id="text_21">
   <text x="7.20" y="487.04" font-family="Arial, Helvetica, sans-serif" font-size="8.0" font-style="italic" fill="#4a5567">Source: NASSCOM-Deloitte 2024; NASSCOM-BCG 2024; EY GCC Pulse 2025; Techadyant Labs framework.</text>
  </g>
 </g>
 <defs>
  <clipPath id="p5c831b363c">
   <rect x="58.68" y="53.59875" width="613.8" height="388.08"/>
  </clipPath>
 </defs>
</svg>
