<?xml version="1.0" encoding="UTF-8"?>
<svg id="Layer_1" xmlns="http://www.w3.org/2000/svg" version="1.1" xmlns:xlink="http://www.w3.org/1999/xlink" viewBox="0 0 745.73 428.22">
  <!-- Generator: Adobe Illustrator 30.4.0, SVG Export Plug-In . SVG Version: 2.1.4 Build 226)  -->
  <defs>
    <style>
      .st0, .st1, .st2, .st3, .st4, .st5 {
        fill: none;
      }

      .st0, .st6, .st3 {
        stroke: #0f1828;
      }

      .st0, .st7, .st5 {
        stroke-width: .8px;
      }

      .st0, .st3 {
        stroke-linecap: square;
      }

      .st8 {
        clip-path: url(#clippath-6);
      }

      .st9 {
        clip-path: url(#clippath-7);
      }

      .st10 {
        clip-path: url(#clippath-17);
      }

      .st11 {
        clip-path: url(#clippath-15);
      }

      .st12 {
        clip-path: url(#clippath-18);
      }

      .st13 {
        clip-path: url(#clippath-4);
      }

      .st14 {
        clip-path: url(#clippath-9);
      }

      .st15 {
        clip-path: url(#clippath-10);
      }

      .st16 {
        font-size: 11px;
      }

      .st16, .st17, .st18, .st19, .st20, .st21, .st22, .st23, .st24, .st25 {
        isolation: isolate;
      }

      .st16, .st6, .st20, .st22 {
        fill: #0f1828;
      }

      .st16, .st18, .st20, .st22, .st25 {
        font-family: ArialMT, Arial;
      }

      .st26 {
        fill: #fbf9f4;
      }

      .st27 {
        fill: #fff;
      }

      .st1 {
        stroke: #2bc5b4;
        stroke-dasharray: 5.55 2.4;
      }

      .st1, .st6, .st7, .st3, .st4, .st28, .st5 {
        stroke-linejoin: round;
      }

      .st1, .st4 {
        stroke-opacity: .9;
        stroke-width: 1.5px;
      }

      .st17, .st7, .st21, .st24, .st25 {
        fill: #4a5567;
      }

      .st17, .st18, .st19 {
        font-size: 8px;
      }

      .st17, .st19, .st21, .st24 {
        font-family: Arial-ItalicMT, Arial;
        font-style: italic;
      }

      .st7 {
        stroke: #4a5567;
      }

      .st29 {
        clip-path: url(#clippath-11);
      }

      .st18 {
        fill: #c0c5cc;
      }

      .st19, .st30, .st28 {
        fill: #c9a84c;
      }

      .st31 {
        clip-path: url(#clippath-1);
      }

      .st3 {
        stroke-width: 2.5px;
      }

      .st32 {
        clip-path: url(#clippath-5);
      }

      .st33 {
        clip-path: url(#clippath-8);
      }

      .st30, .st28 {
        fill-opacity: .15;
        stroke: #c9a84c;
        stroke-opacity: .15;
      }

      .st20 {
        font-size: 15px;
      }

      .st34 {
        clip-path: url(#clippath-3);
      }

      .st4 {
        stroke: #c8443b;
        stroke-dasharray: 1.5 2.47;
      }

      .st35 {
        clip-path: url(#clippath-12);
      }

      .st21 {
        font-size: 9px;
      }

      .st36 {
        clip-path: url(#clippath-14);
      }

      .st22, .st25 {
        font-size: 10px;
      }

      .st23 {
        fill: #e8e5dd;
        opacity: .4;
        stroke: #e8e5dd;
      }

      .st5 {
        stroke: #c0c5cc;
        stroke-dasharray: 2.96 1.28;
        stroke-opacity: .4;
      }

      .st37 {
        clip-path: url(#clippath-16);
      }

      .st38 {
        clip-path: url(#clippath-2);
      }

      .st39 {
        clip-path: url(#clippath-13);
      }

      .st24 {
        font-size: 10.5px;
      }

      .st40 {
        clip-path: url(#clippath);
      }
    </style>
    <clipPath id="clippath">
      <rect class="st2" x="41.57" y="60.8" width="696.96" height="311.04"/>
    </clipPath>
    <clipPath id="clippath-1">
      <rect class="st2" x="41.57" y="60.8" width="696.96" height="311.04"/>
    </clipPath>
    <clipPath id="clippath-2">
      <rect class="st2" x="41.57" y="60.8" width="696.96" height="311.04"/>
    </clipPath>
    <clipPath id="clippath-3">
      <rect class="st2" x="41.57" y="60.8" width="696.96" height="311.04"/>
    </clipPath>
    <clipPath id="clippath-4">
      <rect class="st2" x="41.57" y="60.8" width="696.96" height="311.04"/>
    </clipPath>
    <clipPath id="clippath-5">
      <rect class="st2" x="41.57" y="60.8" width="696.96" height="311.04"/>
    </clipPath>
    <clipPath id="clippath-6">
      <rect class="st2" x="41.57" y="60.8" width="696.96" height="311.04"/>
    </clipPath>
    <clipPath id="clippath-7">
      <rect class="st2" x="41.57" y="60.8" width="696.96" height="311.04"/>
    </clipPath>
    <clipPath id="clippath-8">
      <rect class="st2" x="41.57" y="60.8" width="696.96" height="311.04"/>
    </clipPath>
    <clipPath id="clippath-9">
      <rect class="st2" x="41.57" y="60.8" width="696.96" height="311.04"/>
    </clipPath>
    <clipPath id="clippath-10">
      <rect class="st2" x="41.57" y="60.8" width="696.96" height="311.04"/>
    </clipPath>
    <clipPath id="clippath-11">
      <rect class="st2" x="41.57" y="60.8" width="696.96" height="311.04"/>
    </clipPath>
    <clipPath id="clippath-12">
      <rect class="st2" x="41.57" y="60.8" width="696.96" height="311.04"/>
    </clipPath>
    <clipPath id="clippath-13">
      <rect class="st2" x="41.57" y="60.8" width="696.96" height="311.04"/>
    </clipPath>
    <clipPath id="clippath-14">
      <rect class="st2" x="41.57" y="60.8" width="696.96" height="311.04"/>
    </clipPath>
    <clipPath id="clippath-15">
      <rect class="st2" x="41.57" y="60.8" width="696.96" height="311.04"/>
    </clipPath>
    <clipPath id="clippath-16">
      <rect class="st2" x="41.57" y="60.8" width="696.96" height="311.04"/>
    </clipPath>
    <clipPath id="clippath-17">
      <rect class="st2" x="41.57" y="60.8" width="696.96" height="311.04"/>
    </clipPath>
    <clipPath id="clippath-18">
      <rect class="st2" x="41.57" y="60.8" width="696.96" height="311.04"/>
    </clipPath>
  </defs>
  <path class="st26" d="M0,428.22h745.73V0H0v428.22Z"/>
  <path class="st27" d="M41.57,371.84h696.96V60.8H41.57v311.04Z"/>
  <g class="st40">
    <path class="st23" d="M41.57,371.84h126.72V60.8H41.57v311.04Z"/>
  </g>
  <g class="st31">
    <path id="m30b2b0c118" class="st28" d="M41.57,343.85h0l63.36-5.33,63.36-3.33,63.36-5.55,63.36-11.11,63.36-17.77,63.36-24.44,63.36-15.55,63.36-13.33,63.36-11.11,63.36-8.89,63.36-6.67V71.91h0l-63.36,26.66-63.36,28.88-63.36,33.33-63.36,33.33-63.36,33.33-63.36,42.21-63.36,33.33-63.36,17.77-63.36,12.22-63.36,5.55-63.36,5.33Z"/>
  </g>
  <g class="st38">
    <path class="st5" d="M41.57,371.84V60.8"/>
  </g>
  <path id="ma5796f3b52" class="st7" d="M41.57,371.84v3.5"/>
  <text class="st25" transform="translate(28.85 386.44)"><tspan x="0" y="0">2024</tspan></text>
  <g class="st34">
    <path class="st5" d="M168.29,371.84V60.8"/>
  </g>
  <path id="ma5796f3b521" data-name="ma5796f3b52" class="st7" d="M168.29,371.84v3.5"/>
  <text class="st25" transform="translate(155.57 386.44)"><tspan x="0" y="0">2026</tspan></text>
  <g class="st13">
    <path class="st5" d="M295.01,371.84V60.8"/>
  </g>
  <path id="ma5796f3b522" data-name="ma5796f3b52" class="st7" d="M295.01,371.84v3.5"/>
  <text class="st25" transform="translate(282.29 386.44)"><tspan x="0" y="0">2028</tspan></text>
  <g class="st32">
    <path class="st5" d="M421.73,371.84V60.8"/>
  </g>
  <path id="ma5796f3b523" data-name="ma5796f3b52" class="st7" d="M421.73,371.84v3.5"/>
  <text class="st25" transform="translate(409.01 386.44)"><tspan x="0" y="0">2030</tspan></text>
  <g class="st8">
    <path class="st5" d="M548.45,371.84V60.8"/>
  </g>
  <path id="ma5796f3b524" data-name="ma5796f3b52" class="st7" d="M548.45,371.84v3.5"/>
  <text class="st25" transform="translate(535.73 386.44)"><tspan x="0" y="0">2032</tspan></text>
  <g class="st9">
    <path class="st5" d="M675.17,371.84V60.8"/>
  </g>
  <path id="ma5796f3b525" data-name="ma5796f3b52" class="st7" d="M675.17,371.84v3.5"/>
  <text class="st25" transform="translate(662.45 386.44)"><tspan x="0" y="0">2034</tspan></text>
  <text class="st16" transform="translate(378.4 400.88)"><tspan x="0" y="0">Year</tspan></text>
  <g class="st33">
    <path class="st5" d="M41.57,371.84h696.96"/>
  </g>
  <path id="m0f30c5b3ff" class="st7" d="M41.57,371.84h-3.5"/>
  <text class="st25" transform="translate(28.21 375.64)"><tspan x="0" y="0">0</tspan></text>
  <g class="st14">
    <path class="st5" d="M41.57,327.4h696.96"/>
  </g>
  <path id="m0f30c5b3ff1" data-name="m0f30c5b3ff" class="st7" d="M41.57,327.4h-3.5"/>
  <text class="st25" transform="translate(28.21 331.2)"><tspan x="0" y="0">2</tspan></text>
  <g class="st15">
    <path class="st5" d="M41.57,282.97h696.96"/>
  </g>
  <path id="m0f30c5b3ff2" data-name="m0f30c5b3ff" class="st7" d="M41.57,282.97h-3.5"/>
  <text class="st25" transform="translate(28.21 286.77)"><tspan x="0" y="0">4</tspan></text>
  <g class="st29">
    <path class="st5" d="M41.57,238.54h696.96"/>
  </g>
  <path id="m0f30c5b3ff3" data-name="m0f30c5b3ff" class="st7" d="M41.57,238.54h-3.5"/>
  <text class="st25" transform="translate(28.21 242.34)"><tspan x="0" y="0">6</tspan></text>
  <g class="st35">
    <path class="st5" d="M41.57,194.1h696.96"/>
  </g>
  <path id="m0f30c5b3ff4" data-name="m0f30c5b3ff" class="st7" d="M41.57,194.1h-3.5"/>
  <text class="st25" transform="translate(28.21 197.9)"><tspan x="0" y="0">8</tspan></text>
  <g class="st39">
    <path class="st5" d="M41.57,149.67h696.96"/>
  </g>
  <path id="m0f30c5b3ff5" data-name="m0f30c5b3ff" class="st7" d="M41.57,149.67h-3.5"/>
  <text class="st25" transform="translate(21.85 153.47)"><tspan x="0" y="0">10</tspan></text>
  <g class="st36">
    <path class="st5" d="M41.57,105.23h696.96"/>
  </g>
  <path id="m0f30c5b3ff6" data-name="m0f30c5b3ff" class="st7" d="M41.57,105.23h-3.5"/>
  <text class="st25" transform="translate(21.85 109.03)"><tspan x="0" y="0">12</tspan></text>
  <g class="st11">
    <path class="st5" d="M41.57,60.8h696.96"/>
  </g>
  <path id="m0f30c5b3ff7" data-name="m0f30c5b3ff" class="st7" d="M41.57,60.8h-3.5"/>
  <text class="st25" transform="translate(21.85 64.6)"><tspan x="0" y="0">14</tspan></text>
  <text class="st16" transform="translate(15.56 275.72) rotate(-90)"><tspan x="0" y="0">Installed IT load (GW)</tspan></text>
  <g class="st37">
    <path class="st3" d="M41.57,343.85l63.36-5.33,63.36-4.44,63.36-8.89,63.36-15.55,63.36-26.66,63.36-33.33,63.36-22.22,63.36-22.22,63.36-15.55,63.36-11.11,63.36-6.67"/>
  </g>
  <g class="st10">
    <path id="m03f027f15c" class="st6" d="M41.57,345.85c.53,0,1.04-.21,1.41-.59.38-.38.59-.88.59-1.41s-.21-1.04-.59-1.41c-.38-.38-.88-.59-1.41-.59s-1.04.21-1.41.59c-.38.38-.59.88-.59,1.41s.21,1.04.59,1.41c.38.38.88.59,1.41.59Z"/>
    <path id="m03f027f15c1" data-name="m03f027f15c" class="st6" d="M104.93,340.51c.53,0,1.04-.21,1.41-.59.38-.38.59-.88.59-1.41s-.21-1.04-.59-1.41c-.38-.38-.88-.59-1.41-.59s-1.04.21-1.41.59c-.38.38-.59.88-.59,1.41s.21,1.04.59,1.41c.38.38.88.59,1.41.59Z"/>
    <path id="m03f027f15c2" data-name="m03f027f15c" class="st6" d="M168.29,336.07c.53,0,1.04-.21,1.41-.59.38-.38.59-.88.59-1.41s-.21-1.04-.59-1.41c-.38-.38-.88-.59-1.41-.59s-1.04.21-1.41.59c-.38.38-.59.88-.59,1.41s.21,1.04.59,1.41c.38.38.88.59,1.41.59Z"/>
    <path id="m03f027f15c3" data-name="m03f027f15c" class="st6" d="M231.65,327.18c.53,0,1.04-.21,1.41-.59.38-.38.59-.88.59-1.41s-.21-1.04-.59-1.41c-.38-.38-.88-.59-1.41-.59s-1.04.21-1.41.59c-.38.38-.59.88-.59,1.41s.21,1.04.59,1.41c.38.38.88.59,1.41.59Z"/>
    <path id="m03f027f15c4" data-name="m03f027f15c" class="st6" d="M295.01,311.63c.53,0,1.04-.21,1.41-.59.38-.38.59-.88.59-1.41s-.21-1.04-.59-1.41c-.38-.38-.88-.59-1.41-.59s-1.04.21-1.41.59c-.38.38-.59.88-.59,1.41s.21,1.04.59,1.41c.38.38.88.59,1.41.59Z"/>
    <path id="m03f027f15c5" data-name="m03f027f15c" class="st6" d="M358.37,284.97c.53,0,1.04-.21,1.41-.59.38-.38.59-.88.59-1.41s-.21-1.04-.59-1.41c-.38-.38-.88-.59-1.41-.59s-1.04.21-1.41.59c-.38.38-.59.88-.59,1.41s.21,1.04.59,1.41c.38.38.88.59,1.41.59Z"/>
    <path id="m03f027f15c6" data-name="m03f027f15c" class="st6" d="M421.73,251.64c.53,0,1.04-.21,1.41-.59.38-.38.59-.88.59-1.41s-.21-1.04-.59-1.41c-.38-.38-.88-.59-1.41-.59s-1.04.21-1.41.59c-.38.38-.59.88-.59,1.41s.21,1.04.59,1.41c.38.38.88.59,1.41.59Z"/>
    <path id="m03f027f15c7" data-name="m03f027f15c" class="st6" d="M485.09,229.43c.53,0,1.04-.21,1.41-.59.38-.38.59-.88.59-1.41s-.21-1.04-.59-1.41c-.38-.38-.88-.59-1.41-.59s-1.04.21-1.41.59c-.38.38-.59.88-.59,1.41s.21,1.04.59,1.41c.38.38.88.59,1.41.59Z"/>
    <path id="m03f027f15c8" data-name="m03f027f15c" class="st6" d="M548.45,207.21c.53,0,1.04-.21,1.41-.59.38-.38.59-.88.59-1.41s-.21-1.04-.59-1.41c-.38-.38-.88-.59-1.41-.59s-1.04.21-1.41.59c-.38.38-.59.88-.59,1.41s.21,1.04.59,1.41c.38.38.88.59,1.41.59Z"/>
    <path id="m03f027f15c9" data-name="m03f027f15c" class="st6" d="M611.81,191.66c.53,0,1.04-.21,1.41-.59.38-.38.59-.88.59-1.41s-.21-1.04-.59-1.41c-.38-.38-.88-.59-1.41-.59s-1.04.21-1.41.59c-.38.38-.59.88-.59,1.41s.21,1.04.59,1.41c.38.38.88.59,1.41.59Z"/>
    <path id="m03f027f15c10" data-name="m03f027f15c" class="st6" d="M675.17,180.55c.53,0,1.04-.21,1.41-.59.38-.38.59-.88.59-1.41s-.21-1.04-.59-1.41c-.38-.38-.88-.59-1.41-.59s-1.04.21-1.41.59c-.38.38-.59.88-.59,1.41s.21,1.04.59,1.41c.38.38.88.59,1.41.59Z"/>
    <path id="m03f027f15c11" data-name="m03f027f15c" class="st6" d="M738.53,173.88c.53,0,1.04-.21,1.41-.59.38-.38.59-.88.59-1.41s-.21-1.04-.59-1.41c-.38-.38-.88-.59-1.41-.59s-1.04.21-1.41.59c-.38.38-.59.88-.59,1.41s.21,1.04.59,1.41c.38.38.88.59,1.41.59Z"/>
  </g>
  <g class="st12">
    <path class="st1" d="M41.57,343.85l63.36-5.33,63.36-5.55,63.36-12.22,63.36-17.77,63.36-33.33,63.36-42.21,63.36-33.33,63.36-33.33,63.36-33.33,63.36-28.88,63.36-26.66"/>
  </g>
  <rect class="st2" x="41.57" y="60.8" width="696.96" height="311.04"/>
  <path class="st4" d="M41.57,343.85l63.36-5.33,63.36-3.33,63.36-5.55,63.36-11.11,63.36-17.77,63.36-24.44,63.36-15.55,63.36-13.33,63.36-11.11,63.36-8.89,63.36-6.67"/>
  <path class="st0" d="M41.57,371.84V60.8"/>
  <path class="st0" d="M41.57,371.84h696.96"/>
  <text class="st21" transform="translate(88.41 94.12)"><tspan x="0" y="0">Actuals</tspan></text>
  <text class="st21" transform="translate(431.5 94.12)"><tspan x="0" y="0">Scenarios</tspan></text>
  <path class="st30" d="M50.57,77.4h20v-7h-20v7Z"/>
  <text class="st22" transform="translate(78.57 77.4)"><tspan x="0" y="0">Scenario range</tspan></text>
  <path class="st3" d="M50.57,88.58h20"/>
  <path id="m03f027f15c12" data-name="m03f027f15c" class="st6" d="M60.57,90.58c.53,0,1.04-.21,1.41-.59.38-.38.59-.88.59-1.41s-.21-1.04-.59-1.41c-.38-.38-.88-.59-1.41-.59s-1.04.21-1.41.59c-.38.38-.59.88-.59,1.41s.21,1.04.59,1.41c.38.38.88.59,1.41.59Z"/>
  <text class="st22" transform="translate(78.57 92.08)"><tspan x="0" y="0">Scenario A — On-trajectory (base case)</tspan></text>
  <path class="st1" d="M50.57,103.25h20"/>
  <text class="st22" transform="translate(78.57 106.75)"><tspan x="0" y="0">Scenario B — Acceleration (upside)</tspan></text>
  <path class="st4" d="M50.57,117.93h20"/>
  <text class="st22" transform="translate(78.57 121.43)"><tspan x="0" y="0">Scenario C — Constraint-bound (downside)</tspan></text>
  <text class="st20" transform="translate(25.73 24.68)"><tspan x="0" y="0">India data-centre installed capacity — three scenarios to 2035</tspan></text>
  <text class="st24" transform="translate(25.73 39.56)"><tspan x="0" y="0">GW of IT load; actuals 2024–25 per Colliers/CEEW; projections per Techadyant scenario model</tspan></text>
  <text class="st18" transform="translate(588.13 13.28)"><tspan x="0" y="0">Figure 3 · Techadyant Labs · 2026</tspan></text>
  <text class="st17" transform="translate(25.73 419.36)"><tspan x="0" y="0">Source: Colliers India 2024–25; CEEW 2025; S&amp;P Global Commodity Insights; Cushman &amp; Wakefield H1 2025.</tspan></text>
  <text class="st19" transform="translate(688.38 419.36)"><tspan x="0" y="0">Forecast</tspan></text>
</svg>