<?xml version="1.0" encoding="utf-8" standalone="no"?>
<!DOCTYPE svg PUBLIC "-//W3C//DTD SVG 1.1//EN"
  "http://www.w3.org/Graphics/SVG/1.1/DTD/svg11.dtd">
<svg xmlns:xlink="http://www.w3.org/1999/xlink" width="774.72pt" height="563.5825pt" viewBox="0 0 774.72 563.5825" xmlns="http://www.w3.org/2000/svg" version="1.1">
 <metadata>
  <rdf:RDF xmlns:dc="http://purl.org/dc/elements/1.1/" xmlns:cc="http://creativecommons.org/ns#" xmlns:rdf="http://www.w3.org/1999/02/22-rdf-syntax-ns#">
   <cc:Work>
    <dc:type rdf:resource="http://purl.org/dc/dcmitype/StillImage"/>
    <dc:date>2026-05-28T15:37:47.996960</dc:date>
    <dc:format>image/svg+xml</dc:format>
    <dc:creator>
     <cc:Agent>
      <dc:title>Matplotlib v3.10.8, https://matplotlib.org/</dc:title>
     </cc:Agent>
    </dc:creator>
   </cc:Work>
  </rdf:RDF>
 </metadata>
 <defs>
  <style type="text/css">*{stroke-linejoin: round; stroke-linecap: butt}</style>
 </defs>
 <g id="figure_1">
  <g id="patch_1">
   <path d="M 0 563.5825 
L 774.72 563.5825 
L 774.72 0 
L 0 0 
z
" style="fill: #fbf9f4"/>
  </g>
  <g id="axes_1">
   <g id="patch_2">
    <path d="M 147.06 135.24995 
L 649.26 135.24995 
Q 651.492 135.24995 651.492 133.27875 
L 651.492 83.99875 
Q 651.492 82.02755 649.26 82.02755 
L 147.06 82.02755 
Q 144.828 82.02755 144.828 83.99875 
L 144.828 133.27875 
Q 144.828 135.24995 147.06 135.24995 
z
" clip-path="url(#p11bf061430)" style="fill: #0f1828; stroke: #0f1828; stroke-width: 0.5; stroke-linejoin: miter"/>
   </g>
   <g id="patch_3">
    <path d="M 119.16 243.17315 
L 230.76 243.17315 
Q 232.434 243.17315 232.434 241.69475 
L 232.434 192.41475 
Q 232.434 190.93635 230.76 190.93635 
L 119.16 190.93635 
Q 117.486 190.93635 117.486 192.41475 
L 117.486 241.69475 
Q 117.486 243.17315 119.16 243.17315 
z
" clip-path="url(#p11bf061430)" style="fill: #c9a84c; stroke: #0f1828; stroke-width: 0.5; stroke-linejoin: miter"/>
   </g>
   <g id="patch_4">
    <path d="M 253.08 243.17315 
L 364.68 243.17315 
Q 366.354 243.17315 366.354 241.69475 
L 366.354 192.41475 
Q 366.354 190.93635 364.68 190.93635 
L 253.08 190.93635 
Q 251.406 190.93635 251.406 192.41475 
L 251.406 241.69475 
Q 251.406 243.17315 253.08 243.17315 
z
" clip-path="url(#p11bf061430)" style="fill: #c9a84c; stroke: #0f1828; stroke-width: 0.5; stroke-linejoin: miter"/>
   </g>
   <g id="patch_5">
    <path d="M 387 243.17315 
L 498.6 243.17315 
Q 500.274 243.17315 500.274 241.69475 
L 500.274 192.41475 
Q 500.274 190.93635 498.6 190.93635 
L 387 190.93635 
Q 385.326 190.93635 385.326 192.41475 
L 385.326 241.69475 
Q 385.326 243.17315 387 243.17315 
z
" clip-path="url(#p11bf061430)" style="fill: #c9a84c; stroke: #0f1828; stroke-width: 0.5; stroke-linejoin: miter"/>
   </g>
   <g id="patch_6">
    <path d="M 520.92 243.17315 
L 632.52 243.17315 
Q 634.194 243.17315 634.194 241.69475 
L 634.194 192.41475 
Q 634.194 190.93635 632.52 190.93635 
L 520.92 190.93635 
Q 519.246 190.93635 519.246 192.41475 
L 519.246 241.69475 
Q 519.246 243.17315 520.92 243.17315 
z
" clip-path="url(#p11bf061430)" style="fill: #c9a84c; stroke: #0f1828; stroke-width: 0.5; stroke-linejoin: miter"/>
   </g>
   <g id="patch_7">
    <path d="M 71.73 338.77635 
L 166.59 338.77635 
Q 167.706 338.77635 167.706 337.79075 
L 167.706 293.43875 
Q 167.706 292.45315 166.59 292.45315 
L 71.73 292.45315 
Q 70.614 292.45315 70.614 293.43875 
L 70.614 337.79075 
Q 70.614 338.77635 71.73 338.77635 
z
" clip-path="url(#p11bf061430)" style="fill: #2bc5b4; opacity: 0.85; stroke: #0f1828; stroke-width: 0.5; stroke-linejoin: miter"/>
   </g>
   <g id="patch_8">
    <path d="M 183.33 338.77635 
L 278.19 338.77635 
Q 279.306 338.77635 279.306 337.79075 
L 279.306 293.43875 
Q 279.306 292.45315 278.19 292.45315 
L 183.33 292.45315 
Q 182.214 292.45315 182.214 293.43875 
L 182.214 337.79075 
Q 182.214 338.77635 183.33 338.77635 
z
" clip-path="url(#p11bf061430)" style="fill: #2bc5b4; opacity: 0.85; stroke: #0f1828; stroke-width: 0.5; stroke-linejoin: miter"/>
   </g>
   <g id="patch_9">
    <path d="M 294.93 338.77635 
L 389.79 338.77635 
Q 390.906 338.77635 390.906 337.79075 
L 390.906 293.43875 
Q 390.906 292.45315 389.79 292.45315 
L 294.93 292.45315 
Q 293.814 292.45315 293.814 293.43875 
L 293.814 337.79075 
Q 293.814 338.77635 294.93 338.77635 
z
" clip-path="url(#p11bf061430)" style="fill: #2bc5b4; opacity: 0.85; stroke: #0f1828; stroke-width: 0.5; stroke-linejoin: miter"/>
   </g>
   <g id="patch_10">
    <path d="M 406.53 338.77635 
L 501.39 338.77635 
Q 502.506 338.77635 502.506 337.79075 
L 502.506 293.43875 
Q 502.506 292.45315 501.39 292.45315 
L 406.53 292.45315 
Q 405.414 292.45315 405.414 293.43875 
L 405.414 337.79075 
Q 405.414 338.77635 406.53 338.77635 
z
" clip-path="url(#p11bf061430)" style="fill: #2bc5b4; opacity: 0.85; stroke: #0f1828; stroke-width: 0.5; stroke-linejoin: miter"/>
   </g>
   <g id="patch_11">
    <path d="M 518.13 338.77635 
L 612.99 338.77635 
Q 614.106 338.77635 614.106 337.79075 
L 614.106 293.43875 
Q 614.106 292.45315 612.99 292.45315 
L 518.13 292.45315 
Q 517.014 292.45315 517.014 293.43875 
L 517.014 337.79075 
Q 517.014 338.77635 518.13 338.77635 
z
" clip-path="url(#p11bf061430)" style="fill: #2bc5b4; opacity: 0.85; stroke: #0f1828; stroke-width: 0.5; stroke-linejoin: miter"/>
   </g>
   <g id="patch_12">
    <path d="M 629.73 338.77635 
L 724.59 338.77635 
Q 725.706 338.77635 725.706 337.79075 
L 725.706 293.43875 
Q 725.706 292.45315 724.59 292.45315 
L 629.73 292.45315 
Q 628.614 292.45315 628.614 293.43875 
L 628.614 337.79075 
Q 628.614 338.77635 629.73 338.77635 
z
" clip-path="url(#p11bf061430)" style="fill: #2bc5b4; opacity: 0.85; stroke: #0f1828; stroke-width: 0.5; stroke-linejoin: miter"/>
   </g>
   <g id="patch_13">
    <path d="M 80.1 447.19235 
L 158.22 447.19235 
Q 159.336 447.19235 159.336 446.20675 
L 159.336 396.92675 
Q 159.336 395.94115 158.22 395.94115 
L 80.1 395.94115 
Q 78.984 395.94115 78.984 396.92675 
L 78.984 446.20675 
Q 78.984 447.19235 80.1 447.19235 
z
" clip-path="url(#p11bf061430)" style="fill: #e8e5dd; stroke: #c0c5cc; stroke-width: 0.5; stroke-linejoin: miter"/>
   </g>
   <g id="patch_14">
    <path d="M 163.8 447.19235 
L 241.92 447.19235 
Q 243.036 447.19235 243.036 446.20675 
L 243.036 396.92675 
Q 243.036 395.94115 241.92 395.94115 
L 163.8 395.94115 
Q 162.684 395.94115 162.684 396.92675 
L 162.684 446.20675 
Q 162.684 447.19235 163.8 447.19235 
z
" clip-path="url(#p11bf061430)" style="fill: #e8e5dd; stroke: #c0c5cc; stroke-width: 0.5; stroke-linejoin: miter"/>
   </g>
   <g id="patch_15">
    <path d="M 247.5 447.19235 
L 325.62 447.19235 
Q 326.736 447.19235 326.736 446.20675 
L 326.736 396.92675 
Q 326.736 395.94115 325.62 395.94115 
L 247.5 395.94115 
Q 246.384 395.94115 246.384 396.92675 
L 246.384 446.20675 
Q 246.384 447.19235 247.5 447.19235 
z
" clip-path="url(#p11bf061430)" style="fill: #e8e5dd; stroke: #c0c5cc; stroke-width: 0.5; stroke-linejoin: miter"/>
   </g>
   <g id="patch_16">
    <path d="M 331.2 447.19235 
L 409.32 447.19235 
Q 410.436 447.19235 410.436 446.20675 
L 410.436 396.92675 
Q 410.436 395.94115 409.32 395.94115 
L 331.2 395.94115 
Q 330.084 395.94115 330.084 396.92675 
L 330.084 446.20675 
Q 330.084 447.19235 331.2 447.19235 
z
" clip-path="url(#p11bf061430)" style="fill: #e8e5dd; stroke: #c0c5cc; stroke-width: 0.5; stroke-linejoin: miter"/>
   </g>
   <g id="patch_17">
    <path d="M 414.9 447.19235 
L 493.02 447.19235 
Q 494.136 447.19235 494.136 446.20675 
L 494.136 396.92675 
Q 494.136 395.94115 493.02 395.94115 
L 414.9 395.94115 
Q 413.784 395.94115 413.784 396.92675 
L 413.784 446.20675 
Q 413.784 447.19235 414.9 447.19235 
z
" clip-path="url(#p11bf061430)" style="fill: #e8e5dd; stroke: #c0c5cc; stroke-width: 0.5; stroke-linejoin: miter"/>
   </g>
   <g id="patch_18">
    <path d="M 498.6 447.19235 
L 576.72 447.19235 
Q 577.836 447.19235 577.836 446.20675 
L 577.836 396.92675 
Q 577.836 395.94115 576.72 395.94115 
L 498.6 395.94115 
Q 497.484 395.94115 497.484 396.92675 
L 497.484 446.20675 
Q 497.484 447.19235 498.6 447.19235 
z
" clip-path="url(#p11bf061430)" style="fill: #e8e5dd; stroke: #c0c5cc; stroke-width: 0.5; stroke-linejoin: miter"/>
   </g>
   <g id="patch_19">
    <path d="M 582.3 447.19235 
L 660.42 447.19235 
Q 661.536 447.19235 661.536 446.20675 
L 661.536 396.92675 
Q 661.536 395.94115 660.42 395.94115 
L 582.3 395.94115 
Q 581.184 395.94115 581.184 396.92675 
L 581.184 446.20675 
Q 581.184 447.19235 582.3 447.19235 
z
" clip-path="url(#p11bf061430)" style="fill: #e8e5dd; stroke: #c0c5cc; stroke-width: 0.5; stroke-linejoin: miter"/>
   </g>
   <g id="patch_20">
    <path d="M 638.1 447.19235 
L 716.22 447.19235 
Q 717.336 447.19235 717.336 446.20675 
L 717.336 396.92675 
Q 717.336 395.94115 716.22 395.94115 
L 638.1 395.94115 
Q 636.984 395.94115 636.984 396.92675 
L 636.984 446.20675 
Q 636.984 447.19235 638.1 447.19235 
z
" clip-path="url(#p11bf061430)" style="fill: #e8e5dd; stroke: #c0c5cc; stroke-width: 0.5; stroke-linejoin: miter"/>
   </g>
   <g id="patch_21">
    <path d="M 147.06 504.35715 
L 649.26 504.35715 
Q 650.934 504.35715 650.934 502.87875 
L 650.934 478.23875 
Q 650.934 476.76035 649.26 476.76035 
L 147.06 476.76035 
Q 145.386 476.76035 145.386 478.23875 
L 145.386 502.87875 
Q 145.386 504.35715 147.06 504.35715 
z
" clip-path="url(#p11bf061430)" style="fill: #c9a84c; opacity: 0.7; stroke: #0f1828; stroke-width: 0.5; stroke-linejoin: miter"/>
   </g>
   <g id="line2d_1">
    <path d="M 174.96 192.41475 
L 174.96 133.27875 
" clip-path="url(#p11bf061430)" style="fill: none; stroke: #c0c5cc; stroke-width: 0.7; stroke-linecap: square"/>
   </g>
   <g id="line2d_2">
    <path d="M 308.88 192.41475 
L 308.88 133.27875 
" clip-path="url(#p11bf061430)" style="fill: none; stroke: #c0c5cc; stroke-width: 0.7; stroke-linecap: square"/>
   </g>
   <g id="line2d_3">
    <path d="M 442.8 192.41475 
L 442.8 133.27875 
" clip-path="url(#p11bf061430)" style="fill: none; stroke: #c0c5cc; stroke-width: 0.7; stroke-linecap: square"/>
   </g>
   <g id="line2d_4">
    <path d="M 576.72 192.41475 
L 576.72 133.27875 
" clip-path="url(#p11bf061430)" style="fill: none; stroke: #c0c5cc; stroke-width: 0.7; stroke-linecap: square"/>
   </g>
   <g id="line2d_5">
    <path d="M 119.16 293.43875 
L 174.96 241.69475 
" clip-path="url(#p11bf061430)" style="fill: none; stroke-dasharray: 2.22,0.96; stroke-dashoffset: 0; stroke: #c0c5cc; stroke-width: 0.6"/>
   </g>
   <g id="line2d_6">
    <path d="M 230.76 293.43875 
L 174.96 241.69475 
" clip-path="url(#p11bf061430)" style="fill: none; stroke-dasharray: 2.22,0.96; stroke-dashoffset: 0; stroke: #c0c5cc; stroke-width: 0.6"/>
   </g>
   <g id="line2d_7">
    <path d="M 342.36 293.43875 
L 174.96 241.69475 
" clip-path="url(#p11bf061430)" style="fill: none; stroke-dasharray: 2.22,0.96; stroke-dashoffset: 0; stroke: #c0c5cc; stroke-width: 0.6"/>
   </g>
   <g id="line2d_8">
    <path d="M 453.96 293.43875 
L 308.88 241.69475 
" clip-path="url(#p11bf061430)" style="fill: none; stroke-dasharray: 2.22,0.96; stroke-dashoffset: 0; stroke: #c0c5cc; stroke-width: 0.6"/>
   </g>
   <g id="line2d_9">
    <path d="M 565.56 293.43875 
L 442.8 241.69475 
" clip-path="url(#p11bf061430)" style="fill: none; stroke-dasharray: 2.22,0.96; stroke-dashoffset: 0; stroke: #c0c5cc; stroke-width: 0.6"/>
   </g>
   <g id="line2d_10">
    <path d="M 677.16 293.43875 
L 576.72 241.69475 
" clip-path="url(#p11bf061430)" style="fill: none; stroke-dasharray: 2.22,0.96; stroke-dashoffset: 0; stroke: #c0c5cc; stroke-width: 0.6"/>
   </g>
   <g id="text_1">
    <text x="299.89" y="109.21" font-family="Arial, Helvetica, sans-serif" font-size="11.0" fill="#fbf9f4">CABINET / UNION GOVERNMENT</text>
   </g>
   <g id="text_2">
    <text x="195.01" y="123.17" font-family="Arial, Helvetica, sans-serif" font-size="8.0" font-style="italic" fill="#fbf9f4">IndiaAI Mission (Mar 2024) · ISM 1.0 (Dec 2021) · ISM 2.0 (Feb 2026) · NDC (RE) · Atmanirbhar Bharat</text>
   </g>
   <g id="text_3">
    <text x="158.87" y="210.65" font-family="Arial, Helvetica, sans-serif" font-size="10.0" fill="#0f1828">MeitY</text>
   </g>
   <g id="text_4">
    <text x="155.27" y="218.51" font-family="Arial, Helvetica, sans-serif" font-size="7.5" font-style="italic" fill="#0f1828">Ministry of</text>
    <text x="145.73" y="226.91" font-family="Arial, Helvetica, sans-serif" font-size="7.5" font-style="italic" fill="#0f1828">Electronics &amp; IT</text>
   </g>
   <g id="text_5">
    <text x="294.94" y="210.65" font-family="Arial, Helvetica, sans-serif" font-size="10.0" fill="#0f1828">MoCI</text>
   </g>
   <g id="text_6">
    <text x="289.19" y="218.51" font-family="Arial, Helvetica, sans-serif" font-size="7.5" font-style="italic" fill="#0f1828">Ministry of</text>
    <text x="267.71" y="226.91" font-family="Arial, Helvetica, sans-serif" font-size="7.5" font-style="italic" fill="#0f1828">Commerce &amp; Industry</text>
   </g>
   <g id="text_7">
    <text x="408.99" y="210.65" font-family="Arial, Helvetica, sans-serif" font-size="10.0" fill="#0f1828">MoP / MNRE</text>
   </g>
   <g id="text_8">
    <text x="426.99" y="218.51" font-family="Arial, Helvetica, sans-serif" font-size="7.5" font-style="italic" fill="#0f1828">Power +</text>
    <text x="394.23" y="226.91" font-family="Arial, Helvetica, sans-serif" font-size="7.5" font-style="italic" fill="#0f1828">New &amp; Renewable Energy</text>
   </g>
   <g id="text_9">
    <text x="548.15" y="210.65" font-family="Arial, Helvetica, sans-serif" font-size="10.0" fill="#0f1828">MoF / DEA</text>
   </g>
   <g id="text_10">
    <text x="559.65" y="218.51" font-family="Arial, Helvetica, sans-serif" font-size="7.5" font-style="italic" fill="#0f1828">Finance /</text>
    <text x="516.64" y="226.91" font-family="Arial, Helvetica, sans-serif" font-size="7.5" font-style="italic" fill="#0f1828">Department of Economic Affairs</text>
   </g>
   <g id="text_11">
    <text x="102.32" y="299.69" font-family="Arial, Helvetica, sans-serif" font-size="8.5" fill="#0f1828">IndiaAI</text>
    <text x="101.01" y="309.21" font-family="Arial, Helvetica, sans-serif" font-size="8.5" fill="#0f1828">Mission</text>
   </g>
   <g id="text_12">
    <text x="64.98" y="326.46" font-family="Arial, Helvetica, sans-serif" font-size="6.5" font-style="italic" fill="#0f1828">Rs 10,372 cr · GPU empanelment</text>
   </g>
   <g id="text_13">
    <text x="221.89" y="309.21" font-family="Arial, Helvetica, sans-serif" font-size="8.5" fill="#0f1828">ISM</text>
   </g>
   <g id="text_14">
    <text x="206.49" y="319.18" font-family="Arial, Helvetica, sans-serif" font-size="6.5" font-style="italic" fill="#0f1828">Rs 76,000 cr +</text>
    <text x="212.55" y="326.46" font-family="Arial, Helvetica, sans-serif" font-size="6.5" font-style="italic" fill="#0f1828">12 projects</text>
   </g>
   <g id="text_15">
    <text x="307.15" y="299.69" font-family="Arial, Helvetica, sans-serif" font-size="8.5" fill="#0f1828">C-DAC ChipIN /</text>
    <text x="334.54" y="309.21" font-family="Arial, Helvetica, sans-serif" font-size="8.5" fill="#0f1828">DLI</text>
   </g>
   <g id="text_16">
    <text x="299.09" y="326.46" font-family="Arial, Helvetica, sans-serif" font-size="6.5" font-style="italic" fill="#0f1828">270 universities · 23+ proj</text>
   </g>
   <g id="text_17">
    <text x="423.56" y="309.21" font-family="Arial, Helvetica, sans-serif" font-size="8.5" fill="#0f1828">STPI / NIELIT</text>
   </g>
   <g id="text_18">
    <text x="421.61" y="326.46" font-family="Arial, Helvetica, sans-serif" font-size="6.5" font-style="italic" fill="#0f1828">IT exports + skilling</text>
   </g>
   <g id="text_19">
    <text x="530.08" y="309.21" font-family="Arial, Helvetica, sans-serif" font-size="8.5" fill="#0f1828">CEA / DISCOMs</text>
   </g>
   <g id="text_20">
    <text x="534.71" y="326.46" font-family="Arial, Helvetica, sans-serif" font-size="6.5" font-style="italic" fill="#0f1828">Grid + tariff orders</text>
   </g>
   <g id="text_21">
    <text x="656.45" y="299.69" font-family="Arial, Helvetica, sans-serif" font-size="8.5" fill="#0f1828">NaBFID /</text>
    <text x="663.34" y="309.21" font-family="Arial, Helvetica, sans-serif" font-size="8.5" fill="#0f1828">InvITs</text>
   </g>
   <g id="text_22">
    <text x="641.87" y="326.46" font-family="Arial, Helvetica, sans-serif" font-size="6.5" font-style="italic" fill="#0f1828">Infrastructure finance</text>
   </g>
   <g id="text_23">
    <text x="101.50" y="403.87" font-family="Arial, Helvetica, sans-serif" font-size="7.0" fill="#0f1828">Compute</text>
    <text x="92.00" y="411.71" font-family="Arial, Helvetica, sans-serif" font-size="7.0" fill="#0f1828">Empanelment</text>
   </g>
   <g id="text_24">
    <text x="82.39" y="432.41" font-family="Arial, Helvetica, sans-serif" font-size="6.0" font-style="italic" fill="#4a5567">38k+ GPUs · 7 providers</text>
   </g>
   <g id="text_25">
    <text x="183.31" y="403.87" font-family="Arial, Helvetica, sans-serif" font-size="7.0" fill="#0f1828">PLI Semi /</text>
    <text x="178.82" y="411.71" font-family="Arial, Helvetica, sans-serif" font-size="7.0" fill="#0f1828">Capex grant</text>
   </g>
   <g id="text_26">
    <text x="167.11" y="432.41" font-family="Arial, Helvetica, sans-serif" font-size="6.0" font-style="italic" fill="#4a5567">50% pari-passu support</text>
   </g>
   <g id="text_27">
    <text x="254.16" y="403.82" font-family="Arial, Helvetica, sans-serif" font-size="7.0" fill="#0f1828">DLI 50% subsidy</text>
    <text x="274.88" y="411.71" font-family="Arial, Helvetica, sans-serif" font-size="7.0" fill="#0f1828">+ C2S</text>
   </g>
   <g id="text_28">
    <text x="256.03" y="432.41" font-family="Arial, Helvetica, sans-serif" font-size="6.0" font-style="italic" fill="#4a5567">Cap Rs 15 cr/project</text>
   </g>
   <g id="text_29">
    <text x="347.49" y="403.82" font-family="Arial, Helvetica, sans-serif" font-size="7.0" fill="#0f1828">GCC Payroll</text>
    <text x="351.74" y="411.71" font-family="Arial, Helvetica, sans-serif" font-size="7.0" fill="#0f1828">subsidies</text>
   </g>
   <g id="text_30">
    <text x="336.68" y="432.41" font-family="Arial, Helvetica, sans-serif" font-size="6.0" font-style="italic" fill="#4a5567">TN, KA, MH state-level</text>
   </g>
   <g id="text_31">
    <text x="422.81" y="403.87" font-family="Arial, Helvetica, sans-serif" font-size="7.0" fill="#0f1828">Open-access RE</text>
    <text x="444.36" y="411.71" font-family="Arial, Helvetica, sans-serif" font-size="7.0" fill="#0f1828">PPAs</text>
   </g>
   <g id="text_32">
    <text x="413.72" y="432.41" font-family="Arial, Helvetica, sans-serif" font-size="6.0" font-style="italic" fill="#4a5567">CSS waivers state-by-state</text>
   </g>
   <g id="text_33">
    <text x="521.80" y="403.87" font-family="Arial, Helvetica, sans-serif" font-size="7.0" fill="#0f1828">EMC 2.0</text>
    <text x="524.82" y="411.71" font-family="Arial, Helvetica, sans-serif" font-size="7.0" fill="#0f1828">grants</text>
   </g>
   <g id="text_34">
    <text x="507.91" y="432.41" font-family="Arial, Helvetica, sans-serif" font-size="6.0" font-style="italic" fill="#4a5567">Land + cluster infra</text>
   </g>
   <g id="text_35">
    <text x="599.10" y="403.87" font-family="Arial, Helvetica, sans-serif" font-size="7.0" fill="#0f1828">InvIT / REIT</text>
    <text x="606.92" y="411.71" font-family="Arial, Helvetica, sans-serif" font-size="7.0" fill="#0f1828">listings</text>
   </g>
   <g id="text_36">
    <text x="586.88" y="432.41" font-family="Arial, Helvetica, sans-serif" font-size="6.0" font-style="italic" fill="#4a5567">DC asset securitisation</text>
   </g>
   <g id="text_37">
    <text x="651.16" y="403.87" font-family="Arial, Helvetica, sans-serif" font-size="7.0" fill="#0f1828">FutureSkills /</text>
    <text x="664.16" y="411.71" font-family="Arial, Helvetica, sans-serif" font-size="7.0" fill="#0f1828">ChipIN</text>
   </g>
   <g id="text_38">
    <text x="639.65" y="432.41" font-family="Arial, Helvetica, sans-serif" font-size="6.0" font-style="italic" fill="#4a5567">18.56 lakh + 67k trained</text>
   </g>
   <g id="text_39">
    <text x="63.42" y="492.60" font-family="Arial, Helvetica, sans-serif" font-size="7.5" fill="#0f1828">BENEFICIARIES: Tata Electronics · Foxconn · Micron · Reliance · Adani · AWS · MSFT · Google · 1,700+ GCCs · 60,000+ Indian fabless designers · 7.83 cr MSMEs</text>
   </g>
   <g id="text_40">
    <text x="75.78" y="128.23" transform="rotate(-90.0 75.78 128.23)" font-family="Arial, Helvetica, sans-serif" font-size="9.0" fill="#4a5567">CABINET</text>
   </g>
   <g id="text_41">
    <text x="75.78" y="242.72" transform="rotate(-90.0 75.78 242.72)" font-family="Arial, Helvetica, sans-serif" font-size="9.0" fill="#4a5567">MINISTRIES</text>
   </g>
   <g id="text_42">
    <text x="75.78" y="338.48" transform="rotate(-90.0 75.78 338.48)" font-family="Arial, Helvetica, sans-serif" font-size="9.0" fill="#4a5567">AGENCIES</text>
   </g>
   <g id="text_43">
    <text x="75.78" y="451.52" transform="rotate(-90.0 75.78 451.52)" font-family="Arial, Helvetica, sans-serif" font-size="9.0" fill="#4a5567">INSTRUMENTS</text>
   </g>
   <g id="text_44">
    <text x="75.78" y="524.32" transform="rotate(-90.0 75.78 524.32)" font-family="Arial, Helvetica, sans-serif" font-size="9.0" fill="#4a5567">BENEFICIARIES</text>
   </g>
  </g>
  <g id="text_45">
   <text x="7.20" y="24.68" font-family="Arial, Helvetica, sans-serif" font-size="15.0" fill="#0f1828">India AI Policy Architecture — institutional flow</text>
  </g>
  <g id="text_46">
   <text x="7.20" y="36.32" font-family="Arial, Helvetica, sans-serif" font-size="10.5" font-style="italic" fill="#4a5567">From Cabinet approvals through ministries and agencies down to instruments and corporate beneficiaries</text>
  </g>
  <g id="text_47">
   <text x="627.87" y="13.28" font-family="Arial, Helvetica, sans-serif" font-size="8.0" fill="#c0c5cc">Figure 29 · Techadyant Labs · 2026</text>
  </g>
  <g id="text_48">
   <text x="7.20" y="554.72" font-family="Arial, Helvetica, sans-serif" font-size="8.0" font-style="italic" fill="#4a5567">Source: PIB releases (PRIDs 2012375, 2108602, 2128604, 2155456, 2221522, 2258119); state government policy PDFs; Techadyant Labs synthesis.</text>
  </g>
 </g>
 <defs>
  <clipPath id="p11bf061430">
   <rect x="63.36" y="59.35875" width="669.6" height="443.52"/>
  </clipPath>
 </defs>
</svg>
