<svg xmlns="http://www.w3.org/2000/svg" viewBox="0 0 820 440" font-family="Arial, Helvetica, sans-serif">
<rect width="820" height="440" fill="#FBF9F4"/>
<rect x="0" y="0" width="820" height="6" fill="#0F1828"/>
<text x="40" y="44" font-size="22" font-weight="700" fill="#0F1828">Spend peaks early, then becomes an annuity</text>
<text x="40" y="68" font-size="13" fill="#4A5567">Annual Army UAS/LM procurement, 2026–2035</text>
<text x="780" y="30" font-size="11" fill="#4A5567" text-anchor="end">Techadyant Labs &#183; 2026</text>
<line x1="70" y1="360" x2="770" y2="360" stroke="#E8E5DD" stroke-width="1"/>
<text x="62" y="364" font-size="10" fill="#4A5567" text-anchor="end">0k</text>
<line x1="70" y1="256" x2="770" y2="256" stroke="#E8E5DD" stroke-width="1"/>
<text x="62" y="260" font-size="10" fill="#4A5567" text-anchor="end">10k</text>
<line x1="70" y1="152" x2="770" y2="152" stroke="#E8E5DD" stroke-width="1"/>
<text x="62" y="156" font-size="10" fill="#4A5567" text-anchor="end">20k</text>
<rect x="80" y="193" width="49" height="167" rx="2" fill="#C8443B"/>
<text x="105" y="376" font-size="9.5" fill="#4A5567" text-anchor="middle">2026</text>
<rect x="150" y="152" width="49" height="208" rx="2" fill="#C8443B"/>
<text x="175" y="376" font-size="9.5" fill="#4A5567" text-anchor="middle">2027</text>
<rect x="220" y="131" width="49" height="229" rx="2" fill="#C8443B"/>
<text x="245" y="376" font-size="9.5" fill="#4A5567" text-anchor="middle">2028</text>
<rect x="290" y="178" width="49" height="182" rx="2" fill="#C9A84C"/>
<text x="315" y="376" font-size="9.5" fill="#4A5567" text-anchor="middle">2029</text>
<rect x="360" y="183" width="49" height="177" rx="2" fill="#C9A84C"/>
<text x="385" y="376" font-size="9.5" fill="#4A5567" text-anchor="middle">2030</text>
<rect x="430" y="191" width="49" height="169" rx="2" fill="#C9A84C"/>
<text x="455" y="376" font-size="9.5" fill="#4A5567" text-anchor="middle">2031</text>
<rect x="500" y="261" width="49" height="99" rx="2" fill="#0F1828"/>
<text x="525" y="376" font-size="9.5" fill="#4A5567" text-anchor="middle">2032</text>
<rect x="570" y="264" width="49" height="96" rx="2" fill="#0F1828"/>
<text x="595" y="376" font-size="9.5" fill="#4A5567" text-anchor="middle">2033</text>
<rect x="640" y="269" width="49" height="91" rx="2" fill="#0F1828"/>
<text x="665" y="376" font-size="9.5" fill="#4A5567" text-anchor="middle">2034</text>
<rect x="710" y="269" width="49" height="91" rx="2" fill="#0F1828"/>
<text x="735" y="376" font-size="9.5" fill="#4A5567" text-anchor="middle">2035</text>
<text x="70" y="100" font-size="11" fill="#4A5567">Indicative annual procurement, INR crore — peak 2027–28</text>
<rect x="70" y="395" width="13" height="13" fill="#C8443B"/>
<text x="88" y="406" font-size="10" fill="#0F1828">Phase I 2026–28 (40%)</text>
<rect x="285" y="395" width="13" height="13" fill="#C9A84C"/>
<text x="303" y="406" font-size="10" fill="#0F1828">Phase II 2028–31 (35%)</text>
<rect x="500" y="395" width="13" height="13" fill="#0F1828"/>
<text x="518" y="406" font-size="10" fill="#0F1828">Phase III 2031–35 (25%)</text>
<line x1="40" y1="406" x2="780" y2="406" stroke="#E8E5DD" stroke-width="1"/>
<text x="40" y="424" font-size="10" fill="#4A5567">Source: Indian Army UAS &amp; Loitering Munitions roadmap (reconstructed); Techadyant Labs analysis.</text>
<text x="780" y="424" font-size="10" font-style="italic" fill="#C9A84C" text-anchor="end">Forecast / Modelled</text>
</svg>