<svg xmlns="http://www.w3.org/2000/svg" viewBox="0 0 820 420" font-family="Arial, Helvetica, sans-serif">
<rect width="820" height="420" fill="#FBF9F4"/>
<rect x="0" y="0" width="820" height="6" fill="#0F1828"/>
<text x="40" y="44" font-size="22" font-weight="700" fill="#0F1828">A decade in three acquisition waves</text>
<text x="40" y="68" font-size="13" fill="#4A5567">Capability maturity and procurement phasing, 2026–2035</text>
<text x="780" y="30" font-size="11" fill="#4A5567" text-anchor="end">Techadyant Labs &#183; 2026</text>
<rect x="60" y="150" width="280" height="58" rx="4" fill="#C9A84C"/>
<text x="74" y="175" font-size="15" font-weight="700" fill="#ffffff">Phase I</text>
<text x="74" y="195" font-size="12" fill="#ffffff">2026–2028</text>
<text x="328" y="187" font-size="20" font-weight="700" fill="#ffffff" text-anchor="end">40%</text>
<text x="74" y="232" font-size="11" fill="#4A5567">&#8226; Tactical ISR</text>
<text x="74" y="250" font-size="11" fill="#4A5567">&#8226; FPV systems</text>
<text x="74" y="268" font-size="11" fill="#4A5567">&#8226; Loitering munitions</text>
<text x="74" y="286" font-size="11" fill="#4A5567">&#8226; Counter-UAS</text>
<text x="74" y="304" font-size="11" fill="#4A5567">&#8226; Logistics</text>
<rect x="340" y="150" width="245" height="58" rx="4" fill="#2BC5B4"/>
<text x="354" y="175" font-size="15" font-weight="700" fill="#ffffff">Phase II</text>
<text x="354" y="195" font-size="12" fill="#ffffff">2028–2031</text>
<text x="573" y="187" font-size="20" font-weight="700" fill="#ffffff" text-anchor="end">35%</text>
<text x="354" y="232" font-size="11" fill="#4A5567">&#8226; Swarms</text>
<text x="354" y="250" font-size="11" fill="#4A5567">&#8226; MUM-T</text>
<text x="354" y="268" font-size="11" fill="#4A5567">&#8226; EW drones</text>
<text x="354" y="286" font-size="11" fill="#4A5567">&#8226; Data relay</text>
<rect x="585" y="150" width="175" height="58" rx="4" fill="#0F1828"/>
<text x="599" y="175" font-size="15" font-weight="700" fill="#ffffff">Phase III</text>
<text x="599" y="195" font-size="12" fill="#ffffff">2031–2035</text>
<text x="748" y="187" font-size="20" font-weight="700" fill="#ffffff" text-anchor="end">25%</text>
<text x="599" y="232" font-size="11" fill="#4A5567">&#8226; HAPS</text>
<text x="599" y="250" font-size="11" fill="#4A5567">&#8226; AI swarms</text>
<text x="599" y="268" font-size="11" fill="#4A5567">&#8226; Hunter-killer</text>
<text x="599" y="286" font-size="11" fill="#4A5567">&#8226; Collaborative combat</text>
<text x="60" y="130" font-size="11" fill="#4A5567">Share of acquisition effort &#183; 2026 &#8594; 2035</text>
<line x1="60" y1="214" x2="760" y2="214" stroke="#E8E5DD" stroke-width="1"/>
<line x1="40" y1="386" x2="780" y2="386" stroke="#E8E5DD" stroke-width="1"/>
<text x="40" y="404" font-size="10" fill="#4A5567">Source: Indian Army UAS &amp; Loitering Munitions roadmap (reconstructed); Techadyant Labs analysis.</text>
<text x="780" y="404" font-size="10" font-style="italic" fill="#C9A84C" text-anchor="end">Reconstructed / Forecast</text>
</svg>