<svg xmlns="http://www.w3.org/2000/svg" viewBox="0 0 780 420" font-family="Arial, Helvetica, sans-serif">
<rect width="780" height="420" fill="#FBF9F4"/>
<rect x="0" y="0" width="780" height="6" fill="#0F1828"/>
<text x="40" y="44" font-size="22" font-weight="700" fill="#0F1828">Margin lives up the stack</text>
<text x="40" y="68" font-size="13" fill="#4A5567">Indicative gross-margin band by subsystem layer</text>
<text x="740" y="30" font-size="11" fill="#4A5567" text-anchor="end">Techadyant Labs &#183; 2026</text>
<line x1="260" y1="124" x2="260" y2="350" stroke="#E8E5DD" stroke-width="1"/>
<text x="260" y="368" font-size="10" fill="#4A5567" text-anchor="middle">0%</text>
<line x1="375" y1="124" x2="375" y2="350" stroke="#E8E5DD" stroke-width="1"/>
<text x="375" y="368" font-size="10" fill="#4A5567" text-anchor="middle">20%</text>
<line x1="490" y1="124" x2="490" y2="350" stroke="#E8E5DD" stroke-width="1"/>
<text x="490" y="368" font-size="10" fill="#4A5567" text-anchor="middle">40%</text>
<line x1="605" y1="124" x2="605" y2="350" stroke="#E8E5DD" stroke-width="1"/>
<text x="605" y="368" font-size="10" fill="#4A5567" text-anchor="middle">60%</text>
<line x1="720" y1="124" x2="720" y2="350" stroke="#E8E5DD" stroke-width="1"/>
<text x="720" y="368" font-size="10" fill="#4A5567" text-anchor="middle">80%</text>
<text x="44" y="152" font-size="12" font-weight="700" fill="#0F1828">Autonomy &amp; mission software</text>
<rect x="548" y="136" width="115" height="22" rx="3" fill="#2BC5B4"/>
<text x="670" y="152" font-size="11" fill="#4A5567">50–70%</text>
<text x="44" y="200" font-size="12" font-weight="700" fill="#0F1828">Sensing &amp; payloads</text>
<rect x="519" y="184" width="86" height="22" rx="3" fill="#2BC5B4"/>
<text x="613" y="200" font-size="11" fill="#4A5567">45–60%</text>
<text x="44" y="248" font-size="12" font-weight="700" fill="#0F1828">Compute &amp; semiconductors</text>
<rect x="461" y="232" width="115" height="22" rx="3" fill="#C9A84C"/>
<text x="584" y="248" font-size="11" fill="#4A5567">35–55%</text>
<text x="44" y="296" font-size="12" font-weight="700" fill="#0F1828">Communications &amp; RF</text>
<rect x="461" y="280" width="86" height="22" rx="3" fill="#C9A84C"/>
<text x="556" y="296" font-size="11" fill="#4A5567">35–50%</text>
<text x="44" y="344" font-size="12" font-weight="700" fill="#0F1828">Propulsion &amp; power</text>
<rect x="432" y="328" width="58" height="22" rx="3" fill="#4A5567"/>
<text x="498" y="344" font-size="11" fill="#4A5567">30–40%</text>
<text x="720" y="388" font-size="10.5" fill="#4A5567" text-anchor="end">Gross-margin band (modelled)</text>
<line x1="40" y1="386" x2="740" y2="386" stroke="#E8E5DD" stroke-width="1"/>
<text x="40" y="404" font-size="10" fill="#4A5567">Source: Indian Army UAS &amp; Loitering Munitions roadmap (reconstructed); Techadyant Labs analysis.</text>
<text x="740" y="404" font-size="10" font-style="italic" fill="#C9A84C" text-anchor="end">Modelled</text>
</svg>