<svg xmlns="http://www.w3.org/2000/svg" viewBox="0 0 800 460" font-family="Arial, Helvetica, sans-serif">
<rect width="800" height="460" fill="#FBF9F4"/>
<rect x="0" y="0" width="800" height="6" fill="#0F1828"/>
<text x="40" y="44" font-size="22" font-weight="700" fill="#0F1828">Where the value really sits</text>
<text x="40" y="68" font-size="13" fill="#4A5567">Approximate share of value across the drone supply chain</text>
<text x="760" y="30" font-size="11" fill="#4A5567" text-anchor="end">Techadyant Labs &#183; 2026</text>
<line x1="210" y1="114" x2="210" y2="380" stroke="#E8E5DD" stroke-width="1"/>
<text x="210" y="398" font-size="10" fill="#4A5567" text-anchor="middle">0%</text>
<line x1="406" y1="114" x2="406" y2="380" stroke="#E8E5DD" stroke-width="1"/>
<text x="406" y="398" font-size="10" fill="#4A5567" text-anchor="middle">10%</text>
<line x1="602" y1="114" x2="602" y2="380" stroke="#E8E5DD" stroke-width="1"/>
<text x="602" y="398" font-size="10" fill="#4A5567" text-anchor="middle">20%</text>
<text x="44" y="142" font-size="12.5" font-weight="700" fill="#0F1828">Electronics</text>
<rect x="210" y="126" width="432" height="22" rx="3" fill="#2BC5B4" opacity="1"/>
<text x="650" y="142" font-size="11" fill="#4A5567">~22%</text>
<text x="44" y="190" font-size="12.5" font-weight="700" fill="#0F1828">Sensors</text>
<rect x="210" y="174" width="333" height="22" rx="3" fill="#2BC5B4" opacity="1"/>
<text x="551" y="190" font-size="11" fill="#4A5567">~17%</text>
<text x="44" y="238" font-size="12.5" font-weight="700" fill="#0F1828">AI &amp; software</text>
<rect x="210" y="222" width="333" height="22" rx="3" fill="#2BC5B4" opacity="1"/>
<text x="551" y="238" font-size="11" fill="#4A5567">~17%</text>
<text x="44" y="286" font-size="12.5" font-weight="600" fill="#0F1828">Communications</text>
<rect x="210" y="270" width="235" height="22" rx="3" fill="#C9A84C" opacity="0.55"/>
<text x="453" y="286" font-size="11" fill="#4A5567">~12%</text>
<text x="44" y="334" font-size="12.5" font-weight="600" fill="#0F1828">Airframe</text>
<rect x="210" y="318" width="235" height="22" rx="3" fill="#4A5567" opacity="0.55"/>
<text x="453" y="334" font-size="11" fill="#4A5567">~12%</text>
<text x="44" y="382" font-size="12.5" font-weight="600" fill="#0F1828">Propulsion</text>
<rect x="210" y="366" width="235" height="22" rx="3" fill="#4A5567" opacity="0.55"/>
<text x="453" y="382" font-size="11" fill="#4A5567">~12%</text>
<text x="44" y="430" font-size="12.5" font-weight="600" fill="#0F1828">Integration &amp; services</text>
<rect x="210" y="414" width="235" height="22" rx="3" fill="#C9A84C" opacity="0.55"/>
<text x="453" y="430" font-size="11" fill="#4A5567">~12%</text>
<rect x="44" y="406" width="14" height="14" fill="#2BC5B4"/>
<text x="64" y="417" font-size="11" fill="#0F1828">Value increasingly shifts to electronics, sensors and AI &#8212; away from the airframe</text>
<line x1="40" y1="426" x2="760" y2="426" stroke="#E8E5DD" stroke-width="1"/>
<text x="40" y="444" font-size="10" fill="#4A5567">Source: Indian Army UAS &amp; Loitering Munitions roadmap (reconstructed); Techadyant Labs analysis.</text>
<text x="760" y="444" font-size="10" font-style="italic" fill="#C9A84C" text-anchor="end">Indicative</text>
</svg>