<svg xmlns="http://www.w3.org/2000/svg" viewBox="0 0 780 460" font-family="Arial, Helvetica, sans-serif">
<rect width="780" height="460" fill="#FBF9F4"/>
<rect x="0" y="0" width="780" height="6" fill="#0F1828"/>
<text x="40" y="44" font-size="22" font-weight="700" fill="#0F1828">Investment heat map: where to deploy capital first</text>
<text x="40" y="68" font-size="13" fill="#4A5567">Strategic-priority tiers across the unmanned ecosystem</text>
<text x="740" y="30" font-size="11" fill="#4A5567" text-anchor="end">Techadyant Labs &#183; 2026</text>
<text x="44" y="108" font-size="11" fill="#4A5567">Where capital should concentrate first &#8594; highest strategic return at top</text>
<text x="44" y="138" font-size="14" font-weight="700" fill="#0F1828">Tier 1 &#183; Priority 5/5</text>
<rect x="44" y="150" width="168" height="46" rx="5" fill="#C8443B"/>
<text x="128" y="178" font-size="12.5" font-weight="700" fill="#fff" text-anchor="middle">AI</text>
<rect x="224" y="150" width="168" height="46" rx="5" fill="#C8443B"/>
<text x="308" y="178" font-size="12.5" font-weight="700" fill="#fff" text-anchor="middle">Sensors</text>
<rect x="404" y="150" width="168" height="46" rx="5" fill="#C8443B"/>
<text x="488" y="178" font-size="12.5" font-weight="700" fill="#fff" text-anchor="middle">Communications</text>
<rect x="44" y="208" width="168" height="46" rx="5" fill="#C8443B"/>
<text x="128" y="236" font-size="12.5" font-weight="700" fill="#fff" text-anchor="middle">Counter-UAS</text>
<rect x="224" y="208" width="168" height="46" rx="5" fill="#C8443B"/>
<text x="308" y="236" font-size="12.5" font-weight="700" fill="#fff" text-anchor="middle">Swarm systems</text>
<rect x="404" y="208" width="168" height="46" rx="5" fill="#C8443B"/>
<text x="488" y="236" font-size="12.5" font-weight="700" fill="#fff" text-anchor="middle">EW</text>
<text x="44" y="302" font-size="14" font-weight="700" fill="#0F1828">Tier 2 &#183; Priority 4/5</text>
<rect x="44" y="314" width="168" height="46" rx="5" fill="#C9A84C"/>
<text x="128" y="342" font-size="12.5" font-weight="700" fill="#fff" text-anchor="middle">Logistics drones</text>
<rect x="224" y="314" width="168" height="46" rx="5" fill="#C9A84C"/>
<text x="308" y="342" font-size="12.5" font-weight="700" fill="#fff" text-anchor="middle">Mapping systems</text>
<rect x="404" y="314" width="168" height="46" rx="5" fill="#C9A84C"/>
<text x="488" y="342" font-size="12.5" font-weight="700" fill="#fff" text-anchor="middle">Airframes</text>
<rect x="44" y="372" width="168" height="46" rx="5" fill="#C9A84C"/>
<text x="128" y="400" font-size="12.5" font-weight="700" fill="#fff" text-anchor="middle">Batteries</text>
<text x="44" y="466" font-size="14" font-weight="700" fill="#0F1828">Tier 3 &#183; Priority 3/5</text>
<rect x="44" y="478" width="168" height="46" rx="5" fill="#4A5567"/>
<text x="128" y="506" font-size="12.5" font-weight="700" fill="#fff" text-anchor="middle">Commodity hardware</text>
<rect x="224" y="478" width="168" height="46" rx="5" fill="#4A5567"/>
<text x="308" y="506" font-size="12.5" font-weight="700" fill="#fff" text-anchor="middle">Basic manufacturing</text>
<line x1="40" y1="426" x2="740" y2="426" stroke="#E8E5DD" stroke-width="1"/>
<text x="40" y="444" font-size="10" fill="#4A5567">Source: Indian Army UAS &amp; Loitering Munitions roadmap (reconstructed); Techadyant Labs analysis.</text>
<text x="740" y="444" font-size="10" font-style="italic" fill="#C9A84C" text-anchor="end">Indicative</text>
</svg>