<svg xmlns="http://www.w3.org/2000/svg" viewBox="0 0 820 420" font-family="Arial, Helvetica, sans-serif">
<rect width="820" height="420" fill="#FBF9F4"/>
<rect x="0" y="0" width="820" height="6" fill="#0F1828"/>
<text x="40" y="44" font-size="22" font-weight="700" fill="#0F1828">The opportunity at a glance, through 2035</text>
<text x="40" y="68" font-size="13" fill="#4A5567">Scale of the reconstructed Indian Army unmanned-systems roadmap</text>
<text x="780" y="30" font-size="11" fill="#4A5567" text-anchor="end">Techadyant Labs &#183; 2026</text>
<rect x="50" y="120" width="232" height="120" rx="8" fill="#fff" stroke="#E8E5DD" stroke-width="1.5"/>
<rect x="50" y="120" width="232" height="7" rx="3" fill="#C9A84C"/>
<text x="166" y="182" font-size="30" font-weight="700" fill="#0F1828" text-anchor="middle">30+</text>
<text x="166" y="214" font-size="13" fill="#4A5567" text-anchor="middle">Capability categories</text>
<rect x="304" y="120" width="232" height="120" rx="8" fill="#fff" stroke="#E8E5DD" stroke-width="1.5"/>
<rect x="304" y="120" width="232" height="7" rx="3" fill="#2BC5B4"/>
<text x="420" y="182" font-size="30" font-weight="700" fill="#0F1828" text-anchor="middle">80+</text>
<text x="420" y="214" font-size="13" fill="#4A5567" text-anchor="middle">Operational variants</text>
<rect x="558" y="120" width="232" height="120" rx="8" fill="#fff" stroke="#E8E5DD" stroke-width="1.5"/>
<rect x="558" y="120" width="232" height="7" rx="3" fill="#0F1828"/>
<text x="674" y="182" font-size="30" font-weight="700" fill="#0F1828" text-anchor="middle">215k–500k</text>
<text x="674" y="214" font-size="13" fill="#4A5567" text-anchor="middle">Potential systems</text>
<rect x="50" y="264" width="232" height="120" rx="8" fill="#fff" stroke="#E8E5DD" stroke-width="1.5"/>
<rect x="50" y="264" width="232" height="7" rx="3" fill="#C8443B"/>
<text x="166" y="326" font-size="30" font-weight="700" fill="#0F1828" text-anchor="middle">INR 1–1.9</text>
<text x="166" y="358" font-size="13" fill="#4A5567" text-anchor="middle">Lakh crore market</text>
<rect x="304" y="264" width="232" height="120" rx="8" fill="#fff" stroke="#E8E5DD" stroke-width="1.5"/>
<rect x="304" y="264" width="232" height="7" rx="3" fill="#C9A84C"/>
<text x="420" y="326" font-size="30" font-weight="700" fill="#0F1828" text-anchor="middle">INR 2–3</text>
<text x="420" y="358" font-size="13" fill="#4A5567" text-anchor="middle">Lakh crore economic impact</text>
<rect x="558" y="264" width="232" height="120" rx="8" fill="#fff" stroke="#E8E5DD" stroke-width="1.5"/>
<rect x="558" y="264" width="232" height="7" rx="3" fill="#2BC5B4"/>
<text x="674" y="326" font-size="30" font-weight="700" fill="#0F1828" text-anchor="middle">100k+</text>
<text x="674" y="358" font-size="13" fill="#4A5567" text-anchor="middle">High-skilled jobs</text>
<line x1="40" y1="386" x2="780" y2="386" stroke="#E8E5DD" stroke-width="1"/>
<text x="40" y="404" font-size="10" fill="#4A5567">Source: Indian Army UAS &amp; Loitering Munitions roadmap (reconstructed); Techadyant Labs analysis.</text>
<text x="780" y="404" font-size="10" font-style="italic" fill="#C9A84C" text-anchor="end">Forecast</text>
</svg>