<svg xmlns="http://www.w3.org/2000/svg" viewBox="0 0 820 460" font-family="Arial, Helvetica, sans-serif">
<rect width="820" height="460" fill="#FBF9F4"/>
<rect x="0" y="0" width="820" height="6" fill="#0F1828"/>
<text x="40" y="44" font-size="22" font-weight="700" fill="#0F1828">TAM, SAM and SOM by segment</text>
<text x="40" y="68" font-size="13" fill="#4A5567">The market Indian industry can win, and realistically capture</text>
<text x="780" y="30" font-size="11" fill="#4A5567" text-anchor="end">Techadyant Labs &#183; 2026</text>
<line x1="170" y1="114" x2="170" y2="392" stroke="#E8E5DD" stroke-width="1"/>
<text x="170" y="408" font-size="10" fill="#4A5567" text-anchor="middle">0k</text>
<line x1="362" y1="114" x2="362" y2="392" stroke="#E8E5DD" stroke-width="1"/>
<text x="362" y="408" font-size="10" fill="#4A5567" text-anchor="middle">15k</text>
<line x1="555" y1="114" x2="555" y2="392" stroke="#E8E5DD" stroke-width="1"/>
<text x="555" y="408" font-size="10" fill="#4A5567" text-anchor="middle">30k</text>
<line x1="747" y1="114" x2="747" y2="392" stroke="#E8E5DD" stroke-width="1"/>
<text x="747" y="408" font-size="10" fill="#4A5567" text-anchor="middle">45k</text>
<text x="760" y="426" font-size="10.5" fill="#4A5567" text-anchor="end">INR crore, 2026–2035 (modelled)</text>
<text x="44" y="146" font-size="12" font-weight="700" fill="#0F1828">Strike / loitering</text>
<rect x="170" y="120" width="577" height="13" rx="2" fill="#E8E5DD"/>
<rect x="170" y="135" width="450" height="13" rx="2" fill="#C9A84C"/>
<rect x="170" y="150" width="335" height="13" rx="2" fill="#2BC5B4"/>
<text x="753" y="131" font-size="9" fill="#4A5567">TAM 45k</text>
<text x="511" y="161" font-size="9" fill="#4A5567">SOM 26k</text>
<text x="44" y="204" font-size="12" font-weight="700" fill="#0F1828">Surveillance</text>
<rect x="170" y="178" width="417" height="13" rx="2" fill="#E8E5DD"/>
<rect x="170" y="193" width="325" height="13" rx="2" fill="#C9A84C"/>
<rect x="170" y="208" width="242" height="13" rx="2" fill="#2BC5B4"/>
<text x="593" y="189" font-size="9" fill="#4A5567">TAM 32k</text>
<text x="418" y="219" font-size="9" fill="#4A5567">SOM 18k</text>
<text x="44" y="262" font-size="12" font-weight="700" fill="#0F1828">Special mission</text>
<rect x="170" y="236" width="385" height="13" rx="2" fill="#E8E5DD"/>
<rect x="170" y="251" width="300" height="13" rx="2" fill="#C9A84C"/>
<rect x="170" y="266" width="223" height="13" rx="2" fill="#2BC5B4"/>
<text x="561" y="247" font-size="9" fill="#4A5567">TAM 30k</text>
<text x="399" y="277" font-size="9" fill="#4A5567">SOM 17k</text>
<text x="44" y="320" font-size="12" font-weight="700" fill="#0F1828">Logistics</text>
<rect x="170" y="294" width="289" height="13" rx="2" fill="#E8E5DD"/>
<rect x="170" y="309" width="225" height="13" rx="2" fill="#C9A84C"/>
<rect x="170" y="324" width="167" height="13" rx="2" fill="#2BC5B4"/>
<text x="465" y="305" font-size="9" fill="#4A5567">TAM 22k</text>
<text x="343" y="335" font-size="9" fill="#4A5567">SOM 13k</text>
<text x="44" y="378" font-size="12" font-weight="700" fill="#0F1828">Counter-UAS</text>
<rect x="170" y="352" width="192" height="13" rx="2" fill="#E8E5DD"/>
<rect x="170" y="367" width="150" height="13" rx="2" fill="#C9A84C"/>
<rect x="170" y="382" width="112" height="13" rx="2" fill="#2BC5B4"/>
<text x="368" y="363" font-size="9" fill="#4A5567">TAM 15k</text>
<text x="288" y="393" font-size="9" fill="#4A5567">SOM 8k</text>
<rect x="170" y="410" width="13" height="13" fill="#E8E5DD"/>
<text x="188" y="421" font-size="10" fill="#0F1828">TAM total</text>
<rect x="320" y="410" width="13" height="13" fill="#C9A84C"/>
<text x="338" y="421" font-size="10" fill="#0F1828">SAM addressable</text>
<rect x="470" y="410" width="13" height="13" fill="#2BC5B4"/>
<text x="488" y="421" font-size="10" fill="#0F1828">SOM capturable</text>
<line x1="40" y1="426" x2="780" y2="426" stroke="#E8E5DD" stroke-width="1"/>
<text x="40" y="444" font-size="10" fill="#4A5567">Source: Indian Army UAS &amp; Loitering Munitions roadmap (reconstructed); Techadyant Labs analysis.</text>
<text x="780" y="444" font-size="10" font-style="italic" fill="#C9A84C" text-anchor="end">Modelled</text>
</svg>