<svg xmlns="http://www.w3.org/2000/svg" viewBox="0 0 820 360" font-family="Arial, Helvetica, sans-serif">
<rect width="820" height="360" fill="#FBF9F4"/>
<rect x="0" y="0" width="820" height="6" fill="#0F1828"/>
<text x="40" y="44" font-size="22" font-weight="700" fill="#0F1828">Three organising principles</text>
<text x="40" y="68" font-size="13" fill="#4A5567">The future force, held in mind beyond the catalogue</text>
<text x="780" y="30" font-size="11" fill="#4A5567" text-anchor="end">Techadyant Labs &#183; 2026</text>
<rect x="60" y="140" width="230" height="150" rx="8" fill="#fff" stroke="#2BC5B4" stroke-width="2"/>
<rect x="60" y="140" width="230" height="8" rx="3" fill="#2BC5B4"/>
<text x="175.0" y="196" font-size="22" font-weight="700" fill="#0F1828" text-anchor="middle">Persistence</text>
<text x="175.0" y="226" font-size="11.5" fill="#4A5567" text-anchor="middle">Continuous, layered</text>
<text x="175.0" y="244" font-size="11.5" fill="#4A5567" text-anchor="middle">awareness from soldier to</text>
<text x="175.0" y="262" font-size="11.5" fill="#4A5567" text-anchor="middle">theatre</text>
<rect x="310" y="140" width="230" height="150" rx="8" fill="#fff" stroke="#C9A84C" stroke-width="2"/>
<rect x="310" y="140" width="230" height="8" rx="3" fill="#C9A84C"/>
<text x="425.0" y="196" font-size="22" font-weight="700" fill="#0F1828" text-anchor="middle">Precision</text>
<text x="425.0" y="226" font-size="11.5" fill="#4A5567" text-anchor="middle">Distributed, low-cost,</text>
<text x="425.0" y="244" font-size="11.5" fill="#4A5567" text-anchor="middle">accurate effect at every</text>
<text x="425.0" y="262" font-size="11.5" fill="#4A5567" text-anchor="middle">echelon</text>
<rect x="560" y="140" width="230" height="150" rx="8" fill="#fff" stroke="#C8443B" stroke-width="2"/>
<rect x="560" y="140" width="230" height="8" rx="3" fill="#C8443B"/>
<text x="675.0" y="196" font-size="22" font-weight="700" fill="#0F1828" text-anchor="middle">Mass</text>
<text x="675.0" y="226" font-size="11.5" fill="#4A5567" text-anchor="middle">Attritable, manufacturable</text>
<text x="675.0" y="244" font-size="11.5" fill="#4A5567" text-anchor="middle">systems that change the</text>
<text x="675.0" y="262" font-size="11.5" fill="#4A5567" text-anchor="middle">arithmetic</text>
<line x1="40" y1="326" x2="780" y2="326" stroke="#E8E5DD" stroke-width="1"/>
<text x="40" y="344" font-size="10" fill="#4A5567">Source: Indian Army UAS &amp; Loitering Munitions roadmap (reconstructed); Techadyant Labs analysis.</text>
<text x="780" y="344" font-size="10" font-style="italic" fill="#C9A84C" text-anchor="end">Framework</text>
</svg>