<svg xmlns="http://www.w3.org/2000/svg" viewBox="0 0 860 540" font-family="Arial, Helvetica, sans-serif">
<rect width="860" height="540" fill="#FBF9F4"/>
<rect x="0" y="0" width="860" height="6" fill="#0F1828"/>
<text x="40" y="44" font-size="22" font-weight="700" fill="#0F1828">Risk heat map</text>
<text x="40" y="68" font-size="13" fill="#4A5567">Likelihood vs impact — red = severity 20 or above</text>
<text x="820" y="30" font-size="11" fill="#4A5567" text-anchor="end">Techadyant Labs &#183; 2026</text>
<line x1="110" y1="130" x2="110" y2="430" stroke="#E8E5DD" stroke-width="1"/>
<line x1="110" y1="130" x2="470" y2="130" stroke="#E8E5DD" stroke-width="1"/>
<line x1="182" y1="130" x2="182" y2="430" stroke="#E8E5DD" stroke-width="1"/>
<line x1="110" y1="190" x2="470" y2="190" stroke="#E8E5DD" stroke-width="1"/>
<line x1="254" y1="130" x2="254" y2="430" stroke="#E8E5DD" stroke-width="1"/>
<line x1="110" y1="250" x2="470" y2="250" stroke="#E8E5DD" stroke-width="1"/>
<line x1="326" y1="130" x2="326" y2="430" stroke="#E8E5DD" stroke-width="1"/>
<line x1="110" y1="310" x2="470" y2="310" stroke="#E8E5DD" stroke-width="1"/>
<line x1="398" y1="130" x2="398" y2="430" stroke="#E8E5DD" stroke-width="1"/>
<line x1="110" y1="370" x2="470" y2="370" stroke="#E8E5DD" stroke-width="1"/>
<line x1="470" y1="130" x2="470" y2="430" stroke="#E8E5DD" stroke-width="1"/>
<line x1="110" y1="430" x2="470" y2="430" stroke="#E8E5DD" stroke-width="1"/>
<rect x="110" y="130" width="360" height="300" fill="none" stroke="#4A5567"/>
<text x="290.0" y="460" font-size="11" fill="#0F1828" text-anchor="middle">Likelihood  &#8594;</text>
<text x="86" y="280.0" font-size="11" fill="#0F1828" text-anchor="middle" transform="rotate(-90 86 280.0)">Impact  &#8594;</text>
<text x="146" y="444" font-size="10" fill="#4A5567" text-anchor="middle">1</text>
<text x="102" y="404" font-size="10" fill="#4A5567" text-anchor="end">1</text>
<text x="218" y="444" font-size="10" fill="#4A5567" text-anchor="middle">2</text>
<text x="102" y="344" font-size="10" fill="#4A5567" text-anchor="end">2</text>
<text x="290" y="444" font-size="10" fill="#4A5567" text-anchor="middle">3</text>
<text x="102" y="284" font-size="10" fill="#4A5567" text-anchor="end">3</text>
<text x="362" y="444" font-size="10" fill="#4A5567" text-anchor="middle">4</text>
<text x="102" y="224" font-size="10" fill="#4A5567" text-anchor="end">4</text>
<text x="434" y="444" font-size="10" fill="#4A5567" text-anchor="middle">5</text>
<text x="102" y="164" font-size="10" fill="#4A5567" text-anchor="end">5</text>
<circle cx="434" cy="160" r="10" fill="#C8443B" stroke="#0F1828"/>
<text x="434" y="164" font-size="10" font-weight="700" fill="#fff" text-anchor="middle">1</text>
<circle cx="362" cy="160" r="10" fill="#C8443B" stroke="#0F1828"/>
<text x="362" y="164" font-size="10" font-weight="700" fill="#fff" text-anchor="middle">2</text>
<circle cx="378" cy="160" r="10" fill="#C8443B" stroke="#0F1828"/>
<text x="378" y="164" font-size="10" font-weight="700" fill="#fff" text-anchor="middle">3</text>
<circle cx="434" cy="220" r="10" fill="#C8443B" stroke="#0F1828"/>
<text x="434" y="224" font-size="10" font-weight="700" fill="#fff" text-anchor="middle">4</text>
<circle cx="362" cy="220" r="10" fill="#C9A84C" stroke="#0F1828"/>
<text x="362" y="224" font-size="10" font-weight="700" fill="#fff" text-anchor="middle">5</text>
<circle cx="290" cy="160" r="10" fill="#C9A84C" stroke="#0F1828"/>
<text x="290" y="164" font-size="10" font-weight="700" fill="#fff" text-anchor="middle">6</text>
<circle cx="306" cy="160" r="10" fill="#C9A84C" stroke="#0F1828"/>
<text x="306" y="164" font-size="10" font-weight="700" fill="#fff" text-anchor="middle">7</text>
<circle cx="290" cy="220" r="10" fill="#C9A84C" stroke="#0F1828"/>
<text x="290" y="224" font-size="10" font-weight="700" fill="#fff" text-anchor="middle">8</text>
<circle cx="290" cy="280" r="10" fill="#2BC5B4" stroke="#0F1828"/>
<text x="290" y="284" font-size="10" font-weight="700" fill="#fff" text-anchor="middle">9</text>
<circle cx="218" cy="220" r="10" fill="#2BC5B4" stroke="#0F1828"/>
<text x="218" y="224" font-size="10" font-weight="700" fill="#fff" text-anchor="middle">10</text>
<text x="520" y="122" font-size="11" font-weight="700" fill="#0F1828">Risk (severity = L &#215; I)</text>
<circle cx="528" cy="154" r="9" fill="#C8443B" stroke="#0F1828"/>
<text x="528" y="158" font-size="9.5" font-weight="700" fill="#fff" text-anchor="middle">1</text>
<text x="546" y="158" font-size="11" fill="#0F1828">Semiconductor dependency (25)</text>
<circle cx="528" cy="184" r="9" fill="#C8443B" stroke="#0F1828"/>
<text x="528" y="188" font-size="9.5" font-weight="700" fill="#fff" text-anchor="middle">2</text>
<text x="546" y="188" font-size="11" fill="#0F1828">Execution / coordination (20)</text>
<circle cx="528" cy="214" r="9" fill="#C8443B" stroke="#0F1828"/>
<text x="528" y="218" font-size="9.5" font-weight="700" fill="#fff" text-anchor="middle">3</text>
<text x="546" y="218" font-size="11" fill="#0F1828">Battery supply chain (20)</text>
<circle cx="528" cy="244" r="9" fill="#C8443B" stroke="#0F1828"/>
<text x="528" y="248" font-size="9.5" font-weight="700" fill="#fff" text-anchor="middle">4</text>
<text x="546" y="248" font-size="11" fill="#0F1828">Import dependency (20)</text>
<circle cx="528" cy="274" r="9" fill="#C9A84C" stroke="#0F1828"/>
<text x="528" y="278" font-size="9.5" font-weight="700" fill="#fff" text-anchor="middle">5</text>
<text x="546" y="278" font-size="11" fill="#0F1828">Certification throughput (16)</text>
<circle cx="528" cy="304" r="9" fill="#C9A84C" stroke="#0F1828"/>
<text x="528" y="308" font-size="9.5" font-weight="700" fill="#fff" text-anchor="middle">6</text>
<text x="546" y="308" font-size="11" fill="#0F1828">Industrial scale-up (15)</text>
<circle cx="528" cy="334" r="9" fill="#C9A84C" stroke="#0F1828"/>
<text x="528" y="338" font-size="9.5" font-weight="700" fill="#fff" text-anchor="middle">7</text>
<text x="546" y="338" font-size="11" fill="#0F1828">Cyber / SC integrity (15)</text>
<circle cx="528" cy="364" r="9" fill="#C9A84C" stroke="#0F1828"/>
<text x="528" y="368" font-size="9.5" font-weight="700" fill="#fff" text-anchor="middle">8</text>
<text x="546" y="368" font-size="11" fill="#0F1828">Funding stop-start (12)</text>
<circle cx="528" cy="394" r="9" fill="#2BC5B4" stroke="#0F1828"/>
<text x="528" y="398" font-size="9.5" font-weight="700" fill="#fff" text-anchor="middle">9</text>
<text x="546" y="398" font-size="11" fill="#0F1828">Talent (9)</text>
<circle cx="528" cy="424" r="9" fill="#2BC5B4" stroke="#0F1828"/>
<text x="528" y="428" font-size="9.5" font-weight="700" fill="#fff" text-anchor="middle">10</text>
<text x="546" y="428" font-size="11" fill="#0F1828">Technology maturity (8)</text>
<line x1="40" y1="506" x2="820" y2="506" stroke="#E8E5DD" stroke-width="1"/>
<text x="40" y="524" font-size="10" fill="#4A5567">Source: Indian Army UAS &amp; Loitering Munitions roadmap (reconstructed); Techadyant Labs analysis.</text>
<text x="820" y="524" font-size="10" font-style="italic" fill="#C9A84C" text-anchor="end">Assessment</text>
</svg>