<svg xmlns="http://www.w3.org/2000/svg" viewBox="0 0 820 520" font-family="Arial, Helvetica, sans-serif">
<rect width="820" height="520" fill="#FBF9F4"/>
<rect x="0" y="0" width="820" height="6" fill="#0F1828"/>
<text x="40" y="44" font-size="22" font-weight="700" fill="#0F1828">The Drone Industrial Sovereignty Matrix</text>
<text x="40" y="68" font-size="13" fill="#4A5567">Strategic importance vs domestic capability, by subsystem</text>
<text x="780" y="30" font-size="11" fill="#4A5567" text-anchor="end">Techadyant Labs &#183; 2026</text>
<rect x="150" y="120" width="270.0" height="160.0" fill="#f7e9e6"/>
<rect x="420.0" y="120" width="270.0" height="160.0" fill="#e6f4f1"/>
<rect x="150" y="280.0" width="270.0" height="160.0" fill="#f2f1ec"/>
<rect x="420.0" y="280.0" width="270.0" height="160.0" fill="#f4efe2"/>
<rect x="150" y="120" width="540" height="320" fill="none" stroke="#4A5567" stroke-width="1"/>
<line x1="420.0" y1="120" x2="420.0" y2="440" stroke="#4A5567" stroke-width="1"/>
<line x1="150" y1="280.0" x2="690" y2="280.0" stroke="#4A5567" stroke-width="1"/>
<text x="160" y="140" font-size="11.5" font-weight="700" fill="#C8443B">CRITICAL GAP</text>
<text x="680" y="140" font-size="11.5" font-weight="700" fill="#0f8e78" text-anchor="end">SOVEREIGN STRENGTH</text>
<text x="160" y="428" font-size="11" font-weight="700" fill="#4A5567">WATCH / IMPORT</text>
<text x="680" y="428" font-size="11" font-weight="700" fill="#a8852a" text-anchor="end">COMMODITY STRENGTH</text>
<text x="420.0" y="468" font-size="11" fill="#0F1828" text-anchor="middle">Domestic capability  &#8594;</text>
<text x="132" y="280.0" font-size="11" fill="#0F1828" text-anchor="middle" transform="rotate(-90 132 280.0)">Strategic importance  &#8594;</text>
<circle cx="204" cy="216" r="7" fill="#C8443B" stroke="#0F1828"/>
<text x="216" y="220" font-size="10.5" fill="#0F1828" text-anchor="start">Rare-earth magnets</text>
<circle cx="280" cy="171" r="7" fill="#C8443B" stroke="#0F1828"/>
<text x="292" y="175" font-size="10.5" fill="#0F1828" text-anchor="start">Flight-control silicon</text>
<circle cx="344" cy="210" r="7" fill="#C8443B" stroke="#0F1828"/>
<text x="356" y="214" font-size="10.5" fill="#0F1828" text-anchor="start">Cooled IR seekers</text>
<circle cx="312" cy="254" r="7" fill="#C8443B" stroke="#0F1828"/>
<text x="324" y="258" font-size="10.5" fill="#0F1828" text-anchor="start">GaN RF / cells</text>
<circle cx="550" cy="165" r="7" fill="#0f8e78" stroke="#0F1828"/>
<text x="538" y="169" font-size="10.5" fill="#0F1828" text-anchor="end">Autonomy software</text>
<circle cx="474" cy="203" r="7" fill="#0f8e78" stroke="#0F1828"/>
<text x="486" y="207" font-size="10.5" fill="#0F1828" text-anchor="start">EO/IR gimbals</text>
<circle cx="517" cy="242" r="7" fill="#0f8e78" stroke="#0F1828"/>
<text x="529" y="246" font-size="10.5" fill="#0F1828" text-anchor="start">SDR / datalinks</text>
<circle cx="614" cy="312" r="7" fill="#C9A84C" stroke="#0F1828"/>
<text x="602" y="316" font-size="10.5" fill="#0F1828" text-anchor="end">Airframe</text>
<circle cx="442" cy="344" r="7" fill="#4A5567" stroke="#0F1828"/>
<text x="454" y="348" font-size="10.5" fill="#0F1828" text-anchor="start">Ground control</text>
<line x1="40" y1="486" x2="780" y2="486" stroke="#E8E5DD" stroke-width="1"/>
<text x="40" y="504" font-size="10" fill="#4A5567">Source: Indian Army UAS &amp; Loitering Munitions roadmap (reconstructed); Techadyant Labs analysis.</text>
<text x="780" y="504" font-size="10" font-style="italic" fill="#C9A84C" text-anchor="end">Framework</text>
</svg>