<svg xmlns="http://www.w3.org/2000/svg" viewBox="0 0 860 440" font-family="Arial, Helvetica, sans-serif">
<rect width="860" height="440" fill="#FBF9F4"/>
<rect x="0" y="0" width="860" height="6" fill="#0F1828"/>
<text x="40" y="44" font-size="22" font-weight="700" fill="#0F1828">The investor priority matrix</text>
<text x="40" y="68" font-size="13" fill="#4A5567">Where each actor should place its top three bets</text>
<text x="820" y="30" font-size="11" fill="#4A5567" text-anchor="end">Techadyant Labs &#183; 2026</text>
<text x="310.0" y="120" font-size="11" font-weight="700" fill="#0F1828" text-anchor="middle">Top bet 1</text>
<text x="510.0" y="120" font-size="11" font-weight="700" fill="#0F1828" text-anchor="middle">Top bet 2</text>
<text x="710.0" y="120" font-size="11" font-weight="700" fill="#0F1828" text-anchor="middle">Top bet 3</text>
<rect x="40" y="130" width="160" height="58" rx="5" fill="#0F1828"/>
<text x="120" y="163.0" font-size="12.5" font-weight="700" fill="#fff" text-anchor="middle">Startups</text>
<rect x="210" y="130" width="192" height="58" rx="5" fill="#fff" stroke="#0F1828" stroke-width="1.5"/>
<text x="306.0" y="159.0" font-size="10.5" fill="#0F1828" text-anchor="middle">Seekers /</text>
<text x="306.0" y="175.0" font-size="10.5" fill="#0F1828" text-anchor="middle">cooled-IR</text>
<rect x="410" y="130" width="192" height="58" rx="5" fill="#fff" stroke="#0F1828" stroke-width="1.5"/>
<text x="506.0" y="159.0" font-size="10.5" fill="#0F1828" text-anchor="middle">Guidance &amp; swarm</text>
<text x="506.0" y="175.0" font-size="10.5" fill="#0F1828" text-anchor="middle">autonomy</text>
<rect x="610" y="130" width="192" height="58" rx="5" fill="#fff" stroke="#0F1828" stroke-width="1.5"/>
<text x="706.0" y="159.0" font-size="10.5" fill="#0F1828" text-anchor="middle">Counter-UAS soft-kill</text>
<rect x="40" y="204" width="160" height="58" rx="5" fill="#C9A84C"/>
<text x="120" y="237.0" font-size="12.5" font-weight="700" fill="#fff" text-anchor="middle">MSMEs</text>
<rect x="210" y="204" width="192" height="58" rx="5" fill="#fff" stroke="#C9A84C" stroke-width="1.5"/>
<text x="306.0" y="233.0" font-size="10.5" fill="#0F1828" text-anchor="middle">Precision parts &amp;</text>
<text x="306.0" y="249.0" font-size="10.5" fill="#0F1828" text-anchor="middle">gimbals</text>
<rect x="410" y="204" width="192" height="58" rx="5" fill="#fff" stroke="#C9A84C" stroke-width="1.5"/>
<text x="506.0" y="233.0" font-size="10.5" fill="#0F1828" text-anchor="middle">Defence-grade EMS /</text>
<text x="506.0" y="249.0" font-size="10.5" fill="#0F1828" text-anchor="middle">PCBs</text>
<rect x="610" y="204" width="192" height="58" rx="5" fill="#fff" stroke="#C9A84C" stroke-width="1.5"/>
<text x="706.0" y="233.0" font-size="10.5" fill="#0F1828" text-anchor="middle">Dual-use RF</text>
<text x="706.0" y="249.0" font-size="10.5" fill="#0F1828" text-anchor="middle">sub-assemblies</text>
<rect x="40" y="278" width="160" height="58" rx="5" fill="#2BC5B4"/>
<text x="120" y="311.0" font-size="12.5" font-weight="700" fill="#fff" text-anchor="middle">Large firms / DPSUs</text>
<rect x="210" y="278" width="192" height="58" rx="5" fill="#fff" stroke="#2BC5B4" stroke-width="1.5"/>
<text x="306.0" y="307.0" font-size="10.5" fill="#0F1828" text-anchor="middle">Vertical integ. seekers</text>
<text x="306.0" y="323.0" font-size="10.5" fill="#0F1828" text-anchor="middle">&amp; RF</text>
<rect x="410" y="278" width="192" height="58" rx="5" fill="#fff" stroke="#2BC5B4" stroke-width="1.5"/>
<text x="506.0" y="307.0" font-size="10.5" fill="#0F1828" text-anchor="middle">Sustainment / MRO</text>
<text x="506.0" y="323.0" font-size="10.5" fill="#0F1828" text-anchor="middle">annuities</text>
<rect x="610" y="278" width="192" height="58" rx="5" fill="#fff" stroke="#2BC5B4" stroke-width="1.5"/>
<text x="706.0" y="307.0" font-size="10.5" fill="#0F1828" text-anchor="middle">Exportable integrated</text>
<text x="706.0" y="323.0" font-size="10.5" fill="#0F1828" text-anchor="middle">stacks</text>
<rect x="40" y="352" width="160" height="58" rx="5" fill="#C8443B"/>
<text x="120" y="385.0" font-size="12.5" font-weight="700" fill="#fff" text-anchor="middle">VCs / PE</text>
<rect x="210" y="352" width="192" height="58" rx="5" fill="#fff" stroke="#C8443B" stroke-width="1.5"/>
<text x="306.0" y="381.0" font-size="10.5" fill="#0F1828" text-anchor="middle">Autonomy &amp;</text>
<text x="306.0" y="397.0" font-size="10.5" fill="#0F1828" text-anchor="middle">software</text>
<rect x="410" y="352" width="192" height="58" rx="5" fill="#fff" stroke="#C8443B" stroke-width="1.5"/>
<text x="506.0" y="381.0" font-size="10.5" fill="#0F1828" text-anchor="middle">EW / counter-UAS</text>
<text x="506.0" y="397.0" font-size="10.5" fill="#0F1828" text-anchor="middle">/ RF</text>
<rect x="610" y="352" width="192" height="58" rx="5" fill="#fff" stroke="#C8443B" stroke-width="1.5"/>
<text x="706.0" y="381.0" font-size="10.5" fill="#0F1828" text-anchor="middle">Flight-control silicon</text>
<line x1="40" y1="406" x2="820" y2="406" stroke="#E8E5DD" stroke-width="1"/>
<text x="40" y="424" font-size="10" fill="#4A5567">Source: Indian Army UAS &amp; Loitering Munitions roadmap (reconstructed); Techadyant Labs analysis.</text>
<text x="820" y="424" font-size="10" font-style="italic" fill="#C9A84C" text-anchor="end">Assessment</text>
</svg>