<svg xmlns="http://www.w3.org/2000/svg" viewBox="0 0 820 470" font-family="Arial, Helvetica, sans-serif">
<rect width="820" height="470" fill="#FBF9F4"/>
<rect x="0" y="0" width="820" height="6" fill="#0F1828"/>
<text x="40" y="44" font-size="22" font-weight="700" fill="#0F1828">Counter-UAS demands a five-layer defence</text>
<text x="40" y="68" font-size="13" fill="#4A5567">Detection through autonomous hard-kill, by engagement range</text>
<text x="780" y="30" font-size="11" fill="#4A5567" text-anchor="end">Techadyant Labs &#183; 2026</text>
<path d="M 20 300 A 230 230 0 0 1 480 300 Z" fill="#E8E5DD" stroke="#0F1828" stroke-width="1.2" opacity="0.96"/>
<path d="M 65 300 A 185 185 0 0 1 435 300 Z" fill="#d7c7a0" stroke="#0F1828" stroke-width="1.2" opacity="0.96"/>
<path d="M 110 300 A 140 140 0 0 1 390 300 Z" fill="#C9A84C" stroke="#0F1828" stroke-width="1.2" opacity="0.96"/>
<path d="M 158 300 A 92 92 0 0 1 342 300 Z" fill="#C8443B" stroke="#0F1828" stroke-width="1.2" opacity="0.96"/>
<path d="M 204 300 A 46 46 0 0 1 296 300 Z" fill="#0F1828" stroke="#0F1828" stroke-width="1.2" opacity="0.96"/>
<line x1="0" y1="300" x2="500" y2="300" stroke="#0F1828" stroke-width="1.5"/>
<circle cx="250" cy="300" r="7" fill="#2BC5B4" stroke="#0F1828"/>
<text x="250" y="322" font-size="10.5" fill="#0F1828" text-anchor="middle">Protected asset</text>
<text x="540" y="108" font-size="12" font-weight="700" fill="#0F1828">Defensive layers, inner &#8594; outer</text>
<rect x="540" y="130" width="16" height="16" rx="3" fill="#0F1828"/>
<text x="564" y="139" font-size="12.5" font-weight="700" fill="#0F1828">Autonomous</text>
<text x="564" y="155" font-size="10" fill="#4A5567">AI-coordinated anti-swarm &#183; integrated</text>
<rect x="540" y="180" width="16" height="16" rx="3" fill="#C8443B"/>
<text x="564" y="189" font-size="12.5" font-weight="700" fill="#0F1828">Hard kill</text>
<text x="564" y="205" font-size="10" fill="#4A5567">Guns / missiles / directed energy &#183; variable</text>
<rect x="540" y="230" width="16" height="16" rx="3" fill="#C9A84C"/>
<text x="564" y="239" font-size="12.5" font-weight="700" fill="#0F1828">Interceptor</text>
<text x="564" y="255" font-size="10" fill="#4A5567">Collision / net / explosive &#183; 1–10 km</text>
<rect x="540" y="280" width="16" height="16" rx="3" fill="#b9a45f"/>
<text x="564" y="289" font-size="12.5" font-weight="700" fill="#0F1828">Electronic defeat</text>
<text x="564" y="305" font-size="10" fill="#4A5567">Jamming / spoofing &#183; 1–20 km</text>
<rect x="540" y="330" width="16" height="16" rx="3" fill="#4A5567"/>
<text x="564" y="339" font-size="12.5" font-weight="700" fill="#0F1828">Detection</text>
<text x="564" y="355" font-size="10" fill="#4A5567">Radar / acoustic / EO-IR / RF &#183; 1–50 km</text>
<line x1="40" y1="436" x2="780" y2="436" stroke="#E8E5DD" stroke-width="1"/>
<text x="40" y="454" font-size="10" fill="#4A5567">Source: Indian Army UAS &amp; Loitering Munitions roadmap (reconstructed); Techadyant Labs analysis.</text>
<text x="780" y="454" font-size="10" font-style="italic" fill="#C9A84C" text-anchor="end">Schematic</text>
</svg>