<svg xmlns="http://www.w3.org/2000/svg" viewBox="0 0 840 470" font-family="Arial, Helvetica, sans-serif">
<rect width="840" height="470" fill="#FBF9F4"/>
<rect x="0" y="0" width="840" height="6" fill="#0F1828"/>
<text x="40" y="44" font-size="22" font-weight="700" fill="#0F1828">Three futures to 2035</text>
<text x="40" y="68" font-size="13" fill="#4A5567">Scenario outcomes across four metrics</text>
<text x="800" y="30" font-size="11" fill="#4A5567" text-anchor="end">Techadyant Labs &#183; 2026</text>
<rect x="80" y="255" width="36" height="125" rx="2" fill="#4A5567"/>
<text x="98" y="250" font-size="9.5" font-weight="700" fill="#0F1828" text-anchor="middle">1.0</text>
<text x="98" y="394" font-size="9" fill="#4A5567" text-anchor="middle">A</text>
<rect x="122" y="142" width="36" height="238" rx="2" fill="#2BC5B4"/>
<text x="140" y="138" font-size="9.5" font-weight="700" fill="#0F1828" text-anchor="middle">1.9</text>
<text x="140" y="394" font-size="9" fill="#4A5567" text-anchor="middle">B</text>
<rect x="164" y="168" width="36" height="212" rx="2" fill="#C8443B"/>
<text x="182" y="162" font-size="9.5" font-weight="700" fill="#0F1828" text-anchor="middle">1.7</text>
<text x="182" y="394" font-size="9" fill="#4A5567" text-anchor="middle">C</text>
<text x="134" y="410" font-size="9.5" fill="#0F1828" text-anchor="middle">Procurement</text>
<text x="134" y="423" font-size="9.5" fill="#0F1828" text-anchor="middle">(INR lakh cr)</text>
<rect x="260" y="242" width="36" height="138" rx="2" fill="#4A5567"/>
<text x="278" y="238" font-size="9.5" font-weight="700" fill="#0F1828" text-anchor="middle">55</text>
<text x="278" y="394" font-size="9" fill="#4A5567" text-anchor="middle">A</text>
<rect x="302" y="185" width="36" height="195" rx="2" fill="#2BC5B4"/>
<text x="320" y="180" font-size="9.5" font-weight="700" fill="#0F1828" text-anchor="middle">78</text>
<text x="320" y="394" font-size="9" fill="#4A5567" text-anchor="middle">B</text>
<rect x="344" y="225" width="36" height="155" rx="2" fill="#C8443B"/>
<text x="362" y="220" font-size="9.5" font-weight="700" fill="#0F1828" text-anchor="middle">62</text>
<text x="362" y="394" font-size="9" fill="#4A5567" text-anchor="middle">C</text>
<text x="314" y="410" font-size="9.5" fill="#0F1828" text-anchor="middle">Indigenous</text>
<text x="314" y="423" font-size="9.5" fill="#0F1828" text-anchor="middle">content 2035</text>
<rect x="440" y="272" width="36" height="108" rx="2" fill="#4A5567"/>
<text x="458" y="268" font-size="9.5" font-weight="700" fill="#0F1828" text-anchor="middle">2.15</text>
<text x="458" y="394" font-size="9" fill="#4A5567" text-anchor="middle">A</text>
<rect x="482" y="130" width="36" height="250" rx="2" fill="#2BC5B4"/>
<text x="500" y="125" font-size="9.5" font-weight="700" fill="#0F1828" text-anchor="middle">5.0</text>
<text x="500" y="394" font-size="9" fill="#4A5567" text-anchor="middle">B</text>
<rect x="524" y="155" width="36" height="225" rx="2" fill="#C8443B"/>
<text x="542" y="150" font-size="9.5" font-weight="700" fill="#0F1828" text-anchor="middle">4.5</text>
<text x="542" y="394" font-size="9" fill="#4A5567" text-anchor="middle">C</text>
<text x="494" y="410" font-size="9.5" fill="#0F1828" text-anchor="middle">Units</text>
<text x="494" y="423" font-size="9.5" fill="#0F1828" text-anchor="middle">(lakh)</text>
<rect x="620" y="255" width="36" height="125" rx="2" fill="#4A5567"/>
<text x="638" y="250" font-size="9.5" font-weight="700" fill="#0F1828" text-anchor="middle">20</text>
<text x="638" y="394" font-size="9" fill="#4A5567" text-anchor="middle">A</text>
<rect x="662" y="130" width="36" height="250" rx="2" fill="#2BC5B4"/>
<text x="680" y="125" font-size="9.5" font-weight="700" fill="#0F1828" text-anchor="middle">40</text>
<text x="680" y="394" font-size="9" fill="#4A5567" text-anchor="middle">B</text>
<rect x="704" y="224" width="36" height="156" rx="2" fill="#C8443B"/>
<text x="722" y="219" font-size="9.5" font-weight="700" fill="#0F1828" text-anchor="middle">25</text>
<text x="722" y="394" font-size="9" fill="#4A5567" text-anchor="middle">C</text>
<text x="674" y="410" font-size="9.5" fill="#0F1828" text-anchor="middle">Exports</text>
<text x="674" y="423" font-size="9.5" fill="#0F1828" text-anchor="middle">(INR k cr)</text>
<rect x="80" y="110" width="13" height="13" fill="#4A5567"/>
<text x="98" y="121" font-size="10.5" fill="#0F1828">A — Incremental</text>
<rect x="290" y="110" width="13" height="13" fill="#2BC5B4"/>
<text x="308" y="121" font-size="10.5" fill="#0F1828">B — Accelerated</text>
<rect x="500" y="110" width="13" height="13" fill="#C8443B"/>
<text x="518" y="121" font-size="10.5" fill="#0F1828">C — Conflict-driven</text>
<line x1="40" y1="436" x2="800" y2="436" stroke="#E8E5DD" stroke-width="1"/>
<text x="40" y="454" font-size="10" fill="#4A5567">Source: Indian Army UAS &amp; Loitering Munitions roadmap (reconstructed); Techadyant Labs analysis.</text>
<text x="800" y="454" font-size="10" font-style="italic" fill="#C9A84C" text-anchor="end">Modelled</text>
</svg>