<svg xmlns="http://www.w3.org/2000/svg" viewBox="0 0 800 490" font-family="Arial, Helvetica, sans-serif">
<rect width="800" height="490" fill="#FBF9F4"/>
<rect x="0" y="0" width="800" height="6" fill="#0F1828"/>
<text x="40" y="44" font-size="22" font-weight="700" fill="#0F1828">Technology sovereignty scorecard</text>
<text x="40" y="68" font-size="13" fill="#4A5567">Current position and 2035 ambition by capability area</text>
<text x="760" y="30" font-size="11" fill="#4A5567" text-anchor="end">Techadyant Labs &#183; 2026</text>
<text x="240" y="118" font-size="11" font-weight="700" fill="#4A5567" text-anchor="middle">Weak</text>
<text x="380" y="118" font-size="11" font-weight="700" fill="#4A5567" text-anchor="middle">Moderate</text>
<text x="520" y="118" font-size="11" font-weight="700" fill="#4A5567" text-anchor="middle">Strong</text>
<text x="640" y="118" font-size="11" font-weight="700" fill="#0F1828" text-anchor="middle">2035 goal</text>
<line x1="240" y1="162" x2="520" y2="162" stroke="#E8E5DD" stroke-width="6"/>
<text x="44" y="167" font-size="13" font-weight="700" fill="#0F1828">Airframes</text>
<circle cx="520" cy="162" r="9" fill="#2BC5B4" stroke="#0F1828"/>
<text x="550" y="167" font-size="11" fill="#4A5567">&#8594; Global exporter</text>
<line x1="240" y1="212" x2="520" y2="212" stroke="#E8E5DD" stroke-width="6"/>
<text x="44" y="217" font-size="13" font-weight="700" fill="#0F1828">Software &amp; AI</text>
<circle cx="520" cy="212" r="9" fill="#2BC5B4" stroke="#0F1828"/>
<text x="550" y="217" font-size="11" fill="#4A5567">&#8594; Global leader</text>
<line x1="240" y1="262" x2="520" y2="262" stroke="#E8E5DD" stroke-width="6"/>
<text x="44" y="267" font-size="13" font-weight="700" fill="#0F1828">Communications</text>
<circle cx="380" cy="262" r="9" fill="#C9A84C" stroke="#0F1828"/>
<text x="550" y="267" font-size="11" fill="#4A5567">&#8594; Strategic autonomy</text>
<line x1="240" y1="312" x2="520" y2="312" stroke="#E8E5DD" stroke-width="6"/>
<text x="44" y="317" font-size="13" font-weight="700" fill="#0F1828">Batteries</text>
<circle cx="380" cy="312" r="9" fill="#C9A84C" stroke="#0F1828"/>
<text x="550" y="317" font-size="11" fill="#4A5567">&#8594; Domestic supply chain</text>
<line x1="240" y1="362" x2="520" y2="362" stroke="#E8E5DD" stroke-width="6"/>
<text x="44" y="367" font-size="13" font-weight="700" fill="#0F1828">Sensors</text>
<circle cx="240" cy="362" r="9" fill="#C8443B" stroke="#0F1828"/>
<text x="550" y="367" font-size="11" fill="#4A5567">&#8594; Indigenous ecosystem</text>
<line x1="240" y1="412" x2="520" y2="412" stroke="#E8E5DD" stroke-width="6"/>
<text x="44" y="417" font-size="13" font-weight="700" fill="#0F1828">Semiconductors</text>
<circle cx="240" cy="412" r="9" fill="#C8443B" stroke="#0F1828"/>
<text x="550" y="417" font-size="11" fill="#4A5567">&#8594; Domestic capability</text>
<line x1="240" y1="462" x2="520" y2="462" stroke="#E8E5DD" stroke-width="6"/>
<text x="44" y="467" font-size="13" font-weight="700" fill="#0F1828">Propulsion</text>
<circle cx="240" cy="462" r="9" fill="#C8443B" stroke="#0F1828"/>
<text x="550" y="467" font-size="11" fill="#4A5567">&#8594; Strategic autonomy</text>
<line x1="40" y1="456" x2="760" y2="456" stroke="#E8E5DD" stroke-width="1"/>
<text x="40" y="474" font-size="10" fill="#4A5567">Source: Indian Army UAS &amp; Loitering Munitions roadmap (reconstructed); Techadyant Labs analysis.</text>
<text x="760" y="474" font-size="10" font-style="italic" fill="#C9A84C" text-anchor="end">Assessment</text>
</svg>