<svg xmlns="http://www.w3.org/2000/svg" viewBox="0 0 800 470" font-family="Arial, Helvetica, sans-serif">
<rect width="800" height="470" fill="#FBF9F4"/>
<rect x="0" y="0" width="800" height="6" fill="#0F1828"/>
<text x="40" y="44" font-size="22" font-weight="700" fill="#0F1828">Closing the value-dense layers</text>
<text x="40" y="68" font-size="13" fill="#4A5567">Indigenous content today vs the 2035 target, by subsystem layer</text>
<text x="760" y="30" font-size="11" fill="#4A5567" text-anchor="end">Techadyant Labs &#183; 2026</text>
<line x1="230" y1="114" x2="230" y2="400" stroke="#E8E5DD" stroke-width="1"/>
<text x="230" y="418" font-size="10" fill="#4A5567" text-anchor="middle">0%</text>
<line x1="352" y1="114" x2="352" y2="400" stroke="#E8E5DD" stroke-width="1"/>
<text x="352" y="418" font-size="10" fill="#4A5567" text-anchor="middle">25%</text>
<line x1="475" y1="114" x2="475" y2="400" stroke="#E8E5DD" stroke-width="1"/>
<text x="475" y="418" font-size="10" fill="#4A5567" text-anchor="middle">50%</text>
<line x1="598" y1="114" x2="598" y2="400" stroke="#E8E5DD" stroke-width="1"/>
<text x="598" y="418" font-size="10" fill="#4A5567" text-anchor="middle">75%</text>
<line x1="720" y1="114" x2="720" y2="400" stroke="#E8E5DD" stroke-width="1"/>
<text x="720" y="418" font-size="10" fill="#4A5567" text-anchor="middle">100%</text>
<text x="44" y="125" font-size="11.5" font-weight="700" fill="#0F1828">Airframe / structures</text>
<line x1="598" y1="120" x2="681" y2="120" stroke="#C9A84C" stroke-width="3"/>
<circle cx="598" cy="120" r="6" fill="#C8443B"/>
<circle cx="681" cy="120" r="6" fill="#2BC5B4"/>
<text x="44" y="165" font-size="11.5" font-weight="700" fill="#0F1828">AI / autonomy software</text>
<line x1="500" y1="160" x2="646" y2="160" stroke="#C9A84C" stroke-width="3"/>
<circle cx="500" cy="160" r="6" fill="#C8443B"/>
<circle cx="646" cy="160" r="6" fill="#2BC5B4"/>
<text x="44" y="205" font-size="11.5" font-weight="700" fill="#0F1828">Communications</text>
<line x1="426" y1="200" x2="598" y2="200" stroke="#C9A84C" stroke-width="3"/>
<circle cx="426" cy="200" r="6" fill="#C8443B"/>
<circle cx="598" cy="200" r="6" fill="#2BC5B4"/>
<text x="44" y="245" font-size="11.5" font-weight="700" fill="#0F1828">Propulsion</text>
<line x1="402" y1="240" x2="573" y2="240" stroke="#C9A84C" stroke-width="3"/>
<circle cx="402" cy="240" r="6" fill="#C8443B"/>
<circle cx="573" cy="240" r="6" fill="#2BC5B4"/>
<text x="44" y="285" font-size="11.5" font-weight="700" fill="#0F1828">Batteries / power</text>
<line x1="377" y1="280" x2="548" y2="280" stroke="#C9A84C" stroke-width="3"/>
<circle cx="377" cy="280" r="6" fill="#C8443B"/>
<circle cx="548" cy="280" r="6" fill="#2BC5B4"/>
<text x="44" y="325" font-size="11.5" font-weight="700" fill="#0F1828">Sensors / seekers</text>
<line x1="352" y1="320" x2="524" y2="320" stroke="#C9A84C" stroke-width="3"/>
<circle cx="352" cy="320" r="6" fill="#C8443B"/>
<circle cx="524" cy="320" r="6" fill="#2BC5B4"/>
<text x="44" y="365" font-size="11.5" font-weight="700" fill="#0F1828">Compute / semis</text>
<line x1="304" y1="360" x2="450" y2="360" stroke="#C9A84C" stroke-width="3"/>
<circle cx="304" cy="360" r="6" fill="#C8443B"/>
<circle cx="450" cy="360" r="6" fill="#2BC5B4"/>
<text x="720" y="436" font-size="10.5" fill="#4A5567" text-anchor="end">Indigenous content (% of layer value)</text>
<circle cx="240" cy="398" r="6" fill="#C8443B"/><text x="252" y="402" font-size="10" fill="#0F1828">Current</text>
<circle cx="340" cy="398" r="6" fill="#2BC5B4"/><text x="352" y="402" font-size="10" fill="#0F1828">2035 target</text>
<line x1="40" y1="436" x2="760" y2="436" stroke="#E8E5DD" stroke-width="1"/>
<text x="40" y="454" font-size="10" fill="#4A5567">Source: Indian Army UAS &amp; Loitering Munitions roadmap (reconstructed); Techadyant Labs analysis.</text>
<text x="760" y="454" font-size="10" font-style="italic" fill="#C9A84C" text-anchor="end">Modelled</text>
</svg>