<svg xmlns="http://www.w3.org/2000/svg" viewBox="0 0 800 440" font-family="Arial, Helvetica, sans-serif">
<rect width="800" height="440" fill="#FBF9F4"/>
<rect x="0" y="0" width="800" height="6" fill="#0F1828"/>
<text x="40" y="44" font-size="22" font-weight="700" fill="#0F1828">Every leader owns a different advantage</text>
<text x="40" y="68" font-size="13" fill="#4A5567">Comparative international position in unmanned systems</text>
<text x="760" y="30" font-size="11" fill="#4A5567" text-anchor="end">Techadyant Labs &#183; 2026</text>
<rect x="60" y="120" width="228" height="78" rx="6" fill="#fff" stroke="#0F1828" stroke-width="1.5"/>
<rect x="60" y="120" width="8" height="78" rx="3" fill="#0F1828"/>
<text x="82" y="152" font-size="15" font-weight="700" fill="#0F1828">United States</text>
<text x="82" y="176" font-size="12" fill="#4A5567">Advanced autonomy</text>
<rect x="306" y="120" width="228" height="78" rx="6" fill="#fff" stroke="#C8443B" stroke-width="1.5"/>
<rect x="306" y="120" width="8" height="78" rx="3" fill="#C8443B"/>
<text x="328" y="152" font-size="15" font-weight="700" fill="#0F1828">China</text>
<text x="328" y="176" font-size="12" fill="#4A5567">Manufacturing scale</text>
<rect x="552" y="120" width="228" height="78" rx="6" fill="#fff" stroke="#2BC5B4" stroke-width="1.5"/>
<rect x="552" y="120" width="8" height="78" rx="3" fill="#2BC5B4"/>
<text x="574" y="152" font-size="15" font-weight="700" fill="#0F1828">Israel</text>
<text x="574" y="176" font-size="12" fill="#4A5567">Sensors &amp; ISR</text>
<rect x="60" y="218" width="228" height="78" rx="6" fill="#fff" stroke="#C9A84C" stroke-width="1.5"/>
<rect x="60" y="218" width="8" height="78" rx="3" fill="#C9A84C"/>
<text x="82" y="250" font-size="15" font-weight="700" fill="#0F1828">Türkiye</text>
<text x="82" y="274" font-size="12" fill="#4A5567">Integrated platforms</text>
<rect x="306" y="218" width="228" height="78" rx="6" fill="#fff" stroke="#4A5567" stroke-width="1.5"/>
<rect x="306" y="218" width="8" height="78" rx="3" fill="#4A5567"/>
<text x="328" y="250" font-size="15" font-weight="700" fill="#0F1828">Ukraine</text>
<text x="328" y="274" font-size="12" fill="#4A5567">Battlefield innovation</text>
<rect x="552" y="218" width="228" height="78" rx="6" fill="#fff" stroke="#1f7a6e" stroke-width="3"/>
<rect x="552" y="218" width="8" height="78" rx="3" fill="#1f7a6e"/>
<text x="574" y="250" font-size="15" font-weight="700" fill="#0F1828">India</text>
<text x="574" y="274" font-size="12" fill="#4A5567">Software + scale potential</text>
<text x="768" y="238" font-size="9" font-weight="700" fill="#1f7a6e" text-anchor="end">OUR PATH</text>
<text x="60" y="330" font-size="11.5" fill="#4A5567">India&#8217;s realistic edge: software excellence + manufacturing scale + cost + domestic demand &#8212; not replication.</text>
<line x1="40" y1="406" x2="760" y2="406" stroke="#E8E5DD" stroke-width="1"/>
<text x="40" y="424" font-size="10" fill="#4A5567">Source: Indian Army UAS &amp; Loitering Munitions roadmap (reconstructed); Techadyant Labs analysis.</text>
<text x="760" y="424" font-size="10" font-style="italic" fill="#C9A84C" text-anchor="end">Assessment</text>
</svg>