<svg xmlns="http://www.w3.org/2000/svg" viewBox="0 0 800 490" font-family="Arial, Helvetica, sans-serif">
<rect width="800" height="490" fill="#FBF9F4"/>
<rect x="0" y="0" width="800" height="6" fill="#0F1828"/>
<text x="40" y="44" font-size="22" font-weight="700" fill="#0F1828">The capability-gap map</text>
<text x="40" y="68" font-size="13" fill="#4A5567">India is strong at airframe and software, weak at magnets, detectors and silicon</text>
<text x="760" y="30" font-size="11" fill="#4A5567" text-anchor="end">Techadyant Labs &#183; 2026</text>
<text x="360" y="124" font-size="11" font-weight="700" fill="#0F1828" text-anchor="middle">India capability</text>
<text x="580" y="124" font-size="11" font-weight="700" fill="#0F1828" text-anchor="middle">Import dependence</text>
<text x="44" y="161" font-size="11.5" font-weight="700" fill="#0F1828">Autonomy &amp; software</text>
<rect x="270" y="140" width="180" height="33" rx="3" fill="#2BC5B4"/>
<text x="360" y="161" font-size="10.5" font-weight="700" fill="#fff" text-anchor="middle">High</text>
<rect x="490" y="140" width="180" height="33" rx="3" fill="#2BC5B4"/>
<text x="580" y="161" font-size="10.5" font-weight="700" fill="#fff" text-anchor="middle">Low</text>
<text x="44" y="199" font-size="11.5" font-weight="700" fill="#0F1828">EO/IR gimbals</text>
<rect x="270" y="178" width="180" height="33" rx="3" fill="#C9A84C"/>
<text x="360" y="199" font-size="10.5" font-weight="700" fill="#fff" text-anchor="middle">Medium</text>
<rect x="490" y="178" width="180" height="33" rx="3" fill="#C9A84C"/>
<text x="580" y="199" font-size="10.5" font-weight="700" fill="#fff" text-anchor="middle">Medium</text>
<text x="44" y="237" font-size="11.5" font-weight="700" fill="#0F1828">SDR / datalinks</text>
<rect x="270" y="216" width="180" height="33" rx="3" fill="#C9A84C"/>
<text x="360" y="237" font-size="10.5" font-weight="700" fill="#fff" text-anchor="middle">Medium</text>
<rect x="490" y="216" width="180" height="33" rx="3" fill="#C9A84C"/>
<text x="580" y="237" font-size="10.5" font-weight="700" fill="#fff" text-anchor="middle">Medium</text>
<text x="44" y="275" font-size="11.5" font-weight="700" fill="#0F1828">Airframe / structures</text>
<rect x="270" y="254" width="180" height="33" rx="3" fill="#2BC5B4"/>
<text x="360" y="275" font-size="10.5" font-weight="700" fill="#fff" text-anchor="middle">High</text>
<rect x="490" y="254" width="180" height="33" rx="3" fill="#2BC5B4"/>
<text x="580" y="275" font-size="10.5" font-weight="700" fill="#fff" text-anchor="middle">Low</text>
<text x="44" y="313" font-size="11.5" font-weight="700" fill="#0F1828">GaN RF</text>
<rect x="270" y="292" width="180" height="33" rx="3" fill="#d98a4a"/>
<text x="360" y="313" font-size="10.5" font-weight="700" fill="#fff" text-anchor="middle">Low</text>
<rect x="490" y="292" width="180" height="33" rx="3" fill="#d98a4a"/>
<text x="580" y="313" font-size="10.5" font-weight="700" fill="#fff" text-anchor="middle">High</text>
<text x="44" y="351" font-size="11.5" font-weight="700" fill="#0F1828">Cooled IR detectors</text>
<rect x="270" y="330" width="180" height="33" rx="3" fill="#d98a4a"/>
<text x="360" y="351" font-size="10.5" font-weight="700" fill="#fff" text-anchor="middle">Low</text>
<rect x="490" y="330" width="180" height="33" rx="3" fill="#C8443B"/>
<text x="580" y="351" font-size="10.5" font-weight="700" fill="#fff" text-anchor="middle">Very High</text>
<text x="44" y="389" font-size="11.5" font-weight="700" fill="#0F1828">Flight-control silicon</text>
<rect x="270" y="368" width="180" height="33" rx="3" fill="#d98a4a"/>
<text x="360" y="389" font-size="10.5" font-weight="700" fill="#fff" text-anchor="middle">Low</text>
<rect x="490" y="368" width="180" height="33" rx="3" fill="#C8443B"/>
<text x="580" y="389" font-size="10.5" font-weight="700" fill="#fff" text-anchor="middle">Very High</text>
<text x="44" y="427" font-size="11.5" font-weight="700" fill="#0F1828">Rare-earth magnets</text>
<rect x="270" y="406" width="180" height="33" rx="3" fill="#C8443B"/>
<text x="360" y="427" font-size="10.5" font-weight="700" fill="#fff" text-anchor="middle">Very Low</text>
<rect x="490" y="406" width="180" height="33" rx="3" fill="#C8443B"/>
<text x="580" y="427" font-size="10.5" font-weight="700" fill="#fff" text-anchor="middle">Very High</text>
<text x="44" y="465" font-size="11.5" font-weight="700" fill="#0F1828">High-energy cells</text>
<rect x="270" y="444" width="180" height="33" rx="3" fill="#d98a4a"/>
<text x="360" y="465" font-size="10.5" font-weight="700" fill="#fff" text-anchor="middle">Low</text>
<rect x="490" y="444" width="180" height="33" rx="3" fill="#d98a4a"/>
<text x="580" y="465" font-size="10.5" font-weight="700" fill="#fff" text-anchor="middle">High</text>
<line x1="40" y1="456" x2="760" y2="456" stroke="#E8E5DD" stroke-width="1"/>
<text x="40" y="474" font-size="10" fill="#4A5567">Source: Indian Army UAS &amp; Loitering Munitions roadmap (reconstructed); Techadyant Labs analysis.</text>
<text x="760" y="474" font-size="10" font-style="italic" fill="#C9A84C" text-anchor="end">Indicative</text>
</svg>