<svg xmlns="http://www.w3.org/2000/svg" viewBox="0 0 800 440" font-family="Arial, Helvetica, sans-serif">
<rect width="800" height="440" fill="#FBF9F4"/>
<rect x="0" y="0" width="800" height="6" fill="#0F1828"/>
<text x="40" y="44" font-size="22" font-weight="700" fill="#0F1828">Distributed precision firepower across four range tiers</text>
<text x="40" y="68" font-size="13" fill="#4A5567">From platoon-level FPV to deep-strike loitering munitions</text>
<text x="760" y="30" font-size="11" fill="#4A5567" text-anchor="end">Techadyant Labs &#183; 2026</text>
<line x1="135" y1="120" x2="135" y2="350" stroke="#E8E5DD" stroke-width="1"/>
<text x="135" y="368" font-size="10" fill="#4A5567" text-anchor="middle">5</text>
<line x1="222" y1="120" x2="222" y2="350" stroke="#E8E5DD" stroke-width="1"/>
<text x="222" y="368" font-size="10" fill="#4A5567" text-anchor="middle">10</text>
<line x1="426" y1="120" x2="426" y2="350" stroke="#E8E5DD" stroke-width="1"/>
<text x="426" y="368" font-size="10" fill="#4A5567" text-anchor="middle">50</text>
<line x1="601" y1="120" x2="601" y2="350" stroke="#E8E5DD" stroke-width="1"/>
<text x="601" y="368" font-size="10" fill="#4A5567" text-anchor="middle">200</text>
<line x1="717" y1="120" x2="717" y2="350" stroke="#E8E5DD" stroke-width="1"/>
<text x="717" y="368" font-size="10" fill="#4A5567" text-anchor="middle">500</text>
<text x="740" y="388" font-size="11" fill="#4A5567" text-anchor="end">Engagement range (km, log)</text>
<rect x="135" y="130" width="175" height="32" rx="4" fill="#4A5567"/>
<text x="143" y="151" font-size="12.5" font-weight="700" fill="#ffffff">FPV strike drones</text>
<text x="320" y="151" font-size="10.5" fill="#4A5567">5–20 km &#183; warhead 0.5–2 kg</text>
<rect x="222" y="190" width="204" height="32" rx="4" fill="#2BC5B4"/>
<text x="230" y="211" font-size="12.5" font-weight="700" fill="#ffffff">Short-range LM</text>
<text x="436" y="211" font-size="10.5" fill="#4A5567">10–50 km &#183; warhead 1–5 kg</text>
<rect x="426" y="250" width="175" height="32" rx="4" fill="#C9A84C"/>
<text x="434" y="271" font-size="12.5" font-weight="700" fill="#ffffff">Medium-range LM</text>
<text x="611" y="271" font-size="10.5" fill="#4A5567">50–200 km &#183; warhead 5–20 kg</text>
<rect x="601" y="310" width="116" height="32" rx="4" fill="#C8443B"/>
<text x="609" y="331" font-size="12.5" font-weight="700" fill="#ffffff">Long-range LM</text>
<text x="727" y="331" font-size="10.5" fill="#4A5567">200–500 km &#183; warhead 10–50 kg</text>
<line x1="40" y1="406" x2="760" y2="406" stroke="#E8E5DD" stroke-width="1"/>
<text x="40" y="424" font-size="10" fill="#4A5567">Source: Indian Army UAS &amp; Loitering Munitions roadmap (reconstructed); Techadyant Labs analysis.</text>
<text x="760" y="424" font-size="10" font-style="italic" fill="#C9A84C" text-anchor="end">Indicative</text>
</svg>