<svg xmlns="http://www.w3.org/2000/svg" viewBox="0 0 840 520" font-family="Arial, Helvetica, sans-serif">
<rect width="840" height="520" fill="#FBF9F4"/>
<rect x="0" y="0" width="840" height="6" fill="#0F1828"/>
<text x="40" y="44" font-size="22" font-weight="700" fill="#0F1828">India's drone industry: strong at the top, thin below</text>
<text x="40" y="68" font-size="13" fill="#4A5567">Integrators, subsystem suppliers and the counter-UAS cluster</text>
<text x="800" y="30" font-size="11" fill="#4A5567" text-anchor="end">Techadyant Labs &#183; 2026</text>
<text x="44" y="122" font-size="13" font-weight="700" fill="#0F1828">Tier-1 integrators (platforms + autonomy)</text>
<rect x="44" y="130" width="148" height="40" rx="5" fill="#0F1828"/>
<text x="118" y="154" font-size="10.5" font-weight="700" fill="#fff" text-anchor="middle">ideaForge</text>
<rect x="202" y="130" width="148" height="40" rx="5" fill="#0F1828"/>
<text x="276" y="154" font-size="10.5" font-weight="700" fill="#fff" text-anchor="middle">NewSpace</text>
<rect x="360" y="130" width="148" height="40" rx="5" fill="#0F1828"/>
<text x="434" y="154" font-size="10.5" font-weight="700" fill="#fff" text-anchor="middle">Raphe mPhibr</text>
<rect x="518" y="130" width="148" height="40" rx="5" fill="#0F1828"/>
<text x="592" y="154" font-size="10.5" font-weight="700" fill="#fff" text-anchor="middle">Dhaksha</text>
<rect x="44" y="180" width="148" height="40" rx="5" fill="#0F1828"/>
<text x="118" y="204" font-size="10.5" font-weight="700" fill="#fff" text-anchor="middle">Solar / EEL</text>
<rect x="202" y="180" width="148" height="40" rx="5" fill="#0F1828"/>
<text x="276" y="204" font-size="10.5" font-weight="700" fill="#fff" text-anchor="middle">Tata Adv. Systems</text>
<rect x="360" y="180" width="148" height="40" rx="5" fill="#0F1828"/>
<text x="434" y="204" font-size="10.5" font-weight="700" fill="#fff" text-anchor="middle">Adani Defence</text>
<rect x="518" y="180" width="148" height="40" rx="5" fill="#0F1828"/>
<text x="592" y="204" font-size="10.5" font-weight="700" fill="#fff" text-anchor="middle">Garuda</text>
<rect x="44" y="230" width="148" height="40" rx="5" fill="#0F1828"/>
<text x="118" y="254" font-size="10.5" font-weight="700" fill="#fff" text-anchor="middle">Asteria</text>
<text x="44" y="296" font-size="13" font-weight="700" fill="#0F1828">Tier-2 subsystem suppliers</text>
<rect x="44" y="304" width="148" height="40" rx="5" fill="#C9A84C"/>
<text x="118" y="328" font-size="10.5" font-weight="700" fill="#1a1300" text-anchor="middle">Tonbo (EO/IR)</text>
<rect x="202" y="304" width="148" height="40" rx="5" fill="#C9A84C"/>
<text x="276" y="328" font-size="10.5" font-weight="700" fill="#1a1300" text-anchor="middle">Astra Microwave (RF)</text>
<rect x="360" y="304" width="148" height="40" rx="5" fill="#C9A84C"/>
<text x="434" y="328" font-size="10.5" font-weight="700" fill="#1a1300" text-anchor="middle">Data Patterns</text>
<rect x="518" y="304" width="148" height="40" rx="5" fill="#C9A84C"/>
<text x="592" y="328" font-size="10.5" font-weight="700" fill="#1a1300" text-anchor="middle">Kaynes (EMS)</text>
<rect x="44" y="354" width="148" height="40" rx="5" fill="#C9A84C"/>
<text x="118" y="378" font-size="10.5" font-weight="700" fill="#1a1300" text-anchor="middle">Syrma SGS</text>
<rect x="202" y="354" width="148" height="40" rx="5" fill="#C9A84C"/>
<text x="276" y="378" font-size="10.5" font-weight="700" fill="#1a1300" text-anchor="middle">Cyient DLM</text>
<text x="44" y="420" font-size="13" font-weight="700" fill="#0F1828">Counter-UAS &amp; EW</text>
<rect x="44" y="428" width="148" height="40" rx="5" fill="#2BC5B4"/>
<text x="118" y="452" font-size="10.5" font-weight="700" fill="#06302c" text-anchor="middle">Grene Robotics</text>
<rect x="202" y="428" width="148" height="40" rx="5" fill="#2BC5B4"/>
<text x="276" y="452" font-size="10.5" font-weight="700" fill="#06302c" text-anchor="middle">BEL</text>
<rect x="360" y="428" width="148" height="40" rx="5" fill="#2BC5B4"/>
<text x="434" y="452" font-size="10.5" font-weight="700" fill="#06302c" text-anchor="middle">Zen Technologies</text>
<rect x="518" y="428" width="148" height="40" rx="5" fill="#2BC5B4"/>
<text x="592" y="452" font-size="10.5" font-weight="700" fill="#06302c" text-anchor="middle">DRDO</text>
<text x="44" y="500" font-size="10" fill="#4A5567">Tier-3 component base (chips, cooled detectors, cells, rare-earth magnets, RF die) — largely foreign.</text>
<line x1="40" y1="486" x2="800" y2="486" stroke="#E8E5DD" stroke-width="1"/>
<text x="40" y="504" font-size="10" fill="#4A5567">Source: Indian Army UAS &amp; Loitering Munitions roadmap (reconstructed); Techadyant Labs analysis.</text>
<text x="800" y="504" font-size="10" font-style="italic" fill="#C9A84C" text-anchor="end">Indicative</text>
</svg>