<svg xmlns="http://www.w3.org/2000/svg" viewBox="0 0 1600 900" font-family="Arial, Helvetica, sans-serif">
<rect x="0" y="0" width="1600" height="900" fill="#FBF9F4"/>
<rect x="0" y="0" width="1600" height="10" fill="#0F1828"/>
<rect x="0" y="10" width="1600" height="3" fill="#C9A84C"/>
<text x="60" y="74" font-size="38" font-weight="700" fill="#0F1828">Sensor Patent Filings Accelerate After 2021</text>
<text x="62" y="108" font-size="20" fill="#4A5567">India drone-sensor patents by filing year and assignee type, 2015-2026</text>
<text x="1540" y="50" font-size="16" fill="#4A5567" text-anchor="end" font-family="'JetBrains Mono','Courier New',monospace">Figure 8.8 &#183; Techadyant Labs &#183; 2026</text>
<line x1="140" y1="720.0" x2="1300" y2="720.0" stroke="rgba(74,85,103,0.14)" stroke-width="1"/>
<text x="126" y="725.0" font-size="14" fill="#4A5567" text-anchor="end" font-family="'JetBrains Mono','Courier New',monospace">0</text>
<line x1="140" y1="630.0" x2="1300" y2="630.0" stroke="rgba(74,85,103,0.14)" stroke-width="1"/>
<text x="126" y="635.0" font-size="14" fill="#4A5567" text-anchor="end" font-family="'JetBrains Mono','Courier New',monospace">2</text>
<line x1="140" y1="540.0" x2="1300" y2="540.0" stroke="rgba(74,85,103,0.14)" stroke-width="1"/>
<text x="126" y="545.0" font-size="14" fill="#4A5567" text-anchor="end" font-family="'JetBrains Mono','Courier New',monospace">4</text>
<line x1="140" y1="450.0" x2="1300" y2="450.0" stroke="rgba(74,85,103,0.14)" stroke-width="1"/>
<text x="126" y="455.0" font-size="14" fill="#4A5567" text-anchor="end" font-family="'JetBrains Mono','Courier New',monospace">6</text>
<line x1="140" y1="360.0" x2="1300" y2="360.0" stroke="rgba(74,85,103,0.14)" stroke-width="1"/>
<text x="126" y="365.0" font-size="14" fill="#4A5567" text-anchor="end" font-family="'JetBrains Mono','Courier New',monospace">8</text>
<line x1="140" y1="270.0" x2="1300" y2="270.0" stroke="rgba(74,85,103,0.14)" stroke-width="1"/>
<text x="126" y="275.0" font-size="14" fill="#4A5567" text-anchor="end" font-family="'JetBrains Mono','Courier New',monospace">10</text>
<line x1="140" y1="180.0" x2="1300" y2="180.0" stroke="rgba(74,85,103,0.14)" stroke-width="1"/>
<text x="126" y="185.0" font-size="14" fill="#4A5567" text-anchor="end" font-family="'JetBrains Mono','Courier New',monospace">12</text>
<text x="96" y="160" font-size="16" fill="#0F1828" text-anchor="start" font-weight="700">Patents filed (annual)</text>
<rect x="159.33333333333334" y="702.0" width="58" height="18.0" rx="2" fill="#0F1828"/>
<rect x="159.33333333333334" y="678.15" width="58" height="23.849999999999998" rx="2" fill="#C9A84C"/>
<rect x="159.33333333333334" y="675.0" width="58" height="3.1500000000000004" rx="2" fill="#2BC5B4"/>
<text x="188.33333333333334" y="746" font-size="13" fill="#4A5567" text-anchor="middle" font-family="'JetBrains Mono','Courier New',monospace">2015</text>
<text x="188.33333333333334" y="665.0" font-size="13" fill="#0F1828" text-anchor="middle" font-weight="700" font-family="'JetBrains Mono','Courier New',monospace">1</text>
<rect x="256.0" y="702.0" width="58" height="18.0" rx="2" fill="#0F1828"/>
<rect x="256.0" y="678.15" width="58" height="23.849999999999998" rx="2" fill="#C9A84C"/>
<rect x="256.0" y="675.0" width="58" height="3.1500000000000004" rx="2" fill="#2BC5B4"/>
<text x="285.0" y="746" font-size="13" fill="#4A5567" text-anchor="middle" font-family="'JetBrains Mono','Courier New',monospace">2016</text>
<text x="285.0" y="665.0" font-size="13" fill="#0F1828" text-anchor="middle" font-weight="700" font-family="'JetBrains Mono','Courier New',monospace">1</text>
<rect x="352.66666666666663" y="684.0" width="58" height="36.0" rx="2" fill="#0F1828"/>
<rect x="352.66666666666663" y="636.3" width="58" height="47.699999999999996" rx="2" fill="#C9A84C"/>
<rect x="352.66666666666663" y="630.0" width="58" height="6.300000000000001" rx="2" fill="#2BC5B4"/>
<text x="381.66666666666663" y="746" font-size="13" fill="#4A5567" text-anchor="middle" font-family="'JetBrains Mono','Courier New',monospace">2017</text>
<text x="381.66666666666663" y="620.0" font-size="13" fill="#0F1828" text-anchor="middle" font-weight="700" font-family="'JetBrains Mono','Courier New',monospace">2</text>
<rect x="449.33333333333337" y="684.0" width="58" height="36.0" rx="2" fill="#0F1828"/>
<rect x="449.33333333333337" y="636.3" width="58" height="47.699999999999996" rx="2" fill="#C9A84C"/>
<rect x="449.33333333333337" y="630.0" width="58" height="6.300000000000001" rx="2" fill="#2BC5B4"/>
<text x="478.33333333333337" y="746" font-size="13" fill="#4A5567" text-anchor="middle" font-family="'JetBrains Mono','Courier New',monospace">2018</text>
<text x="478.33333333333337" y="620.0" font-size="13" fill="#0F1828" text-anchor="middle" font-weight="700" font-family="'JetBrains Mono','Courier New',monospace">2</text>
<rect x="546.0" y="666.0" width="58" height="54.00000000000001" rx="2" fill="#0F1828"/>
<rect x="546.0" y="594.45" width="58" height="71.54999999999998" rx="2" fill="#C9A84C"/>
<rect x="546.0" y="585.0" width="58" height="9.450000000000001" rx="2" fill="#2BC5B4"/>
<text x="575.0" y="746" font-size="13" fill="#4A5567" text-anchor="middle" font-family="'JetBrains Mono','Courier New',monospace">2019</text>
<text x="575.0" y="575.0" font-size="13" fill="#0F1828" text-anchor="middle" font-weight="700" font-family="'JetBrains Mono','Courier New',monospace">3</text>
<rect x="642.6666666666666" y="666.0" width="58" height="54.00000000000001" rx="2" fill="#0F1828"/>
<rect x="642.6666666666666" y="605.25" width="58" height="60.74999999999999" rx="2" fill="#C9A84C"/>
<rect x="642.6666666666666" y="585.0" width="58" height="20.25" rx="2" fill="#2BC5B4"/>
<text x="671.6666666666666" y="746" font-size="13" fill="#4A5567" text-anchor="middle" font-family="'JetBrains Mono','Courier New',monospace">2020</text>
<text x="671.6666666666666" y="575.0" font-size="13" fill="#0F1828" text-anchor="middle" font-weight="700" font-family="'JetBrains Mono','Courier New',monospace">3</text>
<rect x="739.3333333333334" y="648.0" width="58" height="72.0" rx="2" fill="#0F1828"/>
<rect x="739.3333333333334" y="567.0" width="58" height="81.0" rx="2" fill="#C9A84C"/>
<rect x="739.3333333333334" y="540.0" width="58" height="26.999999999999996" rx="2" fill="#2BC5B4"/>
<text x="768.3333333333334" y="746" font-size="13" fill="#4A5567" text-anchor="middle" font-family="'JetBrains Mono','Courier New',monospace">2021</text>
<text x="768.3333333333334" y="530.0" font-size="13" fill="#0F1828" text-anchor="middle" font-weight="700" font-family="'JetBrains Mono','Courier New',monospace">4</text>
<rect x="836.0" y="643.5" width="58" height="76.50000000000001" rx="2" fill="#0F1828"/>
<rect x="836.0" y="528.75" width="58" height="114.75" rx="2" fill="#C9A84C"/>
<rect x="836.0" y="495.0" width="58" height="33.75" rx="2" fill="#2BC5B4"/>
<text x="865.0" y="746" font-size="13" fill="#4A5567" text-anchor="middle" font-family="'JetBrains Mono','Courier New',monospace">2022</text>
<text x="865.0" y="485.0" font-size="13" fill="#0F1828" text-anchor="middle" font-weight="700" font-family="'JetBrains Mono','Courier New',monospace">5</text>
<rect x="932.6666666666666" y="612.9" width="58" height="107.10000000000001" rx="2" fill="#0F1828"/>
<rect x="932.6666666666666" y="493.2" width="58" height="119.69999999999999" rx="2" fill="#C9A84C"/>
<rect x="932.6666666666666" y="405.0" width="58" height="88.20000000000002" rx="2" fill="#2BC5B4"/>
<text x="961.6666666666666" y="746" font-size="13" fill="#4A5567" text-anchor="middle" font-family="'JetBrains Mono','Courier New',monospace">2023</text>
<text x="961.6666666666666" y="395.0" font-size="13" fill="#0F1828" text-anchor="middle" font-weight="700" font-family="'JetBrains Mono','Courier New',monospace">7</text>
<rect x="1029.3333333333333" y="597.6" width="58" height="122.4" rx="2" fill="#0F1828"/>
<rect x="1029.3333333333333" y="460.80000000000007" width="58" height="136.79999999999998" rx="2" fill="#C9A84C"/>
<rect x="1029.3333333333333" y="360.00000000000006" width="58" height="100.80000000000001" rx="2" fill="#2BC5B4"/>
<text x="1058.3333333333333" y="746" font-size="13" fill="#4A5567" text-anchor="middle" font-family="'JetBrains Mono','Courier New',monospace">2024</text>
<text x="1058.3333333333333" y="350.0" font-size="13" fill="#0F1828" text-anchor="middle" font-weight="700" font-family="'JetBrains Mono','Courier New',monospace">8</text>
<rect x="1125.9999999999998" y="582.3" width="58" height="137.7" rx="2" fill="#0F1828"/>
<rect x="1125.9999999999998" y="428.4" width="58" height="153.89999999999998" rx="2" fill="#C9A84C"/>
<rect x="1125.9999999999998" y="314.99999999999994" width="58" height="113.40000000000002" rx="2" fill="#2BC5B4"/>
<text x="1154.9999999999998" y="746" font-size="13" fill="#4A5567" text-anchor="middle" font-family="'JetBrains Mono','Courier New',monospace">2025</text>
<text x="1154.9999999999998" y="305.0" font-size="13" fill="#0F1828" text-anchor="middle" font-weight="700" font-family="'JetBrains Mono','Courier New',monospace">9</text>
<rect x="1222.6666666666665" y="551.7" width="58" height="168.3" rx="2" fill="#0F1828"/>
<rect x="1222.6666666666665" y="363.6" width="58" height="188.1" rx="2" fill="#C9A84C"/>
<rect x="1222.6666666666665" y="225.00000000000003" width="58" height="138.6" rx="2" fill="#2BC5B4"/>
<text x="1251.6666666666665" y="746" font-size="13" fill="#4A5567" text-anchor="middle" font-family="'JetBrains Mono','Courier New',monospace">2026</text>
<text x="1251.6666666666665" y="215.0" font-size="13" fill="#0F1828" text-anchor="middle" font-weight="700" font-family="'JetBrains Mono','Courier New',monospace">11</text>
<line x1="768.3333333333334" y1="180" x2="768.3333333333334" y2="720" stroke="#C8443B" stroke-width="1.5" stroke-dasharray="6 5" opacity="0.7"/>
<text x="776.3333333333334" y="198" font-size="14" fill="#C8443B" text-anchor="start" font-weight="700">Drone Rules 2021</text>
<text x="776.3333333333334" y="218" font-size="14" fill="#C8443B" text-anchor="start">liberalisation</text>
<rect x="140" y="767" width="18" height="18" rx="3" fill="#0F1828"/>
<text x="166" y="782" font-size="15" fill="#0F1828" text-anchor="start">Government (DRDO, BEL)</text>
<rect x="418" y="767" width="18" height="18" rx="3" fill="#C9A84C"/>
<text x="444" y="782" font-size="15" fill="#0F1828" text-anchor="start">Academic (IISc, IITs)</text>
<rect x="687" y="767" width="18" height="18" rx="3" fill="#2BC5B4"/>
<text x="713" y="782" font-size="15" fill="#0F1828" text-anchor="start">Industry (startups, OEMs)</text>
<text x="140" y="828" font-size="15" fill="#4A5567" text-anchor="start">Industry share rises from &lt;10% (pre-2020) to 25-30% by 2025-26; still far behind China (500+ sensor patents / yr).</text>
<text x="60" y="872" font-size="15" fill="#4A5567">Source: Techadyant Labs analysis; Indian Patent Office filings (DRDO, BEL, IISc, IITs, OEMs).</text>
<text x="1540" y="872" font-size="15" font-style="italic" fill="#C9A84C" text-anchor="end">Indicative</text>
</svg>