<svg xmlns="http://www.w3.org/2000/svg" viewBox="0 0 1600 900" font-family="Arial, Helvetica, sans-serif">
<rect x="0" y="0" width="1600" height="900" fill="#FBF9F4"/>
<rect x="0" y="0" width="1600" height="10" fill="#0F1828"/>
<rect x="0" y="10" width="1600" height="3" fill="#C9A84C"/>
<text x="60" y="74" font-size="38" font-weight="700" fill="#0F1828">Value Is in the Insight, Not the Pixel</text>
<text x="62" y="108" font-size="20" fill="#4A5567">Drone-sensor data value chain across four processing stages · per-MB to per-insight pricing</text>
<text x="1540" y="50" font-size="16" fill="#4A5567" text-anchor="end" font-family="'JetBrains Mono','Courier New',monospace">Figure 11.3 &#183; Techadyant Labs &#183; 2026</text>
<defs><marker id="ah113" markerWidth="9" markerHeight="9" refX="7" refY="4.5" orient="auto"><path d="M0,0 L9,4.5 L0,9 Z" fill="rgba(15,24,40,0.55)"/></marker></defs><text x="70" y="144" font-size="15" fill="#4A5567" text-anchor="start" font-style="italic">Value increases per processing stage →</text>
<rect x="70.0" y="158" width="332.0" height="96" rx="12" fill="rgba(15,24,40,0.18)"/>
<text x="236.0" y="188" font-size="16" fill="#0F1828" text-anchor="middle" font-weight="700">STAGE 1</text>
<text x="236.0" y="214" font-size="18" fill="#0F1828" text-anchor="middle" font-weight="700">RAW DATA</text>
<text x="236.0" y="240" font-size="15" fill="#0F1828" text-anchor="middle" font-family="'JetBrains Mono','Courier New',monospace">$0.01-0.10 / MB</text>
<rect x="446.0" y="158" width="332.0" height="96" rx="12" fill="rgba(201,168,76,0.55)"/>
<text x="612.0" y="188" font-size="16" fill="#0F1828" text-anchor="middle" font-weight="700">STAGE 2</text>
<text x="612.0" y="214" font-size="18" fill="#0F1828" text-anchor="middle" font-weight="700">PROCESSED</text>
<text x="612.0" y="240" font-size="15" fill="#0F1828" text-anchor="middle" font-family="'JetBrains Mono','Courier New',monospace">$0.10-1.00 / MB</text>
<rect x="822.0" y="158" width="332.0" height="96" rx="12" fill="#C9A84C"/>
<text x="988.0" y="188" font-size="16" fill="#FFFFFF" text-anchor="middle" font-weight="700">STAGE 3</text>
<text x="988.0" y="214" font-size="18" fill="#FFFFFF" text-anchor="middle" font-weight="700">ANALYSED</text>
<text x="988.0" y="240" font-size="15" fill="#FFFFFF" text-anchor="middle" font-family="'JetBrains Mono','Courier New',monospace">$1-10 / MB</text>
<rect x="1198.0" y="158" width="332.0" height="96" rx="12" fill="#2BC5B4"/>
<text x="1364.0" y="188" font-size="16" fill="#FFFFFF" text-anchor="middle" font-weight="700">STAGE 4</text>
<text x="1364.0" y="214" font-size="18" fill="#FFFFFF" text-anchor="middle" font-weight="700">ACTIONABLE INSIGHT</text>
<text x="1364.0" y="240" font-size="15" fill="#FFFFFF" text-anchor="middle" font-family="'JetBrains Mono','Courier New',monospace">$10-100+ / insight</text>
<rect x="70.0" y="278" width="332.0" height="126" rx="10" fill="rgba(15,24,40,0.05)" stroke="rgba(15,24,40,0.12)" stroke-width="1"/>
<text x="236.0" y="329.0" font-size="16" fill="#0F1828" text-anchor="middle">LiDAR point cloud</text>
<text x="236.0" y="353.0" font-size="16" fill="#0F1828" text-anchor="middle">(raw)</text>
<path d="M 410.0 341.0 L 440.0 341.0" stroke="rgba(15,24,40,0.5)" stroke-width="3" marker-end="url(#ah113)"/>
<rect x="446.0" y="278" width="332.0" height="126" rx="10" fill="rgba(201,168,76,0.14)" stroke="rgba(15,24,40,0.12)" stroke-width="1"/>
<text x="612.0" y="329.0" font-size="16" fill="#0F1828" text-anchor="middle">Georeferenced point</text>
<text x="612.0" y="353.0" font-size="16" fill="#0F1828" text-anchor="middle">cloud</text>
<path d="M 786.0 341.0 L 816.0 341.0" stroke="rgba(15,24,40,0.5)" stroke-width="3" marker-end="url(#ah113)"/>
<rect x="822.0" y="278" width="332.0" height="126" rx="10" fill="rgba(201,168,76,0.26)" stroke="rgba(15,24,40,0.12)" stroke-width="1"/>
<text x="988.0" y="329.0" font-size="16" fill="#0F1828" text-anchor="middle">Volumetric calc (m3 /</text>
<text x="988.0" y="353.0" font-size="16" fill="#0F1828" text-anchor="middle">tonnes)</text>
<path d="M 1162.0 341.0 L 1192.0 341.0" stroke="rgba(15,24,40,0.5)" stroke-width="3" marker-end="url(#ah113)"/>
<rect x="1198.0" y="278" width="332.0" height="126" rx="10" fill="rgba(43,197,180,0.2)" stroke="rgba(15,24,40,0.12)" stroke-width="1"/>
<text x="1364.0" y="329.0" font-size="16" fill="#0F1828" text-anchor="middle">Stockpile report +</text>
<text x="1364.0" y="353.0" font-size="16" fill="#0F1828" text-anchor="middle">recommendations</text>
<rect x="70.0" y="418" width="332.0" height="126" rx="10" fill="rgba(15,24,40,0.05)" stroke="rgba(15,24,40,0.12)" stroke-width="1"/>
<text x="236.0" y="469.0" font-size="16" fill="#0F1828" text-anchor="middle">Multispectral raw</text>
<text x="236.0" y="493.0" font-size="16" fill="#0F1828" text-anchor="middle">images</text>
<path d="M 410.0 481.0 L 440.0 481.0" stroke="rgba(15,24,40,0.5)" stroke-width="3" marker-end="url(#ah113)"/>
<rect x="446.0" y="418" width="332.0" height="126" rx="10" fill="rgba(201,168,76,0.14)" stroke="rgba(15,24,40,0.12)" stroke-width="1"/>
<text x="612.0" y="481.0" font-size="16" fill="#0F1828" text-anchor="middle">Calibrated reflectance</text>
<path d="M 786.0 481.0 L 816.0 481.0" stroke="rgba(15,24,40,0.5)" stroke-width="3" marker-end="url(#ah113)"/>
<rect x="822.0" y="418" width="332.0" height="126" rx="10" fill="rgba(201,168,76,0.26)" stroke="rgba(15,24,40,0.12)" stroke-width="1"/>
<text x="988.0" y="481.0" font-size="16" fill="#0F1828" text-anchor="middle">NDVI crop-health map</text>
<path d="M 1162.0 481.0 L 1192.0 481.0" stroke="rgba(15,24,40,0.5)" stroke-width="3" marker-end="url(#ah113)"/>
<rect x="1198.0" y="418" width="332.0" height="126" rx="10" fill="rgba(43,197,180,0.2)" stroke="rgba(15,24,40,0.12)" stroke-width="1"/>
<text x="1364.0" y="469.0" font-size="16" fill="#0F1828" text-anchor="middle">Variable-rate</text>
<text x="1364.0" y="493.0" font-size="16" fill="#0F1828" text-anchor="middle">application Rx</text>
<rect x="70.0" y="558" width="332.0" height="126" rx="10" fill="rgba(15,24,40,0.05)" stroke="rgba(15,24,40,0.12)" stroke-width="1"/>
<text x="236.0" y="609.0" font-size="16" fill="#0F1828" text-anchor="middle">Thermal radiometric</text>
<text x="236.0" y="633.0" font-size="16" fill="#0F1828" text-anchor="middle">raw</text>
<path d="M 410.0 621.0 L 440.0 621.0" stroke="rgba(15,24,40,0.5)" stroke-width="3" marker-end="url(#ah113)"/>
<rect x="446.0" y="558" width="332.0" height="126" rx="10" fill="rgba(201,168,76,0.14)" stroke="rgba(15,24,40,0.12)" stroke-width="1"/>
<text x="612.0" y="621.0" font-size="16" fill="#0F1828" text-anchor="middle">Calibrated thermal map</text>
<path d="M 786.0 621.0 L 816.0 621.0" stroke="rgba(15,24,40,0.5)" stroke-width="3" marker-end="url(#ah113)"/>
<rect x="822.0" y="558" width="332.0" height="126" rx="10" fill="rgba(201,168,76,0.26)" stroke="rgba(15,24,40,0.12)" stroke-width="1"/>
<text x="988.0" y="609.0" font-size="16" fill="#0F1828" text-anchor="middle">Hotspot detection &amp;</text>
<text x="988.0" y="633.0" font-size="16" fill="#0F1828" text-anchor="middle">class.</text>
<path d="M 1162.0 621.0 L 1192.0 621.0" stroke="rgba(15,24,40,0.5)" stroke-width="3" marker-end="url(#ah113)"/>
<rect x="1198.0" y="558" width="332.0" height="126" rx="10" fill="rgba(43,197,180,0.2)" stroke="rgba(15,24,40,0.12)" stroke-width="1"/>
<text x="1364.0" y="621.0" font-size="16" fill="#0F1828" text-anchor="middle">Maintenance work order</text>
<rect x="70" y="704" width="1460" height="98" rx="12" fill="rgba(15,24,40,0.05)" stroke="rgba(15,24,40,0.12)" stroke-width="1"/>
<text x="94" y="738" font-size="18" fill="#0F1828" text-anchor="start" font-weight="700">Monetisation by stage</text>
<text x="94" y="768" font-size="16" fill="#4A5567" text-anchor="start">Stage 1-2 (processing): pay-per-processing (cloud credits), platform subscription</text>
<text x="94" y="792" font-size="16" fill="#4A5567" text-anchor="start">Stage 3-4 (insights): pay-per-report (USD 50-500), revenue share with DaaS provider</text>
<text x="1506" y="738" font-size="16" fill="#2BC5B4" text-anchor="end" font-weight="700">Margins 70-85% at the insight end</text>
<text x="60" y="872" font-size="15" fill="#4A5567">Source: IdeaForge (FLYGHT CLOUD), Techadyant Labs analysis.</text>
<text x="1540" y="872" font-size="15" font-style="italic" fill="#C9A84C" text-anchor="end">Indicative</text>
</svg>