<svg xmlns="http://www.w3.org/2000/svg" viewBox="0 0 1600 809" font-family="Arial, Helvetica, sans-serif">
<rect x="0" y="0" width="1600" height="809" fill="#FBF9F4"/>
<rect x="0" y="0" width="1600" height="10" fill="#0F1828"/>
<rect x="0" y="10" width="1600" height="3" fill="#C9A84C"/>
<text x="60" y="74" font-size="38" font-weight="700" fill="#0F1828">India&#x27;s Drone-Sensor Market in 2035</text>
<text x="62" y="108" font-size="20" fill="#4A5567">Target state under the base scenario · market, import dependence, fleet, exports and technology</text>
<text x="1540" y="50" font-size="16" fill="#4A5567" text-anchor="end" font-family="'JetBrains Mono','Courier New',monospace">Figure 12.1 &#183; Techadyant Labs &#183; 2026</text>
<rect x="70.0" y="152" width="347.0" height="170" rx="14" fill="#FFFFFF" stroke="rgba(15,24,40,0.15)" stroke-width="1.5"/>
<rect x="70.0" y="152" width="347.0" height="7" rx="4" fill="#C9A84C"/>
<text x="92.0" y="192" font-size="15" fill="#4A5567" text-anchor="start" font-weight="700">MARKET SIZE</text>
<text x="92.0" y="238" font-size="30" fill="#0F1828" text-anchor="start" font-weight="700" font-family="'JetBrains Mono','Courier New',monospace">USD 1.1-1.5 Bn</text>
<text x="92.0" y="268" font-size="16" fill="#4A5567" text-anchor="start">2026: USD 0.2 Bn</text>
<rect x="92.0" y="282" width="303.0" height="28" rx="14" fill="rgba(201,168,76,0.16)"/>
<text x="243.5" y="302" font-size="15" fill="#0F1828" text-anchor="middle" font-weight="700">≈6x growth</text>
<rect x="441.0" y="152" width="347.0" height="170" rx="14" fill="#FFFFFF" stroke="rgba(15,24,40,0.15)" stroke-width="1.5"/>
<rect x="441.0" y="152" width="347.0" height="7" rx="4" fill="#2BC5B4"/>
<text x="463.0" y="192" font-size="15" fill="#4A5567" text-anchor="start" font-weight="700">IMPORT DEPENDENCE</text>
<text x="463.0" y="238" font-size="30" fill="#0F1828" text-anchor="start" font-weight="700" font-family="'JetBrains Mono','Courier New',monospace">45-55%</text>
<text x="463.0" y="268" font-size="16" fill="#4A5567" text-anchor="start">2026: 70-80%</text>
<rect x="463.0" y="282" width="303.0" height="28" rx="14" fill="rgba(43,197,180,0.16)"/>
<text x="614.5" y="302" font-size="15" fill="#0F1828" text-anchor="middle" font-weight="700">−25 pts</text>
<rect x="812.0" y="152" width="347.0" height="170" rx="14" fill="#FFFFFF" stroke="rgba(15,24,40,0.15)" stroke-width="1.5"/>
<rect x="812.0" y="152" width="347.0" height="7" rx="4" fill="#C9A84C"/>
<text x="834.0" y="192" font-size="15" fill="#4A5567" text-anchor="start" font-weight="700">DRONE FLEET</text>
<text x="834.0" y="238" font-size="30" fill="#0F1828" text-anchor="start" font-weight="700" font-family="'JetBrains Mono','Courier New',monospace">500-700k units</text>
<text x="834.0" y="268" font-size="16" fill="#4A5567" text-anchor="start">2026: 150k</text>
<rect x="834.0" y="282" width="303.0" height="28" rx="14" fill="rgba(201,168,76,0.16)"/>
<text x="985.5" y="302" font-size="15" fill="#0F1828" text-anchor="middle" font-weight="700">≈4x fleet</text>
<rect x="1183.0" y="152" width="347.0" height="170" rx="14" fill="#FFFFFF" stroke="rgba(15,24,40,0.15)" stroke-width="1.5"/>
<rect x="1183.0" y="152" width="347.0" height="7" rx="4" fill="#2BC5B4"/>
<text x="1205.0" y="192" font-size="15" fill="#4A5567" text-anchor="start" font-weight="700">EXPORTS</text>
<text x="1205.0" y="238" font-size="30" fill="#0F1828" text-anchor="start" font-weight="700" font-family="'JetBrains Mono','Courier New',monospace">15-20%</text>
<text x="1205.0" y="268" font-size="16" fill="#4A5567" text-anchor="start">of sensor revenue</text>
<rect x="1205.0" y="282" width="303.0" height="28" rx="14" fill="rgba(43,197,180,0.16)"/>
<text x="1356.5" y="302" font-size="15" fill="#0F1828" text-anchor="middle" font-weight="700">new revenue line</text>
<rect x="70" y="348" width="817.6" height="372" rx="14" fill="#FFFFFF" stroke="rgba(15,24,40,0.15)" stroke-width="1.5"/>
<rect x="70" y="348" width="817.6" height="52" rx="14" fill="rgba(15,24,40,0.92)"/>
<rect x="70" y="374" width="817.6" height="26" rx="10" fill="rgba(15,24,40,0.92)"/>
<text x="94" y="382" font-size="20" fill="#FFFFFF" text-anchor="start" font-weight="700">Technology milestones by 2035</text>
<circle cx="104" cy="428" r="10" fill="#2BC5B4"/>
<path d="M 99 428 l 4 5 l 7 -10" stroke="#FFFFFF" stroke-width="2.5" fill="none" stroke-linecap="round" stroke-linejoin="round"/>
<text x="126" y="434" font-size="17" fill="#0F1828" text-anchor="start" font-weight="700">Germanium-free thermal</text>
<text x="863.6" y="434" font-size="15" fill="#4A5567" text-anchor="end">Global leadership, multiple lines</text>
<circle cx="104" cy="468" r="10" fill="#2BC5B4"/>
<path d="M 99 468 l 4 5 l 7 -10" stroke="#FFFFFF" stroke-width="2.5" fill="none" stroke-linecap="round" stroke-linejoin="round"/>
<text x="126" y="474" font-size="17" fill="#0F1828" text-anchor="start" font-weight="700">Solid-state LiDAR integration</text>
<text x="863.6" y="474" font-size="15" fill="#4A5567" text-anchor="end">Commercial scale at Tier 3</text>
<circle cx="104" cy="508" r="10" fill="#2BC5B4"/>
<path d="M 99 508 l 4 5 l 7 -10" stroke="#FFFFFF" stroke-width="2.5" fill="none" stroke-linecap="round" stroke-linejoin="round"/>
<text x="126" y="514" font-size="17" fill="#0F1828" text-anchor="start" font-weight="700">Drone-scale radar</text>
<text x="863.6" y="514" font-size="15" fill="#4A5567" text-anchor="end">BVLOS sense-and-avoid commercial</text>
<circle cx="104" cy="548" r="10" fill="#2BC5B4"/>
<path d="M 99 548 l 4 5 l 7 -10" stroke="#FFFFFF" stroke-width="2.5" fill="none" stroke-linecap="round" stroke-linejoin="round"/>
<text x="126" y="554" font-size="17" fill="#0F1828" text-anchor="start" font-weight="700">Hyperspectral miniaturisation</text>
<text x="863.6" y="554" font-size="15" fill="#4A5567" text-anchor="end">Agriculture &amp; mining commercial</text>
<circle cx="104" cy="588" r="10" fill="#2BC5B4"/>
<path d="M 99 588 l 4 5 l 7 -10" stroke="#FFFFFF" stroke-width="2.5" fill="none" stroke-linecap="round" stroke-linejoin="round"/>
<text x="126" y="594" font-size="17" fill="#0F1828" text-anchor="start" font-weight="700">MEMS IMU fabrication</text>
<text x="863.6" y="594" font-size="15" fill="#4A5567" text-anchor="end">Pilot-scale domestic (not commercial)</text>
<circle cx="104" cy="628" r="10" fill="#2BC5B4"/>
<path d="M 99 628 l 4 5 l 7 -10" stroke="#FFFFFF" stroke-width="2.5" fill="none" stroke-linecap="round" stroke-linejoin="round"/>
<text x="126" y="634" font-size="17" fill="#0F1828" text-anchor="start" font-weight="700">Sensor fusion software</text>
<text x="863.6" y="634" font-size="15" fill="#4A5567" text-anchor="end">Global competitive, edge-AI deploy</text>
<rect x="95" y="659" width="18" height="18" rx="3" fill="none" stroke="#C8443B" stroke-width="2"/>
<text x="126" y="674" font-size="17" fill="#0F1828" text-anchor="start" font-weight="700">Quantum sensors</text>
<text x="863.6" y="674" font-size="15" fill="#4A5567" text-anchor="end">R&amp;D phase — not commercial</text>
<rect x="911.6" y="348" width="618.4" height="372" rx="14" fill="rgba(201,168,76,0.1)" stroke="#C9A84C" stroke-width="1.5"/>
<text x="935.6" y="388" font-size="20" fill="#0F1828" text-anchor="start" font-weight="700">Regulatory landscape 2035</text>
<circle cx="941.6" cy="424" r="4" fill="#C9A84C"/>
<text x="957.6" y="430" font-size="17" fill="#0F1828" text-anchor="start">Full BVLOS commercial operations</text>
<text x="957.6" y="454" font-size="17" fill="#0F1828" text-anchor="start">standardised</text>
<circle cx="941.6" cy="494" r="4" fill="#C9A84C"/>
<text x="957.6" y="500" font-size="17" fill="#0F1828" text-anchor="start">Standardised payload interface (multiple</text>
<text x="957.6" y="524" font-size="17" fill="#0F1828" text-anchor="start">OEMs compatible)</text>
<circle cx="941.6" cy="564" r="4" fill="#C9A84C"/>
<text x="957.6" y="570" font-size="17" fill="#0F1828" text-anchor="start">Drone Shakti covering 50% of suitable</text>
<text x="957.6" y="594" font-size="17" fill="#0F1828" text-anchor="start">agricultural land</text>
<circle cx="941.6" cy="634" r="4" fill="#C9A84C"/>
<text x="957.6" y="640" font-size="17" fill="#0F1828" text-anchor="start">India a regional hub for drone-sensor</text>
<text x="957.6" y="664" font-size="17" fill="#0F1828" text-anchor="start">certification (South Asia, Africa)</text>
<text x="60" y="781" font-size="15" fill="#4A5567">Source: Techadyant Labs analysis.</text>
<text x="1540" y="781" font-size="15" font-style="italic" fill="#C9A84C" text-anchor="end">Forecast</text>
</svg>