<svg xmlns="http://www.w3.org/2000/svg" viewBox="0 0 1600 850" font-family="Arial, Helvetica, sans-serif">
<rect x="0" y="0" width="1600" height="850" fill="#FBF9F4"/>
<rect x="0" y="0" width="1600" height="10" fill="#0F1828"/>
<rect x="0" y="10" width="1600" height="3" fill="#C9A84C"/>
<text x="60" y="74" font-size="38" font-weight="700" fill="#0F1828">LiDAR Moves From Spinning Mirrors to FMCW</text>
<text x="62" y="108" font-size="20" fill="#4A5567">Three-generation roadmap and India market status</text>
<text x="1540" y="50" font-size="16" fill="#4A5567" text-anchor="end" font-family="'JetBrains Mono','Courier New',monospace">Figure 8.4 &#183; Techadyant Labs &#183; 2026</text>
<line x1="120" y1="210" x2="1480" y2="210" stroke="rgba(15,24,40,0.3)" stroke-width="3"/>
<circle cx="336.66666666666663" cy="210" r="13" fill="#0F1828"/>
<circle cx="336.66666666666663" cy="210" r="22" fill="none" stroke="#0F1828" stroke-width="2" opacity="0.4"/>
<text x="336.66666666666663" y="180" font-size="15" fill="#4A5567" text-anchor="middle" font-family="'JetBrains Mono','Courier New',monospace">2000s-2020s</text>
<rect x="120.0" y="255" width="433.3333333333333" height="440" rx="12" fill="#ffffff" stroke="#0F1828" stroke-width="2"/>
<rect x="120.0" y="255" width="433.3333333333333" height="52" rx="12" fill="#0F1828"/>
<rect x="120.0" y="281" width="433.3333333333333" height="26" rx="10" fill="#0F1828"/>
<text x="140.0" y="279" font-size="14" fill="#ffffff" text-anchor="start" font-weight="700">GENERATION 1</text>
<text x="140.0" y="299" font-size="19" fill="#ffffff" text-anchor="start" font-weight="700">Mechanical LiDAR</text>
<circle cx="146.0" cy="338" r="3.5" fill="#0F1828"/>
<text x="160.0" y="343" font-size="15" fill="#0F1828" text-anchor="start">Rotating mirror</text>
<circle cx="146.0" cy="372" r="3.5" fill="#0F1828"/>
<text x="160.0" y="377" font-size="15" fill="#0F1828" text-anchor="start">360° FOV · moving parts</text>
<circle cx="146.0" cy="406" r="3.5" fill="#0F1828"/>
<text x="160.0" y="411" font-size="15" fill="#0F1828" text-anchor="start">Range 100-300 m</text>
<circle cx="146.0" cy="440" r="3.5" fill="#0F1828"/>
<text x="160.0" y="445" font-size="15" fill="#0F1828" text-anchor="start">USD 5K-50K · 300K-2M pts/s</text>
<line x1="140.0" y1="473" x2="533.3333333333333" y2="473" stroke="rgba(74,85,103,0.2)" stroke-width="1"/>
<text x="140.0" y="497" font-size="14" fill="#4A5567" text-anchor="start" font-weight="700">Best for</text>
<text x="160.0" y="523" font-size="15" fill="#0F1828" text-anchor="start">— Surveying / mapping</text>
<text x="160.0" y="553" font-size="15" fill="#0F1828" text-anchor="start">— Corridor mapping</text>
<text x="160.0" y="583" font-size="15" fill="#0F1828" text-anchor="start">— Volumetric analysis</text>
<circle cx="799.9999999999999" cy="210" r="13" fill="#C9A84C"/>
<circle cx="799.9999999999999" cy="210" r="22" fill="none" stroke="#C9A84C" stroke-width="2" opacity="0.4"/>
<text x="799.9999999999999" y="180" font-size="15" fill="#4A5567" text-anchor="middle" font-family="'JetBrains Mono','Courier New',monospace">2018-2030+</text>
<rect x="583.3333333333333" y="255" width="433.3333333333333" height="440" rx="12" fill="#ffffff" stroke="#C9A84C" stroke-width="2"/>
<rect x="583.3333333333333" y="255" width="433.3333333333333" height="52" rx="12" fill="#C9A84C"/>
<rect x="583.3333333333333" y="281" width="433.3333333333333" height="26" rx="10" fill="#C9A84C"/>
<text x="603.3333333333333" y="279" font-size="14" fill="#ffffff" text-anchor="start" font-weight="700">GENERATION 2</text>
<text x="603.3333333333333" y="299" font-size="19" fill="#ffffff" text-anchor="start" font-weight="700">Solid-state LiDAR</text>
<circle cx="609.3333333333333" cy="338" r="3.5" fill="#C9A84C"/>
<text x="623.3333333333333" y="343" font-size="15" fill="#0F1828" text-anchor="start">Fixed beam (Flash / OPA)</text>
<circle cx="609.3333333333333" cy="372" r="3.5" fill="#C9A84C"/>
<text x="623.3333333333333" y="377" font-size="15" fill="#0F1828" text-anchor="start">60-120° FOV · no moving parts</text>
<circle cx="609.3333333333333" cy="406" r="3.5" fill="#C9A84C"/>
<text x="623.3333333333333" y="411" font-size="15" fill="#0F1828" text-anchor="start">Range 50-150 m</text>
<circle cx="609.3333333333333" cy="440" r="3.5" fill="#C9A84C"/>
<text x="623.3333333333333" y="445" font-size="15" fill="#0F1828" text-anchor="start">USD 1K-5K · 100K-1M pts/s</text>
<line x1="603.3333333333333" y1="473" x2="996.6666666666665" y2="473" stroke="rgba(74,85,103,0.2)" stroke-width="1"/>
<text x="603.3333333333333" y="497" font-size="14" fill="#4A5567" text-anchor="start" font-weight="700">Best for</text>
<text x="623.3333333333333" y="523" font-size="15" fill="#0F1828" text-anchor="start">— Obstacle avoidance</text>
<text x="623.3333333333333" y="553" font-size="15" fill="#0F1828" text-anchor="start">— Autonomous navigation</text>
<text x="623.3333333333333" y="583" font-size="15" fill="#0F1828" text-anchor="start">— Low-speed inspection</text>
<circle cx="1263.3333333333333" cy="210" r="13" fill="#2BC5B4"/>
<circle cx="1263.3333333333333" cy="210" r="22" fill="none" stroke="#2BC5B4" stroke-width="2" opacity="0.4"/>
<text x="1263.3333333333333" y="180" font-size="15" fill="#4A5567" text-anchor="middle" font-family="'JetBrains Mono','Courier New',monospace">2025-2035+</text>
<rect x="1046.6666666666665" y="255" width="433.3333333333333" height="440" rx="12" fill="#ffffff" stroke="#2BC5B4" stroke-width="2"/>
<rect x="1046.6666666666665" y="255" width="433.3333333333333" height="52" rx="12" fill="#2BC5B4"/>
<rect x="1046.6666666666665" y="281" width="433.3333333333333" height="26" rx="10" fill="#2BC5B4"/>
<text x="1066.6666666666665" y="279" font-size="14" fill="#ffffff" text-anchor="start" font-weight="700">GENERATION 3</text>
<text x="1066.6666666666665" y="299" font-size="19" fill="#ffffff" text-anchor="start" font-weight="700">FMCW LiDAR</text>
<circle cx="1072.6666666666665" cy="338" r="3.5" fill="#2BC5B4"/>
<text x="1086.6666666666665" y="343" font-size="15" fill="#0F1828" text-anchor="start">Frequency modulation</text>
<circle cx="1072.6666666666665" cy="372" r="3.5" fill="#2BC5B4"/>
<text x="1086.6666666666665" y="377" font-size="15" fill="#0F1828" text-anchor="start">120-360° FOV · no moving parts</text>
<circle cx="1072.6666666666665" cy="406" r="3.5" fill="#2BC5B4"/>
<text x="1086.6666666666665" y="411" font-size="15" fill="#0F1828" text-anchor="start">Range 200-500 m+</text>
<circle cx="1072.6666666666665" cy="440" r="3.5" fill="#2BC5B4"/>
<text x="1086.6666666666665" y="445" font-size="15" fill="#0F1828" text-anchor="start">USD 2K-10K (falling) · velocity out</text>
<line x1="1066.6666666666665" y1="473" x2="1459.9999999999998" y2="473" stroke="rgba(74,85,103,0.2)" stroke-width="1"/>
<text x="1066.6666666666665" y="497" font-size="14" fill="#4A5567" text-anchor="start" font-weight="700">Best for</text>
<text x="1086.6666666666665" y="523" font-size="15" fill="#0F1828" text-anchor="start">— Long-range detection</text>
<text x="1086.6666666666665" y="553" font-size="15" fill="#0F1828" text-anchor="start">— Velocity measurement</text>
<text x="1086.6666666666665" y="583" font-size="15" fill="#0F1828" text-anchor="start">— Automotive (emerging)</text>
<text x="120" y="729" font-size="17" fill="#0F1828" text-anchor="start" font-weight="700">India market status (2026):</text>
<rect x="410" y="709" width="20" height="20" rx="4" fill="#0F1828" opacity="1.0"/>
<text x="438" y="729" font-size="16" fill="#0F1828" text-anchor="start">Mechanical 95%</text>
<rect x="603.0" y="709" width="20" height="20" rx="4" fill="#C9A84C" opacity="0.6"/>
<text x="631.0" y="729" font-size="16" fill="#0F1828" text-anchor="start">Solid-state 5%</text>
<rect x="796.0" y="709" width="20" height="20" rx="4" fill="#2BC5B4" opacity="0.4"/>
<text x="824.0" y="729" font-size="16" fill="#0F1828" text-anchor="start">FMCW &lt;1% (R&amp;D)</text>
<text x="120" y="759" font-size="15" fill="#4A5567" text-anchor="start">Import dependence 85-90% (scanner engines, complete units). Domestic = integration of imported scanners; BEL/DRDO at TRL 4-5.</text>
<text x="60" y="822" font-size="15" fill="#4A5567">Source: Techadyant Labs analysis; Velodyne, Ouster, Hesai, Livox, RoboSense, Aeva.</text>
<text x="1540" y="822" font-size="15" font-style="italic" fill="#C9A84C" text-anchor="end">Roadmap</text>
</svg>