<svg xmlns="http://www.w3.org/2000/svg" viewBox="0 0 1600 900" font-family="Arial, Helvetica, sans-serif">
<rect x="0" y="0" width="1600" height="900" fill="#FBF9F4"/>
<rect x="0" y="0" width="1600" height="10" fill="#0F1828"/>
<rect x="0" y="10" width="1600" height="3" fill="#C9A84C"/>
<text x="60" y="74" font-size="38" font-weight="700" fill="#0F1828">Ten Ways to Win in Drone Sensors</text>
<text x="62" y="108" font-size="20" fill="#4A5567">Top opportunities in India&#x27;s drone-sensor market, ranked · growth or margin signal per opportunity</text>
<text x="1540" y="50" font-size="16" fill="#4A5567" text-anchor="end" font-family="'JetBrains Mono','Courier New',monospace">Figure 13.1 &#183; Techadyant Labs &#183; 2026</text>
<rect x="70.0" y="158" width="715.0" height="128" rx="12" fill="#FFFFFF" stroke="rgba(15,24,40,0.13)" stroke-width="1.5"/>
<rect x="70.0" y="158" width="58" height="128" rx="12" fill="#C9A84C"/>
<rect x="100.0" y="158" width="28" height="128" rx="10" fill="#C9A84C"/>
<text x="99.0" y="232.0" font-size="34" fill="#FFFFFF" text-anchor="middle" font-weight="700" font-family="'JetBrains Mono','Courier New',monospace">1</text>
<text x="146.0" y="192" font-size="18" fill="#0F1828" text-anchor="start" font-weight="700">LiDAR integration — infrastructure &amp; mining</text>
<rect x="611.0" y="172" width="160" height="30" rx="15" fill="rgba(201,168,76,0.18)"/>
<text x="691.0" y="192" font-size="14" fill="#0F1828" text-anchor="middle" font-weight="700" font-family="'JetBrains Mono','Courier New',monospace">32-35% CAGR</text>
<text x="146.0" y="224" font-size="15" fill="#4A5567" text-anchor="start">Power lines, bridges, stockpile volumetrics; domestic</text>
<text x="146.0" y="248" font-size="15" fill="#4A5567" text-anchor="start">integration captures 40-50% value.</text>
<rect x="70.0" y="298" width="715.0" height="128" rx="12" fill="#FFFFFF" stroke="rgba(15,24,40,0.13)" stroke-width="1.5"/>
<rect x="70.0" y="298" width="58" height="128" rx="12" fill="#2BC5B4"/>
<rect x="100.0" y="298" width="28" height="128" rx="10" fill="#2BC5B4"/>
<text x="99.0" y="372.0" font-size="34" fill="#FFFFFF" text-anchor="middle" font-weight="700" font-family="'JetBrains Mono','Courier New',monospace">2</text>
<text x="146.0" y="332" font-size="18" fill="#0F1828" text-anchor="start" font-weight="700">Germanium-free thermal imaging</text>
<rect x="611.0" y="312" width="160" height="30" rx="15" fill="rgba(43,197,180,0.18)"/>
<text x="691.0" y="332" font-size="14" fill="#0F1828" text-anchor="middle" font-weight="700" font-family="'JetBrains Mono','Courier New',monospace">30-35% CAGR</text>
<text x="146.0" y="364" font-size="15" fill="#4A5567" text-anchor="start">India&#x27;s key indigenous breakthrough; PaaS expands TAM; export</text>
<text x="146.0" y="388" font-size="15" fill="#4A5567" text-anchor="start">to global south.</text>
<rect x="70.0" y="438" width="715.0" height="128" rx="12" fill="#FFFFFF" stroke="rgba(15,24,40,0.13)" stroke-width="1.5"/>
<rect x="70.0" y="438" width="58" height="128" rx="12" fill="#2BC5B4"/>
<rect x="100.0" y="438" width="28" height="128" rx="10" fill="#2BC5B4"/>
<text x="99.0" y="512.0" font-size="34" fill="#FFFFFF" text-anchor="middle" font-weight="700" font-family="'JetBrains Mono','Courier New',monospace">3</text>
<text x="146.0" y="472" font-size="18" fill="#0F1828" text-anchor="start" font-weight="700">BVLOS sense-and-avoid radar</text>
<rect x="611.0" y="452" width="160" height="30" rx="15" fill="rgba(43,197,180,0.18)"/>
<text x="691.0" y="472" font-size="14" fill="#0F1828" text-anchor="middle" font-weight="700" font-family="'JetBrains Mono','Courier New',monospace">New market</text>
<text x="146.0" y="504" font-size="15" fill="#4A5567" text-anchor="start">Full BVLOS approval (2027-28) mandates collision avoidance;</text>
<text x="146.0" y="528" font-size="15" fill="#4A5567" text-anchor="start">BEL first-mover.</text>
<rect x="70.0" y="578" width="715.0" height="128" rx="12" fill="#FFFFFF" stroke="rgba(15,24,40,0.13)" stroke-width="1.5"/>
<rect x="70.0" y="578" width="58" height="128" rx="12" fill="#C9A84C"/>
<rect x="100.0" y="578" width="28" height="128" rx="10" fill="#C9A84C"/>
<text x="99.0" y="652.0" font-size="34" fill="#FFFFFF" text-anchor="middle" font-weight="700" font-family="'JetBrains Mono','Courier New',monospace">4</text>
<text x="146.0" y="612" font-size="18" fill="#0F1828" text-anchor="start" font-weight="700">Multispectral for agriculture (Drone Shakti)</text>
<rect x="611.0" y="592" width="160" height="30" rx="15" fill="rgba(201,168,76,0.18)"/>
<text x="691.0" y="612" font-size="14" fill="#0F1828" text-anchor="middle" font-weight="700" font-family="'JetBrains Mono','Courier New',monospace">28-32% CAGR</text>
<text x="146.0" y="644" font-size="15" fill="#4A5567" text-anchor="start">Subsidised adoption drives volume; low-cost durable sensors</text>
<text x="146.0" y="668" font-size="15" fill="#4A5567" text-anchor="start">for Indian field conditions.</text>
<rect x="70.0" y="718" width="715.0" height="128" rx="12" fill="#FFFFFF" stroke="rgba(15,24,40,0.13)" stroke-width="1.5"/>
<rect x="70.0" y="718" width="58" height="128" rx="12" fill="#2BC5B4"/>
<rect x="100.0" y="718" width="28" height="128" rx="10" fill="#2BC5B4"/>
<text x="99.0" y="792.0" font-size="34" fill="#FFFFFF" text-anchor="middle" font-weight="700" font-family="'JetBrains Mono','Courier New',monospace">5</text>
<text x="146.0" y="752" font-size="18" fill="#0F1828" text-anchor="start" font-weight="700">Sensor fusion software &amp; AI platforms</text>
<rect x="611.0" y="732" width="160" height="30" rx="15" fill="rgba(43,197,180,0.18)"/>
<text x="691.0" y="752" font-size="14" fill="#0F1828" text-anchor="middle" font-weight="700" font-family="'JetBrains Mono','Courier New',monospace">70-85% margin</text>
<text x="146.0" y="784" font-size="15" fill="#4A5567" text-anchor="start">Highest-margin segment; India&#x27;s IT talent an edge; FLYGHT</text>
<text x="146.0" y="808" font-size="15" fill="#4A5567" text-anchor="start">CLOUD proves the model.</text>
<rect x="815.0" y="158" width="715.0" height="128" rx="12" fill="#FFFFFF" stroke="rgba(15,24,40,0.13)" stroke-width="1.5"/>
<rect x="815.0" y="158" width="58" height="128" rx="12" fill="#2BC5B4"/>
<rect x="845.0" y="158" width="28" height="128" rx="10" fill="#2BC5B4"/>
<text x="844.0" y="232.0" font-size="34" fill="#FFFFFF" text-anchor="middle" font-weight="700" font-family="'JetBrains Mono','Courier New',monospace">6</text>
<text x="891.0" y="192" font-size="18" fill="#0F1828" text-anchor="start" font-weight="700">Payload-as-a-Service subscriptions</text>
<rect x="1356.0" y="172" width="160" height="30" rx="15" fill="rgba(43,197,180,0.18)"/>
<text x="1436.0" y="192" font-size="14" fill="#0F1828" text-anchor="middle" font-weight="700" font-family="'JetBrains Mono','Courier New',monospace">70-80% margin</text>
<text x="891.0" y="224" font-size="15" fill="#4A5567" text-anchor="start">Eon Space model; lowers DaaS entry barrier; 5-20x higher</text>
<text x="891.0" y="248" font-size="15" fill="#4A5567" text-anchor="start">customer lifetime value.</text>
<rect x="815.0" y="298" width="715.0" height="128" rx="12" fill="#FFFFFF" stroke="rgba(15,24,40,0.13)" stroke-width="1.5"/>
<rect x="815.0" y="298" width="58" height="128" rx="12" fill="#C9A84C"/>
<rect x="845.0" y="298" width="28" height="128" rx="10" fill="#C9A84C"/>
<text x="844.0" y="372.0" font-size="34" fill="#FFFFFF" text-anchor="middle" font-weight="700" font-family="'JetBrains Mono','Courier New',monospace">7</text>
<text x="891.0" y="332" font-size="18" fill="#0F1828" text-anchor="start" font-weight="700">Swarm drone sensors (defence)</text>
<rect x="1356.0" y="312" width="160" height="30" rx="15" fill="rgba(201,168,76,0.18)"/>
<text x="1436.0" y="332" font-size="14" fill="#0F1828" text-anchor="middle" font-weight="700" font-family="'JetBrains Mono','Courier New',monospace">New market</text>
<text x="891.0" y="364" font-size="15" fill="#4A5567" text-anchor="start">IAF Mehar Baba seeks indigenous swarm radar; long-term but</text>
<text x="891.0" y="388" font-size="15" fill="#4A5567" text-anchor="start">strategic.</text>
<rect x="815.0" y="438" width="715.0" height="128" rx="12" fill="#FFFFFF" stroke="rgba(15,24,40,0.13)" stroke-width="1.5"/>
<rect x="815.0" y="438" width="58" height="128" rx="12" fill="rgba(15,24,40,0.18)"/>
<rect x="845.0" y="438" width="28" height="128" rx="10" fill="rgba(15,24,40,0.18)"/>
<text x="844.0" y="512.0" font-size="34" fill="#0F1828" text-anchor="middle" font-weight="700" font-family="'JetBrains Mono','Courier New',monospace">8</text>
<text x="891.0" y="472" font-size="18" fill="#0F1828" text-anchor="start" font-weight="700">RTK GNSS module assembly</text>
<rect x="1356.0" y="452" width="160" height="30" rx="15" fill="rgba(15,24,40,0.18)"/>
<text x="1436.0" y="472" font-size="14" fill="#0F1828" text-anchor="middle" font-weight="700" font-family="'JetBrains Mono','Courier New',monospace">18-22% CAGR</text>
<text x="891.0" y="504" font-size="15" fill="#4A5567" text-anchor="start">Commoditising but essential; domestic assembly captures 15-20%</text>
<text x="891.0" y="528" font-size="15" fill="#4A5567" text-anchor="start">value; volume play.</text>
<rect x="815.0" y="578" width="715.0" height="128" rx="12" fill="#FFFFFF" stroke="rgba(15,24,40,0.13)" stroke-width="1.5"/>
<rect x="815.0" y="578" width="58" height="128" rx="12" fill="#C9A84C"/>
<rect x="845.0" y="578" width="28" height="128" rx="10" fill="#C9A84C"/>
<text x="844.0" y="652.0" font-size="34" fill="#FFFFFF" text-anchor="middle" font-weight="700" font-family="'JetBrains Mono','Courier New',monospace">9</text>
<text x="891.0" y="612" font-size="18" fill="#0F1828" text-anchor="start" font-weight="700">Hyperspectral miniaturisation</text>
<rect x="1356.0" y="592" width="160" height="30" rx="15" fill="rgba(201,168,76,0.18)"/>
<text x="1436.0" y="612" font-size="14" fill="#0F1828" text-anchor="middle" font-weight="700" font-family="'JetBrains Mono','Courier New',monospace">30-35% CAGR</text>
<text x="891.0" y="644" font-size="15" fill="#4A5567" text-anchor="start">Mineral exploration, precision agri; commercial at 2030-32;</text>
<text x="891.0" y="668" font-size="15" fill="#4A5567" text-anchor="start">niche high-margin.</text>
<rect x="815.0" y="718" width="715.0" height="128" rx="12" fill="#FFFFFF" stroke="rgba(15,24,40,0.13)" stroke-width="1.5"/>
<rect x="815.0" y="718" width="58" height="128" rx="12" fill="rgba(15,24,40,0.18)"/>
<rect x="845.0" y="718" width="28" height="128" rx="10" fill="rgba(15,24,40,0.18)"/>
<text x="844.0" y="792.0" font-size="34" fill="#0F1828" text-anchor="middle" font-weight="700" font-family="'JetBrains Mono','Courier New',monospace">10</text>
<text x="891.0" y="752" font-size="18" fill="#0F1828" text-anchor="start" font-weight="700">Sensor calibration &amp; testing services</text>
<rect x="1356.0" y="732" width="160" height="30" rx="15" fill="rgba(15,24,40,0.18)"/>
<text x="1436.0" y="752" font-size="14" fill="#0F1828" text-anchor="middle" font-weight="700" font-family="'JetBrains Mono','Courier New',monospace">Steady</text>
<text x="891.0" y="784" font-size="15" fill="#4A5567" text-anchor="start">Gap: few NABL-accredited drone-sensor facilities; build</text>
<text x="891.0" y="808" font-size="15" fill="#4A5567" text-anchor="start">infrastructure-as-a-service.</text>
<text x="60" y="872" font-size="15" fill="#4A5567">Source: Techadyant Labs analysis.</text>
<text x="1540" y="872" font-size="15" font-style="italic" fill="#C9A84C" text-anchor="end">Indicative</text>
</svg>