<svg xmlns="http://www.w3.org/2000/svg" viewBox="0 0 1600 860" font-family="Arial, Helvetica, sans-serif">
<rect x="0" y="0" width="1600" height="860" fill="#FBF9F4"/>
<rect x="0" y="0" width="1600" height="10" fill="#0F1828"/>
<rect x="0" y="10" width="1600" height="3" fill="#C9A84C"/>
<text x="60" y="74" font-size="38" font-weight="700" fill="#0F1828">India Sensor Localisation Roadmap, 2026-2035</text>
<text x="62" y="108" font-size="20" fill="#4A5567">Indigenisation timeline by sensor category and import-dependence projection</text>
<text x="1540" y="50" font-size="16" fill="#4A5567" text-anchor="end" font-family="'JetBrains Mono','Courier New',monospace">Figure 7.4 &#183; Techadyant Labs &#183; 2026</text>
<text x="60" y="150" font-size="21" fill="#4A5567" text-anchor="start">When each sensor category reaches indigenous production at scale, and where import dependence lands</text>
<text x="462.5" y="200" font-size="18" fill="#0F1828" text-anchor="middle" font-weight="700" font-family="'JetBrains Mono','Courier New',monospace">2026-27</text>
<line x1="360.0" y1="212" x2="360.0" y2="720" stroke="rgba(74,85,103,0.1)" stroke-width="1"/>
<text x="667.5" y="200" font-size="18" fill="#0F1828" text-anchor="middle" font-weight="700" font-family="'JetBrains Mono','Courier New',monospace">2028-29</text>
<line x1="565.0" y1="212" x2="565.0" y2="720" stroke="rgba(74,85,103,0.1)" stroke-width="1"/>
<text x="872.5" y="200" font-size="18" fill="#0F1828" text-anchor="middle" font-weight="700" font-family="'JetBrains Mono','Courier New',monospace">2030-32</text>
<line x1="770.0" y1="212" x2="770.0" y2="720" stroke="rgba(74,85,103,0.1)" stroke-width="1"/>
<text x="1077.5" y="200" font-size="18" fill="#0F1828" text-anchor="middle" font-weight="700" font-family="'JetBrains Mono','Courier New',monospace">2033-35</text>
<line x1="975.0" y1="212" x2="975.0" y2="720" stroke="rgba(74,85,103,0.1)" stroke-width="1"/>
<line x1="1180" y1="212" x2="1180" y2="720" stroke="rgba(74,85,103,0.1)" stroke-width="1"/>
<text x="60" y="274" font-size="19" fill="#0F1828" text-anchor="start" font-weight="700">Thermal (EO/IR)</text>
<text x="60" y="296" font-size="14" fill="#4A5567" text-anchor="start">Eon Space Labs</text>
<rect x="366.0" y="262" width="193.0" height="40" rx="7" fill="#2BC5B4"/>
<text x="462.5" y="288" font-size="13" fill="#FFFFFF" text-anchor="middle" font-weight="700">Scale-up</text>
<rect x="571.0" y="262" width="193.0" height="40" rx="7" fill="#2BC5B4"/>
<text x="667.5" y="288" font-size="13" fill="#FFFFFF" text-anchor="middle" font-weight="700">Full commercial</text>
<rect x="776.0" y="262" width="193.0" height="40" rx="7" fill="#2BC5B4"/>
<text x="872.5" y="288" font-size="13" fill="#FFFFFF" text-anchor="middle" font-weight="700">Export markets</text>
<rect x="981.0" y="262" width="193.0" height="40" rx="7" fill="#2BC5B4"/>
<text x="1077.5" y="288" font-size="13" fill="#FFFFFF" text-anchor="middle" font-weight="700">Global</text>
<text x="60" y="354" font-size="19" fill="#0F1828" text-anchor="start" font-weight="700">LiDAR</text>
<text x="60" y="376" font-size="14" fill="#4A5567" text-anchor="start">BEL / DRDO</text>
<rect x="366.0" y="342" width="193.0" height="40" rx="7" fill="rgba(74,85,103,0.18)"/>
<text x="462.5" y="368" font-size="13" fill="#4A5567" text-anchor="middle">R&amp;D (TRL4-5)</text>
<rect x="571.0" y="342" width="193.0" height="40" rx="7" fill="rgba(74,85,103,0.18)"/>
<text x="667.5" y="368" font-size="13" fill="#4A5567" text-anchor="middle">Prototypes (TRL6-7)</text>
<rect x="776.0" y="342" width="193.0" height="40" rx="7" fill="#2BC5B4"/>
<text x="872.5" y="368" font-size="13" fill="#FFFFFF" text-anchor="middle" font-weight="700">Commercial</text>
<rect x="981.0" y="342" width="193.0" height="40" rx="7" fill="#2BC5B4"/>
<text x="1077.5" y="368" font-size="13" fill="#FFFFFF" text-anchor="middle" font-weight="700">Scale-up</text>
<text x="60" y="434" font-size="19" fill="#0F1828" text-anchor="start" font-weight="700">Radar (drone)</text>
<text x="60" y="456" font-size="14" fill="#4A5567" text-anchor="start">BEL / DRDO</text>
<rect x="366.0" y="422" width="193.0" height="40" rx="7" fill="rgba(74,85,103,0.18)"/>
<text x="462.5" y="448" font-size="13" fill="#4A5567" text-anchor="middle">R&amp;D (TRL3-4)</text>
<rect x="571.0" y="422" width="193.0" height="40" rx="7" fill="rgba(74,85,103,0.18)"/>
<text x="667.5" y="448" font-size="13" fill="#4A5567" text-anchor="middle">Prototypes (TRL5-6)</text>
<rect x="776.0" y="422" width="193.0" height="40" rx="7" fill="#2BC5B4"/>
<text x="872.5" y="448" font-size="13" fill="#FFFFFF" text-anchor="middle" font-weight="700">Commercial</text>
<rect x="981.0" y="422" width="193.0" height="40" rx="7" fill="#2BC5B4"/>
<text x="1077.5" y="448" font-size="13" fill="#FFFFFF" text-anchor="middle" font-weight="700">Scale-up</text>
<text x="60" y="514" font-size="19" fill="#0F1828" text-anchor="start" font-weight="700">IMU (MEMS)</text>
<text x="60" y="536" font-size="14" fill="#4A5567" text-anchor="start">Academic / startup</text>
<rect x="366.0" y="502" width="193.0" height="40" rx="7" fill="rgba(74,85,103,0.18)"/>
<text x="462.5" y="528" font-size="13" fill="#4A5567" text-anchor="middle">R&amp;D (design)</text>
<rect x="571.0" y="502" width="193.0" height="40" rx="7" fill="rgba(74,85,103,0.18)"/>
<text x="667.5" y="528" font-size="13" fill="#4A5567" text-anchor="middle">Prototype fab</text>
<rect x="776.0" y="502" width="193.0" height="40" rx="7" fill="#2BC5B4"/>
<text x="872.5" y="528" font-size="13" fill="#FFFFFF" text-anchor="middle" font-weight="700">Commercial</text>
<rect x="981.0" y="502" width="193.0" height="40" rx="7" fill="#2BC5B4"/>
<text x="1077.5" y="528" font-size="13" fill="#FFFFFF" text-anchor="middle" font-weight="700">Scale</text>
<text x="60" y="594" font-size="19" fill="#0F1828" text-anchor="start" font-weight="700">GNSS receiver IC</text>
<text x="60" y="616" font-size="14" fill="#4A5567" text-anchor="start">Design houses</text>
<rect x="366.0" y="582" width="193.0" height="40" rx="7" fill="rgba(74,85,103,0.18)"/>
<text x="462.5" y="608" font-size="13" fill="#4A5567" text-anchor="middle">R&amp;D (design)</text>
<rect x="571.0" y="582" width="193.0" height="40" rx="7" fill="rgba(74,85,103,0.18)"/>
<text x="667.5" y="608" font-size="13" fill="#4A5567" text-anchor="middle">Tape-out</text>
<rect x="776.0" y="582" width="193.0" height="40" rx="7" fill="#2BC5B4"/>
<text x="872.5" y="608" font-size="13" fill="#FFFFFF" text-anchor="middle" font-weight="700">Commercial</text>
<rect x="981.0" y="582" width="193.0" height="40" rx="7" fill="#2BC5B4"/>
<text x="1077.5" y="608" font-size="13" fill="#FFFFFF" text-anchor="middle" font-weight="700">Scale</text>
<text x="60" y="674" font-size="19" fill="#0F1828" text-anchor="start" font-weight="700">Multispectral</text>
<text x="60" y="696" font-size="14" fill="#4A5567" text-anchor="start">R&amp;D institutions</text>
<rect x="366.0" y="662" width="193.0" height="40" rx="7" fill="rgba(74,85,103,0.18)"/>
<text x="462.5" y="688" font-size="13" fill="#4A5567" text-anchor="middle">R&amp;D (filters)</text>
<rect x="571.0" y="662" width="193.0" height="40" rx="7" fill="rgba(74,85,103,0.18)"/>
<text x="667.5" y="688" font-size="13" fill="#4A5567" text-anchor="middle">Prototype</text>
<rect x="776.0" y="662" width="193.0" height="40" rx="7" fill="#2BC5B4"/>
<text x="872.5" y="688" font-size="13" fill="#FFFFFF" text-anchor="middle" font-weight="700">Commercial</text>
<rect x="981.0" y="662" width="193.0" height="40" rx="7" fill="#2BC5B4"/>
<text x="1077.5" y="688" font-size="13" fill="#FFFFFF" text-anchor="middle" font-weight="700">Scale</text>
<rect x="360" y="726" width="26" height="20" rx="4" fill="#2BC5B4"/>
<text x="394" y="742" font-size="15" fill="#4A5567" text-anchor="start">Indigenous production at scale</text>
<rect x="720" y="726" width="26" height="20" rx="4" fill="rgba(74,85,103,0.18)"/>
<text x="754" y="742" font-size="15" fill="#4A5567" text-anchor="start">R&amp;D / prototype phase</text>
<text x="1240" y="210" font-size="18" fill="#0F1828" text-anchor="start" font-weight="700">Import dependence</text>
<line x1="1240" y1="620.0" x2="1540" y2="620.0" stroke="rgba(74,85,103,0.12)" stroke-width="1"/>
<text x="1232" y="625.0" font-size="13" fill="#4A5567" text-anchor="end" font-family="'JetBrains Mono','Courier New',monospace">0%</text>
<line x1="1240" y1="493.33333333333337" x2="1540" y2="493.33333333333337" stroke="rgba(74,85,103,0.12)" stroke-width="1"/>
<text x="1232" y="498.33333333333337" font-size="13" fill="#4A5567" text-anchor="end" font-family="'JetBrains Mono','Courier New',monospace">30%</text>
<line x1="1240" y1="366.6666666666667" x2="1540" y2="366.6666666666667" stroke="rgba(74,85,103,0.12)" stroke-width="1"/>
<text x="1232" y="371.6666666666667" font-size="13" fill="#4A5567" text-anchor="end" font-family="'JetBrains Mono','Courier New',monospace">60%</text>
<line x1="1240" y1="240.0" x2="1540" y2="240.0" stroke="rgba(74,85,103,0.12)" stroke-width="1"/>
<text x="1232" y="245.0" font-size="13" fill="#4A5567" text-anchor="end" font-family="'JetBrains Mono','Courier New',monospace">90%</text>
<text x="1240.0" y="642" font-size="13" fill="#4A5567" text-anchor="middle" font-family="'JetBrains Mono','Courier New',monospace">2026</text>
<text x="1373.3333333333333" y="642" font-size="13" fill="#4A5567" text-anchor="middle" font-family="'JetBrains Mono','Courier New',monospace">2030</text>
<text x="1540.0" y="642" font-size="13" fill="#4A5567" text-anchor="middle" font-family="'JetBrains Mono','Courier New',monospace">2035</text>
<path d="M1240.0,303.3 L1373.3,358.2 L1540.0,451.1" fill="none" stroke="#2BC5B4" stroke-width="3"/>
<circle cx="1540.0" cy="451.1111111111111" r="5" fill="#2BC5B4"/>
<path d="M1240.0,303.3 L1373.3,337.1 L1540.0,408.9" fill="none" stroke="#C9A84C" stroke-width="3"/>
<circle cx="1540.0" cy="408.8888888888889" r="5" fill="#C9A84C"/>
<path d="M1240.0,303.3 L1373.3,320.2 L1540.0,366.7" fill="none" stroke="#C8443B" stroke-width="3"/>
<circle cx="1540.0" cy="366.6666666666667" r="5" fill="#C8443B"/>
<circle cx="1240" cy="660" r="6" fill="#2BC5B4"/>
<text x="1254" y="665" font-size="14" fill="#4A5567" text-anchor="start" font-family="'JetBrains Mono','Courier New',monospace">Bull: 75% -&gt; 35-45%</text>
<circle cx="1240" cy="684" r="6" fill="#C9A84C"/>
<text x="1254" y="689" font-size="14" fill="#4A5567" text-anchor="start" font-family="'JetBrains Mono','Courier New',monospace">Base: 75% -&gt; 45-55%</text>
<circle cx="1240" cy="708" r="6" fill="#C8443B"/>
<text x="1254" y="713" font-size="14" fill="#4A5567" text-anchor="start" font-family="'JetBrains Mono','Courier New',monospace">Bear: 75% -&gt; 55-65%</text>
<text x="60" y="768" font-size="16" fill="#0F1828" text-anchor="start">Thermal leads on indigenisation; LiDAR and radar reach commercial scale in 2030-32; MEMS IMU and GNSS hinge on</text>
<text x="60" y="792" font-size="16" fill="#0F1828" text-anchor="start">semiconductor-fab access, unlikely before 2030-32. Base case: overall import dependence falls to ~45-55% by 2035.</text>
<text x="60" y="832" font-size="15" fill="#4A5567">Source: Policy and industry interviews; BEL/DRDO. Techadyant Labs analysis.</text>
<text x="1540" y="832" font-size="15" font-style="italic" fill="#C9A84C" text-anchor="end">Forecast</text>
</svg>