<svg xmlns="http://www.w3.org/2000/svg" viewBox="0 0 1600 980" font-family="Arial, Helvetica, sans-serif">
<rect x="0" y="0" width="1600" height="980" fill="#FBF9F4"/>
<rect x="0" y="0" width="1600" height="10" fill="#0F1828"/>
<rect x="0" y="10" width="1600" height="3" fill="#C9A84C"/>
<text x="60" y="74" font-size="38" font-weight="700" fill="#0F1828">Four Lenses on One Market</text>
<text x="62" y="108" font-size="20" fill="#4A5567">Each segmentation dimension yields a distinct strategic decision</text>
<text x="1540" y="50" font-size="16" fill="#4A5567" text-anchor="end" font-family="'JetBrains Mono','Courier New',monospace">Figure 5.1 &#183; Techadyant Labs &#183; 2026</text>
<line x1="800.0" y1="470" x2="1330.0" y2="774.0" stroke="rgba(15,24,40,0.22)" stroke-width="2.5"/>
<line x1="800.0" y1="470" x2="270.0" y2="774.0" stroke="rgba(15,24,40,0.22)" stroke-width="2.5"/>
<line x1="800.0" y1="470" x2="1330.0" y2="266.0" stroke="rgba(15,24,40,0.22)" stroke-width="2.5"/>
<line x1="800.0" y1="470" x2="270.0" y2="266.0" stroke="rgba(15,24,40,0.22)" stroke-width="2.5"/>
<circle cx="800.0" cy="470" r="96" fill="#0F1828"/>
<circle cx="800.0" cy="470" r="89" fill="none" stroke="#C9A84C" stroke-width="2.5"/>
<text x="800.0" y="456" font-size="20" fill="#FBF9F4" text-anchor="middle" font-weight="700">DRONE SENSOR</text>
<text x="800.0" y="482" font-size="20" fill="#FBF9F4" text-anchor="middle" font-weight="700">MARKET</text>
<text x="800.0" y="510" font-size="15" fill="#C9A84C" text-anchor="middle" font-style="italic">4 dimensions</text>
<rect x="60" y="150" width="420" height="232" rx="14" fill="#FFFFFF" stroke="#C9A84C" stroke-width="2.5"/>
<rect x="60" y="150" width="420" height="46" rx="14" fill="#C9A84C"/>
<rect x="60" y="174" width="420" height="22" rx="0" fill="#C9A84C"/>
<text x="82" y="181" font-size="21" fill="#0F1828" text-anchor="start" font-weight="700">BY SENSOR TYPE</text>
<circle cx="77" cy="223" r="3.5" fill="#C9A84C"/>
<text x="86" y="228" font-size="18" fill="#0F1828" text-anchor="start">Positioning / Nav</text>
<circle cx="77" cy="253" r="3.5" fill="#C9A84C"/>
<text x="86" y="258" font-size="18" fill="#0F1828" text-anchor="start">Inertial</text>
<circle cx="77" cy="283" r="3.5" fill="#C9A84C"/>
<text x="86" y="288" font-size="18" fill="#0F1828" text-anchor="start">LiDAR</text>
<circle cx="271.0" cy="223" r="3.5" fill="#C9A84C"/>
<text x="280.0" y="228" font-size="18" fill="#0F1828" text-anchor="start">Vision</text>
<circle cx="271.0" cy="253" r="3.5" fill="#C9A84C"/>
<text x="280.0" y="258" font-size="18" fill="#0F1828" text-anchor="start">Environmental</text>
<circle cx="271.0" cy="283" r="3.5" fill="#C9A84C"/>
<text x="280.0" y="288" font-size="18" fill="#0F1828" text-anchor="start">Emerging</text>
<line x1="78" y1="336" x2="462" y2="336" stroke="rgba(15,24,40,0.12)" stroke-width="1"/>
<text x="82" y="362" font-size="15" fill="#4A5567" text-anchor="start" font-style="italic">Technology investment priorities</text>
<rect x="1120" y="150" width="420" height="232" rx="14" fill="#FFFFFF" stroke="#2BC5B4" stroke-width="2.5"/>
<rect x="1120" y="150" width="420" height="46" rx="14" fill="#2BC5B4"/>
<rect x="1120" y="174" width="420" height="22" rx="0" fill="#2BC5B4"/>
<text x="1142" y="181" font-size="21" fill="#0F1828" text-anchor="start" font-weight="700">BY UAV TYPE</text>
<circle cx="1137" cy="223" r="3.5" fill="#2BC5B4"/>
<text x="1146" y="228" font-size="18" fill="#0F1828" text-anchor="start">Nano</text>
<circle cx="1137" cy="253" r="3.5" fill="#2BC5B4"/>
<text x="1146" y="258" font-size="18" fill="#0F1828" text-anchor="start">Micro</text>
<circle cx="1137" cy="283" r="3.5" fill="#2BC5B4"/>
<text x="1146" y="288" font-size="18" fill="#0F1828" text-anchor="start">Small</text>
<circle cx="1331.0" cy="223" r="3.5" fill="#2BC5B4"/>
<text x="1340.0" y="228" font-size="18" fill="#0F1828" text-anchor="start">Medium</text>
<circle cx="1331.0" cy="253" r="3.5" fill="#2BC5B4"/>
<text x="1340.0" y="258" font-size="18" fill="#0F1828" text-anchor="start">Large</text>
<line x1="1138" y1="336" x2="1522" y2="336" stroke="rgba(15,24,40,0.12)" stroke-width="1"/>
<text x="1142" y="362" font-size="15" fill="#4A5567" text-anchor="start" font-style="italic">Product &amp; form-factor optimisation</text>
<rect x="60" y="658" width="420" height="232" rx="14" fill="#FFFFFF" stroke="#C9A84C" stroke-width="2.5"/>
<rect x="60" y="658" width="420" height="46" rx="14" fill="#C9A84C"/>
<rect x="60" y="682" width="420" height="22" rx="0" fill="#C9A84C"/>
<text x="82" y="689" font-size="21" fill="#0F1828" text-anchor="start" font-weight="700">BY END-USE SECTOR</text>
<circle cx="77" cy="731" r="3.5" fill="#C9A84C"/>
<text x="86" y="736" font-size="18" fill="#0F1828" text-anchor="start">Commercial</text>
<circle cx="77" cy="761" r="3.5" fill="#C9A84C"/>
<text x="86" y="766" font-size="18" fill="#0F1828" text-anchor="start">Defence / Government</text>
<circle cx="77" cy="791" r="3.5" fill="#C9A84C"/>
<text x="86" y="796" font-size="18" fill="#0F1828" text-anchor="start">Consumer</text>
<line x1="78" y1="844" x2="462" y2="844" stroke="rgba(15,24,40,0.12)" stroke-width="1"/>
<text x="82" y="870" font-size="15" fill="#4A5567" text-anchor="start" font-style="italic">Go-to-market &amp; channel strategy</text>
<rect x="1120" y="658" width="420" height="232" rx="14" fill="#FFFFFF" stroke="#2BC5B4" stroke-width="2.5"/>
<rect x="1120" y="658" width="420" height="46" rx="14" fill="#2BC5B4"/>
<rect x="1120" y="682" width="420" height="22" rx="0" fill="#2BC5B4"/>
<text x="1142" y="689" font-size="21" fill="#0F1828" text-anchor="start" font-weight="700">BY COMPONENT TIER</text>
<circle cx="1137" cy="731" r="3.5" fill="#2BC5B4"/>
<text x="1146" y="736" font-size="18" fill="#0F1828" text-anchor="start">Discrete Components</text>
<circle cx="1137" cy="761" r="3.5" fill="#2BC5B4"/>
<text x="1146" y="766" font-size="18" fill="#0F1828" text-anchor="start">Modules</text>
<circle cx="1137" cy="791" r="3.5" fill="#2BC5B4"/>
<text x="1146" y="796" font-size="18" fill="#0F1828" text-anchor="start">Integrated Payloads</text>
<line x1="1138" y1="844" x2="1522" y2="844" stroke="rgba(15,24,40,0.12)" stroke-width="1"/>
<text x="1142" y="870" font-size="15" fill="#4A5567" text-anchor="start" font-style="italic">Value-chain position &amp; margin</text>
<text x="60" y="952" font-size="15" fill="#4A5567">Source: Techadyant Labs analysis.</text>
<text x="1540" y="952" font-size="15" font-style="italic" fill="#C9A84C" text-anchor="end">Schematic</text>
</svg>