<svg xmlns="http://www.w3.org/2000/svg" viewBox="0 0 1600 859" font-family="Arial, Helvetica, sans-serif">
<rect x="0" y="0" width="1600" height="859" fill="#FBF9F4"/>
<rect x="0" y="0" width="1600" height="10" fill="#0F1828"/>
<rect x="0" y="10" width="1600" height="3" fill="#C9A84C"/>
<text x="60" y="74" font-size="38" font-weight="700" fill="#0F1828">India&#x27;s Drone-Sensor Supply Chain</text>
<text x="62" y="108" font-size="20" fill="#4A5567">From raw materials to OEM: where value sits and where imports dominate, 2026</text>
<text x="1540" y="50" font-size="16" fill="#4A5567" text-anchor="end" font-family="'JetBrains Mono','Courier New',monospace">Figure 7.1 &#183; Techadyant Labs &#183; 2026</text>
<defs><marker id="ar" markerWidth="9" markerHeight="9" refX="7" refY="4.5" orient="auto"><path d="M0,0 L9,4.5 L0,9 z" fill="#4A5567"/></marker></defs>
<text x="60" y="150" font-size="22" fill="#4A5567" text-anchor="start">Value capture rises along the chain; component dependence on imports is near-total</text>
<rect x="60" y="200" width="270" height="180" rx="12" fill="rgba(200,68,59,0.85)" stroke="#C8443B" stroke-width="1.6"/>
<text x="195.0" y="240" font-size="18" fill="#0F1828" text-anchor="middle" font-weight="700">RAW MATERIALS</text>
<text x="195.0" y="276" font-size="15" fill="#0F1828" text-anchor="middle">Silicon, germanium,</text>
<text x="195.0" y="300" font-size="15" fill="#0F1828" text-anchor="middle">chalcogenide glass (IR)</text>
<text x="195.0" y="358" font-size="14" fill="#0F1828" text-anchor="middle" font-weight="700" font-family="'JetBrains Mono','Courier New',monospace">India value: &lt;5%</text>
<path d="M338,290.0 l24,0" stroke="#4A5567" stroke-width="3" marker-end="url(#ar)"/>
<rect x="370" y="200" width="270" height="180" rx="12" fill="rgba(200,68,59,0.7)" stroke="#C8443B" stroke-width="1.6"/>
<text x="505.0" y="240" font-size="18" fill="#0F1828" text-anchor="middle" font-weight="700">COMPONENT MFG</text>
<text x="505.0" y="276" font-size="15" fill="#0F1828" text-anchor="middle">MEMS chips, LiDAR</text>
<text x="505.0" y="300" font-size="15" fill="#0F1828" text-anchor="middle">scan engines, thermal arrays</text>
<text x="505.0" y="358" font-size="14" fill="#0F1828" text-anchor="middle" font-weight="700" font-family="'JetBrains Mono','Courier New',monospace">India value: &lt;5%</text>
<path d="M648,290.0 l24,0" stroke="#4A5567" stroke-width="3" marker-end="url(#ar)"/>
<rect x="680" y="200" width="270" height="180" rx="12" fill="rgba(201,168,76,0.75)" stroke="#C9A84C" stroke-width="1.6"/>
<text x="815.0" y="240" font-size="18" fill="#0F1828" text-anchor="middle" font-weight="700">MODULE ASSEMBLY</text>
<text x="815.0" y="276" font-size="15" fill="#0F1828" text-anchor="middle">RTK GPS, IMU boards,</text>
<text x="815.0" y="300" font-size="15" fill="#0F1828" text-anchor="middle">thermal &amp; multispectral modules</text>
<text x="815.0" y="358" font-size="14" fill="#0F1828" text-anchor="middle" font-weight="700" font-family="'JetBrains Mono','Courier New',monospace">India value: 10-15%</text>
<path d="M958,290.0 l24,0" stroke="#4A5567" stroke-width="3" marker-end="url(#ar)"/>
<rect x="990" y="200" width="270" height="180" rx="12" fill="rgba(43,197,180,0.6)" stroke="#2BC5B4" stroke-width="1.6"/>
<text x="1125.0" y="240" font-size="18" fill="#0F1828" text-anchor="middle" font-weight="700">INTEGRATED PAYLOAD</text>
<text x="1125.0" y="276" font-size="15" fill="#0F1828" text-anchor="middle">EO/IR gimbals, LiDAR+RGB,</text>
<text x="1125.0" y="300" font-size="15" fill="#0F1828" text-anchor="middle">sensor-fusion payloads</text>
<text x="1125.0" y="358" font-size="14" fill="#0F1828" text-anchor="middle" font-weight="700" font-family="'JetBrains Mono','Courier New',monospace">India value: 40-50%</text>
<path d="M1268,290.0 l24,0" stroke="#4A5567" stroke-width="3" marker-end="url(#ar)"/>
<rect x="1300" y="200" width="270" height="180" rx="12" fill="#2BC5B4" stroke="#2BC5B4" stroke-width="1.6"/>
<text x="1435.0" y="240" font-size="18" fill="#0F1828" text-anchor="middle" font-weight="700">DRONE OEM</text>
<text x="1435.0" y="276" font-size="15" fill="#0F1828" text-anchor="middle">Commercial &amp; defence</text>
<text x="1435.0" y="300" font-size="15" fill="#0F1828" text-anchor="middle">drones, DaaS providers</text>
<text x="1435.0" y="358" font-size="14" fill="#0F1828" text-anchor="middle" font-weight="700" font-family="'JetBrains Mono','Courier New',monospace">India value: strong</text>
<text x="60" y="470" font-size="22" fill="#0F1828" text-anchor="start" font-weight="700">Import sources by value</text>
<text x="60" y="527" font-size="18" fill="#0F1828" text-anchor="start" font-weight="700">China</text>
<rect x="200" y="505" width="480" height="26" rx="5" fill="rgba(74,85,103,0.1)"/>
<rect x="200" y="505" width="450.0" height="26" rx="5" fill="#C8443B"/>
<text x="694" y="527" font-size="16" fill="#4A5567" text-anchor="start" font-family="'JetBrains Mono','Courier New',monospace">70-80%</text>
<text x="60" y="575" font-size="18" fill="#0F1828" text-anchor="start" font-weight="700">USA</text>
<rect x="200" y="553" width="480" height="26" rx="5" fill="rgba(74,85,103,0.1)"/>
<rect x="200" y="553" width="108.0" height="26" rx="5" fill="#4A5567"/>
<text x="694" y="575" font-size="16" fill="#4A5567" text-anchor="start" font-family="'JetBrains Mono','Courier New',monospace">15-20%</text>
<text x="60" y="623" font-size="18" fill="#0F1828" text-anchor="start" font-weight="700">Taiwan</text>
<rect x="200" y="601" width="480" height="26" rx="5" fill="rgba(74,85,103,0.1)"/>
<rect x="200" y="601" width="78.0" height="26" rx="5" fill="#4A5567"/>
<text x="694" y="623" font-size="16" fill="#4A5567" text-anchor="start" font-family="'JetBrains Mono','Courier New',monospace">10-15%</text>
<text x="60" y="671" font-size="18" fill="#0F1828" text-anchor="start" font-weight="700">Israel</text>
<rect x="200" y="649" width="480" height="26" rx="5" fill="rgba(74,85,103,0.1)"/>
<rect x="200" y="649" width="60.0" height="26" rx="5" fill="#4A5567"/>
<text x="694" y="671" font-size="16" fill="#4A5567" text-anchor="start" font-family="'JetBrains Mono','Courier New',monospace">8-12%</text>
<text x="60" y="719" font-size="18" fill="#0F1828" text-anchor="start" font-weight="700">Europe</text>
<rect x="200" y="697" width="480" height="26" rx="5" fill="rgba(74,85,103,0.1)"/>
<rect x="200" y="697" width="48.0" height="26" rx="5" fill="#4A5567"/>
<text x="694" y="719" font-size="16" fill="#4A5567" text-anchor="start" font-family="'JetBrains Mono','Courier New',monospace">5-10%</text>
<text x="60" y="767" font-size="18" fill="#0F1828" text-anchor="start" font-weight="700">Japan</text>
<rect x="200" y="745" width="480" height="26" rx="5" fill="rgba(74,85,103,0.1)"/>
<rect x="200" y="745" width="42.0" height="26" rx="5" fill="#4A5567"/>
<text x="694" y="767" font-size="16" fill="#4A5567" text-anchor="start" font-family="'JetBrains Mono','Courier New',monospace">5-8%</text>
<text x="860" y="470" font-size="22" fill="#0F1828" text-anchor="start" font-weight="700">India capability by supply-chain tier</text>
<text x="860" y="527" font-size="18" fill="#0F1828" text-anchor="start" font-weight="700">Tier 1 — Components</text>
<rect x="860" y="539" width="440" height="30" rx="6" fill="rgba(74,85,103,0.1)"/>
<rect x="860" y="539" width="17.6" height="30" rx="6" fill="#C8443B"/>
<text x="891.6" y="561" font-size="18" fill="#C8443B" text-anchor="start" font-weight="700" font-family="'JetBrains Mono','Courier New',monospace">&lt;5%</text>
<text x="860" y="619" font-size="18" fill="#0F1828" text-anchor="start" font-weight="700">Tier 2 — Modules</text>
<rect x="860" y="631" width="440" height="30" rx="6" fill="rgba(74,85,103,0.1)"/>
<rect x="860" y="631" width="57.2" height="30" rx="6" fill="#C9A84C"/>
<text x="931.2" y="653" font-size="18" fill="#C9A84C" text-anchor="start" font-weight="700" font-family="'JetBrains Mono','Courier New',monospace">10-15%</text>
<text x="860" y="711" font-size="18" fill="#0F1828" text-anchor="start" font-weight="700">Tier 3 — Integration</text>
<rect x="860" y="723" width="440" height="30" rx="6" fill="rgba(74,85,103,0.1)"/>
<rect x="860" y="723" width="198.0" height="30" rx="6" fill="#2BC5B4"/>
<text x="1072.0" y="745" font-size="18" fill="#2BC5B4" text-anchor="start" font-weight="700" font-family="'JetBrains Mono','Courier New',monospace">40-50%</text>
<text x="60" y="831" font-size="15" fill="#4A5567">Source: DGCI&amp;S; industry estimates. Techadyant Labs analysis.</text>
</svg>