<svg xmlns="http://www.w3.org/2000/svg" viewBox="0 0 1600 912" font-family="Arial, Helvetica, sans-serif">
<rect x="0" y="0" width="1600" height="912" fill="#FBF9F4"/>
<rect x="0" y="0" width="1600" height="10" fill="#0F1828"/>
<rect x="0" y="10" width="1600" height="3" fill="#C9A84C"/>
<text x="60" y="74" font-size="38" font-weight="700" fill="#0F1828">When Each Sensor Goes Commercial</text>
<text x="62" y="108" font-size="20" fill="#4A5567">Technology commercialisation roadmap, 2026-2035 · indigenous vs import-led timing</text>
<text x="1540" y="50" font-size="16" fill="#4A5567" text-anchor="end" font-family="'JetBrains Mono','Courier New',monospace">Figure 12.2 &#183; Techadyant Labs &#183; 2026</text>
<text x="447.0" y="158" font-size="15" fill="#4A5567" text-anchor="middle" font-family="'JetBrains Mono','Courier New',monospace">2026</text>
<text x="561.0" y="158" font-size="15" fill="#4A5567" text-anchor="middle" font-family="'JetBrains Mono','Courier New',monospace">2027</text>
<line x1="504.0" y1="170" x2="504.0" y2="648" stroke="rgba(15,24,40,0.07)" stroke-width="1"/>
<text x="675.0" y="158" font-size="15" fill="#4A5567" text-anchor="middle" font-family="'JetBrains Mono','Courier New',monospace">2028</text>
<line x1="618.0" y1="170" x2="618.0" y2="648" stroke="rgba(15,24,40,0.07)" stroke-width="1"/>
<text x="789.0" y="158" font-size="15" fill="#4A5567" text-anchor="middle" font-family="'JetBrains Mono','Courier New',monospace">2029</text>
<line x1="732.0" y1="170" x2="732.0" y2="648" stroke="rgba(15,24,40,0.07)" stroke-width="1"/>
<text x="903.0" y="158" font-size="15" fill="#4A5567" text-anchor="middle" font-family="'JetBrains Mono','Courier New',monospace">2030</text>
<line x1="846.0" y1="170" x2="846.0" y2="648" stroke="rgba(15,24,40,0.07)" stroke-width="1"/>
<text x="1017.0" y="158" font-size="15" fill="#4A5567" text-anchor="middle" font-family="'JetBrains Mono','Courier New',monospace">2031</text>
<line x1="960.0" y1="170" x2="960.0" y2="648" stroke="rgba(15,24,40,0.07)" stroke-width="1"/>
<text x="1131.0" y="158" font-size="15" fill="#4A5567" text-anchor="middle" font-family="'JetBrains Mono','Courier New',monospace">2032</text>
<line x1="1074.0" y1="170" x2="1074.0" y2="648" stroke="rgba(15,24,40,0.07)" stroke-width="1"/>
<text x="1245.0" y="158" font-size="15" fill="#4A5567" text-anchor="middle" font-family="'JetBrains Mono','Courier New',monospace">2033</text>
<line x1="1188.0" y1="170" x2="1188.0" y2="648" stroke="rgba(15,24,40,0.07)" stroke-width="1"/>
<text x="1359.0" y="158" font-size="15" fill="#4A5567" text-anchor="middle" font-family="'JetBrains Mono','Courier New',monospace">2034</text>
<line x1="1302.0" y1="170" x2="1302.0" y2="648" stroke="rgba(15,24,40,0.07)" stroke-width="1"/>
<text x="1473.0" y="158" font-size="15" fill="#4A5567" text-anchor="middle" font-family="'JetBrains Mono','Courier New',monospace">2035</text>
<line x1="1416.0" y1="170" x2="1416.0" y2="648" stroke="rgba(15,24,40,0.07)" stroke-width="1"/>
<text x="70" y="194" font-size="18" fill="#0F1828" text-anchor="start" font-weight="700">Germanium-free thermal</text>
<text x="70" y="216" font-size="14" fill="#4A5567" text-anchor="start">Eon Space — scale-up</text>
<rect x="390.0" y="180" width="1140.0" height="38" rx="6" fill="#2BC5B4"/>
<text x="70" y="264" font-size="18" fill="#0F1828" text-anchor="start" font-weight="700">Solid-state LiDAR</text>
<text x="70" y="286" font-size="14" fill="#4A5567" text-anchor="start">R&amp;D/import then scale-up</text>
<rect x="390" y="250" width="228.0" height="38" rx="6" fill="rgba(15,24,40,0.1)"/>
<rect x="618.0" y="250" width="912.0" height="38" rx="6" fill="#2BC5B4"/>
<text x="70" y="334" font-size="18" fill="#0F1828" text-anchor="start" font-weight="700">FMCW LiDAR</text>
<text x="70" y="356" font-size="14" fill="#4A5567" text-anchor="start">Commercial (import first)</text>
<rect x="390" y="320" width="456.0" height="38" rx="6" fill="rgba(15,24,40,0.1)"/>
<rect x="846.0" y="320" width="684.0" height="38" rx="6" fill="#C9A84C"/>
<text x="70" y="404" font-size="18" fill="#0F1828" text-anchor="start" font-weight="700">Drone-scale radar</text>
<text x="70" y="426" font-size="14" fill="#4A5567" text-anchor="start">BEL/DRDO — defence first</text>
<rect x="390" y="390" width="456.0" height="38" rx="6" fill="rgba(15,24,40,0.1)"/>
<rect x="846.0" y="390" width="684.0" height="38" rx="6" fill="#2BC5B4"/>
<text x="70" y="474" font-size="18" fill="#0F1828" text-anchor="start" font-weight="700">Hyperspectral miniaturisation</text>
<text x="70" y="496" font-size="14" fill="#4A5567" text-anchor="start">Commercial agri/mining</text>
<rect x="390" y="460" width="684.0" height="38" rx="6" fill="rgba(15,24,40,0.1)"/>
<rect x="1074.0" y="460" width="456.0" height="38" rx="6" fill="#2BC5B4"/>
<text x="70" y="544" font-size="18" fill="#0F1828" text-anchor="start" font-weight="700">MEMS IMU (domestic fab)</text>
<text x="70" y="566" font-size="14" fill="#4A5567" text-anchor="start">R&amp;D — pilot at best by 2035</text>
<rect x="390" y="530" width="1026.0" height="38" rx="6" fill="rgba(15,24,40,0.1)"/>
<rect x="1416.0" y="530" width="114.0" height="38" rx="6" fill="rgba(201,168,76,0.5)"/>
<text x="70" y="614" font-size="18" fill="#0F1828" text-anchor="start" font-weight="700">Quantum sensors</text>
<text x="70" y="636" font-size="14" fill="#4A5567" text-anchor="start">R&amp;D (academic) throughout</text>
<rect x="390" y="600" width="1140.0" height="38" rx="6" fill="rgba(15,24,40,0.1)"/>
<text x="960.0" y="628" font-size="14" fill="#4A5567" text-anchor="middle" font-style="italic">R&amp;D throughout — not commercial in horizon</text>
<rect x="70" y="666" width="28" height="18" rx="4" fill="#2BC5B4"/>
<text x="108" y="681" font-size="15" fill="#0F1828" text-anchor="start">Commercial scale (India indigenous/integrated)</text>
<rect x="510" y="666" width="28" height="18" rx="4" fill="#C9A84C"/>
<text x="548" y="681" font-size="15" fill="#0F1828" text-anchor="start">Commercial (import-led)</text>
<rect x="830" y="666" width="28" height="18" rx="4" fill="rgba(15,24,40,0.1)"/>
<text x="868" y="681" font-size="15" fill="#0F1828" text-anchor="start">R&amp;D / prototype / import-dependent</text>
<rect x="70" y="706" width="1460" height="118" rx="12" fill="rgba(15,24,40,0.05)" stroke="rgba(15,24,40,0.12)" stroke-width="1"/>
<text x="94" y="736" font-size="18" fill="#0F1828" text-anchor="start" font-weight="700">Key inflection points</text>
<circle cx="92" cy="759" r="3.5" fill="#C9A84C"/>
<text x="106" y="764" font-size="15" fill="#4A5567" text-anchor="start">2027-28: BVLOS approval drives sense-and-avoid radar demand</text>
<circle cx="92" cy="785" r="3.5" fill="#C9A84C"/>
<text x="106" y="790" font-size="15" fill="#4A5567" text-anchor="start">2028-29: solid-state LiDAR integration at scale (small drones)</text>
<circle cx="92" cy="811" r="3.5" fill="#C9A84C"/>
<text x="106" y="816" font-size="15" fill="#4A5567" text-anchor="start">2029-30: drone-scale radar commercial — defence first</text>
<circle cx="808.0" cy="759" r="3.5" fill="#C9A84C"/>
<text x="822.0" y="764" font-size="15" fill="#4A5567" text-anchor="start">2030-32: hyperspectral commercial for agriculture/mining</text>
<circle cx="808.0" cy="785" r="3.5" fill="#C9A84C"/>
<text x="822.0" y="790" font-size="15" fill="#4A5567" text-anchor="start">2032-35: MEMS IMU domestic fab at pilot scale (if policy supports)</text>
<text x="60" y="884" font-size="15" fill="#4A5567">Source: Techadyant Labs analysis.</text>
<text x="1540" y="884" font-size="15" font-style="italic" fill="#C9A84C" text-anchor="end">Forecast</text>
</svg>