<svg xmlns="http://www.w3.org/2000/svg" viewBox="0 0 1600 769" font-family="Arial, Helvetica, sans-serif">
<rect x="0" y="0" width="1600" height="769" fill="#FBF9F4"/>
<rect x="0" y="0" width="1600" height="10" fill="#0F1828"/>
<rect x="0" y="10" width="1600" height="3" fill="#C9A84C"/>
<text x="60" y="74" font-size="38" font-weight="700" fill="#0F1828">Mining: From Exploration to Reclamation</text>
<text x="62" y="108" font-size="20" fill="#4A5567">Drone sensing across the mine lifecycle; regulatory demand anchors volumetrics</text>
<text x="1540" y="50" font-size="16" fill="#4A5567" text-anchor="end" font-family="'JetBrains Mono','Courier New',monospace">Figure 10.4 &#183; Techadyant Labs &#183; 2026</text>
<defs><marker id="ah" markerWidth="12" markerHeight="12" refX="9" refY="4" orient="auto"><path d="M0,0 L9,4 L0,8 Z" fill="rgba(15,24,40,0.55)"/></marker></defs>
<rect x="60.0" y="220" width="350" height="460" rx="14" fill="rgba(15,24,40,0.04)" stroke="rgba(15,24,40,0.18)" stroke-width="1.5"/>
<rect x="60.0" y="220" width="350" height="70" rx="14" fill="#0F1828"/>
<rect x="60.0" y="260" width="350" height="30" rx="0" fill="#0F1828"/>
<rect x="82.0" y="238" width="34" height="34" rx="8" fill="#C9A84C"/>
<text x="99.0" y="264" font-size="20" fill="#0F1828" text-anchor="middle" font-weight="700" font-family="'JetBrains Mono','Courier New',monospace">1</text>
<text x="130.0" y="264" font-size="18" fill="#FBF9F4" text-anchor="start" font-weight="700">EXPLORATION</text>
<text x="82.0" y="328" font-size="14" fill="#C8443B" text-anchor="start" font-weight="700">Sensors</text>
<circle cx="88.0" cy="348" r="4" fill="#C8443B"/>
<text x="100.0" y="354" font-size="15" fill="#4A5567" text-anchor="start">Hyperspectral (minerals)</text>
<circle cx="88.0" cy="374" r="4" fill="#C8443B"/>
<text x="100.0" y="380" font-size="15" fill="#4A5567" text-anchor="start">Magnetometers (subsurface)</text>
<circle cx="88.0" cy="400" r="4" fill="#C8443B"/>
<text x="100.0" y="406" font-size="15" fill="#4A5567" text-anchor="start">LiDAR (terrain)</text>
<text x="82.0" y="552" font-size="14" fill="#C8443B" text-anchor="start" font-weight="700">Output</text>
<text x="82.0" y="578" font-size="15" fill="#0F1828" text-anchor="start">Mineral deposit maps;</text>
<text x="82.0" y="602" font-size="15" fill="#0F1828" text-anchor="start">resource estimation</text>
<rect x="82.0" y="618" width="128" height="30" rx="15" fill="rgba(200,68,59,0.2)" stroke="#C8443B" stroke-width="1.5"/>
<text x="94.0" y="640" font-size="14" fill="#0F1828" text-anchor="start" font-weight="700">Adoption: Low</text>
<line x1="418.0" y1="450.0" x2="428.6666666666667" y2="450.0" stroke="rgba(15,24,40,0.5)" stroke-width="3" marker-end="url(#ah)"/>
<rect x="436.6666666666667" y="220" width="350" height="460" rx="14" fill="rgba(15,24,40,0.04)" stroke="rgba(15,24,40,0.18)" stroke-width="1.5"/>
<rect x="436.6666666666667" y="220" width="350" height="70" rx="14" fill="#0F1828"/>
<rect x="436.6666666666667" y="260" width="350" height="30" rx="0" fill="#0F1828"/>
<rect x="458.6666666666667" y="238" width="34" height="34" rx="8" fill="#C9A84C"/>
<text x="475.6666666666667" y="264" font-size="20" fill="#0F1828" text-anchor="middle" font-weight="700" font-family="'JetBrains Mono','Courier New',monospace">2</text>
<text x="506.6666666666667" y="264" font-size="18" fill="#FBF9F4" text-anchor="start" font-weight="700">VOLUMETRIC ANALYSIS</text>
<rect x="454.6666666666667" y="306" width="314" height="30" rx="8" fill="rgba(200,68,59,0.16)" stroke="#C8443B" stroke-width="1.5"/>
<text x="611.6666666666667" y="327" font-size="14" fill="#0F1828" text-anchor="middle" font-weight="700">IBM mandatory - quarterly</text>
<text x="458.6666666666667" y="368" font-size="14" fill="#2BC5B4" text-anchor="start" font-weight="700">Sensors</text>
<circle cx="464.6666666666667" cy="388" r="4" fill="#2BC5B4"/>
<text x="476.6666666666667" y="394" font-size="15" fill="#4A5567" text-anchor="start">LiDAR (stockpile volume)</text>
<circle cx="464.6666666666667" cy="414" r="4" fill="#2BC5B4"/>
<text x="476.6666666666667" y="420" font-size="15" fill="#4A5567" text-anchor="start">RTK GPS (georeferencing)</text>
<circle cx="464.6666666666667" cy="440" r="4" fill="#2BC5B4"/>
<text x="476.6666666666667" y="446" font-size="15" fill="#4A5567" text-anchor="start">RGB (visual record)</text>
<text x="458.6666666666667" y="552" font-size="14" fill="#2BC5B4" text-anchor="start" font-weight="700">Output</text>
<text x="458.6666666666667" y="578" font-size="15" fill="#0F1828" text-anchor="start">Stockpile volume vs.</text>
<text x="458.6666666666667" y="602" font-size="15" fill="#0F1828" text-anchor="start">dispatch records</text>
<rect x="458.6666666666667" y="618" width="136" height="30" rx="15" fill="rgba(43,197,180,0.2)" stroke="#2BC5B4" stroke-width="1.5"/>
<text x="470.6666666666667" y="640" font-size="14" fill="#0F1828" text-anchor="start" font-weight="700">Adoption: High</text>
<line x1="794.6666666666667" y1="450.0" x2="805.3333333333334" y2="450.0" stroke="rgba(15,24,40,0.5)" stroke-width="3" marker-end="url(#ah)"/>
<rect x="813.3333333333334" y="220" width="350" height="460" rx="14" fill="rgba(15,24,40,0.04)" stroke="rgba(15,24,40,0.18)" stroke-width="1.5"/>
<rect x="813.3333333333334" y="220" width="350" height="70" rx="14" fill="#0F1828"/>
<rect x="813.3333333333334" y="260" width="350" height="30" rx="0" fill="#0F1828"/>
<rect x="835.3333333333334" y="238" width="34" height="34" rx="8" fill="#C9A84C"/>
<text x="852.3333333333334" y="264" font-size="20" fill="#0F1828" text-anchor="middle" font-weight="700" font-family="'JetBrains Mono','Courier New',monospace">3</text>
<text x="883.3333333333334" y="264" font-size="18" fill="#FBF9F4" text-anchor="start" font-weight="700">PIT MAPPING &amp; SLOPE</text>
<text x="835.3333333333334" y="328" font-size="14" fill="#C9A84C" text-anchor="start" font-weight="700">Sensors</text>
<circle cx="841.3333333333334" cy="348" r="4" fill="#C9A84C"/>
<text x="853.3333333333334" y="354" font-size="15" fill="#4A5567" text-anchor="start">LiDAR (pit surface)</text>
<circle cx="841.3333333333334" cy="374" r="4" fill="#C9A84C"/>
<text x="853.3333333333334" y="380" font-size="15" fill="#4A5567" text-anchor="start">RGB (visual)</text>
<circle cx="841.3333333333334" cy="400" r="4" fill="#C9A84C"/>
<text x="853.3333333333334" y="406" font-size="15" fill="#4A5567" text-anchor="start">Thermal (water seepage)</text>
<text x="835.3333333333334" y="552" font-size="14" fill="#C9A84C" text-anchor="start" font-weight="700">Output</text>
<text x="835.3333333333334" y="578" font-size="15" fill="#0F1828" text-anchor="start">As-built pit maps;</text>
<text x="835.3333333333334" y="602" font-size="15" fill="#0F1828" text-anchor="start">slope deformation</text>
<rect x="835.3333333333334" y="618" width="152" height="30" rx="15" fill="rgba(201,168,76,0.2)" stroke="#C9A84C" stroke-width="1.5"/>
<text x="847.3333333333334" y="640" font-size="14" fill="#0F1828" text-anchor="start" font-weight="700">Adoption: Medium</text>
<line x1="1171.3333333333335" y1="450.0" x2="1182.0000000000002" y2="450.0" stroke="rgba(15,24,40,0.5)" stroke-width="3" marker-end="url(#ah)"/>
<rect x="1190.0" y="220" width="350" height="460" rx="14" fill="rgba(15,24,40,0.04)" stroke="rgba(15,24,40,0.18)" stroke-width="1.5"/>
<rect x="1190.0" y="220" width="350" height="70" rx="14" fill="#0F1828"/>
<rect x="1190.0" y="260" width="350" height="30" rx="0" fill="#0F1828"/>
<rect x="1212.0" y="238" width="34" height="34" rx="8" fill="#C9A84C"/>
<text x="1229.0" y="264" font-size="20" fill="#0F1828" text-anchor="middle" font-weight="700" font-family="'JetBrains Mono','Courier New',monospace">4</text>
<text x="1260.0" y="264" font-size="18" fill="#FBF9F4" text-anchor="start" font-weight="700">RECLAMATION</text>
<text x="1212.0" y="328" font-size="14" fill="#C9A84C" text-anchor="start" font-weight="700">Sensors</text>
<circle cx="1218.0" cy="348" r="4" fill="#C9A84C"/>
<text x="1230.0" y="354" font-size="15" fill="#4A5567" text-anchor="start">Multispectral (revegetation)</text>
<circle cx="1218.0" cy="374" r="4" fill="#C9A84C"/>
<text x="1230.0" y="380" font-size="15" fill="#4A5567" text-anchor="start">LiDAR (topography)</text>
<text x="1212.0" y="552" font-size="14" fill="#C9A84C" text-anchor="start" font-weight="700">Output</text>
<text x="1212.0" y="578" font-size="15" fill="#0F1828" text-anchor="start">Reclamation progress;</text>
<text x="1212.0" y="602" font-size="15" fill="#0F1828" text-anchor="start">compliance reports</text>
<rect x="1212.0" y="618" width="184" height="30" rx="15" fill="rgba(201,168,76,0.2)" stroke="#C9A84C" stroke-width="1.5"/>
<text x="1224.0" y="640" font-size="14" fill="#0F1828" text-anchor="start" font-weight="700">Adoption: Low-Medium</text>
<text x="60" y="741" font-size="15" fill="#4A5567">Source: Indian Bureau of Mines (IBM), operator data. Techadyant Labs analysis.</text>
<text x="1540" y="741" font-size="15" font-style="italic" fill="#C9A84C" text-anchor="end">Schematic</text>
</svg>